<?xml version="1.0" encoding="UTF-8" standalone="no"?>
<svg width="18px" height="18px" viewBox="0 0 18 18" version="1.1" xmlns="http://www.w3.org/2000/svg" xmlns:xlink="http://www.w3.org/1999/xlink">
    <!-- Generator: Sketch 46 (44423) - http://www.bohemiancoding.com/sketch -->
    <title>logo</title>
    <desc>Created with Sketch.</desc>
    <defs></defs>
    <g id="Pages" stroke="none" stroke-width="1" fill="none" fill-rule="evenodd">
        <g id="511__Your_Assets_with_Eidoo_Token" transform="translate(-27.000000, -411.000000)" fill-rule="nonzero" fill="#092A35">
            <g id="BODY" transform="translate(0.000000, 11.000000)">
                <g id="item" transform="translate(0.000000, 384.000000)">
                    <g id="logo" transform="translate(21.000000, 10.000000)">
                        <g transform="translate(6.000000, 6.000000)" id="Shape">
                            <path d="M7.5775679,5.33920593 L5.64286972,3.41265566 C5.60493446,3.37463164 5.54170903,3.3492823 5.49112868,3.3492823 C5.44054834,3.3492823 5.37732291,3.37463164 5.33938765,3.41265566 L0.0663867025,8.69799423 C-0.0221289008,8.78671694 -0.0221289008,8.91346367 0.0663867025,9.00218638 L2.00108489,10.9414113 C2.03902015,10.9794353 2.10224558,11.0047847 2.15282593,11.0047847 C2.20340627,11.0047847 2.2666317,10.9794353 2.30456696,10.9414113 L7.5775679,5.65607275 C7.65343842,5.55467537 7.65343842,5.42792864 7.5775679,5.33920593 Z M2.12716171,10.5263158 L0.4626952,8.86445816 L5.50730908,3.8277512 L7.17177559,5.48960882 L2.12716171,10.5263158 Z" stroke="#092A35" stroke-width="0.2"></path>
                            <path d="M8.75197142,4.24289333 C8.79069921,4.28088939 8.85524554,4.3062201 8.90688259,4.3062201 C8.95851965,4.3062201 9.02306597,4.28088939 9.06179376,4.24289333 L11.0369112,2.30509429 C11.127276,2.21643681 11.127276,2.08978328 11.0369112,2.00112581 L9.06179376,0.0633267661 C9.02306597,0.0253307064 8.95851965,0 8.90688259,0 C8.85524554,0 8.79069921,0.0253307064 8.75197142,0.0633267661 L6.77685403,2.00112581 C6.68648918,2.08978328 6.68648918,2.21643681 6.77685403,2.30509429 L8.75197142,4.24289333 Z"></path>
                            <path d="M6.76598328,8.99886532 L8.70068147,10.9413062 C8.73861673,10.9793933 8.80184216,11.0047847 8.8524225,11.0047847 C8.90300285,11.0047847 8.96622828,10.9793933 9.00416354,10.9413062 L14.2771645,5.64720258 C14.3656801,5.55833274 14.3656801,5.43137582 14.2771645,5.34250597 L12.3424663,3.41276076 C12.304531,3.37467368 12.2413056,3.3492823 12.1907253,3.3492823 C12.1401449,3.3492823 12.0769195,3.37467368 12.0389842,3.41276076 L6.76598328,8.7068644 C6.69011276,8.78303856 6.69011276,8.92269117 6.76598328,8.99886532 Z M12.2163895,3.8277512 L13.880856,5.48960882 L8.8362421,10.5263158 L7.17177559,8.86445816 L12.2163895,3.8277512 Z" stroke="#092A35" stroke-width="0.2"></path>
                            <path d="M7.80759847,12.2882071 L5.82812099,10.3504081 C5.78930771,10.312412 5.7246189,10.2870813 5.67286785,10.2870813 C5.62111681,10.2870813 5.556428,10.312412 5.51761472,10.3504081 L3.53813724,12.2882071 C3.44757291,12.3768646 3.44757291,12.5035182 3.53813724,12.5921756 L5.51761472,14.5299747 C5.54349024,14.5553054 5.56936576,14.5679707 5.59524129,14.5806361 C5.62111681,14.5933014 5.64699233,14.5933014 5.67286785,14.5933014 C5.69874338,14.5933014 5.7246189,14.5933014 5.75049442,14.5806361 C5.77636995,14.5679707 5.80224547,14.5553054 5.82812099,14.5299747 L7.80759847,12.5921756 C7.88522503,12.5035182 7.88522503,12.3768646 7.80759847,12.2882071 Z"></path>
                            <path d="M12.344949,10.3504547 C12.3070608,10.3124307 12.2439139,10.2870813 12.1933963,10.2870813 C12.1428787,10.2870813 12.0797317,10.3124307 12.0418435,10.3504547 L6.77538473,15.6357933 C6.68697895,15.724516 6.68697895,15.8512627 6.77538473,15.9399854 L8.70768255,17.8792104 C8.74557074,17.9172344 8.80871773,17.9425837 8.85923532,17.9425837 C8.90975291,17.9425837 8.9728999,17.9172344 9.01078809,17.8792104 L14.2772468,12.5938718 C14.3656526,12.5051491 14.3656526,12.3784024 14.2772468,12.2896796 L12.344949,10.3504547 Z M8.8362421,17.4641148 L7.17177559,15.8022572 L12.2163895,10.7655502 L13.880856,12.4274079 L8.8362421,17.4641148 Z" stroke="#092A35" stroke-width="0.2"></path>
                            <path d="M17.7555453,8.70138408 L15.7760678,6.76500884 C15.6855035,6.67641651 15.5561258,6.67641651 15.4655615,6.76500884 L13.486084,8.70138408 C13.3955197,8.78997641 13.3955197,8.91653688 13.486084,9.00512921 L15.4655615,10.9415045 C15.491437,10.9668165 15.5173126,10.9794726 15.5431881,10.9921286 C15.5690636,11.0047847 15.5949391,11.0047847 15.6208146,11.0047847 C15.6725657,11.0047847 15.7372545,10.9794726 15.7760678,10.9415045 L17.7555453,9.00512921 C17.8331718,8.91653688 17.8331718,8.77732036 17.7555453,8.70138408 Z"></path>
                        </g>
                    </g>
                </g>
            </g>
        </g>
    </g>
</svg>