<svg xmlns="http://www.w3.org/2000/svg" xmlns:xlink="http://www.w3.org/1999/xlink" id="Livello_1" x="0" y="0" version="1.0" viewBox="0 0 200 200" xml:space="preserve"><style>.st2{fill:#fff}.st3{fill:red}</style><g id="TCAD_BG"><defs><path id="SVGID_1_" d="M100 195c-52.3 0-95-42.8-95-95S47.8 5 100 5c52.3 0 95 42.8 95 95 0 52.3-42.7 95-95 95z"/></defs><clipPath id="SVGID_2_"><use overflow="visible" xlink:href="#SVGID_1_"/></clipPath><path id="Coin_2_" fill="red" d="M100 195c-52.3 0-95-42.8-95-95S47.8 5 100 5c52.3 0 95 42.8 95 95 0 52.3-42.7 95-95 95z" clip-path="url(#SVGID_2_)"/><g><defs><path id="SVGID_3_" d="M100 195c-52.3 0-95-42.8-95-95S47.8 5 100 5c52.3 0 95 42.8 95 95 0 52.3-42.7 95-95 95z"/></defs><clipPath id="SVGID_4_"><use overflow="visible" xlink:href="#SVGID_3_"/></clipPath><path id="_x31__1_" fill="#c70000" d="M100 20.2L84.6 48.9c-1.7 3.1-4.9 2.8-8 1.1l-11.1-5.8 8.3 44c1.7 8-3.8 8-6.6 4.6L47.8 71l-3.2 11c-.4 1.4-2 3-4.4 2.6l-24.5-5.2 6.4 23.4c1.4 5.2 2.5 7.4-1.4 8.8l-8.7 4.1L54.3 150c1.7 1.3 2.5 3.6 1.9 5.7L52.5 168c14.6-1.7 27.6-4.2 42.1-5.8 1.3-.1 3.4 2 3.4 3.5l-1.9 44.5h7.1l-1.1-44.4c0-1.5 1.9-3.7 3.2-3.6 14.6 1.6 27.6 4.1 42.1 5.8l-3.7-12.1c-.6-2.1.3-4.4 1.9-5.7l42.3-34.3-8.7-4.1c-3.8-1.4-2.8-3.5-1.4-8.8l6.4-23.4-24.5 5.2c-2.4.4-4-1.2-4.4-2.6l-3.2-11-19.4 21.7c-2.8 3.5-8.4 3.5-6.6-4.6l8.3-44-11.1 5.8c-3.1 1.7-6.2 2-8-1.1" clip-path="url(#SVGID_4_)"/></g></g><path id="BG" d="M147.9 157H52.1c-5 0-9.1-4.1-9.1-9.1V52.1c0-5 4.1-9.1 9.1-9.1h95.8c5 0 9.1 4.1 9.1 9.1v95.8c0 5-4.1 9.1-9.1 9.1z" class="st2"/><path d="M64.1 145.5c-.3 0-.5-.3-.5-.6v-15.3c0-.3-.2-.6-.5-.6h-5.4c-.3 0-.6-.2-.6-.5v-3c0-.3.3-.6.6-.6h16.6c.3 0 .6.3.6.6v3c0 .3-.3.5-.6.5h-5.4c-.3 0-.6.3-.6.6V145c0 .3-.2.6-.5.6h-3.7zM96.6 138.7c.5 0 .7.4.5.9-1.6 3.7-5.5 6.1-9.9 6.1-6 0-10.8-4.4-10.8-10.5s4.9-10.6 10.8-10.6c4.3 0 8.2 2.4 9.8 6.1.2.5 0 .8-.5.8h-3.8c-.6 0-.8-.2-1-.5-1.1-1.3-2.7-2.1-4.4-2.1-3.2 0-5.8 2.5-5.8 6.1s2.6 6.1 5.8 6.1c1.8 0 3.4-.8 4.5-2.2.2-.3.5-.4 1.1-.4l3.7.2zM115.8 145.5c-.2 0-.4-.2-.5-.5l-1.2-3c-.1-.3-.2-.3-.6-.3h-7.7c-.2 0-.4.2-.5.3l-1.2 3c-.2.4-.2.5-.8.5h-3.5c-.4 0-.6-.3-.4-.8l8.2-19.3c.2-.4.3-.5.7-.5h3.4c.3 0 .5.2.7.5l7.9 19.3c.2.4 0 .7-.4.7h-4.1zm-6-14.4c0-.1 0-.1 0 0l-2.8 6.8c-.1.2 0 .4.2.4h5.1c.2 0 .3-.2.2-.4l-2.7-6.8zM124.1 145.5c-.3 0-.5-.3-.5-.6v-19.4c0-.3.2-.6.5-.6h8.2c6.1 0 10.8 4.2 10.8 10.3 0 6-4.7 10.2-10.8 10.2l-8.2.1zm8.2-4.1c3.3 0 5.9-2.6 5.9-6.2s-2.6-6.2-5.9-6.2h-3.4c-.3 0-.5.3-.5.6v11.3c0 .3.2.5.5.5h3.4z" class="st3"/><path id="BG_1_" d="M154 113.7H46c-.8 0-1.5-.7-1.5-1.5v-60c0-4.2 3.4-7.6 7.6-7.6h95.8c4.2 0 7.6 3.4 7.6 7.6v60c0 .8-.7 1.5-1.5 1.5z" class="st3"/><path d="M122.4 57.3H77.6c-.6 0-1.1.5-1.1 1.1v9.9c0 .6.5 1.1 1.1 1.1h17v30.8c0 .6.5 1.1 1.1 1.1h9.9c.6 0 1.1-.5 1.1-1.1V69.4h15.7c.6 0 1.1-.5 1.1-1.1v-9.9c.1-.6-.5-1.1-1.1-1.1z" class="st2"/></svg>