<svg xmlns="http://www.w3.org/2000/svg" id="TUSD" x="0" y="0" version="1.0" viewBox="0 0 200 200" xml:space="preserve"><style>.st1{fill:#fff}</style><path id="Coin_BG" fill="#002868" d="M100 195c-52.3 0-95-42.8-95-95S47.8 5 100 5c52.3 0 95 42.8 95 95 0 52.3-42.7 95-95 95z"/><path d="M136.2 135.3c0 3.6-2.6 6.2-5.9 6.2h-3.4c-.3 0-.5-.2-.5-.5v-11.3c0-.3.2-.6.5-.6h3.4c3.4-.1 5.9 2.6 5.9 6.2z" class="st1"/><path d="M147.9 43H52.1c-5 0-9.1 4.1-9.1 9.1v95.8c0 5 4.1 9.1 9.1 9.1h95.8c5 0 9.1-4.1 9.1-9.1V52.1c0-5-4.1-9.1-9.1-9.1zM76 128.5c0 .3-.3.5-.6.5H70c-.3 0-.6.3-.6.6V145c0 .3-.2.6-.5.6h-3.7c-.3 0-.5-.3-.5-.6v-15.3c0-.3-.2-.6-.5-.6h-5.4c-.3 0-.6-.2-.6-.5v-3c0-.3.3-.6.6-.6h16.7c.3 0 .6.3.6.6v2.9zm21.3 7.5c0 6.2-3.5 9.8-9.1 9.8-5.5 0-9-3.6-9-9.8v-10.5c0-.3.2-.6.5-.6h3.6c.3 0 .6.3.6.6v10.6c0 3.1 1.6 5.2 4.3 5.2 2.7 0 4.3-2.2 4.3-5.2v-10.6c0-.3.3-.6.5-.6h3.6c.3 0 .6.3.6.6V136zm11.9 9.8c-4.3 0-8-2.1-8.5-6.5-.1-.4.2-.6.6-.6h3.3c.4 0 .7.2.8.5.5 1.5 2 2.6 4.2 2.6 2 0 3.7-.7 3.7-2.3 0-1.8-1.8-2.2-5.4-2.6-4.2-.5-7.1-1.8-7.1-5.6s3.3-6.6 8.4-6.6c4.7 0 7.9 2.5 8.6 6.3.1.4 0 .7-.5.7H114c-.5 0-.6-.2-.8-.5-.6-1.5-2-2.4-4.1-2.4-1.9 0-3.5.7-3.5 1.9 0 1.4 1.5 2 4.8 2.4 5 .6 7.8 2.1 7.8 6-.2 4.3-4 6.7-9 6.7zm21.2-.3h-8.2c-.3 0-.5-.3-.5-.6v-19.4c0-.3.3-.6.5-.6h8.2c6.1 0 10.8 4.2 10.8 10.3 0 6.2-4.7 10.3-10.8 10.3zm25.1-33.3c0 .8-.7 1.5-1.5 1.5H46c-.8 0-1.5-.7-1.5-1.5v-60c0-4.2 3.4-7.6 7.6-7.6h95.8c4.2 0 7.6 3.4 7.6 7.6v60z" class="st1"/><path d="M122.4 57.3H77.6c-.6 0-1.1.5-1.1 1.1v9.9c0 .6.5 1.1 1.1 1.1h17v30.8c0 .6.5 1.1 1.1 1.1h9.9c.6 0 1.1-.5 1.1-1.1V69.4h15.7c.6 0 1.1-.5 1.1-1.1v-9.9c.1-.6-.5-1.1-1.1-1.1z" class="st1"/></svg>