<svg xmlns="http://www.w3.org/2000/svg" version="1" viewBox="0 0 200 200"><path fill="#606161" d="M184.4 53.9S159.4 3.8 96.8 5c-42.6.8-69.9 25.7-81.3 52.6-5.3 12.7-6.3 26.7-5.2 37.3 1.5 14.4 8.2 28.7 16.5 38.9C37.5 146.9 50.1 154 50.1 154s-30.5-34.3-21-72.7c3-12.1 8.9-24.5 22.2-36.5 17-15.3 34.3-21.3 50.6-23.2 37-4.2 69.1 17.3 82.5 32.3z"/><path fill="#5DC9BC" d="M15.6 146.1s25 50.1 87.6 48.9c42.5-.8 69.9-25.7 81.3-52.6 5.3-12.7 6.3-26.7 5.2-37.3-1.5-14.4-8.2-28.7-16.5-38.9-10.7-13.1-23.3-20.3-23.3-20.3s30.5 34.3 21 72.7c-3 12.1-8.9 24.5-22.2 36.5-17 15.3-34.3 21.3-50.6 23.2-37 4.3-69.1-17.2-82.5-32.2z"/><path fill="#606161" d="M141.7 61.3H86s-21.6 0-27.3 17.1h30.7v67.1s20.5-2.3 20.5-25V78.4h6.8s19.3 0 25-17.1z"/></svg>