<svg xmlns="http://www.w3.org/2000/svg" xmlns:xlink="http://www.w3.org/1999/xlink" id="Livello_1" x="0" y="0" version="1.0" viewBox="0 0 200 200" xml:space="preserve"><style>.st4{fill:#fff}.st5{fill:#d51c23}</style><g id="TGBP_BG"><defs><path id="SVGID_1_" d="M100 195c-52.3 0-95-42.8-95-95S47.8 5 100 5c52.3 0 95 42.8 95 95 0 52.3-42.7 95-95 95z"/></defs><clipPath id="SVGID_2_"><use overflow="visible" xlink:href="#SVGID_1_"/></clipPath><path id="Coin_2_" fill="#d51c23" d="M100 195c-52.3 0-95-42.8-95-95S47.8 5 100 5c52.3 0 95 42.8 95 95 0 52.3-42.7 95-95 95z" clip-path="url(#SVGID_2_)"/><defs><path id="SVGID_3_" d="M100 195c-52.3 0-95-42.8-95-95S47.8 5 100 5c52.3 0 95 42.8 95 95 0 52.3-42.7 95-95 95z"/></defs><clipPath id="SVGID_4_"><use overflow="visible" xlink:href="#SVGID_3_"/></clipPath><path fill="#a50000" d="M290 80.6H119v-76H81v76H-90v38H81v76h38v-76h171" clip-path="url(#SVGID_4_)"/><g><defs><path id="SVGID_5_" d="M100 195c-52.3 0-95-42.8-95-95S47.8 5 100 5c52.3 0 95 42.8 95 95 0 52.3-42.7 95-95 95z"/></defs><clipPath id="SVGID_6_"><use overflow="visible" xlink:href="#SVGID_5_"/></clipPath><path fill="#a50000" d="M163.3 131.3h28.3l98.3 49.2v14.2M36.7 68H8.3L-90 18.8V4.6L36.7 68zm0 63.3H65l-126.7 63.3H-90l126.7-63.3zM163.3 68H135L261.7 4.6H290L163.3 68z" clip-path="url(#SVGID_6_)"/></g><g><defs><path id="SVGID_7_" d="M100 195c-52.3 0-95-42.8-95-95S47.8 5 100 5c52.3 0 95 42.8 95 95 0 52.3-42.7 95-95 95z"/></defs><clipPath id="SVGID_8_"><use overflow="visible" xlink:href="#SVGID_7_"/></clipPath><path fill="#a50000" d="M-90 131.3v42.1l84.2-42.1m295.8 0v42.1l-84.2-42.1H290zM-90 68V25.9L-5.8 68H-90zm380 0V25.9L205.8 68H290zM68.3 194.6v-57.9l-115.9 57.9H68.3zm63.4 0v-57.9l115.9 57.9H131.7zM68.3 4.6v57.9L-47.5 4.6H68.3zm63.4 0v57.9L247.5 4.6H131.7z" clip-path="url(#SVGID_8_)"/></g></g><path id="BG_1_" d="M147.9 157H52.1c-5 0-9.1-4.1-9.1-9.1V52.1c0-5 4.1-9.1 9.1-9.1h95.8c5 0 9.1 4.1 9.1 9.1v95.8c0 5-4.1 9.1-9.1 9.1z" class="st4"/><path d="M65.7 145.5c-.3 0-.5-.3-.5-.6v-15.3c0-.3-.2-.6-.5-.6h-5.4c-.3 0-.6-.2-.6-.5v-3c0-.3.3-.6.6-.6h16.6c.3 0 .6.3.6.6v3c0 .3-.3.5-.6.5h-5.4c-.3 0-.6.3-.6.6V145c0 .3-.2.6-.5.6h-3.7zM89.5 138.1c-.3 0-.6-.2-.6-.5V135c0-.3.3-.6.6-.6h9.4c.5 0 .8.2.8.6-.1 6.2-4.6 10.7-10.8 10.7-6 0-10.8-4.4-10.8-10.5s4.9-10.6 10.8-10.6c4.3 0 8.2 2.4 9.8 6.1.2.5 0 .8-.5.8h-3.8c-.6 0-.8-.2-1-.5-1.1-1.3-2.7-2.1-4.4-2.1-3.2 0-5.8 2.6-5.8 6.2s2.6 6.2 5.8 6.2c2.6 0 4.6-1.2 5.5-3.3h-5v.1zM103.8 145.5c-.3 0-.5-.3-.5-.6v-19.4c0-.3.2-.6.5-.6h10.1c3.5 0 6.4 2.5 6.4 5.8 0 1.8-.9 3.1-1.9 4-.2.2-.2.4 0 .5 1.1.8 2.1 2.2 2.1 4.1 0 3.4-2.8 6.1-6.7 6.1l-10 .1zm4.7-16.7c-.3 0-.5.2-.5.5v3.4c0 .3.2.5.5.5h4.9c1.5 0 2.3-1.1 2.3-2.3 0-1.3-.9-2.1-2.4-2.1h-4.8zm4.7 12.8c1.5 0 2.6-1.1 2.6-2.4 0-1.2-1-2.4-2.6-2.4h-4.8c-.3 0-.5.2-.5.5v3.8c0 .3.2.5.5.5h4.8zM124.8 145.5c-.3 0-.5-.3-.5-.6v-19.4c0-.3.2-.6.5-.6h9c4.4 0 7.5 2.2 7.5 6.6 0 4.4-3.5 6.8-7.8 6.8h-4c-.4 0-.5.2-.5.6v6c0 .3-.3.6-.6.6h-3.6zm9.2-11c1.5 0 2.5-1.4 2.5-2.9s-1-2.7-2.5-2.7h-4.5c-.4 0-.5.2-.5.5v4.5c0 .4.2.5.5.5l4.5.1z" class="st5"/><path id="BG" d="M154 113.7H46c-.8 0-1.5-.7-1.5-1.5v-60c0-4.2 3.4-7.6 7.6-7.6h95.8c4.2 0 7.6 3.4 7.6 7.6v60c0 .8-.7 1.5-1.5 1.5z" class="st5"/><path d="M122.4 57.3H77.6c-.6 0-1.1.5-1.1 1.1v9.9c0 .6.5 1.1 1.1 1.1h17v30.8c0 .6.5 1.1 1.1 1.1h9.9c.6 0 1.1-.5 1.1-1.1V69.4h15.7c.6 0 1.1-.5 1.1-1.1v-9.9c.1-.6-.5-1.1-1.1-1.1z" class="st4"/></svg>