<svg xmlns="http://www.w3.org/2000/svg" xmlns:xlink="http://www.w3.org/1999/xlink" id="Livello_1" x="0" y="0" version="1.0" viewBox="0 0 200 200" xml:space="preserve"><style>.st6{fill:#fff}.st7{fill:#0000a6}</style><g id="TAUD_BG"><defs><path id="SVGID_1_" d="M100 195c-52.3 0-95-42.8-95-95S47.8 5 100 5c52.3 0 95 42.8 95 95 0 52.3-42.7 95-95 95z"/></defs><clipPath id="SVGID_2_"><use overflow="visible" xlink:href="#SVGID_1_"/></clipPath><path id="Coin_2_" fill="#0000a6" d="M100 195c-52.3 0-95-42.8-95-95S47.8 5 100 5c52.3 0 95 42.8 95 95 0 52.3-42.7 95-95 95z" clip-path="url(#SVGID_2_)"/><defs><path id="SVGID_3_" d="M100 195c-52.3 0-95-42.8-95-95S47.8 5 100 5c52.3 0 95 42.8 95 95 0 52.3-42.7 95-95 95z"/></defs><clipPath id="SVGID_4_"><use overflow="visible" xlink:href="#SVGID_3_"/></clipPath><path id="_x35_" fill="#00007c" d="M102.9 170.9l3.7 11.4 11.2-4.2-6.6 9.9 10.3 6.1-11.9 1 1.6 11.8-8.2-8.6-8.2 8.6 1.6-11.8-11.9-1 10.3-6.1-6.6-9.9 11.2 4.2 3.5-11.4z" clip-path="url(#SVGID_4_)"/><g><defs><path id="SVGID_5_" d="M100 195c-52.3 0-95-42.8-95-95S47.8 5 100 5c52.3 0 95 42.8 95 95 0 52.3-42.7 95-95 95z"/></defs><clipPath id="SVGID_6_"><use overflow="visible" xlink:href="#SVGID_5_"/></clipPath><path id="_x34_" fill="#00007c" d="M36.6 66l3.7 11.4 11.2-4.2-6.7 9.8 10.3 6.1-11.9 1 1.6 11.8-8.2-8.6-8.2 8.6L30 90.2l-11.9-1L28.4 83l-6.6-9.9L33 77.3 36.6 66z" clip-path="url(#SVGID_6_)"/></g><g><defs><path id="SVGID_7_" d="M100 195c-52.3 0-95-42.8-95-95S47.8 5 100 5c52.3 0 95 42.8 95 95 0 52.3-42.7 95-95 95z"/></defs><clipPath id="SVGID_8_"><use overflow="visible" xlink:href="#SVGID_7_"/></clipPath><path id="_x33_" fill="#00007c" d="M102.9-5.8l3.7 11.4 11.2-4.2-6.6 9.9 10.3 6.1-11.9 1 1.6 11.8-8.2-8.6-8.2 8.6 1.6-11.8-11.9-1 10.3-6.1-6.6-9.9 11.2 4.2 3.5-11.4z" clip-path="url(#SVGID_8_)"/></g><g><defs><path id="SVGID_9_" d="M100 195c-52.3 0-95-42.8-95-95S47.8 5 100 5c52.3 0 95 42.8 95 95 0 52.3-42.7 95-95 95z"/></defs><clipPath id="SVGID_10_"><use overflow="visible" xlink:href="#SVGID_9_"/></clipPath><path id="_x32_" fill="#00007c" d="M161.8 48.3l3.7 11.4 11.2-4.2-6.6 9.9 10.3 6.1-11.9 1 1.6 11.8-8.2-8.6-8.2 8.6 1.6-11.8-11.9-1 10.3-6.1-6.6-9.9 11.2 4.2 3.5-11.4z" clip-path="url(#SVGID_10_)"/></g><g><defs><path id="SVGID_11_" d="M100 195c-52.3 0-95-42.8-95-95S47.8 5 100 5c52.3 0 95 42.8 95 95 0 52.3-42.7 95-95 95z"/></defs><clipPath id="SVGID_12_"><use overflow="visible" xlink:href="#SVGID_11_"/></clipPath><path id="_x31_" fill="#00007c" d="M129.4 101.5l2.9 7.1 7.6.6-5.8 4.9 1.8 7.4-6.5-4-6.5 4 1.8-7.4-5.8-4.9 7.6-.6 2.9-7.1z" clip-path="url(#SVGID_12_)"/></g></g><path id="BG_1_" d="M147.9 157H52.1c-5 0-9.1-4.1-9.1-9.1V52.1c0-5 4.1-9.1 9.1-9.1h95.8c5 0 9.1 4.1 9.1 9.1v95.8c0 5-4.1 9.1-9.1 9.1z" class="st6"/><path d="M65.9 145.5c-.3 0-.5-.3-.5-.6v-15.3c0-.3-.2-.6-.5-.6h-5.4c-.3 0-.6-.2-.6-.5v-3c0-.3.3-.6.6-.6H76c.3 0 .6.3.6.6v3c0 .3-.3.5-.6.5h-5.4c-.3 0-.6.3-.6.6V145c0 .3-.2.6-.5.6h-3.6zM91.8 145.5c-.2 0-.4-.2-.5-.5l-1.2-3c-.1-.3-.2-.3-.6-.3h-7.7c-.2 0-.4.2-.5.3l-1.2 3c-.2.4-.2.5-.8.5h-3.5c-.4 0-.6-.3-.4-.8l8.2-19.3c.2-.4.3-.5.7-.5h3.4c.3 0 .5.2.7.5l7.9 19.3c.2.4 0 .7-.4.7h-4.1zm-6-14.4c-.1-.1-.1-.1 0 0l-2.8 6.8c-.1.2 0 .4.2.4h5.1c.2 0 .3-.2.2-.4l-2.7-6.8zM111.6 125.6c0-.3.2-.6.5-.6h3.6c.3 0 .6.3.6.6V136c0 6.2-3.5 9.8-9.1 9.8-5.5 0-9-3.6-9-9.8v-10.5c0-.3.2-.6.5-.6h3.6c.3 0 .6.3.6.6v10.6c0 3.1 1.6 5.2 4.3 5.2s4.3-2.2 4.3-5.2l.1-10.5zM121.5 145.5c-.3 0-.5-.3-.5-.6v-19.4c0-.3.2-.6.5-.6h8.2c6.1 0 10.8 4.2 10.8 10.3 0 6-4.7 10.2-10.8 10.2l-8.2.1zm8.2-4.1c3.3 0 5.9-2.6 5.9-6.2s-2.6-6.2-5.9-6.2h-3.4c-.3 0-.5.3-.5.6v11.3c0 .3.2.5.5.5h3.4z" class="st7"/><path id="BG" d="M154 113.7H46c-.8 0-1.5-.7-1.5-1.5v-60c0-4.2 3.4-7.6 7.6-7.6h95.8c4.2 0 7.6 3.4 7.6 7.6v60c0 .8-.7 1.5-1.5 1.5z" class="st7"/><path d="M122.4 57.3H77.6c-.6 0-1.1.5-1.1 1.1v9.9c0 .6.5 1.1 1.1 1.1h17v30.8c0 .6.5 1.1 1.1 1.1h9.9c.6 0 1.1-.5 1.1-1.1V69.4h15.7c.6 0 1.1-.5 1.1-1.1v-9.9c.1-.6-.5-1.1-1.1-1.1z" class="st6"/></svg>