<svg xmlns="http://www.w3.org/2000/svg" xmlns:xlink="http://www.w3.org/1999/xlink" id="Livello_1" x="0" y="0" version="1.0" viewBox="0 0 200 200" xml:space="preserve"><style>.st2{fill:#b30000}.st3{fill:#de2408}.st4{fill:#fff}</style><g id="THKD_BG"><defs><path id="SVGID_1_" d="M100 195c-52.3 0-95-42.8-95-95S47.8 5 100 5c52.3 0 95 42.8 95 95 0 52.3-42.7 95-95 95z"/></defs><clipPath id="SVGID_2_"><use overflow="visible" xlink:href="#SVGID_1_"/></clipPath><path id="Coin_2_" fill="#de2408" d="M100 195c-52.3 0-95-42.8-95-95S47.8 5 100 5c52.3 0 95 42.8 95 95 0 52.3-42.7 95-95 95z" clip-path="url(#SVGID_2_)"/><g><defs><path id="SVGID_3_" d="M100 195c-52.3 0-95-42.8-95-95S47.8 5 100 5c52.3 0 95 42.8 95 95 0 52.3-42.7 95-95 95z"/></defs><clipPath id="SVGID_4_"><use overflow="visible" xlink:href="#SVGID_3_"/></clipPath><g clip-path="url(#SVGID_4_)"><path d="M100.5 102.4C41.9 77.7 67.8 1.3 123.9 5.1c-11.3 5.8-13 16.7-6.5 26.8 7.3 11.3-.7 29.4-10.5 33.8-16.1 7.3-19.3 26.7-6.4 36.7z" class="st2"/><path d="M97.3 47.3L94 52.5l-1.2-6-5.9-1.6 5.3-3-.3-6.1 4.5 4.2 5.7-2.3-2.6 5.6 3.9 4.7zM100.8 101.8C93.7 98.2 88 90.6 85.5 81.5c-2.8-10.4-1.2-21.6 4.5-30.7l-1.2-.8c-5.9 9.4-7.6 21-4.7 31.8 2.6 9.6 8.5 17.3 16 21.2l.7-1.2z" class="st3"/><path d="M100.5 102.5c5.4-63.4 86.1-62.3 99.8-7.8-9-9-19.9-7.2-27.5 2.1-8.5 10.4-28.2 8.5-35.4.5-11.9-13.1-31.3-10.2-36.9 5.2z" class="st2"/><path d="M152 82.4l-5.9-1.5 5.3-3-.4-6.2 4.6 4.2 5.7-2.2-2.6 5.5 3.9 4.8-6.1-.8-3.3 5.2zM101.3 102.6c1.3-7.9 6.7-15.6 14.6-20.8 9-5.9 20.1-7.8 30.5-5.2l.4-1.4c-10.8-2.7-22.3-.8-31.7 5.4-8.3 5.5-13.9 13.4-15.2 21.8l1.4.2z" class="st3"/><path d="M100.6 102.5c62-14.4 85.9 62.6 38.2 92.5 5.7-11.4.7-21.2-10.5-25.5-12.5-4.9-16.8-24.2-11.4-33.5 8.8-15.4 0-32.9-16.3-33.5z" class="st2"/><path d="M135.5 145.3l-.4-6.2 4.6 4.2 5.7-2.3-2.6 5.6 3.9 4.8-6.1-.8-3.3 5.2-1.2-6-5.9-1.5zM100.7 103.2c7.9-1.2 17 1.6 24.3 7.4 8.4 6.7 13.7 16.7 14.4 27.4l1.5-.1c-.7-11.1-6.2-21.5-14.9-28.5-7.8-6.2-17-9-25.4-7.7l.1 1.5z" class="st3"/><path d="M100.5 102.5c32.9 54.5-33 101-76.1 64.9 12.6 1.9 20.3-5.9 21-17.8.8-13.4 17.8-23.4 28.4-21.2 17.2 3.6 31.2-10.1 26.7-25.9z" class="st2"/><path d="M70.7 149l5.7-2.2-2.6 5.5 3.9 4.8-6.1-.8-3.3 5.2-1.2-6-5.9-1.5 5.3-3-.4-6.2zM99.8 102.9c3.6 7.1 3.8 16.6.5 25.4-3.8 10.1-11.7 18.2-21.7 22.2l.5 1.3c10.3-4.1 18.5-12.5 22.5-23 3.5-9.3 3.3-19-.5-26.6l-1.3.7z" class="st3"/><path d="M100.5 102.5c-41.7 48.1-106.3-.2-85.3-52.4 2 12.6 11.9 17.5 23.5 14.5 13-3.4 27.8 9.7 29 20.4 1.8 17.6 19.2 26.6 32.8 17.5z" class="st2"/><path d="M47 88.5l3.9 4.7-6.1-.7-3.3 5.2-1.2-6.1-5.9-1.5 5.4-3-.4-6.1 4.5 4.1 5.7-2.2zM99.9 102c-5.7 5.6-14.6 8.7-24 8.3-10.8-.5-20.9-5.5-27.8-13.8l-1.1.9c7.1 8.5 17.6 13.7 28.8 14.3 9.9.5 19.1-2.7 25.1-8.7l-1-1z" class="st3"/></g></g></g><path id="BG" d="M147.9 157H52.1c-5 0-9.1-4.1-9.1-9.1V52.1c0-5 4.1-9.1 9.1-9.1h95.8c5 0 9.1 4.1 9.1 9.1v95.8c0 5-4.1 9.1-9.1 9.1z" class="st4"/><path d="M65.4 145.5c-.3 0-.5-.3-.5-.6v-15.3c0-.3-.2-.6-.5-.6H59c-.3 0-.6-.2-.6-.5v-3c0-.3.3-.6.6-.6h16.6c.3 0 .6.3.6.6v3c0 .3-.3.5-.6.5h-5.4c-.3 0-.6.3-.6.6V145c0 .3-.2.6-.5.6h-3.7zM93.2 145.5c-.3 0-.5-.3-.5-.6v-7.2c0-.3-.2-.6-.5-.6H85c-.3 0-.5.3-.5.6v7.2c0 .3-.3.6-.6.6h-3.6c-.3 0-.5-.3-.5-.6v-19.4c0-.3.2-.6.5-.6h3.6c.3 0 .6.3.6.6v7c0 .3.2.6.5.6h7.1c.3 0 .5-.3.5-.6v-7c0-.3.2-.6.5-.6h3.6c.3 0 .6.3.6.6V145c0 .3-.3.6-.6.6h-3.5v-.1zM113.7 145.5c-.5 0-.8-.1-1.2-.7l-5.8-7.6c-.1-.2-.3-.2-.3 0v7.6c0 .3-.2.6-.5.6h-3.7c-.3 0-.5-.3-.5-.6v-19.4c0-.3.2-.6.5-.6h3.6c.3 0 .6.3.6.6v7.3c0 .2.2.2.3 0l6-7.4c.3-.3.4-.4.9-.4h3.7c.5 0 .7.5.3.9l-6.7 7.8c-.6.8-.6 1.1 0 1.8l7.3 9.2c.3.4.2.8-.3.8l-4.2.1zM122.8 145.5c-.3 0-.5-.3-.5-.6v-19.4c0-.3.2-.6.5-.6h8.2c6.1 0 10.8 4.2 10.8 10.3 0 6-4.7 10.2-10.8 10.2l-8.2.1zm8.2-4.1c3.3 0 5.9-2.6 5.9-6.2s-2.6-6.2-5.9-6.2h-3.4c-.3 0-.5.3-.5.6v11.3c0 .3.2.5.5.5h3.4z" class="st3"/><path id="BG_1_" d="M154 113.7H46c-.8 0-1.5-.7-1.5-1.5v-60c0-4.2 3.4-7.6 7.6-7.6h95.8c4.2 0 7.6 3.4 7.6 7.6v60c0 .8-.7 1.5-1.5 1.5z" class="st3"/><path d="M122.4 57.3H77.6c-.6 0-1.1.5-1.1 1.1v9.9c0 .6.5 1.1 1.1 1.1h17v30.8c0 .6.5 1.1 1.1 1.1h9.9c.6 0 1.1-.5 1.1-1.1V69.4h15.7c.6 0 1.1-.5 1.1-1.1v-9.9c.1-.6-.5-1.1-1.1-1.1z" class="st4"/></svg>