<?xml version="1.0" encoding="utf-8"?>
<!-- Generator: Adobe Illustrator 22.1.0, SVG Export Plug-In . SVG Version: 6.00 Build 0)  -->
<svg version="1.0" id="Livello_1" xmlns="http://www.w3.org/2000/svg" xmlns:xlink="http://www.w3.org/1999/xlink" x="0px" y="0px"
	 viewBox="0 0 200 200" enable-background="new 0 0 200 200" xml:space="preserve">
<path fill="#FF0000" d="M184,141.7V58.3c0-4.2-2.3-8.1-5.9-10.2L105.9,6.4c-3.7-2.1-8.2-2.1-11.8,0L21.9,48.1
	c-3.7,2.1-5.9,6-5.9,10.2v83.3c0,4.2,2.3,8.1,5.9,10.2l72.2,41.7c3.7,2.1,8.2,2.1,11.8,0l72.2-41.7C181.7,149.8,184,145.9,184,141.7
	z"/>
<path d="M104.3,103.7c16.3,6.5,18.4,14.1,18.4,14.1c-4.3-2.2-15.2-2.2-15.2-2.2l6.5,3.3l-9.8,2.2c-4.3-6.5-13-6.5-13-6.5
	c9.8,6.5,3.3,15.2-9.8,16.3c-13,1.1-14.1-4.3-14.1-4.3c7.6,1.1,13-3.3,13-3.3s-13,1.1-18.4-3.3c-5.4-4.3-4.3-11.9-4.3-11.9
	c6.5,9.8,11.9,9.8,11.9,9.8c-4.3-3.3-6.5-7.6-2.2-14.1c4.3-6.5,21.7-6.5,21.7-6.5c-1.1,2.2-4.3,3.3-4.3,3.3
	c34.7-3.3,41.2-20.6,41.2-20.6c9.6,7.5,4.5,23.3,4.3,23.8c0.3-0.2,8.7-5.6,9.7-18.4c1.1-13-13-27.1-13-27.1
	c7.5,1.1,22.3,13.7,22.7,14.1c-6.5-14.1-18.4-20.6-18.4-20.6c1.1-2.2,16.3-3.3,16.3-3.3c-9.8-1.1-22.8-1.1-22.8-1.1
	c6.5-5.4,44.4-9.8,29.3-8.7C139,39.7,110.8,43,110.8,43l2.2-2.2c0,0-2.2,0-8.7,1.1c-6.5,1.1-7,3.8-7.6,1.1c-0.9-4.4,8.7-3.3,7.6-4.3
	c-1.1-1.1-4.3-1.1-4.3-1.1c5.2-7.3,14.1-12.2,14.6-12.5c-16.2,4.3-31.4,20.6-31.4,20.6s-1.1-2.2-7.6-2.2c-6.1,0-9.3,3.8-9.7,4.3
	c0.3-0.3,2.4-2.1,5.4-2.1c3.3,0,5.4,4.3,5.4,4.3l-3.3,2.2c0,0-4.3,5.4-8.7,6.5S60.4,62,60.4,62c-3.3,2.2-6.5,2.2-10.8,4.3
	s-3.3,7.6,0,9.8c3.3,2.2,7.6-2.2,7.6-2.2s4.3-4.3,8.7-4.3s6.5,0,15.2,1.1c8.7,1.1,8.7-9.8,8.7-9.8c6,3.8,7,8.1,7,8.1
	c1.1-4.3,0-7.6,0-7.6l3.3,2.2c-3.3-3.3-3.3-6.5-3.3-6.5s9.8,1.1,9.8,8.7s-11.9,13-27.1,14.1C65,80.9,61.3,79,61,78.8
	c3.3,3.2,8.6,4.3,8.6,4.3c-5.4,5.4-11.9,3.3-11.9,3.3c-32.5,19.5-17.3,45.5-17.3,45.5c-1.1-8.7,2.2-8.7,2.2-8.7
	c9.8,18.4,1.1,31.4,1.1,31.4c6.5-1.1,11.9-19.5,11.9-19.5c15.2,9.8,20.6,9.8,20.6,9.8c-5.4-2.2-4.3-4.3-4.3-4.3
	c28.2,9.8,34.7,23.8,34.7,23.8c-3.3-18.4-18.4-24.9-18.4-24.9c6.5-1.1,9.8-3.3,9.8-3.3c9.8,16.3,31.4,8.7,31.4,8.7
	c-15.2,2.2-17.3-4.3-17.3-4.3c7.4,2.1,9.6-3,9.7-3.2c-5.4,4.3-8.7-2.2-8.7-2.2s-2.2-6.5,13-7.6c15.2-1.1,18.4,15.2,18.4,15.2
	l2.2-4.3c9.8,7.6,1.1,23.8,1.1,23.8c16.3-13,5.4-30.3,5.4-30.3C133.6,108,104.3,103.7,104.3,103.7z M75.6,60.9h-6.5
	c0,0,3.3-5.4,13-7.6C82.1,53.3,77.8,56.5,75.6,60.9z"/>
</svg>
