<svg xmlns="http://www.w3.org/2000/svg" id="logo" viewBox="0 0 200 200"><style>.st1{fill-rule:evenodd;clip-rule:evenodd;fill:#fff}</style><linearGradient id="Ellipse_1_copy_2_1_" x1="5" x2="195" y1="100" y2="100" gradientUnits="userSpaceOnUse"><stop offset="0" stop-color="#f2c100"/><stop offset="1" stop-color="#f5973a"/></linearGradient><ellipse id="Ellipse_1_copy_2" cx="100" cy="100" fill="url(#Ellipse_1_copy_2_1_)" rx="95" ry="95"/><path id="Bars" d="M41.2 126.9h53.7l-8.3-30H49.4l-8.2 30zm64 0h53.7l-8.3-30h-37.2l-8.2 30zM72.1 91.7h53.7l-8.3-30H80.4l-8.3 30z" class="st1"/><path id="Sov_path_copy" d="M100.5 11.4c49.1 0 89 39.7 89 88.6s-39.8 88.6-89 88.6-89-39.7-89-88.6 39.8-88.6 89-88.6zm0 3c47.4 0 85.9 38.3 85.9 85.6s-38.4 85.6-85.9 85.6-85.9-38.3-85.9-85.6S53 14.4 100.5 14.4z" class="st1"/></svg>