<?xml version="1.0" encoding="utf-8"?>
<!-- Generator: Adobe Illustrator 22.1.0, SVG Export Plug-In . SVG Version: 6.00 Build 0)  -->
<svg version="1.1" id="Livello_1" xmlns="http://www.w3.org/2000/svg" xmlns:xlink="http://www.w3.org/1999/xlink" x="0px" y="0px"
	 viewBox="0 0 200 200" style="enable-background:new 0 0 200 200;" xml:space="preserve">
<style type="text/css">
	.st0{fill:#6D2B7F;}
	.st1{fill:#15135F;}
	.st2{fill:none;stroke:#FFFFFF;stroke-width:8;stroke-linecap:square;}
</style>
<g>
	<path class="st0" d="M100.2,11c49.2,0,89.2,40,89.2,89.2s-40,89.2-89.2,89.2S11,149.3,11,100.2S51,11,100.2,11 M100.2,5
		C47.6,5,5,47.6,5,100.2s42.6,95.2,95.2,95.2s95.2-42.6,95.2-95.2S152.7,5,100.2,5L100.2,5z"/>
</g>
<circle class="st1" cx="99.7" cy="100" r="81.7"/>
<path class="st2" d="M57.3,65.8v67h13.6c0,0,2.8,0.6,4.4-4.4v-26.1c0,0-0.1-3.9-5.7-5.7c0,0,4.5,0,6.1-6.1V68.9c0,0-0.2-2.8-3-3.1
	H57.3z"/>
<line class="st2" x1="69.7" y1="96.6" x2="57.3" y2="96.6"/>
<polyline class="st2" points="112.5,65.8 100,65.8 100,96.6 100,132.8 "/>
<line class="st2" x1="100" y1="96.6" x2="112.5" y2="96.6"/>
<line class="st2" x1="135.4" y1="65.8" x2="135.4" y2="132.8"/>
<line class="st2" x1="125.4" y1="65.8" x2="145.4" y2="65.8"/>
</svg>
