<svg xmlns="http://www.w3.org/2000/svg" viewBox="0 0 192 192"><path d="M100 180c-44.1 0-80-35.9-80-80s35.9-80 80-80 80 35.9 80 80-35.9 80-80 80z"/><linearGradient id="a" x1="100" x2="100" y1="169" y2="31" gradientUnits="userSpaceOnUse"><stop offset="0" stop-color="#d8d9dc"/><stop offset="1" stop-color="#eeedf2"/></linearGradient><path fill="url(#a)" d="M100 31c-38.1 0-69 30.9-69 69s30.9 69 69 69 69-30.9 69-69-30.9-69-69-69zm34.7 108.6c-.3.1-.7.2-1 .3-2.5.7-4.9 1.4-7.4 2-3.5.9-6.9 1.6-10.4 2.3-3.4.6-7 1.2-10.5 1.3-7.3.1-14.3-.3-21.2-2.6-6.5-2.2-12.5-5.7-17.5-10.5-5.1-4.9-8.7-11.5-11-18.1-2.3-6.9-3.1-13.9-2.4-21.2.7-5 2.4-9.8 3.4-12.1.9-2.1 1.8-4 2.9-6 2.2-3.9 5.3-7.9 8.7-10.9 3.3-3 7.3-5.4 11.5-7.4 3.7-1.8 8-2.9 12.1-3.6 4.3-.8 8.4-.8 12.7-.8 4.8 0 9.5 1 14.1 2.1 2.2.5 4.4 1.2 6.6 1.9 1 .3 2 .7 3 1 .7.3 2 .5 2.6.9.7.6.3 2.8.3 3.7v10.3c0 .7.2 1.4-.6 1.4-1 .1-2.7-1-3.6-1.4-4.6-1.7-9.5-3.4-14.4-4.4-7.7-1.6-15.7-1.8-23.3.5C83 70.2 77.7 74 73.9 79.4c-.5.7-1 1.3-1.4 2-5.9 8.4-6.3 21.3-2.2 30.8 2.6 6.1 7.4 11.5 13.1 14.6 5.5 3 11.8 4.2 18.1 4.2 4.2 0 8.2-.4 12.3-1.1 1.6-.3 3.1-.6 4.6-1 .6-.1 1.5-.3 2.3-.5.5-.6.3-2.3.3-3v-12.2c0-.4.1-1.3-.2-1.6-.3-.3-1.6-.2-2-.2h-12.6c-.9 0-1-.1-1.1-1-.1-2.8 0-5.6 0-8.3 0-1.3-.1-2.7 0-4 .1-1 .4-.9 1.4-.9 2.8 0 27.7-.4 28.4 0 .5.3.3 1 .3 1.6v40.1c0 .4.3.3-.5.7z"/></svg>