<?xml version="1.0" encoding="utf-8"?>
<!-- Generator: Adobe Illustrator 22.1.0, SVG Export Plug-In . SVG Version: 6.00 Build 0)  -->
<svg version="1.0" id="Livello_1" xmlns="http://www.w3.org/2000/svg" xmlns:xlink="http://www.w3.org/1999/xlink" x="0px" y="0px"
	 viewBox="0 0 200 200" style="enable-background:new 0 0 200 200;" xml:space="preserve">
<path d="M100,5.3c-14.3,0-27.9,3.2-40.1,8.9c-0.4,0.2-0.8,0.4-1.3,0.6c-0.8,0.4-1.5,0.8-2.3,1.2c-0.8,0.4-1.5,0.8-2.3,1.2
	c-0.8,0.4-1.5,0.8-2.2,1.3c-0.7,0.4-1.5,0.9-2.2,1.3c-0.6,0.4-1.2,0.7-1.7,1.1c-0.1,0.1-0.3,0.2-0.5,0.3c-0.3,0.2-0.6,0.4-1,0.7
	c-6.7,4.6-12.8,10-18.1,16.2c-0.5,0.6-1,1.2-1.5,1.7C13.4,56.1,5.3,77.1,5.3,100c0,18.7,5.4,36,14.7,50.7c0.1,0.2,0.2,0.3,0.3,0.5
	c16.8,26.2,46.3,43.6,79.8,43.6c52.3,0,94.7-42.4,94.7-94.7S152.3,5.3,100,5.3z M100.3,179.4C57,179.2,20,144,21.2,97.6
	c1.1-41,34.8-77.9,81.8-76.7c40.8,1,77.9,34.9,76.6,81.9C178.4,144,144.7,179,100.3,179.4z"/>
<path d="M148.8,62.3c-3,3.6-5.9,7.2-9,10.9c-0.5-0.4-0.9-0.8-1.3-1.2c-3.8-3.7-7.5-7.5-11.3-11.2c-0.5-0.5-1.4-1-2.1-1
	c-20.4,0-40.7,0-61.1,0c-0.1,0-0.2,0-0.5,0.1c0,26.4,0,52.9,0,79.5c0.6,0,1.3,0,2,0c19.7,0,39.4,0,59.2,0c1.1,0,2.1-0.5,2.7-1.3
	c4-4.6,8-9.2,12.2-14.1c3.4,3.8,6.8,7.6,10.3,11.5c-0.3,0.3-0.6,0.7-0.9,1.1c-5.5,5.5-11,11-16.5,16.5c-0.6,0.5-1.5,1-2.2,1
	c-26.5,0.1-53,0-79.4,0c-0.2,0-0.5,0-0.9-0.1c0-36.1,0-72.1,0-108.3c0.6,0,1.2-0.1,1.8-0.1c26.3,0,52.6,0,78.9,0
	c0.9,0,2.1,0.5,2.7,1.1C138.5,51.9,143.5,57,148.8,62.3z"/>
<path d="M130,78.3c-1.9,2.3-3.6,4.4-5.5,6.7c-2.3-2.3-4.5-4.6-6.8-6.8c-0.5-0.5-1.4-0.9-2.1-0.9c-12.5-0.1-25,0-37.5,0
	c-0.2,0-0.5,0-0.8,0.1c0,15,0,29.9,0,45.1c0.7,0,1.4,0,2.1,0c11.6,0,23.3-0.1,34.9,0.1c2.4,0,3.7-1,5.1-2.8c1.6-2,3.4-3.8,5.3-5.9
	c2.1,2.3,4.1,4.5,6.2,6.8c-3.4,3.4-6.8,6.8-10.2,10.2c-0.3,0.3-0.9,0.4-1.4,0.4c-16.4,0-32.7,0-49.1,0c-0.2,0-0.5-0.1-0.8-0.1
	c0-20.6,0-41.2,0-62.1c0.7,0,1.3,0,2,0c15.9,0,31.7,0,47.6,0c1.1,0,2.2,0.5,3,1.3C124.5,72.9,127.2,75.6,130,78.3z"/>
</svg>
