<svg xmlns="http://www.w3.org/2000/svg" id="Livello_1" x="0" y="0" version="1.1" viewBox="0 0 200 200" xml:space="preserve"><style>.st0{fill:#b8ad88}.st1{fill:#beb494}.st2{fill:#ccc5aa}</style><path d="M182.3 52.5L100 5 17.7 52.5 46 68.8l54-31.2 54 31.2 28.3-16.3z" class="st0"/><path d="M100 129.7l25.7-14.9V85.2L100 97z" class="st1"/><path d="M100 162.3l-25-14.4v32.7l25 14.4zM17.7 52.5v95l28.2 16.3.1-95zM100 129.7l-25.7-14.9V85.2L100 97z" class="st2"/><path d="M74.3 85.2L100 100l25.7-14.8L100 70.3z" class="st0"/><path d="M154 68.8v62.4l-54 31.1V195l82.3-47.5v-95z" class="st1"/></svg>