<?xml version="1.0" encoding="utf-8"?>
<!-- Generator: Adobe Illustrator 25.0.1, SVG Export Plug-In . SVG Version: 6.00 Build 0)  -->
<svg version="1.1" id="Livello_1" xmlns="http://www.w3.org/2000/svg" xmlns:xlink="http://www.w3.org/1999/xlink" x="0px" y="0px"
	 viewBox="0 0 200 200" style="enable-background:new 0 0 200 200;" xml:space="preserve">
<style type="text/css">
	.st0{fill:url(#SVGID_1_);}
	.st1{fill:url(#SVGID_2_);}
	.st2{fill:url(#SVGID_3_);}
	.st3{fill:url(#SVGID_4_);}
	.st4{fill:url(#SVGID_5_);}
	.st5{fill:url(#SVGID_6_);}
</style>
<linearGradient id="SVGID_1_" gradientUnits="userSpaceOnUse" x1="11" y1="89.13" x2="163.29" y2="89.13">
	<stop  offset="0" style="stop-color:#4B83BA"/>
	<stop  offset="1" style="stop-color:#6DC1D6"/>
</linearGradient>
<path class="st0" d="M88.2,22.3c-21.5,0-41,8.5-55.4,22.4c-7.1,6.8-12.9,14.9-17.1,23.8c-3,7.4-4.7,15.5-4.7,24
	c0,35.1,28.4,63.5,63.5,63.5c18.6,0,35.4-8,47-20.8c-8.5,8.6-20.3,13.9-33.3,13.9c-27,0-48.8-23-46.7-50.5
	C43.2,75.5,62,57,85.1,55.5c21.3-1.4,39.8,11.6,46.9,30.1l5.4-1.9l25.9-9.1C152,44.1,122.6,22.3,88.2,22.3z"/>
<linearGradient id="SVGID_2_" gradientUnits="userSpaceOnUse" x1="191.3266" y1="206.853" x2="154.849" y2="133.2497" gradientTransform="matrix(0.8771 0.4804 -0.4804 0.8771 92.3012 -156.5727)">
	<stop  offset="0.2709" style="stop-color:#DDC579"/>
	<stop  offset="0.3534" style="stop-color:#E0BF75"/>
	<stop  offset="0.4658" style="stop-color:#E7AD68"/>
	<stop  offset="0.5948" style="stop-color:#F39153"/>
	<stop  offset="0.6973" style="stop-color:#FF753F"/>
</linearGradient>
<path class="st1" d="M195.8,75.7l0-0.6c-0.7-12-13.6-19.2-24.2-13.5c-1.7,0.9-3.5,1.9-5.2,3c-3.4,2.1-6.7,4.4-9.8,6.9
	c-8.9,7.1-16.6,15.9-22,26c-0.4,0.8-0.9,1.7-1.3,2.5c0,0.1-0.1,0.1-0.1,0.2c-3.2,6.7-5.4,14-6.3,21.9l16.9,9.6
	c1.7-0.7,3.3-1.4,4.9-2.1c2.7-1.3,4.8-3.1,6.3-5.2c0.7-1.8,1.6-3.5,2.5-5.2c5.5-9.9,14-17.8,23.4-24.3c1.9-1.4,3.9-2.7,6.1-3.9
	C192.7,87.9,196.2,82,195.8,75.7z"/>
<linearGradient id="SVGID_3_" gradientUnits="userSpaceOnUse" x1="125.6596" y1="115.005" x2="207.311" y2="105.9995">
	<stop  offset="0" style="stop-color:#59388D"/>
	<stop  offset="0.1101" style="stop-color:#5F3A8E"/>
	<stop  offset="0.2602" style="stop-color:#714191"/>
	<stop  offset="0.4333" style="stop-color:#8D4D97"/>
	<stop  offset="0.622" style="stop-color:#B55C9E"/>
	<stop  offset="0.7998" style="stop-color:#E16EA6"/>
</linearGradient>
<path class="st2" d="M168.5,79.3l-0.3-0.5c-6.3-10.2-21.1-10.3-27.7-0.3c-1.1,1.7-2.1,3.3-3.1,5.1c-2,3.5-3.8,7.1-5.3,10.8
	c-4.4,10.5-7,21.9-6.8,33.4c0,0.9,0,1.9,0.1,2.8c0,0.1,0,0.2,0,0.2c0.4,7.4,2,14.9,5,22.2l19.4,0.3c1.2-1.4,2.3-2.8,3.3-4.3
	c1.7-2.4,2.7-5,3-7.6c-0.2-1.9-0.3-3.9-0.3-5.8c0-11.3,3.7-22.4,8.9-32.5c1-2.2,2.1-4.3,3.5-6.3C171.6,91.5,171.8,84.7,168.5,79.3z"
	/>
<linearGradient id="SVGID_4_" gradientUnits="userSpaceOnUse" x1="4.676" y1="159.6885" x2="96.5202" y2="105.5087">
	<stop  offset="0.139" style="stop-color:#1CABF8"/>
	<stop  offset="0.7718" style="stop-color:#FF7715"/>
</linearGradient>
<path class="st3" d="M156.1,141.4c-0.3,2.6-1.3,5.2-3,7.6c-1,1.5-2.1,2.9-3.3,4.3c-15.1,18.2-38.1,29.6-63.7,29
	c-41.5-1.1-75.6-34.2-77.8-75.6C7.6,93,10.3,80,15.7,68.5c-3,7.4-4.7,15.5-4.7,24c0,35.1,28.4,63.5,63.5,63.5c18.6,0,35.4-8,47-20.8
	c1.4-1.4,2.7-2.9,3.9-4.4c0.3-0.4,0.5-0.7,0.8-1.1c3.7-5.1,10-7.8,16.2-6.6l0.6,0.1c6.8,1.3,11.5,6.4,12.8,12.4
	C156.3,137.5,156.4,139.5,156.1,141.4z"/>
<linearGradient id="SVGID_5_" gradientUnits="userSpaceOnUse" x1="11" y1="107.5" x2="137.37" y2="107.5" gradientTransform="matrix(1 0 0 -1 0 200)">
	<stop  offset="0" style="stop-color:#9AD4DA"/>
	<stop  offset="1" style="stop-color:#3465AE"/>
</linearGradient>
<path class="st4" d="M87.7,57.6c22,0,40.4,15.9,44.3,36.8c1.5-3.7,3.3-7.3,5.3-10.8C133,52.7,106.5,29,74.5,29
	c-16,0-30.5,5.9-41.7,15.6c-7.4,6.5-13.3,14.6-17.1,23.8c-3,7.4-4.7,15.5-4.7,24c0,35.1,28.4,63.5,63.5,63.5c18.6,0,35.4-8,47-20.8
	c1.4-1.5,2.6-3,3.8-4.7c0-0.9-0.1-1.9-0.1-2.8c-8.1,12.1-21.9,20.1-37.6,20.1c-24.9,0-45.2-20.2-45.2-45.1
	C42.5,77.8,62.8,57.6,87.7,57.6z"/>
<linearGradient id="SVGID_6_" gradientUnits="userSpaceOnUse" x1="167.0402" y1="45.2917" x2="168.5069" y2="9.5148" gradientTransform="matrix(0.691 0.7229 -0.7229 0.691 77.8106 -109.8745)">
	<stop  offset="0" style="stop-color:#59388D"/>
	<stop  offset="0.1101" style="stop-color:#5F3A8E"/>
	<stop  offset="0.2602" style="stop-color:#714191"/>
	<stop  offset="0.4333" style="stop-color:#8D4D97"/>
	<stop  offset="0.622" style="stop-color:#B55C9E"/>
	<stop  offset="0.7998" style="stop-color:#E16EA6"/>
</linearGradient>
<circle class="st5" cx="167.4" cy="36.1" r="16"/>
</svg>
