<?xml version="1.0" encoding="utf-8"?>
<!-- Generator: Adobe Illustrator 25.4.1, SVG Export Plug-In . SVG Version: 6.00 Build 0)  -->
<svg version="1.1" id="Layer_1" xmlns="http://www.w3.org/2000/svg" xmlns:xlink="http://www.w3.org/1999/xlink" x="0px" y="0px"
	 viewBox="0 0 631.8 629" style="enable-background:new 0 0 631.8 629;" xml:space="preserve">
<style type="text/css">
	.st0{fill:#192123;}
	.st1{fill:url(#SVGID_1_);}
	.st2{clip-path:url(#SVGID_00000019667764753008846610000003712753417815511469_);}
	.st3{fill:#19898A;}
	.st4{fill:#68FEE2;}
	.st5{fill:#1FC9A8;}
	.st6{clip-path:url(#SVGID_00000051344492696266577140000007090869753496610739_);}
	
		.st7{opacity:0.6;clip-path:url(#SVGID_00000119830923183868395600000004474799760093557397_);fill:none;stroke:#FFFFFF;stroke-width:26.7624;stroke-miterlimit:10;enable-background:new    ;}
	
		.st8{opacity:0.6;clip-path:url(#SVGID_00000041289948775652308910000014544256537317254789_);fill:none;stroke:#FFFFFF;stroke-width:13.3812;stroke-miterlimit:10;enable-background:new    ;}
	.st9{clip-path:url(#SVGID_00000047043611388394127100000002287736637768706953_);}
	.st10{fill:#3AC1AC;}
	.st11{clip-path:url(#SVGID_00000007399323962349461620000009908221945343538856_);}
	.st12{clip-path:url(#SVGID_00000006670807895831031440000017438225171002103440_);}
	.st13{opacity:0.6;clip-path:url(#SVGID_00000005253598238796086830000008351046083670963868_);}
	.st14{fill:none;stroke:#FFFFFF;stroke-width:22.5264;stroke-miterlimit:10;}
	.st15{opacity:0.6;clip-path:url(#SVGID_00000174563611322696833860000002543413872966832553_);}
	.st16{fill:none;stroke:#FFFFFF;stroke-width:15.0176;stroke-miterlimit:10;}
	.st17{clip-path:url(#SVGID_00000012472772025660558460000017615716927555934597_);fill:#FFFFFF;}
	.st18{fill:#FFFFFF;}
</style>
<circle class="st0" cx="315.9" cy="314.5" r="300.8"/>
<linearGradient id="SVGID_1_" gradientUnits="userSpaceOnUse" x1="165.4633" y1="-376.0639" x2="466.3367" y2="145.0639" gradientTransform="matrix(1 0 0 1 0 430)">
	<stop  offset="8.000000e-04" style="stop-color:#2F353D"/>
	<stop  offset="0.1394" style="stop-color:#314348"/>
	<stop  offset="0.4008" style="stop-color:#376864"/>
	<stop  offset="0.7542" style="stop-color:#41A291"/>
	<stop  offset="1" style="stop-color:#48CFB4"/>
</linearGradient>
<path class="st1" d="M315.9,37c36.1,0,71.2,6.8,104.4,20.3c34.4,14,65.3,34.5,91.8,61s47,57.4,61,91.8
	c13.5,33.2,20.3,68.4,20.3,104.4s-6.8,71.2-20.3,104.4c-14,34.4-34.5,65.3-61,91.8s-57.4,47-91.8,61C387.1,585.2,352,592,315.9,592
	s-71.2-6.8-104.4-20.3c-34.4-14-65.3-34.5-91.8-61s-47-57.4-61-91.8c-13.5-33.2-20.3-68.4-20.3-104.4s6.8-71.2,20.3-104.4
	c14-34.4,34.5-65.3,61-91.8s57.4-47,91.8-61C244.7,43.8,279.8,37,315.9,37 M315.9,13.7c-77,0-154,29.4-212.7,88.1
	c-117.5,117.5-117.5,307.9,0,425.4c58.7,58.7,135.7,88.1,212.7,88.1s154-29.4,212.7-88.1c117.5-117.5,117.5-307.9,0-425.4
	C469.9,43.1,392.9,13.7,315.9,13.7L315.9,13.7z"/>
<g>
	<g>
		<g>
			<defs>
				<path id="SVGID_00000080912818446670640080000013436796200706386304_" d="M250.7,381.6L370,202.4c1-1.6,1.8-3.3,2.3-5.1
					l8.9-36.3c3.5-14.2-11.9-25.4-24.4-17.8l-159.5,97.9c-3.3,2-5.8,5.1-7,8.8l-10.8,32.8c-1.3,4.1-1,8.5,0.9,12.3l42,84.8
					C228.1,391.1,243.8,392.1,250.7,381.6L250.7,381.6z"/>
			</defs>
			<clipPath id="SVGID_00000109723672191869542550000010746821292159532420_">
				<use xlink:href="#SVGID_00000080912818446670640080000013436796200706386304_"  style="overflow:visible;"/>
			</clipPath>
			<g style="clip-path:url(#SVGID_00000109723672191869542550000010746821292159532420_);">
				<path class="st3" d="M390.6,122.4L192.2,244.2l151.1-35.7L390.6,122.4z"/>
				<path class="st4" d="M343.3,208.5L235.1,405.2L371.5,200l19.1-77.6L343.3,208.5z"/>
				<path class="st5" d="M343.3,208.5l-151.1,35.7l42.9,161L343.3,208.5z"/>
				<path class="st4" d="M235.1,405.2l-42.9-161L177.5,289L235.1,405.2z"/>
			</g>
		</g>
		<g>
			<defs>
				<path id="SVGID_00000129200111510048298990000016619890276914183577_" d="M250.7,381.6L370,202.4c1-1.6,1.8-3.3,2.3-5.1
					l8.9-36.3c3.5-14.2-11.9-25.4-24.4-17.8l-159.5,97.9c-3.3,2-5.8,5.1-7,8.8l-10.8,32.8c-1.3,4.1-1,8.5,0.9,12.3l42,84.8
					C228.1,391.1,243.8,392.1,250.7,381.6L250.7,381.6z"/>
			</defs>
			<clipPath id="SVGID_00000117645499142448944810000007935758132863936900_">
				<use xlink:href="#SVGID_00000129200111510048298990000016619890276914183577_"  style="overflow:visible;"/>
			</clipPath>
			<g style="clip-path:url(#SVGID_00000117645499142448944810000007935758132863936900_);">
				<g>
					<defs>
						<polygon id="SVGID_00000062162118775525777220000008012138806615861689_" points="343.3,208.5 192.2,244.2 235.1,405.2 						
							"/>
					</defs>
					<clipPath id="SVGID_00000024702499573767995630000006407385435423187894_">
						<use xlink:href="#SVGID_00000062162118775525777220000008012138806615861689_"  style="overflow:visible;"/>
					</clipPath>
					
						<path style="opacity:0.6;clip-path:url(#SVGID_00000024702499573767995630000006407385435423187894_);fill:none;stroke:#FFFFFF;stroke-width:26.7624;stroke-miterlimit:10;enable-background:new    ;" d="
						M293.4,358.6l-53.6-225.1"/>
				</g>
				<g>
					<g>
						<defs>
							<polygon id="SVGID_00000087378895854376475040000000108083525722738840_" points="343.3,208.5 192.2,244.2 235.1,405.2 
															"/>
						</defs>
						<clipPath id="SVGID_00000026854256930172667980000001983473543120027820_">
							<use xlink:href="#SVGID_00000087378895854376475040000000108083525722738840_"  style="overflow:visible;"/>
						</clipPath>
						
							<path style="opacity:0.6;clip-path:url(#SVGID_00000026854256930172667980000001983473543120027820_);fill:none;stroke:#FFFFFF;stroke-width:13.3812;stroke-miterlimit:10;enable-background:new    ;" d="
							M343,396.2l-53.5-225.1"/>
					</g>
				</g>
			</g>
		</g>
	</g>
	<g>
		<g>
			<defs>
				<path id="SVGID_00000071532551208781058630000013861276190145776282_" d="M275,485.9L434.5,388c3.3-2,5.8-5.1,7-8.8l10.8-32.8
					c1.3-4.1,1-8.5-0.9-12.3l-42-84.8c-5.6-11.3-21.2-12.3-28.2-1.8L261.8,426.7c-1,1.6-1.8,3.3-2.3,5.1l-8.9,36.3
					C247.2,482.3,262.6,493.5,275,485.9z"/>
			</defs>
			<clipPath id="SVGID_00000151528222960838715090000013620301092314631079_">
				<use xlink:href="#SVGID_00000071532551208781058630000013861276190145776282_"  style="overflow:visible;"/>
			</clipPath>
			<g style="clip-path:url(#SVGID_00000151528222960838715090000013620301092314631079_);">
				<path class="st3" d="M241.2,506.7l198.4-121.8l-151.1,35.7L241.2,506.7z"/>
				<path class="st4" d="M288.5,420.6L396.7,224L260.3,429.1l-19.1,77.6L288.5,420.6z"/>
				<path class="st10" d="M288.5,420.6l151.1-35.7L396.7,224L288.5,420.6z"/>
				<path class="st4" d="M396.7,224l42.9,160.9l14.7-44.8L396.7,224z"/>
			</g>
		</g>
		<g>
			<g>
				<defs>
					<path id="SVGID_00000120521307863370276910000000483248762882724517_" d="M275,485.9L434.5,388c3.3-2,5.8-5.1,7-8.8l10.8-32.8
						c1.3-4.1,1-8.5-0.9-12.3l-42-84.8c-5.6-11.3-21.2-12.3-28.2-1.8L261.8,426.7c-1,1.6-1.8,3.3-2.3,5.1l-8.9,36.3
						C247.2,482.3,262.6,493.5,275,485.9z"/>
				</defs>
				<clipPath id="SVGID_00000062192985520844976700000006696781900228462520_">
					<use xlink:href="#SVGID_00000120521307863370276910000000483248762882724517_"  style="overflow:visible;"/>
				</clipPath>
				<g style="clip-path:url(#SVGID_00000062192985520844976700000006696781900228462520_);">
					<path class="st3" d="M241.2,506.7l198.4-121.8l-151.1,35.7L241.2,506.7z"/>
					<path class="st4" d="M288.5,420.6L396.7,224L260.3,429.1l-19.1,77.6L288.5,420.6z"/>
					<path class="st5" d="M288.5,420.6l151.1-35.7L396.7,224L288.5,420.6z"/>
					<path class="st4" d="M396.7,224l42.9,160.9l14.7-44.8L396.7,224z"/>
				</g>
			</g>
		</g>
		<g>
			<g>
				<defs>
					<path id="SVGID_00000153686932663528252350000014686288025312910225_" d="M275,485.9L434.5,388c3.3-2,5.8-5.1,7-8.8l10.8-32.8
						c1.3-4.1,1-8.5-0.9-12.3l-42-84.8c-5.6-11.3-21.2-12.3-28.2-1.8L261.8,426.7c-1,1.6-1.8,3.3-2.3,5.1l-8.9,36.3
						C247.2,482.3,262.6,493.5,275,485.9z"/>
				</defs>
				<clipPath id="SVGID_00000146475680688833139700000006115473687018016168_">
					<use xlink:href="#SVGID_00000153686932663528252350000014686288025312910225_"  style="overflow:visible;"/>
				</clipPath>
				<g style="clip-path:url(#SVGID_00000146475680688833139700000006115473687018016168_);">
					<g>
						<defs>
							<polygon id="SVGID_00000065781355172296370420000017869948853619913623_" points="288.5,420.6 439.6,384.9 396.7,224 							
								"/>
						</defs>
						<clipPath id="SVGID_00000121275441719868070290000000860299831763490433_">
							<use xlink:href="#SVGID_00000065781355172296370420000017869948853619913623_"  style="overflow:visible;"/>
						</clipPath>
						<g style="opacity:0.6;clip-path:url(#SVGID_00000121275441719868070290000000860299831763490433_);">
							<path class="st14" d="M471.7,383.4L268.5,272.9"/>
						</g>
					</g>
					<g>
						<g>
							<defs>
								<polygon id="SVGID_00000008122962073928500530000012729714157768723645_" points="288.5,420.6 439.6,384.9 396.7,224 
																	"/>
							</defs>
							<clipPath id="SVGID_00000030468178569641042080000002876185320127304102_">
								<use xlink:href="#SVGID_00000008122962073928500530000012729714157768723645_"  style="overflow:visible;"/>
							</clipPath>
							<g style="opacity:0.6;clip-path:url(#SVGID_00000030468178569641042080000002876185320127304102_);">
								<path class="st16" d="M532.9,371.7L329.6,261.1"/>
							</g>
						</g>
					</g>
				</g>
			</g>
		</g>
		<g>
			<g>
				<defs>
					<path id="SVGID_00000010290372958869111350000016955999433481799335_" d="M275,485.9L434.5,388c3.3-2,5.8-5.1,7-8.8l10.8-32.8
						c1.3-4.1,1-8.5-0.9-12.3l-42-84.8c-5.6-11.3-21.2-12.3-28.2-1.8L261.8,426.7c-1,1.6-1.8,3.3-2.3,5.1l-8.9,36.3
						C247.2,482.3,262.6,493.5,275,485.9z"/>
				</defs>
				<clipPath id="SVGID_00000127031665670753576840000000349904453846765696_">
					<use xlink:href="#SVGID_00000010290372958869111350000016955999433481799335_"  style="overflow:visible;"/>
				</clipPath>
				<path style="clip-path:url(#SVGID_00000127031665670753576840000000349904453846765696_);fill:#FFFFFF;" d="M342.8,418.2
					c-0.9-0.9-2.4-5.3-2.4-5.3s-1.3,4.2-2.4,5.3c-1.1,1.1-5.3,2.4-5.3,2.4s4.3,1.5,5.3,2.4s2.4,5.3,2.4,5.3s1.4-4.2,2.4-5.3
					s5.3-2.4,5.3-2.4S343.7,419,342.8,418.2z"/>
			</g>
		</g>
	</g>
	<path class="st18" d="M225.9,234.6c1.9,1.9,5.4,11.7,5.4,11.7s3-9.2,5.4-11.7s11.7-5.4,11.7-5.4s-9.6-3.3-11.7-5.4
		c-2.1-2.1-5.4-11.7-5.4-11.7s-3.1,9.4-5.4,11.7c-2.3,2.3-11.7,5.4-11.7,5.4S223.9,232.6,225.9,234.6z M289,246.6
		c0.9,0.9,2.4,5.3,2.4,5.3s1.3-4.2,2.4-5.3s5.3-2.4,5.3-2.4s-4.3-1.5-5.3-2.4c-1-1-2.4-5.3-2.4-5.3s-1.4,4.2-2.4,5.3
		s-5.3,2.4-5.3,2.4S288.1,245.8,289,246.6z"/>
</g>
</svg>
