<?xml version="1.0" encoding="utf-8"?>
<!-- Generator: Adobe Illustrator 22.1.0, SVG Export Plug-In . SVG Version: 6.00 Build 0)  -->
<svg version="1.0" id="Livello_1" xmlns="http://www.w3.org/2000/svg" xmlns:xlink="http://www.w3.org/1999/xlink" x="0px" y="0px"
	 viewBox="0 0 200 200" enable-background="new 0 0 200 200" xml:space="preserve">
<path fill="#00C4AF" d="M5,99C5,46.5,47.5,4,100,4s95,42.5,95,95C195,99,5.3,99,5,99z"/>
<path fill="#EF4A4D" d="M5,101c0,52.5,42.5,95,95,95s95-42.5,95-95C195,101,5.3,101,5,101z"/>
<polygon fill="#FFFFFF" points="137.5,53 61,53 61,65.5 93,65.5 93,92 69,103 69,114 93,104 93,114 69,125 69,136 93,125 93,151 
	107,151 107,121 131,110 131,97.5 107.5,108.5 107.5,98.5 131,88.5 131,76.5 106.5,87.5 106.5,65.5 137.5,65.5 "/>
</svg>
