<?xml version="1.0" encoding="utf-8"?>
<!-- Generator: Adobe Illustrator 22.1.0, SVG Export Plug-In . SVG Version: 6.00 Build 0)  -->
<svg version="1.0" id="Layer_1" xmlns="http://www.w3.org/2000/svg" xmlns:xlink="http://www.w3.org/1999/xlink" x="0px" y="0px"
	 viewBox="0 0 200 200" enable-background="new 0 0 200 200" xml:space="preserve">
<polygon fill="#1C75BC" points="165.3,129 165.3,129 176,133.2 195,100 194.2,98.7 147.5,17.2 52.5,17.2 48.2,24.7 5,100 
	34.4,151.2 50,178.5 50,178.5 52.5,182.8 78.3,182.8 78.3,182.8 141.8,182.8 141.8,182.8 147.5,182.8 166.8,149.1 161.1,146.9 
	161.1,146.9 142.4,139.7 132.6,156.8 126,156.8 94.7,156.8 94.7,156.8 67.4,156.8 65.1,152.7 42.7,113.8 34.8,100 67.4,43.2 
	132.6,43.2 132.6,43.2 159.9,90.7 133.7,84.6 101.5,77.1 101.5,77.1 83.8,73.1 88.3,104 73.8,101 51.1,96.3 73.9,111.3 102.9,130.3 
	102.9,130.3 113.6,137.3 110.7,108 151.6,123.8 "/>
</svg>
