<?xml version="1.0" encoding="utf-8"?>
<!-- Generator: Adobe Illustrator 23.0.1, SVG Export Plug-In . SVG Version: 6.00 Build 0)  -->
<svg version="1.1" id="Livello_1" xmlns="http://www.w3.org/2000/svg" xmlns:xlink="http://www.w3.org/1999/xlink" x="0px" y="0px"
	 viewBox="0 0 200 200" style="enable-background:new 0 0 200 200;" xml:space="preserve">
<style type="text/css">
	.st0{fill:#DD2480;}
</style>
<path class="st0" d="M100,5C47.5,5,5,47.5,5,100s42.5,95,95,95s95-42.5,95-95S152.5,5,100,5z M100.7,150.3
	c12.1,0.5,23.3-3.4,32.1-10.1c2.1-1.6,4.9-1.7,7-0.3v0c3.6,2.3,3.8,7.5,0.4,10.1c-10.4,7.9-23.5,12.6-37.5,12.6
	c-34.4,0-62.3-27.9-62.3-62.3S68.2,38,102.6,38c14.1,0,27.1,4.7,37.6,12.6c3.3,2.5,3.3,7.6-0.2,10l0,0c-2.2,1.5-5.1,1.5-7.3-0.1
	c-8.4-6.4-18.9-10.2-30.2-10.2c-27.7,0-50.1,22.5-50,50.2C52.7,127,74.1,149.2,100.7,150.3z"/>
</svg>
