<svg xmlns="http://www.w3.org/2000/svg" id="Livello_1" x="0" y="0" version="1.1" viewBox="0 0 200 200" xml:space="preserve"><style>.st1{fill:#fff}</style><circle cx="100" cy="100" r="95" fill="#ea4d4f"/><path id="Fill_1" d="M119.4 117.2h-5.8c-1.1 0-2-.9-2-2V99.9l-10.2 6.4c-.9.5-1.9.5-2.8 0l-10.2-6.4v15.3c0 1.1-.9 2-2 2h-5.8c-1.1 0-2-.9-2-2V85.8c0-1.5 1.2-2.6 2.6-2.6.5 0 1 .2 1.5.5l16.1 11c.7.5 1.6.5 2.2 0l16.1-11c1.2-.8 2.8-.5 3.7.7.3.4.5 1 .5 1.5v29.4c0 1-.8 1.9-1.9 1.9" class="st1"/><path id="Fill_4" d="M70 116.9H34.1c-1.4 0-2.6-1.2-2.6-2.6V84.8c0-1.1.9-2 2-2h5.8c1.1 0 2 .9 2 2v22.4H63V84.8c0-1.1.9-2 2-2h5.8c1.1 0 2 .9 2 2v29.5c-.2 1.4-1.3 2.6-2.8 2.6" class="st1"/><path id="Fill_6" d="M130 82.8h35.9c1.4 0 2.6 1.2 2.6 2.6v29.5c0 1.1-.9 2-2 2h-5.8c-1.1 0-2-.9-2-2V93.8c0-.7-.6-1.3-1.3-1.3h-19.1c-.7 0-1.3.6-1.3 1.3v21.1c0 1.1-.9 2-2 2h-5.8c-1.1 0-2-.9-2-2V85.5c.2-1.5 1.3-2.7 2.8-2.7" class="st1"/><path id="Fill_8" d="M143.1 100.8v5.8c0 1.1.9 1.9 2 1.9h5.8c1.1 0 2-.9 2-1.9v-5.8c0-1.1-.9-1.9-2-1.9h-5.8c-1.1-.1-2 .8-2 1.9" class="st1"/></svg>