<svg xmlns="http://www.w3.org/2000/svg" id="Livello_1" x="0" y="0" version="1.1" viewBox="0 0 200 200" xml:space="preserve"><style>.st1{fill:#dd3745}.st2{fill:#854cbf}.st3{fill:#ffaa6e}.st4{fill:#ffe091}.st5{fill:#cce2e1}</style><path id="layer101" fill="#a52639" d="M28.8 158.9v-4.2H12v-8.4h50.4v-8.4H45.6v-8.4h-8.4v-12h-28V115c0-2.2-.1-2.5-2.1-2.5H5V62.1h7.8v-5h24.5v-6c0-3.5-.3-6-.7-6-.4 0-.7-1.9-.7-4.2v-4.2H174v4.2c0 3.3-.2 4.2-1.1 4.2-.9 0-1.1 4.7-1.1 37.9v38h-8.4v8.4H155v8.4h-8.4v8.4H195v8.4h-16.8v8.4H28.8v-4.1zm8.5-71.5v-21H12.7v42h24.6v-21z"/><g id="layer102"><path d="M79.3 150.5v-4.2H195v8.4H79.3v-4.2zM96.1 133.7v-4.2h-8.4V121h-8.4V45.3H35.8v-8.4H174v4.2c0 3.3-.2 4.2-1.1 4.2-.9 0-1.1 4.7-1.1 37.9V121h-8.4v8.4H155v8.4H96.1v-4.1z" class="st1"/></g><g id="layer103"><path d="M164.2 150.5v-4.2h8.4v8.4h-8.4v-4.2zM120 116.8v-12.6h8.4V45.3H35.8v-8.4H174v8.4h-37.2v58.8h8.4v25.2H120v-12.5z" class="st2"/><path d="M153.6 81.4V64.2h8.4v34.4h-8.4V81.4z" class="st2"/></g><g id="layer104"><path d="M164.2 150.5v-4.2h8.4v8.4h-8.4v-4.2zM153.6 81.4V64.2h8.4v34.4h-8.4V81.4z" class="st3"/><path d="M128.4 70.6V45.3H35.8v-8.4H174v8.4h-37.2v50.4h-8.4V70.6z" class="st3"/></g><g id="layer105"><path d="M164.2 150.5v-4.2h8.4v8.4h-8.4v-4.2zM153.6 81.4V64.2h8.4v34.4h-8.4V81.4zM35.8 41.1v-4.2h92.6v8.4H35.8v-4.2zM136.8 41.1v-4.2H174v8.4h-37.2v-4.2z" class="st4"/></g><g id="layer106"><path d="M35.8 41.1v-4.2h92.6v8.4H35.8v-4.2zM136.8 41.1v-4.2H174v8.4h-37.2v-4.2z" class="st5"/></g></svg>