<?xml version="1.0" encoding="utf-8"?>
<!-- Generator: Adobe Illustrator 22.1.0, SVG Export Plug-In . SVG Version: 6.00 Build 0)  -->
<svg version="1.0" id="Livello_1" xmlns="http://www.w3.org/2000/svg" xmlns:xlink="http://www.w3.org/1999/xlink" x="0px" y="0px"
	 viewBox="0 0 200 200" enable-background="new 0 0 200 200" xml:space="preserve">
<linearGradient id="SVGID_1_" gradientUnits="userSpaceOnUse" x1="4.4373" y1="102.1811" x2="194.7319" y2="102.1811">
	<stop  offset="0" style="stop-color:#0673FD"/>
	<stop  offset="0.5" style="stop-color:#B626A2"/>
	<stop  offset="1" style="stop-color:#FD8A06"/>
</linearGradient>
<path fill="url(#SVGID_1_)" d="M4.4,30.8c63.4,0,126.7,0,190.3,0c-29,46.8-57.8,93.4-86.8,140.2C84.4,130.1,61,89.4,37.5,48.5
	c41.3,0,82.5,0,124,0c-17.6,29-35.2,57.9-52.8,87C95.3,111.2,82,87,68.7,62.7c0.1-0.1,0.1-0.1,0.2-0.2c1.9,0.9,3.8,1.8,5.7,2.7
	c5.1,2.5,10.3,5,15.4,7.4c2.8,1.4,5.7,2.8,8.5,4c0.5,0.2,1.4,0.2,1.9,0c8.4-3.9,16.9-7.8,25.3-11.8c1.4-0.7,2.9-1.4,4.3-2.1
	c0.1,0.1,0.1,0.2,0.2,0.2c-7.2,12.4-14.4,24.8-21.7,37.4c-1.6-2.4-3.1-4.7-4.7-6.9c2.7-4.6,5.4-9.2,8.3-14.1
	c-0.9,0.4-1.5,0.6-2.1,0.9c-3.3,1.6-6.6,3.2-9.9,4.9c-0.7,0.3-1.3,0.4-2,0c-3.3-1.7-6.7-3.4-10.1-5.1c-0.2-0.1-0.5-0.2-0.9-0.2
	c7.2,13.4,14.5,26.8,21.8,40.3c13.1-21.5,26.2-42.9,39.4-64.4c-32.6,0-64.9,0-97.4,0c19.3,33.4,38.5,66.6,57.8,100.1
	c24.1-39.3,48.1-78.4,72.2-117.7c-54.3,0-108.4,0-162.8,0c26.4,45.1,52.7,90.1,79.2,135.3c-0.8,0-1.5,0-2.1,0c-2,0-3.9,0-5.9,0
	c-0.4,0-1-0.3-1.2-0.7c-6.8-11.5-13.6-23.1-20.4-34.6c-2.6-4.4-5.2-8.9-7.8-13.4c-6.6-11.2-13.3-22.5-19.9-33.7
	c-4.8-8.1-9.5-16.2-14.3-24.3c-4.7-7.9-9.3-15.8-14-23.7c-2.3-4-4.7-8-7-11.9C4.6,31.1,4.6,31,4.4,30.8z"/>
</svg>
