<svg xmlns="http://www.w3.org/2000/svg" id="Livello_1" x="0" y="0" version="1.1" viewBox="0 0 200 200" xml:space="preserve"><style>.st2{fill:#484662}</style><linearGradient id="SVGID_1_" x1="22" x2="96.5" y1="61.6018" y2="61.6018" gradientTransform="matrix(1 0 0 -1 0 200)" gradientUnits="userSpaceOnUse"><stop offset="0" stop-color="#e51a31"/><stop offset=".7" stop-color="#fdd040"/><stop offset="1" stop-color="#abcb4c"/></linearGradient><path fill="url(#SVGID_1_)" d="M22 81.8l74.5 74.5V195l-68.7-70.1c-3.7-3.8-5.7-8.8-5.7-14.1 0-11 .1-29.3-.1-29z"/><linearGradient id="SVGID_2_" x1="103.5803" x2="178.0803" y1="61.6018" y2="61.6018" gradientTransform="matrix(1 0 0 -1 0 200)" gradientUnits="userSpaceOnUse"><stop offset="0" stop-color="#8ec14d"/><stop offset="1" stop-color="#31b1e7"/></linearGradient><path fill="url(#SVGID_2_)" d="M178 81.8l-74.5 74.5V195l68.7-70.1c3.7-3.8 5.7-8.8 5.7-14.1 0-11-.1-29.3.1-29z"/><path d="M175.1 74.3l-74.9 74.9-75.3-75.3c4-4 8.8-8.6 13.5-13.2 1.4-1.4 3.9-1.2 5-.2 1.5 1.4 2.9 2.5 4.3 3.9 16.9 16.8 53.1 53.2 53.2 53.2 8.1-4.8 1.7-11.4 4.4-17 10 .6 18.4-3.5 24.7-11.7 4.8-6.2 7.1-13.3 6.6-21.2-.8-14.5-14.3-27.9-28.5-29.5-13.2-1.5-30.7 9.3-32 27.1-6.8-6.7-13.9-13.8-21.3-21.2 2.7-2.7 23.1-23.3 34.6-34.7 6-5.9 14.9-6 20.8-.2 21.6 21.5 64.9 65.2 64.9 65.1z" class="st2"/><path d="M105.4 93.5c-1 .1-2.1-.1-3-.6-.8-.5-1.1-.7-2.3-1.9C95 86.3 90.2 81 85 76.2c-2.1-2-3.1-4.1-2.7-6.9.5-3.1.9-6.4 2.1-9.3 3.6-8.2 10.8-10.5 18.6-6.3 7.3 3.9 12.9 9.6 17.2 16.6 3 4.9 4.6 10.2 1.5 15.4-2.9 5.1-9.8 6.9-16.3 7.8z" class="st2"/></svg>