<?xml version="1.0" encoding="utf-8"?>
<!-- Generator: Adobe Illustrator 22.1.0, SVG Export Plug-In . SVG Version: 6.00 Build 0)  -->
<svg version="1.0" id="Livello_1" xmlns="http://www.w3.org/2000/svg" xmlns:xlink="http://www.w3.org/1999/xlink" x="0px" y="0px"
	 viewBox="0 0 200 200" enable-background="new 0 0 200 200" xml:space="preserve">
<g>
	<path fill="#FFFFFF" d="M20.8,193c2,0,3.6-0.1,5.3,0c13.4,0.7,26.7,1.6,40.1,1.9c8.9,0.2,17.9-0.2,26.8-0.8
		c8.2-0.6,16.4-1.5,24.5-2.8c11.2-1.7,21.9-5,31.7-10.7c13.9-8.2,23.6-19.6,25.4-36.3c0.4-4,0.6-8.3-0.2-12.2
		c-2.4-12.1-9.4-21.3-19.5-28.2c-2.7-1.9-5.6-3.5-8.7-5.4c1.1-1,2-1.8,2.8-2.6c2.2-2.4,4.5-4.7,6.4-7.4c6.9-9.5,13.6-19.1,24.1-25.5
		c-5.3,1.2-10.7,2.3-15.6,3.4c0.7-4.3,1.7-8.9,2-13.4c0.7-8-1.8-15.3-6.3-21.8c-3.5-5-8.1-8.7-13.2-12c-7.8-5-16.2-8.3-25.1-10.4
		c-9.8-2.3-19.8-3.5-30-3.5c-10,0-20-0.3-30-0.1c-7.2,0.2-14.4,1.1-21.6,1.8C34.1,7.4,28.6,8,23.1,8.5c-1.8,0.2-2.4,0.9-2.4,2.8
		c0.1,10.9,0,21.8,0,32.7c0,15.4-0.1,30.7-0.1,46.1c0,5.2,0,10.5,0,15.7c0,16.7,0.1,33.4,0.1,50.1c0,8.1,0,16.3,0,24.4
		C20.8,184.3,20.8,188.4,20.8,193z"/>
	<path d="M20.8,193c0-4.6,0-8.7,0-12.8c0-8.1,0-16.3,0-24.4c0-16.7-0.1-33.4-0.1-50.1c0-5.2,0-10.5,0-15.7c0-15.4,0.1-30.7,0.1-46.1
		c0-10.9,0.1-21.8,0-32.7c0-1.9,0.6-2.6,2.4-2.8C28.6,8,34.1,7.4,39.5,6.9c7.2-0.6,14.4-1.6,21.6-1.8c10-0.3,20,0.1,30,0.1
		c10.1-0.1,20.1,1.2,30,3.5c8.9,2.1,17.3,5.4,25.1,10.4c5.2,3.3,9.8,7,13.2,12c4.5,6.6,7,13.8,6.3,21.8c-0.4,4.6-1.4,9.1-2,13.4
		c4.9-1.1,10.3-2.2,15.6-3.4c-10.5,6.3-17.2,15.9-24.1,25.5c-1.9,2.6-4.2,4.9-6.4,7.4c-0.8,0.9-1.7,1.6-2.8,2.6
		c3.1,1.9,5.9,3.6,8.7,5.4c10.1,6.9,17.1,16.1,19.5,28.2c0.8,3.9,0.6,8.2,0.2,12.2c-1.8,16.7-11.5,28.2-25.4,36.3
		c-9.8,5.7-20.5,9-31.7,10.7c-8.1,1.2-16.3,2.2-24.5,2.8c-8.9,0.6-17.9,1-26.8,0.8c-13.4-0.3-26.7-1.3-40.1-1.9
		C24.4,192.9,22.7,193,20.8,193z M24.8,181c0,2,0.1,4.1,0,6.1c-0.1,1.5,0.3,2.2,2,2.3c7.9,0.4,15.7,1.2,23.6,1.4
		c11,0.3,22.1,0.7,33.1,0.2c10.5-0.5,21-1.8,31.4-3.3c10.1-1.4,19.9-4.2,29-8.9c11.3-5.8,20.1-13.9,24.5-26.1
		c3.1-8.3,3.4-16.7,0.5-25.2c-3.9-11.3-12.3-18.5-22.2-24.2c-2.7-1.6-5.1-2.5-8.2-0.5c-2.4,1.5-5.5,1.9-8.2,3.1
		c-8.1,3.7-12.7,10.5-15,18.6c-2.4,8.6-3.7,17.5-5.3,26.3c-0.8,4.2-2,8.1-6.5,9.7c-3.9,1.4-8,2.5-11.9,3.7
		c-5.4,1.8-9.6,0.2-12.5-5.4c-1.7-3.1-2.6-6.6-3.8-10c-2.3-6.7-4.1-13.6-10.5-18c-1.4-1-2.4-1.4-4.1-1.1c-7.2,1.4-13.2,5.2-18.6,9.9
		c-5.2,4.5-9.3,10-12.5,16.2c-2.9,5.7-5.5,11.3-4.9,18C25,176.2,24.8,178.6,24.8,181z M24.7,11.8c0.6,2.2-1,4.3,1.5,5.4
		c7.8,3.6,15.7,7.1,23.5,10.9c7.1,3.4,14,7.2,20.4,12c8.6,6.4,15.1,14.4,20.4,23.6c2.4,4.2,4.6,8.7,7.8,12.3
		c4.6,5.2,10.7,8.2,17.5,9.7c9.6,2.1,18.3,0.1,25.6-6.4c4.1-3.6,8.4-6.8,13.3-9.2c1.4-0.7,3-2,3.6-3.3c1.9-3.8,3.2-7.7,3.6-12
		c0.9-12.1-3.9-21.7-12.9-29.1c-7.6-6.2-16.6-10-26.1-12.3c-10.1-2.5-20.4-4-30.8-4.3C86,8.9,79.8,8.5,73.6,8.6
		C67.4,8.6,61.1,9,54.8,9.4C44.9,10.1,35,11,24.7,11.8z M97.1,106.4c0,0.9-0.1,2,0,3c0.7,4.9,2.9,9.2,5.7,13.1
		c0.3,0.5,1.8,0.7,2.2,0.4c2.2-2,3.3-4.6,3-7.6c-0.2-2.6-1.6-4.6-4.2-5.6C101.7,108.9,99.6,107.7,97.1,106.4z"/>
	<path fill="#FFFFFF" d="M24.8,181c0-2.4,0.2-4.8,0-7.2c-0.5-6.6,2-12.3,4.9-18c3.2-6.2,7.2-11.7,12.5-16.2
		c5.4-4.6,11.4-8.5,18.6-9.9c1.7-0.3,2.7,0.1,4.1,1.1c6.5,4.4,8.2,11.3,10.5,18c1.2,3.4,2.1,6.9,3.8,10c3,5.6,7.1,7.2,12.5,5.4
		c4-1.3,8-2.4,11.9-3.7c4.5-1.6,5.7-5.5,6.5-9.7c1.7-8.8,2.9-17.7,5.3-26.3c2.2-8.1,6.9-14.9,15-18.6c2.7-1.2,5.8-1.6,8.2-3.1
		c3.1-2,5.5-1.1,8.2,0.5c9.9,5.8,18.3,12.9,22.2,24.2c2.9,8.4,2.6,16.9-0.5,25.2c-4.5,12.2-13.2,20.3-24.5,26.1
		c-9.2,4.7-18.9,7.5-29,8.9c-10.4,1.5-20.9,2.8-31.4,3.3c-11,0.5-22.1,0.1-33.1-0.2c-7.9-0.2-15.7-1-23.6-1.4c-1.6-0.1-2-0.8-2-2.3
		C24.9,185.1,24.8,183,24.8,181z"/>
	<path fill="#FFFFFF" d="M24.7,11.8C35,11,44.9,10.1,54.8,9.4C61.1,9,67.4,8.6,73.6,8.6C79.8,8.5,86,8.9,92.2,9
		c10.4,0.3,20.7,1.8,30.8,4.3c9.5,2.3,18.5,6.1,26.1,12.3c9,7.4,13.8,17,12.9,29.1c-0.3,4.4-1.7,8.3-3.6,12
		c-0.7,1.4-2.2,2.6-3.6,3.3c-4.9,2.4-9.2,5.6-13.3,9.2c-7.4,6.5-16.1,8.5-25.6,6.4c-6.8-1.5-13-4.5-17.5-9.7
		c-3.2-3.6-5.3-8.1-7.8-12.3C85.1,54.5,78.6,46.5,70,40.1c-6.4-4.8-13.3-8.5-20.4-12c-7.8-3.8-15.7-7.3-23.5-10.9
		C23.7,16.1,25.3,14.1,24.7,11.8z M110.3,78.4c7.5,6,16.4,6,22.6-1.3c1.6-1.8,2.4-4.5,2.9-6.9c0.9-3.8,0.9-7.8,1.9-11.6
		c1.4-5,3.4-9.9,5.1-14.8c-0.1,0-0.4-0.1-0.6,0c-6.6,4-12,9.3-14.8,16.6c-2.4,6.3-5.8,11.6-11.8,15C114,76.4,112.2,77.4,110.3,78.4z
		"/>
	<path fill="#FFFFFF" d="M97.1,106.4c2.5,1.2,4.6,2.4,6.8,3.3c2.6,1,3.9,3,4.2,5.6c0.3,3-0.8,5.6-3,7.6c-0.4,0.3-1.9,0.1-2.2-0.4
		c-2.9-3.9-5-8.2-5.7-13.1C96.9,108.4,97.1,107.4,97.1,106.4z"/>
	<path d="M110.3,78.4c1.9-1,3.6-2,5.4-3c6-3.4,9.4-8.6,11.8-15c2.8-7.3,8.2-12.6,14.8-16.6c0.2-0.1,0.5,0,0.6,0
		c-1.7,4.9-3.7,9.8-5.1,14.8c-1,3.8-1,7.8-1.9,11.6c-0.6,2.4-1.4,5.1-2.9,6.9C126.7,84.5,117.8,84.4,110.3,78.4z"/>
</g>
</svg>
