<?xml version="1.0" encoding="UTF-8" standalone="no"?><!DOCTYPE svg PUBLIC "-//W3C//DTD SVG 1.1//EN" "http://www.w3.org/Graphics/SVG/1.1/DTD/svg11.dtd"><svg width="100%" height="100%" viewBox="0 0 15 15" version="1.1" xmlns="http://www.w3.org/2000/svg" xmlns:xlink="http://www.w3.org/1999/xlink" xml:space="preserve" style="fill-rule:evenodd;clip-rule:evenodd;stroke-linejoin:round;stroke-miterlimit:1.41421;"><g id="Layer1"><g><rect x="4.22" y="0.643" width="8.401" height="11.191" style="fill:#fff;"/><path d="M12.107,0c0.659,0 1.194,0.535 1.194,1.193l0,9.902c0,0.658 -0.535,1.193 -1.194,1.193l-7.349,0c-0.659,0 -1.194,-0.535 -1.194,-1.193l0,-9.902c0,-0.658 0.535,-1.193 1.194,-1.193l7.349,0ZM12.159,0.772l-7.453,0c-0.188,0 -0.341,0.153 -0.341,0.341l0,10.062c0,0.189 0.153,0.342 0.341,0.342l7.453,0c0.188,0 0.341,-0.153 0.341,-0.342l0,-10.062c0,-0.188 -0.153,-0.341 -0.341,-0.341Z" style="fill:#000;"/><rect x="1.772" y="2.671" width="8.401" height="11.191" style="fill:#fff;"/><g><path d="M3.538,3.986c0,-0.216 -0.175,-0.392 -0.392,-0.392l-0.031,0c-0.216,0 -0.392,0.176 -0.392,0.392l0,0.584c0,0.216 0.176,0.392 0.392,0.392l0.031,0c0.217,0 0.392,-0.176 0.392,-0.392l0,-0.584Z" style="fill:#000;"/><path d="M9.212,11.942c0,-0.217 -0.176,-0.392 -0.392,-0.392l-0.031,0c-0.217,0 -0.392,0.175 -0.392,0.392l0,0.583c0,0.217 0.175,0.393 0.392,0.393l0.031,0c0.216,0 0.392,-0.176 0.392,-0.393l0,-0.583Z" style="fill:#000;"/><path d="M8.059,8.049c0.082,0.136 0.082,0.307 -0.001,0.444c-0.34,0.564 -1.249,2.07 -1.747,2.895c-0.071,0.118 -0.199,0.191 -0.338,0.191c-0.138,0 -0.266,-0.073 -0.338,-0.191c-0.519,-0.858 -1.483,-2.452 -1.79,-2.958c-0.059,-0.098 -0.059,-0.22 0,-0.318c0.311,-0.513 1.295,-2.141 1.809,-2.991c0.068,-0.112 0.189,-0.18 0.319,-0.18c0.131,0 0.252,0.069 0.319,0.181c0.494,0.817 1.421,2.355 1.767,2.927ZM5.971,6.093l1.317,2.178l-1.317,2.177l-1.316,-2.177l1.316,-2.178Z" style="fill:#000;"/></g><path d="M9.642,2.112c0.659,0 1.194,0.535 1.194,1.193l0,9.902c0,0.658 -0.535,1.193 -1.194,1.193l-7.349,0c-0.659,0 -1.194,-0.535 -1.194,-1.193l0,-9.902c0,-0.658 0.535,-1.193 1.194,-1.193l7.349,0ZM9.694,2.883l-7.453,0c-0.188,0 -0.341,0.153 -0.341,0.342l0,10.062c0,0.188 0.153,0.341 0.341,0.341l7.453,0c0.188,0 0.341,-0.153 0.341,-0.341l0,-10.062c0,-0.189 -0.153,-0.342 -0.341,-0.342Z" style="fill:#000;"/></g></g></svg>