<svg xmlns="http://www.w3.org/2000/svg" id="Livello_1" version="1" viewBox="0 0 200 200"><style>.st0{fill:#f8165b}.st1{fill:#2e345c}.st2{fill:#252a4f}</style><path d="M159 80.2l-59 33.1-59-33.1 59-33z" class="st0"/><path d="M100 9.7v37.5l-59 33 31.8-54.8z" class="st1"/><path d="M100 9.7v37.5l59 33-31.8-54.8z" class="st2"/><path d="M105.3 190.3v-67.6l58.1-34.5-.9 67.6z" class="st0"/><path d="M195 174.6l-32.5-18.8.9-67.6 31.6 55z" class="st1"/><path d="M195 174.6l-32.5-18.8-57.2 34.5h62.5z" class="st2"/><path d="M94.7 190.3v-67.6L36.6 88.1l.9 67.7z" class="st0"/><path d="M5 174.6l32.5-18.8-.9-67.7L5 143.2z" class="st1"/><path d="M5 174.6l32.5-18.8 57.2 34.5H32.2z" class="st2"/></svg>