<?xml version="1.0" encoding="utf-8"?>
<!-- Generator: Adobe Illustrator 23.0.1, SVG Export Plug-In . SVG Version: 6.00 Build 0)  -->
<svg version="1.1" id="Livello_1" xmlns="http://www.w3.org/2000/svg" xmlns:xlink="http://www.w3.org/1999/xlink" x="0px" y="0px"
	 viewBox="0 0 200 200" style="enable-background:new 0 0 200 200;" xml:space="preserve">
<style type="text/css">
	.st0{fill:#004E38;}
</style>
<path class="st0" d="M72.7,24.1c-4.8,5.3-5.7,7.9-4.8,12.8c1,5.2,2.7,6,6.7,3.3c5.5-3.7,7.3-14,3.5-19.3
	C77,19.5,76.4,19.9,72.7,24.1z"/>
<path class="st0" d="M126.3,138.2c-3.4-5.6-6.2-10.3-6.4-10.5c-0.1-0.2-2.1,0.6-4.4,1.8c-13.1,6.7-34.4,1.3-42-10.7
	c-2.9-4.6-4-8.1-6.4-21.3c-0.8-4.6-2.8-11-4.4-14.2l-2.8-5.8l3-4.6c2.5-3.8,3.1-6,3.4-11.6c0.6-9-1.6-14.6-8.2-21.7
	c-6.2-6.6-17-14-17.6-11.8c-0.1,0.2-0.9,3.9-2,8.3c-2.5,9.8-2.7,20.4-0.6,24.5c0.9,1.7,3.5,5.8,6,8.6l4.6,5.1l-1.5,5
	c-2.6,8.6-3.5,19.3-2.5,28.4c1.4,12.6,6.6,22.3,17.1,32.2c12.2,11.5,24.7,16.6,40.4,16.6c9.4,0,18.6-2,25.5-5.5l4.9-2.5L126.3,138.2
	z M57.8,71.7c0,0-20.7-22.9-11.8-37.8c0,0,16.4,8.3,17,21.6C63.6,68.9,57.8,71.7,57.8,71.7z"/>
<path class="st0" d="M93,40.1c-6.9,1.5-11.7,3.1-16.7,5.5l-5.6,2.8v6.8c0.1,7.4-1.5,12.2-5.8,17.8l-2.6,3.5l3.2,5
	c1.8,2.7,3.3,5,3.5,5s1.7-2.2,3.5-4.9c7.3-11.5,15.9-16.4,29-16.5c7.3-0.1,9.3,0.3,14.3,2.6c3.2,1.5,7.9,5,10.7,7.8
	c2.8,2.9,5.4,5,5.8,4.8c3.3-1.3,19.1-11.5,19.2-12.3c0-1.9-7.6-10.5-13.7-15.3c-7.4-5.9-14.8-9.6-23.5-11.7
	C108.4,39.6,97.6,39.2,93,40.1z"/>
<path class="st0" d="M79.5,81.8c-2.6,1.3-7,7.1-7,9.3c0,1.9,5.3,4.4,9.5,4.4c4.8,0,10.8-3.2,14.1-7.5c1.5-2,2.5-3.7,2.3-3.9
	c-0.5-0.4-10.6-3.3-15.5-3.3C81.5,80.8,80.9,81.1,79.5,81.8z"/>
<path class="st0" d="M100.2,18.3c-5.7,0-11.2,0.6-16.5,1.7c3,3.5,5.2,7.6,6.6,12c3.2-0.5,6.6-0.7,9.9-0.7
	c37.8,0,68.5,30.7,68.5,68.5s-30.7,68.5-68.5,68.5s-68.5-30.7-68.5-68.5c0-11.1,2.7-21.6,7.4-30.9c-3.8-2.7-7-6.1-9.4-10.1
	c-7,12-11,26-11,40.9c0,45,36.5,81.5,81.5,81.5s81.5-36.5,81.5-81.5S145.3,18.3,100.2,18.3z"/>
<image style="overflow:visible;" width="28" height="28" xlink:href="e2c_28.png"  transform="matrix(1 0 0 1 145 168)">
</image>
</svg>
