<?xml version="1.0" encoding="utf-8"?>
<!-- Generator: Adobe Illustrator 23.0.1, SVG Export Plug-In . SVG Version: 6.00 Build 0)  -->
<svg version="1.1" id="Livello_1" xmlns="http://www.w3.org/2000/svg" xmlns:xlink="http://www.w3.org/1999/xlink" x="0px" y="0px"
	 viewBox="0 0 200 200" style="enable-background:new 0 0 200 200;" xml:space="preserve">
<path d="M167.2,36.9l-45.4-26.1c-13.5-7.8-30.2-7.8-43.7,0L32.8,36.9c-13.1,7.6-21.2,21.4-21.3,36.4v53.4
	c0.1,14.9,8.1,28.7,21.3,36.4l45.4,26.1c6.6,3.8,14.2,5.9,21.8,5.9l0,0c7.7,0,15.2-2,21.8-5.9l45.4-26.1
	c13.1-7.6,21.2-21.4,21.3-36.4V73.2C188.4,58.3,180.4,44.5,167.2,36.9z M180.7,126.7c-0.1,12.2-6.7,23.6-17.4,29.8l-45.4,26.1
	c-11.1,6.4-24.8,6.4-35.8,0l-45.4-26.1c-10.8-6.3-17.4-17.6-17.4-29.8V73.3C19.3,61,26,49.7,36.7,43.5l45.4-26.1
	c11-6.4,24.8-6.4,35.8,0l45.4,26.1c10.8,6.3,17.4,17.6,17.4,29.8L180.7,126.7z"/>
<path d="M101.4,94.2l5.5,11.4l-6.9,6.3l-6.9-6.3l5.7-11.4c-9.6,4.9-25.4-7.4-14.8-19c6.1-6.5,11.4-13.6,15.9-21.2
	c0-0.1,0.1-0.1,0.1-0.2l0.1,0.2c4.5,7.6,9.8,14.7,15.9,21.1C126.5,86.8,111,99.1,101.4,94.2z"/>
<path d="M123,106.9c-2.5,0-5.1,0.5-7.4,1.5l-3.9,2.3l-11.7,10l-11.1-9.5l-3.9-2.4l-0.5-0.3c-2.3-1-4.9-1.5-7.4-1.5
	c-10.6,0-19.2,8.9-19.2,19.6s8.6,19.6,19.2,19.6c1.1,0,2.1-0.1,3.1-0.3c1.5-0.3,2.9-0.7,4.3-1.3l3.9-2.3l5.2-4.4
	c0.5-0.5,0.6-1.3,0.1-1.8c0,0,0,0,0,0l0,0l-4.6-4.5c-0.5-0.4-1.3-0.4-1.8,0l-4,3.4l-2.7,1.6c-0.6,0.2-1.3,0.4-1.9,0.5
	c-0.5,0.1-1.1,0.1-1.6,0.1c-5.6,0-10.1-4.8-10.1-10.8c0-5.9,4.5-10.8,10.1-10.8c1.2,0,2.4,0.2,3.5,0.7l2.7,1.6l9.8,8.4l6.9,5.9
	l11.1,9.5l3.9,2.4l0.5,0.3c2.3,1,4.8,1.5,7.4,1.5c10.6,0,19.2-8.9,19.2-19.6S133.5,106.9,123,106.9z M121.4,137.1
	c-0.6-0.1-1.3-0.3-1.9-0.5l-2.7-1.6l-9.9-8.5l9.9-8.5l2.7-1.6c0.6-0.2,1.3-0.4,1.9-0.5c0.5-0.1,1.1-0.1,1.6-0.1
	c5.6,0,10.1,4.8,10.1,10.8C133.1,133.1,127.7,138.3,121.4,137.1L121.4,137.1z"/>
</svg>
