<svg xmlns="http://www.w3.org/2000/svg" xml:space="preserve" id="Livello_1" x="0" y="0" version="1.1" viewBox="0 0 200 200"><style>.st2{fill:#364697}.st3{fill:#676db1}.st4{fill:#9091c7}.st5{fill:#c7c4e3}.st6{fill:#515aa5}.st7{fill:#6d72b4}</style><circle cx="100" cy="100" r="95" fill="#211e44"/><path fill="none" stroke="#c7c4e3" stroke-miterlimit="10" stroke-width="2" d="M157 157v-9.1h-4.6v-4.6h-4.5v-4.5h-4.6v-4.6h-4.5v-4.6h-4.6v-4.5h-4.6v-4.6h-4.5V116h-4.6v-4.6H116v-4.6h-4.6v-4.5h-4.6v-4.6h-4.5v-4.5h-4.6v-4.6h-4.5V84h-4.6V70.4H84V56.7h-4.5V43H43v36.5h13.7V84h13.7v4.6H84v4.6h4.6v4.5h4.6v4.6h4.5v4.5h4.6v4.6h4.5v4.6h4.6v4.5h4.6v4.6h4.5v4.5h4.6v4.6h4.5v4.6h4.6v4.5h4.6v4.6h4.5v4.5h4.6v4.6z"/><path d="M147.9 152.4h4.6v4.6h-4.6zM138.8 143.3h4.6v4.6h-4.6zM143.3 147.9h4.6v4.6h-4.6zM129.6 134.2h4.6v4.6h-4.6zM134.2 138.8h4.6v4.6h-4.6zM120.5 125.1h4.6v4.6h-4.6zM125.1 129.6h4.6v4.6h-4.6zM111.4 116h4.6v4.6h-4.6zM116 120.5h4.6v4.6H116zM102.3 106.8h4.6v4.6h-4.6zM106.8 111.4h4.6v4.6h-4.6zM93.2 97.7h4.6v4.6h-4.6zM97.7 102.3h4.6v4.6h-4.6zM84 88.6h4.6v4.6H84zM88.6 93.2h4.6v4.6h-4.6z" class="st2"/><path d="M147.9 143.3h4.6v4.6h-4.6zM152.4 147.9h4.6v4.6h-4.6zM138.8 134.2h4.6v4.6h-4.6zM143.3 138.8h4.6v4.6h-4.6zM129.6 125.1h4.6v4.6h-4.6zM134.2 129.6h4.6v4.6h-4.6zM120.5 116h4.6v4.6h-4.6zM125.1 120.5h4.6v4.6h-4.6zM111.4 106.8h4.6v4.6h-4.6zM116 111.4h4.6v4.6H116zM102.3 97.7h4.6v4.6h-4.6zM106.8 102.3h4.6v4.6h-4.6zM93.2 88.6h4.6v4.6h-4.6zM97.7 93.2h4.6v4.6h-4.6zM70.4 43h9.1v13.7H84v13.7h4.6V84H84v-9.1h-9.1v-4.5h4.6v-9.2h-4.6V47.6h-4.5z" class="st3"/><path d="M47.6 47.6H75V75H47.6z" class="st4"/><path d="M56.7 56.7h13.7v13.7H56.7z" class="st4"/><path d="M88.6 84h4.6v4.6h-4.6z" class="st3"/><path d="M65.8 65.8h9.1v9.1h-9.1z" class="st5"/><path d="M147.9 147.9h4.6v4.6h-4.6z" class="st6"/><path d="M152.4 152.4h4.6v4.6h-4.6zM138.8 138.8h4.6v4.6h-4.6z" class="st6"/><path d="M143.3 143.3h4.6v4.6h-4.6zM129.6 129.6h4.6v4.6h-4.6zM134.2 134.2h4.6v4.6h-4.6zM120.5 120.5h4.6v4.6h-4.6z" class="st6"/><path d="M125.1 125.1h4.6v4.6h-4.6zM111.4 111.4h4.6v4.6h-4.6zM116 116h4.6v4.6H116zM102.3 102.3h4.6v4.6h-4.6z" class="st6"/><path d="M106.8 106.8h4.6v4.6h-4.6zM93.2 93.2h4.6v4.6h-4.6z" class="st6"/><path d="M97.7 97.7h4.6v4.6h-4.6zM84 84h4.6v4.6H84zM88.6 88.6h4.6v4.6h-4.6zM74.9 74.9H84V84h-9.1z" class="st6"/><path d="M70.4 70.4H75V75h-4.6z" class="st6"/><path d="M70.4 74.9h4.5V84H84v4.6H70.4V84H56.7v-4.5H43v-9.1h4.6v4.5h13.6v4.6h9.2z" class="st2"/><path d="M56.7 52.1h18.2v9.1h4.6v9.2h-4.6v-4.6h-4.5v-9.1H56.7z" class="st7"/><path d="M61.2 61.2h4.6v4.6h-4.6z" class="st5"/><path d="M52.1 56.7v18.2h9.1v4.6h9.2v-4.6h-4.6v-4.5h-9.1V56.7z" class="st7"/><path d="M43 43h27.4v4.6H47.6v22.8H43z" class="st7"/></svg>