<?xml version="1.0" encoding="UTF-8"?>
<svg width="138px" height="138px" viewBox="0 0 138 138" version="1.1" xmlns="http://www.w3.org/2000/svg" xmlns:xlink="http://www.w3.org/1999/xlink">
    <!-- Generator: Sketch 48.2 (47327) - http://www.bohemiancoding.com/sketch -->
    <title>Group 3</title>
    <desc>Created with Sketch.</desc>
    <defs></defs>
    <g id="Page-1" stroke="none" stroke-width="1" fill="none" fill-rule="evenodd">
        <g id="Group" transform="translate(0.000000, -38.000000)">
            <g id="Group-2">
                <g id="Group-3" transform="translate(0.000000, 38.000000)">
                    <circle id="Oval" fill="#2E2E2E" cx="69" cy="69" r="69"></circle>
                    <path d="M59.2830508,28.0037833 L41,28.0037833 L41,110.747709 L77.0891525,110.669204 C87.2640678,110.669204 94.9747458,108.235559 99.9827119,103.446774 C104.116271,99.4430357 106.262542,93.9477086 106.262542,87.117802 C106.262542,78.1682693 101.095593,71.4168674 94.4977966,68.0411665 C98.949322,65.1364936 102.605932,60.3477086 103.321356,51.7121945 C103.877797,44.9607927 101.572542,39.5439702 97.6774576,35.4617273 C91.6361017,29.0243441 81.8586441,27.9252787 74.9428814,28.0037833 L65.4038983,28.0037833 L65.4038983,33.8131291 L74.9428814,33.8131291 C83.21,33.6561198 89.7283051,35.6972413 93.3054237,39.3869609 C95.9286441,42.2131291 97.7569492,46.1383628 97.3594915,51.0841572 C96.5645763,60.3477086 91.9540678,63.5664002 85.2767797,65.529017 L65.4038983,65.529017 L65.4038983,71.4168674 L85.5152542,71.4168674 C94.3388136,71.8093908 100.300678,79.8168674 100.300678,87.0392974 C100.300678,92.2991104 98.8698305,96.3028488 95.8491525,99.129017 C90.7616949,103.996307 82.0176271,104.859858 75.5788136,104.702849 L46.9618644,104.702849 L46.9618644,33.8131291 L53.1622034,33.8131291 L53.2416949,98.5794843 L82.2561017,98.5794843 C88.2179661,98.5794843 93.4644068,93.7121945 93.4644068,88.2168674 C93.4644068,82.4860263 88.7744068,77.8542506 82.9715254,77.8542506 L65.4038983,77.8542506 L65.4038983,83.8206058 L82.9715254,83.8206058 C85.4357627,83.8206058 87.4230508,85.7832226 87.4230508,88.2168674 C87.4230508,90.493503 84.879322,92.6131291 82.2561017,92.6131291 L59.2035593,92.6131291 L59.2830508,28.0037833 Z M65.4038983,45.9813534 L80.7457627,45.9813534 C82.8125424,45.9813534 84.4818644,47.6299516 84.4818644,49.6710731 C84.4818644,51.7121945 82.8125424,53.3607927 80.7457627,53.3607927 C80.6662712,53.4392974 71.7632203,53.4392974 65.4038983,53.4392974 L65.4038983,59.4056525 L80.7457627,59.4056525 C86.1511864,59.4056525 90.5232203,55.0878955 90.5232203,49.7495777 C90.5232203,44.41126 86.1511864,40.093503 80.7457627,40.093503 L65.4038983,40.093503 L65.4038983,45.9813534 Z" id="Shape" fill="#FFFFFF" fill-rule="nonzero"></path>
                </g>
            </g>
        </g>
    </g>
</svg>