<svg xmlns="http://www.w3.org/2000/svg" id="Livello_1" viewBox="0 0 200 200"><style>.st1{fill:#04ffcc}</style><path fill="#2c398f" d="M429.3 3746.2c-494-1219.3 0-2443.8 988-3321.4 1266.6-1119.4 3006.1 441.5 3442.3 1172 473 793.6 241.7 2480.5-903.9 3137.5C2810 5396.4 928.5 4970.7 429.3 3746.2z" transform="matrix(.0379 0 0 .0379 -1.0391 3.7517)"/><path d="M2930.8 992.4c5.3 78.8-120.9 47.3-257.5 94.6-152.4 52.6-262.8 5.3-268-73.6-5.3-78.8 99.9-257.5 247-262.8 141.9-5.2 273.3 162.9 278.5 241.8zM1674.8 4319c-593.9-310.1-877.7-835.6-1129.9-578.1-31.5 31.5-54.3 66.3-70.1 108.3 325.8 678 1071.7 1078.4 1886.2 1176.2-73.6-247-292-506.7-686.2-706.4zM5048.8 2096c-94.6-68.3-194.4-110.4-262.8-115.6-183.9-10.5-325.8 241.7-231.2 609.6 84.1 331.1-21 620.1 162.9 630.6 78.8 5.3 205-42 325.8-131.4 68.3-341.5 68.3-693.6 5.3-993.2z" class="st1" transform="matrix(.0379 0 0 .0379 -1.0391 3.7517)"/><path fill="#7df8fb" d="M3193.6 493.1v1229.8c-183.9-105.1-394.2-168.2-620.1-168.2-688.5 0-1245.5 557.1-1245.5 1245.5s557 1245.6 1245.5 1245.6c241.7 0 462.5-68.3 651.7-183.9 52.6 110.4 162.9 183.9 289 183.9 173.4 0 320.6-141.9 320.6-320.6V550.9c-162.9-115.6-341.6-220.7-525.5-304.8-73.6 57.8-115.7 147.2-115.7 247zm-110.4 2485.8c-68.3 388.9-436.2 457.2-741 283.8-662.2-378.4-105.1-1350.6 557.1-972.2 199.7 110.3 220.7 462.4 183.9 688.4z" transform="matrix(.0379 0 0 .0379 -1.0391 3.7517)"/></svg>