<?xml version="1.0" encoding="UTF-8" standalone="no"?>
<!DOCTYPE svg PUBLIC "-//W3C//DTD SVG 1.1//EN" "http://www.w3.org/Graphics/SVG/1.1/DTD/svg11.dtd">
<svg width="100%" height="100%" viewBox="0 0 15 15" version="1.1" xmlns="http://www.w3.org/2000/svg" xmlns:xlink="http://www.w3.org/1999/xlink" xml:space="preserve" style="fill-rule:evenodd;clip-rule:evenodd;stroke-linejoin:round;stroke-miterlimit:1.41421;">
    <g>
        <g transform="matrix(0.0379068,0,0,0.0379068,-1.03911,3.75171)">
            <path d="M174.9,73.7L172.3,73.7C170.7,73.7 169.8,74.6 169.8,76.2L169.8,90.8C167.3,87.2 163.7,85.7 159.7,85.7C151.1,85.7 145.2,92.6 145.2,101.3C145.2,110 151.1,116.9 159.7,116.9C163.7,116.9 167.3,115.4 169.8,111.8L169.8,113.8C169.8,115.4 170.7,116.3 172.3,116.3L174.9,116.3C176.5,116.3 177.4,115.4 177.4,113.8L177.4,76.2C177.4,74.6 176.5,73.7 174.9,73.7ZM161.2,110.6C155.8,110.6 152.8,106.4 152.8,101.3C152.8,96.2 155.9,92 161.2,92C166.4,92 170,95.9 170,101.3C169.9,106.6 166.4,110.6 161.2,110.6Z" style="fill:rgb(44,57,143);fill-rule:nonzero;"/>
        </g>
        <g transform="matrix(0.0379068,0,0,0.0379068,-1.03911,3.75171)">
            <path d="M189.6,73.1C186.7,73.1 184.8,75 184.8,77.5C184.8,80 186.7,81.9 189.6,81.9C192.5,81.9 194.4,80 194.4,77.5C194.4,75.1 192.5,73.1 189.6,73.1Z" style="fill:rgb(44,57,143);fill-rule:nonzero;"/>
        </g>
        <g transform="matrix(0.0379068,0,0,0.0379068,-1.03911,3.75171)">
            <path d="M190.9,86.4L188.3,86.4C186.7,86.4 185.8,87.3 185.8,88.9L185.8,113.8C185.8,115.4 186.7,116.3 188.3,116.3L190.9,116.3C192.5,116.3 193.4,115.4 193.4,113.8L193.4,88.9C193.4,87.3 192.5,86.4 190.9,86.4Z" style="fill:rgb(44,57,143);fill-rule:nonzero;"/>
        </g>
        <g transform="matrix(0.0379068,0,0,0.0379068,-1.03911,3.75171)">
            <path d="M214.8,98.9L210.8,97.5C209.2,97 207.7,96.1 207.7,94.6C207.7,92.9 209.1,91.5 211.3,91.5C212.5,91.5 213.7,91.8 214.5,92.9C215.4,93.9 216.2,94.4 217.6,94.1L219,93.7C220.6,93.3 221.5,92.1 220.5,90.5C218.4,87 215,85.7 211.2,85.7C205,85.7 200.7,89.6 200.7,94.9C200.7,99.8 204.8,102.1 208.6,103.3L212.4,104.7C214.3,105.4 215.6,106.2 215.6,107.8C215.6,109.7 213.8,111.1 211.2,111.1C209.1,111.1 207.3,110.3 206.3,109C205.3,107.9 204.6,107.2 203.2,107.6L201.7,108C200.1,108.4 199.3,109.5 200.1,111.1C202.1,115 206.3,117 211.3,117C217.4,117 222.7,113.8 222.7,107.8C222.6,104.3 220.8,100.8 214.8,98.9Z" style="fill:rgb(44,57,143);fill-rule:nonzero;"/>
        </g>
        <g transform="matrix(0.0379068,0,0,0.0379068,-1.03911,3.75171)">
            <path d="M248.1,105.1L245,105.1C244.1,105.1 243.8,105.6 243.9,106.6C244,107 244,107.4 244,107.7C244,109.5 242.6,110.6 241,110.6C239.4,110.6 238.1,109.5 238.1,106.8L238.1,92.1L245.5,92.1C246.4,92.1 246.9,91.6 246.9,90.7L246.9,87.6C246.9,86.8 246.4,86.2 245.5,86.2L238.1,86.2L238.1,80C238.1,78.8 237.4,78.1 236.2,78.1L234.1,78.1C233,78.1 232.2,78.7 232,79.9L230.9,86.3L227.3,86.3C226.4,86.3 225.9,86.8 225.9,87.7L225.9,90.8C225.9,91.7 226.4,92.2 227.3,92.2L230.6,92.2L230.6,106.6C230.6,114.6 235.6,116.9 240.5,116.9C246.1,116.9 250,114 250,108.4C250,108.2 249.9,107.2 249.7,106.2C249.4,105.4 248.8,105.1 248.1,105.1Z" style="fill:rgb(44,57,143);fill-rule:nonzero;"/>
        </g>
        <g transform="matrix(0.0379068,0,0,0.0379068,-1.03911,3.75171)">
            <path d="M271.6,85.8C271.3,85.7 270.7,85.7 270.4,85.7C267.3,85.7 263.5,87.9 262.5,93L262.5,88.9C262.5,87.3 261.6,86.4 260,86.4L257.5,86.4C255.9,86.4 255,87.3 255,88.9L255,113.8C255,115.4 255.9,116.3 257.5,116.3L260.1,116.3C261.7,116.3 262.6,115.4 262.6,113.8L262.6,104.5C262.6,94.7 266.8,93 269.7,93C270.2,93 270.7,93.1 271.2,93.2C272.3,93.4 273,92.7 273,91.2L273,88.3C273.1,87 272.9,85.9 271.6,85.8Z" style="fill:rgb(44,57,143);fill-rule:nonzero;"/>
        </g>
        <g transform="matrix(0.0379068,0,0,0.0379068,-1.03911,3.75171)">
            <path d="M281.7,73.1C278.8,73.1 276.9,75 276.9,77.5C276.9,80 278.8,81.9 281.7,81.9C284.6,81.9 286.5,80 286.5,77.5C286.5,75.1 284.6,73.1 281.7,73.1Z" style="fill:rgb(44,57,143);fill-rule:nonzero;"/>
        </g>
        <g transform="matrix(0.0379068,0,0,0.0379068,-1.03911,3.75171)">
            <path d="M283.1,86.4L280.4,86.4C278.8,86.4 277.9,87.3 277.9,88.9L277.9,113.8C277.9,115.4 278.8,116.3 280.4,116.3L283,116.3C284.6,116.3 285.5,115.4 285.5,113.8L285.5,88.9C285.5,87.3 284.6,86.4 283.1,86.4Z" style="fill:rgb(44,57,143);fill-rule:nonzero;"/>
        </g>
        <g transform="matrix(0.0379068,0,0,0.0379068,-1.03911,3.75171)">
            <path d="M309.2,92.1C309.9,92.1 312.1,92.2 314.4,93.3C315.9,94 316.9,93.9 317.9,92.7L318.6,91.8C319.6,90.5 319.4,89.2 318,88.3C314.7,86.4 311.4,85.8 308.8,85.8C298.1,85.8 291.8,92.9 291.8,101.6C291.8,110.1 298.4,116.9 308.8,116.9C311.2,116.9 314.3,116.4 317.3,114.8C319.2,113.8 319.5,112.3 318.6,111L317.9,110.1C317,108.9 315.9,108.8 314.4,109.5C312.2,110.6 309.9,110.7 309.2,110.7C303.5,110.7 299.3,106.9 299.3,101.4C299.4,95.9 303.5,92.1 309.2,92.1Z" style="fill:rgb(44,57,143);fill-rule:nonzero;"/>
        </g>
        <g transform="matrix(0.0379068,0,0,0.0379068,-1.03911,3.75171)">
            <path d="M345.6,105.1L342.4,105.1C341.5,105.1 341.2,105.6 341.3,106.6C341.4,107 341.4,107.4 341.4,107.7C341.4,109.5 340,110.6 338.4,110.6C336.8,110.6 335.5,109.5 335.5,106.8L335.5,92.1L342.9,92.1C343.8,92.1 344.3,91.6 344.3,90.7L344.3,87.6C344.3,86.8 343.8,86.2 342.9,86.2L335.5,86.2L335.5,80C335.5,78.8 334.8,78.1 333.6,78.1L331.5,78.1C330.4,78.1 329.6,78.7 329.4,79.9L328.3,86.3L324.7,86.3C323.8,86.3 323.3,86.8 323.3,87.7L323.3,90.8C323.3,91.7 323.8,92.2 324.7,92.2L328,92.2L328,106.6C328,114.6 333,116.9 337.9,116.9C343.5,116.9 347.4,114 347.4,108.4C347.4,108.2 347.3,107.2 347.1,106.2C346.9,105.4 346.3,105.1 345.6,105.1Z" style="fill:rgb(44,57,143);fill-rule:nonzero;"/>
        </g>
        <g transform="matrix(0.0379068,0,0,0.0379068,-1.03911,3.75171)">
            <path d="M369.4,74.4C358.2,74.4 351.4,83.9 351.4,95.7C351.4,107.4 358.2,116.9 369.4,116.9C380.6,116.9 387.5,107.4 387.5,95.7C387.5,83.9 380.5,74.4 369.4,74.4ZM369.4,80.8C372.1,80.8 374.4,82 376.2,83.9L359.7,101.9C359.1,100 358.8,97.9 358.8,95.6C358.8,87.4 362.8,80.8 369.4,80.8ZM369.4,110.5C366.9,110.5 364.7,109.5 363.1,107.9L379.4,90.1C379.9,91.8 380.1,93.7 380.1,95.8C380,103.9 375.9,110.5 369.4,110.5Z" style="fill:rgb(44,57,143);fill-rule:nonzero;"/>
        </g>
        <g transform="matrix(0.0379068,0,0,0.0379068,-1.03911,3.75171)">
            <path d="M422.4,113.2L412.1,100.8L421.4,89.5C422.8,87.9 422.1,86.4 419.9,86.4L417.1,86.4C415.8,86.4 414.9,86.9 414,87.9L407.1,96.1L400.2,87.9C399.4,86.9 398.4,86.4 397.2,86.4L394.4,86.4C392.2,86.4 391.6,87.8 392.9,89.5L402.2,100.8L391.9,113.2C390.5,114.8 391.2,116.3 393.3,116.3L396.1,116.3C397.4,116.3 398.3,115.9 399.2,114.9L407.1,105.5L414.9,114.9C415.8,115.9 416.7,116.3 418,116.3L420.8,116.3C423.1,116.2 423.8,114.8 422.4,113.2Z" style="fill:rgb(44,57,143);fill-rule:nonzero;"/>
        </g>
        <g transform="matrix(0.0379068,0,0,0.0379068,-1.03911,3.75171)">
            <path d="M31.1,121.8C21.7,98.6 31.1,75.3 49.9,58.6C74,37.3 107.1,67 115.4,80.9C124.4,96 120,128.1 98.2,140.6C76.4,153.2 40.6,145.1 31.1,121.8Z" style="fill:rgb(44,57,143);fill-rule:nonzero;"/>
        </g>
        <g transform="matrix(0.0379068,0,0,0.0379068,-1.03911,3.75171)">
            <path d="M78.7,69.4C78.8,70.9 76.4,70.3 73.8,71.2C70.9,72.2 68.8,71.3 68.7,69.8C68.6,68.3 70.6,64.9 73.4,64.8C76.1,64.7 78.6,67.9 78.7,69.4Z" style="fill:rgb(4,255,204);fill-rule:nonzero;"/>
        </g>
        <g transform="matrix(0.0379068,0,0,0.0379068,-1.03911,3.75171)">
            <path d="M54.8,132.7C43.5,126.8 38.1,116.8 33.3,121.7C32.7,122.3 32.3,122.9 32,123.7C38.2,136.6 52.6,144.4 67.9,146.3C66.5,141.6 62.3,136.5 54.8,132.7Z" style="fill:rgb(4,255,204);fill-rule:nonzero;"/>
        </g>
        <g transform="matrix(0.0379068,0,0,0.0379068,-1.03911,3.75171)">
            <path d="M119,90.4C117.2,89.1 115.3,88.3 114,88.2C110.5,88 107.8,92.8 109.6,99.8C111.2,106.1 109.2,111.6 112.7,111.8C114.2,111.9 116.6,111 118.9,109.3C120.2,102.8 120.2,96.1 119,90.4Z" style="fill:rgb(4,255,204);fill-rule:nonzero;"/>
        </g>
        <g transform="matrix(0.0379068,0,0,0.0379068,-1.03911,3.75171)">
            <path d="M83.7,59.9L83.7,83.3C80.2,81.3 76.2,80.1 71.9,80.1C58.8,80.1 48.2,90.7 48.2,103.8C48.2,116.9 58.8,127.5 71.9,127.5C76.5,127.5 80.7,126.2 84.3,124C85.3,126.1 87.4,127.5 89.8,127.5C93.1,127.5 95.9,124.8 95.9,121.4L95.9,61C92.8,58.8 89.4,56.8 85.9,55.2C84.5,56.3 83.7,58 83.7,59.9ZM81.6,107.2C80.3,114.6 73.3,115.9 67.5,112.6C54.9,105.4 65.5,86.9 78.1,94.1C81.9,96.2 82.3,102.9 81.6,107.2Z" style="fill:rgb(125,248,251);fill-rule:nonzero;"/>
        </g>
    </g>
</svg>
