<?xml version="1.0" encoding="utf-8"?>
<!-- Generator: Adobe Illustrator 22.1.0, SVG Export Plug-In . SVG Version: 6.00 Build 0)  -->
<svg version="1.0" id="Livello_1" xmlns="http://www.w3.org/2000/svg" xmlns:xlink="http://www.w3.org/1999/xlink" x="0px" y="0px"
	 viewBox="0 0 200 200" enable-background="new 0 0 200 200" xml:space="preserve">
<path fill="#5F4B8B" d="M100.6,5C48.5,4.7,5.3,47.3,5.1,99.3c-0.3,52.4,42.5,95.5,94.7,95.7c52.1,0,95-42.6,95.1-94.6
	C195.2,48.3,152.6,5.3,100.6,5z M111.1,50.6c8.1-3.8,18.1-4.2,28.1-4.3h9.7c0.8,0,2.1,0,3.8,0v23.4c-1.1,0-4.3,0-7.1,0
	c-9.8-0.1-20.8,1.1-28.2,7.3c-3-8.6-7-15.7-12.6-22.3C106,53.6,108.4,51.9,111.1,50.6z M67.7,154c-5,0.1-9.8,0-14.8,0h-6.9
	c0-1.7,0-3.1,0-4.8c-0.1-9.5,0-16.8,0-19.6c3.2,0,9.9,0,19.8-0.1c11.7-0.1,19.6-6,21.1-17.3c1.1-8.3,0.8-17.1-0.4-25.4
	C85,76.6,77.2,71,67.1,70.7c-1.2,0-19.3,0-21,0c0-1.5,0-8.9,0-11.6c0-4.4,0-7.4,0-12.1v-0.8c1.6,0,4,0,4.8,0
	c10.2,0.1,19.5-0.1,28.6,2.1c19.8,4.8,32.7,21.4,33.1,41.7c0,3.4,0,6.7,0,10.1c0.3,0,0,15.9-2.1,23.2
	C104.9,141.9,87.4,153.2,67.7,154z M153.5,154c-1.6,0-3,0-3.8,0h-9.7c-9.8-0.1-20-0.5-28.1-4.3c-2.7-1.2-5.1-3.1-6.4-4
	c5.6-6.6,9.7-13.7,12.6-22.3c7.4,6.2,18.4,7.4,28.2,7.3c2.8,0,6,0,7.1,0V154z"/>
</svg>
