<svg xmlns="http://www.w3.org/2000/svg" id="Livello_1" x="0" y="0" version="1.1" viewBox="0 0 200 200" xml:space="preserve"><style>.st1{fill:#fff}</style><circle cx="100" cy="101" r="95" fill="#2d6ab2"/><path d="M97 64h8v77h-8V64z" class="st1"/><path d="M138 79l3 8-25 9-8-26 7-2 4.5 13.5s3-4 3-11-7-22-22-22-22 13-22 22 4 17 15 22v10s-24-9-24-32 22-30 31-30 29 6 29 30c0 0 0 8-3 13L138 79zM109.5 105v9.2c4.3 3.2 12.5 10.5 12.5 19.8 0 12.4-11.8 22-22 22s-22-8.7-22-20c0-6.5 2.5-10.9 4.7-13.5L85 137l7-2-4-26-26 6 2 7 10.9-2.4c-2.6 3.8-4.9 9.2-4.9 16.4 0 16.5 15.8 28 30 28s30-12.8 30-30c0-17.1-19.8-28.5-20.5-29z" class="st1"/></svg>