<?xml version="1.0" encoding="utf-8"?>
<!-- Generator: Adobe Illustrator 22.1.0, SVG Export Plug-In . SVG Version: 6.00 Build 0)  -->
<svg version="1.0" id="Livello_1" xmlns="http://www.w3.org/2000/svg" xmlns:xlink="http://www.w3.org/1999/xlink" x="0px" y="0px"
	 viewBox="0 0 200 200" enable-background="new 0 0 200 200" xml:space="preserve">
<g>
	<path fill="#FF5C00" d="M122.9,6C85.3,6,54.8,36.5,54.8,74.1h10.2c0-32,25.9-57.9,57.9-57.9V6z"/>
	<path fill="#FF5C00" d="M122.9,25.3c-26.9,0-48.8,21.8-48.8,48.8h10.2c0-21.3,17.2-38.5,38.5-38.5V25.3z"/>
	<path fill="#FF5C00" d="M122.9,43.6c-16.8,0-30.5,13.6-30.5,30.5h10.2c0-11.2,9.1-20.3,20.3-20.3V43.6z"/>
</g>
<g>
	<path fill="#FF5C00" d="M126.9,53.8c37.6,0,68.1,30.5,68.1,68.1h-10.2c0-32-25.9-57.9-57.9-57.9V53.8z"/>
	<path fill="#FF5C00" d="M126.9,73.1c26.9,0,48.8,21.8,48.8,48.8h-10.2c0-21.3-17.2-38.5-38.5-38.5V73.1z"/>
	<path fill="#FF5C00" d="M126.9,91.4c16.8,0,30.5,13.6,30.5,30.5h-10.2c0-11.2-9.1-20.3-20.3-20.3V91.4z"/>
</g>
<g>
	<path fill="#FF5C00" d="M73.1,146.2C35.5,146.2,5,115.8,5,78.2h10.2c0,32,25.9,57.9,57.9,57.9V146.2z"/>
	<path fill="#FF5C00" d="M73.1,126.9c-26.9,0-48.8-21.8-48.8-48.8h10.2c0,21.3,17.2,38.5,38.5,38.5V126.9z"/>
	<path fill="#FF5C00" d="M73.1,108.6c-16.8,0-30.5-13.6-30.5-30.5h10.2c0,11.2,9.1,20.3,20.3,20.3V108.6z"/>
</g>
<g>
	<path fill="#FF5C00" d="M77.1,194c37.6,0,68.1-30.5,68.1-68.1h-10.2c0,32-25.9,57.9-57.9,57.9V194z"/>
	<path fill="#FF5C00" d="M77.1,174.7c26.9,0,48.8-21.8,48.8-48.8h-10.2c0,21.3-17.2,38.5-38.5,38.5V174.7z"/>
	<path fill="#FF5C00" d="M77.1,156.4c16.8,0,30.5-13.6,30.5-30.5H97.5c0,11.2-9.1,20.3-20.3,20.3V156.4z"/>
</g>
</svg>
