<svg xmlns="http://www.w3.org/2000/svg" id="Livello_1" x="0" y="0" version="1.1" viewBox="0 0 200 200" xml:space="preserve"><style>.st1{fill:#fff}</style><linearGradient id="path-2_2_" x1=".3347" x2=".0466" y1="200.0081" y2="199.7347" gradientTransform="matrix(436.1492 0 0 -492.8031 16.2757 98576.1172)" gradientUnits="userSpaceOnUse"><stop offset="0" stop-color="#01c1d2"/><stop offset=".2249" stop-color="#009eb5"/><stop offset=".5842" stop-color="#007bb7"/><stop offset=".8679" stop-color="#384d78"/><stop offset="1" stop-color="#483b6b"/></linearGradient><path id="path-2_1_" fill="url(#path-2_2_)" fill-rule="evenodd" d="M24.9 27.6c19.7-11.3 44.8-17 75.1-17s55.4 5.7 75.1 17c2.6 1.5 4.2 4.4 4 7.4l-4.1 65.9c-1.7 27.1-16.1 51.8-38.9 66.5l-31.9 20.7c-2.6 1.7-6 1.7-8.7 0l-31.9-20.7c-22.6-14.7-37-39.4-38.7-66.5l-4-65.9c-.2-3 1.3-5.9 4-7.4z" clip-rule="evenodd"/><path d="M177.9 22.7C157.4 11 131.2 5 100 5c-31.2 0-57.4 6-77.9 17.7-4.5 2.6-7.1 7.4-6.8 12.6l4.1 65.9c.9 14.2 5.1 28.1 12.3 40.4 7.2 12.2 17.2 22.8 29.1 30.5l31.9 20.7c2.2 1.5 4.8 2.2 7.4 2.2s5.1-.7 7.4-2.2l31.9-20.7c11.9-7.7 22-18.3 29.1-30.5 7.2-12.2 11.4-26.2 12.3-40.4l4.1-65.9c.1-5.1-2.5-10-7-12.6zm-17.5 121l-51.7 13.6c-.3-1.2-.8-2.2-1.5-3.2l33.6-61.5c.6.1 1.2.2 1.8.2.9 0 1.8-.1 2.6-.4l21.7 40.1c-1.9 3.9-4.1 7.6-6.5 11.2zm-120.1 1.1c-2.9-4.1-5.4-8.4-7.5-12.9l21.9-39.1c.4 0 .8.1 1.1.1 1.1 0 2.2-.2 3.2-.6L93.3 154c-.7.9-1.3 2-1.6 3.2-27.4-6.6-44.6-10.8-51.4-12.4zM137.1 91L104 151.6c-1.2-.6-2.5-.9-3.8-.9-1.3 0-2.6.3-3.7.8L62.4 89.9c1.4-1.6 2.3-3.6 2.3-5.9 0-2.1-.7-4-2-5.5l37.7-67.3.2-.2h.3c.1 0 .1.1.2.2l35.8 66.1c-1.9 1.6-3.2 4-3.2 6.7 0 2.8 1.4 5.3 3.4 7zM59.5 76c-1.1-.5-2.3-.8-3.6-.8-.5 0-1 .1-1.5.1l-27.2-49c18.4-9.9 41.6-15.2 68.9-15.7L59.5 76zm85.9-.2c-.9-.3-1.9-.5-2.9-.5-.7 0-1.4.1-2 .2l-35.2-64.8c26.6.6 49.1 5.8 67.2 15.5l-27.1 49.6zM20.9 35c-.2-2.6.9-5.1 2.9-6.7L50.7 77c-2.2 1.6-3.6 4.2-3.6 7.1 0 3 1.5 5.7 3.9 7.3l-20.1 35.9c-3.3-8.3-5.4-17.2-5.9-26.3l-4.1-66zm42.9 132.5c-7.5-4.9-14.1-10.9-19.7-17.7 8.7 2.1 24.6 6 47.5 11.5.7 3.3 3.3 6 6.6 6.7v21.2c-.9-.2-1.8-.5-2.5-1.1l-31.9-20.6zm72.4 0l-31.9 20.7c-.7.4-1.4.8-2.1 1V168c3.3-.8 5.8-3.3 6.6-6.6l47.9-12.6c-5.7 7.2-12.6 13.6-20.5 18.7zm38.9-66.6c-.6 9.4-2.7 18.5-6.2 27l-20.3-37.5c1.7-1.6 2.7-3.9 2.7-6.4 0-2.4-1-4.5-2.5-6.1L176 28.1c2.1 1.6 3.3 4.1 3.2 6.9l-4.1 65.9z" class="st1"/><path id="Shape" d="M100 52.9c-2.5 0-4.8 2.2-4.8 4.8v17.5L69.9 91l2.7 6 22.7-7.5V107l-6.3 4.8v4.8l11.1-3.2 11.1 3.2v-4.8l-6.3-4.8V89.4l22.3 7.9 3.1-6.4L104.9 75V57.7c-.1-2.6-2.4-4.8-4.9-4.8z" class="st1"/></svg>