<svg xmlns="http://www.w3.org/2000/svg" viewBox="0 0 200 200"><path d="M108.6 126.3c-.8-4.2-1.8-6.5-3.4-7.2-1.5-.7-2.1-.7-3.6 0-2.1 1-3.2 7.1-2 11.7.8 2.9 2 4 4.7 4 4 0 5.3-2.6 4.3-8.5zm0 0c-.8-4.2-1.8-6.5-3.4-7.2-1.5-.7-2.1-.7-3.6 0-2.1 1-3.2 7.1-2 11.7.8 2.9 2 4 4.7 4 4 0 5.3-2.6 4.3-8.5zm0 0c-.8-4.2-1.8-6.5-3.4-7.2-1.5-.7-2.1-.7-3.6 0-2.1 1-3.2 7.1-2 11.7.8 2.9 2 4 4.7 4 4 0 5.3-2.6 4.3-8.5zm0 0c-.8-4.2-1.8-6.5-3.4-7.2-1.5-.7-2.1-.7-3.6 0-2.1 1-3.2 7.1-2 11.7.8 2.9 2 4 4.7 4 4 0 5.3-2.6 4.3-8.5zm0 0c-.8-4.2-1.8-6.5-3.4-7.2-1.5-.7-2.1-.7-3.6 0-2.1 1-3.2 7.1-2 11.7.8 2.9 2 4 4.7 4 4 0 5.3-2.6 4.3-8.5zm0 0c-.8-4.2-1.8-6.5-3.4-7.2-1.5-.7-2.1-.7-3.6 0-2.1 1-3.2 7.1-2 11.7.8 2.9 2 4 4.7 4 4 0 5.3-2.6 4.3-8.5zM79 156.7c-.3-3.5-1.4-4.7-4.6-4.7-1.8 0-2.4.3-3.2 1.3s-1 2-1 4.5c0 2.8.2 3.4 1.3 4.4 2.1 2.2 6.1 1.4 7.3-1.3.1-.8.3-2.6.2-4.2zm29.6-30.4c-.8-4.2-1.8-6.5-3.4-7.2-1.5-.7-2.1-.7-3.6 0-2.1 1-3.2 7.1-2 11.7.8 2.9 2 4 4.7 4 4 0 5.3-2.6 4.3-8.5zm0 0c-.8-4.2-1.8-6.5-3.4-7.2-1.5-.7-2.1-.7-3.6 0-2.1 1-3.2 7.1-2 11.7.8 2.9 2 4 4.7 4 4 0 5.3-2.6 4.3-8.5zM79 156.7c-.3-3.5-1.4-4.7-4.6-4.7-1.8 0-2.4.3-3.2 1.3s-1 2-1 4.5c0 2.8.2 3.4 1.3 4.4 2.1 2.2 6.1 1.4 7.3-1.3.1-.8.3-2.6.2-4.2zm0 0c-.3-3.5-1.4-4.7-4.6-4.7-1.8 0-2.4.3-3.2 1.3s-1 2-1 4.5c0 2.8.2 3.4 1.3 4.4 2.1 2.2 6.1 1.4 7.3-1.3.1-.8.3-2.6.2-4.2zm29.6-30.4c-.8-4.2-1.8-6.5-3.4-7.2-1.5-.7-2.1-.7-3.6 0-2.1 1-3.2 7.1-2 11.7.8 2.9 2 4 4.7 4 4 0 5.3-2.6 4.3-8.5zm0 0c-.8-4.2-1.8-6.5-3.4-7.2-1.5-.7-2.1-.7-3.6 0-2.1 1-3.2 7.1-2 11.7.8 2.9 2 4 4.7 4 4 0 5.3-2.6 4.3-8.5zM79 156.7c-.3-3.5-1.4-4.7-4.6-4.7-1.8 0-2.4.3-3.2 1.3s-1 2-1 4.5c0 2.8.2 3.4 1.3 4.4 2.1 2.2 6.1 1.4 7.3-1.3.1-.8.3-2.6.2-4.2zm0 0c-.3-3.5-1.4-4.7-4.6-4.7-1.8 0-2.4.3-3.2 1.3s-1 2-1 4.5c0 2.8.2 3.4 1.3 4.4 2.1 2.2 6.1 1.4 7.3-1.3.1-.8.3-2.6.2-4.2zm29.6-30.4c-.8-4.2-1.8-6.5-3.4-7.2-1.5-.7-2.1-.7-3.6 0-2.1 1-3.2 7.1-2 11.7.8 2.9 2 4 4.7 4 4 0 5.3-2.6 4.3-8.5zm0 0c-.8-4.2-1.8-6.5-3.4-7.2-1.5-.7-2.1-.7-3.6 0-2.1 1-3.2 7.1-2 11.7.8 2.9 2 4 4.7 4 4 0 5.3-2.6 4.3-8.5zM79 156.7c-.3-3.5-1.4-4.7-4.6-4.7-1.8 0-2.4.3-3.2 1.3s-1 2-1 4.5c0 2.8.2 3.4 1.3 4.4 2.1 2.2 6.1 1.4 7.3-1.3.1-.8.3-2.6.2-4.2zm0 0c-.3-3.5-1.4-4.7-4.6-4.7-1.8 0-2.4.3-3.2 1.3s-1 2-1 4.5c0 2.8.2 3.4 1.3 4.4 2.1 2.2 6.1 1.4 7.3-1.3.1-.8.3-2.6.2-4.2zm29.6-30.4c-.8-4.2-1.8-6.5-3.4-7.2-1.5-.7-2.1-.7-3.6 0-2.1 1-3.2 7.1-2 11.7.8 2.9 2 4 4.7 4 4 0 5.3-2.6 4.3-8.5zm30.9-87.1c-.9-.9-1.8-1.7-2-1.7-.2 0-.8.5-1.4 1.1-1.5 1.5-1.4 2 .7 3.9 1.7 1.4 1.9 1.5 2.9.8 1.6-1 1.6-2.2-.2-4.1zm-30.9 87.1c-.8-4.2-1.8-6.5-3.4-7.2-1.5-.7-2.1-.7-3.6 0-2.1 1-3.2 7.1-2 11.7.8 2.9 2 4 4.7 4 4 0 5.3-2.6 4.3-8.5zM79 156.7c-.3-3.5-1.4-4.7-4.6-4.7-1.8 0-2.4.3-3.2 1.3s-1 2-1 4.5c0 2.8.2 3.4 1.3 4.4 2.1 2.2 6.1 1.4 7.3-1.3.1-.8.3-2.6.2-4.2zm60.5-117.5c-.9-.9-1.8-1.7-2-1.7-.2 0-.8.5-1.4 1.1-1.5 1.5-1.4 2 .7 3.9 1.7 1.4 1.9 1.5 2.9.8 1.6-1 1.6-2.2-.2-4.1zM79 156.7c-.3-3.5-1.4-4.7-4.6-4.7-1.8 0-2.4.3-3.2 1.3s-1 2-1 4.5c0 2.8.2 3.4 1.3 4.4 2.1 2.2 6.1 1.4 7.3-1.3.1-.8.3-2.6.2-4.2zm29.6-30.4c-.8-4.2-1.8-6.5-3.4-7.2-1.5-.7-2.1-.7-3.6 0-2.1 1-3.2 7.1-2 11.7.8 2.9 2 4 4.7 4 4 0 5.3-2.6 4.3-8.5zm30.9-87.1c-.9-.9-1.8-1.7-2-1.7-.2 0-.8.5-1.4 1.1-1.5 1.5-1.4 2 .7 3.9 1.7 1.4 1.9 1.5 2.9.8 1.6-1 1.6-2.2-.2-4.1zm-30.9 87.1c-.8-4.2-1.8-6.5-3.4-7.2-1.5-.7-2.1-.7-3.6 0-2.1 1-3.2 7.1-2 11.7.8 2.9 2 4 4.7 4 4 0 5.3-2.6 4.3-8.5zM79 156.7c-.3-3.5-1.4-4.7-4.6-4.7-1.8 0-2.4.3-3.2 1.3s-1 2-1 4.5c0 2.8.2 3.4 1.3 4.4 2.1 2.2 6.1 1.4 7.3-1.3.1-.8.3-2.6.2-4.2zm60.5-117.5c-.9-.9-1.8-1.7-2-1.7-.2 0-.8.5-1.4 1.1-1.5 1.5-1.4 2 .7 3.9 1.7 1.4 1.9 1.5 2.9.8 1.6-1 1.6-2.2-.2-4.1zM79 156.7c-.3-3.5-1.4-4.7-4.6-4.7-1.8 0-2.4.3-3.2 1.3s-1 2-1 4.5c0 2.8.2 3.4 1.3 4.4 2.1 2.2 6.1 1.4 7.3-1.3.1-.8.3-2.6.2-4.2zm29.6-30.4c-.8-4.2-1.8-6.5-3.4-7.2-1.5-.7-2.1-.7-3.6 0-2.1 1-3.2 7.1-2 11.7.8 2.9 2 4 4.7 4 4 0 5.3-2.6 4.3-8.5zm30.9-87.1c-.9-.9-1.8-1.7-2-1.7-.2 0-.8.5-1.4 1.1-1.5 1.5-1.4 2 .7 3.9 1.7 1.4 1.9 1.5 2.9.8 1.6-1 1.6-2.2-.2-4.1zm-30.9 87.1c-.8-4.2-1.8-6.5-3.4-7.2-1.5-.7-2.1-.7-3.6 0-2.1 1-3.2 7.1-2 11.7.8 2.9 2 4 4.7 4 4 0 5.3-2.6 4.3-8.5zM79 156.7c-.3-3.5-1.4-4.7-4.6-4.7-1.8 0-2.4.3-3.2 1.3s-1 2-1 4.5c0 2.8.2 3.4 1.3 4.4 2.1 2.2 6.1 1.4 7.3-1.3.1-.8.3-2.6.2-4.2zm60.5-117.5c-.9-.9-1.8-1.7-2-1.7-.2 0-.8.5-1.4 1.1-1.5 1.5-1.4 2 .7 3.9 1.7 1.4 1.9 1.5 2.9.8 1.6-1 1.6-2.2-.2-4.1zM100 5C47.5 5 5 47.5 5 100s42.5 95 95 95 95-42.5 95-95-42.5-95-95-95zm39 27.5c1.9 1.6 4.2 3.9 5.2 4.9 2.5 2.8 3.2 5.3 2.2 7.7-1.2 2.7-3.5 4-6.8 3.7-2.7-.2-2.7-.2-4 1.8-.8 1.2-1.9 2.8-2.5 3.7L132 56l-1.4-1.8-1.5-1.8 2-3.7c1.9-3.6 2.1-4.8.8-4.8-.3 0-1.8 1.2-3.2 2.6l-2.7 2.6-1.5-1.5-1.5-1.5 6.3-8.3 6.3-8.3 3.4 3zM136.3 96c.3.2 2.3 1.1 4.5 2 2.2.8 4.7 1.8 5.5 2.3.8.3 3.3 1.4 5.4 2.2 4.3 1.8 4.3 1.4 1.6 6.4-.9 1.8-1.6 2.6-2 2.4-.4-.1-4.4-2.5-8.9-5.3s-8.4-5-8.6-5-1.2 1-2 2.3l-1.6 2.3-2.5-2.1c-1.4-1.2-2.5-2.2-2.5-2.3 0-.1.9-1.7 2-3.5s2.5-4.5 3.1-6c1.2-3 .8-2.8 5.6-1.5 2.1.5 2.1.7 1 3.5-.6 1-.8 2.1-.6 2.3zM119 71.5c-2.2-6.7-3.4-9.5-3.9-9.4-.4.1-1.5 2.5-2.5 5.7-3 8.7-8.6 25.6-9.9 29.8-2 6.2-3.2 9.5-3.5 9.5-.1 0-3.6-10.1-7.8-22.5-4.3-12.9-7.7-22.5-8-22.5-.4 0-2 4.3-3.7 9.5-2.4 7.6-2.9 9.7-2.5 10.3.3.4 2.3 2 4.5 3.5 4 2.8 4.8 4.1 5.8 8.1.3 1.4.2 1.7-.3 1.5-1.3-.5-15.8-11-16.2-11.7-.2-.3.3-2.6 1.1-5 3.6-11.2 9.4-29.2 10-31.1.4-1.2.9-2 1.1-2 .3.1 1.6 3.8 3.1 8.2 4 12.3 7.4 22.8 9.7 30.2 2.2 6.8 2.8 8.2 3.5 7.8.2-.2 1.5-3.9 3-8.4 1.5-4.6 3.5-10.8 4.5-14 1-3.2 3.2-9.9 4.8-14.9 1.6-5 3-9.1 3.3-9.1.2 0 1.5 3.6 3 8.1 1.4 4.5 3 9.4 3.5 10.9 1.5 4.5 6 18.8 6 19.1s-15.2 11.3-16.2 11.7c-.8.3-.8.3.8-4.5.5-1.5 1.5-2.5 4.7-4.8 2.3-1.7 4.3-3.3 4.7-3.7.4-.6 0-2.5-2.6-10.3zM76.6 124l-4-2-2.8 4.5c-1.7 2.5-3.1 4.3-3.4 4.1-1.4-.8-6.3-4.8-6.3-5.1 0-.4 3.6-4.6 8.7-10 1.4-1.5 4.1-4.5 6-6.7 1.9-2.1 3.6-3.8 3.8-3.8.2 0 1 .5 1.8 1.1.8.6 1.5 1.2 1.7 1.3.1 0-1.1 2.1-2.7 4.5-3.2 4.9-3.4 4.2 1.4 6.8 1.4.8 2.6 1.2 2.8 1 .2-.2 1-2.1 2-4.3.8-2.2 1.8-4.2 2-4.4.5-.5 4 .7 4 1.4 0 .8-6.4 26.3-6.7 26.5-.4.5-7.8-2.5-7.8-3 0-.4.8-2.5 1.7-4.7 1-2.2 1.8-4.2 1.8-4.5s-1.8-1.6-4-2.7zm-25.1-9.7c-5-2.3-8.4-10-6.5-14.9 1.7-4.4 10.3-8 18.3-7.7 2.9.1 4.5.5 5.8 1.2 2.5 1.5 4 3.9 4 6.6 0 2.5-1.8 6.7-3.4 8.2-1 .9-1 .9-2.6-1-1.8-2.1-1.8-2.5-.8-3.8 1.1-1.5.9-3.2-.5-4.6-1.1-1.1-1.6-1.3-3.8-1-3.4.3-9 3.3-9.9 5-1.5 3 1 7.4 4 7.4 2 0 2.2-.8 1-2.7-.6-.9-1-1.9-1-2.2 0-.5 3.5-2.6 4.2-2.6.1 0 1.2 1.4 2.3 3.1 1.2 1.8 2.5 3.7 3.1 4.3 1.1 1.1 1.1 1.2.1 2-.5.5-3.1 2.9-5.8 5.3l-4.8 4.3-1.4-1.5c-1.2-1.3-1.4-1.6-.8-2.5.9-1.7.7-1.9-1.5-2.9zm64.2-94.7l1.9.7c1 .3 3.7 1.5 6 2.5 4.2 1.8 7.4 3.5 8.1 4.2.4.4-2 4.2-2.5 4-.2-.1-2.3-1.1-4.6-2.3-4-2-4.3-2.1-4.9-1.3-.4.5-.7 1.1-.7 1.5 0 .3 1.7 1.4 3.8 2.4 2.7 1.4 3.6 2 3.3 2.5-.3.4-.9 1.2-1.3 2L124 37l-3.5-1.8-3.5-1.8-.5 1.3c-.3.8-.5 1.5-.5 1.7 0 .2 1.5 1.2 3.3 2.1 1.8.9 3.4 1.9 3.5 2.1.3.5-1.8 3.9-2.3 3.9-.3 0-2.2-.9-4.4-2-2.2-1-4.4-2-5-2.2-.9-.2-1-.5-.5-1.9.3-.9 1.5-5.5 2.8-10.3l2.3-8.5zm-13.4-1.5c5.1.2 9.5.5 9.8.7s.2 1.5 0 2.8l-.5 2.4-2.1-.3c-1.1-.1-2.4-.3-2.8-.5-.3-.1-.8.1-.8.5-.2.5-1.8 13.8-1.8 15 0 .3-.8.4-1.8.3l-1.9-.1-.2-7.9-.2-8h-6.5v-1.7c0-1-.2-2.1-.3-2.6-.3-.8.3-.8 9.1-.6zm-16.6 1.6c2.3.2 3.1.5 4 1.4.6.6 1.3 1.7 1.5 2.3.3 1 .1 1.2-1.5 1.6-2.5.7-3 .7-4.4-.2-2-1.3-5.9.8-4.1 2.1.3.3 2.5.6 4.9.7 3.4.1 4.5.4 5.4 1.1 1.4 1.3 2.2 4.4 1.8 6.9-.7 3.7-5 6.5-9.2 5.8-1.8-.3-5-3-5-4.1 0-.3.9-.9 2-1.4 1.9-.8 2-.8 3 .2.9.9 1.2.9 2.7.3 1-.5 1.6-1 1.6-1.7 0-.8-.5-1-4.8-1.2-5.2-.3-6.6-.8-8-3.2-3.2-5.2 2.4-11.1 10.1-10.6zm-29 16.9l1.9-2.1 3.8 1.2 3.8 1.3-.3-3.1c-.2-1.7-.4-3.5-.5-4 0-.7.8-1.6 2.7-2.9 1.5-1 2.9-1.9 3-1.9s.5 3.3.7 7.3l.3 7.3 2.5 3.3 2.5 3.3-1.5 1.5-1.5 1.5-3.2-3-3.1-3-5.5-1.1c-3-.6-6.1-1.1-6.8-1.1-2.4-.1-2.3-.7 1.2-4.5zM43.6 60c1.2-3.9.6-3.8 7.7-2.7 2.8.4 5 .6 5.1.5.1-.1-1.8-1.7-4.3-3.6-2.5-1.9-4.5-3.8-4.5-4.1 0-.4 1-2.2 2.1-4.1 2.5-4 1.2-4.3 11.8 3.2 4.2 3 7.6 5.6 7.6 5.8 0 .2-.5 1-1.2 1.8l-1.1 1.5-3-1.6c-1.6-.9-3.9-2.2-5.1-2.9-1.2-.7-2.3-1.2-2.3-1-.1.1 2 1.9 4.5 3.9 4.3 3.3 4.7 3.8 4.5 5-.2.7-.5 1.3-.5 1.4-.1.2-2.2 0-4.7-.3-7.3-1-7.8-.7-1.9 1.1 3 1 5.5 1.8 5.6 1.9.1.1-.1.9-.3 1.8l-.5 1.5-4.4-1.1c-2.4-.5-7-1.4-10.3-2.1-4.4-.8-5.9-1.3-5.9-1.8.1-.4.5-2.3 1.1-4.1zm11.5 99.6v7.8c0 .4-.8.6-2.9.5l-2.9-.2-.2-7.7-.1-7.6h-6.5v-5l9.6.1 9.6.2.1 2.3.2 2.4h-7l.1 7.2zm19.5 8.4c-4.8 0-7.5-1.2-9.3-3.9-2.3-3.4-2.2-9.7.3-13.1 2.5-3.4 10.2-4.7 14.8-2.4 3.3 1.5 4.9 4.6 4.9 9.2 0 6.9-3.5 10.2-10.7 10.2zm32.8 0h-3.6l-2.2-3.8c-1.1-2-2.2-3.8-2.3-3.8-.2 0-1 .7-2 1.5-1.5 1.4-1.8 1.9-1.8 3.8v2.2h-3c-1.6 0-3.1-.2-3.3-.4-.1-.2-.1-4.8 0-10.3l.3-9.8h5.8v4.3c0 2.3.2 4.3.4 4.3s1.9-2 3.8-4.3l3.5-4.3h3.6c2 0 3.7.2 3.7.3 0 .2-1.5 2-3.3 4s-3.3 3.8-3.3 4.1 1.6 3 3.5 6.1c2 3.1 3.5 5.8 3.5 5.8.4.2-1.3.3-3.3.3zm-.1-27.1c-6 1.5-11.3-.6-13.8-5.5-.9-1.8-1-2.6-.8-6.6.3-5 1.4-8.7 3.9-12.5 2.1-3.1 3.5-3.8 7.1-3.7 2.6.2 3 .4 5.1 2.4 5.8 5.8 8.5 16.8 5.3 21.6-1.7 2.4-3.1 3.4-6.8 4.3zM132 168h-18v-20.5h17.5v5l-5.3-.1-5.4-.1v2.9l4.6.2 4.6.1v4.5h-9.5v3H132v5zm-11.4-37.6c-.6-1-1-1.8-1-2 0-.2 1.3-1 3-1.8 2.9-1.5 2.9-1.5 3.8-.5 1.2 1.3 1.9 1.3 4.3-.1 2.3-1.3 3-3 1.8-4.3-.7-.8-1-.7-4.2.3-3.8 1.2-6.9 1.4-8.8.6-1.8-.8-3.7-4-4.3-6.9-1.5-7 4.5-12 10.8-9.1 3.3 1.4 3.5 2.1 1.5 4-1.4 1.4-1.8 1.5-2.7 1.1-2.3-1.3-4.8.2-4.5 2.5.3 1.7 2.7 1.8 7.3.2 5.5-1.9 8.5-1 11.6 3.3 3.4 4.8.8 10.5-6.7 14.4-5 2.5-9.7 1.8-11.9-1.7zm35.5 37.1c0 .3-1.3.5-2.6.5h-2.7l2.3-2c2.5-2.2 3.2-2.3 3.2-.3-.1.7-.1 1.5-.2 1.8zm-.7-5.7c-.8 1-5.5 4.7-6 4.7-.2 0-1.8-1.8-3.7-4-1.9-2.2-3.6-4-3.8-4-.2 0-.4 2.2-.4 4.8v4.8H136v-20.5h5.4l4.1 4.8c2.3 2.6 4.2 4.7 4.3 4.5.2-.1.3-2.2.4-4.6l.1-4.5 2.9-.2 2.8-.1.2 6.6c.1 5.7 0 6.7-.8 7.7zm1.9-96.9c-.1.2-3.3-.3-6.8-1.1l-6.6-1.4-3.7 1c-2 .6-3.8 1.1-4 1.1-.3 0-.7-.8-1-1.7l-.5-1.8 3.7-1.6c3.7-1.6 3.8-1.8 6.7-6.1 1.6-2.5 3.3-5.3 3.8-6.3 1-1.9 1.2-1.8 3.2 1.9l1.5 2.8-2.5 3.1c-2.7 3.4-2.8 3.7-1.6 3.7.4 0 2.2.3 3.9.5l3.1.5.6 2.5c.2 1.5.4 2.7.2 2.9zm-20.5-22.4c1.7 1.4 1.9 1.5 2.9.8 1.6-1.1 1.6-2.3-.2-4.2-.9-.9-1.8-1.7-2-1.7-.2 0-.8.5-1.4 1.1-1.4 1.7-1.3 2.2.7 4zm-31.6 76.6c-1.5-.7-2.1-.7-3.6 0-2.1 1-3.2 7.1-2 11.7.8 2.9 2 4 4.7 4 4 0 5.3-2.6 4.3-8.5-.7-4.2-1.8-6.5-3.4-7.2zM74.3 152c-1.8 0-2.4.3-3.2 1.3s-1 2-1 4.5c0 2.8.2 3.4 1.3 4.4 2.1 2.2 6.1 1.4 7.3-1.3.3-.9.4-2.7.3-4.3-.3-3.4-1.5-4.6-4.7-4.6zm65.2-112.8c-.9-.9-1.8-1.7-2-1.7-.2 0-.8.5-1.4 1.1-1.5 1.5-1.4 2 .7 3.9 1.7 1.4 1.9 1.5 2.9.8 1.6-1 1.6-2.2-.2-4.1zM79 156.7c-.3-3.5-1.4-4.7-4.6-4.7-1.8 0-2.4.3-3.2 1.3s-1 2-1 4.5c0 2.8.2 3.4 1.3 4.4 2.1 2.2 6.1 1.4 7.3-1.3.1-.8.3-2.6.2-4.2zm29.6-30.4c-.8-4.2-1.8-6.5-3.4-7.2-1.5-.7-2.1-.7-3.6 0-2.1 1-3.2 7.1-2 11.7.8 2.9 2 4 4.7 4 4 0 5.3-2.6 4.3-8.5zm30.9-87.1c-.9-.9-1.8-1.7-2-1.7-.2 0-.8.5-1.4 1.1-1.5 1.5-1.4 2 .7 3.9 1.7 1.4 1.9 1.5 2.9.8 1.6-1 1.6-2.2-.2-4.1zm-30.9 87.1c-.8-4.2-1.8-6.5-3.4-7.2-1.5-.7-2.1-.7-3.6 0-2.1 1-3.2 7.1-2 11.7.8 2.9 2 4 4.7 4 4 0 5.3-2.6 4.3-8.5zM79 156.7c-.3-3.5-1.4-4.7-4.6-4.7-1.8 0-2.4.3-3.2 1.3s-1 2-1 4.5c0 2.8.2 3.4 1.3 4.4 2.1 2.2 6.1 1.4 7.3-1.3.1-.8.3-2.6.2-4.2zm60.5-117.5c-.9-.9-1.8-1.7-2-1.7-.2 0-.8.5-1.4 1.1-1.5 1.5-1.4 2 .7 3.9 1.7 1.4 1.9 1.5 2.9.8 1.6-1 1.6-2.2-.2-4.1zM79 156.7c-.3-3.5-1.4-4.7-4.6-4.7-1.8 0-2.4.3-3.2 1.3s-1 2-1 4.5c0 2.8.2 3.4 1.3 4.4 2.1 2.2 6.1 1.4 7.3-1.3.1-.8.3-2.6.2-4.2zm29.6-30.4c-.8-4.2-1.8-6.5-3.4-7.2-1.5-.7-2.1-.7-3.6 0-2.1 1-3.2 7.1-2 11.7.8 2.9 2 4 4.7 4 4 0 5.3-2.6 4.3-8.5zm30.9-87.1c-.9-.9-1.8-1.7-2-1.7-.2 0-.8.5-1.4 1.1-1.5 1.5-1.4 2 .7 3.9 1.7 1.4 1.9 1.5 2.9.8 1.6-1 1.6-2.2-.2-4.1zm-30.9 87.1c-.8-4.2-1.8-6.5-3.4-7.2-1.5-.7-2.1-.7-3.6 0-2.1 1-3.2 7.1-2 11.7.8 2.9 2 4 4.7 4 4 0 5.3-2.6 4.3-8.5zM79 156.7c-.3-3.5-1.4-4.7-4.6-4.7-1.8 0-2.4.3-3.2 1.3s-1 2-1 4.5c0 2.8.2 3.4 1.3 4.4 2.1 2.2 6.1 1.4 7.3-1.3.1-.8.3-2.6.2-4.2zm0 0c-.3-3.5-1.4-4.7-4.6-4.7-1.8 0-2.4.3-3.2 1.3s-1 2-1 4.5c0 2.8.2 3.4 1.3 4.4 2.1 2.2 6.1 1.4 7.3-1.3.1-.8.3-2.6.2-4.2zm29.6-30.4c-.8-4.2-1.8-6.5-3.4-7.2-1.5-.7-2.1-.7-3.6 0-2.1 1-3.2 7.1-2 11.7.8 2.9 2 4 4.7 4 4 0 5.3-2.6 4.3-8.5zm0 0c-.8-4.2-1.8-6.5-3.4-7.2-1.5-.7-2.1-.7-3.6 0-2.1 1-3.2 7.1-2 11.7.8 2.9 2 4 4.7 4 4 0 5.3-2.6 4.3-8.5zM79 156.7c-.3-3.5-1.4-4.7-4.6-4.7-1.8 0-2.4.3-3.2 1.3s-1 2-1 4.5c0 2.8.2 3.4 1.3 4.4 2.1 2.2 6.1 1.4 7.3-1.3.1-.8.3-2.6.2-4.2zm0 0c-.3-3.5-1.4-4.7-4.6-4.7-1.8 0-2.4.3-3.2 1.3s-1 2-1 4.5c0 2.8.2 3.4 1.3 4.4 2.1 2.2 6.1 1.4 7.3-1.3.1-.8.3-2.6.2-4.2zm29.6-30.4c-.8-4.2-1.8-6.5-3.4-7.2-1.5-.7-2.1-.7-3.6 0-2.1 1-3.2 7.1-2 11.7.8 2.9 2 4 4.7 4 4 0 5.3-2.6 4.3-8.5zm0 0c-.8-4.2-1.8-6.5-3.4-7.2-1.5-.7-2.1-.7-3.6 0-2.1 1-3.2 7.1-2 11.7.8 2.9 2 4 4.7 4 4 0 5.3-2.6 4.3-8.5zM79 156.7c-.3-3.5-1.4-4.7-4.6-4.7-1.8 0-2.4.3-3.2 1.3s-1 2-1 4.5c0 2.8.2 3.4 1.3 4.4 2.1 2.2 6.1 1.4 7.3-1.3.1-.8.3-2.6.2-4.2zm0 0c-.3-3.5-1.4-4.7-4.6-4.7-1.8 0-2.4.3-3.2 1.3s-1 2-1 4.5c0 2.8.2 3.4 1.3 4.4 2.1 2.2 6.1 1.4 7.3-1.3.1-.8.3-2.6.2-4.2zm29.6-30.4c-.8-4.2-1.8-6.5-3.4-7.2-1.5-.7-2.1-.7-3.6 0-2.1 1-3.2 7.1-2 11.7.8 2.9 2 4 4.7 4 4 0 5.3-2.6 4.3-8.5zm0 0c-.8-4.2-1.8-6.5-3.4-7.2-1.5-.7-2.1-.7-3.6 0-2.1 1-3.2 7.1-2 11.7.8 2.9 2 4 4.7 4 4 0 5.3-2.6 4.3-8.5zM79 156.7c-.3-3.5-1.4-4.7-4.6-4.7-1.8 0-2.4.3-3.2 1.3s-1 2-1 4.5c0 2.8.2 3.4 1.3 4.4 2.1 2.2 6.1 1.4 7.3-1.3.1-.8.3-2.6.2-4.2zm29.6-30.4c-.8-4.2-1.8-6.5-3.4-7.2-1.5-.7-2.1-.7-3.6 0-2.1 1-3.2 7.1-2 11.7.8 2.9 2 4 4.7 4 4 0 5.3-2.6 4.3-8.5zm0 0c-.8-4.2-1.8-6.5-3.4-7.2-1.5-.7-2.1-.7-3.6 0-2.1 1-3.2 7.1-2 11.7.8 2.9 2 4 4.7 4 4 0 5.3-2.6 4.3-8.5zm0 0c-.8-4.2-1.8-6.5-3.4-7.2-1.5-.7-2.1-.7-3.6 0-2.1 1-3.2 7.1-2 11.7.8 2.9 2 4 4.7 4 4 0 5.3-2.6 4.3-8.5zm0 0c-.8-4.2-1.8-6.5-3.4-7.2-1.5-.7-2.1-.7-3.6 0-2.1 1-3.2 7.1-2 11.7.8 2.9 2 4 4.7 4 4 0 5.3-2.6 4.3-8.5zm0 0c-.8-4.2-1.8-6.5-3.4-7.2-1.5-.7-2.1-.7-3.6 0-2.1 1-3.2 7.1-2 11.7.8 2.9 2 4 4.7 4 4 0 5.3-2.6 4.3-8.5zm0 0c-.8-4.2-1.8-6.5-3.4-7.2-1.5-.7-2.1-.7-3.6 0-2.1 1-3.2 7.1-2 11.7.8 2.9 2 4 4.7 4 4 0 5.3-2.6 4.3-8.5z"/></svg>