<?xml version="1.0" encoding="utf-8"?>
<!-- Generator: Adobe Illustrator 22.1.0, SVG Export Plug-In . SVG Version: 6.00 Build 0)  -->
<svg version="1.1" id="Livello_1" xmlns="http://www.w3.org/2000/svg" xmlns:xlink="http://www.w3.org/1999/xlink" x="0px" y="0px"
	 viewBox="0 0 200 200" style="enable-background:new 0 0 200 200;" xml:space="preserve">
<style type="text/css">
	.st0{fill:url(#SVGID_1_);fill-opacity:0.451;}
	.st1{fill:#0093DD;fill-opacity:0.451;}
	.st2{fill:#9900CC;fill-opacity:0.451;}
	.st3{fill:#FFFFFF;}
	.st4{fill:#28166F;}
</style>
<linearGradient id="SVGID_1_" gradientUnits="userSpaceOnUse" x1="14766.4326" y1="-14472.7842" x2="5647.0107" y2="-11052.998" gradientTransform="matrix(2.903434e-02 0 0 -2.903434e-02 -199.4082 -280.6365)">
	<stop  offset="0" style="stop-color:#0093DD"/>
	<stop  offset="1" style="stop-color:#00923F"/>
</linearGradient>
<path class="st0" d="M5.7,77.6C8.3,64.4,56.9,8.4,123.7,9.1c45.9,0.5,48.1,36.6,44.5,76.1c-2.1,22.8,28,44,3.6,77.9
	c-30.6,42.4-81.2,33.7-105-8.5C49.4,124-1.8,107.8,5.7,77.6L5.7,77.6z"/>
<path class="st1" d="M74.7,26.9c44.4-2.7,59.4-1.2,89,33.8c47.2,55.8,39.1,124.6-48.5,124.6c-40.5,0-45.1-2.6-73-28.5
	C5.3,114.3-10.1,23.4,74.7,26.9L74.7,26.9z"/>
<path class="st2" d="M87.6,37.1C77.2,43.6,52.8,42,39.8,60.8c-16.5,24.1-31.2,72.2-6,97.3c22.8,22.8,61.1,0,93.4,0
	c22.5,0,65-1.7,65-30.2c0-34.2,12.3-60.2-15.2-87.7C149.5,12.7,98,30.7,87.6,37.1L87.6,37.1z"/>
<circle class="st3" cx="102.3" cy="100.3" r="60.7"/>
<path id="_88784368" class="st4" d="M100.5,52.1c-9.5,8.6-27.3,18.3-37,19c-1.4,0.1-2.5,1.2-2.5,2.7c-0.6,17.8,9.3,59.4,40.1,75.2
	c0.8,0.4,1.7,0.4,2.5,0c30.8-15.8,40.7-57.4,40.1-75.2c0-1.4-1.1-2.5-2.5-2.7c-9.6-0.7-27.4-10.5-37-19
	C103.1,51.1,101.5,51.1,100.5,52.1L100.5,52.1z"/>
<path id="_88784296" class="st3" d="M100.9,62.8C93.5,69.4,79.6,77,72.1,77.6c-1.1,0.1-1.9,1-2,2.1c-0.5,13.9,7.2,46.2,31.2,58.5
	c0.6,0.3,1.3,0.3,2,0c23.9-12.3,31.7-44.7,31.2-58.5c0-1.1-0.9-2-2-2.1c-7.5-0.6-21.3-8.1-28.8-14.8
	C102.9,62.1,101.7,62.1,100.9,62.8L100.9,62.8z"/>
<path id="_69718104" class="st4" d="M102.3,74.2c7.5,0,13.5,6.1,13.5,13.5v4.4h0.8c1.4,0,2.6,1.2,2.6,2.6v20.5
	c0,1.4-1.2,2.6-2.6,2.6H88c-1.4,0-2.6-1.2-2.6-2.6V94.7c0-1.4,1.2-2.6,2.6-2.6h0.8v-4.4C88.8,80.3,94.8,74.2,102.3,74.2L102.3,74.2z
	 M102.3,97.4c2.2,0,4,1.8,4,4c0,1.1-0.4,2-1.1,2.8v4c0,2.2-1.3,4-2.9,4l0,0c-1.6,0-2.9-1.8-2.9-4v-4c-0.7-0.7-1.1-1.7-1.1-2.8
	C98.3,99.2,100.1,97.4,102.3,97.4L102.3,97.4z M93.9,92.1h16.9v-4.4c0-4.7-3.8-8.4-8.4-8.4s-8.4,3.8-8.4,8.4
	C93.9,87.8,93.9,92.1,93.9,92.1z"/>
</svg>
