<?xml version="1.0" encoding="utf-8"?>
<!-- Generator: Adobe Illustrator 22.1.0, SVG Export Plug-In . SVG Version: 6.00 Build 0)  -->
<svg version="1.0" id="Livello_1" xmlns="http://www.w3.org/2000/svg" xmlns:xlink="http://www.w3.org/1999/xlink" x="0px" y="0px"
	 viewBox="0 0 200 200" style="enable-background:new 0 0 200 200;" xml:space="preserve">
<style type="text/css">
	.st0{fill:#1E0E2B;}
	.st1{fill:#5100FF;}
</style>
<g>
	<path class="st0" d="M100,106.5c-1,1-2.1,1.9-3.1,2.8c-9.3,8.5-18.6,17-27.8,25.5c-0.2,0.2-0.5,0.3-0.8,0.3c-21.7,0-43.5,0-65.2,0
		c-0.2,0-0.3,0-0.5,0c0-0.2,0-0.4,0-0.5c0-2.9,0-5.7,0-8.6c0-0.4,0.1-0.7,0.4-0.9c4.9-4.5,9.8-8.9,14.7-13.4
		C28.3,101.8,39,92,49.7,82.3C56,76.5,62.3,70.8,68.6,65c0.1,0,0.1-0.1,0.2-0.2c10.4,9.5,20.8,18.9,31.2,28.4
		c10.4-9.5,20.8-18.9,31.2-28.4c0.2,0.2,0.4,0.3,0.5,0.5c10.2,9.4,20.5,18.7,30.7,28.1c10.2,9.4,20.5,18.7,30.7,28.1
		c1.4,1.2,2.7,2.5,4.1,3.7c0.1,0.1,0.2,0.3,0.2,0.4c0,3.1,0,6.1,0,9.2c0,0.1,0,0.1,0,0.2c-0.2,0-0.4,0-0.6,0c-21.6,0-43.3,0-64.9,0
		c-0.5,0-0.8-0.1-1.2-0.5c-10.2-9.3-20.4-18.7-30.5-28C100.1,106.6,100.1,106.6,100,106.5z M107.2,99.8c0.2,0.1,0.3,0.2,0.4,0.3
		c3.5,3.2,7.1,6.5,10.6,9.7c5.6,5.1,11.2,10.2,16.8,15.3c0.2,0.2,0.4,0.3,0.7,0.3c15.7,0,31.3,0,47,0c0.1,0,0.3,0,0.5,0
		c-17.4-15.9-34.7-31.7-52-47.6C123.2,85.2,115.2,92.5,107.2,99.8z M68.7,77.9c-17.3,15.9-34.6,31.7-51.9,47.5c0,0,0,0.1,0,0.1
		c0.2,0,0.4,0,0.6,0c14,0,27.9,0,41.9,0c1.6,0,3.3,0,4.9,0c0.2,0,0.5-0.1,0.7-0.3c1.3-1.2,2.6-2.3,3.9-3.5
		c7.2-6.6,14.5-13.2,21.7-19.8c0.8-0.7,1.5-1.4,2.3-2.1C84.7,92.5,76.8,85.2,68.7,77.9z"/>
</g>
<polygon class="st1" points="16.9,125.5 2.6,125.5 2.5,135.1 69.1,134.8 100.2,106.7 131.2,77.8 183.2,125.4 197.3,125.3 
	131.2,64.9 64.2,125.5 "/>
</svg>
