<?xml version="1.0" encoding="utf-8"?>
<!-- Generator: Adobe Illustrator 22.1.0, SVG Export Plug-In . SVG Version: 6.00 Build 0)  -->
<svg version="1.0" id="Livello_1" xmlns="http://www.w3.org/2000/svg" xmlns:xlink="http://www.w3.org/1999/xlink" x="0px" y="0px"
	 viewBox="0 0 200 200" style="enable-background:new 0 0 200 200;" xml:space="preserve">
<style type="text/css">
	.st0{fill:#292929;}
	.st1{fill:#EBE6E3;}
</style>
<path class="st0" d="M196,36.4c-0.5-1.8-1.1-3.5-1.8-5.2c-0.9-2.2-2-4.4-3.3-6.4c-3.1-5-7.2-9.3-12-12.7c-2.5-1.8-5.3-3.3-8.2-4.5
	c-0.6-0.2-1.2-0.4-1.7-0.6c-1.2-0.4-2.4-0.8-3.7-1.2c-2-0.5-4-0.9-6.1-1.1c-1-0.1-2-0.2-3-0.2h-1.8c-0.5,0-1,0-1.5,0
	c-0.6,0-1.2,0.1-1.8,0.1c-2,0.2-4.1,0.5-6,1c-2,0.5-4,1.1-5.9,1.9c-1.3,0.5-2.5,1.1-3.8,1.8c-0.8,0.4-1.6,0.9-2.4,1.4
	c-0.2,0.1-0.4,0.2-0.6,0.4c-0.8,0.5-1.6,1-2.3,1.6c-0.4,0.3-0.9,0.6-1.3,1c-0.8,0.6-1.6,1.3-2.4,2c-0.3,0.3-0.6,0.6-1,0.9
	c-0.1,0.1-0.2,0.3-0.4,0.4c-1.2,1.2-2.3,2.4-3.5,3.6v0.1l-91.6,93.4v53.2L2.5,195.4H18l19.7-20.1h52.5L182.6,81
	c0.4-0.4,0.8-0.8,1.2-1.1c0.4-0.4,0.8-0.8,1.2-1.2l0.1-0.1c0.4-0.4,0.8-0.8,1.1-1.2c1-1.2,2-2.3,2.9-3.6c0.8-1,1.5-2.2,2.2-3.3
	c1.1-1.8,2-3.7,2.8-5.6c0.8-2,1.5-4.1,2-6.3c0.7-2.9,1.1-5.8,1.2-8.8C197.7,45.3,197.1,40.7,196,36.4z M102.3,56.8l21.1-21.6V72
	l-21.1,21.5V56.8z M70.8,88.9L91.3,68v36.8l-20.6,21V88.9z M41.5,118.9l18.4-18.7V137l-18.4,18.7V118.9z M85.4,163.8H49.1L67.4,145
	h36.4L85.4,163.8z M114.8,133.8H78.4l20.8-21.2h36.4L114.8,133.8z M146.5,101.4h-36.4l21.1-21.6h36.4L146.5,101.4z M185.9,51.4
	c-0.2,2-0.6,3.9-1.2,5.9c-0.6,1.8-1.2,3.6-2.1,5.3c-1.1,2.2-2.4,4.3-4,6.2h-36.4l20.6-21.1c0.8-1,1.1-1.2,1.4-2.5
	c0.1-0.5,0.2-1,0.2-1.4c0-1-0.2-2-0.7-2.8c-0.2-0.4-0.6-0.8-0.9-1.2c-0.9-0.9-1.3-1-2.5-1.4c-0.5-0.1-1-0.1-1.4-0.2
	c-1.3,0.2-1.6,0.1-2.7,0.7c-0.4,0.2-0.8,0.6-1.2,0.9l-20.7,21.1V24c0.1-0.1,0.2-0.2,0.2-0.2c1-0.9,2.1-1.7,3.2-2.5
	c1.5-1,3.1-1.9,4.7-2.6c1.6-0.7,3.3-1.3,5-1.7c1.6-0.4,3.2-0.7,4.8-0.8c0.6,0,1.2-0.1,1.7-0.1h2.2c0.7,0,1.4,0.1,2,0.2
	c2.3,0.3,4.6,0.8,6.8,1.6c2.6,0.9,5.1,2.2,7.3,3.7c2.7,1.9,5.2,4.3,7.2,6.9c1,1.4,1.9,2.8,2.7,4.3c1.4,2.6,2.4,5.4,3,8.3
	C186.1,44.5,186.3,48,185.9,51.4z"/>
<polygon class="st1" points="85.5,163.9 48.8,163.9 67.3,144.9 104.1,144.9 "/>
<polygon class="st1" points="114.8,133.8 78.4,133.8 98.9,112.5 135.7,112.5 "/>
<polygon class="st1" points="146.5,101.4 110.1,101.4 131.1,79.7 167.8,79.7 "/>
<path class="st1" d="M162.8,39.7L177,25.5c0,0,20.6,18.9,1.7,43.2h-36.4l20.6-21.1C162.8,47.6,166.4,44,162.8,39.7z"/>
</svg>
