<svg xmlns="http://www.w3.org/2000/svg" viewBox="0 0 200 200"><linearGradient id="a" x1="5" x2="195" y1="100.0002" y2="100.0002" gradientUnits="userSpaceOnUse"><stop offset="0" stop-color="#e2348b"/><stop offset=".31" stop-color="#ef7c47"/><stop offset="1" stop-color="#fecc18"/></linearGradient><path fill="url(#a)" d="M171.6 185.7c-1.2 0-2.5-.5-3.4-1.4L150.9 167h-110C21.1 167 5 150.9 5 131.1V87.6C5 69.4 18.6 54.3 36.1 52v-1.8c0-19.8 16.1-35.9 35.9-35.9h87.1c19.8 0 35.9 16.1 35.9 35.9v56c0 2.6-2.1 4.8-4.8 4.8s-4.8-2.1-4.8-4.8v-56c0-14.5-11.8-26.4-26.4-26.4H72c-14.5 0-26.4 11.8-26.4 26.4V100c0 14.5 11.8 26.4 26.4 26.4h99.6c2.6 0 4.8 2.1 4.8 4.8V181c0 1.9-1.2 3.7-2.9 4.4-.7.1-1.3.3-1.9.3zM36.1 61.6c-12.3 2.2-21.6 13-21.6 25.9v43.6c0 14.5 11.8 26.4 26.4 26.4h112c1.3 0 2.5.5 3.4 1.4l10.6 10.6v-33.6H72c-19.8 0-35.9-16.1-35.9-35.9V61.6z"/><linearGradient id="b" x1="5.7818" x2="195.1091" y1="78.1667" y2="78.1667" gradientUnits="userSpaceOnUse"><stop offset="0" stop-color="#e2348b"/><stop offset=".31" stop-color="#ef7c47"/><stop offset="1" stop-color="#fecc18"/></linearGradient><circle cx="74.5" cy="78.2" r="8.5" fill="url(#b)"/><linearGradient id="c" x1="9.1545" x2="195.4028" y1="78.1667" y2="78.1667" gradientUnits="userSpaceOnUse"><stop offset="0" stop-color="#e2348b"/><stop offset=".31" stop-color="#ef7c47"/><stop offset="1" stop-color="#fecc18"/></linearGradient><path fill="url(#c)" d="M140.5 50.7v41.6c0 4.1-3.3 7.4-7.4 7.4h-1.2c-4.1 0-7.4-3.3-7.4-7.4V57.5c0-2.7-2.2-4.8-4.8-4.8h-5.2v39.6c0 4.1-3.3 7.4-7.4 7.4h-1.2c-4.1 0-7.4-3.3-7.4-7.4V50.7h-14l1.6 1.7c1.5 1.5 2.4 3.6 2.4 5.8v32.1c0 8.5 6.9 15.5 15.5 15.5h5.1c4 0 7.7-1.6 10.5-4.1 2.8 2.5 6.4 4.1 10.5 4.1h5.1c8.5 0 15.5-6.9 15.5-15.5V58.1c0-2.2.8-4.2 2.4-5.8l1.6-1.7h-14.2z"/><linearGradient id="d" x1="5.3091" x2="195.4126" y1="78.1667" y2="78.1667" gradientUnits="userSpaceOnUse"><stop offset="0" stop-color="#e2348b"/><stop offset=".31" stop-color="#ef7c47"/><stop offset="1" stop-color="#fecc18"/></linearGradient><circle cx="164.5" cy="78.2" r="8.5" fill="url(#d)"/><linearGradient id="e" x1="9.1273" x2="195.3755" y1="78.1636" y2="78.1636" gradientUnits="userSpaceOnUse"><stop offset="0" stop-color="#e2348b"/><stop offset=".31" stop-color="#ef7c47"/><stop offset="1" stop-color="#fecc18"/></linearGradient><path fill="url(#e)" d="M140.5 50.7v41.6c0 4.1-3.3 7.4-7.4 7.4h-1.2c-4.1 0-7.4-3.3-7.4-7.4V57.5c0-2.7-2.2-4.8-4.8-4.8h-5.2v39.6c0 4.1-3.3 7.4-7.4 7.4h-1.2c-4.1 0-7.4-3.3-7.4-7.4V50.7h-14l1.6 1.7c1.5 1.5 2.4 3.6 2.4 5.8v32.1c0 8.5 6.9 15.5 15.5 15.5h5.1c4 0 7.7-1.6 10.5-4.1 2.8 2.5 6.4 4.1 10.5 4.1h5.1c8.5 0 15.5-6.9 15.5-15.5V58.1c0-2.2.8-4.2 2.4-5.8l1.6-1.7h-14.2z"/></svg>