<svg xmlns="http://www.w3.org/2000/svg" viewBox="0 0 200 200"><path d="M94.6 5.9c-5.3.5-8 1.2-11.6 3-4.8 2.5-14.4 9.4-17.1 12.5l-1.6 1.7 5.2 10.4 5.2 10.4 20 .5 20 .4 2.3-2.7c10.6-12.7 17.4-20.9 17.4-21.5 0-1-9.9-10.5-13.8-13.3C117.3 5 117 4.9 109.4 5c-4.3.1-10.9.5-14.8.9zm19.2 8.2c2.5 2.5 4.4 4.8 4.4 5.1s-2.5 3.2-5.6 6.6l-5.6 6-10.8.1H85.3l-3-5.2c-1.7-2.9-3.2-5.6-3.3-6-.2-.5 2.3-2.9 5.4-5.4 6.2-4.9 7.5-5.3 19.6-5.6l5.5-.1 4.3 4.5zm21.5 13.1c-5.7 6.7-13.7 16.8-15 19.1-.4.6 1.9 5.5 5.9 12.3 3.6 6.3 8 14.3 9.9 17.7l3.4 6.3s38.6 4 39 4c.8 0 10-18.6 12-24.5l1.3-3.8-4.6-7.3c-5.6-8.9-13.7-19.7-15.5-20.7-2.2-1.2-16.3-4.7-24.7-6.2l-7.9-1.5-3.8 4.6zm32.4 11.1s10.6 16.6 10.6 17c0 .5-7.9 15.4-7.9 15.4L149.2 68s-11-18.9-11-19.4 9.9-14.2 9.9-14.2l19.6 3.9zM52.4 26.9c-10.7 3.3-15.7 6.3-21.3 12.7-2.8 3.2-14.2 19.7-14.2 19.7l.4 9.6c.2 5.3.7 10.3 1 11.1.6 1.5-1.2 1.5 21.9 0l7.3-.5 5.4-8.3c3-4.5 8.1-11.8 11.4-16.3 3.2-4.4 5.9-8.3 5.9-8.5-.2-1.8-10-21.2-10.9-21.4-.5.2-3.6.9-6.9 1.9zm-.3 14.4c1.1 2.9 2 5.9 2 6.5 0 .6-9 13.7-10 15.2-1.7 2.5-2.4 2.8-6.2 3.2-2.4.3-11.5 1.5-11.5 1.5l-.8-3.9c-1.7-7.8-1.3-9 4.4-16.7 5.1-6.8 5.3-7 11-9 8.6-3.2 8.7-3.2 11.1 3.2zm22 7.7l-5.2 7.1C66 60 60.8 67.4 57.3 72.7L51 82.1l3 7.2c1.6 3.9 5.3 12.2 8.3 18.4l5.2 11.3 3.2.5c5.5.7 39.4 2.5 40.1 2.1.3-.2 2.5-3.3 4.9-7 2.3-3.6 7.5-11.6 11.5-17.7 3.9-6 7.2-11.3 7.2-11.8 0-.9-8.6-17-15.3-28.7l-4.4-7.5-40.6.1zm30.6 14.8L115.3 84l-13.5 20.3-24.2-1.5L67.9 82l13.4-19.2 23.4 1zM20.5 85.9c-2.3.1-2.6.5-5.9 7.9-1.9 4.4-8.3 22.8-8.3 22.8s6.6 21.6 8.1 25.2c2.5 6.1 2.8 6.4 6.2 7.6 1.9.8 8.1 2.2 13.7 3.4 8.4 1.6 10.3 1.9 10.9 1 .3-.6 4-7.2 8.2-14.7 4.2-7.5 8.2-14.4 8.8-15.4 1.2-1.7.9-2.3-2.7-10.3-2.2-4.7-5.9-13-8.3-18.5-3.3-7.8-4.6-10-5.9-10.1-.9-.1-23.5 1-24.8 1.1zM38 101.4c.4.6 2.4 5.2 4.5 10.3l3.9 9-3.2 6c-1.7 3.2-3.9 7.4-4.9 9.1l-1.8 3.2s-15.2-3-15.6-3.4c-.5-.5-6.8-17.8-6.8-17.8l7.7-18 7.8.2c5.9.2 7.9.5 8.4 1.4zm89.4 5.1l-11.9 18.4 9.6 18.8 9.5 18.8H153c10.4 0 19.1-.3 19.8-.8 2.3-1.2 20.9-31.3 20.9-33.8 0-2.2-13.4-34-14.9-35.3-.8-.8-17.4-2.8-32.9-3.9l-6.6-.5-11.9 18.3zm43 .5l3.9 8.7c2.2 4.9 4.2 9.6 4.4 10.6.4 1.4-.6 3.6-3.9 9.1-2.4 4-7.3 11.5-7.3 11.5h-21.9l-10.5-21 13.3-20.8 22 1.9zM59.8 137.8c-4.3 7.3-8.6 14.9-9.5 16.8l-1.7 3.5 4.5 7.7c2.4 4.2 6.9 11.6 10 16.3l5.6 8.5 9.2 1.3c5 .7 13.7 1.7 19.2 2.2l10 .9 2.6-3c1.4-1.7 6.6-8.3 11.6-14.9l9-12-9.6-18.7-9.6-18.8-3.9-.4c-2.1-.2-10.3-.8-18.1-1.2-7.9-.5-15.9-1-17.8-1.2l-3.5-.4-8 13.4zm37.9 5.7c2.1.4 2.9 1.5 7.6 10.2 2.9 5.4 5.3 10.1 5.3 10.4.1 1.5-12 17.5-13.2 17.5-1.7 0-21.1-2.3-21.3-2.5-.5-.5-9.6-15.8-10.3-17.3-.8-1.5-.2-2.8 4.7-10.7l5.6-9s20.4 1.2 21.6 1.4z"/></svg>