<svg xmlns="http://www.w3.org/2000/svg" version="1" viewBox="0 0 200 200"><linearGradient id="a" x1="43.2759" x2="180.8106" y1="111.8774" y2="191.2831" gradientUnits="userSpaceOnUse"><stop offset="0" stop-color="#2f97f3"/><stop offset=".65" stop-color="#1e272d"/><stop offset="1" stop-color="#0947a0"/></linearGradient><path fill="url(#a)" d="M184.9 184.2H10.2c-2.8 0-5-2.2-5-5s2.2-5 5-5h157L101.4 64.1c-1.4-2.4-.7-5.4 1.7-6.9 2.4-1.4 5.4-.7 6.9 1.7l74.9 125.3z"/><linearGradient id="b" x1="69.4078" x2="202.6486" y1="81.5116" y2="158.4382" gradientUnits="userSpaceOnUse"><stop offset="0" stop-color="#2f97f3"/><stop offset=".65" stop-color="#1e272d"/><stop offset="1" stop-color="#0947a0"/></linearGradient><path fill="url(#b)" d="M190 175.3c-1.7 0-3.4-.9-4.3-2.5l-78.5-136-61 112.2c-1.3 2.4-4.4 3.3-6.8 2-2.4-1.3-3.3-4.4-2-6.8L107 16.4l87.4 151.3c1.4 2.4.6 5.4-1.8 6.8-.9.5-1.7.8-2.6.8z"/><linearGradient id="c" x1="47.3919" x2="156.2412" y1="90.121" y2="152.9652" gradientUnits="userSpaceOnUse"><stop offset="0" stop-color="#2f97f3"/><stop offset=".65" stop-color="#1e272d"/><stop offset="1" stop-color="#0947a0"/></linearGradient><path fill="url(#c)" d="M145.2 167.1H5L88.8 18.4c1.4-2.4 4.4-3.3 6.8-1.9s3.3 4.4 1.9 6.8L22.1 157.1h123.1c2.8 0 5 2.2 5 5 0 2.7-2.2 5-5 5z"/><linearGradient id="d" x1="72.4048" x2="142.9453" y1="111.1754" y2="151.9019" gradientUnits="userSpaceOnUse"><stop offset="0" stop-color="#2f97f3"/><stop offset=".65" stop-color="#1e272d"/><stop offset="1" stop-color="#0947a0"/></linearGradient><path fill="url(#d)" d="M142.6 152.5H51.2L95.6 71l47 81.5zm-74.6-10h57.3L95.9 91.4 68 142.5z"/></svg>