<?xml version="1.0" encoding="utf-8"?>
<!-- Generator: Adobe Illustrator 22.1.0, SVG Export Plug-In . SVG Version: 6.00 Build 0)  -->
<svg version="1.0" id="Livello_1" xmlns="http://www.w3.org/2000/svg" xmlns:xlink="http://www.w3.org/1999/xlink" x="0px" y="0px"
	 viewBox="0 0 200 200" enable-background="new 0 0 200 200" xml:space="preserve">
<title>Logo</title>
<desc>Created with Sketch.</desc>
<g id="Page-1">
	
		<g id="_x31__x5F_3_x5F_Arcona_x5F_main_x5F_page_x5F_winner_x5F_1600_x5F_v_x5F_1_x5F_5" transform="translate(-520.000000, -34.000000)">
		<g id="header" transform="translate(520.000000, 34.000000)">
			<g id="Logo">
				<g>
					<path id="Shape-Copy" fill="#736FD2" d="M172.9,43.3L112.6,8.4c-7.8-4.5-17.4-4.5-25.1,0L27.1,43.3
						c-7.8,4.5-12.6,12.8-12.6,21.8v69.8c0,9,4.8,17.3,12.6,21.8l60.4,34.9c7.8,4.5,17.4,4.5,25.1,0l60.4-34.9l0,0
						c7.8-4.5,12.6-12.8,12.6-21.8V65.1C185.5,56.1,180.7,47.8,172.9,43.3z M177.3,135.6c0,5.6-3,10.8-7.9,13.6h0l-61.6,35.6l0,0
						c-4.9,2.8-10.8,2.8-15.7,0l0,0l-61.6-35.6l0,0c-4.9-2.8-7.8-8-7.8-13.6V64.4c0-5.6,3-10.8,7.9-13.6l61.6-35.6
						c4.9-2.8,10.8-2.8,15.7,0l61.6,35.6c4.9,2.8,7.9,8,7.9,13.6V135.6L177.3,135.6z M164.2,55.6l-58-33.5c-3.9-2.2-8.7-2.2-12.6,0
						l-58,33.5c-3.9,2.2-6.3,6.4-6.3,10.9v67.1c0,4.5,2.4,8.7,6.3,10.9l58,33.5l0,0c3.9,2.2,8.7,2.2,12.6,0l0,0l58-33.5
						c3.9-2.2,6.3-6.4,6.3-10.9V66.5C170.5,62,168.1,57.9,164.2,55.6L164.2,55.6z M111.3,131.8l-22-51.9l-22,51.9h-9.4l31.4-73.9
						l31.4,73.9H111.3z M142.7,131.8h-9.4l-15.4-36.2h1.2c2.6,0,5.1-0.7,7.3-2l0,0l0,0c5.4-3.3,8-9.8,6.3-15.9s-7.3-10.3-13.6-10.3
						h-13.3l-4-9.4h17.3c10.8,0,20.2,7.4,22.9,17.9s-2.3,21.5-11.8,26.5L142.7,131.8z"/>
				</g>
			</g>
		</g>
	</g>
</g>
</svg>
