<?xml version="1.0" encoding="utf-8"?>
<!-- Generator: Adobe Illustrator 23.0.1, SVG Export Plug-In . SVG Version: 6.00 Build 0)  -->
<svg version="1.0" id="Livello_1" xmlns="http://www.w3.org/2000/svg" xmlns:xlink="http://www.w3.org/1999/xlink" x="0px" y="0px"
	 viewBox="0 0 200 200" enable-background="new 0 0 200 200" xml:space="preserve">
<linearGradient id="SVGID_1_" gradientUnits="userSpaceOnUse" x1="5" y1="100" x2="195" y2="100">
	<stop  offset="0" style="stop-color:#B33060"/>
	<stop  offset="1" style="stop-color:#FF8178"/>
</linearGradient>
<path fill="url(#SVGID_1_)" d="M147.87,52.32C121.95,26.29,100.44,5,100,5S78.05,26.29,52.13,52.32L5,99.63l47.57,47.76L100,195
	l47.43-47.61L195,99.63L147.87,52.32z M141.68,141.03L100,183.17l-41.68-41.84l-41.53-41.7l41.53-41.84L100,16.09l41.68,41.4
	l41.53,41.4L141.68,141.03z"/>
<linearGradient id="SVGID_2_" gradientUnits="userSpaceOnUse" x1="67.597" y1="101.108" x2="130.8359" y2="101.108">
	<stop  offset="0" style="stop-color:#B33060"/>
	<stop  offset="1" style="stop-color:#FF8178"/>
</linearGradient>
<path fill="url(#SVGID_2_)" d="M112.37,107.02c-1.18,0-2.06-0.74-2.06-1.48c0-0.89,1.18-1.48,2.65-1.48c1.47,0,4.12-1.04,5.89-2.37
	c3.24-2.22,3.24-2.07,3.24,3.7c0,4.29,1.03,7.1,3.68,9.91c2.06,2.22,3.83,3.7,4.12,3.4c0.15-0.3,0.15-6.36-0.15-13.46l-0.44-12.72
	l-16.79-0.59c-14.14-0.3-17.38-0.89-20.91-3.55c-10.31-7.84-9.72-17.15,1.62-22.77c10.46-5.03,21.36-3.55,29.31,4.14l3.98,3.84
	V50.98l-6.33-3.84c-3.54-2.07-7.51-3.7-8.84-3.7c-1.77,0-2.5-1.33-2.5-4.44c0-4.14-0.3-4.44-5.89-4.44c-5.3,0-5.89,0.3-5.89,3.7
	c0,2.37-1.03,4.14-2.5,4.58C77.17,48.32,67.6,59.71,67.6,74.64c0,10.65,8.25,23.07,18.26,27.21l4.27,1.77l-5.3,1.92l-5.45,1.77
	v33.71l-3.98-2.51c-3.83-2.51-3.98-2.51-2.95,0c0.59,1.48,1.03,5.77,1.03,9.32c0,6.36,0.3,6.8,6.33,9.46
	c3.54,1.63,8.84,2.96,11.78,3.25c4.57,0.3,5.45,0.89,5.45,3.7c0,2.96,0.74,3.4,5.89,3.4c5.45,0,5.89-0.3,5.89-4.14
	c0-3.25,1.18-4.58,6.78-7.54c3.68-2.07,8.39-5.91,10.46-8.58c4.57-5.91,6.19-17.45,3.39-24.1
	C127.39,118.26,115.46,107.02,112.37,107.02z M110.46,133.49c-1.62,5.91-9.57,10.5-18.41,10.5h-7.51v-28.09h6.33
	c3.39,0,8.54,1.04,11.49,2.22C108.25,120.63,111.93,127.58,110.46,133.49z"/>
</svg>
