<?xml version="1.0" encoding="utf-8"?>
<!-- Generator: Adobe Illustrator 22.1.0, SVG Export Plug-In . SVG Version: 6.00 Build 0)  -->
<svg version="1.0" id="Livello_1" xmlns="http://www.w3.org/2000/svg" xmlns:xlink="http://www.w3.org/1999/xlink" x="0px" y="0px"
	 viewBox="0 0 200 200" style="enable-background:new 0 0 200 200;" xml:space="preserve">
<style type="text/css">
	.st0{fill:#D7D1C7;}
	.st1{fill:#BFB5AF;}
	.st2{fill:#F47E33;}
	.st3{fill:#35312E;}
	.st4{fill:#D8A780;}
</style>
<path class="st0" d="M190.7,109.4c0.3-3.1,0.5-6.2,0.5-9.4c0-50.3-40.8-91.2-91.2-91.2S8.8,49.7,8.8,100
	C8.8,100.4,189.3,104.7,190.7,109.4"/>
<path class="st1" d="M8.4,100.2c0,50.3,40.8,91.2,91.2,91.2s86-31,91.2-79.8C190.9,111.2,8.4,97.1,8.4,100.2"/>
<path class="st2" d="M64.7,32.5c10.1,0,18.2,8.2,18.2,18.2S74.7,69,64.7,69s-18.2-8.2-18.2-18.2S54.6,32.5,64.7,32.5"/>
<path class="st3" d="M64.7,36.3c-8,0-14.4,6.5-14.4,14.4s6.5,14.4,14.4,14.4c8,0,14.4-6.5,14.4-14.4S72.5,36.3,64.7,36.3 M64.7,72.8
	c-12.2,0-22-9.9-22-22s9.9-22,22-22s22,9.9,22,22S76.7,72.8,64.7,72.8"/>
<path class="st2" d="M123.9,31.7c15.8,0,28.6,12.8,28.6,28.6s-12.8,28.6-28.6,28.6S95.3,76.1,95.3,60.3S108.1,31.7,123.9,31.7"/>
<path class="st1" d="M72.7,121.5l23.2-29.3l4.9,2.8l9.5,3.5L117,95l21.6-23l7.5,10.1l3.6-2.9h4.8l12,16.7l8.6-1.4l15.4,17.5"/>
<path class="st1" d="M87.9,106.9L75.4,100l-18.2,4.8l-8.4-27.6h-15l-14.4,25.4L8.9,103"/>
<path class="st2" d="M46.4,112.3c0,0-6.8,20-6.8,20.3c0,1.9,3,3.4,6.8,3.4s6.8-1.5,6.8-3.4C53.2,132.3,46.4,112.3,46.4,112.3"/>
<path class="st2" d="M30.6,104.6c0,0-6.7,19.9-6.7,20.2c0,1.9,3,3.4,6.7,3.4s6.7-1.5,6.7-3.4C37.4,124.4,30.6,104.6,30.6,104.6"/>
<path class="st4" d="M154.4,106.7c0,7.7-36.6,7.7-36.6,0s8.2-14,18.2-14C146.2,92.7,154.4,98.9,154.4,106.7"/>
<path class="st4" d="M172.7,125.7c0,7.7-36.6,7.7-36.6,0s8.2-14,18.2-14C164.5,111.6,172.7,117.9,172.7,125.7"/>
<path class="st4" d="M136.1,148.3c0,7.7-36.6,7.7-36.6,0s8.2-14,18.2-14S136.1,140.6,136.1,148.3"/>
<path class="st0" d="M101,187.5c-37.7,0-70-23.7-82.8-56.9c2.6,0,5.2,0.1,8,0.1c1.3,0.4,2.9,0.6,4.5,0.6c1.3,0,2.5-0.1,3.6-0.4
	c0.6,0,1.2,0,1.8,0.1c-0.2,0.6-0.2,0.8-0.2,0.9c0,4.3,4.6,7.3,10.7,7.3s9.5-3.8,9.8-7.9c1,0.1,2.9,1,3.9,1.1
	c25.7,2.8,27.4,7.4,27.4,7.6c0.1,0.4-0.6,2.4-5.7,5.9c-11,7.6-14.8,12.1-13.8,16.8c1.2,5.7,8.6,7.1,19.9,9.2
	c3.1,0.6,6.7,1.3,10.5,2.1c4.1,0.9,8.4,1.8,12.4,2.6c7.6,1.5,15.3,3,21.4,4.9C122.7,185.5,112.1,187.5,101,187.5"/>
<path class="st3" d="M176.5,90.4l-8.2,1.4l-11.8-16.3h-3.8c2.4-4.7,3.7-9.8,3.7-15.1c0-17.9-14.5-32.4-32.4-32.4
	S91.5,42.4,91.5,60.3c0,14.8,10.1,27.4,23.7,31.3l-0.5,0.5l-4.7,2.4l-7.6-2.8L95,87.3l-10.5,13.3L76,95.9l-16.2,4.2l-8.2-26.8h-20
	L17.1,98.8l-4.5,0.1c0.6-47.7,39.6-86.3,87.4-86.3c48.2,0,87.4,39.2,87.4,87.4v2.8L176.5,90.4z M132.3,147.8
	c-1.3,0.9-6.3,2.5-14.4,2.5s-13.1-1.5-14.4-2.5c0.4-5.3,6.8-9.7,14.4-9.7S131.9,142.5,132.3,147.8z M154.4,115.4
	c7.6,0,14.1,4.4,14.4,9.7c-1.3,0.9-6.4,2.5-14.4,2.5s-13.1-1.5-14.4-2.5C140.4,119.8,146.8,115.4,154.4,115.4z M150.5,106.1
	c-1.3,0.9-6.4,2.5-14.4,2.5c-8.1,0-13.1-1.5-14.4-2.5c0.4-5.3,6.8-9.7,14.4-9.7C143.7,96.4,150.2,100.8,150.5,106.1z M144.7,73.9
	l-5.7-7.7l-17.7,18.9c-12.4-1.3-22.1-11.9-22.1-24.7c0-13.7,11.1-24.8,24.8-24.8s24.8,11.1,24.8,24.8
	C148.8,65.2,147.4,69.9,144.7,73.9z M140.7,177.3c-7.1-3.5-18-5.6-29.4-7.9c-4-0.8-8.2-1.6-12.2-2.5c-3.7-0.9-7.3-1.5-10.5-2.1
	c-5.1-0.9-11.3-2.2-13.3-3.3c0.7-1,2.8-3.5,10.2-8.6c2.7-1.8,10.7-7.3,8.6-14.3c-2-6.6-12.3-10.5-33.4-12.8c-1.9-0.2-3.9-0.4-6-0.6
	c-1-3.1-2.6-7.6-4.8-14.1l-3.6-10.5l-3.6,10.5c-1.2,3.5-2.2,6.4-3,8.8c-1-3-2.7-8-5.6-16.5l-3.3-10.7L27,103.3
	c-4.9,14.4-6.4,18.7-6.7,20.3h-4.4c-1.6-5.6-2.6-11.4-3-17.2l8.7-0.3L36,80.8h10l8.6,28.4l20.3-5.2l4.7,2.6L69.7,119l6,4.8
	l21.1-26.7l2.5,1.4l11.4,4.2l4.9-2.6c-1,2-1.5,4.2-1.5,6.5s1.4,7.1,12.3,8.9c3.4,0.6,6,3.5,6,7V135c-1.5-1-3.2-2-5.1-2.7h0.1
	c-4.2-1.3-8.1-3.3-9.3-7.4c-1,3.3-3.6,5.2-7,6.6c-8.8,2.4-15.2,9-15.2,16.9c0,2.9,2.2,9.6,22,9.6c19.9,0,22-6.7,22-9.6v-14.9
	c1.3,0.5,2.9,0.9,4.7,1.1c3.4,0.6,6,3.5,6,7v8.6c0,2,1.4,3.8,3.4,4c2.3,0.2,4.2-1.6,4.2-3.8v-8.7c0-3.5,2.5-6.5,6-7
	c10.8-1.8,12.3-6.6,12.3-8.9c0-6.4-4.2-11.9-10.4-15h0.1c-0.1,0-0.2-0.1-0.4-0.1c-1-0.6-2.3-0.9-3.4-1.3c-1.7-0.9-3.2-2-4.3-3.4
	c-0.5-6.7-5.5-12.4-12.7-15.2h-0.1c-0.5-0.2-0.9-0.3-1.4-0.5c-3.6-1.3-6.7-3.3-7.8-6.8c-1.1,3.9-4.5,5.9-8.7,7.2
	c-0.3,0.1-0.7,0.2-0.9,0.4l11.9-12.6l7.1,9.6l5.7-4.6h1.4l12.3,17l8.7-1.5l12.8,14.5C182.2,141,164.8,164.6,140.7,177.3z
	 M43.9,131.9l2.6-7.7l2.6,7.7C47.3,132.4,45.5,132.4,43.9,131.9z M28.2,123.8c0.6-1.7,1.4-4.5,2.5-7.4c1,3,2,5.8,2.5,7.5
	C31.4,123.9,29.8,123.8,28.2,123.8z M100,187.4c-37.1,0-69-23.3-81.6-56c2.5,0,5.1,0.1,7.8,0.1c1.4,0.4,2.9,0.6,4.4,0.6
	c1.2,0,2.5-0.1,3.5-0.4c0.6,0,1.2,0,1.8,0.1c-0.2,0.6-0.2,0.8-0.2,0.9c0,4.2,4.5,7.2,10.6,7.2c6,0,10.4-2.8,10.5-6.8
	c1,0.1,2,0.2,2.9,0.3c25.3,2.8,27,7.3,27,7.5c0.1,0.4-0.5,2.4-5.6,5.8c-10.7,7.4-14.4,11.9-13.5,16.5c1.1,5.6,8.5,7,19.6,9.1
	c3.1,0.6,6.7,1.2,10.3,2.1c4,0.9,8.3,1.7,12.3,2.6c7.4,1.5,15,3,21.1,4.8C121.1,185.5,110.6,187.4,100,187.4z M100,5
	C47.7,5,5,47.7,5,100s42.7,95,95,95s95-42.7,95-95S152.3,5,100,5z"/>
</svg>
