<svg xmlns="http://www.w3.org/2000/svg" viewBox="0 0 200 200"><path fill="#1b1e3b" fill-rule="evenodd" d="M86.5 11.6h69.4c21.9 0 37.8 15.1 39 37.1 1.5 27.4-16.3 51.7-43.9 59.4-5.3 1.5-10.8 2.2-16.5 3.3-.6-9.5-1.2-18.2-1.8-27 3.4-.6 6.6-1 9.7-1.8 12.7-3.4 21.6-10.9 25-24 1.2-4.6 1.1-9.1-.7-13.5-1.6-3.9-4.4-6.3-8.6-6.4-14.6-.1-29.1-.1-43.7-.1-.2 0-.5.1-1 .3v149.4h-3.3c-22 0-44-.3-66 .1-21.7.3-37.7-15.1-39.1-37.3-1.6-27 15.8-50.9 42.8-58.8 5.6-1.7 11.5-2.5 17.6-3.7.6 9.5 1.2 18.3 1.8 27-3.9.8-7.6 1.2-11.1 2.3C42.7 122 33.9 130.6 32 145c-.4 2.7 0 5.7.7 8.4 1.4 5.5 4.8 8.1 10.3 8.1 14 .1 28.1 0 42.1 0 .3 0 .7-.1 1.3-.2.1-49.8.1-99.6.1-149.7z" clip-rule="evenodd"/></svg>