<?xml version="1.0" encoding="utf-8"?>
<!-- Generator: Adobe Illustrator 22.1.0, SVG Export Plug-In . SVG Version: 6.00 Build 0)  -->
<svg version="1.0" id="Livello_1" xmlns="http://www.w3.org/2000/svg" xmlns:xlink="http://www.w3.org/1999/xlink" x="0px" y="0px"
	 viewBox="0 0 200 200" style="enable-background:new 0 0 200 200;" xml:space="preserve">
<style type="text/css">
	.st0{fill:#610C10;}
	.st1{fill:#85161D;}
	.st2{fill:none;stroke:#FFFFFF;stroke-width:0.5;stroke-miterlimit:10;}
</style>
<path class="st0" d="M112.9,83.1c-0.2,0.6-0.6,1-1,1.6C112.1,84.1,112.5,83.7,112.9,83.1z"/>
<path class="st0" d="M195.5,99.5c0,52.4-42.6,95-95,95c-17.4,0-33.8-4.8-48-13c11-18,24-39.2,37.2-60.6l35.6,35.6h34.2l-48-48
	c0,0,24.6,3.6,30-30V64.7c0,0,1-8-7.6-16.4c6.6-10.8,12.6-20.6,17.6-28.8C178.1,36.5,195.5,65.9,195.5,99.5z"/>
<path class="st1" d="M151.7,19.5c-5,8.2-11,18-17.6,28.8c-1.4-1.4-3-2.8-5-4.2c-7.2-5.2-16-7.6-25-7.6H51.7l22,22h30
	c0,0,10,0.8,10,10l-0.2,12.2c0,0,0,1.2-0.6,2.4c-0.4,0.6-0.6,1-1,1.6l0,0c-0.8,1-2.2,1.8-4.2,1.8h-52l34.2,34.2
	c-13.2,21.4-26,42.6-37.2,60.6c-29.8-17.4-49.2-50.4-47-87.8C8.5,45.9,47.5,7.1,95.3,4.7C116.1,3.5,135.7,9.1,151.7,19.5z"/>
<polygon class="st2" points="49.9,135.3 64.1,126.5 78.5,135.3 78.5,152.7 64.1,161.5 49.9,152.7 "/>
<line class="st2" x1="64.1" y1="126.5" x2="64.1" y2="161.5"/>
<line class="st2" x1="49.9" y1="135.3" x2="78.5" y2="152.7"/>
<line class="st2" x1="49.9" y1="152.7" x2="78.5" y2="135.3"/>
</svg>
