<?xml version="1.0" encoding="utf-8"?>
<!-- Generator: Adobe Illustrator 22.1.0, SVG Export Plug-In . SVG Version: 6.00 Build 0)  -->
<svg version="1.0" id="Livello_1" xmlns="http://www.w3.org/2000/svg" xmlns:xlink="http://www.w3.org/1999/xlink" x="0px" y="0px"
	 viewBox="0 0 200 200" enable-background="new 0 0 200 200" xml:space="preserve">
<path fill="#16B9AD" d="M41.1,46.6H194c0,0,5.5,25.5-8.9,53.5c-12.9,25.2-44.4,53.2-85.7,53.2c-43.9,0-73.5-29-86.2-55.9
	C0.8,71,6.2,46.6,6.2,46.6h15.9c0,0-2.9,15.8,3.5,34.8c5.9,17.6,18.5,36.6,40.6,47c9.3,4.3,20.6,8,33.3,8
	c25.6,0,42.5-10.3,54.3-21.3c23-21.6,24.4-51.5,24.4-51.5H57c0,0,1,9.5,7.3,19c6.3,9.5,18.2,19,35.2,19c14.3,0,21.2-4.2,27.3-9.1
	c8.3-6.7,12.4-14.5,12.4-14.5h17.4c0,0-10.9,40-57.1,40S33.4,71.8,41.1,46.6z"/>
</svg>
