<svg xmlns="http://www.w3.org/2000/svg" id="Livello_1" x="0" y="0" version="1.1" viewBox="0 0 200 200" xml:space="preserve"><style>.st1{fill:#94a6c3}.st2{fill:#1b314f}.st4{fill:#d82122}</style><path fill="#fff" d="M56.2 72.3L11.6 41.1l39.8 13.5 43.8-35.8 56.7 41.7 32.9 60.7-62.4 52 7.7-59.3-27.1-13.2-18.4 40.7-34.2 8.4-5.7-17.9 11.5-59.6z"/><path d="M119.8 40.8c-8.3-1.7-17.4-1.3-17.4-1.3s-2.8 14.1-21.3 17.7c.1 0 24.2 8 38.7-16.4zM127.3 165.9c10-7.8 17.6-18.7 21-30.9.2-.5 1.6-1.3 2.5-1.9 1.6-.9 3.1-1.7 3.4-3 .6-3.6.9-7.4.9-11.1 0-1.4-1.4-2.8-2.8-4.2-1.1-.9-2.2-2-2.2-2.8-1.6-14.3-8.2-27.6-18.7-37.3l-1.1 1.1c10.2 9.6 16.8 22.6 18.2 36.4.2 1.3 1.4 2.5 2.7 3.8 1.1.9 2.4 2.4 2.4 3 0 3.6-.3 7.2-.9 10.8-.2.6-1.6 1.3-2.7 1.9-1.6.8-3 1.6-3.3 2.8-3.8 13.3-12.4 24.9-23.8 32.5 2-4.4 8.5-18.7 11.9-25.9l-.6-23.2-19.9-19.3L103 100l-12.4 20.1s5.8 7.4-2.4 16c-8 8.5-14.3 10.3-14.3 10.3l-5.8-3.1c1.7-2.2 5.2-5.5 7.8-7.7 4.5-3.8 9.1-4.1 9.1-8.2.2-8.5-8.9-6.1-8.9-6.1l-3.3 3.1-1.4 11.6-6.9 8.6-.8-.2-11.3-2.5s6.9-3.6 8-7.7c1.1-3.9-2.2-16.9-2.4-17.7.2.2 3.3 2.8 4.7 7.2 2.5-6.9 5.8-13.5 6.7-14.1s13.6-7.4 13.6-7.4l-4 11.3 3.1-1.7 7.5-18.5s7.4-3.6 12.9-3.6c9.9-.2 24.5-12.2 17.9-33.9 1.9.8 34.5 17.1 40.1 49.1 4.3 24.6-9.7 47.7-33.2 61z" class="st1"/><path d="M90 44.2c3.6-4.2 2.2-10.5 2.2-10.5L81.7 49.2c-.2 0 3.7.2 8.3-5zM54.7 129l1.3-6.3s-5.2 9.1-5.6 10.3c-.5 1.4.3 3.9 2.4 3.8 2-.2 4.5-3.1 4.5-5.3-.1-2.8-2.6-2.5-2.6-2.5z" class="st2"/><path d="M147.8 29.3s7.8.3 16 1.3c-18.4-14.4-35.8-18.7-49.9-18.7-19.5 0-32.6 8-33.4 8.5l6.1-9.7S62.1 8.3 53.5 34.2c-2.2-5.5-4.2-13.5-4.2-13.5s-12.7 11.1-6.7 29.6C28 45 7.2 37.6 6.4 37.5c-1.1-.2-1.4.3-1.4.3s-.3.5.6 1.2c1.7 1.4 34.6 25.7 41.9 30.4-1.6 5.6-1.6 8.3 0 11 2.2 3.6 2.3 5.5 2 8.2-.3 2.7-3.1 25.7-3.8 28.5-.6 2.8-7.2 12.9-6.9 15.8.3 3 4.4 15.7 8 17.1 2.7.9 9.3 3 13.6 3 1.6 0 3-.3 3.6-1 2.7-2.3 3.5-2.8 5.3-2.8h.5c.8 0 1.7.2 2.8.2 2.5 0 5.8-.5 8.1-2.7 3.5-3.5 9.4-8.2 11.3-10.4 2.4-3 3.6-7 3-11.1-.5-3.8 1.6-7.1 3.9-10.3 3-3.9 8.5-11 8.5-11 10.8 8.2 17.6 20.5 17.6 34.3 0 24.5-21.3 44.2-47.7 44.2-4.1 0-8-.5-11.9-1.4 12.1 4.2 22.3 5.7 30.6 5.7 17.3 0 26.7-6.2 27.1-6.4-.2.3-3.5 4.4-8.6 9.1h.1c29.3-4.1 43.6-28.2 43.6-28.2s-1.1 7.8-2.5 13.2c39-29.3 32.5-66 32.3-67.3.3.5 4.2 5.2 6.3 7.7 6.4-64.6-46.5-85.5-46.5-85.5zM28.7 50.5C40.3 54.6 52 59 53.9 59.9c0 0 .5.2.7.4.9.8 1.7 1.9.7 3.9-.6 1.1-1.8 1.2-3.2.6-2-1-13.3-7.6-23.4-14.3zm59.1 82c-.6.8-3.3 3.1-5.2 4.9-1.9 1.7-3.9 3.5-5.5 5-.6.6-1.9.9-3.8.9h-4.7c2.3-3.1 9.3-10.4 11.6-11.9 2.8-1.9 4.2-3.8 2.5-7.1-1.7-3.3-6.3-2.5-6.3-2.5s2.7-1.1 5-1.1c-3-.8-6.8 0-8.5 1.7-1.9 1.7-1.6 7.8-2.4 11.8-.8 4.1-3.4 6.1-7.5 9.9-2.2 2-3.8 2.7-5 2.7-2.7-.5-5.8-1.3-8-2-1.6-2-3.9-8.8-4.5-11.6.5-1.6 2.3-4.9 3.3-6.7 1.9-3.6 3-5.7 3.3-7.5.6-2.7 2.7-19.1 3.4-26 2 2.7 4.9 7 4.2 9.9 4.5-6.4 1.3-12.7-.3-15.2-1.4-2.5-3.3-7.5-1.7-12.9S65 54.6 65 54.6s1.9 3.3 4.5 2.7c2.7-.6 24.1-32.9 24.1-32.9s5.8 12.7-.3 22c-6.3 9.3-12.4 11-12.4 11s8.6 1.6 16.6-4.2c3.3 7.7 6.4 15.7 6.6 16.8-.5 1.1-6.8 16.1-7.4 17.1-.3.3-2.5.9-4.1 1.3-2.7.8-4.2 1.3-4.9 1.7-1.1.9-6.1 14.7-8.5 21.5-2.8.8-5.7 2.3-7.7 5.5 1.1-.8 4.5-1.3 7.1-1.6 2.2-.2 8.9 3.5 10.7 10.2v.3c.5 2.3-.3 4.6-1.5 6.5zM73 134.4c1.4-2 1.3-5.5 1.4-6.6.2-1.1.5-3.1 1.7-3.5 1.3-.3 4.2.2 4.2 2.4 0 2-2.2 2.5-3.8 3.9-1 1.1-3.2 3.5-3.5 3.8zm62.6-30c1.6-8 1.7-14.9 1.3-20.5 6.1 8.2 9.9 18 11 28.2.2 1.3 1.4 2.5 2.7 3.8 1.1.9 2.3 2.2 2.3 3 0 3.6-.3 7.2-.9 10.8-.2.5-1.6 1.3-2.7 1.9-1.6.8-3 1.6-3.3 2.8-3.5 12.1-10.8 22.7-20.7 30.3 14.5-15.3 21.6-40.4 10.3-60.3zm-9.9 61.6c10.2-7.8 18-18.8 21.5-31.2.2-.5 1.6-1.3 2.5-1.9 1.6-.8 3.1-1.7 3.4-3 .6-3.6.9-7.4.9-11.1 0-1.4-1.4-2.8-2.8-4.2-.8-1-2-2-2-2.8-1.3-11.4-5.8-22.3-12.9-31.2-3.1-18.8-15.7-24.6-16-24.8.3.5 8.5 12.2 2.8 26-5.8 14-20.7 11.8-22 11.9-1.3 0-6.1 6.3-12.2 17.9-.8-.3-4.1-1.1-7.8-.5 2.8-7.8 7.1-19 7.8-19.9.3-.3 2.7-.9 4.2-1.4 3-.8 4.4-1.3 4.9-1.9.3-.5 1.9-4.1 3.5-7.8 1.4 0 5-.3 5.3-.5.3-.3 3.3-8 3.3-8.9 0-.8-6.1-16-8.5-21.8 1.1-1.3 2.2-2.8 3.3-4.5 32.1 3.5 57.2 30.7 57.2 63.8.2 25.4-14.7 47.5-36.4 57.8z" class="st2"/><path d="M84 81.4c3-3.4 1.4-9.9-4.1-11 1.4-3.3 3.4-9.9 3.4-9.9S67.4 85.6 66 86.1c-1.4.5-2.8-5-2.8-5-3 11.4 5 13 6 9.4 4.3-1.1 11.8-5.8 14.8-9.1z" class="st2"/><path fill="#ffd923" d="M70.4 87.5l8.2-14s4.7 2.4 2.4 6.1c-3.1 4.4-10.6 7.9-10.6 7.9z"/><path d="M171.2 152.1c-2.4 3.1-5 6.4-8.2 9.6 20.2-38.9.9-74.5.2-75.9 1.4 1.4 2.8 3 4.1 4.4 15.5 17.2 17.4 43.1 3.9 61.9zM190 102.1c-7.1-19-17.1-35.1-39.2-49.7C129.5 38.2 105 39.5 105 39.5c.8-.3 13.5-4.4 19.8-5.2 16.6-2.4 31.7 3.8 45.2 16.7 13 13.7 19.7 31 20 51.1zM145.8 24.4c-23.4-4.4-38.4-2.2-49.2 1.9-.3-1.3-1.4-3.8-2.4-5.8-3.3 3.9-6.7 8.6-8.9 11.6-6 4.1-8.5 8-8.5 8 3.4-11.8 13.5-20.5 25.7-22.7 3.4-.6 7.2-.9 11.3-.9 10.8.1 21.6 2.8 32 7.9zM59.4 54.6c-18.3-.6-12.2-22-11.9-23.2 0 .1 1.2 16.7 11.9 23.2zM77.4 16.1c-14.1 8.5-11.3 28.7-11.3 28.7-13.5-20.5 10.2-28.2 11.3-28.7z" class="st4"/></svg>