<?xml version="1.0" encoding="utf-8"?>
<!-- Generator: Adobe Illustrator 16.0.0, SVG Export Plug-In . SVG Version: 6.00 Build 0)  -->
<!DOCTYPE svg PUBLIC "-//W3C//DTD SVG 1.1//EN" "http://www.w3.org/Graphics/SVG/1.1/DTD/svg11.dtd">
<svg version="1.1" id="Livello_1" xmlns="http://www.w3.org/2000/svg" xmlns:xlink="http://www.w3.org/1999/xlink" x="0px" y="0px"
	 width="566.929px" height="566.93px" viewBox="-259.464 -259.465 566.929 566.93"
	 enable-background="new -259.464 -259.465 566.929 566.93" xml:space="preserve">
<title>Elements/Logomark</title>
<desc>Created with Sketch.</desc>
<g id="Symbols">
	<g id="Elements_x2F_Logo_x2F_RedBlack_x2F_Horizontal">
		<g id="Elements_x2F_Logo">
			<g id="Elements_x2F_Logomark_x2F_Red">
				<g id="Elements_x2F_Logomark">
					<g id="Group-3">
						<g id="Clip-2">
						</g>
						<defs>
							
								<filter id="Adobe_OpacityMaskFilter" filterUnits="userSpaceOnUse" x="-252.5" y="-253.759" width="552.502" height="555.259">
								<feColorMatrix  type="matrix" values="1 0 0 0 0  0 1 0 0 0  0 0 1 0 0  0 0 0 1 0"/>
							</filter>
						</defs>
						<mask maskUnits="userSpaceOnUse" x="-252.5" y="-253.759" width="552.502" height="555.259" id="mask-2_1_">
							<g filter="url(#Adobe_OpacityMaskFilter)">
								<path id="path-1_1_" fill="#FFFFFF" d="M-252.5,23.876c0-153.34,123.68-277.635,276.268-277.635
									c152.543,0,276.223,124.295,276.223,277.635c0,153.312-123.68,277.624-276.223,277.624
									C-128.82,301.5-252.5,177.188-252.5,23.876z"/>
							</g>
						</mask>
						
							<linearGradient id="Fill-1_1_" gradientUnits="userSpaceOnUse" x1="-253.2764" y1="304.5156" x2="-253.2764" y2="274.856" gradientTransform="matrix(47.7609 0 0 -47.9991 12120.4189 14362.7578)">
							<stop  offset="0" style="stop-color:#EE4037"/>
							<stop  offset="1" style="stop-color:#C1041B"/>
						</linearGradient>
						<polygon id="Fill-1" mask="url(#mask-2_1_)" fill="url(#Fill-1_1_)" points="-252.5,301.5 300.002,301.5 300.002,-253.759 
							-252.5,-253.759 						"/>
					</g>
					<g id="S" transform="translate(10.666667, 6.666667)">
						<g id="Group-8" transform="translate(5.333333, 0.444444)">
							<g id="Clip-7">
							</g>
							<defs>
								
									<filter id="Adobe_OpacityMaskFilter_1_" filterUnits="userSpaceOnUse" x="-76.644" y="-176.498" width="250.918" height="127.175">
									<feColorMatrix  type="matrix" values="1 0 0 0 0  0 1 0 0 0  0 0 1 0 0  0 0 0 1 0"/>
								</filter>
							</defs>
							<mask maskUnits="userSpaceOnUse" x="-76.644" y="-176.498" width="250.918" height="127.175" id="mask-5_1_">
								<g filter="url(#Adobe_OpacityMaskFilter_1_)">
									<path id="path-4_1_" fill="#FFFFFF" d="M21.641-168.676l-89.607,67.545c-1.898,1.435-2.299,4.169-0.87,6.123
										c1.435,1.892,4.174,2.305,6.066,0.853l87.021-65.562l125.713,94.73H95.061L5.175-132.74
										c-1.903-1.429-4.637-1.045-6.077,0.876c-1.43,1.932-1.028,4.671,0.875,6.117l91.032,68.595
										c0.756,0.571,1.66,0.898,2.609,0.898h69.363c1.875,0,3.525-1.191,4.101-2.994c0.599-1.779-0.011-3.733-1.502-4.841
										L26.849-168.676c-0.768-0.576-1.672-0.875-2.598-0.875C23.335-169.551,22.421-169.252,21.641-168.676z"/>
								</g>
							</mask>
							<polygon id="Fill-6" mask="url(#mask-5_1_)" fill="#FFFFFE" points="-76.644,-49.323 174.274,-49.323 174.274,-176.498 
								-76.644,-176.498 							"/>
						</g>
						<g id="Group-11" transform="translate(0.888889, 8.444444)">
							<g id="Clip-10">
							</g>
							<defs>
								
									<filter id="Adobe_OpacityMaskFilter_2_" filterUnits="userSpaceOnUse" x="-121.312" y="-94.354" width="300.009" height="298.455">
									<feColorMatrix  type="matrix" values="1 0 0 0 0  0 1 0 0 0  0 0 1 0 0  0 0 0 1 0"/>
								</filter>
							</defs>
							<mask maskUnits="userSpaceOnUse" x="-121.312" y="-94.354" width="300.009" height="298.455" id="mask-7_1_">
								<g filter="url(#Adobe_OpacityMaskFilter_2_)">
									<path id="path-6_1_" fill="#FFFFFF" d="M-93.476-86.525l-19.177,14.415c-1.067,0.825-1.705,2.118-1.705,3.485
										c0,1.361,0.638,2.672,1.705,3.474l272.857,205.673l-62.145,46.826L80.616,174.21c-1.921-1.458-4.632-1.062-6.078,0.847
										c-1.424,1.932-1.04,4.665,0.858,6.101l20.053,15.127c0.801,0.576,1.705,0.858,2.609,0.858c0.903,0,1.83-0.282,2.587-0.858
										l69.375-52.295c1.107-0.801,1.75-2.112,1.75-3.468c0-1.378-0.643-2.688-1.75-3.49L-102.802-68.625l14.522-10.952
										c1.921-1.435,2.299-4.163,0.864-6.083c-0.847-1.135-2.152-1.757-3.468-1.757C-91.787-87.418-92.714-87.124-93.476-86.525z"
										/>
								</g>
							</mask>
							<polygon id="Fill-9" mask="url(#mask-7_1_)" fill="#FFFFFE" points="-121.312,204.101 178.696,204.101 178.696,-94.354 
								-121.312,-94.354 							"/>
						</g>
						<g id="Group-14" transform="translate(0.888889, 23.555556)">
							<g id="Clip-13">
							</g>
							<defs>
								
									<filter id="Adobe_OpacityMaskFilter_3_" filterUnits="userSpaceOnUse" x="-132.88" y="61.809" width="250.753" height="127.181">
									<feColorMatrix  type="matrix" values="1 0 0 0 0  0 1 0 0 0  0 0 1 0 0  0 0 0 1 0"/>
								</filter>
							</defs>
							<mask maskUnits="userSpaceOnUse" x="-132.88" y="61.809" width="250.753" height="127.181" id="mask-9_1_">
								<g filter="url(#Adobe_OpacityMaskFilter_3_)">
									<path id="path-8_1_" fill="#FFFFFF" d="M-121.6,68.756c-1.858,0-3.536,1.197-4.124,2.972
										c-0.581,1.785,0.022,3.751,1.502,4.88l138.75,104.565c0.757,0.564,1.684,0.858,2.599,0.858
										c0.903,0,1.829-0.294,2.598-0.858l89.449-67.422c1.898-1.445,2.306-4.18,0.849-6.111c-1.413-1.909-4.135-2.304-6.066-0.869
										l-86.829,65.466L-108.592,77.49h54.932l88.862,66.979c1.92,1.435,4.608,1.05,6.066-0.882
										c1.435-1.932,1.05-4.643-0.87-6.089l-90.048-67.85c-0.74-0.61-1.655-0.893-2.599-0.893H-121.6z"/>
								</g>
							</mask>
							<polygon id="Fill-12" mask="url(#mask-9_1_)" fill="#FFFFFE" points="-132.88,188.99 117.873,188.99 117.873,61.809 
								-132.88,61.809 							"/>
						</g>
						<g id="Group-17" transform="translate(0.888889, 0.444444)">
							<g id="Clip-16">
							</g>
							<defs>
								
									<filter id="Adobe_OpacityMaskFilter_4_" filterUnits="userSpaceOnUse" x="-132.88" y="-176.498" width="300.008" height="299.127">
									<feColorMatrix  type="matrix" values="1 0 0 0 0  0 1 0 0 0  0 0 1 0 0  0 0 0 1 0"/>
								</filter>
							</defs>
							<mask maskUnits="userSpaceOnUse" x="-132.88" y="-176.498" width="300.008" height="299.127" id="mask-11_1_">
								<g filter="url(#Adobe_OpacityMaskFilter_4_)">
									<path id="path-10_1_" fill="#FFFFFF" d="M-54.841-168.676l-69.358,52.3c-1.09,0.791-1.728,2.096-1.728,3.451
										c0,1.39,0.638,2.689,1.728,3.496L148.635,96.229l-15.442,11.624c-1.897,1.446-2.305,4.157-0.836,6.111
										c0.824,1.119,2.146,1.729,3.444,1.729c0.916,0,1.809-0.271,2.588-0.859l20.063-15.115c1.106-0.824,1.729-2.124,1.729-3.49
										c0-1.39-0.622-2.655-1.729-3.491L-114.37-112.925l62.122-46.815l19.081,14.365c1.915,1.451,4.626,1.062,6.077-0.876
										c1.418-1.909,1.051-4.637-0.88-6.078l-21.679-16.347c-0.763-0.576-1.678-0.875-2.599-0.875
										C-53.158-169.551-54.072-169.252-54.841-168.676z"/>
								</g>
							</mask>
							<polygon id="Fill-15" mask="url(#mask-11_1_)" fill="#FFFFFE" points="-132.88,122.629 167.128,122.629 167.128,-176.498 
								-132.88,-176.498 							"/>
						</g>
					</g>
				</g>
			</g>
		</g>
	</g>
</g>
</svg>
