<?xml version="1.0" encoding="UTF-8" standalone="no"?>
<!-- Generator: Adobe Illustrator 16.0.0, SVG Export Plug-In . SVG Version: 6.00 Build 0)  -->

<svg
   xmlns:dc="http://purl.org/dc/elements/1.1/"
   xmlns:cc="http://creativecommons.org/ns#"
   xmlns:rdf="http://www.w3.org/1999/02/22-rdf-syntax-ns#"
   xmlns:svg="http://www.w3.org/2000/svg"
   xmlns="http://www.w3.org/2000/svg"
   xmlns:xlink="http://www.w3.org/1999/xlink"
   xmlns:sodipodi="http://sodipodi.sourceforge.net/DTD/sodipodi-0.dtd"
   xmlns:inkscape="http://www.inkscape.org/namespaces/inkscape"
   version="1.1"
   id="Layer_1"
   x="0px"
   y="0px"
   width="258.58258"
   height="253.0582"
   viewBox="0 0 258.58258 253.0582"
   enable-background="new 0 0 1920 1080"
   xml:space="preserve"
   sodipodi:docname="PhiToken_logo_definitivo.svg"
   inkscape:version="0.92.2 (5c3e80d, 2017-08-06)"><metadata
     id="metadata117"><rdf:RDF><cc:Work
         rdf:about=""><dc:format>image/svg+xml</dc:format><dc:type
           rdf:resource="http://purl.org/dc/dcmitype/StillImage" /><dc:title></dc:title></cc:Work></rdf:RDF></metadata><defs
     id="defs115"><defs
       id="defs3"><rect
         height="1080"
         width="1920"
         id="SVGID_1_"
         x="0"
         y="0" /></defs><clipPath
       id="SVGID_2_"><use
         id="use5"
         overflow="visible"
         xlink:href="#SVGID_1_"
         style="overflow:visible"
         x="0"
         y="0"
         width="100%"
         height="100%" /></clipPath></defs><sodipodi:namedview
     pagecolor="#ffffff"
     bordercolor="#666666"
     borderopacity="1"
     objecttolerance="10"
     gridtolerance="10"
     guidetolerance="10"
     inkscape:pageopacity="0"
     inkscape:pageshadow="2"
     inkscape:window-width="1842"
     inkscape:window-height="1051"
     id="namedview113"
     showgrid="false"
     fit-margin-top="0"
     fit-margin-left="0"
     fit-margin-right="0"
     fit-margin-bottom="0"
     inkscape:zoom="0.87407407"
     inkscape:cx="268.83012"
     inkscape:cy="-115.59334"
     inkscape:window-x="69"
     inkscape:window-y="-9"
     inkscape:window-maximized="1"
     inkscape:current-layer="Layer_1" /><g
     id="g983"
     transform="translate(-442.98452,-385.2118)"><path
       clip-path="url(#SVGID_2_)"
       d="m 449.984,417.125 c 79.094,-31.229 164.271,-35.687 244.582,1.219 C 692.54,500.27 645.487,574.896 575.316,631.269 505.551,580.572 451.605,497.025 449.984,417.125"
       id="path20"
       inkscape:connector-curvature="0"
       style="fill:#ffffff" /><path
       clip-path="url(#SVGID_2_)"
       d="m 575.316,638.27 c -1.442,0 -2.885,-0.444 -4.115,-1.337 -36.038,-26.188 -67.194,-60.137 -90.101,-98.173 -24.135,-40.076 -37.315,-82.088 -38.114,-121.492 -0.06,-2.926 1.706,-5.579 4.428,-6.653 86.947,-34.33 173.422,-33.856 250.075,1.369 2.542,1.168 4.144,3.737 4.076,6.534 -1.958,79.153 -45.237,156.649 -121.864,218.209 -1.278,1.026 -2.83,1.543 -4.385,1.543 M 457.149,421.855 c 1.698,35.555 14.073,73.365 35.944,109.682 21.028,34.917 49.313,66.238 82.018,90.873 69.267,-57.134 108.953,-127.681 112.293,-199.613 -70.701,-31.093 -150.107,-31.421 -230.255,-0.942"
       id="path22"
       inkscape:connector-curvature="0"
       style="fill:#a9bbd4" /><path
       clip-path="url(#SVGID_2_)"
       d="m 517.262,491.559 c 0,15.07 24.885,27.286 55.586,27.286 30.695,0 55.584,-12.216 55.584,-27.286 0,-15.069 -24.889,-27.285 -55.584,-27.285 -30.701,-10e-4 -55.586,12.216 -55.586,27.285 m -16.505,0 c 0,-24.185 32.274,-43.789 72.091,-43.789 39.81,0 72.086,19.604 72.086,43.789 0,24.184 -32.276,43.788 -72.086,43.788 -39.817,0 -72.091,-19.604 -72.091,-43.788"
       id="path24"
       inkscape:connector-curvature="0"
       style="clip-rule:evenodd;fill:#5c073b;fill-rule:evenodd" /><path
       clip-path="url(#SVGID_2_)"
       d="m 529.734,433.189 c 26.317,-9.712 72.978,-4.549 85.606,0.855 -44.057,1.04 -47.912,107.536 0.578,115.685 -25.353,7.579 -60.832,7.769 -85.608,0.565 44.636,-3.788 49.458,-111.707 -0.576,-117.105"
       id="path26"
       inkscape:connector-curvature="0"
       style="clip-rule:evenodd;fill:#120b7c;fill-rule:evenodd" /></g></svg>