<svg xmlns="http://www.w3.org/2000/svg" id="Livello_1" viewBox="0 0 200 200"><style>.st0{fill:#213f9a}</style><path d="M172.8 76.8l-22.3-22.1 1.4-1.5c.8-.8 1.4-1.6 1.4-1.7S142.6 41 129.5 28.4L105.7 5.5s-2.7 2.8-3.1 3.2l-3.9-3.9C97.2 6.3 5.3 99.5 5.1 99.7c.3.3 96 95 96.3 95 2.4-2.4 80.4-81.3 94-94.8-.1-.5-10.4-11-22.6-23.1zM105.5 6.4l46.9 45-26.3 26.9-26.5-25.8-20 20.8S63 57.1 59.7 53.9c.6-.6 45.8-47.5 45.8-47.5zm19.6 113.9c-12 12.5-24.5 25.5-24.7 25.5-.2-.1-10.8-10.2-21.8-20.8-12.1-11.6-24.7-23.9-24.7-24 0-.1 13.3-13.9 25.5-26.7 10.4-10.9 20.1-21 20.1-21L127 79.5l19.4 18.6s-10.4 10.8-21.3 22.2z"/><path d="M94.4 84.2v40H105v-40H94.4z"/><path d="M100 72.2h9.9v9.9H100z" class="st0" transform="rotate(-45 104.9905 77.1925)"/><path d="M193.7 100.8l-44 44-24.5-24.5c10.9-11.3 21.3-22.2 21.3-22.2L127 79.5l22.7-22.7 44 44zM78.6 125l-19.3 19.3-45-45 45-45 20 20C67.1 87 53.9 100.9 53.9 101c0 .1 12.6 12.3 24.7 24z" class="st0"/></svg>