<svg xmlns="http://www.w3.org/2000/svg" id="Layer_1" x="0" y="0" version="1.1" viewBox="0 0 200 200" xml:space="preserve"><style>.st2{fill:#ffce45}</style><linearGradient id="SVGID_1_" x1="-14.2969" x2="214.2969" y1="100" y2="100" gradientUnits="userSpaceOnUse"><stop offset="0" stop-color="#0157d0"/><stop offset=".14" stop-color="#015fcd"/><stop offset=".36" stop-color="#0174c6"/><stop offset=".63" stop-color="#0098ba"/><stop offset=".94" stop-color="#00c8aa"/><stop offset="1" stop-color="#00d3a6"/></linearGradient><path fill="url(#SVGID_1_)" d="M100 10.8c-52.5 0-95 42.5-95 95 0 34.8 19 66.7 49.5 83.4h91.2c30.5-16.7 49.4-48.7 49.3-83.4 0-52.5-42.5-95-95-95zm0 170.6c-41.8 0-75.7-33.8-75.7-75.6S58.2 30.3 100 30.3s75.7 33.8 75.7 75.5-33.9 75.6-75.7 75.6z"/><circle cx="100" cy="106" r="60" fill="#8878b9"/><path d="M100 149c-23.7 0-43-19.3-43-43s19.3-43 43-43 43 19.3 43 43-19.3 43-43 43zm0-85c-23.2 0-42 18.8-42 42s18.8 42 42 42 42-18.8 42-42-18.8-42-42-42z" class="st2"/><path d="M99.7 72.5l33 32.4-32.5 32.8-32.9-32.3 32.4-32.9" class="st2"/><path fill="#febe44" d="M100.1 115.7l-32.8-10.3 32.4-32.9 33 32.4-32.6 10.8"/><path fill="#fff" d="M78.7 103.1l14.9-.1 6.3-7.1 7.2 7 14.9-.1-22.2-23.6-21.1 23.9"/><path fill="#efbd46" d="M132.7 104.9l-32.6 10.8.1 22 32.5-32.8"/><path fill="#eeb445" d="M99.7 72.5l.1 6.7 22.2 23.6-14.9.1-7.2-7 .2 19.8 32.6-10.8-33-32.4"/><path fill="#efd9b2" d="M99.8 79.2l.1 16.7 7.2 7 14.9-.1-22.2-23.6"/></svg>