<?xml version="1.0" encoding="utf-8"?>
<!-- Generator: Adobe Illustrator 22.1.0, SVG Export Plug-In . SVG Version: 6.00 Build 0)  -->
<svg version="1.0" id="Livello_1" xmlns="http://www.w3.org/2000/svg" xmlns:xlink="http://www.w3.org/1999/xlink" x="0px" y="0px"
	 viewBox="0 0 200 200" enable-background="new 0 0 200 200" xml:space="preserve">
<path fill="#E8A208" d="M100,24.8c41.5,0,75.2,33.7,75.2,75.2s-33.7,75.2-75.2,75.2S24.8,141.5,24.8,100S58.5,24.8,100,24.8 M100,5
	C47.5,5,5,47.5,5,100s42.5,95,95,95s95-42.5,95-95S152.5,5,100,5L100,5z"/>
<g>
	
		<rect x="87.7" y="48.6" transform="matrix(0.908 -0.4191 0.4191 0.908 -16.0382 43.0437)" fill="#FE0100" width="4.6" height="18.8"/>
	
		<rect x="105.4" y="35.6" transform="matrix(0.6428 0.766 -0.766 0.6428 79.2999 -64.1399)" fill="#FE0100" width="6" height="34.7"/>
</g>
<path fill="#FE0100" d="M145.8,141.6H54.3c-4.2,0-7.7-3.4-7.7-7.7V70.1c0-4.2,3.4-7.7,7.7-7.7h91.5c4.2,0,7.7,3.4,7.7,7.7v63.8
	C153.4,138.1,150,141.6,145.8,141.6z"/>
<path fill="#FFFFFF" d="M128.3,135.7H61.8c-4,0-7.3-3.3-7.3-7.3V75.6c0-4,3.3-7.3,7.3-7.3h66.6c4,0,7.3,3.3,7.3,7.3v52.8
	C135.6,132.4,132.4,135.7,128.3,135.7z"/>
<circle fill="#FFFFFF" cx="143.5" cy="96" r="4"/>
<circle fill="#FFFFFF" cx="143.5" cy="111.9" r="4"/>
</svg>
