<svg xmlns="http://www.w3.org/2000/svg" viewBox="0 0 200 200"><linearGradient id="a" x1="182.8092" x2="30.8109" y1="19.2492" y2="171.2475" gradientTransform="matrix(1 0 0 -1 0 202)" gradientUnits="userSpaceOnUse"><stop offset=".1594" stop-color="#003cda"/><stop offset="1" stop-color="#33dfcc"/></linearGradient><path fill="url(#a)" d="M167.3 32.9c-17.8-17.8-42-27.8-67.2-27.8-18.8 0-37.2 5.6-52.8 16s-27.8 25.3-35 42.6c-7.1 17.4-9 36.5-5.3 54.9s12.7 35.4 26 48.6c13.3 13.3 30.2 22.3 48.6 26 18.4 3.7 37.5 1.8 54.9-5.4s32.2-19.4 42.6-35 16-34 16-52.8c.1-25.1-9.9-49.3-27.8-67.1zm-67.1 141.7c-41.1 0-74.5-33.3-74.5-74.5S59 25.6 100.2 25.6s74.5 33.3 74.5 74.5-33.4 74.5-74.5 74.5z"/><circle cx="100.2" cy="100.1" r="60" fill="#8778b7"/><path fill="#ffce45" d="M99.8 63.2l36.3 35.9-35.9 36.3-36.3-35.9 35.9-36.3z"/><path fill="#fdbc43" d="M100.1 111.1L63.8 99.5l35.9-36.3 36.4 35.9-36 12z"/><path fill="#fff" d="M76.4 97.1l16.5-.1 7-7.9 7.9 7.8 16.5-.1-24.5-26.2-23.4 26.5z"/><path fill="#edbb46" d="M136.1 99.1l-36 12 .1 24.3 35.9-36.3z"/><path fill="#ecb343" d="M99.8 63.2v7.4l24.5 26.2-16.5.1-7.9-7.8.1 22 36-12-36.2-35.9z"/><path fill="#efd8b1" d="M99.8 70.6l.1 18.4 7.9 7.8 16.5-.1-24.5-26.1z"/></svg>