<?xml version="1.0" encoding="utf-8"?>
<!-- Generator: Adobe Illustrator 23.0.1, SVG Export Plug-In . SVG Version: 6.00 Build 0)  -->
<svg version="1.0" id="Livello_1" xmlns="http://www.w3.org/2000/svg" xmlns:xlink="http://www.w3.org/1999/xlink" x="0px" y="0px"
	 viewBox="0 0 200 200" style="enable-background:new 0 0 200 200;" xml:space="preserve">
<style type="text/css">
	.st0{fill:url(#SVGID_1_);}
</style>
<path d="M31.2,95.2c5.6,0,10.1,4.5,10.1,10.1c0,5.6-4.5,10.1-10.1,10.1s-10.1-4.5-10.1-10.1C21.1,99.8,25.6,95.2,31.2,95.2
	 M31.2,79.1C16.7,79.1,5,90.9,5,105.3c0,14.5,11.7,26.2,26.2,26.2c14.5,0,26.2-11.7,26.2-26.2C57.4,90.9,45.7,79.1,31.2,79.1
	L31.2,79.1z"/>
<g>
	<linearGradient id="SVGID_1_" gradientUnits="userSpaceOnUse" x1="59.5545" y1="99.8976" x2="195" y2="99.8976">
		<stop  offset="0.3" style="stop-color:#000000"/>
		<stop  offset="0.3506" style="stop-color:#200E01"/>
		<stop  offset="0.4446" style="stop-color:#552503"/>
		<stop  offset="0.5399" style="stop-color:#833904"/>
		<stop  offset="0.6345" style="stop-color:#A94905"/>
		<stop  offset="0.7282" style="stop-color:#C65606"/>
		<stop  offset="0.8209" style="stop-color:#DA5F07"/>
		<stop  offset="0.9121" style="stop-color:#E76407"/>
		<stop  offset="1" style="stop-color:#EB6607"/>
	</linearGradient>
	<path class="st0" d="M159.6,131.3c-0.1,0-0.1,0-0.2,0c-2.7-0.1-5.2-1.6-6.5-4l-13.1-24.8l-14.6,25.1c-1.4,2.4-3.8,3.8-6.6,3.7
		c-2.7-0.1-5.2-1.6-6.5-4l-12.8-24.5l-13.9,24.8c-1.3,2.4-3.8,3.8-6.5,3.8c0,0-0.1,0-0.1,0c-2.7,0-5.2-1.5-6.5-4l-12-22.4
		c-1.9-3.6-0.6-8.2,3.1-10.1c3.6-2,8.2-0.6,10.1,3.1l5.5,10.4l14-24.9c1.3-2.4,3.9-3.9,6.6-3.8c2.7,0,5.3,1.6,6.5,4l12.9,24.7
		l14.5-25c1.4-2.4,3.8-3.7,6.6-3.7c2.7,0.1,5.2,1.6,6.5,4l13.1,24.9L181,72.2c2.1-3.6,6.7-4.8,10.2-2.7c3.6,2.1,4.8,6.7,2.7,10.2
		l-27.9,47.9C164.8,129.9,162.3,131.3,159.6,131.3z"/>
</g>
</svg>
