<svg xmlns="http://www.w3.org/2000/svg" version="1" viewBox="0 0 200 200"><path fill="#E8A208" d="M100 24.8c41.5 0 75.2 33.7 75.2 75.2s-33.7 75.2-75.2 75.2-75.2-33.7-75.2-75.2S58.5 24.8 100 24.8M100 5C47.5 5 5 47.5 5 100s42.5 95 95 95 95-42.5 95-95-42.5-95-95-95z"/><g fill="#FE0100"><path d="M83.9617 50.4174l4.1768-1.9278 7.879 17.0704-4.1768 1.9278z"/><path d="M119.7814 39.4802l3.8568 4.596L97.058 66.3813l-3.8568-4.596z"/></g><path fill="#FE0100" d="M145.8 141.6H54.3c-4.2 0-7.7-3.4-7.7-7.7V70.1c0-4.2 3.4-7.7 7.7-7.7h91.5c4.2 0 7.7 3.4 7.7 7.7v63.8c-.1 4.2-3.5 7.7-7.7 7.7z"/><path fill="#FFF" d="M128.3 135.7H61.8c-4 0-7.3-3.3-7.3-7.3V75.6c0-4 3.3-7.3 7.3-7.3h66.6c4 0 7.3 3.3 7.3 7.3v52.8c-.1 4-3.3 7.3-7.4 7.3z"/><circle cx="143.5" cy="96" r="4" fill="#FFF"/><circle cx="143.5" cy="111.9" r="4" fill="#FFF"/></svg>