<svg xmlns="http://www.w3.org/2000/svg" enable-background="new 0 0 200 200" viewBox="0 0 200 200"><defs><filter id="a" width="190" height="190" x="5" y="5" filterUnits="userSpaceOnUse"><feColorMatrix values="1 0 0 0 0 0 1 0 0 0 0 0 1 0 0 0 0 0 1 0"/></filter></defs><mask id="b" width="190" height="190" x="5" y="5" maskUnits="userSpaceOnUse"><g filter="url(#a)"><path fill="#fff" fill-rule="evenodd" d="M5 5h190v190H5z" clip-rule="evenodd"/></g></mask><path fill="#8150e6" d="M195 100c0 52.5-42.5 95-95 95S5 152.5 5 100 47.5 5 100 5s95 42.5 95 95" mask="url(#b)"/><path fill="#3c176b" d="M191.4 125.8l-67.6-66.6L85.3 52l-22.6 84.9 56.9 56c34.7-7.2 62.3-33.3 71.8-67.1"/><path fill="#6b42bd" d="M91.8 129.5V77h13.3c4.5 0 8.6.6 12.3 1.7 3.7 1.1 7 2.9 9.7 5.3.4.3-13.3-21.3-17.6-21.3H77.3v66.8c4.9 0 9.6.4 14.5 0"/><path fill="#9b74ec" d="M147.5 87.5c-2.3-5.6-5.4-10.2-9.2-13.9-3.8-3.7-8.3-6.4-13.3-8.2-1-.4 3.2 12.5 3.1 19.7.6 22.6-36.3 51.9-36.3 51.9s-9.6-7.5-14.5-7.5v21.9h30.5c4.9 0 9.9-.9 15.1-2.7 5.1-1.8 9.8-4.5 14-8.2 4.2-3.6 7.6-8.3 10.3-13.8 2.7-5.6 4-12.2 4-19.8-.2-7.7-1.3-13.8-3.7-19.4"/><path fill="#fff" d="M88.1 122.6c4.5 0 8.8-.6 12.9-1.7 4-1.1 7.6-2.9 10.6-5.3s5.4-5.5 7.1-9.3c1.7-3.8 2.6-8.5 2.6-13.9s-.8-9.5-2.3-13.4c-1.5-3.9-3.7-7-6.4-9.4-2.7-2.4-6-4.2-9.7-5.3-3.7-1.1-7.8-1.7-12.3-1.7H77.3v60h10.8zM62.7 48.3h32.2c5.4 0 10.6.9 15.6 2.7 5 1.8 9.4 4.6 13.3 8.2 3.8 3.7 6.9 8.3 9.2 13.9 2.3 5.6 3.5 11.7 3.5 19.3 0 7.6-1.3 14.2-4 19.8-2.7 5.6-6.1 10.2-10.3 13.8-4.2 3.6-8.8 6.4-14 8.2-5.1 1.8-10.1 2.7-15.1 2.7H62.7V48.3z"/></svg>