<svg xmlns="http://www.w3.org/2000/svg" id="Livello_1" viewBox="0 0 200 200"><style>.st2{fill:#fff}</style><path id="path1_fill" fill="#3823a7" d="M142.9 82.5l-48.2-49c-9.5-9.6-24.9-9.6-34.4 0L12 82.5c-9.5 9.6-9.5 25.4 0 35l48.3 49c9.5 9.6 24.9 9.6 34.4 0l48.2-49c9.6-9.6 9.6-25.4 0-35z"/><path id="path2_fill" fill="#513edd" d="M188.7 82.5l-48.3-49c-9.5-9.6-25-9.6-34.4 0l-48.3 49c-9.5 9.6-9.5 25.4 0 35l48.3 49c9.5 9.6 25 9.6 34.4 0l48.3-49c9.5-9.6 9.5-25.4 0-35z"/><g id="MiO"><g id="Group"><g id="Shape_2_" transform="translate(3488.02 915.982)"><path id="path3_fill" d="M-3385.2-817.6l-7.5 14.9h-3.6l-7.5-14.9v17.1h-6.2v-27.2h8.4l7.1 14.9 7.2-14.9h8.4v27.2h-6.2l-.1-17.1z" class="st2"/></g><g id="Shape_3_" transform="translate(3502.35 915.084)"><path id="path4_fill" d="M-3378.1-826.5c0 1 .4 1.8 1 2.5s1.5 1 2.5 1c.9 0 1.8-.4 2.6-1 .7-.7 1-1.5 1-2.5 0-.9-.4-1.8-1-2.5s-1.5-1-2.6-1c-1 0-1.8.4-2.5 1-.6.8-1 1.7-1 2.5zm.6 26.1h6v-20.9h-6v20.9z" class="st2"/></g><g id="Shape_4_" transform="translate(3506.36 915.735)"><path id="path5_fill" d="M-3350.6-800.2c4.1 0 7.6-1.3 10.4-4s4.2-6 4.2-10-1.4-7.3-4.2-10-6.3-4-10.4-4c-4.1 0-7.6 1.3-10.4 4-2.9 2.8-4.2 6-4.2 10s1.4 7.3 4.2 10c2.8 2.6 6.3 4 10.4 4zm5.8-20.2c1.6 1.7 2.4 3.7 2.4 6.2s-.8 4.5-2.4 6.2c-1.6 1.7-3.5 2.6-5.9 2.6s-4.3-.9-5.9-2.6c-1.6-1.7-2.4-3.7-2.4-6.2s.8-4.5 2.4-6.2c1.6-1.7 3.5-2.6 5.9-2.6s4.3 1 5.9 2.6z" class="st2"/></g></g></g></svg>