<svg xmlns="http://www.w3.org/2000/svg" viewBox="0 0 200 200"><path fill="#552fa6" d="M185.2 195H15.5c-5.6 0-10.2-4.6-10.2-10.2V15.2C5.3 9.6 9.9 5 15.5 5h169.7c5.6 0 10.2 4.6 10.2 10.2v169.7c-.1 5.5-4.6 10.1-10.2 10.1z"/><linearGradient id="a" x1="111.7" x2="111.7" y1="186.0851" y2="14.0764" gradientUnits="userSpaceOnUse"><stop offset="0" stop-color="#57c5cf"/><stop offset=".1158" stop-color="#75cfd8"/><stop offset=".329" stop-color="#a6e0e6"/><stop offset=".5308" stop-color="#cceef1"/><stop offset=".7158" stop-color="#e8f7f8"/><stop offset=".8781" stop-color="#f9fdfd"/><stop offset="1" stop-color="#fff"/></linearGradient><path fill="url(#a)" d="M158 112.3c-1.9-3.5-4.6-6.6-8.4-9.3l-4.1-3c.1 0 .3.1.4.1l3.7-2.9c3.7-2.6 6.6-5.9 8.4-9.3.7-1.4 1.5-2.6 2.1-4.1l.3-.9c1.2-3.3 1.8-6.7 1.8-10.4 0-4.9-1.1-9.6-3.4-13.9-2.3-4.3-5.3-7.9-9.4-10.9l-37.5-27.3c-4.8-3.5-10.1-5.7-16-6.2-6-.5-11.7.5-17 3.3-5.5 2.6-9.7 6.4-13 11.4-3.2 5-4.6 10.4-4.6 16.4v24c1.1-1 2.3-2.1 3.4-2.9 2.5-2.1 5.3-3.6 8.4-5.1 3.4-1.7 7.5-3.1 11.9-4v-12c0-3.2 1.5-5.5 4.5-7.1 3.2-1.2 6-.9 8.5.9l37.4 27.3c2.1 1.6 3.3 3.6 3.3 6.4 0 1.4-.3 2.8-1.1 3.8-.6 1-1.4 1.9-2.3 2.4l-9.4 6.5L108 73.6c-4.8-3.2-10.4-5-16.2-4.9-.5 0-1 0-1.5.1-15.4 1-27.9 13.4-28.9 28.7-1.3 18.1 13.1 33.2 30.9 33.2h.1c5.4 0 10.6-1.7 15.1-4.6l18.3-11.6 9.5 6.8c.7.5 1.5 1.4 2.3 2.4.6 1 1.1 2.4 1.1 3.8 0 2.8-1.1 4.8-3.3 6.4L98 161.2c-2.5 1.7-5.3 2.1-8.5.9-.5-.2-.7-.3-1.1-.5-2.3-1.6-3.3-3.6-3.3-6.4l-.3-12c-4.5-.9-8.5-2.4-11.9-4.1-3-1.4-5.8-3.2-8.4-5.2-1.2-.9-2.3-1.9-3.4-2.9v24c0 5.9 1.5 11.2 4.6 16.2 3.2 5 7.3 8.8 12.8 11.6 5.3 2.6 11 3.6 17 3.2 6-.5 11.2-2.6 16.1-6.2l37.8-27.3c3.9-2.9 7.1-6.6 9.4-10.9 2.1-4.3 3.3-8.9 3.3-13.8 0-4.1-.7-7.9-2.1-11.4-.5-1.4-1.1-2.8-2-4.1zm-65-3.9c-4.5 0-8.1-3.6-8.1-8.1s3.6-8.1 8.1-8.1 10.8 5.8 13.1 8.1c-2.2 2.2-8.6 8.1-13.1 8.1z"/></svg>