<?xml version="1.0" encoding="utf-8"?>
<!-- Generator: Adobe Illustrator 16.0.0, SVG Export Plug-In . SVG Version: 6.00 Build 0)  -->
<!DOCTYPE svg PUBLIC "-//W3C//DTD SVG 1.1//EN" "http://www.w3.org/Graphics/SVG/1.1/DTD/svg11.dtd">
<svg version="1.1" id="Layer_1" xmlns="http://www.w3.org/2000/svg" xmlns:xlink="http://www.w3.org/1999/xlink" x="0px" y="0px"
	 width="200px" height="200px" viewBox="46.324 -62.83 200 200" enable-background="new 46.324 -62.83 200 200"
	 xml:space="preserve">
<g id="Layer_x0020_1">
	<path fill="#FAAA0F" d="M50.772,45.035l66.818-67.873c7.525-7.626,18.704-12.895,29.408-12.895
		c10.669,0,21.299,4.676,28.823,12.321l66.837,67.892L219.131,68.36l-46.962-47.706l-25.737,96.02l-25.17-95.443L74.299,68.931
		L50.772,45.035z"/>
	<path fill="#FFFFFF" fill-opacity="0.2" d="M201.286,4.55L174.8-22.356c-7.27-7.385-16.988-11.597-27.253-11.875l-0.383-0.018
		h-0.311l-0.422,0.018c-10.283,0.278-20.567,5.084-27.801,12.451L53.95,43.922c27.563-17.054,62.106-29.892,100.5-35.85
		C170.452,5.606,186.142,4.457,201.286,4.55z"/>
</g>
</svg>
