<svg xmlns="http://www.w3.org/2000/svg" id="Livello_1" viewBox="0 0 203.1 200"><style>.st0{fill:#f9b233}.st1{stroke-width:2}.st1,.st2{stroke:#f9b233;stroke-miterlimit:10}</style><path d="M136 56.4H68.7c-24.3 7.6-33.5 35-33.5 56.1 0 18.7 12 48.8 33.9 48.8l65.5-.4c22.3-4.5 35.2-29.1 35.2-48.3 0-21-9.5-48.4-33.8-56.2zm-11.5 88.1l-44.9.3c-14.9 0-23.2-20.6-23.2-33.4 0-14.5 6.3-33.3 23-38.4h46c16.7 5.2 23.3 24.1 23.3 38.4 0 13.1-8.9 30.1-24.2 33.1z" class="st0"/><path d="M6.7 64.2c11.3 0 22.6-.1 33.8-.1.6 0 1.2.2 1.7.6 2 2.2 3.9 4.5 6.3 7.2-1.1.5-2.3.8-3.6.9-12.6.2-25.4.2-38.2.2v-8.8zM196.4 73H160c-1.8 0-3.3-.3-4.1-2.5 1.6-1.9 3.3-3.8 5-5.6.5-.5 1.2-.8 1.9-.8h33.6V73zM154.1 31.9c-15.2-6.8-30.5-13.4-45.5-20.5-5-2.4-9.1-2.4-14.2 0-15 7.2-30.4 13.8-45.8 20.7.4.7.8 1.3 1.3 1.9 4.5 5.1 9.1 10.2 13.5 15.6 1.7 2.1 3.4 2.5 5.7 2.5 22.3-.1 44.5-.1 66.7 0 2.5 0 4.3-.6 5.7-2.7 1.4-1.8 2.9-3.5 4.6-5 3.4-3.8 6.6-7.5 10-11.4-.8-.4-1.4-.8-2-1.1zm-52.5 12.2C95 44 89.4 39.4 89.3 31.9c-.3-6.5 4.7-12.1 11.3-12.3h.9c7.3-.1 12.3 5 12.5 12.1.1 7-5.3 12.1-12.4 12.4z" class="st1"/><path d="M5.2 175.4H22c-1.7 1.9-3.1 3.6-4.6 5.2-2.9 3.1-5.5 5.9-8.5 8.9-.8.8-2.1.5-4 .5.1-5 .3-9.5.3-14.6z"/><path d="M4.2 174.4v1c0 2.5 0 4.9-.1 7.3 0 2.4-.1 4.8-.1 7.3v.3h5.5l.1-.1.2-.2c2.8-2.8 5.3-5.4 7.9-8.3l.5-.5c.7-.7 1.3-1.5 1.9-2.2.8-1 1.7-2 2.6-3l1.5-1.7-20 .1zM6 189.1c0-2.2.1-4.3.1-6.3 0-2.1.1-4.2.1-6.4h13.6c-.4.5-.8.9-1.2 1.4-.6.8-1.3 1.5-1.9 2.2l-.5.5c-2.7 2.9-5.2 5.6-8 8.4-.3.3-.9.3-2 .2H6z" class="st0"/><path d="M198 190c-1.1 0-3.3.1-3.8-.5-4.5-4.7-7.6-9.8-12.4-14.9H198V190z"/><path d="M179.6 173.5l1.5 1.7c1.1 1.3 2.2 2.5 3.2 3.8v.1l.1.1c1 1.2 1.9 2.4 2.8 3.5 2 2.6 4 5.1 6.2 7.5 0 .1.1.1.1.1 0 .1.1.1.2.1h5.2l.1-16.8h-19.4v-.1zM197 189c-.8 0-1.8 0-2.1-.2-2.2-2.3-4.1-4.8-6.2-7.4-1.5-1.9-3.4-4-5.1-6l13.4.1V189z" class="st0"/><path d="M83.4 109.7l-71-78.4h2.7c9.7.2 19.5 0 29.2 0 1.5-.1 2.9.6 3.8 1.8C63.8 51.6 79.6 70 95.4 88.5c1.8 2.1 3.4 4.4 5.1 6.5 1.3 1.6 2.4 1.6 3.7-.1C114.8 80.4 127 67.3 138.8 54c6.3-7.1 12.7-14.3 19.1-21.4.6-.7 1.5-1.2 2.4-1.3 10.2-.1 20.5 0 30.7 0h1.7l-73.5 77.1c25.1 27.1 50.2 54.3 75.6 81.8-1.5 0-2.1-.1-2.9-.1-9.7 0-19.3 0-29 .1-1.5.1-2.9-.6-3.8-1.7-12.9-14.5-25.7-28.9-38.6-43.4-6.2-7-12.4-14.1-18.6-21.2-1.6-1.8-2.3-1.7-3.8.1-8.3 9.9-16.7 19.9-25 29.8-6.8 8.1-13.6 16.2-20.4 24.4-2.9 3.5-5.7 6.9-8.7 10.3-.6.8-1.4 1.3-2.4 1.5-10.6.1-21.8.5-32.8-.1 24.7-26.5 49.9-53.4 74.6-80.2z"/><path d="M195.8 189.9l-.3-.4c-3.4-3.7-6.8-7.3-10.2-11-1.5-1.7-3.1-3.3-4.6-5-8.4-9.1-16.7-18.1-25.1-27.1-11.7-12.7-23.3-25.3-35-37.9L195 30.4H160.2c-1.1.1-2.3.7-3 1.6-6.5 7.2-12.9 14.4-19.1 21.4-1.5 1.6-2.9 3.3-4.4 4.9-10.3 11.5-21 23.3-30.3 36-.6.8-1 .9-1.1.9-.1 0-.4-.1-1-.8-.8-1-1.5-1.9-2.2-2.9-.9-1.2-1.9-2.5-2.9-3.7L48.8 32.5c-1.1-1.5-2.8-2.3-4.6-2.2h-9.7c-6.4 0-13 .1-19.5 0h-4.9l72 79.4c-14.2 15.4-28.8 31-42.8 46.2-5.8 6.2-11.5 12.4-17.2 18.5-.3.3-.6.7-.9 1-4.3 4.7-8.6 9.3-12.9 14l-.7.7-.2.3h36.4c.4-.3.8-.6 1.1-1 3-3.4 5.9-6.9 8.7-10.3l3-3.6c.1-.2.3-.3.4-.5.3-.4.6-.7.9-1.1 5.3-6.3 10.7-12.8 16.1-19.2l25-29.8c.8-1 1.1-1 1.1-1 .1 0 .3 0 1.1 1l2.1 2.4c5.4 6.2 11 12.5 16.5 18.8l24.9 28 1.1 1.2 12.6 14.1c.4.5.8.9 1.3 1.2l36.5-.2-.4-.5zm-184.7-.7c9.8-10.6 19.7-21.3 29.7-31.9 14.3-15.4 29-31.3 43.4-46.9l.6-.7-70.2-77.4h.4c6.5.1 13.1.1 19.5 0h9.8c1.1-.1 2.2.4 2.9 1.4l47.4 55.4c1 1.1 1.9 2.3 2.9 3.6.7 1 1.5 2 2.3 2.9.8 1 1.7 1.5 2.6 1.5.9 0 1.8-.6 2.6-1.7 9.3-12.6 19.9-24.5 30.2-35.9 1.5-1.6 2.9-3.3 4.4-4.9 6.2-7 12.6-14.2 19.1-21.4.4-.5 1.1-.9 1.7-.9 6.8-.1 13.7 0 20.4 0h9.6l-72.6 76.1.6.7c11.9 12.8 23.8 25.7 35.7 38.6 12.7 13.8 25.5 27.6 38.3 41.4h-.5c-9.5 0-19.3 0-29.1.1-1.1.1-2.2-.4-2.9-1.4l-38.6-43.3c-5.5-6.2-11.1-12.6-16.5-18.7l-2.1-2.4c-.8-.9-1.6-1.6-2.6-1.6-1.1 0-1.9.9-2.6 1.7l-25 29.8c-5.8 6.9-11.7 14-17.4 20.8l-3 3.7c-2.8 3.4-5.7 6.9-8.7 10.3-.4.6-1 .9-1.7 1.1-2.4 0-4.8.1-7.2.1-7.7 0-15.6-.1-23.4-.1z" class="st0"/><path d="M160.7 190.4H42.9c4.4-5.2 8.1-9.9 12.1-14.6.5-.4 1.2-.7 1.9-.9.4-.1.9-.1 1.4-.1 17.4-.1 34.8 0 52.4-.1 11.2 0 22.5-.1 33.7.1.5 0 1 .1 1.5.3.9.3 1.7.7 2.4 1.4 4.2 4.4 7.7 9.3 12 13.6.1.1.2.1.4.3z"/><path d="M162.2 190.5l.2.1-.7-.8c-.3-.3-.6-.4-.7-.5h-.1c-2.3-2.3-4.4-4.8-6.4-7.2-1.8-2.1-3.6-4.3-5.6-6.4-.7-.7-1.6-1.2-2.5-1.5-.5-.2-1.1-.3-1.7-.4h-.4c-8.4-.1-17-.1-25.3-.1H57.8c-.5 0-1 .1-1.5.2-.7.2-1.4.5-1.9 1l-.1.1c-2.8 3.1-5.3 6.3-8 9.6-1.4 1.7-2.8 3.5-4.4 5.3l-.1.1-.2.4 120.9.2-.3-.1zm-117-1.3c1-1.3 1.6-2 2.6-3.2 2.7-3.3 5.2-6.4 7.9-9.5.7-.5 1.6-.8 2.6-.7H119c8.3 0 16.9 0 25.2.1 1.3.1 1.8-.2 3.3 1.4 1.9 2 3.7 4.1 5.5 6.2 1.8 2.1 3 3.6 4.9 5.6l-112.7.1z" class="st0"/><path d="M23.4 81.9h17.4c-1.1 4-2.5 7.6-3.2 11.5-2.4 13.7-2.4 27.2 2.9 40.3 1.5 3.3 3.3 6.3 5.2 9.2 1.7 2.6 1.9 4.5-.1 6.8-4.5 5-9.2 9.7-13.8 14.6-.5.8-1.5 1.4-2.5 1.4-2.4-.1-3.6 0-6 0l.1-83.8zM163.3 81.9h16.4c.1 1 .1 2 .1 3 0 26 0 52.1.1 78.1 0 2.5-.8 3-3 3-2.8.3-5.4-.9-7.1-3.1-3.9-4.8-8.1-9.1-12.3-13.7-2-2.3-2-2.6 0-4.8 4.2-4.9 7-10.6 8.5-16.7 3.5-14.2 3.3-28.2-1.5-42.2-.2-.5-.4-1.1-.6-1.6-.1-.5-.4-1.1-.6-2zM133.7 124l-13.6-15.8L133.7 93v31zM69 93.6l13.4 15.8c-4.4 5-8.7 10.1-13.4 15.5V93.6zM64 165.1c1.7-1.9 3.2-3.8 4.9-5.5.3-.3 1.2-.2 1.7-.2 5.8.6 11.6 1.4 17.4 2v4.2c-8.1.1-15.6.1-23.7.1l-.3-.6zM138.5 165.6h-25.3v-4.1c2.5-.1 4.9-.1 7.3-.4 3.3-.2 6.5-.6 9.7-1.2 2.3-.5 4-.3 5.2 1.7 1 1.5 1.7 2.8 3.1 4zM29.3 51.3H9.9c2.2-1.1 4.9-2.6 7.2-3.7C24 44.5 24 44.5 29 50.5c.1.2.2.5.3.8zM174.6 50.6c1.8-1.5 3.1-3.4 4.9-4.8.7-.4 1.5-.4 2.2-.2 3.8 1.6 7.4 3.5 11 5.5H175l-.4-.5z" class="st1"/><path d="M82.4 144.3h5.7v-6.1l-5.7 6.1zM119.2 144.8h-5.3v-5.4l5.3 5.4z" class="st2"/></svg>