<svg xmlns="http://www.w3.org/2000/svg" id="Livello_1" x="0" y="0" version="1.1" viewBox="0 0 194.7 197.6" xml:space="preserve"><style>.st0{fill:#9d3aa4}</style><path d="M171.4 95.6c-8.3-6-17-11.3-26.1-16-3.8-2-7.8-4-11.8-5.8l-.8-.4c.3 1.2.5 2.4.8 3.6 3.5 1.8 6.8 3.6 10.1 5.4 8.8 4.9 17.2 10.6 25.1 16.8 13.2 10.6 21 21.1 19.7 28.8-1.9 11.7-23.8 12.7-48.8 8.2-1.1-.2-2.3-.4-3.4-.6-5-1-10.1-2.2-15.2-3.5-5.1-1.3-10.4-2.9-15.3-4.6-4-1.3-8-2.8-11.7-4.3-5.2-1.9-10.4-3.9-15.4-5.9-4.8-1.9-9.4-3.9-13.9-6-5.7-2.6-11.1-5.3-16.2-8l-.1.1-2.5-1.4C28.5 92.4 16 82.4 12.3 73.1c3.2-1.4 5.3-4.5 5.3-8 0-2.1-.7-4.1-2.1-5.7 8.8-7.2 27.1-7.6 47.2-4.6 3.2.5 6.5 1.1 9.8 1.7 6.7 1.3 13.4 3 19.9 4.8 1.2.3 2.3.7 3.5 1 3.4 1 6.8 2.1 10 3.2-.1.5-.1 1-.1 1.4-.1 4.4 3.4 8.1 7.8 8.2 3 .1 5.8-1.5 7.2-4.1 2.2.9 4.2 1.8 6.2 2.7 1.3.6 2.6 1.2 3.8 1.8-.2-1.2-.5-2.4-.8-3.5-2.5-1.2-5.3-2.4-8.3-3.6.1-.5.1-1 .1-1.4.1-4.4-3.5-8.1-7.9-8.1-3 0-5.7 1.5-7.1 4.1-2.6-.9-5.3-1.7-8.1-2.5l-3.6-1c-7.4-2.1-15.1-3.9-22.8-5.4-3.2-.6-6.4-1.2-9.5-1.7-22.3-3.5-42.5-3.1-51.3 4.4-.9-.3-1.8-.5-2.8-.5-4.8 0-8.7 4-8.7 8.8 0 4.3 3.2 8 7.4 8.6 3.1 12 15.7 24.8 31.6 35.9l2.5 1.7.1-.1C50 117 58.7 122 67.8 126.4c4.6 2.2 9.1 4.2 13.5 6 3.9 1.6 7.7 2.9 11.4 4.1 1 .3 2.1.6 3.1.9 3.8 1.5 7.7 2.8 11.6 3.9 9.1 2.5 18.4 4.3 27.9 5.3 1.3.1 2.5.3 3.8.3 27 2.2 52.4-2.3 55.3-15.9 2.4-11.4-7.1-23.6-23-35.4z" class="st0"/><path d="M133.5 77l-.8-3.6-2.8-1.3.8 3.5z" class="st0"/><path fill="#6206a8" d="M141.7 163.1c-.2-2.4-1.6-4.5-3.8-5.5.5-3.4.8-6.9 1.1-10.6.3-3.4.4-7 .5-10.7.1-6 0-12.4-.5-19-.3-5.3-.8-10.8-1.5-16.4-.6-4.8-1.3-9.7-2.2-14.6-.6-3.2-1.2-6.2-1.9-9.2-.9-.5-1.9-.9-2.8-1.4.7 3.4 1.4 7 2 10.8 1 5.8 1.8 11.4 2.4 16.8.6 5.7 1 11.3 1.2 16.6.2 5.5.2 10.8-.1 15.8-.2 3.8-.5 7.5-.8 10.9-.4 3.5-.9 7-1.5 10.3-3.8.4-6.5 3.9-6 7.7.2 2 1.4 3.8 3 5-4.3 14.1-10.5 22-16.4 21.7-10.8-.6-20.5-16.7-27.6-38.3-1.1-3.4-2.2-6.9-3.1-10.6-.9-3.2-1.7-6.5-2.4-9.8-1.1-5-2.1-10-2.9-15.1-.4-2.2-.7-4.4-1-6.6-1.8-11.5-3.1-22.1-3.9-31.8l-.3-3.2c-.5-6.9-.8-13.2-.9-19.1v-2.6c0-4.7.2-9.1.5-13.2 6.4-1 10.8-7 9.9-13.4-.5-3.5-2.6-6.6-5.7-8.4C79.7 11.6 83.7 6.8 88.6 5c7.7-1.9 21.7 7.5 33.1 38.4.5 1.2.9 2.5 1.3 3.8 2.8 8.2 5.1 16.6 6.9 25.1 1 .5 1.9 1 2.8 1.4-2.1-9.3-4.6-18.4-7.6-27.4-.5-1.3-.9-2.6-1.4-3.9C112.4 10.9 98.8-2.4 87.9.3c-5.9.9-11.6 7.1-16.3 17h-.7c-6.5-.1-11.9 5.1-12 11.6-.1 4.2 2.1 8 5.6 10.2-.7 4.2-1.3 8.6-1.7 13.2-.1.8-.2 1.7-.2 2.5-.9 10.2-1.2 20.5-.8 30.8l.2 3.7c.4 7.4 1.3 14.8 2.5 22.1.3 1.9.6 3.7 1 5.6.7 3.3 1.4 6.5 2.2 9.6 1.9 7.7 4.1 14.9 6.4 21.4 1.1 3.2 2.3 6.3 3.5 9.2 10.7 25.8 24 39.7 35.9 40.4 9.9.7 17.5-9.6 21.9-27 3.9-.4 6.7-3.7 6.3-7.5z"/><path fill="#e54edb" d="M177.9 36c-7.6-8.9-30.3-5.2-54.2 6.2-.7.3-1.3.6-2 1-9.3 4.6-18.2 10-26.6 16.2l-1 .8-1.9 1.2c-5.7 3.9-12.3 8.9-19 14.6l.3 3c6.5-5.6 13.4-10.8 20.7-15.5.5-.4 1.1-.8 1.6-1.1 1-.7 1.9-1.3 2.9-2 7.8-5.1 15.9-9.6 24.3-13.5l2-.9c21.7-9.5 40.7-12.4 46.7-6.9 8 6.4 2.1 20-9.6 35.1-6.2-1.8-12.8.3-16.8 5.4-.7.9-1.2 1.8-1.7 2.8-1.9 4-1.9 8.6 0 12.6-2 2-4 3.9-6 5.9l-2.5 2.3c-3.9 3.7-7.9 7.2-11.8 10.5-5.6 4.7-11.6 9.3-17.6 13.8-4.3 3.1-8.6 6.2-12.9 9-3 2-6 3.9-9 5.8-3.2 2-6.4 3.9-9.6 5.6-22.5 12.4-42.3 18.1-49.5 8.2-4.2-6.4-1.7-16.3 4.7-27.4 3.3.9 6.6-1 7.5-4.3.1-.5.2-1 .2-1.5 0-1.4-.5-2.8-1.5-3.9 1.8-2.5 3.8-5.1 5.8-7.6-.8-.6-1.7-1.1-2.5-1.7-2.1 2.5-4.1 5-5.9 7.6-3.2-1.2-6.7.5-7.9 3.7-.2.6-.4 1.3-.4 2 0 1.6.6 3.1 1.7 4.2-7 11.9-10 23-5.7 31.5 10.1 12.4 33 8.8 56.8-1.4 3.1-1.3 6.1-2.8 9.2-4.3 7-3.5 13.9-7.4 20.5-11.6 4.7-3 9.3-6.1 13.5-9.2 4.6-3.4 8.9-6.8 12.7-10.2.9-.7 1.7-1.4 2.6-2.1s1.9-1.7 2.9-2.5c4.9-4.4 9.5-9.1 13.9-14.1 5.6 1.7 11.6.2 15.8-3.9 1.1-1.1 1.9-2.3 2.6-3.6 2.6-5 2.2-11.1-1.2-15.6 11.3-18.3 16.4-36 7.9-44.2zM62 89.3c-.1-1.1-.1-2.2-.2-3.3-5.5 5.1-11 10.5-16.1 16 .8.5 1.7.9 2.5 1.4 4.5-4.8 9.1-9.6 13.8-14.1z"/></svg>