<?xml version="1.0" encoding="utf-8"?>
<!-- Generator: Adobe Illustrator 22.1.0, SVG Export Plug-In . SVG Version: 6.00 Build 0)  -->
<svg version="1.1" id="Livello_1" xmlns="http://www.w3.org/2000/svg" xmlns:xlink="http://www.w3.org/1999/xlink" x="0px" y="0px"
	 viewBox="0 0 203.1 200" style="enable-background:new 0 0 203.1 200;" xml:space="preserve">
<style type="text/css">
	.st0{fill:#F9B233;}
	.st1{stroke:#F9B233;stroke-width:2;stroke-miterlimit:10;}
	.st2{stroke:#F9B233;stroke-miterlimit:10;}
</style>
<path class="st0" d="M136,56.4H68.7c-24.3,7.6-33.5,35-33.5,56.1c0,18.7,12,48.8,33.9,48.8l65.5-0.4c22.3-4.5,35.2-29.1,35.2-48.3
	C169.8,91.6,160.3,64.2,136,56.4z M124.5,144.5l-44.9,0.3c-14.9,0-23.2-20.6-23.2-33.4c0-14.5,6.3-33.3,23-38.4h46
	c16.7,5.2,23.3,24.1,23.3,38.4C148.7,124.5,139.8,141.5,124.5,144.5z"/>
<path class="st1" d="M6.7,64.2c11.3,0,22.6-0.1,33.8-0.1c0.6,0,1.2,0.2,1.7,0.6c2,2.2,3.9,4.5,6.3,7.2c-1.1,0.5-2.3,0.8-3.6,0.9
	C32.3,73,19.5,73,6.7,73V64.2z"/>
<path class="st1" d="M196.4,73c-12.2,0-24.3,0-36.4,0c-1.8,0-3.3-0.3-4.1-2.5c1.6-1.9,3.3-3.8,5-5.6c0.5-0.5,1.2-0.8,1.9-0.8
	c11.2,0,22.4,0,33.6,0V73z"/>
<path class="st1" d="M154.1,31.9c-15.2-6.8-30.5-13.4-45.5-20.5c-5-2.4-9.1-2.4-14.2,0c-15,7.2-30.4,13.8-45.8,20.7
	c0.4,0.7,0.8,1.3,1.3,1.9c4.5,5.1,9.1,10.2,13.5,15.6c1.7,2.1,3.4,2.5,5.7,2.5c22.3-0.1,44.5-0.1,66.7,0c2.5,0,4.3-0.6,5.7-2.7
	c1.4-1.8,2.9-3.5,4.6-5c3.4-3.8,6.6-7.5,10-11.4C155.3,32.6,154.7,32.2,154.1,31.9z M101.6,44.1C95,44,89.4,39.4,89.3,31.9
	C89,25.4,94,19.8,100.6,19.6c0.3,0,0.6,0,0.9,0c7.3-0.1,12.3,5,12.5,12.1C114.1,38.7,108.7,43.8,101.6,44.1z"/>
<path d="M5.2,175.4H22c-1.7,1.9-3.1,3.6-4.6,5.2c-2.9,3.1-5.5,5.9-8.5,8.9c-0.8,0.8-2.1,0.5-4,0.5C5,185,5.2,180.5,5.2,175.4z"/>
<path class="st0" d="M4.2,174.4v1c0,2.5,0,4.9-0.1,7.3c0,2.4-0.1,4.8-0.1,7.3v0.3h5.5l0.1-0.1l0.2-0.2c2.8-2.8,5.3-5.4,7.9-8.3
	l0.5-0.5c0.7-0.7,1.3-1.5,1.9-2.2c0.8-1,1.7-2,2.6-3l1.5-1.7L4.2,174.4L4.2,174.4z M6,189.1c0-2.2,0.1-4.3,0.1-6.3
	c0-2.1,0.1-4.2,0.1-6.4h13.6c-0.4,0.5-0.8,0.9-1.2,1.4c-0.6,0.8-1.3,1.5-1.9,2.2l-0.5,0.5c-2.7,2.9-5.2,5.6-8,8.4
	c-0.3,0.3-0.9,0.3-2,0.2C6.2,189.1,6.1,189.1,6,189.1z"/>
<path d="M198,190c-1.1,0-3.3,0.1-3.8-0.5c-4.5-4.7-7.6-9.8-12.4-14.9H198V190L198,190z"/>
<path class="st0" d="M179.6,173.5l1.5,1.7c1.1,1.3,2.2,2.5,3.2,3.8c0,0,0,0,0,0.1c0,0,0,0,0.1,0.1c1,1.2,1.9,2.4,2.8,3.5
	c2,2.6,4,5.1,6.2,7.5c0,0.1,0.1,0.1,0.1,0.1c0,0.1,0.1,0.1,0.2,0.1h5.2l0.1-16.8h-19.4V173.5z M197,189c-0.8,0-1.8,0-2.1-0.2
	c-2.2-2.3-4.1-4.8-6.2-7.4c-1.5-1.9-3.4-4-5.1-6l13.4,0.1L197,189z"/>
<path d="M83.4,109.7l-71-78.4c1.2,0,1.9,0,2.7,0c9.7,0.2,19.5,0,29.2,0c1.5-0.1,2.9,0.6,3.8,1.8C63.8,51.6,79.6,70,95.4,88.5
	c1.8,2.1,3.4,4.4,5.1,6.5c1.3,1.6,2.4,1.6,3.7-0.1C114.8,80.4,127,67.3,138.8,54c6.3-7.1,12.7-14.3,19.1-21.4
	c0.6-0.7,1.5-1.2,2.4-1.3c10.2-0.1,20.5,0,30.7,0c0.6,0,1.1,0,1.7,0l-73.5,77.1c25.1,27.1,50.2,54.3,75.6,81.8
	c-1.5,0-2.1-0.1-2.9-0.1c-9.7,0-19.3,0-29,0.1c-1.5,0.1-2.9-0.6-3.8-1.7c-12.9-14.5-25.7-28.9-38.6-43.4c-6.2-7-12.4-14.1-18.6-21.2
	c-1.6-1.8-2.3-1.7-3.8,0.1c-8.3,9.9-16.7,19.9-25,29.8c-6.8,8.1-13.6,16.2-20.4,24.4c-2.9,3.5-5.7,6.9-8.7,10.3
	c-0.6,0.8-1.4,1.3-2.4,1.5c-10.6,0.1-21.8,0.5-32.8-0.1C33.5,163.4,58.7,136.5,83.4,109.7z"/>
<path class="st0" d="M195.8,189.9l-0.3-0.4c-3.4-3.7-6.8-7.3-10.2-11l0,0c-1.5-1.7-3.1-3.3-4.6-5c-8.4-9.1-16.7-18.1-25.1-27.1
	c-11.7-12.7-23.3-25.3-35-37.9L195,30.4h-4c-3.4,0-6.8,0-10.2,0c-6.7,0-13.7,0-20.5,0h-0.1c-1.1,0.1-2.3,0.7-3,1.6
	c-6.5,7.2-12.9,14.4-19.1,21.4c-1.5,1.6-2.9,3.3-4.4,4.9c-10.3,11.5-21,23.3-30.3,36c-0.6,0.8-1,0.9-1.1,0.9l0,0
	c-0.1,0-0.4-0.1-1-0.8c-0.8-1-1.5-1.9-2.2-2.9c-0.9-1.2-1.9-2.5-2.9-3.7L48.8,32.5c-1.1-1.5-2.8-2.3-4.6-2.2c-3.2,0-6.5,0-9.7,0
	c-6.4,0-13,0.1-19.5,0h-4.9l72,79.4c-14.2,15.4-28.8,31-42.8,46.2c-5.8,6.2-11.5,12.4-17.2,18.5c-0.3,0.3-0.6,0.7-0.9,1
	c-4.3,4.7-8.6,9.3-12.9,14l-0.7,0.7l-0.2,0.3h36.4c0.4-0.3,0.8-0.6,1.1-1c3-3.4,5.9-6.9,8.7-10.3l3-3.6c0.1-0.2,0.3-0.3,0.4-0.5
	c0.3-0.4,0.6-0.7,0.9-1.1c5.3-6.3,10.7-12.8,16.1-19.2l25-29.8c0.8-1,1.1-1,1.1-1c0.1,0,0.3,0,1.1,1l2.1,2.4
	c5.4,6.2,11,12.5,16.5,18.8l24.9,28l1.1,1.2l12.6,14.1c0.4,0.5,0.8,0.9,1.3,1.2l36.5-0.2L195.8,189.9z M11.1,189.2
	c9.8-10.6,19.7-21.3,29.7-31.9c14.3-15.4,29-31.3,43.4-46.9l0.6-0.7L14.6,32.3H15c6.5,0.1,13.1,0.1,19.5,0c3.2,0,6.5,0,9.8,0
	c1.1-0.1,2.2,0.4,2.9,1.4l47.4,55.4c1,1.1,1.9,2.3,2.9,3.6c0.7,1,1.5,2,2.3,2.9c0.8,1,1.7,1.5,2.6,1.5l0,0c0.9,0,1.8-0.6,2.6-1.7
	c9.3-12.6,19.9-24.5,30.2-35.9c1.5-1.6,2.9-3.3,4.4-4.9c6.2-7,12.6-14.2,19.1-21.4c0.4-0.5,1.1-0.9,1.7-0.9c6.8-0.1,13.7,0,20.4,0
	c3.2,0,6.4,0,9.6,0l-72.6,76.1l0.6,0.7c11.9,12.8,23.8,25.7,35.7,38.6c12.7,13.8,25.5,27.6,38.3,41.4c-0.2,0-0.3,0-0.5,0
	c-9.5,0-19.3,0-29.1,0.1c-1.1,0.1-2.2-0.4-2.9-1.4l-38.6-43.3c-5.5-6.2-11.1-12.6-16.5-18.7l-2.1-2.4c-0.8-0.9-1.6-1.6-2.6-1.6l0,0
	c-1.1,0-1.9,0.9-2.6,1.7l-25,29.8c-5.8,6.9-11.7,14-17.4,20.8l-3,3.7c-2.8,3.4-5.7,6.9-8.7,10.3c-0.4,0.6-1,0.9-1.7,1.1
	c-2.4,0-4.8,0.1-7.2,0.1C26.8,189.3,18.9,189.2,11.1,189.2z"/>
<path d="M160.7,190.4H42.9c4.4-5.2,8.1-9.9,12.1-14.6c0.5-0.4,1.2-0.7,1.9-0.9c0.4-0.1,0.9-0.1,1.4-0.1c17.4-0.1,34.8,0,52.4-0.1
	c11.2,0,22.5-0.1,33.7,0.1c0.5,0,1,0.1,1.5,0.3c0.9,0.3,1.7,0.7,2.4,1.4c4.2,4.4,7.7,9.3,12,13.6
	C160.4,190.2,160.5,190.2,160.7,190.4z"/>
<path class="st0" d="M162.2,190.5l0.2,0.1l-0.7-0.8c-0.3-0.3-0.6-0.4-0.7-0.5h-0.1c-2.3-2.3-4.4-4.8-6.4-7.2
	c-1.8-2.1-3.6-4.3-5.6-6.4c-0.7-0.7-1.6-1.2-2.5-1.5l0,0c-0.5-0.2-1.1-0.3-1.7-0.4c-0.1,0-0.3,0-0.4,0c-8.4-0.1-17-0.1-25.3-0.1
	c-2.8,0-5.6,0-8.4,0c-8.7,0-17.6,0-26.2,0s-17.4,0-26.1,0c-0.2,0-0.4,0-0.5,0c-0.5,0-1,0.1-1.5,0.2c-0.7,0.2-1.4,0.5-1.9,1l-0.1,0.1
	c-2.8,3.1-5.3,6.3-8,9.6c-1.4,1.7-2.8,3.5-4.4,5.3l-0.1,0.1l0,0l-0.2,0.4l120.9,0.2L162.2,190.5z M45.2,189.2c1-1.3,1.6-2,2.6-3.2
	c2.7-3.3,5.2-6.4,7.9-9.5c0.7-0.5,1.6-0.8,2.6-0.7c8.7,0,17.6,0,26.1,0c8.6,0,17.5,0,26.2,0c2.8,0,5.6,0,8.4,0
	c8.3,0,16.9,0,25.2,0.1c1.3,0.1,1.8-0.2,3.3,1.4c1.9,2,3.7,4.1,5.5,6.2c1.8,2.1,3,3.6,4.9,5.6L45.2,189.2z"/>
<path class="st1" d="M23.4,81.9h17.4c-1.1,4-2.5,7.6-3.2,11.5c-2.4,13.7-2.4,27.2,2.9,40.3c1.5,3.3,3.3,6.3,5.2,9.2
	c1.7,2.6,1.9,4.5-0.1,6.8c-4.5,5-9.2,9.7-13.8,14.6c-0.5,0.8-1.5,1.4-2.5,1.4c-2.4-0.1-3.6,0-6,0L23.4,81.9z"/>
<path class="st1" d="M163.3,81.9h16.4c0.1,1,0.1,2,0.1,3c0,26,0,52.1,0.1,78.1c0,2.5-0.8,3-3,3c-2.8,0.3-5.4-0.9-7.1-3.1
	c-3.9-4.8-8.1-9.1-12.3-13.7c-2-2.3-2-2.6,0-4.8c4.2-4.9,7-10.6,8.5-16.7c3.5-14.2,3.3-28.2-1.5-42.2c-0.2-0.5-0.4-1.1-0.6-1.6
	C163.8,83.4,163.5,82.8,163.3,81.9z"/>
<path class="st1" d="M133.7,124l-13.6-15.8L133.7,93V124z"/>
<path class="st1" d="M69,93.6l13.4,15.8c-4.4,5-8.7,10.1-13.4,15.5V93.6z"/>
<path class="st1" d="M64,165.1c1.7-1.9,3.2-3.8,4.9-5.5c0.3-0.3,1.2-0.2,1.7-0.2c5.8,0.6,11.6,1.4,17.4,2v2.1v2.1
	c-8.1,0.1-15.6,0.1-23.7,0.1L64,165.1z"/>
<path class="st1" d="M138.5,165.6h-25.3v-4.1c2.5-0.1,4.9-0.1,7.3-0.4c3.3-0.2,6.5-0.6,9.7-1.2c2.3-0.5,4-0.3,5.2,1.7
	C136.4,163.1,137.1,164.4,138.5,165.6z"/>
<path class="st1" d="M29.3,51.3H10.5H9.9c2.2-1.1,4.9-2.6,7.2-3.7C24,44.5,24,44.5,29,50.5C29.1,50.7,29.2,51,29.3,51.3z"/>
<path class="st1" d="M174.6,50.6c1.8-1.5,3.1-3.4,4.9-4.8c0.7-0.4,1.5-0.4,2.2-0.2c3.8,1.6,7.4,3.5,11,5.5H175L174.6,50.6z"/>
<path class="st2" d="M82.4,144.3h5.7v-6.1L82.4,144.3z"/>
<path class="st2" d="M119.2,144.8h-5.3v-5.4L119.2,144.8z"/>
</svg>
