<svg xmlns="http://www.w3.org/2000/svg" viewBox="0 0 200 200"><linearGradient id="a" x1="82.7" x2="82.7" y1="195" y2="5" gradientUnits="userSpaceOnUse"><stop offset="0" stop-color="#966fe7"/><stop offset="1" stop-color="#00d18f"/></linearGradient><path fill="url(#a)" d="M140.4 153.4c-11.2 8.5-25.3 13.6-40.4 13.6-36.9 0-67-30.1-67-67s30.1-67 67-67c14.6 0 28.2 4.7 39.2 12.7l19.6-20.4C142.6 12.6 122.2 5 100 5 47.5 5 5 47.5 5 100s42.5 95 95 95c22.9 0 44-8.1 60.4-21.6l-20-20z"/><path fill="#283947" fill-rule="evenodd" d="M115.2 101.2c-.9-2.7-2.5-5.1-4.6-6.9l-.8-.7c-.3-.2-.8-.6-.8-.6l-.9-.6c-.3-.2-.9-.5-.9-.5-.3-.1-.9-.4-1-.4-.3-.1-.5-.2-.8-.3-.7-.3-1.4-.5-2.2-.6-.6 1.1-1.4 2.1-2.2 3 1.4.1 2.7.4 3.9.9.7.3 2.1 1.1 2.1 1.1.2.1.3.2.5.4.1 0 .8.7.9.8.1.1.7.6.7.6l.6.6c.1.1.2.3.3.4l.3.3s.4.6.5.8c0 0 .4.7.5.8.1.1.4.7.4.8 0 .1.3.8.4.9.4.9.6 1.8.7 2.9l.4 1.6c.2.7 1.8 6.4 5.4 8.3 4.2 2.2 9.8 5 12 6.1l-28.9 17.6v-12.1c0-1.9 3.7-4.2 5.4-4.9 0 0 .8-.4 1.1-.6 0 0 1.6-1.1 2.2-1.7l.4-.4.7-.7c.2-.2.7-.8.8-.9.2-.2.6-.8.6-.8s.6-.8.6-.9c.2-.4.4-.8.7-1.1-.9-1.1-1.5-2.2-2.1-3.3-.2.7-.5 1.3-.8 1.9-.1.3-.5.9-.5.9-.1.2-.5.8-.6.8-.1.2-.5.7-.6.7-1.1 1.2-2.3 2.2-3.8 3l-.3.1c-.7.3-7.2 3.3-7.2 7.8v12.1l-29-17.6c1.9-1.2 7.3-4.5 11.8-5.9 1.8-.6 5.5 1.8 7.6 3.6 0 0 .7.7 1 .9 0 0 1.4 1.2 2.2 1.6l.6.3c.5.3 1 .5 1.5.7.1 0 1.9.6 2.6.8.6-1.1 1.4-2.1 2.3-3-1.3-.1-2.5-.4-3.6-.8 0 0-1-.5-1.1-.5-.9-.4-1.7-.9-2.4-1.6l-1.1-1.1s-1.4-1.3-3.4-2.5c-2.9-1.7-5.3-2.2-7.1-1.6-3.8 1.3-8.2 3.6-10.8 5.2l28.9-53v23.2c0 .8-1.2 3-5.2 4.8l-1.5.8c-.7.4-1.4 1-2.2 1.6l-1.2 1.2s-.8.9-1.1 1.3l-1 1.5-.8 1.6c-.1.2-.7 1.7-.7 1.7 0 .2-.4 1.2-.4 1.4 0 .1-.1.6-.2.8 0 .1-.3 1.6-.3 1.8v1.2c0 .8 0 1.7.2 2.4 1.1.3 2.3.8 3.6 1.4-.4-1.2-.5-2.4-.6-3.6 0 0 .1-1.8.1-2.1 0 0 .2-1.1.2-1.2 0-.2.2-.8.2-.8s.3-.9.4-1c.1-.2.6-1.3.7-1.5 0 0 .8-1.3 1-1.6 0 0 .4-.5.5-.7 0 0 1.8-1.8 2.8-2.5l1.4-.7c.7-.3 7.2-3.4 7.2-7.9V63.7l29.2 53.4c-2.6-1.3-7.2-3.6-10.8-5.5-2.1-1.1-3.4-4.9-3.8-6.3l-.4-1.6c.1-.8-.1-1.6-.4-2.5zM135 118l-32.2-58.8c-.6-1.1-1.6-1.7-2.8-1.7-1.2 0-2.2.6-2.8 1.7L65 118c-.8 1.5-.4 3.5 1.1 4.4L98.3 142c.5.3 1.1.4 1.7.4.6 0 1.1-.1 1.7-.4l32.2-19.6c1.4-.9 2-2.8 1.1-4.4z" clip-rule="evenodd"/></svg>