<?xml version="1.0" encoding="utf-8"?>
<!-- Generator: Adobe Illustrator 22.1.0, SVG Export Plug-In . SVG Version: 6.00 Build 0)  -->
<svg version="1.0" id="Livello_1" xmlns="http://www.w3.org/2000/svg" xmlns:xlink="http://www.w3.org/1999/xlink" x="0px" y="0px"
	 viewBox="0 0 200 200" style="enable-background:new 0 0 200 200;" xml:space="preserve">
<style type="text/css">
	.st0{fill:#CC1E46;}
</style>
<g>
	<path class="st0" d="M90.4,5.5c18.7-1.9,37.9,1.8,54.4,10.7c10,5.3,18.9,12.4,26.4,20.8c12.7,14.2,20.9,32.4,23.2,51.3
		c2.2,17.6-0.6,35.7-8.1,51.7c-5.5,11.8-13.4,22.4-23.2,31.1c-14.2,12.7-32.4,20.8-51.3,23.1c-17.4,2.2-35.4-0.6-51.3-8
		c-11.9-5.4-22.5-13.3-31.2-23C14.6,147.1,6,125.8,5.1,104.1c-0.8-17,3.2-34.2,11.3-49.2C22.3,44,30.3,34.3,39.9,26.4
		C54.2,14.7,72,7.4,90.4,5.5 M75.2,59.9c-4.2-5.5-10.6-9.5-17.6-9.8c-7.3-0.4-14.5,3-19.3,8.5c-3.6,4.2-5.4,9.7-5.4,15.2
		c0,10.5,0,20.9,0,31.4c-0.1,1.4,1.1,2.4,2.4,2.2c29.6,0.1,59.3-0.1,88.9,0.1c-0.1,6.5,0,13,0.5,19.4c-8.5,6.2-18.4,10.5-28.7,12.1
		c-1.3,0.3-3.6-0.1-3.9,1.8c-0.1,3.5,0,7-0.1,10.4c-0.2,1.2,0.8,2.5,2,2.5c12.5-1,24.7-5.6,34.7-13.2c3.7,4.8,9,8.6,15.1,9.5
		c8.6,1.5,17.7-2.6,22.9-9.6c3.3-4.4,4.4-10,4.4-15.4c0-9.9,0.1-19.9-0.1-29.8c0.1-1.6-1.4-2.4-2.8-2.3c-29.5-0.1-59.1,0-88.6,0
		c-0.2-5.9,0.3-11.7-0.4-17.6c-0.1-0.8-0.3-1.9,0.6-2.4c9.1-6.2,19.5-10.7,30.4-11.9c1.2,0,1.7-1.4,1.7-2.4c0-3.3,0.1-6.7,0-10
		c0-1.4-1.3-2.2-2.6-1.9C97,47.8,85,52.5,75.2,59.9z"/>
	<path class="st0" d="M44.8,75.6C44.9,70,50,65.1,55.7,65.3c5.8-0.1,10.9,5,11.1,10.7c0.1,6,0,12,0,18c-7.3,0.2-14.6,0.1-22,0.1
		C44.8,87.9,44.8,81.7,44.8,75.6"/>
	<path class="st0" d="M138.1,107c7.3,0,14.6,0,21.9,0c0.1,5.9,0,11.7,0,17.6c0,4.5-2.7,8.9-7,10.5c-4.6,1.8-10.2,0-13-4
		c-1.4-1.9-2.1-4.2-2-6.5C138,118.7,138,112.9,138.1,107"/>
</g>
</svg>
