<?xml version="1.0" encoding="utf-8"?>
<!-- Generator: Adobe Illustrator 21.0.0, SVG Export Plug-In . SVG Version: 6.00 Build 0)  -->
<svg version="1.1" id="Layer_1" xmlns="http://www.w3.org/2000/svg" xmlns:xlink="http://www.w3.org/1999/xlink" x="0px" y="0px"
	 viewBox="0 0 200 200" style="enable-background:new 0 0 200 200;" xml:space="preserve">
<style type="text/css">
	.st0{fill:#F8A400;}
	.st1{fill:#111111;}
</style>
<g>
	<g>
		<g>
			<g>
				<path class="st0" d="M80.9,74.5c-23.5,0-42.5,19.1-42.5,42.5c0,23.5,19.1,42.5,42.5,42.5c23.5,0,42.5-19.1,42.5-42.5
					C123.4,93.5,104.4,74.5,80.9,74.5z M80.9,138.2c-11.8,0-21.3-9.5-21.3-21.2c0-11.8,9.5-21.2,21.3-21.2s21.3,9.5,21.3,21.2
					S92.6,138.2,80.9,138.2z"/>
			</g>
		</g>
		<g>
			<g>
				<path class="st1" d="M161.7,51.1c0-5.9-4.8-10.6-10.6-10.6s-10.6,4.8-10.6,10.6v29.1c-6.2-3.6-13.5-5.7-21.3-5.7
					c-23.5,0-42.6,19-42.6,42.5c0,23.4,19.1,42.5,42.6,42.5s42.6-19.1,42.6-42.5c0-0.5,0-0.9-0.1-1.4c0-0.2,0.1-0.5,0.1-0.7V51.1z
					 M119.2,138.2c-11.8,0-21.3-9.5-21.3-21.2c0-11.8,9.5-21.2,21.3-21.2s21.3,9.5,21.3,21.2C140.4,128.7,130.9,138.2,119.2,138.2z"
					/>
			</g>
		</g>
		<g>
			<g>
				<path class="st0" d="M80.9,74.5c-23.5,0-42.6,19-42.6,42.5h21.3c0-11.8,9.5-21.2,21.3-21.2s21.3,9.5,21.3,21.2h21.3
					C123.4,93.5,104.4,74.5,80.9,74.5z"/>
			</g>
		</g>
	</g>
</g>
</svg>
