<svg xmlns="http://www.w3.org/2000/svg" id="图层_1" x="0" y="0" version="1.1" viewBox="0 0 200 200" xml:space="preserve"><style>.st0{fill:#5994f2}</style><path d="M73.5 156.6L33.7 89.5v-.2l-17.8-9.1v75l17.8 9.2v-47.1l39.8 67.1 17.8 9.2v-75.1l-17.8-9.1zM183.8 93.7V80l-76 38.5v44.4l58.2-29.5v17.2l-58.2 29.5v13.6l76-38.4v-44.5l-58.3 29.5v-17.2z" class="st0"/><path fill="#2060f4" d="M183.5 62.5V47.4L98.9 3.7s-61.5 31-67.1 33.9c5.4 2.7 10.8 5.4 16.2 8.2L98.9 20l67.3 35-67.3 32.9S21 48.5 15.6 45.8h-.1v16.3c10.5 5.3 79.9 40.4 83.4 42.1l84.6-41.7z"/></svg>