<svg xmlns="http://www.w3.org/2000/svg" viewBox="0 0 200 200"><radialGradient id="a" cx="100" cy="100" r="90.8971" gradientTransform="matrix(1 0 0 -1 0 200)" gradientUnits="userSpaceOnUse"><stop offset="0" stop-color="#0a57a4"/><stop offset=".15" stop-color="#0b4896"/><stop offset=".43" stop-color="#0f2374"/><stop offset=".75" stop-color="#10004c"/></radialGradient><path fill="url(#a)" d="M101 99.7l85.6 47.7-86.5 47.6h-.2l-86.5-47.6 85.4-47.7-85.4-47.1L99.9 5h.2l86.5 47.6L101 99.7z"/><linearGradient id="b" x1="13.4" x2="98.8" y1="100" y2="100" gradientTransform="matrix(1 0 0 -1 0 200)" gradientUnits="userSpaceOnUse"><stop offset=".16" stop-color="#10004c"/><stop offset=".45" stop-color="#0e236f"/><stop offset=".81" stop-color="#0b4895"/><stop offset="1" stop-color="#0a57a4"/></linearGradient><path fill="url(#b)" d="M98.8 99.7l-85.4 47.7V52.6l85.4 47.1z"/><linearGradient id="c" x1="101" x2="186.6" y1="100" y2="100" gradientTransform="matrix(1 0 0 -1 0 200)" gradientUnits="userSpaceOnUse"><stop offset="0" stop-color="#0a57a4"/><stop offset=".19" stop-color="#0b4895"/><stop offset=".55" stop-color="#0e236f"/><stop offset=".84" stop-color="#10004c"/></linearGradient><path fill="url(#c)" d="M186.6 52.6v94.8L101 99.7l85.6-47.1z"/><radialGradient id="d" cx="326.29" cy="69.7889" r="78.4361" gradientTransform="matrix(-1 0 0 -1.03 426.29 196.2741)" gradientUnits="userSpaceOnUse"><stop offset=".15" stop-color="#f5ebd7"/><stop offset=".27" stop-color="#ecd270"/><stop offset=".39" stop-color="#ce932d"/><stop offset=".46" stop-color="#bc6d05"/></radialGradient><path fill="url(#d)" d="M100 194.9c-1.3-1.3 5.7-64.8-35.8-106.2-20.4-20.4-50.7-36.2-50.8-36-.1.2 16.8 7.8 81.4 44.5 3.2 1.8 7.2 1.8 10.5 0 64.6-36.7 81.4-44.3 81.3-44.5s-30.3 15.5-50.7 36c-41.6 41.4-34.6 104.9-35.9 106.2z"/><radialGradient id="e" cx="102.8123" cy="93.0945" r="95.4576" gradientTransform="matrix(.98 0 0 -.99 -.4605 192.4653)" gradientUnits="userSpaceOnUse"><stop offset="0" stop-color="#f5ebd7"/><stop offset=".47" stop-color="#ecd375"/><stop offset=".89" stop-color="#ecd270"/><stop offset=".89" stop-color="#eacd6b"/><stop offset=".93" stop-color="#d49f3e"/><stop offset=".96" stop-color="#c47e1d"/><stop offset=".98" stop-color="#ba6909"/><stop offset="1" stop-color="#b76202"/></radialGradient><path fill="url(#e)" d="M100 198.4l-88.9-49.1V50.7L100 1.6l88.9 49.1v98.5L100 198.4zm-82.9-52.7l82.9 45.8 82.9-45.8V54.3L100 8.5 17.1 54.3v91.4z"/><radialGradient id="f" cx="146.8965" cy="146.5748" r="16.2242" gradientTransform="matrix(.64 0 0 -.6298 5.391 165.2409)" gradientUnits="userSpaceOnUse"><stop offset=".18" stop-color="#f5ebd7"/><stop offset=".75" stop-color="#ecd270"/><stop offset=".79" stop-color="#eace6c"/><stop offset=".84" stop-color="#e5c260"/><stop offset=".89" stop-color="#dbaf4b"/><stop offset=".94" stop-color="#cf942e"/><stop offset=".99" stop-color="#be710a"/><stop offset="1" stop-color="#bc6d05"/></radialGradient><radialGradient id="g" cx="146.8944" cy="146.574" r="16.3457" gradientTransform="matrix(.64 0 0 -.63 5.391 165.2761)" gradientUnits="userSpaceOnUse"><stop offset=".18" stop-color="#f5ebd7"/><stop offset=".59" stop-color="#ecd270"/><stop offset="1" stop-color="#bc6d05"/></radialGradient><ellipse cx="100" cy="72.7" fill="url(#f)" stroke="url(#g)" stroke-width=".25" rx="10.5" ry="10.2"/></svg>