<svg xmlns="http://www.w3.org/2000/svg" viewBox="0 0 200 200"><path fill="#fff" d="M179.1 70.4c0-2.9-1.1-5.1-3.4-6.8-6.1-4.4-12.2-8.9-18.3-13.3-17.6-12.9-35.2-25.7-52.8-38.6-3-2.2-5.8-2.3-8.7-.3-24 17.5-47.9 35-71.9 52.5-2.1 1.5-3 3.4-3 6v60.2c0 2.5 1 4.4 3 5.9 24 17.5 47.9 35 71.9 52.5 2.9 2.1 5.7 2 8.5 0 23.8-17.4 47.6-34.8 71.4-52.1 2.3-1.7 3.4-3.8 3.4-6.6-.2-19.9-.2-39.6-.1-59.4z"/><path d="M183.5 68.8c0-3.1-1.1-5.3-3.6-7.1-6.5-4.6-12.9-9.4-19.3-14.1-18.7-13.6-37.3-27.2-55.8-40.8-3.2-2.3-6.2-2.5-9.2-.3C70.3 25 45 43.5 19.7 61.9c-2.2 1.6-3.2 3.6-3.2 6.3v63.6c0 2.6 1 4.7 3.1 6.2 25.3 18.5 50.6 36.9 75.9 55.4 3 2.2 6 2.2 9 0 25.1-18.3 50.3-36.7 75.4-55 2.4-1.8 3.6-4 3.5-7 0-20.9 0-41.8.1-62.6zm-11.2-1.6L175 72c.1.1 0 .2.1.5-3 .8-3.4.6-4.8-1.8-1-1.8-2.1-3.6-3.1-5.4 3.1-.9 3.7-.7 5.1 1.9zM157.6 57h3.4v12.1h-3.4V57zm3.6 18.9c.4.3.4 2.3-.1 2.7-.6.5-2.4.7-2.9.2-.7-.7-.6-2.1-.9-3.7 1.6.3 2.9.3 3.9.8zm4.6 8.3v3.3h-16.7v-3.3h16.7zm-15.4-8.7c-3.3.3-3.3.3-4.1-2.7-.7-2.5-1.6-5-2.1-7.5-.4-1.7-1.2-2.2-2.9-1.7-1.1 4-2.2 8-3.4 12h-3.5c1.4-4.9 2.8-9.8 4.2-14.6 0 0 0-.1.1-.2.2-.4.8-.6 1.2-.9.1-.1.3 0 .4 0 1 0 2-.1 3-.2.7 0 1.3 0 1.8.2.2.1.3.1.5.2 1.2.9 1.3 3.3 1.8 5 1 3.2 1.9 6.5 2.8 9.7.2.4.2.5.2.7zm-1.8 31.3V120h-3.3v-13.2h3.3zM113 77.6c0 3.1-.4 3.4-3.6 2.5V68.2c.7 0 1.2-.1 1.7-.1 1.5-.2 2 .3 2 1.9-.2 2.5-.1 5.1-.1 7.6zm-.3 35.5h-3.3v-3.3c3.4-.9 4.1-.2 3.3 3.3zm-1.5 4.1c.7-.4 2.3.7 3.5 1.1 0 .2 0 .4-.1.6-3.2 2-6.3 4.1-9.5 6.1 0 .1.1.2.1.3h14.3c.1.6.1 1.1.2 1.6.2 1.6-.3 2.2-2.1 2.2-6-.1-12 0-18-.1-.7 0-1.9-.4-1.9-.7 0-1.1 0-2.8.7-3.3 4.3-2.7 8.5-5.4 12.8-7.8zm5.5-10.9c.5-.6 2.1-.3 3.2-.3v3.6h-3.7c.1-1.1-.2-2.6.5-3.3zm.9-10.8v-9.9c0-2.1 1-3.1 3.2-3.1h3.3v3.3c-1 .1-1.8.2-2.8.2v9.1h14.4v3.4c-.6 0-1.1.1-1.6.1h-13.2c-2.2 0-3.3-1.1-3.3-3.1zm5.1-22.6v-3.3h3.4v3.3h-3.4zm6.2 33.4h11.7v3.6h-10.8c-.3 0-.8-.7-.8-1.2-.2-.7-.1-1.5-.1-2.4zm7.4-18.8v-3.3h3.5v3.3h-3.5zm-5.9-39.3h18.3v3.5h-18.3v-3.5zm-2.1-3.6c-1.1 0-2.5.4-3.2-.1-.6-.5-.4-2-.5-3.3h3.7v3.4zm-12.1-13.1h10.2V35h-10.2v-3.5zm-7.1 7c2.6-.9 3.3-.6 4.7 1.5 2.4 3.9 4.9 7.7 7.4 11.6 1.7 2.7 1.8 3.4 1.2 7.4-.7-.7-1.3-1.2-1.7-1.8-2.5-3.9-5.1-7.9-7.9-11.8v14.4h-3.6V38.5zm.1 53.3v9.7c0 2.1-1.1 3.2-3.3 3.2h-3.3v-3.4c1-.1 1.9-.1 2.9-.2v-9H91.3v-3.6H106c2 .1 3.2 1.3 3.2 3.3zm-46 20.3h1.9v3.6H48.7l-.3-1.2c-.3-1.7.2-2.5 2.2-2.4 4.2.1 8.4 0 12.6 0zm-12-6.7c1.5-5.2 3-10.4 4.4-15.5 2.5 0 5.2-.8 6.7.2 1.4 1 1.6 3.8 2.2 5.8 1 3.1 1.8 6.3 2.8 9.6h-3.5c-1.1-4-2.3-8-3.4-12.1H58c-1.1 4-2.2 7.9-3.4 12h-3.4zm12 37.3c3.2-2 6.3-4 9.5-6 2.6-1.7 2.6-1.7 5.3.7-3.2 2-6.3 4-9.4 6.1 0 .1.1.3.1.4h11.4c3.3 0 3.3 0 3 3.6H61.6c-.9-2.7-.6-3.3 1.6-4.8zm8.6-12.8v-3.3h3.6v3.3h-3.6zm7.2-23.7v14.4h-3.6V99.1c2.2-.7 3.7-.1 4.9 2 2.2 3.9 4.6 7.6 7.2 11.3 1.6 2.2 1.6 4.4 1.3 7.5-.9-.8-1.5-1.3-1.9-1.8-2.5-4-5-8-7.9-11.9zm0-23V80h16.7v3.2H79zm11.2 49.1h3.3v14.3h-3.3v-14.3zm2.3-22.1c-.1-2.8 0-5.5 0-8.2.3-.2.5-.3.6-.3 3.2-.2 3.2-.2 3.2 2.9v5.9c0 .1-.1.2-.2.6-.8 0-1.6.1-2.5 0-.5-.1-1.1-.6-1.1-.9zm1.8-76.7c2.8-.8 4.5-.1 5.5 2.5.7 1.7 1.7 3.2 2.6 4.8-2.9.9-3.6.7-4.9-1.6-1-1.9-2.1-3.7-3.2-5.7zm1 10.5v3.3h-3.5V44h3.5zm4.6 39.2V80h3.5v3.2h-3.5zm-8.2-62.8c.3-.9 1.6-1.9 2.4-2 3.7-.2 7.4-.3 11.1 0 .9.1 2.4 1.5 2.4 2.4.3 3.7.1 7.5.1 11.4h-3.5V22h-9c-.2 1-.2 2.2-.7 2.7-.5.5-1.8.2-3 .3 0-1.6-.2-3.2.2-4.6zm-3.5 47.2h9V53.2h3.4c0 .5.1 1.1.1 1.6V68c0 2-1.1 3.2-3.1 3.2h-10c-2.2 0-3.1-.9-3.1-3.1v-3.3c3.5-.5 3.5-.5 3.7 2.8zm-4.9-42.4c.9 0 2-.4 2 1.2v3.1c0 3.9.1 12.2 0 12.4h-3.7V26.5c0-1.3.8-1.3 1.7-1.3zm-4.5 32c2-3.1 3.9-5.9 5.8-8.7.2 2.5 1 4.9-.8 7.2s-3.2 4.8-4.9 7.4c-2-3-4.1-5.7-5.6-8.8-.8-1.6-.4-3.7-.6-5.5.1-.1 4.1 5.4 6.1 8.4zm.4 31.4V92H70v-3.3c.4-.1.7-.1 1-.1h8.2zM71 71h-3.4v-8.6H71V71zm-8.6-25h-4v-3.5h11.2c.5 2.1.2 3.6-1.9 4.7-2.6 1.4-5.1 3.1-7.6 4.7-2.8 1.8-2.8 1.8-5.5-.6 2.7-1.7 5.3-3.3 8-5-.2-.1-.2-.2-.2-.3zm-9.1 16.1h3.3v3.5h-3.3v-3.5zm6.1 11.1c1.5-.7 3.5-.1 5.8-.1-3.1 2-5.9 3.9-8.9 5.8 3 2 5.8 3.8 9 5.9-3.1.2-5.7.5-8-1.4-2.1-1.7-4.4-3-6.8-4.5 3-2 5.8-4.2 8.9-5.7zM33.4 62h14.3c2.5 0 2.5 0 2.5 2.5 0 .3 0 .6-.1 1.1H33.4V62zM23 76.1h19c.6 3.2.6 3.2-2 4.9-1.3.8-2.6 1.6-3.9 2.5-2.7 1.7-2.7 1.7-5.4-.6 1.5-1 2.9-2 4.8-3.2H23v-3.6zm9.2 22.3v3.2h-3.4c-.8-3.3-.4-3.8 3.4-3.2zm8.8 30c-.2.5-.8 1.2-1.2 1.2-4.8.1-9.6.1-14.4 0-1.5 0-2.5-1.1-2.5-2.6-.1-3.6 0-7.3 0-10.9 0-1.7 1-2.6 2.6-2.6h3.6c.7 3.1.6 3.2-2.6 3.6v9.1H41c0 .8.2 1.5 0 2.2zm.2-33.6h3.5v12.1h-3.5V94.8zm10.9 53.1c-2.5-.2-4.9 0-7.6 0v-3.6h9.6c.1.5.1.9.2 1.2.3 1.7-.2 2.5-2.2 2.4zm3.2-10.2c-2-3-4.2-5.8-5.7-8.9-.8-1.5-.4-3.7-.6-5.5.2-.1 4.3 5.5 6.3 8.6 2-3 3.8-5.8 6-9.1.2 3.4.4 6-1.6 8.5-1.7 1.9-2.9 4.1-4.4 6.4zm7.8 19.8h-3.3v-3.3h3.3v3.3zm4 2.2h15.2v3.5H67.1v-3.5zm21.8 17.6c-3.2.5-3.2.5-4.7-2.1-1-1.8-2-3.5-3-5.3 2.8-1 3.7-.7 5 1.8.9 1.7 1.8 3.3 2.7 5 .1.2 0 .4 0 .6zm12.9 8.9h-3.6v-8.6c.8 0 1.7-.2 2.5-.1.4 0 1 .5 1 .8.1 2.7.1 5.3.1 7.9zm2.7-20.5c0 2-1.1 3-3.1 3h-1c-2.9 0-3.2-.4-2.3-3.5.8-.1 1.7-.1 2.7-.2v-9H86.5v-3.3c.6-.1 10.4-.2 14.7-.1 2.2 0 3.3 1.1 3.3 3.2v9.9zm-1.2-24c-1-1.8-2-3.6-3.1-5.5 3.8-.5 3.8-.5 5.4 2.4l2.7 4.8c-3.3.9-3.6.8-5-1.7zm6.8 35.5c-.5.5-2.3.3-2.9-.2-.5-.4-.5-2.5-.1-2.7.9-.6 2.3-.5 4-.7-.4 1.6-.3 3-1 3.6zm2.5-26.3c1.4-4.9 2.8-9.9 4.3-14.8.1-.4.7-.6 1.1-.8h.2c6-.5 6-.5 7.5 5.2 1 3.4 1.9 6.8 2.9 10.4-3.3.3-3.3.3-4.2-2.6-.9-3.1-1.8-6.2-2.6-9.3-1.8-.7-2.6.1-3 1.8-.5 2.5-1.3 5-2 7.5-.7 2.9-.7 2.9-4.2 2.6zm9.9 13.4h4.4v3.5h-11.4c-.8-2.7-.6-3.2 1.6-4.6 3.2-2 6.3-4 9.5-6 2.8-1.8 2.8-1.8 5.6.5-3.3 2.1-6.5 4.1-9.7 6.2-.1.1-.1.3 0 .4zm13.6-35.9c.1-2.9 0-5.8 0-9H127c-.1 1-.1 1.8-.2 2.9h-3.5c0-1.3-.3-2.8.1-4.1.3-1.4 1.3-2.4 3-2.4h10.2c1.8 0 3.1 1.3 3.1 3.1v9.6c0 1.5-.8 1.4-1.8 1.5-1-.1-1.8-.2-1.8-1.6zm11.8 20.2c-1.7 2.1-3 4.5-4.7 7-2-3.1-4.2-5.9-5.7-9-.7-1.5-.3-3.6-.4-5.4.2 0 4.1 5.4 6.2 8.5 2-3.1 3.9-5.9 6.1-9.2 0 3.2.3 5.8-1.5 8.1zm10.1-7.8c-.8.6-2.1.5-3.4.8v-4.1c1.3.2 2.6.1 3.4.7.4.3.4 2.2 0 2.6zm14.1-12.5h-21.4c-.7-2.9-.6-3.3 1.7-4.8 3.1-2 6.2-3.9 9.4-5.9 2.7-1.7 2.7-1.7 5.5.5-3.2 2.1-6.4 4.1-9.5 6.1 0 .1 0 .3.1.4h11.5c3.3.1 3.4.3 2.7 3.7zm1.6-13.9V98h-9.1c-.1 1-.1 1.8-.2 2.8h-3.7c.3-1.9.5-3.6 1-5.3.2-.5 1.4-1 2.2-1 3.4-.1 6.9-.1 10.3 0 1.6 0 2.8 1.2 2.8 2.7v16.4c0 .2-.1.5-.2.8h-3.1z"/></svg>