<svg id="Raw" xmlns="http://www.w3.org/2000/svg" viewBox="0 0 150 111.8"><style></style><path d="M136.4 9.6h6.4v13.2h-6.4c-7.5 0-14.7-1.9-21.9-3.8-11.7-3-23.4-6.4-34.3 2.3l-4.1 3.4-4.1-3.4c-11.3-9-23.7-5.7-35.8-2.6-5.3 1.5-10.6 3-15.8 3.4v72.4c4.1-.8 8.3-1.9 12.4-3 13.9-3.8 27.9-7.5 42.6 1.9 14.7-9.4 28.6-5.7 42.2-1.9 4.1 1.1 8.3 2.3 12.1 2.6V50.3c-5.3-.8-10.2-1.9-15.1-3.4-11.7-3-23.4-6.4-34.3 2.3l-4.1 3.4-4.2-3.5c-10.9-8.7-22.6-5.7-34.3-2.3-2.3.8-4.5 1.1-7.2 1.9V35.2c1.1-.4 2.6-.8 3.8-1.1 13.6-3.8 27.5-7.5 41.8 1.9 14.3-9.4 28.3-5.7 41.8-1.9 6.4 1.9 12.4 3.4 18.5 3.4h6.4v70.1h-6.4c-7.5 0-14.7-1.9-21.9-3.8-12.1-3.4-23.7-6.4-35.1 2.3l-4.1 3.4-4.1-3c-11.3-9-23.4-5.7-35.4-2.3-7.2 1.9-14.7 3.8-22.2 3.8H7.2V9.6h6.4c6 0 12.8-1.9 19.2-3.4 14.3-3.8 28.3-7.5 43.3 1.9 14.3-9.4 28.3-5.7 41.8-1.9 6.5 1.5 12.5 3.4 18.5 3.4z" fill="#f47b2e"/></svg>