<?xml version="1.0" encoding="utf-8"?>
<!-- Generator: Adobe Illustrator 22.1.0, SVG Export Plug-In . SVG Version: 6.00 Build 0)  -->
<svg version="1.0" id="Livello_1" xmlns="http://www.w3.org/2000/svg" xmlns:xlink="http://www.w3.org/1999/xlink" x="0px" y="0px"
	 viewBox="0 0 200 200" enable-background="new 0 0 200 200" xml:space="preserve">
<path fill="#5F2652" d="M181.1,143.4c-0.1,2.7-1.4,4.9-3.6,6.4c-3.6,2.2-7.3,4.3-10.9,6.6c-19.6,11.8-39.3,23.5-58.9,35.3
	c-0.9,0.5-1.9,0.9-2.8,1.2c-2,0.5-3.9,0.1-5.7-0.9c-5.5-3.4-11.2-6.8-16.8-10c-17.8-10.7-35.7-21.4-53.5-32
	c-2.3-1.4-3.6-3.2-3.9-5.8c-0.1-1.5,0.3-3,0.9-4.2c2.7-5,5.5-9.9,8.2-14.9C54.7,87.8,75.4,50.7,96.2,13.5c0.1-0.3,0.4-0.7,0.5-0.9
	c2.8-4.9,9.6-5,12.4,0c1.2,2,2.3,4.1,3.4,6.1C135,58.9,157.4,99.2,180,139.4C180.6,140.5,181.1,141.9,181.1,143.4z M170.1,137.6
	l0.1-0.1c-21.4-38.2-42.6-76.5-63.9-114.6c-0.1,0-0.1,0-0.3,0c0,0.4,0,0.8,0,1.2c0,15.9,0,31.8,0,47.7c0,2.8-0.8,5.3-2.4,7.6
	c-1.1,1.6-2.4,3-4.1,4.3c-2.7,2.3-5.8,4.2-9.1,5.7c-1.9,0.8-3.6,1.8-5.3,3c-3.5,2.7-6.2,6.2-8.2,10.1c-3,5.9-3.5,12.3-2.2,18.8
	c0.1,0.5,0.3,1.2,0.4,1.9c-0.3-0.1-0.5-0.1-0.7-0.1c-2.2-1.1-4.5-2-6.8-2.6c-0.5-0.1-0.7-0.4-0.7-0.9c-0.1-2.2-0.3-4.2-0.1-6.4
	c0.1-4.1,1.4-8,2.8-11.6c2.3-5.5,5.7-10.1,10.3-13.9c2.4-2,5.1-3.6,8-5c2.3-1.1,4.6-2.4,6.6-4.1c1.4-1.1,2.6-2.3,3.5-3.8
	c0.5-0.9,0.8-1.9,0.8-2.8c0-16.1,0-32,0-48.1c0-0.3,0-0.5,0-0.8c-0.3,0-0.3,0.1-0.4,0.3C77.7,60.9,56.8,98.6,35.8,136.3v0.1
	c0,0,0,0,0.1,0.1c0.3-0.1,0.5-0.3,0.8-0.4c2-1.1,4.1-2.3,6.1-3.2c5.1-2.7,10.5-5.1,16.1-7c2-0.7,3.9-0.8,6.1-0.4
	c2.4,0.4,4.7,1.2,7,2.2c4.6,2.2,8.6,5.3,12.4,8.6c3.9,3.6,8.6,5.8,13.9,6.6c0.8,0.1,1.5,0.3,2.6,0.4c-2.2,2-3.8,4.1-5,6.4
	c-0.3,0-0.3,0-0.4,0c-0.1,0-0.3,0-0.4-0.1c-5.9-1.5-11.4-4.1-15.9-8.2c-2.6-2.3-5.4-4.2-8.4-5.9c-2-1.1-4.1-2.2-6.2-2.7
	c-1.2-0.3-2.6-0.3-3.8,0.1s-2.6,0.9-3.8,1.4c-7.3,3-14.2,6.8-20.9,10.8c-0.1,0.1-0.3,0.3-0.5,0.4c21.2,12.7,42.4,25.3,63.8,38
	c0-0.7,0-1.1,0-1.5c0-8.1,0-16.1,0-24.2c0-2.4,0.7-4.6,1.9-6.5c1.2-1.9,2.7-3.5,4.5-5c2.8-2.3,5.9-4.2,9.2-5.7
	c6.8-3.1,11.6-8.1,14.5-15c0.1-0.3,0.3-0.5,0.4-0.9c0.8,1.4,1.5,2.6,2.2,3.6c0.8,1.2,1.6,2.3,2.4,3.5c-1.6,2.8-3.2,5.5-5.5,7.8
	c-3.1,3.2-6.8,5.8-10.8,7.8c-2,0.9-3.8,2.2-5.7,3.2c-1.6,1.1-3.1,2.3-4.3,3.8c-0.8,1.1-1.4,2.3-1.4,3.8c0,8,0,16.1,0,24.1
	c0,0.4,0,0.7,0,1.1c1.4-0.5,62.7-37.3,63.4-38c-0.4-0.3-0.8-0.4-1.2-0.5c-8.1-4.1-16.4-8.1-24.5-12.2c-1.8-0.9-3.4-2.2-4.7-3.5
	c-1.9-2-3.4-4.3-4.6-6.8c-2-3.9-3.2-8.1-4.2-12.6c-1.2-6.1-4.2-11.2-8.8-15.5c-3.6-3.5-8-5.8-13-6.9c-1.2-0.3-2.6-0.4-3.6-0.7
	c1.6-2,3.2-4.2,4.9-6.4c0.1,0,0.4,0,0.7,0.1c5.7,1.4,10.7,3.9,15.1,7.7c4.6,3.9,8,8.6,10.1,14.2c0.7,1.6,1.1,3.4,1.4,5.1
	c0.3,1.4,0.4,2.8,0.8,4.2c0.9,3.8,2.4,7.3,4.7,10.5c1.2,1.8,2.8,3.2,4.7,4.2c6.9,3.4,13.9,6.9,20.8,10.4
	C169.1,137.1,169.6,137.3,170.1,137.6z"/>
</svg>
