<?xml version="1.0" encoding="utf-8"?>
<!-- Generator: Adobe Illustrator 22.1.0, SVG Export Plug-In . SVG Version: 6.00 Build 0)  -->
<svg version="1.1" id="Livello_1" xmlns="http://www.w3.org/2000/svg" xmlns:xlink="http://www.w3.org/1999/xlink" x="0px" y="0px"
	 viewBox="0 0 200 200" style="enable-background:new 0 0 200 200;" xml:space="preserve">
<g>
	<g>
		<path d="M166.9,165.9c-0.5,0.5-1.2,0.5-1.7,0L4.5,6.7l162.4,157.5C167.4,164.6,167.4,165.4,166.9,165.9L166.9,165.9z"/>
	</g>
	<g>
		<path d="M176.8,155.9c-0.5,0.5-1.3,0.6-1.8,0.1L53.9,35.1l122.8,119.1C177.3,154.7,177.3,155.4,176.8,155.9L176.8,155.9z"/>
	</g>
	<g>
		<path d="M184.2,141.2c-0.5,0.5-1.3,0.5-1.8,0L66.3,25.2l117.9,114.3C184.7,139.9,184.7,140.7,184.2,141.2L184.2,141.2z"/>
	</g>
	<g>
		<path d="M191.7,128.7c-0.5,0.5-1.2,0.5-1.7,0L66.3,5.5L191.7,127C192.1,127.5,192.2,128.2,191.7,128.7L191.7,128.7z"/>
	</g>
	<g>
		<path d="M194.1,113.9c-0.5,0.5-1.3,0.5-1.8,0L98.5,19.5l95.6,92.7C194.6,112.7,194.6,113.5,194.1,113.9L194.1,113.9z"/>
	</g>
	<g>
		<path d="M191.7,91.6c-0.5,0.5-1.3,0.5-1.7,0l-71.7-72.9L191.7,90C192.1,90.4,192.2,91.2,191.7,91.6L191.7,91.6z"/>
	</g>
	<g>
		<path d="M157,175.8c-0.5,0.5-1.2,0.5-1.7,0L34.2,55L157,174.1C157.5,174.5,157.5,175.3,157,175.8L157,175.8z"/>
	</g>
	<g>
		<path d="M142.2,183.2c-0.5,0.5-1.3,0.5-1.8,0L19.4,62.4l122.8,119.1C142.7,181.9,142.7,182.7,142.2,183.2L142.2,183.2z"/>
	</g>
	<g>
		<path d="M127.4,188.2c-0.5,0.5-1.3,0.5-1.7,0L19.4,81.7l107.9,104.7C127.8,186.9,127.8,187.7,127.4,188.2L127.4,188.2z"/>
	</g>
	<g>
		<path d="M112.5,193.1c-0.5,0.5-1.3,0.5-1.8,0L16.9,98.6l95.6,92.7C113,191.8,113,192.6,112.5,193.1L112.5,193.1z"/>
	</g>
	<g>
		<path d="M90.2,190.6c-0.5,0.5-1.3,0.5-1.8,0l-71.6-72.8l73.3,71.1C90.7,189.3,90.7,190.1,90.2,190.6L90.2,190.6z"/>
	</g>
	<path d="M190.4,75.6l-52-52c0,0,17.3,5,34.7,22.3S190.4,75.6,190.4,75.6z"/>
	<path d="M24.7,139.9l52,52c0,0-17.3-5-34.7-22.3S24.7,139.9,24.7,139.9z"/>
</g>
</svg>
