<?xml version="1.0" encoding="utf-8"?>
<!-- Generator: Adobe Illustrator 16.0.0, SVG Export Plug-In . SVG Version: 6.00 Build 0)  -->
<!DOCTYPE svg PUBLIC "-//W3C//DTD SVG 1.0//EN" "http://www.w3.org/TR/2001/REC-SVG-20010904/DTD/svg10.dtd">
<svg version="1.0" id="Livello_1" xmlns="http://www.w3.org/2000/svg" xmlns:xlink="http://www.w3.org/1999/xlink" x="0px" y="0px"
	 width="566.93px" height="566.93px" viewBox="0 0 566.93 566.93" enable-background="new 0 0 566.93 566.93" xml:space="preserve">
<linearGradient id="SVGID_1_" gradientUnits="userSpaceOnUse" x1="88.3364" y1="88.6978" x2="477.5131" y2="477.8744">
	<stop  offset="0" style="stop-color:#56A9BC"/>
	<stop  offset="1" style="stop-color:#107FBA"/>
</linearGradient>
<path fill="url(#SVGID_1_)" d="M282.942,25.798c-143.002,0-259.045,115.518-259.045,257.403
	c0,141.868,116.263,257.397,259.045,257.397c143.007,0,259.055-115.529,259.055-257.397
	C541.997,141.316,425.724,25.798,282.942,25.798 M282.942,557.857C130.492,557.857,6.74,434.68,6.74,283.421
	C6.74,132.163,130.492,8.749,282.942,8.749c152.449,0,276.212,123.188,276.212,274.453
	C559.154,434.454,435.176,557.857,282.942,557.857"/>
<linearGradient id="SVGID_2_" gradientUnits="userSpaceOnUse" x1="165.6333" y1="200.562" x2="401.2552" y2="436.1839">
	<stop  offset="0" style="stop-color:#56A9BC"/>
	<stop  offset="1" style="stop-color:#107FBA"/>
</linearGradient>
<path fill="url(#SVGID_2_)" d="M241.431,300.945l42.474-129.286l43.254,129.286H241.431z M421.527,382.691l-35.161-96.535h20.992
	c8.349,0,15.183-6.835,15.183-15.183c0-7.969-6.45-14.426-14.415-14.426h-32.622l-5.798-14.987h37.316
	c8.345,0,15.069-6.886,15.069-14.708l0.012,0.23c0-8.353-6.782-15.126-15.127-15.126h-48.131l-26.498-72.187
	c-4.037-9.739-9.993-19.672-18.837-26.553c-7.886-7.06-18.647-9.926-29.606-9.926c-10.952,0-21.909,3.051-29.789,9.926
	c-7.886,6.881-14.799,15.669-18.837,26.553l-27.213,72.565h-48.218c-7.991,0-14.521,6.542-14.521,14.522
	c0,8.331,6.749,15.083,15.081,15.083h36.552l-5.635,14.608h-32.988c-8.002,0-14.55,6.548-14.55,14.55v0.136
	c0,8.239,6.684,14.923,14.917,14.923h21.511l-36.039,96.535c-2.114,4.004-3.078,9.926-3.847,17.19
	c0,7.827,4.032,15.656,9.995,21.579c6.921,5.919,14.997,8.775,23.833,8.775c14.801,0.968,28.64-8.969,32.679-23.667l13.841-41.261
	h127.621l13.83,42.21c4.038,13.749,17.891,23.483,32.678,22.536c5.764,0,10.761-1.15,15.759-4.016
	c4.038-3.046,8.074-6.88,10.964-10.873c3.066-4.783,4.039-10.706,4.039-15.68C424.402,393.575,423.444,387.652,421.527,382.691
	L421.527,382.691z"/>
<g>
</g>
<g>
</g>
<g>
</g>
<g>
</g>
<g>
</g>
<g>
</g>
</svg>
