<svg xmlns="http://www.w3.org/2000/svg" version="1" viewBox="0 0 200 200"><g fill="#CBA559"><path d="M7.4 98h15.4c1.2 0 2.2-.9 2.3-2.1 2.1-38.1 32.6-68.7 70.7-70.7C97.1 25 98 24 98 22.8V7.4c0-1.3-1.1-2.4-2.4-2.3-49 2.3-88.2 41.5-90.5 90.5-.1 1.3 1 2.4 2.3 2.4zM104.2 25.1c25.7 1.4 48 15.8 60.4 36.7.4.7 1.2 1.1 2 1.1H184c1.7 0 2.8-1.8 2.1-3.3-14.6-31.1-45.5-53-81.7-54.6-1.3-.1-2.4 1-2.4 2.3v15.4c0 1.3 1 2.3 2.2 2.4zM95.9 174.9c-38.1-2.1-68.7-32.6-70.7-70.7-.1-1.2-1.1-2.1-2.3-2.1H7.4c-1.3 0-2.4 1.1-2.3 2.4 2.3 48.9 41.5 88.2 90.5 90.5 1.3.1 2.4-1 2.4-2.3v-15.4c0-1.3-.9-2.3-2.1-2.4zM194.4 89c-.1-1.2-1.1-2-2.3-2h-44.3c-1.4 0-2.5 1.3-2.3 2.7l3.2 17.4c.2 1.1 1.2 1.9 2.3 1.9l20.9.1c1.4 0 2.5 1.3 2.3 2.7-5.4 34.5-34.4 61.2-69.9 63.1-1.2.1-2.2 1.1-2.2 2.3v15.4c0 1.3 1.1 2.4 2.4 2.3C154.8 192.6 195 151 195 100c0-3.7-.2-7.4-.6-11z"/><path d="M82.5 88.5c2-6 9.5-5.5 9.5-5.5h43.9c1.1 0 1.9-1 1.7-2.1-.6-3.4-1.9-10.3-2.6-13.9-.9-4.5-5.8-5.7-6.8-6H72c-6 0-7 5-7 5l-12.6 67.9c-.2 1.1.6 2.1 1.7 2.1h91.8c1.1 0 1.9-1 1.7-2.1l-8.8-45c-.2-.8-.9-1.4-1.7-1.4H90c-.8 0-1.6.6-1.7 1.4l-3.4 18.5c-.2 1.1.6 2.1 1.7 2.1h33.2c1 0 1.7.8 1.7 1.7v1.5c0 1-.8 1.7-1.7 1.7H79.5c-1.1 0-1.9-1-1.7-2 .8-5.1 3.1-19.1 4.7-23.9z"/></g></svg>