<?xml version="1.0" encoding="UTF-8" standalone="no"?>
<!DOCTYPE svg PUBLIC "-//W3C//DTD SVG 20010904//EN" "http://www.w3.org/TR/2001/REC-SVG-20010904/DTD/svg10.dtd">
<svg version="1.0" xmlns="http://www.w3.org/2000/svg" width="400.000000pt" height="398.000000pt" viewBox="0 0 400.000000 398.000000" preserveAspectRatio="xMidYMid meet">
<metadata>
Created by potrace 1.15, written by Peter Selinger 2001-2017
</metadata>
<g transform="translate(0.000000,398.000000) scale(0.100000,-0.100000)" fill="#000000" stroke="none">
<path d="M1830 3963 c-684 -70 -1259 -452 -1569 -1043 -152 -291 -221 -574 -222 -910 0 -323 63 -594 203 -875 93 -186 199 -334 348 -489 591 -612 1511 -772 2268 -396 225 113 371 219 548 401 636 656 731 1665 230 2429 -289 439 -742 749 -1246 849 -179 36 -409 50 -560 34z m328 -334 c135 -14 230 -35 350 -74 264 -88 466 -217 668 -427 234 -244 383 -549 434 -893 16 -103 16 -347 1 -450 -104 -694 -615 -1235 -1301 -1375 -136 -28 -344 -37 -491 -20 -702 76 -1268 592 -1421 1294 -19 87 -22 131 -22 326 0 195 3 238 22 323 77 347 231 622 482 860 342 325 816 487 1278 436z"/>
<path d="M1220 1975 l0 -805 790 0 790 0 0 160 0 160 -630 0 -630 0 0 645 0 645 -160 0 -160 0 0 -805z"/>
<path d="M1840 2620 l0 -160 485 0 485 0 0 160 0 160 -485 0 -485 0 0 -160z"/>
<path d="M1840 1981 l0 -159 26 -6 c14 -4 183 -6 375 -5 l349 1 0 164 0 164 -375 0 -375 0 0 -159z"/>
</g>
</svg>