<svg xmlns="http://www.w3.org/2000/svg" viewBox="0 0 200 200"><linearGradient id="a" x1="22.6957" x2="133.8626" y1="101.879" y2="101.879" gradientTransform="matrix(1 0 0 -1 0 200.98)" gradientUnits="userSpaceOnUse"><stop offset="0" stop-color="#d4d800"/><stop offset=".01" stop-color="#d0d702"/><stop offset=".1" stop-color="#b6cd10"/><stop offset=".19" stop-color="#a3c61b"/><stop offset=".28" stop-color="#98c121"/><stop offset=".38" stop-color="#94c023"/><stop offset=".46" stop-color="#89b924"/><stop offset=".61" stop-color="#6da827"/><stop offset=".8" stop-color="#3f8b2c"/><stop offset="1" stop-color="#076732"/></linearGradient><path fill="url(#a)" d="M98.7 135.7c-12.8 4.8-27.2 2.4-37.9-6.1l-.1-.1-.3-.3c-8.8-7.2-14.1-17.9-14.3-29.2v-1c-.1-21.5 17.4-39 39-39 8.1 0 16 2.5 22.6 7.2 8-3.1 16.9-5.8 26.2-7-11.9-14.9-29.8-23.5-48.8-23.5-34.4 0-62.4 28-62.4 62.4 0 8.3 1.6 16.5 4.8 24.1.3.6.5 1.2.8 1.8 3.2 7 7.7 13.3 13.1 18.6l.4.4c19 18.2 47.4 22.6 71 10.8-5.7-5.4-10.5-11.9-14.1-19.1z"/><linearGradient id="b" x1="5" x2="195.1912" y1="86.156" y2="86.156" gradientTransform="matrix(1 0 0 -1 0 200.98)" gradientUnits="userSpaceOnUse"><stop offset="0" stop-color="#d4d800"/><stop offset=".01" stop-color="#d0d702"/><stop offset=".1" stop-color="#b6cd10"/><stop offset=".19" stop-color="#a3c61b"/><stop offset=".28" stop-color="#98c121"/><stop offset=".38" stop-color="#94c023"/><stop offset=".46" stop-color="#89b924"/><stop offset=".61" stop-color="#6da827"/><stop offset=".8" stop-color="#3f8b2c"/><stop offset="1" stop-color="#076732"/></linearGradient><path fill="url(#b)" d="M24.2 129.1c-9.3 8-15 13.5-15.5 14-4.7 4.4-5 11.8-.6 16.5 4.4 4.7 11.8 5 16.5.6l.3-.3c.1-.1 5-4.8 13-11.7-5.4-5.7-10-12.2-13.7-19.1zm76.6-17.9c-.1.8-.1 1.8-.1 3.1 0 6.5 1.3 13 4 19 .2.4.4.8.5 1.2 2.4 5.1 5.8 9.8 9.9 13.8l.1.1c1.3 1.2 2.6 2.4 4 3.4 20.8 15.8 50.5 11.6 66.2-9.2s11.6-50.5-9.2-66.2c-10.2-8.3-23-11-38-9.7-7.7.7-16.9 2.9-25.8 6.1-13.4 4.8-27.1 11.5-43.1 22-5.6 3.7-11.1 7.5-16.2 11.3 1.5 8.4 5.8 14.9 12.8 19.5 5.2-3.8 8.9-6.4 16.2-11.3s58.3-36.4 80.5-18.9c5.8 4.5 9.3 11.5 9.4 18.8.1 13.2-10.8 24-24 24-4 0-8-1-11.5-3-7.6-4.3-12.3-12.3-12.3-21 0-5.4 2.1-10.8 5.6-15.2-10 2.6-19.5 6.9-29 12.2z"/></svg>