<?xml version="1.0" encoding="utf-8"?>
<!-- Generator: Adobe Illustrator 22.1.0, SVG Export Plug-In . SVG Version: 6.00 Build 0)  -->
<svg version="1.1" id="Livello_1" xmlns="http://www.w3.org/2000/svg" xmlns:xlink="http://www.w3.org/1999/xlink" x="0px" y="0px"
	 viewBox="0 0 200 200" style="enable-background:new 0 0 200 200;" xml:space="preserve">
<style type="text/css">
	.st0{filter:url(#Adobe_OpacityMaskFilter);}
	.st1{fill:#FFFFFF;}
	.st2{mask:url(#b_1_);}
</style>
<g>
	<g transform="translate(19.176 .163)">
		<defs>
			<filter id="Adobe_OpacityMaskFilter" filterUnits="userSpaceOnUse" x="73" y="18.8" width="105" height="117.7">
				<feColorMatrix  type="matrix" values="1 0 0 0 0  0 1 0 0 0  0 0 1 0 0  0 0 0 1 0"/>
			</filter>
		</defs>
		<mask maskUnits="userSpaceOnUse" x="73" y="18.8" width="105" height="117.7" id="b_1_">
			<g class="st0">
				<path id="a_1_" class="st1" d="M178,18.8H73v117.7h105L178,18.8z"/>
			</g>
		</mask>
		<path class="st2" d="M73,29.2c0-5.8,4.5-10.4,10.4-10.4h85.3c5.2,0,9.4,4.2,9.4,9.4c0,5.2-4.2,9.3-9.3,9.3c0,0,0,0,0,0H93.6v24.4
			H144c5.2,0,9.4,4.2,9.4,9.3c0,5.2-4.2,9.3-9.3,9.3c0,0,0,0,0,0H93.6v45.8c0,5.7-4.5,10.2-10.2,10.2c-5.9,0-10.4-4.5-10.4-10.2
			V29.2z"/>
	</g>
	<path d="M103.4,117.9H66.8v18.7h36.6c5.2,0,9.4-4.2,9.4-9.4C112.8,122.1,108.6,117.9,103.4,117.9
		C103.5,117.9,103.5,117.9,103.4,117.9"/>
	<path d="M60.1,136.6h36.6v-18.7H60.1c-5.2,0-9.4,4.2-9.4,9.4C50.7,132.5,54.9,136.6,60.1,136.6 M54,62.6H17.4v18.7H54
		c5.2,0,9.4-4.2,9.4-9.3C63.4,66.8,59.2,62.6,54,62.6C54.1,62.6,54.1,62.6,54,62.6"/>
	<path d="M12.9,81.3h36.6V62.6H12.9c-5.2,0-9.4,4.2-9.4,9.4C3.5,77.2,7.7,81.3,12.9,81.3 M103.4,168.2H66.8v18.7h36.6
		c5.2,0,9.4-4.2,9.4-9.3C112.8,172.3,108.6,168.2,103.4,168.2C103.5,168.2,103.5,168.2,103.4,168.2"/>
	<path d="M60.1,186.8h36.6v-18.7H60.1c-5.2,0-9.4,4.2-9.4,9.4C50.7,182.7,54.9,186.8,60.1,186.8"/>
</g>
</svg>
