<svg xmlns="http://www.w3.org/2000/svg" id="Layer_1" x="0" y="0" version="1.0" viewBox="0 0 200 200" xml:space="preserve"><style>.st1{fill:#fff}</style><path fill="#31cb9e" d="M142.5 142.8c-11.3 11.4-26.8 17.6-42.8 17.4-15.9.4-31.3-5.9-42.5-17.2-11.5-11.1-17.8-26.5-17.5-42.5-.5-16.2 5.8-31.9 17.4-43.3 11.1-11.4 26.5-17.7 42.5-17.4 16-.3 31.5 5.9 42.9 17.2 11.7 11.3 18.2 27 17.8 43.2.2 16.1-6.2 31.5-17.8 42.6z"/><path d="M73.6 82.6c0-1 .3-2.1.9-2.9.5-.7 1.1-1.3 1.8-1.7 5.5-4.4 11-8.9 16.4-13.2.6-.5 1.2-.9 2-.5s.8 1.2.6 2c-2.2 11-4.5 21.9-6.7 32.9-.2.9-.2 1.7 0 2.6 2.2 11 4.4 22 6.7 33 .3.7 0 1.5-.6 1.9s-1.4.2-1.9-.4c-5.6-4.5-17.4-14-17.6-14.3-.2-.2-.4-.5-.6-.7-.7-.9-1.1-2-1.1-3.1l.1-35.6z" class="st1"/><path d="M103.6 62.4l18.9 13.9.6.4c1 .9 1 1.9-.2 2.6L94.8 94.7c.2-1.1 4.7-21.3 6.8-30.5.2-.5.3-1 .7-1.5.5-.7 1.3-.3 1.3-.3zm-1.3 74.9l-.1-.1c-.4-.7-.7-1.4-.9-2.2-2.3-10.1-6.4-29-6.5-29.5.4.2 27.8 15.4 27.8 15.4 1.7.9 1.7 1.9.2 3l-19.3 13.7c-.3.1-1 0-1.2-.3zm-6.7-37.6L123.4 84c1.8-1 2.8-.4 2.8 1.6v28.2c0 .5-.1 1-.3 1.4-.4.7-1.2.8-2.2.3L95.6 99.7z" class="st1"/><linearGradient id="SVGID_1_" x1="182.6382" x2="30.6599" y1="182.616" y2="30.6376" gradientUnits="userSpaceOnUse"><stop offset=".1594" stop-color="#003cda"/><stop offset="1" stop-color="#33dfcc"/></linearGradient><path fill="url(#SVGID_1_)" d="M167.2 32.8C149.4 15 125.2 5 100 5c-18.8 0-37.2 5.6-52.8 16s-27.8 25.3-35 42.6C5 81 3.2 100.1 6.8 118.5c3.7 18.4 12.7 35.4 26 48.7s30.2 22.3 48.7 26c18.4 3.7 37.5 1.8 54.9-5.4s32.2-19.4 42.6-35c10.4-15.6 16-34 16-52.8 0-25.2-10-49.4-27.8-67.2zM100 174.5c-41.1 0-74.5-33.3-74.5-74.5S58.9 25.5 100 25.5s74.5 33.3 74.5 74.5-33.4 74.5-74.5 74.5z"/></svg>