<svg xmlns="http://www.w3.org/2000/svg" id="Layer_1" x="0" y="0" version="1.1" viewBox="0 0 200 200" xml:space="preserve"><style>.st1{fill:#fff}</style><path fill="#0085ca" d="M100 5C47.7 5 5 47.7 5 100s42.7 95 95 95 95-42.7 95-95-42.7-95-95-95z"/><path d="M81.7 103c2 0 3.6-1.5 3.6-3.6 0-2-1.5-3.6-3.6-3.6C67 94.4 56.3 81.7 57.8 67.5c1-12.7 11.2-22.9 23.9-23.9 2 0 3.6-1 4.1-3 0-2-1-3.6-3-4.1h-1c-18.3.5-33 16.3-32 34.5.9 17.8 14.6 31.5 31.9 32zM117.8 96.4c-2 0-3.6 1.5-3.6 3.6 0 2 1.5 3.6 3.6 3.6 14.7 0 26.4 11.7 26.4 26.4s-11.7 26.4-26.4 26.4c-2 0-3.6 1-4.1 3 0 2 1 3.6 3 4.1h1c18.3 0 33.5-15.2 33.5-33.5s-14.6-33.6-33.4-33.6zM117.8 84.3c1 0 2-.5 2.5-1l23.9-23.9c1.5-1 1.5-3.6.5-4.6l-.5-.5c-1-1.5-3.6-1.5-4.6-.5l-.5.5-23.9 23.9c-1.5 1.5-1.5 3.6 0 5.1.5.4 1.6 1 2.6 1z" class="st1"/><path d="M119.3 133c2 0 3.2-2.2 3.2-4 0-1.8-1.7-3.6-3.2-3.6h-15.7V41.6c0-2-1.5-3.6-3.6-3.6-2 0-3.6 1.5-3.6 3.6v84.3H58.3c-2 0-3 1.6-3 3.6s1.5 3.5 3 3.5h38.1v26.9c0 2 1.5 3.6 3.6 3.6 2 0 3.6-1.5 3.6-3.6V133h15.7z" class="st1"/></svg>