<svg xmlns="http://www.w3.org/2000/svg" id="Livello_1" x="0" y="0" version="1.1" viewBox="0 0 200 200" xml:space="preserve"><style>.st1{fill:#1c68b1}</style><path fill="#fff" d="M159.7 176.9c0 6.2-4.9 11.1-11.1 11.1H51.4c-6.2 0-11.1-4.9-11.1-11.1V101c0-6.2 5-11.1 11.1-11.1h97.2c6.2 0 11.1 5 11.1 11.1v75.9z"/><path d="M147.4 82.7h-1.7V47.6c0-.4-.5-42.6-45.7-42.6S54.3 47.2 54.3 47.6v35.1h-1.7c-10.5 0-19.1 8.6-19.1 19.1v74c0 10.5 8.6 19.1 19.1 19.1h94.8c10.5 0 19.1-8.6 19.1-19.1v-74c0-10.5-8.5-19.1-19.1-19.1zM62.6 47.6c0-1.4.4-34.3 37.4-34.3 36.8 0 37.4 32.9 37.4 34.3v35.1H62.6V47.6zM158.2 176c0 6-4.8 10.8-10.8 10.8H52.6c-6 0-10.8-4.8-10.8-10.8v-74c0-6 4.9-10.8 10.8-10.8h94.8c6 0 10.8 4.9 10.8 10.8v74z" class="st1"/><path d="M104.2 136.1v-14.3c0-2.3-1.9-4.2-4.2-4.2s-4.2 1.9-4.2 4.2v14.3c-4.8 1.7-8.3 6.3-8.3 11.7 0 6.9 5.6 12.5 12.5 12.5s12.5-5.6 12.5-12.5c0-5.4-3.5-10-8.3-11.7z" class="st1"/></svg>