<svg xmlns="http://www.w3.org/2000/svg" id="Layer_1" x="0" y="0" version="1.1" viewBox="0 0 200 200" xml:space="preserve"><style>.st1{fill:#fff}</style><path fill="#31cb9e" d="M142.6 148.8c-11.3 11.4-26.8 17.6-42.8 17.4-15.9.4-31.3-5.9-42.5-17.2-11.5-11.1-17.8-26.5-17.5-42.5-.5-16.2 5.8-31.9 17.4-43.3 11.1-11.4 26.5-17.7 42.5-17.4 16-.3 31.5 5.9 42.9 17.2 11.7 11.3 18.2 27 17.8 43.2.2 16.1-6.2 31.5-17.8 42.6z"/><path d="M73.7 88.6c0-1 .3-2.1.9-2.9.5-.7 1.1-1.3 1.8-1.7 5.5-4.4 11-8.9 16.4-13.2.6-.5 1.2-.9 2-.5s.8 1.2.6 2c-2.2 11-4.5 21.9-6.7 32.9-.2.9-.2 1.7 0 2.6 2.2 11 4.4 22 6.7 33 .3.7 0 1.5-.6 1.9-.6.4-1.4.2-1.9-.4-5.6-4.5-17.4-14-17.6-14.3-.2-.2-.4-.5-.6-.7-.7-.9-1.1-2-1.1-3.1l.1-35.6z" class="st1"/><path d="M103.7 68.4l18.9 13.9.6.4c1 .9 1 1.9-.2 2.6l-28.1 15.4c.2-1.1 4.7-21.3 6.8-30.5.2-.5.3-1 .7-1.5.5-.7 1.3-.3 1.3-.3zM102.4 143.3l-.1-.1c-.4-.7-.7-1.4-.9-2.2-2.3-10.1-6.4-29-6.5-29.5.4.2 27.8 15.4 27.8 15.4 1.7.9 1.7 1.9.2 3l-19.3 13.7c-.3.1-1 0-1.2-.3zM95.7 105.7L123.5 90c1.8-1 2.8-.4 2.8 1.6v28.2c0 .5-.1 1-.3 1.4-.4.7-1.2.8-2.2.3l-28.1-15.8z" class="st1"/><linearGradient id="SVGID_1_" x1="-14.297" x2="214.2968" y1="96" y2="96" gradientTransform="translate(0 4)" gradientUnits="userSpaceOnUse"><stop offset="0" stop-color="#0157d0"/><stop offset=".14" stop-color="#015fcd"/><stop offset=".36" stop-color="#0174c6"/><stop offset=".63" stop-color="#0098ba"/><stop offset=".94" stop-color="#00c8aa"/><stop offset="1" stop-color="#00d3a6"/></linearGradient><path fill="url(#SVGID_1_)" d="M100 10.8c-52.5 0-95 42.5-95 95 0 34.8 19 66.7 49.5 83.4h91.2c30.5-16.7 49.4-48.7 49.3-83.4 0-52.5-42.5-95-95-95zm0 170.6c-41.8 0-75.7-33.8-75.7-75.6S58.2 30.3 100 30.3s75.7 33.8 75.7 75.5-33.9 75.6-75.7 75.6z"/></svg>