<svg xmlns="http://www.w3.org/2000/svg" version="1.0" viewBox="0 0 200 200"><linearGradient id="a" x1="182.6489" x2="30.6528" y1="17.3532" y2="169.3493" gradientTransform="matrix(1 0 0 -1 0 200)" gradientUnits="userSpaceOnUse"><stop offset=".1594" stop-color="#003cda"/><stop offset="1" stop-color="#33dfcc"/></linearGradient><path fill="url(#a)" d="M167.2 32.8C149.4 15 125.2 5 100 5c-18.8 0-37.2 5.6-52.8 16-15.6 10.4-27.8 25.3-35 42.6-7.2 17.4-9 36.5-5.4 54.9 3.7 18.4 12.7 35.4 26 48.7 13.3 13.3 30.2 22.3 48.7 26 18.4 3.7 37.5 1.8 54.9-5.4s32.2-19.4 42.6-35c10.4-15.6 16-34 16-52.8 0-25.2-10-49.4-27.8-67.2zM100 174.5c-41.1 0-74.5-33.3-74.5-74.5S58.9 25.5 100 25.5s74.5 33.3 74.5 74.5-33.4 74.5-74.5 74.5z"/><circle cx="100" cy="100" r="60" fill="#4160ab"/><path fill="#fff" d="M100.2 58.5L64.1 79.3v41.6l36.1 20.8 35.7-20.8V79.3l-35.7-20.8zm-21 53.4V88.2l21-11.9 20.6 11.9V112l-20.6 11.9-21-12z"/></svg>