<?xml version="1.0" encoding="utf-8"?>
<!-- Generator: Adobe Illustrator 22.1.0, SVG Export Plug-In . SVG Version: 6.00 Build 0)  -->
<svg version="1.0" id="Livello_1" xmlns="http://www.w3.org/2000/svg" xmlns:xlink="http://www.w3.org/1999/xlink" x="0px" y="0px"
	 viewBox="0 0 200 200" enable-background="new 0 0 200 200" xml:space="preserve">
<g>
	<linearGradient id="SVGID_1_" gradientUnits="userSpaceOnUse" x1="52.431" y1="178.9927" x2="93.97" y2="107.045">
		<stop  offset="0" style="stop-color:#26358C"/>
		<stop  offset="1" style="stop-color:#EB5E51"/>
	</linearGradient>
	<path fill="url(#SVGID_1_)" d="M161.7,157.7c-0.6,13.1-13.3,22.1-27,27.9c-0.5,0.2-0.9,0.4-1.4,0.6c-10.3,4-21.5,6.2-33.2,6.2
		c-50.6,0-91.7-41.1-91.7-91.7c0-8.2,1.1-16.1,3.1-23.6c7.1,29.6,70.9,42.2,70.9,42.2S163,128.8,161.7,157.7z"/>
	<linearGradient id="SVGID_2_" gradientUnits="userSpaceOnUse" x1="106.03" y1="92.955" x2="147.569" y2="21.0073">
		<stop  offset="0" style="stop-color:#ED826F"/>
		<stop  offset="1" style="stop-color:#45AFE4"/>
	</linearGradient>
	<path fill="url(#SVGID_2_)" d="M38.3,42.3c0.6-13.1,13.3-22.1,27-27.9c0.5-0.2,0.9-0.4,1.4-0.6c10.3-4,21.5-6.2,33.2-6.2
		c50.6,0,91.7,41.1,91.7,91.7c0,8.2-1.1,16.1-3.1,23.6c-7.1-29.6-70.9-42.2-70.9-42.2S37,71.2,38.3,42.3z"/>
</g>
</svg>
