<svg xmlns="http://www.w3.org/2000/svg" id="svg8" viewBox="0 0 200 200"><style>.st3{fill:#1a6aa1}.st4{fill:#564f38}</style><path fill="#fbcb68" d="M100 5C47.5 5 5 47.5 5 100s42.5 95 95 95 95-42.5 95-95-42.5-95-95-95zm.1 6c26.3 0 50 11.5 66.3 29.8H33.8C50.1 22.5 73.8 11 100.1 11zM24.8 52.7h150.7c3.7 5.9 6.8 12.3 9.1 19.1H15.7C18 65 21 58.6 24.8 52.7zM100.1 189c-13.4 0-26.2-3-37.6-8.3h75.1c-11.3 5.3-24.1 8.3-37.5 8.3zm56.5-20.2h-113c-7-5.7-13.1-12.5-18-20.1h148.9c-4.9 7.5-11 14.3-17.9 20.1zm24.5-32h-162c-2.8-6-4.8-12.4-6.2-19.1h174.5c-1.4 6.6-3.5 13-6.3 19.1zm-169.8-31c-.8-6.4.3-16.8 1.3-22.1h175c1 5.3 1.8 17.7 1.3 22.1H11.3z"/><path id="path67" fill="#fcccf8" d="M124.2 70.9c4.5-10.2 6.1-19.8 13.7-28.2 5.9-6.5 15.6-11.8 18.8-.9 2.9 9.7.4 25.4-.7 35.1-1.3 10-6.1 18-9.7 21.7-8.4-9.7-22.1-27.7-22.1-27.7zM75 69.3C66.9 79 58.7 88.7 50.6 98.5c-2.3-4.2-8.7-18.5-10-29.6-1.1-9.1-1.9-18.2 1.1-27.1 3.4-10.2 12.4-5.7 17.7.7C65 48.6 72.6 64.4 75 69.3z"/><path fill="#fff" d="M98.6 75.4L57.4 99.1l-4.7 44.2s10.6 35.8 46.2 35.8 46.5-34.9 46.5-34.9l1-6.1-7.4-45.6-40.4-17.1z"/><ellipse cx="68.7" cy="114.6" class="st3" rx="6.4" ry="6.4"/><ellipse cx="130.7" cy="115.1" class="st3" rx="6.4" ry="6.4"/><path id="path45" d="M141.6 137.3c-2.8-1.3-5.1.6-7.6-.2-5.2-1.8-10.4-9.4-14.1-13.3-2.2-2.2-6.6-5.1-8-7.9-1.1-2.2-.4-6-.4-8.7 0-6 3.4-12.4 2.5-18.1-2-13-25.1-14.3-29-1.3-1.5 5.2 2.4 11.8 2.8 17.1.2 2.9.7 7.3-.3 10-1.2 3.2-3.4 3.3-5.8 5.5-5.2 4.8-8.8 12.7-15.7 15.9-3.3 1.5-6.6-.9-9.7 1.7-2.2 1.8-1.3 4.3-3.6 5.4-.1-13.1-.5-26.4-3.1-39.1-.4-2-.2-5.3-1-6.9-1.4-2.6-2.8-4.6-4.1-7.6-2.4-5.6-4.4-11.6-4.7-17.5-.7-10.2-4.2-28.6 2.9-36.9C51 25.7 67 45.1 70.5 52.7c2.4 5 4.5 15.1 8.4 19s12.1.4 17.3.2c6.3-.2 12.8.7 19 1.4 4.7.5 4.2-.2 6.2-4.5 1.3-2.6 2.6-5.3 3.7-8 2.6-5.9 4.4-11.6 8.7-16.5 3.6-4.1 10.3-10.3 15.7-11.6 13.9-3.3 10 25 9.4 32.3-.6 6.7-1.2 13.3-2 19.9-.6 4.7-2.6 8.8-3.6 10.1-3.2 3.9-2.6 3.5-3.4 7.9-1.3 7.4-2.5 14.4-3 22.1-.3 4.3 1.5 16.5-1.6 19.3.1-.4-1.3-5.9-3.7-7zm-68-10.9c12.1-8.5 4-29.6-9.3-21.3-11.4 7.1-1.4 27.5 9.3 21.3zm-8.6-7.9c-5.9-4.3 4.1-13.2 7.9-7.4 0 .1-.4 3.3-.4 3.6.2 2 1.5 1.3.4 3.4-1.4 2.5-5.3 2.2-7.9.4zm71.3 7c11.6-6.3 1.1-28.3-11.2-20.3-12.5 8.2-.8 26.5 11.2 20.3zm-9.3-6.4c-2.3-1.6-.2-2.9.2-4.8.1-.7-.4-2.4-.2-2.7 2.1-3.2 5.8-2.6 7.9-.1 4.9 5.8-2.7 11.8-7.9 7.6zM53.9 93.2c2.8-4.1 6.5-7.6 9.7-11.4 1.9-2.3 1.5-3.1 2.5-5.2.9-1.8 3-3.8 3.7-5.7 2.8-8.4-3.9-18.8-8.9-25.1-4.5-5.6-15.2-14.9-18.1-3.3-2.4 9.3-1.7 20.8-.4 30.1.6 3.1 6.7 31.2 11.5 20.6zm96.2-.7c4.7-8.6 5.7-18.6 6.4-28.2.5-5.8 1.5-24.1-4.4-27.2-7.3-3.9-16.7 10.2-19.5 15.1s-4.1 8.5-4.1 14c0 4.9 1.4 7.5 3.4 11.5 2.1 4.2 6.2 7.7 9.4 11.5 3.6 4.3 5.1 10 8.8 3.3zm-56.7 50.1c-5.2-.7-6.7-6.2-4-10.5 3.2-5 12.1-5.9 16.9-3.1 4.3 2.5 6.9 9.5 2.1 12.8-3.4 2.4-11.3 2-15 .8z" class="st4"/><path id="path41" d="M130.8 152.5c-1 .2-7.1 3-8.2 3.1-1 .1-2 .1-2.9 0-1-.1-2-.4-2.9-.8-4.5-1.8-7.7-5.7-12.3-7.5-.2 0-3.3-.8-4.7-.8-3.3.1-6.5 1.5-9.4 3.6-1.8 1.2-3.6 2.6-5.6 3.8-.6.3-5.2 2.3-7 2.2-.5 0-6.3-2.1-8-2.6-1.6-.5-2.8-.7-2.9-.1-.1 1.2 3.7 6.9 4.6 8.1l5 5.4c2.4 2.4 4.9 4.2 7.6 5.6 1.4.7 8 2.9 9.3 3.2 4.1.8 8.4.6 12.5-.3 6-1.3 11.8-4.3 16.3-8.4 0 0 5-5.1 5.5-5.8.7-1 4.4-6.8 4.2-7.9-.1-.8-.5-.9-1.1-.8zm-21.6 20.9c-5.1 2.3-15.3 2.6-20.4-.3-1.7-.9-4.5-4.2-5.2-6-.9-2.4-.5-5.7.4-7.8 1.3-2.9 2.9-4.9 5.9-6 3.9-1.5 5.5.6 9.2.8 3.2.1 5.7-2.1 8.8-1.2 3.6 1 5.5 2.7 7 5.9 2.9 6.4.7 11.7-5.7 14.6z" class="st4"/><path fill="#e80907" d="M109.2 173.4c-5.1 2.3-15.3 2.6-20.4-.3-1.7-.9-4.5-4.2-5.2-6-.9-2.4-.5-5.7.4-7.8 1.3-2.9 2.9-4.9 5.9-6 3.9-1.5 5.5.6 9.2.8 3.2.1 5.7-2.1 8.8-1.2 3.6 1 5.5 2.7 7 5.9 2.9 6.4.7 11.7-5.7 14.6z"/></svg>