<svg xmlns="http://www.w3.org/2000/svg" viewBox="0 0 200 200"><linearGradient id="a" x1="-14.297" x2="214.2968" y1="96" y2="96" gradientTransform="translate(0 4)" gradientUnits="userSpaceOnUse"><stop offset="0" stop-color="#0157d0"/><stop offset=".14" stop-color="#015fcd"/><stop offset=".36" stop-color="#0174c6"/><stop offset=".63" stop-color="#0098ba"/><stop offset=".94" stop-color="#00c8aa"/><stop offset="1" stop-color="#00d3a6"/></linearGradient><path fill="url(#a)" d="M100 10.8c-52.5 0-95 42.5-95 95 0 34.8 19 66.7 49.5 83.4h91.2c30.5-16.7 49.4-48.7 49.3-83.4 0-52.5-42.5-95-95-95zm0 170.6c-41.8 0-75.7-33.8-75.7-75.6S58.2 30.3 100 30.3s75.7 33.8 75.7 75.5-33.9 75.6-75.7 75.6z"/><circle cx="100" cy="106" r="60" fill="#2a5ada"/><path fill="#fff" d="M100.2 64.5L64.1 85.3v41.6l36.1 20.8 35.7-20.8V85.3l-35.7-20.8zm-21 53.4V94.2l21-11.9 20.6 11.9V118l-20.6 11.9-21-12z"/></svg>