<svg xmlns="http://www.w3.org/2000/svg" version="1" viewBox="0 0 200 200"><path fill="#3da361" d="M185 54.6c0-2.2-1.2-4.3-3.1-5.4L103.1 3.7c-1.9-1.1-4.3-1.1-6.3 0L18.2 49.1c-1.9 1.1-3.1 3.2-3.1 5.4v90.9c0 2.2 1.2 4.3 3.1 5.4l78.7 45.4c1 .6 2 .8 3.1.8s2.2-.3 3.1-.8l78.7-45.5c1.9-1.1 3.1-3.2 3.1-5.4l.1-90.7zm-68.6 131.1c-.9.5-2.1.7-3.1.3l-54.4-19.8 66.2 11.7c.3 0 .5.1.8.1l-8.8 7.4c-.1.1-.2.2-.4.3h-.3zM34 157.1c-1-.5-1.6-1.5-1.8-2.6l-10.1-57s23.2 63.6 23.3 63.8L34 157.1zM17.5 71.3c0-1.1.5-2.1 1.3-2.9l44.4-37.2S19.7 83.1 19.6 83.3l-2-11.3-.1-.7zm68-57.6c.4 0 .9.1 1.3.2l54.4 19.8S74.5 22 74.2 22l8.8-7.4c.1-.1.9-.8 2.5-.9zm80.6 29.2c.9.6 1.6 1.5 1.8 2.6l10.1 57s-23.2-63.6-23.3-63.8l11.4 4.2zm-40.6 132.5l-49.1-8.7h58.8l-6.2 7.4c-.9 1.1-2.2 1.6-3.5 1.3zm-78.1-15.6l-17.1-46.9s29.4 50.8 29.4 50.9l-9.5-1.7c-1.2-.2-2.3-1.1-2.8-2.3zM21.3 88c-.5-1.3-.2-2.7.7-3.7l32-38.2S24.6 97 24.6 97.1L21.3 88zm53.2-63.4l49.1 8.7H64.8l6.2-7.4c.9-1.1 2.2-1.6 3.5-1.3zm78.1 15.6l17.1 46.9s-29.4-50.8-29.4-50.9l9.5 1.7c1.2.2 2.3 1.1 2.8 2.3zM26.9 98.1l22.7-39.3s-18.3 50.4-18.3 50.5l-4.3-7.5c-.8-1.1-.8-2.5-.1-3.7zm48.4 64.2l-26.9-32s38 31.8 38.2 32l-7.8 1.4c-1.3.2-2.6-.3-3.5-1.4zm-41-48.8c-.9-1-1.1-2.4-.7-3.7L48 70.5s-8.6 48.7-8.6 49l-5.1-6zm90.4-75.8l26.9 32s-37.9-31.8-38.2-32l7.8-1.4c1.3-.2 2.6.3 3.5 1.4zm-82.8 81.4L48 84.8v41.9l-4.8-4c-1-.9-1.5-2.2-1.3-3.6zm107.6-13.9s-6.6-37.5-6.6-37.7l4.8 2.8c1.2.7 1.9 1.9 1.9 3.2l-.1 31.7zm-35-39.6l14.4 17.1S107.8 65.2 107 64.9l3.9-.7c1.7-.3 2.9.6 3.6 1.4zm-45.9 43.8L71.7 92s.1 22.2.3 22.8l-2.1-1.8c-1-.9-1.5-2.3-1.3-3.6zm57.2-10.3s-2.8-15.3-2.9-15.6l1 .6c1.2.7 1.9 1.9 1.9 3.2v11.8zm-51.6 1.8s2.8 15.3 2.9 15.6l-1-.6c-1.2-.7-1.9-1.9-1.9-3.2v-11.8zm41.3-16.4l2.8 7.8s-5.8-9.8-6.2-10.2l.6.1c1.2.1 2.3 1 2.8 2.3zm-4.5 30.9c-.7 1.2-1.9 1.9-3.2 1.9H92.2c-1.3 0-2.6-.7-3.2-1.9l-7.8-13.5c-.7-1.2-.7-2.6 0-3.8L89 84.6c.7-1.2 1.9-1.9 3.2-1.9h15.6c1.3 0 2.6.7 3.2 1.9l7.8 13.5c.7 1.2.7 2.6 0 3.8l-7.8 13.5zM90.4 80.6l.4-.4c.7-.9 1.6-1.3 2.7-1.3.2 0 .5 0 .8.1l8.1 1.4s-11.4 0-12 .2zm-12.1 18l-.2-.5c-.5-1.3-.2-2.7.7-3.7l5.3-6.3s-5.6 9.9-5.8 10.5zm5.3 20l-1.9-.7c-1.3-.5-2.2-1.6-2.4-2.9L77 101.9s6 16.1 6.6 16.7zm.9-3.1l-2.8-7.8s5.8 9.8 6.2 10.2l-.6-.1c-1.2-.1-2.3-1-2.8-2.3zm25.1 4l-.4.4c-.9 1-2.2 1.5-3.5 1.3l-8.1-1.4s11.4-.1 12-.3zm12.1-18.1l.2.5c.5 1.3.2 2.7-.7 3.7l-5.3 6.3s5.6-9.9 5.8-10.5zm-5.3-20l1.9.7c1.3.5 2.2 1.6 2.4 2.9l2.3 13.1s-6-16.1-6.6-16.7zm-24.3-4.9l1.6-1.3c.7-.6 1.5-.9 2.4-.9.4 0 .9.1 1.3.2l12.5 4.6s-17-2.8-17.8-2.6zM75.7 95.1l-.4-2c-.2-1.3.3-2.7 1.3-3.5L86.8 81S75.9 94.3 75.7 95.1zm32.2 28.4l-1.6 1.3c-1 .9-2.4 1.1-3.7.7L90.1 121s17.3 2.6 17.8 2.5zm16.4-18.6l.4 2c.2 1.3-.3 2.7-1.3 3.5l-10.2 8.6s10.9-13.3 11.1-14.1zM97.2 71.8l1-.6c.6-.3 1.2-.5 1.9-.5s1.3.2 1.9.5l10.2 5.9s-14.7-5.2-15-5.3zm-23 16.6v-1.2c0-1.3.7-2.6 1.9-3.2l10.2-5.9s-11.9 10-12.1 10.3zm28.6 39.8l-1 .6c-1.2.7-2.6.7-3.8 0l-10.2-5.9s14.6 5.2 15 5.3zm23-16.6v1.2c0 1.3-.7 2.6-1.9 3.2l-10.2 5.9s11.9-10 12.1-10.3zm-24.6-43.2l2.6-1c.4-.2.8-.2 1.3-.2.9 0 1.7.3 2.4.9l13.6 11.4s-19.2-11-19.9-11.1zm-28 14.7l.5-2.8c.2-1.3 1.2-2.4 2.4-2.9l16.6-6.1s-19 11.3-19.5 11.8zm25.6 48.5l-2.6 1c-1.3.5-2.7.2-3.7-.7l-13.6-11.4s19.3 11 19.9 11.1zm28-14.7l-.5 2.8c-.2 1.3-1.2 2.4-2.4 2.9l-16.6 6.1s19-11.3 19.5-11.8zm1.2-31.7l2.1 1.8c1 .9 1.5 2.2 1.3 3.5l-3.1 17.4s-.1-22-.3-22.7zm-52.7-10c-.8.3-1.5.7-2 1.2l1.4-3.8c.5-1.3 1.6-2.2 2.9-2.4l22-3.9-24.3 8.9zM66.1 109c-.1.8-.1 1.6 0 2.4l-2.6-3.1c-.9-1-1.1-2.4-.7-3.7l7.7-21-4.4 25.4zm19.2 28.4h-4.7c-1.3 0-2.6-.7-3.2-1.9l-13-22.4s20.3 24 20.9 24.3zm3.7-1.7c-1.3.2-2.7-.3-3.5-1.3l-14.4-17.2s21.2 17.5 21.9 17.7l-4 .8zm37.7-12.1l-1.4 3.8c-.5 1.3-1.6 2.2-2.9 2.4l-22 3.9s25.8-9.6 26.3-10.1zm7.2-32.6c.1-.8.1-1.6 0-2.4l2.6 3.1c.9 1 1.1 2.4.7 3.7l-7.7 21 4.4-25.4zm-17.5-27c-.5-.6-1.1-1.1-1.7-1.4h4.7c1.3 0 2.6.7 3.2 1.9l13 22.4L116.4 64zM77 67.8c-.8.1-1.5.4-2.1.8l2.4-4.1c.7-1.2 1.9-1.9 3.2-1.9h25.9L77 67.8zm-16.4 36c-.3.7-.4 1.5-.4 2.2l-2.4-4.1c-.7-1.2-.7-2.6 0-3.7l13-22.4-10.2 28zm15.1 33.7l-4.1-.7c-1.3-.2-2.4-1.2-2.9-2.4L60 110.6s15.5 26.7 15.7 26.9zm47.3-5.3c.8-.1 1.5-.4 2.1-.8l-2.4 4.1c-.7 1.2-1.9 1.9-3.2 1.9H93.6l29.4-5.2zm16.4-36c.3-.7.4-1.5.4-2.2l2.4 4.1c.7 1.2.7 2.6 0 3.8l-13 22.4 10.2-28.1zm-15.1-33.7l4.1.7c1.3.2 2.4 1.2 2.9 2.4l8.7 23.8s-15.5-26.7-15.7-26.9zm-44.6-2.3l2.7-3.2c.9-1 2.2-1.5 3.5-1.3l24.9 4.4s-30.8 0-31.1.1zm-24 36.7c-.2.3-.3.5-.4.8l-1.4-3.9c-.5-1.3-.2-2.7.7-3.7l16.3-19.4-15.2 26.2zm11 39.3l-4.9-1.8c-1.3-.5-2.2-1.6-2.4-2.9l-5.2-29.2s12.4 33.6 12.5 33.9zm53.6 3.6l-2.7 3.2c-.9 1-2.2 1.5-3.5 1.3l-24.9-4.4s30.8 0 31.1-.1zm24.4-37.5l1.4 3.9c.5 1.3.2 2.7-.7 3.7l-16.3 19.4s15.5-26.7 15.6-27zm-11.4-38.5l4.9 1.8c1.3.5 2.2 1.6 2.4 2.9l5.2 29.2s-12.4-33.6-12.5-33.9zm-48-10.7l4-3.3c.7-.6 1.5-.9 2.4-.9.4 0 .9.1 1.3.2l27.9 10.1s-35.3-6.1-35.6-6.1zM52.6 88.5c-.2.3-.4.5-.6.8l-.9-5.1c-.2-1.3.3-2.7 1.3-3.5l22.7-19.1-22.5 26.9zm4.5 44l-4.8-2.8c-1.2-.7-1.9-1.9-1.9-3.2V94.9s6.7 37.4 6.7 37.6zm57.6 14.4l-4 3.3c-1 .9-2.4 1.1-3.7.7l-27.9-10.1s35.3 6.1 35.6 6.1zm33.3-36.2l.9 5.1c.2 1.3-.3 2.7-1.3 3.5l-22.7 19.1s22.9-27.4 23.1-27.7zm-54.7-64l4.8-2.8c.6-.3 1.2-.5 1.9-.5s1.3.2 1.9.5l27.4 15.8s-35.8-13-36-13zM50.4 79.1v-5.5c0-1.3.7-2.6 1.9-3.2l27.4-15.8S50.6 79 50.4 79.1zm56.3 74.2l-4.8 2.8c-1.2.7-2.6.7-3.7 0l-27.4-15.8s35.7 13 35.9 13zm42.5-32.1c.1-.1.2-.2.4-.3v5.5c0 1.3-.7 2.6-1.9 3.2l-27.4 15.8 28.9-24.2zm-46.3-79.6l5.9-2.1c1.3-.5 2.7-.2 3.7.7l26.7 22.4-36.3-21zm-52 26.7l1.1-6.2c.2-1.3 1.2-2.4 2.4-2.9l32.7-11.9s-36.1 21-36.2 21zm46.2 90.1l-5.9 2.1c-1.3.5-2.7.2-3.7-.7l-26.7-22.4 36.3 21zm51.8-26.6c.1 0 .1-.1.2-.1l-1.1 6.2c-.2 1.3-1.2 2.4-2.4 2.9l-32.7 11.9 36-20.9zm3.1-58.5l4.8 4c1 .9 1.5 2.2 1.3 3.5l-6.1 34.3V73.3zM52.7 57.2l2.7-7.4c.5-1.3 1.6-2.2 2.9-2.4l41.2-7.3S53 57.1 52.7 57.2zm93.8 85.9c.3-.1.5-.2.8-.3l-2.7 7.4c-.5 1.3-1.6 2.2-2.9 2.4l-41.2 7.3 46-16.8zm14-61.8c0-.3.1-.5.1-.8l5.1 6c.9 1 1.1 2.4.7 3.7L152 129.5l8.5-48.2zm-34.2-45.5h8.6c1.3 0 2.6.7 3.2 1.9L160.8 77l-34.5-41.2zm-68.8 9.3l4.3-7.5c.7-1.2 1.9-1.9 3.2-1.9h45.3s-52.7 9.4-52.8 9.4zm16.2 119.1h-8.6c-1.3 0-2.6-.7-3.2-1.9L39.2 123l34.5 41.2zm68.4-9.2c.1 0 .3-.1.4-.1l-4.3 7.5c-.7 1.2-1.9 1.9-3.2 1.9H89.6l52.5-9.3zm26.6-63.9c.1-.1.1-.3.1-.4l4.3 7.5c.7 1.2.7 2.6 0 3.8l-22.7 39.3 18.3-50.2zm6.6 12c0-.1.1-.1.1-.2l3.3 9.1c.5 1.3.2 2.7-.7 3.7l-32 38.2 29.3-50.8zm4.7 14.2c.2-.2.3-.4.5-.6l2 11.3v.7c0 1.1-.5 2.1-1.3 2.9l-44.4 37.2 43.2-51.5zm2.5-62.7v59.3l-12.1-68.5 10.2 5.9c1.1.7 1.9 1.9 1.9 3.3zM98.1 5.9c.6-.3 1.2-.5 1.9-.5s1.3.2 1.9.5l51.4 29.7-65.4-23.8 10.2-5.9zM19.4 51.3l51.4-29.7-53.3 44.7V54.6c0-1.4.8-2.6 1.9-3.3zm-1.9 94.1V86.1l12.1 68.5-10.2-5.9c-1.1-.7-1.9-1.9-1.9-3.3zm84.4 48.7c-1.2.7-2.6.7-3.8 0l-51.4-29.7 65.3 23.8-10.1 5.9zm78.7-45.4l-51.4 29.7 53.2-44.7v11.8c.1 1.3-.7 2.5-1.8 3.2z"/></svg>