<svg xmlns="http://www.w3.org/2000/svg" id="Livello_1" viewBox="0 0 200 200"><style>.st0{fill-rule:evenodd;clip-rule:evenodd;fill:#122874}</style><path d="M5 99.4C5 46.8 48.1 5 100.6 5S195 46.8 195 99.4 153.2 195 100.6 195 5 151.9 5 99.4zm176.7 11.4l-1.9-9.5-5.1-7.6-3.2-1.3 3.8-15.2v-1.3c1.9-7.6-5.1-14.6-12.7-14.6H100l-1.3-3.2 5.1-1.3 1.3-1.9h-5.7l1.9-1.9-1.9-1.9-3.2 3.9-5.1-1.3 1.9-5.1 5.1-1.9-1.3-3.2 1.9-1.3 3.8 1.3 1.3 5.1 3.2 5.1 1.9-1.9 3.8-1.3-1.9-3.8h3.8l1.3 3.8 7 1.3 3.8-5.1 1.3-7.6-7 3.2 3.2 3.8-3.8 1.9-5.1-3.8-3.8 1.9-1.9-5.1 8.9-5.1 8.9-3.2 15.2 5.7 12.7 1.3 1.9-3.2 3.2 1.9c-1.9-1.9-3.8-3.2-5.1-5.1l-3.2 3.2h-7.6l3.2-3.2 5.7 3.2c-14.6-12.7-32.3-20.3-52.6-20.3-19 0-37.4 7-50.7 18.4l5.7-3.2 10.8-1.9L78 27.6l14.6-1.9 8.9 1.9-5.9 3.4v1.9l-5.1 1.9-3.2 3.2-7 1.9-3.8 1.3-5.6 1.8-3.8 5.7-5.7 1.3-1.9-5.1 3.2-8.9h-9.5L50 39.2l-5.1 1.3c-1.3 0-1.9 1.3-3.2 3.2l7.6-1.9 3.2 1.9-3.2 7-5.1-1.3 1.3-3.8-3.8-1.3-5.7 7-5 5c-1.3 1.3-1.9 1.9-1.9 3.2l3.2 1.9 5.1-3.8-1.4-1.9 5.1-3.8 5.7 1.3 3.2 7-3.2 3.2 1.9 1.9h-5.1v-1.9l-1.9 1.3h-5.1L35.4 74l-1.9-3.2-3.2 5.1-7 7 1.9 3.2-7 5.7 1.3 5.7-1.9 1.3-1.3-1.3v3.2-.7h1.3l3.8 3.2-1.9 1.9-3.2-1.9c0 3.2 0 5.7 1.3 7v2.5c0 1.9 0 3.8 1.3 5.7h1.3l3.8-3.2 1.9 1.3L24 126c-1.3 3.2 0 5.7.6 7.6l-3.2-3.2c0 1.9 1.3 3.8 1.9 3.8h.7c3.2 5.1 7 7.6 10.8 7.6h24.1l1.3 3.2-5.1 5.7 1.3 5.1-1.9 7-3.8 1.9v3.2l-1.3 1.9c13.3 10.8 31.7 17.1 49.4 17.1 42.4-5.2 77.2-36.2 82.9-76.1zm-65.2 43l3.8-10.8-5.1-5.7h32.3l1.9-10.8 3.8-15.2 1.9 3.8 8.9-5.1-3.2 10.8-10.8 12.8v14.6l-8.9 5.7 1.9 5.7-3.8 3.2-1.9 5.7-15.2 3.8-5.6-18.5zm32.3 2.6l3.8-3.2v-5.7l7.6-5.7 1.3 3.8-5.7 8.9-3.8 5.1-3.2-3.2zm5.7-52l1.3-5.1h14.6l1.3.6-12.7 8.9-4.5-4.4zm-132.4-1.2l3.2-3.2 3.8 3.2-5.1 1.9-1.9-1.9zm-3.8-6.4s0 .7 0 0c0 .7 0 .7 0 0zm9.5-27.2l-3.2-3.2c-1.3 1.3-1.3 1.9-1.9 3.8l1.9 1.3 3.2-1.9zm55.1-27.2l1.3-3.2h9.5l1.3 1.9-7 3.2-5.1-1.9z" class="st0"/><path d="M48.1 73.4H62l12.7 24.7c17.1-19 24.1-24.7 24.1-24.7h13.9l-10.8 50.7H87.3l5.1-24.7-22.8 24.1-12.7-24.8-5.1 26H36.7l11.4-51.3zM131 87.3h-15.2L119 74h44.3l-1.9 13.3h-15.2l-7.6 37.4h-15.2l7.6-37.4z" class="st0"/></svg>