<?xml version="1.0" encoding="utf-8"?>
<!-- Generator: Adobe Illustrator 22.1.0, SVG Export Plug-In . SVG Version: 6.00 Build 0)  -->
<svg version="1.1" id="Livello_1" xmlns="http://www.w3.org/2000/svg" xmlns:xlink="http://www.w3.org/1999/xlink" x="0px" y="0px"
	 viewBox="0 0 500 500" style="enable-background:new 0 0 500 500;" xml:space="preserve">
<style type="text/css">
	.st0{fill:#5E71B5;}
	.st1{fill:#5E93CE;}
	.st2{fill:#88B1DF;}
</style>
<path class="st0" d="M250,16.7C121.1,16.7,16.7,121.1,16.7,250S121.1,483.3,250,483.3S483.3,378.9,483.3,250S378.9,16.7,250,16.7z
	 M250,456.7c-114.2,0-206.7-92.6-206.7-206.7S135.8,43.3,250,43.3S456.7,135.8,456.7,250S364.2,456.7,250,456.7z"/>
<path class="st1" d="M250,43.3C135.8,43.3,43.3,135.8,43.3,250S135.8,456.7,250,456.7S456.7,364.2,456.7,250S364.2,43.3,250,43.3z
	 M250,407.7c-87.1,0-157.7-70.6-157.7-157.7S162.9,92.3,250,92.3S407.7,162.9,407.7,250S337.1,407.7,250,407.7z"/>
<path class="st2" d="M250,68.7C149.9,68.7,68.7,149.9,68.7,250S149.9,431.3,250,431.3S431.3,350.1,431.3,250S350.1,68.7,250,68.7z
	 M250,407.7c-87.1,0-157.7-70.6-157.7-157.7S162.9,92.3,250,92.3S407.7,162.9,407.7,250S337.1,407.7,250,407.7z"/>
</svg>
