<svg xmlns="http://www.w3.org/2000/svg" id="Livello_1" x="0" y="0" version="1.1" viewBox="0 0 200 200" xml:space="preserve"><style>.st1{fill:#ff007a}</style><linearGradient id="SVGID_1_" x1="32.8249" x2="167.1751" y1="167.1751" y2="32.8249" gradientUnits="userSpaceOnUse"><stop offset=".33" stop-color="#fff5ff"/><stop offset="1" stop-color="#ffadfc"/></linearGradient><circle cx="100" cy="100" r="95" fill="url(#SVGID_1_)"/><path d="M110.6 95.7c3.1 5.5-3.9 7.2-7.1 7.5-4.9.5-6-2.3-5-6 .3-1.3 1-2.5 2-3.3 1-.9 2.2-1.4 3.5-1.5 1.3-.1 2.6.1 3.8.7 1.2.6 2.2 1.5 2.8 2.6zM130 85.6c-3.6 27.6 45.1 21.9 44.1 43.8 4.8-6.2 6.9-23.2-7.3-31.9-12.6-7.8-28.9-3.5-36.8-11.9z" class="st1"/><path d="M169.3 95.3c-.5-.9-.9-1.6-1.5-2.4-1.6-2.2-4-3.8-6.7-4.5-1.8-.5-3.6-.8-5.4-.9-1.9-.1-3.8-.2-5.6-.3-3.9-.2-7.8-.6-11.6-1.7-.9-.3-1.9-.6-2.8-.9-.5-.2-.9-.4-1.4-.6-.5-.2-.9-.4-1.4-.7-1.8-1-3.4-2.2-5-3.6-3-2.7-5.3-5.9-7.6-8.9-2.2-3-4.6-6-7-8.7-2.5-2.7-5.4-5-8.6-6.8-3.4-1.7-7-2.7-10.7-3.1 3.9-.4 7.8 0 11.5 1.4s7.1 3.6 10 6.3c1.9 1.8 3.6 3.6 5.3 5.6 12.2-2.4 22.1-.3 29.6 3.9l.2.1c2.4 1.3 4.7 2.9 6.8 4.7.3.3.7.6.9.9 1.6 1.5 3.1 3.1 4.5 4.8l.1.1c4.2 5.8 6.4 11.7 6.4 15.3zm0 0zM93.4 55.4c3.1.4 7.3 2.1 9.3 4.5 2.1 2.3 2.8 5.4 3.4 8.3.5 2.2.9 4.6 1.8 6.7.4 1.1 1.1 2 1.6 3 .4.8 1.3 1.5 1.5 2.5 0 .1.1.3 0 .4 0 .1 0 .3-.1.4-1.1 1.2-4-.1-5.2-.7-1.9-.9-3.6-2.2-5-3.9-4.4-4.9-7.7-12.5-7.5-18.9 0-.7 0-1.5.2-2.3zm52.9 55.9c-6.7 18.8 23.7 31.3 12.3 50.4 11.7-4.8 17.3-19.4 12.4-31-4.2-10.2-16.8-13.9-24.7-19.4zM106 135.9c1.8-1.4 3.9-2.5 6-3.4 2.1-.9 4.3-1.5 6.7-1.9 4.5-.9 9-1.1 12.7-2.6 1.9-.7 3.5-1.8 5-3.1 1.4-1.3 2.5-3 3.2-4.8.7-1.9.9-4 .8-6-.2-2.2-.7-4.3-1.5-6.4 1.7 1.7 2.9 3.9 3.5 6.2.7 2.3.7 4.7.2 7.2-.6 2.5-1.9 4.8-3.6 6.6-1.8 1.8-3.9 3.1-6.3 3.9-2.2.8-4.6 1.3-7 1.4-2.3.2-4.5.2-6.7.4-4.4.1-8.8 1-13 2.5zm43 32.9c-.7.5-1.3 1.1-2.1 1.6s-1.5.9-2.3 1.3c-1.7.8-3.5 1.3-5.4 1.3-5.1-.1-8.7-3.9-10.8-8.2-1.4-2.9-2.5-6.1-4.1-8.9-2.5-4-6.6-7.2-11.5-6.6-2 .2-3.9 1.2-5 2.9-2.9 4.5 1.3 10.8 6.6 10 .4 0 .9-.2 1.3-.4s.8-.4 1.2-.7c.8-.6 1.3-1.4 1.6-2.3.3-.9.4-2 .2-3-.2-1.1-.8-2-1.7-2.6 1 .5 1.8 1.3 2.2 2.4.4 1.1.5 2.2.3 3.4-.2 1.2-.7 2.3-1.5 3.2-.4.5-.9.9-1.4 1.2-.5.3-1.1.6-1.7.8-1.2.4-2.5.5-3.8.4-1.8-.2-3.4-.9-4.8-2.1-1.6-1.3-2.9-3-4.3-4.5-1.7-1.8-3.8-3.3-6-4.3-1.5-.7-3.2-1.2-4.8-1.5-.8-.2-1.7-.3-2.5-.4-.4 0-2.2-.4-2.6-.2 2.6-2.4 5.4-4.5 8.5-6.3 3.1-1.8 6.4-3.3 9.9-4.2 3.6-1 7.4-1.3 11.1-.9 1.9.2 3.8.7 5.6 1.4 1.9.8 3.6 1.8 5.1 3.2 1.5 1.4 2.7 3.1 3.5 4.9.8 1.7 1.3 3.5 1.7 5.4 1.1 5.6.7 14.2 8 15.5.4.1.8.1 1.2.1h1.2c.8 0 1.6-.2 2.5-.3 1.5-.3 3.1-.9 4.6-1.6zm-42.4-6.1l-.2-.1.2.1zm-6.9-82.9c.2.3.4.7.5 1.1v.1c.1 1 0 2-.2 3-.3 1-.7 2-1.3 2.8-1.2 1.5-2.7 2.7-4.6 3.5-1.6.7-3.3 1.2-5.1 1.3-.4 0-.8.1-1.2.1-1.1 0-2.1.4-3 1.2-.9.7-1.5 1.6-1.8 2.7-.1.5-.2 1.1-.3 1.6-.2 1.4-.2 2.9-.3 4.7-.4 3-1.3 6-2.6 8.7-1.7 3.6-3.7 6.6-3.2 10.8.3 2.7 1.7 4.6 3.5 6.5 3.4 3.4 10.9 5 9.2 13.4-.9 4.7-8.6 9.8-19.3 11.9-.8.1-1.5-.3-1.8-1-.5-1.4-1.7-3.4-1.8-3.6-1.3-2-2.6-3.9-3.6-6-2-4.2-2.9-9-2.1-13.5.9-4.8 4.4-8.5 7.3-12.1 3.5-4.3 7.2-10.1 8-15.7.2-1.4.3-3.1.6-4.8.3-1.9.9-3.8 1.8-5.4.6-1.1 1.4-2.1 2.3-3 .5-.4.8-1.1.9-1.7.1-.7 0-1.3-.3-1.9L52.3 27s46.5 51.8 47.4 52.8zm-10 3.9c.3.4.7.7 1.2.9.4.2.9.3 1.4.3.5 0 .9-.1 1.4-.3.4-.2.9-.5 1.2-.9.3-.4.5-.9.5-1.4s-.1-1.1-.5-1.4c-.6-.8-38.6-48.5-38.6-48.5l33.4 51.3z" class="st1"/></svg>