<svg xmlns="http://www.w3.org/2000/svg" id="Calque_1" viewBox="0 0 200 200"><style>.st0{fill:#1a1a1a}</style><path d="M165.5 84.5c-5.5 4.2-11.4 2.4-14.5-.6-3.9-3.9-4.2-8.7-.9-14.5-.9-.4-1.7-.9-2.6-1.3-5.5-2.4-11.2-3.6-17.2-3.4-4.8.1-9.4 1.2-13.8 3-1 .4-2 1-3.1 1.4-.3.1-.8.1-1.1 0-.5-.1-.9-.4-1.4-.6-1.3-.6-1.3-.6-1.9.8-.7-.2-1.3-.3-2-.5-.3-.1-.6-.5-.9-.9-.8-1.2-2-1.9-3.4-2.2-.3-.1-.6-.3-.9-.5-.4-.3-.7-.6-1.1-1 .8-.4 1.5-.5 2.3-.1 1.5.7 3 1.5 4.6 2.3-.4-1.2-.8-2.4-1.2-3.5-.7-2-1.4-3.9-2.1-5.9-.1-.2-.4-.5-.6-.5-1.4-.4-2.8-.7-4.2-1.1-.4-.1-.8-.3-1.2-.4.6-1.1 1.2-2 2.6-1.9 1 .1 1.5.5 1.8 1.4.2.6.3 1.4 1.4 1.7-.3-.7-.4-1.4-.7-1.8-.6-1-.9-1.9-.8-3.1.1-1.3-.1-2.6-.9-3.8-.3.2-.5.4-.7.7-.5-.8-1-1.6-1.5-2.5 0 0-.7-.6-1.7-.9.2-1.1-1-1.6 0-3.6s-2.5 1.2-4.1.6c-1.6-.7-5.9-.4-6.2.3-.3.7-.2 2.2-.2 2.2-1.5 1.1-2.7 2.8-3.3 5.5-.1.5-.1.9-.2 1.3-.2 2.4 0 4.7 1.4 6.8.6 1 1.1 2.1 1.5 3.2.4.9.3 1.9.1 2.7-2.1-.9-4-2.2-6.1-2.6-2.2-.5-8.9-.2-8.9-.2-1.1-.1-2.2-.2-3.2-.3-1.3-.1-2.6-.3-3.9-.5-.8-.1-1.5-.6-1.9-1.3-.3-.5-.5-1 0-1.5.2-.2.2-.5.2-.7-.3-2.6-.7-5.2-1-7.8-.2-1.2-.4-2.4-.5-3.6-.1-.8 0-1.6.5-2.3.3-.5.5-1 .8-1.7-.5.1-.8.1-1 .2 0-.1-.1-.1-.1-.1.8-.6 1.1-1.7 2.1-2.1 1.6-.6 2.9-1.6 4.2-2.6 1-.8 1.9-1.8 2.9-2.6.6-.5 1.1-1 1.6-1.5.5-.4.2-1.3-.5-1.5-.4-.1-.8-.2-1.4-.3.4-.4.7-.9 1.1-1.2 1.5-1.4 2.9-2.8 4.4-4.2 1.7-1.6 3.4-3.2 5.1-4.9 1.9-1.8 3.8-3.6 5.7-5.3 2.6-2.5 5.7-6.6 7.1-9.9-1.2.8-3.8 2.6-5 3.4-3.7 2.7-6.8 6.1-9.8 9.5l-8.4 9c-.6.6-1.1 1.2-1.7 1.8-.4.5-.9.7-1.6.7-1.2 0-2.3.4-3.5.7-.3.1-.6.3-.8.6-1.9 2.3-3.9 4.7-5.7 7-.4.6-.6 1.3-1 2-.2-.1-.5-.1-.8-.2-.1.6-.1 1.1-.2 1.6-.6 4-1.1 8-1.7 12.1-.3 2.1-.1 4.2.3 6.3.1.7.1 1.4.2 2.2.2 0 .4-.1.7-.2-.2 1.3.7 1.8 1.6 2.5 1.2.9 2.1 2 3.3 2.9 2.5 2 5.3 3.4 8.3 4.6.2.1.4.2.7.4 0 0 8.8 1.8 9.1 2.7.3.4.7.8 1 1.2.5.6.9 1.3.4 2.1-.3.5-.2 1.1.3 1.5.2.2.3.6.3.8-.3 3.8.8 7.3 2.4 10.7.7 1.6 1.4 3.3 2 4.9.2.5.2 1 .3 1.5 0 0 3 25.2-1 30.9-.4 1-.8 1.9-1.1 2.8-.4 1.3-.7 2.6-.9 3.9 0 .2.4.5.6.7s.5.5.4.7c-.5 4.6-1.1 9.1-1.7 13.7-.2 1.7-.3 3.4-.5 5.1v.5c.1 1.9-.8 3.3-2.4 4.4-.5.4-.7.8-.7 1.4 0 .6-.1 1.3-.3 1.9-1.1 3.1-2 6.3-2.5 9.5-.5 3.3-.6 6.6-.9 9.9-.2 2.3-.5 4.6-1.8 6.6 0 0 0 .1-.1.1 2 .7 4.1 1.3 6.2 1.9l.3-.6c.9-1.4 1.5-3.1 2.5-4.5 1.5-2.3 2.1-4.9 3.2-7.3 1.1-2.4 2-4.9 3-7.4.3-.8.8-1.4 1.2-2.2.1-.3 0-.7 0-1 0-.1-.1-.3-.1-.4.6-3.9 1.2-7.7 1.7-11.6.3-2 1.1-3.7 2.3-5.2 3.1-3.9 4.9-8.3 6.1-13 .2-.8.2-1.7 1-2.2.1-.1.1-.3.1-.5 0-.6.1-1.1.1-1.7h.2v1.6c0 .6.1.8.7.8 2.2.1 2.2.1 2.5-2 .1-.5.1-1 .2-1.6h.2v2.5c0 .5-.2 1 .5 1.2.1 0 .1.3.2.5.9 4.5 2.1 8.8 3.5 13.1.6 1.6.7 3.4.5 5.1v.5c.6 2.9-.4 5.6-.7 8.4-.2 1.5 0 3-.1 4.5-.1.9-.1 1.7.2 2.5 1.6 3.3 1.6 6.9 2.4 10.4.2.9-.2 1.9.2 2.8.2.6.5 1.2.6 1.8.4 2.2-.2 4.4-1 6.4-.2.4-.3.8-.4 1.2 3.6-.4 7.1-1 10.5-1.8-.6-.4-1.3-.8-1.9-1.2-.4-.3-1.1-.5-.5-1.2 0 0 0-.2-.1-.2-.8-1.2-.4-2.5-.2-3.7.9-5 1.9-10 2.8-15 .4-2 .5-4.1.6-6.1.1-1.1-.2-2.2-.3-3.2-.1-1.3-.2-2.6-.3-4 0-.3-.1-.6-.1-.9-.3.1-.6.3-.9.4-.1 0-.1.1-.4.2.1-1.2.1-2.2.1-3.2 0-1.5.2-3 .1-4.5-.1-1.1-.2-2.2 0-3.4.2-1.7.3-3.5.5-5.2 9.6 3 19.1 2.6 28.3-1.5 7.2-3.2 12.9-8.2 17.1-14.9 8.6-13.3 7.5-28.9 1.1-39.8z" class="st0"/><path d="M100 17.9c11.7 0 23.1 2.3 33.8 6.8 10.4 4.4 19.6 10.6 27.6 18.6s14.3 17.3 18.6 27.6c4.5 10.7 6.8 22.1 6.8 33.8s-2.3 23.1-6.8 33.8c-4.4 10.4-10.6 19.6-18.6 27.6s-17.3 14.3-27.6 18.6c-10.7 4.5-22.1 6.8-33.8 6.8s-23.1-2.3-33.8-6.8c-10.4-4.4-19.6-10.6-27.6-18.6S24.3 148.8 20 138.5c-4.5-10.7-6.8-22.1-6.8-33.8s2.3-23.1 6.8-33.8c4.4-10.4 10.6-19.6 18.6-27.6S55.9 29 66.2 24.7c10.7-4.5 22.1-6.8 33.8-6.8m0-3.2C50.2 14.7 9.8 55 9.8 104.8S50.2 195 100 195s90.2-40.4 90.2-90.2-40.4-90.1-90.2-90.1z" class="st0"/></svg>