<svg xmlns="http://www.w3.org/2000/svg" id="Layer_1" viewBox="0 0 200 200"><style>.st1{fill:#f1f0f0}.st2{fill:#fff}</style><path id="Background_4_" fill="#0098dd" d="M181.6 31.5v137.1c0 7.2-5.9 13.1-13.1 13.1h-137c-7.2 0-13.1-5.9-13.1-13.1V31.5c0-7.2 5.9-13.1 13.1-13.1h137.1c7.1 0 13 5.9 13 13.1z"/><path id="Elec_3_" d="M112.4 61.5l-8.5-28.4-7.1 35.1-8.2-21.5-6.4 14.8-14.9 2.3 18.3 2.9 2.8-6.2 9.9 26.1 6.6-32.2 3.6 12.3 18-2.9z"/><path id="Bot_3_" d="M169.7 5H30.3C16.4 5 5 16.4 5 30.3v139.4C5 183.6 16.4 195 30.3 195h139.4c13.9 0 25.3-11.4 25.3-25.3V30.3C195 16.4 183.6 5 169.7 5zM31.5 18.4h137.1c7.2 0 13.1 5.9 13.1 13.1v114.9c-10.6-16.9-26.1-30.2-44.7-38l14.4-27.8c11.6 2.5 20.3-6.7 20.4-15.9.2-9.2-7.2-16.9-16.4-17.1s-16.9 7.2-17.1 16.4c-.2 5.7 2.7 10.9 7 13.9l-14.6 28.3c-9.9-3.4-20.4-5.2-31.5-5.2-12.4 0-24.3 2.3-35.4 6.7L52.6 84.9c4-3 6.7-7.9 6.7-13.4 0-9.2-7.5-16.8-16.8-16.8s-16.8 7.5-16.8 16.8 8.3 19.1 21 16.3l11.2 22.6c-16.1 7.2-29.7 18.9-39.5 33.5V31.5c0-7.2 5.9-13.1 13.1-13.1z"/><path id="_x32__8_" d="M152.1 147.1c0 11.1-8.9 9-19.9 9-11.1 0-19.9 1.8-19.9-9v-.3l36.2-11.1c2.3 3.2 3.6 7 3.6 11.4z" class="st1"/><path id="_x31__8_" d="M47.4 147.1c0 11.1 8.9 9 19.9 9s19.8 1.8 19.8-9v-.3l-36.2-11.1c-2.2 3.2-3.5 7-3.5 11.4z" class="st1"/><path id="_x33__12_" d="M31 71.5C30 60 42 56.8 47.4 60.6c-1.2.2-11.7.2-16.4 10.9z" class="st2"/><path id="_x32__7_" d="M166.7 64.8c1-12.2-11.1-14.7-16.3-10.9.9 0 11.6 0 16.3 10.9z" class="st2"/><path id="_x31__7_" d="M59.6 119.6c42.7-22.3 77.4-.7 80.4 1-37.8-11.9-80.4-1-80.4-1z" class="st2"/></svg>