<svg xmlns="http://www.w3.org/2000/svg" viewBox="0 0 200 200"><linearGradient id="a" x1="129.718" x2="-24.9337" y1="1357.3145" y2="451.6064" gradientTransform="translate(0 -1083.23)" gradientUnits="userSpaceOnUse"><stop offset="0" stop-color="#27a8cf"/><stop offset="1" stop-color="#64f0a1"/></linearGradient><path fill="url(#a)" d="M100 195c52.5 0 95-42.5 95-95S152.5 5 100 5 5 47.6 5 100c0 52.5 42.5 95 95 95z"/><path fill="#fff" fill-rule="evenodd" d="M99.9 29.9l10 5.8c-.6 0-.8.4-1 .8 0 .1 1.6-.5 1.6-.5l10.5 6.1.3 3c.6-.8 2.2-1.6 2.2-1.6l14.6 8.4v11.6c-.7.4-1.9 1.4-2 1.6H132c-.9-1.7-1.7 0-1.7 0h-3.5v-6.6l-1.9-1.1 1.3-1.3c-.7-.6-1.9-.1-2-.2l.6-1.9c-.9.6-1.8 1.2-2.8 1.6l-7.2-4.1c.3-.3.3-.8.1-1.1-.5-.9-1.8.1-1.8.1L99.9 43l-.2.1c0-.4-.1-.8-.1-1.3l-1.4 1.7.3.3.3-.3c.2-.1.5-.2.7-.3L73.1 58.4v30.9l2.7 1.6v1.2h1.4l-.3-.6 23 13.3 6.5-3.6 10.7 6.1-.9.1.8.8-17.1 9.8-20-11.6-6.7 3.9v30.9l4.4 2.5s-.2 1.2.3 1.6c0 0 .4-.6.2-1.4l21.3 12.3.4.3v.5l1.9-1.4 25-14.5v-7.9h-9.2l-17.6 10.1-15.4-8.8v-13.3l15.4 8.9 13.8-8H138v20l-.3-.6-1.3.7 1.6 1v4.5l-5.9 3.4-2-.5-.6 2-11.2 6.5-.9-.3c.3.4.4.5.5.5l-14.4 8.4-1-.8c0 .9.1 1.2.4 1.2l-3 1.8-38.2-22v-43.8l.4-.1-.3-.3 5.9-4.3-6-3.5V60l1 .5.4-.5c-.5-.3-1.1-.7-1.5-1.2v-6.9l38.3-22zm-.6 133.9c.1 1 .1 1 1 1.4-.3-.5-.6-.8-1-1.4zm13.1-4.1l-1.4 1.4 1.5.8c0-.9 0-1.5-.1-2.2zm-16.6 1.7c.5-1.2 0-1.1-.6-.9l.6.9zm2.8-3.4c-.3.4-1 .6-.5 1.4.1-.1.8-.9.5-1.4zm-10.9 0l-.4.1s.1.6.2.9l.2-.2v-.8zm24.3-1.6l-.8.4.8 1v-1.4zm-18.5-.2c.3-.7.4-1.1-.4-.9l.4.9zm25.5-1.6c.1-1.3-.3-1.4-1.1-.9l1.1.9zm-37.3-.9c-.5-.8-.6-2.1-2.2-1.6l1.6 2.2.6-.6zm-3.5-3.4v1.7l1.2-.8-1.2-.9zm4.7-1.7c.4-1 .2-1.3-.5-1.1l.5 1.1zm49-2.8l-2.4.5.7.6 1.4-.2-1.2 1.5c1 .5 1.6.3 2.1-.4-.1-.3-.6-2-.6-2zm5.5-1.1h-1.2v.4l1.2-.2v-.2zm-7.3-1.7l-1 1.2.2.4 2.1-.1-1.3-1.5zm-3.6.4v.2h.8c-.1-.2-.1-.3-.1-.4l-.7.2zM63.9 138l-.9 1.1c1.4.1 1.4-.3.9-1.1zm28.9.3v.4l.9-.2v-.3l-.9.1zm5.9-1.8l-.9.5.8.7.7-.6-.6-.6zm-1.5-.6l-.3.3c-.3.2-.3 1.1-.2 1.1l.3-.3c.3-.2.2-1 .2-1.1zm-8.3-2.3l-.8 1.1.4.4 1.2-.7-.8-.8zm1.5-3.2H90l.1 1.2h.2l.1-1.2zm30.2-.8l1.1.7c.2-.4.4-1 .6-1.5l-.4-.4-1.3 1.2zm-2.2-1.5c-1.3-.1-1.4.3-.9 1.1l.9-1.1zm-51.1-.9c-.6.5-.6.9 0 1.4v-1.4zm65.8-.5l-.3.2c.2.4.3.8.5 1.2.2.7.5.5.9.2-.3-.5-.7-1.1-1.1-1.6zm-40.3.6h-1s.1.8.2.8l.8-.2v-.6zm-20.7-1.2c-.4.3-.5.4-.5.5 0 .2.1.4.2.6l.3-1.1zm15.2-1.7v1l.8-.2c-.1-.3-.1-.6-.2-.8h-.6zm26.3-.7c-.8-.3-1.2-.1-.9.3l.9-.3zm22.9-1.1h-.5c.1.4.1.8.2 1.2h.2v-1.2zm-66.2-.6v1.1c1.5-.4 1.4-1.3 1.2-2.1l-1.2 1zM138 70.4V96l-.4.2s-.3-.3-.4-.5l-.7 1.1-5.2 3 4.6 2.6c-.6.3 1 3.9 1 3.9.5-1.4-1.4-2.3-.7-3.6h.1l1.7 1v2.7l-.7.1c.3.3.5.5.7.8v5.2c-.3.1-.7.2-1 .3.5 0 .9.3 1 .8v3.4h-11.3v-6.5l-7.5-4.3c-.3-.6-2.8-4.2-2.8-4.2l-2.6 1.1-13.9-8-6.5 3.6L82 92l17.9-10.2 20 11.5 6.7-3.9V72.8l.9.7v-1.6l-.9-.5v-1H138zm-5.5 43.9h-1.9l.8 1.1 1.1-1.1zm4.9-5h-.4l.2.8h.2v-.8zm-5.5-1.5l-.9.1s1 1.4 1 1.8l.9-.1c-.3-.4-.9-.9-.9-.9-.1-.3-.1-.5-.1-.9zm-19.8.1h-.4c.1.3.1.5.2.8h.2v-.8zm-46.6.1c-1.3-.1-1.3-.1-1.1.4l1.1-.4zm24-1.9h-1.7l1.8 1.1v.7l1.3-.9h-1.2c-.1-.5-.2-.7-.2-.9zm4.7 2.1c-1.1-1.3-1.1-1.3-1.3-1.1v1.1h1.3zm38.9-4.5c-.9 1-.9 2.6 0 3.6.2-.7.4-1.4.6-2 .3-.6 0-1.3-.6-1.6 0 .1 0 0 0 0zm-66.1.2c.1.2.4 2.6 2 2.8l-.9-1.2.5-1.1c.1 0-1.1-.9-1.6-.5zm40.4 2.2l-.2.2-.3.2-.4.3c1.2.4 1.1-.1.9-.7zm-31.6-1c0 .8.4 1.3 1.3 1.3l-1.3-1.3zm39.3-1.4h.9c.4.4.8.7 1.1 1.1l-2-1.1zm-22.4-.7c0 .1-.3.4-.4.5.6.4.9.1 1.4-.5 0 0-.7-.3-1 0zm-1.7-.6h-1.6l1.5 1.1c0-.5 0-.8.1-1.1zm36.2-1c-.6.3-.9 1.1-.6 1.7 0 0 0 .1.1.1.6-.3.9-1.1.6-1.7l-.1-.1zm-6.1-1.4c-.7-.1-.8.4-1.2.8l1.1.2c.9.6 0 2 1.1 2.2l2-2c-.7-.9-1.9-1.1-3-1.2zM77 95.9c.2.4 1.3 2.4 1.3 2.4.6.8.2 2.4 1.4 3.9-.2-.5.4-1.8.4-1.8.3-.7.6-1.3-.1-2-.7-.9-3-2.5-3-2.5zm-8.8 1.4l1.8 3.6h.6c0-.3.4-1.4.5-1.7-.6-.6-1.1-1.2-1.8-1.7-.2-.2-1.1-.2-1.1-.2zm45.6 1.8l-1.2.6 1.9.1-.7-.7zm9.4.2c-.4-.3-.6-1-1.4-.5.4.3.5 1 1.4.5zm6.4-4.8H127c-.5.8-.6 1.7-1.5 2-.1.7-.2 1.3-.3 2.1.1.1.3.5.4.8h.1l.2-.1.5-.3c-.2-.5-.4-.7-.5-.9l2.2-2.7h1.5v-.9zm-11 2.7c-1.1.1-1.4.5-1.5 1.5.9 0 1.5-.6 1.5-1.5 0 .1 0 0 0 0zm-44.9-1c-1.1.4-1.4 1-1.1 1.9.6.3 1.6-.1 1.8-.9l-.7-1zm14.5-2.3l1.8.6c.2 0 .4-.1.7-.3l-.8-1.1h-1.7v.8zm49.1-1.6l-.9.9.3.9c.7-.6 1-1.1.6-1.8zm-58.9.4h-1.7v.7c.5.3 1.2.2 1.6-.3.1-.1.1-.2.1-.4zm27.2.5h-.8v.4l.8-.2v-.2zm30-3.2c-1-.3-1.7-.1-1.9.8v.9h1.2l.7-1.7zm-70.9-1.6v1.7l1.1-1.5-1.1-.2zm33.9 1.1h-1.2v.4l1.2-.2v-.2zm10.1-1.1c-.3.7-.4 1.1.4.9l-.1-.2-.2-.4s-.1-.1-.1-.3zm27.5-1.5c.4 1 .4 1 1.4 1l-.5-.3-.3-.2-.6-.5zm-1.8-1.8l-1.9 1.9c.4.5 1 .9 1.7.4.7-.6.6-1.4.2-2.3zm-32.5-.3l-.8.2v.2h.8v-.4zm28.6-1.4h-.8v1.7c.3-.6.5-1 .6-1.4l.1-.2.1-.1zm1.2-5.1l-.1.2c-.2.3-.3.7-.6 1.1l1.3.6c0-.3.1-.6 0-.8 0-.2-.3-.5-.2-.6.4-.8-.2-.4-.4-.5zm-64-.4c-.4.4-.8.8-1.1 1.2l.6.6c.6-.5 1.2-1 .5-1.8zm60.9.4l-1 .2 1 1.2v-1.4zM69 76.5c-.1.9.1 1.8.5 2.6.1.1.4.1.8.1L69 76.5zm68.8-1.3c-1-.2-1.6.1-1.9 1.4.9-.1 1.6-.6 1.9-1.4zm-7.4-2.8l-1.3.1c.1.4.1.6.2.8h1.4c-.2-.4-.2-.6-.3-.9zm-3.7-.4l.2.1-.2.2V72zm-58.4-1.5c.1.5.2.9.3 1.5.3-.7.5-1.2.8-1.7l-1.1.2zm66.6.5l-1.5.1 2 .9.2-.3-.3-.3-.4-.4zm-68.7-1.3c-.2-.9-.7-1.3-1.6-.8l1.6.8zm4.2-2.7l-1.1 1c1.1.7 1.9-.1 2.8-.5l-1.7-.5zm-8-1.3c.2.2.4.5.6.6l.3-.3c-.2-.4-.4-.8-.9-1.6.1.1-.1 1.1 0 1.3zm65.4-2.4l1 1c-.1-.6-.2-1.7-.2-1.8l-.8.8zm-57.4-.6c-.4.7.5 1.3.6 1.4.3-.6-.5-1.3-.6-1.4zm65.5-.9h-.2V63h.4l-.2-1.2zm-5.9.4c-.4-.7-.8-1.4-2.1-1.3.9.6 1.1 1.4 2.1 1.3zm-64.6-2.8l-.7 1.4h1.8l-1.1-1.4zm69.8-1.7v2.2h.8c-.2-.7-.4-1.2-.8-2.2zm-69.7-1.4h-.8V58l.8-1.7zm6.3-.1l-.3.7 1.8.7c-.1-.1-.8-1.4-1.5-1.4zm-3.5-2.3l-1 .2 1 1.2v-1.4zm59-4.6c-.3.3-1.9 1.3-2.3 1.4l.6 2.4c.2-.3 1.8-1.1 1.8-1.8l-1.2-.5 2.5-.3-1.4-1.2zm8.1 4.1l-1.2.1v.9c.4-.3 1.1-.7 1.3-.7 0-.1 0-.2-.1-.3zm-6.1 0c-.3 1 .1 1.1.9.8l-.9-.8zm-55.3-1v1.7l1-1.3-1-.4zm44.7-1l.8 1.5 1.2-.6-.6-.3-.2-.1-1.2-.5zm2.1-5.6c-.2.3-.7 1.1-.7 1.1.1 0 1.1.5 1.4.6l-1.6 1.6c.1.9 2.7.6 2.8.2 0 0-3.6-.1 0-1.2l-1.9-2.3zm-52.2 3.6c0 .2.4.8.5.9 0 0 .2-.6.1-.7-.1-.2-.4-.2-.6-.2zm18.6-.1l-1.2.2v.2h1.2v-.4zm-13.3-1.2c-.1 1.3.3 1.4 1.1.9l-.2-.2-.1-.1-.8-.6zm55.7-1c-.9 0-1.5-.2-2.2.1.5.9 2.2.7 2.2.7v-.8zm-5.1-2.5c-.5.8-1.3.3-2 .4.1.2 2 1 2 1 .1.5.1.9.1 1.3h1.7v-1.7l-1.8-1zm-12.4-.7s.1.7-.4.7c0 0 .1.6.3 1.4l1.1-1.7c-.1 0-1-.4-1-.4zm-31.8 1c-.2 0-.4.1-.6.2-.1 0-.2.2-.3.3 1.1.3.9-.5.9-.5zm10-.8c-.4.9-.4 1.4 0 1.4.1-.3.2-.5.3-.8l1.1.7c-.5-.9-.7-1.3-1.1-2l-.3.7zm16.5-3.1c0 .2.4.8.5.9.1 0 .1-.1.2-.2 0-.2.1-.5 0-.6-.2 0-.5-.1-.7-.1zm-20.6 0H86v.8h.4c-.1-.2-.2-.8-.2-.8zm21.3-3.6c0 .9.6 1.7 1.4 2 0-.9-.1-1.4-.1-2h-1.3zm-5.8.4h-1.9l.8 1.1 1.1-1.1zm-1.3-3.7l-.3.1c.1.6.8 2.7.8 2.7.8.1 1.7.2 2-1.4h-1.6l-.9-1.4z" clip-rule="evenodd"/></svg>