<?xml version="1.0" encoding="utf-8"?>
<!-- Generator: Adobe Illustrator 23.0.1, SVG Export Plug-In . SVG Version: 6.00 Build 0)  -->
<svg version="1.0" id="Livello_1" xmlns="http://www.w3.org/2000/svg" xmlns:xlink="http://www.w3.org/1999/xlink" x="0px" y="0px"
	 viewBox="0 0 200 200" enable-background="new 0 0 200 200" xml:space="preserve">
<path fill="#4446ED" d="M172.08,10.5c-10.67,0-19.32,8.65-19.32,19.32c0,4.34,1.45,8.34,3.87,11.56L139.07,60.3
	c-13.76-12.65-32.11-20.37-52.28-20.37c-42.69,0-77.29,34.6-77.29,77.29s34.6,77.29,77.29,77.29s77.29-34.6,77.29-77.29
	c0-19.64-7.34-37.56-19.41-51.19l17.96-19.35c2.79,1.57,6.01,2.47,9.44,2.47c10.67,0,19.32-8.65,19.32-19.32
	S182.75,10.5,172.08,10.5z M86.79,182.5c-36,0-65.29-29.29-65.29-65.29s29.29-65.29,65.29-65.29s65.29,29.29,65.29,65.29
	S122.79,182.5,86.79,182.5z M172.08,37.14c-4.04,0-7.32-3.28-7.32-7.32s3.28-7.32,7.32-7.32c4.04,0,7.32,3.28,7.32,7.32
	S176.11,37.14,172.08,37.14z"/>
</svg>
