<?xml version="1.0" encoding="utf-8"?>
<!-- Generator: Adobe Illustrator 22.1.0, SVG Export Plug-In . SVG Version: 6.00 Build 0)  -->
<svg version="1.1" id="Livello_1" xmlns="http://www.w3.org/2000/svg" xmlns:xlink="http://www.w3.org/1999/xlink" x="0px" y="0px"
	 viewBox="0 0 200 200" style="enable-background:new 0 0 200 200;" xml:space="preserve">
<style type="text/css">
	.st0{fill:#5D57AE;}
</style>
<g>
	<path class="st0" d="M138.6,190.6c-0.2-0.1-0.1-0.5,0.1-0.5c5.4-0.8,9.3-1,13-2c11.3-3,17.1-13,13.5-22.8
		c-3.5-9.7-14.3-13.8-25-8.8C118.8,166.6,97.4,177,76,187.4c-10,4.8-20.1,8.7-31.6,7.1c-15-2.1-25.2-14.2-24.4-29.7
		c0.7-14.5,13.2-27.4,27.5-27.3c4.1,0,8.1,1.7,12.2,2.9c0.8,0.2,1.3,1.1,1.2,1.9l0,0c-0.1,0.5-0.5,0.9-1,0.9
		c-2.1,0.1-4.2,0.2-6.3,0.3c-12.1,0.6-21.2,10.1-19.6,20.4c1.5,10,11,16.8,20.8,13.8c7.8-2.4,15.2-6.3,22.6-9.8
		c17.6-8.4,35-17.1,52.6-25.3c8.8-4.1,18.1-6.6,28-4.1c10.7,2.8,18.3,8.9,21,20c2.8,11.2,0.3,21.2-8.3,29.1
		c-8,7.3-17.4,9.5-27.8,5.6C141.8,192.6,140.8,192.1,138.6,190.6z"/>
	<path class="st0" d="M59.3,43.6c0.7-0.6,1.7,0.1,1.4,1C54.1,62.5,55.1,79.3,69,94c7.9,8.5,18,12.9,29.4,13.1
		c16.6,0.2,29.6-7,38.2-21.4c8-13.5,7-27.5,0.8-42.2c-0.3-0.8,0.6-1.5,1.3-1c9.8,6.6,15.6,25.6,12.8,42.6c-3.8,22.8-24,41.1-47,43
		c-24.2,2-46.8-12.9-54.5-35.7C44,75.3,48.3,52.7,59.3,43.6z"/>
	<path class="st0" d="M115,54.9c-0.5,0.5-1.3,0-1.1-0.7c2.9-8.6,2.7-16.1-1-23.5c-2.7-5.4-6.8-9.1-13.4-9c-6.5,0-10.6,3.7-13.3,9.1
		c-3.7,7.5-4.5,15.2-1.6,23c0.2,0.6-0.6,1.1-1,0.6c-3.6-3.9-5.5-8.7-6.4-13.8c-1.8-10.6-1.1-20.9,7-29.1c8.2-8.3,21.1-8.7,29.8-1
		C125.5,20.4,125.5,43,115,54.9z"/>
</g>
</svg>
