<?xml version="1.0" encoding="utf-8"?>
<!-- Generator: Adobe Illustrator 22.1.0, SVG Export Plug-In . SVG Version: 6.00 Build 0)  -->
<svg version="1.0" id="Livello_1" xmlns="http://www.w3.org/2000/svg" xmlns:xlink="http://www.w3.org/1999/xlink" x="0px" y="0px"
	 viewBox="0 0 200 200" style="enable-background:new 0 0 200 200;" xml:space="preserve">
<style type="text/css">
	.st0{fill:#FEC907;}
</style>
<path class="st0" d="M45,171.9h-2.8V28h3.5c6.4,0,11.5-5.2,11.5-11.5c0,0,0,0,0,0C57.3,10.2,52.2,5,45.8,5c0,0,0,0,0,0h-16
	c-6.7,0-12.1,5.4-12.1,12.1c0,0,0,0,0,0v165.4c0,6.9,5.6,12.4,12.4,12.4c0,0,0,0,0,0h15c6.4,0,11.5-5.2,11.5-11.5S51.4,172,45,171.9
	z M170.3,51.1c-7.8-13.9-19.3-25.4-33.2-33.2c-14.1-8-29.8-12.1-47.3-12.1h-3.6c-6.4,0-11.5,5.2-11.5,11.5c0,0,0,0,0,0
	c0,6.4,5.2,11.5,11.5,11.5h3.1c12.6,0,24.1,3,34.5,9.1c10.2,6,18.7,14.7,24.5,25c6,10.6,9,22.5,9,35.8c0,13.1-2.9,24.9-8.8,35.5
	c-5.9,10.6-12.4,20.4-22.6,26.4s-19.2,11.3-31.7,11.3h-7.1c-6.4,0-11.5,5.2-11.5,11.5c0,6.4,5.2,11.5,11.5,11.5h5.8
	c17.6,0,31.8-5.3,45.4-14.3c14.8-9.8,23.8-20.6,31.9-34.8c8.1-14.1,12.2-29.9,12.2-47.4S178.3,65.2,170.3,51.1z"/>
</svg>
