<svg xmlns="http://www.w3.org/2000/svg" viewBox="0 0 200 200"><linearGradient id="a" x1="20.6628" x2="100" y1="171.5346" y2="171.5346" gradientUnits="userSpaceOnUse"><stop offset="0" stop-color="#29afe6"/><stop offset="1" stop-color="#2eb2e8"/></linearGradient><path fill="url(#a)" d="M100 170.1V195c-2.7 0-5.4-.6-8-1.7L28.1 165c-3-1.3-5.5-3.3-7.5-5.8l27.1-11.1L94.5 169c1.7.7 3.6 1.1 5.5 1.1z"/><linearGradient id="b" x1="19.4524" x2="100" y1="29.8487" y2="29.8487" gradientUnits="userSpaceOnUse"><stop offset="0" stop-color="#f29264"/><stop offset="1" stop-color="#ffd145"/></linearGradient><path fill="url(#b)" d="M100 5v24.9c-1.9 0-3.8.4-5.5 1.2l-47 21c-1.5.7-2.8 1.5-3.9 2.6l-24.1-9.9c1.9-3 4.6-5.5 7.9-7.1L91.3 7C94 5.7 97 5 100 5z"/><linearGradient id="c" x1="16.4265" x2="47.7666" y1="101.9957" y2="101.9957" gradientUnits="userSpaceOnUse"><stop offset="0" stop-color="#ec683a"/><stop offset="1" stop-color="#f08138"/></linearGradient><path fill="url(#c)" d="M47.8 148.1l-27.1 11.1c-2.7-3.4-4.2-7.7-4.2-12.2V55.3c0-3.8 1.1-7.4 3-10.5l24.1 9.9c-2.6 2.5-4.1 6-4.1 9.7v71.2c0 5.3 3.1 10.2 8 12.3l.3.2z"/><linearGradient id="d" x1="100" x2="178.9914" y1="171.6859" y2="171.6859" gradientUnits="userSpaceOnUse"><stop offset=".0026" stop-color="#49c1ee"/><stop offset="1" stop-color="#27a1db"/></linearGradient><path fill="url(#d)" d="M179 159.6c-1.9 2.3-4.3 4.1-7.1 5.4L108 193.3c-2.5 1.1-5.2 1.7-8 1.7v-24.9c1.9 0 3.8-.4 5.5-1.2l46.1-20.6 27.4 11.3z"/><linearGradient id="e" x1="100" x2="180.2305" y1="29.6542" y2="29.6542" gradientUnits="userSpaceOnUse"><stop offset="0" stop-color="#785da5"/><stop offset="1" stop-color="#c12b80"/></linearGradient><path fill="url(#e)" d="M180.2 44.4l-24.3 10c-1-.9-2.2-1.7-3.4-2.2l-47-21c-1.7-.8-3.6-1.2-5.5-1.2V5c3 0 6 .7 8.7 2l63.9 30.6c3.2 1.7 5.8 4 7.6 6.8z"/><linearGradient id="f" x1="151.5706" x2="183.5735" y1="101.9885" y2="101.9885" gradientUnits="userSpaceOnUse"><stop offset=".2783" stop-color="#b660a2"/><stop offset="1" stop-color="#d24f97"/></linearGradient><path fill="url(#f)" d="M183.6 55.3V147c0 4.7-1.7 9.1-4.6 12.6l-27.4-11.3 1-.4c4.9-2.2 8-7 8-12.3V64.4c0-3.9-1.7-7.6-4.6-10.1l24.3-10c2.1 3.2 3.3 7 3.3 11z"/><linearGradient id="g" x1="43.6023" x2="100" y1="53.7104" y2="53.7104" gradientUnits="userSpaceOnUse"><stop offset="0" stop-color="#ef7d44"/><stop offset="1" stop-color="#f9b031"/></linearGradient><path fill="url(#g)" d="M100 29.9v47.4l-.7.3-55.7-22.9c1.1-1.1 2.4-2 3.9-2.6l47-21c1.7-.8 3.6-1.2 5.5-1.2z"/><linearGradient id="h" x1="100" x2="155.9655" y1="53.5735" y2="53.5735" gradientUnits="userSpaceOnUse"><stop offset="0" stop-color="#544596"/><stop offset="1" stop-color="#81267f"/></linearGradient><path fill="url(#h)" d="M156 54.3l-56 23V29.9c1.9 0 3.8.4 5.5 1.2l47 21c1.3.6 2.5 1.3 3.5 2.2z"/><linearGradient id="i" x1="100" x2="160.5187" y1="101.3401" y2="101.3401" gradientUnits="userSpaceOnUse"><stop offset=".5" stop-color="#6b539e"/><stop offset="1" stop-color="#a7408d"/></linearGradient><path fill="url(#i)" d="M160.5 64.4v71.2c0 5.3-3.1 10.2-8 12.3l-1 .4-51.5-21.1V77.3l56-23c2.8 2.5 4.5 6.2 4.5 10.1z"/><linearGradient id="j" x1="100" x2="151.5562" y1="148.6744" y2="148.6744" gradientUnits="userSpaceOnUse"><stop offset=".0026" stop-color="#2975bb"/><stop offset="1" stop-color="#2473b9"/></linearGradient><path fill="url(#j)" d="M151.6 148.4L105.5 169c-1.7.8-3.6 1.2-5.5 1.2v-42.9l51.6 21.1z"/><linearGradient id="k" x1="47.7666" x2="100" y1="148.5375" y2="148.5375" gradientUnits="userSpaceOnUse"><stop offset="0" stop-color="#315ba6"/><stop offset="1" stop-color="#2f5faa"/></linearGradient><path fill="url(#k)" d="M100 127.2v42.9c-1.9 0-3.8-.4-5.5-1.2L47.8 148l51.5-21.1.7.3z"/><linearGradient id="l" x1="39.4813" x2="100" y1="101.3833" y2="101.3833" gradientUnits="userSpaceOnUse"><stop offset="0" stop-color="#e63c1d"/><stop offset=".5" stop-color="#ee701f"/></linearGradient><path fill="url(#l)" d="M100 77.3v49.9l-.7-.3L47.8 148l-.3-.1c-4.9-2.2-8-7-8-12.3V64.4c0-3.7 1.5-7.2 4.1-9.7l55.7 22.9.7-.3z"/><circle cx="100" cy="100" r="36" fill="#fcfdfd"/></svg>