<svg xmlns="http://www.w3.org/2000/svg" id="Livello_1" enable-background="new 0 0 200 200" viewBox="0 0 200 200"><style>.st0{fill-rule:evenodd;clip-rule:evenodd;fill:#d4d3d7}</style><path id="Fill-6" d="M159.9 44.9l-5.2 5.2c25.8 28.2 25.8 71.5 0 99.7l5.2 5.2c28.7-31.1 28.7-79.1 0-110.2v.1z" class="st0"/><path id="Fill-8" d="M50.2 45.3c28.2-25.8 71.5-25.8 99.7 0l5.2-5.2C124 11.4 76 11.4 44.9 40.1l5.3 5.2z" class="st0"/><path id="Fill-10" d="M45.3 149.8c-25.8-28.2-25.8-71.4 0-99.6L40.1 45c-28.7 31.1-28.7 79.1 0 110.2l5.2-5.4z" class="st0"/><path id="Fill-12" d="M149.8 154.6c-28.2 25.8-71.5 25.8-99.7 0l-5.2 5.2c31.1 28.7 79.1 28.7 110.2 0l-5.3-5.2z" class="st0"/><path id="Fill-14" fill="#f7931a" fill-rule="evenodd" d="M115.8 86.7c0 10.4-16.4 9.2-21.6 9.2V77.5c5.2 0 21.6-1.6 21.6 9.2m4.3 28.6c0 11.4-19.7 10.1-25.9 10.1v-20.2c6.2-.1 25.9-1.9 25.9 10.1m12.8-32.7c-1-10.9-10.5-14.5-22.4-15.7v-15h-9.2v14.7h-7.2V51.9h-9.4v14.7H66.4v10.2s6.8-.1 6.7 0c2.5-.3 4.8 1.5 5.2 4v41.3c-.1 1.8-1.7 3.2-3.4 3 .1.1-6.7 0-6.7 0l-1.8 11.2h18.5v15.1h9.4v-15.1h7.2v15.1h9.2v-15.2c15.5-.9 26.3-4.8 27.6-19.3 1.1-11.7-4.4-16.9-13.2-19 5.3-2.6 8.6-7.3 7.8-15.3" clip-rule="evenodd"/><g id="Group-18"><defs><filter id="Adobe_OpacityMaskFilter" width="190" height="190" x="5" y="5" filterUnits="userSpaceOnUse"><feColorMatrix values="1 0 0 0 0 0 1 0 0 0 0 0 1 0 0 0 0 0 1 0"/></filter></defs><mask id="mask-2_2_" width="190" height="190" x="5" y="5" maskUnits="userSpaceOnUse"><g filter="url(#Adobe_OpacityMaskFilter)"><path id="path-1_2_" fill="#fff" fill-rule="evenodd" d="M5 5h190v190H5z" clip-rule="evenodd"/></g></mask><path id="Fill-16" fill-rule="evenodd" d="M100 12.4c-48.3 0-87.5 39.2-87.5 87.6 0 48.3 39.2 87.5 87.6 87.5 48.3 0 87.5-39.2 87.5-87.5-.1-48.4-39.3-87.5-87.6-87.6zm0 182.6c-52.5 0-95-42.5-95-95S47.6 5 100 5c52.5 0 95 42.5 95 95-.1 52.4-42.6 94.9-95 95z" clip-rule="evenodd" mask="url(#mask-2_2_)"/></g></svg>