<?xml version="1.0" encoding="utf-8"?>
<!-- Generator: Adobe Illustrator 22.1.0, SVG Export Plug-In . SVG Version: 6.00 Build 0)  -->
<svg version="1.1" id="Livello_1" xmlns="http://www.w3.org/2000/svg" xmlns:xlink="http://www.w3.org/1999/xlink" x="0px" y="0px"
	 viewBox="0 0 200 200" style="enable-background:new 0 0 200 200;" xml:space="preserve">
<style type="text/css">
	.st0{fill:url(#SVGID_1_);}
	.st1{clip-path:url(#SVGID_3_);}
	.st2{fill:url(#SVGID_4_);}
	.st3{fill:url(#SVGID_5_);}
	.st4{fill:url(#SVGID_6_);}
	.st5{fill:url(#SVGID_7_);}
	.st6{fill:url(#SVGID_8_);}
	.st7{fill:url(#SVGID_9_);}
	.st8{fill:url(#SVGID_10_);}
	.st9{fill:url(#SVGID_11_);}
	.st10{fill:url(#SVGID_12_);}
	.st11{fill:url(#SVGID_13_);}
	.st12{fill:url(#SVGID_14_);}
	.st13{fill:url(#SVGID_15_);}
	.st14{fill:none;}
	.st15{clip-path:url(#SVGID_17_);fill:url(#SVGID_18_);}
</style>
<linearGradient id="SVGID_1_" gradientUnits="userSpaceOnUse" x1="3525.3882" y1="-809.8491" x2="4318.7603" y2="-809.8491" gradientTransform="matrix(0.1355 0.2086 0.2086 -0.1355 -260.188 -826.6007)">
	<stop  offset="0" style="stop-color:#49DAF4"/>
	<stop  offset="1" style="stop-color:#7DFABB"/>
</linearGradient>
<path class="st0" d="M128.2,189.2L43,171.1c-20-4.2-32.8-24-28.6-44l0,0l18.1-85.2c4.2-20,24-32.8,44-28.6l0,0l85.1,18.1
	c20,4.2,32.8,24,28.6,44l-18.1,85.2C168,180.6,148.3,193.4,128.2,189.2z"/>
<g>
	<g>
		<defs>
			<circle id="SVGID_2_" cx="102.4" cy="101.2" r="64.9"/>
		</defs>
		<clipPath id="SVGID_3_">
			<use xlink:href="#SVGID_2_"  style="overflow:visible;"/>
		</clipPath>
		<g class="st1">
			<g>
				
					<linearGradient id="SVGID_4_" gradientUnits="userSpaceOnUse" x1="1398.0448" y1="-2124.197" x2="2162.4448" y2="-2124.197" gradientTransform="matrix(0.2487 0 0 -0.2487 -367.5 -471.0817)">
					<stop  offset="0" style="stop-color:#002DBD"/>
					<stop  offset="1" style="stop-color:#00C195"/>
				</linearGradient>
				<path class="st2" d="M-14.9,80c33.5-3.4,66.3,1.3,90.5-21.7s94.7-37.5,94.7-37.5l-30.4,15c0,0-12-2.9-41.1,23
					C69.7,84.6,17.9,94-6.3,93.6C-30.4,93.2-14.9,80-14.9,80z"/>
				
					<linearGradient id="SVGID_5_" gradientUnits="userSpaceOnUse" x1="1361.2797" y1="-2196.3821" x2="2381.5842" y2="-2196.3821" gradientTransform="matrix(0.2487 0 0 -0.2487 -367.5 -471.0817)">
					<stop  offset="0" style="stop-color:#002DBD"/>
					<stop  offset="1" style="stop-color:#00C195"/>
				</linearGradient>
				<path class="st3" d="M-24.3,109.3c16.5-0.8,71.2-27.6,115.6-25.1c44.5,2.5,47.4-19,85.6-24.2s47.9-32.8,47.9-32.8v11.5
					c0,0-9.3,7.3-22.3,18.8c-13.1,11.5-15,6.4-33.9,16.2c-18.8,9.7-22.3,29.3-57.1,23.8S68.4,87.2,50,100
					c-18.3,12.8-32.9,29.8-61.9,20.4C-40.7,111-24.3,109.3-24.3,109.3z"/>
				
					<linearGradient id="SVGID_6_" gradientUnits="userSpaceOnUse" x1="1416.9683" y1="-2310.4988" x2="2477.9075" y2="-2310.4988" gradientTransform="matrix(0.2487 0 0 -0.2487 -367.5 -471.0817)">
					<stop  offset="0" style="stop-color:#002DBD"/>
					<stop  offset="1" style="stop-color:#00C195"/>
				</linearGradient>
				<path class="st4" d="M-15.1,148.5c0,0,71,7.2,86-15.8s36.4-26.8,52.3-26.8s74.8,11.4,92.3-19.6s10.1-43.9,26.1-47.7
					c16.1-3.7,0,6.3,0,6.3s-3.9-1.5-8.2,13.3c-4.3,14.9-0.4,36.2-16.4,51.9c-16,15.8-33.4,3.8-48.4,3.8s-30,16.3-66.8,17.1
					c-36.7,0.8-73.4,38.3-73.4,38.3l-43.5-8.9L-15.1,148.5z"/>
				
					<linearGradient id="SVGID_7_" gradientUnits="userSpaceOnUse" x1="1671.8939" y1="-2487.9419" x2="2301.5681" y2="-2487.9419" gradientTransform="matrix(0.2487 0 0 -0.2487 -367.5 -471.0817)">
					<stop  offset="0" style="stop-color:#002DBD"/>
					<stop  offset="1" style="stop-color:#00C195"/>
				</linearGradient>
				<path class="st5" d="M48.3,183.7c6.7-10.7,20.8-32.7,44-36.6s53.2,3.4,70.1-17.1c16.9-20.4,42.5-18.3,42.5-18.3l-6.7,7.2
					c0,0-20.8-1.3-25.7,9.2c-4.8,10.5-21.8,27.6-43.1,29.7c-21.2,2-37.6,25.9-37.6,25.9L48.3,183.7L48.3,183.7z"/>
				
					<linearGradient id="SVGID_8_" gradientUnits="userSpaceOnUse" x1="1950.0514" y1="-2633.0186" x2="2113.7917" y2="-2633.0186" gradientTransform="matrix(0.2487 0 0 -0.2487 -367.5 -471.0817)">
					<stop  offset="0" style="stop-color:#002DBD"/>
					<stop  offset="1" style="stop-color:#00C195"/>
				</linearGradient>
				<path class="st6" d="M123.3,208.3c0,0-13.1-21.2,0-29.6c13.1-8.3,34.9-19.6,34.9-19.6l-4.9,8.4c0,0-4.4-1.7-12.1,5.6
					c-7.7,7.2,4.7,35.3,4.7,35.3L123.3,208.3L123.3,208.3z"/>
				
					<linearGradient id="SVGID_9_" gradientUnits="userSpaceOnUse" x1="1436.6707" y1="-2245.7322" x2="2426.2163" y2="-2245.7322" gradientTransform="matrix(0.2487 0 0 -0.2487 -367.5 -471.0817)">
					<stop  offset="0" style="stop-color:#002DBD"/>
					<stop  offset="1" style="stop-color:#00C195"/>
				</linearGradient>
				<path class="st7" d="M235.9,33.6c-7.1,6.8-15.7,13.9-22.5,21.9c-6.8,7.9-4.8,36.6-29.2,36.4s-41,13.8-69.3,9.5
					c-28.3-4.4-72.4,34.5-95.1,33.3c-22.6-1.1-30,0-30,0s24.7,12.5,41.7,3s63.5-36.1,93.4-33.8s51.1-7.6,63.3-9.3
					c12.2-1.6,17.1-7.1,21.2-24.4s19.1-26.4,19.1-26.4L235.9,33.6z"/>
				
					<linearGradient id="SVGID_10_" gradientUnits="userSpaceOnUse" x1="1786.5347" y1="-2509.0015" x2="2209.0359" y2="-2086.5" gradientTransform="matrix(0.2487 0 0 -0.2487 -394.4492 -470.2506)">
					<stop  offset="0" style="stop-color:#0052FF"/>
					<stop  offset="1" style="stop-color:#00FF95"/>
				</linearGradient>
				<circle class="st8" cx="102.4" cy="101.2" r="74.3"/>
				
					<linearGradient id="SVGID_11_" gradientUnits="userSpaceOnUse" x1="1398.0448" y1="-2124.197" x2="2162.4448" y2="-2124.197" gradientTransform="matrix(0.2487 0 0 -0.2487 -367.5 -471.0817)">
					<stop  offset="0" style="stop-color:#002DBD"/>
					<stop  offset="1" style="stop-color:#00C195"/>
				</linearGradient>
				<path class="st9" d="M-14.9,80c33.5-3.4,66.3,1.3,90.5-21.7s94.7-37.5,94.7-37.5l-30.4,15c0,0-12-2.9-41.1,23
					C69.7,84.6,17.9,94-6.3,93.6C-30.4,93.2-14.9,80-14.9,80z"/>
				
					<linearGradient id="SVGID_12_" gradientUnits="userSpaceOnUse" x1="1361.2797" y1="-2196.3821" x2="2381.5842" y2="-2196.3821" gradientTransform="matrix(0.2487 0 0 -0.2487 -367.5 -471.0817)">
					<stop  offset="0" style="stop-color:#002DBD"/>
					<stop  offset="1" style="stop-color:#00C195"/>
				</linearGradient>
				<path class="st10" d="M-24.3,109.3c16.5-0.8,71.2-27.6,115.6-25.1c44.5,2.5,47.4-19,85.6-24.2s47.9-32.8,47.9-32.8v11.5
					c0,0-9.3,7.3-22.3,18.8c-13.1,11.5-15,6.4-33.9,16.2c-18.8,9.7-22.3,29.3-57.1,23.8S68.4,87.2,50,100
					c-18.3,12.8-32.9,29.8-61.9,20.4C-40.7,111-24.3,109.3-24.3,109.3z"/>
				
					<linearGradient id="SVGID_13_" gradientUnits="userSpaceOnUse" x1="1416.9683" y1="-2310.4988" x2="2477.9075" y2="-2310.4988" gradientTransform="matrix(0.2487 0 0 -0.2487 -367.5 -471.0817)">
					<stop  offset="0" style="stop-color:#002DBD"/>
					<stop  offset="1" style="stop-color:#00C195"/>
				</linearGradient>
				<path class="st11" d="M-15.1,148.5c0,0,71,7.2,86-15.8s36.4-26.8,52.3-26.8s74.8,11.4,92.3-19.6s10.1-43.9,26.1-47.7
					c16.1-3.7,0,6.3,0,6.3s-3.9-1.5-8.2,13.3c-4.3,14.9-0.4,36.2-16.4,51.9c-16,15.8-33.4,3.8-48.4,3.8s-30,16.3-66.8,17.1
					c-36.7,0.8-73.4,38.3-73.4,38.3l-43.5-8.9L-15.1,148.5z"/>
				
					<linearGradient id="SVGID_14_" gradientUnits="userSpaceOnUse" x1="1671.8939" y1="-2487.9419" x2="2301.5681" y2="-2487.9419" gradientTransform="matrix(0.2487 0 0 -0.2487 -367.5 -471.0817)">
					<stop  offset="0" style="stop-color:#002DBD"/>
					<stop  offset="1" style="stop-color:#00C195"/>
				</linearGradient>
				<path class="st12" d="M48.3,183.7c6.7-10.7,20.8-32.7,44-36.6s53.2,3.4,70.1-17.1c16.9-20.4,42.5-18.3,42.5-18.3l-6.7,7.2
					c0,0-20.8-1.3-25.7,9.2c-4.8,10.5-21.8,27.6-43.1,29.7c-21.2,2-37.6,25.9-37.6,25.9L48.3,183.7L48.3,183.7z"/>
				
					<linearGradient id="SVGID_15_" gradientUnits="userSpaceOnUse" x1="1436.6707" y1="-2245.7322" x2="2426.2163" y2="-2245.7322" gradientTransform="matrix(0.2487 0 0 -0.2487 -367.5 -471.0817)">
					<stop  offset="0" style="stop-color:#002DBD"/>
					<stop  offset="1" style="stop-color:#00C195"/>
				</linearGradient>
				<path class="st13" d="M235.9,33.6c-7.1,6.8-15.7,13.9-22.5,21.9c-6.8,7.9-4.8,36.6-29.2,36.4s-41,13.8-69.3,9.5
					c-28.3-4.4-72.4,34.5-95.1,33.3c-22.6-1.1-30,0-30,0s24.7,12.5,41.7,3s63.5-36.1,93.4-33.8s51.1-7.6,63.3-9.3
					c12.2-1.6,17.1-7.1,21.2-24.4s19.1-26.4,19.1-26.4L235.9,33.6z"/>
				<circle class="st14" cx="102.4" cy="101.2" r="74.3"/>
			</g>
			<g>
				<g>
					<g>
						<g id="Livello_1_1_">
							<g>
								<g>
									<defs>
										<circle id="SVGID_16_" cx="102.4" cy="101.2" r="64.9"/>
									</defs>
									<clipPath id="SVGID_17_">
										<use xlink:href="#SVGID_16_"  style="overflow:visible;"/>
									</clipPath>
									
										<linearGradient id="SVGID_18_" gradientUnits="userSpaceOnUse" x1="1839.2767" y1="-2191.0317" x2="2156.2939" y2="-2404.8721" gradientTransform="matrix(0.2487 0 0 -0.2487 -394.4492 -470.2506)">
										<stop  offset="0" style="stop-color:#49DAF4"/>
										<stop  offset="1" style="stop-color:#7DFABB"/>
									</linearGradient>
									<polygon class="st15" points="93.9,121.9 132.6,130.1 129.1,146.7 59.5,131.9 111,80.5 72.2,72.2 75.7,55.8 145.3,70.6 
																			"/>
								</g>
							</g>
						</g>
					</g>
				</g>
			</g>
		</g>
	</g>
</g>
</svg>
