<?xml version="1.0" encoding="utf-8"?>
<!-- Generator: Adobe Illustrator 22.1.0, SVG Export Plug-In . SVG Version: 6.00 Build 0)  -->
<svg version="1.1" id="Livello_1" xmlns="http://www.w3.org/2000/svg" xmlns:xlink="http://www.w3.org/1999/xlink" x="0px" y="0px"
	 viewBox="0 0 200 200" style="enable-background:new 0 0 200 200;" xml:space="preserve">
<style type="text/css">
	.st0{fill:url(#SVGID_1_);}
	.st1{clip-path:url(#SVGID_3_);}
	.st2{fill:url(#SVGID_4_);}
	.st3{fill:url(#SVGID_5_);}
	.st4{fill:url(#SVGID_6_);}
	.st5{fill:url(#SVGID_7_);}
	.st6{fill:url(#SVGID_8_);}
	.st7{fill:url(#SVGID_9_);}
	.st8{fill:url(#SVGID_10_);}
	.st9{fill:url(#SVGID_11_);}
	.st10{fill:url(#SVGID_12_);}
	.st11{fill:url(#SVGID_13_);}
	.st12{fill:url(#SVGID_14_);}
	.st13{fill:url(#SVGID_15_);}
	.st14{fill:none;}
	.st15{clip-path:url(#SVGID_17_);fill:url(#SVGID_18_);}
</style>
<linearGradient id="SVGID_1_" gradientUnits="userSpaceOnUse" x1="3488.2004" y1="1014.8658" x2="4337.4653" y2="1014.8658" gradientTransform="matrix(0.1355 0.2086 -0.2086 0.1355 -218.468 -853.7007)">
	<stop  offset="0" style="stop-color:#49DAF4"/>
	<stop  offset="1" style="stop-color:#7DFABB"/>
</linearGradient>
<path class="st0" d="M127.7,194.1l-91.2-19.4c-21.4-4.5-35.1-25.7-30.6-47.1l19.4-91.2C29.8,15.1,51,1.4,72.4,5.9l91.1,19.4
	c21.4,4.5,35.1,25.7,30.6,47.1l-19.4,91.2C170.3,184.9,149.2,198.6,127.7,194.1L127.7,194.1z"/>
<g>
	<defs>
		<circle id="SVGID_2_" cx="100.1" cy="99.9" r="69.5"/>
	</defs>
	<clipPath id="SVGID_3_">
		<use xlink:href="#SVGID_2_"  style="overflow:visible;"/>
	</clipPath>
	<g class="st1">
		
			<linearGradient id="SVGID_4_" gradientUnits="userSpaceOnUse" x1="1354.2075" y1="2306.6946" x2="2172.459" y2="2306.6946" gradientTransform="matrix(0.2487 0 0 0.2487 -367.5 -520.8217)">
			<stop  offset="0" style="stop-color:#002DBD"/>
			<stop  offset="1" style="stop-color:#00C195"/>
		</linearGradient>
		<path class="st2" d="M-25.5,77.3c35.9-3.6,71,1.4,96.9-23.2s101.4-40.1,101.4-40.1l-32.5,16.1c0,0-12.8-3.1-44,24.6
			C65.1,82.2,9.7,92.2-16.3,91.8C-42,91.4-25.5,77.3-25.5,77.3z"/>
		
			<linearGradient id="SVGID_5_" gradientUnits="userSpaceOnUse" x1="1314.8523" y1="2383.9648" x2="2407.0369" y2="2383.9648" gradientTransform="matrix(0.2487 0 0 0.2487 -367.5 -520.8217)">
			<stop  offset="0" style="stop-color:#002DBD"/>
			<stop  offset="1" style="stop-color:#00C195"/>
		</linearGradient>
		<path class="st3" d="M-35.5,108.6c17.7-0.9,76.2-29.5,123.7-26.9c47.6,2.7,50.7-20.3,91.6-25.9s51.3-35.1,51.3-35.1V33
			c0,0-10,7.8-23.9,20.1c-14,12.3-16.1,6.9-36.3,17.3c-20.1,10.4-23.9,31.4-61.1,25.5C72.6,90.1,63.7,85,44,98.7
			c-19.6,13.7-35.2,31.9-66.3,21.8C-53.1,110.4-35.5,108.6-35.5,108.6z"/>
		
			<linearGradient id="SVGID_6_" gradientUnits="userSpaceOnUse" x1="1374.4642" y1="2506.1211" x2="2510.146" y2="2506.1211" gradientTransform="matrix(0.2487 0 0 0.2487 -367.5 -520.8217)">
			<stop  offset="0" style="stop-color:#002DBD"/>
			<stop  offset="1" style="stop-color:#00C195"/>
		</linearGradient>
		<path class="st4" d="M-25.7,150.6c0,0,76,7.7,92.1-16.9s39-28.7,56-28.7s80.1,12.2,98.8-21s10.8-47,27.9-51.1c17.2-4,0,6.7,0,6.7
			s-4.2-1.6-8.8,14.2c-4.6,15.9-0.4,38.8-17.6,55.6c-17.1,16.9-35.8,4.1-51.8,4.1s-32.1,17.4-71.5,18.3c-39.3,0.9-78.6,41-78.6,41
			l-46.6-9.5L-25.7,150.6L-25.7,150.6z"/>
		
			<linearGradient id="SVGID_7_" gradientUnits="userSpaceOnUse" x1="1647.3491" y1="2696.0647" x2="2321.3835" y2="2696.0647" gradientTransform="matrix(0.2487 0 0 0.2487 -367.5 -520.8217)">
			<stop  offset="0" style="stop-color:#002DBD"/>
			<stop  offset="1" style="stop-color:#00C195"/>
		</linearGradient>
		<path class="st5" d="M42.2,188.3c7.2-11.5,22.3-35,47.1-39.2c24.8-4.2,56.9,3.6,75-18.3c18.1-21.8,45.5-19.6,45.5-19.6l-7.2,7.7
			c0,0-22.3-1.4-27.5,9.8c-5.1,11.2-23.3,29.5-46.1,31.8c-22.7,2.1-40.2,27.7-40.2,27.7L42.2,188.3L42.2,188.3z"/>
		
			<linearGradient id="SVGID_8_" gradientUnits="userSpaceOnUse" x1="1945.1028" y1="2851.3621" x2="2120.3787" y2="2851.3621" gradientTransform="matrix(0.2487 0 0 0.2487 -367.5 -520.8217)">
			<stop  offset="0" style="stop-color:#002DBD"/>
			<stop  offset="1" style="stop-color:#00C195"/>
		</linearGradient>
		<path class="st6" d="M122.5,214.6c0,0-14-22.7,0-31.7c14-8.9,37.4-21,37.4-21l-5.2,9c0,0-4.7-1.8-13,6c-8.2,7.7,5,37.8,5,37.8
			L122.5,214.6L122.5,214.6z"/>
		
			<linearGradient id="SVGID_9_" gradientUnits="userSpaceOnUse" x1="1395.5547" y1="2436.7917" x2="2454.8132" y2="2436.7917" gradientTransform="matrix(0.2487 0 0 0.2487 -367.5 -520.8217)">
			<stop  offset="0" style="stop-color:#002DBD"/>
			<stop  offset="1" style="stop-color:#00C195"/>
		</linearGradient>
		<path class="st7" d="M243,27.6c-7.6,7.3-16.8,14.9-24.1,23.4c-7.3,8.5-5.1,39.2-31.3,39s-43.9,14.8-74.2,10.2
			C83.2,95.5,36,137.1,11.7,135.8c-24.2-1.2-32.1,0-32.1,0S6,149.2,24.2,139s68-38.6,100-36.2c32,2.5,54.7-8.1,67.8-10
			c13.1-1.7,18.3-7.6,22.7-26.1c4.4-18.5,20.4-28.3,20.4-28.3L243,27.6L243,27.6z"/>
		
			<linearGradient id="SVGID_10_" gradientUnits="userSpaceOnUse" x1="1762.4325" y1="2718.8438" x2="2214.6985" y2="2266.5771" gradientTransform="matrix(0.2487 0 0 0.2487 -394.4492 -519.9906)">
			<stop  offset="0" style="stop-color:#0052FF"/>
			<stop  offset="1" style="stop-color:#00FF95"/>
		</linearGradient>
		<circle class="st8" cx="100.1" cy="99.9" r="79.5"/>
		
			<linearGradient id="SVGID_11_" gradientUnits="userSpaceOnUse" x1="1354.2075" y1="2306.6946" x2="2172.459" y2="2306.6946" gradientTransform="matrix(0.2487 0 0 0.2487 -367.5 -520.8217)">
			<stop  offset="0" style="stop-color:#002DBD"/>
			<stop  offset="1" style="stop-color:#00C195"/>
		</linearGradient>
		<path class="st9" d="M-25.5,77.3c35.9-3.6,71,1.4,96.9-23.2s101.4-40.1,101.4-40.1l-32.5,16.1c0,0-12.8-3.1-44,24.6
			C65.1,82.2,9.7,92.2-16.3,91.8C-42,91.4-25.5,77.3-25.5,77.3z"/>
		
			<linearGradient id="SVGID_12_" gradientUnits="userSpaceOnUse" x1="1314.8523" y1="2383.9648" x2="2407.0369" y2="2383.9648" gradientTransform="matrix(0.2487 0 0 0.2487 -367.5 -520.8217)">
			<stop  offset="0" style="stop-color:#002DBD"/>
			<stop  offset="1" style="stop-color:#00C195"/>
		</linearGradient>
		<path class="st10" d="M-35.5,108.6c17.7-0.9,76.2-29.5,123.7-26.9c47.6,2.7,50.7-20.3,91.6-25.9s51.3-35.1,51.3-35.1V33
			c0,0-10,7.8-23.9,20.1c-14,12.3-16.1,6.9-36.3,17.3c-20.1,10.4-23.9,31.4-61.1,25.5C72.6,90.1,63.7,85,44,98.7
			c-19.6,13.7-35.2,31.9-66.3,21.8C-53.1,110.4-35.5,108.6-35.5,108.6z"/>
		
			<linearGradient id="SVGID_13_" gradientUnits="userSpaceOnUse" x1="1374.4642" y1="2506.1211" x2="2510.146" y2="2506.1211" gradientTransform="matrix(0.2487 0 0 0.2487 -367.5 -520.8217)">
			<stop  offset="0" style="stop-color:#002DBD"/>
			<stop  offset="1" style="stop-color:#00C195"/>
		</linearGradient>
		<path class="st11" d="M-25.7,150.6c0,0,76,7.7,92.1-16.9s39-28.7,56-28.7s80.1,12.2,98.8-21s10.8-47,27.9-51.1c17.2-4,0,6.7,0,6.7
			s-4.2-1.6-8.8,14.2c-4.6,15.9-0.4,38.8-17.6,55.6c-17.1,16.9-35.8,4.1-51.8,4.1s-32.1,17.4-71.5,18.3c-39.3,0.9-78.6,41-78.6,41
			l-46.6-9.5L-25.7,150.6L-25.7,150.6z"/>
		
			<linearGradient id="SVGID_14_" gradientUnits="userSpaceOnUse" x1="1647.3491" y1="2696.0647" x2="2321.3835" y2="2696.0647" gradientTransform="matrix(0.2487 0 0 0.2487 -367.5 -520.8217)">
			<stop  offset="0" style="stop-color:#002DBD"/>
			<stop  offset="1" style="stop-color:#00C195"/>
		</linearGradient>
		<path class="st12" d="M42.2,188.3c7.2-11.5,22.3-35,47.1-39.2c24.8-4.2,56.9,3.6,75-18.3c18.1-21.8,45.5-19.6,45.5-19.6l-7.2,7.7
			c0,0-22.3-1.4-27.5,9.8c-5.1,11.2-23.3,29.5-46.1,31.8c-22.7,2.1-40.2,27.7-40.2,27.7L42.2,188.3L42.2,188.3z"/>
		
			<linearGradient id="SVGID_15_" gradientUnits="userSpaceOnUse" x1="1395.5547" y1="2436.7917" x2="2454.8132" y2="2436.7917" gradientTransform="matrix(0.2487 0 0 0.2487 -367.5 -520.8217)">
			<stop  offset="0" style="stop-color:#002DBD"/>
			<stop  offset="1" style="stop-color:#00C195"/>
		</linearGradient>
		<path class="st13" d="M243,27.6c-7.6,7.3-16.8,14.9-24.1,23.4c-7.3,8.5-5.1,39.2-31.3,39s-43.9,14.8-74.2,10.2
			C83.2,95.5,36,137.1,11.7,135.8c-24.2-1.2-32.1,0-32.1,0S6,149.2,24.2,139s68-38.6,100-36.2c32,2.5,54.7-8.1,67.8-10
			c13.1-1.7,18.3-7.6,22.7-26.1c4.4-18.5,20.4-28.3,20.4-28.3L243,27.6L243,27.6z"/>
		<circle class="st14" cx="100.1" cy="99.9" r="79.5"/>
		<g>
			<g>
				<defs>
					<circle id="SVGID_16_" cx="100.1" cy="99.9" r="69.5"/>
				</defs>
				<clipPath id="SVGID_17_">
					<use xlink:href="#SVGID_16_"  style="overflow:visible;"/>
				</clipPath>
				
					<linearGradient id="SVGID_18_" gradientUnits="userSpaceOnUse" x1="1818.89" y1="2378.4731" x2="2158.241" y2="2607.3784" gradientTransform="matrix(0.2487 0 0 0.2487 -394.4492 -519.9906)">
					<stop  offset="0" style="stop-color:#49DAF4"/>
					<stop  offset="1" style="stop-color:#7DFABB"/>
				</linearGradient>
				<path class="st15" d="M91,122.1l41.4,8.8l-3.7,17.8l-74.5-15.8l55.1-55l-41.5-8.9l3.7-17.6L146,67.2L91,122.1z"/>
			</g>
		</g>
	</g>
</g>
</svg>
