<?xml version="1.0" encoding="utf-8"?>
<!-- Generator: Adobe Illustrator 16.0.0, SVG Export Plug-In . SVG Version: 6.00 Build 0)  -->
<!DOCTYPE svg PUBLIC "-//W3C//DTD SVG 1.0//EN" "http://www.w3.org/TR/2001/REC-SVG-20010904/DTD/svg10.dtd">
<svg version="1.0" id="Livello_1" xmlns="http://www.w3.org/2000/svg" xmlns:xlink="http://www.w3.org/1999/xlink" x="0px" y="0px"
	 width="200px" height="200px" viewBox="0 0 200 200" enable-background="new 0 0 200 200" xml:space="preserve">
<title>token_fdz</title>
<g>
	<g>
		<g>
			
				<linearGradient id="SVGID_1_" gradientUnits="userSpaceOnUse" x1="3525.4463" y1="-809.4766" x2="4318.7383" y2="-809.4766" gradientTransform="matrix(0.1355 0.2086 0.2086 -0.1355 -260.188 -826.6007)">
				<stop  offset="0" style="stop-color:#49DAF4"/>
				<stop  offset="1" style="stop-color:#7DFABB"/>
			</linearGradient>
			<path fill="url(#SVGID_1_)" d="M128.234,189.152L43.06,171.055c-20.033-4.248-32.847-23.972-28.564-44.004l0,0l18.099-85.175
				c4.249-20.032,23.971-32.847,44.003-28.564l0,0l85.14,18.099c20.033,4.248,32.848,23.97,28.564,44.003l-18.099,85.175
				C167.955,180.622,148.268,193.4,128.234,189.152z"/>
			<g>
				<g>
					<g>
						
							<linearGradient id="SVGID_2_" gradientUnits="userSpaceOnUse" x1="3555.666" y1="-809.4375" x2="4288.4014" y2="-809.4375" gradientTransform="matrix(0.1355 0.2086 0.2086 -0.1355 -260.188 -826.6002)">
							<stop  offset="0" style="stop-color:#49DAF4"/>
							<stop  offset="1" style="stop-color:#7DFABB"/>
						</linearGradient>
						<path fill="url(#SVGID_2_)" d="M21.058,124.288l16.407-77.231c4.041-19.066,22.796-31.258,41.862-27.183l77.229,16.406
							c19.065,4.042,31.26,22.797,27.185,41.863l-16.406,77.229c-4.041,19.065-22.796,31.26-41.862,27.185L48.241,166.15
							C29.175,162.107,16.983,143.354,21.058,124.288z"/>
					</g>
				</g>
				<defs>
					<filter id="Adobe_OpacityMaskFilter" filterUnits="userSpaceOnUse" x="20.273" y="19.089" width="164.253" height="164.253">
						
							<feColorMatrix  type="matrix" values="-1 0 0 0 1  0 -1 0 0 1  0 0 -1 0 1  0 0 0 1 0" color-interpolation-filters="sRGB" result="source"/>
					</filter>
				</defs>
				<mask maskUnits="userSpaceOnUse" x="20.273" y="19.089" width="164.253" height="164.253" id="SVGID_3_">
					<g filter="url(#Adobe_OpacityMaskFilter)">
						<image overflow="visible" width="170" height="169" xlink:href="631AE3F8.jpg"  transform="matrix(1 0 0 1 17.5 16.5)">
						</image>
					</g>
				</mask>
				<g opacity="0.75" mask="url(#SVGID_3_)">
					<g>
						<path fill="#494949" d="M21.058,124.288l16.407-77.231c4.041-19.066,22.796-31.258,41.862-27.183l77.229,16.406
							c19.065,4.042,31.26,22.797,27.185,41.863l-16.406,77.229c-4.041,19.065-22.796,31.26-41.862,27.185L48.241,166.15
							C29.175,162.107,16.983,143.354,21.058,124.288z"/>
					</g>
				</g>
			</g>
			
				<linearGradient id="SVGID_4_" gradientUnits="userSpaceOnUse" x1="1704.8945" y1="-2485.6729" x2="2073.9395" y2="-2116.6279" gradientTransform="matrix(0.2487 0 0 -0.2487 -367.4995 -471.0817)">
				<stop  offset="0" style="stop-color:#2A1069"/>
				<stop  offset="1" style="stop-color:#282A8F"/>
			</linearGradient>
			<circle fill="url(#SVGID_4_)" cx="102.398" cy="101.215" r="64.899"/>
			<g>
				<g>
					<g>
						<g>
							<defs>
								<circle id="SVGID_5_" cx="102.398" cy="101.215" r="64.899"/>
							</defs>
							<clipPath id="SVGID_6_">
								<use xlink:href="#SVGID_5_"  overflow="visible"/>
							</clipPath>
							<g clip-path="url(#SVGID_6_)">
								<g id="Livello_1_1_">
									<g opacity="0.7">
										<g>
											<g>
												<defs>
													<circle id="SVGID_7_" cx="102.398" cy="101.215" r="74.294"/>
												</defs>
												<defs>
													<circle id="SVGID_8_" cx="102.398" cy="101.215" r="74.294"/>
												</defs>
												<defs>
													<circle id="SVGID_9_" cx="102.398" cy="101.215" r="74.294"/>
												</defs>
												<defs>
													<circle id="SVGID_10_" cx="102.398" cy="101.215" r="74.294"/>
												</defs>
												<defs>
													<circle id="SVGID_11_" cx="102.398" cy="101.215" r="74.294"/>
												</defs>
												<defs>
													<circle id="SVGID_12_" cx="102.398" cy="101.215" r="74.294"/>
												</defs>
												<defs>
													<circle id="SVGID_13_" cx="102.398" cy="101.215" r="74.294"/>
												</defs>
												<defs>
													<circle id="SVGID_14_" cx="102.398" cy="101.215" r="74.294"/>
												</defs>
												<defs>
													<circle id="SVGID_15_" cx="102.398" cy="101.215" r="74.294"/>
												</defs>
												<defs>
													<circle id="SVGID_16_" cx="102.398" cy="101.215" r="74.294"/>
												</defs>
												<defs>
													<circle id="SVGID_17_" cx="102.398" cy="101.215" r="74.294"/>
												</defs>
												<defs>
													<circle id="SVGID_18_" cx="102.398" cy="101.215" r="74.294"/>
												</defs>
												<defs>
													<circle id="SVGID_19_" cx="102.398" cy="101.215" r="74.294"/>
												</defs>
												<defs>
													<circle id="SVGID_20_" cx="102.398" cy="101.215" r="74.294"/>
												</defs>
												<defs>
													<circle id="SVGID_21_" cx="102.398" cy="101.215" r="74.294"/>
												</defs>
												<defs>
													<circle id="SVGID_22_" cx="102.398" cy="101.215" r="74.294"/>
												</defs>
												<defs>
													<circle id="SVGID_23_" cx="102.398" cy="101.215" r="74.294"/>
												</defs>
												<defs>
													<circle id="SVGID_24_" cx="102.398" cy="101.215" r="74.294"/>
												</defs>
												<defs>
													<circle id="SVGID_25_" cx="102.398" cy="101.215" r="74.294"/>
												</defs>
												<defs>
													<circle id="SVGID_26_" cx="102.398" cy="101.215" r="74.294"/>
												</defs>
												<defs>
													<circle id="SVGID_27_" cx="102.398" cy="101.215" r="74.294"/>
												</defs>
												<defs>
													<circle id="SVGID_28_" cx="102.398" cy="101.215" r="74.294"/>
												</defs>
												<defs>
													<circle id="SVGID_29_" cx="102.398" cy="101.215" r="74.294"/>
												</defs>
												<defs>
													<circle id="SVGID_30_" cx="102.398" cy="101.215" r="74.294"/>
												</defs>
												<defs>
													<circle id="SVGID_31_" cx="102.398" cy="101.215" r="74.294"/>
												</defs>
												<defs>
													<circle id="SVGID_32_" cx="102.398" cy="101.215" r="74.294"/>
												</defs>
												<defs>
													<circle id="SVGID_33_" cx="102.398" cy="101.215" r="74.294"/>
												</defs>
												<defs>
													<circle id="SVGID_34_" cx="102.398" cy="101.215" r="74.294"/>
												</defs>
												<defs>
													<circle id="SVGID_35_" cx="102.398" cy="101.215" r="74.294"/>
												</defs>
												<defs>
													<circle id="SVGID_36_" cx="102.398" cy="101.215" r="74.294"/>
												</defs>
												<defs>
													<circle id="SVGID_37_" cx="102.398" cy="101.215" r="74.294"/>
												</defs>
												<defs>
													<circle id="SVGID_38_" cx="102.398" cy="101.215" r="74.294"/>
												</defs>
												<defs>
													<circle id="SVGID_39_" cx="102.398" cy="101.215" r="74.294"/>
												</defs>
												<defs>
													<circle id="SVGID_40_" cx="102.398" cy="101.215" r="74.294"/>
												</defs>
												<defs>
													<circle id="SVGID_41_" cx="102.398" cy="101.215" r="74.294"/>
												</defs>
												<defs>
													<circle id="SVGID_42_" cx="102.398" cy="101.215" r="74.294"/>
												</defs>
												<defs>
													<circle id="SVGID_43_" cx="102.398" cy="101.215" r="74.294"/>
												</defs>
												<defs>
													<circle id="SVGID_44_" cx="102.398" cy="101.215" r="74.294"/>
												</defs>
												<defs>
													<circle id="SVGID_45_" cx="102.398" cy="101.215" r="74.294"/>
												</defs>
												<defs>
													<circle id="SVGID_46_" cx="102.398" cy="101.215" r="74.294"/>
												</defs>
												<defs>
													<circle id="SVGID_47_" cx="102.398" cy="101.215" r="74.294"/>
												</defs>
												<defs>
													<circle id="SVGID_48_" cx="102.398" cy="101.215" r="74.294"/>
												</defs>
												<defs>
													<circle id="SVGID_49_" cx="102.398" cy="101.215" r="74.294"/>
												</defs>
												<defs>
													<circle id="SVGID_50_" cx="102.398" cy="101.215" r="74.294"/>
												</defs>
												<defs>
													<circle id="SVGID_51_" cx="102.398" cy="101.215" r="74.294"/>
												</defs>
												<defs>
													<circle id="SVGID_52_" cx="102.398" cy="101.215" r="74.294"/>
												</defs>
												<defs>
													<circle id="SVGID_53_" cx="102.398" cy="101.215" r="74.294"/>
												</defs>
												<defs>
													<circle id="SVGID_54_" cx="102.398" cy="101.215" r="74.294"/>
												</defs>
												<defs>
													<circle id="SVGID_55_" cx="102.398" cy="101.215" r="74.294"/>
												</defs>
												<defs>
													<circle id="SVGID_56_" cx="102.398" cy="101.215" r="74.294"/>
												</defs>
												<defs>
													<circle id="SVGID_57_" cx="102.398" cy="101.215" r="74.294"/>
												</defs>
												<defs>
													<circle id="SVGID_58_" cx="102.398" cy="101.215" r="74.294"/>
												</defs>
												<defs>
													<circle id="SVGID_59_" cx="102.398" cy="101.215" r="74.294"/>
												</defs>
												<defs>
													<circle id="SVGID_60_" cx="102.398" cy="101.215" r="74.294"/>
												</defs>
												<defs>
													<circle id="SVGID_61_" cx="102.398" cy="101.215" r="74.294"/>
												</defs>
												<defs>
													<circle id="SVGID_62_" cx="102.398" cy="101.215" r="74.294"/>
												</defs>
												<defs>
													<circle id="SVGID_63_" cx="102.398" cy="101.215" r="74.294"/>
												</defs>
												<defs>
													<circle id="SVGID_64_" cx="102.398" cy="101.215" r="74.294"/>
												</defs>
												<defs>
													<circle id="SVGID_65_" cx="102.398" cy="101.215" r="74.294"/>
												</defs>
												<defs>
													<circle id="SVGID_66_" cx="102.398" cy="101.215" r="74.294"/>
												</defs>
												<defs>
													<circle id="SVGID_67_" cx="102.398" cy="101.215" r="74.294"/>
												</defs>
												<defs>
													<circle id="SVGID_68_" cx="102.398" cy="101.215" r="74.294"/>
												</defs>
												<defs>
													<circle id="SVGID_69_" cx="102.398" cy="101.215" r="74.294"/>
												</defs>
												<defs>
													<circle id="SVGID_70_" cx="102.398" cy="101.215" r="74.294"/>
												</defs>
												<defs>
													<circle id="SVGID_71_" cx="102.398" cy="101.215" r="74.294"/>
												</defs>
												<defs>
													<circle id="SVGID_72_" cx="102.398" cy="101.215" r="74.294"/>
												</defs>
												<defs>
													<circle id="SVGID_73_" cx="102.398" cy="101.215" r="74.294"/>
												</defs>
												<defs>
													<circle id="SVGID_74_" cx="102.398" cy="101.215" r="74.294"/>
												</defs>
												<defs>
													<circle id="SVGID_75_" cx="102.398" cy="101.215" r="74.294"/>
												</defs>
												<defs>
													<circle id="SVGID_76_" cx="102.398" cy="101.215" r="74.294"/>
												</defs>
												<defs>
													<circle id="SVGID_77_" cx="102.398" cy="101.215" r="74.294"/>
												</defs>
												<defs>
													<circle id="SVGID_78_" cx="102.398" cy="101.215" r="74.294"/>
												</defs>
												<defs>
													<circle id="SVGID_79_" cx="102.398" cy="101.215" r="74.294"/>
												</defs>
												<defs>
													<circle id="SVGID_80_" cx="102.398" cy="101.215" r="74.294"/>
												</defs>
												<defs>
													<circle id="SVGID_81_" cx="102.398" cy="101.215" r="74.294"/>
												</defs>
												<defs>
													<circle id="SVGID_82_" cx="102.398" cy="101.215" r="74.294"/>
												</defs>
												<defs>
													<circle id="SVGID_83_" cx="102.398" cy="101.215" r="74.294"/>
												</defs>
												<defs>
													<circle id="SVGID_84_" cx="102.398" cy="101.215" r="74.294"/>
												</defs>
												<defs>
													<circle id="SVGID_85_" cx="102.398" cy="101.215" r="74.294"/>
												</defs>
												<defs>
													<circle id="SVGID_86_" cx="102.398" cy="101.215" r="74.294"/>
												</defs>
												<defs>
													<circle id="SVGID_87_" cx="102.398" cy="101.215" r="74.294"/>
												</defs>
												<defs>
													<circle id="SVGID_88_" cx="102.398" cy="101.215" r="74.294"/>
												</defs>
												<defs>
													<circle id="SVGID_89_" cx="102.398" cy="101.215" r="74.294"/>
												</defs>
												<defs>
													<circle id="SVGID_90_" cx="102.398" cy="101.215" r="74.294"/>
												</defs>
												<defs>
													<circle id="SVGID_91_" cx="102.398" cy="101.215" r="74.294"/>
												</defs>
												<defs>
													<circle id="SVGID_92_" cx="102.398" cy="101.215" r="74.294"/>
												</defs>
												<defs>
													<circle id="SVGID_93_" cx="102.398" cy="101.215" r="74.294"/>
												</defs>
												<defs>
													<circle id="SVGID_94_" cx="102.398" cy="101.215" r="74.294"/>
												</defs>
												<defs>
													<circle id="SVGID_95_" cx="102.398" cy="101.215" r="74.294"/>
												</defs>
												<defs>
													<circle id="SVGID_96_" cx="102.398" cy="101.215" r="74.294"/>
												</defs>
												<defs>
													<circle id="SVGID_97_" cx="102.398" cy="101.215" r="74.294"/>
												</defs>
												<defs>
													<circle id="SVGID_98_" cx="102.398" cy="101.215" r="74.294"/>
												</defs>
												<clipPath id="SVGID_99_">
													<use xlink:href="#SVGID_7_"  overflow="visible"/>
												</clipPath>
												<clipPath id="SVGID_100_" clip-path="url(#SVGID_99_)">
													<use xlink:href="#SVGID_8_"  overflow="visible"/>
												</clipPath>
												<clipPath id="SVGID_101_" clip-path="url(#SVGID_100_)">
													<use xlink:href="#SVGID_9_"  overflow="visible"/>
												</clipPath>
												<clipPath id="SVGID_102_" clip-path="url(#SVGID_101_)">
													<use xlink:href="#SVGID_10_"  overflow="visible"/>
												</clipPath>
												<clipPath id="SVGID_103_" clip-path="url(#SVGID_102_)">
													<use xlink:href="#SVGID_11_"  overflow="visible"/>
												</clipPath>
												<clipPath id="SVGID_104_" clip-path="url(#SVGID_103_)">
													<use xlink:href="#SVGID_12_"  overflow="visible"/>
												</clipPath>
												<clipPath id="SVGID_105_" clip-path="url(#SVGID_104_)">
													<use xlink:href="#SVGID_13_"  overflow="visible"/>
												</clipPath>
												<clipPath id="SVGID_106_" clip-path="url(#SVGID_105_)">
													<use xlink:href="#SVGID_14_"  overflow="visible"/>
												</clipPath>
												<clipPath id="SVGID_107_" clip-path="url(#SVGID_106_)">
													<use xlink:href="#SVGID_15_"  overflow="visible"/>
												</clipPath>
												<clipPath id="SVGID_108_" clip-path="url(#SVGID_107_)">
													<use xlink:href="#SVGID_16_"  overflow="visible"/>
												</clipPath>
												<clipPath id="SVGID_109_" clip-path="url(#SVGID_108_)">
													<use xlink:href="#SVGID_17_"  overflow="visible"/>
												</clipPath>
												<clipPath id="SVGID_110_" clip-path="url(#SVGID_109_)">
													<use xlink:href="#SVGID_18_"  overflow="visible"/>
												</clipPath>
												<clipPath id="SVGID_111_" clip-path="url(#SVGID_110_)">
													<use xlink:href="#SVGID_19_"  overflow="visible"/>
												</clipPath>
												<clipPath id="SVGID_112_" clip-path="url(#SVGID_111_)">
													<use xlink:href="#SVGID_20_"  overflow="visible"/>
												</clipPath>
												<clipPath id="SVGID_113_" clip-path="url(#SVGID_112_)">
													<use xlink:href="#SVGID_21_"  overflow="visible"/>
												</clipPath>
												<clipPath id="SVGID_114_" clip-path="url(#SVGID_113_)">
													<use xlink:href="#SVGID_22_"  overflow="visible"/>
												</clipPath>
												<clipPath id="SVGID_115_" clip-path="url(#SVGID_114_)">
													<use xlink:href="#SVGID_23_"  overflow="visible"/>
												</clipPath>
												<clipPath id="SVGID_116_" clip-path="url(#SVGID_115_)">
													<use xlink:href="#SVGID_24_"  overflow="visible"/>
												</clipPath>
												<clipPath id="SVGID_117_" clip-path="url(#SVGID_116_)">
													<use xlink:href="#SVGID_25_"  overflow="visible"/>
												</clipPath>
												<clipPath id="SVGID_118_" clip-path="url(#SVGID_117_)">
													<use xlink:href="#SVGID_26_"  overflow="visible"/>
												</clipPath>
												<clipPath id="SVGID_119_" clip-path="url(#SVGID_118_)">
													<use xlink:href="#SVGID_27_"  overflow="visible"/>
												</clipPath>
												<clipPath id="SVGID_120_" clip-path="url(#SVGID_119_)">
													<use xlink:href="#SVGID_28_"  overflow="visible"/>
												</clipPath>
												<clipPath id="SVGID_121_" clip-path="url(#SVGID_120_)">
													<use xlink:href="#SVGID_29_"  overflow="visible"/>
												</clipPath>
												<clipPath id="SVGID_122_" clip-path="url(#SVGID_121_)">
													<use xlink:href="#SVGID_30_"  overflow="visible"/>
												</clipPath>
												<clipPath id="SVGID_123_" clip-path="url(#SVGID_122_)">
													<use xlink:href="#SVGID_31_"  overflow="visible"/>
												</clipPath>
												<clipPath id="SVGID_124_" clip-path="url(#SVGID_123_)">
													<use xlink:href="#SVGID_32_"  overflow="visible"/>
												</clipPath>
												<clipPath id="SVGID_125_" clip-path="url(#SVGID_124_)">
													<use xlink:href="#SVGID_33_"  overflow="visible"/>
												</clipPath>
												<clipPath id="SVGID_126_" clip-path="url(#SVGID_125_)">
													<use xlink:href="#SVGID_34_"  overflow="visible"/>
												</clipPath>
												<clipPath id="SVGID_127_" clip-path="url(#SVGID_126_)">
													<use xlink:href="#SVGID_35_"  overflow="visible"/>
												</clipPath>
												<clipPath id="SVGID_128_" clip-path="url(#SVGID_127_)">
													<use xlink:href="#SVGID_36_"  overflow="visible"/>
												</clipPath>
												<clipPath id="SVGID_129_" clip-path="url(#SVGID_128_)">
													<use xlink:href="#SVGID_37_"  overflow="visible"/>
												</clipPath>
												<clipPath id="SVGID_130_" clip-path="url(#SVGID_129_)">
													<use xlink:href="#SVGID_38_"  overflow="visible"/>
												</clipPath>
												<clipPath id="SVGID_131_" clip-path="url(#SVGID_130_)">
													<use xlink:href="#SVGID_39_"  overflow="visible"/>
												</clipPath>
												<clipPath id="SVGID_132_" clip-path="url(#SVGID_131_)">
													<use xlink:href="#SVGID_40_"  overflow="visible"/>
												</clipPath>
												<clipPath id="SVGID_133_" clip-path="url(#SVGID_132_)">
													<use xlink:href="#SVGID_41_"  overflow="visible"/>
												</clipPath>
												<clipPath id="SVGID_134_" clip-path="url(#SVGID_133_)">
													<use xlink:href="#SVGID_42_"  overflow="visible"/>
												</clipPath>
												<clipPath id="SVGID_135_" clip-path="url(#SVGID_134_)">
													<use xlink:href="#SVGID_43_"  overflow="visible"/>
												</clipPath>
												<clipPath id="SVGID_136_" clip-path="url(#SVGID_135_)">
													<use xlink:href="#SVGID_44_"  overflow="visible"/>
												</clipPath>
												<clipPath id="SVGID_137_" clip-path="url(#SVGID_136_)">
													<use xlink:href="#SVGID_45_"  overflow="visible"/>
												</clipPath>
												<clipPath id="SVGID_138_" clip-path="url(#SVGID_137_)">
													<use xlink:href="#SVGID_46_"  overflow="visible"/>
												</clipPath>
												<clipPath id="SVGID_139_" clip-path="url(#SVGID_138_)">
													<use xlink:href="#SVGID_47_"  overflow="visible"/>
												</clipPath>
												<clipPath id="SVGID_140_" clip-path="url(#SVGID_139_)">
													<use xlink:href="#SVGID_48_"  overflow="visible"/>
												</clipPath>
												<clipPath id="SVGID_141_" clip-path="url(#SVGID_140_)">
													<use xlink:href="#SVGID_49_"  overflow="visible"/>
												</clipPath>
												<clipPath id="SVGID_142_" clip-path="url(#SVGID_141_)">
													<use xlink:href="#SVGID_50_"  overflow="visible"/>
												</clipPath>
												<clipPath id="SVGID_143_" clip-path="url(#SVGID_142_)">
													<use xlink:href="#SVGID_51_"  overflow="visible"/>
												</clipPath>
												<clipPath id="SVGID_144_" clip-path="url(#SVGID_143_)">
													<use xlink:href="#SVGID_52_"  overflow="visible"/>
												</clipPath>
												<clipPath id="SVGID_145_" clip-path="url(#SVGID_144_)">
													<use xlink:href="#SVGID_53_"  overflow="visible"/>
												</clipPath>
												<clipPath id="SVGID_146_" clip-path="url(#SVGID_145_)">
													<use xlink:href="#SVGID_54_"  overflow="visible"/>
												</clipPath>
												<clipPath id="SVGID_147_" clip-path="url(#SVGID_146_)">
													<use xlink:href="#SVGID_55_"  overflow="visible"/>
												</clipPath>
												<clipPath id="SVGID_148_" clip-path="url(#SVGID_147_)">
													<use xlink:href="#SVGID_56_"  overflow="visible"/>
												</clipPath>
												<clipPath id="SVGID_149_" clip-path="url(#SVGID_148_)">
													<use xlink:href="#SVGID_57_"  overflow="visible"/>
												</clipPath>
												<clipPath id="SVGID_150_" clip-path="url(#SVGID_149_)">
													<use xlink:href="#SVGID_58_"  overflow="visible"/>
												</clipPath>
												<clipPath id="SVGID_151_" clip-path="url(#SVGID_150_)">
													<use xlink:href="#SVGID_59_"  overflow="visible"/>
												</clipPath>
												<clipPath id="SVGID_152_" clip-path="url(#SVGID_151_)">
													<use xlink:href="#SVGID_60_"  overflow="visible"/>
												</clipPath>
												<clipPath id="SVGID_153_" clip-path="url(#SVGID_152_)">
													<use xlink:href="#SVGID_61_"  overflow="visible"/>
												</clipPath>
												<clipPath id="SVGID_154_" clip-path="url(#SVGID_153_)">
													<use xlink:href="#SVGID_62_"  overflow="visible"/>
												</clipPath>
												<clipPath id="SVGID_155_" clip-path="url(#SVGID_154_)">
													<use xlink:href="#SVGID_63_"  overflow="visible"/>
												</clipPath>
												<clipPath id="SVGID_156_" clip-path="url(#SVGID_155_)">
													<use xlink:href="#SVGID_64_"  overflow="visible"/>
												</clipPath>
												<clipPath id="SVGID_157_" clip-path="url(#SVGID_156_)">
													<use xlink:href="#SVGID_65_"  overflow="visible"/>
												</clipPath>
												<clipPath id="SVGID_158_" clip-path="url(#SVGID_157_)">
													<use xlink:href="#SVGID_66_"  overflow="visible"/>
												</clipPath>
												<clipPath id="SVGID_159_" clip-path="url(#SVGID_158_)">
													<use xlink:href="#SVGID_67_"  overflow="visible"/>
												</clipPath>
												<clipPath id="SVGID_160_" clip-path="url(#SVGID_159_)">
													<use xlink:href="#SVGID_68_"  overflow="visible"/>
												</clipPath>
												<clipPath id="SVGID_161_" clip-path="url(#SVGID_160_)">
													<use xlink:href="#SVGID_69_"  overflow="visible"/>
												</clipPath>
												<clipPath id="SVGID_162_" clip-path="url(#SVGID_161_)">
													<use xlink:href="#SVGID_70_"  overflow="visible"/>
												</clipPath>
												<clipPath id="SVGID_163_" clip-path="url(#SVGID_162_)">
													<use xlink:href="#SVGID_71_"  overflow="visible"/>
												</clipPath>
												<clipPath id="SVGID_164_" clip-path="url(#SVGID_163_)">
													<use xlink:href="#SVGID_72_"  overflow="visible"/>
												</clipPath>
												<clipPath id="SVGID_165_" clip-path="url(#SVGID_164_)">
													<use xlink:href="#SVGID_73_"  overflow="visible"/>
												</clipPath>
												<clipPath id="SVGID_166_" clip-path="url(#SVGID_165_)">
													<use xlink:href="#SVGID_74_"  overflow="visible"/>
												</clipPath>
												<clipPath id="SVGID_167_" clip-path="url(#SVGID_166_)">
													<use xlink:href="#SVGID_75_"  overflow="visible"/>
												</clipPath>
												<clipPath id="SVGID_168_" clip-path="url(#SVGID_167_)">
													<use xlink:href="#SVGID_76_"  overflow="visible"/>
												</clipPath>
												<clipPath id="SVGID_169_" clip-path="url(#SVGID_168_)">
													<use xlink:href="#SVGID_77_"  overflow="visible"/>
												</clipPath>
												<clipPath id="SVGID_170_" clip-path="url(#SVGID_169_)">
													<use xlink:href="#SVGID_78_"  overflow="visible"/>
												</clipPath>
												<clipPath id="SVGID_171_" clip-path="url(#SVGID_170_)">
													<use xlink:href="#SVGID_79_"  overflow="visible"/>
												</clipPath>
												<clipPath id="SVGID_172_" clip-path="url(#SVGID_171_)">
													<use xlink:href="#SVGID_80_"  overflow="visible"/>
												</clipPath>
												<clipPath id="SVGID_173_" clip-path="url(#SVGID_172_)">
													<use xlink:href="#SVGID_81_"  overflow="visible"/>
												</clipPath>
												<clipPath id="SVGID_174_" clip-path="url(#SVGID_173_)">
													<use xlink:href="#SVGID_82_"  overflow="visible"/>
												</clipPath>
												<clipPath id="SVGID_175_" clip-path="url(#SVGID_174_)">
													<use xlink:href="#SVGID_83_"  overflow="visible"/>
												</clipPath>
												<clipPath id="SVGID_176_" clip-path="url(#SVGID_175_)">
													<use xlink:href="#SVGID_84_"  overflow="visible"/>
												</clipPath>
												<clipPath id="SVGID_177_" clip-path="url(#SVGID_176_)">
													<use xlink:href="#SVGID_85_"  overflow="visible"/>
												</clipPath>
												<clipPath id="SVGID_178_" clip-path="url(#SVGID_177_)">
													<use xlink:href="#SVGID_86_"  overflow="visible"/>
												</clipPath>
												<clipPath id="SVGID_179_" clip-path="url(#SVGID_178_)">
													<use xlink:href="#SVGID_87_"  overflow="visible"/>
												</clipPath>
												<clipPath id="SVGID_180_" clip-path="url(#SVGID_179_)">
													<use xlink:href="#SVGID_88_"  overflow="visible"/>
												</clipPath>
												<clipPath id="SVGID_181_" clip-path="url(#SVGID_180_)">
													<use xlink:href="#SVGID_89_"  overflow="visible"/>
												</clipPath>
												<clipPath id="SVGID_182_" clip-path="url(#SVGID_181_)">
													<use xlink:href="#SVGID_90_"  overflow="visible"/>
												</clipPath>
												<clipPath id="SVGID_183_" clip-path="url(#SVGID_182_)">
													<use xlink:href="#SVGID_91_"  overflow="visible"/>
												</clipPath>
												<clipPath id="SVGID_184_" clip-path="url(#SVGID_183_)">
													<use xlink:href="#SVGID_92_"  overflow="visible"/>
												</clipPath>
												<clipPath id="SVGID_185_" clip-path="url(#SVGID_184_)">
													<use xlink:href="#SVGID_93_"  overflow="visible"/>
												</clipPath>
												<clipPath id="SVGID_186_" clip-path="url(#SVGID_185_)">
													<use xlink:href="#SVGID_94_"  overflow="visible"/>
												</clipPath>
												<clipPath id="SVGID_187_" clip-path="url(#SVGID_186_)">
													<use xlink:href="#SVGID_95_"  overflow="visible"/>
												</clipPath>
												<clipPath id="SVGID_188_" clip-path="url(#SVGID_187_)">
													<use xlink:href="#SVGID_96_"  overflow="visible"/>
												</clipPath>
												<clipPath id="SVGID_189_" clip-path="url(#SVGID_188_)">
													<use xlink:href="#SVGID_97_"  overflow="visible"/>
												</clipPath>
												<clipPath id="SVGID_190_" clip-path="url(#SVGID_189_)">
													<use xlink:href="#SVGID_98_"  overflow="visible"/>
												</clipPath>
												<g clip-path="url(#SVGID_190_)">
													<g>
														
															<linearGradient id="SVGID_191_" gradientUnits="userSpaceOnUse" x1="1786.5479" y1="-2509.0449" x2="2209.0159" y2="-2086.5769" gradientTransform="matrix(0.2487 0 0 -0.2487 -394.4492 -470.2506)">
															<stop  offset="0" style="stop-color:#0052FF"/>
															<stop  offset="1" style="stop-color:#00FF95"/>
														</linearGradient>
														<circle fill="url(#SVGID_191_)" cx="102.398" cy="101.215" r="74.294"/>
														<g>
															<g opacity="0.33">
																<circle fill="#070759" cx="102.398" cy="101.215" r="74.294"/>
															</g>
														</g>
													</g>
													
														<linearGradient id="SVGID_192_" gradientUnits="userSpaceOnUse" x1="1398.0107" y1="-2124.1768" x2="2162.043" y2="-2124.1768" gradientTransform="matrix(0.2487 0 0 -0.2487 -367.5 -471.0817)">
														<stop  offset="0" style="stop-color:#002DBD"/>
														<stop  offset="1" style="stop-color:#00C195"/>
													</linearGradient>
													<path fill="url(#SVGID_192_)" d="M-14.932,79.974c33.504-3.351,66.281,1.312,90.459-21.657
														c24.178-22.968,94.673-37.51,94.673-37.51l-30.36,14.956c0,0-12.021-2.936-41.103,22.968
														c-29.082,25.906-80.857,35.266-105,34.851C-30.405,93.168-14.932,79.974-14.932,79.974z"/>
													
														<linearGradient id="SVGID_193_" gradientUnits="userSpaceOnUse" x1="1361.3506" y1="-2196.2393" x2="2381.7461" y2="-2196.2393" gradientTransform="matrix(0.2487 0 0 -0.2487 -367.5 -471.0817)">
														<stop  offset="0" style="stop-color:#002DBD"/>
														<stop  offset="1" style="stop-color:#00C195"/>
													</linearGradient>
													<path fill="url(#SVGID_193_)" d="M-24.292,109.297c16.51-0.829,71.151-27.631,115.604-25.11
														c44.452,2.522,47.354-18.996,85.586-24.177c38.238-5.181,47.941-32.813,47.941-32.813v11.467
														c0,0-9.257,7.323-22.277,18.79c-13.056,11.467-15.023,6.39-33.85,16.165c-18.822,9.74-22.277,29.29-57.061,23.798
														c-34.814-5.492-43.138-10.259-61.479,2.522c-18.34,12.779-32.881,29.773-61.894,20.413
														C-40.733,110.989-24.292,109.297-24.292,109.297z"/>
													
														<linearGradient id="SVGID_194_" gradientUnits="userSpaceOnUse" x1="1417.0898" y1="-2310.6543" x2="2478.2295" y2="-2310.6543" gradientTransform="matrix(0.2487 0 0 -0.2487 -367.5 -471.0817)">
														<stop  offset="0" style="stop-color:#002DBD"/>
														<stop  offset="1" style="stop-color:#00C195"/>
													</linearGradient>
													<path fill="url(#SVGID_194_)" d="M-15.07,148.533c0,0,71.013,7.221,86.037-15.75
														c15.025-22.969,36.372-26.803,52.329-26.803s74.847,11.398,92.288-19.619c17.441-31.017,10.053-43.934,26.114-47.699
														c16.059-3.731,0,6.286,0,6.286s-3.938-1.52-8.187,13.332c-4.25,14.853-0.449,36.163-16.408,51.912
														c-15.957,15.75-33.363,3.767-48.391,3.767c-15.023,0-30.013,16.269-66.764,17.063
														c-36.715,0.826-73.432,38.303-73.432,38.303l-43.52-8.946L-15.07,148.533z"/>
													
														<linearGradient id="SVGID_195_" gradientUnits="userSpaceOnUse" x1="1671.9336" y1="-2488.1641" x2="2301.7578" y2="-2488.1641" gradientTransform="matrix(0.2487 0 0 -0.2487 -367.5 -471.0817)">
														<stop  offset="0" style="stop-color:#002DBD"/>
														<stop  offset="1" style="stop-color:#00C195"/>
													</linearGradient>
													<path fill="url(#SVGID_195_)" d="M48.31,183.73c6.702-10.674,20.793-32.746,44.003-36.578
														c23.212-3.867,53.225,3.351,70.117-17.063c16.891-20.447,42.518-18.307,42.518-18.307l-6.701,7.22
														c0,0-20.792-1.313-25.661,9.153c-4.836,10.464-21.829,27.631-43.071,29.669c-21.242,2.036-37.648,25.903-37.648,25.903
														H48.31V183.73z"/>
													
														<linearGradient id="SVGID_196_" gradientUnits="userSpaceOnUse" x1="1950.1104" y1="-2632.9434" x2="2113.7109" y2="-2632.9434" gradientTransform="matrix(0.2487 0 0 -0.2487 -367.5 -471.0817)">
														<stop  offset="0" style="stop-color:#002DBD"/>
														<stop  offset="1" style="stop-color:#00C195"/>
													</linearGradient>
													<path fill="url(#SVGID_196_)" d="M123.296,208.323c0,0-13.058-21.243,0-29.567
														c13.058-8.322,34.884-19.617,34.884-19.617l-4.869,8.358c0,0-4.387-1.659-12.123,5.562
														c-7.736,7.219,4.73,35.266,4.73,35.266L123.296,208.323L123.296,208.323z"/>
													
														<linearGradient id="SVGID_197_" gradientUnits="userSpaceOnUse" x1="1436.6699" y1="-2245.5703" x2="2426.1953" y2="-2245.5703" gradientTransform="matrix(0.2487 0 0 -0.2487 -367.5 -471.0817)">
														<stop  offset="0" style="stop-color:#002DBD"/>
														<stop  offset="1" style="stop-color:#00C195"/>
													</linearGradient>
													<path fill="url(#SVGID_197_)" d="M235.895,33.587c-7.149,6.804-15.715,13.919-22.521,21.863
														c-6.804,7.944-4.836,36.578-29.22,36.371c-24.385-0.208-41,13.815-69.286,9.464
														c-28.289-4.352-72.395,34.47-95.054,33.33c-22.623-1.104-30.014,0-30.014,0s24.73,12.504,41.689,3.041
														c16.993-9.465,63.519-36.094,93.43-33.85s51.05-7.635,63.274-9.258c12.229-1.623,17.099-7.114,21.244-24.384
														c4.145-17.27,19.063-26.423,19.063-26.423L235.895,33.587z"/>
												</g>
												<g clip-path="url(#SVGID_190_)">
													
														<linearGradient id="SVGID_198_" gradientUnits="userSpaceOnUse" x1="1786.5479" y1="-2509.0449" x2="2209.0159" y2="-2086.5769" gradientTransform="matrix(0.2487 0 0 -0.2487 -394.4492 -470.2506)">
														<stop  offset="0" style="stop-color:#0052FF"/>
														<stop  offset="1" style="stop-color:#00FF95"/>
													</linearGradient>
													<circle fill="url(#SVGID_198_)" cx="102.398" cy="101.215" r="74.294"/>
												</g>
												
													<linearGradient id="SVGID_199_" gradientUnits="userSpaceOnUse" x1="1398.0107" y1="-2124.1768" x2="2162.043" y2="-2124.1768" gradientTransform="matrix(0.2487 0 0 -0.2487 -367.5 -471.0817)">
													<stop  offset="0" style="stop-color:#002DBD"/>
													<stop  offset="1" style="stop-color:#00C195"/>
												</linearGradient>
												<path clip-path="url(#SVGID_190_)" fill="url(#SVGID_199_)" d="M-14.932,79.974
													c33.504-3.351,66.281,1.312,90.459-21.657c24.178-22.968,94.673-37.51,94.673-37.51l-30.36,14.956
													c0,0-12.021-2.936-41.103,22.968c-29.082,25.906-80.857,35.266-105,34.851C-30.405,93.168-14.932,79.974-14.932,79.974z
													"/>
												
													<linearGradient id="SVGID_200_" gradientUnits="userSpaceOnUse" x1="1361.3506" y1="-2196.2393" x2="2381.7461" y2="-2196.2393" gradientTransform="matrix(0.2487 0 0 -0.2487 -367.5 -471.0817)">
													<stop  offset="0" style="stop-color:#002DBD"/>
													<stop  offset="1" style="stop-color:#00C195"/>
												</linearGradient>
												<path clip-path="url(#SVGID_190_)" fill="url(#SVGID_200_)" d="M-24.292,109.297
													c16.51-0.829,71.151-27.631,115.604-25.11c44.452,2.522,47.354-18.996,85.586-24.177
													c38.238-5.181,47.941-32.813,47.941-32.813v11.467c0,0-9.257,7.323-22.277,18.79
													c-13.056,11.467-15.023,6.39-33.85,16.165c-18.822,9.74-22.277,29.29-57.061,23.798
													c-34.814-5.492-43.138-10.259-61.479,2.522c-18.34,12.779-32.881,29.773-61.894,20.413
													C-40.733,110.989-24.292,109.297-24.292,109.297z"/>
												
													<linearGradient id="SVGID_201_" gradientUnits="userSpaceOnUse" x1="1417.0898" y1="-2310.6543" x2="2478.2295" y2="-2310.6543" gradientTransform="matrix(0.2487 0 0 -0.2487 -367.5 -471.0817)">
													<stop  offset="0" style="stop-color:#002DBD"/>
													<stop  offset="1" style="stop-color:#00C195"/>
												</linearGradient>
												<path clip-path="url(#SVGID_190_)" fill="url(#SVGID_201_)" d="M-15.07,148.533c0,0,71.013,7.221,86.037-15.75
													c15.025-22.969,36.372-26.803,52.329-26.803s74.847,11.398,92.288-19.619c17.441-31.017,10.053-43.934,26.114-47.699
													c16.059-3.731,0,6.286,0,6.286s-3.938-1.52-8.187,13.332c-4.25,14.853-0.449,36.163-16.408,51.912
													c-15.957,15.75-33.363,3.767-48.391,3.767c-15.023,0-30.013,16.269-66.764,17.063
													c-36.715,0.826-73.432,38.303-73.432,38.303l-43.52-8.946L-15.07,148.533z"/>
												
													<linearGradient id="SVGID_202_" gradientUnits="userSpaceOnUse" x1="1671.9336" y1="-2488.1641" x2="2301.7578" y2="-2488.1641" gradientTransform="matrix(0.2487 0 0 -0.2487 -367.5 -471.0817)">
													<stop  offset="0" style="stop-color:#002DBD"/>
													<stop  offset="1" style="stop-color:#00C195"/>
												</linearGradient>
												<path clip-path="url(#SVGID_190_)" fill="url(#SVGID_202_)" d="M48.31,183.73c6.702-10.674,20.793-32.746,44.003-36.578
													c23.212-3.867,53.225,3.351,70.117-17.063c16.891-20.447,42.518-18.307,42.518-18.307l-6.701,7.22
													c0,0-20.792-1.313-25.661,9.153c-4.836,10.464-21.829,27.631-43.071,29.669c-21.242,2.036-37.648,25.903-37.648,25.903
													H48.31V183.73z"/>
												
													<linearGradient id="SVGID_203_" gradientUnits="userSpaceOnUse" x1="1436.6699" y1="-2245.5703" x2="2426.1953" y2="-2245.5703" gradientTransform="matrix(0.2487 0 0 -0.2487 -367.5 -471.0817)">
													<stop  offset="0" style="stop-color:#002DBD"/>
													<stop  offset="1" style="stop-color:#00C195"/>
												</linearGradient>
												<path clip-path="url(#SVGID_190_)" fill="url(#SVGID_203_)" d="M235.895,33.587
													c-7.149,6.804-15.715,13.919-22.521,21.863c-6.804,7.944-4.836,36.578-29.22,36.371
													c-24.385-0.208-41,13.815-69.286,9.464c-28.289-4.352-72.395,34.47-95.054,33.33c-22.623-1.104-30.014,0-30.014,0
													s24.73,12.504,41.689,3.041c16.993-9.465,63.519-36.094,93.43-33.85s51.05-7.635,63.274-9.258
													c12.229-1.623,17.099-7.114,21.244-24.384c4.145-17.27,19.063-26.423,19.063-26.423L235.895,33.587z"/>
												<circle clip-path="url(#SVGID_190_)" fill="none" cx="102.398" cy="101.215" r="74.294"/>
											</g>
										</g>
									</g>
									<g>
										<g>
											<defs>
												<circle id="SVGID_204_" cx="102.398" cy="101.215" r="64.899"/>
											</defs>
											<clipPath id="SVGID_205_">
												<use xlink:href="#SVGID_204_"  overflow="visible"/>
											</clipPath>
											
												<linearGradient id="SVGID_206_" gradientUnits="userSpaceOnUse" x1="1839.3545" y1="-2190.9009" x2="2156.3145" y2="-2404.7026" gradientTransform="matrix(0.2487 0 0 -0.2487 -394.4492 -470.2506)">
												<stop  offset="0" style="stop-color:#49DAF4"/>
												<stop  offset="1" style="stop-color:#7DFABB"/>
											</linearGradient>
											<polygon clip-path="url(#SVGID_205_)" fill="url(#SVGID_206_)" points="93.902,121.87 132.62,130.091 129.098,146.67 
												59.535,131.852 111.033,80.457 72.211,72.202 75.7,55.796 145.297,70.578 											"/>
										</g>
									</g>
								</g>
							</g>
						</g>
					</g>
				</g>
			</g>
		</g>
	</g>
</g>
</svg>
