<svg xmlns="http://www.w3.org/2000/svg" viewBox="0 0 200 200"><linearGradient id="a" x1="100" x2="100" y1="5" y2="195" gradientUnits="userSpaceOnUse"><stop offset="0" stop-color="#d4adff"/><stop offset="1" stop-color="#b465fe"/></linearGradient><circle cx="100" cy="100" r="95" fill="url(#a)"/><circle cx="100" cy="100" r="59.1" fill="none" stroke="#fff" stroke-miterlimit="10" stroke-width="10"/><path fill="#fff" d="M127.4 71.1H87c-7.8 0-14.2 6.2-14.4 14v28.1c-4 0-7.3 3.5-7.3 7.8s3.3 7.8 7.3 7.8H113c7.8 0 14.2-6.1 14.4-13.9V86.7c4 0 7.3-3.5 7.3-7.8 0-4.4-3.2-7.8-7.3-7.8zm-8.8 13.8v29c0 3.3-2.7 5.9-5.9 5.9H79.8c.9-1.5 1.5-3.3 1.6-5V85.9c0-3.3 2.7-5.9 5.9-5.9h32.8c-.8 1.5-1.4 3.2-1.5 4.9z"/></svg>