<?xml version="1.0" encoding="utf-8"?>
<!-- Generator: Adobe Illustrator 16.0.0, SVG Export Plug-In . SVG Version: 6.00 Build 0)  -->
<!DOCTYPE svg PUBLIC "-//W3C//DTD SVG 1.1//EN" "http://www.w3.org/Graphics/SVG/1.1/DTD/svg11.dtd">
<svg version="1.1" id="Livello_1" xmlns="http://www.w3.org/2000/svg" xmlns:xlink="http://www.w3.org/1999/xlink" x="0px" y="0px"
	 width="566.93px" height="566.93px" viewBox="0 0 566.93 566.93" enable-background="new 0 0 566.93 566.93" xml:space="preserve">
<linearGradient id="SVGID_1_" gradientUnits="userSpaceOnUse" x1="20.208" y1="329.3108" x2="403.7666" y2="329.3108">
	<stop  offset="0" style="stop-color:#7676B7"/>
	<stop  offset="1" style="stop-color:#548BC9"/>
</linearGradient>
<path fill="url(#SVGID_1_)" d="M403.767,393.219c0,35.162-28.474,63.576-63.576,63.576c-34.331,0-62.194-27.03-63.523-61.032v-0.168
	c-3.979-61.034-48.319-66.395-61.195-66.671c-0.61,0.055-1.166,0.055-1.771,0.055c0,0-0.275,0-0.718,0
	c-0.112-0.055-0.167-0.055-0.274,0c-0.443,0-0.723,0-0.723,0l0.059-0.055h-0.664c-11.17,0.165-59.268,4.423-64.074,65.953
	c0,0.274-0.059,0.608-0.059,0.886l-0.006-0.007c-1.29,33.976-29.202,61.039-63.458,61.039c-35.108,0-63.576-28.414-63.576-63.576
	c0-35.104,28.468-63.575,63.576-63.575c0,0,1.161,0.056,3.261,0.056c13.157-0.222,61.806-4.81,63.133-62.14
	c-0.054-0.718-0.054-1.436-0.054-2.157c0-0.687,0.081-1.354,0.102-2.033c-0.005-0.153,0.011-0.297,0.006-0.454l0.017,0.019
	c1.307-33.951,29.175-61.109,63.452-61.109c34.321,0,62.227,27.237,63.458,61.257l0.006-0.002c0,0.035,0,0.068,0,0.104
	c0.026,0.745,0.114,1.471,0.114,2.219c0,0.774,0,1.548-0.055,2.321c1.215,57.054,46.931,61.753,59.706,61.975
	c2.047,0.055,3.261-0.056,3.261-0.056C375.293,329.644,403.767,358.115,403.767,393.219z"/>
<linearGradient id="SVGID_2_" gradientUnits="userSpaceOnUse" x1="438.4434" y1="235.0178" x2="550.0479" y2="235.0178">
	<stop  offset="0" style="stop-color:#7676B7"/>
	<stop  offset="1" style="stop-color:#548BC9"/>
</linearGradient>
<path fill="url(#SVGID_2_)" d="M550.048,232.253c0-33.872-21.931-55.802-55.802-55.802c-33.873,0-55.803,38.515-55.803,72.388
	c0,33.871,10.873,44.745,44.745,44.745S550.048,266.126,550.048,232.253z"/>
</svg>
