<svg viewBox="0 0 243.8 296.69" xmlns="http://www.w3.org/2000/svg"><g transform="translate(-27.99 -2)"><path d="m30.5 245a2.41 2.41 0 0 1 -1-.2 2.5 2.5 0 0 1 -1.5-2.35v-181a2.48 2.48 0 0 1 .74-1.78l57-57a2.51 2.51 0 0 1 4.26 1.85v54.35h178.86a2.51 2.51 0 0 1 1.72 4.36l-56.77 53a2.51 2.51 0 0 1 -1.72.68h-122.09v69.38a2.51 2.51 0 0 1 -.75 1.79l-56.98 56.16a2.5 2.5 0 0 1 -1.77.76zm2.5-182.47v173.91l51.92-51.23v-70.85a2.51 2.51 0 0 1 2.51-2.51h123.67l51.38-47.95h-175a2.51 2.51 0 0 1 -2.48-2.51v-50.8z" fill="#4eb279"/><path d="m212.27 298.69a2.45 2.45 0 0 1 -1-.19 2.51 2.51 0 0 1 -1.56-2.33v-51.17h-179.21a2.52 2.52 0 0 1 -1.76-4.31l57.19-56.11a2.52 2.52 0 0 1 1.76-.72h122.08v-69.39a2.5 2.5 0 0 1 .79-1.83l56.54-53a2.52 2.52 0 0 1 4.24 1.83l.41 177.82a2.47 2.47 0 0 1 -.73 1.78l-57 57a2.49 2.49 0 0 1 -1.75.62zm-175.61-58.75h175.61a2.51 2.51 0 0 1 2.51 2.51v47.66l52-52-.4-171-51.52 48.35v70.8a2.52 2.52 0 0 1 -2.51 2.52h-123.63z" fill="#2d2d2b"/></g></svg>