<?xml version="1.0" encoding="utf-8"?>
<!-- Generator: Adobe Illustrator 22.1.0, SVG Export Plug-In . SVG Version: 6.00 Build 0)  -->
<svg version="1.0" id="Livello_1" xmlns="http://www.w3.org/2000/svg" xmlns:xlink="http://www.w3.org/1999/xlink" x="0px" y="0px"
	 viewBox="0 0 200 200" style="enable-background:new 0 0 200 200;" xml:space="preserve">
<style type="text/css">
	.st0{fill:#FCD400;}
	.st1{fill:#201E1F;}
</style>
<g>
	<ellipse class="st0" cx="90" cy="100" rx="73.8" ry="74.8"/>
	<path class="st1" d="M90,175.6c-41.1,0-74.6-33.9-74.6-75.6c0-41.7,33.5-75.6,74.6-75.6c41.1,0,74.6,33.9,74.6,75.6
		C164.6,141.7,131.1,175.6,90,175.6z M90,26.1c-40.2,0-73,33.2-73,73.9s32.7,73.9,73,73.9s73-33.2,73-73.9S130.2,26.1,90,26.1z"/>
</g>
<g>
	<ellipse class="st1" cx="89.8" cy="100.6" rx="69.8" ry="70.8"/>
</g>
<g>
	<path class="st0" d="M126.5,69.1l2.8,6.7v13.9H119c0,0-7.8,1.9-2.5,10.6l11.7,0.8l-2.8,37.2l6.9,1.9c0,0,5.6,0.6,8.3-40
		c0,0,44.7-0.6,52.5-5.6c0,0,0.3-4.2-2.8-6.4L141.2,90c0,0,3.6-11.1-1.1-20.8c0,0,50.9-1.1,54.5-5.3c0,0,2.2-6.1-3.9-6.4h-65
		l-3.6,2.5l-4.4-0.6l-0.3,4.4l-1.5,0.1l5.7,8.3L126.5,69.1z"/>
</g>
<g>
	<path class="st0" d="M85.9,72.5c0,0,9.7,1.9,9.2-6.9l-7.5-5h-4.4l-2.2-3.1L78.7,60c0,0-67.5,15.3-73.4,47.8S71.8,125,71.8,125
		l2.8-3.3l10-1.7l1.1,10h-2.2l1.4,3.1l-0.6,7.2l2.5,6.4l3.6,5l-0.6,3.1c0,0,8.9,10.8,10.8,0l-2.5-3.6l0.3-10.8l1.1-1.4l-1.9-1.4
		l0.8-8.1l-1.7-1.9l1.7-8.6l2.2-1.7l-2.2-3.6l5.8-7.2c0,0-10.3-13.3-18.6-7.5l1.7,5l-0.8,4.6L84,110v3.9l-3.3-2.8
		c0,0-46.4,16.1-59.5,4.2l-0.6-15C20.6,100.3,55.9,64.4,85.9,72.5z"/>
</g>
</svg>
