<svg xmlns="http://www.w3.org/2000/svg" id="Livello_1" version="1" viewBox="0 0 200 200"><style>.st1{fill:#fff}</style><linearGradient id="SVGID_1_" x1="5" x2="195" y1="100" y2="100" gradientUnits="userSpaceOnUse"><stop offset="0" stop-color="#ec0405"/><stop offset="1" stop-color="#a90403"/></linearGradient><path fill="url(#SVGID_1_)" d="M5 59.4h190v81.1H5z"/><path d="M11.9 70.8v58.4h12.9v-24.7h17.8v24.7h11.9V70.8H42.6v24.7H24.8V70.8zM60.4 70.8h10.9l10.9 23.8 10.9-23.8H104l-15.9 35.6v22.8H76.3v-22.8zM139.1 74c-3.4-2.2-7.4-3.2-11.4-3.2h-19.8v58.4h11.9v-19.8h8.8c3.1 0 6.1-.6 8.9-1.9 4.7-2.2 10-6.9 10-16.9 0-8.9-4.2-13.9-8.4-16.6zM135 96.7c-1.9 3-5.3 4.7-8.9 4.7h-6.3V79.7h5.4c3 0 5.9 1 8.1 3 1.8 1.7 3.4 4.2 3.4 7.9-.1 2.6-.8 4.6-1.7 6.1zM155.4 70.8v58.4h33.7v-7.9h-20.8v-17.8h20.8v-8h-20.8V79.7h20.8v-8.9z" class="st1"/></svg>