<?xml version="1.0" encoding="utf-8"?>
<!-- Generator: Adobe Illustrator 22.1.0, SVG Export Plug-In . SVG Version: 6.00 Build 0)  -->
<svg version="1.1" id="Livello_1" xmlns="http://www.w3.org/2000/svg" xmlns:xlink="http://www.w3.org/1999/xlink" x="0px" y="0px"
	 viewBox="0 0 200 200" style="enable-background:new 0 0 200 200;" xml:space="preserve">
<style type="text/css">
	.st0{fill:#00293E;}
	.st1{fill:#003856;}
	.st2{fill:none;}
</style>
<polygon class="st0" points="182.4,52.4 157.5,67.1 157.5,133.7 100.5,166.8 43,133.7 18.6,148.4 100,195.8 182.4,148.4 "/>
<polygon class="st1" points="18.6,52.4 18.6,148.4 43,133.7 43,67.3 100.5,34 157.5,67.1 182.4,52.4 100.5,5.8 "/>
<rect x="58.7" y="73.5" class="st2" width="82.6" height="63.5"/>
<g>
	<path class="st1" d="M84.1,89c-0.4-4.6-1.9-11.4-7.2-11.4c-3.2,0-5.5,1.7-7.4,5.4c-1.9,3.6-3.1,9.9-3.1,16.9
		c0,5.6,0.9,11.1,2.4,14.4c1.9,4.2,4.4,6.1,7.9,6.1c3.9,0,7-2,8.6-8.4l0.8,0.5c-1.1,5.8-4.7,10.1-11.1,10.1c-4.9,0-9-1.9-11.6-7.9
		c-1.6-3.2-2.6-8.8-2.6-14.3c0-8.2,2.1-14.4,4.9-17.9c3.1-4.1,6.4-5.9,10.9-5.9c3.6,0,5.9,1.3,7.2,3.1l0.8-3.1l0.7,0.4
		c-0.4,3.9-0.5,9-0.4,11.8L84.1,89z"/>
	<path class="st1" d="M111.5,113c-0.9,3.1-1.4,7.3-1.5,9c-0.8,0-3-0.2-14.4-0.2c-2.1,0-3.8,0-5.2,0.1l-0.1-0.3
		c0.4-0.9,0.7-2.3,1-2.7c7-7.3,11.5-16,12.6-21.1c0.6-2.5,1-5.1,1-8.9c0-5.5-1.3-10-5.2-10c-3,0-4.6,2.1-4.6,6.1
		c0,0.9,0.4,2.1,0.6,3.1c0.1,0.4-0.1,1.1-0.5,1.4c-0.4,0.4-1,0.6-1.6,0.6c-1.6,0-2.6-1.4-2.6-3.4c0-2.1,0.7-4,2.4-5.8
		c1.7-1.9,4.4-3.1,7.3-3.1c2.9,0,5.1,1.2,6.4,2.6c2.3,2.4,3.1,6.1,3,10.1c-0.1,4.5-1.4,7.8-3.4,10.8c-2.3,3.6-5.9,7.9-13,16.6
		c9.8-0.3,13.8-0.4,14.6-0.5c0.8-0.2,1.1-0.7,1.6-1.9c0.3-0.9,0.6-1.4,0.9-2.9L111.5,113z"/>
	<path class="st1" d="M127.6,78c3.1,0,5.2,1.7,6.9,4.2c2.4,3.6,3.4,10.6,3.4,17.7c-0.1,10.4-2.1,16.6-4.6,19.6
		c-1.9,2.2-4.1,3.1-6.1,3.1c-2.6,0-4.9-1-6.8-3.4c-3-4-4-11-3.9-19.5c0-7.6,1.5-14.7,5-18.6C123,79.2,125.1,78,127.6,78L127.6,78z
		 M127.2,79c-1.6,0-2.6,0.9-3.6,3.4c-1.4,3.4-2.3,11.4-2.3,17.6c0,7.5,0.7,13.8,1.9,17.5c0.8,2.4,2.1,4.1,4.2,4.1
		c1.7,0,3-1.3,3.9-3.8c1.1-3.5,1.7-9.2,1.7-17.6c0-9.1-0.8-14.7-1.9-17.9C130.5,80.2,129.4,79,127.2,79L127.2,79z"/>
</g>
</svg>
