<svg xmlns="http://www.w3.org/2000/svg" id="Livello_1" viewBox="0 0 200 200"><style>.st0{fill:#143364}</style><path d="M90.4 5.9c-15.9 1.7-34 8.9-46.7 18.5-46.9 35.2-51 103.9-8.7 144.5 37.9 36.4 97.6 35.1 134.1-2.9 36.4-37.9 35.1-97.6-2.9-134.1-20.1-19.1-48.5-28.9-75.8-26zm24.8 5.2c43.7 7.4 75.8 45.2 75.8 89.4 0 49.8-40.7 90.6-90.6 90.6-49.8 0-90.6-40.7-90.6-90.6.1-55.6 50.7-98.6 105.4-89.4z" class="st0"/><path d="M50.8 51.5C42.9 58.2 36 64.4 35.6 65.4c-.8 1.8-1.2 24-.4 26.9.2.8 7.3 7.4 15.7 14.6 10.5 8.9 15.6 13.7 16.2 15.3.4 1.2.8 7.7.8 14.5V149l13.9 11.9c7.7 6.5 15 12.3 16.3 12.9 1.7.7 2.9.8 4.4.2 2-.7 26.4-20.9 29.5-24.3 1.1-1.4 1.3-3.2 1.3-14.6 0-12.4.1-13.1 1.7-15 .9-1.1 8.1-7.4 15.9-14.1l14.3-12.2.2-14.4.2-14.4-4.7-4.1c-20.1-17.5-25.5-21.6-28-21.6-2.1 0-4.5 1.7-16.2 11.6s-14.1 11.6-16.2 11.6c-2.8 0-3.8-.8-19.9-14.6-8.8-7.5-10.5-8.6-12.8-8.6-2.3 0-4.4 1.5-17 12.2zm35.3 30c4.6 3.5 5.8 6.8 5.8 15.4 0 10.3.5 10.8 9.9 11.4 9.2.5 12.6 2.6 13.8 8.9l.5 2.3-5.1.2c-3 .2-5.2.6-5.3 1.1-.5 1.5 3.9 5.8 9.1 8.8 3.5 2 5 3.4 5 4.4 0 1.3-.4 1.4-2.4 1.1-12.4-2.2-16.2-2.3-23.9-1-6.2 1.1-7.8 1.2-8.3.4-.8-1.4-.6-1.6 5-4.9 5.1-3 9.6-7.3 9.1-8.8-.2-.5-2.1-1.1-4.3-1.4-2.6-.3-4.4-1-5-1.8-.7-1-1-4.7-1-13.2V92.7l-6.9-.3c-8.7-.4-12-1.8-15-6.5-1.2-1.9-2.2-4.2-2.2-5.2v-1.8l9.2.3c8.8.2 9.3.3 12 2.3zm50.1-1.3c0 4.2-5.3 10.2-10.3 11.6-4.2 1.2-17.5 1.1-17.2-.2.2-.5.5-1.8.8-2.9.6-2.7 4.7-7.3 7.6-8.6 1.4-.6 5.4-1 10.7-1.1 7.1.1 8.4.2 8.4 1.2z" class="st0"/></svg>