<svg xmlns="http://www.w3.org/2000/svg" viewBox="0 0 200 200"><linearGradient id="a" x1="1.16" x2="11.84" y1="4.1188" y2="4.1188" gradientTransform="matrix(17 0 0 12 -10.5 18.5)" gradientUnits="userSpaceOnUse"><stop offset="0" stop-color="#0025ff"/><stop offset="1" stop-color="#00a4ff"/></linearGradient><path fill="url(#a)" d="M186.6 100.5c-3.1 2.6-6.3 4.9-9.7 7.1-13.4 9.1-28.1 15.5-43.7 19.3-10.9 2.6-21.9 4-33.2 4-28.5.2-56.5-8.7-79.8-25.5-3.1-2.1-6.1-4.6-9.2-7.1l-1.8-1.5L100.1 5l90.7 91.6c-1.2 1.4-2.8 2.6-4.2 3.9z"/><path fill="#fff" d="M120.3 108C102.5 97.5 82.7 90.8 62 88.2c11.4-3.1 23-4.6 34.8-4.6 19.6 0 38.8 4.3 56.3 12.9-10.1 5.6-21.1 9.5-32.8 11.5z"/><linearGradient id="b" x1="9.3453" x2="20.9873" y1="28.468" y2="28.468" gradientTransform="matrix(7 0 0 5 5.5 23.5)" gradientUnits="userSpaceOnUse"><stop offset="0" stop-color="#0025ff"/><stop offset="1" stop-color="#00a4ff"/></linearGradient><path fill="url(#b)" d="M152.4 136.7s-13.8 8.9-19 11.5c-17.3 10.1-36.7 16-56.5 17.3l-6 .5L99 195l39.9-41.3c4.9-5.5 9.4-11.2 13.5-17z"/></svg>