<?xml version="1.0" encoding="utf-8"?>
<!-- Generator: Adobe Illustrator 22.1.0, SVG Export Plug-In . SVG Version: 6.00 Build 0)  -->
<svg version="1.0" id="Livello_1" xmlns="http://www.w3.org/2000/svg" xmlns:xlink="http://www.w3.org/1999/xlink" x="0px" y="0px"
	 viewBox="0 0 200 200" style="enable-background:new 0 0 200 200;" xml:space="preserve">
<style type="text/css">
	.st0{fill:#23888C;}
</style>
<path class="st0" d="M195,99.9c1,51.2-42.4,95-94.8,95.1C47.6,195,5.4,151.3,5,100.7C4.6,48.7,48.2,3.9,102.1,5
	C152.9,6,195.8,48.7,195,99.9z M47.8,104.5c-1,0.6-1.4,0.7-1.7,0.9c-10.3,8.7-17.7,19.5-22.5,32.1c-0.4,1,0,2.6,0.5,3.6
	c16.8,30.8,49.1,48.4,85,44.9c23-2.3,42.1-12.7,57.3-30.4c10.8-12.6,15-26.7,15-44.3c0-4.5,0.2-7.3,0.2-12c0-3.5-0.6-4.7-3.2-5.5
	c-7.7-2.5-15.4-2.4-23.1,0.1c-2.2,0.7-2.9,1.8-2.9,4.1c0.1,11.9,0.1,23.9,0,35.8c0,1.2-1.2,3.4-2,3.5c-2,0.2-2.1-1.6-2.1-3.1
	c0-0.3,0-0.5,0-0.8c0-15-0.1-30.1,0.1-45.1c0-2.2-0.8-3.2-2.8-3.9c-7.8-2.5-15.6-2.5-23.4-0.1c-2.3,0.7-3.1,1.9-3.1,4.3
	c0.1,14.8,0.1,29.6,0,44.5c0,1.8,0.5,4.4-2.2,4.4c-2.6-0.1-2.1-2.7-2.1-4.5c0-29.2,0-58.5,0-87.7c0-6.3-0.1-12.5,0-18.8
	c0-1.9-0.5-3.2-2.4-3.9c-7.6-2.9-15.3-3.4-23.1-0.5c-2.3,0.9-3.8,3.1-3.8,5.5c0.1,35.1,0.1,70.2,0,105.3c0,1.9,0.7,4.7-2.3,4.6
	c-2.5-0.1-2-2.7-2-4.6c0-14.8,0-29.6,0-44.5c0-1.9-0.4-3.2-2.4-3.8c-7.9-2.5-15.8-2.7-23.7-0.2c-2.4,0.8-3.2,2-3.2,4.5
	c0.1,17.8,0.1,35.6,0.1,53.4c0,0.9,0.2,1.9-0.1,2.7c-0.4,0.9-1.3,1.5-2,2.2c-0.7-0.7-1.6-1.3-2-2.2c-0.4-0.7-0.1-1.8-0.1-2.6
	c0-11.3,0-22.7,0-34C47.8,107.1,47.8,106,47.8,104.5z"/>
</svg>
