<svg xmlns="http://www.w3.org/2000/svg" id="Layer_1" viewBox="0 0 200 200"><style>.st1{fill:#bebec0}.st4{fill:#b2b0ae}</style><path fill="#ff7f00" d="M100.2 5.5c52.3 0 94.3 42.3 94.3 94.5s-42 94.5-94.3 94.5S5.5 152.2 5.5 100 47.9 5.5 100.2 5.5z"/><path d="M141.9 15.9c-.4.8-2.5 5-2.9 5.7 1 .6 7 4.1 8.8 5.5.5-.8 3.1-5 3.6-5.8-.7-.7-7.9-4.9-9.5-5.4zm-18.5-7c-.3.9-1.6 5.1-1.9 6.1 2.2.7 9.1 3.3 9.8 3.5.3-.9 2.2-5.7 2.5-6.2-.1-.6-8-2.7-10.4-3.4zM104 6c-.1 2.2-.2 4.4-.3 6.7 1.8 0 9.1.8 10.2.9.1-1 .9-5.5 1.1-6.5-3.5-.6-7.6-1.7-11-1.1zm79.7 50.6c-2 1-3.9 2.1-5.9 3.1 1.7 3 3.1 6.1 4.3 9.3 2.1-.8 4.1-1.6 6.2-2.4-1.4-3.5-2.9-6.8-4.6-10zm-11-16.4c-1.3 1.1-4.3 3.6-5.1 4.3.6 1.1 5 7 5.9 8 1.3-.7 4.3-2.6 5.7-3.5-2-3-4.2-6-6.5-8.8zm-14.1-13.7c-1.4 1.7-2.7 3.5-4.1 5.2 2.7 2.1 5.3 4.4 7.7 6.9l4.7-4.7c0-.6-6.7-6.2-8.3-7.4zm34.9 87.6c-2.2-.3-4.4-.7-6.6-1-.5 3.4-1.1 6.7-2.2 10 1 .3 5.6 1.5 6.4 1.8.3-.7 2-8.8 2.4-10.8zm.8-19.7c-2.2.1-4.4.3-6.7.4.3 2 .2 9.4.2 10.2 1.5.1 5.5.3 6.7.4-.1-3.6.4-7.4-.2-11zM191 75c-2.2.6-4.3 1.2-6.4 1.8.6 1.8 2 8.4 2.3 10 1.4-.3 5.5-.8 6.6-1-.6-3.6-1.4-7.2-2.5-10.8zm-23.8 91.2l-4.7-4.7c-1 1-6.7 6-7.6 6.9.4.6 3.4 4.3 4.1 5.2 2.9-2.4 5.7-4.8 8.2-7.4zm12.4-15.4c-.7-.4-4.6-3-5.3-3.4-.4.5-5 6.4-6.4 8.1.8.6 4.6 4.3 5.1 4.3 1-.2 5.7-7.6 6.6-9zm8.9-17.5c-.8-.3-5.3-2-5.9-2.2-.4.8-3.5 7.2-4.6 9.1 2 1 3.9 2.1 5.9 3.1 1.7-3.3 3.2-6.6 4.6-10zM115.4 193c-.4-2.2-.7-4.4-1.1-6.6-2 .4-8.3 1.2-10.2 1.5 0 1.3.3 5.4.3 6.4 3.8-.4 7.4-.7 11-1.3zm19-5.3c-.8-2.1-1.6-4.1-2.4-6.2-1.8.8-8 3-9.5 3.4.3 1.1 1.4 5.3 1.6 6.2 3.4-1.1 6.9-2.1 10.3-3.4zm17.4-9c-.4-.7-2.9-4.4-3.5-5.3-1.6 1-7.1 3.9-9.1 4.8l3 6c3.3-1.7 6.5-3.6 9.6-5.5zm-56.2 15.5c.1-2.2.2-4.4.3-6.7-1.8.1-8.8-.6-10.2-.8-.4.4-.8 5.5-1 6.5 3.4.5 7.4 1.5 10.9 1zm-38-9.7c.4-.8 2.2-4.6 2.9-5.7-1.1-.8-7-4.1-8.8-5.4-.5.8-3.6 4.7-3.5 5.4 0 .9 7.8 5.7 9.4 5.7zm18.5 6.9c.3-.9 1.1-4.6 1.6-6.3-1.8-.5-7.5-2.4-9.6-3.3-.4 1-2.7 5.5-2.5 6.2.2.5 8.2 2.8 10.5 3.4zM16 143.7c2-1 3.9-2.1 5.9-3.1-1.6-2.9-3-6.1-4.2-9.3-2.1.8-4.1 1.6-6.2 2.3.5 1.5 3.8 10.1 4.5 10.1zm10.9 16.4c1.7-1.4 3.4-2.9 5.1-4.3-1.2-1.4-5.4-7.2-6.2-8.1-.9.6-4.6 2.9-5.4 3.5 1.2 1.8 5.8 8.9 6.5 8.9zm14 13.8c1.4-1.7 2.7-3.5 4.1-5.2-1.8-1.4-5.8-5-7.7-6.8l-4.6 4.6c2.6 2.6 5.4 5.1 8.2 7.4zM6.3 86.1c2.2.3 4.4.6 6.6 1 .5-3.4 1.1-6.8 2.1-10-.9-.3-5-1.3-6.3-1.7-.4.7-1.9 8.6-2.4 10.7zm-.8 19.7l6.7-.4c-.4-3 0-10.2-.3-10.2-.6.1-4.6-.2-5.9-.2-1 0-.7-.1-.7 1 0 2 .2 8.7.2 9.8zm3.2 19.4c2.2-.6 4.3-1.2 6.4-1.8-1-3.2-1.8-6.7-2.2-10-2.2.3-4.4.7-6.6 1 .7 3.7 1.4 7.3 2.4 10.8zM32.4 34c.8.7 4 3.9 4.7 4.6 1.3-1.2 5.9-5.5 7.6-6.8-1.4-1.7-2.8-3.5-4.2-5.2-1.2 1.1-8.1 6.5-8.1 7.4zM20.1 49.3c1.8 1.2 3.7 2.4 5.6 3.6 1.8-2.9 3.8-5.7 6-8.3l-5.1-4.2c-1.2 1.6-6.5 7.8-6.5 8.9zm-8.8 17.6c1.6.6 6.2 2.5 6.3 2.3.4-1 3.5-8.1 3.9-9-.9-.6-4.3-2.5-5.8-3.2-.7 1.3-4.2 9.9-4.4 9.9zM84.2 7.1c.1 1 .8 5.7 1.1 6.5 1.5-.1 8.2-1 10.2-.9-.1-1 .1-6.1-.3-6.6-.6-.6-9.1 1-11 1zm-19 5.2c.8 2.1 1.6 4.1 2.4 6.2 1.8-.8 8.6-3.2 9.6-3.5-.4-1.3-1.4-5.3-1.7-6.2-3.5 1.1-7 2.1-10.3 3.5zm-17.5 9c.4.7 2.9 4.4 3.5 5.3 1.1-.6 7-3.9 9-4.9l-3-6c-1.5.8-2.9 1.5-4.4 2.3-.6.5-4.7 3.5-5.1 3.3z" class="st1"/><path fill="none" stroke="#bebec0" stroke-miterlimit="10" stroke-width="3" d="M100.4 5.3c52.4 0 94.4 42.2 94.4 94.6s-42 95.1-94.4 95.1-94.8-42.5-94.8-94.8C5.5 47.8 48 5.3 100.4 5.3z"/><path fill="#cac7c6" d="M124.5 57.7v15.6H95.8v19.9h26.7v15.9H95.8v33.2H75.5V57.7h49z"/><path d="M123.9 58.3l1.9-1.9v18.2H97V92l-1.9 1.9V72.7h28.8c.1-.1 0-14.4 0-14.4z" class="st4"/><path fill="#cccac8" d="M95.1 93.9L97 92h26.7l-1.9 1.9H95.1z"/><path fill="#d6d6d6" d="M74.2 56.4v87.2l1.9-1.9V58.3h47.8l1.9-1.9H74.2z"/><path d="M121.8 93.9v14.6H95.1v33.2h-19l-1.9 1.9H97v-33.2h26.7V92l-1.9 1.9z" class="st4"/><path d="M99.7 178.4c-43.6 0-79-35.4-79-79s35.4-79 79-79 79 35.4 79 79-35.4 79-79 79zm0-152c-40.3 0-73 32.8-73 73s32.8 73 73 73c40.3 0 73-32.8 73-73s-32.7-73-73-73z" class="st1" opacity=".99"/></svg>