<svg xmlns="http://www.w3.org/2000/svg" version="1" viewBox="0 0 200 200"><circle cx="102" cy="99" r="95"/><linearGradient id="a" x1="39.3377" x2="100.4182" y1="63.707" y2="63.707" gradientUnits="userSpaceOnUse"><stop offset=".0229" stop-color="#c3754f"/><stop offset=".1179" stop-color="#d08e50"/><stop offset=".2487" stop-color="#dfaa52"/><stop offset=".3906" stop-color="#eabf53"/><stop offset=".5471" stop-color="#f2ce53"/><stop offset=".7296" stop-color="#f7d754"/><stop offset="1" stop-color="#f8da54"/></linearGradient><path fill="url(#a)" d="M46.3 84.8h-7V65l36.5-22.4 24.6 13.7-3.4 6.1-21.1-11.7-29.6 18.2z"/><linearGradient id="b" x1="64.7532" x2="110.4507" y1="145.182" y2="145.182" gradientUnits="userSpaceOnUse"><stop offset="0" stop-color="#f8da54"/><stop offset=".359" stop-color="#dfab52"/><stop offset=".8" stop-color="#c3754f"/></linearGradient><path fill="url(#b)" d="M98.7 170l-33.9-17v-32.6h6.9v28.3l27 13.5 8.6-4.3 3.2 6.2z"/><path fill="#f8da54" d="M78.4 106.5h40.7l-20.4 20.3z"/><radialGradient id="c" cx="125.4155" cy="139.0274" r="26.0722" gradientTransform="matrix(1 0 0 2 0 -139.0274)" gradientUnits="userSpaceOnUse"><stop offset=".4" stop-color="#c3754f"/><stop offset="1" stop-color="#f8da54"/></radialGradient><path fill="url(#c)" d="M119 160.2l-23.7-17.8v-19.5h6.9V139l16.9 12.7 29.5-20.5v-13.4h7v17.1z"/><linearGradient id="d" x1="121.7074" x2="162.1312" y1="106.3039" y2="72.3843" gradientUnits="userSpaceOnUse"><stop offset=".2" stop-color="#c3754f"/><stop offset=".641" stop-color="#dfab52"/><stop offset="1" stop-color="#f8da54"/></linearGradient><path fill="url(#d)" d="M133.8 120.7l-4-5.7 23.9-16.8V73.5L142 61.8l4.9-4.9 13.8 13.7v31.2z"/><radialGradient id="e" cx="63.9504" cy="112.6398" r="27.9002" gradientTransform="matrix(1 0 0 1.9 0 -101.3758)" gradientUnits="userSpaceOnUse"><stop offset=".0753" stop-color="#c3754f"/><stop offset=".4" stop-color="#f8da54"/><stop offset=".6105" stop-color="#f8da54"/><stop offset="1" stop-color="#c3754f"/></radialGradient><path fill="url(#e)" d="M66.4 81.8L39.3 98.1v36.7l11.6 8.7 4.2-5.6-8.8-6.6V102L70 87.8l18.6 9.7V81.8z"/><linearGradient id="f" x1="85.3451" x2="132.6234" y1="37.5871" y2="84.8653" gradientUnits="userSpaceOnUse"><stop offset="0" stop-color="#f8da54"/><stop offset=".3833" stop-color="#f7d854"/><stop offset=".5508" stop-color="#f3d154"/><stop offset=".6762" stop-color="#edc453"/><stop offset=".7808" stop-color="#e3b252"/><stop offset=".8722" stop-color="#d79b51"/><stop offset=".9533" stop-color="#c87f4f"/><stop offset=".9771" stop-color="#c3754f"/></linearGradient><path fill="url(#f)" d="M98.9 30L87 35.9l3.1 6.2 8.5-4.2 27.2 15.8v28.1H110v15.7l22.7-12.7V49.7z"/></svg>