<?xml version="1.0" encoding="utf-8"?>
<!-- Generator: Adobe Illustrator 16.0.0, SVG Export Plug-In . SVG Version: 6.00 Build 0)  -->
<!DOCTYPE svg PUBLIC "-//W3C//DTD SVG 1.1//EN" "http://www.w3.org/Graphics/SVG/1.1/DTD/svg11.dtd">
<svg version="1.1" id="Layer_1" xmlns="http://www.w3.org/2000/svg" xmlns:xlink="http://www.w3.org/1999/xlink" x="0px" y="0px"
	 width="327px" height="328px" viewBox="0 0 327 328" enable-background="new 0 0 327 328" xml:space="preserve">
<path fill="#FF7F00" d="M162.506,17.803c82.475,0,148.774,66.937,148.774,149.41c0,82.477-66.3,149.258-148.774,149.258
	c-82.475,0-149.334-66.857-149.334-149.334C13.172,84.662,80.031,17.803,162.506,17.803z"/>
<g>
	<g>
		<g>
			<path fill="none" d="M161.368,75.294c0,0,0.913,0.029,2.51,0.081c0.796,0.042,1.772-0.01,2.877,0.095
				c1.104,0.096,2.353,0.193,3.716,0.281c5.424,0.537,12.61,1.759,19.508,4.084c6.918,2.24,13.543,5.393,18.27,8.187
				c1.213,0.643,2.257,1.353,3.197,1.955c0.931,0.617,1.791,1.079,2.428,1.572c1.309,0.93,2.057,1.461,2.057,1.461l61.373-85.179
				c0,0-1.576-1.112-4.335-3.058c-1.366-0.991-3.126-2.051-5.099-3.332c-1.983-1.266-4.212-2.707-6.744-4.118
				c-2.521-1.427-5.21-3.05-8.191-4.522c-2.957-1.513-6.062-3.138-9.392-4.585c-1.655-0.741-3.338-1.495-5.041-2.259
				c-1.735-0.691-3.492-1.392-5.263-2.098c-3.526-1.448-7.209-2.663-10.885-3.894c-1.828-0.641-3.69-1.176-5.551-1.702
				c-1.857-0.524-3.71-1.046-5.547-1.563c-3.703-0.915-7.365-1.771-10.924-2.514c-3.578-0.638-7.029-1.324-10.329-1.781
				c-3.304-0.424-6.427-0.858-9.317-1.143c-2.896-0.222-5.551-0.426-7.903-0.606c-2.354-0.177-4.407-0.165-6.099-0.23
				c-3.383-0.075-5.315-0.118-5.315-0.118V75.294L161.368,75.294z"/>
		</g>
		<path fill="#C5C5C7" d="M228.077,34.88l-4.697,9.391c0,0,0.897,0.458,2.244,1.146c1.364,0.653,3.11,1.662,4.856,2.67
			c0.875,0.5,1.75,1.001,2.569,1.47c0.808,0.491,1.542,0.979,2.183,1.382c1.274,0.813,2.125,1.355,2.125,1.355l5.742-8.79
			c0,0-0.912-0.583-2.283-1.457c-0.688-0.433-1.479-0.956-2.346-1.483c-0.882-0.505-1.822-1.043-2.762-1.582
			c-1.877-1.083-3.755-2.165-5.221-2.87C229.042,35.372,228.077,34.88,228.077,34.88z"/>
		<path fill="#C5C5C7" d="M199.033,23.927l-2.652,10.159c0,0,0.969,0.276,2.422,0.689c1.445,0.438,3.41,0.9,5.305,1.593
			c1.904,0.656,3.824,1.27,5.242,1.793c1.404,0.555,2.342,0.924,2.342,0.924l3.815-9.783c0,0-1.009-0.396-2.521-0.991
			c-1.523-0.564-3.588-1.229-5.639-1.932c-2.039-0.74-4.15-1.246-5.707-1.715C200.076,24.223,199.033,23.927,199.033,23.927z"/>
		<path fill="#C5C5C7" d="M168.441,19.269l-0.493,10.488c0,0,0.252-0.003,0.69,0.025c0.44,0.034,1.067,0.083,1.821,0.141
			c1.505,0.128,3.519,0.243,5.522,0.446c1.998,0.255,3.996,0.51,5.494,0.701c0.752,0.082,1.373,0.191,1.806,0.275
			c0.434,0.078,0.682,0.123,0.682,0.123l1.709-10.36c0,0-0.269-0.048-0.733-0.131c-0.467-0.089-1.133-0.205-1.941-0.296
			c-1.611-0.206-3.764-0.479-5.912-0.753c-2.156-0.219-4.32-0.346-5.939-0.48c-0.812-0.062-1.486-0.113-1.959-0.148
			C168.714,19.267,168.441,19.269,168.441,19.269z"/>
	</g>
	<g>
		<g>
			<path fill="none" d="M215.93,93.01c0,0,0.188,0.131,0.541,0.377c0.361,0.233,0.867,0.611,1.488,1.121
				c0.635,0.493,1.404,1.092,2.287,1.779c0.885,0.686,1.803,1.558,2.861,2.437c4.127,3.636,9.354,8.871,13.646,14.803
				c4.354,5.882,7.903,12.264,10.095,17.222c0.606,1.216,1.043,2.379,1.443,3.402c0.393,1.026,0.809,1.896,1.046,2.647
				c0.506,1.492,0.796,2.345,0.796,2.345l99.548-33.353c0,0-0.636-1.839-1.747-5.059c-0.552-1.611-1.356-3.514-2.224-5.719
				c-0.875-2.203-1.866-4.686-3.11-7.32c-1.224-2.643-2.482-5.542-4.059-8.48c-1.528-2.963-3.129-6.096-4.999-9.21
				c-0.918-1.567-1.852-3.16-2.797-4.773c-1.012-1.569-2.036-3.157-3.068-4.758c-2.027-3.229-4.331-6.335-6.589-9.473
				c-9.126-12.5-20.01-23.548-28.705-31.162c-2.197-1.879-4.181-3.642-6.021-5.103c-1.853-1.448-3.466-2.71-4.794-3.75
				c-1.325-1.045-2.391-1.835-3.135-2.349c-0.736-0.524-1.131-0.804-1.131-0.804L215.93,93.01z"/>
		</g>
		<path fill="#C5C5C7" d="M293.871,99.036l-9.275,4.92c0,0,0.465,0.894,1.159,2.235c0.339,0.675,0.777,1.441,1.169,2.301
			c0.393,0.858,0.812,1.774,1.23,2.689c0.42,0.915,0.841,1.831,1.234,2.688c0.381,0.863,0.685,1.691,0.971,2.389
			c0.562,1.402,0.936,2.337,0.936,2.337l9.788-3.8c0,0-0.402-1.006-1.006-2.517c-0.311-0.751-0.641-1.642-1.049-2.572
			c-0.423-0.924-0.875-1.91-1.326-2.895c-0.452-0.985-0.903-1.971-1.327-2.895c-0.423-0.924-0.893-1.75-1.256-2.477
			C294.37,99.998,293.871,99.036,293.871,99.036z"/>
		<path fill="#C5C5C7" d="M276.586,73.256l-8.062,6.727c0,0,0.627,0.789,1.567,1.973c0.47,0.592,1.019,1.283,1.606,2.022
			c0.595,0.734,1.218,1.527,1.789,2.357c1.176,1.638,2.35,3.276,3.229,4.505c0.821,1.269,1.369,2.114,1.369,2.114l8.783-5.754
			c0,0-0.591-0.909-1.476-2.272c-0.947-1.321-2.209-3.083-3.471-4.844c-0.618-0.891-1.286-1.743-1.925-2.534
			c-0.632-0.795-1.222-1.538-1.726-2.174C277.261,74.104,276.586,73.256,276.586,73.256z"/>
		<path fill="#C5C5C7" d="M254.427,51.678l-6.528,8.223c0,0,0.805,0.607,1.978,1.562c1.146,0.986,2.676,2.301,4.204,3.616
			c1.518,1.329,2.941,2.757,4.054,3.783c0.55,0.519,1.009,0.952,1.329,1.254c0.309,0.316,0.482,0.497,0.482,0.497l7.426-7.425
			c0,0-0.189-0.194-0.521-0.533c-0.345-0.326-0.836-0.791-1.426-1.35c-1.191-1.104-2.729-2.635-4.355-4.063
			c-1.644-1.413-3.285-2.825-4.519-3.884C255.291,52.332,254.427,51.678,254.427,51.678z"/>
	</g>
	<g>
		<g>
			<path fill="none" d="M250.133,139.144c0,0,0.074,0.212,0.215,0.61c0.146,0.397,0.357,0.979,0.551,1.742
				c0.218,0.756,0.482,1.674,0.787,2.727c0.174,0.521,0.311,1.087,0.435,1.689c0.14,0.598,0.284,1.227,0.438,1.883
				c1.213,5.25,2.229,12.39,2.268,19.655c0.085,7.272-0.932,14.403-2.068,19.646c-0.32,1.305-0.596,2.504-0.828,3.568
				c-0.31,1.047-0.578,1.959-0.799,2.711c-0.219,0.752-0.369,1.35-0.498,1.749c-0.142,0.396-0.217,0.606-0.217,0.606l99.809,32.562
				c0,0,0.157-0.462,0.45-1.328c0.277-0.87,0.646-2.161,1.127-3.8c0.471-1.643,1.039-3.635,1.693-5.922
				c0.547-2.314,1.164-4.926,1.838-7.774c2.521-11.423,4.639-26.981,4.479-42.506c-0.098-7.757-0.527-15.53-1.457-22.773
				c-0.237-1.81-0.472-3.589-0.699-5.331c-0.218-1.743-0.576-3.428-0.855-5.078c-0.303-1.646-0.597-3.248-0.882-4.797
				c-0.273-1.551-0.667-3.024-0.981-4.45c-0.336-1.422-0.656-2.785-0.963-4.082c-0.299-1.298-0.606-2.522-0.946-3.66
				c-0.657-2.281-1.23-4.269-1.702-5.906c-0.461-1.642-0.895-2.907-1.191-3.77c-0.294-0.864-0.45-1.325-0.45-1.325L250.133,139.144z
				"/>
		</g>
		<path fill="#C5C5C7" d="M309.419,189.585l-10.385-1.552c0,0-0.032,0.249-0.088,0.686c-0.064,0.437-0.188,1.053-0.321,1.795
			c-0.278,1.483-0.614,3.469-1.006,5.441c-0.461,1.958-0.922,3.917-1.268,5.386c-0.16,0.738-0.328,1.345-0.459,1.765
			c-0.123,0.422-0.192,0.664-0.192,0.664l10.126,2.778c0,0,0.075-0.261,0.207-0.717c0.14-0.453,0.319-1.106,0.495-1.901
			c0.372-1.584,0.867-3.695,1.363-5.807c0.426-2.126,0.788-4.266,1.087-5.864c0.143-0.801,0.273-1.466,0.344-1.935
			C309.384,189.854,309.419,189.585,309.419,189.585z"/>
		<path fill="#C5C5C7" d="M310.72,158.562l-10.479,0.661c0,0,0.02,0.251,0.054,0.69c0.042,0.439,0.086,1.066,0.092,1.822
			c0.039,1.51,0.091,3.524,0.144,5.537c0.011,2.015-0.089,4.027-0.112,5.537c-0.019,0.756-0.035,1.385-0.046,1.824
			c-0.003,0.441-0.036,0.691-0.036,0.691l10.484,0.568c0.001,0,0.033-0.27,0.039-0.744c0.013-0.475,0.029-1.15,0.052-1.963
			c0.027-1.627,0.131-3.793,0.119-5.961c-0.057-2.166-0.111-4.333-0.153-5.958c-0.009-0.813-0.056-1.489-0.099-1.961
			C310.741,158.833,310.72,158.562,310.72,158.562z"/>
		<path fill="#C5C5C7" d="M305.51,128.054l-10.105,2.85c0,0,0.281,0.967,0.699,2.417c0.347,1.47,0.808,3.429,1.269,5.388
			c0.112,0.49,0.228,0.98,0.34,1.462c0.088,0.487,0.175,0.967,0.259,1.432c0.168,0.928,0.325,1.794,0.46,2.537
			c0.271,1.485,0.451,2.475,0.451,2.475l10.372-1.633c0,0-0.193-1.067-0.482-2.667c-0.146-0.8-0.315-1.733-0.497-2.734
			c-0.092-0.5-0.186-1.017-0.28-1.542c-0.12-0.52-0.242-1.048-0.364-1.577c-0.497-2.11-0.994-4.221-1.367-5.804
			C305.811,129.096,305.51,128.054,305.51,128.054z"/>
	</g>
	<g>
		<g>
			<path fill="none" d="M250.414,195.73c0,0-0.293,0.848-0.807,2.328c-0.125,0.371-0.265,0.783-0.414,1.23
				c-0.182,0.438-0.375,0.911-0.584,1.417c-0.203,0.508-0.42,1.048-0.646,1.618c-0.222,0.572-0.447,1.177-0.755,1.779
				c-2.138,4.946-5.644,11.305-9.957,17.164c-1.006,1.515-2.246,2.862-3.325,4.293c-1.146,1.379-2.348,2.681-3.468,3.974
				c-1.224,1.2-2.319,2.446-3.464,3.522c-1.172,1.051-2.204,2.123-3.251,3.014c-1.054,0.882-2.009,1.701-2.849,2.438
				c-0.885,0.682-1.654,1.275-2.289,1.766s-1.119,0.893-1.469,1.144c-0.354,0.243-0.543,0.372-0.543,0.372l61.59,85.023
				c0,0,0.394-0.278,1.131-0.803c0.731-0.533,1.776-1.352,3.117-2.381c1.334-1.035,2.963-2.283,4.803-3.75
				c1.791-1.525,3.812-3.248,6.016-5.127c2.188-1.896,4.439-4.09,6.863-6.357c2.397-2.293,4.791-4.857,7.312-7.459
				c2.422-2.695,4.932-5.483,7.361-8.414c2.368-2.987,4.866-5.946,7.093-9.123c1.133-1.572,2.265-3.146,3.393-4.713
				c1.089-1.596,2.13-3.216,3.177-4.812c2.132-3.169,4.003-6.438,5.837-9.585c0.453-0.789,0.917-1.563,1.348-2.349
				c0.417-0.793,0.831-1.578,1.24-2.354c0.81-1.559,1.602-3.081,2.373-4.562c1.522-2.976,2.779-5.887,4.012-8.532
				c0.623-1.32,1.146-2.62,1.645-3.856c0.498-1.234,0.97-2.408,1.412-3.51c0.438-1.104,0.849-2.139,1.228-3.093
				c0.341-0.972,0.654-1.861,0.938-2.666c1.11-3.229,1.744-5.073,1.744-5.073L250.414,195.73z"/>
		</g>
		<path fill="#C5C5C7" d="M267.966,271.578l-7.44-7.408c0,0-0.176,0.182-0.481,0.498c-0.299,0.324-0.752,0.762-1.31,1.273
			c-1.102,1.035-2.57,2.414-4.041,3.795c-1.533,1.309-3.066,2.617-4.217,3.598c-0.569,0.498-1.058,0.898-1.412,1.159
			c-0.35,0.271-0.549,0.425-0.549,0.425l6.543,8.213c0,0,0.213-0.166,0.588-0.456c0.381-0.282,0.903-0.712,1.518-1.245
			c1.236-1.056,2.885-2.463,4.532-3.869c1.579-1.481,3.159-2.965,4.346-4.076c0.597-0.553,1.084-1.022,1.406-1.37
			C267.777,271.771,267.966,271.578,267.966,271.578z"/>
		<path fill="#C5C5C7" d="M287.458,247.426l-8.81-5.712c0,0-0.551,0.845-1.375,2.109c-0.789,1.29-2.043,2.872-3.2,4.521
			c-1.147,1.657-2.427,3.217-3.371,4.396c-0.942,1.181-1.571,1.969-1.571,1.969l8.088,6.695c0,0,0.678-0.846,1.691-2.115
			c1.016-1.27,2.388-2.947,3.626-4.729c1.248-1.771,2.589-3.479,3.44-4.865C286.866,248.334,287.458,247.426,287.458,247.426z"/>
		<path fill="#C5C5C7" d="M301.491,219.841l-9.812-3.737c0,0-0.377,0.934-0.938,2.334s-1.285,3.279-2.166,5.092
			c-0.866,1.816-1.632,3.683-2.363,5.005c-0.698,1.339-1.164,2.231-1.164,2.231l9.302,4.873c0,0,0.5-0.963,1.252-2.404
			c0.783-1.426,1.616-3.433,2.547-5.392c0.944-1.952,1.729-3.976,2.334-5.485C301.087,220.848,301.491,219.841,301.491,219.841z"/>
	</g>
	<g>
		<g>
			<path fill="none" d="M216.596,241.789c0,0-0.75,0.525-2.063,1.443c-0.329,0.229-0.683,0.498-1.085,0.765
				c-0.41,0.255-0.854,0.53-1.327,0.825c-0.472,0.3-0.974,0.617-1.501,0.953c-0.521,0.349-1.079,0.695-1.688,1.016
				c-4.717,2.809-11.348,5.971-18.285,8.229c-1.707,0.646-3.494,1.029-5.211,1.556c-0.854,0.28-1.735,0.421-2.59,0.628
				c-0.855,0.199-1.701,0.396-2.533,0.593c-1.685,0.3-3.312,0.588-4.854,0.862c-1.562,0.176-3.031,0.363-4.39,0.553
				c-2.74,0.173-5.016,0.441-6.629,0.407c-1.607,0.046-2.526,0.071-2.526,0.071l0.598,104.984c0,0,1.928-0.045,5.299-0.124
				c3.373-0.021,8.189-0.417,13.961-0.899c2.877-0.363,5.994-0.756,9.291-1.172c3.278-0.545,6.734-1.149,10.297-1.828
				c1.771-0.4,3.568-0.808,5.391-1.219c1.816-0.433,3.669-0.812,5.497-1.352c3.665-1.041,7.419-2.004,11.071-3.287
				c1.832-0.618,3.666-1.236,5.492-1.852c1.81-0.664,3.592-1.373,5.367-2.062c3.569-1.334,6.98-2.885,10.286-4.372
				c0.825-0.374,1.646-0.744,2.455-1.111c0.796-0.396,1.584-0.791,2.364-1.182c1.556-0.787,3.076-1.56,4.559-2.31
				c1.491-0.734,2.891-1.542,4.25-2.31c1.358-0.771,2.67-1.518,3.93-2.232c1.268-0.705,2.451-1.43,3.562-2.141
				c1.116-0.705,2.175-1.373,3.17-2.002c0.992-0.633,1.921-1.225,2.779-1.771c0.85-0.562,1.609-1.107,2.305-1.588
				c2.766-1.94,4.346-3.051,4.346-3.051L216.596,241.789z"/>
		</g>
		<path fill="#C5C5C7" d="M186.35,313.799l-1.74-10.354c0,0-0.989,0.189-2.481,0.426c-1.5,0.188-3.5,0.439-5.499,0.691
			c-1.999,0.269-4.018,0.334-5.521,0.475c-1.508,0.115-2.514,0.191-2.514,0.191l0.536,10.485c0,0,1.081-0.081,2.701-0.203
			c1.618-0.147,3.787-0.226,5.937-0.51c2.149-0.271,4.299-0.543,5.912-0.746C185.283,314.003,186.35,313.799,186.35,313.799z"/>
		<path fill="#C5C5C7" d="M216.256,305.511l-3.836-9.772c0,0-0.939,0.365-2.348,0.916c-1.393,0.591-3.334,1.146-5.235,1.812
			c-0.959,0.31-1.903,0.666-2.813,0.917c-0.91,0.256-1.758,0.493-2.485,0.697c-1.455,0.41-2.425,0.684-2.425,0.684l2.682,10.15
			c0,0,1.043-0.293,2.607-0.732c0.783-0.22,1.695-0.477,2.674-0.752c0.979-0.271,1.994-0.65,3.025-0.984
			c2.047-0.713,4.131-1.318,5.631-1.949C215.246,305.904,216.256,305.511,216.256,305.511z"/>
		<path fill="#C5C5C7" d="M243.742,291.323l-5.754-8.783c0,0-0.854,0.539-2.131,1.347c-0.64,0.404-1.385,0.877-2.183,1.383
			c-0.797,0.508-1.692,0.974-2.563,1.479c-1.764,0.974-3.479,2.041-4.85,2.683c-1.351,0.683-2.25,1.137-2.25,1.137l4.709,9.386
			c0,0,0.967-0.489,2.416-1.224c1.473-0.693,3.319-1.832,5.215-2.883c0.938-0.543,1.896-1.049,2.754-1.593
			c0.858-0.543,1.66-1.05,2.348-1.483C242.827,291.902,243.742,291.323,243.742,291.323z"/>
	</g>
	<g>
		<g>
			<path fill="none" d="M161.913,259.689c0,0-0.23,0.018-0.66,0.016c-0.429-0.014-1.058-0.035-1.858-0.062
				c-0.8-0.017-1.772-0.037-2.888-0.062c-1.106-0.099-2.354-0.2-3.717-0.292c-5.427-0.51-12.605-1.672-19.473-3.934
				c-6.881-2.203-13.45-5.312-18.136-8.067c-0.591-0.337-1.157-0.66-1.695-0.968c-0.52-0.338-1.013-0.659-1.476-0.961
				c-0.924-0.607-1.759-1.092-2.409-1.549c-1.292-0.928-2.03-1.457-2.03-1.457L46.19,327.529c0,0,1.582,1.119,4.35,3.08
				c1.395,0.963,3.144,2.057,5.129,3.338c0.997,0.635,2.058,1.31,3.176,2.021c1.135,0.686,2.348,1.374,3.606,2.104
				c2.521,1.455,5.246,3.041,8.237,4.525c1.486,0.758,3.014,1.535,4.574,2.33c1.571,0.775,3.215,1.489,4.869,2.249
				c1.664,0.741,3.34,1.528,5.072,2.245c1.743,0.689,3.507,1.391,5.286,2.096c3.539,1.457,7.258,2.604,10.935,3.864
				c14.803,4.824,30.222,7.414,41.783,8.456c2.896,0.217,5.55,0.415,7.903,0.591c2.353,0.068,4.404,0.13,6.093,0.179
				c1.689,0.035,3.017,0.063,3.922,0.084c0.903-0.012,1.385-0.019,1.385-0.019L161.913,259.689z"/>
		</g>
		<path fill="#C5C5C7" d="M95.44,300.469l4.671-9.404c0,0-0.896-0.459-2.241-1.146c-0.672-0.345-1.456-0.747-2.296-1.178
			c-0.818-0.473-1.691-0.975-2.564-1.477c-1.748-1.002-3.503-1.99-4.754-2.84c-1.271-0.816-2.12-1.359-2.12-1.359l-5.737,8.795
			c0,0,0.912,0.584,2.281,1.461c1.349,0.912,3.235,1.979,5.117,3.058c0.94,0.54,1.879,1.08,2.761,1.586
			c0.903,0.466,1.747,0.897,2.47,1.271C94.475,299.975,95.44,300.469,95.44,300.469z"/>
		<path fill="#C5C5C7" d="M124.538,311.302l2.598-10.173c0,0.001-3.89-1.049-7.736-2.236c-1.907-0.646-3.815-1.291-5.245-1.773
			c-1.407-0.549-2.345-0.915-2.345-0.915l-3.775,9.798c0,0,1.01,0.393,2.525,0.982c1.541,0.521,3.594,1.217,5.648,1.91
			C120.348,310.178,124.538,311.303,124.538,311.302z"/>
		<path fill="#C5C5C7" d="M155.159,315.759l0.433-10.491c0,0-0.252-0.006-0.693-0.017c-0.441,0.001-1.069-0.045-1.823-0.106
			c-1.507-0.115-3.516-0.268-5.525-0.42c-1.999-0.248-3.998-0.498-5.497-0.685c-0.749-0.099-1.373-0.179-1.81-0.233
			c-0.434-0.078-0.682-0.123-0.682-0.123l-1.646,10.369c0,0,0.267,0.049,0.733,0.131c0.47,0.062,1.142,0.149,1.948,0.256
			c1.613,0.197,3.762,0.492,5.915,0.733c2.161,0.165,4.322,0.329,5.943,0.452c0.811,0.064,1.486,0.114,1.96,0.114
			C154.889,315.752,155.159,315.759,155.159,315.759z"/>
	</g>
	<g>
		<g>
			<path fill="none" d="M107.571,242.355c0,0-0.186-0.131-0.534-0.375c-0.35-0.244-0.871-0.59-1.48-1.104
				c-0.626-0.491-1.386-1.088-2.257-1.771c-0.893-0.658-1.782-1.545-2.833-2.416c-4.084-3.606-9.245-8.814-13.487-14.729
				c-4.299-5.868-7.803-12.252-9.964-17.223c-0.602-1.219-1.02-2.391-1.422-3.413c-0.385-1.031-0.808-1.898-1.028-2.659
				c-0.502-1.498-0.789-2.354-0.789-2.354l-99.74,32.772c0,0,0.625,1.841,1.72,5.062c0.528,1.617,1.334,3.521,2.185,5.729
				c0.869,2.204,1.833,4.696,3.065,7.338c1.214,2.647,2.448,5.56,4.009,8.509c1.517,2.973,3.095,6.119,4.951,9.248
				c0.911,1.575,1.837,3.176,2.774,4.797c1.005,1.578,2.022,3.174,3.048,4.784c2.015,3.246,4.309,6.372,6.557,9.53
				c9.095,12.575,19.985,23.712,28.708,31.372c2.207,1.889,4.178,3.683,6.043,5.132c1.856,1.459,3.475,2.73,4.807,3.779
				c1.325,1.058,2.415,1.824,3.154,2.353c0.739,0.529,1.133,0.812,1.133,0.812L107.571,242.355z"/>
		</g>
		<path fill="#C5C5C7" d="M29.803,236.166l9.305-4.865c0,0-0.459-0.896-1.148-2.24c-0.724-1.328-1.545-3.166-2.368-5.004
			c-0.416-0.918-0.831-1.834-1.22-2.695c-0.349-0.877-0.674-1.694-0.954-2.396c-0.554-1.404-0.923-2.341-0.923-2.341l-9.811,3.741
			c0,0,0.398,1.009,0.994,2.521c0.302,0.755,0.637,1.644,1.029,2.58c0.418,0.927,0.865,1.914,1.311,2.901
			c0.886,1.979,1.774,3.957,2.55,5.388C29.309,235.201,29.803,236.166,29.803,236.166z"/>
		<path fill="#C5C5C7" d="M46.959,262.038l8.091-6.692c0,0-0.165-0.189-0.434-0.539c-0.272-0.348-0.661-0.843-1.127-1.438
			c-0.467-0.594-1.011-1.287-1.595-2.029c-0.589-0.738-1.212-1.529-1.78-2.363c-1.165-1.643-2.331-3.285-3.204-4.519
			c-0.815-1.272-1.358-2.121-1.358-2.121l-8.813,5.707c0,0,0.585,0.912,1.463,2.281c0.94,1.325,2.193,3.095,3.446,4.862
			c0.613,0.896,1.282,1.748,1.915,2.543c0.627,0.799,1.213,1.543,1.716,2.184c0.502,0.639,0.921,1.171,1.214,1.544
			C46.782,261.833,46.959,262.038,46.959,262.038z"/>
		<path fill="#C5C5C7" d="M69.069,283.682l6.537-8.218c0,0-0.792-0.622-1.98-1.556c-1.142-0.99-2.665-2.311-4.188-3.629
			c-1.527-1.314-2.934-2.762-4.044-3.787c-0.547-0.521-1.003-0.955-1.322-1.26c-0.325-0.299-0.489-0.489-0.488-0.49l-7.445,7.404
			c0,0,0.177,0.205,0.525,0.527c0.343,0.327,0.833,0.795,1.421,1.355c1.192,1.104,2.71,2.656,4.351,4.072
			c1.638,1.418,3.277,2.838,4.505,3.901C68.218,283.011,69.069,283.682,69.069,283.682z"/>
	</g>
	<g>
		<g>
			<path fill="none" d="M73.775,196.312c0,0-0.074-0.215-0.212-0.613c-0.07-0.2-0.157-0.446-0.258-0.735
				c-0.081-0.297-0.174-0.637-0.279-1.019c-0.216-0.76-0.479-1.682-0.782-2.739c-0.326-1.052-0.523-2.284-0.856-3.597
				c-1.191-5.287-2.19-12.49-2.217-19.836c-0.049-7.351,0.949-14.56,2.094-19.855c0.303-1.321,0.582-2.532,0.828-3.605
				c0.306-1.057,0.572-1.979,0.792-2.738c0.393-1.531,0.718-2.375,0.717-2.376l-99.93-32.188c0,0-0.652,1.832-1.558,5.112
				c-0.461,1.637-1.021,3.625-1.663,5.905c-0.565,2.299-1.161,4.904-1.81,7.746c-2.49,11.377-4.562,26.857-4.455,42.301
				c0.045,1.931,0.09,3.86,0.134,5.784c0.057,1.924,0.083,3.838,0.251,5.738c0.305,3.801,0.489,7.545,1.004,11.149
				c0.453,3.608,0.871,7.098,1.506,10.378c0.584,3.286,1.118,6.396,1.814,9.229c0.671,2.836,1.212,5.455,1.862,7.732
				c0.646,2.279,1.209,4.266,1.673,5.902c0.237,0.815,0.449,1.546,0.633,2.18c0.208,0.627,0.386,1.16,0.529,1.593
				c0.289,0.863,0.443,1.324,0.443,1.324L73.775,196.312z"/>
		</g>
		<path fill="#C5C5C7" d="M14.583,145.549l10.386,1.541c0,0,0.033-0.25,0.091-0.687c0.078-0.434,0.189-1.053,0.322-1.796
			c0.279-1.484,0.591-3.475,1-5.446c0.453-1.962,0.906-3.924,1.246-5.396c0.155-0.739,0.344-1.34,0.462-1.765
			c0.121-0.423,0.189-0.666,0.189-0.666l-10.134-2.748c0,0-0.074,0.261-0.204,0.717c-0.126,0.457-0.328,1.104-0.497,1.9
			c-0.366,1.584-0.854,3.697-1.341,5.809c-0.44,2.122-0.78,4.265-1.078,5.863c-0.143,0.8-0.261,1.467-0.345,1.935
			C14.619,145.281,14.583,145.549,14.583,145.549z"/>
		<path fill="#C5C5C7" d="M13.255,176.559l10.481-0.631c0,0-0.019-0.251-0.053-0.691c-0.046-0.438-0.063-1.067-0.078-1.823
			c-0.038-1.513-0.089-3.526-0.141-5.542c0.015-2.016,0.094-4.03,0.123-5.542c0.019-0.755,0.034-1.385,0.045-1.826
			c0.03-0.439,0.048-0.691,0.048-0.691l-10.484-0.576c0,0-0.018,0.27-0.05,0.743c-0.012,0.474-0.03,1.151-0.051,1.963
			c-0.033,1.625-0.116,3.791-0.13,5.957c0.055,2.168,0.109,4.334,0.15,5.957c0.017,0.812,0.036,1.489,0.084,1.963
			C13.235,176.289,13.255,176.559,13.255,176.559z"/>
		<path fill="#C5C5C7" d="M18.334,207.081l10.121-2.794c0,0-0.273-0.969-0.684-2.424c-0.339-1.471-0.792-3.434-1.245-5.396
			c-0.248-0.977-0.416-1.97-0.578-2.899c-0.166-0.93-0.32-1.797-0.453-2.541c-0.267-1.485-0.444-2.478-0.444-2.478l-10.379,1.589
			c0,0,0.19,1.067,0.476,2.668c0.143,0.801,0.31,1.733,0.488,2.734c0.176,1.001,0.359,2.068,0.623,3.121
			c0.488,2.111,0.976,4.227,1.342,5.811C18.041,206.038,18.334,207.081,18.334,207.081z"/>
	</g>
	<g>
		<g>
			<path fill="none" d="M73.601,139.199c0,0,0.29-0.855,0.797-2.351c0.13-0.373,0.245-0.796,0.42-1.239
				c0.179-0.442,0.371-0.919,0.577-1.43c0.201-0.513,0.415-1.058,0.64-1.633c0.11-0.289,0.223-0.584,0.338-0.888
				c0.136-0.294,0.276-0.596,0.418-0.903c2.127-4.986,5.606-11.385,9.879-17.269c4.203-5.94,9.311-11.199,13.387-14.82
				c1.031-0.894,1.977-1.712,2.815-2.438c0.874-0.682,1.636-1.275,2.263-1.765c1.226-1.018,1.996-1.504,1.996-1.504L45.255,8.145
				c0,0-0.394,0.282-1.132,0.812c-0.75,0.514-1.787,1.35-3.126,2.389c-1.331,1.05-2.947,2.325-4.801,3.787
				c-1.811,1.514-3.816,3.267-6.009,5.172c-1.108,0.94-2.21,1.976-3.342,3.059c-1.133,1.081-2.304,2.199-3.508,3.348
				c-1.217,1.136-2.396,2.375-3.602,3.638c-1.204,1.267-2.434,2.561-3.685,3.876c-1.247,1.319-2.427,2.742-3.661,4.144
				c-1.214,1.42-2.479,2.828-3.673,4.315c-1.18,1.498-2.37,3.007-3.564,4.523l-1.781,2.288l-1.694,2.361
				c-1.121,1.581-2.242,3.162-3.358,4.737c-1.098,1.587-2.111,3.226-3.15,4.826c-1.014,1.617-2.08,3.184-3.006,4.811
				c-0.935,1.622-1.858,3.224-2.767,4.8c-3.58,6.335-6.524,12.471-8.859,17.809c-0.296,0.666-0.585,1.317-0.869,1.954
				c-0.259,0.647-0.512,1.28-0.759,1.896c-0.488,1.235-0.952,2.407-1.388,3.508c-0.43,1.104-0.833,2.136-1.205,3.09
				c-0.365,0.958-0.65,1.855-0.932,2.658c-1.089,3.223-1.711,5.064-1.711,5.064L73.601,139.199z"/>
		</g>
		<path fill="#C5C5C7" d="M55.663,63.357l7.479,7.37c0,0,0.678-0.746,1.789-1.772c1.101-1.035,2.539-2.448,4.023-3.81
			c1.523-1.319,3.046-2.638,4.188-3.628c0.561-0.507,1.073-0.875,1.416-1.152c0.347-0.272,0.545-0.428,0.545-0.428l-6.575-8.187
			c0,0-0.213,0.167-0.586,0.46c-0.368,0.298-0.917,0.697-1.522,1.24c-1.229,1.064-2.867,2.483-4.505,3.902
			c-1.598,1.464-3.146,2.982-4.329,4.097C56.394,62.557,55.663,63.357,55.663,63.357z"/>
		<path fill="#C5C5C7" d="M36.312,87.627l8.844,5.66c0,0,0.543-0.848,1.358-2.121c0.802-1.281,2.025-2.885,3.175-4.539
			c1.132-1.669,2.422-3.219,3.347-4.414c0.933-1.188,1.555-1.981,1.555-1.981l-8.126-6.649c0,0-0.67,0.852-1.675,2.13
			c-0.996,1.285-2.379,2.956-3.6,4.749c-1.24,1.777-2.55,3.507-3.416,4.884C36.897,86.715,36.312,87.627,36.312,87.627z"/>
		<path fill="#C5C5C7" d="M22.431,115.282l9.828,3.696c0,0,0.37-0.937,0.924-2.341c0.276-0.703,0.599-1.521,0.945-2.4
			c0.348-0.877,0.794-1.782,1.2-2.703c0.85-1.825,1.609-3.694,2.34-5.018c0.689-1.344,1.148-2.24,1.148-2.24l-9.327-4.822
			c0,0-0.494,0.965-1.235,2.412c-0.782,1.427-1.608,3.436-2.52,5.401c-0.437,0.992-0.914,1.967-1.29,2.911
			c-0.373,0.945-0.721,1.828-1.02,2.584C22.829,114.274,22.431,115.282,22.431,115.282z"/>
	</g>
	<g>
		<g>
			<path fill="none" d="M107.131,92.959c0,0,0.74-0.527,2.035-1.449c0.627-0.492,1.464-0.974,2.392-1.575
				c0.939-0.583,1.952-1.32,3.157-1.953c4.669-2.789,11.227-5.927,18.098-8.159c6.849-2.317,14.015-3.541,19.439-4.073
				c1.363-0.087,2.611-0.184,3.717-0.28c1.105-0.104,2.085-0.053,2.883-0.094c1.601-0.051,2.516-0.081,2.516-0.081V-29.692
				c0,0-1.931,0.042-5.31,0.118c-1.69,0.065-3.74,0.053-6.093,0.229c-2.353,0.18-5.007,0.383-7.902,0.604
				c-2.891,0.285-6.017,0.718-9.321,1.141c-3.301,0.459-6.759,1.143-10.342,1.781c-3.562,0.75-7.234,1.598-10.944,2.524
				c-1.842,0.52-3.698,1.043-5.561,1.569L103.1-20.92c-0.93,0.279-1.846,0.604-2.77,0.907c-1.84,0.625-3.681,1.249-5.515,1.871
				c-1.84,0.605-3.612,1.369-5.4,2.05c-1.777,0.708-3.55,1.387-5.275,2.12c-1.709,0.769-3.398,1.528-5.059,2.274
				C72.453-8.68,66.47-5.443,61.455-2.492c-2.542,1.421-4.758,2.905-6.755,4.17c-1.985,1.282-3.732,2.377-5.1,3.38
				c-2.765,1.964-4.345,3.087-4.345,3.087L107.131,92.959z"/>
		</g>
		<path fill="#C5C5C7" d="M137.236,21.073l1.695,10.362c0,0,0.248-0.044,0.682-0.122c0.432-0.088,1.054-0.183,1.805-0.268
			c1.499-0.19,3.497-0.445,5.495-0.699c2.005-0.187,4.018-0.313,5.523-0.437c0.753-0.058,1.381-0.106,1.821-0.14
			c0.441-0.011,0.693-0.017,0.693-0.017l-0.48-10.489c0,0-0.271,0.007-0.744,0.02c-0.473,0.036-1.148,0.086-1.958,0.148
			c-1.62,0.131-3.784,0.269-5.941,0.471c-2.15,0.273-4.301,0.546-5.914,0.751c-0.808,0.093-1.477,0.195-1.942,0.289
			C137.503,21.025,137.236,21.073,137.236,21.073z"/>
		<path fill="#C5C5C7" d="M107.299,29.294l3.828,9.777c0,0,0.937-0.37,2.341-0.925c1.413-0.532,3.333-1.14,5.236-1.798
			c1.893-0.693,3.855-1.159,5.301-1.595c1.453-0.413,2.421-0.689,2.421-0.689l-2.653-10.159c0,0-1.043,0.296-2.607,0.74
			c-1.557,0.466-3.668,0.977-5.708,1.718c-2.05,0.706-4.116,1.365-5.638,1.937C108.307,28.896,107.299,29.294,107.299,29.294z"/>
		<path fill="#C5C5C7" d="M79.82,43.519l5.778,8.767c0,0,0.848-0.543,2.12-1.358c0.636-0.408,1.377-0.883,2.172-1.393
			c0.819-0.47,1.692-0.972,2.566-1.473c1.745-1.005,3.481-2.029,4.845-2.682c1.344-0.688,2.241-1.147,2.241-1.147l-4.715-9.382
			c0,0-0.965,0.494-2.412,1.235c-1.466,0.707-3.336,1.804-5.215,2.886c-0.939,0.541-1.879,1.082-2.76,1.588
			c-0.856,0.547-1.655,1.058-2.339,1.497C80.732,42.934,79.82,43.519,79.82,43.519z"/>
	</g>
</g>
<path fill="none" stroke="#BEBEC0" stroke-width="2" stroke-miterlimit="10" d="M162.667,18.335
	c82.474,0,148.613,66.404,148.613,148.878c0,82.475-66.14,149.788-148.613,149.788c-82.474,0-149.333-66.858-149.333-149.333
	C13.334,85.194,80.193,18.335,162.667,18.335z"/>
<g>
	
		<image overflow="visible" opacity="0.5" enable-background="new    " width="94" height="151" xlink:href="C1E02C584D3CDBCC.png"  transform="matrix(1 0 0 0.9934 116 94.8906)">
	</image>
	<g>
		<g>
			<g>
				<path fill="#BCBAB8" d="M156.003,155.558h41.994H156.003z"/>
			</g>
			<g>
				<polygon fill="#B2B0AE" points="198.336,102.56 201.336,99.56 201.336,128.225 198.336,125.225 				"/>
			</g>
			<g>
				<polygon fill="#B2B0AE" points="198.336,125.225 201.336,128.225 156.003,128.225 153.003,125.225 				"/>
			</g>
			<g>
				<polygon fill="#B2B0AE" points="153.003,125.225 156.003,128.225 156.003,155.558 153.003,158.558 				"/>
			</g>
			<g>
				<polygon fill="#CCCAC8" points="153.003,158.558 156.003,155.558 197.997,155.558 194.997,158.558 				"/>
			</g>
			<g>
				<polygon fill="#B2B0AE" points="194.997,158.558 197.997,155.558 197.997,184.557 194.997,181.557 				"/>
			</g>
			<g>
				<polygon fill="#CAC7C6" points="198.336,102.56 198.336,125.225 153.003,125.225 153.003,158.558 194.997,158.558 
					194.997,181.557 153.003,181.557 153.003,233.891 123.003,233.891 123.003,102.56 				"/>
			</g>
			<g>
				<polygon fill="#B2B0AE" points="153.003,181.557 156.003,184.557 156.003,236.891 153.003,233.891 				"/>
			</g>
			<g>
				<polygon fill="#B2B0AE" points="153.003,233.891 156.003,236.891 120.003,236.891 123.003,233.891 				"/>
			</g>
			<g>
				<polygon fill="#CECCCA" points="123.003,233.891 120.003,236.891 120.003,99.56 123.003,102.56 				"/>
			</g>
			<g>
				<polygon fill="#CCCAC8" points="123.003,102.56 120.003,99.56 201.336,99.56 198.336,102.56 				"/>
			</g>
			<g>
				<polygon fill="#B2B0AE" points="194.997,181.557 197.997,184.557 156.003,184.557 153.003,181.557 				"/>
			</g>
		</g>
	</g>
</g>
<g>
	<path fill="#5E5855" d="M215.93,110.337v-6.603h-2.354v-1.344h6.312v1.344h-2.354v6.603H215.93z"/>
	<path fill="#5E5855" d="M220.9,110.337v-7.944h2.396l1.439,5.42l1.428-5.42h2.404v7.944h-1.488v-6.255l-1.577,6.255h-1.544
		l-1.57-6.255v6.255H220.9z"/>
</g>
<g>
	
		<image overflow="visible" opacity="0.5" enable-background="new    " width="265" height="265" xlink:href="C1E02C584D3CDBCD.png"  transform="matrix(0.9962 0 0 0.9962 30.5093 35.1406)">
	</image>
	<g>
		
			<linearGradient id="SVGID_1_" gradientUnits="userSpaceOnUse" x1="140.7939" y1="-399.8496" x2="322.756" y2="-581.8119" gradientTransform="matrix(1 0 0 -1 -70.0957 -324.4141)">
			<stop  offset="0.5862" style="stop-color:#E0DCDB"/>
			<stop  offset="0.6856" style="stop-color:#D7D3D6"/>
			<stop  offset="0.8471" style="stop-color:#BFBCC9"/>
			<stop  offset="1" style="stop-color:#A2A1BA"/>
		</linearGradient>
		<circle fill="none" stroke="url(#SVGID_1_)" stroke-width="18" stroke-miterlimit="10" cx="161.679" cy="166.416" r="119.667"/>
	</g>
</g>
</svg>
