<?xml version="1.0" encoding="utf-8"?>
<!-- Generator: Adobe Illustrator 22.1.0, SVG Export Plug-In . SVG Version: 6.00 Build 0)  -->
<svg version="1.1" id="Layer_1" xmlns="http://www.w3.org/2000/svg" xmlns:xlink="http://www.w3.org/1999/xlink" x="0px" y="0px"
	 viewBox="0 0 327 328" style="enable-background:new 0 0 327 328;" xml:space="preserve">
<style type="text/css">
	.st0{fill:#FF7F00;}
	.st1{fill:#BEBEC0;}
	.st2{fill:none;stroke:#BEBEC0;stroke-width:3;stroke-miterlimit:10;}
	.st3{fill:#BCBAB8;}
	.st4{fill:#B2B0AE;}
	.st5{fill:#CCCAC8;}
	.st6{fill:#CAC7C6;}
	.st7{fill:#CECCCA;}
	.st8{fill:none;stroke:#BEBEC0;stroke-width:18;stroke-miterlimit:10;}
</style>
<path class="st0" d="M162.5,17.8c82.5,0,148.8,66.9,148.8,149.4c0,82.5-66.3,149.3-148.8,149.3c-82.5,0-149.3-66.9-149.3-149.3
	C13.2,84.7,80,17.8,162.5,17.8z"/>
<g>
	<path class="st1" d="M228.1,34.9l-4.7,9.4c0,0,0.9,0.5,2.2,1.1c1.4,0.7,3.1,1.7,4.9,2.7c0.9,0.5,1.8,1,2.6,1.5
		c0.8,0.5,1.5,1,2.2,1.4c1.3,0.8,2.1,1.4,2.1,1.4l5.7-8.8c0,0-0.9-0.6-2.3-1.5c-0.7-0.4-1.5-1-2.3-1.5c-0.9-0.5-1.8-1-2.8-1.6
		c-1.9-1.1-3.8-2.2-5.2-2.9C229,35.4,228.1,34.9,228.1,34.9z"/>
	<path class="st1" d="M199,23.9l-2.7,10.2c0,0,1,0.3,2.4,0.7c1.4,0.4,3.4,0.9,5.3,1.6c1.9,0.7,3.8,1.3,5.2,1.8
		c1.4,0.6,2.3,0.9,2.3,0.9l3.8-9.8c0,0-1-0.4-2.5-1c-1.5-0.6-3.6-1.2-5.6-1.9c-2-0.7-4.1-1.2-5.7-1.7C200.1,24.2,199,23.9,199,23.9z
		"/>
	<path class="st1" d="M168.4,19.3l-0.5,10.5c0,0,0.3,0,0.7,0c0.4,0,1.1,0.1,1.8,0.1c1.5,0.1,3.5,0.2,5.5,0.4c2,0.3,4,0.5,5.5,0.7
		c0.8,0.1,1.4,0.2,1.8,0.3c0.4,0.1,0.7,0.1,0.7,0.1l1.7-10.4c0,0-0.3,0-0.7-0.1c-0.5-0.1-1.1-0.2-1.9-0.3c-1.6-0.2-3.8-0.5-5.9-0.8
		c-2.2-0.2-4.3-0.3-5.9-0.5c-0.8-0.1-1.5-0.1-2-0.1C168.7,19.3,168.4,19.3,168.4,19.3z"/>
	<path class="st1" d="M293.9,99l-9.3,4.9c0,0,0.5,0.9,1.2,2.2c0.3,0.7,0.8,1.4,1.2,2.3c0.4,0.9,0.8,1.8,1.2,2.7
		c0.4,0.9,0.8,1.8,1.2,2.7c0.4,0.9,0.7,1.7,1,2.4c0.6,1.4,0.9,2.3,0.9,2.3l9.8-3.8c0,0-0.4-1-1-2.5c-0.3-0.8-0.6-1.6-1-2.6
		c-0.4-0.9-0.9-1.9-1.3-2.9c-0.5-1-0.9-2-1.3-2.9c-0.4-0.9-0.9-1.8-1.3-2.5C294.4,100,293.9,99,293.9,99z"/>
	<path class="st1" d="M276.6,73.3l-8.1,6.7c0,0,0.6,0.8,1.6,2c0.5,0.6,1,1.3,1.6,2c0.6,0.7,1.2,1.5,1.8,2.4c1.2,1.6,2.4,3.3,3.2,4.5
		c0.8,1.3,1.4,2.1,1.4,2.1l8.8-5.8c0,0-0.6-0.9-1.5-2.3c-0.9-1.3-2.2-3.1-3.5-4.8c-0.6-0.9-1.3-1.7-1.9-2.5
		c-0.6-0.8-1.2-1.5-1.7-2.2C277.3,74.1,276.6,73.3,276.6,73.3z"/>
	<path class="st1" d="M254.4,51.7l-6.5,8.2c0,0,0.8,0.6,2,1.6c1.1,1,2.7,2.3,4.2,3.6c1.5,1.3,2.9,2.8,4.1,3.8c0.5,0.5,1,1,1.3,1.3
		c0.3,0.3,0.5,0.5,0.5,0.5l7.4-7.4c0,0-0.2-0.2-0.5-0.5c-0.3-0.3-0.8-0.8-1.4-1.3c-1.2-1.1-2.7-2.6-4.4-4.1
		c-1.6-1.4-3.3-2.8-4.5-3.9C255.3,52.3,254.4,51.7,254.4,51.7z"/>
	<path class="st1" d="M309.4,189.6L299,188c0,0,0,0.2-0.1,0.7c-0.1,0.4-0.2,1.1-0.3,1.8c-0.3,1.5-0.6,3.5-1,5.4
		c-0.5,2-0.9,3.9-1.3,5.4c-0.2,0.7-0.3,1.3-0.5,1.8c-0.1,0.4-0.2,0.7-0.2,0.7l10.1,2.8c0,0,0.1-0.3,0.2-0.7c0.1-0.5,0.3-1.1,0.5-1.9
		c0.4-1.6,0.9-3.7,1.4-5.8c0.4-2.1,0.8-4.3,1.1-5.9c0.1-0.8,0.3-1.5,0.3-1.9C309.4,189.9,309.4,189.6,309.4,189.6z"/>
	<path class="st1" d="M310.7,158.6l-10.5,0.7c0,0,0,0.3,0.1,0.7c0,0.4,0.1,1.1,0.1,1.8c0,1.5,0.1,3.5,0.1,5.5c0,2-0.1,4-0.1,5.5
		c0,0.8,0,1.4,0,1.8c0,0.4,0,0.7,0,0.7l10.5,0.6c0,0,0-0.3,0-0.7c0-0.5,0-1.1,0.1-2c0-1.6,0.1-3.8,0.1-6c-0.1-2.2-0.1-4.3-0.2-6
		c0-0.8-0.1-1.5-0.1-2C310.7,158.8,310.7,158.6,310.7,158.6z"/>
	<path class="st1" d="M305.5,128.1l-10.1,2.9c0,0,0.3,1,0.7,2.4c0.3,1.5,0.8,3.4,1.3,5.4c0.1,0.5,0.2,1,0.3,1.5
		c0.1,0.5,0.2,1,0.3,1.4c0.2,0.9,0.3,1.8,0.5,2.5c0.3,1.5,0.5,2.5,0.5,2.5l10.4-1.6c0,0-0.2-1.1-0.5-2.7c-0.1-0.8-0.3-1.7-0.5-2.7
		c-0.1-0.5-0.2-1-0.3-1.5c-0.1-0.5-0.2-1-0.4-1.6c-0.5-2.1-1-4.2-1.4-5.8C305.8,129.1,305.5,128.1,305.5,128.1z"/>
	<path class="st1" d="M268,271.6l-7.4-7.4c0,0-0.2,0.2-0.5,0.5c-0.3,0.3-0.8,0.8-1.3,1.3c-1.1,1-2.6,2.4-4,3.8
		c-1.5,1.3-3.1,2.6-4.2,3.6c-0.6,0.5-1.1,0.9-1.4,1.2c-0.4,0.3-0.5,0.4-0.5,0.4l6.5,8.2c0,0,0.2-0.2,0.6-0.5
		c0.4-0.3,0.9-0.7,1.5-1.2c1.2-1.1,2.9-2.5,4.5-3.9c1.6-1.5,3.2-3,4.3-4.1c0.6-0.6,1.1-1,1.4-1.4C267.8,271.8,268,271.6,268,271.6z"
		/>
	<path class="st1" d="M287.5,247.4l-8.8-5.7c0,0-0.6,0.8-1.4,2.1c-0.8,1.3-2,2.9-3.2,4.5c-1.1,1.7-2.4,3.2-3.4,4.4
		c-0.9,1.2-1.6,2-1.6,2l8.1,6.7c0,0,0.7-0.8,1.7-2.1c1-1.3,2.4-2.9,3.6-4.7c1.2-1.8,2.6-3.5,3.4-4.9
		C286.9,248.3,287.5,247.4,287.5,247.4z"/>
	<path class="st1" d="M301.5,219.8l-9.8-3.7c0,0-0.4,0.9-0.9,2.3s-1.3,3.3-2.2,5.1c-0.9,1.8-1.6,3.7-2.4,5c-0.7,1.3-1.2,2.2-1.2,2.2
		l9.3,4.9c0,0,0.5-1,1.3-2.4c0.8-1.4,1.6-3.4,2.5-5.4c0.9-2,1.7-4,2.3-5.5C301.1,220.8,301.5,219.8,301.5,219.8z"/>
	<path class="st1" d="M186.4,313.8l-1.7-10.4c0,0-1,0.2-2.5,0.4c-1.5,0.2-3.5,0.4-5.5,0.7c-2,0.3-4,0.3-5.5,0.5
		c-1.5,0.1-2.5,0.2-2.5,0.2l0.5,10.5c0,0,1.1-0.1,2.7-0.2c1.6-0.1,3.8-0.2,5.9-0.5c2.1-0.3,4.3-0.5,5.9-0.7
		C185.3,314,186.4,313.8,186.4,313.8z"/>
	<path class="st1" d="M216.3,305.5l-3.8-9.8c0,0-0.9,0.4-2.3,0.9c-1.4,0.6-3.3,1.1-5.2,1.8c-1,0.3-1.9,0.7-2.8,0.9
		c-0.9,0.3-1.8,0.5-2.5,0.7c-1.5,0.4-2.4,0.7-2.4,0.7l2.7,10.1c0,0,1-0.3,2.6-0.7c0.8-0.2,1.7-0.5,2.7-0.8c1-0.3,2-0.6,3-1
		c2-0.7,4.1-1.3,5.6-1.9C215.2,305.9,216.3,305.5,216.3,305.5z"/>
	<path class="st1" d="M243.7,291.3l-5.8-8.8c0,0-0.9,0.5-2.1,1.3c-0.6,0.4-1.4,0.9-2.2,1.4c-0.8,0.5-1.7,1-2.6,1.5
		c-1.8,1-3.5,2-4.9,2.7c-1.4,0.7-2.3,1.1-2.3,1.1l4.7,9.4c0,0,1-0.5,2.4-1.2c1.5-0.7,3.3-1.8,5.2-2.9c0.9-0.5,1.9-1,2.8-1.6
		c0.9-0.5,1.7-1,2.3-1.5C242.8,291.9,243.7,291.3,243.7,291.3z"/>
	<path class="st1" d="M155.2,315.8l0.4-10.5c0,0-0.3,0-0.7,0c-0.4,0-1.1,0-1.8-0.1c-1.5-0.1-3.5-0.3-5.5-0.4c-2-0.2-4-0.5-5.5-0.7
		c-0.7-0.1-1.4-0.2-1.8-0.2c-0.4-0.1-0.7-0.1-0.7-0.1l-1.6,10.4c0,0,0.3,0,0.7,0.1c0.5,0.1,1.1,0.1,1.9,0.3c1.6,0.2,3.8,0.5,5.9,0.7
		c2.2,0.2,4.3,0.3,5.9,0.5c0.8,0.1,1.5,0.1,2,0.1C154.9,315.8,155.2,315.8,155.2,315.8z"/>
	<path class="st1" d="M95.4,300.5l4.7-9.4c0,0-0.9-0.5-2.2-1.1c-0.7-0.3-1.5-0.7-2.3-1.2c-0.8-0.5-1.7-1-2.6-1.5
		c-1.7-1-3.5-2-4.8-2.8c-1.3-0.8-2.1-1.4-2.1-1.4l-5.7,8.8c0,0,0.9,0.6,2.3,1.5c1.3,0.9,3.2,2,5.1,3.1c0.9,0.5,1.9,1.1,2.8,1.6
		c0.9,0.5,1.7,0.9,2.5,1.3C94.5,300,95.4,300.5,95.4,300.5z"/>
	<path class="st1" d="M124.5,311.3l2.6-10.2c0,0-3.9-1-7.7-2.2c-1.9-0.6-3.8-1.3-5.2-1.8c-1.4-0.5-2.3-0.9-2.3-0.9L108,306
		c0,0,1,0.4,2.5,1c1.5,0.5,3.6,1.2,5.6,1.9C120.3,310.2,124.5,311.3,124.5,311.3z"/>
	<path class="st1" d="M29.8,236.2l9.3-4.9c0,0-0.5-0.9-1.1-2.2c-0.7-1.3-1.5-3.2-2.4-5c-0.4-0.9-0.8-1.8-1.2-2.7
		c-0.3-0.9-0.7-1.7-1-2.4c-0.6-1.4-0.9-2.3-0.9-2.3l-9.8,3.7c0,0,0.4,1,1,2.5c0.3,0.8,0.6,1.6,1,2.6c0.4,0.9,0.9,1.9,1.3,2.9
		c0.9,2,1.8,4,2.5,5.4C29.3,235.2,29.8,236.2,29.8,236.2z"/>
	<path class="st1" d="M47,262l8.1-6.7c0,0-0.2-0.2-0.4-0.5c-0.3-0.3-0.7-0.8-1.1-1.4c-0.5-0.6-1-1.3-1.6-2c-0.6-0.7-1.2-1.5-1.8-2.4
		c-1.2-1.6-2.3-3.3-3.2-4.5c-0.8-1.3-1.4-2.1-1.4-2.1l-8.8,5.7c0,0,0.6,0.9,1.5,2.3c0.9,1.3,2.2,3.1,3.4,4.9
		c0.6,0.9,1.3,1.7,1.9,2.5c0.6,0.8,1.2,1.5,1.7,2.2c0.5,0.6,0.9,1.2,1.2,1.5C46.8,261.8,47,262,47,262z"/>
	<path class="st1" d="M69.1,283.7l6.5-8.2c0,0-0.8-0.6-2-1.6c-1.1-1-2.7-2.3-4.2-3.6c-1.5-1.3-2.9-2.8-4-3.8c-0.5-0.5-1-1-1.3-1.3
		c-0.3-0.3-0.5-0.5-0.5-0.5l-7.4,7.4c0,0,0.2,0.2,0.5,0.5c0.3,0.3,0.8,0.8,1.4,1.4c1.2,1.1,2.7,2.7,4.4,4.1c1.6,1.4,3.3,2.8,4.5,3.9
		C68.2,283,69.1,283.7,69.1,283.7z"/>
	<path class="st1" d="M14.6,145.5l10.4,1.5c0,0,0-0.3,0.1-0.7c0.1-0.4,0.2-1.1,0.3-1.8c0.3-1.5,0.6-3.5,1-5.4c0.5-2,0.9-3.9,1.2-5.4
		c0.2-0.7,0.3-1.3,0.5-1.8c0.1-0.4,0.2-0.7,0.2-0.7l-10.1-2.7c0,0-0.1,0.3-0.2,0.7c-0.1,0.5-0.3,1.1-0.5,1.9
		c-0.4,1.6-0.9,3.7-1.3,5.8c-0.4,2.1-0.8,4.3-1.1,5.9c-0.1,0.8-0.3,1.5-0.3,1.9C14.6,145.3,14.6,145.5,14.6,145.5z"/>
	<path class="st1" d="M13.3,176.6l10.5-0.6c0,0,0-0.3-0.1-0.7c0-0.4-0.1-1.1-0.1-1.8c0-1.5-0.1-3.5-0.1-5.5c0-2,0.1-4,0.1-5.5
		c0-0.8,0-1.4,0-1.8c0-0.4,0-0.7,0-0.7l-10.5-0.6c0,0,0,0.3-0.1,0.7c0,0.5,0,1.2-0.1,2c0,1.6-0.1,3.8-0.1,6c0.1,2.2,0.1,4.3,0.1,6
		c0,0.8,0,1.5,0.1,2C13.2,176.3,13.3,176.6,13.3,176.6z"/>
	<path class="st1" d="M18.3,207.1l10.1-2.8c0,0-0.3-1-0.7-2.4c-0.3-1.5-0.8-3.4-1.2-5.4c-0.2-1-0.4-2-0.6-2.9
		c-0.2-0.9-0.3-1.8-0.5-2.5c-0.3-1.5-0.4-2.5-0.4-2.5l-10.4,1.6c0,0,0.2,1.1,0.5,2.7c0.1,0.8,0.3,1.7,0.5,2.7c0.2,1,0.4,2.1,0.6,3.1
		c0.5,2.1,1,4.2,1.3,5.8C18,206,18.3,207.1,18.3,207.1z"/>
	<path class="st1" d="M55.7,63.4l7.5,7.4c0,0,0.7-0.7,1.8-1.8c1.1-1,2.5-2.4,4-3.8c1.5-1.3,3-2.6,4.2-3.6c0.6-0.5,1.1-0.9,1.4-1.2
		c0.3-0.3,0.5-0.4,0.5-0.4l-6.6-8.2c0,0-0.2,0.2-0.6,0.5c-0.4,0.3-0.9,0.7-1.5,1.2c-1.2,1.1-2.9,2.5-4.5,3.9c-1.6,1.5-3.1,3-4.3,4.1
		C56.4,62.6,55.7,63.4,55.7,63.4z"/>
	<path class="st1" d="M36.3,87.6l8.8,5.7c0,0,0.5-0.8,1.4-2.1c0.8-1.3,2-2.9,3.2-4.5c1.1-1.7,2.4-3.2,3.3-4.4c0.9-1.2,1.6-2,1.6-2
		l-8.1-6.6c0,0-0.7,0.9-1.7,2.1c-1,1.3-2.4,3-3.6,4.7c-1.2,1.8-2.5,3.5-3.4,4.9C36.9,86.7,36.3,87.6,36.3,87.6z"/>
	<path class="st1" d="M22.4,115.3l9.8,3.7c0,0,0.4-0.9,0.9-2.3c0.3-0.7,0.6-1.5,0.9-2.4c0.3-0.9,0.8-1.8,1.2-2.7
		c0.8-1.8,1.6-3.7,2.3-5c0.7-1.3,1.1-2.2,1.1-2.2l-9.3-4.8c0,0-0.5,1-1.2,2.4c-0.8,1.4-1.6,3.4-2.5,5.4c-0.4,1-0.9,2-1.3,2.9
		c-0.4,0.9-0.7,1.8-1,2.6C22.8,114.3,22.4,115.3,22.4,115.3z"/>
	<path class="st1" d="M137.2,21.1l1.7,10.4c0,0,0.2,0,0.7-0.1c0.4-0.1,1.1-0.2,1.8-0.3c1.5-0.2,3.5-0.4,5.5-0.7c2-0.2,4-0.3,5.5-0.4
		c0.8-0.1,1.4-0.1,1.8-0.1c0.4,0,0.7,0,0.7,0l-0.5-10.5c0,0-0.3,0-0.7,0c-0.5,0-1.1,0.1-2,0.1c-1.6,0.1-3.8,0.3-5.9,0.5
		c-2.1,0.3-4.3,0.5-5.9,0.8c-0.8,0.1-1.5,0.2-1.9,0.3C137.5,21,137.2,21.1,137.2,21.1z"/>
	<path class="st1" d="M107.3,29.3l3.8,9.8c0,0,0.9-0.4,2.3-0.9c1.4-0.5,3.3-1.1,5.2-1.8c1.9-0.7,3.9-1.2,5.3-1.6
		c1.5-0.4,2.4-0.7,2.4-0.7l-2.7-10.2c0,0-1,0.3-2.6,0.7c-1.6,0.5-3.7,1-5.7,1.7c-2.1,0.7-4.1,1.4-5.6,1.9
		C108.3,28.9,107.3,29.3,107.3,29.3z"/>
	<path class="st1" d="M79.8,43.5l5.8,8.8c0,0,0.8-0.5,2.1-1.4c0.6-0.4,1.4-0.9,2.2-1.4c0.8-0.5,1.7-1,2.6-1.5c1.7-1,3.5-2,4.8-2.7
		c1.3-0.7,2.2-1.1,2.2-1.1l-4.7-9.4c0,0-1,0.5-2.4,1.2c-1.5,0.7-3.3,1.8-5.2,2.9c-0.9,0.5-1.9,1.1-2.8,1.6c-0.9,0.5-1.7,1.1-2.3,1.5
		C80.7,42.9,79.8,43.5,79.8,43.5z"/>
</g>
<path class="st2" d="M162.7,18.3c82.5,0,148.6,66.4,148.6,148.9c0,82.5-66.1,149.8-148.6,149.8c-82.5,0-149.3-66.9-149.3-149.3
	C13.3,85.2,80.2,18.3,162.7,18.3z"/>
<g>
	<g>
		<g>
			<g>
				<path class="st3" d="M156,155.6h42H156z"/>
			</g>
			<g>
				<polygon class="st4" points="198.3,102.6 201.3,99.6 201.3,128.2 198.3,125.2 				"/>
			</g>
			<g>
				<polygon class="st4" points="198.3,125.2 201.3,128.2 156,128.2 153,125.2 				"/>
			</g>
			<g>
				<polygon class="st4" points="153,125.2 156,128.2 156,155.6 153,158.6 				"/>
			</g>
			<g>
				<polygon class="st5" points="153,158.6 156,155.6 198,155.6 195,158.6 				"/>
			</g>
			<g>
				<polygon class="st4" points="195,158.6 198,155.6 198,184.6 195,181.6 				"/>
			</g>
			<g>
				<polygon class="st6" points="198.3,102.6 198.3,125.2 153,125.2 153,158.6 195,158.6 195,181.6 153,181.6 153,233.9 123,233.9 
					123,102.6 				"/>
			</g>
			<g>
				<polygon class="st4" points="153,181.6 156,184.6 156,236.9 153,233.9 				"/>
			</g>
			<g>
				<polygon class="st4" points="153,233.9 156,236.9 120,236.9 123,233.9 				"/>
			</g>
			<g>
				<polygon class="st7" points="123,233.9 120,236.9 120,99.6 123,102.6 				"/>
			</g>
			<g>
				<polygon class="st5" points="123,102.6 120,99.6 201.3,99.6 198.3,102.6 				"/>
			</g>
			<g>
				<polygon class="st4" points="195,181.6 198,184.6 156,184.6 153,181.6 				"/>
			</g>
		</g>
	</g>
</g>
<g>
	<g>
		<circle class="st8" cx="161.7" cy="166.4" r="119.7"/>
	</g>
</g>
</svg>
