<svg xmlns="http://www.w3.org/2000/svg" id="Layer_1" viewBox="0 0 327 328"><style>.st1{fill:#bebec0}.st4{fill:#b2b0ae}.st5{fill:#cccac8}</style><path fill="#ff7f00" d="M162.5 17.8c82.5 0 148.8 66.9 148.8 149.4S245 316.5 162.5 316.5c-82.5 0-149.3-66.9-149.3-149.3C13.2 84.7 80 17.8 162.5 17.8z"/><path d="M228.1 34.9l-4.7 9.4s.9.5 2.2 1.1c1.4.7 3.1 1.7 4.9 2.7.9.5 1.8 1 2.6 1.5s1.5 1 2.2 1.4c1.3.8 2.1 1.4 2.1 1.4l5.7-8.8s-.9-.6-2.3-1.5c-.7-.4-1.5-1-2.3-1.5-.9-.5-1.8-1-2.8-1.6-1.9-1.1-3.8-2.2-5.2-2.9-1.5-.7-2.4-1.2-2.4-1.2zM199 23.9l-2.7 10.2s1 .3 2.4.7c1.4.4 3.4.9 5.3 1.6 1.9.7 3.8 1.3 5.2 1.8 1.4.6 2.3.9 2.3.9l3.8-9.8-2.5-1c-1.5-.6-3.6-1.2-5.6-1.9-2-.7-4.1-1.2-5.7-1.7-1.4-.5-2.5-.8-2.5-.8zM168.4 19.3l-.5 10.5h.7c.4 0 1.1.1 1.8.1 1.5.1 3.5.2 5.5.4 2 .3 4 .5 5.5.7.8.1 1.4.2 1.8.3.4.1.7.1.7.1l1.7-10.4s-.3 0-.7-.1c-.5-.1-1.1-.2-1.9-.3-1.6-.2-3.8-.5-5.9-.8-2.2-.2-4.3-.3-5.9-.5-.8-.1-1.5-.1-2-.1-.5.1-.8.1-.8.1zM293.9 99l-9.3 4.9s.5.9 1.2 2.2c.3.7.8 1.4 1.2 2.3l1.2 2.7 1.2 2.7c.4.9.7 1.7 1 2.4.6 1.4.9 2.3.9 2.3l9.8-3.8-1-2.5c-.3-.8-.6-1.6-1-2.6-.4-.9-.9-1.9-1.3-2.9-.5-1-.9-2-1.3-2.9-.4-.9-.9-1.8-1.3-2.5-.8-1.3-1.3-2.3-1.3-2.3zM276.6 73.3l-8.1 6.7s.6.8 1.6 2c.5.6 1 1.3 1.6 2 .6.7 1.2 1.5 1.8 2.4 1.2 1.6 2.4 3.3 3.2 4.5.8 1.3 1.4 2.1 1.4 2.1l8.8-5.8s-.6-.9-1.5-2.3c-.9-1.3-2.2-3.1-3.5-4.8-.6-.9-1.3-1.7-1.9-2.5-.6-.8-1.2-1.5-1.7-2.2-1-1.3-1.7-2.1-1.7-2.1zM254.4 51.7l-6.5 8.2s.8.6 2 1.6c1.1 1 2.7 2.3 4.2 3.6 1.5 1.3 2.9 2.8 4.1 3.8l1.3 1.3.5.5 7.4-7.4-.5-.5c-.3-.3-.8-.8-1.4-1.3-1.2-1.1-2.7-2.6-4.4-4.1-1.6-1.4-3.3-2.8-4.5-3.9-1.3-1.2-2.2-1.8-2.2-1.8zM309.4 189.6L299 188s0 .2-.1.7c-.1.4-.2 1.1-.3 1.8-.3 1.5-.6 3.5-1 5.4-.5 2-.9 3.9-1.3 5.4-.2.7-.3 1.3-.5 1.8-.1.4-.2.7-.2.7l10.1 2.8s.1-.3.2-.7c.1-.5.3-1.1.5-1.9.4-1.6.9-3.7 1.4-5.8.4-2.1.8-4.3 1.1-5.9.1-.8.3-1.5.3-1.9.2-.5.2-.8.2-.8zM310.7 158.6l-10.5.7s0 .3.1.7c0 .4.1 1.1.1 1.8 0 1.5.1 3.5.1 5.5s-.1 4-.1 5.5v2.5l10.5.6v-.7c0-.5 0-1.1.1-2 0-1.6.1-3.8.1-6-.1-2.2-.1-4.3-.2-6 0-.8-.1-1.5-.1-2-.1-.4-.1-.6-.1-.6zM305.5 128.1l-10.1 2.9s.3 1 .7 2.4c.3 1.5.8 3.4 1.3 5.4l.3 1.5c.1.5.2 1 .3 1.4.2.9.3 1.8.5 2.5l.5 2.5 10.4-1.6s-.2-1.1-.5-2.7c-.1-.8-.3-1.7-.5-2.7l-.3-1.5c-.1-.5-.2-1-.4-1.6-.5-2.1-1-4.2-1.4-5.8-.5-1.7-.8-2.7-.8-2.7zM268 271.6l-7.4-7.4-.5.5-1.3 1.3c-1.1 1-2.6 2.4-4 3.8-1.5 1.3-3.1 2.6-4.2 3.6-.6.5-1.1.9-1.4 1.2-.4.3-.5.4-.5.4l6.5 8.2s.2-.2.6-.5c.4-.3.9-.7 1.5-1.2 1.2-1.1 2.9-2.5 4.5-3.9 1.6-1.5 3.2-3 4.3-4.1.6-.6 1.1-1 1.4-1.4l.5-.5zM287.5 247.4l-8.8-5.7s-.6.8-1.4 2.1c-.8 1.3-2 2.9-3.2 4.5-1.1 1.7-2.4 3.2-3.4 4.4-.9 1.2-1.6 2-1.6 2l8.1 6.7s.7-.8 1.7-2.1 2.4-2.9 3.6-4.7c1.2-1.8 2.6-3.5 3.4-4.9 1-1.4 1.6-2.3 1.6-2.3zM301.5 219.8l-9.8-3.7s-.4.9-.9 2.3-1.3 3.3-2.2 5.1c-.9 1.8-1.6 3.7-2.4 5-.7 1.3-1.2 2.2-1.2 2.2l9.3 4.9s.5-1 1.3-2.4 1.6-3.4 2.5-5.4c.9-2 1.7-4 2.3-5.5.7-1.5 1.1-2.5 1.1-2.5zM186.4 313.8l-1.7-10.4s-1 .2-2.5.4-3.5.4-5.5.7c-2 .3-4 .3-5.5.5-1.5.1-2.5.2-2.5.2l.5 10.5s1.1-.1 2.7-.2 3.8-.2 5.9-.5c2.1-.3 4.3-.5 5.9-.7 1.6-.3 2.7-.5 2.7-.5zM216.3 305.5l-3.8-9.8s-.9.4-2.3.9c-1.4.6-3.3 1.1-5.2 1.8-1 .3-1.9.7-2.8.9-.9.3-1.8.5-2.5.7-1.5.4-2.4.7-2.4.7l2.7 10.1s1-.3 2.6-.7c.8-.2 1.7-.5 2.7-.8 1-.3 2-.6 3-1 2-.7 4.1-1.3 5.6-1.9 1.3-.5 2.4-.9 2.4-.9zM243.7 291.3l-5.8-8.8s-.9.5-2.1 1.3c-.6.4-1.4.9-2.2 1.4-.8.5-1.7 1-2.6 1.5-1.8 1-3.5 2-4.9 2.7-1.4.7-2.3 1.1-2.3 1.1l4.7 9.4 2.4-1.2c1.5-.7 3.3-1.8 5.2-2.9.9-.5 1.9-1 2.8-1.6.9-.5 1.7-1 2.3-1.5 1.6-.8 2.5-1.4 2.5-1.4zM155.2 315.8l.4-10.5h-.7c-.4 0-1.1 0-1.8-.1-1.5-.1-3.5-.3-5.5-.4-2-.2-4-.5-5.5-.7-.7-.1-1.4-.2-1.8-.2-.4-.1-.7-.1-.7-.1l-1.6 10.4s.3 0 .7.1c.5.1 1.1.1 1.9.3 1.6.2 3.8.5 5.9.7 2.2.2 4.3.3 5.9.5.8.1 1.5.1 2 .1.5-.1.8-.1.8-.1zM95.4 300.5l4.7-9.4s-.9-.5-2.2-1.1c-.7-.3-1.5-.7-2.3-1.2-.8-.5-1.7-1-2.6-1.5-1.7-1-3.5-2-4.8-2.8-1.3-.8-2.1-1.4-2.1-1.4l-5.7 8.8s.9.6 2.3 1.5c1.3.9 3.2 2 5.1 3.1.9.5 1.9 1.1 2.8 1.6.9.5 1.7.9 2.5 1.3 1.4.6 2.3 1.1 2.3 1.1zM124.5 311.3l2.6-10.2s-3.9-1-7.7-2.2c-1.9-.6-3.8-1.3-5.2-1.8-1.4-.5-2.3-.9-2.3-.9L108 306l2.5 1c1.5.5 3.6 1.2 5.6 1.9 4.2 1.3 8.4 2.4 8.4 2.4zM29.8 236.2l9.3-4.9s-.5-.9-1.1-2.2c-.7-1.3-1.5-3.2-2.4-5l-1.2-2.7c-.3-.9-.7-1.7-1-2.4-.6-1.4-.9-2.3-.9-2.3l-9.8 3.7 1 2.5c.3.8.6 1.6 1 2.6.4.9.9 1.9 1.3 2.9.9 2 1.8 4 2.5 5.4.8 1.4 1.3 2.4 1.3 2.4zM47 262l8.1-6.7s-.2-.2-.4-.5c-.3-.3-.7-.8-1.1-1.4-.5-.6-1-1.3-1.6-2-.6-.7-1.2-1.5-1.8-2.4-1.2-1.6-2.3-3.3-3.2-4.5-.8-1.3-1.4-2.1-1.4-2.1l-8.8 5.7s.6.9 1.5 2.3c.9 1.3 2.2 3.1 3.4 4.9.6.9 1.3 1.7 1.9 2.5.6.8 1.2 1.5 1.7 2.2.5.6.9 1.2 1.2 1.5l.5.5zM69.1 283.7l6.5-8.2s-.8-.6-2-1.6c-1.1-1-2.7-2.3-4.2-3.6-1.5-1.3-2.9-2.8-4-3.8l-1.3-1.3-.5-.5-7.4 7.4.5.5 1.4 1.4c1.2 1.1 2.7 2.7 4.4 4.1 1.6 1.4 3.3 2.8 4.5 3.9 1.2 1 2.1 1.7 2.1 1.7zM14.6 145.5L25 147s0-.3.1-.7c.1-.4.2-1.1.3-1.8.3-1.5.6-3.5 1-5.4.5-2 .9-3.9 1.2-5.4.2-.7.3-1.3.5-1.8.1-.4.2-.7.2-.7l-10.1-2.7s-.1.3-.2.7c-.1.5-.3 1.1-.5 1.9-.4 1.6-.9 3.7-1.3 5.8-.4 2.1-.8 4.3-1.1 5.9-.1.8-.3 1.5-.3 1.9-.2.6-.2.8-.2.8zM13.3 176.6l10.5-.6s0-.3-.1-.7c0-.4-.1-1.1-.1-1.8 0-1.5-.1-3.5-.1-5.5s.1-4 .1-5.5v-1.8-.7l-10.5-.6s0 .3-.1.7c0 .5 0 1.2-.1 2 0 1.6-.1 3.8-.1 6 .1 2.2.1 4.3.1 6 0 .8 0 1.5.1 2 .2.2.3.5.3.5zM18.3 207.1l10.1-2.8s-.3-1-.7-2.4c-.3-1.5-.8-3.4-1.2-5.4-.2-1-.4-2-.6-2.9-.2-.9-.3-1.8-.5-2.5-.3-1.5-.4-2.5-.4-2.5l-10.4 1.6s.2 1.1.5 2.7c.1.8.3 1.7.5 2.7.2 1 .4 2.1.6 3.1.5 2.1 1 4.2 1.3 5.8.5 1.5.8 2.6.8 2.6zM55.7 63.4l7.5 7.4L65 69c1.1-1 2.5-2.4 4-3.8 1.5-1.3 3-2.6 4.2-3.6.6-.5 1.1-.9 1.4-1.2.3-.3.5-.4.5-.4l-6.6-8.2s-.2.2-.6.5c-.4.3-.9.7-1.5 1.2-1.2 1.1-2.9 2.5-4.5 3.9-1.6 1.5-3.1 3-4.3 4.1-1.2 1.1-1.9 1.9-1.9 1.9zM36.3 87.6l8.8 5.7s.5-.8 1.4-2.1c.8-1.3 2-2.9 3.2-4.5 1.1-1.7 2.4-3.2 3.3-4.4.9-1.2 1.6-2 1.6-2l-8.1-6.6s-.7.9-1.7 2.1c-1 1.3-2.4 3-3.6 4.7-1.2 1.8-2.5 3.5-3.4 4.9-.9 1.3-1.5 2.2-1.5 2.2zM22.4 115.3l9.8 3.7s.4-.9.9-2.3c.3-.7.6-1.5.9-2.4.3-.9.8-1.8 1.2-2.7.8-1.8 1.6-3.7 2.3-5 .7-1.3 1.1-2.2 1.1-2.2l-9.3-4.8-1.2 2.4c-.8 1.4-1.6 3.4-2.5 5.4-.4 1-.9 2-1.3 2.9-.4.9-.7 1.8-1 2.6-.5 1.4-.9 2.4-.9 2.4zM137.2 21.1l1.7 10.4s.2 0 .7-.1c.4-.1 1.1-.2 1.8-.3 1.5-.2 3.5-.4 5.5-.7 2-.2 4-.3 5.5-.4.8-.1 1.4-.1 1.8-.1h.7l-.5-10.5h-.7c-.5 0-1.1.1-2 .1-1.6.1-3.8.3-5.9.5-2.1.3-4.3.5-5.9.8-.8.1-1.5.2-1.9.3-.5-.1-.8 0-.8 0zM107.3 29.3l3.8 9.8s.9-.4 2.3-.9 3.3-1.1 5.2-1.8c1.9-.7 3.9-1.2 5.3-1.6 1.5-.4 2.4-.7 2.4-.7l-2.7-10.2s-1 .3-2.6.7c-1.6.5-3.7 1-5.7 1.7-2.1.7-4.1 1.4-5.6 1.9-1.4.7-2.4 1.1-2.4 1.1zM79.8 43.5l5.8 8.8s.8-.5 2.1-1.4c.6-.4 1.4-.9 2.2-1.4.8-.5 1.7-1 2.6-1.5 1.7-1 3.5-2 4.8-2.7 1.3-.7 2.2-1.1 2.2-1.1l-4.7-9.4-2.4 1.2c-1.5.7-3.3 1.8-5.2 2.9-.9.5-1.9 1.1-2.8 1.6-.9.5-1.7 1.1-2.3 1.5-1.4.9-2.3 1.5-2.3 1.5z" class="st1"/><path fill="none" stroke="#bebec0" stroke-miterlimit="10" stroke-width="3" d="M162.7 18.3c82.5 0 148.6 66.4 148.6 148.9S245.2 317 162.7 317 13.4 250.1 13.4 167.7C13.3 85.2 80.2 18.3 162.7 18.3z"/><g><path fill="#bcbab8" d="M156 155.6h42-42z"/><path d="M198.3 102.6l3-3v28.6l-3-3zM198.3 125.2l3 3H156l-3-3zM153 125.2l3 3v27.4l-3 3z" class="st4"/><path d="M153 158.6l3-3h42l-3 3z" class="st5"/><path d="M195 158.6l3-3v29l-3-3z" class="st4"/><path fill="#cac7c6" d="M198.3 102.6v22.6H153v33.4h42v23h-42v52.3h-30V102.6z"/><path d="M153 181.6l3 3v52.3l-3-3zM153 233.9l3 3h-36l3-3z" class="st4"/><path fill="#ceccca" d="M123 233.9l-3 3V99.6l3 3z"/><path d="M123 102.6l-3-3h81.3l-3 3z" class="st5"/><path d="M195 181.6l3 3h-42l-3-3z" class="st4"/></g><g><circle cx="161.7" cy="166.4" r="119.7" fill="none" stroke="#bebec0" stroke-miterlimit="10" stroke-width="18"/></g></svg>