<?xml version="1.0" encoding="utf-8"?>
<!-- Generator: Adobe Illustrator 22.1.0, SVG Export Plug-In . SVG Version: 6.00 Build 0)  -->
<svg version="1.0" id="Livello_1" xmlns="http://www.w3.org/2000/svg" xmlns:xlink="http://www.w3.org/1999/xlink" x="0px" y="0px"
	 viewBox="0 0 200 200" style="enable-background:new 0 0 200 200;" xml:space="preserve">
<style type="text/css">
	.st0{fill:#E02C49;}
</style>
<path class="st0" d="M80.6,149.9c1.9,5,7.4,7.5,12.4,5.6c5-1.9,7.5-7.4,5.6-12.4c0-0.1-0.1-0.3-0.2-0.4l-15.4-38.5
	c-1.8-5-7.3-7.6-12.3-5.8c-5,1.8-7.6,7.3-5.8,12.3c0.1,0.2,0.2,0.5,0.3,0.7L80.6,149.9z"/>
<path class="st0" d="M135.5,134.9c-0.6,2.6-1.6,5.5-2.6,8.5c-1.6,4.5-3.6,9.3-5.7,13.7s-4.2,8.8-6.1,12.5l-0.1,0.2l-0.1,0.3
	c-0.2,0.6-0.6,1.1-0.9,1.5c-0.3,0.4-0.7,0.7-1.1,1.1c-0.8,0.7-1.7,1.2-2.7,1.6c-0.8,0.3-1.6,0.6-2.5,0.8c-1.1,0.3-2.3,0.5-3.4,0.6
	c-1,0.1-1.6,0.1-1.8,0.1h-0.1l-38.1-0.2c-5.3,0-9.6,4.2-9.7,9.6c0,5.3,4.2,9.6,9.6,9.7l0,0l37.9,0.2h0.3c1.5,0,3.1-0.1,4.6-0.3
	c1.9-0.2,3.8-0.6,5.7-1.1c1.7-0.5,3.4-1.1,5.1-1.8c1.4-0.6,2.7-1.3,4-2.1c2.2-1.3,4.1-2.9,5.9-4.8c0.9-1,1.8-2.1,2.6-3.3
	c0.8-1.1,1.4-2.3,2-3.5c1.7-3.3,3.6-7.2,5.5-11.3c1.4-3.2,2.9-6.4,4.3-9.8c2.1-5,3.9-10.1,5.4-15.2c0.7-2.5,1.3-5,1.7-7.5
	c0.4-2.4,0.7-4.9,0.7-7.4c0-1.2-0.1-2.4-0.2-3.5c-0.2-1.9-0.7-3.7-1.3-5.4c-0.4-0.9-0.8-1.9-1.3-2.7c-0.5-0.9-1.2-1.8-1.9-2.6
	c-1.2-1.4-2.6-2.6-4.1-3.7c-2.5-1.8-5.2-3.2-8-4.3c-2.1-0.7-4.2-1.3-6.3-1.8c-3.1-0.7-6.2-1.2-9.3-1.5c-3-0.3-5.9-0.4-8.6-0.4
	c-4.1,0-7.7,0.2-10.4,0.5c-2.6,0.2-4.2,0.5-4.4,0.5c-5.3,0.8-8.9,5.7-8.1,10.9c0.8,5.3,5.7,8.9,10.9,8.1l0,0c0.1,0,1.5-0.2,3.6-0.4
	c2.1-0.2,5.1-0.4,8.5-0.4c2.3,0,4.7,0.1,7,0.3c1.7,0.2,3.4,0.4,5.1,0.7c1.2,0.2,2.3,0.5,3.5,0.8c1.4,0.4,2.8,1,4.1,1.7
	c0.5,0.3,0.9,0.6,1.4,0.9c0.2,0.2,0.5,0.4,0.7,0.6c0,0.1,0,0.2,0.1,0.3c0.1,0.5,0.1,1,0.1,1.5c0,1.2-0.1,2.4-0.3,3.6
	C136.2,132,135.9,133.4,135.5,134.9z"/>
<path class="st0" d="M68.6,155.2c4.9-2.1,7.1-7.8,5-12.6c0,0,0,0,0,0l-11.2-26.1c-2.2-4.8-7.9-7-12.7-4.8c-4.7,2.1-6.9,7.6-4.9,12.4
	L56,150.2C58.1,155,63.8,157.3,68.6,155.2z"/>
<path class="st0" d="M104.1,97.4c5.1-1.5,8-6.8,6.5-11.9c0,0,0,0,0,0L89.2,12.2C87.8,7,82.5,4,77.4,5.3c-5.1,1.4-8.2,6.6-6.8,11.7
	c0,0.2,0.1,0.3,0.1,0.5l21.5,73.3C93.7,96,99,98.9,104.1,97.4C104.1,97.4,104.1,97.4,104.1,97.4z"/>
<path class="st0" d="M121.2,97.4c5.1,1.5,10.4-1.5,11.9-6.6l19.2-66.4c1.7-5-1-10.5-6.1-12.2c-5-1.7-10.5,1-12.2,6.1
	c-0.1,0.3-0.2,0.5-0.2,0.8l-19.2,66.4C113.2,90.6,116.1,95.9,121.2,97.4z"/>
</svg>
