<?xml version="1.0" encoding="utf-8"?>
<!-- Generator: Adobe Illustrator 22.1.0, SVG Export Plug-In . SVG Version: 6.00 Build 0)  -->
<svg version="1.1" id="Livello_1" xmlns="http://www.w3.org/2000/svg" xmlns:xlink="http://www.w3.org/1999/xlink" x="0px" y="0px"
	 viewBox="0 0 200 200" style="enable-background:new 0 0 200 200;" xml:space="preserve">
<style type="text/css">
	.st0{fill:#6A90CA;}
</style>
<g transform="translate(0.000000,1539.000000) scale(0.100000,-0.100000)">
	<path class="st0" d="M942.3,15371.4c-2.8-0.3-13.7-1-24.3-1.8c-146-10.7-295.3-58.4-424.3-135.5c-71.7-42.8-130.9-89.1-191.4-149.6
		c-66.1-66.1-118.6-135.5-164.5-217.4c-61-108.9-102.6-238.5-116.5-362.3c-5.2-47.2-5.9-59.2-5.9-116.3c0.1-69,3.1-105.5,13.6-166.6
		c2-12.1,3.7-22.4,3.7-22.6c0-0.4,39.9-0.6,88.7-0.6c82.7,0,88.8,0.1,91.3,2.3c1.3,1.2,72.7,124.1,158.8,273.2
		c85.9,149.1,157.1,272,158.3,273.3c1.8,2,18.4,2.2,315.5,2.2c308.7,0,313.6,0,315-2.4c0.6-1.4,1.3-3.3,1.3-4.3
		c0-2.8-89.2-157-92.3-159.7c-2.4-2.2-14.8-2.3-221-2.3H629.8l-3.1-4.1c-2.8-3.8-205.9-355.1-211.1-365.1c-2.3-4.5-1.9-7.9,1.3-11.1
		c1.8-1.7,26.6-1.9,211.9-1.9c201.8,0,210.2-0.1,212.1-2.3c1.3-1.3,2.2-3.3,2.2-4.6c0-2.2-84.8-150.2-90.4-157.6l-3.1-4.2H416.1
		c-183.4,0-333.5-0.3-333.5-0.5c0-0.4,4.3-10.9,9.7-23.3c93.7-220.1,263.2-397.9,478-501.7c107.9-52.2,218.7-82.3,344.5-94.1
		c30-2.8,129.9-3.2,158.5-0.6c136.4,12.1,249.8,43.7,365.6,101.8c265,132.8,457.9,381.8,519.5,670.6
		c15.2,71.1,21.6,132.6,21.6,207.7c0,48.6-2,81.6-7.4,124.6c-2.9,23.1-8.7,61.2-10.4,66.5c-8,0-6,0-90.1,0h-89.4l-3.1-4.7
		c-1.7-2.7-72.9-125.7-158-273.3c-85.3-147.6-155.8-269.5-157-270.7c-1.8-2-18.2-2.2-315.2-1.9l-313.2,0.4l-1.9,3.3
		c-1.8,3.2-0.6,5.4,43.5,81.8c24.9,43.1,46.3,79.5,47.6,80.7c2,2.2,13.6,2.3,220.6,2.3h218.6l3.1,4.2
		c2.8,3.7,205.9,355.1,211.1,364.8c2.7,5.4,2.6,7.5-0.5,10.6c-2.6,2.6-4.2,2.6-212.2,2.6h-209.6l-2.7,2.7c-1.5,1.5-2.4,3.7-2,5.1
		c0.8,2.8,88.7,155.6,91.4,158.8c1.8,2,19.4,2.2,335.4,2.2c187.9,0,333.4,0.5,333.4,1.2c0,0.5-2.8,7.9-6.3,16.2
		c-36.7,89.2-89.6,176.4-152.8,252.1c-36.7,44.1-81.2,88.6-125.4,125.5c-160.2,134-355.9,212.1-566.7,226.3
		C1043.4,15372.1,955.7,15372.4,942.3,15371.4z"/>
</g>
</svg>
