<svg xmlns="http://www.w3.org/2000/svg" id="Livello_1" x="0" y="0" version="1.1" viewBox="0 0 200 200" xml:space="preserve"><style>.st1{fill:#e61b6c}</style><circle cx="100" cy="100" r="94" fill="#fff"/><path d="M100 195c-52.3-.8-95-41.3-95-95.3C5 47 47 5 100 5c52.4 0 95.1 41.3 95 95.1-.1 52.6-41.7 94-95 94.9zm.2-187.4C50 7.6 7.7 47.5 7.6 99.8c0 51.5 41 92.4 92.3 92.4 51.5 0 92.2-40.9 92.4-92.3.3-50.8-41.4-92.3-92.1-92.3z" class="st1"/><path d="M27.8 131c4.3 1.9 8.6 3.8 12.8 5.7 12.4 5.7 25.2 6.8 38.3 2.9 9.7-2.9 15.4-11.4 13.6-20.3-.7-3.4-2.4-5.8-5.6-6.8-3.8-1.1-7.7-1.9-11.5-2.9-1-.3-2.3-1.1-2.5-2-1.1-3.6-1.8-7.2-2.7-11.2 4.1-.6 8-.8 11.7-1.6 6.3-1.4 8.9-6.2 7-12.4-2.3-7.5-9.9-11.8-18.2-9.8-7.5 1.8-14.8 4.5-22.6 6.9-2.4-3.3-4.9-6.8-7.4-10.2 12.6-15.6 41.5-15.5 53.6 0 4.9 6.3 5.2 13.4 2.3 20.5-1.6 3.9-3.8 7.5-6 11.8 3.3 2.8 6.2 4.8 10.3 8.4 2-5 3.8-8.3 5.9-13.1 4.2-10.7 10.6-19.2 22.2-22.4 12-3.3 25.1 1.3 32 11.6 7.3 10.8 9.8 22.5 4.9 35.1-4.4 11.3-17.8 18-29.4 14.9-9.1-2.5-13.8-8.4-14.4-18.8 1.8 1.2 3.3 2.2 4.8 3 6.3 3.7 12.8 6.1 20.3 4.5 7.8-1.7 13.6-8.6 13.6-16.6 0-9.7-6.5-19-15.1-21.5-9.1-2.6-18.2 1-23.8 9.7-2.2 3.3-3.8 6-6.2 9.2-2.3 3.2-4.9 6.4-7.9 10.4-2.9 3.6-4.1 7-4.1 9.5 0 11.6-5.8 20.4-16 26.4-11.1 6.5-23 7.8-35.4 3.9-8.4-2.6-16.1-6.5-21.2-13.8-2.1-3-3.2-6.7-4.7-10.1.7-.3 1.1-.6 1.4-.9z"/><path d="M134.4 48.8c2.8 3.9 5.5 7.5 8 11.1-15.6 13.4-49.6 7.7-58.6-10.6 17.4 10.3 33.9 9.8 50.6-.5z"/><path d="M105.9 29.8c3 3.2 5.4 5.8 8.2 8.8-2.7 3-5.4 5.9-8.2 8.8-2.9-2.6-5.5-6.1-8.5-8.8 2.7-3.3 5.5-5.3 8.5-8.8z" class="st1"/></svg>