<svg xmlns="http://www.w3.org/2000/svg" viewBox="0 0 200 200"><linearGradient id="a" x1="76.1577" x2="143.7275" y1="141.3439" y2="22.0025" gradientUnits="userSpaceOnUse"><stop offset="0" stop-color="#fcda14"/><stop offset=".3063" stop-color="#ed6c49"/><stop offset=".4893" stop-color="#e83c6e"/><stop offset=".928" stop-color="#a6539b"/></linearGradient><path fill="url(#a)" d="M192.3 103.9l-44.1 76.4c-1 1.8-3 2.9-5.1 2.9h-18.7l28.7-49.9c1.2-2.1 1.2-4.6 0-6.7l-32.8-56.5c-.8-1.3-2.2-2.2-3.8-2.2H50c-1.9 0-3.6 1-4.6 2.6L15.6 121l-9.9-17.1c-1-1.8-1-4 0-5.9l44.1-76.4c1-1.8 3-2.9 5.1-2.9h88.2c2.1 0 4 1.1 5.1 2.9L192.3 98c1.1 1.9 1.1 4.1 0 5.9z"/><linearGradient id="b" x1="67.2741" x2="125.5693" y1="156.6658" y2="53.8469" gradientUnits="userSpaceOnUse"><stop offset="0" stop-color="#fcda14"/><stop offset=".4962" stop-color="#ed6c49"/><stop offset=".6937" stop-color="#e83c6e"/></linearGradient><path fill="url(#b)" d="M94 183.3h14.3c2.1 0 4-1.1 5.1-2.9l26.6-46.1c1-1.8 1-4 0-5.9l-26.6-46.1c-1.1-1.8-3-2.9-5.1-2.9H55c-2.1 0-4 1.1-5.1 2.9l-26.6 46.1c-1.1 1.8-1.1 4 0 5.9l7.4 12.9 14.5-25.6c1-1.8 3-2.9 5.1-2.9h35.2c2.1 0 4 1.1 5.1 2.9l17.6 30.5c1 1.8 1 4 0 5.9L94 183.3z"/><g><linearGradient id="c" x1="60.5393" x2="89.2858" y1="168.8084" y2="115.1974" gradientUnits="userSpaceOnUse"><stop offset="0" stop-color="#fcda14"/><stop offset=".6937" stop-color="#f39124"/></linearGradient><path fill="url(#c)" d="M79.6 129H55c-2.1 0-4 1.1-5.1 2.9l-12.3 21.3c-1 1.8-1 4 0 5.9L50 180.3c1 1.8 3 2.9 5.1 2.9h24.6c2.1 0 4-1.1 5.1-2.9L97 159.1c1-1.8 1-4 0-5.9l-12.3-21.3c-1.1-1.8-3-2.9-5.1-2.9z"/></g></svg>