<svg xmlns="http://www.w3.org/2000/svg" viewBox="0 0 200 200"><path fill="#241d53" d="M60.9 29.2c15-.7 21.8 12.7 25.3 25.2 1.5 5.5 4.5 13.2 3.9 18.6-.5 4.8-5.5 8.1-6.3 12.9-1 6.3 2.3 16.7 4.6 23.3 1.9 5.5 7.8 11.5 11.9 15.6 1.5 1.6 5.7 4.3 7.7 5.6.6 1.3 1.7 3.3 3.8 6.7 2.2 3.5 6.7 10.1 8.8 16.5 4.2 12.6 3 26.4-.1 39.1-1.9-15.3-11.3-27.8-23.1-37.2-10.8-8.6-23.7-13.5-33.6-23.3C52.6 121 47 102.4 50.5 86.7 53.7 72.5 61 63.3 48.4 51c-3.1-3.1-11.8-4.1-18.4-5.2-8.3-1.4-16.7-2.7-25-4.1 10.8-.1 21.7-.1 32.5-.2 7 0 5.8.7 9.8-4.6 3.2-4.4 8.4-6.9 13.6-7.7zm29.6 86.1v.5-.5z" opacity=".9765"/><path fill="#6fced0" d="M143.6 7.3c2.1-.6 2.8 24.8 2.8 25.9-.2 8.2-2 16.2-3.5 24.2l40.7-10.6c-6.7 18.4-21.2 31.7-35.7 43.9l47.1 14.1c-13 8.6-26.4 13.3-41.5 17.2 6.5 6.6 12.9 13.2 19.4 19.8.8.9 6.7 5.5 6.4 6.7-.4 1.9-9.5 1.1-11.1 1.1-15.3-.3-30.9-4.4-44.8-10.7-4.2-1.9-11.2-5.9-15.2-8.2-.9-2.4-2.2-6.6-3.5-10.5 16 3.4 31.6 3.3 47.8 1.5l-20-20.7c-.4-.4-.3-1.1.2-1.4l11.8-7.9c.4-.3.3-.9-.1-1l-12.6-4.2c-.5-.2-.8-.7-.6-1.2l10.6-25.8c.3-.7-.4-1.4-1.1-1.2l-25.5 6c-8.3 2.1-17.3 4-24.9 8.4l53.3-65.4z"/><path fill="#3abcbc" d="M140.9 58.1c3.6-1.2-2.4 11.4-3 13-2 4.9-3.9 9.9-5.9 14.8 5.1 1.6 10.1 3.2 15.2 4.8l-14.7 9.6c6.7 7.2 13.5 14.3 20.2 21.5-16.5 2.5-31.6 2.2-47.8-1.5 1.1 3.3 2.2 7.1 3.3 10.4-11.7-7-21.9-16.4-24.5-30.1-2-10.9-1.4-25.8 11.2-30.4 14.7-5.4 30.9-8.1 46-12.1z" opacity=".9961"/></svg>