<svg xmlns="http://www.w3.org/2000/svg" version="1" viewBox="0 0 200 200"><linearGradient id="a" x1="100" x2="100" y1="5" y2="195" gradientUnits="userSpaceOnUse"><stop offset="0" stop-color="#ebebe9"/><stop offset="1" stop-color="#aaa"/></linearGradient><circle cx="100" cy="100" r="95" fill="url(#a)" stroke="#000" stroke-miterlimit="10"/><path fill="none" stroke="#000" stroke-miterlimit="10" d="M91.56 11.14l6.05 14.55 15.68-1.5-11.97 10.24 6.27 14.46-13.44-8.22L82.34 51.1 86 35.78l-13.57-8.01 15.71-1.26zM37.36 58.26l5.27 14.84 15.74-.67-12.49 9.6 5.5 14.76-12.99-8.91-12.34 9.8 4.46-15.11-13.12-8.71 15.74-.43zM154.21 48.93l6.54 14.33 15.62-2.04-11.6 10.65 6.77 14.23-13.72-7.74-11.44 10.83 3.13-15.44-13.84-7.53 15.65-1.8zM60.99 129.72l3.69 15.31 15.72.98-13.42 8.24 3.93 15.26-11.99-10.22-13.3 8.45 6.02-14.56-12.15-10.03 15.71 1.22zM135.1 135.11l3.69 15.31 15.73.98-13.43 8.24 3.93 15.26-11.99-10.22-13.29 8.45 6.01-14.56-12.14-10.03 15.7 1.22z"/><path fill="none" stroke="#FFF" stroke-miterlimit="10" d="M92.91 9.79l6.04 14.55 15.68-1.5-11.96 10.25 6.27 14.45-13.44-8.22-11.81 10.43 3.66-15.32-13.57-8.01 15.7-1.25zM38.71 56.91l5.27 14.84 15.74-.67-12.49 9.61 5.5 14.76-12.99-8.91-12.34 9.79 4.46-15.11-13.13-8.71 15.75-.42zM155.55 47.58l6.55 14.33 15.62-2.04-11.6 10.66 6.76 14.22-13.71-7.74-11.44 10.83 3.12-15.44-13.83-7.53 15.65-1.8zM62.33 128.37l3.7 15.31 15.72.98-13.42 8.24 3.92 15.26-11.98-10.22-13.3 8.45 6.01-14.56-12.14-10.03 15.71 1.22zM136.45 133.76l3.69 15.31 15.72.98-13.42 8.24 3.93 15.26-11.99-10.22-13.3 8.45 6.02-14.56-12.15-10.03 15.71 1.22z"/><path d="M74.4 116.23v-7.07c.81.71 1.78 1.36 2.91 1.93 1.13.57 2.32 1.05 3.57 1.45 1.25.39 2.5.7 3.77.91 1.26.21 2.43.32 3.5.32 3.69 0 6.44-.68 8.26-2.05 1.82-1.37 2.73-3.34 2.73-5.91 0-1.38-.3-2.58-.91-3.61-.61-1.02-1.45-1.96-2.52-2.8-1.07-.84-2.34-1.65-3.8-2.43-1.46-.77-3.04-1.59-4.73-2.45-1.78-.9-3.45-1.82-5-2.75-1.55-.93-2.89-1.95-4.03-3.07-1.14-1.12-2.04-2.39-2.7-3.8-.66-1.42-.98-3.08-.98-4.98 0-2.33.51-4.36 1.53-6.09 1.02-1.73 2.37-3.15 4.03-4.27 1.67-1.12 3.56-1.95 5.69-2.5 2.13-.55 4.3-.82 6.51-.82 5.04 0 8.72.61 11.03 1.82v6.75c-3.02-2.09-6.9-3.14-11.64-3.14-1.31 0-2.62.14-3.93.41-1.31.27-2.48.72-3.5 1.34-1.02.62-1.86 1.42-2.5 2.39-.64.98-.96 2.17-.96 3.57 0 1.31.24 2.44.73 3.39.49.95 1.21 1.82 2.16 2.61.95.79 2.11 1.55 3.48 2.28 1.37.74 2.94 1.55 4.73 2.43 1.83.9 3.57 1.86 5.21 2.86 1.64 1 3.08 2.11 4.32 3.32 1.24 1.21 2.22 2.56 2.94 4.03.73 1.48 1.09 3.17 1.09 5.07 0 2.52-.49 4.66-1.48 6.41s-2.32 3.17-4 4.27c-1.68 1.1-3.61 1.89-5.8 2.37-2.19.49-4.5.73-6.93.73-.81 0-1.81-.07-3-.2s-2.4-.32-3.64-.57c-1.24-.25-2.41-.56-3.52-.93-1.07-.36-1.96-.77-2.62-1.22zM127.41 95.42h-7.39v22.88h-3V95.42h-7.37v-2.71h17.76v2.71zM151.23 118.3h-3.32l-2.71-7.17h-10.85l-2.55 7.17h-3.34l9.82-25.59h3.11l9.84 25.59zm-7.01-9.87l-4.02-10.91c-.13-.36-.26-.93-.39-1.71h-.07c-.12.73-.26 1.3-.41 1.71l-3.98 10.91h8.87zM173.35 118.3h-3.57l-4.28-7.17c-.39-.67-.77-1.24-1.14-1.7-.37-.47-.75-.85-1.13-1.15-.39-.3-.8-.51-1.25-.65-.45-.14-.95-.21-1.51-.21H158v10.89h-3v-25.6h7.64c1.12 0 2.15.14 3.1.42.95.28 1.77.71 2.46 1.28s1.24 1.28 1.63 2.13c.39.85.59 1.85.59 2.99 0 .89-.13 1.71-.4 2.45-.27.74-.65 1.41-1.14 1.99-.49.58-1.09 1.08-1.78 1.49s-1.48.73-2.35.95v.07c.43.19.8.41 1.12.65.32.24.62.53.9.87.29.33.57.71.85 1.13s.59.91.94 1.47l4.79 7.7zM158 95.42v9.28h4.07c.75 0 1.44-.11 2.08-.34.64-.23 1.19-.55 1.65-.97s.83-.94 1.09-1.55c.26-.61.39-1.3.39-2.06 0-1.37-.44-2.44-1.33-3.2-.89-.77-2.17-1.15-3.85-1.15H158zM99.56 138.57c-.89.47-2 .71-3.33.71-1.71 0-3.09-.55-4.12-1.66s-1.55-2.55-1.55-4.35c0-1.93.58-3.49 1.74-4.67 1.16-1.19 2.63-1.78 4.41-1.78 1.14 0 2.09.17 2.84.5v1.5c-.86-.48-1.82-.72-2.86-.72-1.38 0-2.51.46-3.37 1.39-.86.92-1.29 2.16-1.29 3.71 0 1.47.4 2.64 1.21 3.51.8.87 1.86 1.31 3.16 1.31 1.21 0 2.26-.27 3.14-.81v1.36zM106.88 139.28c-1.71 0-3.08-.56-4.11-1.69-1.03-1.13-1.54-2.59-1.54-4.4 0-1.94.52-3.49 1.57-4.64 1.05-1.15 2.47-1.73 4.28-1.73 1.66 0 3.01.56 4.02 1.68 1.02 1.12 1.53 2.59 1.53 4.4 0 1.97-.52 3.52-1.56 4.67s-2.45 1.71-4.19 1.71zm.1-11.18c-1.27 0-2.29.46-3.09 1.37-.79.91-1.19 2.11-1.19 3.6s.39 2.68 1.16 3.59c.77.91 1.78 1.36 3.01 1.36 1.32 0 2.36-.43 3.13-1.29.76-.86 1.14-2.07 1.14-3.62 0-1.59-.37-2.82-1.11-3.69-.73-.89-1.75-1.32-3.05-1.32zM117.59 127.02v1.21h-1.18v9.63h1.18v1.21h-3.77v-1.21H115v-9.63h-1.18v-1.21h3.77zM129.3 139.08h-1.73l-6.2-9.61c-.16-.24-.29-.49-.39-.76h-.05c.04.26.07.81.07 1.66v8.71h-1.41v-12.05h1.83l6.04 9.46c.25.39.41.66.49.81h.03c-.06-.35-.08-.94-.08-1.77v-8.49h1.41v12.04zM143.97 134.52v4.56h-1.41v-12.05h3.31c1.29 0 2.29.31 3 .94.71.63 1.06 1.51 1.06 2.66s-.39 2.08-1.18 2.81-1.85 1.09-3.19 1.09h-1.59zm0-6.22v4.94h1.48c.98 0 1.72-.22 2.23-.67.51-.45.77-1.07.77-1.89 0-1.59-.94-2.39-2.82-2.39h-1.66zM160.85 139.08h-1.68l-2.02-3.38c-.18-.31-.36-.58-.54-.8-.17-.22-.35-.4-.53-.54-.18-.14-.38-.24-.59-.31-.21-.06-.45-.1-.71-.1h-1.16v5.13h-1.41v-12.05h3.6c.53 0 1.01.07 1.46.2s.83.33 1.16.6c.33.27.58.6.77 1 .18.4.28.87.28 1.41 0 .42-.06.81-.19 1.16-.13.35-.31.66-.54.94-.23.27-.51.51-.84.7-.33.19-.7.34-1.11.45v.03c.2.09.38.19.53.31.15.11.29.25.42.41.13.16.27.33.4.53s.28.43.44.69l2.26 3.62zm-7.23-10.78v4.37h1.92c.35 0 .68-.05.98-.16.3-.11.56-.26.78-.46.22-.2.39-.44.51-.73s.18-.61.18-.97c0-.64-.21-1.15-.63-1.51-.42-.36-1.02-.54-1.81-.54h-1.93zM167.36 139.28c-1.71 0-3.08-.56-4.11-1.69-1.03-1.13-1.54-2.59-1.54-4.4 0-1.94.52-3.49 1.57-4.64 1.05-1.15 2.47-1.73 4.28-1.73 1.66 0 3.01.56 4.02 1.68 1.02 1.12 1.53 2.59 1.53 4.4 0 1.97-.52 3.52-1.56 4.67s-2.44 1.71-4.19 1.71zm.1-11.18c-1.27 0-2.29.46-3.09 1.37-.79.91-1.19 2.11-1.19 3.6s.39 2.68 1.16 3.59 1.78 1.36 3.01 1.36c1.32 0 2.36-.43 3.13-1.29.76-.86 1.14-2.07 1.14-3.62 0-1.59-.37-2.82-1.11-3.69s-1.75-1.32-3.05-1.32z"/><g fill="#FFF"><path d="M75.74 114.88v-7.07c.81.71 1.78 1.36 2.91 1.93 1.13.57 2.32 1.05 3.57 1.45 1.25.39 2.5.7 3.77.91 1.26.21 2.43.32 3.5.32 3.69 0 6.44-.68 8.26-2.05 1.82-1.37 2.73-3.34 2.73-5.91 0-1.38-.3-2.58-.91-3.61-.61-1.02-1.45-1.96-2.52-2.8-1.07-.84-2.34-1.65-3.8-2.43-1.46-.77-3.04-1.59-4.73-2.45-1.78-.9-3.45-1.82-5-2.75-1.55-.93-2.89-1.95-4.03-3.07-1.14-1.12-2.04-2.39-2.7-3.8-.66-1.42-.98-3.08-.98-4.98 0-2.33.51-4.36 1.53-6.09 1.02-1.73 2.37-3.15 4.03-4.27 1.67-1.12 3.56-1.95 5.69-2.5 2.13-.55 4.3-.82 6.51-.82 5.04 0 8.72.61 11.03 1.82v6.75c-3.02-2.09-6.9-3.14-11.64-3.14-1.31 0-2.62.14-3.93.41-1.31.27-2.48.72-3.5 1.34-1.02.62-1.86 1.42-2.5 2.39-.64.98-.96 2.17-.96 3.57 0 1.31.24 2.44.73 3.39.49.95 1.21 1.82 2.16 2.61.95.79 2.11 1.55 3.48 2.28 1.37.74 2.94 1.55 4.73 2.43 1.83.9 3.57 1.86 5.21 2.86 1.64 1 3.08 2.11 4.32 3.32 1.24 1.21 2.22 2.56 2.94 4.03.73 1.48 1.09 3.17 1.09 5.07 0 2.52-.49 4.66-1.48 6.41s-2.32 3.17-4 4.27c-1.68 1.1-3.61 1.89-5.8 2.37-2.19.49-4.5.73-6.93.73-.81 0-1.81-.07-3-.2s-2.4-.32-3.64-.57c-1.24-.25-2.41-.56-3.52-.93-1.06-.35-1.95-.76-2.62-1.22zM128.75 94.07h-7.39v22.88h-3V94.07H111v-2.71h17.76v2.71zM152.58 116.95h-3.32l-2.71-7.17H135.7l-2.55 7.17h-3.34l9.82-25.59h3.11l9.84 25.59zm-7.01-9.87l-4.02-10.91c-.13-.36-.26-.93-.39-1.71h-.07c-.12.73-.26 1.3-.41 1.71l-3.98 10.91h8.87zM174.7 116.95h-3.57l-4.28-7.17c-.39-.67-.77-1.24-1.14-1.7-.37-.47-.75-.85-1.13-1.15-.39-.3-.8-.51-1.25-.65-.45-.14-.95-.21-1.51-.21h-2.46v10.89h-3v-25.6H164c1.12 0 2.15.14 3.1.42.95.28 1.77.7 2.46 1.28s1.24 1.28 1.63 2.13c.39.85.59 1.85.59 2.99 0 .89-.13 1.71-.4 2.45-.27.74-.65 1.41-1.14 1.99-.49.58-1.09 1.08-1.78 1.49s-1.48.73-2.35.95v.07c.43.19.8.41 1.12.65.32.24.62.53.9.87.29.33.57.71.85 1.13s.59.91.94 1.47l4.78 7.7zm-15.35-22.88v9.28h4.07c.75 0 1.44-.11 2.08-.34.64-.23 1.19-.55 1.65-.97.46-.42.83-.94 1.09-1.55.26-.61.39-1.3.39-2.06 0-1.37-.44-2.44-1.33-3.2-.89-.77-2.17-1.15-3.85-1.15h-4.1zM100.91 137.23c-.89.47-2 .71-3.33.71-1.71 0-3.09-.55-4.12-1.66-1.03-1.1-1.55-2.55-1.55-4.35 0-1.93.58-3.49 1.74-4.67 1.16-1.19 2.63-1.78 4.41-1.78 1.14 0 2.09.17 2.84.5v1.5c-.86-.48-1.82-.72-2.86-.72-1.38 0-2.51.46-3.37 1.39-.86.92-1.29 2.16-1.29 3.71 0 1.47.4 2.64 1.21 3.51.8.87 1.86 1.31 3.16 1.31 1.21 0 2.26-.27 3.14-.81v1.36zM108.22 137.93c-1.71 0-3.08-.56-4.11-1.69-1.03-1.13-1.54-2.59-1.54-4.4 0-1.94.52-3.49 1.57-4.64 1.05-1.15 2.47-1.73 4.28-1.73 1.66 0 3.01.56 4.02 1.68 1.02 1.12 1.53 2.59 1.53 4.4 0 1.97-.52 3.52-1.56 4.67-1.04 1.14-2.44 1.71-4.19 1.71zm.1-11.18c-1.27 0-2.29.46-3.09 1.37-.79.91-1.19 2.11-1.19 3.6s.39 2.68 1.16 3.59c.77.91 1.78 1.36 3.01 1.36 1.32 0 2.36-.43 3.13-1.29.76-.86 1.14-2.07 1.14-3.62 0-1.59-.37-2.82-1.11-3.69-.73-.88-1.75-1.32-3.05-1.32zM118.93 125.68v1.21h-1.18v9.63h1.18v1.21h-3.77v-1.21h1.18v-9.63h-1.18v-1.21h3.77zM130.64 137.73h-1.73l-6.2-9.61c-.16-.24-.29-.49-.39-.76h-.05c.04.26.07.81.07 1.66v8.71h-1.41v-12.05h1.83l6.04 9.46c.25.39.41.66.49.81h.03c-.06-.35-.08-.94-.08-1.77v-8.49h1.41v12.04zM145.32 133.18v4.56h-1.41v-12.05h3.31c1.29 0 2.29.31 3 .94.71.63 1.06 1.51 1.06 2.66s-.39 2.08-1.18 2.81-1.85 1.09-3.19 1.09h-1.59zm0-6.23v4.94h1.48c.98 0 1.72-.22 2.23-.67.51-.45.77-1.07.77-1.89 0-1.59-.94-2.39-2.82-2.39h-1.66zM162.19 137.73h-1.68l-2.02-3.38c-.18-.31-.36-.58-.54-.8-.17-.22-.35-.4-.53-.54-.18-.14-.38-.24-.59-.31-.21-.06-.45-.1-.71-.1h-1.16v5.13h-1.41v-12.05h3.6c.53 0 1.01.07 1.46.2s.83.33 1.16.6c.33.27.58.6.77 1 .18.4.28.87.28 1.41 0 .42-.06.81-.19 1.16s-.31.66-.54.94c-.23.27-.51.51-.84.7-.33.19-.7.34-1.11.45v.03c.2.09.38.19.53.31.15.11.29.25.42.41.13.16.27.33.4.53s.28.43.44.69l2.26 3.62zm-7.23-10.78v4.37h1.92c.35 0 .68-.05.98-.16.3-.11.56-.26.78-.46s.39-.44.51-.73.18-.61.18-.97c0-.64-.21-1.15-.63-1.51s-1.02-.54-1.81-.54h-1.93zM168.71 137.93c-1.71 0-3.08-.56-4.11-1.69-1.03-1.13-1.54-2.59-1.54-4.4 0-1.94.52-3.49 1.57-4.64 1.05-1.15 2.47-1.73 4.28-1.73 1.66 0 3.01.56 4.02 1.68 1.02 1.12 1.53 2.59 1.53 4.4 0 1.97-.52 3.52-1.56 4.67s-2.44 1.71-4.19 1.71zm.1-11.18c-1.27 0-2.29.46-3.09 1.37-.79.91-1.19 2.11-1.19 3.6s.39 2.68 1.16 3.59 1.78 1.36 3.01 1.36c1.32 0 2.36-.43 3.13-1.29.76-.86 1.14-2.07 1.14-3.62 0-1.59-.37-2.82-1.11-3.69-.73-.88-1.75-1.32-3.05-1.32z"/></g></svg>