<?xml version="1.0" encoding="utf-8"?>
<!-- Generator: Adobe Illustrator 22.1.0, SVG Export Plug-In . SVG Version: 6.00 Build 0)  -->
<svg version="1.0" id="Livello_1" xmlns="http://www.w3.org/2000/svg" xmlns:xlink="http://www.w3.org/1999/xlink" x="0px" y="0px"
	 viewBox="0 0 200 200" enable-background="new 0 0 200 200" xml:space="preserve">
<path fill="#34445B" d="M105.7,63.5l16.5-24.8c1.1,0.2,2.1,0.3,3.2,0.3c9.7,0,17.5-7.8,17.5-17.5c0-9.7-7.8-17.5-17.5-17.5
	S108,11.8,108,21.5c0,4.2,1.5,8,3.9,11L91.4,63.3C58.1,66.6,32,94.8,32,129c0,36.5,29.5,66,66,66s66-29.5,66-66
	C164,95.2,138.5,67.3,105.7,63.5z M98,164c-19.3,0-35-15.7-35-35s15.7-35,35-35c16.1,0,29.8,11,33.8,25.9
	c-3.3-6.5-10-10.9-17.8-10.9c-11,0-20,9-20,20s9,20,20,20c7.8,0,14.5-4.4,17.8-10.9C127.8,153,114.1,164,98,164z"/>
</svg>
