<svg xmlns="http://www.w3.org/2000/svg" version="1" viewBox="0 0 200 200"><linearGradient id="a" x1="5" x2="195" y1="100.2" y2="100.2" gradientTransform="matrix(1 0 0 -1 0 200.2)" gradientUnits="userSpaceOnUse"><stop offset="0" stop-color="#5978b9"/><stop offset=".8" stop-color="#8ecadc"/><stop offset="1" stop-color="#8ecadc"/></linearGradient><path fill="url(#a)" d="M83.9 117c-.9-1.1-1.9-2.2-3.2-3l-49-34.5 141.1-47.4-50.7 132.3c0 .1-38.2-47.4-38.2-47.4zM186.4 11L9.4 70.4C5.2 72.1 5 76.2 5 76.5c0 2.2 1.1 4.1 2.8 5.4l63.9 44.8 48.3 60c1.3 1.6 3.2 2.5 5.2 2.5.3 0 4.6-.2 6.2-4.3l63.1-165.3c1.3-3.5-.5-7.3-3.8-8.5-1.5-.4-2.9-.5-4.3-.1"/><linearGradient id="b" x1="88.7262" x2="132.1165" y1="109.2479" y2="109.2479" gradientTransform="matrix(1 0 0 -1 0 200.2)" gradientUnits="userSpaceOnUse"><stop offset="0" stop-color="#5978b9"/><stop offset=".8" stop-color="#8ecadc"/><stop offset="1" stop-color="#8ecadc"/></linearGradient><path fill="url(#b)" d="M130.2 70.5L89.8 84.1c-.8.3-1.1 1.3-.8 2.1.2.2.3.5.5.6l14.7 10.3 11.1 13.7c.3.3.8.6 1.1.6 0 0 .9 0 1.4-.9l14.5-37.9c.3-.8-.2-1.7-1.1-2.1-.5-.1-1 0-1 0z"/></svg>