<svg xmlns="http://www.w3.org/2000/svg" viewBox="0 0 200 200"><linearGradient id="a" x1="32.228" x2="192.7712" y1="100" y2="100" gradientUnits="userSpaceOnUse"><stop offset="0" stop-color="#208f96"/><stop offset=".9971" stop-color="#6ac2bd"/></linearGradient><path fill="url(#a)" d="M32.2 5h98.1c6.3 0 12.2 3.4 15.4 8.8l44.7 76.8c3.2 5.5 3.2 12.3 0 17.8l-44.7 77.7c-3.2 5.5-9.1 8.9-15.4 8.9h-98l27.1-46.8h44.5c6.3 0 12.1-3.3 15.3-8.7l18.2-30.6c3.3-5.5 3.3-12.4.2-17.9L119 58.8c-3.2-5.5-9.1-9-15.5-9H59.3L32.2 5z"/><linearGradient id="b" x1="7.2288" x2="85.8568" y1="100" y2="100" gradientUnits="userSpaceOnUse"><stop offset="0" stop-color="#2ab092"/><stop offset=".9971" stop-color="#69bd94"/></linearGradient><path fill="url(#b)" d="M32.2 5L9.9 40.9c-3.2 5.1-3.2 11.6 0 16.8l19.7 31.8c3.1 5 3.2 11.2.3 16.3L9.4 141.3c-2.9 5-2.8 11.2.2 16.2L32.2 195l51.5-89.3c2.9-5 2.8-11.2-.2-16.2L32.2 5z"/></svg>