<svg xmlns="http://www.w3.org/2000/svg" viewBox="0 0 200 200"><linearGradient id="a" x1="100" x2="100" y1="195" y2="5" gradientTransform="matrix(1 0 0 -1 0 200)" gradientUnits="userSpaceOnUse"><stop offset="0" stop-color="#ebebe9"/><stop offset="1" stop-color="#aaa"/></linearGradient><circle cx="100" cy="100" r="95" fill="url(#a)" stroke="#000" stroke-miterlimit="10"/><path fill="none" stroke="#000" stroke-miterlimit="10" d="M91.6 11.1l6.1 14.6 15.7-1.5-12 10.2 6.3 14.5-13.4-8.2-12 10.4L86 35.8l-13.6-8 15.7-1.3 3.5-15.4zM37.4 58.3l5.3 14.8 15.7-.7L45.9 82l5.5 14.8-13-8.9-12.3 9.8 4.5-15.1-13.1-8.7 15.7-.4 4.2-15.2zm116.8-9.4l6.5 14.3 15.6-2-11.6 10.7 6.8 14.2-13.7-7.7-11.4 10.8 3.1-15.4-13.8-7.5 15.6-1.8 2.9-15.6zM61 129.7l3.7 15.3 15.7 1-13.4 8.3 3.9 15.3-12-10.2-13.3 8.4 6-14.6-12.2-10 15.7 1.2 5.9-14.7zm74.1 5.4l3.7 15.3 15.7 1-13.4 8.2 3.9 15.3-12-10.2-13.3 8.4 6-14.6-12.1-10 15.7 1.2 5.8-14.6z"/><path d="M74.4 116.2v-7.1c.8.7 1.8 1.4 2.9 1.9 1.1.6 2.3 1.1 3.6 1.4 1.3.4 2.5.7 3.8.9 1.3.2 2.4.3 3.5.3 3.7 0 6.4-.7 8.3-2.1s2.7-3.3 2.7-5.9c0-1.4-.3-2.6-.9-3.6-.6-1-1.4-2-2.5-2.8-1.1-.8-2.3-1.7-3.8-2.4-1.5-.8-3-1.6-4.7-2.4-1.8-.9-3.4-1.8-5-2.8s-2.9-1.9-4-3.1-2-2.4-2.7-3.8c-.7-1.4-1-3.1-1-5 0-2.3.5-4.4 1.5-6.1s2.4-3.2 4-4.3c1.7-1.1 3.6-1.9 5.7-2.5 2.1-.6 4.3-.8 6.5-.8 5 0 8.7.6 11 1.8v6.8c-3-2.1-6.9-3.1-11.6-3.1-1.3 0-2.6.1-3.9.4-1.3.3-2.5.7-3.5 1.3-1 .6-1.9 1.4-2.5 2.4-.6 1-1 2.2-1 3.6 0 1.3.2 2.4.7 3.4.5.9 1.2 1.8 2.2 2.6.9.8 2.1 1.6 3.5 2.3 1.4.7 2.9 1.6 4.7 2.4 1.8.9 3.6 1.9 5.2 2.9s3.1 2.1 4.3 3.3 2.2 2.6 2.9 4c.7 1.5 1.1 3.2 1.1 5.1 0 2.5-.5 4.7-1.5 6.4s-2.3 3.2-4 4.3-3.6 1.9-5.8 2.4c-2.2.5-4.5.7-6.9.7-.8 0-1.8-.1-3-.2s-2.4-.3-3.6-.6-2.4-.6-3.5-.9c-1.1-.2-2-.6-2.7-1.1zm53-20.8H120v22.9h-3V95.4h-7.4v-2.7h17.8v2.7zm23.8 22.9h-3.3l-2.7-7.2h-10.9l-2.6 7.2h-3.3l9.8-25.6h3.1l9.9 25.6zm-7-9.9l-4-10.9c-.1-.4-.3-.9-.4-1.7h-.1c-.1.7-.3 1.3-.4 1.7l-4 10.9h8.9zm29.2 9.9h-3.6l-4.3-7.2c-.4-.7-.8-1.2-1.1-1.7-.4-.5-.8-.8-1.1-1.2-.4-.3-.8-.5-1.3-.7s-.9-.2-1.5-.2H158v10.9h-3V92.7h7.6c1.1 0 2.1.1 3.1.4.9.3 1.8.7 2.5 1.3s1.2 1.3 1.6 2.1.6 1.8.6 3c0 .9-.1 1.7-.4 2.4-.3.7-.6 1.4-1.1 2-.5.6-1.1 1.1-1.8 1.5s-1.5.7-2.4.9v.1c.4.2.8.4 1.1.7.3.2.6.5.9.9.3.3.6.7.9 1.1s.6.9.9 1.5l4.9 7.7zM158 95.4v9.3h4.1c.8 0 1.4-.1 2.1-.3.6-.2 1.2-.6 1.6-1s.8-.9 1.1-1.6.4-1.3.4-2.1c0-1.4-.4-2.4-1.3-3.2-.9-.8-2.2-1.2-3.9-1.2l-4.1.1zm-58.4 43.2c-.9.5-2 .7-3.3.7-1.7 0-3.1-.6-4.1-1.7s-1.6-2.6-1.6-4.4c0-1.9.6-3.5 1.7-4.7 1.2-1.2 2.6-1.8 4.4-1.8 1.1 0 2.1.2 2.8.5v1.5c-.9-.5-1.8-.7-2.9-.7-1.4 0-2.5.5-3.4 1.4-.9.9-1.3 2.2-1.3 3.7s.4 2.6 1.2 3.5c.8.9 1.9 1.3 3.2 1.3 1.2 0 2.3-.3 3.1-.8l.2 1.5zm7.3.7c-1.7 0-3.1-.6-4.1-1.7s-1.5-2.6-1.5-4.4c0-1.9.5-3.5 1.6-4.6 1.1-1.2 2.5-1.7 4.3-1.7 1.7 0 3 .6 4 1.7s1.5 2.6 1.5 4.4c0 2-.5 3.5-1.6 4.7s-2.5 1.6-4.2 1.6zm.1-11.2c-1.3 0-2.3.5-3.1 1.4-.8.9-1.2 2.1-1.2 3.6s.4 2.7 1.2 3.6c.8.9 1.8 1.4 3 1.4 1.3 0 2.4-.4 3.1-1.3.8-.9 1.1-2.1 1.1-3.6 0-1.6-.4-2.8-1.1-3.7-.7-1-1.7-1.4-3-1.4zm10.6-1.1v1.2h-1.2v9.6h1.2v1.2h-3.8v-1.2h1.2v-9.6h-1.2V127h3.8zm11.7 12.1h-1.7l-6.2-9.6c-.2-.2-.3-.5-.4-.8h-.1c0 .3.1.8.1 1.7v8.7h-1.4V127h1.8l6 9.5c.3.4.4.7.5.8-.1-.4-.1-.9-.1-1.8V127h1.4l.1 12.1zm14.7-4.6v4.6h-1.4V127h3.3c1.3 0 2.3.3 3 .9s1.1 1.5 1.1 2.7-.4 2.1-1.2 2.8-1.9 1.1-3.2 1.1H144zm0-6.2v4.9h1.5c1 0 1.7-.2 2.2-.7s.8-1.1.8-1.9c0-1.6-.9-2.4-2.8-2.4l-1.7.1zm16.9 10.8h-1.7l-2-3.4c-.2-.3-.4-.6-.5-.8l-.5-.5c-.1-.1-.4-.2-.6-.3-.2-.1-.4-.1-.7-.1h-1.2v5.1h-1.4V127h3.6c.5 0 1 .1 1.5.2s.8.3 1.2.6.6.6.8 1c.2.4.3.9.3 1.4 0 .4-.1.8-.2 1.2s-.3.7-.5.9c-.2.3-.5.5-.8.7s-.7.3-1.1.4c.2.1.4.2.5.3l.4.4c.1.1.3.3.4.5s.3.4.4.7l2.1 3.8zm-7.3-10.8v4.4h1.9c.4 0 .7-.1 1-.2s.6-.3.8-.5c.2-.2.4-.4.5-.7s.2-.6.2-1c0-.6-.2-1.1-.6-1.5s-1-.5-1.8-.5h-2zm13.8 11c-1.7 0-3.1-.6-4.1-1.7s-1.5-2.6-1.5-4.4c0-1.9.5-3.5 1.6-4.6 1.1-1.2 2.5-1.7 4.3-1.7 1.7 0 3 .6 4 1.7s1.5 2.6 1.5 4.4c0 2-.5 3.5-1.6 4.7s-2.5 1.6-4.2 1.6zm.1-11.2c-1.3 0-2.3.5-3.1 1.4-.8.9-1.2 2.1-1.2 3.6s.4 2.7 1.2 3.6 1.8 1.4 3 1.4c1.3 0 2.4-.4 3.1-1.3.8-.9 1.1-2.1 1.1-3.6 0-1.6-.4-2.8-1.1-3.7s-1.7-1.4-3-1.4z"/></svg>