<svg xmlns="http://www.w3.org/2000/svg" id="Livello_1" version="1" viewBox="0 0 200 200"><style>.st0{fill:#0d3d72}</style><path d="M100 11c49.1 0 89 39.9 89 89s-39.9 89-89 89-89-39.9-89-89 39.9-89 89-89m0-6C47.5 5 5 47.5 5 100s42.5 95 95 95 95-42.5 95-95-42.5-95-95-95z" class="st0"/><path d="M45.5 60.5c-4 9 14 13 14 13C45.5 79.5 39 71 39 71c-1 12 12 14 12 14-9.5.5-16.1 4.5-17.5 10.5C31.8 102.8 27 108 27 108c5.8 2 13.6-1.8 14-2-9.6 9.6-5.5 41.4-4.3 49.2C23.8 140.5 16 121.2 16 100c0-46.4 37.6-84 84-84 18.5 0 35.6 6 49.5 16.1l-37 23.4c1-10-2-17-2-17-6 5-11 19-11 19s-8-1-29 4-25-1-25-1z" class="st0"/><path d="M184 100c0 40.1-28.2 73.7-65.8 82 3.2-20.4-16.2-62-16.2-62-7-2-15-10-16-17s1-8 1-8c0 21 23 22 26 21s6 1 6 1 5 3 13 5c5 1.2 7.3 4 8.3 6 1 1.9 2.5 3.3 4.5 4.1 3.6 1.4 9 2.1 13.3-4.1 4.5-6.5 2.4-13.4.3-17.4-1-1.9-2.3-3.6-3.9-5-4.1-3.8-14.7-14.2-17.9-22C132.5 73.8 126 69 126 69l31.3-30.4C173.8 54 184 75.8 184 100z" class="st0"/></svg>