<svg xmlns="http://www.w3.org/2000/svg" id="Livello_1" viewBox="0 0 200 200"><style>.st0{fill:#66c6f1}</style><circle cx="98.5" cy="100.7" r="6.5" class="st0"/><circle cx="124.7" cy="138.8" r="6.5" class="st0"/><circle cx="145.5" cy="55.5" r="6.5" class="st0"/><path d="M190.6 32.5c-.1-3.8-3.3-6.8-7.1-6.8-14.9.1-51.6-1.4-80.1-18.2-2.2-1.3-5-1.4-7.2 0-9 5.4-35.4 18.6-80.1 18.2-3.7 0-6.8 2.9-7 6.6-.4 6.7-.7 18.2.7 32.1.9-.2 1.8-.3 2.7-.3 5 0 9.4 3 11.3 7.2h46.9l13.9-20.9H134c2-4.3 6.3-7.3 11.4-7.3 6.9 0 12.5 5.6 12.5 12.5s-5.6 12.5-12.5 12.5c-5.4 0-10-3.5-11.8-8.3H90.2l-14 21H24.3c-1.6 4.5-5.6 7.8-10.5 8.3 1.8 7.9 4.2 16 7.5 24.3h33.3l14.1 21h44.1c1.8-4.8 6.4-8.2 11.7-8.2 6.9 0 12.5 5.6 12.5 12.5s-5.6 12.5-12.5 12.5c-5.1 0-9.5-3.1-11.4-7.4h-50l-13.9-20.9H25.3c12.6 27 34.4 53.7 71.9 70.9 1.7.8 3.7.8 5.4.2 11.5-4.4 55.1-24.4 76.4-81-4-.8-7.3-3.6-8.9-7.2H110c-1.9 4.4-6.3 7.5-11.5 7.5-6.9 0-12.5-5.6-12.5-12.5s5.6-12.5 12.5-12.5c5.4 0 10 3.4 11.7 8.1h59.6c1.8-4.8 6.3-8.1 11.7-8.1 1.6 0 3.1.3 4.5.8 3.6-16.5 5.4-35.2 4.6-56.6z" class="st0"/><path d="M19.1 77.1c0 3.4-2.8 6.2-6.2 6.2h-.4c-.8-4.1-1.5-8.1-2-11.9.7-.3 1.5-.5 2.3-.5 3.5 0 6.3 2.8 6.3 6.2zM181.1 106.8c-3.2-.2-5.8-2.9-5.8-6.2 0-3.4 2.8-6.2 6.2-6.2 1.1 0 2.1.3 3 .8l-3.4 11.6z" class="st0"/></svg>