<svg xmlns="http://www.w3.org/2000/svg" viewBox="0 0 200 200"><circle cx="100" cy="100" r="100" fill="#17233b"/><path fill="#46586f" d="M100 72.7c3.9 0 7.8 1.5 10.8 4.5l27.5 27.5c6 6 6 15.6 0 21.6l-27.5 27.5c-3 3-6.9 4.5-10.8 4.5s-7.8-1.5-10.8-4.5l-27.5-27.5c-6-6-6-15.6 0-21.6l27.5-27.5c3-3 6.9-4.5 10.8-4.5m0-9c-6.5 0-12.6 2.5-17.2 7.1L55.3 98.3c-9.5 9.5-9.5 24.9 0 34.3l27.5 27.5c4.6 4.6 10.7 7.1 17.2 7.1s12.6-2.5 17.2-7.1l27.5-27.5c9.5-9.5 9.5-24.9 0-34.3l-27.5-27.5c-4.6-4.6-10.7-7.1-17.2-7.1z"/><path fill="#fff" d="M100 41.7c3.9 0 7.8 1.5 10.8 4.5l27.5 27.5c6 6 6 15.6 0 21.6l-27.5 27.5c-3 3-6.9 4.5-10.8 4.5s-7.8-1.5-10.8-4.5L61.7 95.3c-6-6-6-15.6 0-21.6l27.5-27.5c3-3 6.9-4.5 10.8-4.5m0-9c-6.5 0-12.6 2.5-17.2 7.1L55.3 67.3c-9.5 9.5-9.5 24.9 0 34.3l27.5 27.5c4.6 4.6 10.7 7.1 17.2 7.1s12.6-2.5 17.2-7.1l27.5-27.5c9.5-9.5 9.5-24.9 0-34.3l-27.5-27.5c-4.6-4.6-10.7-7.1-17.2-7.1z"/></svg>