<?xml version="1.0" encoding="utf-8"?>
<!-- Generator: Adobe Illustrator 23.0.1, SVG Export Plug-In . SVG Version: 6.00 Build 0)  -->
<svg version="1.0" id="svg" xmlns="http://www.w3.org/2000/svg" xmlns:xlink="http://www.w3.org/1999/xlink" x="0px" y="0px"
	 viewBox="0 0 200 200" enable-background="new 0 0 200 200" xml:space="preserve">
<circle fill-rule="evenodd" clip-rule="evenodd" fill="#F2A115" cx="100" cy="100" r="95"/>
<path id="path0" fill-rule="evenodd" clip-rule="evenodd" d="M84.48,37.06c1.23,0.26,2.49,0.25,3.74,0.29
	c1.49,0.05,2.8,0.34,4.19,0.83c1.16,0.41,2.38,0.43,3.49,0.98c1.17,0.58,2.4,0.79,3.51,1.48c1.86,1.17,3.8,2.07,5.59,3.34
	c0.41,0.29,0.74,0.71,1.13,1.01c0.36,0.29,0.61,0.6,0.96,0.92c0.89,0.81,1.87,1.54,2.74,2.4c0.76,0.75,1.55,1.47,2.3,2.23
	c1.16,1.17,1.63,0.24,2.85-0.28c0.86-0.37,1.75-0.57,2.6-0.98c0.77-0.37,1.64-0.52,2.47-0.69c0.62-0.13,1.13-0.44,1.73-0.63
	c0.68-0.21,1.42-0.26,2.13-0.32c1.92-0.17,3.87-0.19,5.8-0.13c1.44,0.05,3.04,0.04,4.44,0.47c2.06,0.64,4.06,1.36,6.09,2.08
	c0.96,0.34,1.87,0.95,2.79,1.41c1,0.51,1.97,1.38,2.84,2.06c0.85,0.65,1.67,1.15,2.45,1.92c0.28,0.28,0.54,0.57,0.83,0.83
	c0.44,0.4,0.62,0.9,1,1.29c0.2,0.21,0.55,0.29,0.78,0.53c0.73,0.76,1.3,1.78,1.88,2.66c1.25,1.88,2.43,4.04,3.17,6.17
	c0.36,1.02,0.39,2.1,0.77,3.15c0.37,1.04,0.64,2.17,0.74,3.28c0.07,0.8-0.15,2.03,0.39,2.72c0.5,0.64,1.47,0.69,2.08,1.2
	c1.38,1.15,3.34,2.03,4.69,3.37c0.38,0.37,0.56,0.88,0.95,1.25c0.35,0.32,0.73,0.61,1.06,0.97c0.74,0.8,1.69,1.65,2.19,2.63
	c0.27,0.52,0.41,0.97,0.78,1.44c0.29,0.37,0.42,0.61,0.62,1.04c0.25,0.54,0.63,0.99,0.86,1.54c0.28,0.68,0.38,1.41,0.61,2.1
	c0.23,0.67,0.6,1.28,0.8,1.96c0.27,0.96,0.31,2.01,0.4,3c0.21,2.33,0.58,4.53,0.22,6.85c-0.2,1.29-0.22,2.6-0.44,3.88
	c-0.14,0.81-0.44,1.22-0.82,1.9c-0.57,1.02-0.45,2.22-1.19,3.15c-0.28,0.36-0.41,0.6-0.57,1.06c-0.21,0.62-0.46,1-0.84,1.56
	c-0.66,0.95-1.2,1.89-1.97,2.77c-0.34,0.39-0.64,0.88-1,1.23c-0.35,0.34-0.73,0.5-1.06,0.89c-1.2,1.45-2.9,2.67-4.45,3.72
	c-0.67,0.45-1.39,0.61-2.09,0.94c-1.16,0.54-2.35,1.05-3.51,1.61c-1.87,0.9-4.21,0.97-6.25,1.27c-0.5,0.07-1.01,0.09-1.51,0.1
	c-6.78,0.24-13.58,0.14-20.36,0.14c-3.07,0-6.15,0.01-9.22,0.01c-2.51,0-5.15-0.23-7.65,0.01c-1.03,0.1-1.53,0.9-2.21,1.6
	c-1.28,1.31-2.85,2.26-3.91,3.74c-0.45,0.64-1.07,1.09-1.65,1.58c-0.62,0.52-1.32,1.24-1.87,1.85c-1.12,1.24-2.3,2.38-3.5,3.47
	c-2.94,2.65-5.39,5.91-8.44,8.48c-0.53,0.45-0.97,0.94-1.48,1.4c-0.42,0.37-0.77,0.79-1.2,1.17c-0.52,0.45-0.71,0.98-1.26,1.41
	c-0.6,0.48-0.97,1.03-1.52,1.57c-0.57,0.57-1.2,1.03-1.7,1.62c-1.88,2.21-4.19,3.86-6.21,5.89c-0.4,0.4-0.92,1.49-1.66,1.06
	c-0.72-0.42-0.32-2.1-0.03-2.64c0.21-0.41,0.55-0.68,0.68-1.13c0.18-0.64,0.07-1.29,0.33-1.93c0.45-1.14,0.93-2.14,1.23-3.34
	c0.23-0.95,0.83-1.65,1.04-2.62c0.18-0.84,0.48-1.39,0.87-2.04c0.52-0.88,0.52-2.06,0.92-3.02c0.5-1.2,0.81-2.48,1.35-3.65
	c0.52-1.11,0.66-2.27,1.1-3.39c0.19-0.48,0.57-0.86,0.74-1.35c0.21-0.59,0.13-1.25,0.33-1.85c0.38-1.14,0.92-2.19,1.28-3.35
	c0.34-1.11,1.05-2,1.08-3.21c0.04-1.74-2.06-1.23-3.32-1.25c-4.83-0.09-9.67-0.06-14.5-0.07c-3.71-0.01-7.43,0.04-11.14-0.09
	c-1.94-0.07-3.79-0.58-5.72-0.84c-0.62-0.08-1.24-0.17-1.81-0.43c-1-0.46-2.09-0.76-3.05-1.33c-2.05-1.23-4.21-2.3-6-3.89
	c-1.56-1.38-2.84-2.94-4.2-4.56c-1.46-1.72-2.23-4.01-3.2-6c-0.48-0.97-0.56-2.05-0.96-3.05c-0.27-0.68-0.41-1.4-0.52-2.13
	c-0.28-1.96-0.32-3.97-0.26-5.95c0.05-1.58,0.08-3.36,0.67-4.86c0.37-0.94,0.48-1.77,0.72-2.74c0.13-0.55,0.36-0.9,0.63-1.37
	c0.36-0.62,0.4-1.23,0.67-1.88c0.23-0.58,0.68-1,1-1.53c0.26-0.43,0.36-0.92,0.67-1.31c0.23-0.29,0.5-0.49,0.71-0.8
	c0.11-0.16,0.19-0.35,0.3-0.51c0.88-1.32,2.17-2.48,3.31-3.56c0.98-0.93,2.05-1.69,3.1-2.5c0.75-0.57,1.77-1.23,2.64-1.57
	c0.32-0.13,0.45-0.02,0.71-0.32c0.28-0.34,0.32-1.02,0.38-1.43c0.2-1.34,0.27-2.69,0.43-4.03c0.14-1.17,0.49-2.25,0.56-3.42
	c0.07-1.2,0.21-2.38,0.65-3.5c0.4-1.01,0.57-2.13,1-3.13c0.14-0.33,0.39-0.52,0.56-0.79c0.27-0.46,0.3-0.92,0.47-1.44
	c0.32-0.96,0.95-1.9,1.38-2.82c0.46-1,1.18-2.06,1.87-2.92c1.43-1.79,2.48-3.83,4.37-5.21c0.63-0.46,0.9-1.01,1.41-1.49
	c0.78-0.74,1.72-1.21,2.51-1.9c0.71-0.63,1.73-1.27,2.56-1.78c0.41-0.25,0.81-0.5,1.19-0.75c0.6-0.39,1.27-0.56,1.89-0.92
	c1.94-1.1,4.27-1.98,6.47-2.57c2.17-0.59,4.06-0.91,6.32-1.06C80.85,37.17,82.62,36.67,84.48,37.06 M92.87,90.64
	c-0.14,0.43-0.62,0.52-0.87,0.84c-0.24,0.3-0.29,0.7-0.39,1.06c-0.3,1.12-0.92,2.06-1.26,3.16c-0.6,1.93-1.38,3.96-2.29,5.75
	c-0.97,1.9-1.21,4.22-2.25,6.07c-0.53,0.93-0.65,1.98-1.08,2.96c-0.41,0.95-0.72,1.83-1.03,2.81c-0.57,1.81-1.86,3.49-2.22,5.36
	c-0.09,0.46-0.68,1.75-0.29,2.23c0.53,0.66,2.71,0.38,3.39,0.4c1.42,0.03,2.83,0.05,4.25,0.07c0.7,0.01,1.4,0.02,2.1,0.03
	c0.47,0.01,1.3-0.14,1.74,0.03c1.68,0.66,0.32,3.27-0.06,4.37c-0.32,0.92-0.86,1.73-1.1,2.67c-0.29,1.15-0.84,2.1-1.18,3.21
	c-0.16,0.52-0.11,1.08-0.25,1.58c-0.14,0.5-0.41,0.63-0.67,1.04c-0.55,0.87-0.48,2.1-0.84,3.06c-0.22,0.59-1.21,1.91-0.81,2.56
	c0.42,0.69,1.6-0.85,1.97-1.19c1.42-1.32,2.82-2.68,4.21-4.03c1.94-1.88,3.84-3.81,5.78-5.7c0.58-0.56,1.18-1.09,1.76-1.65
	c0.11-0.1,0.27-0.16,0.37-0.26c0.21-0.23,0.31-0.52,0.53-0.74c0.26-0.25,0.61-0.37,0.86-0.62c4.46-4.59,8.92-9.25,13.52-13.92
	c-2.66-0.06-5.31-0.12-7.97-0.2c-0.95-0.03-2.2,0.1-3.13-0.2c-0.71-0.23-0.95-0.8-0.81-1.6c0.13-0.76,0.73-1.19,0.98-1.88
	c0.2-0.56,0.16-1.23,0.33-1.82c0.17-0.56,0.44-0.99,0.7-1.5c0.41-0.8,0.46-1.71,0.85-2.52c0.29-0.59,0.62-1,0.77-1.66
	c0.13-0.55,0.11-1.21,0.42-1.71c0.25-0.4,0.59-0.59,0.77-1.05c0.32-0.8,0.24-1.71,0.61-2.5c0.43-0.9,0.79-1.61,0.94-2.63
	c0.07-0.47,0.35-1.89-0.2-2.25c-0.23-0.15-1.05,0-1.31,0c-0.98,0-1.97,0-2.95,0c-1.54,0-3.09,0-4.63,0c-2.51,0-5.02-0.04-7.52,0.04
	C94.34,90.34,93.01,90.2,92.87,90.64"/>
</svg>
