<svg xmlns="http://www.w3.org/2000/svg" viewBox="0 0 200 200"><linearGradient id="a" x1=".2526" x2=".0364" y1=".013" y2=".2679" gradientTransform="matrix(560.0001 0 0 560.001 20.0009 20)" gradientUnits="userSpaceOnUse"><stop offset="0" stop-color="#b6509e"/><stop offset="1" stop-color="#2ebac6"/></linearGradient><path fill="url(#a)" d="M100 195c-67.4.4-114-70.1-87.4-132.1 33-77.2 141.8-77.2 174.9 0 26.5 62-20.1 132.5-87.5 132.1zm0-180C39.8 14.6-1.8 77.5 21.9 133c29.5 68.9 126.6 68.9 156.1 0 23.7-55.5-17.8-118.4-78-118z"/><g transform="translate(104 90)"><circle cx="-4" cy="10" r="73" fill="#1e1a31"/><path fill="#fff" fill-rule="evenodd" d="M4.5 4.5h-17.8c-8 0-14.4-6.3-14.4-14.3s6.5-14.4 14.4-14.4h37.9c3.2 0 5.7-2.5 5.7-5.7s-2.5-5.7-5.7-5.7h-37.9C-27.5-35.6-39-24.1-39-9.9s11.5 25.7 25.7 25.7H4.5c8 0 14.4 6.4 14.4 14.4S12.4 44.7 4.5 44.7h-37.9c-3.2 0-5.7 2.5-5.7 5.7s2.5 5.7 5.7 5.7H4.5c14.2 0 25.7-11.6 25.7-25.8S18.7 4.5 4.5 4.5z" clip-rule="evenodd"/><path fill="#fff" fill-opacity=".5" fill-rule="evenodd" d="M-29 53.8l-9.2-6.6 57.9-80.8 9.2 6.6L-29 53.8z" clip-rule="evenodd"/></g></svg>