<svg xmlns="http://www.w3.org/2000/svg" id="Livello_1" version="1" viewBox="0 0 200 200">
  <style>
    .st1{fill:#129ee8}.st2{fill:#08a1f2}
  </style>
  <path fill="#334960" d="M94.3 60.3c-4.9 5.3-9.8 10.7-14.7 16-5.1 5.5-10.1 11.1-15.3 16.6-.5.5-1.3 1-2 1H34.1c-.2 0-.5-.1-1.1-.2.5-.7.9-1.3 1.4-1.8 20.1-20.1 40.2-40.3 60.4-60.4 3.1-3.1 7.5-3.2 10.6-.1 5.9 5.8 11.8 11.7 17.6 17.6 3 3.1 3.4 7.6 1 11.6-5.8 9.7-11.6 19.4-17.4 29-1.7 2.8-3.4 5.7-4.8 8.9.6-.3 1.3-.6 1.9-1 12-7.2 24-14.4 35.9-21.6 4.2-2.5 8.5-2 12.1 1.6l16.8 16.8c3.4 3.4 3.4 7.7 0 11.1l-66.4 66.4c-.5.5-1.1 1-1.4 1.3L33.6 106c.6 0 1.4-.2 2.2-.2 8.6 0 17.2-.1 25.8.1 1.1 0 2.5.6 3.2 1.4 11.1 11 22.1 22 33.2 33.1l1.7 1.7 39.3-39.3c-4.2 2.7-8.2 5.2-12.2 7.8-6.9 4.4-13.8 8.9-20.7 13.3-4.3 2.7-7.7 2.3-11.3-1.2-5.9-5.8-11.7-11.7-17.6-17.6-3.4-3.4-3.9-7-1.5-11.2C82 83 88.1 72.3 94.2 61.6c.2-.3.3-.7.5-1-.2-.1-.3-.2-.4-.3z"/>
  <path d="M56.3 6.7h17.3V37H56.3z" class="st1" transform="rotate(-45 64.95 21.87)"/>
  <path d="M34.8 28.3h17.3v30.3H34.8z" class="st1" transform="rotate(-45 43.4 43.42)"/>
  <path d="M13.6 49.4h17.3v30.3H13.6z" class="st1" transform="rotate(-45 22.24 64.58)"/>
  <path d="M169.5 49.4h17.3v30.3h-17.3z" class="st2" transform="rotate(44.6 178.14 64.5)"/>
  <path d="M148.2 28.1h17.3v30.3h-17.3z" class="st2" transform="rotate(44.6 156.78 43.28)"/>
  <path d="M126.9 7.1h17.3v30.3h-17.3z" class="st2" transform="rotate(44.6 135.5 22.24)"/>
  <g>
    <path d="M13.2 119.7h17.3V150H13.2z" class="st1" transform="rotate(-134.73 21.83 134.88)"/>
    <path d="M35 141.1h17.3v30.3H35z" class="st1" transform="rotate(-134.73 43.6 156.2)"/>
    <path d="M56 162.3h17.3v30.3H56z" class="st1" transform="rotate(-134.73 64.67 177.45)"/>
  </g>
  <g>
    <path d="M126.7 163H144v30.3h-17.3z" class="st1" transform="rotate(135.18 135.38 178.1)"/>
    <path d="M148.4 141.5h17.3v30.3h-17.3z" class="st1" transform="rotate(135.18 156.99 156.63)"/>
    <path d="M169.6 120.4h17.3v30.3h-17.3z" class="st1" transform="rotate(135.18 178.21 135.53)"/>
  </g>
</svg>
