<svg xmlns="http://www.w3.org/2000/svg" id="Livello_1" viewBox="0 0 200 200"><style>.st0,.st1{fill-rule:evenodd;clip-rule:evenodd;fill:#b38a50}.st1{fill:#cd2e32}</style><path d="M160.2 141.7h3.9v11.2h14.7l6.3 6.7v7.5l-6.4 6.7H174v-11.9h-13.6l-6.5-6.7v-6.9l6.3-6.6z" class="st0"/><path d="M165.8 141.7h12.7l6.6 6.6v2.8H174v-3h-8.3l.1-6.4zM172.2 173.8h-13.1l-5.2-6.7v-2.9l10.5.1v3h7.8v6.5zM129.3 141.8v32.1h-10.2v-32.1h10.2zM131.5 141.8h12.2l6 6v9.9l-6.2 6.3h-12v-6.2h7.7v-10h-7.7z" class="st0"/><path d="M145.4 163.6L144 165h-8.6l4.5 8.8h11.3z" class="st0"/><path d="M99.8 138l4.5 13.4 13.8.1-10.9 8.5 4.2 13.9-11.4-8.3-12.3 8.3 4.4-13.6-11.4-8.6 13.9-.2 5.2-13.5z" class="st1"/><path d="M78.4 150.5v23.3H67.6v-23.3h10.8zM58.9 141.7H87v7H58.9v-7M30.6 141.7h3.9v11.2h14.7l6.3 6.7v7.5l-6.4 6.7h-4.7v-11.9H30.8l-6.5-6.7v-6.9l6.3-6.6z" class="st0"/><path d="M36.1 141.7h12.7l6.6 6.6v2.8h-11v-3h-8.3v-6.4zM42.6 173.8H29.5l-5.2-6.7v-2.9l10.5.1v3h7.8v6.5z" class="st0"/><g><path d="M25 69.4c14.3 4.1 28.4 8.6 41.8 14.5 2.7 2.9 4.2 5.8 4.9 8.9-16.4.3-29.2-2.1-38.8-6.7-3.6-5.2-6-10.9-7.9-16.7zM57.9 110.8c7.3 1 14.7 1.5 22 1l8.9 19.3c-6.4-4.2-11.6-5.8-19.5-7.3-6.6-2.1-9.8-6.9-11.4-13z" class="st1"/></g><g><path d="M3243 72.2c14.3 4.1 28.4 8.6 41.8 14.5 2.7 2.9 4.2 5.8 4.9 8.9-16.4.3-29.2-2.1-38.8-6.7-3.6-5.3-5.9-10.9-7.9-16.7zM3276 113.5c7.3 1 14.7 1.5 22 1l8.9 19.3c-6.4-4.2-11.6-5.8-19.5-7.3-6.6-2.1-9.8-6.9-11.4-13z" class="st1" transform="matrix(-1 0 0 1 3418.04 -3)"/></g><path d="M133.1 81.4c17-7.7 35.1-13.6 53.2-18.4l8.7-22.4c-19.7 4.9-39.1 10.4-58.2 17-8.8-44.2-68.1-40-72.9.5-19.3-6.7-39-12.5-58.9-17.4l8.7 22.6c18.2 4.9 36.2 10.5 53.2 18.2 1.4.1 4.6 4.5 10.6 16.4l-2.7 1.6-1.9-4.5c-10.1-.1-20.2-1-30.3-3.3.3 4 1 7.9 2.6 11.6.4 1 1.5 3.1 2.2 3.2 15.1 2.5 26.9 3.8 34.5 1.8l9 22.8-2.5-26c5.1-3.9 8.3-9.5 9.1-17.5H86.2C83.9 75.1 80.9 66.4 77 63l-3.9-1.5c6-33 46.7-34.3 53.7-.3l-3.9 1.5c-3.9 3.4-6.9 12.3-9.2 24.9h-11.5c.8 8 4.1 13.6 9.1 17.5l-2.5 26 9-22.8c7.6 2 19.4.7 34.5-1.8.7-.1 1.8-2.2 2.2-3.2 1.6-3.7 2.3-7.6 2.6-11.6-10.1 2.3-20.2 3-30.3 3.1l-1.9 4.8-2.7-1.6c6.3-12.1 9.4-16.4 10.9-16.6z" class="st0"/><g><path d="M102.8 43.9l4.5 13.4 13.8.1-10.9 8.5 4.2 13.9-11.4-8.3-12.3 8.3 4.4-13.6-11.4-8.6 13.9-.2 5.2-13.5z" class="st0" transform="translate(-3)"/></g></svg>