<?xml version="1.0" encoding="utf-8"?>
<!-- Generator: Adobe Illustrator 22.1.0, SVG Export Plug-In . SVG Version: 6.00 Build 0)  -->
<svg version="1.0" id="Livello_1" xmlns="http://www.w3.org/2000/svg" xmlns:xlink="http://www.w3.org/1999/xlink" x="0px" y="0px"
	 viewBox="0 0 200 200" enable-background="new 0 0 200 200" xml:space="preserve">
<path d="M100,13c48,0,87,39,87,87s-39,87-87,87s-87-39-87-87S52,13,100,13 M100,5C47.5,5,5,47.5,5,100s42.5,95,95,95s95-42.5,95-95
	S152.5,5,100,5L100,5z"/>
<path d="M94.3,19c-8,0.6-16.7,2.5-24.3,5.5c-2.7,1.1-7.9,3.6-10.6,5.1C47.2,36.7,37,47,29.9,59.2c-1.5,2.6-4,7.8-5.1,10.6
	c-4,10.1-5.9,20.7-5.6,31.8c0.2,11.3,2.6,21.6,7.3,32c4.3,9.6,11.4,19.2,19.4,26.3c12.8,11.4,27.8,18.2,45,20.3
	c3.2,0.4,11.6,0.6,15,0.3c17.3-1.3,33.1-7.7,46.3-18.8c3.5-2.9,8.2-7.7,11.1-11.4c8.2-10.3,14-22.9,16.3-35.7
	c1-5.7,1.4-9.8,1.2-16.4c-0.1-5.2-0.3-7.8-1-12c-2.1-12.6-7.4-24.9-15.1-35c-3.3-4.3-8-9.5-11.9-12.8C139.3,26.8,123,20.2,105.3,19
	C102.6,18.8,97,18.8,94.3,19z M88.6,77.2l3,6.5l-2.7,5.2c-6.4,12.7-8.7,17.1-8.8,17.1c-0.1,0-4.1-8-8.9-17.7l-8.8-17.7l11.6,0
	l11.6,0.1L88.6,77.2z M137.6,70.6c0,0-2.3,4.7-5.1,10.3l-5.1,10.3l-0.3-0.6c-0.2-0.3-2.6-4.9-5.4-10.3c-2.8-5.3-5.1-9.7-5.1-9.7
	c0,0,4.7-0.1,10.5-0.1C132.9,70.6,137.6,70.6,137.6,70.6z M106.4,115.2l5.3,11.3l-5.1,11.3l-5.1,11.3l-5.6-11.1l-5.6-11.1l5.3-11.4
	c5.5-11.9,5.4-11.6,5.5-11.5C101.1,103.9,103.5,109,106.4,115.2z"/>
</svg>
