<svg xmlns="http://www.w3.org/2000/svg" id="Livello_1" version="1" viewBox="0 0 200 200"><style>.st1{fill:#3f3f3f}</style><path fill="#232323" d="M5 10.9c32.2 60.1 63.2 118 95.5 178.3 8.1-15.3 15.2-28.4 21.8-41.4C81.3 123.3 5 10.9 5 10.9z"/><path d="M123.7 133.8C103 94.9 82.1 56.1 61 17.4c-1.4-2.6-4.3-6.1-6.7-6.2-15.5-.6-31.2-.3-49.3-.3 0 0 76.3 112.4 117.3 136.9.8-1.7 1.7-3.3 2.5-5 1.1-2.3.3-6.5-1.1-9zM162.8 76c-18.2.2-33.1-14.5-33.1-32.7.1-17.8 14.4-32.3 32.2-32.5 18.2-.2 33.1 14.5 33.1 32.7-.1 17.8-14.4 32.3-32.2 32.5z" class="st1"/></svg>