<svg xmlns="http://www.w3.org/2000/svg" id="Livello_1" x="0" y="0" enable-background="new 0 0 200 200" version="1.1" viewBox="0 0 200 200" xml:space="preserve"><style>.st0{fill-rule:evenodd;clip-rule:evenodd;fill:#f60}</style><path d="M87.2 182.3c-23 0-43.2-9.3-58-24.1C14 143.4 5 122.8 5 100.2c0-23 9-43.2 24.1-58C43.9 27 64.2 18 87.2 18c22.6 0 43.2 9 58 24.1 4.7 4.7 9 10.1 12.5 16 7.4 12.1 11.7 26.7 11.7 42.2 0 12.1-2.7 23.9-7.4 34.1v.4c-3.9 8.6-9.7 16.7-16.4 23.4-15.2 14.8-35.5 24.1-58.4 24.1zm-.8-124.2c-11.3 0-21.4 4.7-29.2 12.1-7.8 7.8-12.5 18.3-12.5 30s4.7 22.2 12.5 29.6c7.8 7.8 18.3 12.1 30 12.1 9 0 17.5-2.7 24.1-7.4 0 0 3.9-2.9 5.5-4.5 7.8-7.8 12.1-18.3 12.1-29.6 0-11.7-4.7-22.4-12.1-30.2-7.8-7.4-18.3-12.1-29.6-12.1h-.8z" class="st0"/><defs><filter id="Adobe_OpacityMaskFilter" width="82.5" height="76.7" x="86.8" y="58.1" filterUnits="userSpaceOnUse"><feColorMatrix values="1 0 0 0 0 0 1 0 0 0 0 0 1 0 0 0 0 0 1 0"/></filter></defs><mask id="id0_2_" width="82.5" height="76.7" x="86.8" y="58.1" maskUnits="userSpaceOnUse"><linearGradient id="SVGID_1_" x1="1770.8629" x2="1770.8629" y1="1106.111" y2="1554.2776" gradientTransform="matrix(.072 0 0 .072 .336 .3876)" gradientUnits="userSpaceOnUse"><stop offset="0" stop-color="#fff"/><stop offset="1" stop-color="#fff" stop-opacity="0"/></linearGradient><path fill="url(#SVGID_1_)" fill-rule="evenodd" d="M86.4 57.8h82.9v76.7H86.4V57.8z" clip-rule="evenodd" filter="url(#Adobe_OpacityMaskFilter)"/></mask><path fill="#c22018" fill-rule="evenodd" d="M157.6 58.1c7.4 12.1 11.7 26.7 11.7 42.2 0 12.1-2.3 23.9-7.4 34.5l-50.6-.4c1.9-1.6 3.9-2.9 5.5-4.5 7.8-7.8 12.1-18.3 12.1-29.6 0-11.7-4.3-22-11.7-29.8C109.4 63.1 98.9 58 87.6 58h-.8l70.8.1z" clip-rule="evenodd" mask="url(#id0_2_)"/><path d="M86.4 18h95.4L195 37.9l-13.2 19.9-95.4.4V18z" class="st0"/></svg>