<svg xmlns="http://www.w3.org/2000/svg" id="Ebene_1" viewBox="0 0 200 200"><style>.st0{fill:#fa2922}</style><path d="M88.1 101.9V27.4c0-6.5 5.3-11.8 11.8-11.8s11.8 5.3 11.8 11.8V62c3.9-2.8 7.5-6.1 10.6-9.8V27.4C122.4 15 112.4 5 100 5S77.6 15 77.6 27.4v55.4c0 8.1 4.2 15.2 10.5 19.1z" class="st0"/><path d="M92.4 90.7l64.5-37.2c5.7-3.3 12.9-1.3 16.2 4.3s1.3 12.9-4.3 16.2l-29.9 17.3c4.4 2 9.1 3.4 13.8 4.3l21.4-12.3c10.7-6.2 14.4-19.9 8.2-30.6s-19.9-14.4-30.6-8.2l-48 27.7c-7 3.8-11 11-11.3 18.5z" class="st0"/><path d="M174.1 116.9l-48-27.7c-7-4-15.2-3.9-21.8-.4l64.5 37.2c5.7 3.3 7.6 10.5 4.3 16.2s-10.5 7.6-16.2 4.3L127 129.3c.5 4.8 1.6 9.5 3.2 14.1l21.4 12.3c10.7 6.2 24.4 2.5 30.6-8.2 6.3-10.7 2.6-24.4-8.1-30.6z" class="st0"/><path d="M111.8 98.1v74.5c0 6.5-5.3 11.8-11.8 11.8s-11.8-5.3-11.8-11.8v-34.5c-3.9 2.8-7.5 6.1-10.6 9.8v24.7c0 12.4 10 22.4 22.4 22.4s22.4-10 22.4-22.4v-55.4c0-8.1-4.2-15.1-10.6-19.1z" class="st0"/><path d="M107.6 109.3l-64.5 37.2c-5.7 3.3-12.9 1.3-16.2-4.3s-1.3-12.9 4.3-16.2l29.9-17.3c-4.4-2-9.1-3.4-13.8-4.3l-21.4 12.3c-10.7 6.2-14.4 19.9-8.2 30.6 6.2 10.7 19.9 14.4 30.6 8.2l48-27.7c7-3.8 11-11 11.3-18.5z" class="st0"/><path d="M25.9 83.1l48 27.7c7 4 15.2 3.9 21.8.4L31.2 74c-5.7-3.3-7.6-10.5-4.3-16.2s10.5-7.6 16.2-4.3L73 70.7c-.5-4.8-1.6-9.5-3.2-14.1L48.3 44.3c-10.7-6.2-24.4-2.5-30.6 8.2s-2.5 24.4 8.2 30.6z" class="st0"/></svg>