<?xml version="1.0" encoding="utf-8"?>
<!-- Generator: Adobe Illustrator 22.1.0, SVG Export Plug-In . SVG Version: 6.00 Build 0)  -->
<svg version="1.0" id="Layer_1" xmlns="http://www.w3.org/2000/svg" xmlns:xlink="http://www.w3.org/1999/xlink" x="0px" y="0px"
	 viewBox="0 0 200 200" style="enable-background:new 0 0 200 200;" xml:space="preserve">
<style type="text/css">
	.st0{fill:#303030;}
	.st1{fill:#FFFFFF;}
</style>
<circle class="st0" cx="100" cy="100" r="95"/>
<path id="Shape" class="st1" d="M100,22.8c8.5,0,15.4,6.9,15.4,15.4v123.7c0,8.5-6.9,15.4-15.4,15.4c-8.5,0-15.4-6.9-15.4-15.4
	c0,0,0,0,0,0V38.2C84.6,29.7,91.5,22.8,100,22.8C100,22.8,100,22.8,100,22.8z M100,27.7c-5.8,0-10.5,4.7-10.5,10.5l0,0v123.7
	c0,5.8,4.7,10.5,10.5,10.5c5.8,0,10.5-4.7,10.5-10.5V38.2C110.5,32.4,105.8,27.7,100,27.7L100,27.7z"/>
<path id="Shape-2" class="st1" d="M167,138.7c-4.2,7.4-13.7,9.9-21,5.6L38.8,82.5c-7.4-4.1-10.1-13.5-5.9-20.9
	c4.1-7.4,13.5-10.1,20.9-5.9c0.1,0.1,0.3,0.2,0.4,0.2l107.1,61.9C168.7,121.9,171.2,131.3,167,138.7z M162.7,136.2
	c2.9-5,1.2-11.4-3.8-14.3c0,0,0,0,0,0L51.8,60.1c-5-2.8-11.4-1-14.2,4c-2.8,5-1.1,11.2,3.8,14.1L148.4,140
	C153.4,142.9,159.8,141.2,162.7,136.2L162.7,136.2z"/>
<path id="Shape-3" class="st1" d="M167,61.3c4.2,7.4,1.7,16.8-5.6,21L54.2,144.2c-7.3,4.3-16.8,1.9-21.1-5.4s-1.9-16.8,5.4-21.1
	c0.1,0,0.2-0.1,0.2-0.1l107.1-61.9C153.3,51.5,162.7,54,167,61.3z M162.7,63.8c-2.9-5-9.3-6.7-14.3-3.8c0,0,0,0,0,0L41.3,121.8
	c-5,2.9-6.6,9.4-3.7,14.3c2.9,4.9,9.2,6.6,14.1,3.8l107.1-61.8C163.9,75.2,165.6,68.8,162.7,63.8C162.7,63.8,162.7,63.8,162.7,63.8
	L162.7,63.8z"/>
</svg>
