<svg xmlns="http://www.w3.org/2000/svg" id="Livello_1" x="0" y="0" version="1.0" viewBox="0 0 200 200" xml:space="preserve"><style>.st0{fill:#b02728}</style><path d="M95.5 77.2L80.8 88c-1.5-1-3.3-1.6-5.2-1.6-.4 0-.8.1-1.3.1L60.5 53.1c.5-.2 1-.5 1.4-.8l33.6 24.9zM118.7 103.5L101 146.1c-.3 0-.6-.1-1-.1s-.6.1-1 .1l-17.7-42.7c2.3-1.7 3.8-4.4 3.8-7.5 0-1.3-.3-2.6-.8-3.8L100 80.6l15.7 11.6c-.5 1.2-.8 2.4-.8 3.8 0 3 1.5 5.7 3.8 7.5zM100 73.8L65.4 48.2c.2-.3.2-.7.4-1h68.6c.1.3.2.7.4 1L100 73.8zM138.1 52.4c.4.3.9.5 1.4.8l-13.9 33.4c-.4-.1-.8-.1-1.3-.1-1.9 0-3.7.6-5.2 1.6l-14.6-10.8 33.6-24.9z" class="st0"/><path d="M100 5C47.5 5 5 47.5 5 100s42.5 95 95 95 95-42.5 95-95-42.5-95-95-95zm45.1 48.8l-14.5 35c2 1.7 3.3 4.3 3.3 7.1 0 5.2-4.2 9.5-9.5 9.5-.2 0-.4 0-.7-.1L106 148.2c2.1 1.7 3.5 4.4 3.5 7.3 0 5.2-4.2 9.5-9.5 9.5s-9.5-4.2-9.5-9.5c0-3 1.4-5.6 3.5-7.3l-17.8-42.9c-.2 0-.4.1-.7.1-5.2 0-9.5-4.3-9.5-9.5 0-2.9 1.3-5.4 3.3-7.1l-14.5-35c-4.4-.8-7.7-4.7-7.7-9.3 0-5.2 4.2-9.5 9.5-9.5 4.3 0 7.9 2.9 9 6.8h68.6c1.2-3.9 4.8-6.8 9-6.8 5.2 0 9.5 4.2 9.5 9.5.1 4.6-3.2 8.4-7.6 9.3z" class="st0"/></svg>