<?xml version="1.0" encoding="utf-8"?>
<!-- Generator: Adobe Illustrator 22.1.0, SVG Export Plug-In . SVG Version: 6.00 Build 0)  -->
<svg version="1.0" id="Livello_1" xmlns="http://www.w3.org/2000/svg" xmlns:xlink="http://www.w3.org/1999/xlink" x="0px" y="0px"
	 viewBox="0 0 200 200" style="enable-background:new 0 0 200 200;" xml:space="preserve">
<g transform="translate(0.000000,500.000000) scale(0.100000,-0.100000)">
	<path d="M916.5,4946.1c-23.1-2-62.9-7.4-88.9-11.8c-36.9-5.9-92.9-7.9-265.3-8.8l-218.2-1l-1-148.4l-1-147.9l-25.5-38.8
		c-112-171.5-150.3-390.1-107.6-612.7c44.2-228.5,168.5-440.2,373.4-635.3c109.6-104.2,262.9-213.2,388.2-276.6l29.5-14.7l29.5,14.7
		c100.2,50.6,251.6,153.8,334.1,227.5c162.6,145.4,261.9,270.7,340.5,428.4c145.9,293.3,137.6,626.5-20.6,868.7l-25.5,38.8l-1,147.9
		l-1,148.4l-218.6,1c-168.5,1-228.5,2.9-262.9,8.8C1080.1,4950,997.6,4953.9,916.5,4946.1z M1083.5,4838.5
		c112-11.8,237.3-47.2,330.7-93.4c27-13.3,50.1-24.6,51.1-24.6s1.5,2.9,1.5,6.9c0,7.9-29,31.9-79.1,66.8l-35.9,24.6h99.3h99.3
		v-112.5v-113l26-36.4c150.3-209.3,165.1-504.1,38.3-771.9c-87-184.3-244.7-364.1-447.6-509c-57.5-41.3-158.2-103.2-167.5-103.2
		c-13.3,0-150.3,87.5-210.8,134.6c-90.4,70.3-193.6,168.5-255,242.7c-210.8,254.5-286.4,565-201.9,826.4
		c21.1,64.9,91.9,195.6,113,208.8c2.9,2,4.9,45.7,4.9,118.4v115h98.8h98.8l-26-17.7c-46.7-31.4-93.8-71.7-89.4-75.7
		c2-2.5,21.6,4.4,43.2,15.2C737.1,4820.3,919.4,4855.2,1083.5,4838.5z"/>
	<path d="M675.7,4632.1c-124.3-33.4-223.6-122.8-258-232.4c-27-85.5-34.9-197-19.2-278.6c55.5-293.8,332.1-510.5,630.9-494.3
		c279.1,14.7,502.1,206.4,570.9,489.4c8.4,35.4,8.4,173.9,0,213.7c-13.8,61.4-31,109.6-50.6,140.5
		c-44.7,69.3-122.8,128.7-203.4,155.3c-52.6,17.2-145.9,21.6-200.5,9.3c-36.9-8.4-87.5-30-125.3-54l-20.6-12.8l-18.7,11.8
		c-29.5,18.7-65.3,35.4-99.3,47.2C834.9,4643.4,727.3,4645.9,675.7,4632.1z M854.6,4516.1c39.8-9.8,83-33.9,116.9-65.3l28.5-26
		l28.5,26c52.6,49.1,113.5,73.2,185.7,74.2c78.6,0.5,145.4-26,198.5-79.6c66.8-67.8,89.9-143,79.1-258
		c-12.3-124.3-58.5-224-144.9-309.5c-66.8-66.3-142-108.6-233.9-131.7c-59.5-14.7-166.6-14.7-226,0
		c-147.9,36.9-264.3,130.2-329.2,264.3c-29,59-41.8,104.2-49.1,171c-11.8,104.2,6.9,178.8,60.9,245.2
		C636.9,4509.3,744,4542.7,854.6,4516.1z"/>
	<path d="M634.5,4365.3c-4.4-22.6,4.4-85.5,16.7-117.4c21.1-57.5,60.9-100.7,116.4-127.3c35.4-17.2,86-29,122.8-29H916l2.9-18.2
		c10.8-67.3,23.6-99.3,52.1-131.7c23.6-27,32.4-30,46.7-16.7c30.5,28.5,56.5,85.5,62.9,138.6l3.4,28h24.6
		c66.3,0,144,30.5,186.2,73.2c51.6,52.6,72.7,113.5,69.3,201.4l-0.5,16.7l-38.3-2.9c-148.9-11.3-242.2-108.6-248.1-258l-1-31
		l-21.1-10.3c-17.7-8.4-27.5-9.8-59-7.9c-21.6,1.5-45.7,6.4-55.5,11.3c-17.7,8.4-18.2,8.8-18.7,41.8c-2,98.8-54,185.7-134.1,223.6
		c-39.3,18.7-91.4,31.9-127.3,31.9C638.4,4381.5,637.4,4381,634.5,4365.3z"/>
</g>
</svg>
