<?xml version="1.0" encoding="utf-8"?>
<!-- Generator: Adobe Illustrator 22.1.0, SVG Export Plug-In . SVG Version: 6.00 Build 0)  -->
<svg version="1.0" id="Livello_1" xmlns="http://www.w3.org/2000/svg" xmlns:xlink="http://www.w3.org/1999/xlink" x="0px" y="0px"
	 viewBox="0 0 200 200" style="enable-background:new 0 0 200 200;" xml:space="preserve">
<style type="text/css">
	.st0{fill:#F2F2F2;}
	.st1{fill:url(#SVGID_1_);}
</style>
<g>
	<g>
		<path class="st0" d="M121.5,79.1C121.5,79,121.5,79,121.5,79.1c-4-3.4-23.9-11-39.8-14.7c-34.1-8-30.3-44.1-30-47.3
			c-8,8.4-12.8,19.7-12.8,32.2c0,16.9,0,24.5,0,39.6c0,15.1,0.3,28.6,0.3,47.5c0,33.8,27.3,61.2,60.9,61.2c33.7,0,61-27.4,61-61.2
			C161.1,110.1,144.6,87.7,121.5,79.1z"/>
	</g>
</g>
<g>
	<g>
		<linearGradient id="SVGID_1_" gradientUnits="userSpaceOnUse" x1="51.4217" y1="40.7841" x2="132.1466" y2="40.7841">
			<stop  offset="0" style="stop-color:#656363"/>
			<stop  offset="1" style="stop-color:#9A9A9A"/>
		</linearGradient>
		<path class="st1" d="M85.5,2.5c-13.3,0-25.3,5.6-33.8,14.6c-0.4,3.1-4.3,40.1,30,47.3c11.7,2.4,35.8,11.3,39.8,14.7
			c6.6-8.1,10.7-18.6,10.7-29.8C132.1,23.5,111.3,2.5,85.5,2.5z"/>
	</g>
</g>
</svg>
