<?xml version="1.0" encoding="utf-8"?>
<!-- Generator: Adobe Illustrator 22.1.0, SVG Export Plug-In . SVG Version: 6.00 Build 0)  -->
<svg version="1.0" id="Livello_1" xmlns="http://www.w3.org/2000/svg" xmlns:xlink="http://www.w3.org/1999/xlink" x="0px" y="0px"
	 viewBox="0 0 200 200" enable-background="new 0 0 200 200" xml:space="preserve">
<linearGradient id="SVGID_1_" gradientUnits="userSpaceOnUse" x1="5" y1="63.6808" x2="105.6802" y2="63.6808">
	<stop  offset="2.590674e-03" style="stop-color:#EFF9FA"/>
	<stop  offset="1" style="stop-color:#AEDDE5"/>
</linearGradient>
<path fill="url(#SVGID_1_)" d="M5,103.1c1.1-4.2,2-8.4,3.3-12.6c2.3-7.8,5.7-15.1,8.8-22.6c3-7.3,5.8-14.7,8.8-22.1
	c1.8-4.4,3.9-8.5,6.8-12.3c4.2-5.6,10-8.2,16.7-9c9-1.1,17.6,0.2,25.8,3.8C85,32.5,92.3,39.7,97.7,49c3.2,5.5,5.8,11.2,6.8,17.6
	c1.2,7,1.7,14,0.3,20.9c-0.3,1.6-1,3.3-1.9,4.8c-1.3,2.2-3.6,2.7-5.7,1.2c-1.2-0.8-2.5-1.8-3.3-3c-2.9-3.9-6.8-6.5-10.9-8.8
	c-6.5-3.8-13.3-6.7-20.7-7.9c-4.7-0.8-9.4-0.4-14,0.5c-6.1,1.2-12.1,2.5-17.8,4.9c-6,2.5-11.2,6.1-15.6,10.8
	c-1.5,1.6-2.6,3.5-3.9,5.4c-1.6,2.3-3,4.6-4.6,6.9c-0.3,0.4-0.7,0.7-1.1,1.1C5.3,103.2,5.1,103.2,5,103.1z"/>
<linearGradient id="SVGID_2_" gradientUnits="userSpaceOnUse" x1="93.5678" y1="138.7829" x2="194.6925" y2="138.7829">
	<stop  offset="0" style="stop-color:#4688CE"/>
	<stop  offset="1" style="stop-color:#1FC3D8"/>
</linearGradient>
<path fill="url(#SVGID_2_)" d="M93.6,125.2c0.2-4.4,0.6-8.6,2.1-12.7c0.7-1.8,1.6-3.5,3.1-4.8c0.4-0.3,1.1-0.4,1.5-0.3
	c1.6,0.3,2.7,1.2,3.9,2c1,0.7,1.9,1.7,2.7,2.7c3.8,4.9,8.9,8.2,14.3,10.9c18.9,9.4,42.5,6.9,59-6.2c4.8-3.8,8.6-8.5,12.2-13.4
	c0.7-0.9,1.1-2.1,1.7-3.2c0.2-0.3,0.4-0.5,0.7-0.7c0,0.3,0.1,0.6,0,0.9c-1.4,4.6-2.6,9.3-4.4,13.8c-4.1,10.7-8.5,21.4-12.8,32
	c-2.3,5.6-4.7,11.2-7.3,16.8c-1.7,3.5-4,6.6-6.9,9.3c-3.7,3.4-8.2,4.7-13,5.4c-17.6,2.6-37.3-6.2-48-24.2
	c-3.8-6.4-6.7-13.2-7.9-20.6C93.9,130.4,93.8,127.8,93.6,125.2z"/>
<linearGradient id="SVGID_3_" gradientUnits="userSpaceOnUse" x1="48.822" y1="146.767" x2="147.4922" y2="146.767">
	<stop  offset="2.590674e-03" style="stop-color:#EFF9FA"/>
	<stop  offset="1" style="stop-color:#AEDDE5"/>
</linearGradient>
<path fill="url(#SVGID_3_)" d="M147.5,182.3c-2,1.4-4.2,2.2-6.5,2.6c-4.4,0.7-8.8,1.3-13.3,1.6c-6.3,0.4-12.5,1.4-18.8,2.5
	c-9.3,1.6-18.6,3-28,2.8c-3.6-0.1-7.3-0.6-10.8-1.3c-7-1.5-11.5-6.2-15-12.2c-3.3-5.8-5-12-5.9-18.5c-0.9-7.4-0.6-14.7,1.4-21.9
	c1.1-3.9,2.7-7.5,5-10.8c3.1-4.5,6.4-8.9,10.3-12.8c5.7-5.7,12.4-9.6,20.3-11.4c1.7-0.4,3.3-1,5-0.9c3.1,0.2,4.6,2.1,3.9,5.2
	c-0.2,0.9-0.5,1.8-0.9,2.6c-2,4.3-2.8,8.9-3,13.5c-0.7,18.8,6,34.5,20.3,46.8c6.9,6,15,9.6,24.1,11c3.4,0.5,6.9,0.8,10.3,1.1
	c0.3,0,0.6,0.1,0.9,0.1C147.2,182.1,147.3,182.2,147.5,182.3z"/>
<linearGradient id="SVGID_4_" gradientUnits="userSpaceOnUse" x1="50.6136" y1="53.4626" x2="150.6638" y2="53.4626">
	<stop  offset="0" style="stop-color:#4688CE"/>
	<stop  offset="1" style="stop-color:#1FC3D8"/>
</linearGradient>
<path fill="url(#SVGID_4_)" d="M50.6,19.8c0.3-0.3,0.4-0.4,0.6-0.5c3.5-1.3,7-2.8,10.8-3.3c8.5-1.1,17-2.6,25.5-3.8
	c8.2-1.2,16.3-2.7,24.5-3.6c5.4-0.6,10.9-0.5,16.3,0.6c5.9,1.2,10.2,4.8,13.7,9.4c4.2,5.5,6.5,11.8,7.8,18.6
	c2.1,11.9,0.9,23.3-4.7,34.1c-7,13.4-17.5,22.8-32.3,26.9c-1.1,0.3-2.3,0.4-3.5,0.5c-1.5,0.1-2.5-0.8-3.5-1.7
	c-0.2-0.2-0.3-0.7-0.2-1c0.3-2.1,0.4-4.3,1.1-6.3c2.1-6.3,2.9-12.8,2-19.3c-1-7.7-3.3-15.1-6.8-22c-8-15.7-21-24.7-38.3-27.5
	c-3.9-0.6-7.8-0.7-11.7-1C51.5,19.8,51.2,19.8,50.6,19.8z"/>
<linearGradient id="SVGID_5_" gradientUnits="userSpaceOnUse" x1="6.2396" y1="129.7611" x2="94.3551" y2="129.7611">
	<stop  offset="0" style="stop-color:#4688CE"/>
	<stop  offset="1" style="stop-color:#1FC3D8"/>
</linearGradient>
<path fill="url(#SVGID_5_)" d="M53.9,183.2c-5.3-2.6-8.6-7-11.7-11.6c-4.8-7.2-10.6-13.6-16.2-20.2c-5.7-6.7-11.3-13.6-15.4-21.4
	c-2-3.8-3.6-7.7-4.1-12c-0.6-4.7,0.1-9.1,2.1-13.4c4.3-9.5,11.4-16.3,20.3-21.5c16.4-9.5,41-9.7,58.5,4.4c1.7,1.4,3.4,2.7,4.9,4.3
	c0.9,0.9,1.3,2.2,1.9,3.4c0.5,1,0.2,1.9-0.6,2.5c-1.1,0.8-2.4,1.7-3.7,2.1c-2.7,0.9-5.6,1.3-8.2,2.3c-18.9,7.4-30.4,21.2-35,40.9
	c-2.9,12.7-0.8,24.7,5,36.1C52.4,180.4,53.1,181.7,53.9,183.2z"/>
<linearGradient id="SVGID_6_" gradientUnits="userSpaceOnUse" x1="106.9936" y1="70.3888" x2="195" y2="70.3888">
	<stop  offset="2.590674e-03" style="stop-color:#EFF9FA"/>
	<stop  offset="1" style="stop-color:#AEDDE5"/>
</linearGradient>
<path fill="url(#SVGID_6_)" d="M145.1,16.8c1.1,0.9,2.4,1.6,3.4,2.7c2.9,3.1,5.9,6.2,8.6,9.5c7.8,9.6,15.9,18.9,24.1,28.2
	c4.8,5.5,8.7,11.5,11.7,18.2c2.6,5.7,2.9,11.4,0.3,17.2c-2.3,5.2-5,10.2-8.5,14.6c-3.2,4-7.4,6.8-11.9,9.1
	c-10.4,5.4-21.3,8.2-33.1,7.6c-8-0.4-15.4-2.7-21.8-7.6c-1.9-1.4-4-2.5-5.8-3.9c-1.4-1.1-2.8-2.3-3.9-3.6c-1.9-2.4-1.6-4.2,1.1-6.2
	c0.8-0.6,1.8-1,2.8-1.2c5.1-0.9,9.6-3.4,14.1-5.7c9.9-5,16.5-13.1,21.7-22.6c3.4-6.3,5.6-12.9,6.5-20c0.9-7.1-0.1-13.9-2.3-20.6
	c-1.6-4.9-3.5-9.7-6.4-14c-0.3-0.4-0.5-0.9-0.8-1.3C145,17,145.1,16.9,145.1,16.8z"/>
</svg>
