<svg xmlns="http://www.w3.org/2000/svg" viewBox="0 0 200 200"><circle cx="100" cy="100" r="95" fill="#00aeef"/><path fill="#fff" d="M99.6 160.8c-36.9 0-46.1-4.6-46.1-25.8 0-11.8 1.2-12.2 18-12.2 12.5 0 17.1 1.5 17.1 5.7 0 3.8 3.8 5.7 11.4 5.7 10.3 0 11.4-1.1 11.4-11.4 0-11 0-11-25.5-12.2-22.4-1.1-29-2.3-32.4-9.9-1.1-2.6 0-23.6 0-23.6 0-36.8 4.3-41.8 46.8-41.8 36.9 0 46.1 4.6 46.1 25.8 0 11.8-1.2 12.2-18 12.2-12.5 0-17.1-1.5-17.1-5.7 0-3.8-3.8-5.7-11.4-5.7-10.3 0-11.4 1.1-11.4 11.4 0 11 0 11 25.5 12.2 22.4 1.1 29 2.3 32.4 9.9 1.1 2.6 0 23.6 0 23.6.1 36.9-5 41.8-46.8 41.8z"/></svg>