<?xml version="1.0" encoding="utf-8"?>
<!-- Generator: Adobe Illustrator 22.1.0, SVG Export Plug-In . SVG Version: 6.00 Build 0)  -->
<svg version="1.1" id="Livello_1" xmlns="http://www.w3.org/2000/svg" xmlns:xlink="http://www.w3.org/1999/xlink" x="0px" y="0px"
	 viewBox="0 0 200 200" style="enable-background:new 0 0 200 200;" xml:space="preserve">
<style type="text/css">
	.st0{fill:#00A690;}
</style>
<g>
	<g>
		<rect x="5" y="51" class="st0" width="79.2" height="4.2"/>
	</g>
	<g>
		<rect x="5" y="61.4" class="st0" width="79.2" height="4.2"/>
	</g>
</g>
<g>
	<g>
		<rect x="37.3" y="70.8" class="st0" width="4.2" height="79.2"/>
	</g>
	<g>
		<rect x="47.7" y="70.8" class="st0" width="4.2" height="79.2"/>
	</g>
</g>
<g>
	<g>
		<polygon class="st0" points="99.1,55.8 136.7,94.8 133.8,97.7 96.1,58.7 		"/>
		<polygon class="st0" points="187.7,147.6 184.7,150.5 148.1,112.6 151.1,109.6 		"/>
	</g>
	<g>
		<polygon class="st0" points="106.4,49.5 143.5,88 140.5,90.9 103.4,52.4 		"/>
		<polygon class="st0" points="195,141.3 192,144.2 154.9,105.8 157.8,102.8 		"/>
	</g>
</g>
<g>
	<g>
		
			<rect x="85.4" y="101" transform="matrix(0.6948 -0.7192 0.7192 0.6948 -28.6267 138.759)" class="st0" width="127.6" height="4.2"/>
	</g>
	<g>
		
			<rect x="78.1" y="94.8" transform="matrix(0.6948 -0.7192 0.7192 0.6948 -26.3731 131.6412)" class="st0" width="127.6" height="4.2"/>
	</g>
</g>
</svg>
