<svg xmlns="http://www.w3.org/2000/svg" version="1" viewBox="0 0 200 200"><path fill="#00BFFE" d="M127 95s12-3.5 12-23c0-23-25-24-25-24H67c-9 0-9 9-9 9v94h53c15 0 32-9 32-32 0-16.5-16-24-16-24zM78.5 65.5h28s12 0 12 11-12 11-12 11h-28v-22zm29.64 68H78.5v-28h29.64s15.27 0 15.27 14-15.27 14-15.27 14z"/><path fill="#414042" d="M99 5C68.46 5 41.29 19.41 23.92 41.8l11.38 7.36C50.23 30.47 73.22 18.5 99 18.5c45.01 0 81.5 36.49 81.5 81.5 0 13.42-3.25 26.09-9 37.26l11.39 7.36C189.98 131.32 194 116.13 194 100c0-52.47-42.53-95-95-95z"/><path fill="#00BFFE" d="M162.4 151.21c-14.94 18.48-37.79 30.29-63.4 30.29-45.01 0-81.5-36.49-81.5-81.5 0-11.19 2.27-21.85 6.34-31.55L28 72l-1-23L7 61l4.95.92C6.84 73.57 4 86.45 4 100c0 52.47 42.53 95 95 95 30.37 0 57.4-14.24 74.79-36.42l-11.39-7.37z"/></svg>