<svg xmlns="http://www.w3.org/2000/svg" viewBox="0 0 200 200"><path d="M194.3 82l-31.2-54c-.5-.7-1.2-1.4-1.9-1.9l-27.4-16c-.7-.5-1.6-.7-2.6-.7l-62.6.3c-.9 0-1.9.2-2.6.7L39 26.2c-.7.5-1.4 1.2-1.9 1.9L5.7 82c-.5.7-.7 1.6-.7 2.6l.2 31.9c0 .9.2 1.9.7 2.6l31.2 53.7c.5.7.9 1.4 1.9 1.9l27.2 15.2c.7.5 1.6.7 2.6.7l62.6.2c.9 0 1.9-.2 2.6-.7l26.5-15.7c.7-.5 1.4-1.2 1.9-1.9l31.9-54c.5-.7.7-1.6.7-2.6V84.6c0-1-.2-1.9-.7-2.6zm-27.7-22.8l-10.3 17.6-17.6-10.1 10.8-16.4 17.1 8.9zm-66.7 66.2l-21.5-12.5L78 87l22-11.8L122 88l-.6 25-21.5 12.4zm11.6 5.4l-4.7 7.8-7.3 4.5 4.5-8.1 7.5-4.2zm-19-69.7l8.9-5.2-4.6 8.5-9.5 5.4 5.2-8.7zm37 12.5l9.3 5.4-10 .2-9.3-5.5c4.7-.1 8.9-.1 10-.1zM128.4 63l-19.3.2 9.3-16.7 20 1.2-10 15.3zm9.1-26l-19.2-1.1-9.1-15.9 18.5-.1 9.8 17.1zm-29.2 2.3L90.6 49.8l-9-17.4 16.9-10.1 9.8 17zM74 40.7l8.5 16.5-9.9 16.5-9.5-15.6L74 40.7zm-6.6 44.8l.2 10.7-5.5-9.2-.1-10.4 5.4 8.9zm-3.8 25.1l-19 .4-9.3-17.4 18.7.6 9.6 16.4zm8.1 10.6l9.3 5.4-10.4.2-9.5-5.4 10.6-.2zm.5 16.1l18.9-.4-9 16.2-19.9-.8 10-15zm54.3-11l9.6 16.5-10.7 16.7-9.2-16.3 10.3-16.9zm5.4-11.5l.2-10.8 5.9 10.3-.1 10.8-6-10.3zm4.4-24.8l18.6-.5 9.3 18.4-18.2-.9-9.7-17zm23.8-46.1l-9.6-5-5.9-10.3 10.1 5.8 5.4 9.5zM69.7 20.1H82l-7.8 4.7-12.7.2 8.2-4.9zM44.8 35.7l20-.2L53.7 53l-18.9-.1 10-17.2zm6.8 27.8l.3 20.5-20.1-.7-.5-20.1 20.3.3zm-36 22.2l5.5-9.3.3 10.7-5.6 10-.2-11.4zm1.1 30.7L26.6 99l9.1 17-9.7 16.6-9.3-16.2zm28.9 49.8l-6-10.4 9.5 5 6.1 10.8-9.6-5.4zm5.4-16.3l-17.8-9.4 10.1-17.1 18.2 10.4L51 149.9zM71.9 180L62 162.8l19.8.7 9.4 16.6-19.3-.1zM92 160.3l16-10.1 9.9 17.6-16 10.1-9.9-17.6zm38 20h-12.3l8.1-5.1h12.8l-8.6 5.1zm24.6-15.5h-19.9l11.2-17.2h19l-10.3 17.2zm-6.5-27.5l.2-20.1 19.2.9.7 19.2h-20.1zm16.1-53.8l9.5-16.1 9.9 17.2-10.3 17-9.1-18.1zm20.2 31.1l-6.4 10.7-.4-10.1 6.7-11.2v10.6z"/></svg>