<?xml version="1.0" encoding="utf-8"?>
<!-- Generator: Adobe Illustrator 22.1.0, SVG Export Plug-In . SVG Version: 6.00 Build 0)  -->
<svg version="1.1" id="Livello_1" xmlns="http://www.w3.org/2000/svg" xmlns:xlink="http://www.w3.org/1999/xlink" x="0px" y="0px"
	 viewBox="0 0 200 200" style="enable-background:new 0 0 200 200;" xml:space="preserve">
<style type="text/css">
	.st0{fill:#F78E1E;}
</style>
<g transform="translate(-.012 .996)">
	<polygon class="st0" points="178.4,77 169.1,84.8 178.6,92.8 197.5,77 	"/>
	<polygon points="117.7,64.8 155.3,96.4 143.4,106.4 118.7,77 102.7,77 59.7,128.1 75.8,128.1 110.7,86.6 120.8,98.6 107.6,98.6 
		100.9,106.6 127.5,106.6 135.3,115.8 151.3,115.8 151.3,115.8 164.8,104.4 178.4,115.8 197.5,115.8 136.8,64.8 	"/>
	<polygon points="71.2,77 61.6,103.5 51.9,77 35.9,77 26.2,103.6 16.6,77 3.5,77 17.6,115.8 34.9,115.8 43.9,90.9 53,115.8 
		70.2,115.8 84.3,77 	"/>
</g>
</svg>
