<svg xmlns="http://www.w3.org/2000/svg" viewBox="0 0 200 200"><path fill="#283948" d="M113.4 107.7c0-7.1-4.3-9.6-12.7-10.7-6.2-.9-7.4-2.4-7.4-5.2 0-2.7 2.1-4.7 6.1-4.7 3.6 0 5.8 1.3 6.6 4.2.2.7.8 1.1 1.4 1.1h3.2c.9 0 1.6-.8 1.4-1.7-1-4.7-4.2-7.5-9-8.3v-4.9c0-.8-.7-1.5-1.5-1.5h-2.9c-.8 0-1.5.7-1.5 1.5v4.7c-6.1.9-10 4.9-10 10.1 0 6.7 4.1 9.3 12.6 10.4 5.8.9 7.5 2.2 7.5 5.5s-2.8 5.5-6.7 5.5c-5.3 0-7.1-2.3-7.7-5.3-.2-.7-.8-1.2-1.5-1.2h-3.5c-.9 0-1.6.8-1.4 1.6.9 5.1 4.2 8.8 10.8 9.7v4.8c0 .8.7 1.5 1.5 1.5h3c.8 0 1.5-.7 1.5-1.5v-4.8c6.2-1 10.2-5.4 10.2-10.8z"/><path fill="#657686" d="M89.5 129.1c-11.7-4.3-20-15.5-20-28.7s8.4-24.4 20-28.7c.7-.3 1.3-1.1 1.3-1.9V67c0-1.2-.9-1.8-2-1.4-14.8 4.7-25.4 18.5-25.4 34.9s10.7 30.2 25.4 34.9c1.1.4 2-.3 2-1.4v-2.8c0-.9-.5-1.8-1.3-2.1zm21.7-63.5c-1.1-.4-2 .3-2 1.4v2.8c0 .8.6 1.6 1.3 1.9 11.7 4.3 20 15.5 20 28.7s-8.4 24.4-20 28.7c-.8.3-1.3 1.1-1.3 1.9v2.8c0 1.2.9 1.8 2 1.4 14.8-4.7 25.5-18.6 25.5-34.9s-10.8-30-25.5-34.7z"/><linearGradient id="a" x1="82.7" x2="82.7" y1="5" y2="195" gradientTransform="matrix(1 0 0 -1 0 200)" gradientUnits="userSpaceOnUse"><stop offset="0" stop-color="#966fe7"/><stop offset="1" stop-color="#00d18f"/></linearGradient><path fill="url(#a)" d="M140.4 153.4c-11.2 8.5-25.3 13.6-40.4 13.6-36.9 0-67-30.1-67-67s30.1-67 67-67c14.6 0 28.2 4.7 39.2 12.7l19.6-20.4C142.6 12.6 122.2 5 100 5 47.5 5 5 47.5 5 100s42.5 95 95 95c22.9 0 44-8.1 60.4-21.6l-20-20z"/></svg>