<svg xmlns="http://www.w3.org/2000/svg" id="Livello_1" x="0" y="0" version="1.1" viewBox="0 0 200 200" xml:space="preserve"><style>.st1{fill:#3b3735}.st3{fill:#959190}</style><linearGradient id="SVGID_1_" x1=".2525" x2=".0363" y1="199.9875" y2="199.7326" gradientTransform="matrix(560.0001 0 0 -560.001 20.0009 112020.1953)" gradientUnits="userSpaceOnUse"><stop offset="0" stop-color="#b6509e"/><stop offset="1" stop-color="#2ebac6"/></linearGradient><path fill="url(#SVGID_1_)" d="M100 195c-66.5 1.3-114.3-71.3-87.3-132.2 32.1-77 142.6-77 174.7 0 26.9 60.9-20.9 133.5-87.4 132.2zm0-180.2c-59-1.4-102.2 64-78 118.1 28.2 68.6 127.7 68.6 156 0 24.2-54-19-119.5-78-118.1z"/><path d="M102.2 136.9V173l44.6-62.8-44.6 26.7zM145.1 98.4l-43-71.3V79l43 19.4z" class="st1"/><path fill="#1f1d19" d="M102.2 83v44.2l42.6-24.7L102.2 83z"/><path d="M55.1 98.4l43-71.3V79l-43 19.4z" class="st3"/><path fill="#403c3a" d="M98.1 83v44.2l-42.6-24.7L98.1 83z"/><path d="M98.1 136.9V173l-44.6-62.8 44.6 26.7z" class="st3"/></svg>