<?xml version="1.0" encoding="utf-8"?>
<!-- Generator: Adobe Illustrator 22.1.0, SVG Export Plug-In . SVG Version: 6.00 Build 0)  -->
<svg version="1.0" id="Livello_1" xmlns="http://www.w3.org/2000/svg" xmlns:xlink="http://www.w3.org/1999/xlink" x="0px" y="0px"
	 viewBox="0 0 200 200" enable-background="new 0 0 200 200" xml:space="preserve">
<g transform="translate(0.000000,1920.000000) scale(0.100000,-0.100000)">
	<path d="M946.2,19148.4c-8.8-1.2-27-3.2-40.3-4.6c-43.8-4.8-93.1-13.6-116.4-20.5c-3.7-1.2-11.1-2.8-16.1-3.7
		c-9.9-1.6-15.7-3.2-55.3-16.4c-121.9-39.9-225.6-98.4-323.8-182.5c-50.5-43.3-114.1-112.2-148.2-160.6
		c-7.1-10.1-13.8-19.4-14.8-20.7c-4.8-6-35.5-54.9-44.9-71.4c-14.8-26.5-30.4-58.1-42.4-86.2c-5.8-13.4-11.3-26.5-12.4-29
		c-9-20.1-32.7-92.9-38-115.2c-1.6-7.6-4.1-18-5.3-23c-27.2-109-31.1-270.8-9.7-382.6c1.4-6.2,3.9-20.1,5.8-30.7
		c1.8-10.4,3.9-20.1,4.8-21.4c0.7-1.4,2.8-8.8,4.6-16.6c7.4-32.5,27.2-92.4,39.2-118.5c1.8-3.9,3.2-7.8,3.2-8.5
		c0-5.1,37.6-81.6,53.7-109.7c12.9-22.4,37.8-61.8,40.8-64.5c0.7-0.7,4.4-5.8,8.1-11.5c10.4-15.7,28.1-38.5,43.6-56.5
		c7.8-8.8,16.6-19.1,19.8-23c9.2-11.3,75.8-77.2,94-93.1c26-22.8,48.4-39.9,79.3-60.6c30.4-20.7,59-38.7,60.8-38.7
		c0.7,0,9.7-5.1,20.1-11.1c18.2-10.6,57.2-30.4,59.9-30.4c0.9,0,9-3.5,18.2-7.6c50.5-23.3,109.2-42.6,164.3-54.4
		c12.7-2.8,29.7-6.5,38-8.3c32.7-7.4,78.8-12.4,147.7-16.1c46.8-2.8,162,6.5,204.9,16.1c8.3,1.8,20.3,4.4,26.5,5.5
		c27.4,5.5,38.5,8.3,63.4,15.7c24.9,7.6,38,12,73.8,25.4c8.3,3,17.5,6.5,20.7,7.6c3.2,0.9,12.2,5.1,20.3,9
		c7.8,3.9,15.2,7.1,16.1,7.1c2.3,0,65.5,32.3,77.7,39.6c33.2,20.3,42.9,26.3,50.7,31.6c10.8,7.1,51.6,36.6,56.5,41
		c1.8,1.6,13.6,11.3,26,21.4c102.6,83.7,189.7,194.5,247.1,314.6c26,54.4,30.9,66.1,47.2,116.4c15.7,47.2,19.1,60.4,19.4,70.1
		l0.2,9.4h-161.1h-161.3l-8.5-16.1c-4.8-8.8-8.8-17.5-8.8-19.1c-0.2-1.6-4.1-11.1-9-20.7c-35-70.1-68.4-116.8-121.5-170.1
		c-31.3-31.6-35.7-35.5-55.5-50.9c-66.1-51.9-135.1-88.3-213-112.2c-53.9-16.8-120.3-27-174-26.7c-41,0.2-105.3,5.8-130.2,11.5
		c-53.5,12.2-71,16.8-83,21.7c-4.4,1.6-14.3,5.5-21.9,8.3c-46.3,17.5-106.9,50-139.4,74.9c-6.9,5.3-14.3,10.6-16.4,11.8
		c-3.9,2.1-19.1,14.8-38.9,31.8c-48.6,42.6-97.5,102.3-129.3,158.1c-24.2,42.9-49.3,99.3-55.1,124.5c-0.9,4.4-3.5,12.7-5.3,18.4
		c-8.5,25.6-15.9,65.5-22.4,121c-5.5,46.8-0.5,129.3,11.5,184.4c2.8,12.7,5.8,26.7,6.7,31.1c3.9,18.2,33.4,98,38.5,103.9
		c1.8,1.8,3.2,4.8,3.2,6.2c0,4.1,16.1,33.4,40.3,73.8c6.9,11.5,13.4,20.3,33.2,45.4c75.6,95.4,171.2,165.2,281.4,205.6
		c39.4,14.3,103,30.2,133.7,33.2c69.4,6.5,98.6,7.4,128.8,3.5c16.1-2.1,33.9-3.7,38.9-3.7c9.9,0,50-8.3,78.8-16.4
		c9.4-2.5,22.6-6.2,28.8-7.8c23.3-6.5,73.3-26.3,77.9-30.9c1.4-1.4,3.5-2.5,4.6-2.5c5.5,0,48.2-23.7,76.5-42.6
		c50-33.6,96.3-74,130.2-114.1c8.1-9.4,16.6-19.4,18.9-21.9c6-6.2,45.2-65.5,56.5-85.3c8.3-14.5,14.1-25.8,28.6-58.1
		c12.9-28.8,14.1-30.7,20.1-32.3c3.2-0.7,75.4-0.7,160.4,0c121.9,1.2,154.6,2.1,156.3,4.4c2.3,3.5,0.7,14.8-3.9,29.5
		c-1.8,5.8-7.1,22.4-11.5,36.9c-12.7,40.6-18.2,55.1-39.4,102.6c-13.8,30.9-17.7,38.9-33.9,68c-14.1,25.1-13.8,24.7-46.6,75.8
		c-30.2,47-99.3,126.8-141.7,163.9c-59.7,52.1-59.9,52.3-95.6,77c-3.7,2.8-7.4,5.3-8.1,6c-1.4,1.4-15.7,10.8-33.4,21.9
		c-60.6,38.3-114.5,64.1-199.4,95.2c-51.9,19.1-123.1,35-198.2,44.5C1080.1,19149.3,974.3,19151.9,946.2,19148.4z"/>
	<path d="M948.7,18611.9c-1.8-3-2.1-78.1-0.2-81.1c0.7-1.2,7.4-2.3,14.5-2.3c15.7-0.2,19.6-2.8,25.6-16.6c3.5-8.3,6-10.8,11.1-12
		c6.5-1.2,44.5-0.2,45.2,1.2c0.2,0.5,3.5,6.9,6.9,14.3l6.2,13.1h13.8c11.1,0,14.1,0.9,16.1,4.4c1.2,2.5,2.3,19.4,2.3,38.3
		s-1.2,35.7-2.3,38.3c-2.3,4.1-5.5,4.4-70.3,4.4C980.5,18613.7,949.4,18612.8,948.7,18611.9z"/>
	<path d="M966.3,18479.6c-1.2-1.6-2.8-5.5-3.2-8.5c-1.2-7.8-9.7-13.1-30.7-18.7c-58.5-15.4-109.5-37.6-140.1-60.6
		c-9-6.9-24.4-20.7-33.9-30.4c-9.4-9.9-22.6-23-29-29.7c-16.4-16.4-27.7-31.8-34.6-47.2c-3.2-7.1-7.4-15.9-9-19.8
		c-6.2-13.1-19.6-49.6-19.6-52.8c0-1.6-1.6-6.9-3.5-11.5s-4.6-16.8-5.8-27.4c-1.2-10.4-3.2-27.2-4.6-37.3
		c-2.1-16.4-1.8-19.1,1.8-24.2c2.3-3,7.6-6.5,11.5-7.4c3.9-1.2,164.8-1.6,357.2-1.4c286.9,0.7,350.8,1.2,353.8,3.7
		c2.1,1.8,4.8,8.8,6.5,15.7c6.2,27.2-8.1,99.8-27,139c-10.8,22.1-30,53.7-33.4,55.1c-1.2,0.5-2.1,1.8-2.1,3.2s-4.8,8.3-10.8,15.4
		c-27.9,33.4-59.9,58.8-99.8,79.3c-39.2,19.8-65.9,29.5-107.2,38.5c-32.5,6.9-33.9,7.8-40.1,23.7l-2.5,6.2h-45.9
		C980.5,18482.4,968.1,18481.7,966.3,18479.6z"/>
	<path d="M633.9,18079.7c-19.4-6.5-30.7-17.3-36.9-35c-6-16.6-8.1-18.7-19.8-18.7c-9.2,0-11.5-1.2-22.8-12.2l-12.7-12.2v-24.2
		c0-21.9,0.5-24.9,5.8-32.7c3.2-4.6,10.4-10.8,15.7-13.6l9.7-5.3h437.9c490.9,0,449.9-1.4,467.2,16.8c10.1,10.8,13.4,20.1,13.4,39.9
		v15.7l-13.6,14.5l-13.6,14.5l-17.3,0.2c-20.3,0.2-24.2,2.3-26.3,15.2c-1.8,12.4-13.4,27.2-26,33.6l-10.1,5.1l-373.6-0.2
		C805.4,18081.1,635.8,18080.4,633.9,18079.7z"/>
</g>
</svg>
