<?xml version="1.0" encoding="utf-8"?>
<!-- Generator: Adobe Illustrator 22.1.0, SVG Export Plug-In . SVG Version: 6.00 Build 0)  -->
<svg version="1.1" id="Layer_1" xmlns="http://www.w3.org/2000/svg" xmlns:xlink="http://www.w3.org/1999/xlink" x="0px" y="0px"
	 viewBox="0 0 200 200" style="enable-background:new 0 0 200 200;" xml:space="preserve">
<style type="text/css">
	.st0{fill:#F2E610;stroke:#000000;stroke-width:0.75;stroke-miterlimit:10;}
	.st1{fill:#F0E41A;stroke:#000000;stroke-width:0.75;stroke-miterlimit:10;}
</style>
<g>
	<polyline points="99.5,139.2 32.8,101.6 99.5,197.1 	"/>
	<polyline class="st0" points="99.5,197.1 165.9,101.2 99.5,139.2 	"/>
	<polygon points="33.8,98.2 100.5,2.7 166.9,98.6 100.5,60.6 	"/>
	<polyline class="st1" points="100.6,2.9 34.2,97.8 100.6,60.2 	"/>
	<polygon points="119.1,73.3 95.5,73.3 87.7,81.3 101.4,81.3 101.1,81.7 101.1,117.9 87.8,117.9 87.8,106.2 79.9,114.6 79.9,117.9 
		79.9,126.2 79.9,126.3 108.7,126.3 108.7,126.3 108.9,126.3 108.9,81.3 119.1,81.3 	"/>
</g>
</svg>
