<svg xmlns="http://www.w3.org/2000/svg" id="Livello_1" viewBox="0 0 200 200"><style>.st1{fill:#a33231}</style><path d="M22 145V54.9l78.1-45 78 45V145l-78 45.1z"/><path d="M100.1 14.8l73.8 42.6v85.2l-73.8 42.6-73.8-42.6V57.4l73.8-42.6m0-9.8L17.8 52.5v95L100 195l82.2-47.5v-95L100.1 5z" class="st1"/><g><path d="M67.7 121H39.1V73h10.8v39.2h17.7l.1 8.8zM113.3 100.2c0 14.4-6.7 21.6-20.2 21.6-13 0-19.5-7.1-19.5-21.1V73h10.8v27.9c0 7.8 3 11.7 9.1 11.7 5.9 0 8.9-3.7 8.9-11.2V73h10.8l.1 27.2zM163.7 73l-16.5 48H135l-16.3-48h11.7l10 33.4c.6 1.8.8 3.4 1 4.8h.2c.1-1.5.5-3.1 1.1-4.9l10-33.3h11.2-.2z" class="st1"/></g></svg>