<?xml version="1.0" encoding="utf-8"?>
<!-- Generator: Adobe Illustrator 22.1.0, SVG Export Plug-In . SVG Version: 6.00 Build 0)  -->
<svg version="1.0" id="Layer_1" xmlns="http://www.w3.org/2000/svg" xmlns:xlink="http://www.w3.org/1999/xlink" x="0px" y="0px"
	 viewBox="0 0 200 200" enable-background="new 0 0 200 200" xml:space="preserve">
<radialGradient id="SVGID_1_" cx="431.4944" cy="-472.2348" r="60.5004" gradientTransform="matrix(1 0 0 -1 -345.1992 -390.9805)" gradientUnits="userSpaceOnUse">
	<stop  offset="0" style="stop-color:#218ECB"/>
	<stop  offset="1" style="stop-color:#292A65"/>
</radialGradient>
<path fill="url(#SVGID_1_)" d="M121.7,5c0,0,11.7,41.4-8.5,62.8S63,78.9,60.8,125.6c0,0,14.5-28.4,30.6-16.4c0,0,0,15.5-26.5,48.3
	c0,0-14.9-17.1-17.1-40.7c-2.8-31,11.8-71.5,65.4-80.8C113.2,35.9,122.1,32.2,121.7,5z"/>
<linearGradient id="SVGID_2_" gradientUnits="userSpaceOnUse" x1="453.3312" y1="-474.3792" x2="505.8418" y2="-430.3176" gradientTransform="matrix(1 0 0 -1 -345.1992 -390.9805)">
	<stop  offset="0" style="stop-color:#218ECB"/>
	<stop  offset="1" style="stop-color:#292A65"/>
</linearGradient>
<path fill="url(#SVGID_2_)" d="M132.5,16.1c0,0,9.2,10.1,13.6,22.7c0,0,22.7,6.6,33.8,24c0,0,4.4,17.1-55.9,39.5
	C124,102.3,150.2,66.6,132.5,16.1z"/>
<radialGradient id="SVGID_3_" cx="459.4081" cy="-523.1873" r="72.2264" gradientTransform="matrix(1 0 0 -1 -345.1992 -390.9805)" gradientUnits="userSpaceOnUse">
	<stop  offset="0" style="stop-color:#71B744"/>
	<stop  offset="1" style="stop-color:#0B6C3F"/>
</radialGradient>
<path fill="url(#SVGID_3_)" d="M185.2,69.4c0,0,33.2,61.3-24,108.6c-17.6,14.6-37.3,16.9-54.3,17c-48.3,0.1-73.3-25.5-73.3-25.5
	s18.8,10.9,44.5,12.4c31.3,1.8,70.5-11.1,84.7-65.7c0,0-23,40.1-69.8,37.9c0,0-0.3-27.8,31.9-45.5S162.2,98.5,185.2,69.4z"/>
<radialGradient id="SVGID_4_" cx="416.5781" cy="-539.0518" r="49.9992" gradientTransform="matrix(1 0 0 -1 -345.1992 -390.9805)" gradientUnits="userSpaceOnUse">
	<stop  offset="0" style="stop-color:#71B744"/>
	<stop  offset="1" style="stop-color:#0B6C3F"/>
</radialGradient>
<path fill="url(#SVGID_4_)" d="M5.2,123.1c0,0,47.7,90,132.3,28.4C137.5,151.5,66.5,199.2,5.2,123.1z"/>
<ellipse fill="#FFFFFF" cx="98.8" cy="56.2" rx="12.2" ry="14.2"/>
</svg>
