<?xml version="1.0" encoding="utf-8"?>
<!-- Generator: Adobe Illustrator 16.0.0, SVG Export Plug-In . SVG Version: 6.00 Build 0)  -->
<!DOCTYPE svg PUBLIC "-//W3C//DTD SVG 1.0//EN" "http://www.w3.org/TR/2001/REC-SVG-20010904/DTD/svg10.dtd">
<svg version="1.0" id="Layer_1" xmlns="http://www.w3.org/2000/svg" xmlns:xlink="http://www.w3.org/1999/xlink" x="0px" y="0px"
	 width="250px" height="250px" viewBox="0 0 250 250" enable-background="new 0 0 250 250" xml:space="preserve">
<radialGradient id="SVGID_1_" cx="447.6348" cy="682.6055" r="47.9017" gradientTransform="matrix(1 0 0 1 -345.1992 -590.9805)" gradientUnits="userSpaceOnUse">
	<stop  offset="0" style="stop-color:#218ECB"/>
	<stop  offset="1" style="stop-color:#292A65"/>
</radialGradient>
<path fill="url(#SVGID_1_)" d="M130.5,31.25c0,0,9.25,32.75-6.75,49.75S84,89.75,82.25,126.75c0,0,11.5-22.5,24.25-13
	c0,0,0,12.25-21,38.25c0,0-11.815-13.545-13.524-32.249C69.729,95.17,81.301,63.132,123.75,55.75
	C123.75,55.75,130.75,52.75,130.5,31.25z"/>
<linearGradient id="SVGID_2_" gradientUnits="userSpaceOnUse" x1="464.9238" y1="684.3037" x2="506.4997" y2="649.4174" gradientTransform="matrix(1 0 0 1 -345.1992 -590.9805)">
	<stop  offset="0" style="stop-color:#218ECB"/>
	<stop  offset="1" style="stop-color:#292A65"/>
</linearGradient>
<path fill="url(#SVGID_2_)" d="M139,40c0,0,7.25,8,10.75,18c0,0,18,5.25,26.75,19c0,0,3.5,13.5-44.25,31.25
	C132.25,108.25,153,80,139,40z"/>
<radialGradient id="SVGID_3_" cx="469.7354" cy="722.9473" r="57.1858" gradientTransform="matrix(1 0 0 1 -345.1992 -590.9805)" gradientUnits="userSpaceOnUse">
	<stop  offset="0" style="stop-color:#71B744"/>
	<stop  offset="1" style="stop-color:#0B6C3F"/>
</radialGradient>
<path fill="url(#SVGID_3_)" d="M180.75,82.25c0,0,26.25,48.5-19,86c-13.922,11.537-29.529,13.41-43,13.434
	c-38.25,0.066-58-20.184-58-20.184s14.846,8.634,35.218,9.779c24.781,1.395,55.782-8.813,67.032-52.029c0,0-18.25,31.75-55.25,30
	c0,0-0.25-22,25.25-36S162.5,105.25,180.75,82.25z"/>
<radialGradient id="SVGID_4_" cx="435.8242" cy="735.5078" r="39.5874" gradientTransform="matrix(1 0 0 1 -345.1992 -590.9805)" gradientUnits="userSpaceOnUse">
	<stop  offset="0" style="stop-color:#71B744"/>
	<stop  offset="1" style="stop-color:#0B6C3F"/>
</radialGradient>
<path fill="url(#SVGID_4_)" d="M38.25,124.75c0,0,37.75,71.25,104.75,22.5C143,147.25,86.75,185,38.25,124.75z"/>
<ellipse fill="#FFFFFF" cx="112.375" cy="71.75" rx="9.625" ry="11.25"/>
</svg>
