<?xml version="1.0" encoding="utf-8"?>
<!-- Generator: Adobe Illustrator 22.1.0, SVG Export Plug-In . SVG Version: 6.00 Build 0)  -->
<svg version="1.1" id="svg" xmlns="http://www.w3.org/2000/svg" xmlns:xlink="http://www.w3.org/1999/xlink" x="0px" y="0px"
	 viewBox="0 0 200 200" style="enable-background:new 0 0 200 200;" xml:space="preserve">
<style type="text/css">
	.st0{fill:#FF0000;}
</style>
<path class="st0" d="M99,3.5C46.5,3.5,4,46,4,98.5s42.5,95,95,95s95-42.5,95-95S151.5,3.5,99,3.5z M141.1,65.9
	c-2.2,1.1-5.3,1.9-7,1.7c-6.8-0.6-9.9-4.5-8.5-10.8c1.1-4.9,4.7-9.1,9.3-10.9c1-0.4,1-0.4,0.5-0.5c-1.8-0.6-4.3-0.6-5.8-0.1
	c-2.6,0.8-4.8,3.7-6.6,8.2c-0.8,2-1.2,3.3-2.4,7.8c-0.1,0.5-0.3,1.2-0.4,1.5c-0.1,0.3-0.3,0.9-0.4,1.5c-0.1,0.5-0.4,1.7-0.7,2.6
	c-0.5,1.9-0.9,3.6-1.4,5.3l-0.3,1.2h5.9c3.2,0,5.9,0,5.9,0.1c0,0-0.2,0.6-0.4,1.3l-0.4,1.2h-11.6l-0.3,1c-0.1,0.6-0.3,1.1-0.3,1.1
	c0,0.1,1.2,0.1,5.8,0.1c3.2,0,5.8,0,5.8,0c0,0.1-0.8,2.3-0.8,2.4c0,0.1-1.3,0.1-5.8,0.1h-5.7l-0.1,0.3c0,0.2-0.6,2-1.2,4.1
	c-0.6,2.1-1.5,5.4-2.1,7.3c-0.6,2-1.4,5.1-2,7c-0.5,1.9-1.2,4.2-1.4,5c-0.2,0.8-0.9,3.1-1.4,5c-0.5,1.9-1.4,5-1.9,6.8s-1,3.4-1,3.6
	c0,0.1-0.5,1.8-1.1,3.7c-3.1,10.9-4.3,14-7.1,18.8c-6.2,10.5-13.9,14.9-25.8,14.9c-12.2,0-19-4.7-19-13.1c0-4.7,2.3-8.2,6.8-10.4
	c4.7-2.3,9.8-2,13,0.6c5.7,4.7,1.1,16.9-7.5,19.6c-0.6,0.2-0.6,0.2,0.1,0.4c2,0.6,4.7,0.5,6.3-0.2c3.6-1.6,5.7-5.6,8.4-15.8
	c0.1-0.3,0.2-0.9,0.3-1.1c0.1-0.3,0.4-1.4,0.7-2.5c0.3-1.1,0.6-2.3,0.7-2.6c0.1-0.3,0.3-1.2,0.5-1.9s0.5-1.9,0.7-2.7
	c0.2-0.8,0.6-2.3,0.8-3.3c1.2-4.7,1.2-4.6,2.3-8.6c0.5-1.8,1.4-4.8,1.9-6.9c0.6-2,1.7-5.9,2.4-8.7c0.8-2.7,1.8-6.6,2.4-8.5
	c0.5-1.9,1-3.6,1.1-3.8c0-0.2,0.5-1.7,1-3.5s0.9-3.4,1-3.5l0.1-0.3h-4.8c-3.8,0-4.8,0-4.8-0.1c0-0.1,0.2-0.6,0.4-1.3l0.4-1.2h9.6
	l0.3-1c0.2-0.6,0.3-1.1,0.3-1.1c0-0.1-1-0.1-4.8-0.1s-4.8,0-4.8-0.1s0.2-0.6,0.4-1.2l0.4-1.1h9.6l0.4-1.3c0.4-1.4,0.5-1.8,1.3-4.2
	c2.1-6.5,4.4-10.9,8.2-15.6c5.6-7,14.5-10.4,25.4-9.4c10.3,0.9,15.7,5.4,15.7,12.9C147.6,60.2,145.4,63.7,141.1,65.9z"/>
</svg>
