<?xml version="1.0" encoding="utf-8"?>
<!-- Generator: Adobe Illustrator 22.1.0, SVG Export Plug-In . SVG Version: 6.00 Build 0)  -->
<svg version="1.1" id="svg" xmlns="http://www.w3.org/2000/svg" xmlns:xlink="http://www.w3.org/1999/xlink" x="0px" y="0px"
	 viewBox="0 0 200 200" style="enable-background:new 0 0 200 200;" xml:space="preserve">
<style type="text/css">
	.st0{fill:#FF0000;}
</style>
<path id="path2" class="st0" d="M95,5.1c-2.3,0.1-3.4,0.2-5.6,0.5C87.9,5.7,85.9,6,84,6.3c-0.4,0.1-0.9,0.2-1.1,0.2
	c-0.2,0-0.5,0.1-0.6,0.1c-0.1,0-0.4,0.1-0.7,0.1c-0.3,0.1-0.6,0.1-0.8,0.2c-0.2,0-0.7,0.1-1.1,0.2c-1,0.2-1.8,0.4-2.1,0.5
	c-0.1,0-0.6,0.2-1.1,0.3c-0.5,0.1-1.2,0.3-1.7,0.4c-0.5,0.1-1.1,0.3-1.3,0.4c-1.1,0.3-6.1,2-6.8,2.2c-0.1,0-0.3,0.1-0.4,0.2
	c-0.2,0.1-0.4,0.1-0.5,0.2c-0.1,0.1-0.4,0.2-0.6,0.2c-0.3,0.1-1.4,0.6-2.1,0.9c-0.1,0.1-0.5,0.2-0.9,0.4s-0.9,0.4-1.1,0.5
	c-0.2,0.1-0.6,0.2-0.8,0.3c-0.4,0.2-4.6,2.3-5.4,2.7c-0.3,0.2-0.7,0.4-0.9,0.5c-0.2,0.1-0.6,0.3-0.8,0.5c-0.3,0.1-0.6,0.3-0.8,0.4
	c-0.2,0.1-0.8,0.5-1.5,0.9c-0.7,0.4-1.4,0.8-1.6,1c-0.2,0.1-0.4,0.3-0.5,0.3c-0.7,0.4-4.8,3.2-5.4,3.7c-0.1,0.1-0.4,0.3-0.7,0.5
	c-0.3,0.2-0.6,0.4-0.6,0.5c0,0-0.2,0.1-0.3,0.2c-0.2,0.1-0.3,0.2-0.4,0.3c0,0-0.2,0.2-0.4,0.3c-0.1,0.1-0.5,0.4-0.7,0.6
	c-0.3,0.2-0.5,0.4-0.6,0.5c-0.1,0.1-0.2,0.2-0.2,0.2c0,0-0.3,0.2-0.4,0.4c-0.2,0.2-0.4,0.3-0.5,0.4c-0.1,0.1-0.3,0.3-0.6,0.5
	c-0.3,0.2-0.5,0.4-0.6,0.5c-0.1,0.1-0.4,0.4-0.8,0.7c-2.4,2.1-5.5,5.2-7.6,7.6c-0.3,0.3-0.6,0.7-0.7,0.8c-0.1,0.1-0.3,0.3-0.5,0.6
	c-0.2,0.3-0.4,0.5-0.4,0.5c-0.1,0.1-0.5,0.6-0.8,0.9c-0.1,0.2-0.3,0.3-0.3,0.4c-0.1,0.2-0.9,1-1.1,1.3c-0.1,0.1-0.2,0.3-0.3,0.4
	c0,0-0.2,0.2-0.3,0.4c-0.1,0.2-0.2,0.3-0.2,0.3c-0.1,0.1-0.6,0.8-1.3,1.8c-0.6,0.9-3,4.3-3.2,4.6c-0.1,0.1-0.1,0.2-0.2,0.3
	c-0.2,0.2-0.6,0.9-1.3,2.1c-0.4,0.7-0.8,1.3-0.9,1.5c-0.1,0.2-0.3,0.5-0.4,0.8c-0.1,0.3-0.3,0.6-0.5,0.8c-0.1,0.2-0.3,0.6-0.5,0.9
	c-0.3,0.6-2.6,5.2-2.8,5.6c-0.1,0.2-0.2,0.4-0.3,0.6c-0.1,0.2-0.3,0.7-0.5,1c-0.2,0.4-0.3,0.8-0.4,0.9c-0.3,0.7-0.8,1.8-0.9,2.1
	c-0.1,0.2-0.2,0.5-0.2,0.6c-0.1,0.1-0.1,0.4-0.2,0.5c-0.1,0.2-0.1,0.3-0.2,0.4c-0.3,0.6-1.9,5.6-2.2,6.8c-0.1,0.2-0.2,0.8-0.4,1.3
	c-0.1,0.5-0.3,1.2-0.4,1.7c-0.1,0.5-0.2,0.9-0.3,1.1c-0.1,0.3-0.3,1.1-0.5,2.1c-0.1,0.4-0.2,0.9-0.2,1.1c0,0.2-0.1,0.5-0.2,0.8
	c-0.1,0.3-0.1,0.6-0.1,0.7c0,0.1-0.1,0.4-0.1,0.6c0,0.2-0.1,0.6-0.2,0.9c-0.1,0.6-0.2,1.3-0.5,3.6C5.6,89,5.4,91,5.2,92.7
	C5,95.5,5,96.8,5,100c0,3.2,0,4.5,0.2,7.3c0.1,1.8,0.3,3.7,0.6,5.3c0.3,2.3,0.4,2.9,0.5,3.6c0,0.3,0.1,0.7,0.2,0.9
	c0,0.2,0.1,0.5,0.1,0.6c0,0.1,0.1,0.4,0.1,0.7c0.1,0.3,0.1,0.6,0.2,0.8c0,0.2,0.1,0.7,0.2,1.1c0.2,1,0.4,1.8,0.5,2.1
	c0,0.1,0.2,0.6,0.3,1.1c0.1,0.5,0.3,1.2,0.4,1.7c0.1,0.5,0.3,1.1,0.4,1.3c0.3,1.1,2,6.1,2.2,6.8c0,0.1,0.1,0.3,0.2,0.4
	c0.1,0.2,0.1,0.4,0.2,0.5c0.1,0.1,0.2,0.4,0.2,0.6c0.1,0.3,0.6,1.4,0.9,2.1c0.1,0.1,0.2,0.5,0.4,0.9c0.2,0.4,0.4,0.8,0.5,1
	c0.1,0.2,0.2,0.5,0.3,0.6c0.2,0.4,2.4,4.9,2.8,5.6c0.2,0.3,0.4,0.7,0.5,0.9c0.1,0.2,0.3,0.6,0.5,0.8c0.1,0.3,0.3,0.6,0.4,0.8
	c0.1,0.2,0.5,0.8,0.9,1.5c0.7,1.1,1.1,1.9,1.3,2.1c0,0,0.1,0.2,0.2,0.3c0.2,0.3,2.5,3.8,3.2,4.6c0.7,1,1.3,1.7,1.3,1.8
	c0,0,0.1,0.2,0.2,0.3c0.1,0.2,0.2,0.3,0.3,0.4c0,0,0.2,0.2,0.3,0.4c0.1,0.1,0.4,0.5,0.6,0.7c0.2,0.3,0.4,0.5,0.5,0.6
	c0.1,0.1,0.2,0.2,0.2,0.2c0,0,0.2,0.3,0.4,0.4c0.2,0.2,0.3,0.4,0.4,0.5c0.1,0.1,0.3,0.3,0.5,0.6s0.4,0.5,0.5,0.6
	c0.1,0.1,0.4,0.4,0.7,0.8c2.1,2.4,5.2,5.5,7.6,7.6c0.3,0.3,0.7,0.6,0.8,0.7c0.1,0.1,0.3,0.3,0.6,0.5c0.3,0.2,0.5,0.4,0.6,0.5
	c0.1,0.1,0.3,0.2,0.5,0.4c0.4,0.3,0.6,0.5,0.7,0.6c0.2,0.2,1.1,0.9,1.3,1.1c0.1,0.1,0.3,0.2,0.4,0.3c0,0,0.2,0.2,0.4,0.3
	c0.2,0.1,0.3,0.2,0.3,0.2c0,0,0.3,0.2,0.6,0.5c0.3,0.2,0.6,0.5,0.7,0.5c0.6,0.5,4.7,3.3,5.4,3.7c0.1,0,0.3,0.2,0.5,0.3
	c0.2,0.1,0.9,0.6,1.6,1c0.7,0.4,1.3,0.8,1.5,0.9c0.2,0.1,0.5,0.3,0.8,0.4c0.3,0.1,0.6,0.3,0.8,0.5c0.2,0.1,0.6,0.3,0.9,0.5
	c0.8,0.4,5,2.5,5.4,2.7c0.2,0.1,0.5,0.2,0.8,0.3c0.2,0.1,0.7,0.3,1.1,0.5c0.4,0.2,0.8,0.3,0.9,0.4c0.7,0.3,1.8,0.8,2.1,0.9
	c0.2,0.1,0.5,0.2,0.6,0.2c0.1,0.1,0.4,0.1,0.5,0.2c0.2,0.1,0.3,0.1,0.4,0.2c0.6,0.3,5.6,1.9,6.8,2.2c0.2,0.1,0.8,0.2,1.3,0.4
	c0.5,0.1,1.2,0.3,1.7,0.4c0.5,0.1,0.9,0.2,1.1,0.3c0.3,0.1,1.1,0.3,2.1,0.5c0.4,0.1,0.9,0.2,1.1,0.2c0.2,0,0.5,0.1,0.8,0.2
	c0.3,0.1,0.6,0.1,0.7,0.1c0.1,0,0.4,0.1,0.6,0.1c0.2,0,0.8,0.1,1.1,0.2c1.9,0.3,3.9,0.6,5.3,0.8c2.3,0.2,3.2,0.3,5.9,0.5
	c1.8,0.1,7.7,0.1,9.5,0c2.7-0.2,3.6-0.2,5.9-0.5c1.4-0.2,3.4-0.4,5.3-0.8c0.4-0.1,0.9-0.2,1.1-0.2c0.2,0,0.5-0.1,0.6-0.1
	c0.1,0,0.4-0.1,0.7-0.1c0.3-0.1,0.6-0.1,0.8-0.2c0.2,0,0.7-0.1,1.1-0.2c1-0.2,1.8-0.4,2.1-0.5c0.1,0,0.6-0.2,1.1-0.3
	c0.5-0.1,1.2-0.3,1.7-0.4c0.5-0.1,1.1-0.3,1.3-0.4c1.1-0.3,6.1-2,6.8-2.2c0.1,0,0.3-0.1,0.4-0.2s0.4-0.1,0.5-0.2
	c0.1-0.1,0.4-0.2,0.6-0.2c0.3-0.1,1.4-0.6,2.1-0.9c0.1-0.1,0.5-0.2,0.9-0.4c0.4-0.2,0.9-0.4,1.1-0.5c0.2-0.1,0.6-0.2,0.8-0.3
	c0.4-0.2,4.6-2.3,5.4-2.7c0.3-0.2,0.7-0.4,0.9-0.5c0.2-0.1,0.6-0.3,0.8-0.5c0.3-0.1,0.6-0.3,0.8-0.4c0.2-0.1,0.8-0.5,1.5-0.9
	c0.7-0.4,1.4-0.8,1.6-1c0.2-0.1,0.4-0.3,0.5-0.3c0.7-0.4,4.8-3.2,5.4-3.7c0.1-0.1,0.4-0.3,0.7-0.5c0.3-0.2,0.6-0.4,0.6-0.5
	c0,0,0.2-0.1,0.3-0.2c0.2-0.1,0.3-0.2,0.4-0.3c0,0,0.2-0.2,0.4-0.3c0.1-0.1,0.5-0.4,0.7-0.6c0.3-0.2,0.5-0.4,0.6-0.5
	c0.1-0.1,0.2-0.2,0.2-0.2c0,0,0.3-0.2,0.4-0.4c0.2-0.2,0.4-0.3,0.5-0.4c0.1-0.1,0.3-0.3,0.6-0.5c0.3-0.2,0.5-0.4,0.6-0.5
	c0.1-0.1,0.4-0.4,0.8-0.7c2.4-2.1,5.5-5.2,7.6-7.6c0.3-0.3,0.6-0.7,0.7-0.8c0.1-0.1,0.3-0.3,0.5-0.6s0.4-0.5,0.5-0.6
	c0.1-0.1,0.2-0.3,0.4-0.5c0.3-0.4,0.5-0.6,0.6-0.7c0.2-0.2,0.9-1.1,1.1-1.3c0.1-0.1,0.2-0.3,0.3-0.4c0,0,0.2-0.2,0.3-0.4
	c0.1-0.2,0.2-0.3,0.2-0.3c0.1-0.1,0.6-0.8,1.3-1.8c0.6-0.9,3-4.3,3.2-4.6c0.1-0.1,0.1-0.2,0.2-0.3c0.2-0.2,0.6-0.9,1.3-2.1
	c0.4-0.7,0.8-1.3,0.9-1.5c0.1-0.2,0.3-0.5,0.4-0.8c0.1-0.3,0.3-0.6,0.5-0.8c0.1-0.2,0.3-0.6,0.5-0.9c0.3-0.6,2.6-5.2,2.8-5.6
	c0.1-0.2,0.2-0.4,0.3-0.6c0.1-0.2,0.3-0.7,0.5-1c0.2-0.4,0.3-0.8,0.4-0.9c0.3-0.6,0.4-0.8,0.6-1.5c0.2-0.4,0.3-0.7,0.3-0.8
	c0,0,0.1-0.2,0.1-0.4c0.1-0.2,0.2-0.5,0.2-0.6c0.1-0.2,0.1-0.3,0.2-0.4c0.3-0.6,1.9-5.6,2.2-6.8c0.1-0.2,0.2-0.8,0.4-1.3
	c0.1-0.5,0.3-1.2,0.4-1.7c0.1-0.5,0.2-0.9,0.3-1.1c0.1-0.3,0.3-1.1,0.5-2.1c0.1-0.4,0.2-0.9,0.2-1.1c0-0.2,0.1-0.5,0.2-0.8
	c0.1-0.3,0.1-0.6,0.1-0.7c0-0.1,0.1-0.4,0.1-0.6c0-0.2,0.1-0.6,0.2-0.9c0.1-0.6,0.2-1.3,0.5-3.6c0.2-1.7,0.4-3.5,0.6-5.3
	c0.2-2.8,0.2-4.1,0.2-7.3c0-4.2-0.1-6.9-0.6-10.7c-0.1-1.3-0.6-4.5-0.8-5.5c0-0.3-0.1-0.7-0.2-0.9c0-0.2-0.1-0.5-0.1-0.6
	c0-0.1-0.1-0.4-0.1-0.7c-0.1-0.3-0.1-0.6-0.2-0.8c0-0.2-0.1-0.7-0.2-1.1c-0.2-1-0.4-1.8-0.5-2.1c0-0.1-0.2-0.6-0.3-1.1
	c-0.1-0.5-0.3-1.2-0.4-1.7c-0.1-0.5-0.3-1.1-0.4-1.3c-0.3-1.1-2-6.1-2.2-6.8c0-0.1-0.1-0.3-0.2-0.4c-0.1-0.2-0.2-0.4-0.2-0.6
	c-0.1-0.2-0.1-0.4-0.1-0.4s-0.1-0.4-0.3-0.8c-0.3-0.7-0.3-0.8-0.6-1.5c-0.1-0.1-0.2-0.6-0.4-0.9c-0.2-0.4-0.4-0.8-0.5-1
	c-0.1-0.2-0.2-0.5-0.3-0.6c-0.2-0.4-2.4-4.9-2.8-5.6c-0.2-0.3-0.4-0.7-0.5-0.9c-0.1-0.2-0.3-0.6-0.5-0.8c-0.1-0.3-0.3-0.6-0.4-0.8
	c-0.1-0.2-0.5-0.8-0.9-1.5c-0.7-1.1-1.1-1.9-1.3-2.1c0,0-0.1-0.2-0.2-0.3c-0.2-0.3-2.5-3.8-3.2-4.6c-0.7-1-1.3-1.7-1.3-1.8
	c0,0-0.1-0.2-0.2-0.3c-0.1-0.2-0.2-0.3-0.3-0.4c0,0-0.2-0.2-0.3-0.4c-0.2-0.3-0.9-1.2-1.1-1.3c0,0-0.2-0.2-0.3-0.4
	c-0.2-0.3-0.7-0.8-0.8-0.9c0,0-0.2-0.3-0.4-0.5c-0.2-0.3-0.4-0.5-0.5-0.6c-0.1-0.1-0.4-0.4-0.7-0.8c-2.1-2.4-5.2-5.5-7.6-7.6
	c-0.3-0.3-0.7-0.6-0.8-0.7c-0.1-0.1-0.3-0.3-0.6-0.5c-0.3-0.2-0.5-0.4-0.6-0.5c-0.1-0.1-0.3-0.2-0.5-0.4c-0.4-0.3-0.6-0.5-0.7-0.6
	c-0.2-0.2-1.1-0.9-1.3-1.1c-0.1-0.1-0.3-0.2-0.4-0.3c0,0-0.2-0.2-0.4-0.3c-0.2-0.1-0.3-0.2-0.3-0.2c0,0-0.3-0.2-0.6-0.5
	c-0.3-0.2-0.6-0.5-0.7-0.5c-0.6-0.5-4.7-3.3-5.4-3.7c-0.1,0-0.3-0.2-0.5-0.3c-0.2-0.1-0.9-0.6-1.6-1c-0.7-0.4-1.3-0.8-1.5-0.9
	c-0.2-0.1-0.5-0.3-0.8-0.4c-0.3-0.1-0.6-0.3-0.8-0.5c-0.2-0.1-0.6-0.3-0.9-0.5c-0.8-0.4-5-2.5-5.4-2.7c-0.2-0.1-0.5-0.2-0.8-0.3
	c-0.2-0.1-0.7-0.3-1.1-0.5c-0.4-0.2-0.8-0.3-0.9-0.4c-0.7-0.3-1.8-0.8-2.1-0.9c-0.2-0.1-0.5-0.2-0.6-0.2c-0.1-0.1-0.4-0.1-0.5-0.2
	c-0.2-0.1-0.3-0.1-0.4-0.2c-0.6-0.3-5.6-1.9-6.8-2.2c-0.2-0.1-0.8-0.2-1.3-0.4c-0.5-0.1-1.2-0.3-1.7-0.4c-0.5-0.1-0.9-0.2-1.1-0.3
	c-0.3-0.1-1.1-0.3-2.1-0.5c-0.4-0.1-0.9-0.2-1.1-0.2c-0.2,0-0.5-0.1-0.8-0.2c-0.3-0.1-0.6-0.1-0.7-0.1c-0.1,0-0.4-0.1-0.6-0.1
	c-0.2,0-0.8-0.1-1.1-0.2c-1.9-0.3-3.9-0.6-5.3-0.8c-2.3-0.2-3.2-0.3-5.9-0.5C103.1,5,96.6,5,95,5.1 M131.9,42.7
	c10.3,0.9,15.7,5.4,15.7,12.9c0,4.6-2.2,8.1-6.5,10.3c-2.2,1.1-5.3,1.9-7,1.7c-6.8-0.6-9.9-4.5-8.5-10.8c1.1-4.9,4.7-9.1,9.3-10.9
	c1-0.4,1-0.4,0.5-0.5c-1.8-0.6-4.3-0.6-5.8-0.1c-2.6,0.8-4.8,3.7-6.6,8.2c-0.8,2-1.2,3.3-2.4,7.8c-0.1,0.5-0.3,1.2-0.4,1.5
	c-0.1,0.3-0.3,0.9-0.4,1.5c-0.1,0.5-0.4,1.7-0.7,2.6c-0.5,1.9-0.9,3.6-1.4,5.3l-0.3,1.2h5.9c3.2,0,5.9,0,5.9,0.1
	c0,0-0.2,0.6-0.4,1.3l-0.4,1.2l-5.8,0l-5.8,0l-0.3,1c-0.1,0.6-0.3,1.1-0.3,1.1c0,0.1,1.2,0.1,5.8,0.1c3.2,0,5.8,0,5.8,0
	c0,0.1-0.8,2.3-0.8,2.4c0,0.1-1.3,0.1-5.8,0.1h-5.7l-0.1,0.3c0,0.2-0.6,2-1.2,4.1c-0.6,2.1-1.5,5.4-2.1,7.3c-0.6,2-1.4,5.1-2,7
	c-0.5,1.9-1.2,4.2-1.4,5c-0.2,0.8-0.9,3.1-1.4,5c-0.5,1.9-1.4,5-1.9,6.8c-0.5,1.8-1,3.4-1,3.6c0,0.1-0.5,1.8-1.1,3.7
	c-3.1,10.9-4.3,14-7.1,18.8c-6.2,10.5-13.9,14.9-25.8,14.9c-12.2,0-19-4.7-19-13.1c0-4.7,2.3-8.2,6.8-10.4c4.7-2.3,9.8-2,13,0.6
	c5.7,4.7,1.1,16.9-7.5,19.6c-0.6,0.2-0.6,0.2,0.1,0.4c2,0.6,4.7,0.5,6.3-0.2c3.6-1.6,5.7-5.6,8.4-15.8c0.1-0.3,0.2-0.9,0.3-1.1
	c0.1-0.3,0.4-1.4,0.7-2.5c0.3-1.1,0.6-2.3,0.7-2.6c0.1-0.3,0.3-1.2,0.5-1.9c0.2-0.7,0.5-1.9,0.7-2.7c0.2-0.8,0.6-2.3,0.8-3.3
	c1.2-4.7,1.2-4.6,2.3-8.6c0.5-1.8,1.4-4.8,1.9-6.9c0.6-2,1.7-5.9,2.4-8.7c0.8-2.7,1.8-6.6,2.4-8.5c0.5-1.9,1-3.6,1.1-3.8
	c0-0.2,0.5-1.7,1-3.5c0.5-1.8,0.9-3.4,1-3.5l0.1-0.3h-4.8c-3.8,0-4.8,0-4.8-0.1c0-0.1,0.2-0.6,0.4-1.3l0.4-1.2l4.8,0l4.8,0l0.3-1
	c0.2-0.6,0.3-1.1,0.3-1.1c0-0.1-1-0.1-4.8-0.1c-3.8,0-4.8,0-4.8-0.1c0-0.1,0.2-0.6,0.4-1.2l0.4-1.1l4.8,0l4.8,0l0.4-1.3
	c0.4-1.4,0.5-1.8,1.3-4.2c2.1-6.5,4.4-10.9,8.2-15.6C112.1,45.1,121,41.7,131.9,42.7"/>
</svg>
