<svg xmlns="http://www.w3.org/2000/svg" id="Livello_1" x="0" y="0" version="1.1" viewBox="0 0 200 200" xml:space="preserve"><style>.st0{fill:#080818}</style><path id="Shape" d="M41.9 45l13.9-8 1.9 3.3 51.6-29.9-3.7-2.2-3.9-2.2-1.7-1-84.3 48.7v1.9L40 41.8z" class="st0"/><path id="Shape_1_" d="M41.9 75.6l40.5-23.2 1.8 3.2 51.7-29.8-3.9-2.2-3.6-2.2-2-1.1L15.7 84v2.4L40 72.3z" class="st0"/><path id="Shape_2_" d="M41.9 91l53.5-31 2 3.2 51.7-29.9-3.9-2.1-3.6-2.2-2-1.1L15.7 99.4v2.2L40 87.7z" class="st0"/><path id="Shape_3_" d="M41.9 106.1l67.2-38.8 1.9 3.3 51.4-29.7-3.9-2.2-3.7-2.1-2-1.1-137.1 79.3v1.9L40 102.9z" class="st0"/><path id="Shape_4_" d="M41.9 121.5l80.4-46.6 1.9 3.5 51.4-29.7-3.9-2.4-3.7-1.9-2-1.3L15.7 130v2.1L40 118.3z" class="st0"/><path id="Shape_5_" d="M181.2 52l-1.9-1.3-163.6 94.6v2.2L40 133.6l1.9 3.1 80.4-46.4 1.9 3.3L184 59.1v-5.4z" class="st0"/><path id="Shape_6_" d="M26.1 156.8l13.4-7.8 2 3.3 80.4-46.6 2.1 3.5 60-34.9V63.4L24.4 155.7z" class="st0"/><path id="Shape_7_" d="M121.9 121.1l2.1 3.4 60-34.8V78.8L37.6 163.3l1.7 1.1 13.9-8 1.9 3.2" class="st0"/><path id="Shape_8_" d="M52.5 172l13.9-8 1.9 3.4 53.6-30.9 2.1 3.2 60-34.9V94L50.6 170.9z" class="st0"/><path id="Shape_9_" d="M66 179.6l13.6-7.8 2 3.2 40.3-23.4 2.1 3.3 60-34.7v-11L63.8 178.7z" class="st0"/><path id="Shape_10_" d="M77.2 186.3l2 1.1 13.6-8 2 3.4 27.1-15.8 2.1 3.3 60-34.7V124.5z" class="st0"/><path id="Shape_11_" d="M92.4 195l13.6-7.8 2 3.2 13.9-8.2 2.1 3.4 60-34.8V139.9l-93.6 54.2z" class="st0"/><path id="Shape_12_" d="M122.7 18l-3.9-2-3.7-2.4-1.9-1.1-97.5 56.4V71L40 57.2l1.9 3.2L69 44.6l1.9 3.2z" class="st0"/></svg>