<?xml version="1.0" encoding="utf-8"?>
<!-- Generator: Adobe Illustrator 22.1.0, SVG Export Plug-In . SVG Version: 6.00 Build 0)  -->
<svg version="1.0" id="Livello_1" xmlns="http://www.w3.org/2000/svg" xmlns:xlink="http://www.w3.org/1999/xlink" x="0px" y="0px"
	 viewBox="0 0 500 500" enable-background="new 0 0 500 500" xml:space="preserve">
<path fill="#232E34" d="M250,16.7C121.1,16.7,16.7,121.1,16.7,250S121.1,483.3,250,483.3S483.3,378.9,483.3,250S378.9,16.7,250,16.7
	z"/>
<path fill="#FFFFFF" d="M250,43.3C135.8,43.3,43.3,135.8,43.3,250S135.8,456.7,250,456.7S456.7,364.2,456.7,250S364.2,43.3,250,43.3
	z M250,447c-108.8,0-197-88.2-197-197S141.2,53,250,53s197,88.2,197,197S358.8,447,250,447z"/>
<path fill="#FFFFFF" d="M263,90.5v29.6c66,6.5,117.5,62.2,117.5,129.8S329,373.3,263,379.8v29.6c82.3-6.6,147-75.5,147-159.5
	S345.3,97.1,263,90.5z M90,250c0,84,64.7,152.9,147,159.5v-29.6c-66-6.5-117.5-62.2-117.5-129.8S171,126.7,237,120.2V90.5
	C154.7,97.1,90,166,90,250z"/>
</svg>
