<?xml version="1.0" encoding="utf-8"?>
<!-- Generator: Adobe Illustrator 22.1.0, SVG Export Plug-In . SVG Version: 6.00 Build 0)  -->
<svg version="1.0" id="Livello_1" xmlns="http://www.w3.org/2000/svg" xmlns:xlink="http://www.w3.org/1999/xlink" x="0px" y="0px"
	 viewBox="0 0 200 200" style="enable-background:new 0 0 200 200;" xml:space="preserve">
<style type="text/css">
	.st0{fill:#D82966;}
	.st1{fill:none;stroke:#D82966;stroke-width:4;stroke-miterlimit:10;}
</style>
<path class="st0" d="M71.6,10.4l30,37.8c0,0-61.3-0.3-52.5,64.8l35-27l26,32.8l-35.8,27.7l37.3,47c0,0-65.6,9.3-96.6-50.8
	S32.3,36,32.3,36S56.1,13.2,71.6,10.4z"/>
<path class="st1" d="M128.4,189.6l-30-37.8c0,0,61.3,0.3,52.5-64.8l-35,27l-26-32.8l35.8-27.7l-37.3-47c0,0,65.6-9.3,96.6,50.8
	S167.7,164,167.7,164S143.9,186.8,128.4,189.6z"/>
</svg>
