<?xml version="1.0" encoding="utf-8"?>
<!-- Generator: Adobe Illustrator 22.1.0, SVG Export Plug-In . SVG Version: 6.00 Build 0)  -->
<svg version="1.0" id="Livello_1" xmlns="http://www.w3.org/2000/svg" xmlns:xlink="http://www.w3.org/1999/xlink" x="0px" y="0px"
	 viewBox="0 0 200 200" enable-background="new 0 0 200 200" xml:space="preserve">
<linearGradient id="SVGID_1_" gradientUnits="userSpaceOnUse" x1="99.9" y1="175.0375" x2="99.9" y2="25.1378" gradientTransform="matrix(1 0 0 -1 0 200)">
	<stop  offset="0" style="stop-color:#5DC1D8"/>
	<stop  offset="1" style="stop-color:#282D63"/>
</linearGradient>
<path fill="url(#SVGID_1_)" d="M148.7,40.3c6.8,1.2,7.9,4.2,9.9,8.6c1.1,2.4,1.4,5.2,0.8,7.8c-1.6,7.3-5,22.2-7.3,32.5
	c-1.6,7.1-1.6,14.5,0,21.5l7.3,32.5c0.5,2.3,0.4,4.8-0.5,7.1c-1.5,3.7-4.4,6.7-8,8.3c-2.4,1.1-5.1,1.3-7.7,0.7l-32.2-7.2
	c-3.6-0.8-7.4-1.2-11.1-1.2s-7.5,0.4-11.1,1.2l-32.1,7.2c-2.6,0.6-5.3,0.4-7.7-0.7c-3.4-1.5-6.1-4.3-7.6-7.6
	c-1.1-2.4-1.3-5.2-0.8-7.8c1.4-6.2,4.9-21.9,7.3-32.5c1.6-7,1.6-14.3,0-21.3l-7.3-32.6c-0.5-2.3-0.4-4.8,0.5-7
	c1.5-3.7,4.4-6.7,8-8.3c2.4-1.1,5.1-1.3,7.7-0.7c8.2,1.8,32.8,7.4,32.8,7.4c3.4,0.8,6.9,1.2,10.5,1.2s7-0.4,10.5-1.2
	c0,0,25.5-5.8,33.3-7.5C145.4,40.1,147.1,40.1,148.7,40.3z M107.2,33.4c-2.4,0.5-4.8,0.8-7.2,0.8s-4.8-0.3-7.2-0.8l-35.5-8
	c-1.4-0.3-2.8-0.4-4.2-0.3C38.2,26.2,26.2,38.3,25,53.2c-0.1,1.4,0,2.8,0.3,4.2l7.9,35.3c1.1,4.9,1.1,9.9,0,14.8l-7.9,35.3
	c-0.3,1.3-0.4,2.7-0.3,4.1c1.1,15,13.2,27,28.1,28.1c1.4,0.1,2.8,0,4.1-0.3l34.9-7.8c2.6-0.6,5.2-0.9,7.8-0.9s5.2,0.3,7.8,0.9
	l34.9,7.8c1.3,0.3,2.7,0.4,4.1,0.3c15-1.1,27-13.1,28.1-28.1c0.1-1.4,0-2.8-0.3-4.2l-7.9-35.2c-1.1-4.9-1.1-10,0-15l7.9-35.2
	c0.3-1.4,0.4-2.8,0.3-4.2c-1.1-14.9-13.1-26.9-28-28.1c-1.4-0.1-2.9,0-4.3,0.3L107.2,33.4z"/>
<linearGradient id="SVGID_2_" gradientUnits="userSpaceOnUse" x1="100.0563" y1="193.4" x2="100.0563" y2="6.7" gradientTransform="matrix(1 0 0 -1 0 200)">
	<stop  offset="0" style="stop-color:#5DC1D8"/>
	<stop  offset="1" style="stop-color:#282D63"/>
</linearGradient>
<path fill="url(#SVGID_2_)" d="M186.1,80.2c-1-1.1-2.1-2.1-3.3-2.8l-11.1-7.1l-13.5-8.5l-5.8-3.6c-4.3-2.7-7.9-6.3-10.6-10.6
	l-3.6-5.8l-8.5-13.5l-7-11.1c-0.8-1.2-1.7-2.4-2.9-3.3C114.2,9,107,6.6,100,6.6c-7,0-14.1,2.4-19.8,7.2c-1.1,1-2.1,2.1-2.9,3.4
	l-7,11.1l-8.5,13.5l-3.8,6c-2.6,4.1-6,7.6-10.1,10.1l-6,3.8l-13.5,8.5l-11.1,7.1c-1.2,0.8-2.4,1.7-3.3,2.8
	c-9.7,11.3-9.7,28.2,0,39.6c1,1.1,2.1,2.1,3.3,2.8l11.2,7.1l13.5,8.5l5.9,3.7c4.2,2.7,7.8,6.2,10.4,10.4l3.7,5.9l15.6-3.5L71,144.2
	c-3.8-6-9-11.3-15.1-15.1l-10.4-6.6L32,114l-4.4-2.8c-2.2-1.4-4-3.5-4.9-5.9c-0.6-1.7-1-3.6-1-5.5s0.3-3.7,1-5.4
	c0.9-2.5,2.7-4.5,4.9-6l4.3-2.7l13.5-8.5L56,70.5c5.9-3.8,11-8.9,14.8-14.8l6.7-10.6L86,31.6l2.7-4.2c1.4-2.3,3.5-4.1,6-5.1
	c1.7-0.6,3.5-1,5.4-1c1.6,0,3.2,0.2,4.6,0.7c2.8,0.9,5.2,2.8,6.8,5.4l2.7,4.2l8.5,13.5l6.5,10.3c3.9,6.1,9.1,11.4,15.2,15.2
	l10.3,6.5l13.5,8.5l4.3,2.7c2.2,1.4,4,3.5,5,6c0.6,1.7,1,3.5,1,5.4s-0.3,3.7-1,5.5c-0.9,2.5-2.7,4.5-4.9,5.9l-4.3,2.8l-13.5,8.5
	l-10,6.4c-6.3,4-11.7,9.4-15.7,15.7l-6.4,10.2l15.5,3.5l3.6-5.7c2.8-4.4,6.6-8.2,11-11l5.5-3.5l13.5-8.5l11.1-7
	c1.2-0.8,2.4-1.7,3.3-2.9C195.8,108.4,195.8,91.5,186.1,80.2z M111.2,172.8c-1.2,1.8-2.8,3.3-4.7,4.2c-2,0.9-4.2,1.4-6.5,1.4
	c-2.2,0-4.2-0.4-6.2-1.3c-2.1-0.9-3.9-2.6-5.1-4.5l-2.7-4.3l-15.5,3.5l7,11c0.8,1.2,1.7,2.3,2.8,3.3c5.7,4.8,12.8,7.3,19.8,7.3
	c7.1,0,14.1-2.5,19.8-7.3c1.1-0.9,2.1-2.1,2.8-3.3l6.9-10.9l-15.5-3.5L111.2,172.8z"/>
</svg>
