<svg xmlns="http://www.w3.org/2000/svg" id="Livello_1" viewBox="0 0 200 200"><style>.st0,.st3{fill:#1797e5;stroke:#122a44;stroke-width:2.5;stroke-miterlimit:10}.st3{stroke-width:3}.st4{fill:#5dc5f9}.st10{fill:#3d0000}.st14{opacity:.63;fill:#fff;enable-background:new}.st15{fill:#4f1a00}.st16{fill:#fff}.st18{fill:#1797e5;stroke:#122a44;stroke-width:2;stroke-miterlimit:10}.st28{fill:#122a44}</style><path d="M135.3 51s3-3 4.4-6.1c0 0-3.3-3.9 0-7.7 0 0 .8-5-2.8-7.7 0 0 6.4-5 13.5 3.6 0 0 2.2-1.7 4.1 1.1 0 0 21.3 5.5 14.4 44L135.3 51z" class="st0"/><linearGradient id="SVGID_1_" x1="584.9276" x2="579.0808" y1="1926.9572" y2="1928.9043" gradientTransform="matrix(1.8958 0 0 -1.8958 -954.9025 3709.3589)" gradientUnits="userSpaceOnUse"><stop offset=".33" stop-color="#f3f5f7"/><stop offset=".78" stop-color="#8099b9"/></linearGradient><path fill="url(#SVGID_1_)" stroke="#122a44" stroke-linejoin="round" stroke-width="2" d="M147.1 46.8s2.5.8 3.9-.6c0 0 4.9 9.3 1.3 18.5l-11-7.4s5.8-2.8 5.8-10.5z"/><linearGradient id="SVGID_2_" x1="584.8502" x2="578.1198" y1="1919.4229" y2="1919.7329" gradientTransform="matrix(1.8958 .00926 .00926 -1.8958 -962.646 3691.7744)" gradientUnits="userSpaceOnUse"><stop offset=".33" stop-color="#f3f5f7"/><stop offset=".37" stop-color="#e4e9ef"/><stop offset=".48" stop-color="#c0ccdc"/><stop offset=".59" stop-color="#a4b6cc"/><stop offset=".7" stop-color="#90a6c2"/><stop offset=".81" stop-color="#849cbb"/><stop offset=".91" stop-color="#8099b9"/></linearGradient><path fill="url(#SVGID_2_)" stroke="#122a44" stroke-linejoin="round" stroke-width="2" d="M153 44.8s2.5 0 3.9-1.9c0 0 11.8 9.4 6.1 30.5l-8.1-8.1c-.1 0 4.6-9.7-1.9-20.5z"/><path d="M29.1 68.1S12 74.5 14.5 83.6c0 0 .5 3 5.9 2.2.1.1 12-16.9 8.7-17.7zM22.8 130.1s-7.2 8.6-.9 17.9c.4.6 1.1.8 1.8.6 2.1-.7 6.6-3.1 10.7-11.1l-11.6-7.4zm11.3 23.1c-.6 3-1.2 9.7 3.7 13.6.3.2.7.3 1.1.2 1.4-.5 4.8-2.2 7.7-7.9.3-.6.1-1.3-.5-1.6l-10.3-5.2c-.6-.3-1.3-.1-1.6.5-.1.2-.1.3-.1.4zM20.7 96.4s-13.8 13.5-7.5 21.1c0 0 1.8 2.6 6.7-.5 0 .1 4.3-21.2.8-20.6z" class="st3"/><path d="M25.9 72.6s-10 4.1-8.8 11.6c0 0-1.9-.3-1.1-3.6 0 0 .6-4.7 9.4-9.1l2.2-1.1-1.4 2.2h-.3zM19 100.8s-9.7 10.5-4.1 16c0 0-.3-10.5 5.8-14.4l-1.7-1.6zm5.2 31.8s-3.9 6.9-.3 13.5c0 0 1.7-.6 1.9-1.1 0 0-.3 1.4-2.5 2.2 0 0-5.8-5.8-.3-15.2l1.2.6zm11.9 24s.3 6.1 3 8c0 0 .3 0 .8-.3 0 0-.3.8-1.4 1.1 0 0-4.1-3-3.3-8.8h.9z" class="st4"/><linearGradient id="SVGID_3_" x1="579.8444" x2="593.9901" y1="1882.2599" y2="1874.2903" gradientTransform="matrix(1.8958 0 0 -1.8958 -954.9025 3709.3589)" gradientUnits="userSpaceOnUse"><stop offset=".12" stop-color="#1797e5"/><stop offset=".14" stop-color="#1693e1"/><stop offset=".33" stop-color="#0a6fba"/><stop offset=".48" stop-color="#0358a2"/><stop offset=".57" stop-color="#005099"/><stop offset=".71" stop-color="#0663ad"/><stop offset=".99" stop-color="#1694e2"/><stop offset="1" stop-color="#1797e5"/></linearGradient><path fill="url(#SVGID_3_)" stroke="#122a44" stroke-miterlimit="10" stroke-width="2.5" d="M170.4 125.4s13.5-25.2-1.9-46.4l-4.4-8.3s-.6-1.4-1.9-1.1c0 0-3.9-6.6-8.6-7.7 0 0-3.6-5.5-10.2-5.8 0 0-1.7-7.7-10.5-6.4 0 0-1.9-7.7-10-4.4 0 0-1.4-4.1-6.4-2.8 0 0-.3-7.5-19.4-1.7 0 0-57.2-8-68.6 26.5 0 0-.5 1.3.9 1.6l.1.1c-1.9 2.2-3 5-3.2 7.9 0 0-9.7 6.6-5 17.4 0 0-3.3 7.7.6 13 0 0-5.5 7.2.6 14.1 0 0-3.9 8 4.4 12.4 0 0-3.3 8.3 4.1 11.1 0 0-.3 10 8.8 12.7 0 0 .3 5.5 6.1 6.4 0 0-2.8 7.7 7.2 10.5 0 0 4.7 9.4 11.6 4.7 0 0 4.4 6.1 14.7 4.7 0 0 6.4 5.5 16.6 2.8 0 0 6.9 3.3 15.8-1.7 0 0 5.3 2.5 10-1.7 0 0 8 .3 10.8-2.8 0 0 4.7 1.7 8.6-1.1 0 0 8.8-1.9 11.3 1.9 0 0 3.3 6.4-3 13.3 0 0 15.5 3.3 16.6-16 0 0 .8-10.5-11.6-13.3l15.9-39.9z"/><linearGradient id="SVGID_4_" x1="535.6104" x2="585.5934" y1="1915.8053" y2="1869.3378" gradientTransform="matrix(1.8958 0 0 -1.8958 -954.9025 3709.3589)" gradientUnits="userSpaceOnUse"><stop offset=".13" stop-color="#1797e5"/><stop offset=".26" stop-color="#1693e1"/><stop offset=".4" stop-color="#1287d4"/><stop offset=".54" stop-color="#0b73be"/><stop offset=".69" stop-color="#0257a0"/><stop offset=".72" stop-color="#005099"/></linearGradient><ellipse cx="102.7" cy="116.6" fill="url(#SVGID_4_)" rx="64.7" ry="63.6"/><linearGradient id="SVGID_5_" x1="559.8395" x2="543.6195" y1="1880.1052" y2="1914.0333" gradientTransform="matrix(1.8958 0 0 -1.8958 -954.9025 3709.3589)" gradientUnits="userSpaceOnUse"><stop offset=".33" stop-color="#f3f5f7"/><stop offset=".78" stop-color="#8099b9"/></linearGradient><path fill="url(#SVGID_5_)" stroke="#122a44" stroke-linejoin="round" stroke-width="3" d="M115.5 77.7l4.4 5.1s3.3-11.6-4.4 34l-4.4 13-55.2-5.1s-7.5-1.4-6.5-9.8l66.1-37.2"/><path fill="#c91111" stroke="#122a44" stroke-miterlimit="10" stroke-width="2.5" d="M53.2 85.3L56 68.2l59.7 7.7-2.5 17.7-4.4 28.7-59.7-7.5 4.1-29.5z"/><path fill="#750606" d="M52.7 98.9l-.8 5.3 18.2 2.2 27.6 6.1v-3l13.5 2.6.6-5.7-59.1-7.5z"/><path d="M105.7 78.7l-40.3-5.8c-2 5.8-7.7 6.4-7.7 6.4l-4.4 27.3c6.4 1.7 6.6 8.1 6.6 8.1l40.6 5.5c2-6.4 7.5-5.3 7.5-5.3l4.1-28.2c-7.5-2.6-6.4-8-6.4-8zm1.4 35.1s-5.5-.8-7.5 5.3L61 113.8s-.3-6.1-6.4-7.7l3.6-20.7.8-5s5.5-.8 7.5-6.4l38.2 5.5s-1.1 5.5 6.1 8l-3.7 26.3z" class="st10"/><linearGradient id="SVGID_6_" x1="565.3957" x2="550.5792" y1="1901.4293" y2="1904.6642" gradientTransform="matrix(1.8958 0 0 -1.8958 -954.9025 3709.3589)" gradientUnits="userSpaceOnUse"><stop offset=".17" stop-color="#f7ae2d"/><stop offset=".86" stop-color="#b04211"/></linearGradient><path fill="url(#SVGID_6_)" stroke="#4f1a00" stroke-miterlimit="10" stroke-width="3" d="M95.8 92l18.2 3 9.4 13.5-8.3 4.7-2.5-5.5-18-3.3L95.8 92z"/><linearGradient id="SVGID_7_" x1="529.6485" x2="540.7011" y1="1907.0348" y2="1906.0686" gradientTransform="matrix(1.8958 0 0 -1.8958 -954.9025 3709.3589)" gradientUnits="userSpaceOnUse"><stop offset=".17" stop-color="#f7ae2d"/><stop offset=".86" stop-color="#b04211"/></linearGradient><path fill="url(#SVGID_7_)" stroke="#4f1a00" stroke-linejoin="round" stroke-width="3" d="M50.3 86.3l19.9 2.5-1.9 12.4L49.8 99l-.6 2.8s-.3-12.8 1.1-15.5z"/><path fill="#f7ae2d" stroke="#4f1a00" stroke-miterlimit="10" stroke-width="3" d="M68.7 82.6l-3 23.5 29.3 4.1 3.3-23.8-29.6-3.8z"/><path d="M96.4 90.6l-.8 5.5-9.7 10.5-1.1-4 11.6-12zm-14.4-5l-14.3 15.1-.5 4.1.7.1 18.5-18.8-4.4-.5zm5.8.8l-19.1 18.8 2.2-1.4 17.7-17.4h-.8z" class="st14"/><path d="M80.6 96.4l-3 6.1 7 .7-1.2-6.5s2.2-.3 2.5-2.8c0 0 .6-3.6-3-4.1 0 0-3-.3-3.9 2.8-.1-.1-.6 2.7 1.6 3.8z" class="st15"/><path d="M83.4 89.2s3.6.6 3.6 4.1c0 0 .3 3-2.2 4.1l.6 7.7h1.1L85.3 98s3.1-1.7 2-5.7c-.2-.8-.7-1.6-1.3-2.1-.8-.5-1.7-.9-2.6-1z" class="st15"/><path d="M82.8 89.5s3.3.5 3.3 4.1c0 0 0 2.2-2.5 3.3l1.1 8.6h1.1l-1.4-8.3s1.8-.7 2.1-3.1c.3-2.2-1.2-4.3-3.5-4.7l-.2.1z" class="st16"/><path d="M106 116s-3.3-.4-5.4 5.3l6.5-.6-1.1-4.7zm1.4-39.8s-2.2 7.2 5.5 9.7l1.4-8.8-6.9-.9zm-50.3-6.6l-1.4 8.3s6.9-.3 7.7-7.5l-6.3-.8zm-5.8 37.8l-.8 6.4 8 1.1s-1.1-6.1-7.2-7.5z" class="st10"/><path d="M100 43.9s5.8-4.7 14.7 0l-.5 1.1s5.5-.8 9.4 7.2c0 0 1.7-11.1 8 0 0 0 8.3-1.1 9.4 4.7 0 0-1.4 2.8.3 4.7 0 0-1.1-4.1 1.7-3.9 0 0 4.7.3 8 4.7l1.1.8s3.6.6 8.3 7.2c1.5 2 2.8 4 4 6.2.7 1.2 1.4 2.4 2.2 3.6 2.7 3.9 8.6 13.9 6.5 23.4 0 0-.8 14.9-4.1 19.1 0 0 5-8.6 5.8-19.1 0 0 1.1-13.5-7.5-24.3l-4.7-8.8-1.7-.8s-3.6-5.8-8.9-7.2v-.6s-3-4.7-9.7-5l-.3-1.1s-1.9-6.6-10.2-4.7c0 0-.8-7.7-8.8-4.4 0 0-5-2.8-8-2.2 0 0 3.3-5.8-9.4-4.1 0 0-5.1.9-6.6 1.5l1 2z" class="st4"/><linearGradient id="SVGID_8_" x1="533.3817" x2="542.3969" y1="1910.9958" y2="1939.3109" gradientTransform="matrix(1.8958 0 0 -1.8958 -954.9025 3709.3589)" gradientUnits="userSpaceOnUse"><stop offset=".26" stop-color="#1797e5"/><stop offset=".4" stop-color="#1694e2"/><stop offset=".51" stop-color="#138bd8"/><stop offset=".61" stop-color="#0e7cc8"/><stop offset=".7" stop-color="#0767b1"/><stop offset=".77" stop-color="#005099"/></linearGradient><path fill="url(#SVGID_8_)" d="M35.5 57.5S55.4 34.2 79.2 43c18 6.7 16.9 12.7 16.9 12.7s-12.2 1.9-17.9 9.7c0 0-11.1-12.1-25.3-1.9 0 .1-.3-16.1-17.4-6z"/><path d="M117.4 182.1s-1.8 2.3-6.9-.6c0 0-4.5 3.7-14.7 1.5 0 0-6.9 4.4-15.2-2.5 0 0-11.3 2.5-14.1-6.6 0 0-6.9 6.6-10.2-2.8 0 0-6.9.8-7.7-8 0 0 1.7-2.8 0-4.1 0 0-5.5 5.8-5.5-3.9 0 0-14.4-4.4-5-11.3 0 0-13.5 0-7.2-10.8 0 0-9.4-4.1-4.4-12.4 0 0-5.8-2.8-2.8-12.2l1.9-.8s-5.3-6.1-.8-11.9l.3-1.1s-4.4-12.2 2.8-13.3l2.8-.3s-2.5-6.6 2.5-11.1c0 0-2.2-10.8 18.5-21.8h-3.9s-14.4 6.4-18 20.5l1.1 1.4s-2.3 1.4-3.1 6.8c-.1.9-.6 1.8-1.3 2.3-2.4 1.7-7.4 7.1-3.5 15.5 0 0-3.3 7.2.6 13 0 0-5.8 7.5.8 13.8 0 0-5 7.5 4.4 12.2 0 0-4.1 8.3 3.9 10.8 0 0-1.1 10.2 8.6 12.4 0 0-.3 5.5 5.8 6.4l.6 1.4s-3 6.6 6.6 9.1c0 0 4.4 9.7 11.1 4.1 0 0 3.9 6.6 14.4 5l1.4.8s6.4 4.7 15.2 1.9c0 0 6.9 3.3 15.8-1.7 0 0 4.7 2.5 8.8-1.1l-3.6-.6z" class="st4"/><path d="M81.2 142.8s-15.5-4.1-13.5-17.7c0 0-4.7-6.4-2.8-12.7 0 0 1.1-4.4 2.5-4.1 0 0 4.1-5.5 8-5 0 0-.3 2.8.8 3.3 0 0 4.7-6.9 9.1-6.4 0 0-1.9 5.3 0 7.7 0 0 3.6-6.1 7.5-6.1 0 0-.6 3.6.3 5.3 0 0 4.4-1.4 4.4 12.7 0 0 3.3 1.1 5 4.1l-.6 15.5-20.7 3.4z" class="st18"/><linearGradient id="SVGID_9_" x1="558.2253" x2="551.3823" y1="1889.5334" y2="1891.5901" gradientTransform="matrix(1.8958 0 0 -1.8958 -954.9025 3709.3589)" gradientUnits="userSpaceOnUse"><stop offset=".26" stop-color="#1797e5"/><stop offset=".77" stop-color="#005099"/></linearGradient><path fill="url(#SVGID_9_)" d="M89.2 109.8s9.4 21.1-2.8 27.8l13-1.9.6-13s-1.7-1.5-3.7-1.8c0 0 .7-8.7-2.1-12l-5 .9z"/><path d="M67.9 109.4s-3.9 7.5 1.9 15.5c0 0-1.9 11.9 12.2 15.8l-3.6.3s-11.9-5.3-9.7-16c0 0-6.4-6.9-1.1-16l.3.4zm66.9 69l6.6-1.6s6.6-1.7 11.9.8c0 0 6.6 4.1.8 16h-2.2s3-3.3 2.8-8.6c0 0 0-2.5-1.1-4.4 0 0-1.9-3.9-10.8-2.8l-2.2.6c-2.1 1.5-4.8 1.9-7.2 1.1l1.4-1.1z" class="st4"/><path fill="#1797e5" stroke="#122a44" stroke-linejoin="round" stroke-width="2.5" d="M119 108.8s-9.7-.6-11.6 11.3l-5.8 1.1s-3 3.9-.6 8.3c0 0-1.1 3.6.3 5.8 0 0-22.7-1.7-27.6 15.2 0 0-3 29.6 42.3 31.2 0 0 27.1 1.4 47.3-23.8l4.4-1.4 6.1 11.9s2.2-16.9 14.7-22.1c0 0-13.8-13.5-6.9-30.4l-13.8 8.3s-2.8-8.8-5.3-8.8c0 0-.3-1.9-1.9-2.5 0 0-1.7-3.3.3-8.8 0 0-5.5-2.8-13 5.8 0 0-2.8-1.1-3.6 1.9l-3.3-1.1s-1.1-3.9-3.9-3.6c0 0-1.1-1.1 1.9-10.5 0 0-8-1.1-13.3 7.5 0 0-3-1.1-3.9 1.9 0 .1-1.9.3-2.8 2.8z"/><linearGradient id="SVGID_10_" x1="567.7383" x2="558.3652" y1="1893.4723" y2="1891.2892" gradientTransform="matrix(1.8958 0 0 -1.8958 -954.9025 3709.3589)" gradientUnits="userSpaceOnUse"><stop offset=".26" stop-color="#1797e5"/><stop offset=".77" stop-color="#005099"/></linearGradient><path fill="url(#SVGID_10_)" d="M117.4 127.1l-12.2-2.5 4.2-1c.3 0 .5-.2.6-.5.5-2.1 3.2-10.5 10.7-12l-.8-.8s-8.3-.3-11.1 11.3l-6.4 1.4v4.7l13.3 3.3 1.7-3.9z"/><radialGradient id="SVGID_11_" cx="418.6749" cy="2289.3728" r="32.0324" gradientTransform="matrix(1.8324 .2146 .1481 -1.2644 -956.7201 2949.4736)" gradientUnits="userSpaceOnUse"><stop offset=".26" stop-color="#1797e5"/><stop offset=".77" stop-color="#005099"/></radialGradient><path fill="url(#SVGID_11_)" d="M98.3 176.8s-10.8-16.3 1.7-15.2c0 0 2.8 0 13.3 3 0 0 3.3.6-.6-3.9 0 0-5.5-4.7-9.7-6.1 0 0-3.6-4.4 4.7-2.5l4.7.8s4.4 1.1 5.5-3.9c0 0 .8-5-6.1-4.4 0 0-.8 0-1.9.8 0 0 3.9-5.5 10.5-1.9 1 .4 1.9 1 2.8 1.7l3.3-3 3-.6-2.5-8s-3 .8-1.1-2.2l6.9-1.4s4.4-1.4 6.1-3c0 0 7.7-6.4 17.1-6.1 0 0 5.5-.3 5.8-5 0 0 2.2 1.9 4.4 8.3 0 0 .3 1.4 1.7 1.4l8.7-5.3 1.7 2.6s-3.2 9 5.7 22.3c0 0-8 8.8-11.1 18l-4-9-7.3 2.6c0 .1-16.9 31.1-63.3 20z"/><path d="M104.9 51.9s-.6-8.6-4.1-4.1c0 0-6.6-10.5 4.1-24.9 0 0 5-2.5 3.3-7.2 0 0 .8-2.8 6.6-4.1 0 0-3.3-7.2-13-4.7 0 0-2.5-3.9-7.5-.3 0 0-46.7-10-66.6 44.8 0 0 19.3-6.6 26.8-3 0 0 3.3 1.4 2.2 7.2 0 0 14.7-8 21.8 2.5 0 0 8.8-9.4 14.9-7.2 0 0 2.5 1.1 3.9 4.7" class="st0"/><path d="M108 66.8s-10.2-12.4-21.8-3.9c0 0-7.6-.1-10.9 6.8 0 0-.6.8-.6 1.4 0 0 4.4 1.1 4.4 6.6 0 0 1.1 0 3.9-7.2 0 0 4.4.8 5 6.9 0 0 1.1.3 3.6-1.7 0 0 .8-4.7 2.2-5.3 0 0 3.6 0 4.4 6.1 0 0 .6 1.1 5.5-3.3l7.5.8c-.1.1 1.3-2.1-3.2-7.2z" class="st18"/><path d="M117.4 125.4s-.8 4.1-1.9 4.4l-12.4-3s-.3-2.2.8-3.6l5.3-.7c.3 0 .6-.3.6-.6.2-2.2 1.4-10.1 10.2-11.1l-.6-.6s-8.5-.8-10.5 9.7c0 0-.3 1.4-1.4 1.7l-5 .8s-1.9 2.8-.6 5.8l13.5 3.6c.1 0 2.5.5 2-6.4zm11 3s-2.5 2.5-2.5 4.7c0 0 16.9-.6 25.7 4.7l-27.1-3.6c.1.1-1.9-1.9 3.9-5.8zm-19.3 19.7s1-3.4 4.2-3.1c.5 0 1.1.3 1.4.7.6.7 1.5 2.1 1.5 4.7.1-.1-1.6-5.9-7.1-2.3zm-15.2-5s1-3.4 4.3-3.1c.5 0 1.1.3 1.4.7.6.7 1.5 2.1 1.5 4.7 0-.1-1.7-5.9-7.2-2.3z" class="st4"/><path fill="none" stroke="#122a44" stroke-linecap="round" stroke-miterlimit="10" stroke-width="2.5" d="M109.5 148.2s4.4-3.9 5.5 1.9m-20.2-6.6s3.7-3.9 5.2 1.3m28.4-16.6s-4.7 2.3-4.6 5.2c0 .8.6 1.5 1.4 1.6l26.4 3.5"/><path fill="#f3f5f7" stroke="#122a44" stroke-linejoin="round" stroke-width="2.5" d="M127.8 135.3s-1.4 6 5.1 8.9c2.3 1 4.9 1.4 7.5.9 3.1-.5 7.2-2.1 8.5-7.1l-21.1-2.7z"/><path fill="none" stroke="#122a44" stroke-linecap="round" stroke-linejoin="round" stroke-width="2.5" d="M117.9 125.4s.4 3.6-.5 5.7c-.5 1-1.6 1.5-2.6 1.2l-13.9-3.7"/><path fill="#f3f5f7" stroke="#122a44" stroke-linecap="round" stroke-linejoin="round" stroke-width="2.5" d="M113.8 132.3s2.2 3.3-.6 6.4c0 0-5.5-2.8-13-2.8l1.1-6.9 12.5 3.3z"/><path fill="none" stroke="#122a44" stroke-linecap="round" stroke-linejoin="round" stroke-width="9.455" d="M116.5 141.4s-3-3-6.7-4"/><path d="M168.1 78.1s-8.5-3.2-7.4 9.5c0 0 1-11.8 8.8-7.3l-1.4-2.2z" class="st28"/><linearGradient id="SVGID_12_" x1="523.1284" x2="549.7207" y1="1943.2948" y2="1940.5874" gradientTransform="matrix(1.8958 0 0 -1.8958 -954.9025 3709.3589)" gradientUnits="userSpaceOnUse"><stop offset=".33" stop-color="#f3f5f7"/><stop offset=".78" stop-color="#8099b9"/></linearGradient><path fill="url(#SVGID_12_)" stroke="#122a44" stroke-linejoin="round" stroke-width="2" d="M91.9 10.4s-.7 3.7.7 5.9c0 0-18.8 6.4-33.2 31.2 0 0-3.3-9.9-23.8-1.9.1 0 8.4-34.5 56.3-35.2z"/><linearGradient id="SVGID_13_" x1="536.6613" x2="554.1737" y1="1938.4213" y2="1938.4213" gradientTransform="matrix(1.8958 0 0 -1.8958 -954.9025 3709.3589)" gradientUnits="userSpaceOnUse"><stop offset=".33" stop-color="#f3f5f7"/><stop offset=".78" stop-color="#8099b9"/></linearGradient><path fill="url(#SVGID_13_)" stroke="#122a44" stroke-linejoin="round" stroke-width="2" d="M93.2 18.3l2.5 2.5s-14.6 15.5-18 29.9c0 0-5.8-4.1-15.2-.8 0-.1 9.7-21.9 30.7-31.6z"/><linearGradient id="SVGID_14_" x1="546.4299" x2="555.1861" y1="1937.1289" y2="1937.1289" gradientTransform="matrix(1.8958 0 0 -1.8958 -954.9025 3709.3589)" gradientUnits="userSpaceOnUse"><stop offset=".33" stop-color="#f3f5f7"/><stop offset=".78" stop-color="#8099b9"/></linearGradient><path fill="url(#SVGID_14_)" stroke="#122a44" stroke-linejoin="round" stroke-width="2" d="M97.6 23s-9.4 12.2 0 26.8c0 0-7.5-6.6-16.6 1.1 0 0 5.5-19.9 16.6-27.9z"/><path d="M141.1 137s-3.1 5.4 2.6 7.1c0 0 4.2-2.7 4.7-6.1l-7.3-1zm-32.5-6.1s-3.1 3.9-.6 5.5l5.3 1.4s2.3-3.8-.8-5.9l-3.9-1z" class="st28"/><circle cx="140.9" cy="141.7" r="1.4" class="st16"/><circle cx="107.4" cy="133.7" r="1.4" class="st16"/><path d="M175.9 102.7s-3.8-3.5-8.8 7.3c0 0 6.5-6.8 8.8-6.2v-1.1zm-.6-7.9s-4.8-7-7.9 2.7c0 0 1.5-2.6 3.1-3.7.6-.4 1.4-.4 2 .1.9.8 2.3 2.7 3.4 7.2l-.6-6.3zm-13.4-25.7s-6.3 1-4.1 7.4c0 0-.4-6.1 6.4-5.7l-2.3-1.7zm-7.6-7.1s-4.2.4-1.4 6.9c.2.5 0 1.1-.4 1.4-.5.3-1.1.2-1.5-.2-.6-.7-1.8-2-2.8-2.7-.4-.3-1-.2-1.2.2-.1.1-.1.2-.1.3-.2 1.1-.3 3.3.7 8.2 0 0-3.6-5.4-2-9.3.6-1.4 2.3-2 3.6-1.2.5.3.9.7 1.2 1.2-.1 0-2-7.3 3.9-4.8zm-9.2-5.8s-6.6.5-3.9 5.2c.1.2.2.3.4.4l1.1 1c.3.4.3.9.1 1.3s-.7.6-1.2.5c-1.4-.3-4.5-1.5-6.4 1.4-.3.4-.4 1-.2 1.5.3.8.8 1.5 1.5 2 0 0-4.4-2.2-1.1-5.5 0 0 1.1-1.4 4.1-1.4 0 0-4.1-7.2 3.7-7.1l1.9.7zm-33.8-9.3s6.3-6.1 11 1.4c.2.3.4.7.5 1l.7 2s-3.3-.3-5 2.8l-1.1-1.1s.6 3.3 5.3 8c0 0 .3-2.2-2.8-5.5 0 0 3.3-5 6.9-1.7 0 0 1.7.8 4.7 5.8 0 0-.8-4.7-6.1-8 0 0-1.7-7.2-6.9-8.6 0 0-5-1.1-7.2 3.9zM99.9 5.3s-2.2 1.8-.3 7.9c0 0-2.5-3.9-1.7-8l2 .1zm1.2 9.8s3.7 3.9 7.5 2.1l-.2 1.8s-6 0-7.3-3.9z" class="st28"/><path d="M93.6 10.7s1.1-3 4.7-5l-4.2.3c.1 0-.8 1.1-.5 4.7zm5.8 8s1.9 3.9 8-.6l-.6 3.9c.1 0-6 1.1-7.4-3.3z" class="st28"/><linearGradient id="SVGID_15_" x1="562.4018" x2="558.3311" y1="1947.6542" y2="1953.9921" gradientTransform="matrix(1.8958 0 0 -1.8958 -954.9025 3709.3589)" gradientUnits="userSpaceOnUse"><stop offset=".33" stop-color="#f3f5f7"/><stop offset=".78" stop-color="#8099b9"/></linearGradient><path fill="url(#SVGID_15_)" d="M113.8 11.2s-5.5 1.7-6.4 5.3c0 0-7.7-2.5-6.1-9.1 0 0 10-2.5 12.5 3.8z"/><linearGradient id="SVGID_16_" x1="3351.6265" x2="3355.1458" y1="1200.5234" y2="1195.0894" gradientTransform="rotate(-150.611 2952.592 1963.6098) scale(1.8929)" gradientUnits="userSpaceOnUse"><stop offset=".33" stop-color="#f3f5f7"/><stop offset=".78" stop-color="#8099b9"/></linearGradient><path fill="url(#SVGID_16_)" d="M138.1 30s3.5 3.9 2.5 7.5c0 0 7.7 1.7 9.4-3.9 0 0-6.6-7.9-11.9-3.6z"/><linearGradient id="SVGID_17_" x1="1578.9331" x2="1577.4302" y1="2494.124" y2="2501.3589" gradientTransform="scale(1.8958 -1.8958) rotate(44.67 3940.036 -600.722)" gradientUnits="userSpaceOnUse"><stop offset=".33" stop-color="#f3f5f7"/><stop offset=".78" stop-color="#8099b9"/></linearGradient><path fill="url(#SVGID_17_)" d="M159.6 104.8s-2.1 5.5-.2 8.7c0 0-7.7 2.2-11.3-2.2 0 0 6-8.6 11.5-6.5z"/><linearGradient id="SVGID_18_" x1="1552.1963" x2="1549.0608" y1="2492.8442" y2="2498.707" gradientTransform="scale(1.89 -1.89) rotate(44.6 3919.8972 -584.4964)" gradientUnits="userSpaceOnUse"><stop offset=".33" stop-color="#f3f5f7"/><stop offset=".78" stop-color="#8099b9"/></linearGradient><path fill="url(#SVGID_18_)" d="M137.6 98s-2.8 5.3-1.7 10.2c0 0-6.9 2-10-2.9 0 .1 5.6-9.8 11.7-7.3z"/><linearGradient id="SVGID_19_" x1="2003.6484" x2="2005.9496" y1="2412.2388" y2="2408.6838" gradientTransform="scale(1.8958 -1.8958) rotate(61.331 3105.9272 -473.1765)" gradientUnits="userSpaceOnUse"><stop offset=".33" stop-color="#f3f5f7"/><stop offset=".78" stop-color="#8099b9"/></linearGradient><path fill="url(#SVGID_19_)" d="M92.5 102.2s-1.1 3.3.6 6.3c0 0-3.7 2.6-6.6 0-.1 0 1.6-4.9 6-6.3z"/><linearGradient id="SVGID_20_" x1="1823.9822" x2="1826.2839" y1="2471.2329" y2="2467.678" gradientTransform="scale(1.8958 -1.8958) rotate(54.788 3369.9742 -512.4758)" gradientUnits="userSpaceOnUse"><stop offset=".33" stop-color="#f3f5f7"/><stop offset=".78" stop-color="#8099b9"/></linearGradient><path fill="url(#SVGID_20_)" d="M84.1 101.3s-1.5 3.1-.1 6.3c0 0-3.9 2.2-6.6-.8-.1.1 2.1-4.7 6.7-5.5z"/><linearGradient id="SVGID_21_" x1="766.6432" x2="769.1302" y1="2335.7522" y2="2331.9111" gradientTransform="rotate(109.345 2297.6506 1754.7854) scale(1.8886)" gradientUnits="userSpaceOnUse"><stop offset=".33" stop-color="#f3f5f7"/><stop offset=".78" stop-color="#8099b9"/></linearGradient><path fill="url(#SVGID_21_)" stroke="#122a44" stroke-linejoin="round" stroke-width="1.5" d="M74.1 81s1.6-2.8 5-3.6c0 0-.5-5.1-4.4-5.6 0 0-2.5 5.1-.6 9.2z"/><linearGradient id="SVGID_22_" x1="764.696" x2="767.3193" y1="2331.5854" y2="2327.5332" gradientTransform="rotate(109.345 2297.6506 1754.7854) scale(1.8886)" gradientUnits="userSpaceOnUse"><stop offset=".33" stop-color="#f3f5f7"/><stop offset=".78" stop-color="#8099b9"/></linearGradient><path fill="url(#SVGID_22_)" stroke="#122a44" stroke-linejoin="round" stroke-width="1.5" d="M82.9 80s1.4-2.1 4.8-2.8c0 0-.7-5.7-4.3-6.2 0-.1-2.8 4.9-.5 9z"/><linearGradient id="SVGID_23_" x1="762.893" x2="765.2557" y1="2326.479" y2="2322.8301" gradientTransform="rotate(109.345 2297.6506 1754.7854) scale(1.8886)" gradientUnits="userSpaceOnUse"><stop offset=".33" stop-color="#f3f5f7"/><stop offset=".78" stop-color="#8099b9"/></linearGradient><path fill="url(#SVGID_23_)" stroke="#122a44" stroke-linejoin="round" stroke-width="1.5" d="M92.8 80s1.7-3 5.1-3.8c0 0-.4-4.8-4.3-5.3 0 0-2.7 4.9-.8 9.1z"/><linearGradient id="SVGID_24_" x1="1820.1777" x2="1822.5027" y1="2474.4575" y2="2470.8662" gradientTransform="scale(1.8958 -1.8958) rotate(54.788 3369.9742 -512.4758)" gradientUnits="userSpaceOnUse"><stop offset=".33" stop-color="#f3f5f7"/><stop offset=".78" stop-color="#8099b9"/></linearGradient><path fill="url(#SVGID_24_)" d="M75.1 104.1s-1.9 2.5-.5 5.8c0 0-3.7 1.6-6.3-1.3-.1 0 2.3-4.8 6.8-4.5z"/><path d="M101.7 6.6s-1.5 6 6.3 9.9l-.6.8s-8.3-2.5-6.6-10.5l.9-.2zm50.5 26.2s.8 3.9-3.9 6.6c0 0 4.7-1.4 5-5.8l-1.1-.8z" class="st28"/><path d="M41.6 87.2s2.5 3.6 5.8 0c0 0-2.9 4.8-5.8 0z" class="st4"/><path d="M153.6 34.6s1.2 2.5.3 6c0 0 1.4-1.4 1.7-5l-2-1zm-14.1 4.8s2.2 3.3 7.2.8c0 0-5 1.1-6.9-1.7l-.3.9z" class="st28"/><path d="M139.5 40s.8 5 6.1 4.4c0 0-2.9 1.7-6 .3l-.1-4.7zm10.5-6.9s-1.7 6.4-9.9 3.9l-.3 1.4s9.4 2.8 12.2-5.5l-2 .2zM90 179.6s8.2-.2 8.4 7.9l-3.2-.5s2-5.5-5.2-7.4zm-13-5.8s6.2 3 3.6 11l-2-.7c.1 0 2.3-8.1-1.6-10.3zm-27.1-17.7s3.6 7.2-4.4 9.1l-1.7-2.5s6.4 1.7 6.1-6.6zm-13.5-13.6s-.3 3.6-5.5 2.8l.3-1.6s0-.1.1-.1c.4.3 3.1 1.4 5.1-1.1zm-6.1-43.1s-2.2 10-7.7 7.5l-1.1 2.2c-.1 0 8.8 3.6 8.8-9.7zM21.2 92s3.9 8 7.5-4.7c0 0 .6 11.3-7.2 8.8l-.3-4.1zm6.6-15.8s-.6 6.1 6.6 3.6c0 0-6.4 6-9.3-1l2.7-2.6zm2.2-9.4s1.9 5.8 10.5-2.8c0 0-8.3 12.2-.6 12.7 0 0-6.9 1.1-3.9-6.9 0 0-3.2 3.1-6.9-.3l.9-2.7zm6.9 23.8s3 .8 4.4-2.8c0 0 1.7 3 4.7 1.4 0 0 1.1-.6 1.9-3 0 0-1.9 4.4-5 2.5 0 0-1.7-.8-1.7-3.3.1-.1-.7 5.2-4.3 5.2z" class="st28"/><path d="M96.6 10.4s1.9 5 3.9 7.2c0 0-5-1.7-3.9-7.2zM32.5 47.2S42.7 22 62.4 14.9c0 0 15.2-6.4 30.4-5.8 0 0-25.7-3-41.2 10.2 0-.1-13.6 10.2-19.1 27.9zm68-23.8s-8.6 9.4-1.7 25.2c0-.1-9.9-13 1.7-25.2zm43.4 18.7s5.8.5 9.3-3.5c.1 0-2.2 6.4-9.3 3.5zm14.4-1.6s9.1 8.6 7.7 29.6c0 0 4.7-20.4-7.7-29.6z" class="st4"/><linearGradient id="SVGID_25_" x1="571.7242" x2="567.5779" y1="1896.9982" y2="1899.1095" gradientTransform="matrix(1.8958 0 0 -1.8958 -954.9025 3709.3589)" gradientUnits="userSpaceOnUse"><stop offset=".26" stop-color="#1797e5"/><stop offset=".77" stop-color="#005099"/></linearGradient><path fill="url(#SVGID_25_)" d="M121.5 112.7s.6 1.9 3 3.3c0 0-3.9-6.9 4.4-7.2l-5-3.6c.1 0-3.5 3.3-2.4 7.5z"/><path d="M124 105.2c-.1.8.1 1.6.6 2.2 0 0-3.3 2.5-2.5 6.4 0 0-3.1-6.4 1.9-8.6z" class="st4"/><path d="M125.4 104.7s3.3 5 11.3 3l1.1.6s-8 4.4-14.1-3.3l1.7-.3z" class="st28"/><path d="M123.2 105.5s1.9 5 6.4 5.5c0 0-4.1.3-7.5-4.7l1.1-.8z" class="st28"/><linearGradient id="SVGID_26_" x1="584.5823" x2="579.2985" y1="1893.228" y2="1895.9177" gradientTransform="matrix(1.8958 0 0 -1.8958 -954.9025 3709.3589)" gradientUnits="userSpaceOnUse"><stop offset=".26" stop-color="#1797e5"/><stop offset=".77" stop-color="#005099"/></linearGradient><path fill="url(#SVGID_26_)" d="M145.9 111.2s-3.9 6.1-2.3 8.4c0 0 .3 1.4 2.5 1.9 0 0-1.1-3.9 1.4-6.1 1.3.8 2.7 1.6 4.1 2.2l1.4-2.2c0 .1-3.2-.1-7.1-4.2"/><path d="M131.8 111.6s6.1.3 6.1-3.9l1.1 1.4c-.1 0-.6 3.3-7.2 2.5zm-9.7-5s-1.9 2.8 0 7.2c0 0-3.6-3.3-3.3-5.3l3.3-1.9z" class="st28"/><path d="M133.4 116s6.1 2.2 7.2-5.5l-1.7-2.2s0 7.2-5.5 7.7zm11.9-3.6s-2.8 3.9-1.4 7.7c0 0-3-1.7-.3-8.6l1.7.9zm5.5 10.5s10.5 5.8 12.1-7.3l-1.4-1.8c.1 0 .1 12.2-10.7 9.1z" class="st28"/><linearGradient id="SVGID_27_" x1="550.4017" x2="538.1777" y1="1891.5859" y2="1896.7163" gradientTransform="matrix(1.8958 0 0 -1.8958 -954.9025 3709.3589)" gradientUnits="userSpaceOnUse"><stop offset=".26" stop-color="#1797e5"/><stop offset=".77" stop-color="#005099"/></linearGradient><path fill="url(#SVGID_27_)" d="M70.4 110.2s-2.5 10.8 10.2 17.4c0 0-4.4-9.4-5.5-17.6l-4.7.2z"/><linearGradient id="SVGID_28_" x1="554.6415" x2="541.179" y1="1892.6967" y2="1897.6813" gradientTransform="matrix(1.8958 0 0 -1.8958 -954.9025 3709.3589)" gradientUnits="userSpaceOnUse"><stop offset=".26" stop-color="#1797e5"/><stop offset=".77" stop-color="#005099"/></linearGradient><path fill="url(#SVGID_28_)" d="M79.6 108s-2.1 12.7 8.7 19.3l-.6-3.9s-3.6-9.7-3-15.8l-5.1.4z"/><path d="M153.9 117.9s6.8 1.2 7.7-3.4l-.5-1s-.6 4.2-7.2 4.4zm-8.6-6.9s-.6 2.5 4.1 5.5c0 0-3-.3-5-4.4l.9-1.1z" class="st28"/><path d="M147.8 110.5s3.6 5.5 12.2 2.2l1.1 1.9s-10 4.7-15.5-3.9l2.2-.2z" class="st28"/><path d="M146.7 119.6s3.9 1.9 11.6.8c0 0-7.5 5-11.6-.8zm-21.3-6.9s3.6 1.7 11.3.6c0-.1-6.1 5.2-11.3-.6z" class="st4"/><path d="M67.1 109.4s2.8 2.8 8.3 1.4l.8-4.1-1.9-.8s-.9 1.9-.6 3.8c0 0-3.3.8-5.8-1.4l-.8 1.1z" class="st28"/><path d="M67.2 109.5s.3 1.9 3.3 2.2c0 0-2.6.4-4-1.8l.7-.4zm4.8 2.4s2.8.3 3.3-1.7l.3 1.7c-1.1.5-2.4.5-3.6 0z" class="st28"/><path d="M77 107.2s-1.7 6.9.3 11.3c0 0-3.6-5.3-1.7-11.6l1.4.3zm.6-1.1s2.8 2.5 7.2.8v.8s-4.7 2.5-7.5-.8l.3-.8z" class="st28"/><path d="M76.7 106.9c.8 1.3 2.1 2.2 3.6 2.5 0 0-2.8 0-4.1-1.7l.5-.8zm5.6 2.5s2.5-.6 2.5-1.9l.3 1.4c-.1-.1-.9.7-2.8.5z" class="st28"/><path d="M84.8 108.5s-2.8 5 2.2 12.4c0 0-3-8.3-1.1-12.4h-1.1z" class="st28"/><path d="M86.1 108s3.9 2.5 7.2 0l1.1.8s-3.9 3.3-8.8.3l.5-1.1z" class="st28"/><path d="M85.3 109.1s.8 1.7 4.4 2.2c0 0-2.8.3-4.7-.8l.3-1.4zm5.8 1.9s2.2 0 3.3-2.5l.8 1.4c-1.1.9-2.6 1.3-4.1 1.1zm1.1 2.2s2.8-.3 3.6-2.5l.3 1.4s-1.1 1.4-3.9 1.1zm1.7-43.1s0-5.3 8.3-5c0 0-10.5-2.2-9.4 6.4l1.1-1.4zm4.4 2.2s1.1 1.7.6 4.1l1.2-.4c0 .1-.1-2.8-1.8-3.7zm-14.8-1.6S85 64.9 94.7 64c0 0-11.6-.3-12.2 6.6l1 .1z" class="st28"/><linearGradient id="SVGID_29_" x1="557.1685" x2="563.3707" y1="1921.4385" y2="1917.2096" gradientTransform="matrix(1.8958 0 0 -1.8958 -954.9025 3709.3589)" gradientUnits="userSpaceOnUse"><stop offset=".26" stop-color="#1797e5"/><stop offset=".77" stop-color="#005099"/></linearGradient><path fill="url(#SVGID_29_)" d="M104.4 64s6.9 5.3 6.6 9.7l-7.5-.8c.1 0 3.9-2.5.9-8.9z"/><path d="M83.4 159.1s5.8-8.8 25.2 1.9c-.1.1-16.4-14.6-25.2-1.9z" class="st28"/><path d="M83.4 160.8s5.3-8.3 25.4 1.7c0 0-17.4-13.6-25.4-1.7z" class="st4"/><path d="M115.7 142.5s-22.7-12.1-36.1 3.3c-2.6 3-3.4 7.3-2.1 11.1 2.4 7 9.3 17.9 28.5 21 0 0 32.3 6.9 54.7-21l4.1-3.9s-22.4 39-69.7 24c0 0-21.4-6.3-20.5-26 0-.2 0-.3.1-.5.5-1.9 4-13.1 20.9-13.8 0 0 14.9-1.4 20.2 5.3l.6 1.1c-.1-.2-.4-.4-.7-.6zM178.3 123s-2 10.6 6.9 21.7l-1 2.5s-7.2 3.9-11.1 17.1l-4.4-8.6s-.6-.8-2.2-.3l-3 1.1.3-1.1 3.3-1.4s1.9-.6 2.8 1.1l3 6.4s1.9-9.4 10.5-15.5c0 0-7.7-12.2-6.4-21.3l1.3-1.7" class="st4"/><path d="M158.8 161.1s6.9-8.3 7.5-10.8c0 0-1.9 6.9-5 10.8h-2.5z" class="st28"/><path d="M166.3 132.9s6.6-3.9 10.2-12.4l2.2-.6s.6 10.8-12.4 13z" class="st4"/><path d="M177.6 117.9s-2.2 10-11.3 14.9c0 0 9.4-4.1 13.5-13.5l-2.2-1.4zm-8.3 22.7s7.2 5.7 17.4 3.9v2.7c.1 0-10.2.3-17.4-6.6z" class="st28"/><path d="M54.6 98.6l9.1-9.7h-.6L54 98.6h.6zm-2.2-.3l10-9.7-2.5-.3-9.7 9.7 2.2.3z" class="st14"/><path d="M58.2 89.5l8.3 1.7v-.8l-8.3-.9zm-1.6 7.7l9.1.8-.3.8-8.8-1.6zm25.7-10l12.4 1.9-1.9 15.8 1.1-.6 1.9-15.8-13.5-1.3zm16 7l8 1.7-8.3-.6.3-1.1zm-1.4 8l8 1.7-8-.8v-.9z" class="st15"/><path d="M100.2 94.4l13 1.9 5.8 8.6-5.3-6.6-.8 7.7h-.6l.6-8.8-12.7-2.8z" class="st16"/><path d="M110.7 104.7s3.6 0 4.4 3.9c.1-.1.1-4.2-4.4-3.9z" class="st15"/><path d="M71.8 87s-1.1 11.9-2.2 16.3c-.1 0 .8-12.5 2.2-16.3z" class="st16"/><path d="M79.8 86.1l-9.1-.8s-1.4 13.3-2.5 18.8c0 0 .8-14.7 1.9-19.9l9.7 1.9zM50.5 97.8l1.7-9.4L65.7 90l-14.4-2.5-.8 10.3z" class="st16"/><path d="M94.4 84.5L91.9 87l-2.2-.3 2.5-2.5 2.2.3z" class="st14"/></svg>