<?xml version="1.0" encoding="utf-8"?>
<!-- Generator: Adobe Illustrator 22.1.0, SVG Export Plug-In . SVG Version: 6.00 Build 0)  -->
<svg version="1.1" id="Livello_1" xmlns="http://www.w3.org/2000/svg" xmlns:xlink="http://www.w3.org/1999/xlink" x="0px" y="0px"
	 viewBox="0 0 200 200" style="enable-background:new 0 0 200 200;" xml:space="preserve">
<style type="text/css">
	.st0{fill:#1797E5;stroke:#122A44;stroke-width:3;stroke-miterlimit:10;}
	.st1{fill:url(#SVGID_1_);stroke:#122A44;stroke-width:2.5;stroke-linejoin:round;}
	.st2{fill:url(#SVGID_2_);stroke:#122A44;stroke-width:2.5;stroke-linejoin:round;}
	.st3{fill:#1797E5;stroke:#122A44;stroke-width:4;stroke-miterlimit:10;}
	.st4{fill:#7DA4B7;}
	.st5{fill:#122A44;}
	.st6{fill:#5DC5F9;}
	.st7{fill:url(#SVGID_3_);stroke:#122A44;stroke-width:3;stroke-miterlimit:10;}
	.st8{fill:url(#SVGID_4_);}
	.st9{fill:url(#SVGID_5_);stroke:#122A44;stroke-width:3;stroke-linejoin:round;}
	.st10{fill:#C91111;stroke:#122A44;stroke-width:3;stroke-miterlimit:10;}
	.st11{fill:#750606;}
	.st12{fill:#3D0000;}
	.st13{fill:url(#SVGID_6_);stroke:#4F1A00;stroke-width:3;stroke-miterlimit:10;}
	.st14{fill:url(#SVGID_7_);stroke:#4F1A00;stroke-width:3;stroke-linejoin:round;}
	.st15{fill:#F7AE2D;stroke:#4F1A00;stroke-width:3;stroke-miterlimit:10;}
	.st16{opacity:0.63;fill:#FFFFFF;enable-background:new    ;}
	.st17{fill:#4F1A00;}
	.st18{fill:#FFFFFF;}
	.st19{fill:url(#SVGID_8_);}
	.st20{fill:#1797E5;stroke:#122A44;stroke-width:2;stroke-miterlimit:10;}
	.st21{fill:url(#SVGID_9_);}
	.st22{fill:#1797E5;stroke:#122A44;stroke-width:3;stroke-linejoin:round;}
	.st23{fill:url(#SVGID_10_);}
	.st24{fill:url(#SVGID_11_);}
	.st25{fill:#1797E5;stroke:#122A44;stroke-width:2.5;stroke-miterlimit:10;}
	.st26{fill:none;stroke:#122A44;stroke-width:2.5;stroke-linecap:round;stroke-miterlimit:10;}
	.st27{fill:#F3F5F7;stroke:#122A44;stroke-width:2.5;stroke-linejoin:round;}
	.st28{fill:none;stroke:#122A44;stroke-width:2.5;stroke-linecap:round;stroke-linejoin:round;}
	.st29{fill:#F3F5F7;stroke:#122A44;stroke-width:2.5;stroke-linecap:round;stroke-linejoin:round;}
	.st30{fill:none;stroke:#122A44;stroke-width:9.455;stroke-linecap:round;stroke-linejoin:round;}
	.st31{fill:url(#SVGID_12_);stroke:#122A44;stroke-width:2.5;stroke-linejoin:round;}
	.st32{fill:url(#SVGID_13_);stroke:#122A44;stroke-width:2.5;stroke-linejoin:round;}
	.st33{fill:url(#SVGID_14_);stroke:#122A44;stroke-width:2.5;stroke-linejoin:round;}
	.st34{fill:url(#SVGID_15_);}
	.st35{fill:url(#SVGID_16_);}
	.st36{fill:url(#SVGID_17_);}
	.st37{fill:url(#SVGID_18_);}
	.st38{fill:url(#SVGID_19_);}
	.st39{fill:url(#SVGID_20_);}
	.st40{fill:url(#SVGID_21_);stroke:#122A44;stroke-width:2;stroke-linejoin:round;}
	.st41{fill:url(#SVGID_22_);stroke:#122A44;stroke-width:2;stroke-linejoin:round;}
	.st42{fill:url(#SVGID_23_);stroke:#122A44;stroke-width:2;stroke-linejoin:round;}
	.st43{fill:url(#SVGID_24_);}
	.st44{fill:url(#SVGID_25_);}
	.st45{fill:url(#SVGID_26_);}
	.st46{fill:url(#SVGID_27_);}
	.st47{fill:url(#SVGID_28_);}
	.st48{fill:url(#SVGID_29_);}
	.st49{fill:url(#SVGID_30_);}
</style>
<title>drgn</title>
<path class="st0" d="M135.3,51c0,0,3-3,4.4-6.1c0,0-3.3-3.9,0-7.7c0,0,0.8-5-2.8-7.7c0,0,6.4-5,13.5,3.6c0,0,2.2-1.7,4.1,1.1
	c0,0,21.3,5.5,14.4,44L135.3,51z"/>
<linearGradient id="SVGID_1_" gradientUnits="userSpaceOnUse" x1="584.9291" y1="-1726.9615" x2="579.0823" y2="-1728.9087" gradientTransform="matrix(1.8958 0 0 1.8958 -954.9025 3330.199)">
	<stop  offset="0.33" style="stop-color:#F3F5F7"/>
	<stop  offset="0.78" style="stop-color:#8099B9"/>
</linearGradient>
<path class="st1" d="M147.1,46.8c0,0,2.5,0.8,3.9-0.6c0,0,4.9,9.3,1.3,18.5l-11-7.4C141.3,57.3,147.1,54.5,147.1,46.8z"/>
<linearGradient id="SVGID_2_" gradientUnits="userSpaceOnUse" x1="584.851" y1="-1719.4402" x2="578.1206" y2="-1719.7502" gradientTransform="matrix(1.8958 9.264496e-03 -9.264496e-03 1.8958 -960.7931 3312.6145)">
	<stop  offset="0.33" style="stop-color:#F3F5F7"/>
	<stop  offset="0.37" style="stop-color:#E4E9EF"/>
	<stop  offset="0.48" style="stop-color:#C0CCDC"/>
	<stop  offset="0.59" style="stop-color:#A4B6CC"/>
	<stop  offset="0.7" style="stop-color:#90A6C2"/>
	<stop  offset="0.81" style="stop-color:#849CBB"/>
	<stop  offset="0.91" style="stop-color:#8099B9"/>
</linearGradient>
<path class="st2" d="M153,44.8c0,0,2.5,0,3.9-1.9c0,0,11.8,9.4,6.1,30.5l-8.1-8.1C154.8,65.3,159.5,55.6,153,44.8z"/>
<path class="st3" d="M29.1,68.1c0,0-17.1,6.4-14.6,15.5c0,0,0.5,3,5.9,2.2C20.5,85.9,32.4,68.9,29.1,68.1z"/>
<path class="st3" d="M22.8,130.1c0,0-7.2,8.6-0.9,17.9c0.4,0.6,1.1,0.8,1.8,0.6c2.1-0.7,6.6-3.1,10.7-11.1L22.8,130.1z M34.1,153.2
	c-0.6,3-1.2,9.7,3.7,13.6c0.3,0.2,0.7,0.3,1.1,0.2c1.4-0.5,4.8-2.2,7.7-7.9c0.3-0.6,0.1-1.3-0.5-1.6c0,0,0,0,0,0l-10.3-5.2
	c-0.6-0.3-1.3-0.1-1.6,0.5C34.1,153,34.1,153.1,34.1,153.2z"/>
<path class="st4" d="M147.5,47.2c0,0-0.2,6.9-4.4,8.9l2.3,0.2c0,0,2.7-3.3,2.7-8.8L147.5,47.2z M153.6,45.2c0,0,5.3,8.3,2.2,16.6
	l1.7,0.8c0,0,3.6-8.3-2.8-17.7L153.6,45.2z"/>
<path class="st3" d="M20.7,96.4c0,0-13.8,13.5-7.5,21.1c0,0,1.8,2.6,6.7-0.5C19.9,117.1,24.2,95.8,20.7,96.4L20.7,96.4z"/>
<path class="st5" d="M53.3,176c0,0,2,7,6.8,9.2c0,0,7.8,1.7,3-12.3L53.3,176z"/>
<path class="st6" d="M25.9,72.6c0,0-10,4.1-8.8,11.6c0,0-1.9-0.3-1.1-3.6c0,0,0.6-4.7,9.4-9.1l2.2-1.1l-1.4,2.2L25.9,72.6z
	 M19,100.8c0,0-9.7,10.5-4.1,16c0,0-0.3-10.5,5.8-14.4L19,100.8z M24.2,132.6c0,0-3.9,6.9-0.3,13.5c0,0,1.7-0.6,1.9-1.1
	c0,0-0.3,1.4-2.5,2.2c0,0-5.8-5.8-0.3-15.2L24.2,132.6z M36.1,156.6c0,0,0.3,6.1,3,8c0,0,0.3,0,0.8-0.3c0,0-0.3,0.8-1.4,1.1
	c0,0-4.1-3-3.3-8.8H36.1z"/>
<linearGradient id="SVGID_3_" gradientUnits="userSpaceOnUse" x1="579.8489" y1="-1682.2678" x2="593.9945" y2="-1674.2982" gradientTransform="matrix(1.8958 0 0 1.8958 -954.9025 3330.199)">
	<stop  offset="0.12" style="stop-color:#1797E5"/>
	<stop  offset="0.14" style="stop-color:#1693E1"/>
	<stop  offset="0.33" style="stop-color:#0A6FBA"/>
	<stop  offset="0.48" style="stop-color:#0358A2"/>
	<stop  offset="0.57" style="stop-color:#005099"/>
	<stop  offset="0.71" style="stop-color:#0663AD"/>
	<stop  offset="0.99" style="stop-color:#1694E2"/>
	<stop  offset="1" style="stop-color:#1797E5"/>
</linearGradient>
<path class="st7" d="M170.4,125.4c0,0,13.5-25.2-1.9-46.4l-4.4-8.3c0,0-0.6-1.4-1.9-1.1c0,0-3.9-6.6-8.6-7.7c0,0-3.6-5.5-10.2-5.8
	c0,0-1.7-7.7-10.5-6.4c0,0-1.9-7.7-10-4.4c0,0-1.4-4.1-6.4-2.8c0,0-0.3-7.5-19.4-1.7c0,0-57.2-8-68.6,26.5c0,0-0.5,1.3,0.9,1.6
	c0,0,0.1,0.1,0.1,0.1c0,0,0,0,0,0c-1.9,2.2-3,5-3.2,7.9c0,0-9.7,6.6-5,17.4c0,0-3.3,7.7,0.6,13c0,0-5.5,7.2,0.6,14.1
	c0,0-3.9,8,4.4,12.4c0,0-3.3,8.3,4.1,11.1c0,0-0.3,10,8.8,12.7c0,0,0.3,5.5,6.1,6.4c0,0-2.8,7.7,7.2,10.5c0,0,4.7,9.4,11.6,4.7
	c0,0,4.4,6.1,14.7,4.7c0,0,6.4,5.5,16.6,2.8c0,0,6.9,3.3,15.8-1.7c0,0,5.3,2.5,10-1.7c0,0,8,0.3,10.8-2.8c0,0,4.7,1.7,8.6-1.1
	c0,0,8.8-1.9,11.3,1.9c0,0,3.3,6.4-3,13.3c0,0,15.5,3.3,16.6-16c0,0,0.8-10.5-11.6-13.3L170.4,125.4z"/>
<linearGradient id="SVGID_4_" gradientUnits="userSpaceOnUse" x1="535.6274" y1="-1715.8236" x2="585.6104" y2="-1669.3561" gradientTransform="matrix(1.8958 0 0 1.8958 -954.9025 3330.199)">
	<stop  offset="0.13" style="stop-color:#1797E5"/>
	<stop  offset="0.26" style="stop-color:#1693E1"/>
	<stop  offset="0.4" style="stop-color:#1287D4"/>
	<stop  offset="0.54" style="stop-color:#0B73BE"/>
	<stop  offset="0.69" style="stop-color:#0257A0"/>
	<stop  offset="0.72" style="stop-color:#005099"/>
</linearGradient>
<ellipse class="st8" cx="102.7" cy="116.6" rx="64.7" ry="63.6"/>
<linearGradient id="SVGID_5_" gradientUnits="userSpaceOnUse" x1="559.8192" y1="-1680.0955" x2="543.5992" y2="-1714.0236" gradientTransform="matrix(1.8958 0 0 1.8958 -954.9025 3330.199)">
	<stop  offset="0.33" style="stop-color:#F3F5F7"/>
	<stop  offset="0.78" style="stop-color:#8099B9"/>
</linearGradient>
<path class="st9" d="M115.5,77.7l4.4,5.1c0,0,3.3-11.6-4.4,34l-4.4,13l-55.2-5.1c0,0-7.5-1.4-6.5-9.8L115.5,77.7"/>
<path class="st10" d="M53.2,85.3L56,68.2l59.7,7.7l-2.5,17.7l-4.4,28.7l-59.7-7.5L53.2,85.3L53.2,85.3z"/>
<path class="st11" d="M52.7,98.9l-0.8,5.3l18.2,2.2l27.6,6.1v-3l13.5,2.6l0.6-5.7L52.7,98.9z"/>
<path class="st12" d="M105.7,78.7l-40.3-5.8c-2,5.8-7.7,6.4-7.7,6.4l-4.4,27.3c6.4,1.7,6.6,8.1,6.6,8.1l40.6,5.5
	c2-6.4,7.5-5.3,7.5-5.3l4.1-28.2C104.6,84.1,105.7,78.7,105.7,78.7z M107.1,113.8c0,0-5.5-0.8-7.5,5.3L61,113.8c0,0-0.3-6.1-6.4-7.7
	l3.6-20.7l0.8-5c0,0,5.5-0.8,7.5-6.4l38.2,5.5c0,0-1.1,5.5,6.1,8L107.1,113.8z"/>
<linearGradient id="SVGID_6_" gradientUnits="userSpaceOnUse" x1="565.3955" y1="-1701.4285" x2="550.579" y2="-1704.6633" gradientTransform="matrix(1.8958 0 0 1.8958 -954.9025 3330.199)">
	<stop  offset="0.17" style="stop-color:#F7AE2D"/>
	<stop  offset="0.86" style="stop-color:#B04211"/>
</linearGradient>
<path class="st13" d="M95.8,92l18.2,3l9.4,13.5l-8.3,4.7l-2.5-5.5l-18-3.3L95.8,92z"/>
<linearGradient id="SVGID_7_" gradientUnits="userSpaceOnUse" x1="529.6498" y1="-1707.0494" x2="540.7024" y2="-1706.0833" gradientTransform="matrix(1.8958 0 0 1.8958 -954.9025 3330.199)">
	<stop  offset="0.17" style="stop-color:#F7AE2D"/>
	<stop  offset="0.86" style="stop-color:#B04211"/>
</linearGradient>
<path class="st14" d="M50.3,86.3l19.9,2.5l-1.9,12.4L49.8,99l-0.6,2.8C49.2,101.8,48.9,89,50.3,86.3L50.3,86.3z"/>
<path class="st15" d="M68.7,82.6l-3,23.5l29.3,4.1l3.3-23.8L68.7,82.6L68.7,82.6z"/>
<path class="st16" d="M96.4,90.6l-0.8,5.5l-9.7,10.5l-1.1-4L96.4,90.6z M82,85.6l-14.3,15.1l-0.5,4.1l0.7,0.1l18.5-18.8L82,85.6
	L82,85.6z M87.8,86.4l-19.1,18.8l2.2-1.4l17.7-17.4H87.8z"/>
<path class="st17" d="M80.6,96.4l-3,6.1l7,0.7l-1.2-6.5c0,0,2.2-0.3,2.5-2.8c0,0,0.6-3.6-3-4.1c0,0-3-0.3-3.9,2.8
	C78.9,92.5,78.4,95.3,80.6,96.4z"/>
<path class="st17" d="M83.4,89.2c0,0,3.6,0.6,3.6,4.1c0,0,0.3,3-2.2,4.1l0.6,7.7h1.1L85.3,98c0,0,3.1-1.7,2-5.7
	c-0.2-0.8-0.7-1.6-1.3-2.1C85.2,89.7,84.3,89.3,83.4,89.2L83.4,89.2z"/>
<path class="st18" d="M82.8,89.5c0,0,3.3,0.5,3.3,4.1c0,0,0,2.2-2.5,3.3l1.1,8.6h1.1l-1.4-8.3c0,0,1.8-0.7,2.1-3.1
	c0.3-2.2-1.2-4.3-3.5-4.7c0,0-0.1,0-0.1,0L82.8,89.5z"/>
<path class="st12" d="M106,116c0,0-3.3-0.4-5.4,5.3l6.5-0.6L106,116z M107.4,76.2c0,0-2.2,7.2,5.5,9.7l1.4-8.8L107.4,76.2z
	 M57.1,69.6l-1.4,8.3c0,0,6.9-0.3,7.7-7.5L57.1,69.6z M51.3,107.4l-0.8,6.4l8,1.1C58.5,114.9,57.4,108.8,51.3,107.4z"/>
<path class="st6" d="M100,43.9c0,0,5.8-4.7,14.7,0l-0.5,1.1c0,0,5.5-0.8,9.4,7.2c0,0,1.7-11.1,8,0c0,0,8.3-1.1,9.4,4.7
	c0,0-1.4,2.8,0.3,4.7c0,0-1.1-4.1,1.7-3.9c0,0,4.7,0.3,8,4.7l1.1,0.8c0,0,3.6,0.6,8.3,7.2c1.5,2,2.8,4,4,6.2
	c0.7,1.2,1.4,2.4,2.2,3.6c2.7,3.9,8.6,13.9,6.5,23.4c0,0-0.8,14.9-4.1,19.1c0,0,5-8.6,5.8-19.1c0,0,1.1-13.5-7.5-24.3l-4.7-8.8
	l-1.7-0.8c0,0-3.6-5.8-8.9-7.2v-0.6c0,0-3-4.7-9.7-5l-0.3-1.1c0,0-1.9-6.6-10.2-4.7c0,0-0.8-7.7-8.8-4.4c0,0-5-2.8-8-2.2
	c0,0,3.3-5.8-9.4-4.1c0,0-5.1,0.9-6.6,1.5L100,43.9z"/>
<linearGradient id="SVGID_8_" gradientUnits="userSpaceOnUse" x1="533.3909" y1="-1710.9929" x2="542.4061" y2="-1739.308" gradientTransform="matrix(1.8958 0 0 1.8958 -954.9025 3330.199)">
	<stop  offset="0.26" style="stop-color:#1797E5"/>
	<stop  offset="0.4" style="stop-color:#1694E2"/>
	<stop  offset="0.51" style="stop-color:#138BD8"/>
	<stop  offset="0.61" style="stop-color:#0E7CC8"/>
	<stop  offset="0.7" style="stop-color:#0767B1"/>
	<stop  offset="0.77" style="stop-color:#005099"/>
</linearGradient>
<path class="st19" d="M35.5,57.5c0,0,19.9-23.3,43.7-14.5c18,6.7,16.9,12.7,16.9,12.7s-12.2,1.9-17.9,9.7c0,0-11.1-12.1-25.3-1.9
	C52.9,63.6,52.6,47.4,35.5,57.5L35.5,57.5z"/>
<path class="st6" d="M117.4,182.1c0,0-1.8,2.3-6.9-0.6c0,0-4.5,3.7-14.7,1.5c0,0-6.9,4.4-15.2-2.5c0,0-11.3,2.5-14.1-6.6
	c0,0-6.9,6.6-10.2-2.8c0,0-6.9,0.8-7.7-8c0,0,1.7-2.8,0-4.1c0,0-5.5,5.8-5.5-3.9c0,0-14.4-4.4-5-11.3c0,0-13.5,0-7.2-10.8
	c0,0-9.4-4.1-4.4-12.4c0,0-5.8-2.8-2.8-12.2l1.9-0.8c0,0-5.3-6.1-0.8-11.9l0.3-1.1c0,0-4.4-12.2,2.8-13.3l2.8-0.3
	c0,0-2.5-6.6,2.5-11.1c0,0-2.2-10.8,18.5-21.8h-3.9c0,0-14.4,6.4-18,20.5l1.1,1.4c0,0-2.3,1.4-3.1,6.8c-0.1,0.9-0.6,1.8-1.3,2.3
	c-2.4,1.7-7.4,7.1-3.5,15.5c0,0-3.3,7.2,0.6,13c0,0-5.8,7.5,0.8,13.8c0,0-5,7.5,4.4,12.2c0,0-4.1,8.3,3.9,10.8
	c0,0-1.1,10.2,8.6,12.4c0,0-0.3,5.5,5.8,6.4l0.6,1.4c0,0-3,6.6,6.6,9.1c0,0,4.4,9.7,11.1,4.1c0,0,3.9,6.6,14.4,5l1.4,0.8
	c0,0,6.4,4.7,15.2,1.9c0,0,6.9,3.3,15.8-1.7c0,0,4.7,2.5,8.8-1.1L117.4,182.1z"/>
<path class="st20" d="M81.2,142.8c0,0-15.5-4.1-13.5-17.7c0,0-4.7-6.4-2.8-12.7c0,0,1.1-4.4,2.5-4.1c0,0,4.1-5.5,8-5
	c0,0-0.3,2.8,0.8,3.3c0,0,4.7-6.9,9.1-6.4c0,0-1.9,5.3,0,7.7c0,0,3.6-6.1,7.5-6.1c0,0-0.6,3.6,0.3,5.3c0,0,4.4-1.4,4.4,12.7
	c0,0,3.3,1.1,5,4.1l-0.6,15.5L81.2,142.8z"/>
<linearGradient id="SVGID_9_" gradientUnits="userSpaceOnUse" x1="558.2336" y1="-1689.5612" x2="551.3906" y2="-1691.6178" gradientTransform="matrix(1.8958 0 0 1.8958 -954.9025 3330.199)">
	<stop  offset="0.26" style="stop-color:#1797E5"/>
	<stop  offset="0.77" style="stop-color:#005099"/>
</linearGradient>
<path class="st21" d="M89.2,109.8c0,0,9.4,21.1-2.8,27.8l13-1.9l0.6-13c0,0-1.7-1.5-3.7-1.8c0,0,0.7-8.7-2.1-12L89.2,109.8z"/>
<path class="st6" d="M67.9,109.4c0,0-3.9,7.5,1.9,15.5c0,0-1.9,11.9,12.2,15.8l-3.6,0.3c0,0-11.9-5.3-9.7-16c0,0-6.4-6.9-1.1-16
	L67.9,109.4z M134.8,178.4l6.6-1.6c0,0,6.6-1.7,11.9,0.8c0,0,6.6,4.1,0.8,16h-2.2c0,0,3-3.3,2.8-8.6c0,0,0-2.5-1.1-4.4
	c0,0-1.9-3.9-10.8-2.8l-2.2,0.6c-2.1,1.5-4.8,1.9-7.2,1.1L134.8,178.4z"/>
<path class="st22" d="M119,108.8c0,0-9.7-0.6-11.6,11.3l-5.8,1.1c0,0-3,3.9-0.6,8.3c0,0-1.1,3.6,0.3,5.8c0,0-22.7-1.7-27.6,15.2
	c0,0-3,29.6,42.3,31.2c0,0,27.1,1.4,47.3-23.8l4.4-1.4l6.1,11.9c0,0,2.2-16.9,14.7-22.1c0,0-13.8-13.5-6.9-30.4l-13.8,8.3
	c0,0-2.8-8.8-5.3-8.8c0,0-0.3-1.9-1.9-2.5c0,0-1.7-3.3,0.3-8.8c0,0-5.5-2.8-13,5.8c0,0-2.8-1.1-3.6,1.9l-3.3-1.1
	c0,0-1.1-3.9-3.9-3.6c0,0-1.1-1.1,1.9-10.5c0,0-8-1.1-13.3,7.5c0,0-3-1.1-3.9,1.9C121.8,106.1,119.9,106.3,119,108.8z"/>
<linearGradient id="SVGID_10_" gradientUnits="userSpaceOnUse" x1="567.7294" y1="-1693.5105" x2="558.3563" y2="-1691.3274" gradientTransform="matrix(1.8958 0 0 1.8958 -954.9025 3330.199)">
	<stop  offset="0.26" style="stop-color:#1797E5"/>
	<stop  offset="0.77" style="stop-color:#005099"/>
</linearGradient>
<path class="st23" d="M117.4,127.1l-12.2-2.5l4.2-1c0.3,0,0.5-0.2,0.6-0.5c0.5-2.1,3.2-10.5,10.7-12l-0.8-0.8c0,0-8.3-0.3-11.1,11.3
	l-6.4,1.4v4.7l13.3,3.3L117.4,127.1z"/>
<radialGradient id="SVGID_11_" cx="418.6749" cy="-2089.3728" r="32.0324" gradientTransform="matrix(1.8324 0.2146 -0.1481 1.2644 -927.1001 2696.5938)" gradientUnits="userSpaceOnUse">
	<stop  offset="0.26" style="stop-color:#1797E5"/>
	<stop  offset="0.77" style="stop-color:#005099"/>
</radialGradient>
<path class="st24" d="M98.3,176.8c0,0-10.8-16.3,1.7-15.2c0,0,2.8,0,13.3,3c0,0,3.3,0.6-0.6-3.9c0,0-5.5-4.7-9.7-6.1
	c0,0-3.6-4.4,4.7-2.5l4.7,0.8c0,0,4.4,1.1,5.5-3.9c0,0,0.8-5-6.1-4.4c0,0-0.8,0-1.9,0.8c0,0,3.9-5.5,10.5-1.9c1,0.4,1.9,1,2.8,1.7
	l3.3-3l3-0.6l-2.5-8c0,0-3,0.8-1.1-2.2l6.9-1.4c0,0,4.4-1.4,6.1-3c0,0,7.7-6.4,17.1-6.1c0,0,5.5-0.3,5.8-5c0,0,2.2,1.9,4.4,8.3
	c0,0,0.3,1.4,1.7,1.4l8.7-5.3l1.7,2.6c0,0-3.2,9,5.7,22.3c0,0-8,8.8-11.1,18l-4-9l-7.3,2.6C161.6,156.9,144.7,187.9,98.3,176.8
	L98.3,176.8z"/>
<path class="st0" d="M104.9,51.9c0,0-0.6-8.6-4.1-4.1c0,0-6.6-10.5,4.1-24.9c0,0,5-2.5,3.3-7.2c0,0,0.8-2.8,6.6-4.1
	c0,0-3.3-7.2-13-4.7c0,0-2.5-3.9-7.5-0.3c0,0-46.7-10-66.6,44.8c0,0,19.3-6.6,26.8-3c0,0,3.3,1.4,2.2,7.2c0,0,14.7-8,21.8,2.5
	c0,0,8.8-9.4,14.9-7.2c0,0,2.5,1.1,3.9,4.7"/>
<path class="st25" d="M108,66.8c0,0-10.2-12.4-21.8-3.9c0,0-7.6-0.1-10.9,6.8c0,0-0.6,0.8-0.6,1.4c0,0,4.4,1.1,4.4,6.6
	c0,0,1.1,0,3.9-7.2c0,0,4.4,0.8,5,6.9c0,0,1.1,0.3,3.6-1.7c0,0,0.8-4.7,2.2-5.3c0,0,3.6,0,4.4,6.1c0,0,0.6,1.1,5.5-3.3l7.5,0.8
	C111.1,74.1,112.5,71.9,108,66.8L108,66.8z"/>
<path class="st6" d="M117.4,125.4c0,0-0.8,4.1-1.9,4.4l-12.4-3c0,0-0.3-2.2,0.8-3.6l5.3-0.7c0.3,0,0.6-0.3,0.6-0.6
	c0.2-2.2,1.4-10.1,10.2-11.1l-0.6-0.6c0,0-8.5-0.8-10.5,9.7c0,0-0.3,1.4-1.4,1.7l-5,0.8c0,0-1.9,2.8-0.6,5.8l13.5,3.6
	C115.5,131.8,117.9,132.3,117.4,125.4L117.4,125.4z M128.4,128.4c0,0-2.5,2.5-2.5,4.7c0,0,16.9-0.6,25.7,4.7l-27.1-3.6
	C124.6,134.3,122.6,132.3,128.4,128.4z M109.1,148.1c0,0,1-3.4,4.2-3.1c0.5,0,1.1,0.3,1.4,0.7c0.6,0.7,1.5,2.1,1.5,4.7
	C116.3,150.3,114.6,144.5,109.1,148.1L109.1,148.1z M93.9,143.1c0,0,1-3.4,4.3-3.1c0.5,0,1.1,0.3,1.4,0.7c0.6,0.7,1.5,2.1,1.5,4.7
	C101.1,145.3,99.4,139.5,93.9,143.1L93.9,143.1z"/>
<path class="st26" d="M109.5,148.2c0,0,4.4-3.9,5.5,1.9 M94.8,143.5c0,0,3.7-3.9,5.2,1.3 M128.4,128.2c0,0-4.7,2.3-4.6,5.2
	c0,0.8,0.6,1.5,1.4,1.6l26.4,3.5"/>
<path class="st27" d="M127.8,135.3c0,0-1.4,6,5.1,8.9c2.3,1,4.9,1.4,7.5,0.9c3.1-0.5,7.2-2.1,8.5-7.1L127.8,135.3z"/>
<path class="st28" d="M117.9,125.4c0,0,0.4,3.6-0.5,5.7c-0.5,1-1.6,1.5-2.6,1.2l-13.9-3.7"/>
<path class="st29" d="M113.8,132.3c0,0,2.2,3.3-0.6,6.4c0,0-5.5-2.8-13-2.8l1.1-6.9L113.8,132.3z"/>
<path class="st30" d="M116.5,141.4c0,0-3-3-6.7-4"/>
<path class="st5" d="M168.1,78.1c0,0-8.5-3.2-7.4,9.5c0,0,1-11.8,8.8-7.3L168.1,78.1z"/>
<linearGradient id="SVGID_12_" gradientUnits="userSpaceOnUse" x1="523.1276" y1="-1743.2878" x2="549.72" y2="-1740.5804" gradientTransform="matrix(1.8958 0 0 1.8958 -954.9025 3330.199)">
	<stop  offset="0.33" style="stop-color:#F3F5F7"/>
	<stop  offset="0.78" style="stop-color:#8099B9"/>
</linearGradient>
<path class="st31" d="M91.9,10.4c0,0-0.7,3.7,0.7,5.9c0,0-18.8,6.4-33.2,31.2c0,0-3.3-9.9-23.8-1.9C35.7,45.6,44,11.1,91.9,10.4
	L91.9,10.4z"/>
<linearGradient id="SVGID_13_" gradientUnits="userSpaceOnUse" x1="536.6555" y1="-1738.4471" x2="554.1542" y2="-1738.4471" gradientTransform="matrix(1.8958 0 0 1.8958 -954.9025 3330.199)">
	<stop  offset="0.33" style="stop-color:#F3F5F7"/>
	<stop  offset="0.78" style="stop-color:#8099B9"/>
</linearGradient>
<path class="st32" d="M93.2,18.3l2.5,2.5c0,0-14.6,15.5-18,29.9c0,0-5.8-4.1-15.2-0.8C62.5,49.8,72.2,28,93.2,18.3L93.2,18.3z"/>
<linearGradient id="SVGID_14_" gradientUnits="userSpaceOnUse" x1="546.4299" y1="-1737.1354" x2="555.1792" y2="-1737.1354" gradientTransform="matrix(1.8958 0 0 1.8958 -954.9025 3330.199)">
	<stop  offset="0.33" style="stop-color:#F3F5F7"/>
	<stop  offset="0.78" style="stop-color:#8099B9"/>
</linearGradient>
<path class="st33" d="M97.6,23c0,0-9.4,12.2,0,26.8c0,0-7.5-6.6-16.6,1.1C81,50.9,86.5,31,97.6,23z"/>
<path class="st5" d="M141.1,137c0,0-3.1,5.4,2.6,7.1c0,0,4.2-2.7,4.7-6.1L141.1,137z M108.6,130.9c0,0-3.1,3.9-0.6,5.5l5.3,1.4
	c0,0,2.3-3.8-0.8-5.9L108.6,130.9z"/>
<circle class="st18" cx="140.9" cy="141.7" r="1.4"/>
<circle class="st18" cx="107.4" cy="133.7" r="1.4"/>
<path class="st5" d="M175.9,102.7c0,0-3.8-3.5-8.8,7.3c0,0,6.5-6.8,8.8-6.2L175.9,102.7z M175.3,94.8c0,0-4.8-7-7.9,2.7
	c0,0,1.5-2.6,3.1-3.7c0.6-0.4,1.4-0.4,2,0.1c0.9,0.8,2.3,2.7,3.4,7.2L175.3,94.8z M161.9,69.1c0,0-6.3,1-4.1,7.4
	c0,0-0.4-6.1,6.4-5.7L161.9,69.1z M154.3,62c0,0-4.2,0.4-1.4,6.9c0.2,0.5,0,1.1-0.4,1.4c-0.5,0.3-1.1,0.2-1.5-0.2
	c-0.6-0.7-1.8-2-2.8-2.7c-0.4-0.3-1-0.2-1.2,0.2c-0.1,0.1-0.1,0.2-0.1,0.3c-0.2,1.1-0.3,3.3,0.7,8.2c0,0-3.6-5.4-2-9.3
	c0.6-1.4,2.3-2,3.6-1.2c0.5,0.3,0.9,0.7,1.2,1.2C150.3,66.8,148.4,59.5,154.3,62L154.3,62z M145.1,56.2c0,0-6.6,0.5-3.9,5.2
	c0.1,0.2,0.2,0.3,0.4,0.4l1.1,1c0.3,0.4,0.3,0.9,0.1,1.3c-0.2,0.4-0.7,0.6-1.2,0.5c-1.4-0.3-4.5-1.5-6.4,1.4c-0.3,0.4-0.4,1-0.2,1.5
	c0.3,0.8,0.8,1.5,1.5,2c0,0-4.4-2.2-1.1-5.5c0,0,1.1-1.4,4.1-1.4c0,0-4.1-7.2,3.7-7.1L145.1,56.2z M111.3,46.9c0,0,6.3-6.1,11,1.4
	c0.2,0.3,0.4,0.7,0.5,1l0.7,2c0,0-3.3-0.3-5,2.8l-1.1-1.1c0,0,0.6,3.3,5.3,8c0,0,0.3-2.2-2.8-5.5c0,0,3.3-5,6.9-1.7
	c0,0,1.7,0.8,4.7,5.8c0,0-0.8-4.7-6.1-8c0,0-1.7-7.2-6.9-8.6C118.5,43,113.5,41.9,111.3,46.9L111.3,46.9z M99.9,5.3
	c0,0-2.2,1.8-0.3,7.9c0,0-2.5-3.9-1.7-8L99.9,5.3z M101.1,15.1c0,0,3.7,3.9,7.5,2.1l-0.2,1.8C108.4,19,102.4,19,101.1,15.1z"/>
<path class="st5" d="M93.6,10.7c0,0,1.1-3,4.7-5L94.1,6C94.2,6,93.3,7.1,93.6,10.7z M99.4,18.7c0,0,1.9,3.9,8-0.6l-0.6,3.9
	C106.9,22,100.8,23.1,99.4,18.7z"/>
<linearGradient id="SVGID_15_" gradientUnits="userSpaceOnUse" x1="562.3992" y1="-1747.6525" x2="558.3284" y2="-1753.9904" gradientTransform="matrix(1.8958 0 0 1.8958 -954.9025 3330.199)">
	<stop  offset="0.33" style="stop-color:#F3F5F7"/>
	<stop  offset="0.78" style="stop-color:#8099B9"/>
</linearGradient>
<path class="st34" d="M113.8,11.2c0,0-5.5,1.7-6.4,5.3c0,0-7.7-2.5-6.1-9.1C101.3,7.4,111.3,4.9,113.8,11.2z"/>
<linearGradient id="SVGID_16_" gradientUnits="userSpaceOnUse" x1="3351.626" y1="-1000.5232" x2="3355.1453" y2="-995.0891" gradientTransform="matrix(-1.6493 -0.9289 -0.9289 1.6493 4747.3911 4793.5811)">
	<stop  offset="0.33" style="stop-color:#F3F5F7"/>
	<stop  offset="0.78" style="stop-color:#8099B9"/>
</linearGradient>
<path class="st35" d="M138.1,30c0,0,3.5,3.9,2.5,7.5c0,0,7.7,1.7,9.4-3.9C150,33.6,143.4,25.7,138.1,30z"/>
<linearGradient id="SVGID_17_" gradientUnits="userSpaceOnUse" x1="1578.9136" y1="-2294.1199" x2="1577.4106" y2="-2301.3547" gradientTransform="matrix(1.3482 -1.3328 1.3328 1.3482 1090.3005 5310.5859)">
	<stop  offset="0.33" style="stop-color:#F3F5F7"/>
	<stop  offset="0.78" style="stop-color:#8099B9"/>
</linearGradient>
<path class="st36" d="M159.6,104.8c0,0-2.1,5.5-0.2,8.7c0,0-7.7,2.2-11.3-2.2C148.1,111.3,154.1,102.7,159.6,104.8L159.6,104.8z"/>
<linearGradient id="SVGID_18_" gradientUnits="userSpaceOnUse" x1="1552.1649" y1="-2292.8274" x2="1549.0294" y2="-2298.6902" gradientTransform="matrix(1.346 -1.327 1.327 1.346 1091.9625 5250.5537)">
	<stop  offset="0.33" style="stop-color:#F3F5F7"/>
	<stop  offset="0.78" style="stop-color:#8099B9"/>
</linearGradient>
<path class="st37" d="M137.6,98c0,0-2.8,5.3-1.7,10.2c0,0-6.9,2-10-2.9C125.9,105.4,131.5,95.5,137.6,98L137.6,98z"/>
<linearGradient id="SVGID_19_" gradientUnits="userSpaceOnUse" x1="2003.636" y1="-2212.2307" x2="2005.9371" y2="-2208.6758" gradientTransform="matrix(0.9095 -1.6634 1.6634 0.9095 1943.6405 5451.1973)">
	<stop  offset="0.33" style="stop-color:#F3F5F7"/>
	<stop  offset="0.78" style="stop-color:#8099B9"/>
</linearGradient>
<path class="st38" d="M92.5,102.2c0,0-1.1,3.3,0.6,6.3c0,0-3.7,2.6-6.6,0C86.4,108.5,88.1,103.6,92.5,102.2z"/>
<linearGradient id="SVGID_20_" gradientUnits="userSpaceOnUse" x1="1823.964" y1="-2271.2212" x2="1826.2657" y2="-2267.6663" gradientTransform="matrix(1.0931 -1.5489 1.5489 1.0931 1601.4366 5412.4839)">
	<stop  offset="0.33" style="stop-color:#F3F5F7"/>
	<stop  offset="0.78" style="stop-color:#8099B9"/>
</linearGradient>
<path class="st39" d="M84.1,101.3c0,0-1.5,3.1-0.1,6.3c0,0-3.9,2.2-6.6-0.8C77.3,106.9,79.5,102.1,84.1,101.3z"/>
<linearGradient id="SVGID_21_" gradientUnits="userSpaceOnUse" x1="766.6512" y1="-2135.7573" x2="769.1381" y2="-2131.9163" gradientTransform="matrix(-0.6256 1.782 1.782 0.6256 4358.0874 42.9771)">
	<stop  offset="0.33" style="stop-color:#F3F5F7"/>
	<stop  offset="0.78" style="stop-color:#8099B9"/>
</linearGradient>
<path class="st40" d="M74.1,81c0,0,1.6-2.8,5-3.6c0,0-0.5-5.1-4.4-5.6C74.7,71.8,72.2,76.9,74.1,81z"/>
<linearGradient id="SVGID_22_" gradientUnits="userSpaceOnUse" x1="764.6999" y1="-2131.5879" x2="767.3232" y2="-2127.5356" gradientTransform="matrix(-0.6256 1.782 1.782 0.6256 4358.0874 42.9771)">
	<stop  offset="0.33" style="stop-color:#F3F5F7"/>
	<stop  offset="0.78" style="stop-color:#8099B9"/>
</linearGradient>
<path class="st41" d="M82.9,80c0,0,1.4-2.1,4.8-2.8c0,0-0.7-5.7-4.3-6.2C83.4,70.9,80.6,75.9,82.9,80L82.9,80z"/>
<linearGradient id="SVGID_23_" gradientUnits="userSpaceOnUse" x1="762.8882" y1="-2126.4758" x2="765.2509" y2="-2122.8269" gradientTransform="matrix(-0.6256 1.782 1.782 0.6256 4358.0874 42.9771)">
	<stop  offset="0.33" style="stop-color:#F3F5F7"/>
	<stop  offset="0.78" style="stop-color:#8099B9"/>
</linearGradient>
<path class="st42" d="M92.8,80c0,0,1.7-3,5.1-3.8c0,0-0.4-4.8-4.3-5.3C93.6,70.9,90.9,75.8,92.8,80z"/>
<linearGradient id="SVGID_24_" gradientUnits="userSpaceOnUse" x1="1820.179" y1="-2274.4583" x2="1822.5039" y2="-2270.8669" gradientTransform="matrix(1.0931 -1.5489 1.5489 1.0931 1601.4366 5412.4839)">
	<stop  offset="0.33" style="stop-color:#F3F5F7"/>
	<stop  offset="0.78" style="stop-color:#8099B9"/>
</linearGradient>
<path class="st43" d="M75.1,104.1c0,0-1.9,2.5-0.5,5.8c0,0-3.7,1.6-6.3-1.3C68.2,108.6,70.6,103.8,75.1,104.1z"/>
<path class="st5" d="M101.7,6.6c0,0-1.5,6,6.3,9.9l-0.6,0.8c0,0-8.3-2.5-6.6-10.5L101.7,6.6z M152.2,32.8c0,0,0.8,3.9-3.9,6.6
	c0,0,4.7-1.4,5-5.8L152.2,32.8z"/>
<radialGradient id="SVGID_25_" cx="529.2197" cy="-2533.3921" r="29.8255" gradientTransform="matrix(1.845 0 0 1.1623 -926.7636 3080.9758)" gradientUnits="userSpaceOnUse">
	<stop  offset="0.17" style="stop-color:#3FC0E5"/>
	<stop  offset="0.62" style="stop-color:#20A1E6"/>
</radialGradient>
<path class="st44" d="M70.1,175.2c0,0-40.1-23.8-30.1-78l-10.8,10.5C29.2,107.7,27.2,153.6,70.1,175.2L70.1,175.2z"/>
<path class="st6" d="M41.6,87.2c0,0,2.5,3.6,5.8,0C47.4,87.2,44.5,92,41.6,87.2L41.6,87.2z"/>
<path class="st5" d="M153.6,34.6c0,0,1.2,2.5,0.3,6c0,0,1.4-1.4,1.7-5L153.6,34.6z M139.5,39.4c0,0,2.2,3.3,7.2,0.8
	c0,0-5,1.1-6.9-1.7L139.5,39.4z"/>
<path class="st5" d="M139.5,40c0,0,0.8,5,6.1,4.4c0,0-2.9,1.7-6,0.3L139.5,40z M150,33.1c0,0-1.7,6.4-9.9,3.9l-0.3,1.4
	c0,0,9.4,2.8,12.2-5.5L150,33.1z M90,179.6c0,0,8.2-0.2,8.4,7.9l-3.2-0.5C95.2,187,97.2,181.5,90,179.6L90,179.6z M77,173.8
	c0,0,6.2,3,3.6,11l-2-0.7C78.7,184.1,80.9,176,77,173.8L77,173.8z M49.9,156.1c0,0,3.6,7.2-4.4,9.1l-1.7-2.5
	C43.8,162.7,50.2,164.4,49.9,156.1z M36.4,142.5c0,0-0.3,3.6-5.5,2.8l0.3-1.6c0,0,0-0.1,0.1-0.1c0,0,0,0,0,0
	C31.7,143.9,34.4,145,36.4,142.5L36.4,142.5z M30.3,99.4c0,0-2.2,10-7.7,7.5l-1.1,2.2C21.4,109.1,30.3,112.7,30.3,99.4z M21.2,92
	c0,0,3.9,8,7.5-4.7c0,0,0.6,11.3-7.2,8.8L21.2,92z M27.8,76.2c0,0-0.6,6.1,6.6,3.6c0,0-6.4,6-9.3-1L27.8,76.2z M30,66.8
	c0,0,1.9,5.8,10.5-2.8c0,0-8.3,12.2-0.6,12.7c0,0-6.9,1.1-3.9-6.9c0,0-3.2,3.1-6.9-0.3L30,66.8z M36.9,90.6c0,0,3,0.8,4.4-2.8
	c0,0,1.7,3,4.7,1.4c0,0,1.1-0.6,1.9-3c0,0-1.9,4.4-5,2.5c0,0-1.7-0.8-1.7-3.3C41.3,85.3,40.5,90.6,36.9,90.6L36.9,90.6z"/>
<path class="st6" d="M96.6,10.4c0,0,1.9,5,3.9,7.2C100.5,17.6,95.5,15.9,96.6,10.4z M32.5,47.2c0,0,10.2-25.2,29.9-32.3
	c0,0,15.2-6.4,30.4-5.8c0,0-25.7-3-41.2,10.2C51.6,19.2,38,29.5,32.5,47.2L32.5,47.2z M100.5,23.4c0,0-8.6,9.4-1.7,25.2
	C98.8,48.5,88.9,35.6,100.5,23.4z M143.9,42.1c0,0,5.8,0.5,9.3-3.5C153.3,38.6,151,45,143.9,42.1z M158.3,40.5c0,0,9.1,8.6,7.7,29.6
	C166,70.1,170.7,49.7,158.3,40.5L158.3,40.5z"/>
<linearGradient id="SVGID_26_" gradientUnits="userSpaceOnUse" x1="571.7292" y1="-1697.0078" x2="567.5829" y2="-1699.1191" gradientTransform="matrix(1.8958 0 0 1.8958 -954.9025 3330.199)">
	<stop  offset="0.26" style="stop-color:#1797E5"/>
	<stop  offset="0.77" style="stop-color:#005099"/>
</linearGradient>
<path class="st45" d="M121.5,112.7c0,0,0.6,1.9,3,3.3c0,0-3.9-6.9,4.4-7.2l-5-3.6C124,105.2,120.4,108.5,121.5,112.7z"/>
<path class="st4" d="M38.3,44.4l-2.2,0.8c0,0,4.1-15.2,19.3-24.6c0,0,13.5-10.2,36.2-10c-0.2,0.3-0.3,0.7-0.3,1.1
	C91.4,11.8,49.9,11.8,38.3,44.4z M63.2,49.1c0,0,10-21.3,29.9-30.4l0.5,0.5c0,0-15.2,5-29.3,29.6L63.2,49.1z"/>
<path class="st6" d="M124,105.2c-0.1,0.8,0.1,1.6,0.6,2.2c0,0-3.3,2.5-2.5,6.4C122.1,113.8,119,107.4,124,105.2z"/>
<path class="st4" d="M96.1,24.8c0,0-9.1,7.5-14.4,25.2l1.1-0.8C82.8,49.1,85.3,38,96.1,24.8z"/>
<path class="st5" d="M125.4,104.7c0,0,3.3,5,11.3,3l1.1,0.6c0,0-8,4.4-14.1-3.3L125.4,104.7z"/>
<path class="st5" d="M123.2,105.5c0,0,1.9,5,6.4,5.5c0,0-4.1,0.3-7.5-4.7L123.2,105.5z"/>
<linearGradient id="SVGID_27_" gradientUnits="userSpaceOnUse" x1="584.5776" y1="-1693.2189" x2="579.2938" y2="-1695.9086" gradientTransform="matrix(1.8958 0 0 1.8958 -954.9025 3330.199)">
	<stop  offset="0.26" style="stop-color:#1797E5"/>
	<stop  offset="0.77" style="stop-color:#005099"/>
</linearGradient>
<path class="st46" d="M145.9,111.2c0,0-3.9,6.1-2.3,8.4c0,0,0.3,1.4,2.5,1.9c0,0-1.1-3.9,1.4-6.1c1.3,0.8,2.7,1.6,4.1,2.2l1.4-2.2
	C153,115.5,149.8,115.3,145.9,111.2"/>
<path class="st5" d="M131.8,111.6c0,0,6.1,0.3,6.1-3.9l1.1,1.4C138.9,109.1,138.4,112.4,131.8,111.6L131.8,111.6z M122.1,106.6
	c0,0-1.9,2.8,0,7.2c0,0-3.6-3.3-3.3-5.3L122.1,106.6z"/>
<path class="st5" d="M133.4,116c0,0,6.1,2.2,7.2-5.5l-1.7-2.2C138.9,108.3,138.9,115.5,133.4,116z M145.3,112.4c0,0-2.8,3.9-1.4,7.7
	c0,0-3-1.7-0.3-8.6L145.3,112.4z M150.8,122.9c0,0,10.5,5.8,12.1-7.3l-1.4-1.8C161.6,113.8,161.6,126,150.8,122.9L150.8,122.9z"/>
<linearGradient id="SVGID_28_" gradientUnits="userSpaceOnUse" x1="550.3961" y1="-1691.5728" x2="538.1722" y2="-1696.7031" gradientTransform="matrix(1.8958 0 0 1.8958 -954.9025 3330.199)">
	<stop  offset="0.26" style="stop-color:#1797E5"/>
	<stop  offset="0.77" style="stop-color:#005099"/>
</linearGradient>
<path class="st47" d="M70.4,110.2c0,0-2.5,10.8,10.2,17.4c0,0-4.4-9.4-5.5-17.6L70.4,110.2z"/>
<linearGradient id="SVGID_29_" gradientUnits="userSpaceOnUse" x1="554.6328" y1="-1692.6732" x2="541.1703" y2="-1697.6578" gradientTransform="matrix(1.8958 0 0 1.8958 -954.9025 3330.199)">
	<stop  offset="0.26" style="stop-color:#1797E5"/>
	<stop  offset="0.77" style="stop-color:#005099"/>
</linearGradient>
<path class="st48" d="M79.6,108c0,0-2.1,12.7,8.7,19.3l-0.6-3.9c0,0-3.6-9.7-3-15.8L79.6,108z"/>
<path class="st5" d="M153.9,117.9c0,0,6.8,1.2,7.7-3.4l-0.5-1C161.1,113.5,160.5,117.7,153.9,117.9L153.9,117.9z M145.3,111
	c0,0-0.6,2.5,4.1,5.5c0,0-3-0.3-5-4.4L145.3,111z"/>
<path class="st5" d="M147.8,110.5c0,0,3.6,5.5,12.2,2.2l1.1,1.9c0,0-10,4.7-15.5-3.9L147.8,110.5z"/>
<path class="st6" d="M146.7,119.6c0,0,3.9,1.9,11.6,0.8C158.3,120.4,150.8,125.4,146.7,119.6z M125.4,112.7c0,0,3.6,1.7,11.3,0.6
	C136.7,113.2,130.6,118.5,125.4,112.7z"/>
<path class="st5" d="M67.1,109.4c0,0,2.8,2.8,8.3,1.4l0.8-4.1l-1.9-0.8c0,0-0.9,1.9-0.6,3.8c0,0-3.3,0.8-5.8-1.4L67.1,109.4z"/>
<path class="st5" d="M67.2,109.5c0,0,0.3,1.9,3.3,2.2c0,0-2.6,0.4-4-1.8L67.2,109.5z M72,111.9c0,0,2.8,0.3,3.3-1.7l0.3,1.7
	C74.5,112.4,73.2,112.4,72,111.9L72,111.9z"/>
<path class="st5" d="M77,107.2c0,0-1.7,6.9,0.3,11.3c0,0-3.6-5.3-1.7-11.6L77,107.2z M77.6,106.1c0,0,2.8,2.5,7.2,0.8v0.8
	c0,0-4.7,2.5-7.5-0.8L77.6,106.1z"/>
<path class="st5" d="M76.7,106.9c0.8,1.3,2.1,2.2,3.6,2.5c0,0-2.8,0-4.1-1.7L76.7,106.9z M82.3,109.4c0,0,2.5-0.6,2.5-1.9l0.3,1.4
	C85,108.8,84.2,109.6,82.3,109.4z"/>
<path class="st5" d="M84.8,108.5c0,0-2.8,5,2.2,12.4c0,0-3-8.3-1.1-12.4H84.8z"/>
<path class="st5" d="M86.1,108c0,0,3.9,2.5,7.2,0l1.1,0.8c0,0-3.9,3.3-8.8,0.3L86.1,108z"/>
<path class="st5" d="M85.3,109.1c0,0,0.8,1.7,4.4,2.2c0,0-2.8,0.3-4.7-0.8L85.3,109.1z M91.1,111c0,0,2.2,0,3.3-2.5l0.8,1.4
	C94.1,110.8,92.6,111.2,91.1,111z M92.2,113.2c0,0,2.8-0.3,3.6-2.5l0.3,1.4C96.1,112.1,95,113.5,92.2,113.2z M93.9,70.1
	c0,0,0-5.3,8.3-5c0,0-10.5-2.2-9.4,6.4L93.9,70.1z M98.3,72.3c0,0,1.1,1.7,0.6,4.1l1.2-0.4C100.1,76.1,100,73.2,98.3,72.3z
	 M83.5,70.7c0,0,1.5-5.8,11.2-6.7c0,0-11.6-0.3-12.2,6.6L83.5,70.7z"/>
<linearGradient id="SVGID_30_" gradientUnits="userSpaceOnUse" x1="557.169" y1="-1721.4392" x2="563.3712" y2="-1717.2103" gradientTransform="matrix(1.8958 0 0 1.8958 -954.9025 3330.199)">
	<stop  offset="0.26" style="stop-color:#1797E5"/>
	<stop  offset="0.77" style="stop-color:#005099"/>
</linearGradient>
<path class="st49" d="M104.4,64c0,0,6.9,5.3,6.6,9.7l-7.5-0.8C103.6,72.9,107.4,70.4,104.4,64z"/>
<path class="st5" d="M83.4,159.1c0,0,5.8-8.8,25.2,1.9C108.5,161.1,92.2,146.4,83.4,159.1L83.4,159.1z"/>
<path class="st6" d="M83.4,160.8c0,0,5.3-8.3,25.4,1.7C108.8,162.5,91.4,148.9,83.4,160.8z"/>
<path class="st6" d="M115.7,142.5c0,0-22.7-12.1-36.1,3.3c-2.6,3-3.4,7.3-2.1,11.1c2.4,7,9.3,17.9,28.5,21c0,0,32.3,6.9,54.7-21
	l4.1-3.9c0,0-22.4,39-69.7,24c0,0-21.4-6.3-20.5-26c0-0.2,0-0.3,0.1-0.5c0.5-1.9,4-13.1,20.9-13.8c0,0,14.9-1.4,20.2,5.3l0.6,1.1
	C116.3,142.9,116,142.7,115.7,142.5L115.7,142.5z"/>
<path class="st6" d="M178.3,123c0,0-2,10.6,6.9,21.7l-1,2.5c0,0-7.2,3.9-11.1,17.1l-4.4-8.6c0,0-0.6-0.8-2.2-0.3l-3,1.1l0.3-1.1
	l3.3-1.4c0,0,1.9-0.6,2.8,1.1l3,6.4c0,0,1.9-9.4,10.5-15.5c0,0-7.7-12.2-6.4-21.3L178.3,123"/>
<path class="st5" d="M158.8,161.1c0,0,6.9-8.3,7.5-10.8c0,0-1.9,6.9-5,10.8H158.8z"/>
<path class="st6" d="M166.3,132.9c0,0,6.6-3.9,10.2-12.4l2.2-0.6C178.7,119.9,179.3,130.7,166.3,132.9z"/>
<path class="st5" d="M177.6,117.9c0,0-2.2,10-11.3,14.9c0,0,9.4-4.1,13.5-13.5L177.6,117.9z M169.3,140.6c0,0,7.2,5.7,17.4,3.9v2.7
	C186.8,147.2,176.5,147.5,169.3,140.6L169.3,140.6z"/>
<path class="st16" d="M54.6,98.6l9.1-9.7h-0.6l-9.1,9.7H54.6z M52.4,98.3l10-9.7l-2.5-0.3L50.2,98L52.4,98.3L52.4,98.3z"/>
<path class="st17" d="M58.2,89.5l8.3,1.7v-0.8L58.2,89.5z M56.6,97.2l9.1,0.8l-0.3,0.8L56.6,97.2L56.6,97.2z M82.3,87.2l12.4,1.9
	l-1.9,15.8l1.1-0.6l1.9-15.8L82.3,87.2L82.3,87.2z M98.3,94.2l8,1.7L98,95.3L98.3,94.2L98.3,94.2z M96.9,102.2l8,1.7l-8-0.8V102.2z"
	/>
<path class="st18" d="M100.2,94.4l13,1.9l5.8,8.6l-5.3-6.6l-0.8,7.7h-0.6l0.6-8.8L100.2,94.4z"/>
<path class="st17" d="M110.7,104.7c0,0,3.6,0,4.4,3.9C115.2,108.5,115.2,104.4,110.7,104.7z"/>
<path class="st18" d="M71.8,87c0,0-1.1,11.9-2.2,16.3C69.5,103.3,70.4,90.8,71.8,87z"/>
<path class="st18" d="M79.8,86.1l-9.1-0.8c0,0-1.4,13.3-2.5,18.8c0,0,0.8-14.7,1.9-19.9L79.8,86.1z M50.5,97.8l1.7-9.4L65.7,90
	l-14.4-2.5L50.5,97.8L50.5,97.8z"/>
<path class="st16" d="M94.4,84.5L91.9,87l-2.2-0.3l2.5-2.5L94.4,84.5z"/>
</svg>
