<svg id="Livello_1" data-name="Livello 1" xmlns="http://www.w3.org/2000/svg" viewBox="0 0 280 280"><defs><style>.cls-1{fill:#3099d1;}</style></defs><title>UAC_singolo</title><path class="cls-1" d="M140,44.39A95.61,95.61,0,1,0,235.61,140,95.72,95.72,0,0,0,140,44.39Zm0,188.73A93.12,93.12,0,1,1,233.12,140,93.23,93.23,0,0,1,140,233.12Z"/><path class="cls-1" d="M131.29,101h7.34c4.88,0,7.92-3,7.92-7.92v-6c0-4.89-3-7.92-7.92-7.92h-7.34c-4.88,0-7.92,3-7.92,7.92v6C123.37,98,126.41,101,131.29,101ZM129.66,87.1c0-1.45.19-1.63,1.63-1.63h7.34c1.44,0,1.62.18,1.62,1.63v6c0,1.44-.18,1.63-1.62,1.63h-7.34c-1.44,0-1.63-.19-1.63-1.63Z"/><rect class="cls-1" x="133.45" y="178.98" width="23.18" height="21.84" rx="7.92" ry="7.92"/><path class="cls-1" d="M184.9,112.65l-27.43,15.84a22.52,22.52,0,0,0-45,.2v25.8L93.86,165.22l1.24,2.13,27.43-15.84a22.52,22.52,0,0,0,45-.2V125.5l18.57-10.72Zm-66.18,16a16.24,16.24,0,1,1,32.48,0v3.42l-32.48,18.75Z"/><path class="cls-1" d="M140,31.94A108.06,108.06,0,1,1,31.94,140,108.18,108.18,0,0,1,140,31.94m0-7.69A115.75,115.75,0,1,0,255.75,140,115.87,115.87,0,0,0,140,24.25Z"/></svg>