<?xml version="1.0" encoding="utf-8"?>
<!-- Generator: Adobe Illustrator 22.1.0, SVG Export Plug-In . SVG Version: 6.00 Build 0)  -->
<svg version="1.0" id="Livello_1" xmlns="http://www.w3.org/2000/svg" xmlns:xlink="http://www.w3.org/1999/xlink" x="0px" y="0px"
	 viewBox="0 0 200 200" enable-background="new 0 0 200 200" xml:space="preserve">
<path fill="#0D629A" d="M116,139.5H8.7c-1.3-6-2-12.7-2-20.2V84.7c8.5,15.2,25.8,21.2,38.7,21.2H116c0.3,0,0.5,0,0.8,0
	c0.1,0,7.1-0.1,11.3,3.9c2.6,2.4,3.9,6.5,3.9,12.1C131.9,136.9,121.8,139.4,116,139.5z"/>
<path fill="#0D629A" d="M6.7,43.3V5h111c0,0,28.6,0,50.6,16.8H47C33.6,21.8,15.4,27.9,6.7,43.3z"/>
<path fill="#0D629A" d="M193.3,77.3c0,72.3,0,117.7,0,117.7H84c0,0-6.8,0.2-16.5-1.7c-10.4-2-24-6.2-35.7-15.5
	c-4.1-3.2-7.9-7-11.2-11.4H116c14.2,0,34.2-8.1,40.7-29.4c1.4-4.5,2.2-9.5,2.2-15.2c0-5-0.6-9.3-1.6-13.1h0
	c-2.3-8.9-6.8-14.8-10.7-18.5C134.7,79,119.1,78.9,115.7,79H45.4c-0.1,0-4.9-0.2-9.4-2.3c-0.4-0.2-0.7-0.4-1.1-0.5
	c-4.5-2.5-6.4-6.2-6.4-12.3c0-13.8,14.2-15.1,18.5-15.1h141.4c0.2,0.6,0.4,1.1,0.6,1.7C191.8,58,193.3,66.9,193.3,77.3z"/>
<g>
	<path fill="#02AEEF" d="M189.1,148.8c0,32.7-25.6,44.6-42.9,44.6H67.6c-10.4-2-24-6.2-35.7-15.5v-9.8h114.3c5.9-0.2,16-2.7,16-17.7
		c0-5.6-1.3-9.7-3.9-12.1c-0.5-0.5-1.1-0.9-1.6-1.2c-4.2-2.7-9.6-2.6-9.7-2.6c-0.3,0-0.5,0-0.8,0H75.6c-15.1,0-36.5-8.3-42.3-30.2
		c4.2,1.1,8.3,1.6,12,1.6h22.3c4,1.5,7.9,1.7,8,1.7H146c1.6-0.1,5.9-0.1,11.3,1.1h0c6,1.3,13.3,4.1,19.5,10
		C182.4,124.1,189.1,132.2,189.1,148.8z"/>
	<path fill="#02AEEF" d="M193.3,77.3h-116c-1.8,0-5.5,0.3-9.2,1.7H45.4c-0.1,0-4.9-0.2-9.4-2.3c-0.4-0.2-0.7-0.4-1.1-0.5
		c7.5-18.6,27.8-25.8,42.4-25.8h111.8C191.8,58,193.3,66.9,193.3,77.3z"/>
</g>
</svg>
