<svg xmlns="http://www.w3.org/2000/svg" viewBox="0 0 200 200"><circle cx="100" cy="100" r="95" fill="#22274f"/><linearGradient id="a" x1="1298.9968" x2="1417.7303" y1="648" y2="648" gradientTransform="matrix(-1 0 0 1 1458.3636 -548)" gradientUnits="userSpaceOnUse"><stop offset="0" stop-color="#44bab4"/><stop offset="1" stop-color="#0f778b"/></linearGradient><path fill="url(#a)" d="M159.4 61.8V90s-5.7 21.6-59.4 21.6-59.4 26.6-59.4 26.6v-28.1S39.2 87.8 100 87.8s59.4-26 59.4-26z"/><linearGradient id="b" x1="40.6333" x2="159.3667" y1="134.9823" y2="134.9823" gradientUnits="userSpaceOnUse"><stop offset="0" stop-color="#44bab4"/><stop offset="1" stop-color="#0f778b"/></linearGradient><path fill="url(#b)" d="M40.6 110.2v28.1s5.7 21.8 59.4 21.8 59.4-21.8 59.4-21.8V110s1.4 26.3-59.4 26.3-59.4-26.1-59.4-26.1z"/><linearGradient id="c" x1="40.6333" x2="159.3667" y1="-781.5012" y2="-781.5012" gradientTransform="matrix(1 0 0 -1 0 -716.4836)" gradientUnits="userSpaceOnUse"><stop offset="0" stop-color="#44bab4"/><stop offset="1" stop-color="#0f778b"/></linearGradient><path fill="url(#c)" d="M40.6 90V61.8S46.3 40 100 40s59.4 21.8 59.4 21.8V90s1.4-26.3-59.4-26.3S40.6 90 40.6 90z"/><linearGradient id="d" x1="40.6333" x2="159.3667" y1="648" y2="648" gradientTransform="translate(0 -548)" gradientUnits="userSpaceOnUse"><stop offset="0" stop-color="#44bab4"/><stop offset="1" stop-color="#0f778b"/></linearGradient><path fill="url(#d)" d="M40.6 61.8V90s5.7 21.6 59.4 21.6 59.4 26.6 59.4 26.6V110s1.4-22.1-59.4-22.1-59.4-26.1-59.4-26.1z"/></svg>