<?xml version="1.0" encoding="utf-8"?>
<!-- Generator: Adobe Illustrator 22.1.0, SVG Export Plug-In . SVG Version: 6.00 Build 0)  -->
<svg version="1.0" id="Livello_1" xmlns="http://www.w3.org/2000/svg" xmlns:xlink="http://www.w3.org/1999/xlink" x="0px" y="0px"
	 viewBox="0 0 200 200" style="enable-background:new 0 0 200 200;" xml:space="preserve">
<path d="M100,5C47.5,5,5,47.5,5,100s42.5,95,95,95s95-42.5,95-95S152.5,5,100,5z M122.7,134c-0.2,2.1,0,4.2,0,6.3H82.3
	c-0.6,0-1.2,0-1.8,0c-1.8-0.1-2.4,0.6-2.3,2.5c0.1,3.8,0,7.6,0,11.5H61.8v-13.7H49.6c-3.3,0-3.3,0-3.3-3.4c0-3.8,0-7.5,0-11.3
	c0-1.4,0.5-1.9,1.9-1.8c4.4,0.1,8.8,0,13.4,0v-14.1c-0.9,0-1.7-0.1-2.5-0.1c-7.5,0-15,0-22.5,0c-3.1,0-5.8-2.7-5.8-5.7v-3.7
	c0-5.3,1.8-7.1,7-7.1c7,0,14.1,0,21.1,0h2.6V79.3H46.3v-8.6c0-2,0.1-4,0-6c-0.1-1.6,0.6-2.2,2.1-2.1c4.3,0.1,8.6,0,13.3,0v-3
	c0-3.4,0-6.7,0-10.1c0-1.1,0.2-1.9,1.6-1.9c4.4,0.1,8.9,0.1,13.3,0c1.4,0,1.6,0.7,1.6,1.9c0,3.5,0,6.9,0,10.3v2.8h3.2
	c12.8,0,25.6,0.1,38.4,0c2.2,0,3.1,0.5,3.1,2.9c0,1.8-0.3,3.6-0.6,5.3c-3.4,2.3-6.5,5.2-8.9,8.4c-1.3,0.1-2.7,0.2-4.2,0.2
	c-9.3,0-18.7-0.1-28-0.1h-2.6v14h28.3c-0.6,2.7-0.9,5.4-0.9,8.2c0,2.8,0.3,5.6,0.9,8.2H78.4V124h2.4c10.8,0,21.6,0,32.4,0h0.2
	c2.6,3.4,5.8,6.3,9.4,8.7C122.8,133.1,122.8,133.5,122.7,134z M141.5,129.9c-15.9-0.1-28.8-13.3-28.7-29.2
	c0.1-16.1,13.3-29.1,29.3-28.9c16.1,0.2,29,13.2,28.9,29.3C170.9,117.1,157.8,130,141.5,129.9z"/>
</svg>
