<svg xmlns="http://www.w3.org/2000/svg" version="1" viewBox="0 0 200 200"><path fill="#BF1D2C" fill-rule="evenodd" d="M100 5C47.53 5 5 47.53 5 100s42.53 95 95 95 95-42.53 95-95-42.53-95-95-95zm73.63 54.53c1.67 3.07 3.15 6.25 4.44 9.53l-55.85-20.93v-8.05l51.41 19.45zm-157.2 59.21l105.79-92.99v14.16L16.51 119.07c-.03-.11-.05-.22-.08-.33zm2.23 8.02l103.56-78.5V62.7L18.86 127.33c-.07-.19-.13-.38-.2-.57zm2.74 7.13l100.82-63.41v-7.6l59.73 19c.59 2.69 1.04 5.43 1.37 8.2l-61.1-19.28v14.21L21.79 134.76l-.39-.87zm100.82 40.65h-63.5c-2.75-1.49-5.41-3.14-7.96-4.91l71.46-9.41v14.32zm34.72-12.55l-34.72-2.21v-7.19l-80.74 9.57c-1.06-.99-2.1-2-3.11-3.04l83.85-21.41v14.61l41.44 2.65c-2.11 2.46-4.35 4.81-6.72 7.02zm14.66-18l-49.38-6.32v-7.3l-89.77 21.98c-.52-.66-1.03-1.33-1.53-2.01l91.3-34.85v14.62l53.22 6.84c-1.17 2.41-2.45 4.76-3.84 7.04zm8.21-17.93l-57.59-10.89v-7.45l-96.03 35.52c-.26-.45-.52-.89-.77-1.34l96.8-48.92v14.62l59.55 11.33c-.55 2.42-1.21 4.8-1.96 7.13zm-57.59-33.24v-7.73l61.67 15.69c-.02 2.53-.16 5.04-.4 7.52l-61.27-15.48z" clip-rule="evenodd"/></svg>