<svg xmlns="http://www.w3.org/2000/svg" id="Layer_2" viewBox="0 0 200 200"><style></style><path fill="#3a3a3a" d="M143.1 188H57.9v-9.6c0-2.1 1.7-3.8 3.8-3.8h77.5c2.1 0 3.8 1.7 3.8 3.8v9.6h.1z"/><path fill="#272727" d="M146.2 195v-3.9c0-1.7-1.4-3.1-3.1-3.1H58.2c-1.7 0-3.1 1.4-3.1 3.1v3.9h91.1z"/><linearGradient id="SVGID_1_" x1="100.0008" x2="100.0008" y1="175.4" y2="5.9" gradientTransform="translate(0 -.9)" gradientUnits="userSpaceOnUse"><stop offset=".0096" stop-color="#7e4515"/><stop offset=".5861" stop-color="#b2874c"/><stop offset=".7885" stop-color="#b1854a"/><stop offset=".8613" stop-color="#ab7e45"/><stop offset=".9133" stop-color="#a2733b"/><stop offset=".9553" stop-color="#95622d"/><stop offset=".9909" stop-color="#834c1b"/><stop offset="1" stop-color="#7e4515"/></linearGradient><path fill="url(#SVGID_1_)" d="M173.3 5h-21.8c-.8 6.5-2.8 11.6-8 13.3L145.4 5H55.1l1.6 13.5c-5.4-2.1-7.6-7-8-13.5h-22c0 30.6 5.9 54.8 18.6 73.8 12.1 17 31 25.4 45.3 36.2 1.8 2 1.6 9.1-1.4 11.5-3 1.8-3.6 6.2.6 8.2l1.3 6.9c-1.7 2.9-2.7 5.4.8 6.6-7.1 12.6-18.1 22.6-29.9 23.5-.5.4-.7 1.1-.5 1.7.2.7.9 1.1 1.6 1.1h74.6c.9 0 1.6-.7 1.6-1.6V172.6c-.1-.6-.7-1-1.3-1-10.3-.1-21.6-10.9-29.5-23.5 3.6-.7 2.4-3.1.9-6.6l1.4-6.9c4.1-3 3.6-6.1-1-9.6-1.2-2.7-1.1-6.1-.5-9.8 16.6-12.3 39.5-22.1 50.1-43.3 9.3-17.7 14-40 13.9-66.9zM36.1 13.8h6.1c2.3 6.3 6.7 10.8 13.9 13.1 1.3 22.3 4.8 43.1 11 62.2-20-12.8-29.9-43.9-31-75.3zM133.3 89c6.1-19.1 9.6-39.9 11-62.2 7.1-2.2 11.5-6.8 13.9-13.1h6.1c-1.1 31.5-11 62.6-31 75.3z"/><path fill="#efc52b" d="M110.2 137.7c-.1-.9.2-1.7.9-2.6H89.8c8.2 1 16.3 1.7 20.4 2.6zm-1.3 10.5h-17c7.3 1.2 14.3 2.3 18.2 2.2-.8-.7-1.2-1.4-1.2-2.2z"/><path fill="#ecdfb8" d="M86.3 174.6l-12 .1c1.1-4.7 18.8-9.6 20.1-26.8l-1.1-1.3c.4-3.9 2-7.5.3-12.8-2.8-2.5-2.5-6.1.2-8.3 1.2-3.1 1.4-6.8 1.1-10.9C72.6 94.8 66.5 54.4 67.3 5.3h21.8c-5.1 40.3-3 77.2 10.1 109 .8 4.6.8 8.8-.9 12.3-1.9 1.9-2.5 4.2-.5 7.3 1 3 1.2 6.1.6 9.2-.7 1.8-1.2 3.7-.3 5.1-.5 18.4-12.9 23.9-11.8 26.4z" opacity=".58"/><path fill="#fff" d="M105.9 35.1H87.5V46l-12.3-.1v4.5h12.4v4H75.2v4.7h12.3v12h18.4c8 0 14.5-6.5 14.5-14.5v-7.1c-.1-8-6.5-14.4-14.5-14.4zm3.1 21.6c0 3.4-2.7 6.1-6.1 6.1h-4.3v-19h4.3c3.4 0 6.1 2.7 6.1 6.1v6.8z"/></svg>