<svg xmlns="http://www.w3.org/2000/svg" id="Livello_1" x="0" y="0" version="1.1" viewBox="0 0 200 200" xml:space="preserve"><style>.st0{fill:#845cd9}</style><circle cx="8.5" cy="20.5" r="8" class="st0"/><circle cx="44" cy="23.5" r="11" class="st0"/><circle cx="29.5" cy="53" r="14.5" class="st0"/><linearGradient id="SVGID_1_" x1="127.025" x2="94.7496" y1="182.9412" y2="2.247" gradientTransform="matrix(1 0 0 -1 0 200)" gradientUnits="userSpaceOnUse"><stop offset="0" stop-color="#865ddd"/><stop offset=".5" stop-color="#7351ca"/><stop offset="1" stop-color="#6647c6"/></linearGradient><path fill="url(#SVGID_1_)" d="M112 13c-11.1 0-20 1-31.5 5.8C72.5 22.2 66 29 66 38.3c0 11.2 8.9 20.3 20 20.3 4 0 7.8-1.2 10.9-3.3-.4.3-.8.5-1.2.8 5.2-1.9 10.7-3 16.6-3 26.1 0 47.3 21.3 47.3 47.5S138.4 148 112.3 148 65 126.7 65 100.5c0-1.9.1-3.7.3-5.6h-.1v-.5c0-11.1-9.1-20-20.3-20s-20.3 8.9-20.3 20v-.7c-.2 2.2-.3 4.4-.3 6.7 0 48.3 39.2 87.5 87.5 87.5s87.5-39.2 87.5-87.5c.2-48.2-39-87.4-87.3-87.4z"/></svg>