<?xml version="1.0" encoding="utf-8"?>
<!-- Generator: Adobe Illustrator 22.1.0, SVG Export Plug-In . SVG Version: 6.00 Build 0)  -->
<svg version="1.1" id="Layer_1" xmlns="http://www.w3.org/2000/svg" xmlns:xlink="http://www.w3.org/1999/xlink" x="0px" y="0px"
	 viewBox="0 0 200 200" style="enable-background:new 0 0 200 200;" xml:space="preserve">
<style type="text/css">
	.st0{fill:#0DA9FF;}
</style>
<path d="M99.5,5c-52.5,0-95,42.5-95,95s42.5,95,95,95c52.5,0,95-42.5,95-95S152,5,99.5,5z M106.4,180.7v-23H92.7v23
	c-41.5-3.5-74.2-38.3-74.2-80.7s32.7-77.2,74.2-80.7v22h13.7v-22c41.5,3.5,74.2,38.3,74.2,80.7S147.8,177.2,106.4,180.7z"/>
<rect x="59" y="122.7" class="st0" width="81" height="14.3"/>
<rect x="59" y="92.7" class="st0" width="81" height="14.3"/>
<rect x="59" y="62.7" class="st0" width="81" height="14.3"/>
</svg>
