<svg xmlns="http://www.w3.org/2000/svg" id="Livello_1" x="0" y="0" enable-background="new 0 0 200 200" version="1.1" viewBox="0 0 200 200" xml:space="preserve"><style>.st3{fill:#ede70a}</style><defs><filter id="Adobe_OpacityMaskFilter" width="62.9" height="144.1" x="5" y="23.1" filterUnits="userSpaceOnUse"><feColorMatrix values="1 0 0 0 0 0 1 0 0 0 0 0 1 0 0 0 0 0 1 0"/></filter></defs><mask id="mask-2_1_" width="62.9" height="144.1" x="5" y="23.1" maskUnits="userSpaceOnUse"><g filter="url(#Adobe_OpacityMaskFilter)"><path id="path-1_2_" fill="#fff" fill-rule="evenodd" d="M5 23.1h62.9v144.1H5z" clip-rule="evenodd"/></g></mask><path id="Fill-1" fill="#efe812" d="M57.8 33.7c3.6-4.1 6.9-7.6 10.1-10.6-53.5-1.6-37.9 37-55.3 76.3-20.1 45.2 2.4 62.5 35.8 67.8-4.6-5.5-8.4-11.7-11.3-18.5-21.7-27.2-13-76.9 20.7-115" mask="url(#mask-2_1_)"/><path id="Fill-4" d="M186.5 81.9c-5 14-14.1 29.7-27 45.2-10.1 12.1-21.2 21.6-32.8 28.4-13.4 8.6-29.9 13.7-48.4 13.7-10.4 0-20.5-.6-29.9-2.1 5.5 6.5 12.2 11.9 20 15.7 48.3 23.4 51.4-20 102.5-42.1 28.7-12.3 28.8-36.4 15.6-58.8" class="st3"/><path id="Fill-6" d="M126.6 36.7c7.1 1.3 13.9 3.6 20 7.1 16.2 9.2 31 23.2 39.9 38.1 8.7-24.5 4.7-43.8-14.4-47.3-20.9-3.8-37.3-5.1-53-16C99.6 5 82.7 9.5 67.9 23.2c1 0 2.1.1 3.2.1 20.5 1.2 40 5.2 55.5 13.4" class="st3"/><path id="Fill-8" fill="#dec21c" d="M57.8 33.7c-33.7 38.1-42.4 87.8-20.7 115-9.7-22.8-9.1-51.3 4.7-74 18.3-30.3 54.9-43.5 84.9-38-15.6-8.2-35.1-12.2-55.5-13.4-1.1-.1-2.2-.1-3.2-.1-3.2 2.9-6.6 6.4-10.2 10.5"/><path id="Fill-10" fill="#e5cb22" d="M146.6 43.8c-6.1-3.4-12.8-5.8-20-7.1 20.5 10.8 34.1 29 34 58-.1 25.1-13.1 47.3-34 60.9 11.5-6.9 22.7-16.4 32.8-28.4 12.9-15.5 22-31.2 27-45.2-8.8-15-23.6-29-39.8-38.2"/><path id="Fill-12" fill="#cca727" d="M126.6 36.7c-30.1-5.5-66.7 7.7-84.9 38-13.7 22.7-14.4 51.2-4.7 74 2.9 6.7 6.7 13 11.3 18.5 9.3 1.5 19.5 2.1 29.9 2.1 18.5 0 35.1-5.1 48.4-13.7 20.9-13.5 33.8-35.7 34-60.9.2-29-13.5-47.1-34-58m-3.3 105.1c-23.1 14.9-54 8.2-68.9-14.8-14.9-23.1-7.5-52.7 14.9-68.7 25.1-17.8 57.2-10.8 68.9 14.8 11.4 25 8.2 53.8-14.9 68.7"/></svg>