<svg xmlns="http://www.w3.org/2000/svg" version="1.0" viewBox="0 0 200 200"><path fill="#15C8FF" d="M182.6 56.2l-55.5-45.6c-6.6-5.5-15.7-7-23.8-4L36.1 31.7c-8 3-13.9 10.1-15.3 18.6l-11.9 71c-1.4 8.5 1.8 17.1 8.5 22.6l55.5 45.7c6.7 5.5 15.7 7 23.8 4l67.3-25.2c8.1-3 13.9-10.1 15.3-18.6l11.8-70.9c1.4-8.7-1.8-17.2-8.5-22.7zm-57.2 31.1c-.7 1.7-3.1 3.6-4.9 3.8-5.5.5-11.1.1-16.5.6-1.8.2-4.6 1.8-5 3.3-2 8.2-3.4 16.5-4.8 24.8-1 5.3 1.4 8 6.9 7.9h16l-.1 1.5c-1.5 13.9-1.5 13.9-15.4 13.8h-5.3c-12.6-.3-20-7.2-19.7-19.9.2-7.4 2.2-14.8 3.5-22.2.5-2.8 1-5.8 1.7-9.3-3.5-.3-6.5-.4-9.9-.8-.3-6.3.4-11.1 7-14.7 6.1-3.2 10.7-9 16.3-13.4 2.5-2 9.8-3.8 10.3-3.2-1 5.5-2 11.1-3.1 17.9h24.9c-.7 4-.7 7.2-1.9 9.9z"/></svg>