<?xml version="1.0" encoding="utf-8"?>
<!-- Generator: Adobe Illustrator 22.1.0, SVG Export Plug-In . SVG Version: 6.00 Build 0)  -->
<svg version="1.0" id="Livello_1" xmlns="http://www.w3.org/2000/svg" xmlns:xlink="http://www.w3.org/1999/xlink" x="0px" y="0px"
	 viewBox="0 0 200 200" style="enable-background:new 0 0 200 200;" xml:space="preserve">
<g>
	<path d="M197.5,100.1c0,53.8-43.5,97.4-97.3,97.4c-54.1,0-97.8-43.6-97.7-97.6C2.6,46,46.4,2.4,100.3,2.5
		C154,2.6,197.5,46.3,197.5,100.1z M127,28.2c-0.4,0.4-0.6,0.7-0.9,1c-2.4,3-2.6,6.3-0.5,9.1c2,2.7,5.6,3.5,8.6,2
		c3.1-1.5,4.5-4.7,3.6-8.4c-1.1-4.4-4-7.3-7.7-9.3c-6.9-3.8-15.3-2.2-22.2,4.1c-7.3,6.7-10.5,15.5-11.4,25.1c-0.2,2-0.8,2.7-2.6,2.9
		c-5.8,0.9-11.2,3.2-16.1,6.5c-14.5,9.8-21.9,28.8-18,47.2c3.4,16.2,11.9,28.5,27.9,34.6c2.9,1.1,5.9,1.8,9.5,2.8
		c-1.1,5.4-1.9,10.8-3.4,16.1c-0.7,2.7-2.2,5.4-4,7.6c-2.9,3.7-7.7,3.9-11.2,0.8c0.5-0.7,1.1-1.3,1.6-2c1.9-2.9,1.2-7-1.6-9.2
		c-2.7-2.1-6.5-2-9.1,0.4c-2.4,2.3-2.9,5.6-1.3,9.1c2.7,6.1,10,10.2,16.7,9.3c8.2-1.1,14-5.9,18.2-12.7c3.6-5.8,5.5-12.2,6-19.1
		c1.2-0.2,2.3-0.4,3.4-0.6c9.8-1.7,18.5-5.8,25.3-13.2c1-1.1,2-2.4,2.6-3.8c0.3-0.9,0-2.4-0.6-3.1c-0.7-0.7-2.1-0.9-3.1-0.7
		c-1,0.2-1.9,1.2-2.9,1.9c-3.2,2.3-6.3,4.9-9.7,6.9c-4.6,2.7-9.7,4-15.4,5c0-26,0-51.5,0-77.1c8.1,0.8,14.2,4.4,17.9,11.7
		c1.2,2.3,2.1,4.9,3.7,6.9c0.8,1,2.9,1.7,4.1,1.4c0.8-0.2,1.6-2.3,1.7-3.7c0.1-2-0.8-4.1-0.4-6c1-5.4-1.6-8.7-5.8-11.2
		c-1.9-1.1-3.9-2.3-6-3c-5-1.6-10-2.9-15.6-4.4c0.9-4.8,1.6-10,2.9-15c0.8-2.9,2.1-5.9,3.9-8.4C117.9,25.6,122.4,25.1,127,28.2z"/>
	<path d="M96.5,137.7c-6.9-1.8-12.1-5.9-16-11.7c-4.3-6.3-6.2-13.5-6.8-21.1c-0.8-11.4,0.3-22.5,7.1-32.2c3.7-5.3,8.6-9,15.6-10.7
		C96.5,87.4,96.5,112.4,96.5,137.7z"/>
</g>
</svg>
