<?xml version="1.0" encoding="utf-8"?>
<!-- Generator: Adobe Illustrator 22.1.0, SVG Export Plug-In . SVG Version: 6.00 Build 0)  -->
<svg version="1.1" id="Livello_1" xmlns="http://www.w3.org/2000/svg" xmlns:xlink="http://www.w3.org/1999/xlink" x="0px" y="0px"
	 viewBox="0 0 200 200" style="enable-background:new 0 0 200 200;" xml:space="preserve">
<style type="text/css">
	.st0{fill:url(#SVGID_1_);}
	.st1{fill:url(#SVGID_2_);}
	.st2{fill:url(#SVGID_3_);}
	.st3{fill:url(#SVGID_4_);}
	.st4{fill:url(#SVGID_5_);}
	.st5{fill:url(#SVGID_6_);}
	.st6{fill:url(#SVGID_7_);}
</style>
<linearGradient id="SVGID_1_" gradientUnits="userSpaceOnUse" x1="117.9687" y1="50.9977" x2="164.7473" y2="97.7763" gradientTransform="matrix(1 0 0 -1 0 200)">
	<stop  offset="0" style="stop-color:#67C5ED"/>
	<stop  offset="1" style="stop-color:#5C5DAA"/>
</linearGradient>
<path class="st0" d="M143.6,174.4c4.2-3.9,35.2-36.2-4.4-97.7c0,0,17.6,47.6,4.2,97.5C143.2,174.4,143.4,174.5,143.6,174.4z"/>
<linearGradient id="SVGID_2_" gradientUnits="userSpaceOnUse" x1="89.4361" y1="53.074" x2="156.6423" y2="120.2803" gradientTransform="matrix(1 0 0 -1 0 200)">
	<stop  offset="0" style="stop-color:#67C5ED"/>
	<stop  offset="1" style="stop-color:#5C5DAA"/>
</linearGradient>
<path class="st1" d="M118.7,41.8c0,0,11,13.3,17.5,39.5c8.1,32.1,10.7,79.9-8.6,103.3c-0.2,0.2-0.6,0.1-0.6-0.2
	C128.1,173.2,137.3,75.1,118.7,41.8z"/>
<linearGradient id="SVGID_3_" gradientUnits="userSpaceOnUse" x1="67.7093" y1="53.0394" x2="150.7959" y2="136.126" gradientTransform="matrix(1 0 0 -1 0 200)">
	<stop  offset="0" style="stop-color:#67C5ED"/>
	<stop  offset="1" style="stop-color:#5C5DAA"/>
</linearGradient>
<path class="st2" d="M105.2,18.3c0,0,38.7,98.9,10.4,171.6c-0.3,0.8-1,1.4-1.8,1.5c-0.1,0-0.1,0-0.2,0c-1.5,0.3-2.9-0.9-2.9-2.5
	C110.9,171.1,111.8,34.9,105.2,18.3z"/>
<linearGradient id="SVGID_4_" gradientUnits="userSpaceOnUse" x1="33.0944" y1="48.9217" x2="84.2009" y2="100.0282" gradientTransform="matrix(1 0 0 -1 0 200)">
	<stop  offset="0" style="stop-color:#67C5ED"/>
	<stop  offset="1" style="stop-color:#5C5DAA"/>
</linearGradient>
<path class="st3" d="M56.3,174.3c-4.4-4.1-35-36.4,4.5-97.7c0,0-17.6,47.5-4.2,97.5C56.7,174.3,56.5,174.5,56.3,174.3z"/>
<linearGradient id="SVGID_5_" gradientUnits="userSpaceOnUse" x1="38.8921" y1="48.6438" x2="114.7368" y2="124.4885" gradientTransform="matrix(1 0 0 -1 0 200)">
	<stop  offset="0" style="stop-color:#67C5ED"/>
	<stop  offset="1" style="stop-color:#5C5DAA"/>
</linearGradient>
<path class="st4" d="M81,41.8c0,0-11,13.3-17.5,39.5c-8.1,32.3-10.7,80.3,8.9,103.6c0.1,0.1,0.4,0.1,0.4-0.1
	C71.8,175.9,62.1,75.5,81,41.8z"/>
<linearGradient id="SVGID_6_" gradientUnits="userSpaceOnUse" x1="52.0329" y1="50.9722" x2="147.991" y2="146.9303" gradientTransform="matrix(1 0 0 -1 0 200)">
	<stop  offset="0" style="stop-color:#67C5ED"/>
	<stop  offset="1" style="stop-color:#5C5DAA"/>
</linearGradient>
<path class="st5" d="M98.4,194.7c1.1,0.4,2.5,0.5,3.9-0.2c1.9-0.9,3-3,3-5v-77.4L99.9,5l-5.3,106.5V189
	C94.6,191.5,96,193.8,98.4,194.7z"/>
<linearGradient id="SVGID_7_" gradientUnits="userSpaceOnUse" x1="45.2151" y1="49.0078" x2="136.365" y2="140.1576" gradientTransform="matrix(1 0 0 -1 0 200)">
	<stop  offset="0" style="stop-color:#67C5ED"/>
	<stop  offset="1" style="stop-color:#5C5DAA"/>
</linearGradient>
<path class="st6" d="M94.8,18.3c0,0-38.7,98.9-10.4,171.6c0.3,0.8,1,1.4,1.8,1.5c0.1,0,0.1,0,0.2,0c1.5,0.3,2.9-0.9,2.9-2.5
	C89,171.1,88.1,34.9,94.8,18.3z"/>
</svg>
