<?xml version="1.0" encoding="utf-8"?>
<!-- Generator: Adobe Illustrator 21.0.2, SVG Export Plug-In . SVG Version: 6.00 Build 0)  -->
<svg version="1.1" xmlns="http://www.w3.org/2000/svg" xmlns:xlink="http://www.w3.org/1999/xlink" x="0px" y="0px"
	 viewBox="0 0 28 28" style="enable-background:new 0 0 28 28;" xml:space="preserve">
<style type="text/css">
	.st0{fill:#F88600;}
	.st1{fill:#666666;}
	.st2{fill:#3C7AFF;}
	.st3{fill:#ABABAB;}
	.st4{fill:#F2F2F2;}
	.st5{fill:url(#SVGID_1_);}
	.st6{fill:url(#SVGID_2_);}
	.st7{fill:url(#SVGID_3_);}
	.st8{opacity:0.3;fill:url(#SVGID_4_);}
	.st9{opacity:0.3;fill:#FFFFFF;}
	.st10{fill:#FFFFFF;}
	.st11{clip-path:url(#SVGID_6_);fill:#43274D;}
	.st12{clip-path:url(#SVGID_6_);fill:#44274E;}
	.st13{clip-path:url(#SVGID_6_);fill:#45264F;}
	.st14{clip-path:url(#SVGID_6_);fill:#462650;}
	.st15{clip-path:url(#SVGID_6_);fill:#472550;}
	.st16{clip-path:url(#SVGID_6_);fill:#482551;}
	.st17{clip-path:url(#SVGID_6_);fill:#492452;}
	.st18{clip-path:url(#SVGID_6_);fill:#4A2453;}
	.st19{clip-path:url(#SVGID_6_);fill:#4B2454;}
	.st20{clip-path:url(#SVGID_6_);fill:#4C2355;}
	.st21{clip-path:url(#SVGID_6_);fill:#4D2356;}
	.st22{clip-path:url(#SVGID_6_);fill:#4E2256;}
	.st23{clip-path:url(#SVGID_6_);fill:#4F2257;}
	.st24{clip-path:url(#SVGID_6_);fill:#502258;}
	.st25{clip-path:url(#SVGID_6_);fill:#512159;}
	.st26{clip-path:url(#SVGID_6_);fill:#52215A;}
	.st27{clip-path:url(#SVGID_6_);fill:#53205B;}
	.st28{clip-path:url(#SVGID_6_);fill:#54205C;}
	.st29{clip-path:url(#SVGID_6_);fill:#551F5C;}
	.st30{clip-path:url(#SVGID_6_);fill:#561F5D;}
	.st31{clip-path:url(#SVGID_6_);fill:#571F5E;}
	.st32{clip-path:url(#SVGID_6_);fill:#581E5F;}
	.st33{clip-path:url(#SVGID_6_);fill:#591E60;}
	.st34{clip-path:url(#SVGID_6_);fill:#5A1D61;}
	.st35{clip-path:url(#SVGID_6_);fill:#5B1D62;}
	.st36{clip-path:url(#SVGID_6_);fill:#5C1C62;}
	.st37{clip-path:url(#SVGID_6_);fill:#5D1C63;}
	.st38{clip-path:url(#SVGID_6_);fill:#5E1C64;}
	.st39{clip-path:url(#SVGID_6_);fill:#5F1B65;}
	.st40{clip-path:url(#SVGID_6_);fill:#611B66;}
	.st41{clip-path:url(#SVGID_6_);fill:#621A67;}
	.st42{clip-path:url(#SVGID_6_);fill:#631A68;}
	.st43{clip-path:url(#SVGID_6_);fill:#641A69;}
	.st44{clip-path:url(#SVGID_6_);fill:#651969;}
	.st45{clip-path:url(#SVGID_6_);fill:#66196A;}
	.st46{clip-path:url(#SVGID_6_);fill:#67186B;}
	.st47{clip-path:url(#SVGID_6_);fill:#68186C;}
	.st48{clip-path:url(#SVGID_6_);fill:#69176D;}
	.st49{clip-path:url(#SVGID_6_);fill:#6A176E;}
	.st50{clip-path:url(#SVGID_6_);fill:#6B176F;}
	.st51{clip-path:url(#SVGID_6_);fill:#6C166F;}
	.st52{clip-path:url(#SVGID_6_);fill:#6D1670;}
	.st53{clip-path:url(#SVGID_6_);fill:#6E1571;}
	.st54{clip-path:url(#SVGID_6_);fill:#6F1572;}
	.st55{clip-path:url(#SVGID_6_);fill:#701473;}
	.st56{clip-path:url(#SVGID_6_);fill:#711474;}
	.st57{clip-path:url(#SVGID_6_);fill:#721475;}
	.st58{clip-path:url(#SVGID_6_);fill:#731375;}
	.st59{clip-path:url(#SVGID_6_);fill:#741376;}
	.st60{clip-path:url(#SVGID_6_);fill:#751277;}
	.st61{clip-path:url(#SVGID_6_);fill:#761278;}
	.st62{clip-path:url(#SVGID_6_);fill:#771279;}
	.st63{clip-path:url(#SVGID_6_);fill:#78117A;}
	.st64{clip-path:url(#SVGID_6_);fill:#79117B;}
	.st65{clip-path:url(#SVGID_6_);fill:#7A107B;}
	.st66{clip-path:url(#SVGID_6_);fill:#7B107C;}
	.st67{clip-path:url(#SVGID_6_);fill:#7C0F7D;}
	.st68{clip-path:url(#SVGID_6_);fill:#7D0F7E;}
</style>
<g id="Calque_2">
	<g>
		<g>
			<rect x="5218" y="7087" class="st0" width="741" height="34"/>
			<g>
				<rect x="5959" y="7087" class="st1" width="698" height="34"/>
			</g>
			<rect x="6657" y="7087" class="st2" width="378" height="34"/>
			<rect x="7035" y="7087" class="st3" width="206" height="34"/>
		</g>
		<g>
			<text transform="matrix(1 0 0 1 5877.2607 7110.5947)" class="st4" style="font-family:'Exo-SemiBold'; font-size:18.1376px;">3 BTC</text>
			<g>
				<text transform="matrix(1 0 0 1 6580.2607 7110.5947)" class="st4" style="font-family:'Exo-SemiBold'; font-size:18.1376px;">5 ETH</text>
			</g>
			<g>
				<text transform="matrix(1 0 0 1 6937.2607 7110.5947)" class="st4" style="font-family:'Exo-SemiBold'; font-size:18.1376px;">30 RPL</text>
			</g>
			<g>
				<text transform="matrix(1 0 0 1 7137.2607 7110.5947)" class="st4" style="font-family:'Exo-SemiBold'; font-size:18.1376px;">0,5 LTC</text>
			</g>
		</g>
	</g>
	<g>
		<linearGradient id="SVGID_1_" gradientUnits="userSpaceOnUse" x1="6707.2637" y1="7037.2886" x2="5980.833" y2="7187.3774">
			<stop  offset="0" style="stop-color:#474A5C"/>
			<stop  offset="1" style="stop-color:#2F2F3B"/>
		</linearGradient>
		<rect x="5218" y="7121" class="st5" width="2023" height="30"/>
	</g>
	<linearGradient id="SVGID_2_" gradientUnits="userSpaceOnUse" x1="5841.2988" y1="7685.6685" x2="7017.416" y2="7892.6895">
		<stop  offset="0" style="stop-color:#474A5C"/>
		<stop  offset="1" style="stop-color:#2F2F3B"/>
	</linearGradient>
	<rect x="5218" y="7151" class="st6" width="2023" height="1206"/>
	<linearGradient id="SVGID_3_" gradientUnits="userSpaceOnUse" x1="4875" y1="7753.5" x2="5165.1104" y2="7753.5">
		<stop  offset="0" style="stop-color:#474A5C"/>
		<stop  offset="1" style="stop-color:#2F2F3B"/>
	</linearGradient>
	<rect x="4874" y="7150" class="st7" width="344" height="1207"/>
	<linearGradient id="SVGID_4_" gradientUnits="userSpaceOnUse" x1="5215.0088" y1="7242.7202" x2="4873.2734" y2="7242.7202">
		<stop  offset="0" style="stop-color:#474A5C"/>
		<stop  offset="1" style="stop-color:#31E7BA"/>
	</linearGradient>
	<rect x="4875" y="7218.8" class="st8" width="343" height="47.8"/>
	<rect x="5689.3" y="3777.9" class="st9" width="2871.7" height="1711.9"/>
	<rect x="5201" y="3783.6" class="st10" width="488.3" height="1713.4"/>
</g>
<g id="Calque_1">
	<g id="LOGO_PERFIL">
		<g id="button">
		</g>
		<g>
			<g>
				<g>
					<defs>
						<polygon id="SVGID_5_" points="19.6,15 26.2,7.3 26.2,6.8 18.6,6.8 13.4,12.7 13.4,1.6 6.3,1.6 6.3,7.6 6.3,7.9 4,7.9 
							2.2,13.5 6.3,13.5 6.3,15.6 1.8,15.6 0,21.2 6.3,21.2 6.3,26 13.4,26 13.4,22.1 15.1,20.1 18.9,26 26.5,26 26.5,25.2 						
							"/>
					</defs>
					<clipPath id="SVGID_6_">
						<use xlink:href="#SVGID_5_"  style="overflow:visible;"/>
					</clipPath>
					<polygon class="st11" points="12.4,26 26.5,18.7 26.5,26 					"/>
					<polygon class="st11" points="11.7,26 26.5,18.3 26.5,18.7 12.4,26 					"/>
					<polygon class="st12" points="11,26 26.5,17.9 26.5,18.3 11.7,26 					"/>
					<polygon class="st13" points="10.3,26 26.5,17.6 26.5,17.9 11,26 					"/>
					<polygon class="st14" points="9.7,26 26.5,17.2 26.5,17.6 10.3,26 					"/>
					<polygon class="st15" points="9,26 26.5,16.9 26.5,17.2 9.7,26 					"/>
					<polygon class="st16" points="8.3,26 26.5,16.5 26.5,16.9 9,26 					"/>
					<polygon class="st17" points="7.6,26 26.5,16.2 26.5,16.5 8.3,26 					"/>
					<polygon class="st18" points="6.9,26 26.5,15.8 26.5,16.2 7.6,26 					"/>
					<polygon class="st19" points="6.2,26 26.5,15.4 26.5,15.8 6.9,26 					"/>
					<polygon class="st20" points="5.5,26 26.5,15.1 26.5,15.4 6.2,26 					"/>
					<polygon class="st21" points="4.8,26 26.5,14.7 26.5,15.1 5.5,26 					"/>
					<polygon class="st22" points="4.1,26 26.5,14.4 26.5,14.7 4.8,26 					"/>
					<polygon class="st23" points="3.5,26 26.5,14 26.5,14.4 4.1,26 					"/>
					<polygon class="st24" points="2.8,26 26.5,13.7 26.5,14 3.5,26 					"/>
					<polygon class="st25" points="2.1,26 26.5,13.3 26.5,13.7 2.8,26 					"/>
					<polygon class="st26" points="1.4,26 26.5,13 26.5,13.3 2.1,26 					"/>
					<polygon class="st27" points="0.7,26 26.5,12.6 26.5,13 1.4,26 					"/>
					<polygon class="st28" points="0.2,26 0.2,25.9 26.5,12.2 26.5,12.6 0.7,26 					"/>
					<polygon class="st29" points="0.2,25.9 0,25.6 26.5,11.9 26.5,12.2 					"/>
					<polygon class="st30" points="0,25.6 0,25.6 0,25.3 26.5,11.5 26.5,11.9 					"/>
					<polygon class="st31" points="0,24.9 26.5,11.2 26.5,11.5 0,25.3 					"/>
					<polygon class="st32" points="0,24.6 26.5,10.8 26.5,11.2 0,24.9 					"/>
					<polygon class="st33" points="0,24.2 26.5,10.5 26.5,10.8 0,24.6 					"/>
					<polygon class="st34" points="0,23.8 26.5,10.1 26.5,10.5 0,24.2 					"/>
					<polygon class="st35" points="0,23.5 26.5,9.7 26.5,10.1 0,23.8 					"/>
					<polygon class="st36" points="0,23.1 26.5,9.4 26.5,9.7 0,23.5 					"/>
					<polygon class="st37" points="0,22.8 26.5,9 26.5,9.4 0,23.1 					"/>
					<polygon class="st38" points="0,22.4 26.5,8.7 26.5,9 0,22.8 					"/>
					<polygon class="st39" points="0,22.1 26.5,8.3 26.5,8.7 0,22.4 					"/>
					<polygon class="st40" points="0,21.7 26.5,8 26.5,8.3 0,22.1 					"/>
					<polygon class="st41" points="0,21.3 26.5,7.6 26.5,8 0,21.7 					"/>
					<polygon class="st42" points="0,21 26.5,7.2 26.5,7.6 0,21.3 					"/>
					<polygon class="st43" points="0,20.6 26.5,6.9 26.5,7.2 0,21 					"/>
					<polygon class="st44" points="0,20.3 26.5,6.5 26.5,6.9 0,20.6 					"/>
					<polygon class="st45" points="0,19.9 26.5,6.2 26.5,6.5 0,20.3 					"/>
					<polygon class="st46" points="0,19.6 26.5,5.8 26.5,6.2 0,19.9 					"/>
					<polygon class="st47" points="0,19.2 26.5,5.5 26.5,5.8 0,19.6 					"/>
					<polygon class="st48" points="0,18.8 26.5,5.1 26.5,5.5 0,19.2 					"/>
					<polygon class="st49" points="0,18.5 26.5,4.8 26.5,5.1 0,18.8 					"/>
					<polygon class="st50" points="0,18.1 26.5,4.4 26.5,4.8 0,18.5 					"/>
					<polygon class="st51" points="0,17.8 26.5,4 26.5,4.4 0,18.1 					"/>
					<polygon class="st52" points="0,17.4 26.5,3.7 26.5,4 0,17.8 					"/>
					<polygon class="st53" points="0,17.1 26.5,3.3 26.5,3.7 0,17.4 					"/>
					<polygon class="st54" points="0,16.7 26.5,3 26.5,3.3 0,17.1 					"/>
					<polygon class="st55" points="0,16.4 26.4,2.7 26.5,2.9 26.5,3 0,16.7 					"/>
					<polygon class="st56" points="0,16 26.2,2.4 26.4,2.7 0,16.4 					"/>
					<polygon class="st57" points="0,15.6 26.1,2.1 26.2,2.4 0,16 					"/>
					<polygon class="st58" points="0,15.3 25.9,1.8 26.1,2.1 0,15.6 					"/>
					<polygon class="st59" points="0,14.9 25.8,1.6 25.8,1.6 25.9,1.8 0,15.3 					"/>
					<polygon class="st60" points="0,14.6 25.1,1.6 25.8,1.6 0,14.9 					"/>
					<polygon class="st61" points="0,14.2 24.4,1.6 25.1,1.6 0,14.6 					"/>
					<polygon class="st62" points="0,13.9 23.7,1.6 24.4,1.6 0,14.2 					"/>
					<polygon class="st63" points="0,13.5 23,1.6 23.7,1.6 0,13.9 					"/>
					<polygon class="st64" points="0,13.1 22.3,1.6 23,1.6 0,13.5 					"/>
					<polygon class="st65" points="0,12.8 21.6,1.6 22.3,1.6 0,13.1 					"/>
					<polygon class="st66" points="0,12.4 20.9,1.6 21.6,1.6 0,12.8 					"/>
					<polygon class="st67" points="0,12.1 20.2,1.6 20.9,1.6 0,12.4 					"/>
					<polygon class="st68" points="0,11.7 19.6,1.6 20.2,1.6 0,12.1 					"/>
					<polygon class="st68" points="19.6,1.6 0,11.7 0,1.6 					"/>
				</g>
			</g>
		</g>
	</g>
</g>
</svg>
