<svg xmlns="http://www.w3.org/2000/svg" version="1" viewBox="0 0 200 200"><linearGradient id="a" x1="30.5036" x2="141.5489" y1="-76.8595" y2="34.188" gradientTransform="matrix(1.0705 0 0 -1.0705 -18.161 53.0009)" gradientUnits="userSpaceOnUse"><stop offset="0" stop-color="#ff5643"/><stop offset="1" stop-color="#ffa14a"/></linearGradient><path fill="url(#a)" d="M39.8 85.9c0-11.4 9.3-20.7 20.7-20.7s20.7 9.3 20.7 20.7c0 2.7-.4 5.3-1.6 7.6l26.3 19.8c3.1-2.2 7.1-3.3 11.4-3.3 1.6 0 3.1.2 4.7.4l20.5-35c-7.6-6.7-12.7-16.7-12.7-27.6 0-9.6 3.6-18 9.6-24.7L115.7 9.5c-10.5-6-23.4-6-33.8 0L28.7 40.2C18.2 46.2 12 57.4 12 69.6v63.9c2.7-2 5.6-3.6 8.9-4 1.1-.2 2.7-.4 4-.4.9 0 2.4 0 3.3.2l16.9-28.9c-3.1-4.1-5.3-9.2-5.3-14.5z"/><linearGradient id="b" x1="72.3979" x2="181.7808" y1="-125.0792" y2="-15.6964" gradientTransform="matrix(1.0705 0 0 -1.0705 -18.161 53.0009)" gradientUnits="userSpaceOnUse"><stop offset="0" stop-color="#ff5643"/><stop offset="1" stop-color="#ffa14a"/></linearGradient><path fill="url(#b)" d="M166.7 84.5c-4.5 0-9.1-.9-13.1-2.4l-20.3 35.2c3.1 3.8 4.9 8 4.9 13.6 0 11.4-9.3 20.7-20.7 20.7s-20.7-9.3-20.7-20.7c0-2.7.4-4.9 1.3-7.3l-26-20.5c-3.1 2.4-7.3 3.8-11.6 3.8-1.6 0-2.9-.2-4.2-.4L39.4 135c2 2 3.3 4 4.2 6.5.9 2.7 1.6 5.3 1.6 8 0 6.5-2.9 12.2-7.3 16l43.6 25.2c10.5 6 23.4 6 33.8 0l53.2-30.7c10.5-6 16.9-17.1 16.9-29.4V78.7c-5.1 3.8-11.6 5.8-18.7 5.8z"/><circle cx="166.7" cy="47.4" r="21.4" fill="#FFA14A"/></svg>