<svg xmlns="http://www.w3.org/2000/svg" id="eql-logo" viewBox="0 0 200 200"><style>.st1{fill:#fff}</style><path fill="#7055e9" d="M194.9 113.2c-.2-2.8-.4-5.8-.7-8.7-.1-1.1-.2-2.2-.5-3.3-.8-3.4-1.6-6.8-2.5-10.2-.8-2.7-1.6-5.5-2.6-8.2-1-2.7-2.2-5.4-3.4-8.1-1.7-3.7-3.3-7.5-5.2-11.1-2.2-4.3-4.6-8.6-7-12.8-2.5-4.3-5-8.5-7.8-12.6-2.5-3.7-5.3-7.2-8.2-10.6-2.5-2.9-5.3-5.7-8.1-8.3-2.1-2-4.3-3.8-6.7-5.4-4.1-2.8-8.6-5-13.3-6.5-2.8-.9-5.7-1.8-8.5-2-3.7-.3-7.4-.7-11.1-.3-3.3.3-6.5.4-9.7 1.2-1.7.4-3.4.6-5.1 1.1-3 .9-6.1 1.9-9.1 2.9-3.2 1.1-6.5 2.2-9.6 3.6-3.8 1.7-7.5 3.6-11.2 5.4-3 1.5-6 2.9-8.8 4.6-4.8 2.8-9.5 5.8-14.3 8.7-5.1 3.2-10 6.8-14.5 10.8-5.8 5-10.7 10.7-14.8 17.2-.8 1.3-1.7 2.5-2.3 3.9-1.1 2.6-2.1 5.2-2.8 7.9-.8 2.5-1.3 5.1-1.6 7.8-.2 3.2-.3 6.3-.1 9.5.1 3 .4 5.9.7 8.9-.2.1-.1.2-.1.4.4 1.7.8 3.5 1.3 5.2.7 2.7 1.5 5.4 2.4 8.1.6 1.9 1.5 3.7 2.3 5.6.6 1.6 1 3.3 1.7 4.8 1 2.5 2.2 4.9 3.4 7.4 1.8 3.9 3.6 7.8 5.6 11.6 1.7 3.2 3.6 6.4 5.5 9.5 3.6 6 7.4 11.9 11.8 17.4 3.3 4.2 6.9 8.2 10.8 11.7 6.1 5.4 12.8 9.7 20.6 12.2 3.7 1.2 7.5 1.7 11.3 2.2 2.3.2 4.6.2 6.9 0 4.3-.2 8.5-.8 12.6-1.8 1.9-.5 3.8-.6 5.6-1.2 2.6-.8 5.2-1.9 7.8-2.8 2.8-1 5.7-2 8.5-3.1 1.9-.7 3.7-1.7 5.5-2.6 5-2.5 10-4.8 14.8-7.6 5.9-3.4 11.8-7 17.5-10.8 5.5-3.6 10.6-7.8 15.2-12.4 5.5-5.5 10.2-11.6 13.4-18.8 1.6-3.7 2.8-7.6 3.5-11.5.6-2.8.6-5.8.9-8.9z"/><path d="M127.4 74.2c4.4-.1 8.4 3.6 9.5 7.1 1.3 4.5-.6 9.3-4.7 11.6-5.9 3.3-54.2 31.3-56.8 33-4.5 2.9-10.6 1.6-13.5-2.9-.1-.2-.3-.4-.4-.6-2.5-4.7-1.5-10.7 4-13.7 5.1-2.8 55.2-32 58.1-33.4 1-.8 2.5-.8 3.8-1.1zM106.4 39.2c4.4-.1 8.4 3.6 9.5 7.1 1.3 4.5-.6 9.3-4.7 11.6-5.9 3.3-54.2 31.3-56.8 33-4.5 2.9-10.6 1.6-13.5-2.9-.1-.2-.3-.4-.4-.6-2.5-4.7-1.5-10.7 4-13.7 5.1-2.8 55.2-32 58.1-33.4 1-.8 2.5-.8 3.8-1.1zM146.4 109.2c4.4-.1 8.4 3.6 9.5 7.1 1.3 4.5-.6 9.3-4.7 11.6-5.9 3.3-54.2 31.3-56.8 33-4.5 2.9-10.6 1.6-13.5-2.9-.1-.2-.3-.4-.4-.6-2.5-4.7-1.5-10.7 4-13.7 5.1-2.8 55.2-32 58.1-33.4 1-.8 2.5-.8 3.8-1.1z" class="st1"/></svg>