<svg xmlns="http://www.w3.org/2000/svg" viewBox="0 0 200 200"><linearGradient id="a" x1="99.995" x2="99.995" y1="178.3039" y2="16.9329" gradientUnits="userSpaceOnUse"><stop offset="0" stop-color="#07aac6"/><stop offset="1" stop-color="#86cedf"/></linearGradient><path fill="url(#a)" d="M168.8 103.5c-3.6-19.4-14.6-36.8-26.1-52.5-7.7-11.6-16.7-22.4-25.9-32.8-2.7-2.9-7.4-.4-6.5 3.3 15.2 19.9 32.1 39.2 43.6 61.8 5.9 11.7 9.6 24.6 6.6 37.7-1.1 5.7-3.2 11-5.5 16.3-6.5 12.2-16.7 21.9-29.1 27.9-36.4 16.9-80.4-6.4-86.8-46-4-25.4 13.4-47.1 26.5-67.1 7.4-9.7 14.9-19.3 22.9-28.5 1-1.2 1.7-2.5 1.1-4.1-1.3-3.4-5.6-3.2-7.4-.4-16.4 19.5-32.5 39.8-43.8 62.8-5.8 12-9.8 25.5-6.6 38.8 2.9 19.1 14.7 36.3 30.9 46.7 21.7 14.1 51.1 14.6 73.1.8 3.6-2 6.9-4.3 9.8-7.3 12.5-10.4 20.9-26 22.8-42.1 1.2-5 1.1-10.2.4-15.3z"/><linearGradient id="b" x1="99.9734" x2="99.9734" y1="161.7034" y2="25.8445" gradientUnits="userSpaceOnUse"><stop offset="0" stop-color="#07aac6"/><stop offset="1" stop-color="#86cedf"/></linearGradient><path fill="url(#b)" d="M137.3 146.1c15.1-14.2 20.4-38.3 10.4-56.8-1.3-3-2.6-6-4.6-8.6-4.8-9.3-11-18.1-17.8-26.1-7-10-15.5-18.9-23.8-27.9-1.2-1.2-1.9-1.2-3 0-8 9-16.5 17.6-23.4 27.5C63.3 69.3 45 93.4 47.5 113.4c3 42.8 56 63.9 87.6 34.9l2.2-2.2zm-15.4 2.5c-13.3 7-28.9 7.4-42.5.7-14.4-7.5-23.8-22.2-24.7-38.4.7-24.8 28.6-54.8 44.2-73.3.8-1 1.5-.7 2.2.1 12.3 13.5 23.5 27.9 33.5 43.1 7.6 13.1 14 26.7 8.5 41.9-3.3 11.1-11.4 20.1-21.2 25.9z"/><linearGradient id="c" x1="100" x2="100" y1="195" y2="5" gradientUnits="userSpaceOnUse"><stop offset="0" stop-color="#07aac6"/><stop offset="1" stop-color="#86cedf"/></linearGradient><path fill="url(#c)" d="M185 101.9c-1.1-7.4-3.5-14.4-6.7-21.1-5.4-13.1-12.9-25.5-21.1-37-8.4-13-18.1-25-27.9-37-1.6-1.9-4-2.4-5.8-1-1.8 1.4-1.9 3.7-.2 5.8 4.7 5.9 9.4 11.7 14 17.6 12.4 16 23.7 33 32.6 51.2 6.9 14 10 29.5 6.5 45-5.1 23.2-20.6 43.7-42.2 54.1-21.8 10.7-47.3 10.4-69.1-.1-21.3-10.8-37-31.2-41.8-54.7-3.2-14.8-.3-29.6 6.2-43.2C35.8 68.3 43.7 56 51.8 43.8c8-11 16.4-21.8 25-32.4 1.6-2 1.3-4.3-.6-5.7-1.7-1.3-4-.8-5.6 1.1-6.2 7.5-12.3 15.1-18 22.9-11.7 16-22.9 32.5-31 50.7-6.6 14.4-9.6 30.5-5.5 46.1 4.4 23.5 19.8 44.9 40.6 56.6 26.9 16.4 62.6 15.7 89.1-1.5 3.2-2 6.4-4.2 9.2-6.8.1-.1 1.3-1.1 1.8-1.5 13.6-12 23.6-28.5 26.9-46.4 2.1-8.1 2.5-16.7 1.3-25z"/></svg>