<?xml version="1.0" encoding="utf-8"?>
<!-- Generator: Adobe Illustrator 22.1.0, SVG Export Plug-In . SVG Version: 6.00 Build 0)  -->
<svg version="1.0" id="Livello_1" xmlns="http://www.w3.org/2000/svg" xmlns:xlink="http://www.w3.org/1999/xlink" x="0px" y="0px"
	 viewBox="0 0 200 200" enable-background="new 0 0 200 200" xml:space="preserve">
<linearGradient id="SVGID_1_" gradientUnits="userSpaceOnUse" x1="30.5036" y1="-76.8595" x2="141.5489" y2="34.188" gradientTransform="matrix(1.0705 0 0 -1.0705 -18.161 53.0009)">
	<stop  offset="0" style="stop-color:#FF5643"/>
	<stop  offset="1" style="stop-color:#FFA14A"/>
</linearGradient>
<path fill="url(#SVGID_1_)" d="M39.8,85.9c0-11.4,9.3-20.7,20.7-20.7s20.7,9.3,20.7,20.7c0,2.7-0.4,5.3-1.6,7.6l26.3,19.8
	c3.1-2.2,7.1-3.3,11.4-3.3c1.6,0,3.1,0.2,4.7,0.4l20.5-35c-7.6-6.7-12.7-16.7-12.7-27.6c0-9.6,3.6-18,9.6-24.7L115.7,9.5
	c-10.5-6-23.4-6-33.8,0L28.7,40.2C18.2,46.2,12,57.4,12,69.6v63.9c2.7-2,5.6-3.6,8.9-4c1.1-0.2,2.7-0.4,4-0.4c0.9,0,2.4,0,3.3,0.2
	l16.9-28.9C42,96.3,39.8,91.2,39.8,85.9L39.8,85.9z"/>
<linearGradient id="SVGID_2_" gradientUnits="userSpaceOnUse" x1="72.3979" y1="-125.0792" x2="181.7808" y2="-15.6964" gradientTransform="matrix(1.0705 0 0 -1.0705 -18.161 53.0009)">
	<stop  offset="0" style="stop-color:#FF5643"/>
	<stop  offset="1" style="stop-color:#FFA14A"/>
</linearGradient>
<path fill="url(#SVGID_2_)" d="M166.7,84.5c-4.5,0-9.1-0.9-13.1-2.4l-20.3,35.2c3.1,3.8,4.9,8,4.9,13.6c0,11.4-9.3,20.7-20.7,20.7
	s-20.7-9.3-20.7-20.7c0-2.7,0.4-4.9,1.3-7.3l-26-20.5c-3.1,2.4-7.3,3.8-11.6,3.8c-1.6,0-2.9-0.2-4.2-0.4l-16.9,28.5
	c2,2,3.3,4,4.2,6.5c0.9,2.7,1.6,5.3,1.6,8c0,6.5-2.9,12.2-7.3,16l43.6,25.2c10.5,6,23.4,6,33.8,0l53.2-30.7
	c10.5-6,16.9-17.1,16.9-29.4V78.7C180.3,82.5,173.8,84.5,166.7,84.5z"/>
<circle fill="#FFA14A" cx="166.7" cy="47.4" r="21.4"/>
</svg>
