<?xml version="1.0" encoding="UTF-8"?>
<svg width="170px" height="199px" viewBox="0 0 170 199" version="1.1" xmlns="http://www.w3.org/2000/svg" xmlns:xlink="http://www.w3.org/1999/xlink">
    <!-- Generator: Sketch 43.2 (39069) - http://www.bohemiancoding.com/sketch -->
    <title>Shape</title>
    <desc>Created with Sketch.</desc>
    <defs></defs>
    <g id="Pages" stroke="none" stroke-width="1" fill="none" fill-rule="evenodd">
        <g id="152__Token_Details" transform="translate(-95.000000, -338.000000)" fill="#602952">
            <g id="BODY" transform="translate(0.000000, 80.000000)">
                <g id="item" transform="translate(30.000000, 232.000000)">
                    <path d="M186.527175,127.975829 C184.344293,121.763042 180.578981,116.212992 175.595377,111.862415 L175.595377,111.862415 C174.990983,111.33365 174.372534,110.825757 173.740029,110.338737 L173.666236,110.27612 C173.047787,109.803015 172.411768,109.347303 171.758179,108.908985 L171.631678,108.825495 C170.992145,108.401092 170.34207,107.994082 169.681454,107.604466 L169.512785,107.500105 C168.859197,107.117446 168.191552,106.769574 167.509852,106.45649 L167.309559,106.352128 C166.606775,106.018171 165.903992,105.701608 165.201208,105.402439 L164.96929,105.308513 C164.357868,105.058046 163.746446,104.807578 163.113941,104.588419 L163.113941,104.588419 C161.394976,103.97049 159.63351,103.475245 157.843064,103.106486 C156.445271,105.670766 154.640761,107.9963 152.498396,109.994344 C157.531859,110.402151 162.388404,112.021501 166.645429,114.711484 L166.887889,114.85759 C167.288476,115.118493 167.67852,115.389833 168.068565,115.671609 L168.606195,116.047311 C168.954073,116.308215 169.291409,116.579554 169.66037,116.850894 L170.26125,117.341393 C170.577503,117.612733 170.872672,117.884073 171.178382,118.165849 L171.789804,118.750273 C172.074432,119.032049 172.348517,119.313826 172.622603,119.595602 L173.223483,120.253079 C173.476485,120.538334 173.725973,120.830546 173.971947,121.129715 L174.551744,121.860246 C174.783662,122.152458 175.005039,122.455106 175.226416,122.757755 C175.447793,123.060403 175.595377,123.289998 175.774587,123.550902 C175.953797,123.811806 176.185715,124.156199 176.375467,124.469283 C176.565218,124.782368 176.723345,125.043271 176.892013,125.335484 C177.060681,125.627696 177.250432,125.951216 177.4191,126.253865 C177.587769,126.556513 177.735353,126.89047 177.893479,127.213991 C178.051606,127.537511 178.19919,127.808851 178.336233,128.121936 C178.473276,128.43502 178.663027,128.915083 178.821154,129.322093 C179.671945,131.459757 180.273211,133.686665 180.613252,135.959484 L180.613252,135.959484 L181.583093,139.6017 C181.994221,141.114941 185.799794,154.525393 194.6127,159.044246 C204.7117,164.26232 218.089185,170.711861 223.34952,173.258281 L153.868823,214.376709 L153.868823,186.199106 C153.868823,181.753307 162.818772,176.545668 166.951139,174.719342 L167.1936,174.583672 L167.1936,174.583672 C168.047482,174.166226 168.890822,173.707036 169.702537,173.216537 L170.050415,173.028686 L170.050415,173.028686 C171.84872,171.946715 173.555089,170.721641 175.152624,169.365597 L175.152624,169.365597 L175.584835,168.97946 L176.069756,168.541142 C176.57576,168.081951 177.067709,167.612324 177.545602,167.132262 L177.798604,166.89223 C178.325691,166.359987 178.852779,165.848615 179.316616,165.232882 L179.75937,164.721511 C180.152929,164.255363 180.532432,163.778779 180.897879,163.291759 L181.214132,162.884749 C181.656885,162.289888 182.078555,161.674155 182.489684,161.058423 L182.626727,160.870572 L182.626727,160.870572 C183.18544,160.004372 183.680902,159.127735 184.197448,158.21979 C182.244966,155.843134 180.575402,153.251819 179.22174,150.49704 C178.662999,152.059995 177.975471,153.574855 177.166098,155.026328 C176.821734,155.652497 176.470343,156.264751 176.111923,156.863091 L175.943255,157.103122 C175.605919,157.611015 175.254527,158.108471 174.88908,158.595491 L174.572827,159.012937 C174.20738,159.486043 173.824363,159.945233 173.423776,160.390509 L173.212941,160.640977 C170.634025,163.482691 167.541406,165.822278 164.094324,167.539271 L163.440736,167.873228 C161.680263,168.655939 146.141718,175.595979 146.141718,186.157362 L146.141718,214.334965 L76.4396451,173.15392 C80.930432,170.398776 94.0232897,162.71777 104.796962,159.336458 C109.013663,158.031939 117.963612,163.594407 123.034195,167.685377 L123.339906,167.956717 L123.339906,167.956717 C124.004036,168.582886 124.710334,169.188183 125.448256,169.762171 L125.701259,169.98133 L125.701259,169.98133 C127.311976,171.277173 129.025252,172.442814 130.824551,173.467004 L130.824551,173.467004 L132.036852,174.124482 L132.279313,174.249715 C133.448852,174.84937 134.648672,175.38928 135.874051,175.867319 L136.401138,176.076041 L136.7701,176.222148 L136.7701,176.222148 C138.532075,176.864793 140.339644,177.377562 142.178019,177.756262 C143.618344,175.161945 145.481135,172.820641 147.691356,170.826658 C144.747357,170.608498 141.850349,169.972339 139.089285,168.937715 L138.614906,168.760301 L137.708316,168.384599 L137.244478,168.186313 L136.358971,167.768867 C134.302632,166.766895 132.365117,165.541828 130.58209,164.116214 L127.809609,161.621975 C125.266883,159.415632 122.50896,157.464922 119.5765,155.798603 C112.682193,151.916356 106.926396,150.653582 102.509401,152.031154 C93.2959087,154.901095 82.9122816,160.473998 76.5766879,164.147523 L146.173344,40.4895899 L146.173344,94.6427686 C146.173344,96.5630201 143.305987,101.572372 133.744616,105.830321 L133.080486,106.18515 L133.080486,106.18515 C132.152812,106.633904 131.246221,107.124403 130.360713,107.646211 L130.181504,107.740136 L130.181504,107.740136 C128.373278,108.814359 126.656336,110.03245 125.04767,111.382352 L125.04767,111.382352 L125.04767,111.382352 C124.03536,112.233748 123.067765,113.135918 122.148688,114.085315 L122.053812,114.17924 C121.150178,115.116695 120.295196,116.098957 119.492166,117.122234 L119.386748,117.257904 C119.000217,117.758839 118.624228,118.266732 118.258781,118.781582 L118.13228,118.969433 C117.801971,119.449495 117.478691,119.939994 117.162438,120.44093 L117.057021,120.597472 C116.740768,121.105364 116.438571,121.623693 116.15043,122.152458 L115.950137,122.528159 C115.686593,123.029095 115.423049,123.571774 115.170047,124.041401 L115.054088,124.281433 C114.822169,124.761495 114.611334,125.241558 114.400499,125.732057 L114.179122,126.264301 C113.968287,126.775672 113.778535,127.307916 113.588784,127.798415 L113.409574,128.341095 C113.276045,128.723753 113.153058,129.11337 113.040613,129.509943 C112.977362,129.729103 112.90357,129.937825 112.850861,130.156985 C112.710304,130.65792 112.58029,131.162334 112.460816,131.670226 C112.397566,131.910258 112.344857,132.160725 112.292148,132.411193 C112.239439,132.66166 112.144564,133.120851 112.081313,133.454808 C112.018063,133.788765 111.965354,134.080977 111.912645,134.404497 C111.859936,134.728018 111.786144,135.260262 111.733435,135.688144 C111.680727,136.116026 111.670185,136.24126 111.63856,136.523036 C111.606934,136.804812 111.564767,137.284875 111.543684,137.671012 C111.5226,138.05715 111.543684,138.432851 111.480433,138.818989 C111.417183,139.205126 111.480433,139.288615 111.480433,139.528647 L111.480433,139.528647 L111.480433,140.394847 C111.481968,142.291802 111.62644,144.186001 111.912645,146.061676 C114.914483,146.803229 117.816358,147.896296 120.556883,149.317755 C119.714066,146.590007 119.263375,143.758371 119.21808,140.906218 L119.21808,140.906218 L119.21808,140.394847 C119.21808,139.706061 119.21808,139.027712 119.291872,138.307617 L119.291872,137.775374 C119.291872,137.180513 119.407832,136.585653 119.492166,136.001228 L119.492166,135.750761 C119.587042,135.093283 119.713543,134.446242 119.861127,133.809637 L119.977086,133.319138 C120.103587,132.783416 120.247658,132.251172 120.409298,131.722407 L120.514716,131.378014 C120.704467,130.758803 120.918816,130.150027 121.157763,129.551688 L121.326431,129.144678 C121.530238,128.643743 121.744587,128.146287 121.969478,127.652309 L122.138146,127.276607 C122.419259,126.692183 122.717942,126.118195 123.034195,125.554643 L123.202863,125.272867 C123.483976,124.785846 123.779145,124.305784 124.08837,123.832678 L124.309747,123.498721 C124.678708,122.956042 125.058212,122.455106 125.458798,121.891554 L125.53259,121.797629 C125.912094,121.30713 126.31268,120.827067 126.723809,120.35744 L126.955727,120.086101 C128.839279,117.995397 131.002817,116.169545 133.386197,114.659303 L136.685766,113.125189 C138.446238,112.342478 153.91099,105.204152 153.91099,94.6427686 L153.91099,40.4895899 L224.045276,165.07634 C217.783474,162.039421 206.788425,156.67524 198.196896,152.271185 C193.284439,149.745637 189.942703,140.854038 189.07828,137.660576 L188.129522,133.924435 L188.129522,133.924435 C187.778843,131.917483 187.26412,129.942038 186.590426,128.017574 L186.590426,128.017574 L186.590426,128.017574 L186.527175,127.975829 Z M234.038858,167.194878 L156.715097,29.9282069 C155.348456,27.5030101 152.762993,26 149.957833,26 C147.152673,26 144.56721,27.5030101 143.200569,29.9282069 L65.971684,167.205315 C63.9493182,170.801378 65.1824342,175.337622 68.7547069,177.443177 L146.025759,223.247436 C148.473427,224.695299 151.526573,224.695299 153.974241,223.247436 L231.245293,177.484922 C234.817566,175.379367 236.050682,170.843122 234.028316,167.247059 L234.038858,167.194878 Z" id="Shape"></path>
                </g>
            </g>
        </g>
    </g>
</svg>