<?xml version="1.0" encoding="UTF-8" standalone="no"?><!DOCTYPE svg PUBLIC "-//W3C//DTD SVG 1.1//EN" "http://www.w3.org/Graphics/SVG/1.1/DTD/svg11.dtd"><svg width="100%" height="100%" viewBox="0 0 15 15" version="1.1" xmlns="http://www.w3.org/2000/svg" xmlns:xlink="http://www.w3.org/1999/xlink" xml:space="preserve" style="fill-rule:evenodd;clip-rule:evenodd;stroke-linejoin:round;stroke-miterlimit:1.41421;"><path id="Shape" d="M10.263,7.712c-0.166,-0.469 -0.45,-0.889 -0.827,-1.218c-0.046,-0.04 -0.093,-0.079 -0.141,-0.115l-0.005,-0.005c-0.047,-0.036 -0.095,-0.07 -0.144,-0.104l-0.01,-0.006c-0.048,-0.032 -0.098,-0.063 -0.147,-0.092l-0.013,-0.008c-0.05,-0.029 -0.1,-0.055 -0.152,-0.079l-0.015,-0.008c-0.053,-0.025 -0.106,-0.049 -0.159,-0.072l-0.018,-0.007c-0.046,-0.019 -0.092,-0.038 -0.14,-0.054c-0.13,-0.047 -0.263,-0.085 -0.399,-0.112c-0.106,0.194 -0.242,0.369 -0.404,0.521c0.381,0.03 0.748,0.153 1.07,0.356l0.018,0.011c0.031,0.02 0.06,0.041 0.09,0.062l0.04,0.028c0.027,0.02 0.052,0.041 0.08,0.061l0.045,0.037c0.024,0.021 0.047,0.041 0.07,0.063l0.046,0.044c0.021,0.021 0.042,0.042 0.063,0.064l0.045,0.049c0.02,0.022 0.038,0.044 0.057,0.067l0.044,0.055c0.017,0.022 0.034,0.045 0.051,0.068c0.017,0.023 0.028,0.04 0.041,0.06c0.014,0.02 0.031,0.046 0.046,0.069c0.014,0.024 0.026,0.044 0.039,0.066c0.013,0.022 0.027,0.046 0.04,0.069c0.012,0.023 0.024,0.048 0.036,0.073c0.012,0.024 0.023,0.045 0.033,0.069c0.01,0.023 0.025,0.059 0.037,0.09c0.064,0.162 0.11,0.33 0.135,0.502l0.074,0.276c0.031,0.114 0.319,1.128 0.985,1.47c0.764,0.395 1.776,0.883 2.173,1.075l-5.254,3.11l0,-2.131c0,-0.336 0.676,-0.73 0.989,-0.868l0.018,-0.011c0.065,-0.031 0.129,-0.066 0.19,-0.103l0.026,-0.014c0.136,-0.082 0.265,-0.175 0.386,-0.277l0.033,-0.029l0.037,-0.034c0.038,-0.034 0.075,-0.07 0.111,-0.106l0.019,-0.018c0.04,-0.041 0.08,-0.079 0.115,-0.126l0.034,-0.038c0.029,-0.036 0.058,-0.072 0.086,-0.109l0.024,-0.03c0.033,-0.045 0.065,-0.092 0.096,-0.138l0.011,-0.015c0.042,-0.065 0.079,-0.132 0.118,-0.2c-0.147,-0.18 -0.274,-0.376 -0.376,-0.584c-0.042,0.118 -0.094,0.233 -0.155,0.342c-0.026,0.048 -0.053,0.094 -0.08,0.139l-0.013,0.018c-0.025,0.039 -0.052,0.076 -0.08,0.113l-0.024,0.032c-0.027,0.036 -0.056,0.07 -0.086,0.104l-0.016,0.019c-0.195,0.215 -0.429,0.392 -0.69,0.522l-0.049,0.025c-0.134,0.059 -1.309,0.584 -1.309,1.383l0,2.131l-5.271,-3.115c0.339,-0.208 1.329,-0.789 2.144,-1.045c0.319,-0.098 0.996,0.322 1.38,0.632l0.023,0.02c0.05,0.048 0.103,0.093 0.159,0.137l0.019,0.016c0.122,0.098 0.252,0.187 0.388,0.264l0.091,0.05l0.019,0.009c0.088,0.046 0.179,0.086 0.272,0.123l0.067,0.026c0.134,0.049 0.27,0.088 0.409,0.116c0.109,-0.196 0.25,-0.373 0.417,-0.524c-0.222,-0.016 -0.441,-0.064 -0.65,-0.143l-0.036,-0.013l-0.069,-0.028l-0.035,-0.015l-0.067,-0.032c-0.155,-0.076 -0.302,-0.168 -0.437,-0.276l-0.209,-0.189c-0.193,-0.167 -0.401,-0.314 -0.623,-0.44c-0.521,-0.294 -0.957,-0.389 -1.291,-0.285c-0.697,0.217 -1.482,0.638 -1.961,0.916l5.264,-9.352l0,4.095c0,0.146 -0.217,0.525 -0.94,0.847l-0.051,0.026c-0.07,0.034 -0.138,0.071 -0.205,0.111l-0.014,0.007c-0.137,0.081 -0.266,0.173 -0.388,0.275c-0.077,0.065 -0.15,0.133 -0.219,0.205l-0.008,0.007c-0.068,0.071 -0.133,0.145 -0.193,0.223l-0.008,0.01c-0.03,0.038 -0.058,0.076 -0.086,0.115l-0.009,0.014c-0.025,0.037 -0.05,0.074 -0.074,0.112l-0.007,0.011c-0.024,0.039 -0.047,0.078 -0.069,0.118l-0.015,0.028c-0.02,0.038 -0.04,0.079 -0.059,0.115l-0.009,0.018c-0.018,0.036 -0.033,0.073 -0.049,0.11l-0.017,0.04c-0.016,0.039 -0.03,0.079 -0.045,0.116l-0.013,0.041c-0.01,0.029 -0.02,0.058 -0.028,0.088c-0.005,0.017 -0.011,0.033 -0.015,0.049c-0.01,0.038 -0.02,0.076 -0.029,0.115c-0.005,0.018 -0.009,0.037 -0.013,0.056c-0.004,0.019 -0.011,0.054 -0.016,0.079c-0.005,0.025 -0.009,0.047 -0.013,0.072c-0.004,0.024 -0.009,0.064 -0.013,0.097c-0.004,0.032 -0.005,0.042 -0.007,0.063c-0.003,0.021 -0.006,0.058 -0.007,0.087c-0.002,0.029 0,0.057 -0.005,0.087c-0.005,0.029 0,0.035 0,0.053l0,0.066c0,0.143 0.011,0.286 0.032,0.428c0.227,0.056 0.447,0.139 0.654,0.247c-0.064,-0.207 -0.098,-0.421 -0.101,-0.637l0,-0.038c0,-0.052 0,-0.104 0.006,-0.158l0,-0.04c0,-0.045 0.008,-0.09 0.015,-0.135l0,-0.019c0.007,-0.049 0.016,-0.098 0.028,-0.146l0.008,-0.037c0.01,-0.041 0.021,-0.081 0.033,-0.121l0.008,-0.026c0.014,-0.047 0.031,-0.093 0.049,-0.138l0.012,-0.031c0.016,-0.038 0.032,-0.076 0.049,-0.113l0.013,-0.028c0.021,-0.045 0.044,-0.088 0.068,-0.131l0.012,-0.021c0.022,-0.037 0.044,-0.073 0.067,-0.109l0.017,-0.025c0.028,-0.041 0.057,-0.079 0.087,-0.122l0.006,-0.007c0.028,-0.037 0.059,-0.073 0.09,-0.109l0.017,-0.02c0.143,-0.158 0.306,-0.296 0.486,-0.411l0.25,-0.116c0.133,-0.059 1.303,-0.599 1.303,-1.398l0,-4.095l5.304,9.422c-0.474,-0.229 -1.305,-0.635 -1.955,-0.968c-0.371,-0.191 -0.624,-0.864 -0.689,-1.105l-0.072,-0.283c-0.027,-0.151 -0.066,-0.301 -0.117,-0.446l-0.004,-0.004ZM13.856,10.679l-5.848,-10.382c-0.103,-0.183 -0.299,-0.297 -0.511,-0.297c-0.212,0 -0.408,0.114 -0.511,0.297l-5.841,10.382c-0.153,0.272 -0.06,0.615 0.21,0.775l5.844,3.464c0.186,0.109 0.416,0.109 0.602,0l5.844,-3.461c0.27,-0.159 0.363,-0.502 0.21,-0.774l0.001,-0.004Z" style="fill:#602952;"/></svg>