<?xml version="1.0" encoding="utf-8"?>
<!-- Generator: Adobe Illustrator 22.1.0, SVG Export Plug-In . SVG Version: 6.00 Build 0)  -->
<svg version="1.0" id="Livello_1" xmlns="http://www.w3.org/2000/svg" xmlns:xlink="http://www.w3.org/1999/xlink" x="0px" y="0px"
	 viewBox="0 0 200 200" style="enable-background:new 0 0 200 200;" xml:space="preserve">
<style type="text/css">
	.st0{fill:url(#SVGID_1_);}
</style>
<linearGradient id="SVGID_1_" gradientUnits="userSpaceOnUse" x1="100.4848" y1="6.5297" x2="100.4848" y2="196.5297">
	<stop  offset="0" style="stop-color:#98201C"/>
	<stop  offset="0.3275" style="stop-color:#95201C"/>
	<stop  offset="0.5244" style="stop-color:#8D1E1B"/>
	<stop  offset="0.6868" style="stop-color:#7F1C19"/>
	<stop  offset="0.8304" style="stop-color:#6B1916"/>
	<stop  offset="0.9604" style="stop-color:#511513"/>
	<stop  offset="1" style="stop-color:#471312"/>
</linearGradient>
<path class="st0" d="M150.7,196.5c-7.1-1-14.1-2.2-21.2-3c-9.5-1-19-1.8-28.5-2.6c-9.1-0.7-17.1-4.2-25.1-8.4
	c-7-3.8-14.8-6.6-22.6-8.4c-3.6-0.8-8.2,1.5-11.9,3.3c-3.8,1.8-7.1,4.8-10.6,7.3c-2.5,1.7-3.9,0.5-4.5-1.9c-0.7-3.3-1.2-6.9,2.2-9.1
	c10.3-6.8,20.7-13.5,31.2-20c1.2-0.7,3.1-0.3,4.6-0.4c2.1-0.2,4.4,0.2,6.4-0.6c4-1.6,6.7-1.4,7.8,3.5c0.6,2.6,2.3,4.2,5.7,2.4
	c-0.6-1.2-1.2-2.3-1.9-3.6c0.5-0.1,1-0.3,1.3-0.2c9.2,4.1,14.8-2.1,14.3-9.5c-0.4-5.4-0.3-10.8-0.5-16.2c-0.2-6.7-3.9-12-8.4-16
	c-3.4-3.1-4.5-6.3-4.5-10.4c0.1-6.8,0-13.7,0.6-20.5c1.5-18-2.3-35.5-4.5-53.2C79.4,18.3,85.3,9,95.8,6.8c4.3-0.9,5,0.9,6.3,5
	c2.4,7.2-0.5,14-0.1,20.9c0.1,3.3,0.4,6.6,5.6,4.9c1.3-0.4,4.3,0.9,5,2.2c2,4.1,4.5,8.5,4.6,12.9c0.3,11.7-0.5,23.4-1,35.1
	c-0.4,8.7-1.1,17.4-1.7,26c-0.2,2.7-0.3,5.4-1,8c-2.4,9.6-0.1,17.5,7.8,23.6c3.1,2.4,5.9,5.3,9.2,7.5c8.4,5.8,18.1,5.3,27.6,5.3
	c4,0,8,0,11.9-0.2c4.1-0.1,6.2,1.2,4.7,5.6c-0.2,0.6-0.2,1.3-0.3,1.9c-1.7,7.9-1.7,7.9-9.8,7.9c-5.1,0-5.2,0.3-3.5,5
	c0.5,1.5,0.9,4.2,0.2,4.8c-1.4,1-3.6,1-5.5,1.1c-1.6,0.1-3.2-0.2-5.5-0.4c1.9,5.5,7.1,3.8,10.6,6.6c-2.9,2.1-5.5,3.9-8.2,5.8
	C152,196.5,151.3,196.5,150.7,196.5z"/>
</svg>
