<?xml version="1.0" encoding="utf-8"?>
<!-- Generator: Adobe Illustrator 22.1.0, SVG Export Plug-In . SVG Version: 6.00 Build 0)  -->
<svg version="1.0" id="Livello_1" xmlns="http://www.w3.org/2000/svg" xmlns:xlink="http://www.w3.org/1999/xlink" x="0px" y="0px"
	 viewBox="0 0 200 200" enable-background="new 0 0 200 200" xml:space="preserve">
<linearGradient id="SVGID_1_" gradientUnits="userSpaceOnUse" x1="100" y1="195" x2="100" y2="5">
	<stop  offset="0" style="stop-color:#0B396A"/>
	<stop  offset="1" style="stop-color:#44B5E1"/>
</linearGradient>
<path fill="url(#SVGID_1_)" enable-background="new    " d="M195,100c0,33.3-17.2,62.7-43.2,79.6L118.3,78.9l30.2-60.6
	C176.3,34.8,195,65.2,195,100z M54.2,16.7C24.9,32.9,5,64.1,5,100c0,33.6,17.4,63.1,43.7,80L83.8,78.5L54.2,16.7z M80.5,177.9
	l-4.7,13.9c7.9,2.1,16.1,3.2,24.6,3.2c8.7,0,17.1-1.2,25.1-3.4l-4.8-13.7H80.5z M111.4,148.9L101,111.5l-11.1,37.4H111.4z M119,7
	c-6.3-1.3-12.9-2-19.6-2c-5.8,0-11.5,0.5-17.1,1.5l17.9,46.2L119,7z"/>
</svg>
