<svg xmlns="http://www.w3.org/2000/svg" viewBox="0 0 200 200"><linearGradient id="a" x1="62.6172" x2="136.3312" y1="166.7859" y2="11.2851" gradientUnits="userSpaceOnUse"><stop offset=".5196" stop-color="#d5a95a"/><stop offset="1" stop-color="#e2c27b"/></linearGradient><path fill="url(#a)" d="M163.4 87.8c-.1 5.9-21 10.8-49.1 12-.8 0-4.9.3-14.1.3-7.3 0-12.5-.2-14.3-.3-28.2-1.3-49.2-6.2-49.2-12 0-5.9 21-10.8 49.2-12V95c1.9.1 7.1.4 14.4.4 8.8 0 13.1-.3 14-.4V75.8c28.1 1.3 49.1 6.2 49.1 12z"/><linearGradient id="b" x1="65.4392" x2="132.8391" y1="172.5747" y2="11.9853" gradientUnits="userSpaceOnUse"><stop offset="0" stop-color="#e9c166"/><stop offset=".5196" stop-color="#d5a95a"/><stop offset="1" stop-color="#e2c27b"/></linearGradient><path fill="url(#b)" d="M163.3 12.9H36.7L5 92.1l95 95 95-95-31.7-79.2zm-49.1 91.6v54.9H85.9v-54.9C54 103.1 30 96.8 30 89.2s24-13.9 55.9-15.3V56.7H46.6V30.5h106.8v26.1h-39.2v17.2C146 75.3 170 81.6 170 89.2c0 7.5-23.9 13.9-55.8 15.3z"/></svg>