<?xml version="1.0" encoding="utf-8"?>
<!-- Generator: Adobe Illustrator 23.0.1, SVG Export Plug-In . SVG Version: 6.00 Build 0)  -->
<svg version="1.0" id="Livello_1" xmlns="http://www.w3.org/2000/svg" xmlns:xlink="http://www.w3.org/1999/xlink" x="0px" y="0px"
	 viewBox="0 0 200 200" enable-background="new 0 0 200 200" xml:space="preserve">
<linearGradient id="SVGID_1_" gradientUnits="userSpaceOnUse" x1="36.3246" y1="62.9413" x2="36.3246" y2="13.3678" gradientTransform="matrix(-1 0 0 -1 212.6535 165.1211)">
	<stop  offset="0" style="stop-color:#B2E7FF"/>
	<stop  offset="1" style="stop-color:#F9FDFF"/>
</linearGradient>
<path fill="url(#SVGID_1_)" d="M190.33,105.51l0,32.74c0,7.46-6.04,13.5-13.5,13.5h-14.5l0-46.24
	C162.33,105.51,182.66,98.02,190.33,105.51z"/>
<linearGradient id="SVGID_2_" gradientUnits="userSpaceOnUse" x1="64.1238" y1="125.0244" x2="64.1238" y2="-1.4436" gradientTransform="matrix(0.7071 0.7071 -0.7071 0.7071 62.35 -25.5348)">
	<stop  offset="0" style="stop-color:#00A1EC"/>
	<stop  offset="1" style="stop-color:#17C1FA"/>
</linearGradient>
<path fill="url(#SVGID_2_)" d="M21.87,110.79L9.39,98.31l79.88-79.88c5.27-5.27,13.82-5.27,19.09,0l10.25,10.25l-82.11,82.11
	C32.46,114.84,25.91,114.84,21.87,110.79z"/>
<linearGradient id="SVGID_3_" gradientUnits="userSpaceOnUse" x1="120.4891" y1="58.4773" x2="120.4891" y2="-0.1815" gradientTransform="matrix(-1 0 0 -1 212.6535 165.1211)">
	<stop  offset="0" style="stop-color:#B2E7FF"/>
	<stop  offset="1" style="stop-color:#F9FDFF"/>
</linearGradient>
<path fill="url(#SVGID_3_)" d="M106.33,108.51l0,42.74C106.33,158.71,87,167,79,165l-1-1v-45.49
	C78,118.51,98.66,101.02,106.33,108.51z"/>
<linearGradient id="SVGID_4_" gradientUnits="userSpaceOnUse" x1="114.3284" y1="138.4594" x2="114.3284" y2="-10.636" gradientTransform="matrix(0.7071 0.7071 -0.7071 0.7071 62.35 -25.5348)">
	<stop  offset="0" style="stop-color:#00A1EC"/>
	<stop  offset="1" style="stop-color:#17C1FA"/>
</linearGradient>
<path fill="url(#SVGID_4_)" d="M47.87,155.79l-12.48-12.48l95.88-95.88c5.27-5.27,13.82-5.27,19.09,0l10.25,10.25l-98.11,98.11
	C58.46,159.84,51.91,159.84,47.87,155.79z"/>
<linearGradient id="SVGID_5_" gradientUnits="userSpaceOnUse" x1="164.1222" y1="125.7316" x2="164.1222" y2="-0.7803" gradientTransform="matrix(0.7071 0.7071 -0.7071 0.7071 62.35 -25.5348)">
	<stop  offset="0" style="stop-color:#00A1EC"/>
	<stop  offset="1" style="stop-color:#17C1FA"/>
</linearGradient>
<path fill="url(#SVGID_5_)" d="M84.79,163.91l74.48-74.48c5.27-5.27,13.82-5.27,19.09,0l10.25,10.25c0,0,1.72,0.82,1.72,5.82
	c0,0-3.61-3.93-8.14,0.6l-75.68,75.68c-4.04,4.04-10.6,4.04-14.64,0l-12.48-12.48c0,0-1.39-1.31-1.39-5.31
	C78,164,81.57,166.83,84.79,163.91z"/>
</svg>
