<svg xmlns="http://www.w3.org/2000/svg" id="Layer_1" viewBox="0 0 200 200"><style>.st2{fill:#95331a}</style><linearGradient id="SVGID_1_" x1="32.8251" x2="167.1749" y1="32.8251" y2="167.1749" gradientUnits="userSpaceOnUse"><stop offset="0" stop-color="#f2fac8"/><stop offset=".5142" stop-color="#e7a128"/><stop offset="1" stop-color="#95331a"/></linearGradient><path fill="url(#SVGID_1_)" d="M100 5C47.5 5 5 47.5 5 100s42.5 95 95 95 95-42.5 95-95-42.5-95-95-95zm0 185.5C50 190.5 9.5 150 9.5 100S50 9.5 100 9.5 190.5 50 190.5 100 150 190.5 100 190.5z"/><linearGradient id="SVGID_2_" x1="35.9987" x2="164.0013" y1="35.9987" y2="164.0013" gradientUnits="userSpaceOnUse"><stop offset="0" stop-color="#f2fa69"/><stop offset=".4802" stop-color="#eaa71b"/><stop offset="1" stop-color="#f2fa69"/></linearGradient><path fill="url(#SVGID_2_)" d="M100 9.5C50 9.5 9.5 50 9.5 100S50 190.5 100 190.5s90.5-40.5 90.5-90.5S150 9.5 100 9.5zm-39.4 98.2h-24l-12-23.1h36v23.1zm64.4 69.4l-33.6-44.7h20.2l33.6 44.7H125zm36.9-61.8c0 12.3-9.1 30.5-26.2 37.7l-16.5-19.9S137 131 137 117c0 0 .1-8.6-5-8.6l-41.3-.2v69H68.8v-92H132s7.4-.7 7.4-12.4c0-11.6-7.4-12.2-7.4-12.2h-5.8v14.3h-11.5V60.5h-8.9v14.3H94.3V60.5H68.8s-.7-22.9 17.8-22.9h7.7V22.3h11.5v15.3h8.9V22.3h11.5v15.3h9.9s25.7 3.9 25.7 31c0 20.9-6.7 28.5-6.7 28.5s6.8 5.8 6.8 18.2z"/><path d="M161.9 115.3c0 12.3-9.1 30.5-26.2 37.7l-16.5-19.9S137 131 137 117c0 0 .1-8.6-5-8.6l-41.3-.2v69H68.8v-92H132s7.4-.7 7.4-12.4c0-11.6-7.4-12.2-7.4-12.2h-5.8v14.3h-11.5V60.5h-8.9v14.3H94.3V60.5H68.8s-.7-22.9 17.8-22.9h7.7V22.3h11.5v15.3h8.9V22.3h11.5v15.3h9.9s25.7 3.9 25.7 31c0 20.9-6.7 28.5-6.7 28.5s6.8 5.8 6.8 18.2z" class="st2"/><path d="M145.3 177.1H125l-33.6-44.7h20.3zM60.6 84.6v23.1h-24l-12-23.1z" class="st2"/><linearGradient id="SVGID_3_" x1="54.8785" x2="142.968" y1="56.1505" y2="144.2399" gradientUnits="userSpaceOnUse"><stop offset="0" stop-color="#eaa71b"/><stop offset="1" stop-color="#f2fa69"/></linearGradient><path fill="url(#SVGID_3_)" stroke="#a31719" stroke-miterlimit="10" stroke-width="1.5" d="M128.9 105.8l-41.3-.2v69H65.7V82.5h63.2s7.4-.7 7.4-12.3-7.4-12.2-7.4-12.2h-5.8v14.3h-11.5V57.9h-8.9v14.3H91.3V57.9H65.7S65 35 83.5 35h7.7V19.8h11.5v15.3h8.9V19.8h11.5v15.3h9.9s25.7 3.9 25.7 31c0 20.9-6.7 28.5-6.7 28.5s6.7 5.8 6.7 18.2-9.1 30.5-26.2 37.7L116 130.6s17.8-2.1 17.8-16.1c.1-.1.3-8.7-4.9-8.7z"/><linearGradient id="SVGID_4_" x1="90.7858" x2="139.7284" y1="128.0713" y2="177.0139" gradientUnits="userSpaceOnUse"><stop offset="0" stop-color="#eaa71b"/><stop offset="1" stop-color="#f2fa69"/></linearGradient><path fill="url(#SVGID_4_)" stroke="#a31719" stroke-miterlimit="10" stroke-width="1.5" d="M108.6 130.5H88.3l33.6 44.1h20.3z"/><linearGradient id="SVGID_5_" x1="27.7146" x2="57.2573" y1="76.2858" y2="105.8285" gradientUnits="userSpaceOnUse"><stop offset="0" stop-color="#f2fa69"/><stop offset="1" stop-color="#eaa71b"/></linearGradient><path fill="url(#SVGID_5_)" stroke="#a31719" stroke-miterlimit="10" stroke-width="1.5" d="M57.5 82.5v23.1h-24l-12-23.1z"/></svg>