<svg xmlns="http://www.w3.org/2000/svg" id="Livello_1" x="0" y="0" version="1.1" viewBox="0 0 200 200" xml:space="preserve"><style>.st2{fill-rule:evenodd;clip-rule:evenodd;fill:#fff}</style><linearGradient id="SVGID_1_" x1="182.6478" x2="30.6518" y1="182.6478" y2="30.6518" gradientUnits="userSpaceOnUse"><stop offset=".1594" stop-color="#003cda"/><stop offset="1" stop-color="#33dfcc"/></linearGradient><path fill="url(#SVGID_1_)" d="M167.2 32.8C149.4 15 125.2 5 100 5c-18.8 0-37.2 5.6-52.8 16s-27.8 25.3-35 42.6C5 81 3.2 100.1 6.8 118.5c3.7 18.4 12.7 35.4 26 48.7s30.2 22.3 48.7 26c18.4 3.7 37.5 1.8 54.9-5.4s32.2-19.4 42.6-35c10.4-15.6 16-34 16-52.8 0-25.2-10-49.4-27.8-67.2zM100 174.5c-41.1 0-74.5-33.3-74.5-74.5S58.9 25.5 100 25.5s74.5 33.3 74.5 74.5-33.4 74.5-74.5 74.5z"/><circle id="Oval-Copy" cx="100" cy="100" r="60" fill="#1e1a31" fill-rule="evenodd" clip-rule="evenodd"/><path d="M92.9 96.1h-9.2c-4.2 0-7.5-3.4-7.5-7.6s3.3-7.6 7.5-7.6h19.7c1.6 0 3-1.3 3-3 0-1.6-1.3-3-3-3H83.6c-7.4 0-13.4 6.1-13.4 13.6s6 13.6 13.4 13.6h9.2c4.2 0 7.5 3.4 7.5 7.6 0 4.2-3.3 7.6-7.5 7.6H73.2c-1.6 0-3 1.3-3 3s1.3 3 3 3h19.7c7.4 0 13.4-6.1 13.4-13.6 0-7.6-6-13.6-13.4-13.6z" class="st2"/><path id="Path-3" fill="#fff" fill-opacity=".5" fill-rule="evenodd" d="M75.5 122.2l-4.7-3.5 30.1-42.6 4.8 3.5-30.2 42.6z" clip-rule="evenodd"/><path id="path-1_1_" d="M111.1 117.5h9.5c1.3 0 2.3-.3 3-.8s1-1.3 1-2.4c0-1.1-.3-1.9-1-2.4s-1.7-.8-3-.8h-9.5v-3.5h9.3c2.3 0 4.2.6 5.4 1.7s1.8 2.8 1.8 5-.6 3.9-1.8 5c-1.3 1.1-3 1.7-5.4 1.7h-9.3v-3.5zm11-15.3c.8-.1 1.5-.4 2-1s.8-1.4.8-2.4c0-.8-.2-1.5-.5-2-.4-.5-.8-.8-1.5-.8-.4 0-.8.1-1.1.4s-.4.7-.6 1.2c-.1.5-.3 1.3-.6 2.4-.2 1.1-.4 2-.8 2.7-.3.8-.8 1.3-1.5 1.8-.6.4-1.5.7-2.5.7-.9 0-1.8-.3-2.6-.8s-1.3-1.3-1.8-2.1c-.4-.9-.6-2-.6-3.1 0-1.2.3-2.3.7-3.2.4-.9 1.1-1.7 1.8-2.3s1.6-.8 2.7-.8v3.4c-.7.1-1.3.4-1.7.9s-.6 1.2-.6 2 .2 1.4.5 1.8c.3.4.8.7 1.4.7.4 0 .8-.1 1-.4.3-.3.4-.7.6-1.2.1-.5.3-1.3.5-2.3.2-1.1.4-2 .8-2.7.3-.7.8-1.3 1.4-1.8.6-.4 1.5-.7 2.5-.7s1.9.3 2.7.8 1.4 1.3 1.9 2.3c.4.9.7 2 .7 3.3 0 1.3-.3 2.5-.7 3.5-.5 1-1.1 1.8-2 2.4s-1.8.9-2.8.9l-.1-3.6zm-11-11.7v-5.6c0-1.6.4-3 1.1-4.3.7-1.3 1.6-2.2 2.9-2.9 1.3-.7 2.7-1 4.3-1 1.6 0 3 .3 4.3 1 1.3.7 2.2 1.6 2.9 2.9.7 1.3 1.1 2.7 1.1 4.3v5.6h-16.6zm13.5-5.7c0-1.5-.5-2.6-1.5-3.4s-2.3-1.2-3.9-1.2-2.9.4-3.9 1.2c-.9.8-1.5 2-1.5 3.4V87h10.5l.3-2.2z" class="st2"/></svg>