<svg xmlns="http://www.w3.org/2000/svg" viewBox="0 0 200 200"><linearGradient id="a" x1="182.6735" x2="30.6759" y1="180.6239" y2="28.6263" gradientTransform="translate(0 2)" gradientUnits="userSpaceOnUse"><stop offset=".1594" stop-color="#003cda"/><stop offset="1" stop-color="#33dfcc"/></linearGradient><path fill="url(#a)" d="M167.2 32.8C149.4 15 125.2 5 100 5c-18.8 0-37.2 5.6-52.8 16s-27.8 25.3-35 42.6C5 81 3.2 100.1 6.8 118.5c3.7 18.4 12.7 35.4 26 48.6s30.2 22.3 48.6 26 37.5 1.8 54.9-5.4 32.2-19.4 42.6-35c10.4-15.6 16-34 16-52.8.1-25.1-9.9-49.3-27.7-67.1zM100 174.5c-41.1 0-74.5-33.4-74.5-74.5S58.9 25.5 100 25.5s74.5 33.4 74.5 74.5-33.4 74.5-74.5 74.5z"/><circle cx="100" cy="100" r="61.2" fill="#f8a608"/><path fill="#fff" d="M135.2 90.1h-7.4C123.7 78.9 113.1 71 100.5 71H75.7v19.1h-8.2v6.4h8.2v7.2h-8.2v6.4h8.2v19h24.8c12.5 0 23.1-7.9 27.2-19h7.5v-6.4h-5.9c.2-1.2.3-2.4.3-3.7 0-1.2-.1-2.4-.2-3.6h5.9v-6.3h-.1zM82.1 77.4h18.4c8.9 0 16.6 5.2 20.3 12.7H82.1V77.4zm18.4 45.3H82.1v-12.6h38.7c-3.7 7.4-11.4 12.6-20.3 12.6zm22.7-22.7c0 1.2-.1 2.5-.3 3.7H82.1v-7.2h40.8c.2 1.1.3 2.3.3 3.5z"/></svg>