<svg xmlns="http://www.w3.org/2000/svg" viewBox="0 0 100 100"><defs><style>.cls-1{isolation:isolate;}.cls-2{fill:#7d7dbe;}.cls-3{fill:#d2cdf5;mix-blend-mode:multiply;}.cls-4{fill:#e69be6;}</style></defs><title>wollo</title><g class="cls-1"><g id="Layer_1" data-name="Layer 1"><circle class="cls-2" cx="50.01" cy="50.01" r="49.99"/><circle class="cls-3" cx="50.01" cy="50.01" r="39.12"/><path class="cls-4" d="M71.65,36.61v18A13.2,13.2,0,0,1,51.87,66a15.38,15.38,0,0,0,4.78-8.26,3.63,3.63,0,0,0,1.79.49,3.67,3.67,0,0,0,3.67-3.67v-18a4.77,4.77,0,0,1,9.54,0ZM50,41.38a4.77,4.77,0,0,0-4.77,4.77v8.44a3.67,3.67,0,0,1-7.34,0h0v-18a4.77,4.77,0,0,0-9.54,0v18a13.21,13.21,0,1,0,26.42,0V46.15A4.77,4.77,0,0,0,50,41.38Z"/></g></g></svg>