<svg xmlns="http://www.w3.org/2000/svg" version="1" viewBox="0 0 200 200"><path fill="#FFA63C" d="M100 195c-52.38 0-95-42.62-95-95S47.62 5 100 5s95 42.62 95 95-42.62 95-95 95zm0-186.08C49.78 8.92 8.92 49.78 8.92 100s40.86 91.08 91.08 91.08 91.08-40.86 91.08-91.08S150.22 8.92 100 8.92z"/><path fill="#FFA63C" d="M55.75 34.5v-3.53c-22.7 14.6-37.76 40.1-37.76 69.03s15.06 54.42 37.76 69.03v-3.53c-21-14.23-34.83-38.28-34.83-65.5s13.83-51.27 34.83-65.5zM100 17.99c-13.57 0-26.39 3.32-37.69 9.19v3.33c11.2-6.1 24.05-9.58 37.69-9.58 12.99 0 25.25 3.14 36.06 8.72v-3.28c-10.89-5.38-23.13-8.38-36.06-8.38zm0 161.09c-13.63 0-26.48-3.48-37.69-9.58v3.33c11.29 5.87 24.11 9.19 37.69 9.19 12.93 0 25.17-3.01 36.06-8.36v-3.29c-10.81 5.56-23.07 8.71-36.06 8.71zm42.62-149.13v3.48c21.91 14.07 36.45 38.66 36.45 66.57s-14.54 52.49-36.45 66.57v3.48c23.6-14.42 39.39-40.43 39.39-70.05s-15.78-55.63-39.39-70.05z"/><path fill="#FFA63C" d="M62.32 128.47v11.11h-6.56v-11.11h6.56m4-4H51.76v19.11H66.32v-19.11zM82.45 117.36v22.22h-6.56v-22.22h6.56m4-4H71.89v30.22H86.45v-30.22zM102.59 103.47v36.11h-6.56v-36.11h6.56m4-4H92.03v44.11H106.59V99.47zM122.72 84.03v55.55h-6.56V84.03h6.56m4-4H112.16v63.55H126.72V80.03zM142.86 59.03v80.54h-6.56V59.03h6.56m4-4H132.3v88.54H146.86V55.03z"/></svg>