<?xml version="1.0" encoding="utf-8"?>
<!-- Generator: Adobe Illustrator 22.1.0, SVG Export Plug-In . SVG Version: 6.00 Build 0)  -->
<svg version="1.0" id="Livello_1" xmlns="http://www.w3.org/2000/svg" xmlns:xlink="http://www.w3.org/1999/xlink" x="0px" y="0px"
	 viewBox="0 0 200 200" style="enable-background:new 0 0 200 200;" xml:space="preserve">
<style type="text/css">
	.st0{fill:url(#SVGID_1_);}
	.st1{fill:url(#SVGID_2_);}
	.st2{fill:url(#SVGID_3_);}
	.st3{fill:#AA1442;}
	.st4{fill:#DC6A9C;}
	.st5{fill:url(#SVGID_4_);}
	.st6{fill:url(#SVGID_5_);}
	.st7{fill:url(#SVGID_6_);}
	.st8{fill:#C01D4A;}
</style>
<linearGradient id="SVGID_1_" gradientUnits="userSpaceOnUse" x1="21.3471" y1="111.4206" x2="133.5724" y2="-0.8048">
	<stop  offset="0" style="stop-color:#BF1F82"/>
	<stop  offset="6.129757e-02" style="stop-color:#CA4597"/>
	<stop  offset="0.1438" style="stop-color:#D772B1"/>
	<stop  offset="0.2175" style="stop-color:#E093C3"/>
	<stop  offset="0.2789" style="stop-color:#E6A7CE"/>
	<stop  offset="0.3205" style="stop-color:#E8AED2"/>
	<stop  offset="0.4085" style="stop-color:#E9B2D4"/>
	<stop  offset="0.4929" style="stop-color:#ECBDDB"/>
	<stop  offset="0.576" style="stop-color:#F2D1E5"/>
	<stop  offset="0.6577" style="stop-color:#FAECF4"/>
	<stop  offset="0.7051" style="stop-color:#FFFFFF"/>
	<stop  offset="0.7112" style="stop-color:#FFFEFE"/>
	<stop  offset="0.8999" style="stop-color:#F8D9E7"/>
	<stop  offset="1" style="stop-color:#F6CBDE"/>
</linearGradient>
<path class="st0" d="M7.1,97.2C6,96.6,19,58.5,57.1,55.7c35.4-2.6,31.7,31.9,31.7,31.9s19.3-77.6,80.1-52.4
	c0,0-33.1-47.1-103.4-23.8S7.1,97.2,7.1,97.2z"/>
<linearGradient id="SVGID_2_" gradientUnits="userSpaceOnUse" x1="136.013" y1="68.7736" x2="108.2783" y2="116.8116">
	<stop  offset="0" style="stop-color:#BF1F82"/>
	<stop  offset="5.035576e-02" style="stop-color:#C83F94"/>
	<stop  offset="0.1236" style="stop-color:#D366AA"/>
	<stop  offset="0.1959" style="stop-color:#DC86BB"/>
	<stop  offset="0.2658" style="stop-color:#E39CC8"/>
	<stop  offset="0.3325" style="stop-color:#E7A9CF"/>
	<stop  offset="0.3923" style="stop-color:#E8AED2"/>
	<stop  offset="0.4183" style="stop-color:#EBB5D5"/>
	<stop  offset="0.5187" style="stop-color:#F4C9DD"/>
	<stop  offset="0.6328" style="stop-color:#FAD7E3"/>
	<stop  offset="0.7711" style="stop-color:#FEDFE6"/>
	<stop  offset="1" style="stop-color:#FFE2E7"/>
</linearGradient>
<path class="st1" d="M86,103.9l27-48.5c0,0-4.8,37.2,33.6,48.5H86z"/>
<linearGradient id="SVGID_3_" gradientUnits="userSpaceOnUse" x1="61.0547" y1="189.1477" x2="167.3973" y2="82.8051">
	<stop  offset="0" style="stop-color:#AA1442"/>
	<stop  offset="0.1345" style="stop-color:#AB1445"/>
	<stop  offset="0.2205" style="stop-color:#AE164D"/>
	<stop  offset="0.2928" style="stop-color:#B3185C"/>
	<stop  offset="0.3573" style="stop-color:#B91C71"/>
	<stop  offset="0.3974" style="stop-color:#BF1F82"/>
	<stop  offset="0.4257" style="stop-color:#C52F88"/>
	<stop  offset="0.4761" style="stop-color:#CE458F"/>
	<stop  offset="0.5357" style="stop-color:#D45695"/>
	<stop  offset="0.6094" style="stop-color:#D96199"/>
	<stop  offset="0.7129" style="stop-color:#DB689B"/>
	<stop  offset="1" style="stop-color:#DC6A9C"/>
</linearGradient>
<path class="st2" d="M21.9,148.9c8,8.8,30.2,28.3,70.5,28.5c52.1,0.3,63.3-44.8,63.3-44.8L95.5,109h98.1
	C196.5,140.7,114.2,259.4,21.9,148.9z"/>
<polygon class="st3" points="106,93 146.5,103.9 86,103.9 "/>
<polygon class="st4" points="106,93 112.9,55.4 86,103.9 "/>
<linearGradient id="SVGID_4_" gradientUnits="userSpaceOnUse" x1="51.9891" y1="179.0223" x2="127.1191" y2="103.8923">
	<stop  offset="0" style="stop-color:#F8D6E6"/>
	<stop  offset="0.2308" style="stop-color:#E4A3BB"/>
	<stop  offset="0.6027" style="stop-color:#C5577A"/>
	<stop  offset="0.8684" style="stop-color:#B12652"/>
	<stop  offset="1" style="stop-color:#AA1442"/>
</linearGradient>
<path class="st5" d="M95.5,109c0,0,21.6,31.4-7.9,47.4s-69.2-11.8-69.2-11.8s21.9,32.5,74,32.8c52.1,0.3,63.3-44.8,63.3-44.8
	L95.5,109z"/>
<linearGradient id="SVGID_5_" gradientUnits="userSpaceOnUse" x1="95.489" y1="120.7402" x2="193.5659" y2="120.7402">
	<stop  offset="0" style="stop-color:#BF1F82"/>
	<stop  offset="5.897301e-02" style="stop-color:#C02485"/>
	<stop  offset="0.1259" style="stop-color:#C4318C"/>
	<stop  offset="0.1966" style="stop-color:#CB4899"/>
	<stop  offset="0.27" style="stop-color:#D468AB"/>
	<stop  offset="0.3447" style="stop-color:#DF90C1"/>
	<stop  offset="0.3923" style="stop-color:#E8AED2"/>
	<stop  offset="0.5645" style="stop-color:#EAB2D4"/>
	<stop  offset="0.7297" style="stop-color:#EFBDD8"/>
	<stop  offset="0.8918" style="stop-color:#F7D1E0"/>
	<stop  offset="1" style="stop-color:#FFE2E7"/>
</linearGradient>
<polygon class="st6" points="193.6,109 155.7,132.5 95.5,109 "/>
<linearGradient id="SVGID_6_" gradientUnits="userSpaceOnUse" x1="88.7384" y1="55.6134" x2="168.9066" y2="55.6134">
	<stop  offset="0" style="stop-color:#FFE2E7"/>
	<stop  offset="2.550713e-02" style="stop-color:#F8D3E1"/>
	<stop  offset="6.697488e-02" style="stop-color:#F1C2DA"/>
	<stop  offset="0.1186" style="stop-color:#ECB7D5"/>
	<stop  offset="0.1911" style="stop-color:#E9B0D3"/>
	<stop  offset="0.3923" style="stop-color:#E8AED2"/>
</linearGradient>
<path class="st7" d="M88.8,87.7c0,0,19.9-75.9,80.1-52.4C168.1,34,87.1-12.1,88.8,87.7z"/>
<path class="st8" d="M7.1,97.2c0,0,15.8-92.3,85-42.1l-3.4,32.6c-0.6,2.2,5.6-33.9-31.7-31.9C18,57.8,7.1,99.6,7.1,97.2z"/>
</svg>
