<?xml version="1.0" encoding="utf-8"?>
<!-- Generator: Adobe Illustrator 22.1.0, SVG Export Plug-In . SVG Version: 6.00 Build 0)  -->
<svg version="1.1" id="Layer_1" xmlns="http://www.w3.org/2000/svg" xmlns:xlink="http://www.w3.org/1999/xlink" x="0px" y="0px"
	 viewBox="0 0 200 200" style="enable-background:new 0 0 200 200;" xml:space="preserve">
<style type="text/css">
	.st0{fill:#9290B0;}
	.st1{fill:#A2EEE3;}
	.st2{fill:#46DDC8;}
	.st3{fill:#262261;}
</style>
<title>Quant-Logo-RGB-white</title>
<polygon class="st0" points="141.1,76.3 141.1,76.3 141.1,123.7 182.3,100 182.3,100 182.3,52.5 "/>
<polygon class="st1" points="182.3,147.5 182.3,147.5 141.1,123.7 141.1,171.2 141.1,171.2 182.3,195 182.3,147.5 "/>
<path class="st2" d="M100,52.5L100,52.5V5L17.7,52.5l41.1,23.8l0,0L100,52.5z"/>
<polygon class="st3" points="100,147.5 58.9,123.7 58.9,123.7 17.7,147.5 58.9,171.2 58.9,171.2 58.9,171.2 58.9,171.2 100,195 
	100,147.5 100,147.5 "/>
<polygon class="st0" points="17.7,52.5 17.7,100 17.7,100 17.7,147.5 58.9,123.7 58.9,123.7 58.9,76.3 "/>
<polygon class="st2" points="141.1,123.7 100,147.5 100,147.5 100,195 141.1,171.2 141.1,171.2 "/>
<polygon class="st3" points="141.1,76.3 182.3,52.5 141.1,28.8 141.1,28.8 141.1,28.8 141.1,28.8 141.1,28.8 141.1,28.8 100,5 
	100,52.5 100,52.5 141.1,76.3 141.1,76.3 141.1,76.3 141.1,76.3 "/>
</svg>
