<svg xmlns="http://www.w3.org/2000/svg" viewBox="0 0 255.1 255.1"><path d="M117.3 136.8c0-3.9-3.2-7-7-7h-51V99.2l19.1 1.9-23.5-51.8-33.1 46.3 20 1.9v41.4c0 3.9 3.2 7 7 7h44.3L82 162.4c-2.5 3.7-1.5 8.7 2.2 11.2l1 .7c3.7 2.5 8.7 1.5 11.2-2.2l19.3-28.5c.2-.3.4-.6.5-.9.7-1.1 1.1-2.3 1.1-3.7v-2.2z"/><path d="M131.1 141c-3.3-1.9-7.6-.8-9.6 2.6L96 187.8l-26.5-15.3 11.2-15.6-56.6-5.5 23.5 51.8 11.7-16.3 35.9 20.7c3.3 1.9 7.6.8 9.6-2.6l22.2-38.4 8.7 17.8c1.9 4 6.8 5.7 10.8 3.7l1.1-.5c4-1.9 5.7-6.8 3.7-10.8l-15-31-.6-.9c-.6-1.1-1.5-2.1-2.7-2.8l-1.9-1.1z"/><path d="M141.2 131.5c-3.3 1.9-4.5 6.2-2.6 9.6l25.5 44.2-26.5 15.3-7.9-17.5-33.1 46.3 56.6 5.5-8.3-18.3 35.9-20.7c3.3-1.9 4.5-6.2 2.6-9.6l-22.1-38.4 19.8 1.4c4.4.3 8.3-3.1 8.6-7.5l.1-1.2c.3-4.4-3.1-8.3-7.5-8.6l-34.3-2.5h-1.1c-1.3-.1-2.6.2-3.7.9l-2 1.1z"/><path d="M137.8 118c0 3.8 3.1 7 7 7h51v30.6l-19.1-1.9 23.5 51.8 33.1-46.3-20-1.9v-41.4c0-3.8-3.1-7-7-7H162l11.1-16.4c2.5-3.7 1.5-8.7-2.2-11.2l-1-.7c-3.7-2.5-8.7-1.5-11.2 2.2l-19.3 28.5c-.2.3-.4.6-.5.9-.7 1.1-1.1 2.3-1.1 3.7v2.1z"/><path d="M123.8 113.8c3.3 1.9 7.6.8 9.6-2.6L158.9 67l26.5 15.3L174.2 98l56.6 5.5-23.5-51.8L195.6 68l-35.9-20.7c-3.3-1.9-7.6-.8-9.6 2.6L128 88.3l-8.7-17.8c-1.9-4-6.8-5.7-10.8-3.7l-1.1.5c-4 1.9-5.7 6.8-3.7 10.8l15 31c.2.3.3.6.6.9.6 1.1 1.5 2.1 2.7 2.8l1.8 1z"/><path d="M114.1 123.6c3.3-1.9 4.5-6.2 2.6-9.6L91.2 69.9l26.5-15.3 7.9 17.5 33.1-46.3-56.7-5.4 8.3 18.3-35.8 20.7c-3.3 1.9-4.5 6.2-2.6 9.6l22.2 38.4-19.8-1.4c-4.4-.3-8.3 3.1-8.7 7.5l-.1 1.2c-.3 4.4 3.1 8.3 7.5 8.7l34.3 2.5h1.1c1.3.1 2.6-.2 3.7-.9l2-1.4z"/></svg>