<svg xmlns="http://www.w3.org/2000/svg" id="Livello_1" x="0" y="0" version="1.1" viewBox="0 0 200 197.6" xml:space="preserve"><style>.st1{fill:#fff}</style><linearGradient id="SVGID_1_" x1="32.1683" x2="166.5186" y1="167.8317" y2="33.4814" gradientUnits="userSpaceOnUse"><stop offset="0" stop-color="#ce2a6d"/><stop offset=".29" stop-color="#e12b75"/><stop offset=".72" stop-color="#f72d7e"/><stop offset="1" stop-color="#ff2d81"/></linearGradient><circle cx="100" cy="100" r="95" fill="url(#SVGID_1_)"/><path d="M63 103v-8h77v8H63z" class="st1"/><path d="M78 62l8-3 9 25-26 8-2-7 13.5-4.5s-4-3-11-3-22 7-22 22 13 22 22 22 17-4 22-15h10s-9 24-32 24-30-22-30-31 6-29 30-29c0 0 8 0 13 3L78 62zm26 28.5h9.2C116.4 86.2 123.7 78 133 78c12.4 0 22 11.8 22 22s-8.7 22-20 22c-6.5 0-10.9-2.5-13.5-4.7L136 115l-2-7-26 4 6 26 7-2-2.4-10.9c3.8 2.6 9.2 4.9 16.4 4.9 16.5 0 28-15.8 28-30s-12.8-30-30-30c-17.1 0-28.5 19.8-29 20.5z" class="st1"/></svg>