<svg xmlns="http://www.w3.org/2000/svg" id="Livello_1" version="1" viewBox="0 0 200 200"><style>.st0{fill:#20d8ea}</style><path d="M100 195l-82.3-47.5v-95L100 5l82.3 47.5v95L100 195zm-75.3-51.5L100 187l75.3-43.5v-87L100 13.1 24.7 56.5v87z" class="st0"/><path d="M127.1 56.2V45.7H93.9v70.5c-9.5 2-16.6 10.5-16.6 20.5 0 11.6 9.4 21 21 21s21-9.4 21-21c0-9.5-6.3-17.5-14.9-20.1V73.7h15.8V63.2h-15.8v-7h22.7zm-11.3 80.6c0 9.7-7.9 17.5-17.5 17.5s-17.5-7.9-17.5-17.5 7.9-17.5 17.5-17.5 17.5 7.8 17.5 17.5zm.8-70.1v3.5h-15.8v45.5h-3.5V49.2h26.3v3.5h-22.8v14h15.8z" class="st0"/><path d="M86 136.8c0 6.8 5.5 12.3 12.3 12.3s12.3-5.5 12.3-12.3c0-6.8-5.5-12.3-12.3-12.3S86 130 86 136.8zm21 0c0 4.8-3.9 8.8-8.8 8.8s-8.8-3.9-8.8-8.8c0-4.8 3.9-8.8 8.8-8.8s8.8 3.9 8.8 8.8z" class="st0"/></svg>