<?xml version="1.0" encoding="utf-8"?>
<!-- Generator: Adobe Illustrator 22.1.0, SVG Export Plug-In . SVG Version: 6.00 Build 0)  -->
<svg version="1.0" id="Livello_1" xmlns="http://www.w3.org/2000/svg" xmlns:xlink="http://www.w3.org/1999/xlink" x="0px" y="0px"
	 viewBox="0 0 200 200" style="enable-background:new 0 0 200 200;" xml:space="preserve">
<style type="text/css">
	.st0{fill:#004552;}
	.st1{fill:#00464C;}
	.st2{fill:#13BFF2;}
	.st3{fill:#FFFFFF;}
</style>
<path class="st0" d="M100,34.9c-35.9,0-65.1,29.1-65.1,65.1s29.1,65.1,65.1,65.1s65.1-29.1,65.1-65.1S135.9,34.9,100,34.9z M100,154
	c-29.9,0-54.1-24.2-54.1-54.1S70.1,45.8,100,45.8S154,70,154,99.9S129.8,154,100,154z"/>
<path class="st1" d="M149.3,16.1l-5.8,10.2c-12.7-7.5-27.6-11.9-43.4-11.9c-15,0-29.2,3.9-41.5,10.7L52.6,15
	c14-7.8,30.1-12.3,47.3-12.3C117.9,2.7,134.8,7.6,149.3,16.1z"/>
<path class="st2" d="M193.3,73L182,75.8c-3.3-11.4-9-21.8-16.4-30.6l9-7.4C183.1,47.9,189.6,59.9,193.3,73z"/>
<path class="st1" d="M197.1,100c0,29.7-13.4,56.3-34.5,74.1l-7.6-8.6c18.7-15.7,30.5-39.2,30.5-65.5H197.1z"/>
<path class="st1" d="M144,186.5c-13.2,6.7-28.2,10.5-44,10.5c-23.7,0-45.4-8.5-62.3-22.6l7.1-9.1c14.9,12.6,34.2,20.2,55.2,20.2
	c13.8,0,26.8-3.3,38.4-9.1h0L144,186.5z"/>
<path class="st2" d="M14.5,100c0,16.8,4.8,32.5,13.2,45.7l-9.4,6.8l-0.1,0c0,0-2.8-4-6-10.8c0-0.1-0.1-0.1-0.1-0.2
	c-0.2-0.5-0.4-1-0.7-1.4c0-0.1-0.1-0.1-0.1-0.2c-0.2-0.5-0.5-1.1-0.7-1.6c0-0.1-0.1-0.2-0.1-0.3c-0.1-0.3-0.3-0.6-0.4-0.9
	c-0.5-1.3-1-2.5-1.5-3.8c-3.8-10.4-5.9-21.7-5.9-33.4c0-27,11-51.3,28.7-68.9l9,7.6C24.4,54.1,14.5,75.9,14.5,100z"/>
<path class="st3" d="M12.2,141.7c3.2,6.9,6,10.8,6,10.8l0.1,0C16,149,14,145.4,12.2,141.7z"/>
</svg>
