<svg xmlns="http://www.w3.org/2000/svg" id="Livello_1" viewBox="0 0 200 200"><style>.st0{fill:#1d1d1b}</style><path d="M120.1 128.3l-5.6-23.9h-10.6l-5.6 23.9-18.8-67.4-.1-.4H68.8l-6.7 23.9-5.6-23.9H45.9l-5.6 23.9-6.7-23.9h-9.4l9.7 34.8.1.4h11.9l5.3-19.6 5.3 19.6h11.9l.1-.4 5.6-20 17.8 63.9.1.4h11.9l5.3-19.5 5.3 19.5h11.9l.1-.4 9.7-34.8h-9.4zM21.2 131.1c-2.7 0-4.9-.8-6.2-2.2V115c1.4-1.5 3.5-2.5 6.2-2.5 4.9 0 8.4 3.8 8.4 9.2 0 5.6-3.4 9.4-8.4 9.4m2.9-27.4c-3.5 0-6.5 1.1-9.1 3.1v-2.3H5v46.6h10v-12.8c2.2 1 4.6 1.5 7.3 1.5 10.5 0 17.7-7.3 17.7-18.1 0-10.6-6.4-18-15.9-18" class="st0"/><path d="M62.8 131.3c-4.8 0-8.1-3.8-8.1-9.3 0-5.5 3.3-9.3 8.1-9.3s8.1 3.8 8.1 9.3c0 5.5-3.3 9.3-8.1 9.3m0-27.5c-11.1 0-18.6 7.4-18.6 18.2 0 10.8 7.5 18.2 18.6 18.2 11.1 0 18.6-7.4 18.6-18.2 0-10.8-7.5-18.2-18.6-18.2M194.7 103.8c-3 0-5.7 1.4-8 3.8v-3.1h-10.2v35.3h10.2v-23.1c1.5-2.5 4.1-4.2 7.2-4.2h1v-8.7h-.2M148.6 118.3c.8-3.5 3.2-5.8 6.8-5.8 3.6 0 5.4 2.3 6.1 5.8h-12.9zm6.6-14.5c-10.5 0-17.4 7.4-17.4 18 0 11.2 7.5 18.5 18.6 18.5 5.7 0 10.2-1.9 13.5-5.4l-6-6.1c-1.5 1.6-3.8 2.6-6.7 2.6-4.8 0-7.6-2.4-8.6-6.2h23c0-13.5-5.7-21.4-16.4-21.4M108.1 68.6c3.6 0 5.4 2.3 6.1 5.8h-13c.8-3.5 3.2-5.8 6.9-5.8m1 27.8c5.7 0 10.2-1.9 13.5-5.3l-6-6.1c-1.5 1.6-3.8 2.6-6.7 2.6-4.8 0-7.6-2.4-8.6-6.2h23c0-13.4-5.7-21.3-16.4-21.3-10.5 0-17.4 7.4-17.4 18 0 11 7.5 18.3 18.6 18.3" class="st0"/></svg>