<?xml version="1.0" encoding="utf-8"?>
<!-- Generator: Adobe Illustrator 16.0.0, SVG Export Plug-In . SVG Version: 6.00 Build 0)  -->
<!DOCTYPE svg PUBLIC "-//W3C//DTD SVG 1.0//EN" "http://www.w3.org/TR/2001/REC-SVG-20010904/DTD/svg10.dtd">
<svg version="1.0" id="Livello_1" xmlns="http://www.w3.org/2000/svg" xmlns:xlink="http://www.w3.org/1999/xlink" x="0px" y="0px"
	 width="311.218px" height="179.499px" viewBox="0 0 311.218 179.499" enable-background="new 0 0 311.218 179.499"
	 xml:space="preserve">
<polygon fill="#1D1D1B" points="179.469,122.222 172.82,93.981 166.524,93.981 160.227,93.981 153.576,122.222 131.348,42.474 
	131.229,41.97 129.781,41.97 123.693,41.97 118.602,41.97 110.73,70.209 104.083,41.97 97.785,41.97 91.488,41.97 84.839,70.209 
	76.97,41.97 65.79,41.97 77.266,83.154 77.385,83.656 91.488,83.656 97.785,60.462 104.083,83.656 118.186,83.656 118.302,83.154 
	124.904,59.468 146.006,135.169 146.122,135.67 160.227,135.67 166.524,112.477 172.82,135.67 186.923,135.67 187.041,135.169 
	198.518,93.981 187.338,93.981 "/>
<g>
	<defs>
		<rect id="SVGID_1_" width="311.218" height="179.499"/>
	</defs>
	<clipPath id="SVGID_2_">
		<use xlink:href="#SVGID_1_"  overflow="visible"/>
	</clipPath>
	<path clip-path="url(#SVGID_2_)" fill="#1D1D1B" d="M165.182,51.557c4.318,0,6.43,2.756,7.255,6.89h-15.341
		C158.015,54.312,160.863,51.557,165.182,51.557 M166.375,84.44c6.706,0,12.035-2.294,15.984-6.336l-7.074-7.257
		c-1.746,1.93-4.5,3.031-7.994,3.031c-5.692,0-9-2.849-10.195-7.349h27.285c0-15.892-6.706-25.261-19.476-25.261
		c-12.403,0-20.577,8.726-20.577,21.312C144.328,75.809,153.238,84.44,166.375,84.44"/>
	<path clip-path="url(#SVGID_2_)" fill="#1D1D1B" d="M213.137,110.417c0.919-4.134,3.768-6.89,8.083-6.89
		c4.318,0,6.43,2.756,7.257,6.89H213.137z M220.943,93.237c-12.401,0-20.575,8.726-20.575,21.313c0,13.229,8.909,21.86,22.047,21.86
		c6.704,0,12.033-2.292,15.984-6.338l-7.074-7.255c-1.745,1.928-4.5,3.031-7.993,3.031c-5.695,0-9.003-2.847-10.195-7.349h27.283
		C240.42,102.608,233.714,93.237,220.943,93.237"/>
	<path clip-path="url(#SVGID_2_)" fill="#1D1D1B" d="M267.834,93.263c-3.529,0-6.778,1.672-9.473,4.458v-3.717h-12.073v41.794
		h12.073v-27.306c1.764-2.971,4.827-5.012,8.546-5.012c0.409,0,0.818,0.013,1.224,0.042V93.269
		C268.032,93.265,267.938,93.263,267.834,93.263"/>
	<path clip-path="url(#SVGID_2_)" fill="#1D1D1B" d="M111.575,125.822c-5.684,0-9.625-4.492-9.625-10.998
		c0-6.512,3.941-11.002,9.625-11.002c5.685,0,9.625,4.49,9.625,11.002C121.2,121.33,117.26,125.822,111.575,125.822 M111.575,93.282
		c-13.11,0-22.002,8.708-22.002,21.542c0,12.832,8.892,21.54,22.002,21.54c13.106,0,22-8.708,22-21.54
		C133.575,101.99,124.681,93.282,111.575,93.282"/>
	<path clip-path="url(#SVGID_2_)" fill="#1D1D1B" d="M62.328,125.537c-3.191,0-5.748-0.915-7.387-2.556v-16.412
		c1.639-1.817,4.196-2.914,7.387-2.914c5.835,0,9.937,4.472,9.937,10.938C72.265,121.067,68.163,125.537,62.328,125.537
		 M65.701,93.167c-4.106,0-7.751,1.277-10.76,3.646V94.08H43.087v55.229H54.94v-15.113c2.554,1.188,5.471,1.825,8.664,1.825
		c12.492,0,20.968-8.662,20.968-21.428C84.573,101.833,77.005,93.167,65.701,93.167"/>
</g>
</svg>
