<?xml version="1.0" encoding="utf-8"?>
<!-- Generator: Adobe Illustrator 16.0.0, SVG Export Plug-In . SVG Version: 6.00 Build 0)  -->
<!DOCTYPE svg PUBLIC "-//W3C//DTD SVG 1.0//EN" "http://www.w3.org/TR/2001/REC-SVG-20010904/DTD/svg10.dtd">
<svg version="1.0" id="Layer_1" xmlns="http://www.w3.org/2000/svg" xmlns:xlink="http://www.w3.org/1999/xlink" x="0px" y="0px"
	 width="200px" height="200px" viewBox="0 0 200 200" enable-background="new 0 0 200 200" xml:space="preserve">
<g>
	<path fill="#11364C" d="M140.344,32.287c-0.354,0.527-1.053,0.703-1.759,0.352c-11.774-7.031-25.132-10.722-39.017-10.722
		c-12.656,0-25.135,3.163-36.03,8.964c-0.528,0.351-1.407,0.176-1.758-0.527l-4.219-7.557c-0.351-0.704-0.175-1.407,0.528-1.759
		c12.654-6.855,27.066-10.369,41.479-10.369c15.816,0,31.282,4.217,44.818,12.302c0.524,0.351,0.878,1.23,0.353,1.758
		L140.344,32.287z"/>
	<path fill="#0EC0EB" d="M174.089,76.753c-2.811-9.667-7.558-18.63-14.061-26.715c-0.35-0.527-0.35-1.406,0.174-1.757l5.273-4.393
		c0.53-0.529,1.406-0.352,1.759,0.174c7.205,8.964,12.478,18.983,15.818,30.055c0.173,0.703-0.176,1.406-0.88,1.581l-6.505,1.759
		C174.969,77.808,174.263,77.457,174.089,76.753z"/>
	<path fill="#11364C" d="M155.635,164.808l-5.627-6.68c-0.523-0.527-0.351-1.23,0.177-1.757
		c16.347-14.236,25.837-34.799,26.19-56.418c0-0.704,0.524-1.231,1.23-1.231h8.609c0.705,0,1.231,0.527,1.231,1.231
		c-0.354,24.957-11.246,48.511-30.055,64.855C156.864,165.335,156.162,165.335,155.635,164.808z"/>
	<path fill="#11364C" d="M99.743,186.602c-19.861,0-39.369-6.856-54.834-19.334c-0.529-0.526-0.704-1.23-0.177-1.76l5.448-6.677
		c0.528-0.526,1.23-0.526,1.758-0.173c13.533,10.717,30.406,16.697,47.805,16.697c11.951,0,23.551-2.638,34.098-7.911
		c0.703-0.354,1.406,0,1.756,0.526l4.044,7.734c0.35,0.702,0,1.403-0.526,1.757C126.811,183.261,113.276,186.602,99.743,186.602z"/>
	<path fill="#0EC0EB" d="M28.211,145.826c-0.527,0.352-1.407,0.175-1.759-0.354C17.489,131.589,12.92,115.42,12.92,98.722
		c0-23.375,9.139-45.17,25.484-61.515c0.526-0.527,1.407-0.527,1.758,0l4.746,4.921c0.526,0.529,0.526,1.23,0,1.759
		C30.319,58.474,22.235,77.984,22.235,98.722c0,14.764,4.217,29.178,12.127,41.655c0.352,0.527,0.175,1.406-0.352,1.758
		L28.211,145.826z"/>
	<path fill="#11364C" d="M99.743,155.844c-31.459,0-57.12-25.661-57.12-57.122c0-31.459,25.66-57.12,57.12-57.12
		c31.461,0,57.122,25.661,57.122,57.12C156.864,130.183,131.204,155.844,99.743,155.844z M99.743,52.674
		c-25.309,0-46.048,20.564-46.048,46.048c0,25.311,20.564,46.048,46.048,46.048c25.31,0,46.048-20.561,46.048-46.048
		C145.791,73.413,125.053,52.674,99.743,52.674z"/>
</g>
</svg>
