<?xml version="1.0" encoding="utf-8"?>
<!-- Generator: Adobe Illustrator 22.1.0, SVG Export Plug-In . SVG Version: 6.00 Build 0)  -->
<svg version="1.1" id="Livello_1" xmlns="http://www.w3.org/2000/svg" xmlns:xlink="http://www.w3.org/1999/xlink" x="0px" y="0px"
	 viewBox="0 0 200 200" style="enable-background:new 0 0 200 200;" xml:space="preserve">
<style type="text/css">
	.st0{fill:url(#SVGID_1_);}
	.st1{fill:url(#XMLID_2_);}
	.st2{fill:#6D6C6C;}
	.st3{fill:#41413F;}
</style>
<linearGradient id="SVGID_1_" gradientUnits="userSpaceOnUse" x1="-2052.3435" y1="2289.6443" x2="755.4753" y2="-665.9844">
	<stop  offset="0.1841" style="stop-color:#653C0E"/>
	<stop  offset="0.3198" style="stop-color:#9E6315"/>
	<stop  offset="0.3869" style="stop-color:#DB9326"/>
	<stop  offset="0.4337" style="stop-color:#DB9326"/>
	<stop  offset="0.5023" style="stop-color:#A87517"/>
	<stop  offset="0.624" style="stop-color:#A87517"/>
	<stop  offset="0.7098" style="stop-color:#F6CA63"/>
	<stop  offset="0.7613" style="stop-color:#F6CA63"/>
	<stop  offset="0.8456" style="stop-color:#A67C20"/>
	<stop  offset="1" style="stop-color:#735418"/>
</linearGradient>
<path class="st0" d="M175.5,2.9c-1.1-0.4-2.5-0.2-3.2,0.6L100.4,77L28.4,3.5c-0.9-1-2.1-1.2-3.4-0.8c-1.1,0.4-1.9,1.6-1.9,2.7v33.2
	c0,2.9,0.9,5.6,3,7.8L74,95.2c2.1,1.9,4.7,3.1,7.6,3.1H83c0.1,0.1,0.2,0.1,0.3,0.2h36.1c2.7,0,4.9-1,6.8-2.9l48.4-49.5
	c1.9-1.9,2.8-4.3,2.8-7V5.6C177.4,4.4,176.7,3.3,175.5,2.9z M27.9,44.8c-1.5-1.6-2.5-3.9-2.5-6.2V5.4c0-0.6,0.6-0.8,0.6-0.8
	s0.6-0.2,0.9,0.2l72,73.6L81.6,96.2c-2.2,0-4.2-0.8-5.9-2.5L27.9,44.8z M84.4,96.2l89.4-91.4c0.4-0.4,0.8-0.2,0.9-0.2
	c0.2,0,0.6,0.2,0.6,1v33.6c0,2.1-0.8,4.1-2.3,5.4l-48.4,49.5c-1.5,1.6-3.4,2.3-5.3,2.3H96.5"/>
<linearGradient id="XMLID_2_" gradientUnits="userSpaceOnUse" x1="70.7191" y1="137.6743" x2="87.9199" y2="108.8835" gradientTransform="matrix(42 0 0 -26 -3464.5 3141.4995)">
	<stop  offset="0.1841" style="stop-color:#653C0E"/>
	<stop  offset="0.3198" style="stop-color:#9E6315"/>
	<stop  offset="0.3869" style="stop-color:#DB9326"/>
	<stop  offset="0.4337" style="stop-color:#DB9326"/>
	<stop  offset="0.5023" style="stop-color:#A87517"/>
	<stop  offset="0.624" style="stop-color:#A87517"/>
	<stop  offset="0.7098" style="stop-color:#F6CA63"/>
	<stop  offset="0.7613" style="stop-color:#F6CA63"/>
	<stop  offset="0.8456" style="stop-color:#A67C20"/>
	<stop  offset="1" style="stop-color:#735418"/>
</linearGradient>
<path id="XMLID_8_" class="st1" d="M124.3,105.9l48,48.7c1.9,1.9,2.8,4.2,2.8,6.9v33.2c0,1.1-0.8,2.3-1.7,2.7
	c-1.1,0.4-2.3,0.2-3.2-0.6l-70.2-71.2l15.2-15.5c0.4-0.4,0.4-1,0-1.3s-0.9-0.4-1.3,0l-15.2,15.5l0,0l-71.3,72.3
	c-0.9,0.8-2.1,1.1-3.2,0.6c-1.1-0.6-1.7-1.5-1.7-2.7v-32.6c0-2.9,1.1-5.5,3-7.6L73,106.1c2.1-2.1,4.7-3.1,7.5-3.1h20.7h15.6h0.8
	C120.2,103,122.5,104,124.3,105.9z"/>
<path class="st2" d="M27.9,44.8c-1.5-1.6-2.5-3.9-2.5-6.2V5.4c0-0.6,0.6-0.8,0.6-0.8s0.6-0.2,0.9,0.2l72,73.6L81.6,96.2
	c-2.2,0-4.2-0.8-5.9-2.5L27.9,44.8z"/>
<path class="st3" d="M84.4,96.2l89.4-91.4c0.4-0.4,0.8-0.2,0.9-0.2c0.2,0,0.6,0.2,0.6,1v33.6c0,2.1-0.8,4.1-2.3,5.4l-48.4,49.5
	c-1.5,1.6-3.4,2.3-5.3,2.3H96.5"/>
</svg>
