<svg xmlns="http://www.w3.org/2000/svg" id="Livello_1" x="0" y="0" version="1.1" viewBox="0 0 200 200" xml:space="preserve"><style>.st1{fill:#002868}.st2{fill:#fff}</style><linearGradient id="SVGID_1_" x1=".2525" x2=".0363" y1="199.9875" y2="199.7326" gradientTransform="matrix(560.0001 0 0 -560.001 20.0009 112020.1953)" gradientUnits="userSpaceOnUse"><stop offset="0" stop-color="#b6509e"/><stop offset="1" stop-color="#2ebac6"/></linearGradient><path fill="url(#SVGID_1_)" d="M100 195c-66.5 1.3-114.3-71.3-87.3-132.2 32.1-77 142.6-77 174.7 0 26.9 60.9-20.9 133.5-87.4 132.2zm0-180.2c-59-1.4-102.2 64-78 118.1 28.2 68.6 127.7 68.6 156 0 24.2-54-19-119.5-78-118.1z"/><path d="M100 172.9c-40 0-72.8-32.9-72.8-73.1 0-40.2 32.8-73.1 72.8-73.1s72.8 32.9 72.8 73.1c0 40.2-32.8 73.1-72.8 73.1z" class="st1"/><path d="M136.7 143.7H63.3c-3.9 0-7-3.1-7-7V63c0-3.9 3.1-7 7-7h73.4c3.9 0 7 3.1 7 7v73.7c0 3.8-3.2 6.9-7 7z" class="st2"/><path d="M73.4 134.8c-.2 0-.4-.2-.4-.4v-11.8c0-.2-.2-.4-.4-.4h-4.1c-.2 0-.4-.2-.4-.4v-2.3c0-.2.2-.4.4-.4h12.8c.2 0 .4.2.4.4v2.3c0 .2-.2.4-.4.4H77c-.2 0-.4.2-.4.4v11.8c0 .2-.2.4-.4.4h-2.8zM94.3 119.5c0-.2.2-.4.4-.4h2.8c.2 0 .4.2.4.4v8c0 4.8-2.7 7.5-6.9 7.5s-6.9-2.8-6.9-7.5v-8c0-.2.2-.4.4-.4h2.8c.2 0 .4.2.4.4v8.2c0 2.3 1.2 4 3.3 4 2.1 0 3.3-1.7 3.3-4v-8.2zM110.7 124.2c-.3 0-.5-.1-.6-.4-.5-1.1-1.6-1.9-3.2-1.9-1.5 0-2.7.5-2.7 1.5 0 1.1 1.1 1.5 3.6 1.8 3.8.4 6 1.6 6 4.6 0 3.4-3 5.2-6.8 5.2-3.3 0-6.1-1.6-6.6-5 0-.3.1-.4.4-.4h2.5c.3 0 .5.1.6.4.3 1.1 1.5 2 3.2 2 1.5 0 2.8-.6 2.8-1.7 0-1.4-1.4-1.7-4.2-2-3.2-.4-5.4-1.3-5.4-4.3s2.5-5.1 6.5-5.1c3.6 0 6 1.9 6.6 4.8.1.3 0 .5-.4.5h-2.3zM117 134.8c-.2 0-.4-.2-.4-.4v-14.9c0-.2.2-.4.4-.4h6.3c4.7 0 8.3 3.2 8.3 7.9 0 4.6-3.6 7.9-8.3 7.9l-6.3-.1zm6.3-3.1c2.5 0 4.5-2 4.5-4.8s-2-4.8-4.5-4.8h-2.6c-.2 0-.4.2-.4.4v8.7c0 .2.2.4.4.4l2.6.1zM141.3 110.3H58.7c-.6 0-1.2-.5-1.2-1.2V63c0-3.2 2.6-5.8 5.8-5.8h73.4c3.2 0 5.8 2.6 5.8 5.8v46.2c0 .6-.5 1.1-1.2 1.1z" class="st1"/><path d="M104.3 100.8h-7.6c-.5 0-.9-.4-.9-.9V67.8c0-.5.4-.9.9-.9h7.6c.5 0 .9.4.9.9V100c0 .5-.4.8-.9.8z" class="st2"/><path d="M117.2 76.3H82.8c-.5 0-.9-.4-.9-.9v-7.6c0-.5.4-.9.9-.9h34.4c.5 0 .9.4.9.9v7.6c0 .5-.4.9-.9.9z" class="st2"/></svg>