<?xml version="1.0" encoding="utf-8"?>
<!-- Generator: Adobe Illustrator 25.0.0, SVG Export Plug-In . SVG Version: 6.00 Build 0)  -->
<svg version="1.1" id="Livello_1" xmlns="http://www.w3.org/2000/svg" xmlns:xlink="http://www.w3.org/1999/xlink" x="0px" y="0px"
	 viewBox="0 0 200 200" style="enable-background:new 0 0 200 200;" xml:space="preserve">
<style type="text/css">
	.st0{fill:#010202;}
	.st1{fill:#FFFFFF;}
	.st2{fill:#204C9A;}
</style>
<circle class="st0" cx="100" cy="100" r="95"/>
<polygon class="st1" points="26.8,57.7 26.8,142.3 100,184.5 173.2,142.3 173.2,57.7 100,15.5 "/>
<path class="st2" d="M83.5,157.9c-2.1,0-3.9,1.7-3.9,3.9c0,0,0,0,0,0.1c-15.4,1.2-20.1-7.9-21.1-10.3c1.1-0.7,1.8-1.9,1.8-3.2
	c0-2.1-1.7-3.9-3.9-3.9c-2.1,0-3.9,1.7-3.9,3.9s1.7,3.9,3.9,3.9c0.1,0,0.2,0,0.3,0c1,2.6,5.8,11.8,20.2,11.8c1,0,2.1-0.1,3.2-0.2
	c0.7,1.1,1.9,1.9,3.3,1.9c2.1,0,3.9-1.7,3.9-3.9S85.6,157.9,83.5,157.9z M54.5,148.2c0-1.1,0.9-1.9,1.9-1.9c1.1,0,1.9,0.9,1.9,1.9
	s-0.9,1.9-1.9,1.9C55.4,150.2,54.5,149.3,54.5,148.2z M83.5,163.7c-1.1,0-1.9-0.9-1.9-1.9c0-1.1,0.9-1.9,1.9-1.9s1.9,0.9,1.9,1.9
	C85.4,162.8,84.6,163.7,83.5,163.7z"/>
<path class="st2" d="M114.4,43.9c2.1,0,3.9-1.7,3.9-3.9c0,0,0,0,0-0.1c15.4-1.2,20.1,7.9,21.1,10.3c-1.1,0.7-1.8,1.9-1.8,3.2
	c0,2.1,1.7,3.9,3.9,3.9c2.1,0,3.9-1.7,3.9-3.9s-1.7-3.9-3.9-3.9c-0.1,0-0.2,0-0.3,0c-1-2.6-5.8-11.8-20.2-11.8c-1,0-2.1,0.1-3.2,0.2
	c-0.7-1.1-1.9-1.9-3.3-1.9c-2.1,0-3.9,1.7-3.9,3.9C110.6,42.2,112.3,43.9,114.4,43.9z M143.4,53.6c0,1.1-0.9,1.9-1.9,1.9
	c-1.1,0-1.9-0.9-1.9-1.9s0.9-1.9,1.9-1.9C142.5,51.6,143.4,52.5,143.4,53.6z M114.4,38.1c1.1,0,1.9,0.9,1.9,1.9
	c0,1.1-0.9,1.9-1.9,1.9s-1.9-0.9-1.9-1.9C112.5,39,113.4,38.1,114.4,38.1z"/>
<path class="st2" d="M89.3,38.1c-2.1,0-3.9-1.7-3.9-3.9c0,0,0,0,0-0.1C70,33,65.3,42.1,64.4,44.5c1.1,0.7,1.8,1.9,1.8,3.2
	c0,2.1-1.7,3.9-3.9,3.9c-2.1,0-3.9-1.7-3.9-3.9s1.7-3.9,3.9-3.9c0.1,0,0.2,0,0.3,0c1-2.6,5.8-11.8,20.2-11.8c1,0,2.1,0.1,3.2,0.2
	c0.7-1.1,1.9-1.9,3.3-1.9c2.1,0,3.9,1.7,3.9,3.9C93.2,36.4,91.4,38.1,89.3,38.1z M60.3,47.8c0,1.1,0.9,1.9,1.9,1.9
	c1.1,0,1.9-0.9,1.9-1.9s-0.9-1.9-1.9-1.9C61.2,45.8,60.3,46.7,60.3,47.8z M89.3,32.3c-1.1,0-1.9,0.9-1.9,1.9s0.9,1.9,1.9,1.9
	c1.1,0,1.9-0.9,1.9-1.9S90.4,32.3,89.3,32.3z"/>
<path class="st2" d="M108.6,161.8c2.1,0,3.9,1.7,3.9,3.9c0,0,0,0,0,0.1c15.4,1.2,20.1-7.9,21.1-10.3c-1.1-0.7-1.8-1.9-1.8-3.2
	c0-2.1,1.7-3.9,3.9-3.9s3.9,1.7,3.9,3.9c0,2.1-1.7,3.9-3.9,3.9c-0.1,0-0.2,0-0.3,0c-1,2.6-5.8,11.8-20.2,11.8c-1,0-2.1-0.1-3.2-0.2
	c-0.7,1.1-1.9,1.9-3.3,1.9c-2.1,0-3.9-1.7-3.9-3.9C104.8,163.5,106.5,161.8,108.6,161.8z M137.6,152.1c0-1.1-0.9-1.9-1.9-1.9
	c-1.1,0-1.9,0.9-1.9,1.9c0,1.1,0.9,1.9,1.9,1.9C136.7,154,137.6,153.2,137.6,152.1z M108.6,167.6c1.1,0,1.9-0.9,1.9-1.9
	c0-1.1-0.9-1.9-1.9-1.9c-1.1,0-1.9,0.9-1.9,1.9C106.7,166.7,107.6,167.6,108.6,167.6z"/>
<path class="st2" d="M54.5,59.4c0-2.1-1.7-3.9-3.9-3.9c-2.1,0-3.9,1.7-3.9,3.9c0,1.4,0.8,2.7,2,3.4c0.2,1.5,0.6,8.6-8.4,11.9
	c-0.7-1-1.9-1.7-3.2-1.7c-2.1,0-3.9,1.7-3.9,3.9c0,1.4,0.7,2.6,1.8,3.3c-0.4,1.7-1.1,6.5,2.3,10c2.8,2.8,3.4,7.8,3.5,9.9
	c-2.1,0-3.8,1.7-3.8,3.9c0,1.5,0.8,2.7,2.1,3.4c0.2,0.5,0.9,2.9-1.7,4.3l0,0c-0.1,0-0.2,0-0.4,0c-2.1,0-3.9,1.7-3.9,3.9
	c0,2.1,1.7,3.9,3.9,3.9s3.9-1.7,3.9-3.9c0-1.2-0.6-2.3-1.4-3c1.7-1.5,1.9-3.3,1.7-4.8c2-0.2,3.6-1.8,3.6-3.8c0-1.4-0.8-2.7-1.9-3.3
	c-0.1-1.7-0.5-8.2-4.1-11.8c-2.7-2.7-2.2-6.5-1.9-8c0.1,0,0.1,0,0.2,0c2.1,0,3.9-1.7,3.9-3.9c0-0.1,0-0.2,0-0.3
	c9.2-3.4,9.9-10.5,9.8-13.2C52.9,63.2,54.5,61.5,54.5,59.4z M37.1,117.3c-1.1,0-1.9-0.9-1.9-1.9c0-1.1,0.9-1.9,1.9-1.9
	s1.9,0.9,1.9,1.9C39.1,116.5,38.2,117.3,37.1,117.3z M41,105.7c-1.1,0-1.9-0.9-1.9-1.9c0-1.1,0.9-1.9,1.9-1.9c1.1,0,1.9,0.9,1.9,1.9
	C42.9,104.9,42.1,105.7,41,105.7z M37.1,78.7c-1.1,0-1.9-0.9-1.9-1.9s0.9-1.9,1.9-1.9s1.9,0.9,1.9,1.9S38.2,78.7,37.1,78.7z
	 M50.7,61.3c-1.1,0-1.9-0.9-1.9-1.9s0.9-1.9,1.9-1.9c1.1,0,1.9,0.9,1.9,1.9S51.7,61.3,50.7,61.3z"/>
<path class="st2" d="M68.7,73.6c1-1.4,4.7-6.8,4.1-11.9c-0.4-3.8,2.3-6.5,3.5-7.5c0.1,0,0.1,0.1,0.2,0.1c1.7,1.3,4.1,1,5.4-0.6
	s1-4.1-0.6-5.4c-1.7-1.3-4.1-1-5.4,0.6c-0.8,1.1-1,2.5-0.6,3.7c-1.4,1.1-4.9,4.4-4.3,9.3c0.5,3.9-2.2,8.3-3.4,10
	c-1.7-1.3-4.1-1-5.4,0.7c-1.3,1.7-1,4.1,0.6,5.4c1.7,1.3,4.1,1,5.4-0.6C69,76.3,69.1,74.9,68.7,73.6z M80,49.9
	c0.8,0.7,1,1.9,0.3,2.7c-0.7,0.8-1.9,1-2.7,0.3c-0.8-0.7-1-1.9-0.3-2.7C77.9,49.4,79.1,49.2,80,49.9z M63.9,76.6
	c-0.8-0.7-1-1.9-0.3-2.7s1.9-1,2.7-0.3c0.8,0.7,1,1.9,0.3,2.7C65.9,77.1,64.7,77.2,63.9,76.6z"/>
<path class="st2" d="M129.3,126.3c-1,1.4-4.7,6.8-4.1,11.9c0.4,3.8-2.3,6.5-3.5,7.5c-0.1,0-0.1-0.1-0.2-0.1c-1.7-1.3-4.1-1-5.4,0.6
	c-1.3,1.7-1,4.1,0.6,5.4c1.7,1.3,4.1,1,5.4-0.6c0.8-1.1,1-2.5,0.6-3.7c1.4-1.1,4.9-4.4,4.3-9.3c-0.5-3.9,2.2-8.3,3.4-10
	c1.7,1.3,4.1,1,5.4-0.7c1.3-1.7,1-4.1-0.6-5.4c-1.7-1.3-4.1-1-5.4,0.6C128.9,123.6,128.8,125,129.3,126.3z M118,150
	c-0.8-0.7-1-1.9-0.3-2.7c0.7-0.8,1.9-1,2.7-0.3c0.8,0.7,1,1.9,0.3,2.7C120,150.5,118.8,150.6,118,150z M134.1,123.3
	c0.8,0.7,1,1.9,0.3,2.7c-0.7,0.8-1.9,1-2.7,0.3c-0.8-0.7-1-1.9-0.3-2.7C132,122.8,133.2,122.6,134.1,123.3z"/>
<path class="st2" d="M141.5,144.4c0,2.1,1.7,3.9,3.9,3.9c2.1,0,3.9-1.7,3.9-3.9c0-1.4-0.8-2.7-2-3.4c-0.2-1.5-0.6-8.6,8.4-11.9
	c0.7,1,1.9,1.7,3.2,1.7c2.1,0,3.9-1.7,3.9-3.9c0-1.4-0.7-2.6-1.8-3.3c0.4-1.7,1.1-6.5-2.3-10c-2.8-2.8-3.4-7.8-3.5-9.9
	c2.1,0,3.8-1.7,3.8-3.9c0-1.5-0.8-2.7-2.1-3.4c-0.2-0.5-0.9-2.9,1.7-4.3l0,0c0.1,0,0.2,0,0.4,0c2.1,0,3.9-1.7,3.9-3.9
	c0-2.1-1.7-3.9-3.9-3.9s-3.9,1.7-3.9,3.9c0,1.2,0.6,2.3,1.4,3c-1.7,1.5-1.9,3.3-1.7,4.8c-2,0.2-3.6,1.8-3.6,3.8
	c0,1.4,0.8,2.7,1.9,3.3c0.1,1.7,0.5,8.2,4.1,11.8c2.7,2.7,2.2,6.5,1.9,8c-0.1,0-0.1,0-0.2,0c-2.1,0-3.9,1.7-3.9,3.9
	c0,0.1,0,0.2,0,0.3c-9.2,3.4-9.9,10.5-9.8,13.2C143.2,140.6,141.5,142.3,141.5,144.4z M158.9,86.4c1.1,0,1.9,0.9,1.9,1.9
	c0,1.1-0.9,1.9-1.9,1.9s-1.9-0.9-1.9-1.9C156.9,87.3,157.8,86.4,158.9,86.4z M155,98c1.1,0,1.9,0.9,1.9,1.9s-0.9,1.9-1.9,1.9
	c-1.1,0-1.9-0.9-1.9-1.9S153.9,98,155,98z M158.9,125.1c1.1,0,1.9,0.9,1.9,1.9c0,1.1-0.9,1.9-1.9,1.9s-1.9-0.9-1.9-1.9
	C156.9,125.9,157.8,125.1,158.9,125.1z M145.3,142.4c1.1,0,1.9,0.9,1.9,1.9s-0.9,1.9-1.9,1.9c-1.1,0-1.9-0.9-1.9-1.9
	S144.3,142.4,145.3,142.4z"/>
<path class="st2" d="M126.1,49.9c0-2.1,1.7-3.9,3.8-3.9c2.1,0,3.9,1.7,3.9,3.8c0,1.4-0.8,2.7-1.9,3.4c-0.2,1.5-0.5,8.6,8.6,11.8
	c0.7-1.1,1.8-1.8,3.2-1.8c2.1,0,3.9,1.7,3.9,3.8c0,1.4-0.7,2.6-1.7,3.3c0.4,1.7,1.2,6.5-2.2,10c-2.7,2.8-3.3,7.9-3.4,10
	c2.1,0,3.8,1.7,3.9,3.8c0,1.5-0.8,2.8-2,3.4c-0.2,0.5-0.9,2.9,1.8,4.3l0,0c0.1,0,0.2,0,0.4,0c2.1,0,3.9,1.7,3.9,3.8
	c0,2.1-1.7,3.9-3.8,3.9s-3.9-1.7-3.9-3.8c0-1.2,0.5-2.3,1.4-3c-1.7-1.4-2-3.3-1.8-4.8c-2-0.1-3.6-1.7-3.6-3.8c0-1.4,0.7-2.7,1.9-3.4
	c0-1.7,0.4-8.2,3.9-11.9c2.6-2.7,2.1-6.6,1.7-8.1c-0.1,0-0.1,0-0.2,0c-2.1,0-3.9-1.7-3.9-3.8c0-0.1,0-0.2,0-0.3
	c-9.3-3.2-10.1-10.3-10-13.1C127.9,53.7,126.2,52,126.1,49.9z M144.5,107.6c1.1,0,1.9-0.9,1.9-2c0-1.1-0.9-1.9-2-1.9
	c-1.1,0-1.9,0.9-1.9,2C142.5,106.7,143.4,107.6,144.5,107.6z M140.4,96c1.1,0,1.9-0.9,1.9-2c0-1.1-0.9-1.9-2-1.9
	c-1.1,0-1.9,0.9-1.9,2C138.5,95.2,139.4,96,140.4,96z M143.8,68.9c1.1,0,1.9-0.9,1.9-2c0-1.1-0.9-1.9-2-1.9c-1.1,0-1.9,0.9-1.9,2
	C141.9,68.1,142.8,68.9,143.8,68.9z M130,51.8c1.1,0,1.9-0.9,1.9-2c0-1.1-0.9-1.9-2-1.9c-1.1,0-1.9,0.9-1.9,2S129,51.8,130,51.8z"/>
<path class="st2" d="M90.4,54.3c2.1,0.5,4.2-0.8,4.7-2.8c0,0,0,0,0-0.1c15.3,2.5,17.7,12.5,18,15.1c-1.2,0.4-2.2,1.4-2.5,2.7
	c-0.5,2.1,0.8,4.2,2.8,4.7s4.2-0.8,4.7-2.8s-0.8-4.2-2.8-4.7c-0.1,0-0.2,0-0.3,0c-0.4-2.7-2.8-12.8-16.8-16.3
	c-1-0.2-2.1-0.4-3.2-0.6c-0.4-1.3-1.4-2.3-2.8-2.6c-2.1-0.5-4.2,0.8-4.7,2.8C87.1,51.7,88.3,53.8,90.4,54.3z M116.2,70.6
	c-0.3,1-1.3,1.7-2.3,1.4c-1-0.3-1.7-1.3-1.4-2.3c0.3-1,1.3-1.7,2.3-1.4C115.9,68.5,116.5,69.5,116.2,70.6z M91.8,48.7
	c1,0.3,1.7,1.3,1.4,2.3c-0.3,1-1.3,1.7-2.3,1.4c-1-0.3-1.7-1.3-1.4-2.3C89.7,49,90.7,48.4,91.8,48.7z"/>
<path class="st2" d="M84.2,63c1.8,0.4,3.7-0.7,4.1-2.5c0,0,0,0,0,0c13.4,2.2,15.5,10.9,15.8,13.2c-1,0.4-1.9,1.2-2.2,2.4
	c-0.4,1.8,0.7,3.7,2.5,4.1c1.8,0.4,3.7-0.7,4.1-2.5c0.4-1.8-0.7-3.7-2.5-4.1c-0.1,0-0.2,0-0.2,0c-0.3-2.4-2.5-11.3-14.8-14.3
	c-0.9-0.2-1.8-0.4-2.8-0.5c-0.3-1.1-1.2-2-2.4-2.3c-1.8-0.4-3.7,0.7-4.1,2.5S82.4,62.6,84.2,63z M107,77.3c-0.2,0.9-1.1,1.5-2.1,1.2
	c-0.9-0.2-1.5-1.1-1.2-2.1c0.2-0.9,1.1-1.5,2.1-1.2C106.6,75.5,107.2,76.4,107,77.3z M85.5,58.1c0.9,0.2,1.5,1.1,1.2,2.1
	c-0.2,0.9-1.1,1.5-2.1,1.2c-0.9-0.2-1.5-1.1-1.2-2.1S84.5,57.9,85.5,58.1z"/>
<path class="st2" d="M103.8,149.2c-2.1-0.5-4.2,0.8-4.7,2.8c0,0,0,0,0,0.1c-15.3-2.5-17.7-12.5-18-15.1c1.2-0.4,2.2-1.4,2.5-2.7
	c0.5-2.1-0.8-4.2-2.8-4.7s-4.2,0.8-4.7,2.8c-0.5,2.1,0.8,4.2,2.8,4.7c0.1,0,0.2,0,0.3,0c0.4,2.7,2.8,12.8,16.8,16.3
	c1,0.2,2.1,0.4,3.2,0.6c0.4,1.3,1.4,2.3,2.8,2.6c2.1,0.5,4.2-0.8,4.7-2.8C107.2,151.8,105.9,149.7,103.8,149.2z M78,132.9
	c0.3-1,1.3-1.7,2.3-1.4c1,0.3,1.7,1.3,1.4,2.3c-0.3,1-1.3,1.7-2.3,1.4C78.4,135,77.7,133.9,78,132.9z M102.4,154.8
	c-1-0.3-1.7-1.3-1.4-2.3c0.3-1,1.3-1.7,2.3-1.4c1,0.3,1.7,1.3,1.4,2.3C104.5,154.4,103.5,155.1,102.4,154.8z"/>
<path class="st2" d="M110,140.5c-1.8-0.4-3.7,0.7-4.1,2.5c0,0,0,0,0,0C92.4,140.8,90.3,132,90,129.7c1-0.4,1.9-1.2,2.2-2.4
	c0.4-1.8-0.7-3.7-2.5-4.1c-1.8-0.4-3.7,0.7-4.1,2.5s0.7,3.7,2.5,4.1c0.1,0,0.2,0,0.2,0c0.3,2.4,2.5,11.3,14.8,14.3
	c0.9,0.2,1.8,0.4,2.8,0.5c0.3,1.1,1.2,2,2.4,2.3c1.8,0.4,3.7-0.7,4.1-2.5C112.9,142.7,111.8,140.9,110,140.5z M87.3,126.1
	c0.2-0.9,1.1-1.5,2.1-1.2c0.9,0.2,1.5,1.1,1.2,2.1c-0.2,0.9-1.1,1.5-2.1,1.2C87.6,128,87,127,87.3,126.1z M108.8,145.4
	c-0.9-0.2-1.5-1.1-1.2-2.1c0.2-0.9,1.1-1.5,2.1-1.2c0.9,0.2,1.5,1.1,1.2,2.1C110.6,145.1,109.7,145.6,108.8,145.4z"/>
<path class="st2" d="M70.1,150.2c0,2.1-1.7,3.9-3.8,3.9c-2.1,0-3.9-1.7-3.9-3.8c0-1.4,0.8-2.7,1.9-3.4c0.2-1.5,0.5-8.6-8.6-11.8
	c-0.7,1.1-1.8,1.8-3.2,1.8c-2.1,0-3.9-1.7-3.9-3.8c0-1.4,0.7-2.6,1.7-3.3c-0.4-1.7-1.2-6.5,2.2-10c2.7-2.8,3.3-7.9,3.4-10
	c-2.1,0-3.8-1.7-3.9-3.8c0-1.5,0.8-2.8,2-3.4c0.2-0.5,0.9-2.9-1.8-4.3l0,0c-0.1,0-0.2,0-0.4,0c-2.1,0-3.9-1.7-3.9-3.8
	c0-2.1,1.7-3.9,3.8-3.9s3.9,1.7,3.9,3.8c0,1.2-0.5,2.3-1.4,3c1.7,1.4,2,3.3,1.8,4.8c2,0.1,3.6,1.7,3.6,3.8c0,1.4-0.7,2.7-1.9,3.4
	c0,1.7-0.4,8.2-3.9,11.9c-2.6,2.7-2.1,6.6-1.7,8.1c0.1,0,0.1,0,0.2,0c2.1,0,3.9,1.7,3.9,3.8c0,0.1,0,0.2,0,0.3
	c9.3,3.2,10.1,10.3,10,13.1C68.4,146.4,70.1,148.1,70.1,150.2z M51.8,92.6c-1.1,0-1.9,0.9-1.9,2c0,1.1,0.9,1.9,2,1.9
	c1.1,0,1.9-0.9,1.9-2C53.7,93.4,52.8,92.5,51.8,92.6z M55.8,104.1c-1.1,0-1.9,0.9-1.9,2c0,1.1,0.9,1.9,2,1.9c1.1,0,1.9-0.9,1.9-2
	C57.8,104.9,56.9,104.1,55.8,104.1z M52.4,131.2c-1.1,0-1.9,0.9-1.9,2c0,1.1,0.9,1.9,2,1.9s1.9-0.9,1.9-2S53.5,131.2,52.4,131.2z
	 M66.2,148.4c-1.1,0-1.9,0.9-1.9,2c0,1.1,0.9,1.9,2,1.9s1.9-0.9,1.9-2C68.2,149.2,67.3,148.3,66.2,148.4z"/>
<path class="st2" d="M93.2,74.8c-1.5,0-2.7,0.8-3.4,2.1c-0.5,0.2-2.9,0.9-4.3-1.7l0,0c0-0.1,0-0.2,0-0.4c0-2.1-1.7-3.9-3.9-3.9
	s-3.9,1.7-3.9,3.9s1.7,3.9,3.9,3.9c1.2,0,2.3-0.6,3-1.4c1.2,1.4,2.6,1.8,3.9,1.8c0.3,0,0.6,0,0.9-0.1c0.1,2,1.8,3.6,3.8,3.6
	c2.1,0,3.9-1.7,3.9-3.9C97,76.6,95.3,74.8,93.2,74.8z M81.6,76.8c-1.1,0-1.9-0.9-1.9-1.9c0-1.1,0.9-1.9,1.9-1.9s1.9,0.9,1.9,1.9
	C83.5,75.9,82.6,76.8,81.6,76.8z M93.2,80.6c-1.1,0-1.9-0.9-1.9-1.9c0-1.1,0.9-1.9,1.9-1.9s1.9,0.9,1.9,1.9
	C95.1,79.8,94.2,80.6,93.2,80.6z"/>
<path class="st2" d="M104.8,125.1c1.5,0,2.7-0.8,3.4-2.1c0.5-0.2,2.9-0.9,4.3,1.7l0,0c0,0.1,0,0.2,0,0.4c0,2.1,1.7,3.9,3.9,3.9
	s3.9-1.7,3.9-3.9c0-2.1-1.7-3.9-3.9-3.9c-1.2,0-2.3,0.6-3,1.4c-1.2-1.4-2.6-1.8-3.9-1.8c-0.3,0-0.6,0-0.9,0.1
	c-0.1-2-1.8-3.6-3.8-3.6c-2.1,0-3.9,1.7-3.9,3.9S102.6,125.1,104.8,125.1z M116.4,123.1c1.1,0,1.9,0.9,1.9,1.9
	c0,1.1-0.9,1.9-1.9,1.9s-1.9-0.9-1.9-1.9C114.4,124,115.3,123.1,116.4,123.1z M104.8,119.3c1.1,0,1.9,0.9,1.9,1.9s-0.9,1.9-1.9,1.9
	s-1.9-0.9-1.9-1.9S103.7,119.3,104.8,119.3z"/>
<path class="st2" d="M114.4,98c-1.4,0-2.6,0.7-3.3,1.8c-8.7-4.3-16.8,0.4-19.8,2.6c-0.6-0.4-1.3-0.6-2-0.6c-2.1,0-3.9,1.7-3.9,3.9
	c0,0.1,0,0.2,0,0.3L70,112.4c-0.7-1.1-2-1.7-3.3-1.6L60,88.3c1.5-0.9,2.2-2.7,1.7-4.4c-0.6-2-2.8-3.2-4.8-2.6
	c-2,0.6-3.2,2.8-2.6,4.8c0.5,1.7,2.1,2.8,3.8,2.7l6.7,22.5c-1.5,0.9-2.2,2.7-1.7,4.4c0.6,2,2.8,3.2,4.8,2.6c1.8-0.5,2.9-2.3,2.7-4.1
	l15.4-6.3c0.7,1,1.9,1.7,3.2,1.7c2.1,0,3.9-1.7,3.9-3.9c0-0.7-0.2-1.3-0.5-1.9c2.9-2.1,10.1-6.3,17.9-2.2c0,0.1,0,0.1,0,0.2
	c0,2.1,1.7,3.9,3.9,3.9s3.9-1.7,3.9-3.9C118.3,99.7,116.6,98,114.4,98z M58.5,86.9c-1,0.3-2.1-0.3-2.4-1.3c-0.3-1,0.3-2.1,1.3-2.4
	c1-0.3,2.1,0.3,2.4,1.3C60.1,85.5,59.6,86.5,58.5,86.9z M67.4,116.5c-1,0.3-2.1-0.3-2.4-1.3c-0.3-1,0.3-2.1,1.3-2.4
	c1-0.3,2.1,0.3,2.4,1.3C69,115.1,68.4,116.2,67.4,116.5z M89.3,107.7c-1.1,0-1.9-0.9-1.9-1.9c0-1.1,0.9-1.9,1.9-1.9
	c1.1,0,1.9,0.9,1.9,1.9C91.2,106.8,90.4,107.7,89.3,107.7z M114.4,103.8c-1.1,0-1.9-0.9-1.9-1.9s0.9-1.9,1.9-1.9s1.9,0.9,1.9,1.9
	S115.5,103.8,114.4,103.8z"/>
<path class="st2" d="M82.7,95.6c1.4,0.2,2.6-0.4,3.5-1.4c8.1,5.4,16.7,1.6,20-0.2c0.5,0.4,1.2,0.7,1.9,0.8c2.1,0.3,4-1.2,4.3-3.4
	c0-0.1,0-0.2,0-0.3l16.1-4.4c0.6,1.1,1.8,1.9,3.1,2l3.9,23.1c-1.6,0.7-2.5,2.4-2.2,4.2c0.4,2.1,2.4,3.5,4.5,3.2
	c2.1-0.4,3.5-2.4,3.2-4.5c-0.3-1.8-1.8-3-3.5-3.2l-3.9-23.1c1.6-0.7,2.5-2.4,2.2-4.2c-0.4-2.1-2.4-3.5-4.5-3.2
	c-1.9,0.3-3.2,1.9-3.2,3.7L112,89.3c-0.6-1.1-1.6-1.9-3-2.1c-2.1-0.3-4,1.2-4.3,3.4c-0.1,0.7,0,1.3,0.3,1.9c-3.1,1.7-10.8,5-18,0
	c0-0.1,0-0.1,0-0.2c0.3-2.1-1.2-4-3.4-4.3s-4,1.2-4.3,3.4S80.6,95.3,82.7,95.6z M136.8,113.5c1.1-0.2,2,0.5,2.2,1.6
	c0.2,1.1-0.5,2-1.6,2.2c-1.1,0.2-2-0.5-2.2-1.6C135,114.7,135.7,113.7,136.8,113.5z M131.6,83c1.1-0.2,2,0.5,2.2,1.6
	c0.2,1.1-0.5,2-1.6,2.2c-1.1,0.2-2-0.5-2.2-1.6C129.9,84.2,130.6,83.2,131.6,83z M108.8,89.1c1.1,0.1,1.8,1.1,1.7,2.2
	c-0.1,1.1-1.1,1.8-2.2,1.7c-1.1-0.1-1.8-1.1-1.7-2.2C106.8,89.7,107.8,88.9,108.8,89.1z M83.4,89.8c1.1,0.1,1.8,1.1,1.7,2.2
	C85,93,84,93.8,82.9,93.6c-1.1-0.1-1.8-1.1-1.7-2.2S82.3,89.7,83.4,89.8z"/>
</svg>
