<?xml version="1.0" encoding="utf-8"?>
<!-- Generator: Adobe Illustrator 22.1.0, SVG Export Plug-In . SVG Version: 6.00 Build 0)  -->
<svg version="1.1" id="Layer_1" xmlns="http://www.w3.org/2000/svg" xmlns:xlink="http://www.w3.org/1999/xlink" x="0px" y="0px"
	 viewBox="0 0 200 200" style="enable-background:new 0 0 200 200;" xml:space="preserve">
<style type="text/css">
	.st0{fill:url(#SVGID_1_);}
	.st1{fill:url(#SVGID_2_);}
	.st2{fill:url(#SVGID_3_);}
	.st3{fill:url(#SVGID_4_);}
	.st4{fill:url(#SVGID_5_);}
	.st5{fill:url(#SVGID_6_);}
	.st6{fill:url(#SVGID_7_);}
	.st7{fill:url(#SVGID_8_);}
	.st8{fill:url(#SVGID_9_);}
</style>
<linearGradient id="SVGID_1_" gradientUnits="userSpaceOnUse" x1="40.8303" y1="155.1008" x2="173.2074" y2="58.0616" gradientTransform="matrix(1 0 0 -1 0 200)">
	<stop  offset="0" style="stop-color:#8AE3FF"/>
	<stop  offset="0.4953" style="stop-color:#8AE3FF"/>
	<stop  offset="0.8918" style="stop-color:#8AE3FF"/>
	<stop  offset="1" style="stop-color:#8AE3FF"/>
</linearGradient>
<path class="st0" d="M136.4,135.5c-0.6,0-1.2-0.2-1.5-0.6c-1-0.9-1.1-2.3-0.2-3.3c6.7-7.3,10.7-16.3,11.9-26.1
	c0.2-1.3,1.4-2.2,2.6-2c1.3,0.2,2.2,1.4,2,2.6c-1.3,10.7-5.8,20.6-13,28.7C137.6,135.3,137,135.5,136.4,135.5z"/>
<linearGradient id="SVGID_2_" gradientUnits="userSpaceOnUse" x1="20.3937" y1="127.2218" x2="152.7713" y2="30.1823" gradientTransform="matrix(1 0 0 -1 0 200)">
	<stop  offset="0" style="stop-color:#8AE3FF"/>
	<stop  offset="0.4953" style="stop-color:#8AE3FF"/>
	<stop  offset="0.8918" style="stop-color:#8AE3FF"/>
	<stop  offset="1" style="stop-color:#8AE3FF"/>
</linearGradient>
<path class="st1" d="M106.5,151.2c-1.2,0-2.1-0.9-2.3-2c-0.2-1.3,0.8-2.5,2-2.6c7.8-1.1,15.3-4.1,21.7-8.8c1.1-0.8,2.5-0.6,3.3,0.5
	c0.8,1.1,0.6,2.5-0.5,3.3c-7,5.2-15.2,8.6-23.9,9.7C106.7,151.2,106.6,151.2,106.5,151.2z"/>
<linearGradient id="SVGID_3_" gradientUnits="userSpaceOnUse" x1="30.1849" y1="140.5791" x2="162.5643" y2="43.5382" gradientTransform="matrix(1 0 0 -1 0 200)">
	<stop  offset="0" style="stop-color:#8AE3FF"/>
	<stop  offset="0.4953" style="stop-color:#8AE3FF"/>
	<stop  offset="0.8918" style="stop-color:#8AE3FF"/>
	<stop  offset="1" style="stop-color:#8AE3FF"/>
</linearGradient>
<path class="st2" d="M51.4,95.2c-0.1,0-0.2,0-0.4,0c-1.3-0.2-2.1-1.4-2-2.7c1.5-10.4,6.2-20.1,13.5-27.8c0.9-1,2.4-1,3.3-0.1
	c1,0.9,1,2.4,0.1,3.3c-6.7,7-10.9,15.7-12.3,25.3C53.5,94.4,52.5,95.2,51.4,95.2z"/>
<linearGradient id="SVGID_4_" gradientUnits="userSpaceOnUse" x1="50.2035" y1="167.8864" x2="182.5806" y2="70.8473" gradientTransform="matrix(1 0 0 -1 0 200)">
	<stop  offset="0" style="stop-color:#8AE3FF"/>
	<stop  offset="0.4953" style="stop-color:#8AE3FF"/>
	<stop  offset="0.8918" style="stop-color:#8AE3FF"/>
	<stop  offset="1" style="stop-color:#8AE3FF"/>
</linearGradient>
<path class="st3" d="M71.4,62.4c-0.8,0-1.4-0.4-1.9-1c-0.8-1.1-0.5-2.5,0.6-3.3c6.9-4.8,14.8-8,23.1-9.1c1.3-0.2,2.5,0.8,2.6,2
	c0.2,1.3-0.8,2.5-2,2.6c-7.5,1-14.8,3.9-20.9,8.3C72.4,62.3,71.9,62.4,71.4,62.4z"/>
<linearGradient id="SVGID_5_" gradientUnits="userSpaceOnUse" x1="35.1702" y1="147.3788" x2="167.5476" y2="50.3395" gradientTransform="matrix(1 0 0 -1 0 200)">
	<stop  offset="0" style="stop-color:#8AE3FF"/>
	<stop  offset="0.4953" style="stop-color:#8AE3FF"/>
	<stop  offset="0.8918" style="stop-color:#8AE3FF"/>
	<stop  offset="1" style="stop-color:#8AE3FF"/>
</linearGradient>
<path class="st4" d="M100,141.7c-23,0-41.6-18.7-41.6-41.6c0-23,18.7-41.6,41.6-41.6c23,0,41.6,18.7,41.6,41.6
	C141.6,123.1,123,141.7,100,141.7z M100,63.2c-20.4,0-37,16.6-37,37s16.6,37,37,37s37-16.6,37-37C136.9,79.8,120.4,63.2,100,63.2z"
	/>
<linearGradient id="SVGID_6_" gradientUnits="userSpaceOnUse" x1="2.027427e-02" y1="178.3149" x2="256.6289" y2="-9.7923">
	<stop  offset="0" style="stop-color:#8AE3FF"/>
	<stop  offset="0.4953" style="stop-color:#8AE3FF"/>
	<stop  offset="0.8918" style="stop-color:#8AE3FF"/>
	<stop  offset="1" style="stop-color:#8AE3FF"/>
</linearGradient>
<path class="st5" d="M93.8,146.6c-20-2.6-35.8-17.7-39.7-37.2c1.3-0.9,2.2-2.5,2.2-4.2c0-2.8-2.3-5.1-5.1-5.1
	c-2.8,0-5.1,2.3-5.1,5.1c0,2.2,1.4,4.1,3.4,4.8c4.1,21.6,21.6,38.3,43.8,41.2c0.1,0,0.2,0,0.3,0c1.2,0,2.2-0.9,2.3-2
	C96,147.9,95.1,146.7,93.8,146.6z"/>
<linearGradient id="SVGID_7_" gradientUnits="userSpaceOnUse" x1="-49.876" y1="204.3485" x2="205.7742" y2="16.9441">
	<stop  offset="0" style="stop-color:#8AE3FF"/>
	<stop  offset="0.4953" style="stop-color:#8AE3FF"/>
	<stop  offset="0.8918" style="stop-color:#8AE3FF"/>
	<stop  offset="1" style="stop-color:#8AE3FF"/>
</linearGradient>
<path class="st6" d="M150.1,88.5c-4.8-20.7-22.1-36.6-43.4-39.4c-1.3-0.2-2.4,0.8-2.6,2c-0.2,1.3,0.8,2.4,2,2.6
	c19.5,2.5,35.2,17.1,39.5,36c-1,0.9-1.7,2.3-1.7,3.8c0,2.8,2.3,5.1,5.1,5.1s5.1-2.3,5.1-5.1C154.1,91,152.4,89,150.1,88.5z"/>
<linearGradient id="SVGID_8_" gradientUnits="userSpaceOnUse" x1="-168.2621" y1="299.0115" x2="381.9212" y2="-104.3005">
	<stop  offset="0" style="stop-color:#8AE3FF"/>
	<stop  offset="0.4953" style="stop-color:#8AE3FF"/>
	<stop  offset="0.8918" style="stop-color:#8AE3FF"/>
	<stop  offset="1" style="stop-color:#8AE3FF"/>
</linearGradient>
<path class="st7" d="M111.3,122.1c0.3,1.7-0.9,3.2-2.7,3.2H92c-1.7,0-3-1.4-2.7-3.2L93,99.8c-3.7-2.4-6-6.5-6-11.1
	c0-7.3,6-13.3,13.3-13.3c7.3,0,13.3,6,13.3,13.3c0,4.6-2.4,8.7-6,11.1L111.3,122.1z"/>
<linearGradient id="SVGID_9_" gradientUnits="userSpaceOnUse" x1="34.9638" y1="147.6647" x2="167.6025" y2="50.4337">
	<stop  offset="0" style="stop-color:#8AE3FF"/>
	<stop  offset="0.4953" style="stop-color:#8AE3FF"/>
	<stop  offset="0.8918" style="stop-color:#8AE3FF"/>
	<stop  offset="1" style="stop-color:#8AE3FF"/>
</linearGradient>
<path class="st8" d="M195,100c0-1-0.3-2-1-2.8c-4-6.6-33.2-52.4-94-52.4c-61.2,0-90.4,46.2-94.1,52.5C5.3,98.1,5,99,5,100
	c0,1,0.3,2,1,2.8c4,6.6,33.2,52.4,94,52.4c61,0,90.1-45.9,94-52.4C194.7,102,195,101,195,100z M100,146.5c-51.7,0-79.2-37-85.4-46.5
	c6.2-9.4,33.7-46.5,85.4-46.5s79.2,37,85.4,46.5C179.2,109.4,151.7,146.5,100,146.5z"/>
</svg>
