<?xml version="1.0" encoding="utf-8"?>
<!-- Generator: Adobe Illustrator 16.0.0, SVG Export Plug-In . SVG Version: 6.00 Build 0)  -->
<!DOCTYPE svg PUBLIC "-//W3C//DTD SVG 1.1//EN" "http://www.w3.org/Graphics/SVG/1.1/DTD/svg11.dtd">
<svg version="1.1" id="Layer_2" xmlns="http://www.w3.org/2000/svg" xmlns:xlink="http://www.w3.org/1999/xlink" x="0px" y="0px"
	 width="200px" height="200px" viewBox="0 0 200 200" enable-background="new 0 0 200 200" xml:space="preserve">
<g>
	
		<linearGradient id="SVGID_1_" gradientUnits="userSpaceOnUse" x1="1396.8506" y1="-2580.1045" x2="2187.3298" y2="-2128.5596" gradientTransform="matrix(0.1649 0 0 -0.1649 -197.1827 -287.4232)">
		<stop  offset="0" style="stop-color:#49ACCF"/>
		<stop  offset="0.0855" style="stop-color:#4AACCA"/>
		<stop  offset="0.2192" style="stop-color:#4DADBC"/>
		<stop  offset="0.3843" style="stop-color:#51AFA5"/>
		<stop  offset="0.5745" style="stop-color:#58B183"/>
		<stop  offset="0.7859" style="stop-color:#60B456"/>
		<stop  offset="1" style="stop-color:#69B921"/>
	</linearGradient>
	<path fill="url(#SVGID_1_)" d="M179.379,63.825v-9.7L98.995,7.71L18.61,54.125v92.832l80.385,46.333l80.384-46.418v-9.699
		l-7.118-4.077v-23.689l7.118-4.117v-9.618l-7.118-4.08V67.904L179.379,63.825z M97.704,27.774v22.23l-5.827,3.373L72.56,42.26
		L97.704,27.774z M64.277,47.05l5.828-3.372l19.274,11.115l-25.102,14.57V47.05z M71.395,86.055L90.712,97.17v6.745L71.395,115.03
		V86.055z M35.345,65.239l19.316,11.118v6.825L35.345,94.296V65.239z M35.345,97.17l19.316-11.116v28.976l-19.316-11.115V97.17z
		 M35.345,106.869l19.316,11.116v6.699l-19.316,11.2V106.869z M61.738,152.494l-25.143-14.489l19.273-11.113l5.869,3.375V152.494z
		 M61.738,70.82l-5.869,3.371L36.595,63.034l25.143-14.486V70.82z M64.277,153.95v-22.229l25.102,14.488l-19.274,11.116
		L64.277,153.95z M97.704,173.225L72.56,158.739l19.317-11.115l5.827,3.371V173.225z M97.746,131.721l-25.102-14.488l19.275-11.155
		l5.827,3.375V131.721z M97.746,91.591l-5.827,3.372L72.644,83.849l25.102-14.487V91.591z M136.293,48.505l17.985,10.407
		l-17.985,10.451V48.505z M136.293,88.678l5.829-3.372l20.522,11.864v6.745l-20.522,11.863l-5.829-3.372V88.678z M133.754,47.133
		v22.229l-25.143-14.487l19.272-11.114L133.754,47.133z M100.285,27.774l25.144,14.486l-19.272,11.118l-5.871-3.373V27.774z
		 M100.244,69.279l25.102,14.485l-19.273,11.159l-5.828-3.374V69.279z M100.244,109.452l5.828-3.375l19.273,11.155l-25.102,14.488
		V109.452z M100.285,173.225v-22.229l5.871-3.371l19.272,11.115L100.285,173.225z M133.754,153.95l-5.87,3.375l-19.272-11.116
		l25.143-14.488V153.95z M133.796,112.487l-5.912,3.417l-20.521-11.867V97.17l20.521-11.864l2.956,1.705l2.956,1.708V112.487z
		 M136.293,152.575v-20.854l17.985,10.407L136.293,152.575z M169.764,131.721l-25.102-14.488l19.273-11.155l5.828,3.375V131.721z
		 M169.764,91.591l-5.828,3.372l-19.273-11.114l25.102-14.487V91.591z"/>
</g>
</svg>
