<svg xmlns="http://www.w3.org/2000/svg" viewBox="0 0 200 200"><linearGradient id="a" x1="-27.2233" x2="-27.7755" y1="199.8422" y2="199.3776" gradientTransform="matrix(256 0 0 -256 7140 51200)" gradientUnits="userSpaceOnUse"><stop offset="0" stop-color="#b6509e"/><stop offset="1" stop-color="#2ebac6"/></linearGradient><circle cx="100" cy="100" r="95" fill="url(#a)"/><path fill="#fff" d="M153.6 53.5l-49.4-14.8c-2.5-.8-5.2-.8-7.7 0L47.1 53.5c-1.6.5-2.8 2-2.8 3.7v57.3c0 7.5 3 15.1 9 22.7 4.5 5.8 10.8 11.6 18.7 17.3 8.4 6 17.4 11.3 26.7 15.7 1 .5 2.2.5 3.2 0 9.4-4.4 18.3-9.6 26.7-15.7 7.9-5.7 14.1-11.5 18.7-17.3 6-7.6 9-15.2 9-22.7V57.2c0-1.7-1.1-3.3-2.7-3.7z"/><linearGradient id="b" x1="-27.2624" x2="-27.7374" y1="199.8891" y2="199.3332" gradientTransform="matrix(87.0447 0 0 -95.0539 2494.2456 19086.7734)" gradientUnits="userSpaceOnUse"><stop offset="0" stop-color="#b6509e"/><stop offset="1" stop-color="#2ebac6"/></linearGradient><path fill="url(#b)" d="M132.4 125.7L107.7 66c-1.4-3.1-3.5-4.6-6.2-4.6h-2.2c-2.7 0-4.8 1.5-6.2 4.6L82.4 92h-8.1c-2.4 0-4.4 2-4.4 4.4v.1c0 2.4 2 4.4 4.4 4.4h4.4l-10.3 24.8c-.2.5-.3 1.1-.3 1.7 0 1.2.4 2.4 1.2 3.3.9.9 2.1 1.3 3.3 1.3.9 0 1.8-.3 2.5-.8.8-.6 1.4-1.3 1.8-2.2l11.3-28H96c2.4 0 4.4-2 4.4-4.4v-.1c0-2.4-2-4.4-4.4-4.4h-4.2l8.6-21.5 23.5 58.4c.4.9 1 1.7 1.8 2.2.7.5 1.6.8 2.5.8 1.2.1 2.4-.4 3.3-1.3.8-.9 1.3-2.1 1.2-3.3 0-.6-.1-1.2-.3-1.7z"/></svg>