<?xml version="1.0" encoding="UTF-8" standalone="no"?><!DOCTYPE svg PUBLIC "-//W3C//DTD SVG 1.1//EN" "http://www.w3.org/Graphics/SVG/1.1/DTD/svg11.dtd"><svg width="100%" height="100%" viewBox="0 0 15 15" version="1.1" xmlns="http://www.w3.org/2000/svg" xmlns:xlink="http://www.w3.org/1999/xlink" xml:space="preserve" style="fill-rule:evenodd;clip-rule:evenodd;stroke-linejoin:round;stroke-miterlimit:1.41421;"><g><g id="layer1"><path d="M10.365,13.713c-0.02,-0.054 -0.027,-0.183 -0.014,-0.291l0.021,-0.189l0.946,-0.034l0.946,-0.033l0.02,-1.109c0.007,-0.696 0.047,-1.148 0.094,-1.202c0.054,-0.068 0.257,-0.088 0.825,-0.075l0.75,0.021l0.067,2.365l0.5,0.02c0.473,0.02 0.494,0.027 0.453,0.169c-0.02,0.081 -0.041,0.216 -0.041,0.304l0,0.148l-2.263,0c-1.892,0 -2.277,-0.013 -2.304,-0.094Z" style="fill:#997144;fill-rule:nonzero;"/></g><g id="layer2"><path d="M3.824,13.747c-0.06,-0.102 0.156,-0.196 0.5,-0.223c0.264,-0.021 0.304,-0.007 0.304,0.115c0,0.114 -0.054,0.135 -0.385,0.155c-0.209,0.013 -0.398,-0.014 -0.419,-0.047Z" style="fill:#a27e48;fill-rule:nonzero;"/><path d="M14.953,13.537c0,-0.169 0.013,-0.236 0.027,-0.148c0.013,0.081 0.013,0.216 0,0.304c-0.014,0.081 -0.027,0.013 -0.027,-0.156Z" style="fill:#a27e48;fill-rule:nonzero;"/><path d="M12.324,10.889c-0.04,-0.061 0.048,-0.115 0.811,-0.446c0.372,-0.156 0.716,-0.271 0.764,-0.257c0.115,0.047 0.121,0.642 0.006,0.682c-0.162,0.048 -1.554,0.075 -1.581,0.021Z" style="fill:#a27e48;fill-rule:nonzero;"/><path d="M2.122,9.524c-0.021,-0.054 -0.027,-0.196 -0.014,-0.325l0.02,-0.223l0.5,-0.02c0.277,-0.013 0.548,0 0.608,0.02c0.183,0.068 -0.189,0.304 -0.479,0.304c-0.142,0 -0.257,0.027 -0.257,0.061c0,0.034 -0.074,0.108 -0.169,0.169c-0.149,0.095 -0.176,0.101 -0.209,0.014Z" style="fill:#a27e48;fill-rule:nonzero;"/><path d="M3.608,8.922c-0.02,-0.054 -0.027,-0.243 -0.013,-0.425l0.02,-0.331l0.696,-0.021c0.378,-0.006 0.689,-0.047 0.689,-0.081c0,-0.081 -0.378,-0.344 -0.432,-0.29c-0.021,0.02 -0.041,0.006 -0.041,-0.034c0,-0.047 0.108,-0.061 0.311,-0.034c0.223,0.027 0.331,0.014 0.371,-0.054c0.068,-0.108 0.399,-0.149 0.399,-0.054c0,0.041 -0.027,0.054 -0.061,0.034c-0.074,-0.048 -0.223,0.121 -0.162,0.182c0.02,0.027 -0.013,0.061 -0.074,0.088c-0.061,0.02 -0.108,0.081 -0.108,0.135c0,0.162 -0.264,0.365 -0.467,0.365c-0.155,0 -0.202,0.041 -0.256,0.223c-0.048,0.176 -0.095,0.216 -0.257,0.223c-0.176,0 -0.358,0.054 -0.527,0.142c-0.027,0.013 -0.068,-0.014 -0.088,-0.068Z" style="fill:#a27e48;fill-rule:nonzero;"/><path d="M5.966,7.679c0.027,-0.02 0.014,-0.081 -0.027,-0.128c-0.121,-0.149 0.264,-0.271 0.406,-0.129c0.094,0.095 0.094,0.108 -0.048,0.142c-0.081,0.027 -0.148,0.068 -0.148,0.102c0,0.033 -0.048,0.06 -0.115,0.06c-0.061,0 -0.088,-0.02 -0.068,-0.047Z" style="fill:#a27e48;fill-rule:nonzero;"/></g><g id="layer3"><path d="M1.926,13.747c-0.054,-0.095 -0.021,-0.102 0.871,-0.338c0.629,-0.169 0.906,-0.21 1.318,-0.196c0.493,0.02 0.513,0.027 0.513,0.182c0,0.183 -0.074,0.23 -0.527,0.338c-0.385,0.088 -2.115,0.101 -2.175,0.014Z" style="fill:#b18f59;fill-rule:nonzero;"/><path d="M12.331,10.834c-0.034,-0.06 0.899,-0.54 1.054,-0.54c0.034,0 0.142,-0.047 0.23,-0.108c0.203,-0.135 0.432,-0.081 0.304,0.074c-0.041,0.054 -0.149,0.115 -0.223,0.142c-0.081,0.02 -0.331,0.128 -0.554,0.23c-0.493,0.223 -0.757,0.29 -0.811,0.202Z" style="fill:#b18f59;fill-rule:nonzero;"/><path d="M1.041,10.537c-0.021,-0.047 -0.027,-0.223 -0.014,-0.385l0.02,-0.297l0.5,-0.034c0.473,-0.034 0.507,-0.047 0.548,-0.21c0.101,-0.378 0.196,-0.466 0.473,-0.466c0.141,0 0.277,-0.027 0.304,-0.061c0.02,-0.04 0.175,-0.087 0.351,-0.114c0.372,-0.054 0.736,-0.277 0.791,-0.48c0.033,-0.115 0.108,-0.156 0.398,-0.189c0.311,-0.041 0.75,-0.25 0.656,-0.318c-0.021,-0.013 -0.257,-0.094 -0.527,-0.182c-0.777,-0.257 -0.784,-0.358 -0.027,-0.642c0.277,-0.108 0.479,-0.223 0.466,-0.27c-0.014,-0.048 -0.277,-0.088 -0.696,-0.109l-0.669,-0.033l-0.034,-0.372l-0.034,-0.372l-0.709,-0.033l-0.71,-0.034l-0.033,-0.406l-0.034,-0.405l-0.507,-0.034l-0.507,-0.034l-0.02,-0.452c-0.034,-0.716 -0.013,-0.73 0.872,-0.73c0.723,0 0.743,0.007 0.804,0.169c0.054,0.149 0.101,0.162 0.554,0.182l0.493,0.021l0.068,0.743l0.709,0.034c0.682,0.033 0.703,0.04 0.743,0.202c0.027,0.122 0.088,0.176 0.223,0.19c0.156,0.02 0.183,0 0.183,-0.149c0,-0.21 0.29,-0.446 0.54,-0.446c0.102,0 0.298,0.074 0.433,0.169c0.135,0.094 0.256,0.169 0.27,0.169c0.007,0 0.108,-0.223 0.209,-0.487c0.108,-0.27 0.23,-0.54 0.284,-0.594c0.129,-0.135 0.223,-0.014 0.46,0.588c0.101,0.27 0.202,0.493 0.209,0.493c0.014,0 0.135,-0.081 0.277,-0.176c0.203,-0.135 0.311,-0.169 0.514,-0.142c0.331,0.048 0.452,0.149 0.452,0.399c0,0.176 0.021,0.196 0.183,0.176c0.135,-0.014 0.196,-0.068 0.223,-0.19c0.04,-0.162 0.061,-0.169 0.743,-0.202l0.709,-0.034l0.034,-0.372l0.034,-0.371l0.493,-0.021c0.453,-0.02 0.5,-0.033 0.554,-0.182c0.061,-0.162 0.081,-0.169 0.804,-0.169c0.885,0 0.906,0.014 0.872,0.73l-0.02,0.452l-0.507,0.034l-0.507,0.034l-0.034,0.405l-0.033,0.406l-0.71,0.034l-0.709,0.033l-0.034,0.372l-0.034,0.372l-0.709,0.033c-0.406,0.021 -0.71,0.061 -0.71,0.102c0,0.04 0.156,0.128 0.338,0.202c0.399,0.163 0.507,0.223 0.507,0.305c0,0.148 -0.831,0.5 -1.554,0.655c-0.095,0.02 -0.291,0.095 -0.446,0.162c-0.149,0.068 -0.325,0.128 -0.385,0.128c-0.061,0 -0.277,0.075 -0.48,0.169c-0.203,0.095 -0.412,0.169 -0.46,0.169c-0.054,0 -0.121,0.027 -0.155,0.061c-0.04,0.041 -0.189,0.095 -0.338,0.135c-0.148,0.034 -0.574,0.169 -0.946,0.304c-0.371,0.135 -0.919,0.311 -1.216,0.385c-0.297,0.082 -0.567,0.169 -0.608,0.196c-0.034,0.027 -0.155,0.068 -0.27,0.088c-0.108,0.02 -0.412,0.102 -0.676,0.183c-0.257,0.081 -0.703,0.202 -0.98,0.277c-0.277,0.074 -0.533,0.162 -0.574,0.189c-0.034,0.034 -0.196,0.074 -0.358,0.101c-0.216,0.034 -0.297,0.02 -0.324,-0.054ZM7.892,8.064c0.108,0 0.149,-0.04 0.149,-0.148c0,-0.082 0.06,-0.21 0.135,-0.291l0.135,-0.149l-0.135,-0.121c-0.075,-0.068 -0.135,-0.196 -0.135,-0.284c0,-0.115 -0.041,-0.155 -0.156,-0.155c-0.088,0 -0.216,-0.061 -0.284,-0.136l-0.121,-0.135l-0.149,0.135c-0.081,0.075 -0.209,0.136 -0.29,0.136c-0.102,0 -0.136,0.027 -0.102,0.108c0.02,0.06 -0.034,0.175 -0.142,0.29c-0.175,0.189 -0.175,0.189 -0.04,0.311c0.074,0.068 0.135,0.196 0.135,0.284c0,0.115 0.04,0.155 0.155,0.155c0.088,0 0.217,0.061 0.284,0.135l0.122,0.135l0.148,-0.135c0.081,-0.074 0.21,-0.135 0.291,-0.135Z" style="fill:#b18f59;fill-rule:nonzero;"/></g><g id="layer4"><path d="M1.041,10.807c-0.082,-0.216 0.006,-0.344 0.243,-0.364c0.128,-0.014 0.263,-0.048 0.304,-0.082c0.04,-0.033 0.297,-0.121 0.574,-0.195c0.277,-0.075 0.73,-0.196 1.007,-0.277c0.534,-0.149 0.642,-0.129 0.601,0.141c-0.013,0.109 -0.081,0.176 -0.223,0.217c-0.108,0.033 -0.256,0.087 -0.317,0.121c-0.068,0.034 -0.162,0.061 -0.216,0.061c-0.095,0 -0.453,0.101 -1.217,0.345c-0.486,0.155 -0.709,0.162 -0.756,0.033Z" style="fill:#bc9b64;fill-rule:nonzero;"/><path d="M12.412,10.787c-0.061,-0.054 0.081,-0.223 0.189,-0.223c0.048,0 0.331,-0.108 0.635,-0.236c0.318,-0.135 0.561,-0.203 0.582,-0.162c0.027,0.033 -0.136,0.141 -0.352,0.236c-0.216,0.095 -0.513,0.23 -0.669,0.304c-0.304,0.142 -0.324,0.149 -0.385,0.081Z" style="fill:#bc9b64;fill-rule:nonzero;"/><path d="M4.095,9.767c-0.068,-0.115 0.081,-0.203 0.601,-0.338c0.297,-0.081 0.845,-0.257 1.216,-0.392c0.372,-0.135 0.797,-0.27 0.946,-0.304c0.149,-0.04 0.297,-0.094 0.331,-0.135c0.041,-0.034 0.108,-0.061 0.162,-0.061c0.048,0 0.257,-0.074 0.467,-0.176c0.209,-0.094 0.473,-0.189 0.587,-0.209c0.115,-0.02 0.271,-0.074 0.345,-0.122c0.074,-0.047 0.23,-0.101 0.338,-0.121c0.486,-0.088 1.034,-0.277 1.317,-0.446c0.237,-0.142 0.345,-0.176 0.467,-0.135c0.27,0.101 0.135,0.263 -0.413,0.473c-0.391,0.155 -0.52,0.236 -0.54,0.344c-0.014,0.108 -0.115,0.169 -0.426,0.264c-0.223,0.067 -0.459,0.155 -0.52,0.196c-0.068,0.034 -0.196,0.067 -0.284,0.067c-0.094,0 -0.182,0.027 -0.203,0.061c-0.02,0.034 -0.148,0.081 -0.283,0.108c-0.135,0.02 -0.298,0.068 -0.358,0.102c-0.142,0.074 -0.804,0.29 -1.392,0.466c-0.325,0.088 -0.575,0.121 -0.791,0.094c-0.297,-0.033 -0.324,-0.027 -0.392,0.142c-0.061,0.169 -0.081,0.176 -0.601,0.176c-0.297,0 -0.554,-0.027 -0.574,-0.054Z" style="fill:#bc9b64;fill-rule:nonzero;"/><path d="M5.743,9.611c0,-0.033 0.034,-0.047 0.068,-0.027c0.04,0.021 0.067,0.055 0.067,0.075c0,0.013 -0.027,0.027 -0.067,0.027c-0.034,0 -0.068,-0.034 -0.068,-0.075Z" style="fill:#bc9b64;fill-rule:nonzero;"/><path d="M1.061,4.166c-0.068,-0.061 -0.061,-2.034 0.007,-2.061c0.027,-0.014 0.398,-0.007 0.824,0.013l0.777,0.034l0,1.824l-0.676,0.021c-0.473,0.013 -0.702,0.047 -0.777,0.114c-0.061,0.055 -0.135,0.082 -0.155,0.055Z" style="fill:#bc9b64;fill-rule:nonzero;"/><path d="M13.784,4.111c-0.061,-0.067 -0.264,-0.101 -0.764,-0.114l-0.689,-0.021l0,-0.912l0,-0.912l0.777,-0.034c0.426,-0.02 0.797,-0.027 0.831,-0.013c0.068,0.034 0.061,2.027 -0.013,2.067c-0.034,0.021 -0.095,-0.006 -0.142,-0.061Z" style="fill:#bc9b64;fill-rule:nonzero;"/><path d="M7.399,4.084c-0.048,-0.081 0.081,-0.162 0.169,-0.108c0.074,0.048 0.027,0.169 -0.068,0.169c-0.034,0 -0.074,-0.027 -0.101,-0.061Z" style="fill:#bc9b64;fill-rule:nonzero;"/></g><path id="layer5" d="M0.574,13.747c-0.054,-0.095 0.304,-0.25 1.021,-0.446c0.554,-0.149 0.709,-0.169 1.277,-0.129c0.986,0.075 0.932,0.156 -0.304,0.467c-0.69,0.175 -1.906,0.236 -1.994,0.108Z" style="fill:#c29f5b;fill-rule:nonzero;"/><g id="layer6"><path d="M1.041,11.28c-0.021,-0.054 -0.027,-0.175 -0.014,-0.277c0.02,-0.162 0.074,-0.196 0.561,-0.344c0.297,-0.095 0.689,-0.21 0.871,-0.264c0.176,-0.054 0.372,-0.101 0.419,-0.101c0.054,0 0.149,-0.027 0.217,-0.061c0.223,-0.108 0.574,-0.203 0.628,-0.169c0.034,0.02 0.061,0.129 0.061,0.237c0,0.236 -0.183,0.331 -0.642,0.331c-0.216,0 -0.378,0.054 -0.595,0.202c-0.162,0.109 -0.466,0.237 -0.662,0.277c-0.203,0.041 -0.446,0.122 -0.547,0.169c-0.23,0.115 -0.25,0.115 -0.297,0Z" style="fill:#c29e64;fill-rule:nonzero;"/><path d="M12.331,10.767c-0.047,-0.081 0.331,-0.338 0.487,-0.338c0.067,0 0.155,-0.027 0.196,-0.061c0.033,-0.04 0.135,-0.074 0.229,-0.088c0.095,-0.013 0.271,-0.081 0.399,-0.148c0.162,-0.088 0.243,-0.102 0.297,-0.048c0.054,0.055 0.007,0.095 -0.162,0.156c-0.128,0.04 -0.243,0.074 -0.263,0.074c-0.021,0 -0.115,0.054 -0.217,0.122c-0.094,0.067 -0.223,0.128 -0.27,0.128c-0.054,0 -0.122,0.02 -0.149,0.047c-0.087,0.088 -0.513,0.21 -0.547,0.156Z" style="fill:#c29e64;fill-rule:nonzero;"/><path d="M5.709,9.753c-0.114,-0.189 0.122,-0.331 0.994,-0.601c0.493,-0.155 0.946,-0.311 1.006,-0.345c0.061,-0.033 0.223,-0.081 0.359,-0.101c0.135,-0.027 0.263,-0.074 0.283,-0.108c0.021,-0.034 0.135,-0.061 0.257,-0.061c0.115,0 0.243,-0.027 0.284,-0.067c0.094,-0.095 0.892,-0.338 1.115,-0.338c0.216,0 0.304,0.088 0.175,0.182c-0.094,0.081 -0.743,0.291 -0.878,0.291c-0.054,0 -0.23,0.074 -0.392,0.162c-0.169,0.088 -0.5,0.223 -0.736,0.311c-0.244,0.081 -0.473,0.182 -0.521,0.216c-0.135,0.108 -1.033,0.311 -1.074,0.243c-0.02,-0.034 -0.108,0.014 -0.196,0.115c-0.169,0.176 -0.588,0.243 -0.676,0.101Z" style="fill:#c29e64;fill-rule:nonzero;"/><path d="M10.885,7.497c-0.047,-0.054 -0.054,-0.115 -0.02,-0.136c0.04,-0.02 0.101,0.007 0.142,0.055c0.047,0.054 0.054,0.114 0.02,0.135c-0.041,0.02 -0.101,-0.007 -0.142,-0.054Z" style="fill:#c29e64;fill-rule:nonzero;"/><path d="M1.047,2.172c-0.013,-0.047 -0.033,-0.162 -0.047,-0.256c-0.02,-0.163 -0.047,-0.169 -0.507,-0.19l-0.493,-0.02l0,-0.263l0,-0.271l4.669,0l-0.02,0.257l-0.021,0.25l-0.946,0.034l-0.946,0.034l-0.033,0.236l-0.034,0.237l-0.797,0.02c-0.602,0.013 -0.798,-0.007 -0.825,-0.068Z" style="fill:#c29e64;fill-rule:nonzero;"/><path d="M12.331,2.172c-0.013,-0.047 -0.034,-0.162 -0.047,-0.256l-0.02,-0.169l-0.946,-0.034l-0.946,-0.034l-0.021,-0.257l-0.02,-0.25l4.669,0l0,0.534l-0.486,0.02l-0.494,0.021l-0.034,0.236l-0.033,0.237l-0.798,0.02c-0.601,0.013 -0.797,-0.007 -0.824,-0.068Z" style="fill:#c29e64;fill-rule:nonzero;"/></g><g id="layer7"><path d="M0,13.517l0,-0.311l0.493,-0.02c0.446,-0.02 0.487,-0.034 0.507,-0.169c0.014,-0.081 0.149,-0.243 0.297,-0.358c0.264,-0.189 0.311,-0.203 0.825,-0.183l0.547,0.014l0.02,0.358c0.014,0.243 -0.007,0.358 -0.067,0.378c-0.048,0.014 -0.379,0.088 -0.73,0.176c-0.351,0.081 -0.73,0.196 -0.845,0.25c-0.108,0.054 -0.392,0.115 -0.621,0.135l-0.426,0.041l0,-0.311Z" style="fill:#c7a45e;fill-rule:nonzero;"/><path d="M1.081,11.436c0,-0.034 0.034,-0.047 0.068,-0.027c0.04,0.02 0.067,0.054 0.067,0.074c0,0.014 -0.027,0.027 -0.067,0.027c-0.034,0 -0.068,-0.034 -0.068,-0.074Z" style="fill:#c7a45e;fill-rule:nonzero;"/><path d="M1.182,11.307c-0.02,-0.033 0.007,-0.067 0.068,-0.067c0.061,0 0.088,0.034 0.068,0.067c-0.021,0.041 -0.054,0.068 -0.068,0.068c-0.014,0 -0.047,-0.027 -0.068,-0.068Z" style="fill:#c7a45e;fill-rule:nonzero;"/></g><g id="layer8"><path d="M7.5,9.22c-0.088,-0.169 -0.034,-0.203 0.378,-0.244c0.19,-0.02 0.379,-0.087 0.467,-0.169c0.081,-0.074 0.196,-0.135 0.256,-0.135c0.061,0 0.23,-0.061 0.365,-0.135c0.142,-0.074 0.311,-0.135 0.372,-0.135c0.067,0 0.304,-0.061 0.52,-0.142c0.406,-0.135 1,-0.155 0.973,-0.034c-0.007,0.041 -0.176,0.108 -0.372,0.156c-0.195,0.047 -0.452,0.135 -0.574,0.189c-0.115,0.054 -0.27,0.101 -0.344,0.101c-0.082,0 -0.156,0.027 -0.176,0.061c-0.02,0.034 -0.149,0.081 -0.284,0.101c-0.135,0.027 -0.358,0.109 -0.507,0.183c-0.142,0.081 -0.29,0.122 -0.331,0.094c-0.054,-0.033 -0.304,0.055 -0.621,0.217c-0.027,0.013 -0.081,-0.034 -0.122,-0.108Z" style="fill:#bda170;fill-rule:nonzero;"/></g><g id="layer10"><path d="M1.054,12.943c-0.02,-0.021 -0.04,-0.413 -0.04,-0.865l0,-0.831l0.189,-0.102c0.101,-0.054 0.311,-0.115 0.452,-0.142c0.149,-0.027 0.399,-0.108 0.554,-0.182c0.467,-0.23 0.494,-0.189 0.494,0.818c0,1.033 0.013,1.02 -0.737,1.02c-0.263,0 -0.48,0.027 -0.48,0.061c0,0.081 -0.385,0.277 -0.432,0.223Z" style="fill:#cbab6e;fill-rule:nonzero;"/><path d="M7.412,11.057c-0.034,-0.054 -0.371,-0.905 -0.473,-1.189c-0.047,-0.115 -0.061,-0.115 -0.257,0.048c-0.229,0.195 -0.628,0.236 -0.837,0.081c-0.163,-0.122 -0.088,-0.311 0.128,-0.311c0.095,0 0.189,-0.027 0.209,-0.068c0.021,-0.034 0.095,-0.067 0.163,-0.067c0.067,0 0.155,-0.041 0.196,-0.088c0.04,-0.047 0.168,-0.095 0.283,-0.102c0.122,-0.006 0.392,-0.081 0.602,-0.155c0.209,-0.074 0.5,-0.169 0.648,-0.209c0.149,-0.041 0.352,-0.108 0.446,-0.163c0.095,-0.047 0.304,-0.108 0.46,-0.135c0.155,-0.027 0.297,-0.074 0.317,-0.101c0.021,-0.034 0.088,-0.061 0.149,-0.061c0.061,0 0.189,-0.04 0.284,-0.088c0.297,-0.155 0.817,-0.27 1.243,-0.277l0.412,-0.006l0.034,0.371c0.034,0.365 0.034,0.372 0.27,0.392c0.129,0.014 0.264,0.047 0.291,0.074c0.034,0.034 -0.034,0.19 -0.149,0.358c-0.196,0.291 -0.203,0.318 -0.142,0.737c0.034,0.236 0.034,0.459 0.007,0.486c-0.034,0.034 -0.142,0.048 -0.25,0.034c-0.182,-0.02 -0.196,-0.04 -0.23,-0.392l-0.034,-0.371l-0.696,-0.021c-0.668,-0.02 -0.695,-0.027 -0.756,-0.182c-0.048,-0.122 -0.115,-0.169 -0.237,-0.169c-0.142,0 -0.169,0.034 -0.169,0.189c0,0.433 -0.615,0.575 -1.013,0.244c-0.196,-0.169 -0.216,-0.169 -0.243,-0.055c-0.021,0.075 -0.136,0.372 -0.257,0.663c-0.203,0.506 -0.318,0.662 -0.399,0.533Z" style="fill:#cbab6e;fill-rule:nonzero;"/><path d="M12.331,10.699c-0.047,-0.074 0.054,-0.142 0.831,-0.533c0.385,-0.19 0.73,-0.332 0.764,-0.311c0.108,0.074 0.067,0.229 -0.088,0.331c-0.243,0.155 -1.466,0.581 -1.507,0.513Z" style="fill:#cbab6e;fill-rule:nonzero;"/><path d="M3.277,10.564c-0.02,-0.034 0,-0.088 0.061,-0.108c0.142,-0.054 0.412,-0.007 0.412,0.074c0,0.095 -0.419,0.129 -0.473,0.034Z" style="fill:#cbab6e;fill-rule:nonzero;"/></g><g id="layer12"><path d="M12.331,10.639c-0.034,-0.055 1.385,-0.784 1.48,-0.757c0.142,0.027 0.007,0.135 -0.466,0.365c-0.784,0.392 -0.967,0.459 -1.014,0.392Z" style="fill:#d1b88d;fill-rule:nonzero;"/><path d="M11.622,10.53c-0.163,-0.196 -0.169,-0.804 -0.014,-1.135c0.176,-0.371 0.358,-0.466 0.858,-0.439c0.358,0.02 0.406,0.041 0.426,0.169c0.013,0.108 -0.034,0.176 -0.183,0.25c-0.324,0.169 -0.533,0.5 -0.56,0.885c-0.021,0.324 -0.027,0.338 -0.23,0.358c-0.128,0.014 -0.243,-0.02 -0.297,-0.088Z" style="fill:#d1b88d;fill-rule:nonzero;"/></g><path id="layer14" d="M12.02,10.449c-0.101,-0.263 -0.034,-0.601 0.176,-0.871c0.189,-0.25 0.54,-0.467 0.642,-0.399c0.115,0.068 0.074,0.426 -0.054,0.52c-0.169,0.129 -0.352,0.433 -0.352,0.595c0,0.182 0.115,0.149 0.811,-0.21c0.311,-0.162 0.527,-0.236 0.568,-0.195c0.081,0.081 -1.27,0.743 -1.527,0.743c-0.149,0 -0.21,-0.041 -0.264,-0.183Z" style="fill:#dbc49a;fill-rule:nonzero;"/><g id="layer15"><path d="M12.277,10.524c-0.149,-0.149 0.243,-0.973 0.466,-0.973c0.189,0 0.189,0.209 0.007,0.358c-0.216,0.175 -0.284,0.5 -0.095,0.466c0.061,-0.014 0.115,0.014 0.115,0.054c0,0.041 -0.027,0.061 -0.061,0.034c-0.033,-0.02 -0.081,-0.007 -0.108,0.034c-0.047,0.074 -0.256,0.094 -0.324,0.027Z" style="fill:#d9c9b1;fill-rule:nonzero;"/><path d="M13.351,10.098c-0.02,-0.034 0.034,-0.108 0.129,-0.169c0.162,-0.108 0.304,-0.04 0.148,0.074c-0.162,0.129 -0.243,0.156 -0.277,0.095Z" style="fill:#d9c9b1;fill-rule:nonzero;"/></g><path id="layer16" d="M12.392,10.47c-0.128,-0.331 0.257,-0.933 0.466,-0.723c0.041,0.04 0.216,0.074 0.392,0.074c0.541,0 0.5,0.169 -0.115,0.466c-0.581,0.277 -0.696,0.304 -0.743,0.183ZM13.074,10.091c0.021,-0.04 -0.006,-0.047 -0.06,-0.027c-0.122,0.047 -0.142,0.095 -0.048,0.095c0.041,0 0.088,-0.027 0.108,-0.068Z" style="fill:#e4d4b6;fill-rule:nonzero;"/><g id="layer18"><path d="M12.669,10.287c-0.074,-0.115 0.243,-0.398 0.446,-0.398c0.27,0 0.317,0.135 0.101,0.317c-0.189,0.162 -0.473,0.21 -0.547,0.081Z" style="fill:#e7dccc;fill-rule:nonzero;"/></g></g></svg>