<svg xmlns="http://www.w3.org/2000/svg" id="Livello_1" x="0" y="0" version="1.1" viewBox="0 0 200 200" xml:space="preserve"><style>.st2{fill:#283947}.st3{fill:#657786}</style><linearGradient id="SVGID_1_" x1="82.7" x2="82.7" y1="195" y2="5" gradientUnits="userSpaceOnUse"><stop offset="0" stop-color="#966fe7"/><stop offset="1" stop-color="#00d18f"/></linearGradient><path fill="url(#SVGID_1_)" d="M140.4 153.4c-11.2 8.5-25.3 13.6-40.4 13.6-36.9 0-67-30.1-67-67s30.1-67 67-67c14.6 0 28.2 4.7 39.2 12.7l19.6-20.4C142.6 12.6 122.2 5 100 5 47.5 5 5 47.5 5 100s42.5 95 95 95c22.9 0 44-8.1 60.4-21.6l-20-20z"/><path fill="#aab8c1" d="M100 88.4l-25 12.3 25 14.6 25-14.6z"/><path d="M100 60l-25 40.7 32.8-14.6L100 60z" class="st2"/><path d="M100 60v29.6l25 11.2L100 60z" class="st3"/><path d="M100 140l3.2-18.3L75 105.4l25 34.6z" class="st2"/><path d="M100 119.9V140l25-34.6-25 14.5z" class="st3"/></svg>