<svg xmlns="http://www.w3.org/2000/svg" viewBox="0 0 200 200"><path d="M121.2 10.1c.3-2 .4-3.5.6-5.1h21.1v37.2c-6.7 1.9-13.6 4-20.8 6-.3-1.9-.4-3.3-.7-4.7-1.1-5.8-4.3-9.7-10.1-11.3-13.9-4.1-26.2 3.3-29 17.5-.6 2.8-.9 5.8-.9 8.8-.1 15.2-.1 30.3 0 45.5 0 1.9.1 3.9.2 5.8.8 8.8 2.1 9.8 10.7 8.5 16.8-2.6 33.4-5.3 50.9-8.1 0 7.4.1 14.5-.1 21.5 0 .9-1.7 2.4-2.7 2.6-20.6 3.6-41 7.6-61.7 10.3C68 146.4 62 141.3 59 130.8c-1.1-3.9-2-8-2-12-.2-22.6-.3-45.3-.1-67.9 0-4.7 1.1-9.5 2.3-13.9C68 6.5 98.1 1.1 116.7 8.4c1.5.4 2.7 1 4.5 1.7zM143 160.4v21.1c-27.1 4.5-54.3 9-81.9 13.6v-21.2c27.1-4.4 54.3-8.9 81.9-13.5z"/></svg>