<svg xmlns="http://www.w3.org/2000/svg" id="Livello_1" x="0" y="0" version="1.0" viewBox="0 0 200 200" xml:space="preserve"><style>.st0{fill:#fff}</style><circle cx="100" cy="100" r="87.5" class="st0"/><path fill="#004a84" d="M100 20c44.1 0 80 35.9 80 80s-35.9 80-80 80-80-35.9-80-80 35.9-80 80-80m0-15C47.5 5 5 47.5 5 100s42.5 95 95 95 95-42.5 95-95-42.5-95-95-95z"/><g><circle cx="100" cy="100" r="44" class="st0"/><path d="M100 60c22.1 0 40 17.9 40 40s-17.9 40-40 40-40-17.9-40-40 17.9-40 40-40m0-8c-26.5 0-48 21.5-48 48s21.5 48 48 48 48-21.5 48-48-21.5-48-48-48z"/></g></svg>