<svg xmlns="http://www.w3.org/2000/svg" viewBox="0 0 200 200"><g fill-rule="evenodd" clip-rule="evenodd"><path fill="#59efec" d="M9.7 153.7c-3.6 0-5.9-4.3-4.1-7.8l46.1-91.6c2.5-5 7.2-8 12.3-8h21.3c3.6 0 5.9 4.3 4.1 7.8l-46.1 91.6c-2.5 5-7.2 8-12.3 8H9.7z"/><path fill="#d98041" d="M94.7 153.7H73.4c-3.6 0-5.9-4.3-4.1-7.8l46.1-91.6c2.5-5 7.2-8 12.3-8H149c3.6 0 5.9 4.3 4.1 7.8L107 145.7c-2.5 4.9-7.2 8-12.3 8"/><path fill="#333" d="M152.6 82l-11 21c-2.4 4.7-2.4 10.3 0 15l14.6 27.9c2.5 4.8 7.3 7.8 12.5 7.8h21.6c3.6 0 5.9-4.2 4.2-7.6L160.9 82c-1.9-3.5-6.5-3.5-8.3 0"/></g></svg>