<svg xmlns="http://www.w3.org/2000/svg" id="Livello_1" x="0" y="0" version="1.1" viewBox="0 0 200 200" xml:space="preserve"><style>.st0{fill:#3861ab}</style><path d="M171.7 125.8c2 4.1 3.8 7.5 5.4 11.2 1 2.4 2.1 3.2 4.6 1.8 3.5-1.9 7.1-3.5 10.8-5 2.6-1.1 3.1-2.2 1.8-4.9-7.4-15.4-14.7-30.8-22-46.2-6.5-13.6-13-27.3-19.5-40.9-1.6-3.5-1.7-3.4-5.2-1.7-3.4 1.6-6.7 3.4-10.2 4.8-2.6 1.1-3 2.3-1.8 4.9 7.5 15.5 14.8 31 22.1 46.5 3.5 7.4 6.4 15 6.1 23.4-.6 15.3-17.8 25.4-30.6 17.7-4.9-2.9-8.2-7.5-10.6-12.6-9.1-19.1-18.2-38.2-27.2-57.3-3.1-6.6-6.8-12.8-11.9-18.1-5.9-6.1-13-9.7-21.6-8.9-16.7 1.5-32.3 13.6-32.4 31 0 .7.1 1.8-1 1.9-.8.1-1-.8-1.3-1.4-1.6-3.2-3.2-6.4-4.6-9.7-.8-1.7-1.8-2.1-3.5-1.3-4.1 2-8.2 4-12.4 5.9-2 .9-2.1 1.9-1.2 3.7 2 3.9 3.8 7.9 5.6 11.8 12.1 25.4 24.2 50.7 36.1 76.1 1.1 2.4 2.2 3.1 4.7 1.8 3.5-1.9 7.1-3.5 10.8-5 2.7-1.1 2.9-2.4 1.7-5-7.3-15-14.4-30.1-21.5-45.2-3.1-6.6-5.8-13.2-6.6-20.6-.9-9.2 2.2-16.4 10-21.3 9.8-6.2 18.4-4.9 25.9 3.9 2.4 2.8 4.3 5.9 5.9 9.2l28.5 59.7c2.8 5.9 6.6 11.1 11.6 15.4 8.5 7.5 18.2 10 29 6 12.7-4.6 21.8-12.6 23.3-27 .3-1.1 0-2.5 1.2-4.6z" class="st0"/><path d="M171.7 125.8c-1.2 2.1-.9 3.5-1 4.8-1.5 14.4-10.6 22.3-23.3 27-10.8 3.9-20.5 1.4-29-6-4.9-4.3-8.7-9.5-11.6-15.4L78.3 76.5c-1.6-3.3-3.5-6.4-5.9-9.2-7.5-8.8-16.1-10.2-25.9-3.9-7.8 5-10.9 12.1-10 21.3.7 7.4 3.5 14 6.6 20.6 7.1 15.1 14.2 30.2 21.5 45.2 1.2 2.5 1 3.9-1.7 5-3.7 1.5-7.3 3.2-10.8 5-2.5 1.3-3.6.6-4.7-1.8-12-25.4-24.1-50.8-36.1-76.1-1.9-3.9-3.7-7.9-5.6-11.8-.9-1.8-.8-2.8 1.2-3.7 4.2-1.8 8.3-3.8 12.4-5.9 1.7-.9 2.7-.5 3.5 1.3 1.5 3.3 3.1 6.5 4.6 9.7.3.6.5 1.5 1.3 1.4 1.1-.1 1-1.1 1-1.9 0-17.4 15.7-29.5 32.4-31 8.5-.8 15.7 2.8 21.6 8.9 5.1 5.3 8.8 11.5 11.9 18.1 9 19.1 18.1 38.2 27.2 57.3 2.4 5.1 5.7 9.6 10.6 12.6 12.8 7.6 30-2.4 30.6-17.7.3-8.4-2.6-16-6.1-23.4-7.3-15.5-14.6-31.1-22.1-46.5-1.3-2.6-.9-3.8 1.8-4.9 3.5-1.4 6.8-3.2 10.2-4.8 3.6-1.7 3.6-1.7 5.2 1.7 6.5 13.6 13 27.2 19.5 40.9 7.3 15.4 14.6 30.9 22 46.2 1.3 2.7.8 3.8-1.8 4.9-3.7 1.5-7.3 3.1-10.8 5-2.5 1.4-3.6.6-4.6-1.8-1.8-3.9-3.6-7.3-5.6-11.4z" class="st0"/></svg>