<svg xmlns="http://www.w3.org/2000/svg" id="Livello_1" x="0" y="0" version="1.0" viewBox="0 0 200 200" xml:space="preserve"><style>.st0{fill:#122033}.st1{fill:#bf9e5b}</style><circle cx="100" cy="100" r="95" class="st0"/><circle cx="100" cy="100" r="70" class="st1"/><path d="M100 99.6l23.9 23.9-23.9 23.9-23.9-23.9L100 99.6m0-4.2l-28.1 28.1 28.1 28.1 28.1-28.1L100 95.4z" class="st0"/><path d="M66.3 118.8L47.5 100 100 47.5l52.5 52.5-18.7 18.8L100 85z" class="st0"/><path d="M100 190.5c-49.9 0-90.5-40.6-90.5-90.5S50.1 9.5 100 9.5s90.5 40.6 90.5 90.5-40.6 90.5-90.5 90.5zm0-180c-49.4 0-89.5 40.1-89.5 89.5s40.1 89.5 89.5 89.5 89.5-40.1 89.5-89.5-40.1-89.5-89.5-89.5z" class="st1"/><path d="M100 193c-51.3 0-93-41.7-93-93S48.7 7 100 7s93 41.7 93 93-41.7 93-93 93zm0-185C49.3 8 8 49.3 8 100s41.3 92 92 92 92-41.3 92-92-41.3-92-92-92z" class="st1"/></svg>