<svg xmlns="http://www.w3.org/2000/svg" viewBox="0 0 200 200"><path d="M32.2 32.2c-9.4 0-18.3 1.9-26.4 5.4V69c7-6.1 16.2-9.8 26.3-9.8 22.2 0 40.2 18 40.2 40.2 0 22.2-18 40.2-40.2 40.2-10.1 0-19.2-3.7-26.3-9.8v31.4c8.1 3.5 17.1 5.4 26.4 5.4 37.1 0 67.2-30.1 67.2-67.2.1-37.1-30-67.2-67.2-67.2z"/><path d="M145.2 99.4c0 40.2-21 75.5-52.7 95.6H5.8v-19.3c8.3 2.9 17.2 4.4 26.4 4.4 44.5 0 80.7-36.1 80.7-80.7S76.7 18.7 32.2 18.7c-9.3 0-18.2 1.6-26.4 4.4V5h88.4c30.7 20.2 51 54.9 51 94.4z"/><path d="M194.2 5.3V195h-82.3c27.6-22.7 45.1-57.1 45.1-95.6 0-37.7-16.8-71.4-43.4-94.1h80.6z"/></svg>