<?xml version="1.0" encoding="utf-8"?>
<!-- Generator: Adobe Illustrator 22.0.1, SVG Export Plug-In . SVG Version: 6.00 Build 0)  -->
<svg version="1.1" id="Laag_1" xmlns="http://www.w3.org/2000/svg" xmlns:xlink="http://www.w3.org/1999/xlink" x="0px" y="0px"
	 viewBox="0 0 1190.6 841.9" style="enable-background:new 0 0 1190.6 841.9;" xml:space="preserve">
<style type="text/css">
	.st0{fill:#F9B342;}
	.st1{fill:#3C3C3B;}
	.st2{fill:url(#SVGID_1_);}
	.st3{fill:#EE7203;}
	.st4{fill:#F39325;}
</style>
<path class="st0" d="M209,317.8L135,391.8c-9.3,9.3-9.3,24.6,0,33.9l11.9,11.9L277,358.9L209,317.8z"/>
<path class="st1" d="M927.5,485h-44.3l-43.5-48.8L798.3,485h-46.5l57.2-65.9c4.3-4.8,4.4-13,0.1-18.7l-54.3-62h46.2l38.7,45l40.8-45
	h44.2l-52.2,62c-4.3,5.7-4.3,13.3,0,18.6L927.5,485z"/>
<path class="st1" d="M1066.1,485H960.3c-10,0-18.1-8.1-18.1-18.1V356.6c0-10,8.1-18.1,18.1-18.1h105.8v32.1h-85.8v24.5h73.2v32.1
	h-73.2V453h85.8V485z"/>
<linearGradient id="SVGID_1_" gradientUnits="userSpaceOnUse" x1="127.9944" y1="451.7357" x2="359.1923" y2="451.7357">
	<stop  offset="0" style="stop-color:#333333"/>
	<stop  offset="0.1196" style="stop-color:#252525"/>
	<stop  offset="0.3507" style="stop-color:#111111"/>
	<stop  offset="0.579" style="stop-color:#040404"/>
	<stop  offset="0.7993" style="stop-color:#000000"/>
</linearGradient>
<path class="st2" d="M243.6,427.2v-48.1l-96.8,58.5l79.8,79.8c9.3,9.3,24.6,9.3,33.9,0l50-50l0-40.2H243.6z"/>
<path class="st3" d="M359.2,407.9c0-0.5,0-1.1-0.1-1.6c0-0.2-0.1-0.4-0.1-0.7c-0.1-0.5-0.1-1.1-0.2-1.6c0-0.2-0.1-0.5-0.2-0.7
	c-0.1-0.5-0.2-1-0.4-1.5c-0.1-0.2-0.2-0.5-0.3-0.7c-0.2-0.5-0.3-1-0.5-1.4c-0.1-0.3-0.3-0.5-0.4-0.8c-0.2-0.4-0.4-0.9-0.6-1.3
	c-0.2-0.3-0.4-0.6-0.6-0.9c-0.2-0.4-0.4-0.7-0.6-1.1c-0.3-0.4-0.6-0.8-0.8-1.1c-0.2-0.3-0.4-0.5-0.6-0.8c-0.5-0.6-1-1.2-1.6-1.8
	l-41.7-41.7v117.3l41.7-41.7c4.7-4.7,7-11,7-17.2C359.2,408.4,359.2,408.1,359.2,407.9z"/>
<g>
	<path class="st1" d="M696.6,432.6c-0.3,4.2-0.6,7.1-1.1,8.8c-0.4,1.7-1.2,3.4-2.4,5.2c-3.7,5.5-9.5,8.2-17.3,8.2l-22.6-0.1
		c-7.9,0-13.6-2.7-17.3-8.2c-1.1-1.7-1.9-3.5-2.4-5.2c-0.4-1.7-0.8-4.6-1.1-8.8c-0.2-3.5-0.4-71.2-0.4-93.7h-39v87.5
		c0,7.1,0.3,13.2,1,18.1c0.6,5,2.1,9.9,4.3,14.8c2.2,4.9,5.6,9.5,10,14c9.6,9.6,22.7,14.4,39.5,14.4l33.5,0.1
		c16.7,0,29.9-4.8,39.5-14.4c4.5-4.5,7.8-9.2,10-14c2.2-4.9,3.6-9.8,4.3-14.8c0.6-5,1-11,1-18.1v-87.6h-39
		C696.9,361.7,696.8,429.1,696.6,432.6z"/>
</g>
<path class="st1" d="M527.2,399.2V485h38.1V338.8l-37.5,0l-52.4,56.6l-52.3-56.6l-37.5,0V485h38.1v-85.8l38.9,39.8
	c7.1,7.1,18.5,7.1,25.6,0L527.2,399.2z"/>
<path class="st4" d="M260.5,300.2c-1.2-1.2-2.4-2.2-3.8-3.1c-2-1.3-4.1-2.3-6.4-2.9c-1.5-0.4-3-0.7-4.5-0.9
	c-0.8-0.1-1.5-0.1-2.3-0.1c0,0-0.1,0-0.1,0c-6.1,0-12.2,2.4-16.8,7L209,317.8l101.5,61.3v-29L260.5,300.2z"/>
</svg>
