<?xml version="1.0" encoding="utf-8"?>
<!-- Generator: Adobe Illustrator 22.1.0, SVG Export Plug-In . SVG Version: 6.00 Build 0)  -->
<svg version="1.1" id="Livello_1" xmlns="http://www.w3.org/2000/svg" xmlns:xlink="http://www.w3.org/1999/xlink" x="0px" y="0px"
	 viewBox="0 0 200 200" style="enable-background:new 0 0 200 200;" xml:space="preserve">
<style type="text/css">
	.st0{fill:url(#Fill-1_1_);}
	.st1{fill:url(#Fill-4_1_);}
</style>
<g>
	<title>Logo</title>
	<desc>Created with Sketch.</desc>
	<g id="Page-1">
		<g id="Extra-Small-Devices:-Phones---2-Col-Copy" transform="translate(-23.000000, -26.000000)">
			<g id="Logo" transform="translate(23.000000, 26.000000)">
				
					<linearGradient id="Fill-1_1_" gradientUnits="userSpaceOnUse" x1="1.4295" y1="200.6435" x2="4.5446" y2="196.1526" gradientTransform="matrix(25.8063 0 0 -40.9854 -12.4032 8218.0645)">
					<stop  offset="0" style="stop-color:#5EE0FE"/>
					<stop  offset="1" style="stop-color:#0293D1"/>
				</linearGradient>
				<path id="Fill-1" class="st0" d="M92.9,191.9c-14.5,0-27.7-8.9-33-22.4L14.8,55.8c-1.5-4-2.3-8.2-2.3-12.5
					c0-19.5,16-35.5,35.5-35.5c14.3,0,27.2,8.6,32.7,21.8l45.1,113.7c1.6,4.2,2.5,8.6,2.5,13.1C128.4,175.8,112.4,191.9,92.9,191.9z
					"/>
				
					<linearGradient id="Fill-4_1_" gradientUnits="userSpaceOnUse" x1="8.0962" y1="196.0639" x2="6.1337" y2="200.0638" gradientTransform="matrix(18.6691 0 0 -23.0084 11.464 4613.7739)">
					<stop  offset="0" style="stop-color:#FD5039"/>
					<stop  offset="1" style="stop-color:#A70B00"/>
				</linearGradient>
				<path id="Fill-4" class="st1" d="M152,111.6c-14.5,0-27.6-8.9-33-22.4l-12.7-32c-1.7-4.3-2.6-8.8-2.6-13.4
					c0-19.5,16-35.5,35.5-35.5c14.6,0,27.8,9.1,33.1,22.7l12.7,32c1.6,4.2,2.5,8.6,2.5,13.1C187.5,95.5,171.5,111.5,152,111.6z"/>
			</g>
		</g>
	</g>
</g>
</svg>
