<svg xmlns="http://www.w3.org/2000/svg" id="Livello_1" viewBox="0 0 200 200"><style>.st0{fill:#452e76}</style><g id="Layer_2"><g id="Layer_1-2"><path d="M133.9 44.7c-1.9.3-3.7.9-5.4 1.7l-2.8 1.7-3.9 2.1-2 1.1 3.2 3.8 4.9 5.9c.5-.4 1.2-1 2.2-1.8l3.3-2.2c.6-.4 1.1-.8 1.7-1.3.6-.4 1.1-.9 1.5-1.5.6-.7 1.1-1.6 1.4-2.5v-.8c-.1-1.2-.3-2.3-.7-3.4-.8-2-1.9-2.9-3.4-2.8M103.8 27.4c-.7.9-1.3 1.5-1.6 1.8-.1.1-.2.3-.4.4 1.2 1.6 2.6 3.4 4.4 5.5l4.1 5.1 2.3-2.6c.9-1.1 1.7-2.3 2.3-3.6v-.6-1.1c0-1.3-.2-2.6-.7-3.8-.9-2.2-3.1-3.7-5.5-3.5-.5 0-1 .1-1.5.2-1 .5-1.9 1-2.7 1.6h-.3l-.4.6M104.3 61.2c-.5.4-1.6 1.1-3.2 2.1-1.6 1.1-2.6 1.6-3.4 2 4.2 3.2 8.5 6.4 13.1 9.4l1.8-1.5c.3-.3.7-.6 1.1-.8-1.6-1.9-3.3-3.9-5.1-6l-4.1-5.1" class="st0"/><path d="M153.6 176.7c13.1 1.1 21.5-2.1 23.7-3.9 1.4-1.2 2.5-2.7 3.2-4.4.3-.8.8-2.3 1.5-4.4.4-1.5 1-3 1.7-4.4l6.5-14c.8-1.9 1.8-3.6 3.1-5.2 1.2-1.6 2.2-3.3 2.9-5.1.5-1.6.9-3.3 1.1-5 .2-1.7.4-3.5.4-5.2 0-2.7-.1-5.4-.4-8.1-.3-2.8-.9-5.5-1.8-8.2-.6-1.8-1.1-3.2-1.5-4.1-.4-1-.9-2-1.5-2.9l-.7-.8-3.6-4.1-1.8-2.5-1.9-2.4c-2.3-2.9-3.9-4.9-4.9-5.8-.7-1-1.4-1.9-2.2-2.7-1.3-1.3-3-2.2-4.8-2.5-3-.2-5.9-.7-8.8-1.6-1.2-.6-2.3-1.4-3.2-2.4-.3-.3-.5-.6-.8-.9v1.2c0 .5.3 2.9.7 5.6l1.9-1.6c-.6 1-1.3 2-2 2.9v1.2c1.2.6 2.3 1.4 3.2 2.4 1 1 1.7 2.2 2.3 3.5.4.8.7 1.7.7 2.7v1.3c-.2 3.4-1.1 6.8-2.5 10l-.9 2.2v4.4c0 2.2.2 4.5.6 6.7.2 1.2.7 2.3 1.4 3.3.6.7 2.2.9 5 .6 2.8-.3 4.4-.8 4.9-1.7.7-1.1 1.1-2.3 1.2-3.5.4-2.5.6-5.1.7-7.6 0-4.4 0-7.8.3-10.6v-9.3c-.3-2.3-.4-3.3-.4-3.1 0-.6.3-.3.7.9.5.9.7 2 .7 3v3.5c.3-.4.6-.8.8-1.3.2-.9.5-1.8 1-2.5-.2 1.9-.9 3.8-1.9 5.5v1.9l3.7-3.3c-.3.9-.8 1.7-1.4 2.4-1 1.4-1.8 2.1-2.5 2.2v17.2c0 1.5-.4 3-1.1 4.4l1.4 1.1c1 .9 2.1 1.7 3.2 2.5 1.3 1 2.6 1.8 4 2.6-2.6-.4-5-1.4-7.1-2.9-.7-.6-1.3-1.2-2-1.9-.5.6-1.1 1.1-1.8 1.6-.5.4-1 .8-1.6 1.1l.4.4c1.5 1.8 2.7 3.9 3.6 6.1.6 1.3 1 2.7 1.3 4.1.3 1.4.5 2.9.5 4.4v2.1c0-.3-.4-1.8-1.1-4.4-.4-1.5-.8-2.9-1.3-4.4-.8-2-1.8-3.9-3-5.7l-1.6-2.4H170c-3.5 0-5.7-2.3-6.6-6.8v-.6l-2.1-1.4-1.4-1.1c-.7 1-1.6 2.4-2.8 4l-1.4 1.9c.2.4.4.9.4 1.3v2.8c.1 3.2-.2 6.5-.9 9.6-1 3.5-2.9 6.7-5.6 9.2 0 0 .6-1.3 1.8-3.6 1.2-2.3 2.3-4.4 2.7-5.6.4-1.4.6-2.9.7-4.4 0-2 .3-3.6.3-4.9v-2.7L154 124c-.8 1.5-1.5 3.1-2.1 4.8-.5 1.7-1.2 3.2-2.1 4.8.8-4.1 2.4-7.9 4.8-11.3 1.7-2.8 3.7-6.2 6.2-10.1 1.7-3.4 3.2-7 4.4-10.7.6-1.7 1-3.5 1.3-5.3.2-1.3.2-2.6 0-3.9-1.4-6.6-9.4-9.3-14.4-4.8l-1.2 1.2c-.7.8-1.4 1.6-2 2.5l-1.1 1.5s-.7 1.2-1.8 3.1c-.9 1.4-1.6 2.9-2.3 4.4-1.4 3.5-2.5 6.1-3.1 7.5-1.1 2.6-2.3 5.1-3.7 7.5-.7.4-1.4.7-2.1.9l-3.4.9h-.3c1-.8 2.2-1.5 3.4-2 .8-.5 1.6-.7 2.5-.8.4-1.5 1.4-4.4 3.2-8.8 0-.3 0-.5.3-.7l-1.3-.8c-.6-.4-1.3-.8-2-1.1-.8-.3-1.6-.6-2.5-.8-1.7-.3-3.5-.4-5.2-.4H127l-2.4-.6c-.7-.1-1.3-.3-2-.6.7 0 1.4.1 2.1.3l2.2.4h5.5c2 0 4 .4 5.9 1.1 1 .3 1.9.7 2.8 1.4.7-1.7 1.3-3.1 1.8-4.4-.6-.5-1.2-1.1-1.6-1.8l-2.2-2.8c-1-.9-2.2-1.6-3.3-2.3l-4.2-2.5c1.6.1 3.1.6 4.4 1.4 1.4.7 2.8 1.6 4.1 2.6.9.8 1.8 1.7 2.5 2.7l1.1 1.3c.4-1 1-2 1.5-2.9 0-.3.6-.9 1-1.7-.6-1-1.1-2-1.6-3-1.4-3.2-2.3-5.3-2.8-6.3-1.3-2.7-2.1-4.4-2.4-5.4-.5-1.6-.9-3.3-1.2-4.9v-1l-.4-.3h-.7l-.4-.4c-2.3-1.7-4.3-3.7-6.1-5.8l-7.6-8.8c-1.4-1.5-3.1-3.6-5.2-6.3-2.1-2.6-4.1-5.1-5.1-6.3-1-1.2-3.3-4.1-5.9-7.5l-7-9.1c-1.9-2.5-4.1-4.8-6.4-7-1.2-1.2-2.7-1.9-4.4-2.1-.8.2-1.5.4-2.2.7-.9.5-1.6 1.1-2.2 1.9-.3.4-.6.9-.9 1.3l-.3.7c-.2.8-.4 1.7-.3 2.5 0 2.4 2.7 7.5 8.2 15.3 2.8 4 5.8 8.1 9 12.3 3.2 4.9 6.9 9.6 11 13.8l5.5 6.2c2.1 2.2 3.9 4.6 5.2 7.4.3 0 .9-.4 1.9-1.3.7-.6 1.4-1.2 2.2-1.6 0 .4-.6 1.1-1.8 2.1-.8.9-1.8 1.5-3 1.7-.6 0-1.2-.2-1.7-.4-.4-.2-.7-.4-1.1-.6-.7-.6-1.5-1.1-2.4-1.6l-3.1-1.8c-2.9-1.7-5.8-3.5-8.5-5.4-3.2-2.4-7.1-5.5-11.8-9.3l-5.4-4.2c-2.2-1.8-4.4-3.4-5.9-4.9-1.5-1.5-3.2-3.4-4.4-4.8-1.8-2.1-4.2-3.5-6.9-4-1.6-.1-3.3.3-4.7 1.1-.4.9-1 .9-1 .9l-.4.7c-.4.7-.7 1.6-.7 2.4.5 3.5 2.4 6.6 5.2 8.8l4.7 4.4c1.5 1.4 3 2.8 4.4 4.4 4.2 4.4 8.5 8.5 13.1 12.4 3.2 2.8 6 5.3 8.8 7.5l4.4 3.3c2.4 1.8 4.6 3.9 6.7 6 2.2 2.4 5.1 5.9 8.8 10.7 2.4 3.3 4.4 6.9 5.9 10.6 1.3 3.1 2.9 6.1 4.6 9l.4.3c.1-1.4.6-2.7 1.3-3.9 1.5-2.1 2.8-4.1 4-6-.1.6-.3 1.1-.7 1.6l-1.4 2.2c-1.3 1.9-2 4.1-2.1 6.4.2 3.7 1.8 7.3 4.4 10 3.5 4.1 7.8 7.5 12.6 9.9-3.3-.7-6.4-2.2-9-4.4-.3.3-.6.6-.9.8-1.3 1.2-2.3 2.1-2.8 2.7-2.4 2.4-3.9 5.4-4.4 8.8-.7 3.8 0 7.6 1.9 10.9 3.8 5.5 16.3 9.8 20.2 10.1m1.2-35.2l2.1-2.9c.5-1 .9-2.1 1.2-3.2 0-.5.4-1.4.9-2.9v1.5c-.2 2.2-.8 4.2-1.9 6.1-1.4 3-2.9 4.6-4.4 4.9.4-1.2 1-2.3 1.8-3.2m11.7 12.6c-1 .3-1.9.4-2.9.4-3.5-.1-7-1.1-10.1-2.8-3.1-1.5-3.5-2.5-3.2-2.3l1.6.9c.7.4 1.4.7 2.1.9 1.4.5 2.9.9 4.4 1.3 2.5.7 5.1.9 7.7.6h1.5s-.4.5-1.3.7" class="st0"/><path d="M89.5 41l-4.8 4.7-4.8 4.8.3.3c.7.9 1.6 1.7 2.5 2.4 2 1.6 4.1 3.2 6.1 4.9l3.4 2.8 3.4-4.4c.9-1.1 1.9-2.1 2.9-3.1-.8-1.2-2.3-3.3-4.4-6.3L89.7 41M142.4 84.2c.4.8.8 1.6 1.3 2.3l1.8 2.8.9 1.8c.4-.8.9-1.5 1.5-2.2 1.8-2.2 4.3-3.7 7.1-4.4 1.6-.4 3.2-.4 4.7 0 0-.9-.3-2.8-.5-5.8-.3-3-.6-5.5-.7-6.7-.4-3.7-2.1-7-4.9-9.4-1.9-1.9-4.6-3-7.3-3-2.1 0-4.1.6-5.9 1.7l-1.1.8c-.7 1-.8 1.4-.8 1.4v.3c-.1.8-.1 1.6 0 2.5 0 2.9.5 5.7 1.3 8.5.9 3 2 5.9 3.3 8.8M160.5 114.3l1.3.8 1.5 1.2v-2c-.6-.6-1.1-1.2-1.6-1.9l-1.1 1.9M3.5 157c0 .4.3.7.3 1v.7c0 .3.5 1.4.8 2.4l.3.7c.9 1.8 2 3.4 3.5 4.7l.7.6c5.6 3 11.9 4.7 18.3 4.7h3.2c4.3-.7 8.3-2.7 11.4-5.8.7-.9 1.2-1.9 1.5-3.1.2-1.3.3-2.6.4-3.9-.6.6-1.2 1.2-1.9 1.8v-.4c.1-.8.4-1.5.9-2.1.7-.9 1.8-1.6 3-1.8 6.7-1.3 13.2-3.6 19.3-6.7 1.8-1.1 3.5-2.4 4.9-3.9 6.4-6.6 11.3-11.4 14.5-14.6 0 0 6.8-8.8 7.7-10l1.7-2.9c.5-.9.8-1.8 1.1-2.8 0-.6.3-1.1.3-1.4v-1.4c-2.6.8-5.1 1.9-7.4 3.4-2 1.3-3.7 3-5.2 4.9 0 0 0-.9.7-2.1.7-1.3 1.6-2.5 2.7-3.5 1.3-1 2.8-1.8 4.4-2.4 1.2-.4 3-1.1 5.6-1.9 3-.9 5.7-2.5 7.9-4.6 1.5-1.2 2.5-2.8 3-4.6v-1.1-.7c-.1-.6-.3-1.2-.6-1.8l-1.1-1.8c-.8-1.4-1.9-2.5-3.2-3.3-.5-.1-1-.1-1.4 0-1.1 0-2.2.2-3.3.5h-.2l-.7-.2c-1.1-.1-2.2-.4-3.3-.7l-2.2-.8c-1.2.6-2.3 1.4-3.2 2.5-.7.9-1.5 1.8-2.4 2.5 0 0 .7-1.6 2-3s3.9-3.3 9.4-7.4L95 85.3c-2-1.5-4.4-3.5-7.1-6L84 75.9l-1.8 1.3c-1.1.8-2.2 1.5-3.4 2.3-2.4 1.7-5.1 2.8-8 3.3-1.1-.1-2.2-.3-3.3-.7-1.2-.2-2.4-.7-3.4-1.3l2.2.6c.9.3 1.9.5 2.9.6 1.9 0 3.8-.5 5.5-1.4l1.5-.8c.3-.6.7-1.1 1.1-1.6.8-1 1.4-1.8 1.9-2.4.5-.6 1.5-1.6 2-2-1.7-1.7-3.2-3.2-4.4-4.8-1.4-1.5-2.8-3-4.4-4.4L70 62.3c-1.1 1.3-2.8 3.4-5.5 6.4-2.6 3.1-4.5 4.1-4.5 4.3-6.8 5.9-11.4 10-14 12.2-4 3.5-7.5 7.7-10.2 12.3-.8 1.4-2.8 3.9-4.4 6.5-1.5 2.2-3.2 4.3-4.9 6.3-1 1.1-3 3.1-5.9 5.9-4.2 3.9-7.9 8.2-11.2 12.9-2.6 3.9-4.4 8.2-5.1 12.8-.3 1.5-.5 3.7-.8 6.5 0 1.6-.3 3-.4 4.1s0 1.5 0 2.5l.4 2zm76.9-27.6c1.1-.5 1.6-.5 1.6 0s-.4.6-1 .9c-.6.3-1.3.4-1.9.4-.1.1-.2.1-.3 0 0 0 .5-.5 1.6-1m-6.6-6.4c.9-.2 1.9-.4 2.8-.7 0 .4-.4.7-1.1 1.1-.8.4-1.7.6-2.6.6-.4.1-.9.1-1.3 0 0 0-.3 0-.3-.3.9 0 1.7-.2 2.6-.4m-8-17.2c.6-.3 1.2-.6 1.9-.7 0 .3-.5.7-1.5 1.4-1.2.7-2.5 1.1-3.9 1.1-.6 0-1.3-.1-1.9-.3-.7-.2-1.1-.5-1.1-.7 2.2.2 4.5-.2 6.5-1.1M163.2 111.1V109c-.4 1-.9 1.9-1.4 2.8.2.1.4.3.6.5l.7.7c0-1.3 0-1.9.1-1.9" class="st0"/></g></g></svg>