<?xml version="1.0" encoding="utf-8"?>
<!-- Generator: Adobe Illustrator 22.1.0, SVG Export Plug-In . SVG Version: 6.00 Build 0)  -->
<svg version="1.0" id="svg6409" xmlns="http://www.w3.org/2000/svg" xmlns:xlink="http://www.w3.org/1999/xlink" x="0px" y="0px"
	 viewBox="0 0 200 200" enable-background="new 0 0 200 200" xml:space="preserve">
<g>
	<path id="path7002" fill="none" stroke="#E7E7E9" stroke-width="2" d="M100.4,195l0.3-94.9l-82.4-47l82.4,46.9l81.6-46.9"/>
	<path id="path7000" fill="none" stroke="#3FA0F1" stroke-width="5" d="M18,148l-0.3-94.9l82.1-48l82.1,47.5l0.3,95.7l-82.4,46.9
		L18,148L18,148z"/>
	<path id="path7068" d="M32.9,83.5l-5.9-7v-2.2l5.9-0.2v2.7l-3.6-0.1l3.6,4.1V83.5L32.9,83.5z"/>
	<path id="path7070" d="M41.9,88.7l5.9-0.2v-2.2l-5.9-7V82l3.6,4.1L41.9,86V88.7L41.9,88.7z"/>
	<path id="rect7074" d="M34.5,78.3l5.2,3c0.3,0.2,0.6,0.8,0.6,1.3v1.2c0,0.5-0.3,0.7-0.6,0.5l-5.2-3c-0.3-0.2-0.6-0.8-0.6-1.3v-1.2
		C34,78.3,34.3,78.1,34.5,78.3z"/>
	<path id="rect7076" fill="#6F9DCE" d="M27.9,87.5l47.2,27.2c0.5,0.3,0.8,0.8,0.8,1.6v2.1c0,0.5-0.3,0.8-0.8,0.5L27.9,91.8
		c-0.6-0.3-0.8-0.8-0.8-1.6V88C26.8,87.2,27.3,87.2,27.9,87.5L27.9,87.5z"/>
	<path id="rect7078" fill="#6F9DCE" d="M27.9,94.2L94.3,132c0.5,0.3,0.8,0.8,0.8,1.6v2.1c0,0.5-0.3,0.8-0.8,0.5L27.9,98.4
		c-0.5-0.3-0.8-0.8-0.8-1.6v-2.1C26.8,94.2,27.3,94.2,27.9,94.2z"/>
	<path id="rect7080" fill="#6F9DCE" d="M27.9,100.8l66.4,37.9c0.5,0.3,0.8,0.8,0.8,1.6v2.1c0,0.5-0.3,0.8-0.8,0.5L27.9,105
		c-0.5-0.3-0.8-0.8-0.8-1.6v-2.1C26.8,100.8,27.3,100.6,27.9,100.8L27.9,100.8z"/>
	<path id="rect7082" fill="#6F9DCE" d="M27.9,107.5L56.7,124c0.5,0.3,0.8,0.8,0.8,1.6v2.1c0,0.5-0.3,0.8-0.8,0.5l-28.8-16.5
		c-0.5-0.3-0.8-0.8-0.8-1.6V108C26.8,107.5,27.3,107.2,27.9,107.5z"/>
	<path id="rect7084" fill="#6F9DCE" d="M27.9,113.9l56.2,32.3c0.5,0.3,0.8,0.8,0.8,1.6v2.1c0,0.5-0.3,0.8-0.8,0.5l-56.3-32.3
		c-0.5-0.3-0.8-0.8-0.8-1.6v-2.1C26.8,113.9,27.3,113.9,27.9,113.9L27.9,113.9z"/>
	<path id="rect7086" fill="#6F9DCE" d="M27.9,120.6l10.4,5.9c0.5,0.3,0.8,0.8,0.8,1.6v2.1c0,0.5-0.3,0.8-0.8,0.5l-10.4-5.9
		c-0.5-0.3-0.8-0.8-0.8-1.6v-2.1C26.8,120.6,27.3,120.3,27.9,120.6z"/>
	<path id="path7068-8" d="M33.4,144.3l-6.5-7.6v-2.5l6.5-0.2v2.9l-4-0.1l4,4.5V144.3L33.4,144.3z"/>
	<path id="path7070-7" d="M40.7,148.5l6.5-0.2v-2.5l-6.5-7.6v2.9l4,4.5l-4-0.1V148.5L40.7,148.5z"/>
	<text transform="matrix(0.6889 0.3949 0 1 35.3789 146.3264)" font-family="'Arial-Black'" font-size="16.952px">/</text>
	<g id="rect7177">
		<g>
			<path fill="#3FA0F1" d="M137.4,144.6c-2.4,0-4.6-0.6-6.6-1.7c-4.2-2.4-6.6-6.9-6.7-12.3l-0.1-12.5v-0.2c0.1-8.7,6-18.4,13.9-22.9
				l2.8-1.6c5.3-3,10.8-3.2,15.2-0.7c4.2,2.4,6.8,6.9,6.9,12.3v12.5c0.2,8.6-6,18.6-14.1,23.1l-2.7,1.5
				C143.1,143.8,140.2,144.6,137.4,144.6z"/>
		</g>
	</g>
	<path fill="#FFFFFF" d="M139.3,138c-1.7,0-3.4-0.4-4.9-1.3c-3.1-1.8-4.9-5.3-5-9.5l-0.1-9.6v-0.2c0.1-6.7,4.4-14.1,10.3-17.6
		l2.1-1.2c3.9-2.3,8-2.5,11.3-0.5c3.1,1.8,5.1,5.3,5.1,9.5v9.6c0.1,6.6-4.4,14.3-10.4,17.8l-2,1.2C143.6,137.3,141.4,138,139.3,138z
		"/>
	<path id="rect7147" fill="#3FA0F1" d="M128.9,124l28.9-16.3c2.7-1.5,5-0.4,5,2.4l0.2,20.2c0,2.9-2.2,6.5-4.9,8l-28.9,16.3
		c-2.7,1.5-5,0.4-5-2.4L124,132C123.9,129,126.1,125.6,128.9,124L128.9,124z"/>
	<path id="rect7181" fill="#2C6CEA" d="M144.2,127.9l2.3-1.3c0.6-0.3,1.1-0.1,1.1,0.5l0.1,7c0,0.6-0.5,1.4-1.1,1.7l-2.3,1.3
		c-0.6,0.3-1.1,0.1-1.1-0.5l-0.1-7C143.1,128.9,143.6,128.3,144.2,127.9z"/>
	<path id="path7208" d="M87.2,40.5c-1.6-0.7-3.5-1.5-4.8-2.3c-4.3-2.6-5.1-5-2.1-6.9l8.3-5.2c3.3-2.1,7.3-1.8,11.6,0.8
		c1.4,0.8,2.7,2,3.8,3l-2,1.3c-1.1-1.3-2.5-2.1-3.6-2.8c-0.7-0.4-1.1-0.7-1.8-0.8c-0.5-0.3-1.2-0.4-1.9-0.5C94,27,93.5,27,92.6,27
		c-0.7,0.2-1.5,0.4-2.2,0.8l-8.1,5.1c-2,1.3-1.4,2.9,1.5,4.7c1.4,0.8,3,1.5,4.6,2.2L87.2,40.5z"/>
	<path id="path7210" d="M99.9,48.6l-2.3-1.4l9.3-5.9c0.3-0.2,0.5-0.3,0.8-0.5s0.3-0.5,0.3-0.5c0-0.3,0-0.6-0.2-0.7
		c-0.2-0.1-0.4-0.6-1.1-1c-1.4-0.8-2.5-1.2-3-1.2c-0.7-0.1-1.4,0.1-2.4,0.7L91.9,44l-2-1.2L108.5,31l2,1.2l-7.3,4.6
		c1.5-0.7,3.4-0.1,5.6,1.2c1.6,1,2.3,1.7,2.2,2.6c-0.1,0.9-0.6,1.5-1.9,2.3L99.9,48.6L99.9,48.6L99.9,48.6z"/>
	<path id="path7212" d="M112.9,56.5l-2-1.2l1.3-0.8c-1.2,0.5-2.9,0.1-4.9-1.1c-1.6-1-2.5-1.8-2.7-2.6c-0.2-0.7,0.9-1.7,2.4-2.6
		c1.5-1,2.7-1.4,3.9-1.3c1,0,2.3,0.5,4.2,1.6l3.4,2.1l2-1.3c0.8-0.5,1-0.9,0.8-1.4c-0.2-0.4-0.9-0.9-2-1.5c-1.1-0.7-2.5-1.5-4.1-2.2
		l1.8-1.1c1.8,0.8,3.2,1.6,4.6,2.5c2,1.2,2.9,2.1,3.1,2.8c0,0.6-0.6,1.5-2.4,2.6l-9.1,5.7L112.9,56.5z M113.6,53.5l3.5-2.2l-3.4-2.1
		c-1.1-0.7-1.8-0.8-2.3-0.8s-1.5,0.4-2.5,1c-0.8,0.5-1.3,1.1-1.6,1.5c0,0.3,0.4,0.9,1.1,1.3l1.4,0.8c0.2,0.1,0.7,0.4,1.2,0.4
		c0.2,0.1,0.9,0.3,1.2,0.1C112.9,53.7,113.1,53.8,113.6,53.5z"/>
	<path id="path7214" d="M133.9,50.6l-2-1.2l2.5-1.6l2,1.2L133.9,50.6z M118.8,60.1l-2-1.2l12.8-8.1l2,1.2L118.8,60.1L118.8,60.1z"/>
	<path id="path7216" d="M132.7,68.6l-2.3-1.4l9.3-5.9c0.3-0.2,0.5-0.3,0.8-0.5s0.3-0.5,0.3-0.5c0-0.3,0-0.6-0.2-0.7
		c-0.2-0.1-0.4-0.6-1.1-1c-1.4-0.8-2.3-1.1-3-1.2c-0.7-0.1-1.4,0.1-2.4,0.7l-9.3,5.9l-2-1.2l12.8-8.1l2,1.2l-1.5,1
		c1.5-0.7,3.4-0.1,5.6,1.2c1.6,1,2.3,1.7,2.2,2.6c0,0.6-0.6,1.5-1.9,2.3l-9.1,5.7L132.7,68.6z"/>
	<path id="path7218" d="M65,53.9l-10-6.1l17.4-11l2.3,1.4l-15.6,9.9l7.7,4.7L65,53.9z"/>
	<path id="path7220" d="M84.7,47.1l-2-1.2l2.5-1.6l2,1.2L84.7,47.1z M69.6,56.7l-2-1.2l12.8-8.1l2,1.2L69.6,56.7z"/>
	<path id="path7222" d="M83.3,65l-2-1.2l9.3-5.9c0.3-0.2,0.5-0.3,0.8-0.5s0.3-0.5,0.3-0.5c0-0.3,0-0.6-0.2-0.7
		c-0.2-0.1-0.4-0.6-1.1-1c-1.4-0.8-2.3-1.1-3-1.2c-0.7-0.1-1.4,0.1-2.4,0.7l-9.3,5.9l-2-1.2l12.8-8.1l2,1.2l-1.5,1
		c1.5-0.7,3.4-0.1,5.6,1.2c1.6,1,2.3,1.7,2.2,2.6c0,0.6-0.6,1.5-1.9,2.3l-9.1,5.7L83.3,65z"/>
	<path id="path7224" d="M97.6,73.7L94.9,72l1.5-6.3l-2.9,0.1l2.5-1.9l11.5-0.5l2.7,2L99.4,66L97.6,73.7L97.6,73.7z M89.2,68.6
		l-2-1.2l18.6-11.7l2,1.2L89.2,68.6z"/>
	
		<ellipse transform="matrix(0.9506 -0.3105 0.3105 0.9506 -31.9995 51.3862)" fill="#2C6CEA" cx="145.4" cy="126.2" rx="5" ry="3.7"/>
</g>
</svg>
