<svg xmlns="http://www.w3.org/2000/svg" version="1" viewBox="0 0 200 200"><path fill="#d3513a" d="M184.2 18.2l-2.3-2.3c-14.4-14.4-37.9-14.4-52.3 0L87.2 58.1c-5.3 5.3-8.7 11.8-10.1 19 2.3-.5 4.7-.7 7.2-.7 2.7 0 5.4.3 8 .9 1.1-3.3 2.9-6.2 5.4-8.7L140 26.3c4.3-4.3 10-6.5 15.7-6.5s11.4 2.2 15.7 6.5l2.3 2.4c8.7 8.6 8.7 22.7 0 31.4l-42.3 42.3c-2.5 2.5-5.5 4.3-8.7 5.3-5.1 1.7-10.7 1.5-15.7-.6-2.5-1.1-4.9-2.6-7-4.7l-2.4-2.4c-2-2-3.6-4.4-4.7-7-2.7-1.1-5.6-1.8-8.7-1.8-2.4 0-4.8.4-7 1.1 1.5 6.8 4.9 13.1 9.9 18.1l2.4 2.4c5.1 5.2 11.5 8.5 18.1 9.9 2.6.6 5.3.9 8 .9 2.4 0 4.8-.2 7.2-.7 7-1.4 13.6-4.7 19-10.1l42.3-42.3c14.5-14.5 14.5-37.9.1-52.3z"/><path d="M115.7 123.6c-2.7 0-5.4-.3-8-.9-1 3.2-2.8 6.2-5.4 8.7L60 173.7c-8.6 8.7-22.7 8.7-31.4 0l-2.3-2.3c-8.7-8.7-8.7-22.7 0-31.4l42.3-42.3c2.5-2.5 5.5-4.3 8.7-5.4 2.2-.7 4.6-1.1 7-1.1 3 0 6 .6 8.7 1.8 2.6 1.1 5 2.7 7 4.7l2.4 2.3c2.1 2.1 3.6 4.5 4.7 7 5 2.1 10.6 2.3 15.7.6-1.5-6.6-4.8-12.9-9.9-18.1l-2.4-2.4c-5-5-11.3-8.4-18.1-9.9-2.6-.6-5.3-.9-8-.9-2.4 0-4.8.2-7.2.7-7.2 1.4-13.7 4.8-19 10.1l-42.3 42.3c-14.4 14.4-14.4 37.9 0 52.3l2.3 2.4c7.2 7.2 16.7 10.8 26.2 10.8s18.9-3.6 26.1-10.8l42.3-42.3c5.4-5.4 8.8-12 10.1-19-2.4.6-4.8.8-7.2.8z"/></svg>