<?xml version="1.0" encoding="utf-8"?>
<!-- Generator: Adobe Illustrator 16.0.0, SVG Export Plug-In . SVG Version: 6.00 Build 0)  -->
<!DOCTYPE svg PUBLIC "-//W3C//DTD SVG 1.0//EN" "http://www.w3.org/TR/2001/REC-SVG-20010904/DTD/svg10.dtd">
<svg version="1.0" id="Layer_1" xmlns="http://www.w3.org/2000/svg" xmlns:xlink="http://www.w3.org/1999/xlink" x="0px" y="0px"
	 width="200px" height="200px" viewBox="0 0 200 200" enable-background="new 0 0 200 200" xml:space="preserve">
<path fill="#3D8FCD" d="M98.928,16.831c0,0-23.347,22.526-57.795,22.526c0,0-9.395-0.568-9.395,11.674c0,12.241,0,64.627,0,64.627
	s0.286,47.261,70.037,71.176c0,0,70.605-24.77,70.605-71.176c0-46.407,0-64.627,0-64.627s1.068-11.674-9.11-11.674
	c-8.825,0-45.693-9.715-57.937-22.526C105.333,16.831,102.059,14.02,98.928,16.831z"/>
<path fill="#FFFFFF" d="M124.3,95.789c0,0,12.828-3.952,12.828-20.708c0-16.756-18.342-22.482-28.398-22.482
	c-10.062,0-41.551,0-41.551,0v14.199h7.289v66.321h-7.289v11.967h41.551c0,0,32.35,0,32.35-26.223
	C141.079,97.967,124.3,95.789,124.3,95.789z M93.212,67.177h11.833c0,0,13.741-1.16,13.741,11.242
	c0,11.855-10.718,11.455-10.718,11.455H93.212V67.177z M111.095,130.104H93.212v-25.04h11.44c0,0,18.866-0.802,18.866,11.433
	C123.519,130.508,111.095,130.104,111.095,130.104z"/>
</svg>
