<?xml version="1.0" encoding="utf-8"?>
<!-- Generator: Adobe Illustrator 22.1.0, SVG Export Plug-In . SVG Version: 6.00 Build 0)  -->
<svg version="1.1" id="Livello_1" xmlns="http://www.w3.org/2000/svg" xmlns:xlink="http://www.w3.org/1999/xlink" x="0px" y="0px"
	 viewBox="0 0 200 200" style="enable-background:new 0 0 200 200;" xml:space="preserve">
<path d="M5,151.2c5.3-16.2,10.1-31,14.9-45.7c3.6-11,7.2-22,11-32.9c0.8-2.3,2.3-4.9,4.3-6.3c21.5-16.6,43-33,65.1-49.9
	c8.8,6.7,17.6,13.5,26.5,20.2c12.8,9.8,25.6,19.6,38.4,29.4c1.4,1.1,3.1,2.5,3.7,4.1C177.5,96.6,186,123,195,151
	c-23.1-16-45-31.1-67.6-46.8c-9,26.3-17.8,52.1-27.1,79.4c-9.2-27.2-17.8-53-26.8-79.6C50.9,119.5,28.7,134.9,5,151.2z M95.6,29.1
	c-1.3,0.6-1.9,0.7-2.3,1c-17.5,13.3-35,26.6-52.4,40.1c-1.9,1.5-3.5,4-4.3,6.3c-4.6,13.4-9,27-13.4,40.5c-1.8,5.3-3.4,10.7-5.6,17.2
	c14.8-10.2,28.3-20.1,42.4-29c8.8-5.5,13.8-12.4,17.2-22.5c2.1-5.7,3.9-11.5,5.9-17.2C87.2,53.7,91.3,41.7,95.6,29.1z M104.6,28.1
	c8,23.3,15.5,44.9,23.1,66.5c0.6,1.7,2.5,3.3,4.1,4.4c9.5,6.7,19.6,13.7,29.4,20.4c6.5,4.5,14,10,21.3,15c-0.1-1.1-1.1-3.9-1.4-4.7
	c-5.9-18.2-11.7-36.5-17.7-54.6c-0.5-1.5-1.5-3.2-2.7-4.1C142.6,57.1,124.3,43.2,104.6,28.1z M121,96.1c-6.9-20-13.6-39.3-20.7-60.1
	c-7.2,21-13.9,40.3-20.7,60.1C93.6,96.1,106.9,96.1,121,96.1z M99.7,161c0.4,0,0.8,0,1.2,0c6.5-19.1,12.9-38.1,19.6-57.7
	c-13.6,0-26.4,0-40.1,0C86.9,122.8,93.3,141.9,99.7,161z"/>
</svg>
