<svg xmlns="http://www.w3.org/2000/svg" viewBox="0 0 200 200"><path fill="#1670d5" d="M77.7 166.3l.8-1.7 19.1-39.7c7.7-13.7 8.5-30.1 2.2-44.5C97 69.6 91 66.5 91 66.5L68.5 143l-.1.2L53.2 195s11.4-1.7 24.5-28.7z"/><path fill="#1c9de5" d="M124.1 77.1c-3.4-16-13.8-29.7-28.3-37.3-4.1 15.1-3.6 31 1.2 45.9l.1.6.4 1.4.3.9.6 2.4.4 2.1.1.6.3 1.6.1.6.2 2.1v.2l.1 1.9v2.7l-.1 2.1v.2l-.1 1.9-.1.4-.2 2v.1l-.3 2.2v.1l-.4 1.9-.1.3-1.2 4.2-.1.1-.7 2-.1.1-1.7 4-.1.1-1 2-11.4 31c5.3-9.5 12.8-17.6 22-23.5l.1-.1h-.1c17-13.5 24.8-35.6 20.1-56.8z"/><path fill="#02c0e8" d="M145.1 56.1c-4.6-22.4-20-41.7-40.8-51.1-5.2 19.2.6 34.8 10.4 51 1.8 3 3.4 5.8 4.8 9 3 6.8 4.7 13.7 5 21.2.3 8.2-1 16.3-3.9 23.9-7.6 20.2-28.5 28.1-38.3 46.8 10.6-17.8 33.7-20.3 47.1-36.1 15-17.8 20.5-42.1 15.7-64.7z"/></svg>