<?xml version="1.0" encoding="utf-8"?>
<!-- Generator: Adobe Illustrator 22.1.0, SVG Export Plug-In . SVG Version: 6.00 Build 0)  -->
<svg version="1.0" id="Layer_1" xmlns="http://www.w3.org/2000/svg" xmlns:xlink="http://www.w3.org/1999/xlink" x="0px" y="0px"
	 viewBox="0 0 200 200" enable-background="new 0 0 200 200" xml:space="preserve">
<title>Logo_zmine</title>
<radialGradient id="SVGID_1_" cx="99.9234" cy="99.8907" r="94.8869" gradientTransform="matrix(1 0 0 -1 0 200)" gradientUnits="userSpaceOnUse">
	<stop  offset="0" style="stop-color:#4E5153"/>
	<stop  offset="1" style="stop-color:#101617"/>
</radialGradient>
<path fill="url(#SVGID_1_)" d="M99.9,5.2C47.6,5.2,5,47.8,5,100.1S47.6,195,99.9,195s94.9-42.6,94.9-94.9S152.2,5.2,99.9,5.2z"/>
<linearGradient id="SVGID_2_" gradientUnits="userSpaceOnUse" x1="5.0402" y1="100.0402" x2="194.9598" y2="100.0402" gradientTransform="matrix(1 0 0 -1 0 200)">
	<stop  offset="0" style="stop-color:#8D9090"/>
	<stop  offset="0.16" style="stop-color:#B0B2B2"/>
	<stop  offset="0.39" style="stop-color:#DDDDDC"/>
	<stop  offset="0.5" style="stop-color:#EEEEEC"/>
	<stop  offset="1" style="stop-color:#8D9090"/>
</linearGradient>
<path fill="url(#SVGID_2_)" d="M100,5C47.6,5,5,47.6,5,100s42.6,95,95,95s95-42.6,95-95S152.4,5,100,5z M100,187.3
	c-48.2,0-87.3-39.1-87.3-87.3S51.8,12.7,100,12.7c48.2,0,87.3,39.1,87.3,87.3C187.3,148.2,148.2,187.3,100,187.3z"/>
<linearGradient id="SVGID_3_" gradientUnits="userSpaceOnUse" x1="157.5497" y1="155.0225" x2="127.7751" y2="133.3296" gradientTransform="matrix(1 0 0 -1 0 200)">
	<stop  offset="0" style="stop-color:#8D9090"/>
	<stop  offset="0.16" style="stop-color:#B0B2B2"/>
	<stop  offset="0.39" style="stop-color:#DDDDDC"/>
	<stop  offset="0.5" style="stop-color:#EEEEEC"/>
	<stop  offset="1" style="stop-color:#8D9090"/>
</linearGradient>
<path fill="url(#SVGID_3_)" d="M162.6,51.8L135,71c-3.7-4.1-7.7-7.8-12.2-11.1c0,0-0.1,0-0.1-0.1L151.4,40l0,0
	C155.5,43.6,159.2,47.5,162.6,51.8z"/>
<linearGradient id="SVGID_4_" gradientUnits="userSpaceOnUse" x1="171.4615" y1="135.6407" x2="143.5386" y2="115.2988" gradientTransform="matrix(1 0 0 -1 0 200)">
	<stop  offset="0" style="stop-color:#8D9090"/>
	<stop  offset="0.16" style="stop-color:#B0B2B2"/>
	<stop  offset="0.39" style="stop-color:#DDDDDC"/>
	<stop  offset="0.5" style="stop-color:#EEEEEC"/>
	<stop  offset="1" style="stop-color:#8D9090"/>
</linearGradient>
<path fill="url(#SVGID_4_)" d="M174.1,72.9l-26.1,18.1c-2.2-4.9-5-9.6-8.2-14l27.1-18.8C169.8,62.8,172.3,67.7,174.1,72.9z"/>
<linearGradient id="SVGID_5_" gradientUnits="userSpaceOnUse" x1="56.4109" y1="84.8533" x2="28.4661" y2="64.4958" gradientTransform="matrix(1 0 0 -1 0 200)">
	<stop  offset="0" style="stop-color:#8D9090"/>
	<stop  offset="0.16" style="stop-color:#B0B2B2"/>
	<stop  offset="0.39" style="stop-color:#DDDDDC"/>
	<stop  offset="0.5" style="stop-color:#EEEEEC"/>
	<stop  offset="1" style="stop-color:#8D9090"/>
</linearGradient>
<path fill="url(#SVGID_5_)" d="M60.1,123L33,141.8c-0.5-0.7-0.9-1.5-1.3-2.2c-0.2-0.3-0.4-0.7-0.6-1c-0.4-0.7-0.7-1.3-1.1-2
	c-0.1-0.1-0.1-0.3-0.2-0.4c-0.2-0.3-0.3-0.7-0.5-1c-0.2-0.4-0.4-0.8-0.6-1.1c-0.7-1.5-1.4-3.1-2.1-4.7c-0.1-0.3-0.2-0.6-0.4-0.9
	c-0.2-0.4-0.3-0.8-0.4-1.2c0-0.1-0.1-0.2-0.1-0.3c0,0,0,0,0,0l26.1-18.1l0,0c0,0.1,0.1,0.2,0.1,0.2C54.2,114,56.9,118.6,60.1,123z"
	/>
<linearGradient id="SVGID_6_" gradientUnits="userSpaceOnUse" x1="72.3089" y1="66.7521" x2="42.4691" y2="45.0135" gradientTransform="matrix(1 0 0 -1 0 200)">
	<stop  offset="0" style="stop-color:#8D9090"/>
	<stop  offset="0.16" style="stop-color:#B0B2B2"/>
	<stop  offset="0.39" style="stop-color:#DDDDDC"/>
	<stop  offset="0.5" style="stop-color:#EEEEEC"/>
	<stop  offset="1" style="stop-color:#8D9090"/>
</linearGradient>
<path fill="url(#SVGID_6_)" d="M77.4,140.2L48.8,160c-0.1-0.1-0.1-0.1-0.2-0.2l0,0c-0.5-0.4-1-0.8-1.4-1.3c-0.1-0.1-0.2-0.1-0.2-0.2
	c-0.4-0.4-0.8-0.7-1.2-1.1c-0.1-0.1-0.2-0.2-0.3-0.3c-0.4-0.4-0.9-0.8-1.3-1.3c-0.1-0.1-0.1-0.1-0.2-0.2c-0.4-0.4-0.9-0.9-1.3-1.3
	c-0.4-0.5-0.9-0.9-1.3-1.4c0,0,0-0.1-0.1-0.1c-0.4-0.5-0.9-1-1.3-1.5c0,0-0.1-0.1-0.1-0.1c-0.4-0.5-0.9-1-1.3-1.5
	c-0.4-0.5-0.8-1-1.2-1.5c0,0,0,0,0-0.1l27.5-19.1c3.7,4.1,7.8,7.8,12.2,11.1l0,0C77.2,140.1,77.3,140.1,77.4,140.2z"/>
<linearGradient id="SVGID_7_" gradientUnits="userSpaceOnUse" x1="129.3136" y1="186.5164" x2="45.7562" y2="125.6445" gradientTransform="matrix(1 0 0 -1 0 200)">
	<stop  offset="0" style="stop-color:#8D9090"/>
	<stop  offset="0.16" style="stop-color:#B0B2B2"/>
	<stop  offset="0.39" style="stop-color:#DDDDDC"/>
	<stop  offset="0.5" style="stop-color:#EEEEEC"/>
	<stop  offset="1" style="stop-color:#8D9090"/>
</linearGradient>
<path fill="url(#SVGID_7_)" d="M145.1,35.1L116,55.3c-25.7-15.1-57.8-14.5-82.9,1.6c14.1-21.8,38.7-36.1,66.5-36.1
	C115.9,20.8,131.8,25.8,145.1,35.1z"/>
<linearGradient id="SVGID_8_" gradientUnits="userSpaceOnUse" x1="154.2599" y1="74.3872" x2="70.8135" y2="13.5949" gradientTransform="matrix(1 0 0 -1 0 200)">
	<stop  offset="0" style="stop-color:#8D9090"/>
	<stop  offset="0.16" style="stop-color:#B0B2B2"/>
	<stop  offset="0.39" style="stop-color:#DDDDDC"/>
	<stop  offset="0.5" style="stop-color:#EEEEEC"/>
	<stop  offset="1" style="stop-color:#8D9090"/>
</linearGradient>
<path fill="url(#SVGID_8_)" d="M166.8,142.9c-14.1,21.8-38.7,36.1-66.5,36.1c-16.1,0-31.9-4.9-45.1-14.1l29.1-20.2
	C110,159.6,141.8,158.9,166.8,142.9L166.8,142.9z"/>
<linearGradient id="SVGID_9_" gradientUnits="userSpaceOnUse" x1="25.7809" y1="109.0978" x2="162.5528" y2="109.0978" gradientTransform="matrix(1 0 0 -1 0 200)">
	<stop  offset="0" style="stop-color:#8D9090"/>
	<stop  offset="0.16" style="stop-color:#B0B2B2"/>
	<stop  offset="0.39" style="stop-color:#DDDDDC"/>
	<stop  offset="0.5" style="stop-color:#EEEEEC"/>
	<stop  offset="1" style="stop-color:#8D9090"/>
</linearGradient>
<path fill="url(#SVGID_9_)" d="M162.6,51.8L135,71l-74.9,52L33,141.8c-0.5-0.7-0.9-1.5-1.3-2.2c-0.2-0.3-0.4-0.7-0.6-1
	c-0.4-0.7-0.7-1.3-1.1-2c-0.1-0.1-0.1-0.3-0.2-0.4c-0.2-0.3-0.3-0.7-0.5-1c-0.2-0.4-0.4-0.8-0.6-1.1c-0.7-1.5-1.4-3.1-2.1-4.7
	c-0.1-0.3-0.2-0.6-0.4-0.9c-0.2-0.4-0.3-0.8-0.4-1.2c0-0.1-0.1-0.2-0.1-0.3l26.1-18.1l25.9-18l45-31.1L151.4,40l0,0
	C155.5,43.6,159.2,47.5,162.6,51.8z"/>
<linearGradient id="SVGID_10_" gradientUnits="userSpaceOnUse" x1="37.4042" y1="91.0031" x2="174.1406" y2="91.0031" gradientTransform="matrix(1 0 0 -1 0 200)">
	<stop  offset="0" style="stop-color:#8D9090"/>
	<stop  offset="0.16" style="stop-color:#B0B2B2"/>
	<stop  offset="0.39" style="stop-color:#DDDDDC"/>
	<stop  offset="0.5" style="stop-color:#EEEEEC"/>
	<stop  offset="1" style="stop-color:#8D9090"/>
</linearGradient>
<path fill="url(#SVGID_10_)" d="M174.1,72.9l-26.1,18.1l-70.9,49.1l-28.6,19.8l0,0c-0.5-0.4-1-0.8-1.4-1.3c-0.1-0.1-0.2-0.1-0.2-0.2
	c-0.4-0.4-0.8-0.7-1.2-1.1c-0.1-0.1-0.2-0.2-0.3-0.3c-0.4-0.4-0.9-0.8-1.3-1.3c-0.1-0.1-0.1-0.1-0.2-0.2c-0.4-0.4-0.9-0.9-1.3-1.3
	c-0.4-0.5-0.9-0.9-1.3-1.4c0,0,0-0.1-0.1-0.1c-0.4-0.5-0.9-1-1.3-1.5c0,0-0.1-0.1-0.1-0.1c-0.4-0.5-0.9-1-1.3-1.5
	c-0.4-0.5-0.8-1-1.2-1.5c0,0,0,0,0-0.1l27.5-19.1l74.9-52l27.1-18.8C169.8,62.8,172.3,67.7,174.1,72.9z"/>
</svg>
