<svg xmlns="http://www.w3.org/2000/svg" id="Livello_1" version="1" viewBox="0 0 200 200"><style>.st0{fill:#8d8fc6}</style><path d="M147.5 15h-95L5 100l47.5 85h95l47.5-85-47.5-85zm-6.9 158l.1-.3h.2l-.1.2h-.2zm5.3-9.2l9.7-48.4-3.8-.8-11.5 57.4-54.1-18.7-1.2 3.8 46.1 15.9H61.4l5.7-9.4-3.3-2.1-5.7 9.5-33.6-60.2 34.7 31.7 2.5-3L18.5 100l-.1.1-.1-.1v-.1l.1.1 45.1-41.4-2.5-3-36.6 33.6L57.5 30l6.3 10.5 3.3-2.1L60.2 27h71.6L85.1 42.9l1.2 3.8 54.1-18.4 11.4 56 3.8-.8-9.6-47.2L180.5 98h-9.3v4h9.3l-34.6 61.8z" class="st0"/><path d="M141.3 88.8L85.5 55.5 81.3 53c-.6 1.6-1.7 2.9-3 4l4.4 2.6 56.4 33.7 5.2 3.1c.4-1.7 1.1-3.2 2.1-4.5l-5.1-3.1zM68.8 58.3v81.4c.7-.1 1.4-.2 2.1-.2.9 0 1.8.1 2.7.4v-81c-.3.1-.8.1-1.2.1-1.3 0-2.5-.2-3.6-.7zm76 45.1l-5.1 3-56.4 33.7-4.7 2.8c1.1 1.2 2 2.7 2.5 4.3l4.7-2.8 56.6-33.7 5.2-3.1c-1.2-1.2-2.2-2.6-2.8-4.2z" class="st0"/><path fill="#579fd6" d="M72.4 34c-8 0-14.5 6.7-14.5 15 0 7 4.7 12.9 10.9 14.5 1.1.3 2.3.5 3.6.5.4 0 .8 0 1.3-.1 3.5-.3 6.7-1.9 9.1-4.4 1.1-1.2 2.1-2.6 2.8-4.1.9-2 1.4-4.1 1.4-6.4-.1-8.3-6.6-15-14.6-15zm5.9 22.9c-1.3 1.1-2.9 1.8-4.7 2-.3.1-.8.1-1.2.1-1.3 0-2.5-.3-3.6-.7-3.6-1.5-6.1-5.1-6.1-9.3 0-5.5 4.3-10 9.7-10s9.7 4.5 9.7 10c0 1.4-.3 2.7-.8 3.9-.6 1.6-1.7 3-3 4z"/><path fill="#f27046" d="M85.8 144.4c-.6-1.6-1.4-3-2.4-4.3-2.4-3-5.8-5.1-9.7-5.8-.9-.2-1.8-.2-2.7-.2-.7 0-1.4 0-2.1.1-7.8 1.1-13.8 8-13.8 16.4 0 9.1 7.2 16.5 16 16.5s16-7.4 16-16.5c-.2-2.2-.6-4.3-1.3-6.2zM71 161.5c-5.9 0-10.6-4.9-10.6-11 0-5.3 3.7-9.8 8.5-10.8.7-.1 1.4-.2 2.1-.2.9 0 1.8.1 2.7.4 1.9.5 3.6 1.6 5 3 1.1 1.2 2 2.7 2.5 4.3.3 1 .5 2.2.5 3.3-.1 6.1-4.9 11-10.7 11z"/><path fill="#eb407a" d="M155.7 81c-5.9 0-11.2 3.1-14.3 7.7-.9 1.4-1.7 2.9-2.2 4.5-.6 1.8-.9 3.8-.9 5.8 0 2.6.6 5.1 1.5 7.4.7 1.5 1.5 3 2.6 4.2 3.2 3.9 8 6.4 13.3 6.4 9.6 0 17.4-8.1 17.4-18s-7.8-18-17.4-18zm0 30c-3.2 0-6-1.3-8.1-3.5-1.2-1.2-2.1-2.6-2.7-4.2-.5-1.4-.8-2.8-.8-4.4 0-.9.1-1.8.3-2.7.4-1.7 1.1-3.2 2.1-4.5 2.1-2.9 5.5-4.8 9.3-4.8 6.4 0 11.6 5.4 11.6 12s-5.3 12.1-11.7 12.1z"/></svg>