<svg xmlns="http://www.w3.org/2000/svg" id="Livello_1" x="0" y="0" version="1.1" viewBox="0 0 200 200" xml:space="preserve"><style>.st1{fill:#fff}</style><linearGradient id="SVGID_1_" x1="161.0672" x2="38.9332" y1="172.7771" y2="27.2234" gradientUnits="userSpaceOnUse"><stop offset=".1594" stop-color="#003cda"/><stop offset="1" stop-color="#33dfcc"/></linearGradient><path fill="url(#SVGID_1_)" d="M195 100c0 52.5-42.5 95-95 95S5 152.5 5 100c0-6.3.6-12.4 1.8-18.3 1.3-6.6 3.3-13 5.9-19.1 9.5-22.2 27.2-40 49.4-49.7 6.1-2.7 12.5-4.7 19.1-6C87.2 5.7 93.5 5 100 5c52.5 0 95 42.5 95 95z"/><path d="M81.1 6.9v41.9H62V12.9c6.1-2.6 12.5-4.7 19.1-6zM139 88.5v25.2c-.1 14.3-11.6 25.9-25.9 25.9H87.9C73.6 139.6 62 128 62 113.7V95.3h19.1v18.3c0 3.8 3 6.8 6.8 6.8h25.2c3.8 0 6.8-3 6.8-6.8V88.5c0-3.8-3-6.8-6.8-6.8H6.8c1.3-6.6 3.3-13 5.9-19.1h100.5c14.2 0 25.8 11.6 25.8 25.9z" class="st1"/></svg>