<?xml version="1.0" encoding="utf-8"?>
<!-- Generator: Adobe Illustrator 22.1.0, SVG Export Plug-In . SVG Version: 6.00 Build 0)  -->
<svg version="1.0" id="Layer_1" xmlns="http://www.w3.org/2000/svg" xmlns:xlink="http://www.w3.org/1999/xlink" x="0px" y="0px"
	 viewBox="0 0 200 200" style="enable-background:new 0 0 200 200;" xml:space="preserve">
<style type="text/css">
	.st0{fill:#FDBA4D;}
	.st1{fill:#5DA9DD;}
	.st2{fill:#18568C;}
	.st3{fill:#18578C;}
	.st4{fill:#18568B;}
</style>
<path id="path0_fill" class="st0" d="M34.4,141.3c6.4-6.4,16.8-6.4,23.3,0c6.4,6.4,6.4,16.8,0,23.3c-6.4,6.4-16.8,6.5-23.2,0
	C28,158.1,28,147.7,34.4,141.3z"/>
<path id="path0_fill_1_" class="st0" d="M146.8,34.6c6.4-6.4,16.8-6.4,23.3,0c6.4,6.4,6.4,16.8,0,23.3c-6.4,6.4-16.8,6.4-23.3,0
	C140.4,51.4,140.4,41,146.8,34.6z"/>
<path id="path1_fill" class="st0" d="M55.5,128.6L72.9,146l15.9-15.9c-3.8-1.5-7.3-3.8-10.5-6.9c-3.1-3.1-5.4-6.6-6.9-10.5
	L55.5,128.6L55.5,128.6z"/>
<path id="path2_fill" class="st0" d="M133.5,86.2l15.9-15.9L132,53l-15.9,15.9c3.8,1.5,7.3,3.8,10.5,6.9
	C129.7,78.9,131.9,82.4,133.5,86.2z"/>
<path id="path0_fill_2_" class="st1" d="M146.3,163.7c-6.4-6.4-6.4-16.8,0-23.3c6.4-6.4,16.8-6.4,23.3,0c6.4,6.4,6.4,16.8,0,23.3
	C163.1,170.1,152.7,170.1,146.3,163.7L146.3,163.7z"/>
<path id="path0_fill_3_" class="st1" d="M36.1,56.3c-6.4-6.4-6.4-16.8,0-23.3s16.8-6.4,23.3,0s6.4,16.8,0,23.3S42.5,62.8,36.1,56.3z
	"/>
<path id="path3_fill" class="st1" d="M130.7,145.3l17.3-17.3L132.1,112c-1.5,3.8-3.8,7.3-6.9,10.5c-3.1,3.1-6.6,5.4-10.5,6.9
	L130.7,145.3z"/>
<path id="path4_fill" class="st1" d="M90.1,67.9L74.2,52.1L56.8,69.4l15.9,15.9c1.5-3.8,3.8-7.3,6.9-10.5
	C82.7,71.8,86.3,69.5,90.1,67.9L90.1,67.9z"/>
<path id="path0_fill_4_" class="st2" d="M119.1,21.5c0,9.1-7.4,16.4-16.4,16.4s-16.4-7.4-16.4-16.4s7.4-16.4,16.4-16.4
	S119.1,12.5,119.1,21.5L119.1,21.5z"/>
<path id="path0_fill_5_" class="st2" d="M119.1,178.6c0,9.1-7.4,16.4-16.4,16.4s-16.4-7.4-16.4-16.4c0-9.1,7.4-16.4,16.4-16.4
	S119.1,169.6,119.1,178.6L119.1,178.6z"/>
<path id="path5_fill" class="st2" d="M108.6,46.6H98.3V67c1.7-0.3,3.4-0.4,5.2-0.4s3.5,0.2,5.2,0.4V46.6z"/>
<path id="path6_fill" class="st2" d="M108.6,134.1c-1.7,0.3-3.4,0.4-5.2,0.4s-3.5-0.2-5.2-0.4v20.4h10.3V134.1z"/>
<path id="path0_fill_6_" class="st3" d="M175.4,112.1c-9.1,0-16.4-7.4-16.4-16.4s7.4-16.4,16.4-16.4c9.1,0,16.4,7.4,16.4,16.4
	S184.5,112.1,175.4,112.1L175.4,112.1z"/>
<path id="path0_fill_7_" class="st3" d="M24.4,114.8c-9.1,0-16.4-7.4-16.4-16.4s7.4-16.4,16.4-16.4s16.4,7.4,16.4,16.4
	S33.5,114.8,24.4,114.8z"/>
<path id="path7_fill" class="st3" d="M133.6,103.6h20.4V93.2h-20.4c0.3,1.7,0.4,3.4,0.4,5.2S133.9,101.9,133.6,103.6z"/>
<path id="path8_fill" class="st3" d="M70.3,103.6c-0.3-1.7-0.4-3.4-0.4-5.2c0-1.8,0.2-3.5,0.4-5.2H49.9v10.3H70.3L70.3,103.6z"/>
<path id="path9_fill" class="st4" d="M125.5,99.6c0,12.9-10.4,23.3-23.3,23.3s-23.3-10.4-23.3-23.3s10.4-23.3,23.3-23.3
	S125.5,86.7,125.5,99.6L125.5,99.6z"/>
</svg>
