<svg xmlns="http://www.w3.org/2000/svg" xmlns:xlink="http://www.w3.org/1999/xlink" viewBox="0 0 136.1 136.1"><defs><style>.cls-1{fill:url(#linear-gradient);}.cls-2{fill:url(#linear-gradient-2);}.cls-3,.cls-4{fill:#fff;}.cls-3{opacity:0.7;}</style><linearGradient id="linear-gradient" x1="34.38" y1="9.73" x2="100.95" y2="125.04" gradientUnits="userSpaceOnUse"><stop offset="0" stop-color="#f16659"/><stop offset="1" stop-color="#ed204f"/></linearGradient><linearGradient id="linear-gradient-2" x1="40.38" y1="115.98" x2="95.09" y2="21.22" xlink:href="#linear-gradient"/></defs><title>token</title><g id="Varnele2"><circle id="_Path_" data-name="&lt;Path&gt;" class="cls-1" cx="68.05" cy="68.05" r="68.05"/><circle id="_Path_2" data-name="&lt;Path&gt;" class="cls-2" cx="68.05" cy="68.05" r="55.92"/><g id="_Group_" data-name="&lt;Group&gt;"><path id="_Path_3" data-name="&lt;Path&gt;" class="cls-3" d="M174.83,98,154.38,62.63s-1.52-4.07,3.27-4.07h13.18a4.28,4.28,0,0,1,4,2c1.47,2.37,21.83,37.76,21.83,37.76l-17.53,2.16A4.69,4.69,0,0,1,174.83,98Z" transform="translate(-115.21 -11.48)"/><path id="_Path_4" data-name="&lt;Path&gt;" class="cls-4" d="M179,92.74,191.36,71.4a4.36,4.36,0,0,1,4.07-2h13.1s5.43.11,3.39,3.74-14.45,25.17-14.45,25.17-.84,2.24-4.15,2.24h-16s-3-.11-.74-3.78S179,92.74,179,92.74Z" transform="translate(-115.21 -11.48)"/></g></g></svg>