<svg xmlns="http://www.w3.org/2000/svg" id="Livello_1" x="0" y="0" version="1.1" viewBox="0 0 200 200" xml:space="preserve"><style>.st1{fill-rule:evenodd;clip-rule:evenodd;fill:#fff}</style><circle id="Oval-Copy" cx="100" cy="100" r="95" fill="#1e1a31" fill-rule="evenodd" clip-rule="evenodd"/><path d="M88.7 93.8H74.1c-6.6 0-11.9-5.4-11.9-12.1 0-6.7 5.3-12.1 11.9-12.1h31.2c2.6 0 4.7-2.1 4.7-4.7s-2.1-4.7-4.7-4.7H74.1c-11.7 0-21.2 9.6-21.2 21.5s9.5 21.5 21.2 21.5h14.6c6.6 0 11.9 5.4 11.9 12.1 0 6.7-5.3 12.1-11.9 12.1H57.5c-2.6 0-4.7 2.1-4.7 4.7s2.1 4.7 4.7 4.7h31.2c11.7 0 21.2-9.6 21.2-21.5s-9.4-21.5-21.2-21.5z" class="st1"/><path id="Path-3" fill="#fff" fill-opacity=".5" fill-rule="evenodd" d="M61.2 135.1l-7.5-5.5 47.6-67.4 7.6 5.5z" clip-rule="evenodd"/><path id="path-1_1_" d="M117.5 127.7h15.1c2.1 0 3.7-.4 4.8-1.2 1.1-.8 1.6-2.1 1.6-3.8s-.5-3-1.6-3.8c-1.1-.8-2.7-1.2-4.8-1.2h-15.1v-5.5h14.8c3.7 0 6.6.9 8.5 2.7s2.9 4.4 2.9 7.9-1 6.1-2.9 7.9c-2 1.8-4.8 2.7-8.5 2.7h-14.8v-5.7zm17.5-24.2c1.3-.1 2.3-.6 3.1-1.6s1.2-2.2 1.2-3.8c0-1.3-.3-2.4-.8-3.2-.6-.8-1.3-1.2-2.3-1.2-.7 0-1.2.2-1.7.7s-.7 1.1-1 1.9c-.2.8-.5 2.1-.9 3.8-.3 1.7-.7 3.1-1.2 4.3s-1.3 2.1-2.3 2.8c-1 .7-2.3 1.1-4 1.1-1.5 0-2.9-.4-4.1-1.2s-2.1-2-2.8-3.4c-.7-1.5-1-3.1-1-4.9 0-1.9.4-3.6 1.1-5.1s1.7-2.7 2.9-3.6c1.2-.9 2.6-1.3 4.2-1.3v5.4c-1.1.1-2 .6-2.7 1.4-.7.8-1 1.9-1 3.2 0 1.2.3 2.2.8 2.9.5.7 1.3 1.1 2.2 1.1.7 0 1.2-.2 1.6-.7.4-.4.7-1.1.9-1.9.2-.8.5-2.1.8-3.7.3-1.7.7-3.2 1.2-4.3s1.2-2.1 2.2-2.8c1-.7 2.3-1.1 3.9-1.1s3 .4 4.3 1.3c1.3.9 2.2 2 3 3.6.7 1.5 1.1 3.2 1.1 5.2 0 2.1-.4 3.9-1.1 5.5-.8 1.6-1.8 2.9-3.1 3.8-1.3.9-2.8 1.4-4.5 1.4v-5.6zm-17.5-18.6V76c0-2.6.6-4.8 1.7-6.8s2.6-3.5 4.6-4.6c2-1.1 4.2-1.6 6.8-1.6 2.5 0 4.8.5 6.8 1.6s3.5 2.6 4.6 4.6c1.1 2 1.7 4.2 1.7 6.8v8.9h-26.2zm21.4-8.9c0-2.3-.8-4.1-2.3-5.4-1.5-1.3-3.6-1.9-6.1-1.9-2.5 0-4.6.6-6.1 1.9s-2.3 3.1-2.3 5.4v3.4h16.7V76z" class="st1"/></svg>