<?xml version="1.0" encoding="utf-8"?>
<!-- Generator: Adobe Illustrator 22.1.0, SVG Export Plug-In . SVG Version: 6.00 Build 0)  -->
<svg version="1.1" id="Livello_1" xmlns="http://www.w3.org/2000/svg" xmlns:xlink="http://www.w3.org/1999/xlink" x="0px" y="0px"
	 viewBox="0 0 200 200" style="enable-background:new 0 0 200 200;" xml:space="preserve">
<style type="text/css">
	.st0{fill:#003A96;}
	.st1{fill:#A66F27;}
	.st2{fill:#FFFFFF;}
</style>
<path class="st0" d="M100,5C47.5,5,5,47.5,5,100s42.5,95,95,95s95-42.5,95-95S152.5,5,100,5z M100,188.2
	c-48.7,0-88.2-39.5-88.2-88.2S51.3,11.8,100,11.8s88.2,39.5,88.2,88.2S148.7,188.2,100,188.2z"/>
<path class="st1" d="M100,11.8c-48.7,0-88.2,39.5-88.2,88.2s39.5,88.2,88.2,88.2s88.2-39.5,88.2-88.2S148.7,11.8,100,11.8z
	 M182.6,92.2l-2.1-1.5l-2.1,1.5l0.7-2.4l-2-1.5l2.6-0.1l0.8-2.4l0.8,2.4l2.6,0.1l-2,1.5L182.6,92.2z M180.4,81.2l0.7,2.4l-2.1-1.5
	l-2.1,1.5l0.7-2.4l-2-1.5l2.5-0.1l0.8-2.4l0.8,2.4l2.6,0.1L180.4,81.2z M180.4,70.7l-2,1.5l0.7,2.5l-2.1-1.5l-2.1,1.5l0.7-2.5
	l-2-1.5l2.6-0.1l0.8-2.4l0.8,2.4L180.4,70.7z M173.6,60.8l0.8,2.4l2.5,0.1l-2,1.5l0.7,2.4l-2.1-1.5l-2.1,1.5l0.7-2.4l-2-1.5l2.6-0.1
	L173.6,60.8z M169.3,53.3l0.8,2.4l2.6,0l-2,1.5l0.7,2.4l-2.1-1.5l-2.1,1.5l0.7-2.4l-2-1.5l2.6,0L169.3,53.3z M163.6,48.2l0.8-2.4
	l0.8,2.4l2.6,0.1l-2,1.5l0.7,2.4l-2.1-1.5l-2.1,1.5l0.7-2.4l-2-1.5L163.6,48.2z M158.6,40l0.8,2.4l2.6,0.1l-2,1.5l0.7,2.5l-2.1-1.5
	l-2.1,1.5l0.7-2.5l-2-1.5l2.6-0.1L158.6,40z M151.6,36.7l0.8-2.4l0.8,2.4l2.6,0.1l-2,1.5l0.7,2.5l-2.1-1.5l-2.1,1.5l0.7-2.5l-2-1.5
	L151.6,36.7z M144.7,31.7l0.8-2.4l0.8,2.4l2.6,0l-2,1.5l0.7,2.4l-2.1-1.5l-2.1,1.5l0.7-2.4l-2-1.5L144.7,31.7z M136.6,27.3l0.8-2.4
	l0.8,2.4l2.5,0l-2,1.5l0.7,2.4l-2.1-1.5l-2.1,1.5l0.7-2.4l-2-1.5L136.6,27.3z M129.1,23.6l0.8-2.4l0.8,2.4l2.6,0.1l-2,1.5l0.7,2.4
	l-2.1-1.5l-2.1,1.5l0.7-2.4l-2-1.5L129.1,23.6z M121.2,21.3l0.8-2.4l0.8,2.4l2.6,0l-2,1.5l0.7,2.4l-2.1-1.5l-2.1,1.5l0.7-2.4l-2-1.5
	L121.2,21.3z M112.9,19.3l0.8-2.4l0.8,2.4l2.5,0l-2,1.5l0.7,2.4l-2.1-1.5l-2.1,1.5l0.7-2.4l-2-1.5L112.9,19.3z M104.6,18.6l0.8-2.4
	l0.8,2.4l2.6,0.1l-2,1.5l0.7,2.4l-2.1-1.5l-2.1,1.5l0.7-2.4l-2-1.5L104.6,18.6z M94.9,18.6l0.8-2.4l0.8,2.4l2.6,0.1l-2,1.5l0.7,2.4
	l-2.1-1.5l-2.1,1.5l0.7-2.4l-2-1.5L94.9,18.6z M86.6,19.3l0.8-2.4l0.8,2.4l2.6,0l-2,1.5l0.7,2.4l-2.1-1.5l-2.1,1.5l0.7-2.4l-2-1.5
	L86.6,19.3z M78.2,21.3l0.8-2.4l0.8,2.4l2.6,0l-2,1.5l0.7,2.4l-2.1-1.5L77,25.3l0.7-2.4l-2-1.5L78.2,21.3z M70.4,23.6l0.8-2.4
	l0.8,2.4l2.6,0.1l-2,1.5l0.7,2.4l-2.1-1.5l-2.1,1.5l0.7-2.4l-2-1.5L70.4,23.6z M62.8,27.3l0.8-2.4l0.8,2.4l2.6,0l-2,1.5l0.7,2.4
	l-2.1-1.5l-2.1,1.5l0.7-2.4l-2-1.5L62.8,27.3z M54.8,31.7l0.8-2.4l0.8,2.4l2.6,0l-2,1.5l0.7,2.4l-2.1-1.5l-2.1,1.5l0.7-2.4l-2-1.5
	L54.8,31.7z M47.8,36.7l0.8-2.4l0.8,2.4l2.5,0.1l-2,1.5l0.7,2.5l-2.1-1.5l-2.1,1.5l0.7-2.5l-2-1.5L47.8,36.7z M41.7,42.4l0.8-2.4
	l0.8,2.4l2.6,0.1l-2,1.5l0.7,2.5L42.5,45l-2.1,1.5l0.7-2.5l-2-1.5L41.7,42.4z M35.9,48.2l0.8-2.4l0.8,2.4l2.6,0.1l-2,1.5l0.7,2.4
	l-2.1-1.5l-2.1,1.5l0.7-2.4l-2-1.5L35.9,48.2z M31,55.7l0.8-2.4l0.8,2.4l2.6,0l-2,1.5l0.7,2.4l-2.1-1.5l-2.1,1.5l0.7-2.4l-2-1.5
	L31,55.7z M26.6,63.2l0.8-2.4l0.8,2.4l2.6,0.1l-2,1.5l0.7,2.4l-2.1-1.5l-2.1,1.5l0.7-2.4l-2-1.5L26.6,63.2z M23.2,70.7l0.8-2.4
	l0.8,2.4l2.6,0.1l-2,1.5l0.7,2.5l-2.1-1.5L22,74.7l0.7-2.5l-2-1.5L23.2,70.7z M21.3,79.6l0.8-2.4l0.8,2.4l2.5,0.1l-2,1.5l0.7,2.4
	l-2.1-1.5L20,83.7l0.7-2.4l-2-1.5L21.3,79.6z M19.8,88.1l0.8-2.4l0.8,2.4l2.6,0.1l-2,1.5l0.7,2.4l-2.1-1.5l-2.1,1.5l0.7-2.4l-2-1.5
	L19.8,88.1z M18.7,96l0.8-2.4l0.8,2.4l2.6,0.1l-2,1.5l0.7,2.4l-2.1-1.5l-2.1,1.5l0.7-2.4l-2-1.5L18.7,96z M18.7,104.4l0.8-2.4
	l0.8,2.4l2.6,0l-2,1.5l0.7,2.4l-2.1-1.5l-2.1,1.5l0.7-2.4l-2-1.5L18.7,104.4z M17.2,113.1l2.6-0.1l0.8-2.4l0.8,2.4l2.6,0.1l-2,1.5
	l0.7,2.5l-2.1-1.5l-2.1,1.5l0.7-2.5L17.2,113.1z M19.3,121.3l2.6-0.1l0.8-2.4l0.8,2.4l2.5,0.1l-2,1.5l0.7,2.4l-2.1-1.5l-2.1,1.5
	l0.7-2.4L19.3,121.3z M21.7,129.3l2.6,0l0.8-2.4l0.8,2.4l2.6,0l-2,1.5l0.7,2.4l-2.1-1.5l-2.1,1.5l0.7-2.4L21.7,129.3z M26.4,141.1
	l0.7-2.4l-2-1.5l2.6-0.1l0.8-2.4l0.8,2.4l2.6,0.1l-2,1.5l0.7,2.4l-2.1-1.5L26.4,141.1z M31,148.1l0.7-2.4l-2-1.5l2.6,0l0.8-2.4
	l0.8,2.4l2.6,0l-2,1.5l0.7,2.4l-2.1-1.5L31,148.1z M36.2,155.7l0.7-2.4l-2-1.5l2.6,0l0.8-2.4l0.8,2.4l2.6,0l-2,1.5l0.7,2.4l-2.1-1.5
	L36.2,155.7z M43.6,160l-2.1,1.5l0.7-2.5l-2-1.5l2.6-0.1l0.8-2.4l0.8,2.4l2.5,0.1l-2,1.5l0.7,2.5L43.6,160z M52.1,166.7l-2.1-1.5
	l-2.1,1.5l0.7-2.4l-2-1.5l2.6,0l0.8-2.4l0.8,2.4l2.6,0l-2,1.5L52.1,166.7z M59,171.8l-2.1-1.5l-2.1,1.5l0.7-2.4l-2-1.5l2.5,0
	l0.8-2.4l0.8,2.4l2.6,0l-2,1.5L59,171.8z M66,176.2l-2.1-1.5l-2.1,1.5l0.7-2.5l-2-1.5l2.6-0.1l0.8-2.4l0.8,2.4l2.5,0.1l-2,1.5
	L66,176.2z M25.9,100c0-40.9,33.1-74.1,74.1-74.1s74.1,33.1,74.1,74.1s-33.1,74.1-74.1,74.1S25.9,140.9,25.9,100z M138.1,176.2
	l-2.1-1.5l-2.1,1.5l0.7-2.5l-2-1.5l2.5-0.1l0.8-2.4l0.8,2.4l2.6,0.1l-2,1.5L138.1,176.2z M145.2,171.8l-2.1-1.5l-2.1,1.5l0.7-2.4
	l-2-1.5l2.6,0l0.8-2.4l0.8,2.4l2.5,0l-2,1.5L145.2,171.8z M152.1,166.7l-2.1-1.5l-2.1,1.5l0.7-2.4l-2-1.5l2.6,0l0.8-2.4l0.8,2.4
	l2.6,0l-2,1.5L152.1,166.7z M158.5,161.5l-2.1-1.5l-2.1,1.5l0.7-2.5l-2-1.5l2.5-0.1l0.8-2.4l0.8,2.4l2.6,0.1l-2,1.5L158.5,161.5z
	 M163.8,155.7l-2.1-1.5l-2.1,1.5l0.7-2.4l-2-1.5l2.6,0l0.8-2.4l0.8,2.4l2.6,0l-2,1.5L163.8,155.7z M169,148.1l-2.1-1.5l-2.1,1.5
	l0.7-2.4l-2-1.5l2.6,0l0.8-2.4l0.8,2.4l2.6,0l-2,1.5L169,148.1z M173.6,141.1l-2.1-1.5l-2.1,1.5l0.7-2.4l-2-1.5l2.6-0.1l0.8-2.4
	l0.8,2.4l2.6,0.1l-2,1.5L173.6,141.1z M176.9,133.3l-2.1-1.5l-2.1,1.5l0.7-2.4l-2-1.5l2.6,0l0.8-2.4l0.8,2.4l2.6,0l-2,1.5
	L176.9,133.3z M179.4,125.2l-2.1-1.5l-2.1,1.5l0.7-2.4l-2-1.5l2.5-0.1l0.8-2.4l0.8,2.4l2.6,0.1l-2,1.5L179.4,125.2z M181.5,117.1
	l-2.1-1.5l-2.1,1.5l0.7-2.5l-2-1.5l2.6-0.1l0.8-2.4l0.8,2.4l2.6,0.1l-2,1.5L181.5,117.1z M181.8,106l0.7,2.4l-2.1-1.5l-2.1,1.5
	l0.7-2.4l-2-1.5l2.6,0l0.8-2.4l0.8,2.4l2.5,0L181.8,106z M181.9,97.6l0.7,2.4l-2.1-1.5l-2.1,1.5l0.7-2.4l-2-1.5l2.6-0.1l0.8-2.4
	l0.8,2.4l2.6,0.1L181.9,97.6z"/>
<path class="st0" d="M73.3,186.1c0,0,2-0.4,2.7-3.9c0.7-3.5,4-7.1,8.6-3.5c0,0-5-0.9-5,3.9c0,4.8,7,4.6,7,4.6s3.5-0.5,3.3-3.5
	c-0.2-3,2.7-8.3,8.5-4.8c0,0-5-0.9-4.9,3.1s2.2,5.4,5.9,5.2c3.7-0.1,4.7-3.9,5-6.4c0.2-2,3.9-5.4,8-1.9c0,0-4.6-1.4-4.6,3.2
	c0,4.6,3.5,5.1,5,5.1s5.4-1.1,5.4-4.4s1.9-5.6,4.2-5.6s3.5,0.8,4.3,2.1c0,0-5.4-2.2-5.4,3.1c0.1,4.2,4.5,4.7,4.5,4.7
	S92.1,197,73.3,186.1z"/>
<path class="st0" d="M100,25.9c-40.9,0-74.1,33.1-74.1,74.1s33.1,74.1,74.1,74.1s74.1-33.1,74.1-74.1S140.9,25.9,100,25.9z
	 M100,171.8c-39.6,0-71.8-32.2-71.8-71.8S60.4,28.2,100,28.2s71.8,32.2,71.8,71.8S139.6,171.8,100,171.8z"/>
<path class="st1" d="M100,30.4c38.3,0,69.6,31.2,69.6,69.6s-31.2,69.6-69.6,69.6S30.4,138.3,30.4,100S61.7,30.4,100,30.4L100,30.4z
	 M100,28.2c-39.6,0-71.8,32.2-71.8,71.8s32.2,71.8,71.8,71.8s71.8-32.2,71.8-71.8S139.6,28.2,100,28.2L100,28.2z"/>
<path class="st0" d="M100,30.4c38.3,0,69.6,31.2,69.6,69.6s-31.2,69.6-69.6,69.6S30.4,138.3,30.4,100S61.7,30.4,100,30.4L100,30.4z"
	/>
<path class="st2" d="M165,100c0,12.1-3.3,23.4-9.2,33.1c-16.1-10.6-35.3-16.7-55.9-16.7s-39.9,6.2-55.9,16.7
	c-5.8-9.7-9.2-21-9.2-33.1c0-35.9,29.2-65,65-65S165,64.1,165,100z"/>
<path class="st1" d="M145.6,87.3l-5.6,5.1c-12.9-4.6-26.2-6.7-40.6-6.7c-14,0-26.9,2.3-39.5,6.7l-5.5-4.9l5.5-4.4l16,2.6
	c0-1.2,0.2-2.5,0.2-2.5l-14.2-1.7l2-1.8l12.8,1c0.5-2.7,2.1-5.1,2.1-5.1l-9.6-8l-0.4-2.6L80,72.9c0.6-0.8,1.5-1.8,1.5-1.8l-12.9-9.2
	l-1-6.6l7.1,0.9l9,12.6c0.8-0.8,1.7-1.5,1.7-1.5l-8-11.1l2.2-0.2L88,66c1.5-1.1,5.6-2.5,5.6-2.5l-1.3-12.1l1.4-1.9l2.4,14
	c0.6-0.1,2.2-0.3,2.2-0.3l-2.3-16l4.2-5.4l4,5.6l-2.4,15.8c1.5,0,2.6,0,2.6,0l1.9-14l1.3,1.7L106.7,64c2.5,0.9,5.1,2.6,5.1,2.6
	l8.2-10.6l2.6,0.3l-8.3,11.3l1.9,1.5L125,56l7.1-1l-0.6,7l-13.2,9.5l1.3,1.6l11.5-8.2l-0.1,2.6l-9.7,7.8c1.3,2.2,1.8,5.3,1.8,5.3
	l12.9-1.2l1.9,1.7l-14.1,2l0.4,2.9l15.8-2.9L145.6,87.3z"/>
<path class="st2" d="M131.1,137.5c0,0-29.2-19.8-62.2,0c0,0,2.3,15.5,12.6,21.9c0,0,1.4-0.3,1.9-2.7c0.5-2.5,2.8-5,6-2.5
	c0,0-3.5-0.6-3.5,2.7s4.9,3.2,4.9,3.2s2.5-0.4,2.4-2.5c-0.1-2.1,1.9-5.8,6-3.3c0,0-3.5-0.7-3.4,2.2s1.6,3.8,4.1,3.7
	c2.6-0.1,3.3-2.7,3.5-4.5c0.1-1.4,2.7-3.8,5.7-1.3c0,0-3.2-1-3.2,2.3c0,3.3,2.5,3.6,3.5,3.6c1,0,3.8-0.8,3.8-3.1c0-2.3,1.4-4,3-4
	c1.6,0,2.5,0.6,3,1.5c0,0-3.8-1.6-3.8,2.2c0,2.9,3.2,3.3,3.2,3.3S131,150.8,131.1,137.5z"/>
<polygon class="st1" points="101,133.9 102.3,137.8 106.3,137.8 103.1,140.3 104.3,144.2 101,141.8 97.6,144.2 98.8,140.3 
	95.6,137.8 99.6,137.8 "/>
<polygon class="st1" points="118.7,137.9 120.1,141.7 124.1,141.8 120.9,144.3 122.1,148.2 118.7,145.8 115.4,148.2 116.6,144.3 
	113.4,141.8 117.4,141.7 "/>
<polygon class="st1" points="83.2,137.9 84.5,141.7 88.6,141.8 85.3,144.2 86.5,148.1 83.2,145.8 79.9,148.1 81,144.2 77.8,141.8 
	81.8,141.7 "/>
<path class="st0" d="M100.2,90.4c24.5,0,47.2,7.6,65.9,20.5l0.5-6.5c-19.1-12.4-41.9-19.6-66.4-19.6l0,0c-25.1,0-48.3,7.5-67.7,20.5
	l1.5,5.9C52.8,98.1,75.6,90.4,100.2,90.4"/>
<path class="st0" d="M100.2,98c23.9,0,46,7.7,63.9,20.8l1.5-6c-18.5-12.9-41-20.5-65.3-20.5l0,0c-24.7,0-47.6,7.9-66.3,21.2l1.5,6
	C53.5,106,76,98,100.2,98"/>
<path class="st0" d="M100.1,106.5c23.1,0,44.5,7.4,61.7,19.8c0.4,0.3,3.1-4.9,2.6-5.2c-18-12.7-40.3-20.2-64.3-20.2l0,0
	c-23.8,0-45.8,7.4-63.8,19.8c-0.7,0.5,1.8,5.8,2.2,5.5C55.8,113.8,77.1,106.5,100.1,106.5"/>
<path class="st0" d="M100.2,114.4c21.8,0,42,6.8,58.3,18.2c0.4,0.3,1.8-5.8,1.1-6.2c-16.8-11.1-37.2-17.6-59.3-17.6l0,0
	c-23.3,0-44.8,7.2-62.1,19.5c-0.6,0.4,1.7,5.9,1.7,5.9C56.5,121.8,77.5,114.4,100.2,114.4"/>
</svg>
