<?xml version="1.0" encoding="utf-8"?>
<!-- Generator: Adobe Illustrator 22.1.0, SVG Export Plug-In . SVG Version: 6.00 Build 0)  -->
<svg version="1.0" id="Livello_1" xmlns="http://www.w3.org/2000/svg" xmlns:xlink="http://www.w3.org/1999/xlink" x="0px" y="0px"
	 viewBox="0 0 200 200" enable-background="new 0 0 200 200" xml:space="preserve">
<linearGradient id="SVGID_1_" gradientUnits="userSpaceOnUse" x1="26.1939" y1="94.2259" x2="63.509" y2="94.2259">
	<stop  offset="0" style="stop-color:#9AC444"/>
	<stop  offset="1" style="stop-color:#4E9A53"/>
</linearGradient>
<path fill="url(#SVGID_1_)" d="M63.5,47.6v80.9l-37.3,31.1V47.6c0-10.3,8.4-18.7,18.7-18.7c5.1,0,9.8,2.1,13.2,5.5
	C61.4,37.8,63.5,42.5,63.5,47.6z"/>
<linearGradient id="SVGID_2_" gradientUnits="userSpaceOnUse" x1="72.3741" y1="60.8987" x2="159.169" y2="143.9399" gradientTransform="matrix(0.766 -0.6428 0.8007 0.9542 -75.2077 82.1042)">
	<stop  offset="0" style="stop-color:#9AC44B"/>
	<stop  offset="1" style="stop-color:#41AEDC"/>
</linearGradient>
<path fill="url(#SVGID_2_)" d="M157.4,179.2L157.4,179.2c-7.9,6.6-19.7,5.6-26.3-2.3L31.3,57.9c-6.6-7.9-5.6-19.7,2.3-26.3l0,0
	c7.9-6.6,19.7-5.6,26.3,2.3l99.8,118.9C166.3,160.7,165.2,172.6,157.4,179.2z"/>
<g>
	<path fill="#FF7C12" d="M170.1,54c0,14.7-10.7,37.3-26.7,42.6c-16-5.3-26.7-27.9-26.7-42.6s11.9-26.7,26.7-26.7
		S170.1,39.3,170.1,54z"/>
	<circle fill="#A442C8" cx="143.5" cy="54" r="10.7"/>
</g>
<path fill="#FFC420" d="M63.5,128.4v36.4c0,10.3-8.4,18.7-18.7,18.7s-18.7-8.4-18.7-18.7v-5.3L63.5,128.4z"/>
</svg>
