<svg xmlns="http://www.w3.org/2000/svg" id="Livello_1" viewBox="0 0 200 200"><style>.st0{fill:#003a96}.st1{fill:#a66f27}.st2{fill:#fff}</style><path d="M100 5C47.5 5 5 47.5 5 100s42.5 95 95 95 95-42.5 95-95-42.5-95-95-95zm0 183.2c-48.7 0-88.2-39.5-88.2-88.2S51.3 11.8 100 11.8s88.2 39.5 88.2 88.2-39.5 88.2-88.2 88.2z" class="st0"/><path d="M100 11.8c-48.7 0-88.2 39.5-88.2 88.2s39.5 88.2 88.2 88.2 88.2-39.5 88.2-88.2-39.5-88.2-88.2-88.2zm82.6 80.4l-2.1-1.5-2.1 1.5.7-2.4-2-1.5 2.6-.1.8-2.4.8 2.4 2.6.1-2 1.5.7 2.4zm-2.2-11l.7 2.4-2.1-1.5-2.1 1.5.7-2.4-2-1.5 2.5-.1.8-2.4.8 2.4 2.6.1-1.9 1.5zm0-10.5l-2 1.5.7 2.5-2.1-1.5-2.1 1.5.7-2.5-2-1.5 2.6-.1.8-2.4.8 2.4 2.6.1zm-6.8-9.9l.8 2.4 2.5.1-2 1.5.7 2.4-2.1-1.5-2.1 1.5.7-2.4-2-1.5 2.6-.1.9-2.4zm-4.3-7.5l.8 2.4h2.6l-2 1.5.7 2.4-2.1-1.5-2.1 1.5.7-2.4-2-1.5h2.6l.8-2.4zm-5.7-5.1l.8-2.4.8 2.4 2.6.1-2 1.5.7 2.4-2.1-1.5-2.1 1.5.7-2.4-2-1.5 2.6-.1zm-5-8.2l.8 2.4 2.6.1-2 1.5.7 2.5-2.1-1.5-2.1 1.5.7-2.5-2-1.5 2.6-.1.8-2.4zm-7-3.3l.8-2.4.8 2.4 2.6.1-2 1.5.7 2.5-2.1-1.5-2.1 1.5.7-2.5-2-1.5 2.6-.1zm-6.9-5l.8-2.4.8 2.4h2.6l-2 1.5.7 2.4-2.1-1.5-2.1 1.5.7-2.4-2-1.5h2.6zm-8.1-4.4l.8-2.4.8 2.4h2.5l-2 1.5.7 2.4-2.1-1.5-2.1 1.5.7-2.4-2-1.5h2.7zm-7.5-3.7l.8-2.4.8 2.4 2.6.1-2 1.5.7 2.4-2.1-1.5-2.1 1.5.7-2.4-2-1.5 2.6-.1zm-7.9-2.3l.8-2.4.8 2.4h2.6l-2 1.5.7 2.4-2.1-1.5-2.1 1.5.7-2.4-2-1.5h2.6zm-8.3-2l.8-2.4.8 2.4h2.5l-2 1.5.7 2.4-2.1-1.5-2.1 1.5.7-2.4-2-1.5h2.7zm-8.3-.7l.8-2.4.8 2.4 2.6.1-2 1.5.7 2.4-2.1-1.5-2.1 1.5.7-2.4-2-1.5 2.6-.1zm-9.7 0l.8-2.4.8 2.4 2.6.1-2 1.5.7 2.4-2.1-1.5-2.1 1.5.7-2.4-2-1.5 2.6-.1zm-8.3.7l.8-2.4.8 2.4h2.6l-2 1.5.7 2.4-2.1-1.5-2.1 1.5.7-2.4-2-1.5h2.6zm-8.4 2l.8-2.4.8 2.4h2.6l-2 1.5.7 2.4-2.1-1.5-2 1.6.7-2.4-2-1.5 2.5-.1zm-7.8 2.3l.8-2.4.8 2.4 2.6.1-2 1.5.7 2.4-2.1-1.5-2.1 1.5.7-2.4-2-1.5 2.6-.1zm-7.6 3.7l.8-2.4.8 2.4H67l-2 1.5.7 2.4-2.1-1.5-2.1 1.5.7-2.4-2-1.5h2.6zm-8 4.4l.8-2.4.8 2.4H59l-2 1.5.7 2.4-2.1-1.5-2.1 1.5.7-2.4-2-1.5h2.6zm-7 5l.8-2.4.8 2.4 2.5.1-2 1.5.7 2.5-2.1-1.5-2.1 1.5.7-2.5-2-1.5 2.7-.1zm-6.1 5.7l.8-2.4.8 2.4 2.6.1-2 1.5.7 2.5-2.1-1.5-2.1 1.5.7-2.5-2-1.5 2.6-.1zm-5.8 5.8l.8-2.4.8 2.4 2.6.1-2 1.5.7 2.4-2.1-1.5-2.1 1.5.7-2.4-2-1.5 2.6-.1zM31 55.7l.8-2.4.8 2.4h2.6l-2 1.5.7 2.4-2.1-1.5-2.1 1.5.7-2.4-2-1.5H31zm-4.4 7.5l.8-2.4.8 2.4 2.6.1-2 1.5.7 2.4-2.1-1.5-2.1 1.5.7-2.4-2-1.5 2.6-.1zm-3.4 7.5l.8-2.4.8 2.4 2.6.1-2 1.5.7 2.5-2.1-1.5-2 1.4.7-2.5-2-1.5h2.5zm-1.9 8.9l.8-2.4.8 2.4 2.5.1-2 1.5.7 2.4-2.1-1.5-2 1.6.7-2.4-2-1.5 2.6-.2zm-1.5 8.5l.8-2.4.8 2.4 2.6.1-2 1.5.7 2.4-2.1-1.5-2.1 1.5.7-2.4-2-1.5 2.6-.1zM18.7 96l.8-2.4.8 2.4 2.6.1-2 1.5.7 2.4-2.1-1.5-2.1 1.5.7-2.4-2-1.5 2.6-.1zm0 8.4l.8-2.4.8 2.4h2.6l-2 1.5.7 2.4-2.1-1.5-2.1 1.5.7-2.4-2-1.5h2.6zm-1.5 8.7l2.6-.1.8-2.4.8 2.4 2.6.1-2 1.5.7 2.5-2.1-1.5-2.1 1.5.7-2.5-2-1.5zm2.1 8.2l2.6-.1.8-2.4.8 2.4 2.5.1-2 1.5.7 2.4-2.1-1.5-2.1 1.5.7-2.4-1.9-1.5zm2.4 8h2.6l.8-2.4.8 2.4h2.6l-2 1.5.7 2.4-2.1-1.5-2.1 1.5.7-2.4-2-1.5zm4.7 11.8l.7-2.4-2-1.5 2.6-.1.8-2.4.8 2.4 2.6.1-2 1.5.7 2.4-2.1-1.5-2.1 1.5zm4.6 7l.7-2.4-2-1.5h2.6l.8-2.4.8 2.4h2.6l-2 1.5.7 2.4-2.1-1.5-2.1 1.5zm5.2 7.6l.7-2.4-2-1.5h2.6l.8-2.4.8 2.4h2.6l-2 1.5.7 2.4-2.1-1.5-2.1 1.5zm7.4 4.3l-2.1 1.5.7-2.5-2-1.5 2.6-.1.8-2.4.8 2.4 2.5.1-2 1.5.7 2.5-2-1.5zm8.5 6.7l-2.1-1.5-2.1 1.5.7-2.4-2-1.5h2.6l.8-2.4.8 2.4h2.6l-2 1.5.7 2.4zm6.9 5.1l-2.1-1.5-2.1 1.5.7-2.4-2-1.5H56l.8-2.4.8 2.4h2.6l-2 1.5.8 2.4zm7 4.4l-2.1-1.5-2.1 1.5.7-2.5-2-1.5 2.6-.1.8-2.4.8 2.4 2.5.1-2 1.5.8 2.5zM25.9 100c0-40.9 33.1-74.1 74.1-74.1S174.1 59 174.1 100 141 174.1 100 174.1 25.9 140.9 25.9 100zm112.2 76.2l-2.1-1.5-2.1 1.5.7-2.5-2-1.5 2.5-.1.8-2.4.8 2.4 2.6.1-2 1.5.8 2.5zm7.1-4.4l-2.1-1.5-2.1 1.5.7-2.4-2-1.5h2.6l.8-2.4.8 2.4h2.5l-2 1.5.8 2.4zm6.9-5.1l-2.1-1.5-2.1 1.5.7-2.4-2-1.5h2.6l.8-2.4.8 2.4h2.6l-2 1.5.7 2.4zm6.4-5.2l-2.1-1.5-2.1 1.5.7-2.5-2-1.5 2.5-.1.8-2.4.8 2.4 2.6.1-2 1.5.8 2.5zm5.3-5.8l-2.1-1.5-2.1 1.5.7-2.4-2-1.5h2.6l.8-2.4.8 2.4h2.6l-2 1.5.7 2.4zm5.2-7.6l-2.1-1.5-2.1 1.5.7-2.4-2-1.5h2.6l.8-2.4.8 2.4h2.6l-2 1.5.7 2.4zm4.6-7l-2.1-1.5-2.1 1.5.7-2.4-2-1.5 2.6-.1.8-2.4.8 2.4 2.6.1-2 1.5.7 2.4zm3.3-7.8l-2.1-1.5-2.1 1.5.7-2.4-2-1.5h2.6l.8-2.4.8 2.4h2.6l-2 1.5.7 2.4zm2.5-8.1l-2.1-1.5-2.1 1.5.7-2.4-2-1.5 2.5-.1.8-2.4.8 2.4 2.6.1-2 1.5.8 2.4zm2.1-8.1l-2.1-1.5-2.1 1.5.7-2.5-2-1.5 2.6-.1.8-2.4.8 2.4 2.6.1-2 1.5.7 2.5zm.3-11.1l.7 2.4-2.1-1.5-2.1 1.5.7-2.4-2-1.5h2.6l.8-2.4.8 2.4h2.5l-1.9 1.5zm.1-8.4l.7 2.4-2.1-1.5-2.1 1.5.7-2.4-2-1.5 2.6-.1.8-2.4.8 2.4 2.6.1-2 1.5z" class="st1"/><path d="M73.3 186.1s2-.4 2.7-3.9 4-7.1 8.6-3.5c0 0-5-.9-5 3.9s7 4.6 7 4.6 3.5-.5 3.3-3.5 2.7-8.3 8.5-4.8c0 0-5-.9-4.9 3.1s2.2 5.4 5.9 5.2c3.7-.1 4.7-3.9 5-6.4.2-2 3.9-5.4 8-1.9 0 0-4.6-1.4-4.6 3.2s3.5 5.1 5 5.1 5.4-1.1 5.4-4.4 1.9-5.6 4.2-5.6 3.5.8 4.3 2.1c0 0-5.4-2.2-5.4 3.1.1 4.2 4.5 4.7 4.5 4.7s-33.7 9.9-52.5-1zM100 25.9C59.1 25.9 25.9 59 25.9 100S59 174.1 100 174.1s74.1-33.1 74.1-74.1-33.2-74.1-74.1-74.1zm0 145.9c-39.6 0-71.8-32.2-71.8-71.8S60.4 28.2 100 28.2s71.8 32.2 71.8 71.8-32.2 71.8-71.8 71.8z" class="st0"/><path d="M100 30.4c38.3 0 69.6 31.2 69.6 69.6s-31.2 69.6-69.6 69.6-69.6-31.3-69.6-69.6S61.7 30.4 100 30.4zm0-2.2c-39.6 0-71.8 32.2-71.8 71.8s32.2 71.8 71.8 71.8 71.8-32.2 71.8-71.8-32.2-71.8-71.8-71.8z" class="st1"/><path d="M100 30.4c38.3 0 69.6 31.2 69.6 69.6s-31.2 69.6-69.6 69.6-69.6-31.3-69.6-69.6S61.7 30.4 100 30.4z" class="st0"/><path d="M165 100c0 12.1-3.3 23.4-9.2 33.1-16.1-10.6-35.3-16.7-55.9-16.7S60 122.6 44 133.1c-5.8-9.7-9.2-21-9.2-33.1 0-35.9 29.2-65 65-65S165 64.1 165 100z" class="st2"/><path d="M145.6 87.3l-5.6 5.1c-12.9-4.6-26.2-6.7-40.6-6.7-14 0-26.9 2.3-39.5 6.7l-5.5-4.9 5.5-4.4 16 2.6c0-1.2.2-2.5.2-2.5l-14.2-1.7 2-1.8 12.8 1c.5-2.7 2.1-5.1 2.1-5.1l-9.6-8-.4-2.6 11.5 8c.6-.8 1.3-1.9 1.3-1.9l-12.9-9.2-1-6.6 7.1.9 9 12.6c.8-.8 1.7-1.5 1.7-1.5l-8-11.1 2.2-.2L88 66c1.5-1.1 5.6-2.5 5.6-2.5l-1.3-12.1 1.4-1.9L96 63.3c.6-.1 2.3-.2 2.3-.2L96 47.2l4.2-5.4 4 5.6-2.3 15.7 2.5.1 1.9-14 1.3 1.7-.9 13.1c2.5.9 5.1 2.6 5.1 2.6l8.1-10.4h2.8l-8.4 11.4 1.9 1.5L125 56l7.1-1-.6 7-13.2 9.5 1.3 1.6 11.5-8.2-.1 2.6-9.7 7.8c1.3 2.2 1.8 5.3 1.8 5.3l12.9-1.2 1.9 1.7-14.1 2 .4 2.9 15.8-2.9 5.6 4.2z" class="st1"/><path d="M131.1 137.5s-29.2-19.8-62.2 0c0 0 2.3 15.5 12.6 21.9 0 0 1.4-.3 1.9-2.7.5-2.5 2.8-5 6-2.5 0 0-3.5-.6-3.5 2.7s4.9 3.2 4.9 3.2 2.5-.4 2.4-2.5 1.9-5.8 6-3.3c0 0-3.5-.7-3.4 2.2s1.6 3.8 4.1 3.7c2.6-.1 3.3-2.7 3.5-4.5.1-1.4 2.7-3.8 5.7-1.3 0 0-3.2-1-3.2 2.3s2.5 3.6 3.5 3.6 3.8-.8 3.8-3.1 1.4-4 3-4 2.5.6 3 1.5c0 0-3.8-1.6-3.8 2.2 0 2.9 3.2 3.3 3.2 3.3s12.4-9.4 12.5-22.7z" class="st2"/><path d="M101 133.9l1.3 3.9h4l-3.2 2.5 1.2 3.9-3.3-2.4-3.4 2.4 1.2-3.9-3.2-2.5h4l1.4-3.9zm17.7 4l1.4 3.8 4 .1-3.2 2.5 1.2 3.9-3.4-2.4-3.3 2.4 1.2-3.9-3.2-2.5 4-.1 1.3-3.8zm-35.5 0l1.3 3.8 4.1.1-3.3 2.4 1.2 3.9-3.3-2.3-3.3 2.3 1.1-3.9-3.2-2.4 4-.1 1.4-3.8z" class="st1"/><path d="M100.2 90.4c24.5 0 47.2 7.6 65.9 20.5l.5-6.5c-19.1-12.4-41.9-19.6-66.4-19.6-25.1 0-48.3 7.5-67.7 20.5l1.5 5.9c18.8-13.1 41.6-20.8 66.2-20.8" class="st0"/><path d="M100.2 98c23.9 0 46 7.7 63.9 20.8l1.5-6c-18.5-12.9-41-20.5-65.3-20.5-24.7 0-47.6 7.9-66.3 21.2l1.5 6C53.5 106 76 98 100.2 98" class="st0"/><path d="M100.1 106.5c23.1 0 44.5 7.4 61.7 19.8.4.3 3.1-4.9 2.6-5.2-18-12.7-40.3-20.2-64.3-20.2-23.8 0-45.8 7.4-63.8 19.8-.7.5 1.8 5.8 2.2 5.5 17.3-12.4 38.6-19.7 61.6-19.7" class="st0"/><path d="M100.2 114.4c21.8 0 42 6.8 58.3 18.2.4.3 1.8-5.8 1.1-6.2-16.8-11.1-37.2-17.6-59.3-17.6-23.3 0-44.8 7.2-62.1 19.5-.6.4 1.7 5.9 1.7 5.9 16.6-12.4 37.6-19.8 60.3-19.8" class="st0"/></svg>