<?xml version="1.0" encoding="utf-8"?>
<!-- Generator: Adobe Illustrator 22.1.0, SVG Export Plug-In . SVG Version: 6.00 Build 0)  -->
<svg version="1.0" id="Livello_1" xmlns="http://www.w3.org/2000/svg" xmlns:xlink="http://www.w3.org/1999/xlink" x="0px" y="0px"
	 viewBox="0 0 199.4 200" style="enable-background:new 0 0 199.4 200;" xml:space="preserve">
<style type="text/css">
	.st0{fill:#05BCA9;}
	.st1{fill:#FFFFFF;}
</style>
<title>powr</title>
<path class="st0" d="M101.1,5.2c5.9,6.5,12.2,12.5,18.3,18.8c1.1,1.1,2.3,0.9,3.5,0.5c7.4-1.9,14.9-3.8,22.3-5.9
	c2.2-0.7,2.8-0.2,3.4,2c1.8,7.4,3.9,14.6,5.8,22c0.5,2,1.3,3.1,3.5,3.6c7.7,1.9,15.2,4.2,22.7,6.1c2,0.5,2.3,1.2,1.7,3
	c-2.1,7.4-4,14.8-6.2,22.2c-0.8,1.8-0.2,3.9,1.3,5.1c5.3,5.1,10.3,10.5,15.6,15.6c1.8,1.8,2,2.7,0,4.6c-5.5,5.2-10.8,10.7-16.2,15.9
	c-1.3,1.1-1.8,2.9-1.1,4.5c2.1,7.5,4,15.1,6.1,22.4c0.7,2.3,0,3.1-2.2,3.6c-7.4,1.8-14.6,3.9-22,5.7c-2.1,0.5-3.1,1.3-3.6,3.5
	c-1.8,7.3-4.1,14.6-5.9,21.9c-0.6,2.2-1.4,2.6-3.5,2c-7.3-2.1-14.6-3.9-21.9-6.1c-1.8-0.7-3.9-0.2-5.1,1.4
	c-5.3,5.5-10.8,10.7-16,16.2c-1.7,1.7-2.7,1.6-4.3-0.1c-5.2-5.4-10.5-10.6-15.7-16c-1.3-1.6-3.5-2.2-5.4-1.5
	c-7.3,2.1-14.7,3.8-22,5.9c-1.9,0.6-2.6,0.1-3-1.8c-1.9-7.5-4-14.8-5.9-22.3c-0.5-2-1.3-3.1-3.5-3.6c-7.4-1.8-14.6-4-22-5.8
	c-2.7-0.7-3.1-1.7-2.4-4.3c2.2-7.3,4-14.6,6.1-21.9c0.6-1.6,0.1-3.4-1.2-4.4c-5.5-5.4-10.8-10.9-16.3-16.3c-1.4-1.4-1.5-2.3,0-3.7
	c5.6-5.4,11-11,16.6-16.4c1.3-1.1,1.8-2.9,1.1-4.5c-2.1-7.4-3.8-14.9-6-22.2c-0.8-2.6-0.1-3.4,2.4-4c7.5-1.8,14.8-3.9,22.3-5.8
	c1.5-0.2,2.7-1.5,2.9-3c1.9-7.4,4.1-14.8,6-22.2c0.6-2.2,1.4-2.6,3.5-2c7.4,2.1,14.8,4,22.2,6.1c1.6,0.6,3.4,0.2,4.5-1.1
	c5.6-5.7,11.3-11.3,17-16.9C98.9,6,99.1,5.5,99.1,5C99.7,5.2,100.4,5.2,101.1,5.2L101.1,5.2z M61.9,42.1c-2.1,0.6-4.2,1.1-6.3,1.5
	c-1,0.1-1.8,1-1.7,2c0,0.1,0,0.2,0,0.2c0.1,1.5,0,3,0,4.8c3-2.9,5.7-5.6,8.3-8.1c0.1-0.2,0.2-0.4,0.4-0.5
	C62.4,42.1,62.1,42.1,61.9,42.1L61.9,42.1z M13.8,97c3.6-0.9,7.2-1.7,10.8-2.7c4.1-1,4.2-1.3,2-5.4l-13.1,7.7 M11.8,105.1
	c4,4.6,8.3,8.8,12.7,13.2c1.8-3.6,2.1-5.3,0.9-6C20.9,109.9,16.8,106.8,11.8,105.1 M60.3,21.7c3.2,2.7,7.1,4.5,10.6,6.6
	c4.1,2.5,4.4,2.4,7.2-2.3C72.2,24.9,66.5,22.4,60.3,21.7 M59.7,179c6.2-0.8,11.8-2.9,18.8-4.5c-2.5-1.3-3-4.6-5.5-3.5
	C68.4,173.3,63.7,175.7,59.7,179c-0.3,0.1-0.6,0.2-0.9,0.3 M187.3,105.6c-3.3,1.8-6.7,3.6-10,5.4c-4.4,2.4-4.3,2.4-2.8,7
	c0.1,0.1,0.2,0.3,0.3,0.4c4.4-4.2,8.6-8.3,13-12.5 M20.8,141.3c2.1-2.9,4.3-5.9,6.3-8.9c3.9-5.6,3.9-5.6-1-10.3
	c-0.1-0.1-0.4-0.1-0.7-0.2l-5.1,19 M20.5,55c-0.3,0-0.5-0.1-0.8-0.1c0.1,0.3,0.1,0.5,0.2,0.8c2,7.6,3.9,15.1,5.9,22.6
	c0.3,0.2,0.7,0.4,1,0.5c3.8-4.1,7.6-8.1,11.5-12.1c0.9-1,0.1-1.2-0.5-1.6C31.9,61.7,26.1,58.3,20.5,55L20.5,55z M106.1,119.8
	c1,0.5,1.5-0.5,2.2-1.2c3.7-4.4,7.3-8.8,11-13.1c0.9-0.9,1.2-2.3,0.6-3.4c-2-5.2-3.9-10.5-5.8-15.7c-0.3-1.2-1.4-2.2-2.7-2.3
	c-5.7-0.9-11.5-2-17.1-3c-1-0.3-2,0.1-2.6,0.9c-3.7,4.5-7.5,9.1-11.4,13.5c-0.8,0.8-1,2-0.5,2.9c2,5.4,4,10.9,6,16.3
	c0.4,0.9,0.8,1.7,2,1.9C93.9,117.7,99.8,118.8,106.1,119.8L106.1,119.8z M65,133c2.7-10.2,5.4-20.2,8.1-30.1
	c0.5-1.6-0.3-1.8-1.6-1.8c-5.1,0-10.2,0.1-15.3-0.1c-2.1-0.1-2.4,0.7-2.4,2.5c0.1,5,0.1,10-0.1,15.1c-0.2,8-0.2,8,6.8,11.9
	C61.9,131.2,63.3,131.9,65,133L65,133z M87.4,123.7c-3.1,5.3-6,10.3-9,15.3c-0.8,1.2-0.4,1.8,0.8,2.5c6.3,3.6,12.4,7.2,18.6,10.9
	c1,0.7,2.3,0.8,3.3,0.2c2.8-1.6,5.6-3.3,8.4-4.8c1.1-0.7,1-1,0.2-1.9C102.2,138.6,94.9,131.3,87.4,123.7L87.4,123.7z M88.9,54.1
	c7.7,7.5,15,14.6,22.3,21.8c1.3,1.3,1.8,0.8,2.5-0.5c2.6-4.5,5-8.9,7.8-13.3c0.9-1.4,0.8-2.1-0.8-2.9c-6.2-3.5-12.2-7.1-18.3-10.8
	c-1-0.8-2.4-0.8-3.5-0.1C95.8,50.2,92.6,51.9,88.9,54.1L88.9,54.1z M134.9,67.9c-2.7,10.2-5.5,20.3-8.2,30.3
	c-0.4,1.5,0.3,1.6,1.5,1.6c5,0,10-0.2,15.1,0.1c2.4,0.1,2.8-0.9,2.7-2.8c0-6.8,0-13.5,0.1-20.4c0.2-1.3-0.5-2.5-1.6-3.1
	C141.4,71.6,138.3,69.8,134.9,67.9L134.9,67.9z M145.5,121.8c0-2.3-0.1-3.8,0-5.2c0.2-1.8-0.4-2.1-2.2-1.6
	c-9.2,2.6-18.4,4.9-27.7,7.3c-1.4,0.4-2,0.9-1,2.4c2.7,4.4,5.2,8.8,7.6,13.4c0.9,1.7,1.7,1.6,3.2,0.8c4.7-2.7,9.5-5.7,14.4-8.1
	C144.2,128.6,147.1,126.2,145.5,121.8L145.5,121.8z M54.4,79c0,2.2,0.1,3.6,0,4.9c-0.3,2.2,0.5,2.4,2.5,1.8c9-2.5,18-4.9,27-7.2
	c1.9-0.5,2.2-0.9,1.1-2.7c-2.6-4.2-5-8.4-7.3-12.8c-0.9-1.6-1.5-2.2-3.3-1c-4.7,2.8-9.4,5.7-14.4,8.1C55.7,72.2,52.8,74.5,54.4,79
	L54.4,79z M109,120c3.1,1.8,6.2,1.1,9.2,0.3c7.1-2,14.2-3.9,21.3-5.8c5.9-1.6,5.9-1.5,6-7.5c0-1.1,0.2-2.4,0.3-3.5
	c0.2-1.7-0.3-2.5-2.2-2.5c-4.5,0.1-8.9,0-13.3,0c-4.4,0-4.4,0-5.6,4.3c-0.4,1.3-0.1,3.5-1.7,3.8s-0.9-2.3-2.3-3.1L109,120z
	 M105.5,121.2c-6-1-11.9-2.1-18-3.1c0,3.7,2,5.8,4.1,7.9c5.4,5.3,10.7,10.7,16.1,16.1c4.1,4.1,4.1,4.1,9.3,1.2
	c1-0.6,2.1-1.1,3.2-1.5c1.7-0.7,1.9-1.5,0.9-3.1c-2.3-3.8-4.6-7.6-6.5-11.6c-1.5-3-3.2-4.3-6.5-2.7c-1.2,0.6-3,1.7-4.1,0.5
	C103,123.6,105.5,122.8,105.5,121.2L105.5,121.2z M90.8,80.8c-3.1-1.5-6-1.1-8.9-0.3c-7.3,2.1-14.6,4-21.9,5.9
	c-5.6,1.5-5.6,1.5-5.7,7.5c0,1.2-0.2,2.6-0.3,3.8c-0.2,1.4,0.3,2.1,2,2.1c5.4-0.1,10.8,0,16.2,0.1c1.1,0.2,2.1-0.6,2.3-1.6
	c0,0,0-0.1,0-0.1c0.2-1,0.4-1.9,0.8-2.8c0.5-1.2,0.1-3.3,1.5-3.5c1.6-0.2,1,2.3,2.4,3.2C83,90.3,86.9,85.5,90.8,80.8L90.8,80.8z
	 M78.4,98.5c-2.4,1.7-4.1,4.3-4.6,7.2c-1.6,6.9-3.6,13.6-5.5,20.5c-0.7,2.4-2.1,4.9-1.6,7c0.5,2.3,3.8,2.6,5.8,4
	c0.8,0.5,1.4,1,2.2,1.5c1.2,0.9,2,0.8,2.7-0.7c1.7-3.1,3.5-6.2,5.3-9.2c1.1-2,2.9-3.9,3.1-5.9c0.2-2.4-2.8-3.4-4.2-5.2
	c-0.4-0.6-1.2-0.9-0.9-1.7c0.4-0.8,1.2-0.5,1.9-0.4c2,0.4,2.1-0.3,1.5-2C82.1,108.8,80.3,103.7,78.4,98.5z M115.3,85.3
	c2.1,5.6,4.1,11.2,6.3,17c2.3-1.8,3.7-3.5,4.4-6.2c1.8-7.4,4-14.8,5.9-22.2c0.6-2.2,1.9-4.5,1.4-6.5c-0.5-2-3.6-2.4-5.3-3.7
	c-0.6-0.4-1.2-0.8-1.7-1.2c-1.7-1.3-2.8-1.5-4,0.8c-1.9,3.8-4.2,7.3-6.3,11c-2.3,4-2.3,3.9,0.9,7.1c0.9,0.9,2.8,1.8,2.4,3
	C118.6,86.1,116.6,84.4,115.3,85.3L115.3,85.3z M112.4,82.7c-0.2-2.8-1.5-5.3-3.5-7.2c-5.4-5.1-10.6-10.5-15.9-15.8
	c-1.7-1.6-3-4.2-5.2-4.6c-1.9-0.4-3.7,1.9-5.7,2.7c-0.9,0.4-1.7,0.9-2.7,1.2c-1.6,0.7-1.7,1.4-0.9,2.9c2.3,3.7,4.4,7.5,6.4,11.3
	c2.5,4.3,2.4,4.2,7.1,3c1.1-0.3,2.7-1.5,3.6-0.4c1,1.3-1.1,2-1.4,3.1c-0.1,0.2,0,0.4,0,0.6C100.3,80.7,106.3,81.6,112.4,82.7
	L112.4,82.7z M161.5,135.3c6,3.5,12.2,7.2,19,11.3c-2.3-8.4-4.4-16.2-6.3-23.9C169.8,126.9,165.8,131.1,161.5,135.3L161.5,135.3z
	 M44.2,153.8c-1.6-6-3-11.3-4.5-16.7c-0.3-0.9-0.7-1-1.4-0.6c-6.1,3.4-12,6.8-18.7,10.6C28.1,149.4,35.8,151.4,44.2,153.8
	L44.2,153.8z M160.4,64.9c6.5-3.7,12.9-7.3,19.8-11.2c-8.5-2.3-16.3-4.5-24.5-6.6C157.2,53.2,158.7,59,160.4,64.9z M99.4,8.5
	c-0.3-0.2-0.5-0.4-0.8-0.6c-5.3,5.5-10.6,11-16,16.5c-0.3,0.4-0.5,0.7-0.8,1.1c5.4,1.5,10.6,2.9,15.7,4.4c1.2,0.4,1.8,0,1.8-1.4
	L99.4,8.5z M100.5,192.3l0.9,0.6c5.1-5.4,10.3-10.7,15.4-16.1c0.7-0.7,1.8-1.4-0.2-1.9c-4.8-1.2-9.7-2.7-14.5-4
	c-1-0.3-1.7-0.2-1.7,1.1C100.5,178.8,100.5,185.5,100.5,192.3L100.5,192.3z M147.3,90.3v7.4c0,0.7-0.6,1.6,0.5,2
	c1,0.4,1.8-0.2,2.4-1.1c3.2-4.8,6.5-9.6,9.9-14.3c0.8-1.1,0.8-1.8-0.6-2.5c-3.4-1.8-6.7-3.7-9.9-5.7c-1.6-0.9-2-0.4-2,1.2 M52.6,110
	c0-2.4,0.1-4.7,0-7.1c0-0.7,0.7-1.7-0.7-1.9c-0.9-0.2-1.8,0.3-2.2,1.1c-3.2,4.8-6.5,9.6-9.9,14.3c-0.9,1.2-0.9,1.9,0.6,2.7
	c3.3,1.7,6.5,3.6,9.8,5.5c1.8,1.1,2.1,0.4,2.1-1.3 M54,63.8c0,1.9,0.1,3.7,0,5.6c-0.1,1.6,0.1,2.5,2,1.3l17.9-10.2
	c0.6-0.4,1.6-0.5,1.3-1.6s-1.1-1.1-2-1.2c-4.2-0.3-8.4-0.8-12.6-1C54,56.2,54,56.2,54,62.9L54,63.8z M145.9,136.8
	c0-1.8-0.1-3.5,0-5.3c0.2-2-0.4-2.5-2.2-1.4c-5.9,3.4-11.7,6.7-17.7,10c-0.7,0.4-1.7,0.5-1.4,1.6c0.3,1.1,1,1.2,2,1.3
	c3.8,0.3,7.7,0.7,11.5,0.9C145.9,144.6,145.9,144.6,145.9,136.8L145.9,136.8z M98.1,154.4c-6.8-4-13.3-7.9-19.8-11.6
	c-0.6-0.3-1.1-0.9-1.8-0.3c-0.9,0.8-0.6,1.5-0.1,2.4c2.6,5.2,5.1,10.4,7.5,15.6c0.8,1.8,1.6,1.5,2.8,0.7
	C90.4,158.9,94.1,156.7,98.1,154.4L98.1,154.4z M101.7,46.4c6.7,4,13.1,7.8,19.5,11.5c0.7,0.4,1.3,1.4,2.3,0.4
	c0.8-0.9,0.3-1.7-0.1-2.5c-2.5-5.2-5-10.4-7.5-15.6c-0.5-1-0.9-1.5-2.2-0.8C110,41.7,106,43.9,101.7,46.4L101.7,46.4z M125.4,161.7
	c-4.4-4.4-8.6-8.5-12.8-12.7c-0.5-0.5-1.2-0.6-1.8-0.2c-3.2,1.9-6.3,3.7-9.8,5.6c3.7,2.2,7.4,4,10.6,6.3c4.2,3.2,8.4,3.6,13.1,1.5
	C124.7,162.2,124.8,162.1,125.4,161.7L125.4,161.7z M98.8,46.4c-4.3-2.5-8.4-4.5-11.9-7.2c-4.2-3.2-8-2-12.5-0.2
	c4.5,4.5,8.7,8.6,12.9,12.9c0.8,0.8,1.3,0.5,2.1,0C92.3,50.1,95.4,48.4,98.8,46.4z M147.5,126.2c3-1.7,5.9-3.2,8.6-4.8
	c2.2-1.2,4.3-2.5,6.4-3.6c0.9-0.4,1.6-1.2,1.8-2.2c0.5-2.1,1-4.1,1.7-6.5c-3,0.8-5.7,1.3-8.3,2.2c-3.5,1.1-8.5,0.6-10.1,3.5
	 M34.1,91.8c6.1-1.6,11.8-3.1,17.6-4.6c0.6-0.1,1-0.7,0.9-1.3V74.4c-4.1,2.3-7.5,4.7-11.3,6.3C36.4,82.7,34.5,86.3,34.1,91.8
	L34.1,91.8z M146.2,72.4c0-5.1-0.5-9.7,0.1-14.1c0.7-5.2-2.4-7.9-6-10.8c-1.6,6.1-3.1,11.8-4.7,17.5c-0.3,0.6,0,1.4,0.7,1.7
	c0,0,0,0,0,0C139.5,68.5,142.5,70.4,146.2,72.4z M53.6,128.3c0,5.6,0.4,10.6-0.1,15.5c-0.5,4.9,3.2,6.5,6,9.6c1.6-6.1,3-11.6,4.5-17
	c0.3-0.9,0.6-1.6-0.5-2.3C60.4,132.3,57.3,130.5,53.6,128.3z M40.8,99.6h5.9c3.2,0,5.8-2.5,5.9-5.8c0,0,0,0,0,0c0-1.1-0.1-2.4,0-3.5
	c0.2-1.7-0.5-1.9-2.1-1.5c-4.5,1.3-9,2.9-13.6,3.6c-3.6,0.6-4.3,2.7-4.9,5.5c-0.3,1.3,0.1,1.8,1.4,1.8
	C35.9,99.6,38.4,99.6,40.8,99.6L40.8,99.6z M121.3,144.1c-2.7-0.6-4.3,1.3-6.3,2.3c-1.7,0.8-1.8,1.3-0.5,2.7
	c3.3,3.2,6.7,6.3,9.8,9.9c2.2,2.6,4.4,2.8,7.2,1.7c1.4-0.6,1.5-1,0.9-2.3c-2.3-3.8-4.5-7.6-6.5-11.5
	C124.7,144.9,123.6,143.6,121.3,144.1L121.3,144.1z M154.8,101.3c-3.8-1.2-5.7,0.8-7,3.5c-0.9,1.8-0.2,3.7-0.5,5.5
	c-0.3,1.8,0.6,2.1,2.2,1.6c4.5-1.3,9.1-2.7,13.6-3.6c3.2-0.6,4.1-2.4,4.6-5c0.3-1.4,0-2-1.5-2C162.2,101.4,158.4,101.3,154.8,101.3
	L154.8,101.3z M60.8,153.8c-0.3,1.5,1,2,1.7,2.9c1.6,2.2,2.7,2.4,4.2-0.4c1.7-3.4,3.6-6.8,5.8-9.9c1.8-2.5,1.2-4.5-0.2-6.6
	s-3.8-2.7-5.8-3.9c-0.6-0.4-0.9,0.1-0.9,0.6C63.9,142.2,62.4,148,60.8,153.8L60.8,153.8z M66.7,41c2.5,4.4,4.9,8.6,7.4,13
	c1.3,2.6,4.5,3.7,7.1,2.5c1.9-1,3.7-2,5.5-3.2c-3.9-3.8-7.4-7.3-11-10.8C72.1,38.9,72.1,38.8,66.7,41L66.7,41z M48.7,101H33.6
	c-0.8,0-2.1-0.4-1.6,1.1c1.1,4.5,2.4,9.1,3.7,13.6c0.4,1.3,1.5,2,2.6,0.4C41.7,111.3,45,106.4,48.7,101z M74.8,145.1
	c-2.7,4.6-5.2,8.9-7.7,13.2c-0.4,0.7-1,1.4,0.3,1.8c4.5,1.2,9.1,2.6,13.6,3.6c1.5,0.4,2.5-0.3,1.5-2.2
	C80.1,156.2,77.6,150.9,74.8,145.1L74.8,145.1z M125,55.8c2.7-4.6,5.2-8.9,7.7-13.2c0.4-0.7,0.9-1.5-0.3-1.8
	c-4.5-1.2-9.1-2.6-13.6-3.6c-1.6-0.4-2.4,0.4-1.5,2.2C119.7,44.6,122.2,50,125,55.8L125,55.8z M151.1,99.8h15.1c0.9,0,2,0.2,1.5-1.3
	c-1.1-4.5-2.3-8.9-3.6-13.4c-0.5-1.5-1.5-2.2-2.7-0.5C158.2,89.6,154.9,94.4,151.1,99.8z M134.8,159.8c3.7-4,7.1-7.7,10.4-11.3
	c0.9-0.9,1.6-2.3-0.5-2.5c-6-0.6-12-0.9-18.7-1.5C129.1,149.6,131.7,154.3,134.8,159.8z M65.3,41.6c-3.8,3.9-7.3,7.4-10.7,11
	c-0.8,0.8-1.5,2.1,0.3,2.3c6.1,0.7,12.2,1,18.9,1.5C70.8,51.2,68.2,46.7,65.3,41.6L65.3,41.6z M9.5,101c0,0.2-0.1,0.3-0.1,0.5
	c3.4,1.9,6.7,4,10.1,5.8c2.4,1.2,5.1,4.4,7.1,3.3c1.7-0.9,1.6-4.9,2.6-7.5c0.7-1.9,0-2.2-1.6-2.2C21.5,101,15.5,101,9.5,101L9.5,101
	z M54.4,22.5c-0.2,0.1-0.4,0.2-0.6,0.2c0,4-0.1,7.9,0.1,11.8c0.1,2.7-1.3,6.4,0.8,7.6c1.8,0.9,5.1-1,7.8-1.7c0.1,0,0.2-0.1,0.3-0.1
	c1.2-0.2,1.4-0.8,0.8-1.8C60.4,33.1,57.4,27.8,54.4,22.5L54.4,22.5z M145.5,178.2c0.2-0.1,0.3-0.1,0.5-0.2v-19.9
	c-3,0.8-5.9,1.6-8.7,2.3c-1.4,0.3-1.5,0.9-0.9,2C139.5,167.7,142.5,173,145.5,178.2L145.5,178.2z M190,99.8c0.1-0.2,0.2-0.4,0.3-0.7
	c-5.3-3-10.6-6-15.9-9.1c-1.1-0.7-1.5-0.3-1.8,0.9c-0.6,2.4-1.1,4.7-1.9,7.1c-0.6,1.7,0.2,1.8,1.5,1.8L190,99.8z M52.6,72.2V58
	c0-0.7,0.4-1.5-0.4-1.8c-0.7-0.3-1.6-0.1-2.1,0.6c-2.5,2.6-4.9,5-7.5,7.5c-1,1-0.8,1.6,0.3,2.2C45.9,68.3,49.1,70.2,52.6,72.2
	L52.6,72.2z M147.2,128.6v14.1c0,0.7-0.5,1.6,0.7,2c0.8,0.1,1.6-0.2,2.1-0.9c2.4-2.5,4.8-4.9,7.3-7.3c0.9-0.9,0.9-1.5-0.3-2.2
	C153.8,132.6,150.8,130.7,147.2,128.6L147.2,128.6z M100.7,45.4c4.5-2.7,8.6-5.1,12.8-7.5c0.5-0.3,0.9-0.6,0.8-1.1
	c-0.2-0.9-0.9-1.1-1.7-1.3c-3.3-0.9-6.6-1.7-9.9-2.7c-1.4-0.5-2-0.1-1.9,1.4V45.4z M99.2,161.9v-4.1c0.1-1.5-0.1-2.4-1.9-1.2
	c-3.5,2.2-7.1,4.2-10.6,6.3c-0.5,0.3-1.1,0.5-1,1.2s0.7,1.1,1.4,1.3c1.9,0.5,3.8,1,5.7,1.5C99.2,168.7,99.2,168.7,99.2,161.9
	L99.2,161.9z M166.5,140c-6.4-3.8-6.3-3.8-8.2,3.4c-0.5,1.9,0.2,2.3,1.7,2.4c5.8,0.4,11.6,0.9,17.9,1.3 M148,73.6
	c4.3,2.5,8.2,4.7,12.2,6.9c0.6,0.3,1,1,1.8,0.6c0.6-0.5,0.8-1.4,0.5-2.2c-0.9-3.4-1.9-6.8-2.7-10.2c-0.3-1.1-0.6-1.5-1.7-0.9
	C154.9,69.7,151.6,71.5,148,73.6L148,73.6z M51.9,127.3c-4.5-2.5-8.3-4.7-12.2-6.9c-0.6-0.3-1.1-0.9-1.9-0.5
	c-0.8,0.5-0.7,1.4-0.5,2.2c0.9,3.4,1.9,6.8,2.7,10.2c0.3,1.1,0.6,1.4,1.7,0.8C45,131.1,48.3,129.3,51.9,127.3z M21.1,144
	c0.1,0.2,0.2,0.3,0.4,0.5c5.4-3,10.9-6.2,16.3-9.2c1.2-0.8,0.3-1.2-0.2-1.8c-1.4-1.3-2.7-2.6-3.9-4c-1.3-1.6-2-1-2.9,0.4
	C27.5,134.6,24.2,139.2,21.1,144L21.1,144z M179,56.8c-0.9,0-1-0.1-1.2,0c-3.3,1.9-6.6,3.7-9.9,5.6c-7,4-6.9,3.9-0.9,9.4
	c0.9,0.9,1.3,0.9,2-0.2C172,66.9,175.3,62,179,56.8L179,56.8z M147.6,55.2v14.9c0,1.5,0.6,1.6,1.8,0.9c3-1.7,6.1-3.4,9.2-5.2
	C155,62.3,151.5,59,147.6,55.2L147.6,55.2z M22.4,54.4c3.9,2.3,7.5,4.4,11,6.4c6.7,4,6.6,4,8.3-3.8c0.3-1.3,0-1.8-1.3-1.9
	C34.7,54.9,28.8,53.9,22.4,54.4z M51.5,73.3c-3.6-2.1-6.7-4-9.9-5.9c-0.5-0.3-1.1-0.5-1.3,0.4c-1.2,4.5-2.5,8.9-3.8,13.9
	C41.8,78.9,46.4,76.2,51.5,73.3L51.5,73.3z M52.3,145.6c0-4.9-0.1-9.7,0-14.3c0-2-0.6-2.2-2.2-1.2c-2.8,1.7-5.8,3.3-8.8,5
	C44.9,138.5,48.4,141.9,52.3,145.6L52.3,145.6z M148.3,127.6c3.5,2.1,6.4,3.9,9.5,5.6c0.6,0.4,1.4,1.1,1.8-0.2
	c1.2-4.5,2.5-8.9,3.8-13.9C158.1,122,153.4,124.6,148.3,127.6z M100.5,155.8v11.4c0,1.1,0.4,1.4,1.4,1.1c4.4-1.1,8.7-2.4,13.6-3.6
	C110.3,161.6,105.7,158.8,100.5,155.8z M84.3,36.2c5.2,3,9.9,5.9,15.1,8.8V33.7c0-1.3-0.6-1.4-1.6-1.1
	C93.4,33.7,89.1,34.8,84.3,36.2L84.3,36.2z M98.3,190.7c0.2,0,0.3-0.1,0.5-0.1v-6.4c0-2.2,0.1-4.3,0.1-6.4c0-7.6,0-7.5-7.2-5.4
	c-1.6,0.5-1.8,0.9-1.1,2.4C93.2,180,95.8,185.4,98.3,190.7L98.3,190.7z M28.1,86.6c2.2-1.5,5.5-1.9,6.4-4.3
	c1.7-4.2,2.6-8.7,3.9-13.4c-0.3,0.1-0.5,0.2-0.8,0.4c-2.7,2.7-5.3,5.2-8,7.9C26,81,26,81,28.1,86.6L28.1,86.6z M101.6,10.2
	c-0.3,0-0.5,0.1-0.8,0.1v12.9c0,7.8,0.4,8,7.8,5c1.2-0.5,1.1-1,0.7-2C106.7,21,104.2,15.6,101.6,10.2L101.6,10.2z M161.6,131
	c1.1,0.3,1.6-0.5,2.2-0.9c2.7-2.6,5.3-5.2,8-7.9c1.5-1.5,1.7-5.6,0.3-7.2c-0.2-0.2-0.4-0.3-0.7-0.4c-1.3-0.1-6.3,3.7-6.6,5.2
	C163.7,123.4,162.6,127.1,161.6,131z M52.2,155.5c-0.8-2.7,1.1-5.7-0.9-8.1c-2.7-3.3-6-6.2-9-9.2c0.4,3.8,1.5,7.2,2.1,10.8
	c0.6,4.3,2.8,6.3,7,6.6C51.4,155.7,51.5,155.6,52.2,155.5z M157.5,62.4c0.2-0.1,0.3-0.2,0.5-0.3c-1.1-4.4-2.3-8.7-3.4-13
	c-0.6-2.2-3.8-4.3-6-3.8c-0.3,0-0.5,0.1-0.7,0.4c-0.6,0.8-0.2,6.9,0.5,7.7C151.5,56.3,154.5,59.4,157.5,62.4z M95.8,31.6V31
	c-4.7-1.3-9.6-2.6-14.3-3.8c-1-0.3-5,2.7-5.1,3.8c0,0.2,0.1,0.7,0.3,0.8c2.5,1.1,4.4,3.9,7.6,3.1C88.1,33.7,92,32.7,95.8,31.6
	L95.8,31.6z M104.1,169.2c0,0.2,0,0.5-0.1,0.7c4.6,1.2,9.4,2.6,14,3.8c1.2,0.3,5.2-2.5,5.4-3.7c0-0.3-0.1-0.5-0.2-0.8
	c-2.5-1.1-4.3-3.8-7.3-3.1C112,167,108,168.2,104.1,169.2L104.1,169.2z M23.8,52c0,0.2,0,0.3-0.1,0.5c5.6,0.5,11.2,0.9,16.7,1.3
	c1,0.1,2.2,0.4,2.6-1.1c0.5-1.9,0.9-3.7,1.5-6C37.3,48.5,30.5,50.3,23.8,52z M176.2,148.8c-0.1-0.1-0.1-0.3-0.2-0.4
	c-5.5-0.5-10.9-0.9-16.4-1.2c-1-0.1-2.3-0.5-2.7,1c-0.5,1.9-0.9,3.9-1.5,6.2C162.6,152.4,169.4,150.6,176.2,148.8L176.2,148.8z
	 M96,189.7c-1.8-3.9-3.7-7.8-5.5-11.6c-2.3-4.8-2.3-4.7-7.5-3.3c-1.8,0.5-1.9,0.9-0.6,2.1C87,181,91.5,185.2,96,189.7z M179.4,60.3
	c-0.3-0.1-0.6-0.3-0.9-0.4c-2.1,2.9-4.1,5.9-6.2,8.8c-3.8,5.5-3.8,5.5,1.2,10c0.1,0.1,0.4,0.1,0.7,0.2
	C176.1,72.7,177.7,66.5,179.4,60.3L179.4,60.3z M118.2,25.5c-1.5-2.7-11.6-12.5-13.9-13.4c1.6,3.5,3.1,6.6,4.6,9.9
	c2.8,6,2.9,6,9.2,3.8C118.1,25.6,118.2,25.5,118.2,25.5z M147.4,152c0.1,4.6-0.8,4.5,4.3,3.2c1.7-0.5,4.6-5.8,3.9-7.7
	c-0.8-1.9-2.9-0.9-4.5-1C148.1,146.2,147.4,147.6,147.4,152L147.4,152z M52.5,48.9v-1.1c0.3-2.4-0.3-3.6-3-2.5
	c-1.6,0.7-3.5,0.4-3.9,2.8c-0.3,1.7-0.9,3.4-1.2,5.1c-0.1,0.6,0.3,0.8,0.9,0.9C49.9,55.9,52.5,54,52.5,48.9L52.5,48.9z M173.7,81.3
	c-1-1.6-2.8-2.8-4.2-4.5c-1-1.2-1.9-1.6-2.7,0.2c-0.5,0.9-1,1.6-1.6,2.5c-1,1.2-0.9,3,0.4,4c0.1,0.1,0.1,0.1,0.2,0.2
	c1.7,1.2,3.5,2.2,5.3,3.1c0.7,0.4,1.1,0.2,1.3-0.5C172.9,84.6,173.2,83.1,173.7,81.3L173.7,81.3z M80.6,173.9c2-0.5,4.1-1,6.2-1.6
	c0.5-0.1,0.9-0.6,0.6-1.1c-1.3-1.9-1.1-5-4.3-5.4c-0.9-0.1-6.8,2.7-7.2,3.5c-0.1,0.2-0.2,0.4-0.1,0.6
	C75.8,170.5,79.7,173.8,80.6,173.9L80.6,173.9z M119.4,26.9c-2.2,0.6-4.2,1-6.2,1.6c-0.3,0.1-0.8,0.4-0.8,0.7
	c-0.5,1.7,3.4,6.4,5,5.9c2.2-1,4.3-2.2,6.3-3.5c0.2-0.2,0.3-0.5,0.2-0.8C122.6,29.5,121.5,27.5,119.4,26.9L119.4,26.9z M147.4,175.2
	c0.2,0,0.5,0.1,0.7,0.1c1.7-6.2,3.3-12.4,5.1-18.9c-1,0.3-2.1,0.6-3.1,0.8c-2.3,0.2-2.8,1.3-2.7,3.5
	C147.5,165.5,147.4,170.4,147.4,175.2z M52.5,25.7c-0.2-0.1-0.5-0.1-0.7-0.2c-1.7,6.2-3.4,12.4-5.1,18.8c5.8-0.8,5.8-0.8,5.8-6
	L52.5,25.7z M35.3,120.3c0-2.2-4.3-6.2-6.6-6.1c-2.1,0.1-1.3,2.6-2,3.9c-0.1,0.2-0.1,0.4-0.2,0.6c-0.2,1,4.5,6.7,5.4,6.5
	c0.1,0,0.2-0.1,0.3-0.1C33.4,123.4,34.7,121.9,35.3,120.3L35.3,120.3z M148.4,25.6h-0.6c0,4.7,0.3,9.5-0.1,14.2
	c-0.3,3.2,1,4.3,3.8,4.7c1.4,0.3,1.9,0.1,1.5-1.3C151.5,37.3,149.9,31.4,148.4,25.6L148.4,25.6z M46.5,156.3
	c1.7,6.3,3.3,12.5,5,18.7c0.2,0,0.4-0.1,0.6-0.1v-12.9c0-4.7,0-4.7-4.5-5.8C47.3,156.1,47.1,156.2,46.5,156.3L46.5,156.3z
	 M140.2,22.2l-0.3-0.6c-5.1,1.3-10.1,2.6-15.2,4c-0.8,0.2-2.8-0.1-2.1,1.4c0.8,1.5,2,4,3.9,3C131.2,27.7,135.7,24.8,140.2,22.2
	L140.2,22.2z M12.2,95.5c3.6-2,6.9-3.8,10.1-5.7c4.4-2.5,4.4-2.5,3-7.3c0-0.1-0.3-0.2-0.6-0.5C20.7,86.4,16.6,90.7,12.2,95.5
	L12.2,95.5z M138.6,179.2c0.1-0.3,0.2-0.6,0.4-0.9l-10.2-6c-3.8-2.3-4.9-1.9-6.9,2.4C127.4,176.3,133,177.7,138.6,179.2L138.6,179.2
	z M187.3,95.8c0.1-0.1,0.1-0.3,0.2-0.4c-4.2-4.2-8.3-8.3-12.6-12.5c0,1.8-2.6,4-0.5,5.5C178.4,91.2,182.9,93.4,187.3,95.8
	L187.3,95.8z M187.6,101.7c-0.1-0.1-0.2-0.2-0.2-0.4h-15.2c-0.9,0-2.4-0.3-1.8,1.3c0.4,1.1-0.3,3.6,2.1,3
	C177.6,104.5,182.6,103,187.6,101.7z M12.7,99c0,0.2,0.1,0.5,0.1,0.7h15.4c1.1,0,1.8-0.5,1.3-1.5c-0.5-1,0.3-3.6-2.2-3
	C22.4,96.3,17.5,97.7,12.7,99z M53.3,174.8c0.1,0,0.2,0.1,0.3,0.1c1-4,2.2-8.1,3.2-12c1-4,1.1-4.1-3-4.9c-0.1,0-0.3,0.2-0.6,0.3
	C53.3,163.7,53.3,169.2,53.3,174.8L53.3,174.8z M146.5,26.4h-0.4c-1.2,4.7-2.6,9.4-3.8,14.1c-0.7,2.7,1.8,1.7,2.8,2.2
	c1.7,0.9,1.3-0.8,1.3-1.6C146.5,36.2,146.5,31.3,146.5,26.4L146.5,26.4z M58.7,25.1c-0.3,0.2-0.6,0.5-0.9,0.7
	c2.4,4.2,4.7,8.2,7.1,12.4c0.6,1,1.2,0.9,1.7,0.1c0.6-1,3.2-1.4,1.6-3.3C65.3,31.5,61.9,28.3,58.7,25.1z M55.3,174.2
	c1.1,0.1,1.2-0.7,1.6-1.2c2.1-3.5,4.1-6.9,6.1-10.4c0.4-0.7,1.7-1.9-0.2-2.2c-1.1-0.1-3-2.4-3.8,0.4
	C57.7,165.2,56.5,169.7,55.3,174.2L55.3,174.2z M144.4,26.9c-0.2-0.1-0.5-0.2-0.8-0.2c-2.4,4.1-4.7,8.1-7.1,12.1
	c-0.4,0.7-0.9,1.7,0.4,1.7s3,2.1,3.7-0.1C142.2,36,143.2,31.3,144.4,26.9L144.4,26.9z M141,175.5c0.5-0.9,0.3-2-0.4-2.7l-5.4-9.4
	c-0.4-0.7-0.9-2.4-1.9-0.8c-0.8,0.9-3.3,1.4-1.5,3.5C134.8,169.2,137.8,172.4,141,175.5z M126.2,169.1c4.7,2.7,8.9,5.3,13.2,7.9
	c0.5-1.4-0.6-1.9-1.2-2.6c-2.2-2.3-4.5-4.4-6.6-6.7c-1.4-1.5-2.4-1.7-3.6,0C127.6,168.2,127,168.5,126.2,169.1L126.2,169.1z
	 M186.2,104.5c-4.7,0.2-9.1,1.5-13.4,2.8c-1.7,0.6-0.4,2.2-0.3,3.2c0.1,0.7,0.4,1.4,1.3,0.9C177.9,109.1,182,106.7,186.2,104.5
	L186.2,104.5z M60.8,24.4c-0.1,0.2-0.2,0.5-0.3,0.7c2.6,2.6,5.2,5,7.6,7.7c1.6,1.8,2.7,1.7,4-0.1c0.3-0.5,0.9-0.7,0.9-1.5
	C69,29.2,65.3,26.1,60.8,24.4L60.8,24.4z M31.1,104c-3.3,9.6-4.3,7.6,2.9,11.1C33,111.2,32,107.6,31.1,104L31.1,104z M165.8,85.5
	c1.1,4.2,2.1,7.8,3.2,12.1C172.2,88.8,172.2,88.8,165.8,85.5z M79.9,164.9c-4.1-1.1-7.9-2.1-11.9-3.2
	C73.5,169,73.7,169.1,79.9,164.9z M132.1,39.2c-8-8.4-5.3-7.5-12.1-3.3C124,37,127.7,38.1,132.1,39.2z M146,151.2
	c-2.3,2.3-4.8,4.7-7.2,7C145.6,158.2,146.2,157.5,146,151.2z M53.9,150.1c-1.2,5.4-0.9,6.2,2.7,6.9c0.6,0.1,1.5,1,1.9-0.3
	c0.3-0.9,0.6-1.6-0.3-2.4C56.8,153,55.4,151.6,53.9,150.1L53.9,150.1z M145.8,51.4c1.3-6.2,1-7-2.5-7.7c-0.7-0.1-1.5-0.7-2,0.5
	c-0.4,0.8-0.3,1.7,0.4,2.4C143,48,144.2,49.5,145.8,51.4L145.8,51.4z M80.2,35.7c-5.2-3.8-5.3-3.8-7.6-1.3c-0.5,0.5-1.5,0.9-0.9,1.9
	c0.4,0.9,1.5,1.4,2.5,1C76.1,36.6,78,36.3,80.2,35.7L80.2,35.7z M166.2,115.4c5-1.7,5.6-2.5,4.5-5.7c-0.2-0.7-0.2-1.6-1.3-1.5
	c-0.9,0.1-1.6,0.4-1.8,1.2C167.1,111.3,166.1,113.2,166.2,115.4L166.2,115.4z M33.9,85.3c-5.7,2.4-5.9,2.6-4.8,5.7
	c0.2,0.7,0.2,1.7,1.2,1.7c1,0.1,2-0.7,2.1-1.7C32.9,89.3,33.4,87.5,33.9,85.3z M36,122.6c-3.9,4.4-3.7,4.9,2.5,9.3
	C37.6,128.7,36.8,125.7,36,122.6L36,122.6z M119.6,165.1c5.2,3.8,5.2,3.8,7.5,1.3c0.5-0.6,1.5-0.9,0.9-1.9c-0.5-0.9-1.6-1.3-2.6-0.9
	C123.7,164.1,121.8,164.5,119.6,165.1z M87.2,166.9c1.7,5.2,2.8,5.5,9,2.4C93.2,168.5,90.5,167.7,87.2,166.9z M42.1,61.9
	c2-1.8,4.2-3.7,6.3-5.7C43.5,54.7,43,55.2,42.1,61.9z M157.9,137.9c-2.4,2.5-4.6,4.3-6.4,6.8C156.8,145.7,156.2,146.7,157.9,137.9z"
	/>
<path class="st1" d="M134,65.3c-2.8-1.9-6.3-2.7-7.6-6.3c-0.5-1.1-0.5-2.3,0.1-3.3c2.5-4.1,4.8-8.1,7.1-12.2
	c0.9-1.6,1.5-1.3,2.7-0.3c2.1,1.8,2.8,3.6,1.9,6.3C136.7,54.7,135.4,60,134,65.3z M144.3,21.8c-0.1,2.2-1.6,3.7-2.6,5.4
	c-2.3,4-4.6,8-6.9,11.9c-2.6-2.7-4.8-5.1-7.3-7.7C132.9,28.3,138.4,24.6,144.3,21.8z M55.4,178.8c3.2-5.7,6.4-11.5,9.7-17.2
	c2.9,2.4,5.1,5,7.7,7.7c-5.9,3.3-11.3,6.9-17.1,9.8L55.4,178.8z"/>
<path class="st0" d="M112.3,33.6c-2.9-0.1-5.5-1.3-8.3-2C108.9,28.1,111.3,28.8,112.3,33.6z M162.1,69.6c0.6,0.5,1.2,0.9,1.8,1.5
	c3.2,3.2,3.2,3.2,0.3,7c-1-1.1-0.9-2.7-1.4-3.9c-0.4-1.4-0.7-2.8-0.9-4.3C161.8,69.8,161.9,69.7,162.1,69.6z M55.2,179.2
	c0.1-0.1,0.2-0.3,0.3-0.4l0.2,0.2 M19.9,55.7c-0.1-0.3-0.1-0.5-0.2-0.8c0.3,0,0.5,0.1,0.8,0.1C20.3,55.2,20.1,55.5,19.9,55.7z"/>
</svg>
