<svg xmlns="http://www.w3.org/2000/svg" viewBox="0 0 199.4 200"><path fill="#05bca9" d="M176.8 118.7c5.4-5.2 10.7-10.7 16.2-15.9 2-1.9 1.8-2.8 0-4.6-5.3-5.1-10.3-10.5-15.6-15.6-1.5-1.2-2.1-3.3-1.3-5.1 2.2-7.4 4.1-14.8 6.2-22.2.6-1.8.3-2.5-1.7-3-7.5-1.9-15-4.2-22.7-6.1-2.2-.5-3-1.6-3.5-3.6-1.9-7.4-4-14.6-5.8-22-.6-2.2-1.2-2.7-3.4-2-7.4 2.1-14.9 4-22.3 5.9-1.2.4-2.4.6-3.5-.5-6.1-6.3-12.4-12.3-18.3-18.8-.8-.8-1.2-.7-1.8 0-.4.4-.5.6-.8.8-5.7 5.6-11.4 11.2-17 16.9-1.1 1.3-2.9 1.7-4.5 1.1-7.4-2.1-14.8-4-22.2-6.1-2.1-.6-2.9-.2-3.5 2-1.9 7.4-4.1 14.8-6 22.2-.2 1.5-1.4 2.8-2.9 3-7.5 1.9-14.8 4-22.3 5.8-2.5.6-3.2 1.4-2.4 4 2.2 7.3 3.9 14.8 6 22.2.7 1.6.2 3.4-1.1 4.5C17 87 11.6 92.6 6 98c-1.5 1.4-1.4 2.3 0 3.7 5.5 5.4 10.8 10.9 16.3 16.3 1.3 1 1.8 2.8 1.2 4.4-2.1 7.3-3.9 14.6-6.1 21.9-.7 2.6-.3 3.6 2.4 4.3 7.4 1.8 14.6 4 22 5.8 2.2.5 3 1.6 3.5 3.6 1.9 7.5 4 14.8 5.9 22.3.4 1.9 1.1 2.4 3 1.8 7.3-2.1 14.7-3.8 22-5.9 1.9-.7 4.1-.1 5.4 1.5 5.2 5.4 10.5 10.6 15.7 16 1.6 1.7 2.6 1.8 4.3.1 5.2-5.5 10.7-10.7 16-16.2 1.2-1.6 3.3-2.1 5.1-1.4 7.3 2.2 14.6 4 21.9 6.1 2.1.6 2.9.2 3.5-2 1.8-7.3 4.1-14.6 5.9-21.9.5-2.2 1.5-3 3.6-3.5 7.4-1.8 14.6-3.9 22-5.7 2.2-.5 2.9-1.3 2.2-3.6-2.1-7.3-4-14.9-6.1-22.4-.7-1.6-.2-3.4 1.1-4.5zM52.6 93.8c-.1 3.3-2.7 5.8-5.9 5.8 0 0-10.8 0-13.3.1-1.3 0-1.7-.5-1.4-1.8.6-2.8-1.7-3.5 4.9-5.5 4.7-1.3 9.1-2.3 13.6-3.6 1.6-.4 2.3-.2 2.1 1.5v3.5zM36.5 81.7c1.3-5 2.6-9.4 3.8-13.9.2-.9.8-.7 1.3-.4 3.2 1.9 6.3 3.8 9.9 5.9-5.1 2.9-9.7 5.6-15 8.4zm16.1-7.3v11.5c.1.6-.3 1.2-.9 1.3-5.8 1.5-11.5 3-17.6 4.6.4-5.5 2.3-9.1 7.2-11.1 3.8-1.6 7.2-4 11.3-6.3zM35 82.1c-.9 2.4-4.7 3-6.9 4.5C26 81 26 81 29.6 77.2c2.7-2.7 5.3-5.2 8-7.9.3-.2 1.2-1.1 1.6-1.5-1.3 4.7-2.5 10.1-4.2 14.3zm-1.1 3.2c-.5 2.2-1 4-1.5 5.7-.3 1-.8 1.8-1.8 1.7-1 0-1.3-1-1.5-1.7-1.1-3.1-.9-3.3 4.8-5.7zm-9.3 9c-3.6 1-7.2 1.8-10.8 2.7l-.3-.4L27.3 89c1.5 4.4 1.4 4.3-2.7 5.3zm2.7.9c2.8-.9 2.4 1.3 2.2 3-.1 1.1-.2 1.5-1.3 1.5H12.8c0-.2-.1-.5-.1-.7 4.8-1.3 9.7-2.7 14.6-3.8zm3.8 8.8c.9 3.6 1.9 7.2 2.9 11.1-7.2-3.5-6.2-1.5-2.9-11.1zm-2.4 10.2c2.3-.1 6.6 3.9 6.6 6.1-.6 1.6-1.9 3.1-3.1 4.8-.1 0-.2.1-.3.1-.9.2-5.6-5.5-5.4-6.5.1-.2.1-.4.2-.6.7-1.3-.1-3.8 2-3.9zm2.1 15.7c.9-1.4 1.6-2 2.9-.4 1.2 1.4 2.5 2.7 3.9 4 .5.6 1.4 1 .2 1.8-5.4 3-10.9 6.2-16.3 9.2-.2-.2-.3-.3-.4-.5 3.1-4.8 6.4-9.4 9.7-14.1zm5.2-7.3c.8 3.1 1.6 6.1 2.5 9.3-6.2-4.4-6.4-4.9-2.5-9.3zm1.3-.5c-.2-.8-.3-1.7.5-2.2.8-.4 1.3.2 1.9.5 3.9 2.2 7.7 4.4 12.2 6.9-3.6 2-6.9 3.8-10.2 5.8-1.1.6-1.4.3-1.7-.8-.8-3.4-1.8-6.8-2.7-10.2zm1-6c-1.1 1.6-2.2.9-2.6-.4-1.3-4.5-2.6-9.1-3.7-13.6-.5-1.5.8-1.1 1.6-1.1h15.1c-3.7 5.4-7 10.3-10.4 15.1zM52.6 58v14.2c-3.5-2-6.7-3.9-9.7-5.7-1.1-.6-1.3-1.2-.3-2.2 2.6-2.5 5-4.9 7.5-7.5.5-.7 1.4-.9 2.1-.6.8.3.4 1.1.4 1.8zm-10.8 5.1c1-7.6 2-8.4 6.9-6.9-1.9 2.1-4.9 5.1-6.9 6.9zm10.5-39.2c.1-.1.2 14.4.2 14.4 0 5.2 0 5.2-5.8 6 1.7-6.4 5.5-20.3 5.6-20.4zm-6.7 24.2c.4-2.4 2.3-2.1 3.9-2.8 2.7-1.1 3.3.1 3 2.5v1.1c0 5.1-2.6 7-7.2 5.2-.6-.1-1-.3-.9-.9.3-1.7.9-3.4 1.2-5.1zM23.8 52c6.7-1.7 13.5-3.5 20.7-5.3-.6 2.3-1 4.1-1.5 6-.4 1.5-1.6 1.2-2.6 1.1-5.5-.4-11.1-.8-16.7-1.3.1-.2.1-.3.1-.5zm16.6 3.1c1.3.1 1.6.6 1.3 1.9-1.7 7.8-1.6 7.8-8.3 3.8-3.5-2-7.1-4.1-11-6.4 6.4-.5 12.3.5 18 .7zm-20.5.6c-.1-.3-.1-.5-.2-.8.3 0 .5.1.8.1 5.6 3.3 11.4 6.7 17.3 10.1.6.4 1.4.6.5 1.6-3.9 4-7.7 8-11.5 12.1-.5.4-.8.2-1-.5-2-7.5-3.9-15-5.9-22.6zM25 81.6c.2.5.3.8.3.9 1.4 4.8 1.4 4.8-3 7.3-3.2 1.9-6.5 3.7-10.1 5.7C16.6 90.7 21 86 25 81.6zM9.4 101.5c0-.2.1-.3.1-.5 6 0 12 0 18.1-.1 1.6 0 2.3.3 1.6 2.2-1 2.6-.9 6.6-2.6 7.5-2 1.1-4.7-2.1-7.1-3.3-3.4-1.8-6.7-3.9-10.1-5.8zm2.4 3.6c5 1.7 9.1 4.8 13.6 7.2 1.2.7.9 2.4-.9 6-4.4-4.4-8.7-8.6-12.7-13.2zm13.6 16.8c.3.1.6.1.7.2 4.9 4.7 4.9 4.7 1 10.3-2 3-4.2 6-6.3 8.9l-.5-.4 5.1-19zm-5.8 25.2c6.7-3.8 12.6-7.2 18.7-10.6.7-.4 1.1-.3 1.4.6 1.5 5.4 2.9 10.7 4.5 16.7-8.4-2.4-16.1-4.4-24.6-6.7zm32.5 27.8c-.2 0-.4.1-.6.1-1.7-6.2-3.3-12.4-5-18.7.6-.1.8-.2 1.1-.1 4.5 1.1 4.5 1.1 4.5 5.8v12.9zm.1-19.4c-.7.1-.8.2-.8.1-4.2-.3-6.4-2.3-7-6.6-.6-3.6-1.7-7-2.1-10.8 3 3 6.3 5.9 9 9.2 2 2.4.1 5.4.9 8.1zm.1-9.9c-3.9-3.7-7.4-7.1-11-10.5 3-1.7 6-3.3 8.8-5 1.6-1 2.2-.8 2.2 1.2-.1 4.6 0 9.4 0 14.3zm0-22.3c0 1.7-.3 2.4-2.1 1.3-3.3-1.9-6.5-3.8-9.8-5.5-1.5-.8-1.5-1.5-.6-2.7 3.4-4.7 6.7-9.5 9.9-14.3.4-.8 1.3-1.3 2.2-1.1 1 .4.7 1.2.7 1.9.1 2.4-.3 20.4-.3 20.4zm93.8-96.9h.4c0 4.9 0 9.8-.1 14.7 0 .8.4 2.5-1.3 1.6-1-.5-3.5.5-2.8-2.2 1.2-4.7 2.6-9.4 3.8-14.1zm-5.5 14c-.7 2.2-2.4.1-3.7.1s-.8-1-.4-1.7c2.4-4 4.7-8 7.1-12.1.3 0 .6.1.8.2-1.2 4.4-2.2 9.1-3.8 13.5zm5.3 96.4c0 7.8 0 7.8-7.8 7.1-3.8-.2-7.7-.6-11.5-.9-1-.1-1.7-.2-2-1.3s.7-1.2 1.4-1.6c6-3.3 11.8-6.6 17.7-10 1.8-1.1 2.4-.6 2.2 1.4-.1 1.8 0 3.5 0 5.3zm-34.3 23.9c-3.2-2.3-6.9-4.1-10.6-6.3 3.5-1.9 6.6-3.7 9.8-5.6.6-.4 1.3-.3 1.8.2 4.2 4.2 8.4 8.3 12.8 12.7-.6.4-.7.5-.7.5-4.7 2.1-8.9 1.7-13.1-1.5zm3.9 4c-4.9 1.2-9.2 2.5-13.6 3.6-1 .3-1.4 0-1.4-1.1v-11.4c5.2 3 9.8 5.8 15 8.9zm-48.1-4.6c-1.3-.4-.7-1.1-.3-1.8 2.5-4.3 5-8.6 7.7-13.2 2.8 5.8 5.3 11.1 7.7 16.4 1 1.9 0 2.6-1.5 2.2-4.5-1-9.1-2.4-13.6-3.6zm12.5 4.8c-6.2 4.2-6.4 4.1-11.9-3.2 4 1.1 7.8 2.1 11.9 3.2zm-26-119.1v-.2c-.1-1 .7-1.9 1.7-2 2.1-.4 4.2-.9 6.3-1.5.2 0 .5 0 .7-.1-.2.1-.3.3-.4.5-2.6 2.5-5.3 5.2-8.3 8.1 0-1.8.1-3.3 0-4.8zm.7 6.8c3.4-3.6 6.9-7.1 10.7-11 2.9 5.1 5.5 9.6 8.5 14.8-6.7-.5-12.8-.8-18.9-1.5-1.8-.2-1.1-1.5-.3-2.3zm32.3-13.4c3.5 2.7 7.6 4.7 11.9 7.2-3.4 2-6.5 3.7-9.4 5.5-.8.5-1.3.8-2.1 0-4.2-4.3-8.4-8.4-12.9-12.9 4.5-1.8 8.3-3 12.5.2zm-2.6-3c4.8-1.4 9.1-2.5 13.5-3.6 1-.3 1.6-.2 1.6 1.1V45c-5.2-2.9-9.9-5.8-15.1-8.8zm11.3 39.6c-.9-1.1-2.5.1-3.6.4-4.7 1.2-4.6 1.3-7.1-3-2-3.8-4.1-7.6-6.4-11.3-.8-1.5-.7-2.2.9-2.9 1-.3 1.8-.8 2.7-1.2 2-.8 3.8-3.1 5.7-2.7 2.2.4 3.5 3 5.2 4.6 5.3 5.3 10.5 10.7 15.9 15.8 2 1.9 3.3 4.4 3.5 7.2-6.1-1.1-12.1-2-18.2-3.2 0-.2-.1-.4 0-.6.3-1.1 2.4-1.8 1.4-3.1zM54 63.8v-.9c0-6.7 0-6.7 6.6-6.2 4.2.2 8.4.7 12.6 1 .9.1 1.7.1 2 1.2.3 1.1-.7 1.2-1.3 1.6L56 70.7c-1.9 1.2-2.1.3-2-1.3.1-1.9 0-3.7 0-5.6zm6 6.3c5-2.4 9.7-5.3 14.4-8.1 1.8-1.2 2.4-.6 3.3 1 2.3 4.4 4.7 8.6 7.3 12.8 1.1 1.8.8 2.2-1.1 2.7-9 2.3-18 4.7-27 7.2-2 .6-2.8.4-2.5-1.8.1-1.3 0-2.7 0-4.9-1.6-4.5 1.3-6.8 5.6-8.9zm-6 27.6c.1-1.2.3-2.6.3-3.8.1-6 .1-6 5.7-7.5 7.3-1.9 14.6-3.8 21.9-5.9 2.9-.8 5.8-1.2 8.9.3-3.9 4.7-7.8 9.5-11.6 14.3-1.4-.9-.8-3.4-2.4-3.2-1.4.2-1 2.3-1.5 3.5-.4.9-.6 1.8-.8 2.8v.1c-.2 1-1.2 1.8-2.3 1.6-5.4-.1-10.8-.2-16.2-.1-1.7 0-2.2-.7-2-2.1zm20.2-60.4c-1 .4-2.1-.1-2.5-1-.6-1 .4-1.4.9-1.9 2.3-2.5 2.4-2.5 7.6 1.3-2.2.6-4.1.9-6 1.6zm-2.1-4.6c-1.3 1.8-2.4 1.9-4 .1-2.8-2.9-5-5.1-7.6-7.7-1.4-1.2-1.7-1.7.3-.7 4.5 1.7 8.5 4.9 12.5 6.9-.5.7-.9 1-1.2 1.4zm3.6 9.8c3.6 3.5 7.1 7 11 10.8-1.8 1.2-3.6 2.2-5.5 3.2-2.6 1.2-5.8.1-7.1-2.5-2.5-4.4-4.9-8.6-7.4-13 5.4-2.2 5.4-2.1 9 1.5zm-21.9 61c0-1.8.3-2.6 2.4-2.5 5.1.2 10.2.1 15.3.1 1.3 0 2.1.2 1.6 1.8-2.7 9.9-5.4 19.9-8.1 30.1-1.7-1.1-3.1-1.8-4.5-2.5-7-3.9-7-3.9-6.8-11.9.2-5.1.2-10.1.1-15.1zm11.8 33c0-.5.3-1 .9-.6 2 1.2 4.4 1.8 5.8 3.9 1.4 2.1 2 4.1.2 6.6-2.2 3.1-4.1 6.5-5.8 9.9-1.5 2.8-2.6 2.6-4.2.4-.7-.9-2-1.4-1.7-2.9 1.6-5.8 3.1-11.6 4.8-17.3zm10.8 8.4c-.5-.9-.8-1.6.1-2.4.7-.6 1.2 0 1.8.3 6.5 3.7 13 7.6 19.8 11.6-4 2.3-7.7 4.5-11.4 6.8-1.2.8-2 1.1-2.8-.7-2.4-5.2-4.9-10.4-7.5-15.6zm-1.7-6.2c-.8-.5-1.4-1-2.2-1.5-2-1.4-5.3-1.7-5.8-4-.5-2.1.9-4.6 1.6-7 1.9-6.9 3.9-13.6 5.5-20.5.5-2.9 2.2-5.5 4.6-7.2 1.9 5.2 3.7 10.3 5.7 15.1.6 1.7.5 2.4-1.5 2-.7-.1-1.5-.4-1.9.4-.3.8.5 1.1.9 1.7 1.4 1.8 4.4 2.8 4.2 5.2-.2 2-2 3.9-3.1 5.9-1.8 3-3.6 6.1-5.3 9.2-.7 1.5-1.5 1.6-2.7.7zm11.1-24c-2-5.4-4-10.9-6-16.3-.5-.9-.3-2.1.5-2.9 3.9-4.4 7.7-9 11.4-13.5.6-.8 1.6-1.2 2.6-.9 5.6 1 11.4 2.1 17.1 3 1.3.1 2.4 1.1 2.7 2.3 1.9 5.2 3.8 10.5 5.8 15.7.6 1.1.3 2.5-.6 3.4-3.7 4.3-7.3 8.7-11 13.1-.7.7-1.2 1.7-2.2 1.2-6.3-1-12.2-2.1-18.3-3.2-1.2-.2-1.6-1-2-1.9zm19.7 6.5c0 1.6-2.5 2.4-1.5 3.7 1.1 1.2 2.9.1 4.1-.5 3.3-1.6 5-.3 6.5 2.7 1.9 4 4.2 7.8 6.5 11.6 1 1.6.8 2.4-.9 3.1-1.1.4-2.2.9-3.2 1.5-5.2 2.9-5.2 2.9-9.3-1.2-5.4-5.4-10.7-10.8-16.1-16.1-2.1-2.1-4.1-4.2-4.1-7.9 6.1 1 12 2.1 18 3.1zm19.9 42.4c1-.4 2.1 0 2.6.9.6 1-.4 1.3-.9 1.9-2.3 2.5-2.3 2.5-7.5-1.3 2.2-.6 4.1-1 5.8-1.5zm-1.1-4.6c-3.1-3.6-6.5-6.7-9.8-9.9-1.3-1.4-1.2-1.9.5-2.7 2-1 3.6-2.9 6.3-2.3 2.3-.5 3.4.8 4.6 2.8 2 3.9 4.2 7.7 6.5 11.5.6 1.3.5 1.7-.9 2.3-2.8 1.1-5 .9-7.2-1.7zm15.5-28.2c-4.9 2.4-9.7 5.4-14.4 8.1-1.5.8-2.3.9-3.2-.8-2.4-4.6-4.9-9-7.6-13.4-1-1.5-.4-2 1-2.4 9.3-2.4 18.5-4.7 27.7-7.3 1.8-.5 2.4-.2 2.2 1.6-.1 1.4 0 2.9 0 5.2 1.6 4.4-1.3 6.8-5.7 9zm6-27.3c-.1 1.1-.3 2.4-.3 3.5-.1 6-.1 5.9-6 7.5-7.1 1.9-14.2 3.8-21.3 5.8-3 .8-6.1 1.5-9.2-.3l11.7-14c1.4.8.7 3.4 2.3 3.1 1.6-.3 1.3-2.5 1.7-3.8 1.2-4.3 1.2-4.3 5.6-4.3 4.4 0 8.8.1 13.3 0 1.9 0 2.4.8 2.2 2.5zM126 96.1c-.7 2.7-2.1 4.4-4.4 6.2-2.2-5.8-4.2-11.4-6.3-17 1.3-.9 3.3.8 4-.9.4-1.2-1.5-2.1-2.4-3-3.2-3.2-3.2-3.1-.9-7.1 2.1-3.7 4.4-7.2 6.3-11 1.2-2.3 2.3-2.1 4-.8.5.4 1.1.8 1.7 1.2 1.7 1.3 4.8 1.7 5.3 3.7s-.8 4.3-1.4 6.5c-1.9 7.4-4.1 14.8-5.9 22.2zm6.4-55.3c1.2.3.7 1.1.3 1.8-2.5 4.3-5 8.6-7.7 13.2-2.8-5.8-5.3-11.2-7.7-16.4-.9-1.8-.1-2.6 1.5-2.2 4.5 1 9.1 2.4 13.6 3.6zM120 35.9c6.8-4.2 4.1-5.1 12.1 3.3-4.4-1.1-8.1-2.2-12.1-3.3zm3.4 19.9c.4.8.9 1.6.1 2.5-1 1-1.6 0-2.3-.4-6.4-3.7-12.8-7.5-19.5-11.5 4.3-2.5 8.3-4.7 12-7 1.3-.7 1.7-.2 2.2.8l7.5 15.6zm3 3.2c-.5-1.1-.5-2.3.1-3.3 2.5-4.1 4.8-8.1 7.1-12.2.9-1.6 1.5-1.3 2.7-.3 2.1 1.8 2.8 3.6 1.9 6.3-1.5 5.2-2.8 10.5-4.2 15.8-2.8-1.9-6.3-2.7-7.6-6.3zm15.3-31.8c-2.3 4-4.6 8-6.9 11.9-2.6-2.7-4.8-5.1-7.3-7.7 5.4-3.1 10.9-6.8 16.8-9.6-.1 2.2-1.6 3.7-2.6 5.4zm-17-1.6c5.1-1.4 10.1-2.7 15.2-4l.3.6c-4.5 2.6-9 5.5-13.7 7.8-1.9 1-3.1-1.5-3.9-3-.7-1.5 1.3-1.2 2.1-1.4zm-.8 5.2c.1.3 0 .6-.2.8-2 1.3-4.1 2.5-6.3 3.5-1.6.5-5.5-4.2-5-5.9 0-.3.5-.6.8-.7 2-.6 4-1 6.2-1.6 2.1.6 3.2 2.6 4.5 3.9zm-5.7-5.3s-.1.1-.1.3c-6.3 2.2-6.4 2.2-9.2-3.8-1.5-3.3-3-6.4-4.6-9.9 2.3.9 12.4 10.7 13.9 13.4zm-17.4-15.2c.3 0 .5-.1.8-.1 2.6 5.4 5.1 10.8 7.7 16 .4 1 .5 1.5-.7 2-7.4 3-7.8 2.8-7.8-5V10.3zm1.9 22.5c3.3 1 6.6 1.8 9.9 2.7.8.2 1.5.4 1.7 1.3.1.5-.3.8-.8 1.1-4.2 2.4-8.2 4.8-12.7 7.4v.1h-.1s.1 0 .1-.1V34.2c-.1-1.5.5-1.9 1.9-1.4zm-.3 15.6c6.1 3.7 12.1 7.3 18.3 10.8 1.6.8 1.7 1.5.8 2.9-2.8 4.4-5.2 8.8-7.8 13.3-.7 1.3-1.2 1.8-2.5.5-7.3-7.2-14.6-14.3-22.3-21.8 3.7-2.2 6.9-3.9 10-5.8 1.1-.7 2.5-.7 3.5.1zm-19.8-24c5.4-5.5 10.7-11 16-16.5.3.2.5.4.8.6l-.1 20c0 1.4-.6 1.8-1.8 1.4-5.1-1.5-10.3-2.9-15.7-4.4.3-.4.5-.7.8-1.1zm-1.1 2.8c4.7 1.2 9.6 2.5 14.3 3.8v.6c-3.8 1.1-7.7 2.1-11.5 3.3-3.2.8-5.1-2-7.6-3.1-.2-.1-.3-.6-.3-.8.1-1.1 4.1-4.1 5.1-3.8zM78.1 26c-2.8 4.7-3.1 4.8-7.2 2.3-3.5-2.1-7.4-3.9-10.6-6.6 6.2.7 11.9 3.2 17.8 4.3zm-19.4-.9c3.2 3.2 6.6 6.4 9.5 9.9 1.6 1.9-.5 2.7-1.3 3.4-.8.7-1.4.8-2-.2-2.4-4.2-4.7-8.2-7.1-12.4-.5-.9.2-1.3.9-.7zm-4.8 9.4c-.2-3.9-.1-12.4 0-12.5.1-.2 6.5 11.1 9.7 16.5.6 1-.2 1.7-1.1 1.9-2.7.7-6 2.6-7.8 1.7-1.5-.8-.6-4.7-.8-7.6zm-.4 109.3c.5-4.9.1-9.9.1-15.5 3.7 2.2 6.8 4 9.9 5.8 1.1.7.8 1.4.5 2.3-1.5 5.4-2.9 10.9-4.5 17-2.8-3.1-6.5-4.7-6-9.6zm.4 6.3c1.5 1.5 2.9 2.9 4.3 4.2.9.8.6 1.5.3 2.4-.4 1.3-1.3.4-1.9.3-3.6-.7-3.9-1.5-2.7-6.9zm-.3 24.8c-.1 0-.2-.1-.3-.1 0-5.6 0-11.1-.1-16.5.3-.1.5-.3.6-.3 4.1.8 4 .9 3 4.9-1 3.9-2.2 8-3.2 12zm5.4-14.1c.8-2.8 2.7-.5 3.8-.4 1.9.3.6 1.5.2 2.2-2 3.5-4 6.9-6.1 10.4-.4.5-.5 1.3-1.6 1.2 1.2-4.5 2.4-9 3.7-13.4zm-3.6 18c3.2-5.7 6.4-11.5 9.7-17.2 2.9 2.4 5.1 5 7.7 7.7-5.9 3.3-11.3 6.9-17.1 9.8l-.3-.3zm4.3.2c4-3.3 8.7-5.7 13.3-8 2.5-1.1 3 2.2 5.5 3.5-7 1.6-12.6 3.7-18.8 4.5zm20.9-5.1c-.9-.1-4.8-3.4-4.8-4-.1-.2 0-.4.1-.6.4-.8 6.3-3.6 7.2-3.5 3.2.4 3 3.5 4.3 5.4.3.5-.1 1-.6 1.1-2.1.6-4.2 1.1-6.2 1.6zm6.6-7c3.3.8 6 1.6 9 2.4-6.2 3.1-7.3 2.8-9-2.4zm-4.8 10c-1.3-1.2-1.2-1.6.6-2.1 5.2-1.4 5.2-1.5 7.5 3.3 1.8 3.8 3.7 7.7 5.5 11.6-4.5-4.5-9-8.7-13.6-12.8zm16.4 7.3v6.4c-.2 0-.3.1-.5.1-2.5-5.3-5.1-10.7-7.7-15.9-.7-1.5-.5-1.9 1.1-2.4 7.2-2.1 7.2-2.2 7.2 5.4 0 2.1-.1 4.2-.1 6.4zm.4-26.4v4.1c0 6.8 0 6.8-6.4 5l-5.7-1.5c-.7-.2-1.3-.6-1.4-1.3s.5-.9 1-1.2c3.5-2.1 7.1-4.1 10.6-6.3 1.8-1.2 2-.3 1.9 1.2zm-1.4-5.4c-6.2-3.7-12.3-7.3-18.6-10.9-1.2-.7-1.6-1.3-.8-2.5 3-5 5.9-10 9-15.3 7.5 7.6 14.8 14.9 22.3 22.2.8.9.9 1.2-.2 1.9-2.8 1.5-5.6 3.2-8.4 4.8-1 .6-2.3.5-3.3-.2zm19 24.4c-5.1 5.4-10.3 10.7-15.4 16.1l-.9-.6c0-6.8 0-13.5-.1-20.3 0-1.3.7-1.4 1.7-1.1 4.8 1.3 9.7 2.8 14.5 4 2 .5.9 1.2.2 1.9zm1.2-3.1c-4.6-1.2-9.4-2.6-14-3.8.1-.2.1-.5.1-.7 3.9-1 7.9-2.2 11.8-3.1 3-.7 4.8 2 7.3 3.1.1.3.2.5.2.8-.2 1.2-4.2 4-5.4 3.7zm20.6 5.5c-5.6-1.5-11.2-2.9-16.7-4.5 2-4.3 3.1-4.7 6.9-2.4l10.2 6c-.2.3-.3.6-.4.9zm.8-2.2c-4.3-2.6-8.5-5.2-13.2-7.9.8-.6 1.4-.9 1.8-1.4 1.2-1.7 2.2-1.5 3.6 0 2.1 2.3 4.4 4.4 6.6 6.7.6.7 1.7 1.2 1.2 2.6zm1.6-1.5c-3.2-3.1-6.2-6.3-9.2-9.4-1.8-2.1.7-2.6 1.5-3.5 1-1.6 1.5.1 1.9.8l5.4 9.4c.7.7.9 1.8.4 2.7zm5 2.5c-.2.1-.3.1-.5.2-3-5.2-6-10.5-9.1-15.8-.6-1.1-.5-1.7.9-2 2.8-.7 5.7-1.5 8.7-2.3V178zm-7.2-19.8c2.4-2.3 4.9-4.7 7.2-7 .2 6.3-.2 6.1-7.2 7zm6.4-9.7c-3.3 3.6-6.7 7.3-10.4 11.3-3.1-5.5-5.7-10.2-8.8-15.3 6.7.6 12.7.9 18.7 1.5 2.1.2 1.4 1.6.5 2.5zm.9-71.8c-.1 6.9-.1 13.6-.1 20.4.1 1.9-.3 2.9-2.7 2.8-5.1-.3-10.1-.1-15.1-.1-1.2 0-1.9-.1-1.5-1.6 2.7-10 5.5-20.1 8.2-30.3 3.4 1.9 6.5 3.7 9.6 5.7 1.1.6 1.8 1.8 1.6 3.1zm.2-18.4c-.6 4.4-.1 9-.1 14.1-3.7-2-6.7-3.9-9.9-5.7-.7-.3-1-1.1-.7-1.7 1.6-5.7 3.1-11.4 4.7-17.5 3.6 2.9 6.7 5.6 6 10.8zm-.5-6.9c-1.6-1.9-2.8-3.4-4.1-4.8-.7-.7-.8-1.6-.4-2.4.5-1.2 1.3-.6 2-.5 3.5.7 3.8 1.5 2.5 7.7zm44.5 47.7c-.1.3-.2.5-.3.7h-17.8c-1.3 0-2.1-.1-1.5-1.8.8-2.4 1.3-4.7 1.9-7.1.3-1.2.7-1.6 1.8-.9 5.3 3.1 10.6 6.1 15.9 9.1zm-42.5 5.7c1.3-2.7 3.2-4.7 7-3.5 3.6 0 7.4.1 11.4 0 1.5 0 1.8.6 1.5 2-.5 2.6-1.4 4.4-4.6 5-4.5.9-9.1 2.3-13.6 3.6-1.6.5-2.5.2-2.2-1.6s-.4-3.7.5-5.5zm21.2-7.2c-1.1-4.3-2.1-7.9-3.2-12.1 6.4 3.3 6.4 3.3 3.2 12.1zm1.7 12.1c1.1 3.2.5 4-4.5 5.7-.1-2.2.9-4.1 1.4-6 .2-.8.9-1.1 1.8-1.2 1.1-.1 1.1.8 1.3 1.5zm-4.9-26l-.2-.2c-1.3-1-1.4-2.8-.4-4 .6-.9 1.1-1.6 1.6-2.5.8-1.8 1.7-1.4 2.7-.2 1.4 1.7 3.2 2.9 4.2 4.5-.5 1.8-.8 3.3-1.3 5-.2.7-.6.9-1.3.5-1.8-.9-3.6-1.9-5.3-3.1zm3.2-12.1c-.7 1.1-1.1 1.1-2 .2-6-5.5-6.1-5.4.9-9.4 3.3-1.9 6.6-3.7 9.9-5.6.2-.1.3 0 1.2 0-3.7 5.2-7 10.1-10 14.8zm-7 9.5c-.8.4-1.2-.3-1.8-.6-4-2.2-7.9-4.4-12.2-6.9 3.6-2.1 6.9-3.9 10.1-5.8 1.1-.6 1.4-.2 1.7.9.8 3.4 1.8 6.8 2.7 10.2.3.8.1 1.7-.5 2.2zm2.1 4c1.3 4.5 2.5 8.9 3.6 13.4.5 1.5-.6 1.3-1.5 1.3h-15.1c3.8-5.4 7.1-10.2 10.3-15.2 1.2-1.7 2.2-1 2.7.5zm-16.5 29.7c1.6-2.9 6.6-2.4 10.1-3.5 2.6-.9 5.3-1.4 8.3-2.2-.7 2.4-1.2 4.4-1.7 6.5-.2 1-.9 1.8-1.8 2.2-2.1 1.1-4.2 2.4-6.4 3.6-2.7 1.6-5.6 3.1-8.6 4.8l.1-11.4zm15.8 4.3c-1.3 5-2.6 9.4-3.8 13.9-.4 1.3-1.2.6-1.8.2-3.1-1.7-6-3.5-9.5-5.6 5.1-3 9.8-5.6 15.1-8.5zm1.4.7c.3-1.5 5.3-5.3 6.6-5.2.3.1.5.2.7.4 1.4 1.6 1.2 5.7-.3 7.2-2.7 2.7-5.3 5.3-8 7.9-.6.4-1.1 1.2-2.2.9 1-3.9 2.1-7.6 3.2-11.2zm7.7-9.3c-.1-1-1.4-2.6.3-3.2 4.3-1.3 8.7-2.6 13.4-2.8-4.2 2.2-8.3 4.6-12.4 6.9-.9.5-1.2-.2-1.3-.9zm0-4.9c-2.4.6-1.7-1.9-2.1-3-.6-1.6.9-1.3 1.8-1.3h15.2c0 .2.1.3.2.4-5 1.3-10 2.8-15.1 3.9zm15-10.2c-.1.1-.1.3-.2.4-4.4-2.4-8.9-4.6-12.9-7.4-2.1-1.5.5-3.7.5-5.5 4.3 4.2 8.4 8.3 12.6 12.5zm-13.3-16.5c-.3-.1-.6-.1-.7-.2-5-4.5-5-4.5-1.2-10 2.1-2.9 4.1-5.9 6.2-8.8.3.1.6.3.9.4-1.7 6.2-3.3 12.4-5.2 18.6zm6-25.2c-6.9 3.9-13.3 7.5-19.8 11.2-1.7-5.9-3.2-11.7-4.7-17.8 8.2 2.1 16 4.3 24.5 6.6zm-32.5-13.9c.4-4.7.1-9.5.1-14.2h.6c1.5 5.8 3.1 11.7 4.6 17.6.4 1.4-.1 1.6-1.5 1.3-2.8-.4-4.1-1.5-3.8-4.7zm.2 5.9c.2-.3.4-.4.7-.4 2.2-.5 5.4 1.6 6 3.8 1.1 4.3 2.3 8.6 3.4 13-.2.1-.3.2-.5.3-3-3-6-6.1-9.1-9-.7-.8-1.1-6.9-.5-7.7zm-.3 9.5c3.9 3.8 7.4 7.1 11 10.6-3.1 1.8-6.2 3.5-9.2 5.2-1.2.7-1.8.6-1.8-.9V55.2zm-.3 42.5v-7.4l.3-13c0-1.6.4-2.1 2-1.2 3.2 2 6.5 3.9 9.9 5.7 1.4.7 1.4 1.4.6 2.5-3.4 4.7-6.7 9.5-9.9 14.3-.6.9-1.4 1.5-2.4 1.1-1.1-.4-.5-1.3-.5-2zm-.1 45v-14.1c3.6 2.1 6.6 4 9.8 5.7 1.2.7 1.2 1.3.3 2.2-2.5 2.4-4.9 4.8-7.3 7.3-.5.7-1.3 1-2.1.9-1.2-.4-.7-1.3-.7-2zm10.7-4.8c-1.7 8.8-1.1 7.8-6.4 6.8 1.8-2.5 4-4.3 6.4-6.8zm-9.8 37.4c-.2 0-.5-.1-.7-.1 0-4.8.1-9.7 0-14.5-.1-2.2.4-3.3 2.7-3.5 1-.2 2.1-.5 3.1-.8-1.8 6.5-3.4 12.7-5.1 18.9zm3.6-20.1c-5.1 1.3-4.2 1.4-4.3-3.2 0-4.4.7-5.8 3.7-5.5 1.6.1 3.7-.9 4.5 1 .7 1.9-2.2 7.2-3.9 7.7zm3.7-.8c.6-2.3 1-4.3 1.5-6.2.4-1.5 1.7-1.1 2.7-1 5.5.3 10.9.7 16.4 1.2.1.1.1.3.2.4-6.8 1.8-13.6 3.6-20.8 5.6zm4.6-8.6c-1.5-.1-2.2-.5-1.7-2.4 1.9-7.2 1.8-7.2 8.2-3.4l11.4 7.1c-6.3-.4-12.1-.9-17.9-1.3zm20.5.8c-6.8-4.1-13-7.8-19-11.3 4.3-4.2 8.3-8.4 12.7-12.6 1.9 7.7 4 15.5 6.3 23.9zm-5.7-28.2c-.1-.1-.2-.3-.3-.4-1.5-4.6-1.6-4.6 2.8-7 3.3-1.8 6.7-3.6 10-5.4l.5.3c-4.4 4.2-8.6 8.3-13 12.5z"/></svg>