<?xml version="1.0" encoding="utf-8"?>
<!-- Generator: Adobe Illustrator 22.1.0, SVG Export Plug-In . SVG Version: 6.00 Build 0)  -->
<svg version="1.1" id="Livello_1" xmlns="http://www.w3.org/2000/svg" xmlns:xlink="http://www.w3.org/1999/xlink" x="0px" y="0px"
	 viewBox="0 0 200 200" style="enable-background:new 0 0 200 200;" xml:space="preserve">
<style type="text/css">
	.st0{fill:#B356F0;}
	.st1{fill:#2210CB;}
	.st2{fill:#FFFFFF;}
	.st3{fill:#50C0D0;}
	.st4{fill:#6527E0;}
	.st5{fill:#FF8E00;}
</style>
<path class="st0" d="M178.8,152.5l-72.7,42c-3.8,2.2-8.4,2.2-12.2,0l-72.7-42c-3.8-2.2-6.1-6.2-6.1-10.5l0-83.9
	c0-4.4,2.3-8.4,6.1-10.5l72.7-42c3.8-2.2,8.4-2.2,12.2,0l72.7,42c3.8,2.2,6.1,6.2,6.1,10.5l0,83.9
	C184.8,146.3,182.5,150.3,178.8,152.5z"/>
<path class="st1" d="M100,192.4c-3.8,0-7.5-1-10.9-2.9l-61.2-35.3c-6.7-3.9-10.9-11.1-10.9-18.8V64.7c0-7.7,4.2-15,10.9-18.8
	l61.2-35.3c6.7-3.9,15-3.9,21.7,0l61.2,35.3c6.7,3.9,10.9,11.1,10.9,18.8v70.7c0,7.7-4.2,15-10.9,18.8l-61.2,35.3
	C107.5,191.5,103.8,192.4,100,192.4z M100,12.3c-2.9,0-5.9,0.8-8.5,2.3L30.3,50c-5.2,3-8.5,8.7-8.5,14.7v70.7c0,6,3.3,11.7,8.5,14.7
	l61.2,35.3c5.2,3,11.7,3,17,0l61.2-35.3c5.2-3,8.5-8.7,8.5-14.7V64.7c0-6-3.3-11.7-8.5-14.7l-61.2-35.3
	C105.9,13.1,102.9,12.3,100,12.3z"/>
<path class="st2" d="M99.8,192.4c-3.8,0-7.5-1-11-3.1l-56.1-34.2c-7.1-4.4-11.6-12.6-11.6-21.6V66.5c0-8.9,4.4-17.2,11.6-21.6
	l56.1-34.2c6.9-4.2,15.1-4.2,21.9,0l56.1,34.2c7.1,4.4,11.6,12.6,11.6,21.6v67.1c0,8.9-4.4,17.2-11.6,21.6l-56.1,34.2
	C107.4,191.4,103.6,192.4,99.8,192.4z M99.8,14.6c-2.7,0-5.4,0.8-7.9,2.3L35.9,51c-5.1,3.1-8.3,9.1-8.3,15.5v67.1
	c0,6.4,3.2,12.4,8.3,15.5L92,183.2c4.9,3,10.8,3,15.7,0l56.1-34.2c5.1-3.1,8.3-9.1,8.3-15.5V66.5c0-6.4-3.2-12.4-8.3-15.5
	l-56.1-34.2C105.2,15.3,102.5,14.6,99.8,14.6z"/>
<path class="st3" d="M15.2,142c0,0-0.4,6.8,6.1,10.5c6.5,3.7,72.7,42,72.7,42s5.6,3.8,12.2,0c6.6-3.8,72.7-42,72.7-42
	s6.1-3.3,6.1-10.5L100,100L15.2,142z"/>
<path class="st3" d="M15.2,58c0,0-0.4-6.8,6.1-10.5s72.7-42,72.7-42s5.6-3.8,12.2,0c6.6,3.8,72.7,42,72.7,42s6.1,3.3,6.1,10.5
	L100,100L15.2,58z"/>
<path class="st4" d="M150.7,135.9l-44.4,25.6c-3.8,2.2-8.4,2.2-12.2,0l-44.4-25.6c-3.8-2.2-6.1-6.2-6.1-10.5l0-51.2
	c0-4.4,2.3-8.4,6.1-10.5l44.4-25.6c3.8-2.2,8.4-2.2,12.2,0l44.4,25.6c3.8,2.2,6.1,6.2,6.1,10.5v51.2
	C156.8,129.7,154.5,133.7,150.7,135.9z"/>
<polygon class="st2" points="56,122.3 67.7,128.9 67.7,83 98.9,62.1 102.9,64.2 71.9,83.3 71.9,131.3 82.2,137.6 82.2,91 
	113.8,70.9 117.7,73.2 86.9,92.6 86.9,140.3 97.1,145.8 97.1,97.9 140.3,72.2 102.6,49.4 97.1,49.4 56,73 "/>
<polygon class="st5" points="102.4,147.7 114.8,141.3 114.8,127.6 143.2,110.9 143.2,75.9 102.4,99.7 "/>
<polygon class="st4" points="114.8,107.4 114.8,116.4 133.4,105.3 133.4,95.5 "/>
</svg>
