<svg xmlns="http://www.w3.org/2000/svg" id="Livello_1" viewBox="0 0 200 200"><style>.st0{fill:#00f}</style><path d="M118.1 119.9c-3.2 13-25 6-32.1 4.2l5.7-22.9c7.1 1.7 29.7 5.2 26.4 18.7zM121.3 86.3c-2.9 11.8-21.1 5.8-27 4.3l5.2-20.8c5.9 1.5 24.8 4.2 21.8 16.5z" class="st0"/><path d="M123 7.8C72.1-4.8 20.5 26.1 7.9 77-4.8 127.9 26.1 179.5 77 192.2c50.9 12.7 102.5-18.3 115.1-69.2C204.8 72.1 173.9 20.5 123 7.8zm18.9 78.7c-1.4 9.3-6.5 13.7-13.3 15.3 9.3 4.9 14.1 12.3 9.6 25.3-5.6 16.1-19 17.4-36.8 14.1l-4.3 17.3-10.4-2.6 4.3-17.1c-2.7-.7-5.5-1.4-8.3-2.2l-4.3 17.1-10.4-2.6 4.3-17.3-19.6-4.9 3.8-12.3s7.7 2 7.6 1.9c3 .7 4.3-1.2 4.8-2.5l11.7-46.9c.6-2.5-.6-5-4.9-6.1 0-.2-7.6-1.9-7.6-1.9L70.8 50l14.4 3.6v.1c2.2.5 4.4 1 6.7 1.6l4.3-17.1 10.4 2.6-4.2 16.8c2.8.6 5.6 1.3 8.3 2l4.2-16.7 10.4 2.6-4.3 17c13.2 4.5 22.8 11.3 20.9 24z" class="st0"/></svg>