<?xml version="1.0" encoding="utf-8"?>
<!-- Generator: Adobe Illustrator 22.1.0, SVG Export Plug-In . SVG Version: 6.00 Build 0)  -->
<svg version="1.0" id="Livello_1" xmlns="http://www.w3.org/2000/svg" xmlns:xlink="http://www.w3.org/1999/xlink" x="0px" y="0px"
	 viewBox="0 0 200 200" style="enable-background:new 0 0 200 200;" xml:space="preserve">
<style type="text/css">
	.st0{fill:#00FFBA;}
	.st1{fill:#00CFAB;}
</style>
<path class="st0" d="M116.2,40.4C103.8,10.9,69.9-2.9,40.4,9.6C33.5,12.5,27.3,16.7,22,22c-8.1,8.1-8.1,21.3,0,29.4s21.3,8.1,29.4,0
	c1.5-1.5,3.2-2.7,5.2-3.5c4-1.7,8.6-1.7,12.6,0c2.9,1.2,5.4,3.3,7.2,5.9c1.8,2.7,2.8,5.8,2.8,9.1c0,11.5,9.3,20.8,20.8,20.8
	s20.8-9.3,20.8-20.8C120.8,55.2,119.2,47.5,116.2,40.4z"/>
<path class="st1" d="M100,116.3c-11.5,0-20.8,9.3-20.8,20.8c0,2.2-0.4,4.3-1.3,6.3c-1.2,2.9-3.3,5.4-5.9,7.2c-1.3,0.9-2.7,1.6-4.2,2
	c-5.9,1.8-12.3,0.2-16.5-4.2l0,0c-1.4-1.5-2.6-3.2-3.3-5.1c-1.6-4-1.6-8.5,0.1-12.5c1.2-2.9,3.3-5.4,5.9-7.2
	c2.7-1.8,5.8-2.8,9.1-2.8c11.5,0,20.8-9.3,20.8-20.8s-9.3-20.8-20.8-20.8c-32,0-57.9,25.9-57.9,57.9c0,15,5.8,29.4,16.2,40.2
	c22.2,23,58.8,23.7,81.8,1.5c11.3-10.9,17.7-26,17.7-41.7C120.8,125.6,111.4,116.3,100,116.3"/>
<path class="st1" d="M188.6,36.5c-4-7.9-9.8-14.7-16.9-20c0,0,0,0,0,0C146-2.6,109.8,2.7,90.7,28.3c-7.4,10-11.4,22.1-11.4,34.6
	c0,11.5,9.3,20.8,20.8,20.8c11.5,0,20.8-9.3,20.8-20.8c0-2.2,0.4-4.3,1.3-6.3c1.2-2.9,3.3-5.4,5.9-7.2c1.3-0.9,2.7-1.6,4.2-2
	c5-1.5,10.4-0.6,14.5,2.5l0,0c2,1.5,3.7,3.4,4.8,5.7c2.2,4.3,2.4,9.3,0.5,13.7c-1.2,2.9-3.3,5.4-5.9,7.2c-1.3,0.9-2.7,1.6-4.2,2
	c-1.6,0.5-3.2,0.7-4.8,0.7c-11.5,0-20.8,9.3-20.8,20.8s9.3,20.8,20.8,20.8c32,0,57.9-25.9,57.9-57.9C195,53.7,192.8,44.6,188.6,36.5
	z"/>
<path class="st0" d="M190.4,114.6c-9-21.4-30-35.4-53.3-35.3c-11.5,0-20.8,9.3-20.8,20.8c0,11.5,9.3,20.8,20.8,20.8
	c2.2,0,4.3,0.4,6.3,1.3c2.9,1.2,5.4,3.3,7.2,5.9c3,4.5,3.6,10.3,1.5,15.3c-0.8,1.9-1.9,3.6-3.4,5.1l0,0c-1.5,1.5-3.3,2.8-5.2,3.6
	c-4.1,1.7-8.7,1.8-12.8,0c-2.9-1.2-5.4-3.3-7.2-5.9c-1.8-2.7-2.8-5.8-2.8-9.1c0-11.5-9.3-20.8-20.8-20.8s-20.8,9.3-20.8,20.8
	c0,31.9,25.8,57.9,57.8,57.9c15.7,0,30.7-6.3,41.6-17.6h0C194.8,160.7,199.5,136,190.4,114.6z"/>
<path class="st0" d="M62.9,79.2c-2.2,0-4.3-0.4-6.3-1.3c-2.9-1.2-5.4-3.3-7.2-5.9c-4.4-6.4-3.5-15.1,2-20.6c8.1-8.1,8.1-21.3,0-29.4
	S30.1,13.9,22,22c-22.6,22.6-22.6,59.2-0.1,81.8c10.9,10.9,25.6,17,41,17c11.5,0,20.8-9.3,20.8-20.8S74.4,79.2,62.9,79.2z"/>
</svg>
