<svg xmlns="http://www.w3.org/2000/svg" id="Layer_1" viewBox="0 0 200 200"><style>.st0{fill:#b2a3f6}.st1{fill:#fc4c04}</style><circle id="Oval_26_" cx="77.9" cy="55.9" r="11.9" class="st0"/><circle id="Oval_25_" cx="111.9" cy="42.3" r="11.9" class="st0"/><circle id="Oval_24_" cx="125.4" cy="123.8" r="11.9" class="st0"/><circle id="Oval_23_" cx="11.8" cy="111.9" r="6.8" class="st0"/><circle id="Oval_22_" cx="30.4" cy="157.7" r="5.1" class="st0"/><circle id="Oval_21_" cx="84.7" cy="191.6" r="5.1" class="st0"/><circle id="Oval_20_" cx="172.9" cy="161.1" r="5.1" class="st0"/><circle id="Oval_19_" cx="118.7" cy="150.9" r="5.1" class="st0"/><circle id="Oval_18_" cx="149.2" cy="127.1" r="5.1" class="st0"/><circle id="Oval_17_" cx="113.6" cy="189.9" r="6.8" class="st0"/><circle id="Oval_16_" cx="144.1" cy="105.1" r="6.8" class="st0"/><circle id="Oval_15_" cx="154.3" cy="172.9" r="6.8" class="st0"/><circle id="Oval_14_" cx="20.3" cy="137.3" r="8.5" class="st0"/><circle id="Oval_13_" cx="101.7" cy="167.9" r="11.9" class="st0"/><circle id="Oval_12_" cx="37.2" cy="110.2" r="11.9" class="st0"/><circle id="Oval_11_" cx="101.7" cy="140.7" r="8.5" class="st0"/><circle id="Oval_10_" cx="61" cy="69.5" r="5.1" class="st0"/><circle id="Oval_9_" cx="93.2" cy="84.7" r="10.2" class="st0"/><circle id="Oval_8_" cx="117" cy="98.3" r="6.8" class="st0"/><circle id="Oval_7_" cx="128.8" cy="15.2" r="5.1" class="st0"/><circle id="Oval_6_" cx="105.1" cy="11.8" r="8.5" class="st0"/><circle id="Oval_5_" cx="110.2" cy="67.8" r="6.8" class="st0"/><circle id="Oval_4_" cx="45.7" cy="139" r="10.2" class="st0"/><circle id="Oval_3_" cx="144.1" cy="149.2" r="10.2" class="st0"/><circle id="Oval_2_" cx="130.5" cy="172.9" r="10.2" class="st0"/><circle id="Oval_1_" cx="50.8" cy="171.3" r="11.9" class="st0"/><circle id="Oval" cx="15.2" cy="84.7" r="10.2" class="st0"/><circle id="Oval_46_" cx="66.1" cy="98.3" r="13.6" class="st1"/><circle id="Oval_47_" cx="137.3" cy="77.9" r="13.6" class="st1"/><circle id="Oval_48_" cx="174.6" cy="139" r="10.2" class="st1"/><circle id="Oval_49_" cx="184.8" cy="98.3" r="10.2" class="st1"/><circle id="Oval_50_" cx="145.8" cy="52.5" r="8.5" class="st1"/><circle id="Oval_45_" cx="147.5" cy="27.1" r="6.8" class="st1"/><circle id="Oval_44_" cx="162.8" cy="35.5" r="5.1" class="st1"/><circle id="Oval_43_" cx="189.9" cy="76.3" r="5.1" class="st1"/><circle id="Oval_42_" cx="44" cy="32.1" r="5.1" class="st1"/><circle id="Oval_41_" cx="37.2" cy="76.3" r="5.1" class="st1"/><circle id="Oval_40_" cx="50.8" cy="83" r="5.1" class="st1"/><circle id="Oval_39_" cx="67.8" cy="18.6" r="5.1" class="st1"/><circle id="Oval_38_" cx="189.9" cy="120.4" r="5.1" class="st1"/><circle id="Oval_37_" cx="172.9" cy="59.3" r="11.9" class="st1"/><circle id="Oval_36_" cx="162.8" cy="89.8" r="8.5" class="st1"/><circle id="Oval_35_" cx="47.4" cy="52.5" r="8.5" class="st1"/><circle id="Oval_34_" cx="84.7" cy="28.8" r="8.5" class="st1"/><circle id="Oval_33_" cx="62.7" cy="33.8" r="6.8" class="st1"/><circle id="Oval_32_" cx="25.4" cy="61" r="6.8" class="st1"/><circle id="Oval_31_" cx="167.9" cy="115.3" r="6.8" class="st1"/><circle id="Oval_30_" cx="94.9" cy="113.6" r="11.9" class="st1"/><circle id="Oval_29_" cx="72.9" cy="125.4" r="6.8" class="st1"/><circle id="Oval_28_" cx="76.3" cy="149.2" r="10.2" class="st1"/><circle id="Oval_27_" cx="76.3" cy="172.9" r="6.8" class="st1"/></svg>