<svg xmlns="http://www.w3.org/2000/svg" version="1.0" viewBox="0 0 200 200"><path d="M167.4 116.3c-.3-.3-12.8-11.4-17.3-15.4 3.3-7.5 4.8-15.3 4.5-23.4-1.1-23.6-16.7-42.9-38.3-49.1-19.5-5.4-36.9-1.1-52 12.5-.3.3-.6.5-1 .9-5.1-4.9-10.1-9.7-15.1-14.5C70.7 3.5 113-4.4 145.7 19.4c33.9 24.8 38.3 68.2 21.7 96.9z"/><path fill="#f7a70e" d="M154.6 132.1l-30.9-25.8s-1.5-.5-1.5-8.8c0-6.3-4.6-10.8-4.6-10.8L84.3 55.5c-.2-.2-.4.1-.3.3l27.6 32.6c1 1.1-.6 2.6-1.7 1.6L80.5 60.1c-.1-.1-.4.1-.2.2l27.4 32.9c.8 1-.6 2.3-1.5 1.4l-29.5-31c-.2-.2-.4.1-.3.2l26.4 33c.9 1.1-.7 2.6-1.7 1.5L71.8 66.9c-.2-.2-.4 0-.3.2l27 36.6s4.2 5.4 11.3 6.2c4.6.5 6.2 2.1 6.2 2.1l12.4 15.5s-9.3 9.3-29.9 9.3-53.6-16.5-53.6-56.7c0 0-1-15.5 13.4-33L42.8 32.7S23.2 53.3 23.2 80.1c0 19.4 7.1 35.1 10.9 42.2 1.3 2.4 2.9 4.6 4.7 6.7l56 64.4c1.9 2.2 5.4 2.2 7.3 0l52.5-61.3z"/></svg>