<svg xmlns="http://www.w3.org/2000/svg" id="Layer_1" x="0" y="0" version="1.1" viewBox="0 0 191 90.3" xml:space="preserve"><style>.st0{fill:#252266}</style><path d="M93.9 32.6l9.6 14.1c3.2-4.8 6.3-9.5 9.3-14.1h20.5l-19.6 27.2 20.7 29h-21.8l-9.7-14.9c-3.2 5.1-6.3 10-9.5 15H71.8c6.8-9.5 13.6-18.9 20.4-28.3l-19.7-28h21.4zM191 42.6l-11.8 10.5c-.6-.2-.9-.7-1.2-1.1-3.1-3.6-7.7-5.6-12.5-5.3-5.4.2-10 4-11.4 9.2-1 3.6-.9 7.5.5 11 2.1 5.4 7 8.2 12.9 7.8 4.1-.3 7.9-2.2 10.5-5.3.3-.4.6-.7 1.1-1.3l12 10.7c-3.3 4.3-7.8 7.5-13 9.3-5.9 2.1-12.2 2.6-18.3 1.5-10.5-1.7-18.6-7-23.1-16.9-2.2-4.9-2.9-10.4-2.2-15.7 1.3-12.3 9.9-21.3 21-24.4 8.6-2.5 17.8-1.8 25.9 1.9 3.7 1.9 7.1 4.7 9.6 8.1zM46.7 69C45 72.3 39.1 82.1 38 83.8h-8.4L17.7 64.7l-.3.1v24H0V32.6h15.7c2 3.3 4.1 6.6 6.1 9.9 3.5 5.7 7 11.4 10.4 17.1.1.2 3.7 4.5 4.5 5.7 0 0 9.5 3.2 10 3.7zM67.5 32.8c0 1.4.2 37.4.3 53.9.1.7 0 1.4-.2 2H50.3V62.3l17.2-29.5z" class="st0"/><linearGradient id="SVGID_1_" x1="52.2546" x2="80.9846" y1="-6.7118" y2="42.1782" gradientTransform="matrix(1.01 -.02 .02 -1.03 -7.21 48.69)" gradientUnits="userSpaceOnUse"><stop offset="0" stop-color="#252266"/><stop offset=".6" stop-color="#0c4384"/><stop offset=".65" stop-color="#215f90"/><stop offset=".72" stop-color="#3d85a0"/><stop offset=".79" stop-color="#54a2ad"/><stop offset=".87" stop-color="#63b7b6"/><stop offset=".93" stop-color="#6dc4bb"/><stop offset="1" stop-color="#70c8bd"/></linearGradient><path fill="url(#SVGID_1_)" d="M43.3 58.1c-3.8-2.3-4.5-8.4-2.1-12.5L65.1 4.4c2.2-4.1 7.3-5.5 11.4-3.3 4 2.4 5.3 7.6 2.9 11.6L55.7 54c-2.4 4.2-8.4 6.5-12.4 4.1z"/><linearGradient id="SVGID_2_" x1="45.0473" x2="73.7873" y1="-20.0019" y2="28.8881" gradientTransform="matrix(1.01 -.01 .03 -1.03 -7.9 48.25)" gradientUnits="userSpaceOnUse"><stop offset="0" stop-color="#252266"/><stop offset=".22" stop-color="#0c4384"/><stop offset=".23" stop-color="#104886"/><stop offset=".34" stop-color="#2d6f97"/><stop offset=".46" stop-color="#458fa5"/><stop offset=".58" stop-color="#58a8af"/><stop offset=".71" stop-color="#65bab7"/><stop offset=".84" stop-color="#6dc5bc"/><stop offset="1" stop-color="#70c8bd"/></linearGradient><path fill="url(#SVGID_2_)" d="M34.9 71.8c-3.8-2.4-4.4-8.5-2-12.5l24.2-41c2.3-4 7.4-5.5 11.4-3.2 4 2.4 5.2 7.6 2.8 11.6L46.6 69.2c-2.4 4-7.6 5.2-11.5 2.8l-.2-.2z"/></svg>