<?xml version="1.0" encoding="UTF-8" standalone="no"?>
<svg width="15px" height="7px" viewBox="0 0 15 7" version="1.1" xmlns="http://www.w3.org/2000/svg" xmlns:xlink="http://www.w3.org/1999/xlink">
    <!-- Generator: Sketch 46.2 (44496) - http://www.bohemiancoding.com/sketch -->
    <title>0x5CA9a71B1d01849C0a95490Cc00559717fCF0D1d</title>
    <desc>Created with Sketch.</desc>
    <defs></defs>
    <g id="Page-1" stroke="none" stroke-width="1" fill="none" fill-rule="evenodd">
        <g id="0x5CA9a71B1d01849C0a95490Cc00559717fCF0D1d" fill-rule="nonzero" fill="#F03C6E">
            <path d="M11.1029839,0.13884625 C9.76038743,0.13884625 8.84012823,0.987049987 8.04478064,2.03794487 L8.51608688,2.73405622 C9.24469998,1.72629201 10.0190283,0.933424508 11.1029839,0.933424508 C12.3480653,0.933424508 13.3834098,1.84594592 13.5746004,3.03639865 L10.483762,3.03639865 L10.483762,3.83097691 L14.3746984,3.83097691 C14.3904466,3.7006966 14.3987437,3.56814626 14.3987437,3.43368778 C14.3987437,1.61690262 12.9202705,0.13884625 11.1029839,0.13884625" id="Shape"></path>
            <path d="M11.1029839,5.93395104 C9.77737203,5.93395104 8.90269792,4.77636449 7.79235442,3.07795017 C6.68201092,1.37953585 5.6339768,0.138879149 4.00830377,0.138879149 C2.19101717,0.138879149 0.712543961,1.61693552 0.712543961,3.43372068 C0.712543961,5.25044004 2.19101717,6.7285293 4.00830377,6.7285293 C5.34859005,6.7285293 6.26797074,5.88325358 7.0623422,4.83492482 L6.5944524,4.1343063 C5.86606706,5.14160992 5.09190141,5.93395104 4.00830377,5.93395104 C2.62783362,5.93395104 1.50473541,4.81235606 1.50473541,3.43372068 C1.50473541,2.05505239 2.62783362,0.933424508 4.00830377,0.933424508 C5.33391562,0.933424508 6.1614103,2.03205594 7.31649292,3.78666186 C8.47157553,5.54126779 9.47734338,6.7285293 11.1029839,6.7285293 C12.5000156,6.7285293 13.6967138,5.85492749 14.1755036,4.62555516 L13.3033349,4.62555516 C12.8786875,5.40427607 12.0516158,5.93395104 11.1029839,5.93395104" id="Shape"></path>
        </g>
    </g>
</svg>