<?xml version="1.0" encoding="UTF-8" standalone="no"?><!DOCTYPE svg PUBLIC "-//W3C//DTD SVG 1.1//EN" "http://www.w3.org/Graphics/SVG/1.1/DTD/svg11.dtd"><svg width="100%" height="100%" viewBox="0 0 15 15" version="1.1" xmlns="http://www.w3.org/2000/svg" xmlns:xlink="http://www.w3.org/1999/xlink" xml:space="preserve" style="fill-rule:evenodd;clip-rule:evenodd;stroke-linejoin:round;stroke-miterlimit:1.41421;"><g><path d="M6.976,14.081c-0.041,-0.006 -0.186,-0.023 -0.319,-0.039c-0.952,-0.107 -1.945,-0.476 -2.79,-1.031c-1.321,-0.868 -2.309,-2.217 -2.724,-3.725c-0.161,-0.577 -0.217,-0.985 -0.232,-1.644c-0.02,-0.899 -0.079,-0.907 0.629,0.066c0.328,0.453 0.624,0.858 0.657,0.906c0.03,0.046 0.097,0.219 0.145,0.385c0.239,0.84 0.728,1.662 1.362,2.296c1.538,1.538 3.845,1.999 5.843,1.171c1.395,-0.578 2.518,-1.756 3.015,-3.162l0.076,-0.224l-1.181,0l-1.184,0l0,-1.196l0,-1.197l-1.296,0l-1.299,0l-0.038,0.056c-0.056,0.076 -0.051,0.13 0.013,0.188c0.048,0.044 0.112,0.051 0.695,0.064c0.598,0.013 0.652,0.018 0.843,0.082c0.336,0.109 0.601,0.308 0.72,0.537c0.059,0.114 0.069,0.16 0.069,0.384c0,0.229 -0.008,0.27 -0.071,0.402c-0.097,0.194 -0.273,0.367 -0.494,0.484c-0.357,0.186 -0.25,0.178 -2.712,0.189c-1.217,0.005 -2.21,0.005 -2.21,-0.003c0,-0.008 0.145,-0.201 0.321,-0.428l0.323,-0.415l1.828,-0.012c1.806,-0.013 1.828,-0.013 1.9,-0.067c0.094,-0.071 0.102,-0.137 0.02,-0.213c-0.066,-0.064 -0.071,-0.064 -0.733,-0.079c-0.642,-0.013 -0.675,-0.016 -0.871,-0.084c-0.249,-0.087 -0.402,-0.181 -0.565,-0.354c-0.181,-0.194 -0.247,-0.344 -0.257,-0.591c-0.008,-0.163 0.002,-0.234 0.048,-0.356c0.11,-0.293 0.428,-0.525 0.835,-0.611c0.156,-0.034 0.481,-0.039 2.068,-0.039l1.881,0l0,2.241l2.775,0l0,0.076c0,0.112 -0.068,0.553 -0.127,0.81c-0.453,2.029 -1.851,3.735 -3.763,4.588c-0.522,0.231 -1.13,0.407 -1.741,0.499c-0.25,0.035 -1.289,0.071 -1.459,0.046Z" style="fill:#01529d;fill-rule:nonzero;"/><path d="M3.679,9.095c-0.064,-0.017 -0.161,-0.063 -0.212,-0.101c-0.112,-0.087 -0.099,-0.069 -1.367,-1.808l-0.998,-1.372l0.132,-0.405c0.703,-2.118 2.47,-3.766 4.621,-4.308c0.533,-0.135 0.833,-0.173 1.457,-0.186c0.626,-0.015 0.965,0.008 1.433,0.097c1.691,0.321 3.223,1.321 4.198,2.747c0.65,0.947 1.049,2.075 1.136,3.203l0.02,0.234l-0.616,0c-0.519,0 -0.613,-0.005 -0.613,-0.035c0,-0.105 -0.084,-0.668 -0.128,-0.856c-0.132,-0.57 -0.445,-1.298 -0.751,-1.757c-0.87,-1.298 -2.192,-2.141 -3.717,-2.37c-0.374,-0.053 -1.072,-0.066 -1.405,-0.023c-0.978,0.13 -1.838,0.479 -2.602,1.052c-0.634,0.476 -1.184,1.13 -1.551,1.845c-0.16,0.311 -0.318,0.711 -0.303,0.767c0.005,0.023 0.324,0.478 0.708,1.011l0.698,0.967l0.712,-0.988l0.713,-0.985l0.645,0c0.351,-0.003 0.641,0.002 0.641,0.01c0,0.033 -2.179,2.938 -2.289,3.05c-0.191,0.201 -0.359,0.265 -0.562,0.211Z" style="fill:#01529d;fill-rule:nonzero;"/></g></svg>