<?xml version="1.0" encoding="utf-8"?>
<!-- Generator: Adobe Illustrator 22.1.0, SVG Export Plug-In . SVG Version: 6.00 Build 0)  -->
<svg version="1.0" id="Layer_1" xmlns="http://www.w3.org/2000/svg" xmlns:xlink="http://www.w3.org/1999/xlink" x="0px" y="0px"
	 viewBox="0 0 540 540" enable-background="new 0 0 540 540" xml:space="preserve">
<g>
	<path fill="#F7296E" d="M119.9,150.4c20.5-3.3,41.4-0.7,60.5,7.5c25.8,11.1,46.2,31.4,63.6,52.8c18.7,22.8,34,48.2,50.9,72.3
		c13.4,19,27.5,37.8,45.1,53.1c9.9,8.5,21,15.8,33.5,19.9c17.9,5.9,37.7,4.9,55.4-1.1c21.4-7.5,39.4-22.6,50.4-42.5
		c10.8,0,21.6,0.1,32.4,0c-10.7,26.9-30.6,49-56.1,62.5c-11.7,6.2-24.4,10.4-37.5,12.6c-18.5,2.5-37.9,2-55.6-4.4
		c-20.4-6.9-38-20.3-52.9-35.6C270,307.1,246,254.3,207.4,213c-10.3-10.7-21.8-20.5-35.2-27c-15.6-7.4-33-9.7-50-6.6
		c-23.3,3.8-44.3,16.5-58.6,35.3c-16.9,22.2-22.5,50.9-15.2,77.8c7.1,25.6,24.9,46.9,48.9,58.4c22,10.5,48.8,12.5,71.4,2.6
		c13.2-5.6,24.6-14.5,34.8-24.5c10-10.1,19.2-21,27.5-32.6c0.5-0.7,1.1-1.3,1.6-1.9c5.6,8.6,11.5,17,17.2,25.6
		c-16.3,21.2-34.8,41.5-58.3,54.8c-10.7,6-22.3,10.2-34.3,12.5c-54.2,9.1-107.7-19.2-130.6-69.1c-20.5-45.1-10.8-98.2,24.2-133.2
		C69.4,166.3,93.7,154.1,119.9,150.4z"/>
	<path fill="#F7296E" d="M345.7,162.6c21-11.5,45.2-15.8,68.9-12.4c13.1,1.7,25.9,5.5,37.8,11.4c31.7,15.3,56.1,45.1,64.2,79.4
		c3.5,14,4.3,28.5,2.4,42.7c-47.7-0.1-95.4-0.1-143.1,0c-0.1-9.7,0-19.4,0-29.1c37.8,0,75.7,0,113.6,0
		c-3.5-21.6-14.8-41.2-31.7-55.1c-22.2-18.5-53.6-26.3-81.6-18.2c-13.5,4.1-25.7,11.7-36.3,20.9c-14,12.2-25.7,26.7-36.6,41.7
		c-5.6-8.6-11.6-17.1-17.5-25.6C302.5,196.7,321.4,175.8,345.7,162.6z"/>
</g>
</svg>
