<?xml version="1.0" encoding="utf-8"?>
<!-- Generator: Adobe Illustrator 22.1.0, SVG Export Plug-In . SVG Version: 6.00 Build 0)  -->
<svg version="1.0" id="Livello_1" xmlns="http://www.w3.org/2000/svg" xmlns:xlink="http://www.w3.org/1999/xlink" x="0px" y="0px"
	 viewBox="0 0 200 200" style="enable-background:new 0 0 200 200;" xml:space="preserve">
<style type="text/css">
	.st0{fill:#2EB6F7;}
</style>
<path class="st0" d="M7.5,28.3v18.3h18.3l33.5,67.6c2,3,7.1,13.7,13.7,12.7h68.1c6.6,0,12.7-3,15.2-8.6l34.1-58.4c1-1.5,2-3,2-5.1
	c0-4.1-3-8.1-7.6-8.1H46.6L39,28.3H7.5z M100,153.9c0,12.2-6.1,17.8-18.3,17.8c-12.7,0-18.8-5.6-18.8-17.8
	c0-12.2,6.6-17.3,19.3-17.3S100,142.2,100,153.9L100,153.9z M155.9,153.9c0,12.2-6.1,17.8-18.3,17.8c-12.7,0-18.8-5.6-18.8-17.8
	c0-12.2,6.6-17.3,19.3-17.3S155.9,142.2,155.9,153.9L155.9,153.9z"/>
</svg>
