<?xml version="1.0" encoding="UTF-8" standalone="no"?>
<svg width="15px" height="15px" viewBox="0 0 15 15" version="1.1" xmlns="http://www.w3.org/2000/svg" xmlns:xlink="http://www.w3.org/1999/xlink">
    <!-- Generator: Sketch 46.2 (44496) - http://www.bohemiancoding.com/sketch -->
    <title>vSlice_CV</title>
    <desc>Created with Sketch.</desc>
    <defs></defs>
    <g id="Page-1" stroke="none" stroke-width="1" fill="none" fill-rule="evenodd">
        <g id="vSlice_CV" fill="#024A86">
            <path d="M6.35568,5.59104 L3.89568,8.88624 C3.693,9.15972 3.48732,9.29628 3.27816,9.29628 C3.06888,9.29628 2.86296,9.15804 2.66052,8.8812 L0.26136,5.59104 L1.66848,5.59104 L3.29844,7.8486 L4.93836,5.59104 L6.35568,5.59104" id="Fill-11"></path>
            <path d="M1.4358,6.5268 C1.89192,3.6096 4.4154,1.37748 7.46052,1.37748 C10.70736,1.37748 13.36008,3.91464 13.54764,7.1142 L14.90496,7.1142 C14.71584,3.16596 11.4558,0.02268 7.46052,0.02268 C3.99552,0.02268 1.08324,2.38752 0.24828,5.59104 L0.76032,5.59104 L1.4358,6.5268 Z M7.46052,13.57488 C4.56504,13.57488 2.14248,11.55648 1.5192,8.85 L0.03828,6.81144 C0.01884,7.03056 0.0072,7.25196 0.0072,7.47624 C0.0072,11.59272 3.34428,14.92956 7.46052,14.92956 C11.35476,14.92956 14.54916,11.94324 14.88348,8.136 L13.52328,8.136 C13.19424,11.19396 10.60608,13.57488 7.46052,13.57488 L7.46052,13.57488 Z" id="Fill-12"></path>
            <path d="M11.70408,5.59104 L10.97496,6.5376 L7.76388,6.5376 C7.62552,6.5376 7.55748,6.63504 7.55748,6.73272 C7.55748,6.83076 7.65516,6.92412 7.79328,6.92412 L8.72556,6.92412 C9.16728,6.92412 9.53688,7.03212 9.83424,7.248 C10.14096,7.47756 10.26492,7.68156 10.26492,8.046 C10.26492,8.4072 10.11012,8.69892 9.79956,8.92164 C9.5094,9.13428 9.14124,9.2406 8.69616,9.2406 L4.08732,9.2406 L4.8162,8.29908 L8.75496,8.29908 C9.02808,8.29392 9.11664,8.184 9.11664,8.09616 C9.11664,8.00508 9.04524,7.86552 8.72556,7.86552 L7.79328,7.86552 C7.38168,7.86552 7.00788,7.72872 6.76188,7.53948 C6.477,7.32036 6.28572,7.01844 6.28572,6.68436 C6.28572,6.34704 6.42756,6.07548 6.72468,5.87316 C7.00116,5.68416 7.35228,5.59104 7.76388,5.59104 L11.70408,5.59104" id="Fill-13"></path>
            <polyline id="Fill-14" points="14.8698 8.136 14.69952 9.2406 10.60932 9.2406 10.60932 5.59104 11.73816 5.59104 11.73816 8.136 14.8698 8.136"></polyline>
        </g>
    </g>
</svg>