<svg xmlns="http://www.w3.org/2000/svg" viewBox="0 0 200 200"><linearGradient id="a" x1="82.7" x2="82.7" y1="5" y2="195" gradientTransform="matrix(1 0 0 -1 0 200)" gradientUnits="userSpaceOnUse"><stop offset="0" stop-color="#966fe7"/><stop offset="1" stop-color="#00d18f"/></linearGradient><path fill="url(#a)" d="M140.4 153.4c-11.2 8.5-25.3 13.6-40.4 13.6-36.9 0-67-30.1-67-67s30.1-67 67-67c14.6 0 28.2 4.7 39.2 12.7l19.6-20.4C142.6 12.6 122.2 5 100 5 47.5 5 5 47.5 5 100s42.5 95 95 95c22.9 0 44-8.1 60.4-21.6l-20-20z"/><path fill="#657686" d="M140 88.1h-8.3S125.2 65.7 97 65.7H69.6v22.4H60v8h9.5v8H60v8h9.5v22.4h27.4s26.1.7 34.7-22.4h8.4v-8h-6.9s.4-2.2.4-4c0-1.8-.4-4-.4-4h6.9v-8zM77.7 73.2h19.9c16.6 0 23.5 9.9 25.9 14.8H77.7V73.2zm19.9 53.6H77.7V112h45.8c-7.7 15.3-25.9 14.8-25.9 14.8zM77.7 104v-8h48.1c.2 1.2.3 2.5.3 4s-.1 2.8-.3 4H77.7z"/></svg>