<svg xmlns="http://www.w3.org/2000/svg" version="1" viewBox="0 0 200 200"><path d="M88.48 24.85c-6.33 10.95-11.53 19.9-11.55 19.9s-9.94-2.69-22.04-5.97c-12.1-3.29-22.02-5.97-22.04-5.97-.02.01 2.29 8.67 5.9 22.05C42.01 66.98 44.69 76.94 44.7 77l.02.1-19.86 11.43C13.94 94.82 5 99.97 5 99.98c0 .01 8.93 5.19 19.84 11.5 10.91 6.32 19.84 11.5 19.84 11.52 0 .02-2.67 9.95-5.92 22.06-3.26 12.11-5.92 22.04-5.92 22.07 0 .03.02.04.07.03.16-.05 44.36-11.83 44.36-11.82 0 0 4.83 8.43 10.73 18.73 7.85 13.7 10.73 18.76 10.74 18.85.01.09.03.12.08.13.04.01.23.31.61.97.31.53.57.96.58.96.02 0 .28-.44.59-.97.48-.82.57-.97.63-.97.07 0 .08-.02.08-.13s1.41-2.57 10.83-18.95c5.96-10.35 10.84-18.83 10.86-18.84.01-.01 9.93 2.67 22.04 5.96s22.03 5.97 22.03 5.95c.01-.01-2.67-9.97-5.93-22.12-3.27-12.15-5.94-22.1-5.93-22.1 0-.01 8.95-5.13 19.88-11.39 10.93-6.26 19.89-11.4 19.91-11.42.03-.03-5.05-2.97-19.88-11.51-14.95-8.61-19.92-11.48-19.9-11.52.09-.29 11.99-44.17 11.98-44.18-.01-.01-42 11.27-44.02 11.83l-.27.07-11.41-19.8c-6.28-10.9-11.43-19.84-11.46-19.87-.04-.05-1.37 2.24-11.56 19.83zm24.25 6.91l11.34 19.69-3.93 6.82c-2.16 3.75-6.47 11.23-9.57 16.62-3.11 5.39-5.66 9.8-5.68 9.8s-.05.04-.06.1c-.02.07-3.45 6.09-3.52 6.17-.01.01-.01-17.78-.01-39.52 0-33.68.01-39.52.05-39.45.02.05 5.15 8.94 11.38 19.77zm-14 39.89l-.01 19.33-1.89-3.3c-1.71-2.99-1.89-3.29-1.96-3.28-.06.01-.08 0-.11-.09-.04-.11-9.67-36.27-9.69-36.36-.01-.03 3.06-7.75 6.82-17.16l6.83-17.11.01 19.32c.01 10.63.01 28.02 0 38.65zM88 34.22c-2.68 6.71-4.88 12.2-4.9 12.2-.05 0-3.65-.97-3.73-1.01-.05-.02 1.11-2.03 6.71-11.71 3.72-6.43 6.77-11.68 6.77-11.68.01 0-2.17 5.49-4.85 12.2zm-27.09 8.62l21.96 5.96 5.8 21.76c3.19 11.97 5.84 21.9 5.89 22.06.04.17.08.31.08.31s-12.65-12.64-28.1-28.1l-28.1-28.1.26.07c.14.05 10.13 2.76 22.21 6.04zm71.88 22.68c-15.18 15.18-27.61 27.6-27.61 27.59-.03-.03 1.19-4.97 1.67-6.77l.14-.53 9.63-16.72 9.63-16.72 17.04-7.22c9.37-3.97 17.05-7.23 17.07-7.23.02 0-12.38 12.42-27.57 27.6zm24.42-4.87c-3.31 12.2-6.03 22.19-6.03 22.19s-8.03 2.15-17.85 4.76c-14.85 3.96-17.85 4.75-17.88 4.71-.03-.04-.06-.03-.2.06-.13.08-.96.31-4.12 1.15-2.17.58-3.98 1.06-4.01 1.07-.04.01 12.57-12.62 28.01-28.06 15.44-15.44 28.08-28.08 28.09-28.07.01 0-2.7 9.99-6.01 22.19zM92.89 94.57c-.01.01-1.82-.48-4.03-1.07l-4.02-1.08-16.19-9.32c-8.89-5.12-16.2-9.33-16.23-9.36-.04-.04-14.37-33.8-14.46-34.07-.01-.03 12.34 12.31 27.46 27.42 15.11 15.1 27.47 27.47 27.47 27.48zm56.36-54.5c-.01.01-5.25 2.23-11.65 4.94-6.4 2.71-11.64 4.93-11.65 4.94-.03.02-1.81-3.11-1.79-3.13.02-.02 24.97-6.76 25.06-6.76.03 0 .04 0 .03.01zM45.07 62.48c2.69 6.35 4.89 11.56 4.89 11.57 0 .03-3.12 1.82-3.13 1.81-.01-.02-6.75-25.06-6.74-25.09 0-.04-.46-1.13 4.98 11.71zm26.58 25.06l20.16 11.61-20.17.01H31.3l-20.17-.01 20.15-11.61c11.08-6.38 20.16-11.61 20.18-11.61.01 0 9.1 5.22 20.19 11.61zm94.52-1.47c6.34 3.65 11.53 6.65 11.53 6.65-.01.01-24.11-9.6-24.14-9.62 0 0 .22-.84.49-1.85.33-1.22.52-1.84.54-1.83.03 0 5.24 2.99 11.58 6.65zm3.59 6.03l17.67 7.05-19.81.01h-39.61l-19.81-.01 3.9-2.25 3.9-2.25 17.98-4.8c9.89-2.64 18.01-4.8 18.04-4.8.04 0 8.02 3.17 17.74 7.05zm-71.81 2.26c.45.78.79 1.42.79 1.47s.02.09.05.09c.03.01.3.45.61.99s.58.98.6.98c.02 0 .29-.44.6-.98.41-.72.58-.98.63-.99.05-.01.07-.04.07-.11 0-.08.19-.43.69-1.3.38-.66.7-1.2.71-1.21.01-.01.01.02 0 .08-.21.86-1.15 5.11-1.13 5.12 0 0 1.27-.33 2.81-.74s2.8-.75 2.8-.74-1.15.67-2.56 1.48c-2.2 1.26-2.55 1.48-2.5 1.51.03.02 1.09.64 2.36 1.38l2.3 1.34s-.37-.09-.83-.21c-2.98-.78-4.56-1.18-4.57-1.15 0 .02.32 1.25.72 2.74.4 1.49.72 2.71.71 2.72-.01 0-.63-1.07-1.39-2.39-.75-1.32-1.39-2.39-1.4-2.39-.02.01-.69 1.15-1.5 2.55-.81 1.39-1.48 2.54-1.48 2.55-.02.02.01-.1.94-3.5.33-1.22.59-2.22.58-2.22-.01-.01-1.3.34-2.88.76-1.57.42-2.86.76-2.86.76-.01 0 1.15-.67 2.57-1.48 1.42-.81 2.58-1.48 2.58-1.49 0-.01-1.15-.68-2.56-1.49-1.41-.81-2.56-1.48-2.55-1.48 0-.01 1.29.33 2.85.75s2.84.75 2.85.74c.01-.02-.71-2.72-1.49-5.66-.05-.09.01.01.88 1.52zm-6.97 6.92c-.04.03-1.67.96-3.63 2.08l-3.56 2.04-18 4.84-18 4.84-17.09-6.92c-9.4-3.8-17.09-6.92-17.1-6.93-.01-.01 17.41-.01 38.71-.01 32.3.01 38.72.02 38.67.06zm97.09-.01c-1.27.73-39.64 22.71-39.69 22.73-.06.03-2.26-1.23-19.74-11.35-10.82-6.26-19.68-11.39-19.69-11.4-.01-.01 17.8-.02 39.58-.02 29.84.01 39.59.01 39.54.04zm-79.35 4.41c.93.25 2.46.65 3.4.9s1.74.46 1.77.47c.05.01.07-.01.08-.07.01-.05.03-.07.06-.06.04.02 33.33 19.28 33.35 19.3.02.02 14.54 33.97 14.54 33.98-.01 0-12.39-12.37-27.51-27.5-15.13-15.13-27.48-27.5-27.44-27.49.03.02.82.23 1.75.47zm-43.85 27.77c-15.44 15.44-28.08 28.07-28.09 28.07-.01-.01 11.87-44.2 11.89-44.23.01-.01 35.68-9.61 35.88-9.66.07-.02 1.99-.53 4.25-1.15 2.26-.61 4.13-1.12 4.14-1.12 0 .01-12.63 12.65-28.07 28.09zm68.5 1.58c20.21 20.21 28.05 28.07 27.98 28.05-.05-.02-10.05-2.73-22.21-6.03l-22.11-6-5.87-22.01c-3.23-12.1-5.88-22.03-5.89-22.05-.01-.02-.01-.04-.01-.04.02 0 12.67 12.63 28.11 28.08zm-38.8-27.85c-.02.06-.51 1.88-1.1 4.04l-1.07 3.93-9.33 16.11-9.33 16.11-17 7.3c-9.35 4.02-17.02 7.31-17.04 7.32-.02.01 12.32-12.35 27.42-27.45l27.46-27.46s.01.05-.01.1zm-60.11 5.05c6.48 2.62 11.8 4.78 11.81 4.79.02.02-.84 3.34-.92 3.54-.02.05-2.12-1.16-11.37-6.52-6.24-3.61-11.36-6.58-11.37-6.59-.04-.03-1.19-.49 11.85 4.78zm64.27 56.05l-.01 19.78-11.37-19.85c-6.26-10.92-11.38-19.87-11.38-19.9-.01-.07 18.45-31.95 18.51-31.97.03 0 .06-.07.08-.14.02-.07.96-1.73 2.1-3.69l2.06-3.57.01 19.78c.01 10.88.01 28.68 0 39.56zm4.42-56.09c1.54 2.68 1.79 3.09 1.85 3.08.06-.02.37 1.13 4.79 17.68l4.72 17.7-6.57 17.52c-3.61 9.64-6.58 17.55-6.59 17.59-.02.04-.03-17.22-.03-38.35 0-24.77.01-38.4.03-38.37 0 .03.82 1.45 1.8 3.15zm53.37 24.61c1.89 7.02 3.43 12.76 3.43 12.77-.01 0-2.29-5.32-5.07-11.83-2.79-6.51-5.06-11.84-5.05-11.84.03-.02 3.23-1.85 3.25-1.85 0 0 1.55 5.74 3.44 12.75zm-81.4 14.79l.93 1.63-13.01 3.47c-7.16 1.91-13.02 3.47-13.02 3.46-.01-.01 5.41-2.34 12.03-5.18l12.04-5.17.06.09c.01.03.45.8.97 1.7zm43.29 2.27c1.81.49 2.22.61 2.21.65-.02.06-14.39 25.02-14.43 25.06-.01.01 2.2-5.9 4.92-13.16 4.56-12.15 4.95-13.18 5.01-13.17.04.01 1.07.28 2.29.62z"/></svg>