<?xml version="1.0" encoding="utf-8"?>
<!-- Generator: Adobe Illustrator 22.1.0, SVG Export Plug-In . SVG Version: 6.00 Build 0)  -->
<svg version="1.0" id="Livello_1" xmlns="http://www.w3.org/2000/svg" xmlns:xlink="http://www.w3.org/1999/xlink" x="0px" y="0px"
	 viewBox="0 0 200 200" enable-background="new 0 0 200 200" xml:space="preserve">
<g>
	<path d="M99.9,195l-21.7-42.4l-45.4,14.4l14.6-45.3L5,99.9l42.4-21.7L32.9,32.7l45.3,14.6L100.1,5l21.8,42.4l45.4-14.4l-14.6,45.3
		l42.3,21.9l-42.4,21.7l14.4,45.4l-45.3-14.6L99.9,195z M80.9,145.8l18.9,36.9l19.1-36.8l39.5,12.7l-12.6-39.5l36.9-18.9l-36.8-19.1
		l12.7-39.5l-39.5,12.6l-18.9-36.9L81.1,54.1L41.6,41.4l12.6,39.5L17.3,99.9l36.8,19.1l-12.7,39.5L80.9,145.8z"/>
</g>
<path d="M100,112.7c-7,0-12.7-5.7-12.7-12.7c0-7,5.7-12.7,12.7-12.7c7,0,12.7,5.7,12.7,12.7C112.7,107,107,112.7,100,112.7z
	 M100,92.4c-4.2,0-7.6,3.4-7.6,7.6c0,4.2,3.4,7.6,7.6,7.6c4.2,0,7.6-3.4,7.6-7.6C107.6,95.8,104.2,92.4,100,92.4z"/>
<path d="M100,110.6c0.7,0,1.4-0.1,2.1-0.2v74.3h-4.2v-74.3c0,0,0,0,0,0C98.6,110.5,99.3,110.6,100,110.6z"/>
<path d="M102.1,15.4v74.3c-0.7-0.1-1.4-0.2-2.1-0.2c-0.7,0-1.4,0.1-2.1,0.2c0,0,0,0,0,0V15.4H102.1z"/>
<path d="M89.4,100c0,0.7,0.1,1.4,0.2,2.1H15.3v-4.2h74.3C89.5,98.6,89.4,99.3,89.4,100z"/>
<path d="M184.6,97.9v4.2h-74.3c0.1-0.7,0.2-1.4,0.2-2.1c0-0.7-0.1-1.4-0.2-2.1H184.6z"/>
<path d="M94,108.7c-1.1-0.7-1.9-1.6-2.7-2.7c0,0,0-0.1-0.1-0.2l-0.4,0.4l-52.1,52.1l3,3l52.6-52.6C94.1,108.8,94,108.7,94,108.7z
	 M158.3,38.6l-52.1,52.1v0l-0.4,0.4c0,0,0.1,0,0.2,0.1c1.1,0.7,2,1.7,2.7,2.7c0,0,0.1,0.1,0.1,0.1l52.5-52.5L158.3,38.6z"/>
<path d="M93.8,90.8L41.6,38.6l-3,3l52.1,52.1h0l0.4,0.4c0,0,0.1-0.1,0.1-0.2c0.8-1.1,1.7-1.9,2.7-2.7c0,0,0.1-0.1,0.2-0.1L93.8,90.8
	z M109.2,106.2l-0.3-0.3l-0.1,0.1c-0.7,1.1-1.7,2-2.7,2.7c-0.1,0.1-0.1,0.1-0.2,0.1l0.4,0.4l0,0.1l52.1,52.1l3-3L109.2,106.2z"/>
<path d="M90.8,93.8l0.5,0.2c0,0,0,0.1-0.1,0.2c-0.8,1.1-1.3,2.4-1.6,3.7L50.5,81.3l1.7-3.9L90.8,93.8L90.8,93.8z"/>
<path d="M149.5,118.7l-1.7,3.9l-38.7-16.4l-0.5-0.2l0.1-0.1c0.7-1.1,1.2-2.4,1.5-3.7h0L149.5,118.7z"/>
<path d="M50.5,118.7l39.1-16.6c0.3,1.4,0.8,2.6,1.6,3.7c0,0,0.1,0.1,0.1,0.2l-0.5,0.2l-38.6,16.4L50.5,118.7z"/>
<path d="M149.5,81.3l-39.1,16.6h0c-0.3-1.4-0.8-2.6-1.5-3.7c0,0-0.1-0.1-0.1-0.1l0.5-0.2l38.7-16.4L149.5,81.3z"/>
<path d="M97.9,89.5L81.3,50.5l-3.9,1.7l16.4,38.6l0.2,0.6c0,0,0.1-0.1,0.2-0.1C95.3,90.4,96.5,89.9,97.9,89.5
	C97.9,89.6,97.9,89.6,97.9,89.5L97.9,89.5z M106.3,109.3L106.3,109.3l-0.3-0.6c-0.1,0.1-0.1,0.1-0.2,0.1c-1.1,0.8-2.4,1.3-3.7,1.6v0
	l16.6,39.1l3.9-1.7L106.3,109.3z"/>
<path d="M97.9,110.4c-1.4-0.3-2.6-0.8-3.7-1.6c-0.1,0-0.2-0.1-0.2-0.1l-0.2,0.6l-16.4,38.6l3.9,1.7L97.9,110.4L97.9,110.4
	C97.9,110.4,97.9,110.4,97.9,110.4z M118.7,50.5l-16.6,39.1v0c1.4,0.3,2.6,0.8,3.7,1.6c0,0,0.1,0,0.2,0.1l0.3-0.6v0l16.4-38.6
	L118.7,50.5z"/>
</svg>
