<svg xmlns="http://www.w3.org/2000/svg" version="1" viewBox="0 0 200 200"><path fill="#D87A5F" d="M114.4 104.3c-2.3-10.7 4.5-21.3 15.2-23.7 1.1-.2 2.1-.4 3.2-.4 5.8-.3 11.5 2 15.5 6.2.6.6 1.4.9 2.3.9h8.4c.6 0 1.1-.5 1.1-1.1 0-.2-.1-.4-.1-.5-8-14.4-26-19.6-40.4-11.6-6.6 3.7-11.6 9.7-13.9 16.9l.7 1.3c2.2 4.3 4.9 8.3 8 12zm36.3 8.3c-.9 0-1.7.3-2.3 1-3.8 4-9 6.3-14.6 6.3-1.7 0-3.3-.2-4.9-.6-1.1-.1-12-1.9-24-22.9-10.2-18-20.6-24.1-28.2-25.3-16-3.8-32 6-35.8 22s6 32 22 35.8c13.6 3.3 27.7-3.4 33.8-16.1.8-1.6.6-3.6-.4-5.1-1.9-3-4.8-7.6-6.7-10.4.1.9.2 1.8.2 2.6 0 11-8.9 20-19.9 20s-20-8.9-20-19.9 8.9-20 19.9-20c1.4 0 2.8.1 4.2.4 2 .6 12.1 3.6 20.9 19 9.2 16.1 20.6 27.4 30.7 29.1 13.4 3.9 27.6-2.1 34.3-14.3.3-.5.1-1.2-.4-1.5-.2-.1-.4-.1-.5-.1h-8.3z"/><path fill="#D87A5F" d="M98 25V5C46.5 6.1 5 48.2 5 100s41.5 93.9 93 95v-20c-40.4-1.1-73-34.3-73-75s32.6-73.9 73-75z"/><path fill="#213843" d="M102 175v20c50.9-1.1 91.9-42.1 93-93h-20c-1.1 39.8-33.2 71.9-73 73z"/><path fill="#CCC" d="M175 98h20c-1-50.9-42.1-91.9-93-93v20c39.8 1.1 71.9 33.2 73 73z"/></svg>