<svg xmlns="http://www.w3.org/2000/svg" id="Livello_1" version="1" viewBox="0 0 200 200"><style>.st0{fill:#d7202b}</style><path d="M47 100c0 28.5 22.7 51.9 51 53v-40.8c-4.5 5.4-7.5 8.9-7.5 8.9-.4.4-1.4.2-2.2-.5-.8-.7-1.2-1.6-.9-2.1L98 106V47c-28.3 1.1-51 24.5-51 53zM102 47v54.1l33.8-40.3c-9-8.1-20.8-13.3-33.8-13.8z" class="st0"/><path d="M100 5C47.5 5 5 47.5 5 100s42.5 95 95 95 95-42.5 95-95-42.5-95-95-95zm2 152v18c0 1.1-.9 2-2 2s-2-.9-2-2v-18c-30.5-1.1-55-26.2-55-57s24.5-55.9 55-57V25c0-1.1.9-2 2-2s2 .9 2 2v18c15.4.5 29.3 7.2 39.3 17.7-.2.2-24.4 28.9-39.3 46.7V153c28.3-1.1 51-24.4 51-53h4c0 30.8-24.5 55.9-55 57z" class="st0"/></svg>