<?xml version="1.0" encoding="utf-8"?>
<!-- Generator: Adobe Illustrator 22.1.0, SVG Export Plug-In . SVG Version: 6.00 Build 0)  -->
<svg version="1.1" id="Livello_1" xmlns="http://www.w3.org/2000/svg" xmlns:xlink="http://www.w3.org/1999/xlink" x="0px" y="0px"
	 viewBox="0 0 200 200" style="enable-background:new 0 0 200 200;" xml:space="preserve">
<style type="text/css">
	.st0{fill:#DE2233;}
	.st1{fill:#FFFFFF;}
</style>
<title>dot-GO</title>
<ellipse id="_Ritaglio_" class="st0" cx="100" cy="100" rx="95" ry="93.7"/>
<path class="st1" d="M60,126.3c-1.7,1-4,0.4-5-1.3c-0.1-0.2-0.3-0.5-0.3-0.8l-1.7-4.7c-0.8-2.4,0.1-5,2.3-6.4l26-15
	c1.7-1.1,3.9-0.5,5,1.2c0.2,0.3,0.3,0.5,0.4,0.8l13,35.7c0.8,2.4-0.1,5-2.3,6.4l-23,13.4c-2.1,1.2-5.6,3.2-7.7,4.2
	c-3.1,1.6-6.3,2.9-9.7,3.9c-3.4,0.8-6.9,0.8-10.3,0c-4.7-1.1-8.9-3.7-12.1-7.3c-4-4.7-7.1-10.1-9-16c-4.6-10.6-5.6-22.4-2.8-33.6
	c3.7-10.1,11.1-18.4,20.7-23.2l26.9-15.5c1.7-1,3.9-0.5,4.9,1.1c0.2,0.3,0.3,0.6,0.4,0.9l1.7,4.4c1,2.5,0,5.4-2.4,6.7l-23,13.4
	c-2.5,1.5-5,3.2-7.3,5.1c-3.2,2.6-5.5,6.1-6.7,10.1c-0.9,7.2,0.2,14.6,3.1,21.3c1.6,6.2,5.2,11.6,10.3,15.5c4.8,2,10.3,1.2,14.3-2.1
	l12.2-7.1c2.2-1.3,3.1-3.9,2.3-6.3l-3.3-9.2c-0.6-1.9-2.7-3-4.7-2.3c-0.2,0.1-0.5,0.2-0.7,0.3L60,126.3z"/>
<path class="st1" d="M99.7,94.8c-4.7-10.6-5.4-22.5-2.1-33.6c4.3-10.3,12.1-18.7,22.1-23.7c11.2-6.6,20.8-8.3,28.9-5.2
	c8.1,3.1,14.1,11.6,18.9,24.5c4.8,10.7,5.7,22.8,2.6,34.1c-4.1,10.5-11.9,19.1-22,24.2c-11.6,6.6-21.3,8.4-29.1,5.2
	c-7.7-3.2-14.1-11.6-19.1-25.3 M124.2,50.6c-5.6,2.9-9.7,8.1-11.4,14.2c-1.3,7.2-0.5,14.7,2.4,21.5c1.8,7,5.9,13.3,11.8,17.6
	c5.2,2.6,11.4,2,16.1-1.5c5.7-2.9,9.8-8.1,11.4-14.3c1.3-7.5,0.4-15.2-2.6-22.1c-1.8-6.8-5.9-12.8-11.6-17
	C135,46.5,128.9,47.1,124.2,50.6"/>
</svg>
