<?xml version="1.0" encoding="utf-8"?>
<!-- Generator: Adobe Illustrator 22.1.0, SVG Export Plug-In . SVG Version: 6.00 Build 0)  -->
<svg version="1.0" id="Livello_1" xmlns="http://www.w3.org/2000/svg" xmlns:xlink="http://www.w3.org/1999/xlink" x="0px" y="0px"
	 viewBox="0 0 200 200" enable-background="new 0 0 200 200" xml:space="preserve">
<path fill="#303842" d="M182.3,130.7V52.5L100,5L17.7,52.5v95L100,195l68.4-39.5l-19-11L100,173.1l-63.3-36.5V63.5L100,26.9
	l63.3,36.5v56.3L182.3,130.7z"/>
<polygon fill="#FAB633" points="90.3,32.8 36,63.3 36,126 90.3,94.3 "/>
<polygon fill="#85C226" stroke="#85C226" points="45.5,141.3 100,173 130,155.3 76,123.8 "/>
<polygon fill="none" points="95,113.3 150,145 164.5,136.8 164.5,120.3 141.3,106.8 146.3,87.5 164.5,98.3 164.5,63.3 108.8,32.8 
	108.5,105.8 "/>
<polygon fill="#303642" points="164.5,98.3 164.5,120.3 141.3,106.8 146.3,87.5 "/>
<polygon fill="#303642" points="90.3,25.5 100,25.8 108.8,23.7 108.5,105.8 95,113.3 161.6,151.7 142.9,162.7 76,123.8 43.8,142.2 
	36,136.8 36,126 90.3,94.3 "/>
</svg>
