<svg xmlns="http://www.w3.org/2000/svg" viewBox="0 0 200 200"><linearGradient id="a" x1=".2526" x2=".0364" y1="199.987" y2="199.7321" gradientTransform="matrix(560.0001 0 0 -560.001 20.0009 112020.1953)" gradientUnits="userSpaceOnUse"><stop offset="0" stop-color="#b6509e"/><stop offset="1" stop-color="#2ebac6"/></linearGradient><path fill="url(#a)" d="M100 195c-67.4.4-114-70.1-87.4-132.1 33-77.2 141.8-77.2 174.9 0 26.5 62-20.1 132.5-87.5 132.1zm0-180C39.8 14.6-1.8 77.5 21.9 133c29.5 68.9 126.6 68.9 156.1 0 23.7-55.5-17.8-118.4-78-118z"/><ellipse cx="100" cy="99.8" fill="#1e1a31" rx="72.9" ry="72.2"/><path d="M113.2 120.8h11.5c1.6 0 2.8-.3 3.6-.9s1.2-1.6 1.2-2.9c0-1.3-.4-2.3-1.2-2.9s-2-.9-3.6-.9h-11.5V109h11.2c2.8 0 5 .7 6.5 2.1 1.5 1.4 2.2 3.4 2.2 6s-.7 4.6-2.2 6c-1.5 1.4-3.6 2-6.5 2h-11.2v-4.3zm13.4-18.4c.9 0 1.8-.5 2.4-1.2.6-.8.9-1.8.9-2.9 0-.9-.2-1.7-.6-2.4-.4-.6-1.1-1-1.8-.9-.5 0-.9.2-1.3.5-.4.4-.6.9-.7 1.5-.2.6-.4 1.6-.7 2.9-.2 1.1-.5 2.2-.9 3.2-.4.9-1 1.6-1.7 2.1-.9.6-2 .9-3 .8-1.1 0-2.2-.3-3.1-.9-.9-.7-1.7-1.6-2.1-2.6-.5-1.2-.8-2.5-.8-3.8 0-1.3.3-2.7.8-3.9.5-1.1 1.3-2 2.2-2.7.9-.7 2-1 3.2-1v4.1c-.8.1-1.5.4-2 1.1-.5.7-.8 1.6-.8 2.4 0 .8.2 1.6.6 2.2.4.6 1 .9 1.7.8.5 0 .9-.2 1.2-.5.3-.4.6-.9.7-1.4.2-.6.4-1.6.6-2.8.2-1.1.5-2.2.9-3.3.3-.9.9-1.6 1.7-2.2.7-.5 1.7-.8 3-.8 1.2 0 2.3.3 3.2 1 1 .7 1.8 1.6 2.2 2.7.6 1.2.8 2.6.8 3.9 0 1.4-.3 2.9-.9 4.2-.5 1.2-1.3 2.1-2.4 2.9-1 .7-2.2 1.1-3.4 1.1l.1-4.1zm-13.4-14.1v-6.8c0-1.8.4-3.6 1.3-5.2.8-1.5 2-2.7 3.5-3.5 1.6-.8 3.3-1.2 5.1-1.2 1.8 0 3.5.4 5.1 1.2 1.5.8 2.7 2 3.5 3.5.9 1.6 1.3 3.4 1.3 5.2v6.8h-19.8zm16.3-6.7c0-1.8-.6-3.1-1.7-4.1-1.2-1-2.7-1.5-4.6-1.5-1.9 0-3.5.5-4.6 1.5-1.2 1-1.7 2.3-1.7 4.1v2.6h12.7v-2.6z"/><path fill="#fff" d="M113.2 120.8h11.5c1.6 0 2.8-.3 3.6-.9s1.2-1.6 1.2-2.9c0-1.3-.4-2.3-1.2-2.9s-2-.9-3.6-.9h-11.5V109h11.2c2.8 0 5 .7 6.5 2.1 1.5 1.4 2.2 3.4 2.2 6s-.7 4.6-2.2 6c-1.5 1.4-3.6 2-6.5 2h-11.2v-4.3zm13.4-18.4c.9 0 1.8-.5 2.4-1.2.6-.8.9-1.8.9-2.9 0-.9-.2-1.7-.6-2.4-.4-.6-1.1-1-1.8-.9-.5 0-.9.2-1.3.5-.4.4-.6.9-.7 1.5-.2.6-.4 1.6-.7 2.9-.2 1.1-.5 2.2-.9 3.2-.4.9-1 1.6-1.7 2.1-.9.6-2 .9-3 .8-1.1 0-2.2-.3-3.1-.9-.9-.7-1.7-1.6-2.1-2.6-.5-1.2-.8-2.5-.8-3.8 0-1.3.3-2.7.8-3.9.5-1.1 1.3-2 2.2-2.7.9-.7 2-1 3.2-1v4.1c-.8.1-1.5.4-2 1.1-.5.7-.8 1.6-.8 2.4 0 .8.2 1.6.6 2.2.4.6 1 .9 1.7.8.5 0 .9-.2 1.2-.5.3-.4.6-.9.7-1.4.2-.6.4-1.6.6-2.8.2-1.1.5-2.2.9-3.3.3-.9.9-1.6 1.7-2.2.7-.5 1.7-.8 3-.8 1.2 0 2.3.3 3.2 1 1 .7 1.8 1.6 2.2 2.7.6 1.2.8 2.6.8 3.9 0 1.4-.3 2.9-.9 4.2-.5 1.2-1.3 2.1-2.4 2.9-1 .7-2.2 1.1-3.4 1.1l.1-4.1zm-13.4-14.1v-6.8c0-1.8.4-3.6 1.3-5.2.8-1.5 2-2.7 3.5-3.5 1.6-.8 3.3-1.2 5.1-1.2 1.8 0 3.5.4 5.1 1.2 1.5.8 2.7 2 3.5 3.5.9 1.6 1.3 3.4 1.3 5.2v6.8h-19.8zm16.3-6.7c0-1.8-.6-3.1-1.7-4.1-1.2-1-2.7-1.5-4.6-1.5-1.9 0-3.5.5-4.6 1.5-1.2 1-1.7 2.3-1.7 4.1v2.6h12.7v-2.6z"/><path fill="#8f8d98" fill-rule="evenodd" d="M70.6 126.3l-5.7-4.2L101 70.8l5.7 4.2-36.1 51.3z" clip-rule="evenodd"/><path fill="#fff" fill-rule="evenodd" d="M80.4 76.7H104c2 0 3.5-1.6 3.5-3.6s-1.6-3.6-3.5-3.6H80.4c-8.9 0-16.1 7.3-16.1 16.4 0 9 7.2 16.4 16.1 16.4h11c4.9.1 8.9 4.1 9 9 .1 5.1-4 9.2-9 9.3H67.8c-2 0-3.5 1.6-3.5 3.6s1.6 3.6 3.5 3.6h23.7c8.9 0 16.1-7.3 16.1-16.4S100.3 95 91.5 95H80.4c-4.9-.1-8.9-4.1-9-9-.1-5.1 3.9-9.2 9-9.3z" clip-rule="evenodd"/></svg>