<svg xmlns="http://www.w3.org/2000/svg" id="Livello_1" viewBox="0 0 200 200"><style>.st0{fill:#f7941e}.st1{fill:#c26027}</style><path d="M192.8 86.9l-53.5 53.4v-35.7l-40.3 42-38.2-39.7v35.6L8.6 88.9c-5.5-5.5-5-14 .1-19L29 49.6l26.8-25.9c1.9-1.8 5-.5 5 2.1v35.7h78.6V26.8c0-2.3 2.5-3.6 4.4-2.6l49.1 49.1c2.7 2.8 2.9 10.6-.1 13.6z" class="st0"/><path d="M60.7 61.4v45.4L17.1 61.4zM180.9 61.4l-41.5 43.2V61.4z" class="st1"/><path fill="#f4ce73" d="M139.4 104.6v35.7l-34.9 34.9c-1.6 1.3-3.5 2-5.5 2-2.3 0-4.5-.8-6.1-2.6l-32.1-32.1v-35.6L99 146.6l40.4-42z"/></svg>