<?xml version="1.0" encoding="utf-8"?>
<!-- Generator: Adobe Illustrator 22.1.0, SVG Export Plug-In . SVG Version: 6.00 Build 0)  -->
<svg version="1.0" id="Livello_1" xmlns="http://www.w3.org/2000/svg" xmlns:xlink="http://www.w3.org/1999/xlink" x="0px" y="0px"
	 viewBox="0 0 200 200" enable-background="new 0 0 200 200" xml:space="preserve">
<g>
	<path fill="#FC2940" d="M29.8,124.9c-4.6,0-8.9-1.2-12.6-3.4c-3.7-2.2-6.7-5.2-8.9-8.9C6.2,108.7,5,104.4,5,100
		c0-4.5,1.2-8.8,3.4-12.6c2.2-3.7,5.2-6.8,8.9-8.9c3.7-2.2,8-3.4,12.6-3.4c4.5,0,8.8,1.2,12.6,3.4c3.7,2.2,6.8,5.3,9,8.9
		c2.2,3.8,3.4,8.2,3.4,12.6c0,4.4-1.2,8.7-3.4,12.6c-2.2,3.7-5.3,6.8-9,8.9C38.7,123.7,34.3,124.9,29.8,124.9L29.8,124.9z
		 M29.8,115.7c4.3,0,8.2-1.7,11-4.6c2.8-2.9,4.4-6.8,4.4-11.2s-1.6-8.3-4.4-11.2c-2.8-2.9-6.7-4.6-11-4.6c-4.3,0-8.2,1.7-10.9,4.6
		c-2.8,2.9-4.4,6.8-4.4,11.2s1.6,8.3,4.4,11.2C21.6,114.1,25.5,115.7,29.8,115.7z M70.2,124.2h-6.7c-0.9,0-1.3-0.5-1.2-1.3L67.2,77
		c0.1-0.8,0.6-1.3,1.4-1.3h8.5c0.7,0,0.8,0.3,1.2,1.2l11.7,32.3L101.4,77c0.3-0.9,0.6-1.2,1.2-1.2h8.7c0.8,0,1.3,0.4,1.3,1.3
		l4.9,45.8c0.1,0.9-0.4,1.3-1.3,1.3h-6.6c-0.9,0-1.2-0.4-1.3-1.3L105,92.1L93.9,122c-0.4,1-0.7,1.2-1.3,1.2h-5.5
		c-0.7,0-1-0.2-1.3-1.2L74.9,92.1l-3.4,30.8C71.4,123.8,71.1,124.2,70.2,124.2z"/>
	<path d="M133.7,124.2h-6.9c-0.8,0-1.3-0.5-1.3-1.3V77.1c0-0.9,0.5-1.3,1.3-1.3h19c4.3,0,8.1,1.8,10.8,4.8c2.7,2.9,4.2,6.8,4.2,10.8
		c0,4-1.6,7.8-4.3,10.7c-2.8,3-6.8,4.7-10.9,4.7H135v16.1C135,123.8,134.6,124.2,133.7,124.2L133.7,124.2z M135,98.6h8.8
		c2.1,0,3.9-0.7,5.3-2.1c1.3-1.3,2-3,2-5.1c0-2-0.7-3.8-2-5.2c-1.4-1.4-3.2-2.1-5.3-2.1H135L135,98.6L135,98.6z M171.5,124.2h-7.7
		c-0.6,0-0.9-0.2-0.9-0.6c0-0.2,0.1-0.5,0.3-0.9l0.2-0.4c0.1-0.2,0.2-0.4,0.4-0.6l0.4-0.6c1.8-2.6,3.4-4.9,4.7-6.8l4.7-6.8L164.3,94
		c-0.4-0.5-0.5-0.8-0.5-1.1c0-0.4,0.4-0.7,1.2-0.7h5.9c1,0,1.6,0.1,2.1,0.4c0.6,0.3,1.1,0.9,1.6,1.8l4.4,7.3l4.6-7.3l0.3-0.6
		c0.3-0.5,0.7-1,1.2-1.3c0.4-0.2,0.7-0.3,1.1-0.2h6.9c0.8,0,1.2,0.2,1.2,0.7c0,0.2-0.1,0.5-0.4,0.9l-0.9,1.3l-1.5,2.1
		c-2.1,2.9-3.6,5-4.5,6.3c-0.9,1.3-1.8,2.6-2.7,3.9l10.2,14.8c0.2,0.4,0.4,0.8,0.6,1.3c0,0.4-0.3,0.6-1,0.6h-7.6
		c-0.5,0-1-0.2-1.4-0.6c-0.2-0.2-0.4-0.4-0.5-0.7c-0.2-0.3-0.4-0.6-0.6-0.8l-2.5-4l-0.9-1.5l-1.5-2.4l-5.5,8.7
		C172.9,123.8,172.3,124.2,171.5,124.2L171.5,124.2z"/>
</g>
</svg>
