<svg xmlns="http://www.w3.org/2000/svg" id="Livello_1" x="0" y="0" version="1.1" viewBox="0 0 200 200" xml:space="preserve"><style>.st0{fill:#6784ff}</style><path d="M168.6 173.9H31.4C16.8 173.9 5 162 5 147.5v-95C5 38 16.8 26.1 31.4 26.1h137.2c14.5 0 26.4 11.8 26.4 26.4v95c0 14.5-11.8 26.4-26.4 26.4zM31.4 36.7c-8.7 0-15.8 7.1-15.8 15.8v95c0 8.7 7.1 15.8 15.8 15.8h137.2c8.7 0 15.8-7.1 15.8-15.8v-95c0-8.7-7.1-15.8-15.8-15.8H31.4z" class="st0"/><path d="M100 142.5c-23.4 0-42.5-19.1-42.5-42.5S76.6 57.5 100 57.5s42.5 19.1 42.5 42.5-19.1 42.5-42.5 42.5zm0-74.4c-17.6 0-31.9 14.3-31.9 31.9s14.3 31.9 31.9 31.9 31.9-14.3 31.9-31.9-14.3-31.9-31.9-31.9z" class="st0"/><path d="M115.1 108.5H93.5V86.9c0-3 2.4-5.4 5.4-5.4 3 0 5.4 2.4 5.4 5.4v10.8h10.8c3 0 5.4 2.4 5.4 5.4 0 3-2.4 5.4-5.4 5.4z" class="st0"/></svg>