<?xml version="1.0" encoding="UTF-8" standalone="no"?><!DOCTYPE svg PUBLIC "-//W3C//DTD SVG 1.1//EN" "http://www.w3.org/Graphics/SVG/1.1/DTD/svg11.dtd"><svg width="100%" height="100%" viewBox="0 0 15 15" version="1.1" xmlns="http://www.w3.org/2000/svg" xmlns:xlink="http://www.w3.org/1999/xlink" xml:space="preserve" style="fill-rule:evenodd;clip-rule:evenodd;stroke-linecap:round;stroke-linejoin:round;stroke-miterlimit:1.41421;"><g><path d="M13.691,3.45c0,-0.286 -0.232,-0.518 -0.518,-0.518l-11.989,0c-0.285,0 -0.517,0.232 -0.517,0.518l0,7.549c0,0.286 0.232,0.518 0.517,0.518l11.989,0c0.286,0 0.518,-0.232 0.518,-0.518l0,-7.549Z" style="fill:#0c0a22;"/><path d="M13.416,12.127l-12.432,0c-0.543,0 -0.984,-0.441 -0.984,-0.984l0,-7.886c0,-0.543 0.441,-0.984 0.984,-0.984l12.432,0c0.543,0 0.984,0.441 0.984,0.984l0,7.886c0,0.543 -0.441,0.984 -0.984,0.984ZM0.667,10.171l0,0.828c0,0.286 0.232,0.518 0.517,0.518l0.804,0c-0.136,-0.668 -0.656,-1.198 -1.321,-1.346ZM13.691,10.174c-0.659,0.151 -1.174,0.678 -1.309,1.343l0.791,0c0.286,0 0.518,-0.232 0.518,-0.518l0,-0.825ZM1.988,2.932l-0.804,0c-0.285,0 -0.517,0.232 -0.517,0.518l0,0.832c0.666,-0.149 1.187,-0.68 1.321,-1.35ZM13.173,2.932l-0.792,0c0.133,0.666 0.648,1.195 1.31,1.347l0,-0.829c0,-0.286 -0.232,-0.518 -0.518,-0.518ZM13.691,4.96c-1.03,-0.166 -1.842,-0.99 -1.987,-2.028l-9.039,0c-0.146,1.042 -0.963,1.869 -1.998,2.03l0,4.529c1.034,0.162 1.85,0.987 1.998,2.026l9.04,0c0.147,-1.036 0.957,-1.859 1.986,-2.024l0,-4.533Z" style="fill:#4a8fba;"/><path d="M7.2,3.975c1.799,0 3.259,1.46 3.259,3.259c0,1.799 -1.46,3.259 -3.259,3.259c-1.799,0 -3.259,-1.46 -3.259,-3.259c0,-1.799 1.46,-3.259 3.259,-3.259ZM7.2,4.548c1.482,0 2.686,1.204 2.686,2.686c0,1.482 -1.204,2.686 -2.686,2.686c-1.482,0 -2.686,-1.204 -2.686,-2.686c0,-1.482 1.204,-2.686 2.686,-2.686Z" style="fill:#d9a465;stroke-width:0.07px;stroke:#000;"/><path d="M7.19,5.602c0.121,0 0.219,0.098 0.219,0.219l0,1.252l1.135,0c0.127,0 0.23,0.104 0.23,0.231l0,0.206c0,0.127 -0.103,0.231 -0.23,0.231l-1.539,0l-0.011,0c-0.121,0 -0.219,-0.099 -0.219,-0.22l0,-1.7c0,-0.121 0.098,-0.219 0.219,-0.219l0.196,0Z" style="fill:#d9a465;stroke-width:0.07px;stroke:#000;"/></g></svg>