<svg xmlns="http://www.w3.org/2000/svg" id="Layer_1" viewBox="0 0 200 200"><style>.st3{fill:#a8905a}.st4{fill:#bc7744}.st5{fill:#3c5598}</style><path fill="#d1b977" d="M100.2 195c52.6-.2 95.1-42.7 94.8-95.2-.2-52.4-42.6-95-95.2-94.8-52.5.2-95 42.7-94.8 95.2 0 38.1 22.8 72.4 58 87.4 11.7 4.9 24.4 7.4 37.2 7.4"/><path fill="#bca568" d="M99.9 169c-38.6 0-69.8-31.3-69.8-69.8s31.2-69.9 69.8-69.9 69.8 31.3 69.8 69.8S138.5 169 99.9 169zm0-3.3c36.5-.2 66.2-29.9 65.9-66.7 0-36.5-29.9-66.2-66.5-65.9-36.5.2-66.1 29.9-66.1 66.4.2 26.5 16.1 50.5 40.6 60.8 8.4 3.7 17.3 5.4 26.1 5.4"/><path fill="#bf9a51" d="M99.9 166.8c-37.4 0-67.6-30.3-67.6-67.6s30.3-67.7 67.6-67.7 67.6 30.3 67.6 67.6-30.2 67.7-67.6 67.7zm0-3.3c35.4-.2 64-28.9 63.8-64.4-.2-35.4-29.1-64-64.4-63.8-35.4.1-64 29.1-63.8 64.4.2 25.6 15.6 48.8 39.3 58.8 7.9 3.5 16.4 5.2 25.1 5"/><path d="M99.9 169c-38.6 0-69.8-31.3-69.8-69.8s31.2-69.9 69.8-69.9 69.8 31.3 69.8 69.8S138.5 169 99.9 169zm0-3.3c36.5-.2 66.2-29.9 65.9-66.7 0-36.5-29.9-66.2-66.5-65.9-36.5.2-66.1 29.9-66.1 66.4.2 26.5 16.1 50.5 40.6 60.8 8.4 3.7 17.3 5.4 26.1 5.4" class="st3"/><path d="M81.1 67c-8.2 4.7-14.2 12.6-16.9 21.8.2.2.2.2.5.2h1c.2 0 .3-.2.3-.3 2.5-8 7.6-14.8 14.7-19.3-.2-.7-.2-1.8.4-2.4zm36.2-.5c0-.2 0-.2 0 0-10.4-5.8-22.9-6-33.7-.6.3.6.8 1.2 1.6 1.4 4.6-2 9.5-3.2 14.7-3.2 5.4 0 10.7 1.2 15.5 3.6.5-.4 1.4-.7 1.9-1.2zm18.3 22.3c-2.5-8.7-8.2-16.3-16-21 .3.6.5 1.7 0 2.4 6.8 4.6 11.7 11.4 13.9 19.1.2.3.3.5.6.5l.8-.2c.5-.3.7-.5.7-.8zm-17.5 40.6c-5.4 3.3-11.9 5.1-18.2 5.1-4.7 0-9.5-1-13.8-2.7-1.4-.5-2.9-1.4-4.1-2-.5.2-1 .6-1.4 1.2 5.8 3.6 12.5 5.4 19.3 5.4 7 0 13.9-2 19.9-5.8-.5-.6-1.1-.9-1.7-1.2z" class="st4"/><path d="M144 86.9c.3 0 .6-.3.6-.6V86c-7.1-24.6-32.8-38.7-57.5-31.6C71.8 58.8 59.9 70.8 55.5 86c.2.2.3.2.5.2s1 0 1.4.2c.3.2.3-.2.5-.5 7.3-23.2 31.9-36.2 55.3-28.9 13.9 4.4 24.8 15.5 29.1 29.4.2.3.5.5.8.5.1.2.5.2.9 0zm-13.3 46.4c-.6-.3-1.4-.5-2-.6-8 7-18.2 10.7-28.7 10.7-6 0-11.7-1.2-17.2-3.3-4.3-1.7-8-4.1-11.5-7.1-.6.3-1 1.2-1 1.9 8.4 7 18.8 10.9 29.7 10.9 11.4 0 22.6-4.3 31.1-11.9l-.4-.6z" class="st4"/><path d="M183.6 117.4c0-3.2-.9-9 1.3-11.6 1.1-1.3 2.7-1.8 3.8-3.1.9-1.3 1.5-2.8 1.8-4.5.8-4.6-1.1-15.2-7.2-15.6-3.2-.2-5 3.7-6.1 6.1-1.3 3.1-2 6.8-1.3 10.1.9 3.9 5.4 5.1 6.5 8.5.5 1.7.1 3.7 0 5.3 0 .7-.3 6.6 1.2 4.8z" class="st3"/><path d="M143.6 112.2c-.2-.8-.3-1.6-.5-2.4-.6-3.1-1.2-6-3-8.7-2-3.2-4.7-5.8-7.1-8l-.9-.8 1.1.4c4.4 1.5 8.2 4.8 10.1 8.9 1.7 3.5 1.9 7.2.6 10.7l-.3.8v-.9zm-58.3 0c-.2-.8-.3-1.6-.5-2.4-.6-3.1-1.2-6-3-8.7-1.5-2.4-3.5-4.5-5.5-6.4l-1.6-1.6-.7-.9 1 .3c4.4 1.5 8.2 4.8 10.1 8.9 1.7 3.5 1.9 7.2.6 10.7l-.3.8-.1-.7z" class="st5"/><path fill="#486ab7" d="M133.2 92.8c7.7 2.6 13.6 11.1 10.6 19.3-.9-3.9-1.3-7.7-3.5-11.2-1.9-3.1-4.4-5.6-7.1-8.1m-58.3 0c7.7 2.6 13.6 11.1 10.6 19.3-.9-3.9-1.3-7.7-3.5-11.2-1.9-3.1-4.6-5.5-7.1-8.1m56.2-1.2l1.7 1.6c2.4 2.2 5.1 4.8 7 8 1.7 2.7 2.3 5.6 2.9 8.7.2.8.3 1.6.5 2.4l.4 1.6.6-1.6c1.3-3.5 1.1-7.3-.6-10.9-2-4.2-5.8-7.6-10.3-9l-2.2-.8zm-58 .1l1.4 1.5 1.6 1.6c1.9 2 4 4 5.4 6.4 1.7 2.7 2.3 5.6 2.9 8.7.2.8.3 1.6.5 2.4l.4 1.6.6-1.6c1.3-3.5 1.1-7.3-.6-10.9-2-4.2-5.8-7.6-10.3-9l-1.9-.7z"/><path d="M22.9 85.7c-.1-.5-.4 1.6-.4 1.9 0 1.5-.1 2.9-.1 4.4 0 2.2-.1 4.5-.2 6.7 0 .7-.1 5.5-1.1 3.4-.7-1.3.3-16.4-.7-16.4.1 0-1.1 16.2-1.2 17-1.3 0-.1-16.9-1.1-17-.3 0-1.1 15.6-1.2 17.2-.5.2-.9-8.2-.9-8.8 0-.6-.2-8.4-.5-8.3-1 .2-1.2 11.7-1.3 13.1-.4 4.2-.7 6.5 2.5 9.6 1.7 1.6 1.2 3.8 1.2 6.1 0 1.5-.6 5 0 6.4.7 1.4 1.8.6 2.2-.4.3-.9 0-2.2 0-3.1 0-2.2-.4-4.8 0-7 .3-1.5 1.5-2.2 2.5-3.3 1.5-1.5 1.9-2.8 1.8-4.9-.2-5.5-.9-11-1.5-16.6z" class="st3"/><path d="M153.1 105.4c0-4.4-2.4-9-5.1-12.2-2.7-3.3-6.7-5.1-9.1-8.7-4.3-6.3-8.3-16.2-17-17-4.2-.3-8.6 1.3-11.3 4.6-1 1.3-1 3-2 4.2-1 1.4-1.6.1-2.8-.6-2.9-1.7-8-1.5-10.8.4-1.4.8-1 1.5-2 .3-1.2-1.6-1.3-3.7-2.7-5.2-2.7-3-6.9-4.3-10.9-4.2-4.2.2-7 2.3-9.4 5.7-2.6 3.7-5 7.4-7.6 11.1-2.5 3.5-6.2 5.4-9 8.6-11.8 13.1-4.2 34.8 12.9 38.2 9.2 1.9 18.8-2.3 24-10 1.3-1.9 2.2-3.9 2.8-6.1.3-.9.7-5.9 1.5-6.3.5-.3 2 .6 2.3.7 1 .3 2.2.5 3.3.5 2.1.1 4.6-.1 6.4-1.5.2 12.6 10.8 23.3 23.4 23.2 14 0 24.2-12.2 23.1-25.7zm-82.4 20.9c-1.5 0-1.4-.5-1.5-2 0-1.2-.1-2.3 0-3.3.2-3.7 2.2-4 4.1-6.6 2.9-4.1 1.9-13.9-3.6-15.7s-7.7 8.8-7.1 12.5c.5 3.1 2.6 3.8 4.5 5.9 2 2.2.6 6.3.6 8.9-3.5 0-7.9-3.1-10.2-5.4-2.1-2.2-3.3-4.7-4.5-7.4-2.9-6.7 1.2-15.5 6.6-19.6 13-9.9 32.5 2.1 28.9 18.2-1.7 8.2-9.3 14.4-17.8 14.5zm32.1-21.2c-1.3 2.5-5.3 1.4-5.2-1.4.1-4 6.7-3.1 5.2 1.4zm29.8 21.4c0-2.9-.9-7 1.5-9.1 1.5-1.3 2.4-1.8 2.5-4 0-1.5-.2-2.9-.3-4.4-.1-1-.5-9.9-1-9.9-.7 0-.1 14.2-1 13.7-.4-.1-.4-3.3-1.1-13.4-.7.1-.5 10.8-.6 11.9-.2 3.1-.9.9-.9-1 0-1.7 0-3.3-.1-5.1-.1-1.8-.2-4.5-.5-6.1-.5 0-.7 8.4-.8 9.7-.1 1 .2 3.1-.4 4.1-.2.3-.5-2.6-.5-2.8v-5c0-.6-.4-5.4-.5-6-.9.9-.6 3.5-.7 4.7-.2 2.9-.7 5.9-.7 8.9 0 1.3.2 2.4.9 3.5.6.8 1.8 1.3 2.4 2.1.6 1 .3 2.5.3 3.7 0 .9.1 2.8 0 4 0 2.3-9.8-2-11.4-3.2-3.9-2.9-6.4-7.3-7-12-1.2-9.2 5.1-18.4 14.3-20.2 9.3-1.8 18.8 4.2 21.3 13.4 2.3 10.3-5.2 21.1-15.7 22.5z" class="st5"/></svg>