<?xml version="1.0" encoding="utf-8"?>
<!-- Generator: Adobe Illustrator 22.1.0, SVG Export Plug-In . SVG Version: 6.00 Build 0)  -->
<svg version="1.1" id="Capa_1" xmlns="http://www.w3.org/2000/svg" xmlns:xlink="http://www.w3.org/1999/xlink" x="0px" y="0px"
	 viewBox="0 0 200 200" style="enable-background:new 0 0 200 200;" xml:space="preserve">
<style type="text/css">
	.st0{fill:url(#SVGID_1_);}
	.st1{fill:url(#SVGID_2_);}
	.st2{fill:url(#SVGID_3_);}
	.st3{fill:url(#SVGID_4_);}
	.st4{fill:url(#SVGID_5_);}
	.st5{opacity:0.63;fill:url(#SVGID_6_);enable-background:new    ;}
	.st6{fill:url(#SVGID_7_);}
	.st7{opacity:0.63;fill:url(#SVGID_8_);enable-background:new    ;}
	.st8{fill:url(#SVGID_9_);}
	.st9{opacity:0.28;fill:url(#SVGID_10_);enable-background:new    ;}
	.st10{fill:url(#SVGID_11_);}
	.st11{opacity:0.28;fill:url(#SVGID_12_);enable-background:new    ;}
	.st12{fill:url(#SVGID_13_);}
	.st13{fill:url(#SVGID_14_);}
</style>
<linearGradient id="SVGID_1_" gradientUnits="userSpaceOnUse" x1="5" y1="58.7" x2="100.2" y2="58.7" gradientTransform="matrix(1 0 0 1 0 0.1)">
	<stop  offset="0" style="stop-color:#6B2C84"/>
	<stop  offset="1" style="stop-color:#C1355D"/>
</linearGradient>
<polygon class="st0" points="52.6,17.6 76.4,58.8 100.2,100 52.6,100 5,100 28.8,58.8 "/>
<linearGradient id="SVGID_2_" gradientUnits="userSpaceOnUse" x1="99.8" y1="58.7" x2="195" y2="58.7" gradientTransform="matrix(1 0 0 1 0 0.1)">
	<stop  offset="0" style="stop-color:#8E619E"/>
	<stop  offset="1" style="stop-color:#30418F"/>
</linearGradient>
<polygon class="st1" points="147.4,17.6 171.2,58.8 195,100 147.4,100 99.8,100 123.6,58.8 "/>
<linearGradient id="SVGID_3_" gradientUnits="userSpaceOnUse" x1="5" y1="140.7" x2="100.2" y2="140.7" gradientTransform="matrix(1 0 0 1 0 0.1)">
	<stop  offset="0" style="stop-color:#8C265E"/>
	<stop  offset="3.134853e-02" style="stop-color:#90305F"/>
	<stop  offset="0.3292" style="stop-color:#B05E64"/>
	<stop  offset="0.6001" style="stop-color:#C67764"/>
	<stop  offset="0.8328" style="stop-color:#D38662"/>
	<stop  offset="1" style="stop-color:#D68B62"/>
</linearGradient>
<polygon class="st2" points="52.6,182 76.4,140.8 100.2,99.6 52.6,99.6 5,99.6 28.8,140.8 "/>
<linearGradient id="SVGID_4_" gradientUnits="userSpaceOnUse" x1="99.8" y1="140.7" x2="195" y2="140.7" gradientTransform="matrix(1 0 0 1 0 0.1)">
	<stop  offset="0" style="stop-color:#A39BC5"/>
	<stop  offset="0.1341" style="stop-color:#9E94C1"/>
	<stop  offset="0.3309" style="stop-color:#8E83B6"/>
	<stop  offset="0.5663" style="stop-color:#766BA6"/>
	<stop  offset="0.8294" style="stop-color:#564992"/>
	<stop  offset="1" style="stop-color:#382A83"/>
</linearGradient>
<polygon class="st3" points="147.4,182 171.2,140.8 195,99.6 147.4,99.6 99.8,99.6 123.6,140.8 "/>
<linearGradient id="SVGID_5_" gradientUnits="userSpaceOnUse" x1="100" y1="77.7" x2="100" y2="17.5" gradientTransform="matrix(1 0 0 1 0 0.1)">
	<stop  offset="0" style="stop-color:#363636"/>
	<stop  offset="0.1835" style="stop-color:#6B6B6B"/>
	<stop  offset="0.3859" style="stop-color:#A0A0A0"/>
	<stop  offset="0.5758" style="stop-color:#C9C9C9"/>
	<stop  offset="0.7472" style="stop-color:#E7E7E7"/>
	<stop  offset="0.8943" style="stop-color:#F9F9F9"/>
	<stop  offset="1" style="stop-color:#FFFFFF"/>
</linearGradient>
<polygon class="st4" points="17.8,77.8 182.2,77.8 171.2,58.8 147.5,17.7 147.6,17.6 100,17.6 52.4,17.6 52.5,17.7 28.8,58.8 "/>
<linearGradient id="SVGID_6_" gradientUnits="userSpaceOnUse" x1="100" y1="77.7" x2="100" y2="17.5" gradientTransform="matrix(1 0 0 1 0 0.1)">
	<stop  offset="0" style="stop-color:#FFFFFF"/>
	<stop  offset="1" style="stop-color:#FFFFFF"/>
</linearGradient>
<polygon class="st5" points="17.8,77.8 182.2,77.8 171.2,58.8 147.5,17.7 147.6,17.6 100,17.6 52.4,17.6 52.5,17.7 28.8,58.8 "/>
<linearGradient id="SVGID_7_" gradientUnits="userSpaceOnUse" x1="100" y1="759.6129" x2="100" y2="699.4129" gradientTransform="matrix(1 0 0 -1 0 881.2129)">
	<stop  offset="0" style="stop-color:#363636"/>
	<stop  offset="0.1835" style="stop-color:#6B6B6B"/>
	<stop  offset="0.3859" style="stop-color:#A0A0A0"/>
	<stop  offset="0.5758" style="stop-color:#C9C9C9"/>
	<stop  offset="0.7472" style="stop-color:#E7E7E7"/>
	<stop  offset="0.8943" style="stop-color:#F9F9F9"/>
	<stop  offset="1" style="stop-color:#FFFFFF"/>
</linearGradient>
<polygon class="st6" points="17.8,121.6 182.2,121.6 171.2,140.6 147.5,181.6 147.6,181.8 100,181.8 52.4,181.8 52.5,181.6 
	28.8,140.6 "/>
<linearGradient id="SVGID_8_" gradientUnits="userSpaceOnUse" x1="100" y1="759.6129" x2="100" y2="699.4129" gradientTransform="matrix(1 0 0 -1 0 881.2129)">
	<stop  offset="0" style="stop-color:#FFFFFF"/>
	<stop  offset="1" style="stop-color:#FFFFFF"/>
</linearGradient>
<polygon class="st7" points="17.8,121.6 182.2,121.6 171.2,140.6 147.5,181.6 147.6,181.8 100,181.8 52.4,181.8 52.5,181.6 
	28.8,140.6 "/>
<linearGradient id="SVGID_9_" gradientUnits="userSpaceOnUse" x1="100.4" y1="182.3" x2="100.4" y2="121.3309" gradientTransform="matrix(1 0 0 1 0 0.1)">
	<stop  offset="0" style="stop-color:#FFFFFF"/>
	<stop  offset="0.1424" style="stop-color:#F9F9F9"/>
	<stop  offset="0.3405" style="stop-color:#E7E7E7"/>
	<stop  offset="0.5713" style="stop-color:#C9C9C9"/>
	<stop  offset="0.8247" style="stop-color:#A0A0A0"/>
	<stop  offset="1" style="stop-color:#808080"/>
</linearGradient>
<polygon class="st8" points="52.5,182.3 52.4,182.4 100,182.4 147.6,182.4 147.5,182.3 165.4,151.2 148.4,121.6 148.4,121.5 
	100.8,121.5 53.3,121.5 53.4,121.6 35.4,152.7 "/>
<linearGradient id="SVGID_10_" gradientUnits="userSpaceOnUse" x1="100.4" y1="182.3" x2="100.4" y2="121.3309" gradientTransform="matrix(1 0 0 1 0 0.1)">
	<stop  offset="0" style="stop-color:#FFFFFF"/>
	<stop  offset="1" style="stop-color:#FFFFFF"/>
</linearGradient>
<polygon class="st9" points="52.5,182.3 52.4,182.4 100,182.4 147.6,182.4 147.5,182.3 165.4,151.2 148.4,121.6 148.4,121.5 
	100.8,121.5 53.3,121.5 53.4,121.6 35.4,152.7 "/>
<linearGradient id="SVGID_11_" gradientUnits="userSpaceOnUse" x1="100.4" y1="77.7" x2="100.4" y2="17.5" gradientTransform="matrix(1 0 0 1 0 0.1)">
	<stop  offset="0" style="stop-color:#808080"/>
	<stop  offset="0.1753" style="stop-color:#A0A0A0"/>
	<stop  offset="0.4287" style="stop-color:#C9C9C9"/>
	<stop  offset="0.6595" style="stop-color:#E7E7E7"/>
	<stop  offset="0.8576" style="stop-color:#F9F9F9"/>
	<stop  offset="1" style="stop-color:#FFFFFF"/>
</linearGradient>
<polygon class="st10" points="147.5,17.7 147.6,17.6 100,17.6 52.4,17.6 52.5,17.7 35.6,46.9 53.4,77.6 53.3,77.8 100.8,77.8 
	148.4,77.8 148.4,77.6 165.2,48.4 "/>
<linearGradient id="SVGID_12_" gradientUnits="userSpaceOnUse" x1="100.4" y1="77.7" x2="100.4" y2="17.5" gradientTransform="matrix(1 0 0 1 0 0.1)">
	<stop  offset="0" style="stop-color:#FFFFFF"/>
	<stop  offset="1" style="stop-color:#FFFFFF"/>
</linearGradient>
<polygon class="st11" points="147.5,17.7 147.6,17.6 100,17.6 52.4,17.6 52.5,17.7 35.6,46.9 53.4,77.6 53.3,77.8 100.8,77.8 
	148.4,77.8 148.4,77.6 165.2,48.4 "/>
<linearGradient id="SVGID_13_" gradientUnits="userSpaceOnUse" x1="100" y1="181.9" x2="100" y2="99.5" gradientTransform="matrix(1 0 0 1 0 0.1)">
	<stop  offset="0" style="stop-color:#BD3182"/>
	<stop  offset="1" style="stop-color:#D17A4E"/>
</linearGradient>
<polygon class="st12" points="100,99.6 123.8,140.8 147.6,182 100,182 52.4,182 76.2,140.8 "/>
<linearGradient id="SVGID_14_" gradientUnits="userSpaceOnUse" x1="100" y1="99.9" x2="100" y2="17.5" gradientTransform="matrix(1 0 0 1 0 0.1)">
	<stop  offset="0" style="stop-color:#C03686"/>
	<stop  offset="1" style="stop-color:#4A2E85"/>
</linearGradient>
<polygon class="st13" points="100,100 123.8,58.8 147.6,17.6 100,17.6 52.4,17.6 76.2,58.8 "/>
</svg>
