<?xml version="1.0" encoding="utf-8"?>
<!-- Generator: Adobe Illustrator 22.1.0, SVG Export Plug-In . SVG Version: 6.00 Build 0)  -->
<svg version="1.0" id="Livello_1" xmlns="http://www.w3.org/2000/svg" xmlns:xlink="http://www.w3.org/1999/xlink" x="0px" y="0px"
	 viewBox="0 0 200 200" enable-background="new 0 0 200 200" xml:space="preserve">
<circle cx="12.7" cy="117.1" r="7.7"/>
<circle cx="47.6" cy="117.1" r="10.8"/>
<circle cx="82.5" cy="117.1" r="14"/>
<circle cx="187.3" cy="117.1" r="7.7"/>
<circle cx="152.4" cy="117.1" r="10.8"/>
<circle cx="117.5" cy="117.1" r="14"/>
<circle cx="12.7" cy="82.5" r="7.7"/>
<circle cx="47.6" cy="82.5" r="10.8"/>
<circle cx="82.5" cy="82.5" r="14"/>
<circle cx="187.3" cy="82.5" r="7.7"/>
<circle cx="152.4" cy="82.5" r="10.8"/>
<circle cx="117.5" cy="82.5" r="14"/>
<circle cx="82.5" cy="187.3" r="7.7"/>
<circle cx="82.5" cy="152.4" r="10.8"/>
<circle cx="117.5" cy="187.3" r="7.7"/>
<circle cx="117.5" cy="152.4" r="10.8"/>
<circle cx="82.5" cy="12.7" r="7.7"/>
<circle cx="82.5" cy="47.6" r="10.8"/>
<circle cx="117.5" cy="12.7" r="7.7"/>
<circle cx="117.5" cy="47.6" r="10.8"/>
</svg>
