<?xml version="1.0" encoding="utf-8"?>
<!-- Generator: Adobe Illustrator 16.0.0, SVG Export Plug-In . SVG Version: 6.00 Build 0)  -->
<!DOCTYPE svg PUBLIC "-//W3C//DTD SVG 1.0//EN" "http://www.w3.org/TR/2001/REC-SVG-20010904/DTD/svg10.dtd">
<svg version="1.0" id="Layer_1" xmlns="http://www.w3.org/2000/svg" xmlns:xlink="http://www.w3.org/1999/xlink" x="0px" y="0px"
	 width="566.93px" height="566.93px" viewBox="0 0 566.93 566.93" enable-background="new 0 0 566.93 566.93" xml:space="preserve">
<g>
	<g>
		<g>
			<g>
				<g>
					<path fill="#AED949" d="M116.913,406.203c-28.069,0-24.861-93.028-24.861-93.028l269.454-0.802c0,0-0.802-28.068,0-56.134
						c0.801-28.068,25.661-27.267,25.661-27.267s0,0,28.069,0c91.423,0,185.25,176.428,95.432,176.428H116.913V406.203z					">
<title>Body</title>
					</path>
					<path fill="#88D6F8" d="M527.51,312.373c-26.466-46.51-69.771-83.401-113.075-83.401h-0.802v83.401H527.51z					">
<title>Window</title>
					</path>
					<g>
						<title>fWheel</title>
						<path fill="#C4C4C4" d="M456.137,359.69c23.255,0,42.504,19.245,42.504,42.503c0,23.256-19.249,42.504-42.504,42.504
							c-23.258,0-42.504-19.248-42.504-42.504C413.633,378.936,432.879,359.69,456.137,359.69"/>
						<path fill="#FFFFFF" d="M456.137,376.529c13.631,0,25.662,11.229,25.662,25.664c0,13.634-11.228,25.662-25.662,25.662
							c-13.634,0-25.665-11.227-25.665-25.662C430.472,387.759,441.702,376.529,456.137,376.529"/>
					</g>
					<g>
						<title>rWheel</title>
						<path fill="#C4C4C4" d="M192.295,359.69c23.255,0,42.504,19.245,42.504,42.503c0,23.256-19.249,42.504-42.504,42.504
							c-23.258,0-42.503-19.248-42.503-42.504C149.792,378.936,169.038,359.69,192.295,359.69"/>
						<path fill="#FEFFFF" d="M192.295,376.529c13.634,0,25.662,11.229,25.662,25.664c0,13.634-11.227,25.662-25.662,25.662
							c-13.633,0-25.662-11.227-25.662-25.662C166.634,387.759,177.861,376.529,192.295,376.529"/>
					</g>
					<path fill="#FFFFFF" d="M306.974,362.094h-7.218c-4.811,0-8.019-4.006-8.019-8.019v-7.217c0-4.812,4.01-8.02,8.019-8.02h7.218
						c4.811,0,8.019,4.01,8.019,8.02v7.217C314.992,358.088,311.784,362.094,306.974,362.094 M331.033,382.945h-7.218
						c-4.813,0-8.021-4.01-8.021-8.019v-7.218c0-4.813,4.01-8.019,8.021-8.019h7.218c4.811,0,8.019,4.009,8.019,8.019v7.218
						C339.854,379.74,335.844,382.945,331.033,382.945z M355.894,362.094h-7.218c-4.813,0-8.021-4.006-8.021-8.019v-7.217
						c0-4.812,4.01-8.02,8.021-8.02h7.218c4.811,0,8.019,4.01,8.019,8.02v7.217C363.912,358.088,359.903,362.094,355.894,362.094z
											">
<title>checkers</title>
					</path>
					<g>
						<title>CarOnPlatform</title>
						<g>
							<title>Body</title>
							<g>
								<path d="M234.799,184.866l-172.421,0.801c-8.82,7.217-14.435,14.435-16.038,20.851c-4.009,20.047,2.407,44.91,23.255,51.324
									c1.605,2.406,3.208,5.615,5.615,7.217c5.615,5.615,13.634,9.624,22.454,9.624c8.823,0,16.841-4.009,22.457-9.624
									c0.801-0.801,1.603-1.603,2.404-2.407l114.678-0.801c0.804,0.801,1.605,1.605,2.407,2.407
									c5.615,5.612,13.634,9.624,22.454,9.624h0.804l0,0c8.82,0,16.038-4.012,21.653-9.624c1.603-1.605,2.403-2.407,3.208-4.01
									C337.446,249.021,319.002,189.676,234.799,184.866z"/>
							</g>
						</g>
						<g>
							<title>Window</title>
							<path d="M224.374,184.866h9.622c0,0-42.504-28.069-87.411-28.069c-32.879,0-65.758,13.631-85.007,28.87h8.019
								c19.249-12.83,48.119-23.258,76.988-23.258C178.662,162.409,209.134,176.844,224.374,184.866z"/>
							<path fill="#88D6F8" d="M147.385,162.409c-28.87,0-57.74,10.428-76.985,23.258l154.775-0.801
								C209.134,176.844,178.662,162.409,147.385,162.409z"/>
						</g>
						<path fill="#C4C4C4" d="M287.726,241.801L287.726,241.801L287.726,241.801c0-8.019-3.205-14.435-8.019-19.243
							c-4.811-4.814-11.227-8.022-18.444-8.022l0,0c-7.217,0-13.634,3.208-18.444,8.022c-4.811,4.808-8.019,11.224-8.019,18.441l0,0
							c0,7.217,3.208,13.633,8.019,18.447c4.811,4.811,11.227,8.019,18.444,8.019l0,0c7.217,0,13.634-3.208,18.444-8.019
							C284.521,255.435,287.726,249.021,287.726,241.801z						">
<title>fTire</title>
						</path>
						<path fill="#FFFFFF" d="M261.262,224.161c9.625,0,17.643,8.019,17.643,17.64c0,9.627-8.019,17.646-17.643,17.646
							c-9.624,0-17.643-8.019-17.643-17.646C243.619,232.18,251.638,224.161,261.262,224.161						">
<title>fWheel</title>
						</path>
						<path fill="#C4C4C4" d="M123.326,241.801c0-7.218-3.205-13.631-8.019-18.442c-4.811-4.813-11.227-8.019-18.444-8.019l0,0l0,0
							c-7.218,0-13.634,3.205-18.444,8.019c-4.814,4.811-8.019,11.224-8.019,18.442l0,0l0,0c0,7.22,3.205,13.633,8.019,18.447
							c4.811,4.811,11.227,8.019,18.444,8.019c7.217,0,13.633-3.208,18.444-8.019C120.121,256.239,123.326,249.021,123.326,241.801z
													">
<title>rTire</title>
						</path>
						<path fill="#FFFFFF" d="M96.863,224.962c9.624,0,17.643,8.019,17.643,17.643c0,9.624-8.019,17.643-17.643,17.643
							c-9.625,0-17.643-8.019-17.643-17.643C79.22,232.981,87.239,224.962,96.863,224.962						">
<title>rWheel</title>
						</path>
						<path fill="#88D6F8" d="M335.844,228.17h13.634c1.603,0,2.403,1.605,2.403,2.407l-8.819,70.572
							c0,0.801-0.802,2.403-2.407,2.403l-249.406,1.603h-0.801L26.291,334.83c-2.404,1.603-4.811-2.407-2.404-4.01l53.73-51.324
							h0.802h232.564c0.801,0,1.603-0.804,2.406-1.605l20.047-48.115C334.238,228.972,335.042,228.17,335.844,228.17z						">
<title>Platform</title>
						</path>
					</g>
					<path fill="#FFB400" d="M417.643,204.913h-42.504c-0.801,0-1.603,0.801-1.603,1.605v14.435c0,0.801,0.802,1.605,1.603,1.605
						h42.504c0.802,0,1.603-0.805,1.603-1.605v-14.435C419.245,205.714,418.444,204.913,417.643,204.913z					">
<title>Lights</title>
					</path>
				</g>
			</g>
		</g>
	</g>
</g>
</svg>
