<?xml version="1.0" encoding="utf-8"?>
<!-- Generator: Adobe Illustrator 22.1.0, SVG Export Plug-In . SVG Version: 6.00 Build 0)  -->
<svg version="1.1" id="Layer_1" xmlns="http://www.w3.org/2000/svg" xmlns:xlink="http://www.w3.org/1999/xlink" x="0px" y="0px"
	 viewBox="0 0 200 200" style="enable-background:new 0 0 200 200;" xml:space="preserve">
<style type="text/css">
	.st0{opacity:0.98;}
	.st1{fill:#99CA3C;}
	.st2{fill:#FFFFFF;}
</style>
<g>
	<g>
		<g>
			<g>
				<g id="XMLID_472_" class="st0">
					<g id="XMLID_473_">
						<g id="XMLID_474_">
							<path id="XMLID_538_" class="st1" d="M100,0.7c-54.8,0-99,44.5-99,99S45.2,199,100,199c54.5,0,99-44.5,99-99
								S154.4,0.7,100,0.7"/>
							<path id="XMLID_475_" class="st2" d="M42.7,60.8c0-5.6-4.4-10-10-10s-10,4.4-10,10s4.4,10,10,10c1.6,0,3.1-0.3,4.7-1.2
								L72.9,105v78.7c1.9,0.6,4,1.2,5.9,1.6v-82.5l-37-37.3C42.4,64.2,42.7,62.6,42.7,60.8 M33.1,64.5c-1.9,0-3.4-1.6-3.4-3.7
								c0-1.9,1.6-3.7,3.4-3.7c1.9,0,3.4,1.6,3.4,3.7S34.9,64.5,33.1,64.5"/>
							<path id="XMLID_476_" class="st2" d="M71,32.4c0-5.6-4.4-10-10-10s-10,4.4-10,10s4.4,10,10,10c1.6,0,3.1-0.3,4.7-1.2l19,19
								v126.4c1.9,0.3,4,0.6,5.9,0.9V58L70.1,37.1C70.7,35.6,71,34.3,71,32.4 M61.4,36.2c-1.9,0-3.4-1.6-3.4-3.7
								c0-1.9,1.6-3.7,3.4-3.7s3.4,1.6,3.4,3.7S63.2,36.2,61.4,36.2"/>
							<path id="XMLID_477_" class="st2" d="M32.4,99.7c0-5.6-4.4-10-10-10s-10,4.4-10,10s4.4,10,10,10c1.6,0,3.1-0.3,4.7-1.2
								L61,142.4v36.4c1.9,0.9,4,1.9,5.9,2.8v-41.4l-35.8-35.8C31.8,103.1,32.4,101.2,32.4,99.7 M22.5,103.4c-1.9,0-3.4-1.6-3.4-3.4
								c0-2.2,1.6-3.7,3.4-3.7c1.9,0,3.4,1.6,3.4,3.7C25.9,101.5,24.3,103.4,22.5,103.4"/>
							<path id="XMLID_478_" class="st2" d="M42.7,138.6c0-5.6-4.4-10-10-10s-10,4.4-10,10s4.4,10,10,10c1.6,0,3.1-0.3,4.7-1.2
								l11.5,11.8v13.1c1.9,1.2,3.7,2.5,5.9,3.7v-19.3l-13.4-13.4C42.4,141.7,42.7,140.1,42.7,138.6 M33.1,142
								c-1.9,0-3.4-1.6-3.4-3.7c0-1.9,1.6-3.7,3.4-3.7c1.9,0,3.4,1.6,3.4,3.7S34.9,142,33.1,142"/>
							<path id="XMLID_479_" class="st2" d="M162.8,76.6c5,0,9-4.4,9-9.3c0-5.3-4-9.3-9-9.3s-9,4.4-9,9.3c0,1.6,0.3,3.1,0.9,4.4
								l-33.9,35.5v78.4c1.9-0.3,3.7-0.9,5.3-1.6v-74.7l32.4-33.6C159.7,76.3,161.3,76.6,162.8,76.6 M162.8,63.9
								c1.9,0,3.1,1.6,3.1,3.4c0,1.9-1.6,3.4-3.1,3.4c-1.9,0-3.1-1.6-3.1-3.4C159.4,65.4,161,63.9,162.8,63.9"/>
							<path id="XMLID_480_" class="st2" d="M166.9,128.6c-5.6,0-10,4.4-10,10c0,1.6,0.3,3.1,1.2,4.7l-13.4,13.4V176
								c2.2-1.2,4-2.5,5.9-3.7v-13.1l11.8-11.8c1.2,0.6,2.8,1.2,4.7,1.2c5.6,0,10-4.4,10-10C176.8,133,172.2,128.6,166.9,128.6
								 M166.9,142c-1.9,0-3.7-1.6-3.7-3.7c0-1.9,1.6-3.7,3.7-3.7c1.9,0,3.7,1.6,3.7,3.7C170.3,140.4,168.7,142,166.9,142"/>
							<path id="XMLID_481_" class="st2" d="M156,40.2c-4.4,0-7.8,3.4-7.8,7.5c0,1.2,0.3,2.5,0.9,3.4l-28.3,27.1v31.4
								c1.6-0.6,3.1-1.2,4.7-1.9V80.1l26.8-25.8c0.9,0.6,2.2,0.9,3.7,0.9c4.4,0,7.8-3.4,7.8-7.5C163.8,43.6,160.3,40.2,156,40.2
								 M156,50.5c-1.6,0-2.8-1.2-2.8-2.8s1.2-2.8,2.8-2.8s2.8,1.2,2.8,2.8S157.5,50.5,156,50.5"/>
							<path id="XMLID_482_" class="st2" d="M100,12.2c-5.6,0-10,4.4-10,10c0,4.4,2.8,8.1,6.8,9.3v156.2c0.9,0,2.2,0,3.1,0
								s1.9,0,2.8,0V31.5c4-1.2,7.2-5,7.2-9.6C109.9,16.6,105.3,12.2,100,12.2 M100,25.6c-1.9,0-3.4-1.6-3.4-3.4
								c-0.3-2.2,1.2-3.7,3.4-3.7c1.9,0,3.7,1.6,3.7,3.4C103.4,24,101.8,25.6,100,25.6"/>
							<path id="XMLID_483_" class="st2" d="M138.6,42.4c5.6,0,10-4.4,10-10s-4.4-10-10-10s-10,4.4-10,10c0,1.6,0.3,3.1,1.2,4.7
								L109.3,58v129.8c1.9-0.3,4-0.6,5.9-0.9V60.4l19-19C135.1,42.1,136.7,42.4,138.6,42.4 M138.6,29c1.9,0,3.4,1.6,3.4,3.7
								c0,1.9-1.6,3.7-3.4,3.7c-1.9,0-3.4-1.6-3.4-3.7C134.8,30.6,136.4,29,138.6,29"/>
							<path id="XMLID_484_" class="st2" d="M141,110.9c-2.2,0-3.7,1.9-3.7,3.7c0,0.6,0.3,1.2,0.3,1.9l-14,14v16.2
								c0.9-0.3,1.6-0.6,2.2-0.9v-14.3l13.1-13.1c0.6,0.3,1.2,0.3,1.9,0.3c2.2,0,3.7-1.9,3.7-3.7C145.1,112.4,143.2,110.9,141,110.9
								 M141,115.8c-0.6,0-1.2-0.6-1.2-1.2s0.6-1.2,1.2-1.2c0.6,0,1.2,0.6,1.2,1.2C142.6,115.2,142,115.8,141,115.8"/>
							<path id="XMLID_485_" class="st2" d="M55.2,51.4c0-3.7-2.8-6.5-6.5-6.5c-3.4,0-6.5,2.8-6.5,6.5s2.8,6.5,6.5,6.5
								c0.9,0,2.2-0.3,3.1-0.6l23,23.3V132c1.2,0.3,2.5,0.9,3.7,1.2V78.8L54.2,54.5C55.2,53.6,55.2,52.7,55.2,51.4 M48.9,53.9
								c-1.2,0-2.2-0.9-2.2-2.5c0-1.2,0.9-2.5,2.2-2.5s2.5,0.9,2.5,2.5C51.1,52.7,50.2,53.9,48.9,53.9"/>
							<path id="XMLID_495_" class="st2" d="M61.7,106.8c0-2.2-1.6-3.7-3.7-3.7s-3.7,1.6-3.7,3.7s1.6,3.7,3.7,3.7
								c0.6,0,1.2,0,1.9-0.3l13.4,13.4v29.9c0.6,0.3,1.6,0.3,2.2,0.6v-31.4l-14-14C61.7,108.1,61.7,107.4,61.7,106.8 M58,108.1
								c-0.6,0-1.2-0.6-1.2-1.2s0.6-1.2,1.2-1.2c0.6,0,1.2,0.6,1.2,1.2S58.6,108.1,58,108.1"/>
							<path id="XMLID_496_" class="st2" d="M177.5,83.2c-5.3,0-10,4.7-10,10.6c0,1.9,0.3,3.4,1.2,5l-35.5,37.7v44.2
								c1.9-0.9,4-1.9,5.9-2.8v-38.6l33.6-36.1c1.2,0.6,2.8,1.2,4.7,1.2c5.3,0,9.6-4.7,9.6-10.6S182.7,83.2,177.5,83.2 M177.5,97.5
								c-1.9,0-3.4-1.9-3.4-3.7c0-2.2,1.6-3.7,3.4-3.7s3.4,1.6,3.4,3.7C180.9,95.6,179.3,97.5,177.5,97.5"/>
						</g>
					</g>
				</g>
			</g>
		</g>
	</g>
</g>
</svg>
