<svg xmlns="http://www.w3.org/2000/svg" version="1" viewBox="0 0 406 383"><linearGradient id="a" x1="23.6205" x2="387.2267" y1="189.6604" y2="189.6604" gradientTransform="matrix(1 0 0 -1 0 384)" gradientUnits="userSpaceOnUse"><stop offset="0" stop-color="#85621e"/><stop offset=".18" stop-color="#e8cb8b"/><stop offset=".3" stop-color="#755628"/><stop offset=".55" stop-color="#fff8a7"/><stop offset=".72" stop-color="#deab2a"/><stop offset=".9" stop-color="#745824"/><stop offset="1" stop-color="#ffcf60"/></linearGradient><path fill="url(#a)" d="M387 183.2C379.8 111.7 333.3 46.9 264.7 23 207.1 2.9 142.6 13.4 94.2 50c-56.1 42.5-81.8 116.6-66 184.7 21.1 90.5 111 153.5 203.6 139 80-12.6 145.4-79.7 154-160.3.4-3.6 3-19.1.1-20.5-.3 0-4.3 31.9-4.9 34.8-2.7 12.8-6.7 25.3-12 37.3-8.6 19.4-20.7 37.3-35.4 52.6-17.3 18-38.1 32.4-61.2 41.9C207.9 386.1 132 371.8 81.1 324c-52.9-49.6-70.7-130-43.8-197.7 13.8-34.7 38.6-64.5 70.1-84.6C153.3 12.3 211.5 5.6 263 23.2c63.9 21.8 110.8 79.9 121.8 146.1"/><linearGradient id="b" x1="29.0022" x2="381.847" y1="189.5711" y2="189.5711" gradientTransform="matrix(1 0 0 -1 0 384)" gradientUnits="userSpaceOnUse"><stop offset="0" stop-color="#85621e"/><stop offset=".18" stop-color="#e8cb8b"/><stop offset=".3" stop-color="#755628"/><stop offset=".55" stop-color="#fff8a7"/><stop offset=".72" stop-color="#deab2a"/><stop offset=".9" stop-color="#745824"/><stop offset="1" stop-color="#ffcf60"/></linearGradient><path fill="url(#b)" d="M381.8 185.1c-5.6-64.4-44.7-123.8-103.9-151C203.4-.2 112.3 23.2 63.4 89c-34 45.7-43.2 105.5-25.6 159.6 23.4 71.9 92.5 122.5 168.5 121.9 82.4-.7 157-62.7 172.3-143.7 1.1-6 2-12.1 2.5-18.3.1-1.8 1.9-12.8-.4-14-.5 0-3.9 28.3-4.5 31-2.5 12.4-6.4 24.6-11.4 36.3-8.4 19.4-20.4 37-35 52.2-18.5 19.3-41.6 34.3-66.7 43.3-50.7 18.1-108.4 11.6-153.4-18.3-67.4-44.7-97.2-130.2-68.9-206.6C74.6 40.7 181.3-5 271.6 32.1c55.8 22.9 96 75.2 107.3 134 .4 2.1.7 4.2 1.1 6.3"/><linearGradient id="c" x1="34.063" x2="376.548" y1="189.7652" y2="189.7652" gradientTransform="matrix(1 0 0 -1 0 384)" gradientUnits="userSpaceOnUse"><stop offset="0" stop-color="#85621e"/><stop offset=".18" stop-color="#e8cb8b"/><stop offset=".3" stop-color="#755628"/><stop offset=".55" stop-color="#fff8a7"/><stop offset=".72" stop-color="#deab2a"/><stop offset=".9" stop-color="#745824"/><stop offset="1" stop-color="#ffcf60"/></linearGradient><path fill="url(#c)" d="M376.5 187c-4.5-61.1-40.4-117.6-95.4-145.5C233 17.1 173.9 17.9 126 42.6c-54.4 28.1-90.2 84.7-91.9 145.8-2.2 79.4 52.1 152 129.2 171.5 88.5 22.4 183.8-33.7 207.2-122.4 1.9-7.2 3.3-14.5 4.2-21.8.4-2.9 3.4-17.9.4-19.5-.8-.1-3.6 24.8-4 26.6-2.2 11.2-5.4 22.3-9.7 32.9-8.2 20.1-20.2 38.5-35.2 54.2-22.9 24.1-52.8 41-85.2 48.4-65.8 14.9-136.5-12.5-175.2-67.5-26.2-37.2-36.1-84.5-27.7-129.1C55.7 68.6 149.8 8 241.7 28.5c70.6 15.7 123.9 76.9 133.4 148"/><linearGradient id="d" x1="80.02" x2="330.787" y1="193.4375" y2="193.4375" gradientTransform="matrix(1 0 0 -1 0 384)" gradientUnits="userSpaceOnUse"><stop offset="0" stop-color="#85621e"/><stop offset=".18" stop-color="#e8cb8b"/><stop offset=".3" stop-color="#755628"/><stop offset=".55" stop-color="#fff8a7"/><stop offset=".72" stop-color="#deab2a"/><stop offset=".9" stop-color="#745824"/><stop offset="1" stop-color="#ffcf60"/></linearGradient><path fill="url(#d)" d="M282.3 128.3l-.7-.1L214.7 294H196l-67-165.8-.7.1 2.9 83.7v60l23.2 4v17.9H80V276l23.2-4V109.1l-23.2-4V87h59l66 168.1h.9L271.7 87h59.1v18.1l-23.2 4v163.1l23.2 4v17.9h-74.4v-17.9l23.2-4v-60l2.7-83.9z"/></svg>