<?xml version="1.0" encoding="UTF-8" standalone="no"?><!DOCTYPE svg PUBLIC "-//W3C//DTD SVG 1.1//EN" "http://www.w3.org/Graphics/SVG/1.1/DTD/svg11.dtd"><svg width="100%" height="100%" viewBox="0 0 15 15" version="1.1" xmlns="http://www.w3.org/2000/svg" xmlns:xlink="http://www.w3.org/1999/xlink" xml:space="preserve" style="fill-rule:evenodd;clip-rule:evenodd;stroke-linejoin:round;stroke-miterlimit:1.41421;"><g><path d="M9.494,5.786l-0.208,0.208c0.166,0.26 0.218,0.586 0.104,0.899c-0.189,0.529 -0.776,0.808 -1.31,0.619c-0.076,-0.028 -0.147,-0.061 -0.208,-0.104l-0.667,0.667l-0.582,-0.586c-0.27,0.179 -0.615,0.231 -0.942,0.118c-0.548,-0.199 -0.832,-0.8 -0.633,-1.344c0.028,-0.085 0.071,-0.161 0.118,-0.231l-0.251,-0.251l-0.047,0.08c-0.26,0.426 -0.402,0.918 -0.402,1.424c-0.005,1.509 1.225,2.744 2.734,2.744l0.005,0c1.509,0 2.734,-1.225 2.739,-2.734c0,-0.502 -0.137,-0.994 -0.398,-1.424l-0.052,-0.085Z" style="fill:#00a6c4;fill-rule:nonzero;"/><path d="M5.473,6.339c-0.071,0.095 -0.113,0.213 -0.113,0.341c0,0.307 0.251,0.558 0.558,0.558c0.128,0 0.246,-0.043 0.341,-0.118l-0.786,-0.781Z" style="fill:#00a6c4;fill-rule:nonzero;"/><path d="M8.212,7.072c0.09,0.062 0.194,0.095 0.313,0.095c0.307,0 0.558,-0.251 0.558,-0.558c0,-0.114 -0.033,-0.223 -0.095,-0.313l-0.776,0.776Z" style="fill:#00a6c4;fill-rule:nonzero;"/><path d="M7.214,7.659l-2.261,-2.271l0.09,-0.094c0.558,-0.592 1.32,-0.923 2.138,-0.923l0.005,0c0.828,0 1.622,0.355 2.176,0.97l0.085,0.094l-2.233,2.224ZM5.322,5.388l1.892,1.897l1.869,-1.859c-0.502,-0.501 -1.183,-0.79 -1.892,-0.79l-0.005,0c-0.705,0 -1.363,0.265 -1.864,0.752Z" style="fill:#00a6c4;fill-rule:nonzero;"/><g><path d="M4.721,9.121l-0.265,-0.019c-1.126,-0.071 -2.677,-0.35 -3.68,-1.254c-0.62,-0.553 -0.738,-1.078 -0.743,-1.102l-0.033,-0.161l4.097,0l-0.024,0.151c-0.019,0.138 -0.028,0.28 -0.028,0.417c0,0.624 0.179,1.23 0.525,1.745l0.151,0.223Z" style="fill:#00a6c4;fill-rule:nonzero;"/><path d="M9.679,9.121l0.146,-0.223c0.346,-0.515 0.526,-1.116 0.526,-1.736c0,-0.142 -0.01,-0.288 -0.029,-0.426l-0.019,-0.151l4.097,0l-0.033,0.161c-0.005,0.024 -0.123,0.549 -0.738,1.102c-1.003,0.904 -2.559,1.183 -3.685,1.254l-0.265,0.019Z" style="fill:#00a6c4;fill-rule:nonzero;"/></g></g></svg>