<?xml version="1.0" encoding="utf-8"?>
<!-- Generator: Adobe Illustrator 22.1.0, SVG Export Plug-In . SVG Version: 6.00 Build 0)  -->
<svg version="1.0" id="Layer_1" xmlns="http://www.w3.org/2000/svg" xmlns:xlink="http://www.w3.org/1999/xlink" x="0px" y="0px"
	 viewBox="0 0 200 200" enable-background="new 0 0 200 200" xml:space="preserve">
<path d="M95.9,78.3c2.5,1,5.1,0.5,7.6,0c1.5,5.1,4.1,10.2,7.1,12.2c-1.5,12.7-6.6,17.8-11.2,17.8c-7.6,0-10.7-15.3-10.7-18.3
	C88.7,89.5,93.8,85.9,95.9,78.3z M89.2,125.1c1,4.1,4.1,14.8,10.7,14.8c4.6,0,9.7-6.1,10.7-14.2c-3.6-2-5.1-7.1-7.1-14.2
	c-2,0.5-5.1,1-7.6,0C94.8,118,92.8,122.1,89.2,125.1z M48,141.4L48,141.4c2.5,4.1,8.1,11.2,13.7,8.7c1.5-0.5,2-4.6,1.5-8.7
	c-4.6-2.5-7.6-7.6-10.2-14.8c-1,0.5-2.5,0.5-4.1,0C49.5,134.3,49.5,138.8,48,141.4z M25.1,127.1c2,11.7,2.5,12.7,2,14.2
	c3.6,7.1,7.6,10.2,12.2,9.7c1.5,0,0.5-4.1-1.5-8.7c0,0-6.6-5.1-9.7-14.8C27.2,127.1,26.6,127.1,25.1,127.1z M11.4,127.1
	c5.1,22.4,15.3,21.4,14.8,20.4c-2-3.6-4.1-5.1-6.6-7.1C14.4,135.8,11.4,125.6,11.4,127.1z M75.5,141.4L75.5,141.4
	c2.5,9.7,9.7,9.7,12.7,8.7c3.6-0.5,5.1-3.6,5.6-9.7c-4.6-3.1-6.6-10.2-7.6-14.8c-1.5,0.5-4.1,0.5-6.6,0
	C79.6,132.7,79.1,138.8,75.5,141.4z M30.2,125.1c2,5.1,8.7,15.3,13.2,15.3c2,0,3.1-3.6,2-14.8c-3.1-2-5.6-6.6-7.6-13.2
	c-1,0.5-3.1,0.5-4.6,0C32.2,118,31.7,122.1,30.2,125.1z M13.4,125.1c1.5,4.1,5.1,13.2,9.7,14.8c2,1,2-2-0.5-14.2
	c0,0-3.6-3.1-6.6-13.2c-0.5,0-1.5,0-2,0C13.9,117,13.4,124.1,13.4,125.1z M55.7,125.1c0.5,2,5.6,12.7,12.2,14.2
	c7.6,1.5,8.1-8.1,8.1-13.7c-3.6-2-6.6-6.6-8.1-13.2c-1.5,0.5-4.1,1-7.1,0C60.2,119,58.2,123.1,55.7,125.1z M51.1,123.6
	c3.1,0,5.6-4.6,7.1-13.7c-3.1-3.1-6.1-7.6-6.6-18.8c-1.5,0.5-3.1,0.5-4.1,0c-1.5,10.2-3.1,15.8-6.6,19.3
	C40.9,113.4,44.5,123.6,51.1,123.6z M18,110.4c2.5,10.7,5.1,13.2,7.6,13.2c4.6,0,3.6-8.1,4.1-13.7c-1-2.5-4.6-8.1-4.6-19.3
	c-1,0-1.5,0-2.5,0C19,107.3,19,107.8,18,110.4z M7.8,91.5c-1-0.5-6.6,21.9,1.5,31.5c1,1,1-12.2,1-12.2C8.3,105.8,9.3,92.5,7.8,91.5z
	 M70.9,110.4c0.5,1.5,3.6,13.2,12.2,13.2c5.1,0,9.2-6.1,10.2-14.2c-4.1-4.1-6.6-10.2-7.6-18.3c-1.5,0.5-4.1,0.5-6.6,0
	C77,101.7,75,107.3,70.9,110.4z M28.2,89.5c0.5,9.7,2.5,19.3,7.1,19.3c4.6,0,7.1-10.7,8.7-19.8c-2-1.5-4.1-4.6-4.1-10.7
	c-1.5,0.5-3.6,0.5-4.6-0.5C34.8,78.8,31.7,87.5,28.2,89.5z M14.4,108.8c2.5,0,5.1-19.8,5.1-19.8c-1-1.5-2-4.6-1.5-10.7
	c-0.5,0.5-1.5,0-2,0c-2,6.1-4.6,11.2-4.6,11.2C10.4,95.1,11.4,108.8,14.4,108.8z M54.6,89.5c0.5,6.6,3.6,19.3,9.7,19.3
	c7.1,0,9.7-9.7,11.7-19.3c-3.6-2-5.1-6.1-6.6-11.7c-2.5,0.5-4.6,0.5-6.6-0.5C61.3,82.4,56.7,88.5,54.6,89.5z M59.7,75.2
	c-1.5-2-3.6-6.1-2.5-13.7c-1.5,0-2.5,0-3.6,0c-2.5,5.1-5.6,11.2-10.2,14.8c0,1,0.5,11.7,6.1,11.7C53.1,88.5,56.2,83.4,59.7,75.2z
	 M33.3,61.5c-0.5,0-1.5,0-2,0c0,0.5-7.1,12.7-9.7,14.8C20,81.3,20,87.5,23.1,88c3.1,0,5.1-2.5,9.2-13.2
	C31.7,72.7,30.7,69.1,33.3,61.5z M18,62c-7.6,5.6-11.7,24.4-9.7,24.9c0.5,0.5,6.6-8.1,6.1-13.7C13.9,69.6,19.5,61.5,18,62z
	 M93.3,75.2c-2-2-4.6-6.1-5.6-13.7c-1.5,0.5-4.1,0.5-5.6,0C80.6,66.1,78,72.7,73,76.3c0.5,5.1,3.1,11.2,8.1,11.7
	C89.2,88.5,91.8,80.8,93.3,75.2z M21.1,60.5C16,68.6,16,75.2,18,75.2c2.5,0,9.7-13.2,11.7-15.8c-0.5-2.5,5.1-8.1,3.1-8.7
	C29.7,50.8,22.6,60,21.1,60.5z M151.3,126.6c-1.5,0.5-3.1,0.5-4.1,0c-2,7.1-5.1,12.2-9.7,14.8c-0.5,3.6-0.5,8.1,1.5,8.7
	c5.6,2,11.7-4.1,13.7-8.7l0,0C150.8,138.8,150.8,134.3,151.3,126.6z M172.7,126.6c-4.1,9.7-9.7,14.8-9.7,14.8
	c-2.5,4.6-3.6,8.7-1.5,8.7c4.6,0,8.7-2.5,12.2-9.7c-0.5-1.5,0-2.5,2-14.2C174.2,127.1,173.2,127.1,172.7,126.6z M180.8,140.4
	c-2,2-4.1,3.1-5.6,7.1c-0.5,1,9.2,2,14.8-20.4C189,125.6,185.9,135.8,180.8,140.4z M120.3,126.6c-2,0.5-4.1,0.5-6.6,0
	c-1,4.6-3.1,11.2-7.6,14.8c1,5.1,2,8.7,5.6,9.7c2.5,0.5,9.7,0.5,12.7-8.7l0,0C121.8,138.8,120.3,132.7,120.3,126.6z M167.6,112.4
	c-2,1-3.6,0.5-4.6,0c-1.5,6.1-4.1,11.2-7.6,13.2c-1,11.2,0,14.8,2,14.8c4.1,0,10.7-10.2,13.2-15.3
	C168.1,122.1,167.6,118,167.6,112.4z M186.9,112.9c-0.5,0-1.5,0-2,0c-2.5,9.7-6.6,13.2-6.6,13.2c-2.5,11.7-3.1,14.8-0.5,14.2
	c4.1-1.5,8.1-10.7,9.7-14.8C186.9,124.1,186.9,117,186.9,112.9z M139.6,112.4c-2.5,1-5.1,0.5-7.1,0c-1.5,6.6-4.1,11.2-8.1,13.2
	c0,5.1,0.5,15.3,8.1,13.7c5.6-1,11.7-11.7,12.2-14.2C141.6,123.1,140.6,119,139.6,112.4z M160,110.4c-2.5-3.1-4.1-9.7-6.6-19.3
	c-1.5,0.5-2.5,0.5-4.1,0c-0.5,11.2-3.6,16.3-6.6,18.8c1,8.7,3.6,13.7,7.1,13.7C154.9,123.6,159.5,113.4,160,110.4z M177.8,91
	c-1,0-1.5,0.5-2.5,0c0,11.2-2.5,16.3-4.6,18.8c0.5,5.1-0.5,13.7,4.1,13.7c2,0,4.6-3.1,7.6-13.2C181.3,107.8,180.8,107.3,177.8,91z
	 M189.5,110.4c0,0,0,13.2,1,12.2c8.1-8.7,3.1-32.1,1.5-31.5C191,92.5,192,105.8,189.5,110.4z M121.8,91c-2.5,0.5-5.1,0.5-6.6,0
	c-1,8.1-3.6,13.7-7.6,18.3c1.5,8.1,4.6,14.8,10.2,14.2c7.6,0,11.7-11.7,12.2-13.2C125.9,107.3,123.3,101.7,121.8,91z M165.6,77.8
	c-1.5,1-3.1,1-4.6,0.5c0,6.6-2,10.2-3.6,11.7c1.5,9.7,3.6,19.8,8.7,19.8c4.1,0,7.1-10.2,7.1-19.3C168.6,87.5,165.6,78.8,165.6,77.8z
	 M189.5,89.5c0,0-2.5-4.6-4.6-11.7c-0.5,0.5-1.5,0.5-2,0c0.5,5.6-1,8.7-2,11.2c0,0,2.5,19.8,5.1,19.8C189,108.8,190,95.1,189.5,89.5
	z M138.1,77.8c-2,1-5.1,1-7.1,0.5c-0.5,5.1-2.5,9.7-5.6,11.7c1.5,10.2,3.6,19.8,11.7,19.3c5.6,0,9.2-12.7,9.7-19.3
	C143.2,88.5,139.6,82.4,138.1,77.8z M150.8,87.5c5.1,0,5.6-10.7,5.6-12.2c-3.6-2.5-7.1-8.7-9.7-14.2c-1,0.5-2,0.5-3.6,0
	c1,7.6-0.5,11.7-2.5,13.7C143.7,83.4,147.2,88.5,150.8,87.5z M167.6,75.2c3.6,10.2,5.6,12.7,8.7,12.7c3.1-0.5,3.1-6.6,2-12.2
	c-2.5-1.5-9.7-14.2-9.7-14.8c-0.5,0-1,0-2,0C169.1,69.1,168.1,72.7,167.6,75.2z M185.9,73.2c-0.5,4.6,5.1,14.2,5.6,13.7
	c1.5-0.5-1.5-19.8-9.7-24.9C180.8,61.5,186.4,69.6,185.9,73.2z M118.8,87.5c5.1-0.5,8.1-6.1,8.7-12.2c-4.1-3.1-7.1-9.7-8.7-14.2
	c-1.5,0.5-4.1,0.5-5.6,0c-0.5,7.6-3.1,12.2-5.6,13.7C108.6,80.8,110.6,88.5,118.8,87.5z M167.6,50.8c-2,0,3.6,6.1,3.1,8.7
	c1.5,2.5,8.7,15.8,11.7,15.8c2,0,2-6.6-3.6-14.8C177.8,60,170.7,50.8,167.6,50.8z M50.6,52.3c0,0,1-2.5-0.5-3.1
	c-2.5,0-9.7,10.2-13.2,11.7c-0.5,1-5.1,13.2,0.5,14.2c4.6,0.5,9.7-9.2,13.2-14.8C49,59,49.5,55.9,50.6,52.3z M75.5,51.8
	c0-0.5,0-3.1-2.5-3.1c-3.1,0-7.6,10.2-12.2,11.7c-1,6.1,0,13.7,4.6,14.2c7.1,0.5,10.7-8.1,13.2-14.2C76,59,75.5,55.4,75.5,51.8z
	 M150.3,60.5c3.1,6.1,8.1,15.3,13.2,14.8c5.1-1,1-13.2,0.5-14.2c-3.1-1.5-10.2-11.7-13.2-11.7c-1.5,0-0.5,2.5-0.5,3.1
	C151.3,55.9,151.3,59,150.3,60.5z M122.3,60.5c2,6.1,5.6,15.3,13.2,14.2c5.1-0.5,6.6-7.6,4.6-14.2c-4.1-1.5-9.2-12.2-12.2-11.7
	c-2.5,0-2.5,2.5-2.5,3.1C124.9,55.4,124.3,59,122.3,60.5z M100.4,48.8c-5.6,0-3.6,9.7-9.7,12.2c0.5,4.6,2,14.2,9.2,14.2
	c8.7,0,9.7-11.7,9.7-14.2C105,59,105,48.8,100.4,48.8z"/>
</svg>
