<?xml version="1.0" encoding="utf-8"?>
<!-- Generator: Adobe Illustrator 22.1.0, SVG Export Plug-In . SVG Version: 6.00 Build 0)  -->
<svg version="1.0" id="Livello_1" xmlns="http://www.w3.org/2000/svg" xmlns:xlink="http://www.w3.org/1999/xlink" x="0px" y="0px"
	 viewBox="0 0 200 200" style="enable-background:new 0 0 200 200;" xml:space="preserve">
<style type="text/css">
	.st0{fill:#1D2951;}
</style>
<path class="st0" d="M191.6,148.5c-1.9,0-3.5,1.6-3.5,3.5v10.6h-45.6l-0.1-6.7c33.2-23.3,41.2-69.2,17.9-102.4S91,12.3,57.8,35.7
	s-41.2,69.2-17.9,102.4c4.9,7,10.9,13,17.9,17.9h0.1l-0.1,6.6H12.2V152c0-2-1.6-3.5-3.5-3.5S5.1,150,5.1,152v17.6h59.6l0.2-15.3
	c0-1.4-0.9-2.7-2.2-3.3c-0.2-0.4-0.5-0.7-0.9-0.9C44,137.7,33.4,117.4,33.4,95.7c0-36.8,29.8-66.6,66.6-66.6
	c36.8,0,66.6,29.8,66.6,66.6c0,22.1-11,42.8-29.3,55.2c-0.3,0.2-0.6,0.5-0.8,0.8c-0.8,0.6-1.2,1.6-1.3,2.6l0.2,15.3h59.6v-17.6
	C195.1,150.1,193.5,148.6,191.6,148.5L191.6,148.5z"/>
<path class="st0" d="M144.5,100.9c-1.5-1.8-3-3.6-4.7-5.2c1.7-1.7,3.2-3.4,4.7-5.2c7.9-9.7,10.3-18.2,6.8-24.2
	c-2.6-4.4-8.2-6.8-16.3-6.8c-5.1,0.1-10.1,0.8-15.1,2.2c-4.3-15.2-11.5-24.9-19.7-24.9s-15.4,9.7-19.8,24.7c-4.9-1.3-10-2-15.1-2.2
	c-8.1,0-13.7,2.4-16.3,6.8c-3.4,5.9-1,14.5,6.8,24.2c1.5,1.8,3,3.6,4.7,5.2c-10.9,11.3-15.7,22.4-11.5,29.4
	c2.6,4.4,8.2,6.8,16.3,6.8c5.1-0.1,10.1-0.8,15.1-2.2c4.3,15.1,11.5,24.7,19.7,24.7s15.4-9.7,19.8-24.7c4.9,1.3,10,2,15.1,2.2
	c8.1,0,13.7-2.4,16.3-6.8C154.7,119.2,152.3,110.6,144.5,100.9L144.5,100.9z M135.1,63.6c4.4,0,10.3,0.8,12.4,4.7
	c2.4,4.2,0,11.2-6.5,19.3c-1.4,1.6-2.9,3.3-4.4,4.9c-4.1-3.8-8.4-7.3-12.9-10.5c-0.5-5.5-1.4-11-2.6-16.4
	C125.7,64.4,130.4,63.7,135.1,63.6L135.1,63.6z M110,112.7c-3.2,1.9-6.5,3.6-9.9,5.1c-3.3-1.6-6.6-3.3-9.9-5.2
	c-3.3-1.9-6.5-3.9-9.5-5.9c-0.2-3.5-0.5-7.3-0.5-11.2c0-3.9,0.1-7.6,0.5-11.2c3-2.1,6-4,9.5-5.9c3.2-1.9,6.5-3.6,9.9-5.1
	c3.3,1.6,6.6,3.3,9.9,5.1c3.3,1.9,6.5,3.9,9.5,5.9c0.2,3.5,0.5,7.3,0.5,11.2c0,3.9-0.1,7.5-0.5,11.2
	C116.5,108.8,113.3,110.8,110,112.7L110,112.7z M119,112.4c-0.6,4.3-1.3,8.3-2.1,12.1c-3.9-1.2-7.8-2.6-11.5-4.2
	c2.3-1.1,4.6-2.4,6.8-3.8C114.6,115.1,116.7,113.8,119,112.4z M95,120.3c-3.8,1.6-7.6,3-11.5,4.2c-1-4-1.6-8-2.1-12.1
	c2.2,1.4,4.4,2.7,6.7,4.1L95,120.3z M76.3,103.4c-3.3-2.4-6.5-5.1-9.5-7.9c3-2.8,6.2-5.4,9.5-7.9c-0.1,2.6-0.2,5.1-0.2,7.9
	S76.1,100.9,76.3,103.4z M81.4,78.9c0.6-4.3,1.3-8.3,2.1-12.1C87.4,68,91.2,69.4,95,71c-2.3,1.1-4.6,2.4-7,3.8
	C85.6,76.1,83.6,77.4,81.4,78.9z M105.3,71c3.8-1.6,7.6-3,11.5-4.2c1,4,1.6,8,2.1,12.1c-2.2-1.4-4.4-2.7-6.7-4.1
	S107.6,72.1,105.3,71z M124.2,87.8c3.3,2.4,6.4,5,9.4,7.9c-2.9,2.6-6,5.2-9.4,7.9c0.1-2.5,0.2-5.1,0.2-7.9S124.3,90.4,124.2,87.8
	L124.2,87.8z M100.2,41c5.7,0,11.7,8,15.6,21.6c-5.3,1.6-10.6,3.6-15.6,5.9c-5.1-2.3-10.3-4.3-15.6-5.9C88.5,49,94.4,41,100.2,41
	L100.2,41z M52.9,68.3c2.3-3.9,8-4.7,12.4-4.7c4.7,0.1,9.4,0.7,14,1.9c-1.2,5.4-2.1,10.9-2.6,16.4c-4.5,3.2-8.8,6.7-12.9,10.5
	c-1.6-1.7-3.1-3.3-4.4-5C52.8,79.6,50.4,72.5,52.9,68.3L52.9,68.3z M65.3,127.6c-4.4,0-10.3-0.8-12.4-4.7c-2.9-5,1-14.1,10.8-24.3
	c4.1,3.8,8.4,7.3,13,10.5c0.5,5.5,1.4,11,2.6,16.4C74.8,126.8,70.1,127.5,65.3,127.6z M100.2,150.2c-5.7,0-11.7-8-15.6-21.6
	c5.3-1.6,10.6-3.6,15.6-5.9c5.1,2.3,10.3,4.3,15.6,5.9C112,142.2,105.9,150.2,100.2,150.2z M147.5,122.9c-2.3,3.9-8,4.7-12.4,4.7
	c-4.7-0.1-9.4-0.7-14-1.9c1.2-5.4,2.1-10.9,2.6-16.4c4.5-3.2,8.8-6.7,12.9-10.5c1.6,1.6,3.1,3.3,4.4,4.9
	C147.5,111.7,149.9,118.8,147.5,122.9L147.5,122.9z"/>
<path class="st0" d="M100.2,78.9c-9.2,0.1-16.6,7.6-16.5,16.8c0.1,9.2,7.6,16.6,16.8,16.5c9.2-0.1,16.5-7.5,16.5-16.6
	C116.9,86.3,109.4,78.9,100.2,78.9z M100.2,108c-6.8,0-12.3-5.5-12.3-12.3s5.5-12.3,12.3-12.3c6.8,0,12.3,5.5,12.3,12.3
	C112.5,102.4,107,107.9,100.2,108z"/>
</svg>
