<?xml version="1.0" encoding="utf-8"?>
<!-- Generator: Adobe Illustrator 22.1.0, SVG Export Plug-In . SVG Version: 6.00 Build 0)  -->
<svg version="1.0" id="Livello_1" xmlns="http://www.w3.org/2000/svg" xmlns:xlink="http://www.w3.org/1999/xlink" x="0px" y="0px"
	 viewBox="0 0 200 200" enable-background="new 0 0 200 200" xml:space="preserve">
<title>logo.DATA</title>
<desc>Created with Sketch.</desc>
<g id="Desktop-HD" transform="translate(-80.000000, -200.000000)">
	<g id="intro">
		<g id="logo.DATA" transform="translate(80.000000, 200.000000)">
			<g id="Clip-2">
			</g>
			<defs>
				<filter id="Adobe_OpacityMaskFilter" filterUnits="userSpaceOnUse" x="42.8" y="2.3" width="143.7" height="116.9">
					<feColorMatrix  type="matrix" values="1 0 0 0 0  0 1 0 0 0  0 0 1 0 0  0 0 0 1 0"/>
				</filter>
			</defs>
			<mask maskUnits="userSpaceOnUse" x="42.8" y="2.3" width="143.7" height="116.9" id="mask-2_1_">
				<g filter="url(#Adobe_OpacityMaskFilter)">
					<polygon id="path-1_1_" fill="#FFFFFF" points="42.8,2.3 186.5,2.3 186.5,119.2 42.8,119.2 					"/>
				</g>
			</mask>
			<path id="Fill-1" mask="url(#mask-2_1_)" fill="#70D463" d="M164.8,76.3l-9.2,5.2L50,20.8L73.5,7.5l105.6,60.8L164.8,76.3z
				 M186.4,68.2L186.4,68.2c0-0.9-0.5-1.6-1.2-2.1L74.7,2.6c-0.7-0.4-1.7-0.4-2.4,0L44,18.7c-0.7,0.4-1.2,1.2-1.2,2.1
				c0,0.9,0.5,1.7,1.2,2.1l26.7,15.4l4.8,2.9l77.7,44.5l0.1,26.9L75.7,68.1l-0.1,5.5l79,45.3c0.4,0.2,0.8,0.3,1.2,0.3
				c0.4,0,0.8-0.1,1.2-0.3h0l0,0l28.3-16.1l1.2-2.1L186.4,68.2z"/>
			<g id="Clip-5">
			</g>
			<defs>
				<filter id="Adobe_OpacityMaskFilter_1_" filterUnits="userSpaceOnUse" x="14.5" y="18.2" width="61.1" height="164.6">
					<feColorMatrix  type="matrix" values="1 0 0 0 0  0 1 0 0 0  0 0 1 0 0  0 0 0 1 0"/>
				</filter>
			</defs>
			<mask maskUnits="userSpaceOnUse" x="14.5" y="18.2" width="61.1" height="164.6" id="mask-4_1_">
				<g filter="url(#Adobe_OpacityMaskFilter_1_)">
					<polygon id="path-3_1_" fill="#FFFFFF" points="14.5,18.2 75.6,18.2 75.6,182.7 14.5,182.7 					"/>
				</g>
			</mask>
			<path id="Fill-4" mask="url(#mask-4_1_)" fill="#2470D4" d="M42.7,176.2l-23.4-13.6V41.1l11.1,6.5l12.2,7.1v94V176.2z M75.6,36.3
				c0-0.1,0-0.1-0.1-0.2c-0.1-0.1-0.1-0.3-0.2-0.4c0-0.1-0.1-0.1-0.1-0.2c-0.1-0.1-0.2-0.2-0.2-0.3c-0.1-0.1-0.1-0.1-0.2-0.2
				c-0.1-0.1-0.2-0.2-0.3-0.2L46.3,18.5c-0.7-0.4-1.7-0.4-2.4,0L15.7,34.8c-0.1,0.1-0.2,0.1-0.3,0.2c-0.1,0.1-0.2,0.1-0.2,0.2
				c-0.1,0.1-0.1,0.2-0.2,0.3c-0.1,0.1-0.1,0.1-0.2,0.2c-0.1,0.1-0.1,0.2-0.2,0.4c0,0.1-0.1,0.1-0.1,0.2c-0.1,0.2-0.1,0.4-0.1,0.6
				V164c0,0.9,0.5,1.6,1.2,2.1l28.2,16.4c0.4,0.2,0.8,0.3,1.2,0.3c0.4,0,0.8-0.1,1.2-0.3c0.7-0.4,1.2-1.2,1.2-2.1v-31.7v-94
				l10.6-6.2l12.7-7.4v91.2h4.8V36.9C75.6,36.7,75.6,36.5,75.6,36.3z"/>
			<path id="Fill-7" fill="#CED4E0" d="M186.4,100.9l-0.1,32c0,0.9-0.5,1.6-1.2,2.1L74.6,198.5c-0.4,0.2-0.8,0.3-1.2,0.3
				c-0.2,0-0.4,0-0.6-0.1c-0.1,0-0.1-0.1-0.2-0.1c-0.1,0-0.2-0.1-0.4-0.2l-28.3-16.1c-0.8-0.4-1.2-1.2-1.2-2.1l0.1-32.5
				c0-0.1,0-0.2,0-0.4c0-0.1,0-0.2,0-0.3c0-0.1,0.1-0.2,0.1-0.3c0-0.1,0.1-0.2,0.1-0.2c0.1-0.1,0.2-0.2,0.2-0.3
				c0-0.1,0.1-0.1,0.1-0.2c0.1-0.1,0.3-0.3,0.5-0.4c0,0,0,0,0,0l78.6-45.2l0.1,0.1l4.7,2.7L50,147.8l17.6,10l5.8,3.3l77.3-44.5
				l3.8,2.2c0.4,0.2,0.8,0.3,1.2,0.3c0.2,0,0.3,0,0.4-0.1l-80.3,46.2l-0.1,26.9l105.6-60.8l0.1-26.6l3.8-2.1L186.4,100.9z"/>
		</g>
	</g>
</g>
</svg>
