<svg xmlns="http://www.w3.org/2000/svg" version="1" viewBox="0 0 200 200"><linearGradient id="a" x1="131.696" x2="61.5114" y1="-8.2178" y2="184.5598" gradientTransform="matrix(1 0 0 -1 0 202)" gradientUnits="userSpaceOnUse"><stop offset="0" stop-color="#635bd7"/><stop offset="1" stop-color="#28d0fa"/></linearGradient><path fill="url(#a)" d="M169.2 194.9H31c-14.2.1-25.9-11.3-26-25.5V77c0-8.6 4.3-16.7 11.5-21.5l69.1-46c8.7-5.9 20.1-5.9 28.8 0l69.1 46.2c7.2 4.8 11.5 12.8 11.5 21.4v92.1c0 14.2-11.6 25.7-25.8 25.7z"/><linearGradient id="b" x1="143.4651" x2="84.0469" y1="99.6888" y2="-3.1991" gradientTransform="matrix(1 0 0 -1 0 202)" gradientUnits="userSpaceOnUse"><stop offset="0" stop-color="#3257b3"/><stop offset="1" stop-color="#504bc1"/></linearGradient><path fill="url(#b)" d="M169.2 194.9c-25.6-1.6-45.6-22.8-45.6-48.5 0-1.8.8-3.4 2.3-4.4 14.3-8.8 18.8-27.5 10.1-41.9-5.5-9-15.2-14.5-25.7-14.5H81.5c-7.2-.1-13.1 5.7-13.1 12.9V195h100.8v-.1z"/></svg>