<svg xmlns="http://www.w3.org/2000/svg" version="1" viewBox="0 0 200 200"><linearGradient id="a" x1="79.6826" x2="121.2304" y1="53.2953" y2="94.8431" gradientUnits="userSpaceOnUse"><stop offset="0" stop-color="#00c4d0"/><stop offset=".1559" stop-color="#00bfcc"/><stop offset=".3281" stop-color="#00b2c1"/><stop offset=".5083" stop-color="#009caf"/><stop offset=".6938" stop-color="#007d96"/><stop offset=".8818" stop-color="#005676"/><stop offset="1" stop-color="#00395e"/></linearGradient><path fill="url(#a)" d="M119.4 87.1c.5 2.7 1.3 5.1 2.3 7.3-7.5-1.4-13.8-1.9-17.4-1.1-4.7 1.1-9 4.1-12.7 7.7-2.2-10-5.4-20.1-9.2-29.9 2.3-3.3 4.4-7.1 6.2-11.4 3-7.2 4.9-14.3 5.8-21.1 5.1 7.1 11 13.6 17.7 17.7 4.9 3.1 9.6 5.5 14 7.5-5.3 6.3-8.5 14-6.7 23.3z"/><path fill="#00c4d0" d="M144.5 110.9c-10.7-2.3-22.3-8.4-25.1-23.8-2.1-11.3 3-20.2 10.2-27 7 15.1 12.9 32.4 14.9 50.8z"/><linearGradient id="b" x1="32.2134" x2="65.9219" y1="96.754" y2="84.4851" gradientUnits="userSpaceOnUse"><stop offset="0" stop-color="#00c4d0"/><stop offset=".1144" stop-color="#00b9c7"/><stop offset=".3168" stop-color="#009bae"/><stop offset=".5815" stop-color="#006b87"/><stop offset=".8227" stop-color="#00395e"/></linearGradient><path fill="url(#b)" d="M62.8 86.6c-2.4 16.1-13 26.4-22.4 32.6.9-20.2 6.7-39.4 14.2-56 5.7 4.6 9.9 11.9 8.2 23.4z"/><linearGradient id="c" x1="54.5707" x2="95.1541" y1="46.5276" y2="46.5276" gradientUnits="userSpaceOnUse"><stop offset="0" stop-color="#00c4d0"/><stop offset=".1136" stop-color="#00becb"/><stop offset=".2632" stop-color="#00aebe"/><stop offset=".433" stop-color="#0092a7"/><stop offset=".6176" stop-color="#006c88"/><stop offset=".8122" stop-color="#003c60"/><stop offset=".8227" stop-color="#00395e"/></linearGradient><path fill="url(#c)" d="M88.5 59.7c-6.4 15.2-15.9 23.7-26 28.1.1-.4.1-.8.2-1.2 1.7-11.5-2.4-18.8-8.2-23.4C68.8 31.5 88.9 8.9 92.3 5.3c4 15.4 4.7 34.3-3.8 54.4z"/><linearGradient id="d" x1="84.2648" x2="130.4589" y1="13.2352" y2="59.4293" gradientUnits="userSpaceOnUse"><stop offset="0" stop-color="#00a5b7"/><stop offset=".1535" stop-color="#00a7b2"/><stop offset=".3338" stop-color="#00aca4"/><stop offset=".4632" stop-color="#00b195"/><stop offset="1" stop-color="#0092b3"/></linearGradient><path fill="url(#d)" d="M129.5 60.1c-1.2 1.2-2.4 2.4-3.5 3.7-4.3-2-9-4.5-14-7.5-6.7-4.1-12.6-10.6-17.7-17.7 1.7-12.1.4-23.4-2.1-33.3l.5-.5s21.4 22.3 36.8 55.3z"/><linearGradient id="e" x1="48.8206" x2="107.7905" y1="103.5007" y2="142.8492" gradientUnits="userSpaceOnUse"><stop offset=".0253" stop-color="#00c4d0"/><stop offset=".1361" stop-color="#00b9c7"/><stop offset=".3324" stop-color="#009bae"/><stop offset=".5889" stop-color="#006b87"/><stop offset=".8227" stop-color="#00395e"/></linearGradient><path fill="url(#e)" d="M74.9 175.7l-10.5-11.2c6.7-43.7-24.1-44.3-24.1-44.3v-1c9.2-6 19.5-16.1 22.2-31.4 7.2-3.2 14.1-8.4 19.8-16.7 5.8 15 10.3 30.8 11.8 45.7 2.6 25.2-7.5 44.9-19.2 58.9z"/><linearGradient id="f" x1="79.8788" x2="102.3672" y1="181.8788" y2="159.3903" gradientUnits="userSpaceOnUse"><stop offset="0" stop-color="#00b195"/><stop offset=".5065" stop-color="#00a5b7"/><stop offset=".5629" stop-color="#00a0b3"/><stop offset=".6291" stop-color="#0092a7"/><stop offset=".7005" stop-color="#007a94"/><stop offset=".7754" stop-color="#005979"/><stop offset=".8522" stop-color="#002f56"/><stop offset=".9191" stop-color="#000433"/></linearGradient><path fill="url(#f)" d="M112.8 173.3l-20.1 21.4-17.8-19.1c7.1-8.5 13.6-19 17-31.6 1.8 5.5 4 10.4 6.7 14.2 4 5.7 9.1 10.8 14.2 15.1z"/><linearGradient id="g" x1="83.7453" x2="133.3551" y1="114.5359" y2="143.1781" gradientUnits="userSpaceOnUse"><stop offset="0" stop-color="#00c4d0"/><stop offset="1" stop-color="#0089a7"/></linearGradient><path fill="url(#g)" d="M121.1 164.5l-8.3 8.8c-5.1-4.3-10.2-9.4-14.2-15-2.7-3.8-4.9-8.8-6.7-14.2 2.3-8.2 3.2-17.3 2.2-27.2-.5-5.2-1.4-10.5-2.6-15.8 3.7-3.6 8-6.6 12.7-7.7 3.6-.8 9.9-.2 17.4 1.1 4.6 10.2 14 14.6 22.8 16.5.3 3.1.6 6.1.7 9.3.1-.1-30.8.5-24 44.2z"/></svg>