<svg xmlns="http://www.w3.org/2000/svg" id="Livello_1" x="0" y="0" version="1.1" viewBox="0 0 184.2 183.2" xml:space="preserve"><style>.st0{fill:#fff}.st1{fill:#ef6950}</style><path d="M68.3 150.5c-1.7 0-3.4-.4-5-1.2L5.9 119.6C2.3 117.7 0 114 0 109.9V60.7c0-4.2 2.4-8 6.2-9.8L110.7 1.1c2.9-1.4 6.3-1.4 9.2-.1l57.9 26.5c3.9 1.8 6.4 5.7 6.4 9.9v46.4c0 4-2.2 7.7-5.8 9.6l-105 55.8c-1.6.9-3.3 1.3-5.1 1.3zm-46.5-47.2l46.4 24 94.2-50.1V44.4l-46.9-21.5-93.7 44.7v35.7z"/><path d="M132.5 183.2c-26.6 0-47.4-15.7-47.4-35.8v-27.5c0-20.1 20.8-35.8 47.4-35.8 15 0 29.2 5.3 38 14.2 6.2 6.2 9.4 13.7 9.4 21.7v27.4c0 20.1-20.8 35.8-47.4 35.8z"/><path d="M173.3 37.4l-.1 46.4-104.9 55.8-57.4-29.7V60.7z" class="st0"/><path d="M115.4 10.9L10.9 60.7l57.4 25 105-48.3-57.9-26.5z" class="st1"/><path fill="#f03a17" d="M173.3 37.4v15.2L71.5 101.9c-1.9.9-4.1 1-6.1.3l-28-13L10.9 77V60.7l54.4 23.7c1.9.8 4.2.8 6.1-.1l101.9-46.9z"/><path fill="#2b2b2b" d="M94 118.9c0-14.1 17.2-25.5 38.5-25.5s38.5 11.4 38.5 25.5v28.9c0 14.1-17.2 25.5-38.5 25.5S94 161.9 94 147.8v-28.9z"/><ellipse cx="132.5" cy="119.9" class="st0" rx="36.5" ry="24.9"/><path d="M132.5 108.3c-9.4 0-17 5.2-17 11.6s7.6 11.6 17 11.6v-23.2z" class="st1"/><path fill="#bad80a" d="M132.5 108.3v23.2c9.4 0 17-5.2 17-11.6s-7.6-11.6-17-11.6z"/><path fill="#ee9889" d="M51.9 72.2c-.6 0-1.1-.5-1.1-1.1V49.9c0-.6.5-1.1 1.1-1.1s1.1.5 1.1 1.1v21.2c-.1.6-.5 1.1-1.1 1.1zm75.4-24.4c-.6 0-1.1-.5-1.1-1.1V25.5c0-.6.5-1.1 1.1-1.1s1.1.5 1.1 1.1v21.2c0 .6-.5 1.1-1.1 1.1zM80 71.4c-.6 0-1.1-.5-1.1-1.1v-33c0-.6.5-1.1 1.1-1.1s1.1.5 1.1 1.1v33c-.1.7-.5 1.1-1.1 1.1zm21.2-9.8c-.6 0-1.1-.5-1.1-1.1v-33c0-.6.5-1.1 1.1-1.1s1.1.5 1.1 1.1v33c0 .6-.5 1.1-1.1 1.1z"/></svg>