<svg xmlns="http://www.w3.org/2000/svg" version="1" viewBox="0 0 200 200"><path fill="#6A4DA0" d="M100 11.54l-76.04 43.9v87.8l76.04 43.9 76.04-43.9v-87.8L100 11.54zm39.98 62.38l-37.33-21.55V23.81l62.1 35.86-24.77 14.25zM97.34 95.4L65.16 76.89l32.18-18.58V95.4zm-2.67 4.6l-31.53 18.15v-36.3L94.67 100zm2.67 4.6v35.77l-31.03-17.91 31.03-17.86zm5.32 0l31.03 17.86-31.03 17.91V104.6zm2.67-4.6l31.53-18.15v36.29L105.33 100zm-2.67-4.6V58.3l32.18 18.58-32.18 18.52zm-5.32-43.03L60.02 73.92 35.24 59.67l62.1-35.86v28.56zM58 78.9v42.21l-24.74 14.24V64.66L58 78.9zm3.17 46.51l36.17 20.89v28.56l-60.95-35.19 24.78-14.26zm41.49 20.89l36.17-20.89 24.78 14.26-60.95 35.19V146.3zM142 121.1V78.9l24.74-14.23v70.68L142 121.1z"/><circle cx="100" cy="99.34" r="9.3" fill="#6EC386" stroke="#000" stroke-miterlimit="10"/><circle cx="28.25" cy="141.85" r="13.29" fill="#28C4F0" stroke="#000" stroke-miterlimit="10"/><circle cx="139.86" cy="78.08" r="9.3" fill="#6EC386" stroke="#000" stroke-miterlimit="10"/><circle cx="62.8" cy="78.08" r="9.3" fill="#6EC386" stroke="#000" stroke-miterlimit="10"/><circle cx="28.25" cy="59.48" r="13.29" fill="#EF4654" stroke="#000" stroke-miterlimit="10"/><circle cx="171.75" cy="141.85" r="13.29" fill="#28C4F0" stroke="#000" stroke-miterlimit="10"/><circle cx="171.75" cy="59.48" r="13.29" fill="#EF4654" stroke="#000" stroke-miterlimit="10"/><circle cx="100" cy="18.29" r="13.29" fill="#28C4F0" stroke="#000" stroke-miterlimit="10"/><circle cx="100" cy="181.71" r="13.29" fill="#EF4654" stroke="#000" stroke-miterlimit="10"/><circle cx="100" cy="143.18" r="9.3" fill="#6EC386" stroke="#000" stroke-miterlimit="10"/></svg>