<?xml version="1.0" encoding="utf-8"?>
<!-- Generator: Adobe Illustrator 22.1.0, SVG Export Plug-In . SVG Version: 6.00 Build 0)  -->
<svg version="1.0" id="Livello_1" xmlns="http://www.w3.org/2000/svg" xmlns:xlink="http://www.w3.org/1999/xlink" x="0px" y="0px"
	 viewBox="0 0 200 200" enable-background="new 0 0 200 200" xml:space="preserve">
<path fill="#00838D" d="M4.4,31.5l8.3,18.8c0,0,24.4-0.9,39.3,15c3.5,3.7,6.6,6.7,9.3,12.5c1.3,2.7,3.6,7.7,3.6,10.9l-14.7-0.2
	L41.9,108c0,0-0.3,0.9,7.5,1.4s15.5,0.1,15.5,0.1s-6.2,35.5-51.4,37.1L5.2,166c0,0,17.5,2.7,36.3-3.6c21.1-7.2,44.1-24.9,48.4-52.9
	h18.3c0,0,1.5,15.3,13.7,29.8c13.9,16.5,40.3,32.3,71.7,26.7l-8.3-19.2c0,0-42.3,2.5-54.5-37.3l14.3,0l8.4-19.4c0,0-3.4-1.4-7.4-1.4
	s-15.4,0-15.4,0s7.3-37.1,55-37.8l8.8-19.3c0,0-11.3-2.3-26.5,0.7c-22.1,4.3-51.8,18.5-59.9,56.4H89.9c0,0-0.8-15.9-14.5-31.5
	C61.5,41.6,35.1,26.5,4.4,31.5z"/>
</svg>
