<svg xmlns="http://www.w3.org/2000/svg" viewBox="0 0 200 200"><linearGradient id="a" x1="82.7" x2="82.7" y1="5" y2="195" gradientTransform="matrix(1 0 0 -1 0 200)" gradientUnits="userSpaceOnUse"><stop offset="0" stop-color="#966fe7"/><stop offset="1" stop-color="#00d18f"/></linearGradient><path fill="url(#a)" d="M140.4 153.4c-11.2 8.5-25.3 13.6-40.4 13.6-36.9 0-67-30.1-67-67s30.1-67 67-67c14.6 0 28.2 4.7 39.2 12.7l19.6-20.4C142.6 12.6 122.2 5 100 5 47.5 5 5 47.5 5 100s42.5 95 95 95c22.9 0 44-8.1 60.4-21.6l-20-20z"/><path fill="#283947" fill-rule="evenodd" d="M97 84.1l-21 34.5 8.3-4.8s0-.1.1-.1L97 93.2v-9.1zm23.4 39.2H80l7.5-4.4H112.9l7.5 4.4zm3.3-5.1L103 84.1v9.1l12.4 20.1 8.3 4.9zM103 72.3c-1.4-2.2-4.6-2.2-6 0l-31.5 51.9c-1.4 2.3.3 5.3 3 5.3h63c2.7 0 4.4-3 3-5.3L103 72.3zm-3 27.6l-8 13h16l-8-13z" clip-rule="evenodd"/></svg>