<?xml version="1.0" encoding="utf-8"?>
<!-- Generator: Adobe Illustrator 22.1.0, SVG Export Plug-In . SVG Version: 6.00 Build 0)  -->
<svg version="1.0" id="Livello_1" xmlns="http://www.w3.org/2000/svg" xmlns:xlink="http://www.w3.org/1999/xlink" x="0px" y="0px"
	 viewBox="0 0 200 200" enable-background="new 0 0 200 200" xml:space="preserve">
<path d="M132.5,81.5h19.4l20.9,36.2l-20.9,36.2h-41.8l-9.4-16.3l-11.1-19.2l-0.4-0.7l20.9-36.2h0.2H132.5z M99.2,62.3H99l-32,55.4
	l0.4,0.7l11.1,19.2L99,173.1h64l32-55.4l-32-55.4h-41.6H99.2z"/>
<linearGradient id="SVGID_1_" gradientUnits="userSpaceOnUse" x1="12.4835" y1="61.7099" x2="125.4636" y2="102.8313">
	<stop  offset="0.8183" style="stop-color:#FFE100"/>
	<stop  offset="0.8732" style="stop-color:#FFD800"/>
	<stop  offset="0.962" style="stop-color:#FFC000"/>
	<stop  offset="1" style="stop-color:#FFB400"/>
</linearGradient>
<path fill="url(#SVGID_1_)" d="M132.5,81.5h-22.2l0.4,0.7l-20.9,36.2H48.1L27.2,82.3l20.9-36.2h41.8l9.4,16.3h22.2L101,26.9H37
	L5,82.3l32,55.4h64l32-55.4L132.5,81.5z"/>
</svg>
