<svg xmlns="http://www.w3.org/2000/svg" version="1" viewBox="0 0 200 200"><radialGradient id="a" cx="100" cy="100" r="95" gradientUnits="userSpaceOnUse"><stop offset="0" stop-color="#f2c864"/><stop offset=".5" stop-color="#fff"/><stop offset="1" stop-color="#f2c864"/></radialGradient><path fill="url(#a)" d="M140.8 14.2c-5.2-2.5-10.6-4.5-16.2-5.9C116.8 6.1 108.5 5 100 5 47.5 5 5 47.5 5 100c0 3.8.2 7.6.7 11.3.7 5.8 1.9 11.5 3.6 16.9 5.2 16.9 15.1 31.8 28 43.2 4.3 3.8 9 7.2 13.9 10.2 14.3 8.5 31 13.4 48.8 13.4 5.5 0 10.9-.5 16.2-1.4 5.6-1 11-2.4 16.2-4.3 36.5-13.2 62.6-48.2 62.6-89.3 0-37.9-22.1-70.5-54.2-85.8zm-13.5 161.2c-4.4 1.6-9 2.8-13.7 3.6-4.4.8-9 1.2-13.7 1.2-15 0-29.1-4.1-41.2-11.4-4.2-2.5-8.1-5.4-11.8-8.6-10.9-9.6-19.2-22.2-23.7-36.5-1.4-4.6-2.4-9.3-3-14.3-.4-3.1-.6-6.3-.6-9.5 0-44.3 35.9-80.2 80.2-80.2 7.2 0 14.1.9 20.8 2.7 4.7 1.3 9.3 2.9 13.7 5 27 12.9 45.7 40.5 45.7 72.4.2 34.9-21.9 64.4-52.7 75.6z"/><linearGradient id="b" x1="43.4311" x2="156.567" y1="156.5681" y2="43.4323" gradientUnits="userSpaceOnUse"><stop offset="0" stop-color="#c3072c"/><stop offset=".5" stop-color="#fd6790"/><stop offset="1" stop-color="#c3072c"/></linearGradient><path fill="url(#b)" d="M134.4 27.7c-4.3-2.1-8.9-3.8-13.6-5C114.1 21 107.2 20 100 20c-44.2 0-80 35.8-80 80 0 3.2.2 6.4.6 9.5.6 4.9 1.6 9.7 3 14.2 4.4 14.3 12.7 26.8 23.6 36.4 3.6 3.2 7.6 6.1 11.7 8.6C70.9 175.9 85 180 100 180c4.7 0 9.2-.4 13.6-1.2 4.7-.8 9.3-2 13.6-3.6C158 164.1 180 134.6 180 100c0-31.9-18.7-59.4-45.6-72.3zM123 163.5c-3.7 1.4-7.5 2.4-11.5 3-3.7.7-7.6 1-11.5 1-12.7 0-24.5-3.5-34.7-9.6-3.5-2.1-6.8-4.5-9.9-7.2-9.2-8.1-16.2-18.7-19.9-30.7-1.2-3.9-2.1-7.9-2.6-12-.3-2.6-.5-5.3-.5-8 0-37.3 30.2-67.5 67.5-67.5 6 0 11.9.8 17.5 2.3 4 1.1 7.8 2.5 11.5 4.2 22.8 10.8 38.5 34.1 38.5 61 .1 29.2-18.4 54.1-44.4 63.5z"/><linearGradient id="c" x1="42.727" x2="157.2815" y1="157.2789" y2="42.7244" gradientUnits="userSpaceOnUse"><stop offset="0" stop-color="#533c19"/><stop offset=".5" stop-color="#f2d173"/><stop offset="1" stop-color="#533c19"/></linearGradient><path fill="url(#c)" d="M100 20c7.2 0 14.1 1 20.7 2.7 4.7 1.3 9.3 2.9 13.6 5 27 12.8 45.6 40.4 45.6 72.3 0 34.6-22 64.1-52.7 75.2-4.4 1.6-8.9 2.8-13.6 3.6-4.4.8-9 1.2-13.6 1.2-15 0-29.1-4.1-41.1-11.3-4.2-2.5-8.1-5.4-11.7-8.6-10.9-9.6-19.2-22.1-23.6-36.4-1.4-4.6-2.4-9.3-3-14.2-.4-3.1-.6-6.3-.6-9.5 0-44.2 35.8-80 80-80m0 147.5c3.9 0 7.8-.3 11.5-1 4-.7 7.8-1.7 11.5-3 26-9.4 44.5-34.3 44.5-63.5 0-26.9-15.7-50.1-38.5-61-3.7-1.8-7.5-3.2-11.5-4.2-5.6-1.5-11.4-2.3-17.5-2.3-37.3 0-67.5 30.2-67.5 67.5 0 2.7.2 5.4.5 8 .5 4.1 1.4 8.1 2.6 12 3.7 12 10.7 22.6 19.9 30.7 3.1 2.7 6.4 5.1 9.9 7.2 10.1 6.1 21.9 9.6 34.6 9.6M100 19c-44.7 0-81 36.3-81 81 0 3.2.2 6.4.6 9.6.6 4.9 1.6 9.7 3.1 14.4 4.4 14.2 12.7 27 23.9 36.8 3.7 3.2 7.7 6.2 11.9 8.7C70.9 177 85.3 181 100 181c4.7 0 9.3-.4 13.8-1.2 4.8-.8 9.4-2.1 13.8-3.7C159.5 164.6 181 134 181 100c0-15.6-4.4-30.8-12.9-43.8-8.2-12.7-19.7-22.9-33.4-29.4-4.4-2.1-9.1-3.8-13.8-5.1-6.7-1.8-13.8-2.7-20.9-2.7zm0 147.5c-12.1 0-23.9-3.3-34.1-9.4-3.4-2.1-6.7-4.5-9.8-7.1-9.2-8.1-16-18.6-19.6-30.2-1.2-3.8-2-7.8-2.5-11.8-.3-2.6-.5-5.2-.5-7.9 0-36.7 29.8-66.5 66.5-66.5 5.8 0 11.6.8 17.2 2.3 3.9 1 7.7 2.4 11.3 4.2 23 11 37.9 34.6 37.9 60.1 0 27.9-17.6 53-43.8 62.5-3.6 1.3-7.4 2.3-11.3 3-3.7.5-7.5.8-11.3.8z"/><linearGradient id="d" x1="52.2694" x2="147.7275" y1="147.7288" y2="52.2706" gradientUnits="userSpaceOnUse"><stop offset="0" stop-color="#f2d173"/><stop offset=".5" stop-color="#fff"/><stop offset="1" stop-color="#f2d173"/></linearGradient><path fill="url(#d)" d="M167.5 100c0 29.2-18.5 54.1-44.5 63.5-3.7 1.4-7.5 2.4-11.5 3-3.7.7-7.6 1-11.5 1-12.7 0-24.5-3.5-34.7-9.6-3.5-2.1-6.8-4.5-9.9-7.2-9.2-8.1-16.2-18.7-19.9-30.7-1.2-3.9-2.1-7.9-2.6-12-.3-2.6-.5-5.3-.5-8 0-37.3 30.2-67.5 67.5-67.5 6 0 11.9.8 17.5 2.3 4 1.1 7.8 2.5 11.5 4.2 22.9 10.9 38.6 34.1 38.6 61z"/><linearGradient id="e" x1="51.5657" x2="148.4419" y1="148.44" y2="51.5638" gradientUnits="userSpaceOnUse"><stop offset="0" stop-color="#533c19"/><stop offset=".5" stop-color="#f2d173"/><stop offset="1" stop-color="#533c19"/></linearGradient><path fill="url(#e)" d="M100 32.5c6 0 11.9.8 17.5 2.3 4 1.1 7.8 2.5 11.5 4.2 22.8 10.8 38.5 34.1 38.5 61 0 29.2-18.5 54.1-44.5 63.5-3.7 1.4-7.5 2.4-11.5 3-3.7.7-7.6 1-11.5 1-12.7 0-24.5-3.5-34.7-9.6-3.5-2.1-6.8-4.5-9.9-7.2-9.2-8.1-16.2-18.7-19.9-30.7-1.2-3.9-2.1-7.9-2.6-12-.3-2.6-.5-5.3-.5-8 .1-37.3 30.3-67.5 67.6-67.5m0-1c-37.8 0-68.5 30.7-68.5 68.5 0 2.7.2 5.4.5 8.1.5 4.1 1.4 8.2 2.6 12.2 3.7 12 10.7 22.8 20.2 31.2 3.1 2.7 6.5 5.2 10 7.3 10.6 6.4 22.7 9.7 35.2 9.7 3.9 0 7.9-.3 11.7-1 4-.7 7.9-1.7 11.7-3.1 27-9.8 45.2-35.7 45.2-64.4 0-13.2-3.8-26-10.9-37-6.9-10.8-16.7-19.3-28.2-24.8-3.7-1.8-7.7-3.2-11.7-4.3-5.8-1.6-11.8-2.4-17.8-2.4z"/><linearGradient id="f" x1="81.33" x2="125.05" y1="74.375" y2="74.375" gradientUnits="userSpaceOnUse"><stop offset="0" stop-color="#ffe9b8"/><stop offset="1" stop-color="#cb8f31"/></linearGradient><path fill="url(#f)" d="M125 37.3l-40.3 75.2h-3.4l40.9-76.3c1 .4 1.9.7 2.8 1.1z"/><linearGradient id="g" x1="60.3278" x2="81.8014" y1="154.841" y2="114.793" gradientUnits="userSpaceOnUse"><stop offset="0" stop-color="#cb8f31"/><stop offset="1" stop-color="#ffe9b8"/></linearGradient><path fill="url(#g)" d="M83.1 115.5l-21.5 40c-.8-.6-1.7-1.2-2.5-1.8l20.5-38.3h3.5z"/><path fill="#D00048" d="M83.1 115.5H34.3l1.2 4.5h36l-16.1 30.7c1.2 1.1 2.5 2.1 3.8 3.1L77.3 120h3.4l-19.1 35.5c1.2.8 2.4 1.6 3.7 2.4L85.5 120h26v46.5c4-.7 7.8-1.7 11.5-3v-48H83.1zM125 37.3L87.1 108h-3.4l38.5-71.8c-1.5-.5-3.1-1-4.7-1.5L78 108H33c.2 1.5.4 3 .7 4.5H123V51l6-12c-1.3-.6-2.6-1.2-4-1.7zM111 108H92l19-34v34z"/><linearGradient id="h" x1="33.66" x2="123" y1="114" y2="114" gradientUnits="userSpaceOnUse"><stop offset="0" stop-color="#cb8f31"/><stop offset=".5" stop-color="#ffe9b8"/><stop offset="1" stop-color="#cb8f31"/></linearGradient><path fill="url(#h)" d="M92 112.5H33.7l.6 3H123v-3H92z"/></svg>