<svg xmlns="http://www.w3.org/2000/svg" viewBox="0 0 200 200"><linearGradient id="a" x1=".2526" x2=".0364" y1="199.987" y2="199.7321" gradientTransform="matrix(560.0001 0 0 -560.001 20.0009 112020.1953)" gradientUnits="userSpaceOnUse"><stop offset="0" stop-color="#b6509e"/><stop offset="1" stop-color="#2ebac6"/></linearGradient><path fill="url(#a)" d="M100 195c-67.4.4-114-70.1-87.4-132.1 33-77.2 141.8-77.2 174.9 0 26.5 62-20.1 132.5-87.5 132.1zm0-180C39.8 14.6-1.8 77.5 21.9 133c29.5 68.9 126.6 68.9 156.1 0 23.7-55.5-17.8-118.4-78-118z"/><path fill="#231815" d="M139.8 125.3c5.3 7.1 10.7 14.4 16.1 21.6-10.9 12.9-24.4 21.1-40.7 24.6-18.1 3.8-35.2 1-51.8-8.2 14.8-11.1 29.3-21.9 43.9-32.8 3.3 3.1 6.4 6.3 9.5 9.2 3.5 3.3 2.1 3.5 6.6 1 6-3.5 11.2-8.3 15.1-14 .2-.3.5-.7.7-1-.1-.1.1-.1.6-.4zm-64.7 14.5c-4.1 3.1-7.9 5.9-11.7 8.9-2.8 2.1-5.6 4.1-8.4 6.3-1.2 1-2 1-3.3-.2-12.5-11.2-20.4-25.1-23.4-41.6-3-16.7-.3-32.5 7.6-47.5.2-.3.5-.8.7-1.2 0-.2.2-.2.5-.3C47.9 78.6 58.9 93 69.8 107.3c-.2.4-.5.8-.8 1.2-3.3 3.5-6.6 6.9-10 10.2-1 1-1.2 1.8-.5 3 3.4 6.5 8.3 12.1 14.2 16.5.7.5 1.4 1 2.4 1.6zm61.4-102.4c-5.3 3.8-10.5 7.6-15.8 11.2-9.1 6.4-18.1 13-27 19.5-1.2.8-2 1-3-.2-3-3.1-6.1-5.9-9.1-9.1-.8-.8-1.6-1-2.8-.5-7.1 3.6-12.7 8.7-17.3 15.2-.4.4-.7.9-1 1.3-2.6-3.5-5.1-6.6-7.6-9.9-2.6-3.5-5.1-6.9-7.6-10.2-.8-1.2-1-2 .2-3.1 12.7-14 28.3-22.3 47.1-24.3 14.8-1.6 29 1.3 42.1 8.4.5.3 1 .5 1.5.8.1.6.1.7.3.9zm26.8 99c-3.5-4.5-6.6-8.6-9.7-12.7-7.2-9.6-14.5-19.3-21.9-28.9-1-1.3-1-2.1.2-3.3 3.1-3.1 6.1-6.3 9.2-9.4.8-.8 1.2-1.6.5-2.8-3.6-6.9-8.7-12.8-15-17.3-.5-.4-1.1-.8-1.6-1.2.5-.5 1-.8 1.3-1.2 6.3-4.8 12.5-9.4 18.8-14.2 1-.8 1.8-1.2 3 0 15.6 14.2 24 31.8 24.9 53.1.3 12.4-2.5 24.1-8.1 35.1-.7.9-1.2 1.8-1.6 2.8z"/></svg>