<svg xmlns="http://www.w3.org/2000/svg" version="1" viewBox="0 0 200 200"><linearGradient id="a" x1="179.9583" x2="179.9583" y1="140.155" y2="58.6793" gradientUnits="userSpaceOnUse"><stop offset=".0016" stop-color="#c98220"/><stop offset="1" stop-color="#ffcd42"/></linearGradient><path fill="url(#a)" d="M177.45 58.68h5.01v81.48h-5.01z"/><linearGradient id="b" x1="192.4931" x2="192.4931" y1="140.155" y2="58.6793" gradientUnits="userSpaceOnUse"><stop offset=".0016" stop-color="#c98220"/><stop offset="1" stop-color="#ffcd42"/></linearGradient><path fill="url(#b)" d="M189.99 58.68H195v81.48h-5.01z"/><linearGradient id="c" x1="38.8438" x2="38.8438" y1="128.5102" y2="58.6793" gradientUnits="userSpaceOnUse"><stop offset=".0016" stop-color="#c98220"/><stop offset="1" stop-color="#ffcd42"/></linearGradient><path fill="url(#c)" d="M67.67 58.68L45.74 99.42 23.8 58.68h-5.01l24.44 45.39-4.39 8.15-28.83-53.54H5l31.34 58.2-1.26 2.33v9.3l3.76-6.98 2.51-4.65 4.39-8.15 2.5-4.66 24.45-45.39z"/><linearGradient id="d" x1="62.033" x2="62.033" y1="140.155" y2="58.6793" gradientUnits="userSpaceOnUse"><stop offset=".0016" stop-color="#c98220"/><stop offset="1" stop-color="#ffcd42"/></linearGradient><path fill="url(#d)" d="M86.48 58.68h-5.02l-43.87 81.47h5.01l6.27-11.63v11.63h5.02V119.2z"/><linearGradient id="e" x1="126.3125" x2="126.3125" y1="141.3207" y2="58.767" gradientUnits="userSpaceOnUse"><stop offset=".0016" stop-color="#c98220"/><stop offset="1" stop-color="#ffcd42"/></linearGradient><path fill="url(#e)" d="M123.62 63.81v-5.04c-21.6 1.39-38.67 19.33-38.67 41.28s17.07 39.89 38.67 41.28v-5.04c-18.79-1.37-33.66-17.1-33.66-36.24 0-19.15 14.87-34.88 33.66-36.24zm5.39-5.04v5.04c18.79 1.37 33.66 17.1 33.66 36.24s-14.87 34.87-33.66 36.24v5.04c21.6-1.39 38.67-19.33 38.67-41.28s-17.08-39.89-38.67-41.28z"/><linearGradient id="f" x1="126.3125" x2="126.3125" y1="128.1091" y2="71.9786" gradientUnits="userSpaceOnUse"><stop offset=".0016" stop-color="#c98220"/><stop offset="1" stop-color="#ffcd42"/></linearGradient><path fill="url(#f)" d="M129.01 71.98v5.04c11.52 1.33 20.49 11.16 20.49 23.03 0 11.87-8.97 21.7-20.49 23.03v5.04c14.31-1.34 25.51-13.4 25.51-28.07s-11.2-26.73-25.51-28.07zm-5.39 5.04v-5.04c-14.31 1.34-25.51 13.4-25.51 28.07s11.19 26.72 25.51 28.07v-5.04c-11.52-1.33-20.49-11.16-20.49-23.03-.01-11.88 8.97-21.7 20.49-23.03z"/></svg>