<svg xmlns="http://www.w3.org/2000/svg" version="1" viewBox="0 0 200 200"><path fill="#32669D" d="M145.93 131.9L108.64 195l13.43-78.69z"/><path fill="#37ABD6" d="M171.97 148.94L108.64 195l37.29-63.1z"/><path fill="#32669D" d="M183.48 62.58l-75.04-4.74L97.12 5z"/><path fill="#37ABD6" d="M183.48 62.58l-63.33 49.89-11.71-54.63z"/><path fill="#354977" d="M108.44 57.84l-76.57-4.86L97.12 5z"/><path fill="#3C97C4" d="M120.15 112.47L31.87 52.98l76.57 4.86zM102.88 195l-86.36-59.49 49.43-9.5z"/><path fill="#3A4C79" d="M116.31 116.31L102.88 195l-36.93-68.99z"/><path fill="#37ABD6" d="M65.95 126.01l-49.43 9.5 13.43-76.77z"/><path fill="#32669D" d="M116.31 116.31l-50.36 9.7-36-67.27z"/><path fill="#3291C2" d="M183.48 68.33l-11.51 80.61-26.04-17.04z"/><path fill="#384A76" d="M183.48 68.33l-37.55 63.57-23.86-15.59z"/></svg>