<svg xmlns="http://www.w3.org/2000/svg" id="Livello_1" x="0" y="0" version="1.1" viewBox="0 0 200 200" xml:space="preserve"><style>.st3{fill-rule:evenodd;clip-rule:evenodd;fill:#fff}.st8{fill:#ffc95b}</style><linearGradient id="SVGID_1_" x1=".2526" x2=".0364" y1="199.987" y2="199.7321" gradientTransform="matrix(560.0001 0 0 -560.001 20.0009 112020.1953)" gradientUnits="userSpaceOnUse"><stop offset="0" stop-color="#b6509e"/><stop offset="1" stop-color="#2ebac6"/></linearGradient><path fill="url(#SVGID_1_)" d="M100 195c-67.4.4-114-70.1-87.4-132.1 33-77.2 141.8-77.2 174.9 0 26.5 62-20.1 132.5-87.5 132.1zm0-180C39.8 14.6-1.8 77.5 21.9 133c29.5 68.9 126.6 68.9 156.1 0 23.7-55.5-17.8-118.4-78-118z"/><linearGradient id="SVGID_2_" x1=".1549" x2="-.0855" y1="200.0852" y2="199.8448" gradientTransform="matrix(430 0 0 -430 85 86085)" gradientUnits="userSpaceOnUse"><stop offset="0" stop-color="#ff2d55"/><stop offset="1" stop-color="#ffbc5b"/></linearGradient><circle cx="100" cy="100" r="73" fill="url(#SVGID_2_)"/><linearGradient id="SVGID_3_" x1="-1.011" x2="-1.011" y1="200.9324" y2="200.5929" gradientTransform="matrix(134.253 0 0 -161.1 237.189 32444.625)" gradientUnits="userSpaceOnUse"><stop offset="0" stop-color="#a524b3"/><stop offset="1" stop-color="#ff2d55"/></linearGradient><path fill="url(#SVGID_3_)" fill-rule="evenodd" d="M78.7 74.4v54.7h45.6L78.7 74.4z" clip-rule="evenodd"/><path d="M33.1 129.1h45.6V74.4l-45.6 54.7z" class="st3"/><path fill="#fc9965" fill-rule="evenodd" d="M41.6 143.7c4.2 5.5 9.1 10.4 14.6 14.6h87.5c5.5-4.2 10.4-9.1 14.6-14.6H41.6z" clip-rule="evenodd"/><path fill="#ff2d55" fill-rule="evenodd" d="M56.2 158.3c25.9 19.4 61.6 19.4 87.5 0H56.2z" clip-rule="evenodd"/><linearGradient id="SVGID_4_" x1="-2.3516" x2="-2.3516" y1="201.7518" y2="201.4123" gradientTransform="matrix(98.488 0 0 -118.143 373.161 23939.1445)" gradientUnits="userSpaceOnUse"><stop offset="0" stop-color="#a524b3"/><stop offset="1" stop-color="#ff2d55"/></linearGradient><path fill="url(#SVGID_4_)" fill-rule="evenodd" d="M124.8 103.6v40.1h33.4l-33.4-40.1z" clip-rule="evenodd"/><path fill="#ffbc5b" fill-rule="evenodd" d="M124.8 129.1H33.1c2.3 5.2 5.1 10.1 8.5 14.6h83.3l-.1-14.6z" clip-rule="evenodd"/><path d="M91.4 143.7h33.4v-40.1l-33.4 40.1z" class="st3"/><circle cx="124.8" cy="74.4" r="18.2" class="st8"/><circle cx="78.7" cy="54.4" r="9.1" class="st8"/></svg>