<svg xmlns="http://www.w3.org/2000/svg" version="1" viewBox="0 0 200 200"><linearGradient id="a" x1="100" x2="100" y1="194.995" y2="4.995" gradientTransform="matrix(1 0 0 -1 0 200)" gradientUnits="userSpaceOnUse"><stop offset="0" stop-color="#f9f2e6"/><stop offset="1" stop-color="#d08c31"/></linearGradient><path fill="url(#a)" stroke="#000" stroke-miterlimit="10" d="M194.99 100c0 18.4-5.24 35.59-14.31 50.16C163.93 177.07 134.07 195 100 195s-63.93-17.92-80.68-44.84C10.25 135.6 5.01 118.41 5.01 100c0-17.15 4.55-33.23 12.5-47.12C33.87 24.28 64.68 5.01 100 5.01s66.13 19.27 82.51 47.88c7.94 13.88 12.48 29.96 12.48 47.11z"/><radialGradient id="b" cx="81.0056" cy="172.1927" r="4.5582" gradientTransform="matrix(1 0 0 -1 0 200)" gradientUnits="userSpaceOnUse"><stop offset="0" stop-color="#f9f2e6"/><stop offset=".2528" stop-color="#f8f1e3"/><stop offset=".4049" stop-color="#f7ecdb"/><stop offset=".5303" stop-color="#f3e4cd"/><stop offset=".6413" stop-color="#efd8b8"/><stop offset=".7426" stop-color="#e9ca9e"/><stop offset=".8371" stop-color="#e1b77e"/><stop offset=".9243" stop-color="#d9a258"/><stop offset="1" stop-color="#d08c31"/></radialGradient><circle cx="81.01" cy="27.81" r="4.56" fill="url(#b)"/><radialGradient id="c" cx="92.0964" cy="182.7427" r="1.6492" gradientTransform="matrix(1 0 0 -1 0 200)" gradientUnits="userSpaceOnUse"><stop offset="0" stop-color="#f9f2e6"/><stop offset=".2528" stop-color="#f8f1e3"/><stop offset=".4049" stop-color="#f7ecdb"/><stop offset=".5303" stop-color="#f3e4cd"/><stop offset=".6413" stop-color="#efd8b8"/><stop offset=".7426" stop-color="#e9ca9e"/><stop offset=".8371" stop-color="#e1b77e"/><stop offset=".9243" stop-color="#d9a258"/><stop offset="1" stop-color="#d08c31"/></radialGradient><path fill="url(#c)" d="M92.09 18.94c2.16 0 2.16-3.36 0-3.36s-2.16 3.36 0 3.36z"/><radialGradient id="d" cx="44.9767" cy="158.4214" r="1.6524" gradientTransform="matrix(1 0 0 -1 0 200)" gradientUnits="userSpaceOnUse"><stop offset="0" stop-color="#f9f2e6"/><stop offset=".2528" stop-color="#f8f1e3"/><stop offset=".4049" stop-color="#f7ecdb"/><stop offset=".5303" stop-color="#f3e4cd"/><stop offset=".6413" stop-color="#efd8b8"/><stop offset=".7426" stop-color="#e9ca9e"/><stop offset=".8371" stop-color="#e1b77e"/><stop offset=".9243" stop-color="#d9a258"/><stop offset="1" stop-color="#d08c31"/></radialGradient><path fill="url(#d)" d="M44.98 43.26c2.16 0 2.16-3.36 0-3.36s-2.16 3.36 0 3.36z"/><radialGradient id="e" cx="66.2558" cy="173.6208" r="1.6536" gradientTransform="matrix(1 0 0 -1 0 200)" gradientUnits="userSpaceOnUse"><stop offset="0" stop-color="#f9f2e6"/><stop offset=".2528" stop-color="#f8f1e3"/><stop offset=".4049" stop-color="#f7ecdb"/><stop offset=".5303" stop-color="#f3e4cd"/><stop offset=".6413" stop-color="#efd8b8"/><stop offset=".7426" stop-color="#e9ca9e"/><stop offset=".8371" stop-color="#e1b77e"/><stop offset=".9243" stop-color="#d9a258"/><stop offset="1" stop-color="#d08c31"/></radialGradient><path fill="url(#e)" d="M66.26 28.05c2.16 0 2.16-3.36 0-3.36-2.17 0-2.17 3.36 0 3.36z"/><radialGradient id="f" cx="25.2208" cy="152.3417" r="1.6508" gradientTransform="matrix(1 0 0 -1 0 200)" gradientUnits="userSpaceOnUse"><stop offset="0" stop-color="#f9f2e6"/><stop offset=".2528" stop-color="#f8f1e3"/><stop offset=".4049" stop-color="#f7ecdb"/><stop offset=".5303" stop-color="#f3e4cd"/><stop offset=".6413" stop-color="#efd8b8"/><stop offset=".7426" stop-color="#e9ca9e"/><stop offset=".8371" stop-color="#e1b77e"/><stop offset=".9243" stop-color="#d9a258"/><stop offset="1" stop-color="#d08c31"/></radialGradient><path fill="url(#f)" d="M25.22 49.33c2.16 0 2.16-3.36 0-3.36s-2.16 3.36 0 3.36z"/><radialGradient id="g" cx="125.5349" cy="29.2269" r="1.6528" gradientTransform="matrix(1 0 0 -1 0 200)" gradientUnits="userSpaceOnUse"><stop offset="0" stop-color="#f9f2e6"/><stop offset=".2528" stop-color="#f8f1e3"/><stop offset=".4049" stop-color="#f7ecdb"/><stop offset=".5303" stop-color="#f3e4cd"/><stop offset=".6413" stop-color="#efd8b8"/><stop offset=".7426" stop-color="#e9ca9e"/><stop offset=".8371" stop-color="#e1b77e"/><stop offset=".9243" stop-color="#d9a258"/><stop offset="1" stop-color="#d08c31"/></radialGradient><path fill="url(#g)" d="M125.53 172.45c2.16 0 2.16-3.36 0-3.36s-2.16 3.36 0 3.36z"/><radialGradient id="h" cx="103.7966" cy="26.2853" r="4.5582" gradientTransform="matrix(1 0 0 -1 0 200)" gradientUnits="userSpaceOnUse"><stop offset="0" stop-color="#f9f2e6"/><stop offset=".2528" stop-color="#f8f1e3"/><stop offset=".4049" stop-color="#f7ecdb"/><stop offset=".5303" stop-color="#f3e4cd"/><stop offset=".6413" stop-color="#efd8b8"/><stop offset=".7426" stop-color="#e9ca9e"/><stop offset=".8371" stop-color="#e1b77e"/><stop offset=".9243" stop-color="#d9a258"/><stop offset="1" stop-color="#d08c31"/></radialGradient><circle cx="103.8" cy="173.71" r="4.56" fill="url(#h)"/><radialGradient id="i" cx="56.6802" cy="27.8084" r="4.5582" gradientTransform="matrix(1 0 0 -1 0 200)" gradientUnits="userSpaceOnUse"><stop offset="0" stop-color="#f9f2e6"/><stop offset=".2528" stop-color="#f8f1e3"/><stop offset=".4049" stop-color="#f7ecdb"/><stop offset=".5303" stop-color="#f3e4cd"/><stop offset=".6413" stop-color="#efd8b8"/><stop offset=".7426" stop-color="#e9ca9e"/><stop offset=".8371" stop-color="#e1b77e"/><stop offset=".9243" stop-color="#d9a258"/><stop offset="1" stop-color="#d08c31"/></radialGradient><circle cx="56.68" cy="172.19" r="4.56" fill="url(#i)"/><radialGradient id="j" cx="173.7153" cy="149.4017" r="4.5582" gradientTransform="matrix(1 0 0 -1 0 200)" gradientUnits="userSpaceOnUse"><stop offset="0" stop-color="#f9f2e6"/><stop offset=".2528" stop-color="#f8f1e3"/><stop offset=".4049" stop-color="#f7ecdb"/><stop offset=".5303" stop-color="#f3e4cd"/><stop offset=".6413" stop-color="#efd8b8"/><stop offset=".7426" stop-color="#e9ca9e"/><stop offset=".8371" stop-color="#e1b77e"/><stop offset=".9243" stop-color="#d9a258"/><stop offset="1" stop-color="#d08c31"/></radialGradient><circle cx="173.72" cy="50.6" r="4.56" fill="url(#j)"/><radialGradient id="k" cx="84.0407" cy="33.8786" r="3.8023" gradientTransform="matrix(1 0 0 -1 0 200)" gradientUnits="userSpaceOnUse"><stop offset="0" stop-color="#f9f2e6"/><stop offset=".2528" stop-color="#f8f1e3"/><stop offset=".4049" stop-color="#f7ecdb"/><stop offset=".5303" stop-color="#f3e4cd"/><stop offset=".6413" stop-color="#efd8b8"/><stop offset=".7426" stop-color="#e9ca9e"/><stop offset=".8371" stop-color="#e1b77e"/><stop offset=".9243" stop-color="#d9a258"/><stop offset="1" stop-color="#d08c31"/></radialGradient><circle cx="84.04" cy="166.12" r="3.8" fill="url(#k)"/><radialGradient id="l" cx="84.0407" cy="11.0876" r="3.7966" gradientTransform="matrix(1 0 0 -1 0 200)" gradientUnits="userSpaceOnUse"><stop offset="0" stop-color="#f9f2e6"/><stop offset=".2528" stop-color="#f8f1e3"/><stop offset=".4049" stop-color="#f7ecdb"/><stop offset=".5303" stop-color="#f3e4cd"/><stop offset=".6413" stop-color="#efd8b8"/><stop offset=".7426" stop-color="#e9ca9e"/><stop offset=".8371" stop-color="#e1b77e"/><stop offset=".9243" stop-color="#d9a258"/><stop offset="1" stop-color="#d08c31"/></radialGradient><circle cx="84.04" cy="188.91" r="3.8" fill="url(#l)"/><radialGradient id="m" cx="146.3548" cy="43.0062" r="3.7966" gradientTransform="matrix(1 0 0 -1 0 200)" gradientUnits="userSpaceOnUse"><stop offset="0" stop-color="#f9f2e6"/><stop offset=".2528" stop-color="#f8f1e3"/><stop offset=".4049" stop-color="#f7ecdb"/><stop offset=".5303" stop-color="#f3e4cd"/><stop offset=".6413" stop-color="#efd8b8"/><stop offset=".7426" stop-color="#e9ca9e"/><stop offset=".8371" stop-color="#e1b77e"/><stop offset=".9243" stop-color="#d9a258"/><stop offset="1" stop-color="#d08c31"/></radialGradient><circle cx="146.35" cy="156.99" r="3.8" fill="url(#m)"/><linearGradient id="n" x1="100" x2="100" y1="147.117" y2="49.8379" gradientTransform="matrix(1 0 0 -1 0 200)" gradientUnits="userSpaceOnUse"><stop offset="0" stop-color="#ec1b24"/><stop offset="1" stop-color="#2e1f50"/></linearGradient><path fill="url(#n)" stroke="#000" stroke-miterlimit="10" d="M194.99 100c0 18.4-5.24 35.59-14.31 50.16H19.32C10.25 135.6 5.01 118.41 5.01 100c0-17.15 4.55-33.23 12.5-47.12h165c7.94 13.89 12.48 29.97 12.48 47.12z"/><path fill="#F49F32" stroke="#000" stroke-miterlimit="10" stroke-width="4" d="M46.8 165.36l-19.76-21.28s44.08-69.92 69.92-92.72l31.92 31.92s-1.52 3.04-82.08 82.08z"/><path fill="#FFF" stroke="#000" stroke-miterlimit="10" stroke-width="4" d="M97.37 49.19c.96-3.77 4.03-10.99 13.38-9.62 2.28.34 4.48-.91 5.3-3.06 1.05-2.79 3.42-5.99 8.69-6.38.72-.06 1.41-.26 2.04-.62 6.25-3.51 11.64-.06 13.63 3.26 1.11 1.84 3 3.01 5.13 3.28 1.55.2 3.36.67 5.26 1.65 1.48.76 3.21.67 4.64-.18 2.16-1.29 5.62-2.51 9.16-.35.48.29.99.54 1.52.68 2.25.6 8.5 3.15 5.94 12.26-.27.94-.2 1.95.13 2.87 1.08 2.92 2.7 9.49-3.26 11.57-1.24.44-2.26 1.37-2.78 2.58-1.38 3.26-5.07 9.16-13.7 8.98-2.06-.04-3.96 1.12-4.69 3.05-1.64 4.33-6.25 10.44-18.89 4.11-15.29-7.65-27.38-24.91-30.89-30.28-.72-1.13-.95-2.5-.61-3.8z"/><linearGradient id="o" x1="44.3271" x2="44.3271" y1="130.9113" y2="66.066" gradientTransform="matrix(1 0 0 -1 0 200)" gradientUnits="userSpaceOnUse"><stop offset="0" stop-color="#d08c31"/><stop offset=".0546" stop-color="#d2913a"/><stop offset=".1437" stop-color="#d89f52"/><stop offset=".2562" stop-color="#e1b57a"/><stop offset=".3863" stop-color="#edd4b1"/><stop offset=".5" stop-color="#f9f2e6"/><stop offset=".6137" stop-color="#edd4b1"/><stop offset=".7438" stop-color="#e1b57a"/><stop offset=".8563" stop-color="#d89f52"/><stop offset=".9454" stop-color="#d2913a"/><stop offset="1" stop-color="#d08c31"/></linearGradient><path fill="url(#o)" d="M44.84 133.93c-4.35 0-8.13-.84-11.23-2.51-3.19-1.7-5.32-3.94-6.33-6.64-.97-2.6-1.44-6.14-1.44-10.82v-5.05h15.9c-.97-.71-2.22-1.56-3.79-2.59-3.98-2.63-6.55-4.5-7.86-5.71-1.38-1.27-2.53-3.02-3.42-5.23-.87-2.17-1.32-4.96-1.32-8.29 0-4.84.63-8.32 1.9-10.64 1.29-2.33 3.38-4.17 6.22-5.47 2.76-1.27 6.11-1.9 9.97-1.9 4.2 0 7.85.69 10.84 2.07 3.09 1.42 5.19 3.27 6.23 5.5 1.01 2.16 1.5 5.63 1.5 10.62v3.49H45.25v-5.58c0-2.71-.34-3.3-.37-3.36-.07-.09-.22-.35-.92-.35-.56 0-.91.19-1.19.63-.26.4-.55 1.23-.55 2.89 0 1.81.22 3.16.68 4 .25.48 1.08 1.51 4 3.24 7.17 4.26 11.58 7.68 13.5 10.49 1.95 2.87 2.9 7.26 2.9 13.43 0 4.5-.53 7.75-1.62 9.96-1.11 2.25-3.24 4.14-6.33 5.61-3.02 1.49-6.54 2.21-10.51 2.21zm-2.26-16.58c0 2.83.34 3.58.44 3.74.07.11.28.45 1.22.45.66 0 1.06-.21 1.37-.69.39-.63.59-1.68.59-3.05 0-4.24-.73-5.7-1.16-6.19-.35-.39-1.06-1.03-2.45-2.06v7.8z"/><path d="M43.43 70.22c4.05 0 7.51.66 10.37 1.97 2.86 1.31 4.75 2.97 5.68 4.95.93 1.99 1.39 5.38 1.39 10.15v2.37h-14.5v-4.45c0-2.08-.19-3.4-.56-3.98-.37-.57-.99-.85-1.86-.85-.94 0-1.65.38-2.14 1.15-.48.77-.73 1.93-.73 3.49 0 2 .27 3.52.82 4.52.52 1.02 1.99 2.24 4.41 3.67 6.95 4.13 11.33 7.51 13.14 10.16s2.71 6.91 2.71 12.8c0 4.28-.5 7.44-1.5 9.46-1 2.03-2.93 3.73-5.81 5.11-2.87 1.38-6.2 2.06-10.02 2.06-4.18 0-7.75-.8-10.71-2.37-2.96-1.58-4.89-3.6-5.81-6.05-.92-2.45-1.38-5.92-1.38-10.43v-3.93h14.51v7.31c0 2.25.2 3.7.62 4.35.4.65 1.13.96 2.17.96s1.81-.4 2.32-1.22c.5-.82.76-2.03.76-3.64 0-3.54-.48-5.85-1.44-6.94-.99-1.09-3.43-2.91-7.31-5.45-3.89-2.58-6.46-4.44-7.72-5.6-1.27-1.16-2.31-2.77-3.14-4.83-.83-2.05-1.24-4.67-1.24-7.86 0-4.6.58-7.96 1.76-10.09s3.07-3.79 5.7-4.99c2.63-1.2 5.8-1.8 9.51-1.8m0-2.24c-4.02 0-7.53.67-10.43 2-3.06 1.4-5.32 3.39-6.72 5.95-1.38 2.49-2.04 6.14-2.04 11.18 0 3.46.47 6.39 1.41 8.7.95 2.35 2.2 4.24 3.7 5.63 1.36 1.25 3.98 3.16 8 5.82.28.18.55.36.81.53H24.74v6.17c0 4.82.49 8.49 1.51 11.21 1.11 2.97 3.42 5.4 6.85 7.23 3.27 1.75 7.23 2.64 11.76 2.64 4.13 0 7.83-.76 10.99-2.28 3.32-1.59 5.62-3.65 6.84-6.13 1.16-2.36 1.74-5.78 1.74-10.45 0-6.41-1.01-11.01-3.1-14.07-1.92-2.81-6.13-6.16-12.85-10.23h14.65v-4.61c0-5.15-.53-8.78-1.6-11.1-1.15-2.48-3.44-4.51-6.78-6.05-3.15-1.41-6.96-2.14-11.32-2.14zm.35 14.66s.06-.01.17-.01c.07.35.18 1.11.18 2.59v3.64c-.13-.16-.2-.26-.22-.3-.22-.43-.57-1.38-.57-3.52 0-1.57.29-2.16.38-2.3.02-.07.05-.09.06-.1zm.17 37.75c-.08-.3-.25-1.13-.25-3.05v-5.49c.25.22.41.38.52.5.12.15.86 1.19.86 5.43 0 1.6-.29 2.25-.43 2.45-.07.11-.1.17-.41.17-.13.02-.23 0-.29-.01z"/><linearGradient id="p" x1="83.2735" x2="83.2735" y1="129.6346" y2="67.3204" gradientTransform="matrix(1 0 0 -1 0 200)" gradientUnits="userSpaceOnUse"><stop offset="0" stop-color="#d08c31"/><stop offset=".0546" stop-color="#d2913a"/><stop offset=".1437" stop-color="#d89f52"/><stop offset=".2562" stop-color="#e1b57a"/><stop offset=".3863" stop-color="#edd4b1"/><stop offset=".5" stop-color="#f9f2e6"/><stop offset=".6137" stop-color="#edd4b1"/><stop offset=".7438" stop-color="#e1b57a"/><stop offset=".8563" stop-color="#d89f52"/><stop offset=".9454" stop-color="#d2913a"/><stop offset="1" stop-color="#d08c31"/></linearGradient><path fill="url(#p)" d="M86 132.68l-.84-10.8h-3.53l-.94 10.8H62.25l8.27-62.31h24.53l9.26 62.31H86zm-1.47-23.69c-.46-4.03-.92-8.63-1.38-13.75-.73 5.69-1.23 10.29-1.53 13.75h2.91z"/><path d="M94.08 71.49l8.94 60.07H87.04l-.84-10.8h-5.59l-.94 10.8H63.52l7.97-60.07h22.59m-13.67 38.62h5.38c-.8-6.81-1.58-15.22-2.37-25.23-1.6 11.5-2.59 19.91-3.01 25.23M96 69.25H69.54l-.26 1.95-7.97 60.07-.34 2.53h20.75l.18-2.05.76-8.76h1.47l.67 8.74.16 2.07h20.64l-.38-2.56-8.94-60.07-.28-1.92zm-13.15 38.62c.06-.66.13-1.36.2-2.09.08.72.15 1.41.22 2.09h-.42z"/><g><linearGradient id="q" x1="124.8966" x2="124.8966" y1="129.6346" y2="67.3204" gradientTransform="matrix(1 0 0 -1 0 200)" gradientUnits="userSpaceOnUse"><stop offset="0" stop-color="#d08c31"/><stop offset=".0546" stop-color="#d2913a"/><stop offset=".1437" stop-color="#d89f52"/><stop offset=".2562" stop-color="#e1b57a"/><stop offset=".3863" stop-color="#edd4b1"/><stop offset=".5" stop-color="#f9f2e6"/><stop offset=".6137" stop-color="#edd4b1"/><stop offset=".7438" stop-color="#e1b57a"/><stop offset=".8563" stop-color="#d89f52"/><stop offset=".9454" stop-color="#d2913a"/><stop offset="1" stop-color="#d08c31"/></linearGradient><path fill="url(#q)" d="M126.73 132.68l-4.33-17.62v17.62h-17.86V70.37h17.86v16.77l5.01-16.77h17.04l-9.34 28.25 10.15 34.06z"/><path d="M142.89 71.49l-8.96 27.13 9.81 32.95H127.6l-6.33-25.76v25.75h-15.62V71.49h15.62v23.34l6.95-23.34h14.67m3.11-2.24h-19.43l-.48 1.6-2.58 8.62V69.24h-20.1v64.55h20.11v-9.49l1.92 7.78.41 1.7h20.9l-.86-2.88-9.61-32.28 8.74-26.45.98-2.92z"/></g><g><linearGradient id="r" x1="159.9847" x2="159.9847" y1="129.6346" y2="67.3204" gradientTransform="matrix(1 0 0 -1 0 200)" gradientUnits="userSpaceOnUse"><stop offset="0" stop-color="#d08c31"/><stop offset=".0546" stop-color="#d2913a"/><stop offset=".1437" stop-color="#d89f52"/><stop offset=".2562" stop-color="#e1b57a"/><stop offset=".3863" stop-color="#edd4b1"/><stop offset=".5" stop-color="#f9f2e6"/><stop offset=".6137" stop-color="#edd4b1"/><stop offset=".7438" stop-color="#e1b57a"/><stop offset=".8563" stop-color="#d89f52"/><stop offset=".9454" stop-color="#d2913a"/><stop offset="1" stop-color="#d08c31"/></linearGradient><path fill="url(#r)" d="M145.32 132.68V70.37h28.29v14.25h-10.42v9.15h9.75v13.68h-9.75v10.96h11.45v14.27z"/><path d="M172.49 71.49v12.03h-10.43V94.9h9.75v11.43h-9.75v13.22h11.47v12.03h-27.09v-60.1h26.05m2.24-2.23H144.2v64.55h31.57v-16.51H164.3v-8.74h9.75v-15.9h-9.75v-6.91h10.43V69.25z"/></g></svg>