<?xml version="1.0" encoding="utf-8"?>
<!-- Generator: Adobe Illustrator 16.0.0, SVG Export Plug-In . SVG Version: 6.00 Build 0)  -->
<!DOCTYPE svg PUBLIC "-//W3C//DTD SVG 1.0//EN" "http://www.w3.org/TR/2001/REC-SVG-20010904/DTD/svg10.dtd">
<svg version="1.0" id="Layer_1" xmlns="http://www.w3.org/2000/svg" xmlns:xlink="http://www.w3.org/1999/xlink" x="0px" y="0px"
	 width="200px" height="200px" viewBox="-14.5 -80 200 200" enable-background="new -14.5 -80 200 200" xml:space="preserve">
<title>logo-horizontal-white</title>
<g>
	
		<linearGradient id="SVGID_1_" gradientUnits="userSpaceOnUse" x1="-12.3271" y1="18.9028" x2="-15.6669" y2="22.2426" gradientTransform="matrix(36.4242 0 0 39.886 597.4075 -800.9507)">
		<stop  offset="0" style="stop-color:#C79DFC"/>
		<stop  offset="1" style="stop-color:#40BEFD"/>
	</linearGradient>
	<path opacity="0.6" fill="url(#SVGID_1_)" enable-background="new    " d="M32.128,109.582
		C3.662,97.11-14.963,29.933,24.845-27.293c39.818-57.227,94.608-55.875,123.748-27.819c29.137,28.055,37.359,77.251,2.688,121.834
		C116.608,111.307,60.594,122.05,32.128,109.582z M40.47,106.805c27.055,10.047,56.395,1.697,99.191-50.35
		c42.801-52.051,28.466-87.574,7.438-106.381C126.072-68.734,73.181-65.002,33.376-7.772C-6.441,49.449,13.416,96.755,40.47,106.805
		z"/>
	
		<linearGradient id="SVGID_2_" gradientUnits="userSpaceOnUse" x1="-11.8721" y1="20.0513" x2="-15.209" y2="23.3882" gradientTransform="matrix(35.4043 0 0 37.8941 569.4727 -799.5205)">
		<stop  offset="0" style="stop-color:#AC9DFC"/>
		<stop  offset="1" style="stop-color:#40BEFD"/>
	</linearGradient>
	<path opacity="0.2" fill="url(#SVGID_2_)" enable-background="new    " d="M86.795,107.313c-12.88,4.991-24.593,5.354-35.49,2.989
		c-6.802-0.674-12.696-2.183-17.207-4.446C10.419,93.97-13.526,42.103,26.286-15.132c39.81-57.225,92.62-64.21,121.763-36.154
		c29.132,28.055,34.124,76.636,2.844,118.378C134.582,88.854,109.976,101.694,86.795,107.313L86.795,107.313z M86.795,107.313
		c16.572-6.426,35.082-20.507,56.29-46.3c42.803-52.052,22.954-93.823,6.707-108.804C123.356-72.172,69.39-60.215,31.354-5.084
		C-6.677,50.039,14.354,97.33,41.413,107.377c3.227,1.2,6.52,2.196,9.892,2.93C61.602,111.32,73.979,110.422,86.795,107.313z"/>
	
		<linearGradient id="SVGID_3_" gradientUnits="userSpaceOnUse" x1="-14.1626" y1="22.334" x2="-13.9599" y2="27.5599" gradientTransform="matrix(36.5159 0 0 33.9496 599.2538 -796.1143)">
		<stop  offset="0" style="stop-color:#71B5FF"/>
		<stop  offset="1" style="stop-color:#84F1E2"/>
	</linearGradient>
	<path opacity="0.8" fill="url(#SVGID_3_)" enable-background="new    " d="M64.623,105.485C14.831,91.307-7.911,38.125,0.229,3.312
		C8.36-31.497,65.857-66.204,110.683-44.249c44.829,21.948,69.508,65.747,57.277,100.723
		C155.732,91.454,114.424,119.675,64.623,105.485L64.623,105.485z M69.743,91.307c43.122,12.728,82.141-6.272,94.506-37.415
		c12.365-31.148-17.948-68.965-58.463-81.832C65.28-40.812,11.843-24.695,3.614,3.308C-4.608,31.31,26.63,78.586,69.743,91.307z"/>
	
		<linearGradient id="SVGID_4_" gradientUnits="userSpaceOnUse" x1="-13.5474" y1="24.7451" x2="-13.3451" y2="29.9685" gradientTransform="matrix(34.8802 0 0 30.9034 554.0728 -794.0317)">
		<stop  offset="0" style="stop-color:#71B5FF"/>
		<stop  offset="1" style="stop-color:#84F1E2"/>
	</linearGradient>
	<path opacity="0.2" fill="url(#SVGID_4_)" enable-background="new    " d="M1.617,21.057C6.132,49.499,34.972,86.69,70.458,97.166
		c42.026,12.397,78.067-9.286,92.671-37.292c-12.231,34.967-63.763,54.348-100.328,40.058C30.073,87.155,1.446,53.033,1.617,21.057z
		 M24.193-19.5C48.65-38.479,88.226-48.52,115.905-35.229c29.3,14.075,47.574,39.772,50.454,66.26
		c-5.706-23.978-29.271-48.789-58.851-58.542C80.176-36.522,46.256-31.87,24.193-19.5z"/>
	<g>
		<path fill="#2F347C" d="M79.973,52.896h12.735V2.236h14.896v-11.56H65.078v11.56h14.896V52.896z"/>
		<path fill="#2F347C" d="M76.544,67.022h19.734c7.685,0,11.325-3.647,11.325-11.369V5.552H96.419v49.593
			c0,1.219-0.405,1.625-1.619,1.625H78.022c-1.213,0-1.619-0.406-1.619-1.625V5.552H65.218v50.102
			C65.218,63.375,68.854,67.022,76.544,67.022z"/>
	</g>
</g>
</svg>
