<svg xmlns="http://www.w3.org/2000/svg" viewBox="0 0 200 200"><linearGradient id="a" x1=".2526" x2=".0365" y1="199.9865" y2="199.7317" gradientTransform="matrix(560.0001 0 0 -560.001 20.0009 112020.1953)" gradientUnits="userSpaceOnUse"><stop offset="0" stop-color="#b6509e"/><stop offset="1" stop-color="#2ebac6"/></linearGradient><path fill="url(#a)" d="M100 195c-6.4 0-12.8-.6-19.1-1.9-6.1-1.3-12.1-3.1-17.8-5.5-5.6-2.4-11.1-5.3-16.1-8.8-5-3.4-9.8-7.3-14.1-11.6-4.3-4.3-8.2-9-11.6-14.1-3.4-5.1-6.4-10.5-8.8-16.1-2.4-5.7-4.3-11.7-5.5-17.8-1.4-6.4-2-12.8-2-19.2 0-6.4.6-12.8 1.9-19.1C8.2 74.7 10 68.8 12.5 63c2.4-5.6 5.3-11.1 8.8-16.1 3.4-5 7.3-9.8 11.6-14.1 4.3-4.3 9-8.2 14.1-11.6C57.2 14.3 68.9 9.4 81 6.9 87.2 5.6 93.6 5 100 5s12.8.6 19.1 1.9c6.1 1.3 12.1 3.1 17.8 5.5 5.6 2.4 11.1 5.3 16.1 8.8 5 3.4 9.8 7.3 14.1 11.6 4.3 4.3 8.2 9 11.6 14.1 3.4 5.1 6.4 10.5 8.8 16.1 2.4 5.7 4.3 11.7 5.5 17.8 1.3 6.3 1.9 12.7 1.9 19.1 0 6.4-.6 12.8-1.9 19.1-1.3 6.1-3.1 12.1-5.5 17.8-2.4 5.6-5.3 11.1-8.8 16.1-3.4 5-7.3 9.8-11.6 14.1-4.3 4.3-9 8.2-14.1 11.6-5.1 3.4-10.5 6.4-16.1 8.8-5.7 2.4-11.7 4.3-17.8 5.5-6.3 1.5-12.7 2.1-19.1 2.1zm0-179.8c-5.7 0-11.5.6-17.1 1.7-5.5 1.1-10.8 2.8-15.9 4.9-5 2.1-9.9 4.8-14.4 7.8S43.9 36.1 40 40c-3.8 3.8-7.3 8-10.4 12.6-3.1 4.5-5.7 9.4-7.8 14.4-2.2 5.1-3.8 10.5-4.9 15.9-1.1 5.6-1.7 11.4-1.7 17.1 0 5.7.6 11.5 1.7 17.1 1.1 5.5 2.8 10.8 4.9 15.9 2.1 5 4.8 9.9 7.8 14.4s6.5 8.7 10.4 12.6c3.8 3.8 8 7.3 12.6 10.4 4.5 3.1 9.4 5.7 14.4 7.8 5.1 2.2 10.5 3.8 15.9 4.9 5.6 1.1 11.4 1.7 17.1 1.7 5.7 0 11.5-.6 17.1-1.7 5.5-1.1 10.8-2.8 15.9-4.9 5-2.1 9.9-4.8 14.4-7.8s8.7-6.5 12.6-10.4c3.8-3.8 7.3-8 10.4-12.6 3.1-4.5 5.7-9.4 7.8-14.4 2.2-5.1 3.8-10.5 4.9-15.9 1.1-5.6 1.7-11.4 1.7-17.1 0-5.7-.6-11.5-1.7-17.1-1.1-5.5-2.8-10.8-4.9-15.9-2.1-5-4.8-9.9-7.8-14.4S163.9 43.9 160 40c-3.8-3.8-8-7.3-12.6-10.4-4.5-3.1-9.4-5.7-14.4-7.8-5.1-2.2-10.5-3.8-15.9-4.9-5.6-1.1-11.4-1.7-17.1-1.7z"/><path fill="#553680" d="M161.3 130.9L105 30c-1.5-2.7-4.8-3.7-7.6-2.3-1 .5-1.7 1.3-2.3 2.3L39 130.9c-1.5 2.6-.6 6 2 7.5l56.4 33.7c1.8 1 4 1 5.9 0l56.3-33.6c2.3-1.6 3.3-5 1.7-7.6m-42.5-40.6l-1.4-1.2-.1-.1c-.4-.4-.9-.7-1.4-1l-.1-.1c-.5-.3-.9-.6-1.5-.9-.1 0-.1-.1-.2-.1-.5-.3-1-.5-1.5-.8-.1 0-.1-.1-.2-.1-.5-.2-1-.5-1.5-.7-.1 0-.1-.1-.2-.1-.5-.2-.9-.4-1.4-.5-1.2-.5-2.5-.8-3.8-1.1-1 1.9-2.3 3.6-3.9 5.1 2.3.2 4.6.7 6.8 1.6 1.2.5 2.4 1.1 3.5 1.9.1 0 .1 0 .2.1.3.2.6.4.8.6.1.1.3.2.4.3.3.2.5.4.8.6.2.2.3.2.5.4s.5.4.7.6l.5.5.6.6.5.5c.2.2.3.4.5.6.2.2.3.4.5.5l.5.7c.2.2.3.4.4.6l.5.7c.1.2.2.4.4.6.2.2.2.5.4.7.1.2.2.5.4.7.1.2.2.5.3.7.1.3.2.6.4.8.6 1.6 1.1 3.2 1.3 4.9l.7 2.7c.3 1.2 3.1 11 9.5 14.3 7.4 3.8 17.1 8.6 21 10.4L103 165.6v-20.7c0-3.3 6.5-7.1 9.5-8.4l.2-.1c.6-.3 1.2-.6 1.9-1l.2-.2c1.3-.8 2.5-1.7 3.7-2.7l.3-.3c.2-.1.2-.2.4-.3.4-.3.7-.7 1.1-1l.2-.2c.4-.4.8-.8 1.1-1.2.1-.2.2-.2.3-.4.3-.3.6-.7.8-1.1.1-.1.2-.2.2-.3l.9-1.4c0-.1.1-.1.1-.2.4-.6.8-1.3 1.2-1.9-1.4-1.8-2.6-3.7-3.6-5.7-.4 1.1-.9 2.2-1.5 3.3-.2.5-.5.9-.8 1.4-.1.1-.1.2-.2.2-.2.4-.5.7-.8 1.1-.1.1-.2.2-.2.3-.2.4-.5.7-.8 1-.1.1-.1.2-.2.2-1.9 2.1-4.1 3.8-6.6 5.1l-.5.2c-1.3.5-12.6 5.7-12.6 13.4v20.7l-50.7-30.2c3.3-2 12.8-7.7 20.7-10.1 3.1-1 9.6 3.1 13.3 6.1l.2.2c.5.5 1 .9 1.5 1.3l.2.2c1.2 1 2.4 1.8 3.8 2.5l.9.5c.1 0 .1 0 .2.1.8.5 1.7.8 2.6 1.2.1.1.3.1.4.2.1 0 .2.1.3.1 1.3.5 2.6.8 3.9 1.2 1-1.9 2.4-3.6 4-5.1-2.2-.1-4.3-.6-6.3-1.4-.1-.1-.2-.1-.3-.2-.2-.1-.5-.2-.7-.3-.1-.1-.2-.1-.3-.2-.2-.1-.5-.2-.6-.3-1.5-.7-2.9-1.6-4.2-2.7l-2-1.9c-1.8-1.6-3.9-3.1-6-4.3-5-2.8-9.2-3.8-12.4-2.8-6.7 2.2-14.3 6.2-18.9 8.9l50.6-90.9v39.9c0 1.4-2.1 5.1-9.1 8.2l-.5.2c-.7.3-1.4.7-2 1.1l-.2.1c-1.3.8-2.6 1.7-3.8 2.7-.7.6-1.4 1.3-2.1 2v.3c-.7.7-1.3 1.4-1.9 2.2l-.1.1c-.3.4-.5.8-.8 1.2 0 .1-.1.1-.1.2-.2.4-.5.7-.7 1.1 0 .1-.1.1-.1.2l-.6 1c-.1.1-.1.2-.2.3-.2.4-.4.8-.5 1.1 0 .1 0 .1-.1.2-.2.4-.3.7-.5 1.1-.1.1-.1.3-.2.4l-.5 1.2c-.1.1-.1.3-.2.4-.1.3-.2.6-.3.8-.1.1-.1.3-.2.5-.1.4-.2.8-.3 1.1-.1.2-.1.4-.2.5-.1.2-.1.5-.2.8-.1.2-.1.5-.2.7-.1.3-.1.6-.2.9 0 .2-.1.4-.1.6 0 .3-.1.5-.1.8 0 .3 0 .6-.1.8v1.2c0 1.4.1 2.8.3 4.2 2 .5 4.1 1.3 6.3 2.4-.6-2-.9-4.1-1-6.2v-.4c0-.5 0-1 .1-1.5v-.4c0-.4.1-.9.2-1.3v-.2c.1-.5.2-.9.2-1.5 0-.2.1-.2.1-.4l.3-1.2c0-.1.1-.2.1-.2l.5-1.4c.1-.1.1-.2.2-.3.2-.4.3-.8.5-1.1.1-.1.1-.2.2-.3.2-.4.4-.8.7-1.2.1-.1.1-.2.2-.2.2-.4.4-.7.6-1.1.1-.1.1-.2.2-.2.3-.4.5-.8.8-1.2 0 0 0-.1.1-.1.3-.4.5-.7.8-1.1.1-.1.1-.2.2-.2 1.4-1.5 3-2.9 4.7-4l2.4-1.2c1.3-.5 12.5-5.8 12.5-13.6V37.7l51.1 91.7c-4.5-2.2-12.6-6.2-18.8-9.4-3.6-1.9-6-8.4-6.7-10.8l-.7-2.8c-.1-1.5-.3-3-.8-4.4-1.5-4.5-4.3-8.6-7.9-11.7"/></svg>