<svg xmlns="http://www.w3.org/2000/svg" viewBox="0 0 200 200"><path fill="#30618f" d="M189.2 63c-.1-7-3-13.6-8.1-18.4-2.4-2.1-5-3.9-7.8-5.4L117.4 7l-1.3-.7c-1.4-.9-3.1-1.8-4.5-2.6C104.8.3 96.8.1 89.8 3.1c-2.2 1-4.4 2.2-6.5 3.5l-.9.5-55.7 32c-2.7 1.4-5.2 3.1-7.5 5.1-5.4 5-8.5 12-8.6 19.4v74.6c1 13.9 11.3 19.9 15.2 22.1L44 170.7 74 188c5.9 3.8 12 7.1 18.4 10 2.4.7 4.9 1.1 7.4 1.1 4.4 0 8.8-1.1 12.7-3.2 1.2-.6 2.5-1.4 3.7-2.2 9.7-6 19.8-11.6 29.7-17.2l25.4-14.7 1.7-1c2.7-1.4 5.3-3.1 7.6-5.1 4-3.6 6.8-8.4 7.9-13.6.7-4.6 1-9.2.7-13.9V63zm-18.9 72.2c0 2.6-1.1 5.1-3 6.9-1.5 1.1-3.2 2.2-4.8 3.1L108.9 176l-2.3 1.5-.7.4-.3.2-1.2.6h-.2l-.4.2h-.1c-1.1.5-2.4.7-3.6.7-1.4 0-3.9-.3-5.1-1l-.2-.1-58.6-34c-3.4-2-6.5-3.9-6.7-8.6v-13.4l70.3 40.7 46.2-26.5.6-.4L29.5 68.4v-3.7c0-2.6 1.1-5.1 3.1-6.9 1.5-1.2 3.1-2.2 4.8-3.1L90.9 24c1.3-.7 4-2.5 5.4-3 2.5-1.1 5.3-1 7.8.3 1.4.7 3.4 1.9 4.8 2.7l53.6 30.8c1.7.9 3.4 2 5 3.2 1.8 1.7 2.8 4 2.9 6.5v12.9L99.9 36.9 53.2 63.8l117.1 67.7v3.7zM29.5 104.6v-18l85.7 49.5-6.9 3.9-8.6 5-70.2-40.4zm140.7 8.7L84.5 63.8l15.7-9.1 70.1 40.6-.1 18z"/></svg>