<svg xmlns="http://www.w3.org/2000/svg" viewBox="0 0 200 200"><linearGradient id="a" x1="20.3194" x2="149.376" y1="187.9201" y2="58.8635" gradientUnits="userSpaceOnUse"><stop offset="0" stop-color="#306397"/><stop offset="1" stop-color="#6a98a4"/></linearGradient><path fill="url(#a)" d="M27.4 183.1h19.1V68.3H23.8V54h22.7V39.7H23.8V25.3h92v14.4H91.9V54h23.9v14.4H91.9v114.7h20.9c24.5 0 26.4-.5 35.6-9.8 7.4-7.5 13-17.8 16-29.2l2.3-8.2s9.1.1 9.4.6c.2.4-3 57.1-3 57.7 0 .5-145.8.8-145.8.8v-11.9z"/><linearGradient id="b" x1="22.6435" x2="33.3629" y1="21.7536" y2="11.0343" gradientUnits="userSpaceOnUse"><stop offset="0" stop-color="#306397"/><stop offset="1" stop-color="#6a97a3"/></linearGradient><path fill="url(#b)" d="M23.8 14c0-8.1.2-9 2.4-9s2.4.8 2.4 7.2v7.2h4.2c2.9 0 4.2.6 4.2 1.8 0 1.4-1.6 1.8-6.6 1.8h-6.6v-9z"/><linearGradient id="c" x1="42.6999" x2="52.7277" y1="18.9762" y2="8.9483" gradientUnits="userSpaceOnUse"><stop offset="0" stop-color="#306397"/><stop offset="1" stop-color="#6a97a3"/></linearGradient><path fill="url(#c)" d="M45.3 14c0-8.1.2-9 2.4-9 2.2 0 2.4.8 2.4 9s-.2 9-2.4 9c-2.1-.1-2.4-.9-2.4-9z"/><linearGradient id="d" x1="57.0395" x2="67.0674" y1="18.9762" y2="8.9483" gradientUnits="userSpaceOnUse"><stop offset="0" stop-color="#306397"/><stop offset="1" stop-color="#6a97a3"/></linearGradient><path fill="url(#d)" d="M59.7 14c0-8.1.2-9 2.4-9 2.2 0 2.4.8 2.4 9s-.2 9-2.4 9c-2.2-.1-2.4-.9-2.4-9z"/><linearGradient id="e" x1="74.6998" x2="88.6871" y1="21.4919" y2="7.5045" gradientUnits="userSpaceOnUse"><stop offset="0" stop-color="#306397"/><stop offset="1" stop-color="#6a97a3"/></linearGradient><path fill="url(#e)" d="M74.8 14V5h5.7c4.2 0 6.5.6 7.8 2.2 2.5 2.7 2.6 6.7.2 8.6-1.7 1.4-1.7 1.8 0 3.6 2.4 2.6 2.3 3.6-.4 3.6-1.1 0-2.7-1.1-3.6-2.4-.8-1.3-2.3-2.4-3.2-2.4-1 0-1.8 1.1-1.8 2.4 0 1.6-.8 2.4-2.4 2.4-2.1-.1-2.3-.9-2.3-9zM85 11.6c0-1.6-1-2.5-2.6-2.7-2.3-.4-2.7.1-2.7 2.7s.5 3.1 2.7 2.7c1.6-.2 2.6-1.2 2.6-2.7z"/><linearGradient id="f" x1="99.0991" x2="113.0078" y1="24.9312" y2="11.0225" gradientUnits="userSpaceOnUse"><stop offset="0" stop-color="#306397"/><stop offset="1" stop-color="#6a97a3"/></linearGradient><path fill="url(#f)" d="M96.7 21.5c7.9-19.6 9.8-20.7 15.2-8.6 2 4.3 3.6 8.4 3.6 9 0 1.8-3.6 1.2-4.3-.7-.5-1.1-2.3-1.8-4.7-1.8-2.2 0-4.5.8-5.4 1.8-1.8 2.1-5.3 2.3-4.4.3zm11.6-6.6c0-.6-.5-1.7-1.1-2.6-.8-1.3-1.3-1.1-2.4 1-1.2 2.2-1.1 2.5 1.1 2.5 1.3 0 2.4-.4 2.4-.9z"/></svg>