<svg xmlns="http://www.w3.org/2000/svg" version="1" viewBox="0 0 200 200"><path fill="#30608F" d="M99.64 153.66l-83.45-48.17.09-21.47 102.08 58.84-18.72 10.8zm-10.26 36.9l-31.3-18.07-33.88-19.56c-4.09-2.36-7.62-4.67-8.01-10.28V127.1l.09.05v-.39l83.7 48.26 54.84-31.68.08.05.78-.45L34.99 73.27v.04l-18.8-10.85v-4.4c0-3.24 1.41-6.16 3.63-8.17 1.22-1.1 4.24-2.79 5.75-3.66 0 0 68.54-39.7 70.12-40.36 1.32-.56 2.77-.87 4.28-.87 1.78 0 3.46.42 4.94 1.17 1.64.82 4.07 2.32 5.71 3.27l63.77 36.82c1.6.93 4.66 2.64 5.91 3.83 2.06 1.96 3.36 4.71 3.41 7.76v15.37L99.96 24.93 44.33 57.05l139.48 80.48v4.4c0 3.24-1.41 6.16-3.63 8.17-1.22 1.1-4.24 2.79-5.75 3.67l-66.52 38.44-.02.01-.77.44-.01.01-.31.18-.02.01-1.38.75-.01.01-.19.09-.01.01-.5.25-.03.01-.08.04-.01.01-.15.06-.02.01-.06.02-.03.02-.01.01c-1.32.55-2.76.86-4.28.86-1.78 0-3.46-.42-4.94-1.17l-.08-.05-.07-.04h-.01l-.07-.04h-.01l-.07-.04h-.01l-.07-.04-.24-.13-.02-.01-.06-.03-.03-.01-.06-.03-.03-.01-.06-.03-.03-.02-.05-.03-.04-.02-.05-.03-.02-.03-.05-.03-.22-.12-.04-.03-.05-.02-.04-.03-.05-.02-.04-.02-.05-.03-.04-.02-.72-.41-.01-.01-.46-.27-.28-.16h-.01l-.27-.16-.02-.01-.07-.05-.02-.01-.07-.05-2.11-1.24zm10.98-144.22l83.45 48.17-.09 21.47L81.64 57.14l18.72-10.8z"/></svg>