<svg xmlns="http://www.w3.org/2000/svg" viewBox="0 0 200 200"><path fill="#30618e" fill-rule="evenodd" d="M100 5c52.5 0 95 42.5 95 95s-42.5 95-95 95-95-42.5-95-95S47.5 5 100 5" clip-rule="evenodd"/><path fill="#529dd3" d="M50.1 159.5c11.9 10 26.8 16.5 43.2 17.9l2.2 3.2 3 4.4c-22.4-.4-42.6-9.4-57.6-23.9l5.2-1 4-.6zm-27.5-52.7c1.4 16.4 7.9 31.3 17.9 43.2l-.7 3.9-1 5.2c-14.5-15-23.5-35.2-23.9-57.6l4.4 3 3.3 2.3zm17.9-56.7C30.5 61.9 24 76.9 22.6 93.2l-3.2 2.2-4.4 3c.4-22.4 9.4-42.6 23.9-57.6l1 5.2.6 4.1zm52.7-27.5C76.9 24 61.9 30.5 50.1 40.5l-3.9-.7-5.2-1c15-14.5 35.2-23.5 57.6-23.9l-3 4.4-2.4 3.3zm65.9 138.6c-15 14.5-35.2 23.5-57.6 23.9l3-4.4 2.2-3.2c16.4-1.4 31.3-7.9 43.2-17.9l3.9.7 5.3.9zm25.9-59.7c-.4 22.4-9.4 42.6-23.9 57.6l-1-5.2-.7-3.9c10-11.9 16.5-26.8 17.9-43.2l3.2-2.2 4.5-3.1zm-23.8-60.6c14.5 15 23.5 35.2 23.9 57.6l-4.4-3-3.2-2.2c-1.4-16.4-7.9-31.3-17.9-43.2l.7-3.9.9-5.3zM101.5 15c22.4.4 42.6 9.4 57.6 23.9l-5.2 1-3.9.7c-11.9-10-26.8-16.5-43.2-17.9l-2.2-3.2-3.1-4.5zM143 57c-11-11-26.2-17.8-43-17.8S68 46 57 57s-17.8 26.2-17.8 43S46 132 57 143s26.2 17.8 43 17.8 32-6.8 43-17.8 17.8-26.2 17.8-43S154 68 143 57m-43-25.3c18.9 0 36 7.7 48.3 20 12.4 12.4 20 29.4 20 48.3s-7.6 36-20 48.3c-12.4 12.4-29.4 20-48.3 20s-36-7.6-48.3-20c-12.4-12.4-20-29.4-20-48.3s7.7-36 20-48.3c12.3-12.4 29.4-20 48.3-20z"/><path fill="#fff" d="M99.8 127.5l-33.1-19.1-9.6-5.6v-11l2.3 1.3 49.9 28.8-4.3 2.5-5.2 3.1zm-5.2 18.8l-16-9.2-17.3-10c-2.1-1.2-3.9-2.4-4.1-5.3v-8.2l20 11.5c2.1 1.2 4.2 2.4 6.2 3.6l3.4 2 13.2 7.6 16.6-9.6 11.5-6.6.4-.2-21.4-12.4-40.4-23.2-9.6-5.6v-2.3c0-1.7.7-3.1 1.9-4.2.6-.6 2.2-1.4 2.9-1.9l16.6-9.6 16-9.2c.8-.4 2.5-1.5 3.3-1.8.7-.3 1.4-.4 2.2-.4.9 0 1.8.2 2.5.6.8.4 2.1 1.2 2.9 1.7l16 9.2 16.7 9.6c.8.5 2.4 1.4 3 2 1.1 1 1.7 2.4 1.7 4v7.9l-29.6-17.1-13.2-7.6-16.6 9.6L71.5 78l21.4 12.4 40.3 23.3 9.6 5.6v2.3c0 1.7-.7 3.2-1.9 4.2-.6.6-2.2 1.4-2.9 1.9l-16.6 9.6-16 9.2-1.4.8-.4.2-.2.1-.7.4h-.1l-.3.1h-.1c-.7.3-1.4.4-2.2.4-.9 0-1.8-.2-2.5-.6l-.1-.1-.1-.1-.4-.2-.2-.1-.1-.1-.1-.1-1.9-.9zm5.6-73.8l33.1 19.1 9.6 5.6v11l-2.3-1.3-50-28.8 4.3-2.5 5.3-3.1z"/></svg>