<?xml version="1.0" encoding="utf-8"?>
<!-- Generator: Adobe Illustrator 22.1.0, SVG Export Plug-In . SVG Version: 6.00 Build 0)  -->
<svg version="1.1" id="Livello_1" xmlns="http://www.w3.org/2000/svg" xmlns:xlink="http://www.w3.org/1999/xlink" x="0px" y="0px"
	 viewBox="0 0 200 200" style="enable-background:new 0 0 200 200;" xml:space="preserve">
<style type="text/css">
	.st0{fill:#01C4C2;}
</style>
<title>wrc</title>
<path class="st0" d="M185.7,58.9l-10.8,62.4c-2,11.7-12.3,20.1-24.1,19.8c-12.3-0.3-22.4-9.9-23.3-22.2l-4.3-64.6
	c-0.2-2.7-2.6-4.8-5.3-4.6c-2.5,0.2-4.5,2.1-4.6,4.6l-6.4,94.1c-0.9,13-11.7,23.1-24.7,23.1c-13.1,0-23.9-10.2-24.7-23.2L53,77.7
	c-0.2-2.5-2.4-4.3-4.8-4.1c-2.1,0.2-3.9,1.8-4.1,3.9l-6.8,60.8c-0.7,6.3-2.6,12.3-5.5,17.9l-3.3,6.3c34.3,39.7,94.3,44,134,9.7
	C194.9,144.1,204.5,97.6,185.7,58.9L185.7,58.9z"/>
<path class="st0" d="M16.5,139.6c0.8-2.1,1.3-4.2,1.6-6.4L25.6,75c1.5-12.5,12.8-21.5,25.3-20c10.8,1.3,19.2,10,20.1,20.9l6.2,72.4
	c0.2,2.8,2.6,4.9,5.4,4.6c2.5-0.2,4.5-2.2,4.6-4.6l8.1-95.2c1-12.4,11.4-22,23.9-22c12.6,0,23,9.7,23.9,22.3l4.4,63.7
	c0.1,2.2,2.1,3.9,4.3,3.8c1.9-0.1,3.4-1.5,3.7-3.4l14.1-82.1C133.9-2.8,73.8-4.9,35.4,30.9c-30.8,28.7-39,74.3-20.2,111.9
	L16.5,139.6z"/>
</svg>
