<svg xmlns="http://www.w3.org/2000/svg" id="Layer_1" viewBox="0 0 792 792"><style>.st1{fill:#529dd3}</style><path fill="#30618e" fill-rule="evenodd" d="M395.03 64.08c180.29 0 326.44 146.15 326.44 326.44S575.32 716.96 395.03 716.96 68.59 570.81 68.59 390.52 214.74 64.08 395.03 64.08" clip-rule="evenodd"/><path d="M223.41 595c40.84 34.32 92.13 56.63 148.4 61.47l7.69 11.1 10.45 15.07c-76.83-1.31-146.44-32.29-197.87-81.96l18.04-3.27 13.29-2.41zm-94.32-181.25c4.85 56.27 27.16 107.56 61.48 148.4l-2.41 13.3-3.27 18.03c-49.68-51.43-80.65-121.04-81.96-197.87L118 406.06l11.09 7.69zm61.47-194.84c-34.32 40.85-56.62 92.13-61.47 148.39l-11.1 7.69-15.07 10.44c1.32-76.83 32.29-146.43 81.96-197.86l3.27 18.04 2.41 13.3zm181.25-94.33c-56.27 4.85-107.55 27.15-148.4 61.48l-13.3-2.41-18.03-3.27c51.43-49.68 121.04-80.65 197.87-81.96l-10.45 15.07-7.69 11.09zm226.18 476.1c-51.42 49.67-121.03 80.65-197.86 81.96l10.44-15.07 7.69-11.1c56.27-4.85 107.55-27.16 148.4-61.47l13.29 2.41 18.04 3.27zm89.16-205.07c-1.31 76.83-32.29 146.44-81.96 197.87l-3.27-18.03-2.41-13.29c34.32-40.85 56.63-92.13 61.48-148.4l11.1-7.69 15.06-10.46zm-81.96-208.04c49.67 51.42 80.65 121.03 81.96 197.86L672.08 375l-11.1-7.69c-4.85-56.27-27.16-107.55-61.47-148.4l2.41-13.3 3.27-18.04zM400.12 98.41c76.83 1.32 146.44 32.29 197.86 81.96l-18.03 3.27-13.3 2.41c-40.85-34.32-92.13-56.63-148.4-61.48l-7.69-11.1-10.44-15.06zM542.88 242.67c-37.83-37.84-90.11-61.24-147.85-61.24-57.74 0-110.01 23.4-147.85 61.24-37.84 37.84-61.24 90.11-61.24 147.85 0 57.74 23.4 110.01 61.24 147.85 37.84 37.84 90.11 61.24 147.85 61.24 57.74 0 110.01-23.4 147.85-61.24 37.84-37.83 61.24-90.11 61.24-147.85 0-57.73-23.4-110.01-61.24-147.85m-147.85-86.94c64.84 0 123.54 26.29 166.03 68.77 42.49 42.49 68.77 101.19 68.77 166.03s-26.28 123.54-68.77 166.03c-42.49 42.49-101.19 68.77-166.03 68.77S271.49 599.05 229 556.56c-42.49-42.49-68.77-101.19-68.77-166.03S186.52 266.99 229 224.5c42.49-42.49 101.2-68.77 166.03-68.77z" class="st1"/><path fill="#fff" d="M394.41 484.87l-113.68-65.63v.01l-33.05-19.08.15-9.73v-28.02l7.89 4.55v-.16l171.6 99.07-14.67 8.46-18.24 10.53zm-18.06 64.88l-54.88-31.69-.13-.08h-.02l-59.56-34.39c-7.2-4.15-13.4-8.21-14.08-18.07V438.19l.15.09v-.68l68.6 39.61c7.14 4.05 14.27 8.13 21.4 12.24l-.01.03 11.83 6.84.04-.02 45.3 26.15 57.09-32.96-.02-.03 39.35-22.72.14.09 1.36-.79-73.63-42.51v.01l-138.57-80v.07l-33.05-19.08v-7.74c0-5.7 2.47-10.82 6.39-14.37 2.15-1.93 7.45-4.91 10.11-6.44l57.13-32.99 54.9-31.7c2.63-1.52 8.47-5.11 11.25-6.28 2.31-.97 4.85-1.51 7.52-1.51 3.13 0 6.08.74 8.69 2.06 2.88 1.44 7.16 4.08 10.03 5.74l54.88 31.69 57.25 33.05c2.82 1.63 8.19 4.64 10.39 6.74 3.61 3.45 5.9 8.28 6 13.65v27.02L440.44 284.7l-.11.06-45.42-26.22-57.12 32.98-40.7 23.5 73.63 42.51v-.01l138.56 80v-.07l33.05 19.08v7.74c0 5.7-2.47 10.83-6.39 14.37-2.15 1.93-7.45 4.91-10.11 6.45l-57.14 32.99-54.9 31.7-4.92 2.89-.03.02-1.36.78-.02.01-.55.31-.03.01-2.43 1.32-.01.01-.34.16-.02.02-.88.43-.05.02-.14.07-.02.01-.26.11-.03.02-.11.04-.05.03-.02.01c-2.31.97-4.85 1.51-7.52 1.51-3.13 0-6.08-.74-8.69-2.06l-.14-.07-.13-.07h-.01l-.12-.07-.02-.01-.12-.07h-.02l-.12-.07-.43-.22-.04-.02-.1-.06-.04-.02-.1-.06-.05-.02-.1-.06-.06-.03-.09-.06-.06-.03-.09-.05-.06-.03-.09-.05-.39-.21-.07-.05-.09-.04-.07-.05-.09-.05-.07-.04-.09-.05-.06-.04-1.26-.72-.02-.02-.81-.47v-.01l-.48-.28-.02-.01-.47-.28-.03-.01-.13-.08-.04-.02-.13-.08-3.65-2.17zm19.31-253.58l113.68 65.64v-.02l33.05 19.08-.15 9.73v28.03l-7.89-4.56v.16l-171.59-99.07 14.66-8.47 18.24-10.52z"/></svg>