<?xml version="1.0" encoding="utf-8"?>
<!-- Generator: Adobe Illustrator 22.1.0, SVG Export Plug-In . SVG Version: 6.00 Build 0)  -->
<svg version="1.0" id="Livello_1" xmlns="http://www.w3.org/2000/svg" xmlns:xlink="http://www.w3.org/1999/xlink" x="0px" y="0px"
	 viewBox="0 0 200 200" enable-background="new 0 0 200 200" xml:space="preserve">
<linearGradient id="SVGID_1_" gradientUnits="userSpaceOnUse" x1="5" y1="100" x2="195" y2="100">
	<stop  offset="0" style="stop-color:#15C9CC"/>
	<stop  offset="0.2198" style="stop-color:#25F2F0"/>
	<stop  offset="1" style="stop-color:#07A8B0"/>
</linearGradient>
<path fill="url(#SVGID_1_)" d="M62.5,12.7C28.7,27.2,5,60.9,5,100c0,52.5,42.5,95,95,95s95-42.5,95-95c0-39.1-23.7-72.8-57.5-87.3
	l-10,20.1c26.5,10.8,45.2,36.9,45.2,67.2c0,40.1-32.6,72.6-72.6,72.6S27.4,140.1,27.4,100c0-30.3,18.7-56.4,45.2-67.2l5.1,8L100,5
	H58.6L62.5,12.7z"/>
<circle fill="#25F2F0" cx="100" cy="100" r="27.9"/>
</svg>
