<svg xmlns="http://www.w3.org/2000/svg" viewBox="0 0 200 200"><linearGradient id="a" x1="-47.46" x2="75.88" y1="160.92" y2="65.4" gradientUnits="userSpaceOnUse"><stop offset="0" stop-color="#9aa7f6"/><stop offset="1" stop-color="#09ffd9"/></linearGradient><path fill="url(#a)" d="M33.4 79.2c-2.1 6.7-3.1 13.6-3.1 20.8v.9h24.4v-.9c0-4.6.7-9.1 2-13.2l-23.3-7.6z"/><linearGradient id="b" x1="134.67" x2="285.68" y1="40.79" y2="-76.14" gradientUnits="userSpaceOnUse"><stop offset="0" stop-color="#9aa7f6"/><stop offset="1" stop-color="#09ffd9"/></linearGradient><path fill="url(#b)" d="M121.9 33.7c1.9.6 3.8 1.3 5.6 2.1 4.9 2.1 9.6 4.8 14 8L127 63.7c-3.8-2.8-8.1-5.1-12.8-6.6l7.7-23.4z"/><linearGradient id="c" x1="170.5" x2="431.89" y1="62.16" y2="-140.3" gradientUnits="userSpaceOnUse"><stop offset="0" stop-color="#9aa7f6"/><stop offset="1" stop-color="#09ffd9"/></linearGradient><path fill="url(#c)" d="M156.9 59.5L137 74c2.7 3.8 4.9 8.2 6.3 12.8l2.4-.8 21-6.8c-2.2-7-5.5-13.6-9.8-19.7z"/><linearGradient id="d" x1="-66.12" x2="109.45" y1="261.97" y2="125.99" gradientUnits="userSpaceOnUse"><stop offset="0" stop-color="#9aa7f6"/><stop offset="1" stop-color="#09ffd9"/></linearGradient><path fill="url(#d)" d="M86.3 143.2c-4.5-1.5-8.7-3.6-12.5-6.3l-14.5 19.9c4.2 3 8.6 5.5 13.3 7.5 0 0 4.1 1.6 6.1 2.2l7.6-23.3z"/><linearGradient id="e" x1="8.58" x2="119.62" y1="99.33" y2="13.35" gradientUnits="userSpaceOnUse"><stop offset="0" stop-color="#9aa7f6"/><stop offset="1" stop-color="#09ffd9"/></linearGradient><path fill="url(#e)" d="M58.6 43.8c-2.8 2.1-5.4 4.3-7.9 6.8-1 1-6.2 6.9-7.6 8.9l1.8 1.3 12.9 9.4L63 74c2.8-3.9 6.2-7.4 10-10.3L58.6 43.8zm2.8 22.1c-.3.4-.7.7-1 1.1.4-.3.7-.7 1-1.1z"/><linearGradient id="f" x1="77.68" x2="184.25" y1="53.09" y2="-29.43" gradientUnits="userSpaceOnUse"><stop offset="0" stop-color="#9aa7f6"/><stop offset="1" stop-color="#09ffd9"/></linearGradient><path fill="url(#f)" d="M98.7 30.2c-7.1.1-14 1.3-20.5 3.5l7.5 23.4c4.6-1.5 9.3-2.3 14.3-2.3V30.2h-1.3zm-9.3 14.7c1.1-.6 2.3-1.1 3.5-1.6-1.2.5-2.4 1-3.5 1.6z"/><linearGradient id="g" x1="101.69" x2="222.38" y1="170.47" y2="77.01" gradientUnits="userSpaceOnUse"><stop offset="0" stop-color="#9aa7f6"/><stop offset="1" stop-color="#09ffd9"/></linearGradient><path fill="url(#g)" d="M126.2 136.9c3.8-2.7 7.2-6 10-9.8l20 14.6c-2 2.7-4.3 5.4-6.7 7.8-2.3 2.3-7.5 6.4-7.5 6.4-.4.3-.8.6-1.3.9l-.3-.4-14.2-19.5z"/><linearGradient id="h" x1="28.22" x2="158.85" y1="219.82" y2="118.66" gradientUnits="userSpaceOnUse"><stop offset="0" stop-color="#9aa7f6"/><stop offset="1" stop-color="#09ffd9"/></linearGradient><path fill="url(#h)" d="M113.7 143.2c-4.4 1.4-9.1 2.1-13.7 2.1v24.6c7.3 0 14.5-1.1 21.4-3.3l-7.7-23.4z"/><linearGradient id="i" x1="-130.78" x2="82.28" y1="263.92" y2="98.91" gradientUnits="userSpaceOnUse"><stop offset="0" stop-color="#9aa7f6"/><stop offset="1" stop-color="#09ffd9"/></linearGradient><path fill="url(#i)" d="M57.2 114.8l-23.3 7.6c1.2 3.5 2.6 6.9 4.3 10.2.4.7.8 1.5 1.2 2.2l.1.1c1.4 2.3 2.8 4.6 4.4 6.7l19.9-14.4c-2.8-3.8-5-7.9-6.6-12.4z"/><linearGradient id="j" x1="139.05" x2="357.12" y1="124.58" y2="-44.3" gradientUnits="userSpaceOnUse"><stop offset="0" stop-color="#9aa7f6"/><stop offset="1" stop-color="#09ffd9"/></linearGradient><path fill="url(#j)" d="M145.3 100.9c-.1 4.8-1 9.5-2.5 13.9l23.4 7.6c2.3-6.9 3.5-14.1 3.6-21.5h-24.5z"/><linearGradient id="k" x1="129.56" x2="135.46" y1="-719.55" y2="-700.45" gradientTransform="translate(0 708)" gradientUnits="userSpaceOnUse"><stop offset="0" stop-color="#047ff6"/><stop offset="1" stop-color="#29f2f6"/></linearGradient><path fill="url(#k)" d="M137.4 12.8c-.1-.1-.3-.1-.4-.2l-.2.1c.2.1.4.1.6.1z"/><linearGradient id="l" x1="124.81" x2="130.7" y1="-718.23" y2="-699.18" gradientTransform="translate(0 708)" gradientUnits="userSpaceOnUse"><stop offset="0" stop-color="#047ff6"/><stop offset="1" stop-color="#29f2f6"/></linearGradient><path fill="url(#l)" d="M130.4 12.4c1.2 0 2.4 0 3.6.1l.9-.7c-1.3-.5-2.6-1-3.8-1.4l-2.5 2.1c.6 0 1.2-.1 1.8-.1z"/><linearGradient id="m" x1="85.74" x2="91.63" y1="-706.16" y2="-687.11" gradientTransform="translate(0 708)" gradientUnits="userSpaceOnUse"><stop offset="0" stop-color="#047ff6"/><stop offset="1" stop-color="#29f2f6"/></linearGradient><path fill="url(#m)" d="M77.9 18.2c4.1 0 8.1.3 12.1.7 2.6-.3 5.2-.5 7.8-.6 9.3-3.5 19.4-5.5 29.9-5.8l-1.1-.3 2.8-2.4-3.9-1.2-2.6 2.5-1.8-.5 2.6-2.6-4-.9-2.4 2.7-1.8-.4 2.4-2.7c-1.3-.3-2.7-.5-4-.7l-2.2 2.8-1.9-.2 2.3-2.8c-1.3-.2-2.7-.3-4.1-.4l-2.1 2.9-1.9-.1 2.1-3c-1.3-.1-2.7-.1-4.1-.2l-2 3.2h-1.9l1.9-3.1c-1.4 0-2.7 0-4.1.1l-1.7 3.2-1.9.1L94 5.4l-4.1.3L88.4 9l-1.9.2L88 5.9l-4 .6-1.3 3.4-1.7.3 1.3-3.4c-1.3.3-2.7.5-4 .9l-1.1 3.4-1.8.5 1-3.5c-1.3.3-2.6.7-4 1.1l-.9 3.5-1.8.6.9-3.6c-1.3.4-2.6.9-3.9 1.3l-.6 3.6-1.8.7.6-3.6c-1.3.5-2.5 1-3.8 1.6l-.4 3.6-1.7.8.4-3.6c-1.2.6-2.5 1.2-3.7 1.8l-.2 3.6-1.7.9.2-3.6c-1.2.7-2.1 1.3-3.3 2.1v2.8c9-2.3 17.8-3.5 27.2-3.5z"/><linearGradient id="n" x1="40.94" x2="46.82" y1="-692.55" y2="-673.52" gradientTransform="translate(0 708)" gradientUnits="userSpaceOnUse"><stop offset="0" stop-color="#047ff6"/><stop offset="1" stop-color="#29f2f6"/></linearGradient><path fill="url(#n)" d="M44.2 23c-.5.4-1 .7-1.5 1.1.5-.2 1-.3 1.5-.5V23z"/><linearGradient id="o" x1="45.16" x2="51.08" y1="-693.83" y2="-674.69" gradientTransform="translate(0 708)" gradientUnits="userSpaceOnUse"><stop offset="0" stop-color="#047ff6"/><stop offset="1" stop-color="#29f2f6"/></linearGradient><path fill="url(#o)" d="M49.1 22.1v-2.4c-1.2.7-2.4 1.5-3.5 2.3l.1 1.1c.9-.2 1-.2 3.4-1z"/><linearGradient id="p" x1="189.73" x2="134.73" y1="-686.53" y2="-673.63" gradientTransform="translate(0 708)" gradientUnits="userSpaceOnUse"><stop offset="0" stop-color="#047ff6"/><stop offset=".16" stop-color="#0684f6"/><stop offset=".36" stop-color="#0a93f6"/><stop offset=".57" stop-color="#12abf6"/><stop offset=".8" stop-color="#1dcdf6"/><stop offset="1" stop-color="#29f2f6"/></linearGradient><path fill="url(#p)" d="M133.9 14.7l-1.8-.7 2-1.5c-1.2 0-2.4-.1-3.6-.1h-1.8l-.3.3-.7-.2c-10.2.3-20.3 2.2-29.9 5.8h2.2c16.6 0 32 4.9 45 13.4 12.1 3.9 23.3 9.9 33.1 17.5h2.2c-.7-1.2-1.5-2.3-2.3-3.4l-3.6.3-1.1-1.5 3.6-.3c-.8-1.1-1.6-2.2-2.5-3.3l-3.6.5-1.2-1.4 3.6-.5c-.9-1-1.8-2.1-2.7-3.1l-3.5.7-1.3-1.4 3.6-.7c-.7-.7-1.4-1.4-2.1-2.2l-.8-.8-3.5.9-1.4-1.3 3.5-.9-3-2.7-3.4 1.2-1.5-1.2 3.4-1.2c-1-.9-2.1-1.7-3.2-2.5l-3.3 1.4-1.5-1.1 3.3-1.4c-1.1-.8-2.2-1.6-3.3-2.3l-3.2 1.6-1.6-1L151 20c-1.2-.7-2.3-1.4-3.5-2.1l-3.1 1.8-1.7-.9 3.2-1.8c-1.2-.7-2.4-1.3-3.6-1.9l-3 2-1.7-.8 3.1-2-3.3-1.5h-.6l-2.9 1.9z"/><linearGradient id="q" x1="195.87" x2="140.86" y1="-659.51" y2="-646.61" gradientTransform="translate(0 708)" gradientUnits="userSpaceOnUse"><stop offset="0" stop-color="#047ff6"/><stop offset=".16" stop-color="#0684f6"/><stop offset=".36" stop-color="#0a93f6"/><stop offset=".57" stop-color="#12abf6"/><stop offset=".8" stop-color="#1dcdf6"/><stop offset="1" stop-color="#29f2f6"/></linearGradient><path fill="url(#q)" d="M182.4 53c-.4-.7-.8-1.4-1.3-2.1h-1.2c.8.8 1.7 1.4 2.5 2.1z"/><linearGradient id="r" x1="45.03" x2="-25.66" y1="142.3" y2="70.16" gradientUnits="userSpaceOnUse"><stop offset="0" stop-color="#9a7ff6"/><stop offset="1" stop-color="#29f2f6"/></linearGradient><path fill="url(#r)" d="M94.1 192.1l-1.8 2.6c-1.4-.1-3.4-.2-4.7-.4l2.3-2.8-1.9-.2-2.3 2.8c-1.3-.2-2.7-.4-4-.7l2.5-2.7-1.8-.4L80 193l-4-.9 2.7-2.5-1.8-.5-2.6 2.5-3.9-1.2 2.8-2.4-1.8-.6-2.8 2.4c-1.2-.4-2.5-.9-3.8-1.4l3-2.2-1.8-.7-2.9 2.2c-.2 0-.4-.1-.6-.2-1-.4-2.1-.9-3.1-1.4l3.1-2-1.7-.8-3.1 2c-1.2-.6-2.4-1.2-3.6-1.9l3.2-1.8-1.7-.9-3.1 1.8c-1.2-.7-2.3-1.4-3.5-2.1l3.3-1.6-1.6-1-3.3 1.6c-1.1-.7-2.2-1.5-3.3-2.3l3.4-1.4-1.5-1.1-3.3 1.4c-1.1-.8-2.2-1.6-3.2-2.5l3.4-1.2-1.4-1.2-3.4 1.2-3-2.7 3.5-.9-1.4-1.3-3.5.9-.8-.8c-.7-.8-1.4-1.5-2.1-2.2l3.6-.7-1.3-1.4-3.5.7c-.9-1-1.8-2.1-2.7-3.1l3.6-.5-1.2-1.4-3.6.5c-.9-1.1-1.7-2.2-2.5-3.3l3.6-.3-1.1-1.5-3.6.3c-.8-1.1-1.6-2.2-2.3-3.4h3.6l-1-1.6h-3.6c-.8-1.2-1.4-2.4-2.1-3.6l3.7.2-.9-1.7-3.6-.2c-.6-1.2-1.2-2.5-1.8-3.7l3.6.4-.8-1.7-3.6-.4c-.6-1.3-1.1-2.5-1.6-3.8l3.6.6-.7-1.8-3.6-.6c-.4-1.3-.9-2.6-1.3-3.9l3.6.9-.6-1.8-3.6-.9c-.4-1.4-.8-2.7-1.1-4l3.5 1-.5-1.8-3.5-1.1c-.1-.3-.2-.7-.3-1.1l.3-2.5 2.5.9-.4-1.8-1.9-.7.6-3.4.7.3-.2-1.9h-.1c.8-4 1.8-7.9 3.1-11.8v-.1c2.3-6.9 5.2-13.6 8.8-19.8-1.6 6.3-2.5 13-2.5 19.8v.5a81.9 81.9 0 0 0 49.5 75.2c4.3 3.9 9 7.3 13.9 10.4 4 2.4 8.7 4.6 12.6 6.4z"/><linearGradient id="s" x1="-13.19" x2="67.77" y1="-709.99" y2="-629.31" gradientTransform="translate(0 708)" gradientUnits="userSpaceOnUse"><stop offset="0" stop-color="#047ff6"/><stop offset="1" stop-color="#29f2f6"/></linearGradient><path fill="url(#s)" d="M11.8 99.6c2.3-6.9 5.2-13.6 8.8-19.8a81.68 81.68 0 0 1 69.3-61c-13.1-1.5-26.4-.5-39.2 2.9v.7l-1.6 1v-1.3c-1.1.3-2.2.7-3.4 1l.2 2.5-1.5 1.1-.2-3.1c-.5.2-1 .3-1.5.5-.6.4-1.2.9-1.8 1.4l.5 3.6-1.4 1.4-.5-3.6c-1 .9-2.1 1.8-3.1 2.7l.7 3.5-1.4 1.3-.7-3.6c-.7.7-1.4 1.4-2.2 2.1l-.8.8.9 3.5-1.3 1.4-.8-3.6-2.7 3 1.2 3.4-1.3 1.5-1.2-3.4c-.9 1-1.7 2.1-2.5 3.2l1.4 3.3-1.1 1.5-1.4-3.4c-.8 1.1-1.6 2.2-2.3 3.3l1.6 3.2-1 1.6-1.6-3.3c-.7 1.2-1.4 2.3-2.1 3.5l1.8 3.1-.9 1.7-1.8-3.2c-.7 1.2-1.3 2.4-1.9 3.6l2 3.1-1 1.9-2-3.1c-.6 1.2-1.1 2.5-1.7 3.7l2.2 2.9-.7 1.8-2.1-2.9c-.5 1.3-1 2.6-1.4 3.8l2.4 2.8-.7 1.8-2.4-2.8-1.2 3.9 2.6 2.6-.5 1.9L8 76.4l-.9 4 2.7 2.4-.4 1.8-2.7-2.5c-.3 1.3-.5 2.7-.7 4l2.8 2.2-.2 1.9-2.8-2.3c-.2 1.3-.3 2.7-.4 4.1l2.9 2.1-.1 1.9-3-2.1c-.1 1.5-.2 2.8-.2 4.2l2.4 1.5h4.4z"/><linearGradient id="t" x1="-61.17" x2="19.79" y1="-661.85" y2="-581.16" gradientTransform="translate(0 708)" gradientUnits="userSpaceOnUse"><stop offset="0" stop-color="#047ff6"/><stop offset="1" stop-color="#29f2f6"/></linearGradient><path fill="url(#t)" d="M8.4 113.1l-2.6-1.2.6 4 1.5.5c.1-1 .3-2.2.5-3.3z"/><linearGradient id="u" x1="-55.69" x2="25.25" y1="-667.32" y2="-586.65" gradientTransform="translate(0 708)" gradientUnits="userSpaceOnUse"><stop offset="0" stop-color="#047ff6"/><stop offset="1" stop-color="#29f2f6"/></linearGradient><path fill="url(#u)" d="M11.8 99.6H7.5l.6.4v1.9l-3-1.9c0 1.4 0 2.7.1 4.1l3.2 1.7.1 1.9-3.2-1.7.3 4.1 3.2 1.4c.7-4 1.8-8 3-11.9z"/><linearGradient id="v" x1="-63.64" x2="17.34" y1="-659.41" y2="-578.7" gradientTransform="translate(0 708)" gradientUnits="userSpaceOnUse"><stop offset="0" stop-color="#047ff6"/><stop offset="1" stop-color="#29f2f6"/></linearGradient><path fill="url(#v)" d="M6.7 117.8c.2.9.4 1.9.6 2.9l.3-2.5-.9-.4z"/><linearGradient id="w" x1="172.94" x2="167.49" y1="-526.91" y2="-605.94" gradientTransform="translate(0 708)" gradientUnits="userSpaceOnUse"><stop offset="0" stop-color="#9a7ff6"/><stop offset=".14" stop-color="#9289f4"/><stop offset=".39" stop-color="#7ba5ed"/><stop offset=".71" stop-color="#56d2e3"/><stop offset="1" stop-color="#31ffd8"/></linearGradient><path fill="url(#w)" d="M171.3 162.8c.2-.3.5-.6.7-.9l-.1-.4c-.3.5-.5.9-.6 1.3z"/><linearGradient id="x" x1="200.14" x2="194.69" y1="-528.82" y2="-607.78" gradientTransform="translate(0 708)" gradientUnits="userSpaceOnUse"><stop offset="0" stop-color="#9a7ff6"/><stop offset=".14" stop-color="#9289f4"/><stop offset=".39" stop-color="#7ba5ed"/><stop offset=".71" stop-color="#56d2e3"/><stop offset="1" stop-color="#31ffd8"/></linearGradient><path fill="url(#x)" d="M195 100v-.4h-.7l.7.4z"/><linearGradient id="y" x1="175.8" x2="170.36" y1="-527.13" y2="-606.1" gradientTransform="translate(0 708)" gradientUnits="userSpaceOnUse"><stop offset="0" stop-color="#9a7ff6"/><stop offset=".14" stop-color="#9289f4"/><stop offset=".39" stop-color="#7ba5ed"/><stop offset=".71" stop-color="#56d2e3"/><stop offset="1" stop-color="#31ffd8"/></linearGradient><path fill="url(#y)" d="M172.8 159.3l.4 1.2c.9-1 1.7-2.1 2.5-3.2l-1.2-2.8c-.5 1.7-1.1 3.3-1.7 4.8z"/><linearGradient id="z" x1="193.34" x2="187.89" y1="-528.16" y2="-607.12" gradientTransform="rotate(-.99 40746.75 -303.26) scale(.99995)" gradientUnits="userSpaceOnUse"><stop offset="0" stop-color="#9a7ff6"/><stop offset=".14" stop-color="#9289f4"/><stop offset=".39" stop-color="#7ba5ed"/><stop offset=".71" stop-color="#56d2e3"/><stop offset="1" stop-color="#31ffd8"/></linearGradient><path fill="url(#z)" d="M184.3 59.6l1.7.2c-.6-1.2-1.2-2.5-1.9-3.7 0 1.2.1 2.3.2 3.5z"/><linearGradient id="A" x1="194.01" x2="188.61" y1="-529.04" y2="-607.36" gradientTransform="translate(0 708)" gradientUnits="userSpaceOnUse"><stop offset="0" stop-color="#9a7ff6"/><stop offset=".14" stop-color="#9289f4"/><stop offset=".39" stop-color="#7ba5ed"/><stop offset=".71" stop-color="#56d2e3"/><stop offset="1" stop-color="#31ffd8"/></linearGradient><path fill="url(#A)" d="M184.4 63.6c0 9.3-1.1 18.5-3 27.2.3 2.9.5 5.8.5 8.9h10v-1.5l2.4 1.5h.7c0-1.2 0-2.5-.1-3.7l-3.2-1.7-.1-1.9 3.2 1.7c-.1-1.4-.2-2.7-.4-4.1l-3.3-1.5-.2-1.9 3.3 1.5-.6-4-3.4-1.3-.4-1.8 3.4 1.3c-.3-1.3-.5-2.7-.9-4l-3.5-1.1-.5-1.8 3.5 1.1c-.3-1.3-.7-2.6-1.1-4l-3.6-.9-.6-1.8 3.6.9c-.4-1.3-.9-2.6-1.3-3.9l-3.6-.6-.7-1.8 3.6.6c-.5-1.2-.9-2.4-1.5-3.6l-2.2-.2v2.4"/><linearGradient id="B" x1="188.73" x2="183.28" y1="-528.01" y2="-606.99" gradientTransform="translate(0 708)" gradientUnits="userSpaceOnUse"><stop offset="0" stop-color="#9a7ff6"/><stop offset=".14" stop-color="#9289f4"/><stop offset=".39" stop-color="#7ba5ed"/><stop offset=".71" stop-color="#56d2e3"/><stop offset="1" stop-color="#31ffd8"/></linearGradient><path fill="url(#B)" d="M191.9 100v-.4h-10v.4c0 5.5-.5 11-1.6 16.2.1 1.4.1 2.9.1 4.3 0 11.3-1.8 22.2-5.2 32.4l.3-.4 1.4 3.4c.8-1.1 1.6-2.2 2.3-3.4l-1.6-3.3 1-1.6 1.6 3.3c.7-1.2 1.4-2.3 2.1-3.5l-1.8-3.1.9-1.7 1.8 3.2c.7-1.2 1.3-2.4 1.9-3.6l-2-3.1.8-1.7 2 3.1c.6-1.2 1.1-2.5 1.7-3.7l-2.2-2.9.7-1.8 2.2 2.9c.5-1.3 1-2.6 1.4-3.8l-2.4-2.8.6-1.8 2.4 2.8 1.2-3.9-2.5-2.6.5-1.8 2.5 2.6.9-4-2.7-2.4.4-1.8 2.7 2.5c.3-1.3.5-2.7.7-4l-2.8-2.3.2-1.9 2.8 2.3c.2-1.3.3-2.7.4-4.1l-2.9-2.1.1-1.9 3 2.1c.1-1.3.1-2.7.2-4.1l-3.1-2z"/><linearGradient id="C" x1="-511.75" x2="-1405.74" y1="-1212.99" y2="-2125.49" gradientTransform="translate(0 708)" gradientUnits="userSpaceOnUse"><stop offset="0" stop-color="#9a7ff6"/><stop offset="1" stop-color="#29f2f6"/></linearGradient><path fill="url(#C)" d="M100.1 191.9h1.9l-1.9 3.1h1.8c.2 0 1.5 0 2.3-.1l1.7-3.2 1.9-.1-1.7 3.2 4.1-.3 1.5-3.3 1.9-.2-1.5 3.3 4-.6 1.3-3.4 1.8-.4-1.3 3.4c1.3-.3 2.7-.5 4-.9l1.1-3.5 1.8-.5-1.1 3.5c1.3-.3 2.6-.7 4-1.1l.9-3.6 1.8-.6-.9 3.6c1.3-.4 2.6-.9 3.9-1.3l.6-3.6 1.8-.7-.6 3.6c1.3-.5 2.5-1 3.8-1.6l.4-3.6 1.7-.8-.4 3.7c1.2-.6 2.5-1.2 3.7-1.8l.2-3.6 1.7-.9-.2 3.7c1.2-.7 2.4-1.3 3.6-2.1v-3.7l1.6-1v3.7c1.2-.7 2.3-1.5 3.4-2.3l-.3-3.6 1.5-1.1.3 3.6c1.1-.8 2.2-1.6 3.3-2.5l-.5-3.6 1.4-1.2.5 3.6c1-.9 2.1-1.8 3.1-2.7l-1-3.4 1.4-1.3.7 3.6c.7-.7 1.4-1.4 2.2-2.1l.8-.8-.9-3.5 1.3-1.4 1 3.5c.7-.7 1.3-1.5 2-2.2.2-.4.4-.9.6-1.3l-1.3-2.9 1.2-1.5.8 2.2c.6-1.6 1.3-3.1 1.8-4.8l-.2-.5.8-1.1c3.4-10.2 5.2-21.1 5.2-32.4 0-1.4 0-2.9-.1-4.3-7.5 37.4-40.6 65.7-80.2 65.7h-2.7c-5.1 1.6-10.5 2.9-15.9 3.9 4 2.4 8.2 4.6 12.6 6.3l.2-.4 1.9.1-2.2 3c1.3.1 2.7.1 4.1.2l2-3.1z"/><linearGradient id="D" x1="180.14" x2="152.88" y1="-657.9" y2="-639.88" gradientTransform="translate(0 708)" gradientUnits="userSpaceOnUse"><stop offset="0" stop-color="#00a7f6"/><stop offset=".14" stop-color="#02beee"/><stop offset=".36" stop-color="#05dbe5"/><stop offset=".57" stop-color="#07efde"/><stop offset=".79" stop-color="#09fbda"/><stop offset="1" stop-color="#09ffd9"/></linearGradient><path fill="url(#D)" d="M177.6 50.8l-1-1.6h1.5c-9.8-7.7-20.9-13.7-33.1-17.5 19.8 13 33.6 34.4 36.4 59.2 2-8.8 3-17.9 3-27.2v-2.5l-1.2-.1-.8-1.7 1.9.2c0-1.2-.1-2.3-.2-3.5l-3.6-.2-.9-1.7 3.6.2c-.3-.5-.5-1-.8-1.4-.8-.7-1.6-1.4-2.5-2.1l-2.3-.1z"/><linearGradient id="E" x1="89.15" x2="201.6" y1="-534.53" y2="-621.63" gradientTransform="translate(0 708)" gradientUnits="userSpaceOnUse"><stop offset="0" stop-color="#9aa7f6"/><stop offset="1" stop-color="#09ffd9"/></linearGradient><path fill="url(#E)" d="M97.4 181.9a82.5 82.5 0 0 1-29.8-6.6c4.3 4.1 9.2 7.4 14.1 10.5 0 0 11.1-2.1 15.7-3.9z"/><linearGradient id="F" x1="69.77" x2="90.45" y1="-597.55" y2="-618.15" gradientTransform="translate(0 708)" gradientUnits="userSpaceOnUse"><stop offset="0" stop-color="#047ff6"/><stop offset="1" stop-color="#29f2f6"/></linearGradient><path fill="url(#F)" d="M85.2 114.4H75c-1.1 0-2.2-.6-2.7-1.6l-6.4-11.1c-.5-1-.5-2.2 0-3.1l6.4-11.1c.5-1 1.6-1.6 2.7-1.6h10.2c1.8 0 3.1 1.4 3.1 3.1 0 1.8-1.4 3.1-3.1 3.1h-8.4l-4.6 7.9 4.6 7.9h8.4c1.8 0 3.1 1.4 3.1 3.1.1 2-1.3 3.4-3.1 3.4zM75 87.4c-.6 0-1.2.3-1.5.8l-6.4 11.1c-.3.5-.3 1.2 0 1.7l6.4 11.1c.3.5.9.8 1.5.8h10.2c1 0 1.7-.8 1.7-1.7s-.8-1.7-1.7-1.7H76l-5.4-9.4 5.4-9.4h9.2c1 0 1.7-.8 1.7-1.7s-.8-1.7-1.7-1.7l-10.2.1c0-.1 0 0 0 0z"/><linearGradient id="G" x1="92.27" x2="112.95" y1="-597.54" y2="-618.15" gradientTransform="translate(0 708)" gradientUnits="userSpaceOnUse"><stop offset="0" stop-color="#047ff6"/><stop offset="1" stop-color="#29f2f6"/></linearGradient><path fill="url(#G)" d="M107.8 114.4H97.5c-1.1 0-2.2-.6-2.7-1.6l-6.4-11.1c-.5-1-.5-2.2 0-3.1l6.4-11.1c.5-1 1.6-1.6 2.7-1.6h10.2c1.8 0 3.1 1.4 3.1 3.1 0 1.8-1.4 3.1-3.1 3.1h-8.4l-4.6 7.9 4.6 7.9h8.4c1.8 0 3.1 1.4 3.1 3.1.1 2-1.3 3.4-3 3.4zm-10.3-27c-.6 0-1.2.3-1.5.8l-6.4 11.1c-.3.5-.3 1.2 0 1.7l6.4 11.1c.3.5.9.8 1.5.8h10.2c1 0 1.7-.8 1.7-1.7s-.8-1.7-1.7-1.7h-9.2l-5.4-9.4 5.4-9.4h9.2c1 0 1.7-.8 1.7-1.7s-.8-1.7-1.7-1.7l-10.2.1c0-.1 0 0 0 0z"/><linearGradient id="H" x1="113.22" x2="128.79" y1="-596.71" y2="-612.23" gradientTransform="translate(0 708)" gradientUnits="userSpaceOnUse"><stop offset="0" stop-color="#047ff6"/><stop offset="1" stop-color="#29f2f6"/></linearGradient><path fill="url(#H)" d="M131 114.4h-13.3c-1.8 0-3.1-1.4-3.1-3.1V89c0-1.7 1.4-3.1 3.1-3.1 1.8 0 3.1 1.4 3.1 3.1v19.2H131c1.8 0 3.1 1.4 3.1 3.1.1 1.7-1.3 3.1-3.1 3.1zm-13.3-27c-1 0-1.7.7-1.7 1.6v22.3c0 .9.8 1.6 1.7 1.6H131c1 0 1.7-.7 1.7-1.6s-.8-1.6-1.7-1.6h-11.6V89c0-.9-.8-1.6-1.7-1.6z"/></svg>