<?xml version="1.0" encoding="utf-8"?>
<!-- Generator: Adobe Illustrator 22.1.0, SVG Export Plug-In . SVG Version: 6.00 Build 0)  -->
<svg version="1.1" id="Layer_1" xmlns="http://www.w3.org/2000/svg" xmlns:xlink="http://www.w3.org/1999/xlink" x="0px" y="0px"
	 viewBox="0 0 908 908" style="enable-background:new 0 0 908 908;" xml:space="preserve">
<style type="text/css">
	.st0{fill:url(#SVGID_1_);}
	.st1{fill:url(#SVGID_2_);}
	.st2{fill:url(#SVGID_3_);}
	.st3{fill:url(#SVGID_4_);}
	.st4{fill:url(#SVGID_5_);}
	.st5{fill:url(#SVGID_6_);}
	.st6{fill:url(#SVGID_7_);}
	.st7{fill:url(#SVGID_8_);}
	.st8{fill:url(#SVGID_9_);}
	.st9{fill:url(#SVGID_10_);}
	.st10{fill:url(#SVGID_11_);}
	.st11{fill:url(#SVGID_12_);}
	.st12{fill:url(#SVGID_13_);}
	.st13{fill:url(#SVGID_14_);}
	.st14{fill:url(#SVGID_15_);}
	.st15{fill:url(#SVGID_16_);}
	.st16{fill:url(#SVGID_17_);}
	.st17{fill:url(#SVGID_18_);}
	.st18{fill:url(#SVGID_19_);}
	.st19{fill:url(#SVGID_20_);}
	.st20{fill:url(#SVGID_21_);}
	.st21{fill:url(#SVGID_22_);}
	.st22{fill:url(#SVGID_23_);}
	.st23{fill:url(#SVGID_24_);}
	.st24{fill:url(#SVGID_25_);}
	.st25{fill:url(#SVGID_26_);}
	.st26{fill:url(#SVGID_27_);}
	.st27{fill:url(#SVGID_28_);}
	.st28{fill:url(#SVGID_29_);}
	.st29{fill:url(#SVGID_30_);}
	.st30{fill:url(#SVGID_31_);}
	.st31{fill:url(#SVGID_32_);}
	.st32{fill:url(#SVGID_33_);}
	.st33{fill:url(#SVGID_34_);}
	.st34{fill:url(#SVGID_35_);}
	.st35{fill:url(#SVGID_36_);}
	.st36{fill:url(#SVGID_37_);}
	.st37{fill:url(#SVGID_38_);}
	.st38{fill:url(#SVGID_39_);}
	.st39{fill:url(#SVGID_40_);}
	.st40{fill:url(#SVGID_41_);}
	.st41{fill:url(#SVGID_42_);}
	.st42{fill:url(#SVGID_43_);}
	.st43{fill:url(#SVGID_44_);}
	.st44{fill:url(#SVGID_45_);}
	.st45{fill:url(#SVGID_46_);}
	.st46{fill:url(#SVGID_47_);}
	.st47{fill:url(#SVGID_48_);}
	.st48{fill:url(#SVGID_49_);}
	.st49{fill:url(#SVGID_50_);}
	.st50{fill:url(#SVGID_51_);}
	.st51{fill:url(#SVGID_52_);}
	.st52{fill:url(#SVGID_53_);}
	.st53{fill:url(#SVGID_54_);}
	.st54{fill:url(#SVGID_55_);}
	.st55{fill:url(#SVGID_56_);}
	.st56{fill:url(#SVGID_57_);}
	.st57{fill:url(#SVGID_58_);}
	.st58{fill:url(#SVGID_59_);}
	.st59{fill:url(#SVGID_60_);}
	.st60{fill:url(#SVGID_61_);}
	.st61{fill:url(#SVGID_62_);}
	.st62{fill:url(#SVGID_63_);}
	.st63{fill:url(#SVGID_64_);}
	.st64{fill:url(#SVGID_65_);}
	.st65{fill:url(#SVGID_66_);}
</style>
<g>
	<g>
		
			<linearGradient id="SVGID_1_" gradientUnits="userSpaceOnUse" x1="9690.541" y1="1266.8953" x2="9706.2324" y2="1317.6572" gradientTransform="matrix(-1 0 0 -1 10301.2383 1946.7969)">
			<stop  offset="0" style="stop-color:#047FF6"/>
			<stop  offset="1" style="stop-color:#29F2F6"/>
		</linearGradient>
		<path class="st0" d="M601.8,660.5c1.8-1.3,3.6-2.6,5.3-3.9c-2.2,0.8-4.3,1.5-6.5,2.3L601.8,660.5z"/>
		
			<linearGradient id="SVGID_2_" gradientUnits="userSpaceOnUse" x1="9915.499" y1="1197.2639" x2="9931.2451" y2="1248.204" gradientTransform="matrix(-1 0 0 -1 10301.2383 1946.7969)">
			<stop  offset="0" style="stop-color:#047FF6"/>
			<stop  offset="1" style="stop-color:#29F2F6"/>
		</linearGradient>
		<path class="st1" d="M372.6,688.4c-6,0-12-0.2-17.9-0.6c7.1,3,14.4,5.7,21.7,8.1l2.4-7.5C376.8,688.4,374.7,688.4,372.6,688.4z"/>
		
			<linearGradient id="SVGID_3_" gradientUnits="userSpaceOnUse" x1="9804.3164" y1="1231.6605" x2="9820.0547" y2="1282.5773" gradientTransform="matrix(-1 0 0 -1 10301.2383 1946.7969)">
			<stop  offset="0" style="stop-color:#047FF6"/>
			<stop  offset="1" style="stop-color:#29F2F6"/>
		</linearGradient>
		<path class="st2" d="M513.2,673.1c-15.2,0-30.2-1.3-44.8-3.7c-4.7,2-9.5,3.8-14.4,5.4v33l0,0c26.7,0,52.8-4.1,77.6-12l-7.5-23
			C520.5,673,516.8,673.1,513.2,673.1z"/>
		
			<linearGradient id="SVGID_4_" gradientUnits="userSpaceOnUse" x1="10072.9014" y1="1223.0707" x2="9925.9053" y2="1257.5466" gradientTransform="matrix(-1 0 0 -1 10301.2383 1946.7969)">
			<stop  offset="0" style="stop-color:#047FF6"/>
			<stop  offset="0.1627" style="stop-color:#0684F6"/>
			<stop  offset="0.3592" style="stop-color:#0A93F6"/>
			<stop  offset="0.5733" style="stop-color:#12ABF6"/>
			<stop  offset="0.7981" style="stop-color:#1DCDF6"/>
			<stop  offset="1" style="stop-color:#29F2F6"/>
		</linearGradient>
		<path class="st3" d="M454,674.9c4.9-1.7,9.7-3.5,14.4-5.4c-4.8-0.8-9.6-1.7-14.4-2.8V674.9z"/>
		
			<linearGradient id="SVGID_5_" gradientUnits="userSpaceOnUse" x1="10080.335" y1="1254.7529" x2="9933.3379" y2="1289.2291" gradientTransform="matrix(-1 0 0 -1 10301.2383 1946.7969)">
			<stop  offset="0" style="stop-color:#047FF6"/>
			<stop  offset="0.1627" style="stop-color:#0684F6"/>
			<stop  offset="0.3592" style="stop-color:#0A93F6"/>
			<stop  offset="0.5733" style="stop-color:#12ABF6"/>
			<stop  offset="0.7981" style="stop-color:#1DCDF6"/>
			<stop  offset="1" style="stop-color:#29F2F6"/>
		</linearGradient>
		<path class="st4" d="M378.9,688.4l12.8-39.5c-23-2.3-45.2-7.4-66.2-14.8l-19.2,26.4c15.2,10.9,31.4,20.1,48.5,27.3
			c5.9,0.4,11.9,0.6,17.9,0.6C374.7,688.4,376.8,688.4,378.9,688.4z"/>
		
			<linearGradient id="SVGID_6_" gradientUnits="userSpaceOnUse" x1="10101.3291" y1="1344.3102" x2="9954.3652" y2="1378.7786" gradientTransform="matrix(-1 0 0 -1 10301.2383 1946.7969)">
			<stop  offset="0" style="stop-color:#047FF6"/>
			<stop  offset="0.1627" style="stop-color:#0684F6"/>
			<stop  offset="0.3592" style="stop-color:#0A93F6"/>
			<stop  offset="0.5733" style="stop-color:#12ABF6"/>
			<stop  offset="0.7981" style="stop-color:#1DCDF6"/>
			<stop  offset="1" style="stop-color:#29F2F6"/>
		</linearGradient>
		<path class="st5" d="M233.6,580.1c5,8.7,10.5,17,16.5,25.1l8.1-5.9C249.6,593.4,241.4,587,233.6,580.1z"/>
		
			<linearGradient id="SVGID_7_" gradientUnits="userSpaceOnUse" x1="9463.3164" y1="1301.6455" x2="9679.7266" y2="1517.3318" gradientTransform="matrix(-1 0 0 -1 10301.2383 1946.7969)">
			<stop  offset="0" style="stop-color:#047FF6"/>
			<stop  offset="1" style="stop-color:#29F2F6"/>
		</linearGradient>
		<path class="st6" d="M656.8,523l37.8,12.3c8.4-24.9,12.9-51.2,13.2-78.2H689C681.1,480.6,670.3,502.7,656.8,523z"/>
		
			<linearGradient id="SVGID_8_" gradientUnits="userSpaceOnUse" x1="9643.0947" y1="1121.2896" x2="9859.4814" y2="1336.9519" gradientTransform="matrix(-1 0 0 -1 10301.2383 1946.7969)">
			<stop  offset="0" style="stop-color:#047FF6"/>
			<stop  offset="1" style="stop-color:#29F2F6"/>
		</linearGradient>
		<path class="st7" d="M454,648.3v18.3c4.8,1,9.5,2,14.4,2.8c14.6,2.4,29.5,3.7,44.8,3.7c3.7,0,7.3-0.1,11-0.2l-12.3-37.7
			C493.4,641.5,474,645.9,454,648.3z"/>
		
			<linearGradient id="SVGID_9_" gradientUnits="userSpaceOnUse" x1="9560.7969" y1="1203.8771" x2="9777.1777" y2="1419.5345" gradientTransform="matrix(-1 0 0 -1 10301.2383 1946.7969)">
			<stop  offset="0" style="stop-color:#047FF6"/>
			<stop  offset="1" style="stop-color:#29F2F6"/>
		</linearGradient>
		<path class="st8" d="M565.4,610.4l35.2,48.5c2.2-0.7,4.4-1.5,6.5-2.3c9.2-7,18.1-14.7,26.4-23c8.9-8.9,17.1-18.4,24.4-28.3
			l-43.7-31.7C599.4,587.5,583,599.9,565.4,610.4z"/>
		
			<linearGradient id="SVGID_10_" gradientUnits="userSpaceOnUse" x1="10093.6768" y1="1705.7976" x2="10079.1172" y2="1494.7111" gradientTransform="matrix(-1 0 0 -1 10301.2383 1946.7969)">
			<stop  offset="0" style="stop-color:#9A7FF6"/>
			<stop  offset="0.1448" style="stop-color:#9289F4"/>
			<stop  offset="0.3939" style="stop-color:#7BA5ED"/>
			<stop  offset="0.7149" style="stop-color:#56D2E3"/>
			<stop  offset="1" style="stop-color:#31FFD8"/>
		</linearGradient>
		<path class="st9" d="M244.2,450.8c-3.2-16.7-4.9-34-4.9-51.6c0-4,0.1-7.9,0.3-11.8l-27.9-9.1c-7.5,24.2-11.4,49.6-11.4,75.7
			c0,1,0,2,0,3.1h42C242.9,455,243.5,452.9,244.2,450.8z"/>
		
			<linearGradient id="SVGID_11_" gradientUnits="userSpaceOnUse" x1="10049.8789" y1="1708.8279" x2="10035.3174" y2="1497.7228" gradientTransform="matrix(-1 0 0 -1 10301.2383 1946.7969)">
			<stop  offset="0" style="stop-color:#9A7FF6"/>
			<stop  offset="0.1448" style="stop-color:#9289F4"/>
			<stop  offset="0.3939" style="stop-color:#7BA5ED"/>
			<stop  offset="0.7149" style="stop-color:#56D2E3"/>
			<stop  offset="1" style="stop-color:#31FFD8"/>
		</linearGradient>
		<path class="st10" d="M263.6,286.2c-5.9,6.6-11.3,13.5-16.4,20.7l6.4,4.7C256.6,302.9,259.9,294.4,263.6,286.2z"/>
		
			<linearGradient id="SVGID_12_" gradientUnits="userSpaceOnUse" x1="10099.9307" y1="1705.4304" x2="10085.3672" y2="1494.2976" gradientTransform="matrix(-1 0 0 -1 10301.2383 1946.7969)">
			<stop  offset="0" style="stop-color:#9A7FF6"/>
			<stop  offset="0.1448" style="stop-color:#9289F4"/>
			<stop  offset="0.3939" style="stop-color:#7BA5ED"/>
			<stop  offset="0.7149" style="stop-color:#56D2E3"/>
			<stop  offset="1" style="stop-color:#31FFD8"/>
		</linearGradient>
		<path class="st11" d="M229.3,530.1l-15.8,5.1c4.3,12.7,9.5,25,15.8,36.9c-0.4-6.9-0.7-13.7-0.7-20.7
			C228.6,544.3,228.8,537.2,229.3,530.1z"/>
		
			<linearGradient id="SVGID_13_" gradientUnits="userSpaceOnUse" x1="10002.9951" y1="1755.7877" x2="10004.2324" y2="1491.6047" gradientTransform="matrix(-1 0 0 -1 10301.2383 1946.7969)">
			<stop  offset="0" style="stop-color:#9A7FF6"/>
			<stop  offset="0.1448" style="stop-color:#9289F4"/>
			<stop  offset="0.3939" style="stop-color:#7BA5ED"/>
			<stop  offset="0.7149" style="stop-color:#56D2E3"/>
			<stop  offset="1" style="stop-color:#31FFD8"/>
		</linearGradient>
		<path class="st12" d="M300.5,345.5c12.4-15.6,26.2-30,41.2-43.1l-38.3-52.7c-10.1,7.5-19.8,15.8-28.8,24.8
			c-3.8,3.8-7.4,7.7-10.9,11.6c-3.7,8.2-7.1,16.7-10,25.3L300.5,345.5z"/>
		
			<linearGradient id="SVGID_14_" gradientUnits="userSpaceOnUse" x1="9886.7803" y1="1755.2462" x2="9888.0176" y2="1490.9786" gradientTransform="matrix(-1 0 0 -1 10301.2383 1946.7969)">
			<stop  offset="0" style="stop-color:#9A7FF6"/>
			<stop  offset="0.1448" style="stop-color:#9289F4"/>
			<stop  offset="0.3939" style="stop-color:#7BA5ED"/>
			<stop  offset="0.7149" style="stop-color:#56D2E3"/>
			<stop  offset="1" style="stop-color:#31FFD8"/>
		</linearGradient>
		<path class="st13" d="M454,237.7v-35.8c-1.6-0.5-3.2-1.1-4.8-1.6c-25.7,0.5-50.8,4.8-74.6,12.6l17.3,53.2
			C411.4,254.5,432.2,245,454,237.7z"/>
		
			<linearGradient id="SVGID_15_" gradientUnits="userSpaceOnUse" x1="10047.0205" y1="1756.0104" x2="10048.2578" y2="1491.8088" gradientTransform="matrix(-1 0 0 -1 10301.2383 1946.7969)">
			<stop  offset="0" style="stop-color:#9A7FF6"/>
			<stop  offset="0.1448" style="stop-color:#9289F4"/>
			<stop  offset="0.3939" style="stop-color:#7BA5ED"/>
			<stop  offset="0.7149" style="stop-color:#56D2E3"/>
			<stop  offset="1" style="stop-color:#31FFD8"/>
		</linearGradient>
		<path class="st14" d="M244.2,450.8c6-19,13.8-37.2,23-54.5l-27.6-9c-0.2,3.9-0.3,7.8-0.3,11.8C239.3,416.9,241,434.1,244.2,450.8z
			"/>
		
			<linearGradient id="SVGID_16_" gradientUnits="userSpaceOnUse" x1="9694.6689" y1="1626.5332" x2="9517.8721" y2="1446.0667" gradientTransform="matrix(-1 0 0 -1 10301.2383 1946.7969)">
			<stop  offset="0" style="stop-color:#9A7FF6"/>
			<stop  offset="1" style="stop-color:#29F2F6"/>
		</linearGradient>
		<path class="st15" d="M620.2,403.1l76.2-24.8c-7.9-25.5-19.9-49.6-35.5-71.5L605.5,347C612.5,364.8,617.5,383.6,620.2,403.1z"/>
		
			<linearGradient id="SVGID_17_" gradientUnits="userSpaceOnUse" x1="9678.3252" y1="1642.5446" x2="9501.5303" y2="1462.08" gradientTransform="matrix(-1 0 0 -1 10301.2383 1946.7969)">
			<stop  offset="0" style="stop-color:#9A7FF6"/>
			<stop  offset="1" style="stop-color:#29F2F6"/>
		</linearGradient>
		<path class="st16" d="M574.7,291l30-41.3c-15.9-11.7-32.9-21.5-50.9-29.2c-6.7-2.9-13.5-5.4-20.4-7.7l-8.8,26.9
			C543.7,254.4,560.5,271.6,574.7,291z"/>
		
			<linearGradient id="SVGID_18_" gradientUnits="userSpaceOnUse" x1="9713.7813" y1="1607.8708" x2="9537.0107" y2="1427.4319" gradientTransform="matrix(-1 0 0 -1 10301.2383 1946.7969)">
			<stop  offset="0" style="stop-color:#9A7FF6"/>
			<stop  offset="1" style="stop-color:#29F2F6"/>
		</linearGradient>
		<path class="st17" d="M454,200.2c-1.6,0-3.2,0-4.8,0.1c1.6,0.5,3.2,1.1,4.8,1.6V200.2z"/>
		
			<linearGradient id="SVGID_19_" gradientUnits="userSpaceOnUse" x1="9753.373" y1="1569.0198" x2="9576.5703" y2="1388.5471" gradientTransform="matrix(-1 0 0 -1 10301.2383 1946.7969)">
			<stop  offset="0" style="stop-color:#9A7FF6"/>
			<stop  offset="1" style="stop-color:#29F2F6"/>
		</linearGradient>
		<path class="st18" d="M656.8,523c13.4-20.3,24.3-42.4,32.2-65.9h-67c-1.3,17.8-4.5,35-9.3,51.6L656.8,523z"/>
		
			<linearGradient id="SVGID_20_" gradientUnits="userSpaceOnUse" x1="9839.0439" y1="1485.1519" x2="9662.1992" y2="1304.6372" gradientTransform="matrix(-1 0 0 -1 10301.2383 1946.7969)">
			<stop  offset="0" style="stop-color:#9A7FF6"/>
			<stop  offset="1" style="stop-color:#29F2F6"/>
		</linearGradient>
		<path class="st19" d="M560.4,603.5l5,6.9c17.6-10.5,34-22.9,48.9-36.9l-21.8-15.8C583.5,574.2,572.7,589.5,560.4,603.5z"/>
		
			<linearGradient id="SVGID_21_" gradientUnits="userSpaceOnUse" x1="10003.0469" y1="1271.0787" x2="9930.1973" y2="1319.2316" gradientTransform="matrix(-1 0 0 -1 10301.2383 1946.7969)">
			<stop  offset="0" style="stop-color:#00A7F6"/>
			<stop  offset="0.1442" style="stop-color:#02BEEE"/>
			<stop  offset="0.3589" style="stop-color:#05DBE5"/>
			<stop  offset="0.5741" style="stop-color:#07EFDE"/>
			<stop  offset="0.7882" style="stop-color:#09FBDA"/>
			<stop  offset="1" style="stop-color:#09FFD9"/>
		</linearGradient>
		<path class="st20" d="M341.2,612.4L325.5,634c21,7.5,43.3,12.5,66.2,14.8l1.2-3.6C374.4,636.2,357.1,625.2,341.2,612.4z"/>
		
			<linearGradient id="SVGID_22_" gradientUnits="userSpaceOnUse" x1="10070.5791" y1="1373.261" x2="9997.7344" y2="1421.4106" gradientTransform="matrix(-1 0 0 -1 10301.2383 1946.7969)">
			<stop  offset="0" style="stop-color:#00A7F6"/>
			<stop  offset="0.1442" style="stop-color:#02BEEE"/>
			<stop  offset="0.3589" style="stop-color:#05DBE5"/>
			<stop  offset="0.5741" style="stop-color:#07EFDE"/>
			<stop  offset="0.7882" style="stop-color:#09FBDA"/>
			<stop  offset="1" style="stop-color:#09FFD9"/>
		</linearGradient>
		<path class="st21" d="M298.9,569.8c-12.7-15.9-23.6-33.2-32.5-51.7l-37.1,12.1c-0.5,7.1-0.7,14.2-0.7,21.4c0,7,0.2,13.9,0.7,20.7
			c1.4,2.7,2.9,5.3,4.4,8c7.8,6.9,16,13.3,24.6,19.2L298.9,569.8z"/>
		
			<linearGradient id="SVGID_23_" gradientUnits="userSpaceOnUse" x1="10121.3545" y1="1449.9049" x2="10048.4189" y2="1498.1144" gradientTransform="matrix(-1 0 0 -1 10301.2383 1946.7969)">
			<stop  offset="0" style="stop-color:#00A7F6"/>
			<stop  offset="0.1442" style="stop-color:#02BEEE"/>
			<stop  offset="0.3589" style="stop-color:#05DBE5"/>
			<stop  offset="0.5741" style="stop-color:#07EFDE"/>
			<stop  offset="0.7882" style="stop-color:#09FBDA"/>
			<stop  offset="1" style="stop-color:#09FFD9"/>
		</linearGradient>
		<path class="st22" d="M244.2,450.8c-0.7,2.1-1.3,4.2-1.9,6.3h3.2C245,455,244.6,452.9,244.2,450.8z"/>
		
			<linearGradient id="SVGID_24_" gradientUnits="userSpaceOnUse" x1="9812.9844" y1="1682.6516" x2="10112.2773" y2="1450.8712" gradientTransform="matrix(-1 0 0 -1 10301.2383 1946.7969)">
			<stop  offset="0" style="stop-color:#9AA7F6"/>
			<stop  offset="1" style="stop-color:#09FFD9"/>
		</linearGradient>
		<path class="st23" d="M289.5,457.1c0-1,0-2,0-3.1c0-16.7,2.5-32.9,7.2-48.1l-29.5-9.6c-9.2,17.3-16.9,35.5-23,54.5
			c0.4,2.1,0.8,4.2,1.3,6.3L289.5,457.1L289.5,457.1z"/>
		
			<linearGradient id="SVGID_25_" gradientUnits="userSpaceOnUse" x1="9786.0918" y1="1647.9276" x2="10085.4043" y2="1416.1328" gradientTransform="matrix(-1 0 0 -1 10301.2383 1946.7969)">
			<stop  offset="0" style="stop-color:#9AA7F6"/>
			<stop  offset="1" style="stop-color:#09FFD9"/>
		</linearGradient>
		<path class="st24" d="M552.1,322l22.6-31c-14.2-19.4-31-36.6-50.1-51.2l-18.9,58.1C522.6,303.4,538.2,311.7,552.1,322z"/>
		
			<linearGradient id="SVGID_26_" gradientUnits="userSpaceOnUse" x1="9712.7246" y1="1553.2051" x2="10012.0234" y2="1321.42" gradientTransform="matrix(-1 0 0 -1 10301.2383 1946.7969)">
			<stop  offset="0" style="stop-color:#9AA7F6"/>
			<stop  offset="1" style="stop-color:#09FFD9"/>
		</linearGradient>
		<path class="st25" d="M611.4,406l8.9-2.9c-2.7-19.5-7.7-38.3-14.7-56.1l-17,12.4C598.4,373.4,606.2,389.1,611.4,406z"/>
		
			<linearGradient id="SVGID_27_" gradientUnits="userSpaceOnUse" x1="9684.4248" y1="1516.7552" x2="9983.79" y2="1284.9194" gradientTransform="matrix(-1 0 0 -1 10301.2383 1946.7969)">
			<stop  offset="0" style="stop-color:#9AA7F6"/>
			<stop  offset="1" style="stop-color:#09FFD9"/>
		</linearGradient>
		<path class="st26" d="M358.8,588.1l-17.6,24.2c15.9,12.8,33.2,23.9,51.7,32.9l11.2-34.5C387.7,605.6,372.5,597.9,358.8,588.1z"/>
		
			<linearGradient id="SVGID_28_" gradientUnits="userSpaceOnUse" x1="9839.8447" y1="1717.3254" x2="10139.1279" y2="1485.5529" gradientTransform="matrix(-1 0 0 -1 10301.2383 1946.7969)">
			<stop  offset="0" style="stop-color:#9AA7F6"/>
			<stop  offset="1" style="stop-color:#09FFD9"/>
		</linearGradient>
		<path class="st27" d="M355.9,322l-14.3-19.7c-15,13.1-28.7,27.6-41.2,43.1l19.1,13.9C329.6,345.1,341.9,332.5,355.9,322z"/>
		
			<linearGradient id="SVGID_29_" gradientUnits="userSpaceOnUse" x1="9830.8486" y1="1705.7357" x2="10130.1738" y2="1473.9304" gradientTransform="matrix(-1 0 0 -1 10301.2383 1946.7969)">
			<stop  offset="0" style="stop-color:#9AA7F6"/>
			<stop  offset="1" style="stop-color:#09FFD9"/>
		</linearGradient>
		<path class="st28" d="M454,289.5v-51.8c-21.8,7.3-42.6,16.9-62.1,28.4l10.3,31.8C418.6,292.4,435.9,289.5,454,289.5z"/>
		
			<linearGradient id="SVGID_30_" gradientUnits="userSpaceOnUse" x1="9629.2246" y1="1445.3757" x2="9928.5313" y2="1213.5847" gradientTransform="matrix(-1 0 0 -1 10301.2383 1946.7969)">
			<stop  offset="0" style="stop-color:#9AA7F6"/>
			<stop  offset="1" style="stop-color:#09FFD9"/>
		</linearGradient>
		<path class="st29" d="M549.2,588.1l11.2,15.4c12.3-14,23.1-29.3,32.1-45.8l-6.9-5C575.4,566.3,563.1,578.3,549.2,588.1z"/>
		
			<linearGradient id="SVGID_31_" gradientUnits="userSpaceOnUse" x1="9639.3691" y1="1458.5067" x2="9938.7012" y2="1226.696" gradientTransform="matrix(-1 0 0 -1 10301.2383 1946.7969)">
			<stop  offset="0" style="stop-color:#9AA7F6"/>
			<stop  offset="1" style="stop-color:#09FFD9"/>
		</linearGradient>
		<path class="st30" d="M454,618.6L454,618.6v29.7c20-2.4,39.4-6.8,57.9-13.2l-7.9-24.3C488.2,615.8,471.4,618.6,454,618.6z"/>
		
			<linearGradient id="SVGID_32_" gradientUnits="userSpaceOnUse" x1="9754.3223" y1="1607.0515" x2="10053.708" y2="1375.2001" gradientTransform="matrix(-1 0 0 -1 10301.2383 1946.7969)">
			<stop  offset="0" style="stop-color:#9AA7F6"/>
			<stop  offset="1" style="stop-color:#09FFD9"/>
		</linearGradient>
		<path class="st31" d="M298.5,507.6L266.4,518c8.9,18.5,19.8,35.8,32.5,51.7l23.5-17.1C312.2,539.1,304.1,524,298.5,507.6z"/>
		
			<linearGradient id="SVGID_33_" gradientUnits="userSpaceOnUse" x1="9659.3828" y1="1484.3297" x2="9958.7129" y2="1252.5209" gradientTransform="matrix(-1 0 0 -1 10301.2383 1946.7969)">
			<stop  offset="0" style="stop-color:#9AA7F6"/>
			<stop  offset="1" style="stop-color:#09FFD9"/>
		</linearGradient>
		<path class="st32" d="M609.6,507.6l3.1,1c4.8-16.5,8-33.8,9.3-51.6h-3.5C618.2,474.8,615.1,491.7,609.6,507.6z"/>
	</g>
	
		<linearGradient id="SVGID_34_" gradientUnits="userSpaceOnUse" x1="577.9359" y1="-726.2106" x2="602.8752" y2="-645.5289" gradientTransform="matrix(1 0 0 1 0 708)">
		<stop  offset="0" style="stop-color:#047FF6"/>
		<stop  offset="1" style="stop-color:#29F2F6"/>
	</linearGradient>
	<path class="st33" d="M611,84.6c-0.6-0.3-1.2-0.5-1.8-0.7l-0.8,0.6C609.3,84.5,610.1,84.5,611,84.6z"/>
	
		<linearGradient id="SVGID_35_" gradientUnits="userSpaceOnUse" x1="559.2825" y1="-720.1722" x2="584.1611" y2="-639.6869" gradientTransform="matrix(1 0 0 1 0 708)">
		<stop  offset="0" style="stop-color:#047FF6"/>
		<stop  offset="1" style="stop-color:#29F2F6"/>
	</linearGradient>
	<path class="st34" d="M582.6,83.6c5.1,0,10.2,0.1,15.2,0.3l4-3c-5.4-2.1-10.8-4.1-16.2-6l-10.4,8.9
		C577.7,83.7,580.2,83.6,582.6,83.6z"/>
	
		<linearGradient id="SVGID_36_" gradientUnits="userSpaceOnUse" x1="393.8767" y1="-669.0426" x2="418.7531" y2="-588.5647" gradientTransform="matrix(1 0 0 1 0 708)">
		<stop  offset="0" style="stop-color:#047FF6"/>
		<stop  offset="1" style="stop-color:#29F2F6"/>
	</linearGradient>
	<path class="st35" d="M360.5,107.8c17.3,0,34.3,1.1,51.1,3.1c10.8-1.3,21.8-2.2,33-2.5c39.5-14.7,82-23.3,126.3-24.6l-4.5-1.4
		l11.8-10c-5.5-1.8-11-3.4-16.6-5l-11,10.7l-7.7-2L554,65.3c-5.6-1.4-11.2-2.7-16.9-3.9l-10.3,11.3l-7.8-1.5l10.3-11.4
		c-5.7-1.1-11.4-2-17.1-2.9l-9.5,11.9l-7.9-1l9.6-12c-5.7-0.7-11.5-1.3-17.2-1.8l-8.7,12.4l-7.9-0.5l8.8-12.5
		c-5.7-0.4-11.5-0.6-17.3-0.7L454,65.8h-8l8-13l0,0c-5.8,0-11.5,0.1-17.3,0.4l-7.1,13.4l-7.9,0.5l7.1-13.4
		c-5.8,0.4-11.5,0.8-17.2,1.4l-6.2,13.8l-7.9,1l6.3-14c-5.7,0.7-11.4,1.6-17.1,2.5l-5.4,14.3l-7.8,1.5l5.4-14.3
		c-5.7,1.1-11.3,2.3-16.9,3.6L357.5,78l-7.7,2l4.5-14.7c-5.6,1.4-11.1,3-16.7,4.6L334,84.8l-7.6,2.5l3.6-15
		c-5.5,1.8-10.9,3.7-16.3,5.7l-2.6,15.1l-7.4,2.9l2.6-15.2c-5.4,2.1-10.7,4.4-15.9,6.7l-1.7,15.2l-7.2,3.4l1.7-15.3
		c-5.2,2.5-10.4,5-15.5,7.7l-0.7,15.3l-7,3.8l0.7-15.3c-5,2.8-10,5.7-15,8.7l0.2,12.1C282.4,113.2,320.8,107.8,360.5,107.8z"/>
	
		<linearGradient id="SVGID_37_" gradientUnits="userSpaceOnUse" x1="204.5495" y1="-610.4824" x2="229.4015" y2="-530.0828" gradientTransform="matrix(1 0 0 1 0 708)">
		<stop  offset="0" style="stop-color:#047FF6"/>
		<stop  offset="1" style="stop-color:#29F2F6"/>
	</linearGradient>
	<path class="st36" d="M218.2,129.4c-2.1,1.5-4.1,3-6.2,4.5c2.1-0.8,4.2-1.4,6.4-2.2L218.2,129.4z"/>
	
		<linearGradient id="SVGID_38_" gradientUnits="userSpaceOnUse" x1="222.6061" y1="-616.0903" x2="247.4744" y2="-535.6386" gradientTransform="matrix(1 0 0 1 0 708)">
		<stop  offset="0" style="stop-color:#047FF6"/>
		<stop  offset="1" style="stop-color:#29F2F6"/>
	</linearGradient>
	<path class="st37" d="M239.2,125.1l-0.2-10c-4.9,3.1-9.7,6.3-14.4,9.6l0.4,4.8C229.7,128,234.4,126.5,239.2,125.1z"/>
	
		<linearGradient id="SVGID_39_" gradientUnits="userSpaceOnUse" x1="832.835" y1="-585.9831" x2="600.4775" y2="-531.4867" gradientTransform="matrix(1 0 0 1 0 708)">
		<stop  offset="0" style="stop-color:#047FF6"/>
		<stop  offset="0.1627" style="stop-color:#0684F6"/>
		<stop  offset="0.3592" style="stop-color:#0A93F6"/>
		<stop  offset="0.5733" style="stop-color:#12ABF6"/>
		<stop  offset="0.7981" style="stop-color:#1DCDF6"/>
		<stop  offset="1" style="stop-color:#29F2F6"/>
	</linearGradient>
	<path class="st38" d="M596.9,93.1l-7.4-2.9l8.4-6.3c-5.1-0.2-10.1-0.3-15.2-0.3c-2.5,0-4.9,0.1-7.4,0.2l-1.3,1.1l-3.1-1
		c-44.3,1.3-86.8,9.8-126.3,24.6c3.1-0.1,6.3-0.1,9.4-0.1c70.2,0,135.4,20.9,190,56.8c51.2,16.4,98.4,41.7,139.7,74.1l9.2-0.1
		c-3.1-4.9-6.3-9.7-9.6-14.4l-15.2,1.2l-4.7-6.4l15.3-1.2c-3.4-4.7-6.9-9.2-10.5-13.8l-15.1,2.1l-5.1-6.1l15.2-2.2
		c-3.7-4.4-7.5-8.8-11.4-13.1l-14.8,3.1l-5.5-5.8l15-3.1c-2.9-3.1-5.8-6.1-8.8-9.1c-1.1-1.1-2.3-2.2-3.4-3.3l-14.6,4l-5.8-5.4
		l14.7-4c-4.2-4-8.5-7.8-12.8-11.6l-14.3,4.9l-6.2-5.1l14.5-5c-4.4-3.7-9-7.2-13.6-10.7l-14.1,5.8l-6.5-4.7l14.1-5.9
		c-4.7-3.4-9.4-6.7-14.1-9.9l-13.7,6.7l-6.7-4.3l13.8-6.7c-4.9-3.1-9.8-6.1-14.8-9l-13.2,7.5l-7-3.8l13.4-7.6
		c-5.1-2.8-10.2-5.4-15.3-8l-12.8,8.4l-7.2-3.4l12.9-8.5c-4.6-2.2-9.3-4.4-14-6.4c-0.8-0.1-1.7-0.1-2.5-0.1L596.9,93.1z"/>
	
		<linearGradient id="SVGID_40_" gradientUnits="userSpaceOnUse" x1="859.5045" y1="-472.3127" x2="627.1235" y2="-417.8108" gradientTransform="matrix(1 0 0 1 0 708)">
		<stop  offset="0" style="stop-color:#047FF6"/>
		<stop  offset="0.1627" style="stop-color:#0684F6"/>
		<stop  offset="0.3592" style="stop-color:#0A93F6"/>
		<stop  offset="0.5733" style="stop-color:#12ABF6"/>
		<stop  offset="0.7981" style="stop-color:#1DCDF6"/>
		<stop  offset="1" style="stop-color:#29F2F6"/>
	</linearGradient>
	<path class="st39" d="M802.4,254.7c-1.7-3-3.5-6-5.3-8.9l-5.1,0.1C795.5,248.8,799,251.7,802.4,254.7z"/>
	
		<linearGradient id="SVGID_41_" gradientUnits="userSpaceOnUse" x1="-24.1881" y1="-685.0306" x2="317.8287" y2="-344.1581" gradientTransform="matrix(1 0 0 1 0 708)">
		<stop  offset="0" style="stop-color:#047FF6"/>
		<stop  offset="1" style="stop-color:#29F2F6"/>
	</linearGradient>
	<path class="st40" d="M81.5,452.4c9.6-29.3,22.1-57.3,37.3-83.6c34.6-136.4,150.3-240.5,292.8-257.9c-16.8-2-33.8-3.1-51.1-3.1
		c-39.7,0-78.1,5.4-114.6,15.4v3.1l-6.7,4.3l-0.1-5.4c-4.8,1.4-9.5,2.8-14.2,4.4l0.8,10.4l-6.4,4.7l-1-12.9
		c-2.1,0.7-4.3,1.4-6.4,2.2c-2.6,1.9-5.1,4-7.6,6l2.1,15l-6.1,5.1l-2.1-15.1c-4.4,3.7-8.8,7.5-13.1,11.3l3.1,14.8l-5.8,5.5
		l-3.1-14.9c-3.1,2.9-6.1,5.8-9.1,8.8c-1.1,1.1-2.2,2.2-3.3,3.3l4,14.6l-5.4,5.8l-4-14.7c-4,4.2-7.8,8.5-11.6,12.8l4.9,14.4
		l-5.1,6.1l-5-14.5c-3.7,4.4-7.3,9-10.7,13.5l5.8,14.1l-4.7,6.5l-5.9-14.2c-3.4,4.7-6.7,9.4-9.9,14.1L126,246l-4.3,6.7l-6.8-13.9
		c-3.1,4.9-6.1,9.8-9,14.8l7.6,13.3l-3.8,7l-7.7-13.4c-2.8,5-5.5,10.1-8,15.3l8.5,12.9l-3.4,7.2l-8.5-13c-2.5,5.2-4.8,10.5-7,15.8
		l9.3,12.3l-2.9,7.4L80.7,306c-2.1,5.4-4.1,10.8-6,16.2l10,11.7l-2.5,7.6l-10.1-11.8c-1.8,5.5-3.5,11-5,16.6L78,357.4l-2,7.7
		L65.2,354c-1.4,5.6-2.7,11.2-3.9,16.9l11.3,10.3l-1.5,7.8l-11.4-10.4c-1.1,5.7-2,11.3-2.9,17.1l11.9,9.5l-1,7.9l-12-9.6
		c-0.7,5.7-1.3,11.5-1.8,17.2l12.4,8.7l-0.5,8l-12.5-8.8c-0.4,5.7-0.6,11.5-0.7,17.3l10.3,6.3L81.5,452.4L81.5,452.4z"/>
	
		<linearGradient id="SVGID_42_" gradientUnits="userSpaceOnUse" x1="-227.0758" y1="-481.4565" x2="114.9376" y2="-140.5872" gradientTransform="matrix(1 0 0 1 0 708)">
		<stop  offset="0" style="stop-color:#047FF6"/>
		<stop  offset="1" style="stop-color:#29F2F6"/>
	</linearGradient>
	<path class="st41" d="M67,509.3l-11.1-5c0.7,5.7,1.5,11.4,2.5,17.1l6.2,2.3C65.3,518.8,66.1,514,67,509.3z"/>
	
		<linearGradient id="SVGID_43_" gradientUnits="userSpaceOnUse" x1="-203.7863" y1="-504.7258" x2="138.1635" y2="-163.9203" gradientTransform="matrix(1 0 0 1 0 708)">
		<stop  offset="0" style="stop-color:#047FF6"/>
		<stop  offset="1" style="stop-color:#29F2F6"/>
	</linearGradient>
	<path class="st42" d="M81.5,452.4H63.2l2.7,1.6v8l-13-8v0.1c0,5.8,0.2,11.5,0.4,17.2l13.4,7.1l0.5,8l-13.5-7.1
		c0.4,5.8,0.8,11.5,1.4,17.2l13.4,6C71.8,485.4,76.2,468.6,81.5,452.4z"/>
	
		<linearGradient id="SVGID_44_" gradientUnits="userSpaceOnUse" x1="-237.3167" y1="-471.3621" x2="104.7991" y2="-130.391" gradientTransform="matrix(1 0 0 1 0 708)">
		<stop  offset="0" style="stop-color:#047FF6"/>
		<stop  offset="1" style="stop-color:#29F2F6"/>
	</linearGradient>
	<path class="st43" d="M59.8,529.1c0.8,4,1.6,8.1,2.5,12.1c0.4-3.6,0.9-7.1,1.3-10.6L59.8,529.1z"/>
	
		<linearGradient id="SVGID_45_" gradientUnits="userSpaceOnUse" x1="761.94" y1="88.4672" x2="738.9113" y2="-245.3958" gradientTransform="matrix(1 0 0 1 0 708)">
		<stop  offset="0" style="stop-color:#9A7FF6"/>
		<stop  offset="0.1448" style="stop-color:#9289F4"/>
		<stop  offset="0.3939" style="stop-color:#7BA5ED"/>
		<stop  offset="0.7149" style="stop-color:#56D2E3"/>
		<stop  offset="1" style="stop-color:#31FFD8"/>
	</linearGradient>
	<path class="st44" d="M755,719.4c1-1.2,2-2.4,3-3.6l-0.6-1.9C756.5,715.8,755.8,717.6,755,719.4z"/>
	
		<linearGradient id="SVGID_46_" gradientUnits="userSpaceOnUse" x1="876.9764" y1="80.4082" x2="853.9675" y2="-253.1727" gradientTransform="matrix(1 0 0 1 0 708)">
		<stop  offset="0" style="stop-color:#9A7FF6"/>
		<stop  offset="0.1448" style="stop-color:#9289F4"/>
		<stop  offset="0.3939" style="stop-color:#7BA5ED"/>
		<stop  offset="0.7149" style="stop-color:#56D2E3"/>
		<stop  offset="1" style="stop-color:#31FFD8"/>
	</linearGradient>
	<path class="st45" d="M855.2,454.1L855.2,454.1c0-0.6,0-1.2,0-1.7h-2.8L855.2,454.1z"/>
	
		<linearGradient id="SVGID_47_" gradientUnits="userSpaceOnUse" x1="774.1111" y1="87.5707" x2="751.0984" y2="-246.0599" gradientTransform="matrix(1 0 0 1 0 708)">
		<stop  offset="0" style="stop-color:#9A7FF6"/>
		<stop  offset="0.1448" style="stop-color:#9289F4"/>
		<stop  offset="0.3939" style="stop-color:#7BA5ED"/>
		<stop  offset="0.7149" style="stop-color:#56D2E3"/>
		<stop  offset="1" style="stop-color:#31FFD8"/>
	</linearGradient>
	<path class="st46" d="M761.3,704.6l1.8,5.2c3.7-4.4,7.3-8.9,10.7-13.5l-4.9-11.8C766.6,691.2,764,697.9,761.3,704.6z"/>
	
		<linearGradient id="SVGID_48_" gradientUnits="userSpaceOnUse" x1="848.609" y1="82.35" x2="825.5988" y2="-251.2457" gradientTransform="matrix(1 0 0 1 0 708)">
		<stop  offset="0" style="stop-color:#9A7FF6"/>
		<stop  offset="0.1448" style="stop-color:#9289F4"/>
		<stop  offset="0.3939" style="stop-color:#7BA5ED"/>
		<stop  offset="0.7149" style="stop-color:#56D2E3"/>
		<stop  offset="1" style="stop-color:#31FFD8"/>
	</linearGradient>
	<path class="st47" d="M810,282.4l7.2,0.8c-2.5-5.2-5-10.4-7.7-15.5h-0.2C809.6,272.6,809.9,277.5,810,282.4z"/>
	
		<linearGradient id="SVGID_49_" gradientUnits="userSpaceOnUse" x1="851.3143" y1="82.2537" x2="828.3" y2="-251.4027" gradientTransform="matrix(1 0 0 1 0 708)">
		<stop  offset="0" style="stop-color:#9A7FF6"/>
		<stop  offset="0.1448" style="stop-color:#9289F4"/>
		<stop  offset="0.3939" style="stop-color:#7BA5ED"/>
		<stop  offset="0.7149" style="stop-color:#56D2E3"/>
		<stop  offset="1" style="stop-color:#31FFD8"/>
	</linearGradient>
	<path class="st48" d="M810.4,300c0,39.5-4.5,78-12.8,115c1.4,12.3,2.1,24.7,2.2,37.4h42.4v-6.3l10.3,6.3h2.8
		c0-5.2-0.2-10.4-0.4-15.6l-13.4-7.1l-0.5-8l13.6,7.2c-0.4-5.8-0.9-11.5-1.5-17.3l-13.9-6.3l-1-7.9l14,6.3
		c-0.7-5.7-1.6-11.4-2.5-17.1l-14.3-5.4l-1.5-7.8l14.4,5.5c-1.1-5.7-2.3-11.3-3.6-16.9l-14.7-4.5l-2-7.7l14.8,4.6
		c-1.4-5.6-3-11.1-4.6-16.7l-15-3.6l-2.5-7.6l15.1,3.6c-1.8-5.5-3.7-10.9-5.7-16.3l-15.2-2.7l-2.9-7.4l15.3,2.7
		c-2.1-5.4-4.3-10.7-6.7-16l-10.4-1.1C810.3,292.9,810.4,296.4,810.4,300z"/>
	
		<linearGradient id="SVGID_50_" gradientUnits="userSpaceOnUse" x1="828.5644" y1="83.8229" x2="805.55" y2="-249.8328" gradientTransform="matrix(1 0 0 1 0 708)">
		<stop  offset="0" style="stop-color:#9A7FF6"/>
		<stop  offset="0.1448" style="stop-color:#9289F4"/>
		<stop  offset="0.3939" style="stop-color:#7BA5ED"/>
		<stop  offset="0.7149" style="stop-color:#56D2E3"/>
		<stop  offset="1" style="stop-color:#31FFD8"/>
	</linearGradient>
	<path class="st49" d="M842.2,454v-1.7h-42.4c0,0.6,0,1.1,0,1.7c0,23.4-2.3,46.3-6.8,68.4c0.3,6.1,0.4,12.2,0.4,18.3
		c0,47.8-7.8,93.9-22.1,136.9l1.4-1.9l5.9,14.2c3.4-4.7,6.7-9.4,9.9-14.2l-6.8-13.8l4.3-6.7l6.8,13.8c3.1-4.9,6.1-9.8,9-14.8
		l-7.6-13.3l3.8-7l7.7,13.5c2.8-5.1,5.5-10.2,8-15.3l-8.5-12.9l3.4-7.2l8.5,13c2.5-5.2,4.8-10.5,7-15.8l-9.3-12.3l2.9-7.4l9.3,12.4
		c2.1-5.4,4.1-10.8,6-16.2L823,574l2.5-7.6l10.1,11.8c1.8-5.5,3.5-11,5-16.6l-10.6-11l2-7.7l10.7,11.1c1.4-5.6,2.7-11.2,3.9-16.9
		l-11.3-10.3l1.5-7.8l11.4,10.4c1.1-5.7,2-11.4,2.8-17.1l-11.9-9.6l1-7.9l12,9.6c0.7-5.7,1.3-11.5,1.8-17.2l-12.4-8.7l0.5-8
		l12.5,8.8c0.4-5.7,0.6-11.5,0.7-17.3L842.2,454z"/>
	
		<linearGradient id="SVGID_51_" gradientUnits="userSpaceOnUse" x1="583.8575" y1="161.2798" x2="585.813" y2="-256.3195" gradientTransform="matrix(1 0 0 1 0 708)">
		<stop  offset="0" style="stop-color:#9A7FF6"/>
		<stop  offset="0.1448" style="stop-color:#9289F4"/>
		<stop  offset="0.3939" style="stop-color:#7BA5ED"/>
		<stop  offset="0.7149" style="stop-color:#56D2E3"/>
		<stop  offset="1" style="stop-color:#31FFD8"/>
	</linearGradient>
	<path class="st50" d="M753.1,701.5l5.1-6.2l3.2,9.3c2.7-6.6,5.3-13.3,7.6-20.1l-0.9-2.3l3.3-4.6c14.3-43,22.1-89,22.1-136.9
		c0-6.1-0.1-12.2-0.4-18.3c-31.7,158.2-171.5,277.4-339,277.4c-3.8,0-7.5-0.1-11.2-0.2c-21.7,6.8-44.1,12.2-66.9,16.1
		c16.8,10.3,34.4,19.4,52.7,27.2l1-1.5l8,0.5l-2.5,3.6c4.5,1.8,9.1,3.6,13.7,5.2l5.3-8.6h8l-7.9,13c0,0,6.7,0,7.6,0
		c0.8,0,6.4-0.2,9.6-0.3l7.1-13.5l8-0.5l-7.2,13.6c5.8-0.4,11.5-0.8,17.2-1.4l6.3-13.9l7.9-1l-6.3,14c5.7-0.7,11.4-1.5,17.1-2.5
		l5.4-14.4l7.8-1.5l-5.5,14.5c5.7-1.1,11.3-2.3,16.9-3.6l4.5-14.7l7.7-2l-4.6,14.8c5.6-1.4,11.1-3,16.7-4.6l3.6-15l7.6-2.5
		l-3.6,15.1c5.5-1.8,10.9-3.7,16.3-5.7l2.7-15.3l7.4-2.9l-2.7,15.4c5.4-2.1,10.7-4.4,15.9-6.7l1.7-15.4l7.2-3.4l-1.7,15.5
		c5.2-2.5,10.4-5,15.5-7.7l0.7-15.4l7-3.9l-0.7,15.6c5-2.8,10-5.7,15-8.7l-0.2-15.5l6.7-4.3l0.2,15.5c4.9-3.1,9.7-6.3,14.4-9.6
		l-1.2-15.3l6.5-4.7l1.2,15.4c4.7-3.4,9.2-6.9,13.8-10.5l-2.2-15.1l6.1-5.1l2.2,15.3c4.4-3.7,8.8-7.4,13.1-11.3l-3.1-15l5.8-5.5
		l3.1,15c3.1-2.9,6.1-5.8,9.1-8.8c1.1-1.1,2.2-2.2,3.2-3.3l-4-14.7l5.5-5.8l4.1,14.8c2.9-3.1,5.7-6.2,8.5-9.3
		c0.8-1.8,1.6-3.6,2.4-5.5L753.1,701.5z"/>
	
		<linearGradient id="SVGID_52_" gradientUnits="userSpaceOnUse" x1="282.7734" y1="-110.9861" x2="3.313" y2="-396.2469" gradientTransform="matrix(1 0 0 1 0 708)">
		<stop  offset="0" style="stop-color:#9A7FF6"/>
		<stop  offset="1" style="stop-color:#29F2F6"/>
	</linearGradient>
	<path class="st51" d="M81.5,452.4h26.7c0.1-28.8,3.8-56.9,10.6-83.6C103.7,395.1,91.2,423,81.5,452.4z"/>
	
		<linearGradient id="SVGID_53_" gradientUnits="userSpaceOnUse" x1="234.5469" y1="-63.8406" x2="-44.9885" y2="-349.1782" gradientTransform="matrix(1 0 0 1 0 708)">
		<stop  offset="0" style="stop-color:#9A7FF6"/>
		<stop  offset="1" style="stop-color:#29F2F6"/>
	</linearGradient>
	<path class="st52" d="M435,845.5l-6.3,8.9c5.7,0.4,11.5,0.6,17.3,0.7l2.7-4.4C444.1,849.1,439.5,847.4,435,845.5z"/>
	
		<linearGradient id="SVGID_54_" gradientUnits="userSpaceOnUse" x1="210.5144" y1="-40.1922" x2="-68.9509" y2="-325.4582" gradientTransform="matrix(1 0 0 1 0 708)">
		<stop  offset="0" style="stop-color:#9A7FF6"/>
		<stop  offset="1" style="stop-color:#29F2F6"/>
	</linearGradient>
	<path class="st53" d="M375.8,815.8c-20.9-12.9-40.5-27.6-58.6-44c-122.9-53-209-175.3-209-317.7c0-0.6,0-1.1,0-1.7H81.5
		c-5.3,16.3-9.7,33-13.2,50l0.5,0.2l1,7.9l-2.9-1.3c-0.9,4.8-1.7,9.6-2.4,14.4l8.1,3.1l1.5,7.8l-10.6-4c-0.5,3.5-0.9,7.1-1.3,10.6
		c0.4,1.6,0.8,3.2,1.2,4.8l14.6,4.5l2,7.7l-14.8-4.5c1.4,5.6,3,11.1,4.6,16.7l15,3.6l2.5,7.6l-15-3.6c1.8,5.5,3.6,10.9,5.6,16.3
		l15.2,2.7l2.9,7.4l-15.3-2.7c2.1,5.4,4.3,10.7,6.7,15.9l15.3,1.7l3.4,7.2l-15.4-1.7c2.5,5.2,5,10.4,7.7,15.5l15.4,0.7l3.8,7
		l-15.5-0.7c2.8,5.1,5.7,10,8.7,15l15.3-0.2l4.3,6.7l-15.4,0.2c3.1,4.9,6.3,9.7,9.6,14.4l15.3-1.2l4.7,6.5l-15.3,1.2
		c3.4,4.7,6.9,9.3,10.5,13.8l15.1-2.2l5.1,6.1l-15.1,2.2c3.7,4.4,7.5,8.8,11.3,13.1l14.9-3.1l5.4,5.8l-15,3.1
		c2.9,3.1,5.8,6.1,8.8,9.1c1.1,1.1,2.2,2.1,3.4,3.2l14.6-4l5.8,5.5l-14.7,4c4.2,4,8.5,7.8,12.8,11.6l14.3-4.9l6.1,5.1l-14.5,5
		c4.4,3.7,9,7.2,13.6,10.7l14.1-5.8l6.4,4.7l-14.2,5.9c4.7,3.4,9.4,6.7,14.1,9.9l13.8-6.7l6.7,4.3l-13.8,6.8c4.9,3.1,9.8,6.1,14.8,9
		l13.3-7.6l7,3.9l-13.4,7.7c5.1,2.8,10.2,5.4,15.3,8l12.9-8.5l7.2,3.4l-12.9,8.5c4.4,2.1,8.8,4.1,13.3,6c0.8,0.4,1.6,0.7,2.5,1
		l12.4-9.3l7.4,2.9l-12.5,9.3c5.4,2.1,10.8,4.1,16.2,6l11.7-10l7.6,2.5l-11.8,10.1c5.5,1.8,11,3.4,16.6,5l11.1-10.7l7.7,2L354,842.8
		c5.6,1.4,11.2,2.7,16.9,3.9l10.3-11.4l7.8,1.5l-10.4,11.4c5.7,1.1,11.4,2,17.1,2.9l9.6-12l7.9,1l-9.6,12c5.7,0.7,11.5,1.3,17.2,1.8
		l7.7-11C410.2,835.2,392.6,826.1,375.8,815.8z"/>
	
		<linearGradient id="SVGID_55_" gradientUnits="userSpaceOnUse" x1="792.2529" y1="-465.2458" x2="677.0986" y2="-389.1299" gradientTransform="matrix(1 0 0 1 0 708)">
		<stop  offset="0" style="stop-color:#00A7F6"/>
		<stop  offset="0.1442" style="stop-color:#02BEEE"/>
		<stop  offset="0.3589" style="stop-color:#05DBE5"/>
		<stop  offset="0.5741" style="stop-color:#07EFDE"/>
		<stop  offset="0.7882" style="stop-color:#09FBDA"/>
		<stop  offset="1" style="stop-color:#09FFD9"/>
	</linearGradient>
	<path class="st54" d="M781.7,246l-4.3-6.7l6.2-0.1c-41.3-32.4-88.5-57.8-139.7-74.1c83.6,55.1,141.9,145.4,153.6,249.9
		c8.3-37,12.8-75.5,12.8-115c0-3.6-0.1-7.2-0.2-10.7l-5-0.5l-3.4-7.2l8.2,0.9c-0.2-4.9-0.4-9.8-0.7-14.7l-15.2-0.7l-3.8-7l15.4,0.7
		c-1.1-2-2.2-4.1-3.3-6.1c-3.4-3-6.9-5.9-10.5-8.8L781.7,246z"/>
	
		<linearGradient id="SVGID_56_" gradientUnits="userSpaceOnUse" x1="407.6796" y1="56.2755" x2="880.7828" y2="-310.1076" gradientTransform="matrix(1 0 0 1 0 708)">
		<stop  offset="0" style="stop-color:#9AA7F6"/>
		<stop  offset="1" style="stop-color:#09FFD9"/>
	</linearGradient>
	<path class="st55" d="M375.8,815.8c22.9-3.9,45.2-9.3,66.9-16.1c-44.5-1.4-86.8-11.2-125.5-27.9
		C335.3,788.1,354.9,802.9,375.8,815.8z"/>
	<g>
		
			<linearGradient id="SVGID_57_" gradientUnits="userSpaceOnUse" x1="401.7097" y1="-587.8744" x2="421.8092" y2="-522.8503" gradientTransform="matrix(1 0 0 1 0 708)">
			<stop  offset="0" style="stop-color:#047FF6"/>
			<stop  offset="1" style="stop-color:#29F2F6"/>
		</linearGradient>
		<path class="st56" d="M453.3,148.6c24.5,0,48.2,2.9,71,8.3c10.8-1.1,21.8-1.7,32.9-1.7c7.7,0,15.3,0.3,22.9,0.8
			c-39.6-16.8-82.5-25.7-126.8-25.7c-71.5,0-139.5,23-195.5,65.5c19.5-7.1,39.8-12.5,60.7-16.1C359.1,159.9,404.9,148.6,453.3,148.6
			z"/>
		
			<linearGradient id="SVGID_58_" gradientUnits="userSpaceOnUse" x1="761.2318" y1="-513.6842" x2="573.5068" y2="-469.6558" gradientTransform="matrix(1 0 0 1 0 708)">
			<stop  offset="0" style="stop-color:#047FF6"/>
			<stop  offset="0.1627" style="stop-color:#0684F6"/>
			<stop  offset="0.3592" style="stop-color:#0A93F6"/>
			<stop  offset="0.5733" style="stop-color:#12ABF6"/>
			<stop  offset="0.7981" style="stop-color:#1DCDF6"/>
			<stop  offset="1" style="stop-color:#29F2F6"/>
		</linearGradient>
		<path class="st57" d="M524.3,156.9c65.5,15.6,122.9,52.2,164.5,102.4c16.2,10.2,31.6,21.7,46,34.2c-14.1-24.6-31.6-47.5-52.3-68.2
			c-29.9-29.9-64.6-53.2-102.4-69.3c-7.6-0.5-15.2-0.8-22.9-0.8C546.1,155.2,535.1,155.8,524.3,156.9z"/>
		
			<linearGradient id="SVGID_59_" gradientUnits="userSpaceOnUse" x1="23.9545" y1="-558.5645" x2="300.2672" y2="-283.176" gradientTransform="matrix(1 0 0 1 0 708)">
			<stop  offset="0" style="stop-color:#047FF6"/>
			<stop  offset="1" style="stop-color:#29F2F6"/>
		</linearGradient>
		<path class="st58" d="M147.3,454.5c0-120.6,69.8-224.8,171.1-274.7c-20.9,3.6-41.2,9-60.7,16.1c-11.8,9-23.1,18.8-33.7,29.4
			c-61.2,61.2-94.9,142.6-94.9,229.2c0,24,2.6,47.5,7.6,70.4c2.2-19.3,5.9-38,10.9-56.3C147.5,464,147.3,459.3,147.3,454.5z"/>
		
			<linearGradient id="SVGID_60_" gradientUnits="userSpaceOnUse" x1="748.68" y1="19.9404" x2="730.0868" y2="-249.6216" gradientTransform="matrix(1 0 0 1 0 708)">
			<stop  offset="0" style="stop-color:#9A7FF6"/>
			<stop  offset="0.1448" style="stop-color:#9289F4"/>
			<stop  offset="0.3939" style="stop-color:#7BA5ED"/>
			<stop  offset="0.7149" style="stop-color:#56D2E3"/>
			<stop  offset="1" style="stop-color:#31FFD8"/>
		</linearGradient>
		<path class="st59" d="M740.3,303.7c0.5,8.7,0.8,17.6,0.8,26.4c0,6.5-0.2,13-0.5,19.4c12,32.8,18.5,68.1,18.5,105
			c0,56.6-15.4,109.5-42.1,155c-5.1,20.6-12.1,40.5-20.7,59.4c52.4-59.3,81-134.6,81-214.4C777.4,401.1,764.6,349.7,740.3,303.7z"/>
		
			<linearGradient id="SVGID_61_" gradientUnits="userSpaceOnUse" x1="562.3005" y1="82.0087" x2="563.8804" y2="-255.3433" gradientTransform="matrix(1 0 0 1 0 708)">
			<stop  offset="0" style="stop-color:#9A7FF6"/>
			<stop  offset="0.1448" style="stop-color:#9289F4"/>
			<stop  offset="0.3939" style="stop-color:#7BA5ED"/>
			<stop  offset="0.7149" style="stop-color:#56D2E3"/>
			<stop  offset="1" style="stop-color:#31FFD8"/>
		</linearGradient>
		<path class="st60" d="M453.3,760.5c-15.2,0-30.2-1.1-44.8-3.3c16.2,8.5,33.2,15.7,50.9,21.4c84.3-1.5,163.3-35.1,223.1-94.9
			c4.8-4.8,9.4-9.8,13.9-14.8c8.6-19,15.5-38.8,20.7-59.4C663.9,699.8,565.7,760.5,453.3,760.5z"/>
		
			<linearGradient id="SVGID_62_" gradientUnits="userSpaceOnUse" x1="248.0863" y1="-72.4463" x2="22.3065" y2="-302.9123" gradientTransform="matrix(1 0 0 1 0 708)">
			<stop  offset="0" style="stop-color:#9A7FF6"/>
			<stop  offset="1" style="stop-color:#29F2F6"/>
		</linearGradient>
		<path class="st61" d="M147.7,468.7c-5.1,18.2-8.8,37-10.9,56.3c13.2,59.7,43,114.5,87.3,158.8c29.7,29.7,64.2,53,101.8,69
			c39.8,17,82.9,25.9,127.5,25.9c2,0,4.1,0,6.1-0.1c-17.7-5.7-34.7-12.9-50.9-21.4C265.3,736.2,154.4,616,147.7,468.7z"/>
		
			<linearGradient id="SVGID_63_" gradientUnits="userSpaceOnUse" x1="732.4209" y1="-415.2803" x2="639.3799" y2="-353.7811" gradientTransform="matrix(1 0 0 1 0 708)">
			<stop  offset="0" style="stop-color:#00A7F6"/>
			<stop  offset="0.1442" style="stop-color:#02BEEE"/>
			<stop  offset="0.3589" style="stop-color:#05DBE5"/>
			<stop  offset="0.5741" style="stop-color:#07EFDE"/>
			<stop  offset="0.7882" style="stop-color:#09FBDA"/>
			<stop  offset="1" style="stop-color:#09FFD9"/>
		</linearGradient>
		<path class="st62" d="M740.7,349.5c0.3-6.4,0.5-12.9,0.5-19.4c0-8.9-0.3-17.7-0.8-26.4c-1.8-3.4-3.7-6.8-5.6-10.2
			c-14.4-12.6-29.7-24-46-34.2C710.9,285.9,728.6,316.4,740.7,349.5z"/>
	</g>
	
		<linearGradient id="SVGID_64_" gradientUnits="userSpaceOnUse" x1="371.1057" y1="-225.2214" x2="427.7134" y2="-281.6397" gradientTransform="matrix(1 0 0 1 0 708)">
		<stop  offset="0" style="stop-color:#047FF6"/>
		<stop  offset="1" style="stop-color:#29F2F6"/>
	</linearGradient>
	<path class="st63" d="M413.4,493.5h-28c-3.1,0-6-1.7-7.5-4.3l-17.5-30.3c-1.5-2.7-1.5-6,0-8.6l17.5-30.3c1.5-2.7,4.4-4.3,7.5-4.3
		h28c4.8,0,8.6,3.9,8.6,8.6c0,4.8-3.9,8.6-8.6,8.6h-23l-12.5,21.7l12.5,21.7h23c4.8,0,8.6,3.9,8.6,8.6
		C422.1,489.6,418.2,493.5,413.4,493.5z M385.4,419.6c-1.7,0-3.2,0.9-4,2.3l-17.5,30.3c-0.8,1.4-0.8,3.2,0,4.6l17.5,30.3
		c0.8,1.4,2.4,2.3,4,2.3h28c2.6,0,4.7-2.1,4.7-4.7s-2.1-4.7-4.7-4.7h-25.3l-14.8-25.7l14.8-25.7h25.3c2.6,0,4.7-2.1,4.7-4.7
		s-2.1-4.7-4.7-4.7h-28V419.6z"/>
	
		<linearGradient id="SVGID_65_" gradientUnits="userSpaceOnUse" x1="432.7265" y1="-225.2422" x2="489.3337" y2="-281.6601" gradientTransform="matrix(1 0 0 1 0 708)">
		<stop  offset="0" style="stop-color:#047FF6"/>
		<stop  offset="1" style="stop-color:#29F2F6"/>
	</linearGradient>
	<path class="st64" d="M475,493.5h-28c-3.1,0-5.9-1.7-7.5-4.3L422,458.9c-1.5-2.7-1.5-6,0-8.6l17.5-30.3c1.5-2.7,4.4-4.3,7.5-4.3h28
		c4.8,0,8.6,3.9,8.6,8.6c0,4.8-3.9,8.6-8.6,8.6h-23l-12.5,21.7l12.5,21.7h23c4.8,0,8.6,3.9,8.6,8.6
		C483.7,489.6,479.8,493.5,475,493.5z M447,419.6c-1.7,0-3.2,0.9-4,2.3l-17.5,30.3c-0.8,1.4-0.8,3.2,0,4.6l17.5,30.3
		c0.8,1.4,2.4,2.3,4,2.3h28c2.6,0,4.7-2.1,4.7-4.7s-2.1-4.7-4.7-4.7h-25.3l-14.8-25.7l14.8-25.7H475c2.6,0,4.7-2.1,4.7-4.7
		s-2.1-4.7-4.7-4.7h-28V419.6z"/>
	
		<linearGradient id="SVGID_66_" gradientUnits="userSpaceOnUse" x1="489.8993" y1="-223.0956" x2="532.4951" y2="-265.549" gradientTransform="matrix(1 0 0 1 0 708)">
		<stop  offset="0" style="stop-color:#047FF6"/>
		<stop  offset="1" style="stop-color:#29F2F6"/>
	</linearGradient>
	<path class="st65" d="M538.6,493.5h-36.5c-4.8,0-8.6-3.8-8.6-8.4V424c0-4.7,3.9-8.4,8.6-8.4c4.8,0,8.6,3.8,8.6,8.4v52.6h27.8
		c4.8,0,8.6,3.8,8.6,8.4C547.3,489.7,543.4,493.5,538.6,493.5z M502.1,419.6c-2.6,0-4.7,2-4.7,4.5v61.1c0,2.5,2.1,4.5,4.7,4.5h36.5
		c2.6,0,4.7-2,4.7-4.5s-2.1-4.5-4.7-4.5h-31.8V424C506.8,421.6,504.7,419.6,502.1,419.6z"/>
</g>
</svg>
