<?xml version="1.0" encoding="UTF-8" standalone="no"?><!DOCTYPE svg PUBLIC "-//W3C//DTD SVG 1.1//EN" "http://www.w3.org/Graphics/SVG/1.1/DTD/svg11.dtd"><svg width="100%" height="100%" viewBox="0 0 15 15" version="1.1" xmlns="http://www.w3.org/2000/svg" xmlns:xlink="http://www.w3.org/1999/xlink" xml:space="preserve" style="fill-rule:evenodd;clip-rule:evenodd;stroke-linejoin:round;stroke-miterlimit:1.41421;"><g><g><g><path d="M3.448,14.865c-1.75,-0.158 -2.948,-1.034 -3.312,-2.427c-0.143,-0.545 -0.179,-1.371 -0.08,-1.878c0.31,-1.607 1.654,-2.591 3.848,-2.82c0.4,-0.042 1.679,-0.042 2.21,0c0.211,0.018 0.819,0.083 1.353,0.149c1.452,0.176 1.613,0.188 2.534,0.191c0.671,0.003 0.936,-0.009 1.261,-0.054c0.287,-0.039 0.424,-0.045 0.445,-0.024c0.053,0.054 -0.06,0.728 -0.221,1.303c-0.814,2.922 -3.36,5.119 -6.389,5.515c-0.447,0.057 -1.246,0.081 -1.649,0.045Z" style="fill:#4a57ad;fill-rule:nonzero;"/><path d="M9.539,7.305c-0.531,-0.024 -1.151,-0.081 -2.042,-0.191c-1.389,-0.173 -1.637,-0.191 -2.534,-0.191c-0.62,0 -0.913,0.012 -1.193,0.051c-0.205,0.029 -0.396,0.059 -0.426,0.068c-0.087,0.027 -0.092,-0.068 -0.024,-0.48c0.403,-2.453 1.959,-4.552 4.192,-5.649c1.21,-0.594 2.567,-0.868 3.852,-0.779c1.693,0.12 2.823,0.788 3.339,1.977c0.31,0.719 0.387,1.789 0.185,2.573c-0.078,0.301 -0.281,0.736 -0.465,0.996c-0.6,0.84 -1.73,1.398 -3.173,1.565c-0.384,0.045 -1.299,0.077 -1.711,0.06Z" style="fill:#4a57ad;fill-rule:nonzero;"/></g></g></g></svg>