<svg xmlns="http://www.w3.org/2000/svg" viewBox="0 0 200 200"><path fill="#fff" d="M8.8 177C39.2 124.3 69.5 71.7 100 19c30.4 52.7 60.8 105.3 91.2 158H8.8z"/><path d="M1.9 180.5C34.7 123.8 67.3 67.3 100 10.6c32.7 56.7 65.3 113.2 98.1 169.9H1.9zm183-9.5c-.4-.7-.4-.9-.6-1.1-12.7-22.1-25.5-44.1-38.2-66.2-.5-.9-1-1.1-2-.8-27.5 6.7-55 13.3-82.6 19.9-3.9.9-7.7 1.9-11.6 2.8v.4c45 15 89.8 29.9 135 45zm-171.6 3c.4.1.5.1.5.1h69.3c.6 0 1.4-.6 1.8-1.1 1.1-1.6 2-3.3 2.9-5 3.6-6.2 7.2-12.4 10.8-18.8-.6-.2-1.1-.4-1.6-.6l-56.4-18.9c-1.3-.4-1.8-.1-2.4 1-7.6 13.3-15.3 26.6-23 39.9-.6 1-1.2 2.1-1.9 3.4zm127.4-79.8c-13.7-23.7-27.1-47-40.7-70.5-9.3 16-18.3 31.8-27.5 47.7 22.6 7.6 45.2 15.2 68.2 22.8zm-8 4.7v-.5c-21.2-7.1-42.3-14.1-63.6-21.2-8.2 14.3-16.4 28.4-24.8 43 29.8-7.1 59.1-14.2 88.4-21.3zM91.9 174h80.3c0-.1.1-.2.1-.3-22.4-7.5-44.8-14.9-67.2-22.4-4.4 7.6-8.7 15-13.2 22.7z"/></svg>