<svg xmlns="http://www.w3.org/2000/svg" id="Livello_1" viewBox="0 0 200 200"><style>.st0{fill:#ba9c5a}</style><circle cx="100" cy="100" r="95"/><path d="M100.3 195.1V189c1.9 0 3.9-.1 5.8-.2l.3 6.1c-1.9.1-3.9.2-6.1.2zm-2.6-.1c-2.2 0-4.2-.1-6.5-.3l.4-6.1 5.8.3v6.1h.3zm11.6-.4l-.5-6.1c1.9-.1 3.9-.3 5.8-.9l1.1 5.9c-2.2.5-4.4.9-6.4 1.1zm-20.4-.2c-2.2-.2-4.2-.4-6.4-1l1.2-5.9c1.9.3 3.9.5 5.8 1l-.6 5.9zm29.2-1.2l-1.2-5.9c1.9-.3 3.9-.9 5.7-1.3l1.5 5.9c-1.8.6-3.9 1-6 1.3zm-38-.2c-2.2-.3-4.2-1-6.1-1.5l1.6-5.8c1.9.4 3.8 1.1 5.7 1.4.2-.1-1.2 5.9-1.2 5.9zm46.6-1.8l-1.6-5.8c1.8-.4 3.8-1.2 5.6-1.8l2.2 5.7c-2.2.6-4 1.3-6.2 1.9zm-55.2-.6c-1.9-.5-4.1-1.3-5.9-2.2l2.3-5.7c1.8.5 3.8 1.4 5.6 1.9l-2 6zm63.6-2.3l-2.3-5.7 5.5-2.4 2.6 5.5c-1.8 1.1-3.7 1.7-5.8 2.6zm-72.1-.7c-1.9-.9-3.9-1.6-5.7-2.6l2.7-5.5c1.8 1 3.6 1.6 5.4 2.5l-2.4 5.6zm80.2-3l-2.7-5.5c1.6-1 3.6-1.8 5.3-2.9l3.1 5.3c-1.9 1.2-3.7 2.2-5.7 3.1zm-88.1-.7l-5.5-3.1 3.2-5.3c1.6 1.1 3.4 2.2 5.2 3l-2.9 5.4zm95.9-3.7l-3.2-5.3c1.6-1.1 3.2-2.3 5-3.4l3.7 5c-2 1.3-3.8 2.6-5.5 3.7zm-103.5-1c-1.6-1.2-3.6-2.4-5.3-3.7l3.8-4.8c1.5 1.2 3.1 2.4 4.8 3.4-.1.2-3.3 5.1-3.3 5.1zm110.8-4.2l-3.8-4.8c1.5-1.2 3.1-2.5 4.5-3.8l4.1 4.5c-1.6 1.5-3.2 2.8-4.8 4.1zm-118.1-1.2c-1.6-1.3-3.2-2.7-4.8-4.2l4.2-4.5c1.4 1.3 3 2.6 4.4 3.9-.1.1-3.8 4.8-3.8 4.8zm124.9-4.5l-4.2-4.4c1.4-1.3 2.9-2.7 4.2-4.2l4.4 4.2c-1.5 1.5-2.9 3-4.4 4.4zM33.5 168c-1.5-1.4-3-3-4.4-4.5l4.5-4.1c1.3 1.4 2.7 2.9 4.1 4.3l-4.2 4.3zm137.7-5.2l-4.5-4.1c1.3-1.4 2.6-3 3.8-4.5l4.8 3.8c-1.4 1.7-2.8 3.3-4.1 4.8zm-143.6-1.4c-1.3-1.5-2.7-3.2-3.9-5l5-3.7c1.2 1.5 2.5 3.1 3.7 4.6l-4.8 4.1zm149.1-5.5l-5-3.7c1.2-1.5 2.4-3.2 3.4-5l5.3 3.2c-1.2 2-2.4 3.9-3.7 5.5zm-154.6-1.5c-1.2-1.6-2.4-3.6-3.6-5.4l5.3-3.1 3.2 5-4.9 3.5zm159.6-5.9l-5.3-3.1c1.1-1.6 1.9-3.4 2.9-5.3l5.5 2.7c-.9 2.1-2 3.9-3.1 5.7zm-164.4-1.6c-1.1-1.8-2.2-3.8-3-5.6l5.5-2.6c1 1.8 1.8 3.6 2.7 5.3l-5.2 2.9zm168.6-6.3l-5.6-2.6c.9-1.8 1.6-3.7 2.4-5.5l5.7 2.3c-.7 1.8-1.5 3.9-2.5 5.8zm-172.7-1.7c-1-1.9-1.6-3.9-2.4-5.8l5.7-2.2c.5 1.8 1.4 3.7 2.3 5.5l-5.6 2.5zm176.2-6.5l-5.7-2.2c.5-1.8 1.3-3.8 1.8-5.6l5.8 1.6c-.5 2.1-1.2 4.3-1.9 6.2zm-179.3-1.7c-.5-1.9-1.3-4.1-1.8-6.1l5.8-1.5c.4 1.9 1.1 3.8 1.6 5.7l-5.6 1.9zm181.8-6.8l-5.9-1.5c.4-1.9 1-3.9 1.3-5.7l5.9 1.2c-.2 1.8-.7 3.9-1.3 6zM7.5 122.1c-.4-2.2-1-4.2-1.3-6.4l5.9-1.1 1.2 5.8c0 .2-5.8 1.7-5.8 1.7zm186.3-7l-5.9-1 .9-5.8 6.1.4c-.4 2.3-.8 4.3-1.1 6.4zM6 113.5c-.2-2.2-.4-4.2-.5-6.4l6.1-.3c.1 1.9.3 3.9.5 5.8l-6.1.9zm188.8-7l-6.1-.3c.1-1.9.1-3.9.1-5.8v-.4h6.1v.1c.2 2 .1 4.2-.1 6.4zM5 104.5c-.1-1.5-.1-3-.1-4.5v-1.8l6.1.1v1.6c0 1.4 0 2.9.1 4.3.2.1-6.1.3-6.1.3zm183.8-7.1c0-1.9-.1-3.9-.3-5.8l6.1-.4c.2 2.2.3 4.2.3 6.5h-6.1v-.3zM11.3 95.9l-6.1-.2c.1-2.2.2-4.2.4-6.4l6.1.5c-.2 2.1-.3 4.3-.4 6.1zm176.9-6.8c-.2-1.9-.4-3.9-1-5.8l5.9-1.2c.3 2.2.9 4.2 1.1 6.4l-6 .6zM11.9 87.6l-6.1-.9c.2-2.2.5-4.2 1.1-6.4l5.9 1.3c-.1 2-.6 4-.9 6zm175-6.7c-.3-1.9-1-3.9-1.4-5.7l5.8-1.6c.5 2.2 1.2 4.1 1.5 6.1.1-.1-5.9 1.2-5.9 1.2zM13.6 79.5l-5.9-1.4c.4-2.2 1.1-4.2 1.6-6.1l5.8 1.8c-.7 1.7-1.1 3.7-1.5 5.7zm171-6.6c-.5-1.8-1.3-3.8-1.9-5.6l5.7-2.3c.9 1.9 1.4 3.9 2.2 5.9l-6 2zM15.8 71.5L10 69.6c.5-1.9 1.4-4.1 2.3-5.9l5.5 2.3c-.6 1.7-1.4 3.5-2 5.5zm165.9-6.4c-.9-1.8-1.5-3.7-2.5-5.4l5.5-2.7c1 1.8 1.8 3.8 2.7 5.7l-5.7 2.4zM18.8 63.7l-5.6-2.5c1-1.9 1.8-3.8 2.7-5.7l5.5 2.9c-.7 1.7-1.7 3.3-2.6 5.3zM178 57.5c-1-1.6-1.9-3.4-3-5.2l5.3-3.2c1.2 1.8 2.3 3.7 3.2 5.5 0 .1-5.5 2.9-5.5 2.9zM22.6 56.1l-5.4-3c1.1-1.8 2.3-3.7 3.2-5.5l5.2 3.4c-.8 1.8-1.9 3.5-3 5.1zm151.1-5.7c-1.1-1.6-2.3-3.2-3.6-4.8l4.8-3.8c1.3 1.6 2.5 3.4 3.7 5.2l-4.9 3.4zM26.9 49.1l-5.2-3.6c1.2-1.6 2.5-3.4 3.8-5.2l4.8 3.8c-.9 1.9-2.1 3.5-3.4 5zm142-5.4c-1.3-1.5-2.6-3-3.9-4.4l4.4-4.2c1.4 1.5 2.9 3.1 4.2 4.8-.1.1-4.7 3.8-4.7 3.8zM32.1 42.5l-4.6-3.9c1.3-1.5 2.7-3.1 4.3-4.6l4.4 4.3c-1.5 1.2-2.8 2.7-4.1 4.2zm131.2-4.9c-1.4-1.4-2.9-2.7-4.3-4.1l4.1-4.5c1.5 1.4 3.1 2.9 4.5 4.3l-4.3 4.3zM37.8 36.4L33.5 32l4.6-4.3 4.1 4.6c-1.4 1.3-2.9 2.7-4.4 4.1zM157.2 32c-1.5-1.3-3.1-2.5-4.6-3.7l3.7-5 5 3.9-4.1 4.8zM44.1 30.9l-3.9-4.8c1.6-1.3 3.4-2.6 5.2-3.8l3.6 5c-1.9 1.1-3.4 2.3-4.9 3.6zm106.4-4.1c-1.5-1.2-3.2-2.3-5-3.2l3.1-5.3c1.8 1.1 3.7 2.3 5.4 3.4l-3.5 5.1zm-99.8-.9l-3.4-5c1.6-1.2 3.6-2.4 5.4-3.4l3 5.4c-1.5 1-3.3 2.1-5 3zm92.6-3.5c-1.6-1-3.6-1.8-5.3-2.7l2.6-5.5c1.9 1 3.8 1.8 5.6 2.9l-2.9 5.3zM58 21.6l-3-5.4c1.8-1.1 3.8-1.9 5.7-2.9l2.5 5.6c-1.8.9-3.6 1.9-5.2 2.7zm78-2.9c-1.8-.9-3.7-1.5-5.5-2.3l2.2-5.7 5.8 2.4-2.5 5.6zm-70.7-.5l-2.4-5.6c1.9-.9 3.9-1.5 5.8-2.3l1.9 5.7c-1.4.7-3.5 1.3-5.3 2.2zm62.9-2.6c-1.8-.5-3.8-1.2-5.7-1.6l1.5-5.9c2.2.4 4.1 1.2 6.1 1.8.2-.2-1.9 5.7-1.9 5.7zm-55-.3l-1.9-5.9c1.9-.5 4.1-1.2 6.1-1.6l1.4 5.9c-1.8.4-3.8.8-5.6 1.6zm47.1-2l-5.8-1.2 1.1-5.9 6.4 1.2c-.3 0-1.7 5.9-1.7 5.9zm-39.1-.2l-1.3-5.9L86.3 6l1 6.1c-2.2.2-4.2.6-6.1 1zm30.9-1.2c-1.9-.2-3.9-.4-5.8-.5l.3-6.1c2.2.1 4.2.3 6.4.5-.2.1-.9 6.1-.9 6.1zm-22.7-.2l-.8-6.1c2.2-.2 4.2-.3 6.4-.4l.2 6.1c-1.8.1-3.8.2-5.8.4zm14.3-.5c-1.9-.1-3.9-.1-5.9 0l-.1-6.1h6.5c-.2-.1-.5 6.1-.5 6.1z" class="st0"/><path d="M100 181.9c-45.3 0-81.9-36.9-81.9-81.9S54.7 18 100 18s81.9 36.9 81.9 81.9-36.6 82-81.9 82zm0-163.2c-44.6 0-81.3 36.4-81.3 81.3s36.4 81.3 81.3 81.3 81.3-36.4 81.3-81.3-36.6-81.3-81.3-81.3z" class="st0"/><path d="M77.1 126.5c-1.2.5-2.5 1.2-4.3 1.5-1.6.4-3.9.5-6.6.5-3.2 0-6.5-.4-9.2-1.4-2.7-1-5.3-2.4-7.2-4.3-2.2-1.9-3.8-4.3-5-7.1-1.2-2.9-1.8-6.4-1.8-10.2s.5-6.9 1.9-9.7c1.3-2.7 3-5 5.3-6.8s4.6-3.1 7.5-3.9c2.9-1 5.7-1.3 8.8-1.3 1.2 0 2.4.1 3.7.2 1.2.1 2.4.3 3.4.5 1.1.2 1.9.4 2.7.9.9.2 1.3.4 1.8.9.2.1.3.2.4.3.1.1.2.2.3.2l.2.2 1.2 8.9c-.3-1.2-1.1-2.4-1.9-3.7-1-1.2-1.8-2.3-3.1-3.2-1.2-1-2.6-1.6-4.2-2.4-1.8-.5-3.4-1-5.5-1-2.2 0-4.1.4-5.9 1.4-1.9 1.1-3.7 2.4-5.3 4.1-1.5 1.6-2.7 3.8-3.7 6.1-1 2.4-1.4 5-1.4 7.8 0 3 .3 5.7 1.3 8.2s2.2 4.6 3.7 6.7c1.5 1.8 3.4 3.4 5.5 4.4 2.2 1.1 4.4 1.5 6.8 1.5 1.8 0 3.4-.2 4.8-.9 1.4-.4 2.6-1.3 3.8-2.3 1.1-1 2.2-2.2 3-3.6 1-1.3 1.6-2.9 2.4-4.5l-.4 8.4c-.6 2.2-1.7 3-3 3.6zm48.6 1.8H116l-14.9-36.4-7.1 18.4h11.3l1 2.4H93l-6.1 15.6h-3l-1.4-1.4c.4 0 1-.1 1.3-.3.3-.2.5-.5 1-1.1l.9-1.5 15.5-39.4h2.7l17.4 41.1c.2.4.5.9 1.2 1.1.5.2 1.2.2 1.8.2-.1 0 1.4 1.3 1.4 1.3zm23.6-22.1c2.3 1.1 3.9 2.4 5.2 3.8 1.2 1.4 1.9 3.1 2.4 4.6.3 1.6.2 3.2-.1 5-.4 1.5-1.3 3.1-2.6 4.4s-2.9 2.4-4.8 3.2c-1.9.9-4.3 1.3-7 1.3-2.6 0-4.6-.2-6.6-1-1.8-.5-3.2-1.3-4.4-2.2-1.4-1-2.5-1.8-3.4-3l-1-9.5c.4 2.2 1.3 4.1 2.3 5.6 1 1.6 2.2 3.1 3.4 4.3 1.3 1.2 2.9 2.2 4.4 2.7 1.6.5 3.4 1 5.3 1 1.6 0 3.1-.2 4.3-1 1.2-.4 2.2-1.3 2.7-2.3s1.1-1.9 1.3-3.1c.1-1.2.1-2.3 0-3.4-.2-1.1-.5-2.2-1.3-3.1-.5-1-1.4-1.6-2.5-2.4l-11.2-6.1c-2.2-1.2-3.7-2.5-4.8-3.9-1.2-1.5-1.9-3.1-2.3-4.6-.3-1.5-.2-3.1.1-4.8.3-1.5 1.2-3 2.3-4.2 1.2-1.2 2.5-2.3 4.3-3 1.6-.9 3.8-1.2 6.1-1.2 1.8 0 3.4.1 4.8.3 1.4.2 2.7.4 3.7 1 1.2.3 2.4.9 3.2 1.2l1.8 8.3c-1.4-2.9-3.4-5.2-5.6-6.8-2.4-1.6-5-2.6-8.1-2.6-1.4 0-2.7.2-3.7.9-1.1.4-1.8 1.3-2.5 2.2-.5 1-1.1 1.8-1.2 2.9-.1 1.1-.1 2.2 0 3.1.1 1.1.4 1.9 1.2 2.9.4 1 1.3 1.5 2.3 2.2-.2.1 12 7.3 12 7.3zm-46.9-42l10.4-6.1-10.4-17.6L91.9 58h.1l-.1.1 10.5 6.1z" class="st0"/><path d="M91.9 60.1l10.5 14.8 10.4-14.8-10.4 6.3c0-.1-10.5-6.3-10.5-6.3z" class="st0"/></svg>