<svg xmlns="http://www.w3.org/2000/svg" id="Layer_1" x="0" y="0" version="1.0" viewBox="0 0 200 200" xml:space="preserve"><style>.st1{fill:#8c8c8c}.st3{fill:#343434}</style><circle cx="100" cy="100" r="60" fill="#c9c9c9"/><path d="M100 49.9l-30.9 51.2 30.9-14V49.9" class="st1"/><path fill="#393939" d="M100 87.1l-30.9 14 30.9 18.3V87.1"/><path d="M100 49.9v37.2l30.9 14L100 49.9" class="st3"/><path fill="#151515" d="M100 87.1v32.3l30.9-18.3-30.9-14"/><path d="M69.1 107l30.9 43.5v-25.3L69.1 107" class="st1"/><path d="M130.9 107L100 125.2v25.3l30.9-43.5" class="st3"/><linearGradient id="SVGID_1_" x1="182.6489" x2="30.6528" y1="17.3532" y2="169.3492" gradientTransform="matrix(1 0 0 -1 0 200)" gradientUnits="userSpaceOnUse"><stop offset=".1594" stop-color="#003cda"/><stop offset="1" stop-color="#33dfcc"/></linearGradient><path fill="url(#SVGID_1_)" d="M167.2 32.8C149.4 15 125.2 5 100 5c-18.8 0-37.2 5.6-52.8 16-15.6 10.4-27.8 25.3-35 42.6-7.2 17.4-9 36.5-5.4 54.9 3.7 18.4 12.7 35.4 26 48.7 13.3 13.3 30.2 22.3 48.7 26 18.4 3.7 37.5 1.8 54.9-5.4s32.2-19.4 42.6-35c10.4-15.6 16-34 16-52.8 0-25.2-10-49.4-27.8-67.2zM100 174.5c-41.1 0-74.5-33.3-74.5-74.5S58.9 25.5 100 25.5s74.5 33.3 74.5 74.5-33.4 74.5-74.5 74.5z"/></svg>