<svg xmlns="http://www.w3.org/2000/svg" id="Layer_1" x="0" y="0" version="1.1" viewBox="0 0 200 200" xml:space="preserve"><style>.st1{fill:#8c8c8c}.st3{fill:#343434}</style><circle cx="100" cy="105.6" r="60" fill="#c9c9c9"/><path d="M100 55.5l-30.9 51.2 30.9-14V55.5" class="st1"/><path fill="#393939" d="M100 92.7l-30.9 14L100 125V92.7"/><path d="M100 55.5v37.2l30.9 14L100 55.5" class="st3"/><path fill="#151515" d="M100 92.7V125l30.9-18.3-30.9-14"/><path d="M69.1 112.6l30.9 43.5v-25.3l-30.9-18.2" class="st1"/><path d="M130.9 112.6L100 130.8v25.3l30.9-43.5" class="st3"/><linearGradient id="SVGID_1_" x1="-14.297" x2="214.2968" y1="104" y2="104" gradientTransform="matrix(1 0 0 -1 0 204)" gradientUnits="userSpaceOnUse"><stop offset="0" stop-color="#0157d0"/><stop offset=".14" stop-color="#015fcd"/><stop offset=".36" stop-color="#0174c6"/><stop offset=".63" stop-color="#0098ba"/><stop offset=".94" stop-color="#00c8aa"/><stop offset="1" stop-color="#00d3a6"/></linearGradient><path fill="url(#SVGID_1_)" d="M100 10.8c-52.5 0-95 42.5-95 95 0 34.8 19 66.7 49.5 83.4h91.2c30.5-16.7 49.4-48.7 49.3-83.4 0-52.5-42.5-95-95-95zm0 170.6c-41.8 0-75.7-33.8-75.7-75.6S58.2 30.3 100 30.3s75.7 33.8 75.7 75.5-33.9 75.6-75.7 75.6z"/></svg>