<svg xmlns="http://www.w3.org/2000/svg" id="Livello_1" x="0" y="0" version="1.1" viewBox="0 0 200 200" xml:space="preserve"><style>.st0{fill:#e51a4c}</style><path d="M100.7 5c7 .7 14.5 5.1 13.3 13.1-.9 2.9-1.5 9.6-5.4 9.1-4.5-1.9-.1-6.4.1-9.6 3.4 2 3.1-5.4-.1-2.8-.1-.4-.1-.8-.3-1.2 3.7-.5-.2-5.5-1.7-2.8-5.4-3.1-11.6-.5-15.4 3.9-1.7-3.7-4.9 2.5-1.4 2.5-.2.7-.1 1.4-.9 1.7-1.2.6-.9 3 .4 3.3.4.1.7.9.4 1.3-1.6 3.3 2.8 2.3 2.1 4-.6 2 1.3 3.6 2.9 2.7-.6 2.2 1.8 5 3.8 3.1h.2c-.3 2 2 3.3 3.7 2.4-.1 2 3.1 3.2 4.2 1.5.2.1.3.1.5.2 10.6-12.8 34.2-21.7 45.6-5.4 5.8 2 11.1 5.7 13.7 11.4 6.5 13.7-14 21.2-11.9 26.7.6 3.4-5.1 5-5.9 1.2-3.1-9.7 9.2-12.5 13.4-19.1 2.6 4.1 4.5-5.7.6-1.9.3-3.7-2.6-6.1-4.8-8.6-.1 0-.1.1-.2.1 3.6 13.1-6.8 23-19.4 17.3-10.5-5.2-10.8-22.5 1.1-25.9-1-.4-1.9-.8-2.9-1.2 2.1-.2 3.1-2.8.7-3.5-2.6-1-4.8 2.3-1.9 3.4-.8 0-1.5.1-2.2.1 1-1.4-.2-3-1.8-2.5-2 .2-3 3.4-.2 3.4-2.2 1.4-4.3 2.7-6.4 4.1.1-4.5-6 .8-2 1.8-1.4 1.9-2.8 3.7-4.3 5.7 18.3 10.6 25.4 36 7.3 50.3v.3c12.6-.8 17.4-14.8 28.1-19.5 19.9-8.7 48.3 11.2 36.9 33.3-6.2 14.5-31.7 17.1-36-.1-3.6-10.7 7.7-10.7 7.3-7-2.4.1-2.4 3.9-.1 4.2-1.8 1.6-1.3 5.1 1.3 5.2.5-.1.7.1.5.5-.6 3.4 3.2 3.3 5.3 3.6 15.3 1 23.3-19.7 10.7-28.9 4-3.7-5.7-7.4-6.1-2.5-.5-.1-1.2-.2-1.9-.4 5.2-6.5-11.1-4.5-4.6 0-.6.2-1.1.3-1.7-.1-2.2-1.5-5.8.4-5 3.2-2-4.2-8.3 2.8-3.6 4.1-.4.6-.7 1.1-1.1 1.6-3.1-3.8-8.5 5-2.4 4.5-.7 1.1-1.3 2.2-2 3.2.1-3.9-3.9-3.5-5.3-.6-1 2.7 1.8 3.9 3.9 2.4-1.5 1.9-3.2 3.6-5.1 5 1.6-1.8-.2-5.3-2.5-3.3-2.4 1.2-2 5.4 1.1 4.4-1 .7-1.9 1.3-3 1.9 41.3 18.1 29.7 65.8-12.6 71.2-22.8 25.4-77 13.8-72.8-25.1-43.9 8-49.2-53.1 8.3-59.8-3.2-3.9-5.9-8.1-8.5-12.3 4 2.5 5.1-2.8 1.6-4.3-2.2-.8-3.4 1.7-2.1 3.4-3.6.7-7.4-.1-10.1-2.6-9.7 1.5-18.2-3.2-20.4-12.9 1.4-7.1-11.1 1.3-3.9 3.1-.4.5-.7.9-1.2 1.5-2.3-5.3-9.8 5.5-3 4.7-.3.7-.6 1.4-.9 2.2-3.5-4.3-6.5 6.8-1.2 6 0 1.2 0 2.3.1 3.5-3.8-.5-2.1 8.1 1.2 4.8 2.2 7.8 15.1 10.2 16.9 1 .9-3.5-1.1-8.3-5.2-8.4-5.2-.2-8.6 6.1-3.7 9 2.6 1.4 5.5-3.5 2.3-4.8 4.8-2.6 4.1 9.5-3.1 7.4-7.7-2.3-6-13.5 1.1-15.6 16.5-3.5 19.7 22.4 3.3 24.2C.7 107.2.9 66 22 58.8c.6-.3 1.5-.4 1.7-1.1C25.5 43.4 37.5 32.1 51 28.5c19.1-5.9 39.6 6.8 48.8 21.3.4-1.7 2.7-4 1.8-5.5-3.3-2.5-6.5-5.1-9.8-7.6-15.5-10.8-11.4-31 8.9-31.7zm10.4 68.5c.8.1 2.3-.8 2.5.4-.4.6-.6 4-1.7 2.8-.2-1.2-.5-1.9-2-1.8-.2 1.7.9 2.9 1.6 4.4 3.1-2.4 5.6-5.2 7.1-8.8 4.5 3.4 4.7-7 .1-4.3 0-.7-.1-1.2-.1-1.8 5.9 2.6 2.5-8.3-1.2-3.6-.6-1-1.3-2-1.9-3.1 1.2 1.5 4.2 2 4.3-.5-.2-4-7-3.9-4.2.6-.5-.6-.9-1.1-1.5-1.8-1.6 4.9-1.9 9.9-3.4 14.8-.2.8-.6 1.7.1 2.5-.1-.1.2.2.3.2zm-6.2 97.7c-1.3 9-14-4.6-7.1-14.3 2.3-4.2 6-6.5 10.2-8.4 1.8-4.2 4.4-8.3 8.6-10.3 10.7-6.6 25.6-1.6 27.4 11.5 3.3 5.3-8.8 19.8-10.2 9.9 2.4 2 4.4-2.7 2.3-4.3 2.6-.2 2.7-4 .7-4.9-.4-.2-.5-.6-.3-.9.9-1.4 0-3.6-1.8-3.5-1.5-.9-2.8-1.9-4.7-2.4 3.7-3.7-5.6-3.7-3.5-.1-7.3 2.8-13.3 5-11.5 14.4.8-4.5 1.2-9.7 5.9-11.7-.5.8-1 1.5-1.6 2.2 11.2 1.9 15.2 12.6 13.6 22.9.9-.3 1.4-.5 2.3-.9-.4 6.1 9.2.1 5.2-3.1 2.4-1.4 3.9-4.2 5.9-5.5 2.8.4 5.7-4.3 3.1-6.3-.2-.5.3-1.2.4-1.8 4 2.9 5.8-7.2 1.1-6.3v-2c4.3 3.4 5.2-3.4 2.4-5.5-1.4-1.2-2.9-.2-3.2 1.4-.4-1.1-.6-1.8-1.1-2.9 8.6 1.9-1.7-11.7-2.2-3.5-.9-.9-1.6-1.8-2.5-2.7 1.5.1 3-.9 2.4-2.7-.6-2.8-7.8-4.4-6.1.1-2.9-1.7-6-2.7-9.3-3.4 6.8-4.4-8.7-5.5-2.4-.4-13.2-2.5-21.7 12.1-36.7 5.5-5 4.4-9.5 10.3-14.3 15.3 21-1.7 21.3 25.6.6 23.6-5.9-.7-6.9-8.4 0-7.8-3.4.8-4.3 6.7.3 4.5 1.3.2 2.6.1 3.6-.9 2.5 5.5 7.8-5.6 1.6-3 .2-.6.4-1.2.6-2 4.7 4.1 4.7-9 .1-3.2-.3-.8-.7-1.7-1-2.5 2 .4 2.8-2 1.4-3.3-2.6-2.2-6.1-1.1-3.3 2.4-.8-.1-1.7-.2-2.8-.3 1.6-.8.9-3-.6-3.4-2.9-.9-6 1.8-2.1 3.4-1.6.4-4-.9-4.8 1h-.1c-2.6-2.8-5 3.8-1.7 3.9-.3 1.3-.2 3-.9 4.1-1.8 1.1-1.6 4.5.8 4.6.7.1.8 1.3 1.2 1.8-7.2-.5 2.2 10.4 2.1 3 .7.8 1.4 1.5 2 2.2-5 2.4 3.3 8 5.2 4 .6.3 1.1.6 1.6.9-2.2 3.6 5.3 6.2 6.6 2.6.9.5 3.4 0 3.1 1.3-.1 1.9 1.9 2.2 3.4 1.9 2.2-.1 2.9-2.7 5.1-2.4.5 2.9 4.4 2.1 6 .7 1.7-1.8.2-2.2 3.5-3 1.4 4.2 10.2-.9 5.2-3.4-6.9-3.6-9.3-12.1-8.7-19.3-1.2.5-2.1 1.8-3 4-3.8-5.1-4.9 6.4-.1 3.7.1.6.3 1 .3 1.5-2.2-.6-2.1 2-2 3.4.3 1.5 3 2.4 3.8.6zM33.8 56.8c1.6-.1 3.4.7 4.8-.2 5.5-6 15.8-3.4 20 2.7 3.9 5.3-.7 8.1 5.5 11.9 1.9-1.5 3.8-3.1 5.7-4.7-.6 4.5 5.4 1.4 2.9-1.7 5.1 1.4-.7 8.8-2.9 10.9 4.3 3.6 12 7.4 16.5 2.6-.7-10-3.6-20.3-10-28.2 5.2-.8-1-7.5-3.1-3.4-1.7-1.3-3.4-2.5-5-3.8 2.5-2.5-3-5.2-4.8-3.4-2.1 1.9-5.2-.3-7.7-.2 3.6-2.7-1.7-5.9-4.2-3.5-1.4 1.3-1 3.2.6 3.8-.8.1-1.4.2-2.2.4 1.5-5.5-7.9-2.4-4.5 1.6-.5.3-.9.5-1.4.7-.6-4.8-7.1.1-3.6 2.7-.3.3-.6.6-.9 1-1-1-1.9-.9-3.4.6-.8-4-4.9-2.3-5.6.7-.4 3.7 3.3 3.9 5.1 1.1l.9 1.5c-1.4 2.3-2.2 4.5-2.7 6.9zm20.3 60.8c.8-5.5-8.7-1.4-4.7 2.2-.4.2-.7.4-1.1.6-1.2-4.8-8.6 1.2-4.2 3.6-.7.6-1.2 1-1.7 1.5-2.6-2.3-5.9 3-2.9 4.6-1.7 3-2.3 6.2-1.6 9.6-5.3.2.3 8.9 3.3 5.2.2.2.6.4.9.7-1.5 2.9 2.7 3.6 4.5 2.3.5-.3.9-.6 1.4-.3 2.5 2 5-.2 7.8.1-.5-1.1-.1-1.7 1.1-1.8.4 0 1 .1 1.1-.4 3.9-10.1 12.3-17.5 17.6-26.8-.4-.2-.6-.3-.9-.4 2.2-2.9-4.6-5.5-4.4-1.2-.7-.1-1.4-.3-2.1-.4 5.1-5.3-8.5-5.7-4.2-.3v.2h-3.6c1.8-1.1 1.4-4.1-.9-4.1-3-.9-5.7 3.6-2 4.6-1.1-.1-2.2.2-3.4.5zm39.8-36.2c-3 11.4-14.3 28.1-2.5 37.5 4.8 3.2 15.4 4.9 17.9-1.5-25.9 4.8-19.7-20.2-15.4-36zm45.8-32.5c6.5 12.4 17.9.3 10.2-8.9-3.9-1-10.4 1-10.8 5.8-3.8-1.4-2.3 5.9.6 3.1zm-16.2 119.9c1.6 2.2 3.3-.1 4.1-1.7 1-1.7-.8-4.4-2.7-3.1-.1-1-.1-1.9-.2-2.9 4.9 1.9 1-7.9-1.7-3.8-.5-.5-.9-.9-1.4-1.3 5.6-2.4-5.9-6.7-3.6-.9h-1.5c-1.7 5.9.3 12.7 5.8 16 .5-1.1.8-1.6 1.2-2.3zm-15.7-40.5c0-.1-.1-.1-.1-.2-11.9 2.8-22.8-5.9-24-17.9-1.4-11.1 6.2-20.6 8.5-31.1-4.9 11.1-14 21.7-10.7 34.5 2.9 12.4 14.3 18.4 26.3 14.7zm2.2-49.6c5.9 12 15.8 28.8 5.4 42.1-.5.8-6.5 5.1-3.6 5.2 14.2-4 13.6-23.9 6.6-34.1-2.9-4.4-5.8-8.7-8.4-13.2zM93.4 57.4c.2 3.3 1.7 6.2 4.8 7.5 4.8 2.3 9.1-2.9 9.2-7.8-.1-3.6-14.5-3.5-14 .3zM77.7 35.2c0 .1 0 .2-.1.2 3.4 4.2 6.6 9.1 8.4 14.3.6 1.8 2.2 2.6 3.9 1.6 5.4-3.3-7.6-16.4-12.2-16.1zm49.9 36c-1.2-6.5-2.6 1.2-4.3 2.9-1.7 2.8-9.9 5.7-7.4 9.4 5.9 3.9 11.6-7.5 11.7-12.3zm-62.8 63.9c-12 16.7-11.9 32.9 1.6 48.7.1 0 .1-.1.2-.1-12.1-18.3-10.3-29.7-1.8-48.6zm-29 10.4c-2.7-5.2-7.6-13.7-5.9-19.6 2.8-10.1 15-18.7 30.8-20.1-7.3.6-26.4 1.9-31.9 19.9-2.5 8.1 7 19.8 7 19.8zm8.7-86.6c-7.6 3.6-4.2 12.4 2 15.4-1.6-.1-3.4 2-1.6 3 2.1 1.2 4.9-1.5 2.2-2.8l.9-.4c1.3 1.8 4.7 1.1 3.6-1.4-.9-2.4-5.8-3.6-4.6.2-.8-.9-1.5-1.7-2.2-2.5 2.1-.6 1.1-2.3.4-3.6 1.6.2 2.9-1.4 2-2.7-1.3-2.5-7.3-1.6-4.3 1.5-.6.3-1.2.5-1.9.8.2-3 1.4-5.4 3.5-7.5zm82.4 57.6v.2c17.3-.2 26.3 1.9 33.1 19.1-1.4-17.4-18.2-22.1-33.1-19.3zM31.3 77.9c-12.8-15.1.2-35.8.1-35.8-7.8 9.7-12 27.9-.1 35.8zm76.7 85.3c1.4-10.3 3.1-22.3 14.6-25.8-11.9-.2-16.9 16.1-14.6 25.8zm21.8-5c5.9 16-7.3 30.4-22.6 33.1 15.2.3 31.4-18.6 22.6-33.1zm-62.4-56.3c3.2.4 8.5-.1 9.4-3.9.1-1.1-.3-1.5-1.4-1.3-3 .7-19.9 3.4-8 5.2zm76.1 11.7c0-.1 0-.1.1-.2-18.6-12.7-22.7-1.6-.1.2zm-29.9-79.8c-3.1 1.1-9.6 8.5-9 12 2.4 2.7 8.1-9.7 9-12zm3.8 76.3c0-3-3.9-3.2-4 0 0 3.9-4 4.2-3.2 5.4 2.9 2.7 7.5-2.1 7.2-5.4zm-25.9 11.3c7.1 5.3 20.1 5 24.7-3.5-.1 0-.1-.1-.2-.1-5.4 8-16.5 5.7-24.5 3.6zm61.6-87.8c-6.1-1.2-13.3 0-18.3 4-1.4 1.3-4.2 4.9-1.1 6 .7-8.3 12.7-10.3 19.4-10zm-73 52.6c1.6-.2 3.9-.8 4.2-2.6-3.8.4-7.2-.7-10.8-2.3.2 3.1 3.9 4.5 6.6 4.9zM8.3 84.1c-.5-10.7 6.4-19.2 15-24.5-9.2 2.9-17.4 14.7-15 24.5zM190 91.8c-.1 0-.1 0-.2.1 1.3 5.4-.9 10.5-1.9 15.7 3.8 3.3 4-13.8 2.1-15.8zM47 60.5c0 .1-.1.1-.1.2 5.5 3.7 10.6 7.9 15.8 12 3.3 2.4 6 6.2 10.4 6.4v-.2C63.7 73.8 56.6 65.3 47 60.5zm113.6 22.9c2.9.2 6.7-3.5 2.9-5.2-3.3-1.2-8.4 4.9-2.9 5.2zm-8.1 6.7c-1.1-7.5-10.7 4-3.8 3.7 1.9-.6 3.3-1.9 3.8-3.7zm-27 6.4c.9 4.3 10.6 0 10.9-3.8-3.6 2.1-6.7 4-10.9 3.8zm18.9 72.9c1.8 0 4.1-2.5 4-4.3-1.3-5.6-10.1 3.4-4 4.3zm6.3-83.7c.3 3.7 4.5 1.5 5.7-.4 2.3-5.9-5.2-4-5.7.4zm8.4 65.9c-.2-7-6.3-2.6-4.4 1.9 1.6 2.8 4.4.5 4.4-1.9zm-20.8-29.9c-5.8 1.1-3 5 1.4 4.9 4.1-1 2.3-4.7-1.4-4.9zm16.8 13.1c4.7-.3 1.4-6-1.5-6.2-3.9-.2-1.1 6.3 1.5 6.2zm-.1 25.6c.1-4.8-5-1.8-5.4 1.2 0 5.2 5.4 2.2 5.4-1.2zm-85.7-72c-3.5-.1-1.5 5.5.6 6.1 4.9 1.2 2.7-5.9-.6-6.1zm-25.9 30.1c3.7.1 6.4-6.4 1.5-5.8-2.3.6-4.9 5.2-1.5 5.8zm-5.6 8.1c-.8-5.9-7.4.4-4.6 3.5 1.7 1.9 4.6-1.8 4.6-3.5zm97.7-21.4c.3 4.4 5 1.2 5.3-1.5 0-5-5.5-2.1-5.3 1.5zm-51.6 22.3c-1-7.1-10 3.6-3.7 3.6 1.8-.5 3.3-1.8 3.7-3.6zM68 143.6c.1 4.3 4.8 1.5 5.2-1.2.4-5.1-5.3-2.7-5.2 1.2zm-8.4-66.8c-6.1 1 4.1 10.2 4.1 3.2-.4-1.5-2.6-3.1-4.1-3.2zm59.9 100.1c3.7.1 6.8-6.1 1.8-5.8-2.4.4-5.3 5.2-1.8 5.8zm25.2-51.9c.5 3.2 6.8 5.7 6.6 1.1-.7-2.4-5.9-4.4-6.6-1.1zm-107.8 7.9c-2.9-3.6-5.6 2.2-3.5 4.6.7 1.2 2.2 1.7 3.1 0 .5-.9.7-4.2.4-4.6zm123.4 9.1c-.6-6.2-7.2-5-4.3 1.2 1.2 2.1 4.4 1.9 4.3-1.2zm-18-42.5c4.6-.2 5.8-8.1.4-5.4-1.7 1.1-3.6 5.1-.4 5.4zM68.1 86.8c0-1.9-1.8-4-3.5-4.3-4.3-.2-.8 7.7 2.5 5.8.8-.2 1-.9 1-1.5zM36.4 122c0 3.9 5 1 5.6-1.2.7-2.6-2-3.8-3.8-2.1-1.1.9-1.8 1.9-1.8 3.3zm25.7-14.1c-7 .9-2.1 6.3 2.2 4 2.2-1.9.7-3.9-2.2-4zm16.7 26.5c-.5-6.7-9.5 2.5-4 3.7 1.8-.3 4-2 4-3.7zM54 109.6c-2.5-.3-6.6 3.4-2.8 4.7 3.5 1.3 7.9-3.9 2.8-4.7zm9.7 51.2c.1 1.9.7 4.4 2.8 4.4 2-.3 2-3.5 1.6-4.9-.9-2.6-4.4-2.4-4.4.5zM28.6 61.2c0 1.8 1.3 3.8 3.3 3.6 5.8-2.2-2.3-12.1-3.3-3.6zm36 91c1 6.5 6.6.4 3.9-3.1-2.1-2.3-4.2.9-3.9 3.1zM75 42.9c0-3-5.9-4.9-5.9-.9.2 3 5.8 4.9 5.9.9zM28.7 54.4c.6 6.3 7.4.7 4.3-2.8-1.9-2.1-4.3.8-4.3 2.8zm39.9-14.7c5.3-.2 2.6-5.9-1.4-5-3.7 1.2-1.2 5 1.4 5zm-29.4-1.9c-.1 4.3 4.1 2.1 5.3 0 1.3-2.6-3.6-5.2-5.3 0zM111 55c-3-2.7-6.6-3.7-10.5-3.9.5.5 1.6.4 1.5 1.6-1.3.2-2.7.3-4 .5v.2c4.5-.1 8.7.2 13 1.6zM55.5 35.3c6.6-1.2 1.5-7.6-2.5-4-1.8 2.2.4 3.7 2.5 4zm-8 1.4c3.1.3 5.5-4.1 2.2-5.3-3.3-1-6.6 5.1-2.2 5.3zm18.9-3.4c-.6-2.6-5-3.6-6.2-.9-1.4 3.7 5.9 4.5 6.2.9zm18.9 102.4c3 .2 5.2-5 1.5-5.6-3.1-.3-5.3 5.3-1.5 5.6zM36.1 69.2c1-6.3 1.4-11.3 7.2-15.1-5.5 1.4-9.1 9.5-7.2 15.1zm2.4-28.1c-.4-4.7-6.2-1.6-4.9 1.8 1.4 3.4 4.8.8 4.9-1.8zM60.6 40c3.4-.5 3.8-4 .1-4.6-4.5-.7-4.4 4.4-.1 4.6zm3.5 50.6c-3.4-.2-2.3 5 .4 5.6 4 .8 2.7-5.9-.4-5.6zM121.4 40c-4.5 3.4-7.9 8.8-9 14.4 2.5-5.2 5.2-10.2 9-14.4zM80.5 141.4c3.3.3 5.2-5.5 1.2-5.5-2.7.1-4.6 5-1.2 5.5zM60.6 90.2c4.7-.1.3-8.3-2.6-4.9-1.3 1.8.5 5.1 2.6 4.9zM54.2 72c-5.2.8 3.2 8.3 3.3 2.7-.2-1.3-2-2.7-3.3-2.7zm79.3-5.7c-1.5-7-5.8-13.3-11.8-17.1 5.1 4.8 9.3 10.5 11.8 17.1zm-82.7 4.4c5.8-1-3.4-8.2-3-2.9.5 1.4 1.6 2.5 3 2.9zm21.1 43.4c3.3-.3 2.9-3.8-.2-4.4-4.2-.7-3.5 4.4.2 4.4zm33.8 41.4c-.7-3.7-3.8-.8-4.1 1.5.4 4.1 4.5 1.6 4.1-1.5zm-29.1-13.7c-3.5-.2-4.3 6.7-.1 4.8 1.9-.8 2.5-4.6.1-4.8zM35.3 69.3c-.1-1.2-.3-2.5-.5-3.8-.4.2-1-.4-1.1.5-2.6-1.7-3.8 1.6-2.4 3.5 1.2 1.7 3.5.9 3.5-1.1.3.3.4.6.5.9zm127.8-12.5c-.6-3.5-6.1.9-3.9 2.8 2 1.4 3.8-1 3.9-2.8zm-7 3.3c-1.9-.1-4.5 3.5-1.9 4.4 2.2.9 4.9-4.2 1.9-4.4zM38.5 74c.1-2.7-5.3-4-4.7-.6.4 2.2 4.4 3.4 4.7.6zm121.4 30.3c-.6-4.7-4.3-1.9-3 1.4.8 1.9 3.2.5 3-1.4zm-19.3 54.1h-.1c-.3-3.4-3.1-1.6-3.4.8.2 3.5 3.3 1.9 3.5-.8zm-1.6-5.8c-.2 1.9 2.3 3.3 3.1 1.1 1.1-3.5-2.8-5.6-3.1-1.1zM138.4 25c-3.4.5-3 3.9.3 3.8 2.9-.4 2.5-3.5-.3-3.8zm-7.6 2.9c.1 2 3.5 1.5 4.2.1 1.7-3.6-4.5-3.3-4.2-.1zm29.9 83.2c.2-2-2.7-4.6-3.4-1.8-.7 2.3 2.8 5.2 3.4 1.8zm-50.3-50.3c1.8 2-2.3 3.2-.5 5.6 0 0 3.5-4.2 1.6-6.3-.3.2-.7.4-1.1.7zm-19.3 5.9c1.2-1.1-2-3.3-1.6-5.2.3-.7-.9-1.3-1.2-.6-1.4 2.4 1.9 3.9 2.8 5.8zm59 1.9c.1 3.8 3.8 1 3-1.4-.4-2.6-3.3.2-3 1.4zm-8.9-39.3c-3.4.2-2.1 4.3.9 3.6 2.8-.8 1.5-3.7-.9-3.6zM52.3 75.8c-2.2 0-1.8 2.9-.4 3.8 3.8 2.1 3.6-3.6.4-3.8zm73.1-43.7c-.5-3-3.9-1.2-3.9 1.1.3 3.1 4.1 1.6 3.9-1.1zm13.8 116.6c3.5 0-.5-6.6-2-3.7-.2 1.4.4 3.9 2 3.7zm22-33.6c-.1 2.2 4.3 3.9 3.9.6-.5-1.7-4-3.7-3.9-.6zM85.4 23.9c.3 1.5 1.2 3.3 2.9 1.9 2.4-2.6-2.1-6.3-2.9-1.9zm13.2 12.4c.1-2.4-4.7-3.6-4-.3.2 1.7 4 2.9 4 .3zM135 145c4.9-.7-2.3-6-2.9-2.1.4 1 1.8 2.1 2.9 2.1zM91.5 71.1c-2.1 2.8-3.4 1.4-3.4 1.5.1.5-.2 3.2.8 2.2 1.6-1.8 4.9-.1 2.6-3.7zm36.1-39.7c2 .2 3.8-3.5 1-4-2.4-.3-4.5 3.9-1 4zm-26.7 5.2c-3.3.1-.9 4.4 1.5 3.6 2.4-.7.6-3.8-1.5-3.6zM71.8 151.7c2.5.1 3.7-4.6.6-4.3-2 .2-3.1 4.3-.6 4.3zm82.4-108.1c.4 3.8 4.7 2 3.5-1.1-1.1-2.4-3.3-1.1-3.5 1.1zm-13.1 10.2c.2-2.1-3.5-3.2-3 .5.4 1.3 2.7 1.6 3-.5zm2.5-27.6c-3.6.7-1.4 4.5 1.7 3.4 2.3-1.5 0-3.7-1.7-3.4zm-33.2-2.5c-.3-3.5-4.8.1-2.7 1.8 1.2.9 2.7-.5 2.7-1.8zm-22.7 4.6c.1.7.4 1.5 1.2 2.1 1.4 1 2.8-.9 2.3-2.3-.6-2.3-3.4-2.6-3.5.2zm4.6 24.6c-2.6-.5-6.6 4.2-3.1 5.4-2.1-2.9 3.1-5.4 3.1-5.4zm-39.8 9.5c-.8-1.1-1.9-1.8-3.1-2.3 3.3-1.4-.3-3.9-2-1.8-1 2.2 3.7 2.8 5.1 4.1zm96-29.9c5.3-.7-2.1-6.7-2.7-2.2.3 1.2 1.6 2.2 2.7 2.2zM92 30.6c-2.2 1-1.5 3.5.4 4.3 3.1.7 2-4.4-.4-4.3zm20.6-10.3s-.1 0 0 0c-.3-3-3.4-1.6-3.1.8.6 2.3 3 1.1 3.1-.8zM148 38.7c4 .5 8.3 1.1 11.7 3.6-1-2.5-9.2-4.9-11.7-3.6zM69.6 71.5c.8 5.1 6.3-2.2 1.9-2.4-.9 0-1.9 1.5-1.9 2.4zm76.3-13.8c.1-2.2-4.6-2.9-3.7-.2.5 1.5 3.4 2.3 3.7.2zM65.5 72.2c.5 2.8 3.2 1.5 3.6-.6.1-2.9-3.8-1.9-3.6.6zm89.3-23.3c.1 3.4 3.9 2.1 3-.9-.7-2-3.2-.8-3 .9zm-4.2 6.7c-1.6-.4-3.2 2.3-1.2 2.9 2.3.9 4.5-2.8 1.2-2.9zm3.9 0c2.2.2 3.2-3.7.6-3.5-1.8.2-2.9 3.3-.6 3.5zM41.3 74.4c-3.7.3-1.7 4.4 1.3 2.8 1.8-1.1.6-3.2-1.3-2.8zM128 31.9c-2-.2-3.3 3-.9 3.3 1.2-.1 3.3-3.2.9-3.3zM53.2 61.3c3.3-.3.3-3.8-1.7-2.5-1.7 1.4.3 2.5 1.7 2.5zm35-42.5c-.1 0-.1-.1-.2-.1 0-3.1-3.8-1-2.7 1.3 1 1.9 2.6.2 2.9-1.2zM55.1 61.1c-2 .1-.3 3.8 1.2 3.2 1.8-.5.1-3.2-1.2-3.2zm42.7 15.5s6.2 1.3 6.7-.8c-2.2.9-4.5.8-6.7.8zm7-4.1c-2.4 1-4.8 1.2-7.2 1 2.1.6 5.9 1.3 7.2-1zM97.4 75c.3.5 7 1.1 7-.9-2.4.7-4.6 1.1-7 .9zM90 62.2c-.4 1.1 1.2 1.6 1.2.5 0-.4-.5-.6-1.2-.5zm22 13.3c.6.4 1.3-1.1.8-1.6-.6.1-.5 1.1-.8 1.6zm-1.8-13.4c-.1 0-.2-.1-.3-.1l-.3.6.6.3c-.1-.3 0-.5 0-.8z" class="st0"/><path d="M147.2 100.9c0-1 1.2-2.4 2.2-2.5 3.6.3-1.6 6.1-2.2 2.5zm12.6-13c0 1-.6 1.4-1.3 1.8-5.1 2.2.6-6.5 1.3-1.8zm4.3-3.9c4 .9-1.5 4.8-2.5 2.2 0-1.4 1.4-1.7 2.5-2.2zM152 95.2c-.1-1.8 3.5-3.8 3.4-1-.1 1.2-3.3 3.3-3.4 1zm17.8-14.7c3.6.3.8 3.8-1.5 2.1-1.6-.9.6-2.4 1.5-2.1zm8.1 5c-.6-.1-1.3-.5-1.8-1.2-.8-4 6.9.7 1.8 1.2zM17.7 73.9c-.1.7-.4 1.4-1.2 1.9-4.5 1.5.4-6.1 1.2-1.9zm-3 8.5c-.1.7-.3 1.2-.9 1.6-4 .8 0-7.3.9-1.6zm129.1 21.8c3.2.4-1.1 5.5-1.8 2.4-.1-.8.8-2.3 1.8-2.4zM20.6 70c-3.4-.4 1.7-5.1 2.1-2.1-.1 1-1.2 2.1-2.1 2.1zm37.2 12.9c-.5 3-4.8-1.4-2.2-2.1 1 0 2.2 1.1 2.2 2.1zm78.6-51.4c-2.8-.4-.6-3 1.1-1.9 1.5.8-.2 1.8-1.1 1.9zm-31.7 3.7c.5 0 1.1.4 1.5 1 .8 3.2-5.2-.5-1.5-1zm-9.1-3.4c.2-2.1 3.6.1 2.3 1.4-1 0-2.4-.1-2.3-1.4zM14.8 92.1c-.6 2.8-3.1-.2-1.7-1.5.9-.8 1.3.9 1.7 1.5zm86.8-56.6c-.9-.5-2-.8-1.6-2 1-1.4 3.9 1.4 1.6 2zm31.3-4.6c0 1-1.4 1.9-2.2 1.5-1.5-1.2 1.5-2.7 2.2-1.5zm-38.2-1.6c-.4 1.6-2.3.4-2.2-.7.5-1.9 1.9-.5 2.2.7zm71.5 85c-1 0-2.1-1.6-1-2.1 1.1-.4 2.6 2 1 2.1zM90.8 15.2c0 1.5-1.7 2.4-1.8.7-.2-1.4 1.7-2.1 1.8-.7zm72.8 94.4c-.6 1.5-2.3-.1-1.7-1.2.5-1.1 1.7.3 1.7 1.2zM124.2 37c-.1.6-.8 1.4-1.6 1.1-1.4-.7 1.7-3.5 1.6-1.1zM91.8 25.1c-.2 2.2-2.2.2-1.3-1.1.6-.6 1.6.7 1.3 1.1zM89 20.6c-.1-1.8 2.1-1 1.5.3-.3 1.4-1.8.9-1.5-.3zm72.1 83.4c0-1.2 1.3-1 1.3.1.1 1.2-1.4 1.3-1.3-.1zm3.5-52.7c0 1.4-1.1 1.8-1.4.7 0-.9 1-1.6 1.4-.7zM109.2 16c.1-2.5 2.3.6.6.9-.6 0-.7-.4-.6-.9zm-1.5-4.9c1-.1 1.6 1.2.7 1.6-.7.1-1.4-1.1-.7-1.6zm-12.6 170c2.9.1 1.1 2.8-.8 2.7-2.7 0-1.1-3 .8-2.7zm43.6-12.4c2.4.2.5 3.1-1 3.1-2.5-.2-.7-3.2 1-3.1zm11.3-17.4c.4-1 1.2-3.2 2.5-1.7 1.4 2.3-1.9 4.8-2.5 1.7zm-.9 7.1c0 .8-1.4 2.7-2.5 1.8-2-1.5 2.5-5.3 2.5-1.8zm-71.9 19.7c-1.9 0-3.1-2.8-.6-2.9 1.6.1 3.2 3 .6 2.9zm68.7-48.4c-.5 3.4-5.7-1.7-2.2-1.9 1 .1 2.2 1.1 2.2 1.9zm-42.6 50.8c4.1 0-.5 4.4-1.8 2-.4-1.1.9-1.9 1.8-2zm45.2-45.7c.1-2.3 3.3-.1 3 1.3-.6 2.1-3.2.4-3-1.3zm-63.3 47.3c-2.1-.1-3.2-2.9-.5-2.8 1.7.4 3 2.7.5 2.8zm66.1-39.4c.3-4.1 4.2.9 1.8 2-1.2.3-1.8-1-1.8-2zm-37.5 35.1c3.9 1.7-3.5 4.5-2.2 1.1.5-.7 1.3-.9 2.2-1.1zM69 156.6c.3-1.1 1.6-2.7 2.3-.9.3 1.8-2 3.2-2.3.9zm.4 14.4c.9-1.9 2.4.1 2.4 1.4-.3 1.8-2.5 0-2.4-1.4zm16.6-6.5c-.5.7-1 2.4-2.1 1.6-1.3-1.4 1.6-3.9 2.1-1.6zm44.6-41.6c1.5-.1 2.3 1.9.4 2.1-1.7 0-2.6-2-.4-2.1zm-53.1 43.4c-2.1-.9.9-4.2 1.6-2.1.2.9-.8 1.8-1.6 2.1zm-8.7-1.4c-.1-2 2.3-1.6 2 .1-.1 2.1-2.2 1.5-2-.1zm33.3 4.6c.7-2.9 3.4.4 1.5 1.6-1 .3-1.2-1-1.5-1.6zm-24.4-16.4c-.7-.1-1.7-.3-1.6-1.3.9-2.1 4.9 1 1.6 1.3zm23.1 10c0-3.4 3.4.4 1.3 1.4-.8.3-1.3-.7-1.3-1.4zm-13.4-4.3c.3 1.2-1.7 2.3-1.9.8-.4-1.6 1.7-3 1.9-.8zm-4.2-7.2c1.4.1 2.4 2.8.3 2.2-1-.4-2.2-2-.3-2.2zm46.9-9.6c-.3 1.2-2.8 1.4-2.5-.1.5-.7 2.2-.9 2.5.1zm6.2 15.4c-.3.6-.6 2-1.4 1.5-1.2-.9.8-3.4 1.4-1.5zm1.2-4.6c.1 1.7-1.7 1.5-1.6-.1.1-1.6 1.6-1.4 1.6.1zm-2.8-5.4c.5-1.6 2.4.6 1.2 1.3-.8.3-1.1-.6-1.2-1.3zM34.4 46.9c.3 2.3-3.3 4-3.2.9.1-1.6 3.2-3.7 3.2-.9zm18.7-7.8c-3.5-.4-.5-3.9 1.7-2.6 2.2.9-.7 3-1.7 2.6zm12.7 4c-2.3.2-3.5-2.9-.7-2.9 2.2.2 3.7 2.6.7 2.9zm-18.1-4.8c2.3.2.3 3-1.2 2.9-2.7-.4-.1-3.3 1.2-2.9zm27.9 11.1c-1.5 0-3-2.7-.7-2.9 1.5-.1 3.4 3.1.7 2.9zm-33-7c0 1.1-1.2 2.5-2.3 1.8-1.6-1.2 2.1-4.2 2.3-1.8zm-4.1 5.2c.1 1.1-1.9 2.6-2.3.8-.3-1.2 2.3-3.4 2.3-.8zm31.8 19.8c0-1.2 1.8-2.8 2.1-1 .2 1.3-2 2.7-2.1 1zm-13.1 48.2c-2.5-1.6 2.9-4.1 3.4-1.6.2 1.7-2.2 1.8-3.4 1.6zm-4 1.1c.5 2.1-4.1 3.4-3.6.9.4-1.3 3.2-2.9 3.6-.9zm11.4-1.5c-2.4-1.9 3.9-3.4 3.5-.7-.5 1.6-2.1 1.2-3.5.7zm-17.3 5.7c.2 1.1-1.8 2.4-2.7 2.2-2.5-1.2 2.4-5.6 2.7-2.2zm-7.3 5.3c2.3-2 2.7 2 .7 2.8-.8.6-2.7-1-.7-2.8zm-.3 16.9c-.3 2.8-4.3-.8-2.5-2 1.3-.8 2.5 1 2.5 2zm33.5-25.4c-1.2.1-3.1-2-1.2-2.3 1.6-.2 3.6 1.9 1.2 2.3zm-28.7 29.9c-2.8-.3-.7-2.9 1-1.8 1.5.7 0 1.7-1 1.8zm6.7 0c-2.3-.2-.6-2.3.9-1.8 1.4.5 0 1.7-.9 1.8zm86.3-100.3c.8-2.1 2.5 1.4.7 1.2-.3-.1-.8-.7-.7-1.2zm-16.7 15.5c-.3 2.1-3 0-2.8-1.3.6-2.5 3.1.1 2.8 1.3zm.3 5.4c-.4 4.6-4.5-.9-1.2-1.6.9 0 1.1 1 1.2 1.6zm3.2 98.6c.2-1.2 1.7-2.9 2.4-1 .3 1.4-2.1 3.5-2.4 1zm-4-11.7c-.7-.3-2-.6-1.6-1.5 1.1-2.1 4.6 1.3 1.6 1.5zm4 2.2c1.5-.2 2.4 2.7.8 2.7-1.1 0-2.2-2.5-.8-2.7zM49.2 71.6c1 0 2.3 1.3 1.5 2.2-1.3 1.3-3.6-2-1.5-2.2zm-4.4-8.2c1.2-.1 2.2.6 1.8 1.7-.9 1.8-4.2-1-1.8-1.7zm-.9 6c-.7-.1-1.7-1.2-1.6-1.9.6-1.9 4 1.4 1.6 1.9zm2 7.6c-2.6-.9.6-3.2 1.7-1.4 0 1-.8 1.1-1.7 1.4zm115.3 5c-2.5-.2-.9-2.6.7-2.7 2.8-.2 1.3 2.9-.7 2.7zM151 90.1c.1 1.5-3.3 3.3-3.1.8.1-1.5 2.9-3.2 3.1-.8zm-6.3 78.1c-3.1-.5 1.5-5.1 2.1-2.2.1.9-1.2 2.2-2.1 2.2zm9.8-85.6c3.2 1.2-2.1 5.5-2.1 2.1 0-.9 1.2-2 2.1-2.1zm3.6 69c.2 1.7-2.1 2.8-2.5.8-.2-2.3 2.2-3.7 2.5-.8zm-19-26.1c-1-.3-3.1-1.1-1.7-2.3 2-1.5 5 1.6 1.7 2.3zm15.8 8c-1-.4-1.5-1.3-1.8-2.3.3-3.4 5.5 2 1.8 2.3zm-4 28.3c0-.9.9-2.1 1.6-2.3 3.4 0-.9 6.1-1.6 2.3zM71.8 92.3c-.8 2.2-3.3.1-2.9-1.6.7-1.7 2.8.3 2.9 1.6zm-25.6 22.6c.1 1-1.6 2.1-2.3 1.9-2.3-1.2 2.1-4.9 2.3-1.9zM35 128.8c-2.3.3-.8-4 .9-3.2 1.2.7 0 3-.9 3.2zm104.5-25.5c0 1-1 2.2-1.7 2.4-2.6-.2.6-5.6 1.7-2.4zm-58 23.2c3 .4-1.3 4.9-2 2.2-.1-.9 1-2.2 2-2.2zM69.1 143c.5-.9 1-2.8 2.3-2.1 1.9 1.1-1.4 4.8-2.3 2.1zm-8.8-64.7c1.6-.1 3.4 3.1.8 3-1.2-.2-2.8-2.9-.8-3zm61.4 94c1.8.9.1 3-1.4 3.1-2.1-.3-.3-3.3 1.4-3.1zm26.2-47.8c1.7-.1 3.2 2.8.7 2.9-1.5 0-3.3-2.8-.7-2.9zm-114 9.6c1.3-2.7 3 .6 1.8 2.2-1.4 1.6-2.1-1.3-1.8-2.2zm124.2 9.2c-2-.3-2.1-4.9.3-3.4 1 .8 1.5 3.2-.3 3.4zM144 94.8c2.8.3-.9 4.6-1.9 2.6-.4-1 .8-2.6 1.9-2.6zm-76.9-8.5c-.8 2-3.1.2-3-1.4.4-2 2.9-.1 3 1.4zm-29.4 35c-.2-1.8 3.2-3.4 3-.8-.3 1.2-2.8 3-3 .8zm25.2-12.2c3.2 2.5-4.5 3.1-2.4.3.5-.3 2.2-.5 2.4-.3zm14.7 25.3c-.1 1.2-1.7 2.1-2.4 2-2.4-1.1 1.7-5.1 2.4-2zm-22.7-23.1c.3 1.5-1.7 2.1-2.9 1.7-2.2-1.3 2-3.2 2.9-1.7zm9.7 50.3c.2-3.8 3.8-.8 2.1 1.4-.8 1.3-1.9-.8-2.1-1.4zM33 61.5c-.4 5.2-5.6-.7-2.2-2.4 1.4-.4 1.9 1.4 2.2 2.4zm32.6 89.9c.2-.7.4-2.1 1.4-1.8 3.1 1.3-1.1 6.2-1.4 1.8zm5.5-110.7c1.1.1 2.5 1.4 2.5 2.4-.6 3-6.2-1.2-2.5-2.4zM32.9 53.8c0 1.9-2.2 3.5-2.9 1.1-.4-2.3 2.6-4.3 2.9-1.1zm35.9-15.3c-2.2.1-3.3-2.8-.7-2.9 2.2.2 3.7 2.6.7 2.9zm-27.6.7c-3.4-.6 1.3-5.4 2.3-2.5.1 1.1-1.2 2.5-2.3 2.5zm14.1-5c-3.8-.1-1-3.8 1.3-2.7 2.3.6 0 2.9-1.3 2.7zm-7.7 1.5c-4-.7 2.6-5.8 2.5-2-.1 1-1.4 2-2.5 2zm15.3-3.9c1.4 0 3.4 1.2 1.6 2.4-2.4 1.9-5.4-2.1-1.6-2.4zm21.5 101.8c0-1.3 1.9-3.2 3.1-2 1.6 1.7-2.8 4.7-3.1 2zm-47-92.2c.1 1.9-3 3.5-3 .7.1-1.8 3-4 3-.7zM60.3 39c-4-.4-1.1-4 1.5-2.2 1.9.9-.6 2.5-1.5 2.2zm4.5 56.2c-1.4.1-2-1.8-1.9-2.9 1.2-2.9 5.1 2.8 1.9 2.9zm15.8 45.2c-2.6-.4.4-4.6 2-3.3 1.5 1.3-.5 3.3-2 3.3zM60.3 89.3c-1.2-.4-1.6-1.5-1.8-2.6.4-3.7 5.6 2.3 1.8 2.6zm-5.5-16.1c.7 0 1.7.8 1.7 1.4-.1 2.7-4.1-1-1.7-1.4zM50 67.1c.6 0 1.5.7 1.7 1.3.1 2.9-4.4-.9-1.7-1.3zM72.4 111c3.5 3.3-5.6 2.1-1.8-.3.1-.1 1.4.1 1.8.3zm30.1 46.1c.1-.9.6-1.4 1.3-1.8 2.2-.3-.1 4.8-1.3 1.8zm-28-12c.1-1.3 1.2-3.1 2.5-2.2 1.6 1.2-1.9 4.5-2.5 2.2zM34.1 68.3c-.3 3.4-4.1-1.1-1.8-2 1.2-.3 1.6 1.1 1.8 2zm82.6-13.4c.9 0 2.1 1.4 2 2.2-.9 2.7-5.3-1.9-2-2.2zm44.8 1.9c.9.7-.3 2.8-1.4 2.3-.9-.9.3-2.4 1.4-2.3zm-5.1 5.2c0 .9-1.3 2.4-2.1 1.4s1.9-3.3 2.1-1.4zM35.5 72.1c1 0 2.1 1 2.2 1.8-.3 2.3-4.8-.9-2.2-1.8zm121.9 32.4c0-1.7 1.6-1.9 1.6-.1.1 1.4-1.7 1.7-1.6.1zm-17.7 54.1c-.2.8-.5 1.5-1.3 1.5-1.6-.5.7-3.6 1.3-1.5zm.2-6c.4-3.1 2.9.9.8 1.2-.5 0-.9-.5-.8-1.2zm-1.4-126.7c2.8.2.7 2.8-1.1 1.8-1.1-.7-.1-2 1.1-1.8zm-5 .2c2.3.7-.8 3.5-1.8 1.9-.6-1.2.9-1.9 1.8-1.9zm24.4 84.2c.6-2.2 2.9.8 1.3 1.5-.8.1-1-.8-1.3-1.5zm-5.6-42c.1.7-.6 1.4-1.2.9-.3-.9.9-2.6 1.2-.9zm-10.6-36.2c-1.4.2-2.6-1.6-.8-2.1 1.8-.3 3.2 2 .8 2.1zM53 79.2c-.8.2-1.8-1.4-1.7-2 .9-2 4.3 1.8 1.7 2zm71.8-46.9c0 .9-.9 2.4-2.1 1.8-1.7-1.2 1.4-4.4 2.1-1.8zm13.7 113.1c.9 0 1.7 1.2 1.4 1.9-.9 1.7-2.8-1.2-1.4-1.9zm23.6-30.1c.5-2.5 3.7 2.1 1 1.4-.5-.2-1-.9-1-1.4zm-74-91.4c-.3 3.9-3.5-.9-.9-1.3.8 0 .9.8.9 1.3zm7.8 10.9c1.4-.2 2.9 2.5.9 2.3-1.1-.2-2.2-1.7-.9-2.3zM135 144.3c-1.2-.1-2.5-1.9-.7-2 1.2.1 2.2 1.4.7 2zm-8.5-114.6c0-1 1.7-2.1 2.5-1.3 1.1 1.3-2.5 3.6-2.5 1.3zM102 39.4c-.9-.3-2.2-.6-1.7-1.8.7-1.6 3.9 1.2 1.7 1.8zM71.1 150c-.1-1.7 3.2-2.3 2.3-.2-.5 1-2.3 2.1-2.3.2zm86.2-106.6c-.1 2.6-2.7 1.8-2.1-.5.2-1.5 2.1-.8 2.1.5zm-18.6 10c.6-1.6 2.3 0 1.4 1-.8.5-1.6-.3-1.4-1zm5.4-24.4c-1.6.2-2.4-1.9-.6-2.2 1.8 0 3.1 1.9.6 2.2zm-36-4.8c0-1.2 1-1.7 1.3-.7.1.8-.9 1.5-1.3.7zm-17.4 4.5c-.5 2.9-3.4-.7-1.5-1.6.9-.1 1.2 1 1.5 1.6zm-41.9 31c-.3 0-.8.1-.8-.6.2-1.8 3.4.3.8.6zm99.8-27.9c-.9-.3-2.4-.9-1.8-2 1.1-1.6 4.4 1.4 1.8 2zm-54.9 1.3c-.6 2.4-3.6-.6-1.9-1.6 1.1-.5 1.4 1 1.9 1.6zm16.4-13c.6-.7 1.1-1.1 1.5-.2-.1 1.5-1 1.2-1.5.2zM72.5 70.9c-.1.7-.6 1.9-1.6 1.6-1.7-.8 1.2-4.1 1.6-1.6zm71.3-14.4c.6.3 1.4.6 1.2 1.4-.9 1.1-3.1-1-1.2-1.4zM68.4 71.4c0 1-.8 2.1-1.8 1.5-1.5-.9 1.3-3.8 1.8-1.5zm87.1-22.5c-.1-1.9 2.1-1.2 1.6.4 0 1.5-1.7 1.1-1.6-.4zm-5.4 9c-2.2-.7 1.4-2.6 1.2-.8-.1.7-.9.5-1.2.8zm5.9-4.3c0 .6-1 1.5-1.6 1.5-1.8-.6 1.5-3.8 1.6-1.5zM41.4 75c3.5.2-.5 3.4-1.4 1.3.1-.7.6-1.3 1.4-1.3zM128 32.5c1.5.1-.4 2.6-1.2 1.9-.7-.8.3-1.9 1.2-1.9zm-75.4 27c.6 0 1.1.3 1.1.8-.4 1.8-3.4-.8-1.1-.8zm35.2-40.9c-.2.5-.4 1-.7 1.3-2.4 1.4-.8-4.3.7-1.3zM54.9 61.9c1-.1 1.9 1.6.7 1.8-.7 0-1.5-1.3-.7-1.8z" class="st0"/></svg>