<?xml version="1.0" encoding="utf-8"?>
<!-- Generator: Adobe Illustrator 16.0.0, SVG Export Plug-In . SVG Version: 6.00 Build 0)  -->
<!DOCTYPE svg PUBLIC "-//W3C//DTD SVG 1.0//EN" "http://www.w3.org/TR/2001/REC-SVG-20010904/DTD/svg10.dtd">
<svg version="1.0" id="Livello_1" xmlns="http://www.w3.org/2000/svg" xmlns:xlink="http://www.w3.org/1999/xlink" x="0px" y="0px"
	 width="566.93px" height="566.93px" viewBox="0 0 566.93 566.93" enable-background="new 0 0 566.93 566.93" xml:space="preserve">
<polygon fill="#FFFFFF" stroke="#1D1D1B" stroke-width="6" stroke-miterlimit="10" points="516.479,142.623 516.729,420.099 
	276.553,559.052 36.129,420.525 35.882,143.05 276.055,4.095 "/>
<path fill="#1D1D1B" d="M352.85,185.907c0,0-22.959-19.138-78.449-19.138c-55.487,0-89.928,27.745-88.973,68.883
	c0.957,41.14,48.796,59.315,76.536,66.012c27.744,6.7,50.706,13.396,50.706,29.661c0,16.262-21.462,19.236-44.007,18.177
	c-34.442,0-66.015-16.269-66.015-16.269l-17.221,41.143c0,0,25.831,22.002,83.235,22.002c57.4,0,98.539-18.174,98.539-62.182
	c0-44.016-23.806-56.871-73.665-73.667c-22.419-7.552-57.402-11.485-57.402-27.75c0-16.262,16.326-37.205,96.625-11.48
	L352.85,185.907z"/>
<g>
</g>
<g>
</g>
<g>
</g>
<g>
</g>
<g>
</g>
<g>
</g>
</svg>
