<svg xmlns="http://www.w3.org/2000/svg" id="Layer_1" viewBox="0 0 395.8 389.6"><style>.st0{fill:#9adbf9}.st1{fill:#5e7abc}.st2{fill:#52459c}</style><path d="M159.2 175.2l-29.7-.1-91.4-91.6s27.3-.1 29.8 0c6 6 50.7 51 91.3 91.7zM227.3 243.6l-14.8 14.8-58.3-58.3h29.1c24.8 24.7 44 43.5 44 43.5z" class="st0"/><path d="M125.1 258.3l-58.3 58.1H37.7l72.9-72.6zM212.2 316.7s24.1-.1 28.8 0l87.9-87.3h-29.1l-87.6 87.3M183.4 200.1l43.1-44.1-13.9-14-58.4 58.1h29.2" class="st1"/><path d="M8.6 287.3l72.9-72.7 29.1 29.2-72.9 72.6zM212.5 258.4L154.3 200l58.3-57.9 2.8 2.8 18.4 18.4 36.7 37 44-43.6-43.3-43.6-29.6-.1-14.4 14.5-14.5-14.5-29.1-.1-58.4 58-87.1-87.4-29.2 29.1 203.3 204.1 87.6-87.3-29.3-29.1z" class="st2"/><path d="M314.5 156.7l-14.7 14.6-58.2-58.3 29.6.1zM227.2 127.5l-14.6 14.6-29-29.2 29.1.1z" class="st0"/><path d="M328.7 171.4l-28.6 29-29.6-.1 29.1-29" class="st1"/><path d="M328.9 229.4l-28.8-29-29.6-.1 29.3 29.1z" class="st0"/><path d="M386.8 171.2L358 200.3h-29.5l29.2-29.1" class="st1"/><path d="M357.8 171.2l-29.1-29.1h-.3 29.9-.5l29.1 29.1" class="st0"/><path d="M299.6 171.1l29.2-29.1 29.1 29.2-29.4 29.1z" class="st2"/><path d="M300 84.1l-28.8 29-29.6-.1 29.3-29" class="st1"/><path d="M270.9 84l-29-29.1h-.4 30-.5l29 29.2" class="st0"/><path d="M212.7 83.9l29.2-29.1L271 84l-29.4 29z" class="st2"/><path d="M358.3 84.2l-28.9 29h-29.5l29.2-29.1" class="st1"/><path d="M329.2 84.1L300 54.9l29.5.1 28.8 29.2" class="st0"/><path d="M271 84l29-29.1 29.3 29.2-29.4 29.1z" class="st2"/></svg>