<svg xmlns="http://www.w3.org/2000/svg" id="Livello_1" viewBox="0 0 200 200"><style>.st0{fill:#5a158a}.st1{fill:#0856a9}.st2{fill:#048ecf}.st3{fill:#e70470}.st4{fill:#a90381}.st5{fill:#00a3c9}.st6{fill:#cb0083}.st7{fill:#0070ba}.st8{fill:#1c368b}.st9{fill:#771385}</style><path id="d4GYGKWug" d="M166.5 52l9.5 16h-38l9.5-16 9.5-16 9.5 16z" class="st0"/><path id="cGd0EukYB" d="M128.5 52l9.5 16h-38l9.5-16 9.5-16 9.5 16z" class="st1"/><path id="a4bokUcy4" d="M90.5 52l9.5 16H62l9.5-16L81 36l9.5 16z" class="st2"/><path id="agRL9lkl" d="M52.5 52L62 68H24l9.5-16L43 36l9.5 16z" class="st3"/><path id="eKysf5SH4" d="M185.5 84l9.5 16h-38l9.5-16 9.5-16 9.5 16z" class="st4"/><path id="bFZ5eWpKW" d="M71.5 84l9.5 16H43l9.5-16L62 68l9.5 16z" class="st5"/><path id="dlfIrRbK5" d="M33.5 84l9.5 16H5l9.5-16L24 68l9.5 16z" class="st6"/><path id="l5nQLHCA9q" d="M109.5 52l9.5-16H81l9.5 16 9.5 16 9.5-16z" class="st7"/><path id="b3PwRhknt" d="M147.5 52l9.5-16h-38l9.5 16 9.5 16 9.5-16z" class="st8"/><path id="c4y5SjUBap" d="M166.5 84l9.5-16h-38l9.5 16 9.5 16 9.5-16z" class="st9"/><path id="clWcVKwos" d="M33.5 148L24 132h38l-9.5 16-9.5 16-9.5-16z" class="st0"/><path id="b73lfmVvIH" d="M71.5 148L62 132h38l-9.5 16-9.5 16-9.5-16z" class="st1"/><path id="cbr9Easaf" d="M109.5 148l-9.5-16h38l-9.5 16-9.5 16-9.5-16z" class="st2"/><path id="fexmIz0Pr" d="M147.5 148l-9.5-16h38l-9.5 16-9.5 16-9.5-16z" class="st3"/><path id="a4D7IA5D7V" d="M14.5 116L5 100h38l-9.5 16-9.5 16-9.5-16z" class="st4"/><path id="d35tkGnwrg" d="M128.5 116l-9.5-16h38l-9.5 16-9.5 16-9.5-16z" class="st5"/><path id="eHoVd9pt" d="M166.5 116l-9.5-16h38l-9.5 16-9.5 16-9.5-16z" class="st6"/><path id="dez1BZfHF" d="M90.5 148L81 164h38l-9.5-16-9.5-16-9.5 16z" class="st7"/><path id="bGJzJJSJW" d="M52.5 148L43 164h38l-9.5-16-9.5-16-9.5 16z" class="st8"/><path id="e3oNmuRrf7" d="M33.5 116L24 132h38l-9.5-16-9.5-16-9.5 16z" class="st9"/></svg>