<?xml version="1.0" encoding="utf-8"?>
<!-- Generator: Adobe Illustrator 22.1.0, SVG Export Plug-In . SVG Version: 6.00 Build 0)  -->
<svg version="1.1" id="svg" xmlns="http://www.w3.org/2000/svg" xmlns:xlink="http://www.w3.org/1999/xlink" x="0px" y="0px"
	 viewBox="0 0 400 400" style="enable-background:new 0 0 400 400;" xml:space="preserve">
<style type="text/css">
	.st0{fill:#240C10;}
</style>
<path id="path1" class="st0" d="M141,179.4c0.1-0.4,56.2-36.1,56.2-36.1l0.1-127.4L39.2,110v159.8l159.6,110.3c0,0,0-163.2,0-164.5
	C198.5,215.4,141,179.7,141,179.4z M182.5,211.5l10.2,7v11.6l-10.2-7V211.5z M158.5,195.5l10.2,7v11.6l-10.2-7V195.5z M138.5,182.5
	l10.2,7v11.6l-10.2-7V182.5z M52.7,272.1l-10.2-7v-11.6l10.2,7V272.1z M52.7,248.1l-10.2-7v-11.6l10.2,7V248.1z M52.7,226.1l-10.2-7
	v-11.6l10.2,7V226.1z M52.7,203.1l-10.2-7v-11.6l10.2,7V203.1z M52.7,181.1l-10.2-7v-11.6l10.2,7V181.1z M52.7,158.7l-10.2-7v-11.6
	l10.2,7V158.7z M52.7,137.1l-10.2-7v-11.6l10.2,7V137.1z M70.7,150.1l-10.2-7v-11.6l10.2,7V150.1z M89.7,162.1l-10.2-7v-11.6l10.2,7
	V162.1z M110.7,176.1l-10.2-7v-11.6l10.2,7V176.1z M129.7,189.1l-10.2-7v-11.6l10.2,7V189.1z M192.5,302.9
	c-0.4-0.2-54.7-33.1-54.7-33.1v-72.9c0.6,0.5,55.1,37.5,55.1,37.5S192.5,302.2,192.5,302.9z M362.2,110L204.5,15.8v127.4
	c0,0,56.2,35.9,56.2,36.1c0,0.1-57.5,36.2-57.5,36.2s0,162.9,0,164.5l158.7-109.8C362.7,270.3,362.2,110,362.2,110z M250.5,191.5
	l10.2-7v11.6l-10.2,7V191.5z M230.5,204.5l10.2-7v11.6l-10.2,7V204.5z M209.3,218.6l10.3-7v11.6l-10.3,7V218.6z M264,269.8
	c-4.1,2.7-54.5,32.9-54.8,33.1c0-2.5,0-68.5,0-68.5s53.9-36.5,54.9-37.5C264.1,198.4,264,267.3,264,269.8z M279.7,184.1l-10.2,7
	v-11.6l10.2-7V184.1z M298.7,171.1l-10.2,7v-11.6l10.2-7V171.1z M319.7,157.1l-10.2,7v-11.6l10.2-7V157.1z M338.7,145.1l-10.2,7
	v-11.6l10.2-7V145.1z M359.1,265.1l-10.2,7v-11.6l10.2-7V265.1z M359.1,241.1l-10.2,7v-11.6l10.2-7V241.1z M359.1,219.1l-10.2,7
	v-11.6l10.2-7V219.1z M359.1,196.1l-10.2,7v-11.6l10.2-7V196.1z M359.1,174.1l-10.2,7v-11.6l10.2-7V174.1z M359.1,151.7l-10.2,7
	v-11.6l10.2-7V151.7z M359.1,130.1l-10.2,7v-11.6l10.2-7V130.1z"/>
</svg>
