<?xml version="1.0" encoding="utf-8"?>
<!-- Generator: Adobe Illustrator 22.1.0, SVG Export Plug-In . SVG Version: 6.00 Build 0)  -->
<svg version="1.0" id="svg" xmlns="http://www.w3.org/2000/svg" xmlns:xlink="http://www.w3.org/1999/xlink" x="0px" y="0px"
	 viewBox="0 0 400 400" enable-background="new 0 0 400 400" xml:space="preserve">
<path id="path1" fill="#240C10" d="M141,179.4c0.1-0.4,56.2-36.1,56.2-36.1l0.1-127.4L39.2,110v159.8l159.6,110.3
	c0,0,0-163.2,0-164.5C198.5,215.4,141,179.7,141,179.4z M158.4,196c0.1-0.3,0.7-0.3,1,0.1c0.2,0.2,0.4,0.3,0.5,0.3
	c0.1,0,0.3,0.2,0.5,0.3c0.2,0.2,0.4,0.3,0.5,0.3c0.1,0,0.5,0.3,0.9,0.6c0.4,0.3,0.9,0.6,1.1,0.7c0.2,0.1,0.4,0.3,0.6,0.4
	c0.1,0.1,0.3,0.3,0.4,0.3c0.1,0,0.3,0.2,0.5,0.3c0.2,0.2,0.4,0.3,0.4,0.3c0.1,0,1.1,0.6,2.2,1.4l2,1.4v11.8l-0.4,0
	c-0.2,0-0.5,0-0.6-0.2c-0.2-0.2-1.5-1.2-2.4-1.7c-0.9-0.5-1.4-0.9-2.1-1.5c-0.2-0.2-0.5-0.4-0.6-0.4c-0.3-0.1-1.1-0.7-3.2-2.4
	l-1.3-1l0-5.5C158.3,198.7,158.4,196.2,158.4,196z M42.4,119c0.1-0.3,0.7-0.2,0.9,0.1c0.1,0.2,0.3,0.3,0.4,0.3
	c0.1,0,0.3,0.1,0.5,0.2c0.2,0.2,0.9,0.7,1.5,1c1.1,0.7,7.3,4.9,7.4,5c0.1,0.2,0.2,10.5,0,11c-0.2,0.6-0.5,0.6-1.3,0
	c-0.4-0.3-0.8-0.6-0.9-0.6c-0.1,0-0.2-0.1-0.2-0.1c0-0.1-0.2-0.2-0.5-0.4c-0.3-0.1-0.5-0.3-0.5-0.3c0-0.1-0.1-0.2-0.3-0.2
	c-0.2,0-0.4-0.2-0.5-0.3c-0.2-0.2-2.8-2-3.4-2.4c-0.1-0.1-0.6-0.4-1-0.7c-0.4-0.3-1-0.7-1.3-0.8l-0.6-0.3l0-5.7
	C42.3,121.8,42.4,119.2,42.4,119z M51.8,271.3c-0.3-0.3-0.6-0.6-0.7-0.6c-0.1,0-0.3-0.1-0.5-0.3c-0.2-0.2-0.5-0.4-0.6-0.5
	c-0.2-0.1-0.9-0.5-1.5-1c-0.7-0.5-1.3-0.9-1.4-0.9c-0.1,0-0.9-0.6-1.9-1.3s-1.9-1.3-2.2-1.4c-0.2-0.1-0.5-0.3-0.6-0.4
	c-0.2-0.2-0.2-11.5,0-11.6c0.2-0.2,0.5-0.1,0.9,0.3c0.2,0.2,0.5,0.4,0.5,0.4c0.1,0,1,0.6,2,1.3c1,0.7,1.9,1.3,2,1.3s0.3,0.2,0.4,0.3
	c0.2,0.2,0.4,0.3,0.5,0.3c0.1,0,0.3,0.1,0.4,0.3c0.1,0.1,0.6,0.5,1.1,0.8c0.5,0.3,0.9,0.6,1,0.7c0.1,0.1,0.3,0.2,0.4,0.2
	c0.1,0,0.3,0.2,0.5,0.3s0.4,0.3,0.5,0.3c0.4,0,0.4,0.5,0.4,5.8C53.2,272.1,53.1,272.5,51.8,271.3z M53.2,242.2c0,6.2,0,6.3-1.1,5.8
	c-0.3-0.2-0.6-0.4-0.6-0.4c0-0.1-1.3-1-1.5-1c-0.1,0-0.3-0.2-0.4-0.3c-0.2-0.2-0.4-0.3-0.4-0.3c-0.1,0-0.5-0.2-0.9-0.5
	c-0.4-0.3-0.9-0.6-1-0.7c-0.2-0.1-0.6-0.4-1-0.7c-0.4-0.3-1.1-0.7-1.5-1c-0.5-0.3-0.9-0.6-1.1-0.8c-0.2-0.1-0.5-0.3-0.8-0.4
	l-0.5-0.2v-5.8c0-6,0-6.2,0.7-5.8c0.1,0.1,0.4,0.3,0.5,0.4s0.3,0.3,0.4,0.3c0.1,0,1.2,0.7,2.5,1.6c1.3,0.9,2.4,1.6,2.5,1.6
	c0.1,0,0.3,0.2,0.4,0.3c0.1,0.2,0.3,0.3,0.5,0.3c0.2,0,0.3,0.1,0.4,0.2c0.1,0.1,0.3,0.3,0.6,0.4c0.3,0.1,0.5,0.3,0.5,0.3
	c0,0.1,0.2,0.2,0.4,0.3c0.2,0.1,0.7,0.3,1,0.6l0.6,0.5V242.2z M51.5,225.2c-0.7-0.5-1.3-0.9-1.5-1c-0.1-0.1-0.6-0.4-1-0.7
	c-0.4-0.3-0.8-0.5-0.9-0.5c-0.1,0-0.3-0.2-0.4-0.3c-0.2-0.2-0.4-0.3-0.5-0.3c-0.1,0-0.3-0.2-0.5-0.3c-0.2-0.2-0.4-0.3-0.5-0.3
	c-0.1,0-0.4-0.2-0.6-0.4c-0.5-0.4-1.7-1.2-2.5-1.6c-0.2-0.1-0.5-0.3-0.5-0.4c-0.2-0.2-0.2-11.5,0-11.7c0.2-0.2,0.4-0.1,0.7,0.1
	c0.4,0.4,5.5,3.8,5.7,3.8c0.1,0,0.3,0.2,0.4,0.3c0.2,0.2,0.4,0.3,0.5,0.3s0.3,0.2,0.5,0.3s0.4,0.3,0.5,0.3c0.1,0,0.3,0.1,0.5,0.3
	c0.2,0.2,0.4,0.3,0.5,0.3c0.1,0,0.4,0.2,0.5,0.3c0.2,0.2,0.4,0.3,0.5,0.3c0.4,0,0.4,0.5,0.4,5.9C53.2,226.7,53.2,226.4,51.5,225.2z
	 M42.3,190.6c0-3.1,0-5.8,0.1-5.8c0.2-0.2,0.5-0.1,0.9,0.3c0.2,0.2,0.5,0.4,0.5,0.4c0.1,0,0.7,0.4,1.5,0.9c0.7,0.5,1.4,0.9,1.5,0.9
	c0.1,0,0.3,0.1,0.4,0.3c0.2,0.2,0.4,0.3,0.5,0.3s0.3,0.2,0.5,0.3c0.2,0.2,0.4,0.3,0.5,0.3s0.3,0.2,0.5,0.3s0.4,0.3,0.5,0.3
	s0.3,0.1,0.5,0.3c0.2,0.2,0.4,0.3,0.5,0.3s0.3,0.2,0.5,0.3c0.2,0.2,0.4,0.3,0.5,0.3c0.2,0,1.2,0.7,1.3,0.9c0.2,0.3,0.2,10.9,0,11.3
	c-0.2,0.4-0.4,0.4-1.2-0.2c-0.3-0.3-0.7-0.5-0.8-0.5s-0.3-0.1-0.4-0.3c-0.2-0.2-0.5-0.4-0.6-0.5c-0.3-0.2-2.8-1.8-4.1-2.7
	c-0.3-0.2-0.6-0.4-0.8-0.5c-0.2-0.1-0.5-0.3-0.6-0.5c-0.2-0.2-0.4-0.3-0.5-0.3c-0.1,0-0.3-0.2-0.5-0.3c-0.2-0.2-0.4-0.3-0.5-0.3
	C42.4,196.8,42.3,196.6,42.3,190.6z M52.9,180.8c-0.2,0.2-0.3,0.3-0.5,0.2c-0.1-0.1-0.7-0.5-1.2-0.8c-0.5-0.4-1.1-0.7-1.3-0.8
	c-0.1-0.1-1.1-0.7-2-1.4c-1-0.7-1.8-1.2-1.9-1.2c-0.1,0-0.2-0.1-0.2-0.1c-0.1-0.2-1.5-1.2-1.7-1.2c-0.1,0-0.3-0.2-0.5-0.3
	c-0.2-0.2-0.4-0.3-0.5-0.3c-0.7,0-0.8-0.2-0.8-6.2c0-3.1,0-5.8,0.1-5.8c0.2-0.2,0.5-0.1,0.8,0.2c0.3,0.3,2.4,1.7,2.5,1.7
	c0,0,0.4,0.2,0.8,0.5c0.4,0.3,0.9,0.6,1,0.7c0.1,0.1,0.6,0.4,1,0.7c0.4,0.3,0.8,0.6,1,0.7c0.1,0.1,0.6,0.4,1,0.7
	c0.4,0.3,0.8,0.6,1,0.7c0.9,0.5,1.3,0.8,1.4,1C53.3,169.8,53.2,180.4,52.9,180.8z M52.9,158.6c-0.1,0.1-0.4,0.2-0.5,0.1
	c-0.1-0.1-1.6-1-3.2-2.2c-1.7-1.1-3.1-2-3.2-2s-0.2-0.1-0.2-0.2c0-0.1-0.4-0.4-0.9-0.7c-0.5-0.3-1.1-0.7-1.3-0.9
	c-0.2-0.2-0.5-0.3-0.7-0.4c-0.2-0.1-0.4-0.2-0.5-0.3c-0.2-0.2-0.2-11.5,0-11.7c0.2-0.2,0.7-0.1,0.9,0.2c0.1,0.2,0.3,0.3,0.4,0.3
	c0.1,0,0.4,0.2,0.5,0.3c0.2,0.2,0.4,0.3,0.5,0.3c0.1,0,0.3,0.2,0.5,0.3s0.4,0.3,0.4,0.3c0.1,0,0.9,0.5,1.9,1.2
	c1,0.7,1.9,1.3,2.1,1.4c0.1,0.1,0.6,0.4,1,0.7c0.4,0.3,0.8,0.6,1,0.7c0.9,0.5,1.3,0.8,1.4,1C53.3,147.6,53.2,158.3,52.9,158.6z
	 M69.4,148.5c-0.4-0.3-1.5-1-2.4-1.6c-0.9-0.6-1.7-1.1-1.8-1.2s-1.2-0.8-2.4-1.6c-3.4-2.2-3-1.3-3-7.4c0-6.2,0-6.4,1.3-5.4
	c0.5,0.4,7.5,5.2,8.5,5.7c1.1,0.7,1.1,0.3,1.1,6.1C70.7,149.6,70.7,149.4,69.4,148.5z M88.2,161c-0.5-0.4-0.9-0.7-1-0.7
	c-0.1,0-0.2-0.1-0.4-0.2c-0.2-0.2-2.7-1.9-3.5-2.4c-0.2-0.1-1-0.7-2-1.3c-1-0.6-1.9-1.2-2-1.3c-0.5-0.2-0.6-0.9-0.6-5.6
	c0-5.6,0.1-6.1,1.3-5.1c0.3,0.2,0.9,0.7,1.5,1c0.5,0.4,2.1,1.4,3.4,2.2s2.5,1.7,2.7,1.8c0.1,0.1,0.4,0.3,0.5,0.4
	c0.1,0.1,0.4,0.3,0.7,0.5c1,0.5,1,0.5,1,5.9C89.7,162.2,89.7,162.2,88.2,161z M110.3,175.3c-0.3,0.2-0.9,0.1-0.9-0.2
	c0-0.1-0.2-0.3-0.5-0.4c-0.3-0.1-0.6-0.3-0.6-0.4c-0.1-0.1-2.7-1.9-3.4-2.3c-0.2-0.1-0.9-0.6-1.6-1c-0.7-0.5-1.3-0.9-1.3-0.9
	c-0.1,0-0.9-0.6-1.7-1.2l-0.5-0.4V163c0-3.1,0-5.7,0.1-5.7c0.2-0.2,0.7-0.1,1,0.2c0.1,0.1,1.1,0.8,2.1,1.5c1,0.7,1.9,1.3,2,1.3
	c0.1,0.1,1.3,0.9,2.6,1.8c1.4,0.9,2.6,1.8,2.7,1.9C110.6,164.3,110.6,175,110.3,175.3z M130,182.8c-0.1,6.4,0,6.2-1.4,5.2
	c-0.4-0.3-0.9-0.6-1.1-0.7c-0.2-0.1-0.4-0.3-0.6-0.4c-0.2-0.1-0.4-0.3-0.6-0.4c-0.2-0.1-0.7-0.4-1.1-0.7c-0.4-0.3-0.8-0.5-0.9-0.5
	c-0.1,0-0.3-0.1-0.4-0.3c-0.2-0.2-0.4-0.3-0.4-0.3c-0.1,0-0.5-0.2-0.9-0.5c-0.4-0.3-0.9-0.6-1-0.7c-0.7-0.4-1.3-0.9-1.8-1.2
	l-0.5-0.4v-5.5c0-6.1,0-6.2,0.9-5.7c0.2,0.1,0.7,0.5,1.1,0.8c0.4,0.3,0.8,0.6,0.8,0.6s0.5,0.3,1.1,0.7c0.5,0.4,1,0.7,1.1,0.7
	c0.1,0,0.3,0.2,0.6,0.4c0.3,0.2,0.6,0.5,0.8,0.6c0.3,0.2,1,0.7,2.7,1.8c0.6,0.4,1.2,0.8,1.5,1l0.4,0.3L130,182.8z M137.5,182.5
	c0.2-0.2,0.6-0.3,0.7,0c0.1,0.1,4.8,3.3,5.2,3.5c0.1,0,1,0.6,1.9,1.3s1.9,1.3,2,1.3c1,0.6,1,0.3,1,6.3c0,4.5,0,5.6-0.2,5.7
	c-0.2,0.2-0.8,0.1-0.8-0.2c0-0.1-9.7-7-9.8-7.2C137.3,192.9,137.3,182.9,137.5,182.5z M192.7,267.8c0,21.7-0.1,34.2-0.2,34.5
	c-0.2,0.5-0.6,0.6-0.8,0.1c-0.1-0.2-0.4-0.4-0.6-0.5c-0.2-0.1-1-0.5-1.6-1c-0.7-0.4-1.3-0.8-1.4-0.8c-0.1,0-1.5-0.9-3-1.8
	c-1.6-1-3.1-1.9-3.3-2c-0.3-0.1-0.9-0.5-1.4-0.9c-0.5-0.3-1-0.6-1-0.6s-0.9-0.5-1.8-1.1c-2.2-1.4-3.2-2-5-3.1
	c-1.4-0.8-2.5-1.5-4.3-2.6c-3.3-2-10.8-6.6-11.3-6.8c-0.2-0.1-0.6-0.3-0.9-0.5c-0.2-0.2-1.4-0.8-2.5-1.5c-1.1-0.7-2.8-1.7-3.6-2.3
	c-2-1.3-2-1.3-3.5-2.1c-0.7-0.4-1.4-0.8-1.5-0.9c-0.2-0.1-0.7-0.4-1.3-0.7c-0.5-0.3-1.8-1.1-2.7-1.7c-1-0.6-2.1-1.3-2.5-1.5
	l-0.7-0.4l0-36.5c0-20.1,0-37.4,0-37.5c0.6,0.5,55.1,38.3,55.1,38.3V267.8z M192.7,230.1l-10.2-7v-11.6l10.2,7V230.1z M362.2,110
	L204.5,15.8v127.4c0,0,56.2,35.9,56.2,36.1c0,0.1-57.5,36.2-57.5,36.2s0,162.9,0,164.5l158.7-109.8C362.7,270.3,362.2,110,362.2,110
	z M254.4,188.6c0.2-0.1,0.7-0.4,1.1-0.7c0.4-0.3,0.9-0.6,1-0.7c0.1-0.1,0.6-0.4,1-0.7c0.4-0.3,0.8-0.5,0.8-0.5
	c0.1,0,4.8-3.2,5.1-3.4c0.7-0.7,0.8-0.5,0.8,5.4l0.1,5.5l-0.5,0.3c-0.3,0.2-0.9,0.7-1.5,1.1c-0.5,0.4-1.3,1-1.8,1.3
	c-0.4,0.3-0.9,0.6-1,0.6c-0.1,0-0.3,0.1-0.5,0.3c-0.2,0.2-0.8,0.7-1.5,1.1c-0.7,0.4-1.3,0.9-1.4,1s-0.3,0.2-0.4,0.2
	c-0.2,0-0.7,0.3-1.4,1c-0.5,0.4-0.4,0.4-0.8,0.1c-0.2-0.2-0.3-1-0.3-5.7C253.5,189.1,253.5,189.2,254.4,188.6z M232.8,202.6l2-1.4
	c1.1-0.8,2.1-1.4,2.2-1.4s0.3-0.2,0.4-0.3c0.2-0.2,0.4-0.3,0.5-0.3c0.1,0,0.3-0.1,0.5-0.3c0.2-0.2,0.4-0.3,0.5-0.3
	c0.1,0,0.3-0.2,0.5-0.3c0.2-0.2,0.4-0.3,0.5-0.3c0.1,0,0.3-0.2,0.5-0.3c0.2-0.2,0.4-0.3,0.5-0.3c0.1,0,0.3-0.1,0.5-0.3
	c0.2-0.2,0.4-0.3,0.5-0.3c0.1,0,0.3-0.2,0.5-0.3c0.3-0.4,0.4-0.4,0.8-0.2c0.2,0.1,0.3,0.8,0.3,5.7v5.5l-0.8,0.6
	c-1.3,1.1-2.9,2.2-3.1,2.2c-0.1,0-0.2,0.1-0.2,0.2c0,0.1-0.2,0.3-0.5,0.4c-0.4,0.2-0.6,0.3-1.4,1c-0.2,0.2-0.4,0.3-0.5,0.3
	c-0.1,0-0.3,0.1-0.4,0.3c-0.2,0.2-0.4,0.4-0.6,0.5c-0.7,0.4-2.3,1.5-2.4,1.7c-0.1,0.1-0.4,0.2-0.6,0.2l-0.4,0V202.6z M209.3,218.6
	l10.3-7v11.6l-10.3,7V218.6z M264,269.8c-0.2,0.2-0.8,0.7-1.5,1c-0.6,0.4-1.7,1.1-2.4,1.5c-2,1.2-2.9,1.8-5.3,3.1
	c-1.2,0.7-2.6,1.5-3.1,1.9c-0.8,0.5-4.5,2.8-6,3.7c-1.9,1.1-6.6,4-8.3,5c-1.1,0.7-2.1,1.3-2.1,1.3c-0.1,0-2.5,1.5-3.2,2
	c-0.2,0.2-0.9,0.6-1.6,1c-0.6,0.4-2,1.2-3,1.8c-2.7,1.7-3,1.9-5.9,3.6c-1.4,0.9-3.6,2.2-4.9,3c-1.2,0.8-2.3,1.4-2.3,1.4
	c-0.1,0-4.2,2.6-4.5,2.8c-0.8,0.7-0.7,1.9-0.7-34.3v-34.2l0.6-0.5c0.3-0.3,1.1-0.8,1.8-1.3c0.6-0.4,1.7-1.1,2.3-1.5
	c0.6-0.4,2-1.4,3.2-2.2c1.1-0.8,2.7-1.9,3.5-2.4c0.8-0.5,1.7-1.2,2-1.4c1-0.7,3.9-2.7,5.9-4.1c1.1-0.8,3.1-2.1,4.3-3
	c3.9-2.7,6.9-4.8,8.7-6c1.9-1.3,3.5-2.4,6.3-4.3c1.1-0.7,2.9-2,4.2-2.9c1.2-0.9,3.1-2.2,4.2-2.9c1.1-0.7,2.5-1.7,3.2-2.2
	c0.7-0.5,1.4-1,1.7-1.2c0.3-0.2,1-0.7,1.5-1.1c1.2-0.9,1.3-0.9,1.5-0.5C264.5,197.6,264.4,269.4,264,269.8z M282.7,181.5l-0.5,0.5
	c-0.3,0.3-0.6,0.5-0.7,0.5c-0.1,0-0.3,0.2-0.5,0.3c-0.2,0.2-0.4,0.3-0.5,0.3c-0.1,0-0.3,0.2-0.5,0.3c-0.2,0.2-0.4,0.3-0.4,0.3
	s-0.9,0.5-1.9,1.2c-1,0.7-1.9,1.3-2,1.4c-0.3,0.2-2.6,1.7-3,2c-0.1,0.1-0.3,0.1-0.5,0c-0.4-0.2-0.4-11.2,0-11.6
	c0.2-0.1,0.9-0.7,1.7-1.2c0.8-0.5,1.5-1.1,1.6-1.2c0.1-0.1,0.3-0.2,0.4-0.2c0.1,0,0.3-0.1,0.4-0.2c0.1-0.1,0.5-0.4,1-0.7
	c0.4-0.3,1.2-0.8,1.7-1.1c0.5-0.3,1-0.6,1-0.6c0,0,0.6-0.3,1.1-0.8c1.1-0.8,1.2-0.9,1.5-0.4c0.1,0.2,0.2,2.3,0.2,5.7V181.5z
	 M302.2,168.6l-0.6,0.5c-0.3,0.3-0.6,0.5-0.7,0.5c-0.1,0-8.3,5.5-8.4,5.7c-0.2,0.2-0.6,0.3-0.9,0.1c-0.4-0.2-0.5-11,0-11.4
	c0.1-0.1,1.4-1,2.7-1.9c1.4-0.9,2.5-1.7,2.6-1.8c0.1-0.1,1-0.7,2-1.3s2-1.3,2.1-1.5c0.3-0.3,0.4-0.3,0.8-0.2
	c0.2,0.1,0.3,0.8,0.3,5.7V168.6z M322.5,155.2c-0.1,0-1.6,1-3.5,2.2c-1.8,1.2-3.4,2.3-3.6,2.4c-0.1,0.1-0.6,0.4-1,0.7
	c-0.4,0.3-0.8,0.5-0.9,0.5c-0.1,0-0.3,0.2-0.4,0.3c-0.8,1-1,0.3-1-5.2c0-4.4,0-4.9,0.3-5.2c0.3-0.4,4.3-3.1,8-5.5
	c0.5-0.3,1.1-0.8,1.4-1c0.5-0.4,0.9-0.5,1-0.2c0.1,0.1,0.1,2.5,0.1,5.4C323,154.5,323,155.2,322.5,155.2z M341.8,142
	c-0.1,0.3-3.3,2.5-4.9,3.4c-0.1,0.1-0.6,0.4-1,0.7c-0.4,0.3-0.8,0.5-0.9,0.5s-0.3,0.2-0.4,0.3c-0.2,0.2-0.4,0.3-0.5,0.3
	c-0.1,0-1.1,0.6-1.3,0.8c-1.5,1.7-1.7,1.3-1.7-4.9v-5.4l0.4-0.3c0.7-0.5,3.4-2.3,6-4.1c1.5-1,2.9-1.9,3.1-2.1
	c0.5-0.4,0.8-0.5,1.1-0.2C342.1,131.5,342.1,141.5,341.8,142z M348.8,125.7c0.1-0.1,6.3-4.3,7.4-5c0.5-0.3,1.2-0.8,1.5-1
	c0.1-0.1,0.3-0.2,0.5-0.2c0.1,0,0.3-0.2,0.4-0.3c0.1-0.2,0.3-0.3,0.5-0.3l0.4,0.1v11.6l-0.6,0.3c-1.1,0.6-2.2,1.3-2.7,1.7
	c-0.3,0.2-0.5,0.4-0.5,0.4c-0.1,0-3.3,2.2-3.6,2.5c-0.1,0.1-0.3,0.2-0.4,0.2c-0.1,0-0.6,0.3-1.2,0.8c-1.1,0.8-1.4,0.9-1.6,0.4
	C348.6,136.5,348.6,126,348.8,125.7z M359.5,257.7c0,6,0,5.9-0.7,6.3c-0.3,0.1-1.2,0.8-2.2,1.4c-0.9,0.6-1.8,1.2-2,1.3
	c-0.1,0.1-0.6,0.4-1.1,0.7c-0.4,0.3-1,0.7-1.3,0.9c-0.3,0.2-0.5,0.4-0.6,0.4c-0.1,0-0.3,0.2-0.5,0.3s-0.4,0.3-0.5,0.3
	c-0.1,0-0.3,0.1-0.4,0.3c-0.1,0.1-0.4,0.4-0.7,0.5c-0.9,0.5-0.9,0.3-0.9-5.8v-5.5l0.6-0.4c0.3-0.2,0.8-0.5,1-0.6
	c0.2-0.1,0.4-0.2,0.4-0.3c0-0.1,0.2-0.2,0.5-0.4c0.3-0.1,0.5-0.3,0.5-0.3c0-0.1,0.2-0.2,0.4-0.3c0.2-0.1,0.5-0.2,0.5-0.3
	c0.2-0.3,3.4-2.4,3.7-2.4c0.1,0,0.2-0.1,0.2-0.1c0-0.2,1.3-1,1.5-1c0.1,0,0.3-0.1,0.4-0.3c0.2-0.2,0.5-0.3,0.7-0.3h0.4V257.7z
	 M359.5,234.2c0,6,0,5.9-0.7,6.3c-0.2,0.1-1.2,0.8-2.2,1.4c-1,0.6-1.9,1.2-2,1.3c-0.2,0.1-1.1,0.7-2.1,1.4c-1,0.7-1.8,1.2-1.9,1.2
	s-0.4,0.2-0.7,0.5c-1.3,1.1-1.3,0.9-1.3-5.6v-5.4l0.8-0.5c0.4-0.3,0.8-0.5,0.8-0.5c0,0,0.5-0.3,0.9-0.7c0.5-0.4,1-0.7,1.1-0.7
	c0.1,0,0.3-0.1,0.3-0.2c0.2-0.3,1-0.8,1.6-1.1c0.3-0.1,0.5-0.3,0.5-0.4c0-0.1,0.2-0.3,0.5-0.4c0.3-0.1,0.5-0.3,0.5-0.3
	c0-0.1,0.1-0.2,0.3-0.2c0.1,0,0.4-0.2,0.5-0.3c0.2-0.2,0.4-0.3,0.5-0.3c0.1,0,0.3-0.2,0.5-0.3c0.2-0.2,0.4-0.3,0.5-0.3
	c0.1,0,0.4-0.1,0.5-0.3c0.2-0.2,0.5-0.3,0.7-0.3h0.4V234.2z M358.8,218.3c-0.2,0.1-1.2,0.8-2.2,1.4c-1,0.7-1.8,1.2-1.9,1.2
	c-0.1,0-0.3,0.2-0.4,0.3c-0.2,0.2-0.4,0.3-0.4,0.3c-0.1,0-0.5,0.2-0.8,0.5c-1.8,1.2-2.2,1.5-2.3,1.5c-0.1,0-0.4,0.2-0.7,0.5
	c-1.3,1.1-1.3,0.9-1.3-5.6v-5.4l0.6-0.4c0.4-0.2,1-0.7,1.5-1c0.5-0.3,1.1-0.7,1.4-0.8c0.3-0.1,0.5-0.3,0.6-0.4
	c0.1-0.2,5.1-3.5,5.3-3.5c0.1,0,0.3-0.2,0.6-0.4c0.9-0.9,0.9-0.8,0.9,5.5C359.5,218,359.5,218,358.8,218.3z M358.8,195.5
	c-0.2,0.1-1.2,0.8-2.2,1.5c-1,0.7-1.8,1.2-1.9,1.2c-0.1,0-0.3,0.2-0.4,0.3s-0.4,0.3-0.5,0.3c-0.1,0-0.5,0.3-0.9,0.6
	c-0.4,0.3-0.9,0.6-1.1,0.7c-0.2,0.1-0.4,0.3-0.6,0.4c-0.1,0.1-0.3,0.3-0.4,0.3c-0.1,0-0.5,0.2-0.8,0.5c-1.3,1.1-1.4,0.9-1.3-5.6
	l0-5.4l0.8-0.6c0.5-0.3,0.9-0.6,1-0.7c0.1-0.1,0.4-0.2,0.6-0.4c0.2-0.1,0.5-0.3,0.6-0.4c0.1-0.1,0.3-0.2,0.5-0.2
	c0.1,0,0.3-0.1,0.4-0.2c0.2-0.3,3.4-2.5,3.7-2.5c0.1,0,0.2-0.1,0.2-0.2c0-0.1,1-0.8,1.4-1c0.1,0,0.4-0.3,0.6-0.5
	c0.9-0.8,1-0.8,1,5.5C359.5,195.2,359.5,195.1,358.8,195.5z M348.7,173.6l0-5.5l0.8-0.6c0.5-0.3,0.9-0.6,1-0.7
	c0.1-0.1,0.4-0.2,0.6-0.4c0.2-0.1,0.5-0.3,0.5-0.4c0.1-0.1,0.3-0.2,0.5-0.2s0.4-0.2,0.5-0.3c0.1-0.2,0.2-0.3,0.3-0.3
	c0.1,0,1.2-0.7,2.5-1.6s2.4-1.6,2.5-1.6c0.1,0,0.3-0.2,0.5-0.4c0.9-1,0.9-0.8,1,5.3c0.1,6.2,0,6.3-0.5,6.4c-0.2,0.1-0.5,0.2-0.6,0.3
	c-0.1,0.1-0.6,0.5-1.1,0.8c-0.5,0.3-1.2,0.8-1.6,1.1c-0.4,0.3-0.8,0.5-0.8,0.5c-0.1,0-0.3,0.2-0.4,0.3c-0.2,0.2-0.4,0.3-0.4,0.3
	c-0.1,0-0.9,0.5-1.9,1.2C348.3,180.3,348.7,180.8,348.7,173.6z M359,151c-0.3,0.2-0.6,0.4-0.8,0.5c-0.1,0.1-0.4,0.3-0.6,0.4
	c-0.2,0.1-0.4,0.3-0.4,0.3c0,0.1-0.2,0.2-0.5,0.3c-0.3,0.1-0.5,0.3-0.6,0.4c0,0.1-0.2,0.2-0.3,0.2c-0.1,0-0.4,0.1-0.5,0.2
	c-0.2,0.2-5.3,3.6-5.9,4c-0.7,0.4-0.7-0.2-0.7-5.9v-5.5l0.6-0.5c0.4-0.3,0.8-0.5,1-0.6c0.2-0.1,0.4-0.2,0.4-0.3
	c0.1-0.1,0.2-0.3,0.3-0.3c0.1,0,0.4-0.2,0.5-0.3c0.2-0.2,0.4-0.3,0.5-0.3c0.1,0,0.3-0.1,0.5-0.3c0.2-0.2,0.4-0.3,0.4-0.3
	s0.9-0.5,1.9-1.2c1-0.7,1.9-1.3,2-1.4c1-0.6,1.7-1.1,1.8-1.3c0.1-0.1,0.2-0.1,0.4-0.1c0.3,0,0.3,0.6,0.3,5.8l0,5.8L359,151z"/>
</svg>
