<?xml version="1.0" encoding="utf-8"?>
<!-- Generator: Adobe Illustrator 24.2.0, SVG Export Plug-In . SVG Version: 6.00 Build 0)  -->
<svg version="1.1" id="Livello_1" xmlns="http://www.w3.org/2000/svg" xmlns:xlink="http://www.w3.org/1999/xlink" x="0px" y="0px"
	 viewBox="0 0 200 200" style="enable-background:new 0 0 200 200;" xml:space="preserve">
<style type="text/css">
	.st0{fill:#010202;}
	.st1{fill:#FFFFFF;}
</style>
<path class="st0" d="M105.4,25.9V10.4c0-3-2.4-5.4-5.4-5.4c-3,0-5.4,2.4-5.4,5.4v15.5C49.1,28.8,13.1,68,13.1,123.7
	C13.1,158.2,52,195,100,195s86.9-36.8,86.9-71.3C186.9,68,150.9,28.8,105.4,25.9z"/>
<path class="st1" d="M157.5,114.3c0,22.8-25.7,35.2-57.5,35.2s-57.5-12.4-57.5-35.2c0-38.3,25.7-60.8,57.5-60.8
	S157.5,76,157.5,114.3z"/>
</svg>
