<svg xmlns="http://www.w3.org/2000/svg" version="1" viewBox="0 0 200 200"><circle cx="100" cy="99.4" r="90.8" fill="#231f20"/><radialGradient id="a" cx="47.2392" cy="161.1728" r="51.7596" gradientTransform="matrix(1 0 0 -1 0 200.72)" gradientUnits="userSpaceOnUse"><stop offset="0" stop-color="#fff9d4"/><stop offset=".1058" stop-color="#fcf3c4"/><stop offset=".3149" stop-color="#f4e19b"/><stop offset=".3708" stop-color="#f2dc8e"/><stop offset=".6854" stop-color="#f0bf05"/><stop offset="1" stop-color="#c9971b"/></radialGradient><path fill="url(#a)" d="M100 5C47.5 5 5 47.5 5 100s42.5 95 95 95 95-42.5 95-95-42.5-95-95-95zm0 174.7c-44 0-79.7-35.7-79.7-79.7S56 20.3 100 20.3 179.7 56 179.7 100 144 179.7 100 179.7z"/><radialGradient id="b" cx="138.7622" cy="66.8634" r="27.0003" gradientTransform="matrix(1 0 0 -1 0 200.72)" gradientUnits="userSpaceOnUse"><stop offset="0" stop-color="#fffad6"/><stop offset=".1023" stop-color="#fcf4c7"/><stop offset=".3046" stop-color="#f5e29e"/><stop offset=".3708" stop-color="#f2dc8e"/><stop offset=".6854" stop-color="#f0c00d"/><stop offset="1" stop-color="#c9971c"/></radialGradient><path fill="url(#b)" d="M125 98.2v71.2c10.5-3.8 19.8-9.8 27.5-17.6L125 98.2z"/><radialGradient id="c" cx="137.8739" cy="141.6924" r="21.7689" gradientTransform="matrix(1 0 0 -1 0 200.72)" gradientUnits="userSpaceOnUse"><stop offset="0" stop-color="#fffad6"/><stop offset=".1023" stop-color="#fcf4c7"/><stop offset=".3046" stop-color="#f5e29e"/><stop offset=".3708" stop-color="#f2dc8e"/><stop offset=".6854" stop-color="#f0c00d"/><stop offset="1" stop-color="#c9971c"/></radialGradient><path fill="url(#c)" d="M150.1 49.9v-4.2c-7-6.5-15.3-11.6-24.4-15l24.4 56.5V49.9z"/><radialGradient id="d" cx="54.1405" cy="141.3316" r="64.1218" gradientTransform="matrix(1 0 0 -1 0 200.72)" gradientUnits="userSpaceOnUse"><stop offset="0" stop-color="#fffad6"/><stop offset=".1023" stop-color="#fcf4c7"/><stop offset=".3046" stop-color="#f5e29e"/><stop offset=".3708" stop-color="#f2dc8e"/><stop offset=".6854" stop-color="#f0c00d"/><stop offset="1" stop-color="#c9971c"/></radialGradient><path fill="url(#d)" d="M100 75V26.2c-8.6 0-16.9 1.5-24.6 4.2-9.2 3.2-17.5 8.2-24.6 14.6-1 .9-2 1.8-3 2.8-1 1-1.9 2-2.8 3-6.4 7.1-11.3 15.4-14.6 24.6-1.4 4-2.5 8.1-3.2 12.3-.7 4-1 8.1-1 12.3s.4 8.3 1 12.3c.7 4.2 1.8 8.3 3.2 12.3 3.2 9.2 8.2 17.5 14.6 24.6.9 1 1.8 2 2.8 3 1 1 2 1.9 3 2.8 7.1 6.4 15.4 11.3 24.6 14.6 7.7 2.7 16 4.2 24.6 4.2V87.5H52.4c1.1-4.3 2.8-8.3 5-12.1 2.2-3.7 4.8-7.2 7.8-10.2 3-3 6.5-5.7 10.2-7.8V75H100zm-24.6 37.5v30.1c-3.7-2.2-7.2-4.8-10.2-7.8-3-3-5.7-6.5-7.8-10.2-2.2-3.7-3.9-7.8-5-12.1h23z"/></svg>