<?xml version="1.0" encoding="utf-8"?>
<!-- Generator: Adobe Illustrator 22.1.0, SVG Export Plug-In . SVG Version: 6.00 Build 0)  -->
<svg version="1.0" id="Livello_1" xmlns="http://www.w3.org/2000/svg" xmlns:xlink="http://www.w3.org/1999/xlink" x="0px" y="0px"
	 viewBox="0 0 200 200" style="enable-background:new 0 0 200 200;" xml:space="preserve">
<g>
	<path d="M195,100.3c-0.4,52.8-43.2,95.1-95.7,94.7S4.6,151.7,5,99C5.4,46.9,48.3,4.7,100.4,5C152.9,5.4,195.4,48.1,195,100.3z
		 M11.9,100c0.1,48.5,39.4,87.7,88,87.8c48.7,0.1,88.4-39.4,88.2-87.9c-0.2-50.6-42.1-88.8-90.4-88C51.1,12.8,11.8,52.4,11.9,100
		L11.9,100z"/>
	<path d="M123.2,58.8c-1.3,4.3-2.6,8.3-3.5,11.2c-6.5-1.1-12.6-2.4-18.7-3c-3.6-0.4-7.4,0.6-8.8,4.7c-1.5,4.2-1.6,8.7,1.9,11.9
		c3.6,3.3,7.8,6,11.7,8.9c3.6,2.7,7.6,5.1,10.7,8.3c8.5,8.6,10,19,6.5,30.3c-2.1,6.7-7,10.9-13.3,13.4c-9.7,3.9-26.1,2-35.4-4.2
		c1.4-4,2.8-8.2,4-11.8c5.9,1.6,11.3,3.4,16.8,4.3c5.3,0.8,10.8,0,13.5-5.4s1.9-11.2-2.4-15.5c-3.3-3.4-7.4-5.9-11.3-8.7
		c-2.6-1.9-5.5-3.3-8-5.3C76.8,90.1,73.5,77,78.6,65.3c2.5-5.6,6.9-9.3,12.7-10.6C102.2,52.1,112.7,53.2,123.2,58.8"/>
	<path d="M53.4,98.4c0,6-4.9,10.9-10.9,11c-6,0-11.2-5.2-11.1-11.3c0.1-5.9,5.3-10.8,11.2-10.7C48.7,87.5,53.4,92.4,53.4,98.4"/>
	<path d="M157.8,87.7c6,0,10.5,4.4,10.6,10.5c0.1,6.2-4.9,11.3-11,11.2c-6-0.1-10.8-5-10.8-11C146.6,92,151.2,87.7,157.8,87.7"/>
</g>
</svg>
