<svg xmlns="http://www.w3.org/2000/svg" viewBox="0 0 200 200"><path d="M195 100.3c-.4 52.8-43.2 95.1-95.7 94.7S4.6 151.7 5 99c.4-52.1 43.3-94.3 95.4-94 52.5.4 95 43.1 94.6 95.3zM11.9 100c.1 48.5 39.4 87.7 88 87.8 48.7.1 88.4-39.4 88.2-87.9-.2-50.6-42.1-88.8-90.4-88-46.6.9-85.9 40.5-85.8 88.1z"/><path d="M123.2 58.8c-1.3 4.3-2.6 8.3-3.5 11.2-6.5-1.5-11.6-3.4-17.7-4-3.6-.4-8.4 1.6-9.8 5.7-1.5 4.2-1.6 8.7 1.9 11.9 3.6 3.3 7.8 6 11.7 8.9 3.6 2.7 7.6 5.1 10.7 8.3 8.5 8.6 10 19 6.5 30.3-2.1 6.7-7 10.9-13.3 13.4-9.7 3.9-26.1 2-35.4-4.2 1.4-4 2.8-8.2 4-11.8 6.4 2.7 10.3 4.4 15.8 5.3 5.3.8 11.8-1 14.5-6.4s1.9-11.2-2.4-15.5c-3.3-3.4-7.4-5.9-11.3-8.7-2.6-1.9-5.5-3.3-8-5.3-10.1-7.8-13.4-20.9-8.3-32.6 2.5-5.6 6.2-8.5 12.7-10.6 12-3.5 21.4-1.5 31.9 4.1M53.4 98.4c0 6-4.9 10.9-10.9 11-6 0-11.2-5.2-11.1-11.3.1-5.9 5.3-10.8 11.2-10.7 6.1.1 10.8 5 10.8 11M157.8 87.7c6 0 10.5 4.4 10.6 10.5.1 6.2-4.9 11.3-11 11.2-6-.1-10.8-5-10.8-11 0-6.4 4.6-10.7 11.2-10.7"/></svg>