<svg xmlns="http://www.w3.org/2000/svg" viewBox="0 0 200 200"><linearGradient id="a" x1="101.4941" x2="95.4007" y1="15.7024" y2="190.1982" gradientTransform="rotate(180 99.8186 100)" gradientUnits="userSpaceOnUse"><stop offset="0" stop-color="#bb6716"/><stop offset=".25" stop-color="#efb01b"/><stop offset=".5" stop-color="#f4b724"/><stop offset="1" stop-color="#ffd560"/></linearGradient><path fill="url(#a)" d="M31.4 151.5c.1-8.7-3.1-22.4 3.7-29-.5 16.3 1.5 32.5 4.6 48.4 3.1 10.6 20.7 7.3 29.6 10 8.4.8 16.9 1.8 25.4.8 12.8-.9 24.5 6.1 37.4 4.4 18.9-1.3 42.1-12.4 41.9-34.1-6.2 1.3-13.4 1.7-18.9-1.6-1-.9-1.7-.6-2.6-.1-16.3 7.6-41.1 14.5-55.3.1.1-.1.2-.3.3-.4 20.9 6.4 42.5 4.1 60.3-9 6-4.7 13.9-12.2 9.5-20.3-12.5-24.8-49.7-26.8-69.9-10.5-3.7 3.3-5.6 7.1-4.6 12.5 2.2 12.3-3.7 28.8-17.2 31.5C96 133 88 111.1 73.9 89.1c-5.4-8.7-11.6-17.6-9.3-28.6-5.3-.2-6.2-3.6-5.8-8.1-6.4 1.9-10.8-.3-13.4-6.6 5.2 3.1 10.5 2.8 15.5.2 3.3-1.7-.2-8.4 5.1-8.5-.2 5.3 1.6 10 4.3 14.6-1.8-.3-3.7-2.7-5.4-1.5-.9.7-1.7 3.3-1.2 4.3 3.4 1.5 8 1 11.8 1.3 3.2 0 3.6-.8 3.1-3.9-1.2-7.8-2.7-15.5-3.7-23.2 7.6 4.6 6.6 16.2 9 24.1 2.2-1.5 6.4-1.6 5.6-5-1.5-8.4-3-16.9-3.9-25.4.2-.1.3-.2.5-.4 7.1 5.9 5.8 17.2 8.4 25.5 1.6-1.3 4.7-1.5 4.5-3.9-1.3-8.9-2.7-17.5-4-26.4 7.4 4.6 6.7 16.9 8.9 24.7 7.1-.7-.7-23.9-1.5-29-7-9.4-46.2 7.7-55.8 12.2-14.6 6.8-12.8 44.6-17.4 60-3.4 21.7-6.6 45.2 2 66.1.1 0 .2 0 .2-.1z"/><linearGradient id="b" x1="33.7592" x2="33.2226" y1="51.8228" y2="67.1881" gradientTransform="rotate(180 99.8186 100)" gradientUnits="userSpaceOnUse"><stop offset=".25" stop-color="#efb01b"/><stop offset=".5" stop-color="#f4b724"/><stop offset="1" stop-color="#ffd560"/></linearGradient><path fill="url(#b)" d="M158.3 146.8c16.2 3.4 17.4 1.6 13.5-13.8-3.6 5.5-8 9.9-13.5 13.8z"/><linearGradient id="c" x1="103.229" x2="102.9988" y1="143.3861" y2="149.9769" gradientTransform="rotate(180 99.8186 100)" gradientUnits="userSpaceOnUse"><stop offset="0" stop-color="#bb6716"/><stop offset=".25" stop-color="#efb01b"/><stop offset=".5" stop-color="#f4b724"/><stop offset="1" stop-color="#ffd560"/></linearGradient><path fill="url(#c)" d="M100.6 50.2l-8.4 4.5c5 4.6 7 .2 8.7-4.3-.1-.1-.2-.2-.3-.2z"/><path d="M91.5 107.7C86 91.3 68.3 79.3 69.4 61.1c6.4 1 12.5.2 18.3-2.2 3.4 5.3 12.7 6.6 15.3.3 1.8-3.9 1.8-9.3 5.2-12.1 8.6-5.3 2.2-26.3.8-34.9-2.5-17-47.1.8-58.2 3.3-17.2 3.8-19.8 21.8-22 36.6-2 12.1-4.2 24.1-6.5 36.2-5.3 23.2-8.7 48.3 4.1 69.8 11.4 29 5.3 29.7 40 30.8 9.3.1 18.7 1.6 28 1 12.7-1.6 24.4 5 37 5.1 33.6 2.3 57.3-23 47.6-65.3-7.4-32.5-63.4-57.3-87.5-22zm-60.1 43.8h-.2c-8.7-20.9-5.4-44.4-2-66.1C33.9 70 32 32.3 46.5 25.6c9.5-4.5 49-21.6 55.8-12.2.8 4.9 8.5 28.4 1.5 29-2.2-7.8-1.5-20.2-8.9-24.7 1.3 8.9 2.7 17.6 4 26.4.2 2.4-2.9 2.6-4.5 3.9-2.6-8.3-1.3-19.6-8.4-25.5-.2.1-.3.2-.5.4.9 8.5 2.4 17 3.9 25.4.9 3.5-3.4 3.6-5.6 5-2.4-8-1.4-19.5-9-24.1 1 7.8 2.6 15.5 3.7 23.2.5 3.2.1 3.9-3.1 3.9-3.8-.3-8.3.1-11.8-1.3-.5-1 .2-3.6 1.2-4.3 1.7-1.2 3.6 1.1 5.4 1.5-2.6-4.6-4.5-9.3-4.3-14.6-5.4.1-1.9 6.8-5.1 8.5-5 2.7-10.3 3-15.5-.2 2.7 6.3 7 8.5 13.4 6.6-.4 4.5.5 7.9 5.8 8.1-2.3 11.1 3.9 19.9 9.3 28.6 14.2 22 22.2 44 1.7 65.1 13.5-2.7 19.4-19.2 17.2-31.5-1-5.4.9-9.2 4.6-12.5 20.2-16.3 57.3-14.3 69.9 10.5 4.4 8.1-3.5 15.6-9.5 20.3-17.9 13.1-39.5 15.4-60.3 9-.1.1-.2.3-.3.4 14.2 14.4 39 7.5 55.3-.1 1-.5 1.7-.7 2.6.1 5.6 3.4 12.7 2.9 18.9 1.6.2 21.7-23 32.8-41.9 34.1-12.9 1.7-24.6-5.3-37.4-4.4-8.4 1-17 0-25.4-.8-8.9-2.7-26.4.6-29.6-10-3.1-15.9-5.1-32.1-4.6-48.4-6.7 6.6-3.5 20.2-3.6 28.9zm126.9-4.7c5.5-3.8 9.9-8.3 13.5-13.8 3.9 15.4 2.7 17.2-13.5 13.8zm-57.7-96.6c.1.1.2.2.3.2-1.7 4.4-3.7 8.9-8.7 4.3 2.8-1.6 5.6-3 8.4-4.5z"/></svg>