<svg xmlns="http://www.w3.org/2000/svg" viewBox="0 0 200 200"><path fill="#fdc73d" d="M167.9 172.4c-39.8 19.6-80.2 25-121.6 4.9-9.2-4.5-18.5-8.9-27.2-14.4-8.6-5.4-10.1-11-7.5-20.8 9.3-35 18.6-70.1 28-105.2C44.7 17.3 56.1 9.4 77.2 10h3.5c16.5 0 18.5 6.2 18.5 18.3 0 .8-.3 18.1-.3 19.2.1 5.3-2.1 6.2-8.9 6.3-8.8.1-17.5 0-26.8 0-1 0-1.7.7-1.9 1.6-.2 2-.4 3.7-.4 5.3 0 22-.2 43.9.2 65.8.1 3.3 2 8.3 4.9 9.3 3.2.9 6.8-1.6 9-3.8 8.2-7.7 15.9-16 23.8-24.2 9-9.3 19.9-13.5 33-13.5 10.4 0 18.3-.2 27 1.6 16 3.4 28.6 17.5 30.4 32.4 2.5 19.5-5 36.1-21.3 44.1z"/><path fill="#d48d08" d="M149.9 129.4c-1.6 0-2.9 1.3-2.9 2.9 0 5.2-1.5 9.3-4.8 12.4-7.2 7-20.1 6.8-20.3 6.8H95.3c-1.6 0-2.9 1.3-2.9 2.9 0 1.6 1.3 2.9 2.9 2.9h26.9c2.5 0 15.8-.3 24.1-8.4 4.4-4.3 6.5-9.9 6.5-16.7 0-1.5-1.3-2.8-2.9-2.8zm-65-97.7c-.3-4.1-3.8-7.4-8.1-7.4h-3.4c-4.5 0-8.1 3.7-8.1 8.2 0 4.5 3.6 8.2 8.1 8.2H99c.1-3 .1-6.4.2-8.8l-14.3-.2z"/><path d="M74.8 10h5.8c16.5 0 18.5 6.2 18.5 18.3 0 .8-.3 18.1-.3 19.2.1 5.3-2.1 6.2-8.9 6.3H63.1c-1 0-1.7.7-1.9 1.6-.2 2-.4 3.7-.4 5.3 0 22-.2 43.9.2 65.8.1 3.3 2 8.3 4.9 9.3.4.1.9.2 1.3.2 2.8 0 5.7-2.1 7.7-4 8.2-7.7 15.9-16 23.8-24.2 9-9.3 19.9-13.5 33-13.5h5.7c7.7 0 14.3.1 21.4 1.6 16 3.4 28.6 17.5 30.4 32.4 2.5 19.4-5 36-21.4 44-22.4 11.1-45 17.6-67.9 17.6-17.7 0-35.6-3.9-53.7-12.7-9.2-4.5-18.5-8.9-27.2-14.4-8.6-5.4-10.1-11-7.5-20.8 9.3-35 18.6-70.1 28-105.2C44.5 18.1 55.3 10 74.8 10m0-8c-11.7 0-20.8 2.6-28 8-7.2 5.4-12.1 13.6-15.1 24.9-9.2 34.5-18.7 70.2-28 105.2-3.6 13.6-.3 22.5 11 29.6 8.5 5.3 17.3 9.6 25.9 13.8l2.1 1c18.5 8.9 37.7 13.5 57.2 13.5 23 0 46.4-6 71.5-18.4 19.1-9.4 28.8-29 25.8-52.2-2.3-18.7-17.8-35.2-36.7-39.2-7.9-1.7-15.1-1.8-23-1.8h-5.6c-15.4 0-28.4 5.4-38.7 15.9-1.4 1.5-2.9 3-4.3 4.5-6.2 6.5-12.7 13.2-19.2 19.4l-.4.4v-.3c-.3-16.3-.3-33-.2-49.1V61.7h21.2c4.8-.1 9.8-.5 13.4-4.2 3.5-3.6 3.5-8.5 3.5-10.2 0-.9.3-18.8.3-19.1 0-6.3-.4-13.4-5-18.8C96.6 2.8 87.2 2 80.7 2h-5.9z"/></svg>