<svg xmlns="http://www.w3.org/2000/svg" viewBox="0 0 200 200"><path fill="#fff" d="M182.3 147.5v-95L100 5 17.7 52.5v95L100 195z"/><linearGradient id="a" x1="100" x2="100" y1="5" y2="195" gradientUnits="userSpaceOnUse"><stop offset="0" stop-color="#457779"/><stop offset="1" stop-color="#6ba2af"/></linearGradient><path fill="url(#a)" d="M100 7.3l80.3 46.3v92.7L100 192.7l-80.3-46.3V53.7L100 7.3m0-2.3L17.7 52.5v95L100 195l82.3-47.5v-95L100 5z"/><linearGradient id="b" x1="41.9767" x2="158.0233" y1="89.4587" y2="89.4587" gradientTransform="matrix(1 0 0 -1 0 200)" gradientUnits="userSpaceOnUse"><stop offset="0" stop-color="#457779"/><stop offset="1" stop-color="#6ba2af"/></linearGradient><path fill="url(#b)" d="M100 162c-1.4 0-2.7-.8-3.4-2L42.5 65c-.9-1.5-.6-3.5.6-4.7s3.2-1.5 4.7-.7L100 88.2l52.2-28.6c1.6-.9 3.5-.6 4.7.7s1.5 3.2.6 4.7l-54.1 95c-.7 1.3-2 2-3.4 2zm-22.9-52.2l22.9 40.3 22.9-40.3L100 97.2l-22.9 12.6zm31.1-17.1l18.6 10.2 16.9-29.7-35.5 19.5zM56.3 73.3L73.2 103l18.6-10.2-35.5-19.5z"/></svg>