<svg xmlns="http://www.w3.org/2000/svg" id="Livello_1" x="0" y="0" version="1.1" viewBox="0 0 200 200" xml:space="preserve"><style>.st1{fill:#fff}</style><linearGradient id="SVGID_1_" x1="-.1337" x2=".2035" y1="199.9651" y2="199.9651" gradientTransform="matrix(430 0 0 -430 85 86085)" gradientUnits="userSpaceOnUse"><stop offset="0" stop-color="#01aec9"/><stop offset="1" stop-color="#1e8fca"/></linearGradient><circle cx="100" cy="100" r="72.5" fill="url(#SVGID_1_)"/><path d="M131.9 56.2l-8.9-8.9L93.4 77l29.6 29.6 8.9-8.9L111.1 77l20.8-20.8zM106.6 123L77 93.4l-8.9 8.9L88.9 123l-20.8 20.8 8.9 8.9 29.6-29.7z" class="st1"/><path d="M93.8 79h12.5v41.9H93.8z" class="st1" transform="rotate(-45 99.9994 99.9925)"/><linearGradient id="SVGID_2_" x1=".2525" x2=".0363" y1="199.9875" y2="199.7326" gradientTransform="matrix(560.0001 0 0 -560.001 20.0009 112020.1953)" gradientUnits="userSpaceOnUse"><stop offset="0" stop-color="#b6509e"/><stop offset="1" stop-color="#2ebac6"/></linearGradient><path fill="url(#SVGID_2_)" d="M100 195c-66.5 1.3-114.3-71.3-87.3-132.2 32.1-77 142.6-77 174.7 0 26.9 60.9-20.9 133.5-87.4 132.2zm0-180.2c-59-1.4-102.2 64-78 118.1 28.2 68.6 127.7 68.6 156 0 24.2-54-19-119.5-78-118.1z"/></svg>