<svg xmlns="http://www.w3.org/2000/svg" viewBox="0 0 200 200"><linearGradient id="a" x1=".2526" x2=".0365" y1="199.9865" y2="199.7317" gradientTransform="matrix(560.0001 0 0 -560.001 20.0009 112020.1953)" gradientUnits="userSpaceOnUse"><stop offset="0" stop-color="#b6509e"/><stop offset="1" stop-color="#2ebac6"/></linearGradient><path fill="url(#a)" d="M100 195c-6.4 0-12.8-.6-19.1-1.9-6.1-1.3-12.1-3.1-17.8-5.5-5.6-2.4-11.1-5.3-16.1-8.8-5-3.4-9.8-7.3-14.1-11.6-4.3-4.3-8.2-9-11.6-14.1-3.4-5.1-6.4-10.5-8.8-16.1-2.4-5.7-4.3-11.7-5.5-17.8-1.4-6.4-2-12.8-2-19.2 0-6.4.6-12.8 1.9-19.1C8.2 74.7 10 68.8 12.5 63c2.4-5.6 5.3-11.1 8.8-16.1 3.4-5 7.3-9.8 11.6-14.1 4.3-4.3 9-8.2 14.1-11.6 5.1-3.4 10.5-6.4 16.1-8.8 5.7-2.4 11.7-4.3 17.8-5.5C87.2 5.6 93.6 5 100 5c6.4 0 12.8.6 19.1 1.9 6.1 1.3 12.1 3.1 17.8 5.5 5.6 2.4 11.1 5.3 16.1 8.8 5 3.4 9.8 7.3 14.1 11.6 4.3 4.3 8.2 9 11.6 14.1 3.4 5.1 6.4 10.5 8.8 16.1 2.4 5.7 4.3 11.7 5.5 17.8 1.3 6.3 1.9 12.7 1.9 19.1 0 6.4-.6 12.8-1.9 19.1-1.3 6.1-3.1 12.1-5.5 17.8-2.4 5.6-5.3 11.1-8.8 16.1-3.4 5-7.3 9.8-11.6 14.1-4.3 4.3-9 8.2-14.1 11.6-5.1 3.4-10.5 6.4-16.1 8.8-5.7 2.4-11.7 4.3-17.8 5.5-6.3 1.5-12.7 2.1-19.1 2.1zm0-179.8c-5.7 0-11.5.6-17.1 1.7-5.5 1.1-10.8 2.8-15.9 4.9-5 2.1-9.9 4.8-14.4 7.8S43.9 36.1 40 40c-3.8 3.8-7.3 8-10.4 12.6-3.1 4.5-5.7 9.4-7.8 14.4-2.2 5.1-3.8 10.5-4.9 15.9-1.1 5.6-1.7 11.4-1.7 17.1 0 5.7.6 11.5 1.7 17.1 1.1 5.5 2.8 10.8 4.9 15.9 2.1 5 4.8 9.9 7.8 14.4s6.5 8.7 10.4 12.6c3.8 3.8 8 7.3 12.6 10.4 4.5 3.1 9.4 5.7 14.4 7.8 5.1 2.2 10.5 3.8 15.9 4.9 5.6 1.1 11.4 1.7 17.1 1.7 5.7 0 11.5-.6 17.1-1.7 5.5-1.1 10.8-2.8 15.9-4.9 5-2.1 9.9-4.8 14.4-7.8s8.7-6.5 12.6-10.4c3.8-3.8 7.3-8 10.4-12.6 3.1-4.5 5.7-9.4 7.8-14.4 2.2-5.1 3.8-10.5 4.9-15.9 1.1-5.6 1.7-11.4 1.7-17.1 0-5.7-.6-11.5-1.7-17.1-1.1-5.5-2.8-10.8-4.9-15.9-2.1-5-4.8-9.9-7.8-14.4S163.9 43.9 160 40c-3.8-3.8-8-7.3-12.6-10.4-4.5-3.1-9.4-5.7-14.4-7.8-5.1-2.2-10.5-3.8-15.9-4.9-5.6-1.1-11.4-1.7-17.1-1.7z"/><linearGradient id="b" x1=".0349" x2=".0349" y1="199.7965" y2="200.1337" gradientTransform="matrix(430 0 0 -430 85 86085)" gradientUnits="userSpaceOnUse"><stop offset="0" stop-color="#4fa89b"/><stop offset="1" stop-color="#6acebb"/></linearGradient><circle cx="100" cy="100" r="72.5" fill="url(#b)"/><path fill="#fff" d="M64.2 121.9V87.6l26 19.6v14.7h6.6v-16.1c0-1.2-.6-2.4-1.5-3.1L63.7 78.9c-1.7-1.3-4.2-.9-5.4.8-.5.7-.8 1.5-.8 2.3v39.8h6.7zm71.8 0V87.6l-26 19.6v14.7h-6.6v-16.1c0-1.2.6-2.4 1.5-3.1L136.4 79c1.7-1.3 4.2-.9 5.4.8.5.7.8 1.5.8 2.3v39.8H136z"/></svg>