<?xml version="1.0" encoding="utf-8"?>
<!-- Generator: Adobe Illustrator 22.1.0, SVG Export Plug-In . SVG Version: 6.00 Build 0)  -->
<svg version="1.1" id="Design_x5F_1_1_" xmlns="http://www.w3.org/2000/svg" xmlns:xlink="http://www.w3.org/1999/xlink" x="0px"
	 y="0px" viewBox="0 0 200 200" style="enable-background:new 0 0 200 200;" xml:space="preserve">
<style type="text/css">
	.st0{fill:#565656;}
</style>
<g id="Shape_2">
	<g>
		<polygon class="st0" points="71.6,28.9 73.9,70.6 93.5,84.2 98.5,60.9 		"/>
	</g>
</g>
<g id="Shape_2_copy">
	<g>
		<polygon class="st0" points="102.6,60.7 106.8,84.1 126.8,71.1 130.5,29.5 		"/>
	</g>
</g>
<g id="Shape_2_copy_2">
	<g>
		<polygon class="st0" points="130,73.8 116.4,93.3 139.7,98.3 171.7,71.5 		"/>
	</g>
</g>
<g id="Shape_2_copy_3">
	<g>
		<polygon class="st0" points="139.9,102.6 116.5,106.8 129.5,126.8 171.1,130.5 		"/>
	</g>
</g>
<g id="Shape_2_copy_4">
	<g>
		<polygon class="st0" points="126.7,130 107.2,116.4 102.2,139.7 129,171.7 		"/>
	</g>
</g>
<g id="Shape_2_copy_5">
	<g>
		<polygon class="st0" points="93.9,116.6 73.9,129.6 70.2,171.2 98.1,140.1 		"/>
	</g>
</g>
<g id="Shape_2_copy_6">
	<g>
		<polygon class="st0" points="60.9,102.2 28.9,129 70.6,126.7 84.2,107.2 		"/>
	</g>
</g>
<g id="Shape_2_copy_7">
	<g>
		<polygon class="st0" points="71.1,73.7 29.5,70.1 60.6,98 84.1,93.7 		"/>
	</g>
</g>
<g id="Shape_2_copy_15">
	<g>
		<polygon class="st0" points="28.7,71.4 5.3,75.6 18.3,95.6 59.9,99.3 		"/>
	</g>
</g>
<g id="Shape_2_copy_8">
	<g>
		<polygon class="st0" points="70.1,29.2 50.6,15.7 45.6,39 72.4,71 		"/>
	</g>
</g>
<g id="Shape_2_copy_9">
	<g>
		<polygon class="st0" points="125,5.3 105,18.2 101.3,59.9 129.2,28.7 		"/>
	</g>
</g>
<g id="Shape_2_copy_10">
	<g>
		<polygon class="st0" points="161.6,45.6 129.6,72.4 171.3,70.1 184.9,50.6 		"/>
	</g>
</g>
<g id="Shape_2_copy_11">
	<g>
		<polygon class="st0" points="182.3,105 140.7,101.3 171.9,129.2 195.3,125 		"/>
	</g>
</g>
<g id="Shape_2_copy_12">
	<g>
		<polygon class="st0" points="128.2,129.6 130.5,171.3 150,184.9 155,161.6 		"/>
	</g>
</g>
<g id="Shape_2_copy_13">
	<g>
		<polygon class="st0" points="71.4,171.9 75.6,195.3 95.6,182.3 99.3,140.7 		"/>
	</g>
</g>
<g id="Shape_2_copy_14">
	<g>
		<polygon class="st0" points="29.2,130.5 15.7,150 39,155 70.9,128.2 		"/>
	</g>
</g>
<g id="Shape_2_copy_16">
	<g>
		<polygon class="st0" points="40,155.6 68.9,170.9 72.4,128.8 		"/>
	</g>
</g>
<g id="Shape_2_copy_17">
	<g>
		<polygon class="st0" points="18.5,96.8 28.2,128 60.4,100.7 		"/>
	</g>
</g>
<g id="Shape_2_copy_18">
	<g>
		<polygon class="st0" points="45,40 29.7,68.9 71.8,72.4 		"/>
	</g>
</g>
<g id="Shape_2_copy_19">
	<g>
		<polygon class="st0" points="72.6,28.1 99.8,60.4 103.8,18.5 		"/>
	</g>
</g>
<g id="Shape_2_copy_20">
	<g>
		<polygon class="st0" points="131.7,29.7 128.2,71.8 160.6,45 		"/>
	</g>
</g>
<g id="Shape_2_copy_21">
	<g>
		<polygon class="st0" points="172.4,72.6 140.1,99.8 182.1,103.8 		"/>
	</g>
</g>
<g id="Shape_2_copy_22">
	<g>
		<polygon class="st0" points="128.7,128.2 155.6,160.6 170.8,131.7 		"/>
	</g>
</g>
<g id="Shape_2_copy_23">
	<g>
		<polygon class="st0" points="100.7,140.1 96.8,182 128,172.4 		"/>
	</g>
</g>
</svg>
