<svg xmlns="http://www.w3.org/2000/svg" id="Livello_1" version="1" viewBox="0 0 200 200"><style>.st0{fill:#00f}</style><path d="M16.3 16.4c.2 2.8 1.7 5.1 3.1 7.5 2.5 4.4 30.2 52.3 31.8 55.1 1.7-2.9 3.3-5.8 5-8.6C59 65.5 60.7 60.6 60 55c-.5-3.9-2.3-7.2-4.2-10.5-2.1-3.6-9.2-15.9-10.7-18.5h109.7c-2 3.5-60.4 104.6-63.4 109.9-1 1.8-1.8 3.6-2 5.7-.2 4 1.9 7.8 5.3 9.8 3.5 2 7.9 1.8 11.1-.5 1.6-1.1 2.7-2.7 3.7-4.4 2.7-4.7 65.6-113.6 69.5-120.4 1.9-3.4 4.6-6.9 4.5-11-.1-4-2.6-7.6-6.2-9.2-1.8-.8-3.6-1-5.5-1-5.3.1-131.1.1-138.9.1-3.9 0-8.2-.5-11.7 1.7-3.3 2-5.1 5.8-4.9 9.7z" class="st0"/><path d="M183.7 183.6c-.2-2.8-1.7-5.1-3.1-7.5-2.5-4.4-30.2-52.3-31.8-55.1-1.7 2.9-3.3 5.8-5 8.6-2.7 4.7-4.5 9.6-3.8 15.2.5 3.9 2.3 7.2 4.2 10.5 2.1 3.6 9.2 15.9 10.7 18.5H45.2c2-3.5 60.4-104.6 63.4-109.9 1-1.8 1.8-3.6 2-5.7.2-4-1.9-7.8-5.3-9.8-3.5-2-7.9-1.8-11.1.5-1.6 1.1-2.7 2.7-3.7 4.4-2.9 4.8-65.8 113.7-69.7 120.5-1.9 3.4-4.6 6.9-4.5 11 .1 4 2.6 7.6 6.2 9.2 1.8.8 3.6 1 5.5 1h139.1c3.9 0 8.3.5 11.7-1.7 3.3-2 5.1-5.8 4.9-9.7z" class="st0"/></svg>