<svg xmlns="http://www.w3.org/2000/svg" viewBox="0 0 200 200"><linearGradient id="a" x1="5" x2="195" y1="100" y2="100" gradientTransform="rotate(-45 99.9993 100.0017)" gradientUnits="userSpaceOnUse"><stop offset="0" stop-color="#30bac6"/><stop offset="1" stop-color="#b6509e"/></linearGradient><circle cx="100" cy="100" r="95" fill="url(#a)"/><path fill="#fff" d="M145.2 141.1l-34.9-84.6c-2-4.4-4.9-6.5-8.7-6.5h-3.1c-3.9 0-6.8 2.1-8.7 6.5L74.6 93.4H63.1c-3.4 0-6.2 2.8-6.3 6.3v.1c0 3.4 2.8 6.2 6.3 6.2h6.2l-14.5 35.1c-.3.8-.4 1.6-.4 2.4-.1 1.7.5 3.4 1.7 4.7 1.2 1.2 2.9 1.9 4.6 1.8 1.3 0 2.6-.4 3.6-1.2 1.1-.8 2-1.9 2.5-3.2L82.7 106h11c3.4 0 6.2-2.8 6.3-6.3v-.2c0-3.4-2.8-6.2-6.3-6.3h-5.9L100 62.9l33.2 82.8c.5 1.3 1.4 2.4 2.5 3.2 1 .8 2.3 1.2 3.6 1.2 1.7.1 3.4-.6 4.6-1.8 1.2-1.3 1.8-3 1.7-4.7 0-.9-.1-1.8-.4-2.5z"/></svg>