<?xml version="1.0" encoding="utf-8"?>
<!-- Generator: Adobe Illustrator 22.1.0, SVG Export Plug-In . SVG Version: 6.00 Build 0)  -->
<svg version="1.0" id="Livello_1" xmlns="http://www.w3.org/2000/svg" xmlns:xlink="http://www.w3.org/1999/xlink" x="0px" y="0px"
	 viewBox="0 0 200 200" style="enable-background:new 0 0 200 200;" xml:space="preserve">
<style type="text/css">
	.st0{fill:#7364AF;}
</style>
<g transform="translate(0.000000,200.000000) scale(0.100000,-0.100000)">
	<path class="st0" d="M1195.9,1660.1c-111.6-23.5-254.6-107.7-315.3-185.1c-14.7-19.6-163.5-262.4-212.5-347.6
		c-5.9-10.8-13.7-2.9-33.3,34.3c-14.7,27.4-87.1,147.9-161.6,269.3l-136.1,220.3l-143.9,2.9c-122.4,2-143.9,0-140-11.8
		c2.9-6.9,111.6-190,241.9-406.4l236-392.6l-1-244.8l-1-244.8h128.3h127.3v237.9v237L910,1049.1c186,328,246.7,382.9,432.8,389.7
		c78.3,2.9,101.8,0,150.8-17.6c70.5-26.4,127.3-76.4,158.6-139l23.5-47h138.1h137.1l-5.9,22.5c-3.9,11.8-23.5,58.7-45,103.8
		c-72.5,153.7-212.5,262.4-385.8,299.6C1428.9,1678.7,1280.1,1678.7,1195.9,1660.1z"/>
	<path class="st0" d="M895.3,941.3l-71.5-118.5V711.2V600.6l40.1-50.9c72.5-92,201.7-171.4,324.1-200.7
		c78.3-18.6,256.5-18.6,343.7,0c162.5,34.3,297.7,141,369.1,289.8c21.5,45,42.1,96.9,45,114.6l6.9,31.3h-129.2h-128.3l-19.6-39.2
		c-50.9-99.9-137.1-159.6-252.6-176.2C1173.4,534,991.2,695.6,971.7,968.8l-5.9,90.1L895.3,941.3z"/>
</g>
</svg>
