<?xml version="1.0" encoding="utf-8"?>
<!-- Generator: Adobe Illustrator 16.0.0, SVG Export Plug-In . SVG Version: 6.00 Build 0)  -->
<!DOCTYPE svg PUBLIC "-//W3C//DTD SVG 1.0//EN" "http://www.w3.org/TR/2001/REC-SVG-20010904/DTD/svg10.dtd">
<svg version="1.0" id="Livello_1" xmlns="http://www.w3.org/2000/svg" xmlns:xlink="http://www.w3.org/1999/xlink" x="0px" y="0px"
	 width="566.93px" height="566.93px" viewBox="0 0 566.93 566.93" enable-background="new 0 0 566.93 566.93" xml:space="preserve">
<g>
	<path fill="#24397C" d="M459.501,110.313l-14.741,14.71c-36.83-30.456-82.079-46.203-129.429-46.203
		c-107.33,0-195.721,82.959-203.087,189.026h-21.05C98.569,149.176,196.433,57.812,315.331,57.812
		c52.622,0,103.118,18.903,144.155,52.501H459.501z"/>
	<path fill="#24397C" d="M315.331,132.36c48.243-0.007,93.596,23.018,122.052,61.968l14.743-14.695
		c-32.378-42.935-83.016-68.209-136.795-68.268c-94.707,0-171.515,76.678-171.515,170.131c0,94.49,76.808,171.167,171.515,171.167
		c53.675,0,104.168-25.227,136.795-68.258l-14.743-14.718c-28.456,38.95-73.809,61.989-122.052,61.957
		c-83.123,0-150.474-67.195-150.474-150.165c0-81.908,67.351-149.105,150.474-149.105V132.36z"/>
	<path fill="#24397C" d="M476.333,126.078l-14.743,14.693c5.264,5.263,9.481,10.502,13.69,15.747l14.725-14.693
		C485.798,136.554,481.58,131.323,476.333,126.078z"/>
	<path fill="#24397C" d="M90.157,296.192c7.359,118.664,105.223,210.012,224.121,210.012c52.625,0,104.172-18.896,144.156-52.495
		l-14.728-14.704c-36.829,30.45-82.076,46.215-129.429,46.215c-107.329,0-195.72-82.962-203.087-189.027H90.141H90.157z"/>
	<path fill="#24397C" d="M461.59,423.26l14.743,14.701c5.262-5.271,9.465-10.523,13.672-15.762l-14.725-14.687
		C471.071,412.751,466.854,418.005,461.59,423.26z"/>
	<path fill="#24397C" d="M315.331,535.642c-139.939,0-254.643-114.471-254.643-254.161c0-139.656,114.687-254.11,254.643-254.11
		c75.768,0,147.311,33.615,195.717,92.424l14.728-14.711C473.175,42.048,396.353,6.361,315.331,6.361
		c-151.509,0-275.685,122.858-275.685,275.12c0,151.209,123.107,275.145,275.685,275.145c82.075,0,157.844-35.702,210.444-98.724
		l-14.728-14.687c-48.406,59.854-119.949,92.394-195.717,92.394V535.642z"/>
</g>
<g>
</g>
<g>
</g>
<g>
</g>
<g>
</g>
<g>
</g>
<g>
</g>
</svg>
