<?xml version="1.0" encoding="UTF-8" standalone="no"?>
<!DOCTYPE svg PUBLIC "-//W3C//DTD SVG 1.1//EN" "http://www.w3.org/Graphics/SVG/1.1/DTD/svg11.dtd">
<svg width="100%" height="100%" viewBox="0 0 50 50" version="1.1" xmlns="http://www.w3.org/2000/svg" xmlns:xlink="http://www.w3.org/1999/xlink" xml:space="preserve" style="fill-rule:evenodd;clip-rule:evenodd;stroke-linejoin:round;stroke-miterlimit:1.41421;">
    <g id="XMLID_205_" transform="matrix(0.313283,0,0,0.313283,-6.10902,-6.32832)">
        <circle cx="99.3" cy="100" r="79.8" style="fill:white;"/>
    </g>
    <g id="XMLID_202_" transform="matrix(0.313283,0,0,0.313283,-6.10902,-6.32832)">
        <path id="XMLID_204_" d="M134.4,51.8L124.6,42L92,74.7L124.6,107.3L134.4,97.5L111.5,74.7L134.4,51.8Z" style="fill:url(#_Linear1);fill-rule:nonzero;"/>
        <path id="XMLID_203_" d="M106.6,125.3L73.9,92.7L64.1,102.5L87,125.3L64.1,148.2L73.9,158L106.6,125.3Z" style="fill:url(#_Linear2);fill-rule:nonzero;"/>
        <path id="XMLID_201_" d="M110.7,121.2L78.1,88.5L87.8,78.8L120.5,111.5L110.7,121.2Z" style="fill:url(#_Linear3);fill-rule:nonzero;"/>
    </g>
    <defs>
        <linearGradient id="_Linear1" x1="0" y1="0" x2="1" y2="0" gradientUnits="userSpaceOnUse" gradientTransform="matrix(68,-3,3,68,65.4993,77.2827)"><stop offset="0%" style="stop-color:rgb(2,174,201);stop-opacity:1"/><stop offset="100%" style="stop-color:rgb(30,143,202);stop-opacity:1"/></linearGradient>
        <linearGradient id="_Linear2" x1="0" y1="0" x2="1" y2="0" gradientUnits="userSpaceOnUse" gradientTransform="matrix(68,-3,3,68,67.631,125.602)"><stop offset="0%" style="stop-color:rgb(2,174,201);stop-opacity:1"/><stop offset="100%" style="stop-color:rgb(30,143,202);stop-opacity:1"/></linearGradient>
        <linearGradient id="_Linear3" x1="0" y1="0" x2="1" y2="0" gradientUnits="userSpaceOnUse" gradientTransform="matrix(68,-3,3,68,66.5651,101.443)"><stop offset="0%" style="stop-color:rgb(2,174,201);stop-opacity:1"/><stop offset="100%" style="stop-color:rgb(30,143,202);stop-opacity:1"/></linearGradient>
    </defs>
</svg>
