<svg xmlns="http://www.w3.org/2000/svg" version="1" viewBox="0 0 200 200"><linearGradient id="a" x1="12.3927" x2="186.5421" y1="187.5105" y2="13.3611" gradientTransform="matrix(1 0 0 -1 0 200)" gradientUnits="userSpaceOnUse"><stop offset="0" stop-color="#29b0e2"/><stop offset="1" stop-color="#114db5"/></linearGradient><path fill="#fff" stroke="url(#a)" stroke-miterlimit="10" stroke-width="7" d="M17 14.9h47.7L132.1 98V14.9h49.8v169.4h-49.8l-67.4-82.5v82.5H17z"/><linearGradient id="b" x1="9.6533" x2="25.1263" y1="23.6737" y2="8.2007" gradientUnits="userSpaceOnUse"><stop offset="0" stop-color="#29b0e2"/><stop offset="1" stop-color="#114db5"/></linearGradient><circle cx="17.4" cy="15.9" r="7.9" fill="#fff" stroke="url(#b)" stroke-miterlimit="10" stroke-width="6"/><linearGradient id="c" x1="9.6291" x2="25.1401" y1="191.7673" y2="176.2564" gradientUnits="userSpaceOnUse"><stop offset="0" stop-color="#29b0e2"/><stop offset="1" stop-color="#114db5"/></linearGradient><path fill="#fff" stroke="url(#c)" stroke-miterlimit="10" stroke-width="6" d="M25.3 184c0-4.4-3.6-7.9-7.9-7.9-4.5 0-7.9 3.6-7.9 7.9 0 4.4 3.6 7.9 7.9 7.9s7.9-3.5 7.9-7.9z"/><linearGradient id="d" x1="57.9776" x2="73.4505" y1="23.6737" y2="8.2007" gradientUnits="userSpaceOnUse"><stop offset="0" stop-color="#29b0e2"/><stop offset="1" stop-color="#114db5"/></linearGradient><ellipse cx="65.7" cy="15.9" fill="#fff" stroke="url(#d)" stroke-miterlimit="10" stroke-width="6" rx="7.9" ry="7.9" transform="rotate(-9.213 65.7126 15.9338)"/><linearGradient id="e" x1="57.9533" x2="73.4643" y1="191.7673" y2="176.2564" gradientUnits="userSpaceOnUse"><stop offset="0" stop-color="#29b0e2"/><stop offset="1" stop-color="#114db5"/></linearGradient><path fill="#fff" stroke="url(#e)" stroke-miterlimit="10" stroke-width="6" d="M73.7 184c0-4.4-3.6-7.9-7.9-7.9-4.5 0-7.9 3.6-7.9 7.9 0 4.4 3.6 7.9 7.9 7.9 4.3.1 7.9-3.5 7.9-7.9z"/><linearGradient id="f" x1="174.8699" x2="190.3506" y1="23.6776" y2="8.1968" gradientUnits="userSpaceOnUse"><stop offset="0" stop-color="#29b0e2"/><stop offset="1" stop-color="#114db5"/></linearGradient><ellipse cx="182.6" cy="15.9" fill="#fff" stroke="url(#f)" stroke-miterlimit="10" stroke-width="6" rx="7.9" ry="7.9" transform="rotate(-9.213 182.5892 15.9238)"/><linearGradient id="g" x1="174.8418" x2="190.3891" y1="191.7673" y2="176.2201" gradientUnits="userSpaceOnUse"><stop offset="0" stop-color="#29b0e2"/><stop offset="1" stop-color="#114db5"/></linearGradient><path fill="#fff" stroke="url(#g)" stroke-miterlimit="10" stroke-width="6" d="M190.5 184c.1-4.4-3.5-7.9-7.9-7.9-4.5 0-7.9 3.6-7.9 7.9 0 4.4 3.6 7.9 7.9 7.9 4.4.1 7.9-3.5 7.9-7.9z"/><linearGradient id="h" x1="124.512" x2="139.9927" y1="23.6776" y2="8.1968" gradientUnits="userSpaceOnUse"><stop offset="0" stop-color="#29b0e2"/><stop offset="1" stop-color="#114db5"/></linearGradient><ellipse cx="132.2" cy="15.9" fill="#fff" stroke="url(#h)" stroke-miterlimit="10" stroke-width="6" rx="7.9" ry="7.9" transform="rotate(-9.213 132.2361 15.9279)"/><linearGradient id="i" x1="124.4839" x2="140.013" y1="191.7673" y2="176.2382" gradientUnits="userSpaceOnUse"><stop offset="0" stop-color="#29b0e2"/><stop offset="1" stop-color="#114db5"/></linearGradient><path fill="#fff" stroke="url(#i)" stroke-miterlimit="10" stroke-width="6" d="M140.2 184c0-4.4-3.5-7.9-7.9-7.9-4.5 0-7.9 3.6-7.9 7.9 0 4.4 3.6 7.9 7.9 7.9 4.3.1 7.9-3.5 7.9-7.9z"/><linearGradient id="j" x1="124.4839" x2="140.013" y1="104.4157" y2="88.8866" gradientUnits="userSpaceOnUse"><stop offset="0" stop-color="#29b0e2"/><stop offset="1" stop-color="#114db5"/></linearGradient><path fill="#fff" stroke="url(#j)" stroke-miterlimit="10" stroke-width="6" d="M140.2 96.6c0-4.4-3.5-7.9-7.9-7.9-4.5 0-7.9 3.6-7.9 7.9 0 4.4 3.6 7.9 7.9 7.9 4.3.1 7.9-3.4 7.9-7.9 0 .1 0 .1 0 0z"/></svg>