<?xml version="1.0" encoding="utf-8"?>
<!-- Generator: Adobe Illustrator 22.1.0, SVG Export Plug-In . SVG Version: 6.00 Build 0)  -->
<svg version="1.0" id="Livello_1" xmlns="http://www.w3.org/2000/svg" xmlns:xlink="http://www.w3.org/1999/xlink" x="0px" y="0px"
	 viewBox="0 0 200 200" style="enable-background:new 0 0 200 200;" xml:space="preserve">
<style type="text/css">
	.st0{fill:#182140;}
</style>
<g>
	<path class="st0" d="M162.6,39.3l-5.2,5.2c-13-10.8-29.1-16.4-45.9-16.4c-38,0-69.4,29.4-72,67h-7.5c2.6-42.1,37.3-74.4,79.4-74.4
		C130.2,20.7,148.1,27.4,162.6,39.3L162.6,39.3z M111.6,47.2c17.1,0,33.2,8.2,43.3,22l5.2-5.2c-11.5-15.2-29.4-24.2-48.5-24.2
		C78,39.7,50.8,66.9,50.8,100c0,33.5,27.2,60.7,60.8,60.7c19,0,36.9-8.9,48.5-24.2l-5.2-5.2c-10.1,13.8-26.2,22-43.3,22
		c-29.5,0-53.3-23.8-53.3-53.2C58.2,71,82.1,47.2,111.6,47.2L111.6,47.2z M168.6,44.9l-5.2,5.2c1.9,1.9,3.4,3.7,4.9,5.6l5.2-5.2
		C172,48.6,170.5,46.8,168.6,44.9z M31.8,105.2c2.6,42.1,37.3,74.4,79.4,74.4c18.6,0,36.9-6.7,51.1-18.6l-5.2-5.2
		c-13,10.8-29.1,16.4-45.9,16.4c-38,0-69.4-29.4-72-67L31.8,105.2L31.8,105.2z M163.4,150.2l5.2,5.2c1.9-1.9,3.4-3.7,4.8-5.6
		l-5.2-5.2C166.7,146.5,165.3,148.4,163.4,150.2z M111.6,190.1c-49.6,0-90.2-40.6-90.2-90.1c0-49.5,40.6-90.1,90.2-90.1
		c26.9,0,52.2,11.9,69.4,32.8l5.2-5.2c-18.6-22.3-45.9-35-74.6-35C57.9,2.5,13.9,46,13.9,100c0,53.6,43.6,97.5,97.7,97.5
		c29.1,0,55.9-12.7,74.6-35l-5.2-5.2C163.8,178.5,138.4,190.1,111.6,190.1L111.6,190.1z"/>
</g>
</svg>
