<svg xmlns="http://www.w3.org/2000/svg" xml:space="preserve" viewBox="0 0 200 200"><path fill="#493df6" d="M167.3 6.1c-14.3 0-26 11.7-26 26 0 6.1 2.1 11.8 5.7 16.2l-10.6 11.5C122.6 47.1 104.2 39.4 84 39.4 41.3 39.4 6.7 74 6.7 116.7S41.3 194 84 194s77.3-34.6 77.3-77.3c0-19.6-7.3-37.6-19.4-51.2l10.9-11.8c4.1 2.8 9.1 4.4 14.4 4.4 14.3 0 26-11.7 26-26s-11.6-26-25.9-26zm-18 110.5c0 36-29.3 65.3-65.3 65.3s-65.3-29.3-65.3-65.3S48 51.3 84 51.3s65.3 29.3 65.3 65.3zm18-68.5c-8.8 0-16-7.2-16-16s7.2-16 16-16 16 7.2 16 16-7.2 16-16 16z"/></svg>