<?xml version="1.0" encoding="utf-8"?>
<!-- Generator: Adobe Illustrator 16.0.0, SVG Export Plug-In . SVG Version: 6.00 Build 0)  -->
<!DOCTYPE svg PUBLIC "-//W3C//DTD SVG 1.1//EN" "http://www.w3.org/Graphics/SVG/1.1/DTD/svg11.dtd">
<svg version="1.1" id="Livello_1" xmlns="http://www.w3.org/2000/svg" xmlns:xlink="http://www.w3.org/1999/xlink" x="0px" y="0px"
	 width="198px" height="197.453px" viewBox="0 0 198 197.453" enable-background="new 0 0 198 197.453" xml:space="preserve">
<title>Group</title>
<desc>Created using Figma</desc>
<g id="Canvas" transform="translate(274 110)">
	<g id="Group_2_">
		<g id="Group_1_">
			<g id="Group">
				<g id="Ellipse">
					<g transform="translate(-274 -110)">
						<path id="path0_fill" fill="#2D9CDB" d="M189,97c0,49.707-40.294,90-90,90S9,146.707,9,97C9,47.294,49.294,7,99,7
							S189,47.294,189,97z"/>
					</g>
				</g>
				<g id="d">
					<g transform="translate(-286 -103)">
						<path id="path1_fill" fill="#FFFFFF" d="M128.803,35.536c2.208,0,3.984,0.672,5.328,2.016c1.344,1.344,2.016,3.12,2.016,5.328
							v65.665c0,7.488-1.775,14.304-5.328,20.447c-3.455,6.049-8.207,10.848-14.256,14.4c-5.952,3.455-12.624,5.184-20.016,5.184
							s-14.16-1.729-20.304-5.184c-6.048-3.553-10.8-8.354-14.256-14.4c-3.456-6.145-5.184-12.959-5.184-20.447
							c0-7.487,1.584-14.256,4.752-20.304c3.264-6.144,7.68-10.944,13.248-14.4c5.664-3.456,11.952-5.184,18.864-5.184
							c5.568,0,10.752,1.152,15.552,3.456c4.801,2.304,8.881,5.52,12.24,9.648V42.88c0-2.208,0.672-3.984,2.016-5.328
							C124.915,36.208,126.691,35.536,128.803,35.536z M96.547,135.617c4.8,0,9.12-1.152,12.96-3.457
							c3.937-2.4,7.009-5.664,9.216-9.791c2.209-4.129,3.312-8.736,3.312-13.824s-1.104-9.647-3.312-13.68
							c-2.207-4.129-5.279-7.345-9.216-9.649c-3.84-2.4-8.16-3.6-12.96-3.6c-4.8,0-9.168,1.2-13.104,3.6
							c-3.84,2.304-6.912,5.52-9.216,9.649c-2.208,4.031-3.312,8.592-3.312,13.68s1.104,9.695,3.312,13.824
							c2.304,4.127,5.376,7.391,9.216,9.791C87.379,134.464,91.747,135.617,96.547,135.617z"/>
					</g>
				</g>
			</g>
		</g>
	</g>
</g>
</svg>
