<?xml version="1.0" encoding="utf-8"?>
<!-- Generator: Adobe Illustrator 22.1.0, SVG Export Plug-In . SVG Version: 6.00 Build 0)  -->
<svg version="1.1" id="Livello_1" xmlns="http://www.w3.org/2000/svg" xmlns:xlink="http://www.w3.org/1999/xlink" x="0px" y="0px"
	 viewBox="0 0 200 200" style="enable-background:new 0 0 200 200;" xml:space="preserve">
<style type="text/css">
	.st0{fill:#18CFD7;fill-opacity:0.6;}
	.st1{fill:#055FFE;fill-opacity:0.8;}
	.st2{fill:#0032B6;fill-opacity:0.8;}
	.st3{fill:#0032B6;fill-opacity:0.6;}
	.st4{fill:#055FFE;fill-opacity:0.6;}
	.st5{fill:#3EF7F4;fill-opacity:0.4;}
	.st6{fill:#2A99A5;fill-opacity:0.6;}
	.st7{filter:url(#Adobe_OpacityMaskFilter);}
	.st8{fill:#FFFFFF;}
	.st9{mask:url(#mask-2_1_);fill:#2A99A5;fill-opacity:0.6;}
	.st10{fill:#26CFCE;fill-opacity:0.6;}
	.st11{filter:url(#Adobe_OpacityMaskFilter_1_);}
	.st12{mask:url(#mask-4_1_);fill:#26CFCE;fill-opacity:0.6;}
	.st13{fill:#0969EF;fill-opacity:0.8;}
	.st14{fill:#0645BF;}
</style>
<g id="Artboard">
	<g id="Group-2">
		<g id="Group">
			<path id="Fill-1" class="st0" d="M102.4,51.4h-4.2c-4.2,0-7.6-3.4-7.6-7.6v-4.2c0-4.2,3.4-7.6,7.6-7.6h4.2c4.2,0,7.6,3.4,7.6,7.6
				v4.2C109.9,48,106.5,51.4,102.4,51.4z"/>
			<path id="Fill-3" class="st0" d="M102.4,168.5h-4.2c-4.2,0-7.6-3.4-7.6-7.6v-4.2c0-4.2,3.4-7.6,7.6-7.6h4.2
				c4.2,0,7.6,3.4,7.6,7.6v4.2C109.9,165.1,106.5,168.5,102.4,168.5"/>
			<path id="Fill-5" class="st0" d="M160.5,109.5h-4.2c-4.2,0-7.6-3.4-7.6-7.6v-4.2c0-4.2,3.4-7.6,7.6-7.6h4.2
				c4.2,0,7.6,3.4,7.6,7.6v4.2C168,106.1,164.7,109.5,160.5,109.5"/>
			<path id="Fill-7" class="st0" d="M44.2,109.5H40c-4.2,0-7.6-3.4-7.6-7.6v-4.2c0-4.2,3.4-7.6,7.6-7.6h4.2c4.2,0,7.6,3.4,7.6,7.6
				v4.2C51.8,106.1,48.4,109.5,44.2,109.5"/>
			<path id="Fill-9" class="st1" d="M125,176.4c-1.3-3.2,0.2-6.9,3.4-8.2c3.2-1.3,6.9,0.2,8.2,3.4c1.3,3.2-0.2,6.9-3.4,8.2
				C130,181.2,126.3,179.6,125,176.4"/>
			<path id="Fill-11" class="st1" d="M63.9,28.9c-1.3-3.2,0.2-6.9,3.4-8.2c3.2-1.3,6.9,0.2,8.2,3.4c1.3,3.2-0.2,6.9-3.4,8.2
				C68.9,33.6,65.2,32.1,63.9,28.9"/>
			<path id="Fill-13" class="st2" d="M176.4,75.5c-3.2,1.3-6.9-0.2-8.2-3.4c-1.3-3.2,0.2-6.9,3.4-8.2c3.2-1.3,6.9,0.2,8.2,3.4
				C181.2,70.5,179.6,74.2,176.4,75.5"/>
			<path id="Fill-15" class="st2" d="M28.9,136.6c-3.2,1.3-6.9-0.2-8.2-3.4c-1.3-3.2,0.2-6.9,3.4-8.2c3.2-1.3,6.9,0.2,8.2,3.4
				C33.6,131.6,32.1,135.3,28.9,136.6"/>
			<path id="Fill-17" class="st3" d="M171.6,136.6c-3.2-1.3-4.7-5-3.4-8.2c1.3-3.2,5-4.7,8.2-3.4c3.2,1.3,4.7,5,3.4,8.2
				C178.5,136.4,174.8,138,171.6,136.6"/>
			<path id="Fill-19" class="st3" d="M24.1,75.5c-3.2-1.3-4.7-5-3.4-8.2c1.3-3.2,5-4.7,8.2-3.4c3.2,1.3,4.7,5,3.4,8.2
				C31,75.3,27.3,76.8,24.1,75.5"/>
			<path id="Fill-21" class="st4" d="M136.6,28.9c-1.3,3.2-5,4.7-8.2,3.4c-3.2-1.3-4.7-5-3.4-8.2c1.3-3.2,5-4.7,8.2-3.4
				C136.4,22,138,25.7,136.6,28.9"/>
			<path id="Fill-23" class="st4" d="M75.5,176.4c-1.3,3.2-5,4.7-8.2,3.4c-3.2-1.3-4.7-5-3.4-8.2c1.3-3.2,5-4.7,8.2-3.4
				C75.3,169.5,76.8,173.2,75.5,176.4"/>
			<path id="Fill-25" class="st5" d="M163.3,168.3c-1.4-1.4-1.4-3.6,0-5c1.4-1.4,3.6-1.4,5,0c1.4,1.4,1.4,3.6,0,5
				C166.9,169.7,164.7,169.7,163.3,168.3"/>
			<path id="Fill-27" class="st5" d="M32.2,37.2c-1.4-1.4-1.4-3.6,0-5c1.4-1.4,3.6-1.4,5,0c1.4,1.4,1.4,3.6,0,5
				C35.8,38.6,33.6,38.6,32.2,37.2"/>
			<path id="Fill-29" class="st5" d="M168.3,37.2c-1.4,1.4-3.6,1.4-5,0c-1.4-1.4-1.4-3.6,0-5c1.4-1.4,3.6-1.4,5,0
				C169.7,33.6,169.7,35.8,168.3,37.2"/>
			<path id="Fill-31" class="st5" d="M37.2,168.3c-1.4,1.4-3.6,1.4-5,0c-1.4-1.4-1.4-3.6,0-5c1.4-1.4,3.6-1.4,5,0
				C38.6,164.7,38.6,166.9,37.2,168.3"/>
			<path id="Fill-33" class="st6" d="M192.9,103.8c-2,0-3.6-1.6-3.6-3.6c0-2,1.6-3.6,3.6-3.6c2,0,3.6,1.6,3.6,3.6
				C196.5,102.2,194.9,103.8,192.9,103.8"/>
			<g id="Group-37" transform="translate(0.000000, 47.294700)">
				<g id="Clip-36">
				</g>
				<defs>
					<filter id="Adobe_OpacityMaskFilter" filterUnits="userSpaceOnUse" x="4" y="49.4" width="7.1" height="7.1">
						<feColorMatrix  type="matrix" values="1 0 0 0 0  0 1 0 0 0  0 0 1 0 0  0 0 0 1 0"/>
					</filter>
				</defs>
				<mask maskUnits="userSpaceOnUse" x="4" y="49.4" width="7.1" height="7.1" id="mask-2_1_">
					<g class="st7">
						<polygon id="path-1_1_" class="st8" points="4,56.5 4,49.4 11.1,49.4 11.1,56.5 						"/>
					</g>
				</mask>
				<path id="Fill-35" class="st9" d="M7.6,56.5c-2,0-3.6-1.6-3.6-3.6c0-2,1.6-3.6,3.6-3.6s3.6,1.6,3.6,3.6
					C11.1,54.9,9.5,56.5,7.6,56.5"/>
			</g>
			<path id="Fill-38" class="st10" d="M103.8,7.6c0,2-1.6,3.6-3.6,3.6c-2,0-3.6-1.6-3.6-3.6S98.3,4,100.3,4
				C102.2,4,103.8,5.6,103.8,7.6"/>
			<g id="Group-42" transform="translate(47.000000, 95.294700)">
				<g id="Clip-41">
				</g>
				<defs>
					<filter id="Adobe_OpacityMaskFilter_1_" filterUnits="userSpaceOnUse" x="49.7" y="94.1" width="7.1" height="7.1">
						<feColorMatrix  type="matrix" values="1 0 0 0 0  0 1 0 0 0  0 0 1 0 0  0 0 0 1 0"/>
					</filter>
				</defs>
				<mask maskUnits="userSpaceOnUse" x="49.7" y="94.1" width="7.1" height="7.1" id="mask-4_1_">
					<g class="st11">
						<polygon id="path-3_1_" class="st8" points="56.8,101.2 49.7,101.2 49.7,94.1 56.8,94.1 						"/>
					</g>
				</mask>
				<path id="Fill-40" class="st12" d="M56.8,97.6c0,2-1.6,3.6-3.6,3.6c-2,0-3.6-1.6-3.6-3.6s1.6-3.6,3.6-3.6
					C55.2,94.1,56.8,95.7,56.8,97.6"/>
			</g>
			<path id="Fill-43" class="st13" d="M142.2,69.4h-12.1V57.3c0-4.2,3.4-7.6,7.6-7.6h4.5c4.2,0,7.6,3.4,7.6,7.6v4.5
				C149.8,66,146.4,69.4,142.2,69.4"/>
			<path id="Fill-45" class="st13" d="M71.6,69.4H59.5c-4.2,0-7.6-3.4-7.6-7.6v-4.5c0-4.2,3.4-7.6,7.6-7.6H64c4.2,0,7.6,3.4,7.6,7.6
				V69.4z"/>
			<path id="Fill-47" class="st13" d="M64,148.8h-4.5c-4.2,0-7.6-3.4-7.6-7.6v-4.5c0-4.2,3.4-7.6,7.6-7.6h12.1v12.1
				C71.6,145.5,68.2,148.8,64,148.8"/>
			<path id="Fill-49" class="st13" d="M142.2,148.9h-4.5c-4.2,0-7.6-3.4-7.6-7.6v-12.1h12.1c4.2,0,7.6,3.4,7.6,7.6v4.5
				C149.8,145.5,146.4,148.9,142.2,148.9"/>
			<path id="Fill-51" class="st14" d="M119.7,89.5h5c3,0,5.4-2.4,5.4-5.4V69.4h-14.9c-3,0-5.4,2.4-5.4,5.4v4.8
				c0,5.4-4.1,10.1-9.6,10.1s-10.1-4.7-10.1-10.1v-5c0-2.9-2.3-5.2-5.2-5.2H71.7v59.9h13.3c2.9,0,5.3-2.4,5.3-5.3v-4.5
				c0-5.7,4.2-10.5,9.6-10.5v0c5.4,0,10,4.6,10,10v5c0,3,2.4,5.4,5.4,5.4h14.9v-14.8c0-3-2.4-5.4-5.4-5.4h-4.5
				c-5.4,0-10.5-4.4-10.5-9.8h0C109.9,93.8,114.3,89.5,119.7,89.5"/>
		</g>
	</g>
</g>
</svg>
