<?xml version="1.0" encoding="utf-8"?>
<!-- Generator: Adobe Illustrator 23.0.1, SVG Export Plug-In . SVG Version: 6.00 Build 0)  -->
<svg version="1.1" id="Livello_1" xmlns="http://www.w3.org/2000/svg" xmlns:xlink="http://www.w3.org/1999/xlink" x="0px" y="0px"
	 viewBox="0 0 200 200" style="enable-background:new 0 0 200 200;" xml:space="preserve">
<style type="text/css">
	.st0{fill:url(#SVGID_1_);}
</style>
<linearGradient id="SVGID_1_" gradientUnits="userSpaceOnUse" x1="43.0039" y1="163.1928" x2="126.8755" y2="54.424" gradientTransform="matrix(1 0 0 -1 0 200)">
	<stop  offset="8.000000e-02" style="stop-color:#4D8BC9"/>
	<stop  offset="0.36" style="stop-color:#478BCA"/>
	<stop  offset="0.67" style="stop-color:#3375BB"/>
	<stop  offset="0.82" style="stop-color:#3374BA"/>
	<stop  offset="0.87" style="stop-color:#3370B7"/>
	<stop  offset="0.91" style="stop-color:#326AB3"/>
	<stop  offset="0.94" style="stop-color:#3061AD"/>
	<stop  offset="0.96" style="stop-color:#2F5AA8"/>
</linearGradient>
<path class="st0" d="M187.8,66.4c-6.2-15.5-16.2-28-28.8-38.5c-6.7-5.5-14.2-10-22.4-13.1c-9.1-3.5-18.3-6-28.2-5.9
	c-15.9,0.1-31.7,0-47.7,0H8.2c-3.1,0-4.5,1.5-4.5,4.5c0,3.1,1.4,4.6,4.4,4.6h67.6c3.9,0,5.2,1.2,5,4.5c-0.2,2.7-1.4,3.6-5,3.6H26.9
	c-2.9,0-4.4,1.5-4.4,4.4c0,3.2,1.4,4.7,4.3,4.7h46.3c3.7,0,5,1.2,4.8,4.4c-0.1,2.8-1.3,3.7-4.9,3.7H19.1c-1,0-2.1,0.2-3,0.7
	c-2.3,1.3-2.2,3.7-1.6,5.7c0.5,1.9,2.3,2.8,4.6,2.8c15.2-0.1,30.5-0.1,45.7,0c3.6,0,4.8,0.9,4.9,3.7c0.1,3.2-1.1,4.4-4.8,4.4H27
	c-1,0-2.1,0.3-2.9,0.8c-2.3,1.4-2,3.8-1.5,5.8c0.5,1.7,2.2,2.6,4.4,2.6c17-0.1,34.1-0.1,51.2,0c3.6,0,4.9,0.9,5,3.6
	c0.2,3.3-1.1,4.5-5,4.5H32.4c-1,0-2.1,0.2-3,0.7c-2.3,1.3-2.1,3.8-1.6,5.7c0.6,1.9,2.3,2.7,4.6,2.7c14.3-0.1,28.7-0.1,43,0
	c3.6,0,4.8,1,4.9,3.8c0.1,3.2-1.1,4.3-4.9,4.3H26.7c-0.9,0-2,0.2-2.7,0.6c-2.4,1.4-2.3,3.9-1.6,5.9c0.6,1.7,2.3,2.6,4.5,2.6
	c23-0.1,46.2,0,69.2,0c0.8,0,1.6-0.1,2.4,0c2.3,0.4,3.6,1.6,3.4,4.1c-0.2,2.9-1.3,3.9-5,3.9H18.8c-1.1,0-2.2,0.4-3.1,0.9
	c-2.2,1.3-1.9,3.7-1.3,5.5c0.5,1.8,2.1,2.7,4.4,2.7c18.2-0.1,36.4-0.1,54.7-0.1c0.9,0,1.8,0,2.6,0.3c1.9,0.7,3.1,2.3,2.7,4.4
	c-0.4,2.4-2.1,3.5-4.6,3.5H24.1c-2.9,0-4.4,1.5-4.5,4.3c0,3.5,1.3,4.8,4.8,4.8h32.3c3.5,0,4.7,0.9,4.9,3.5c0.3,3.2-1,4.6-4.6,4.6
	H33.6c-3.2,0-4.8,1.5-4.9,4.5c0,3,1.6,4.6,4.8,4.6h44.1c0.9,0,1.8,0.1,2.7,0.2c2.6,0.5,2.9,2.4,2.8,4.6c-0.2,2.3-1.6,2.8-3.7,2.7
	c-16.3-0.1-32.6,0-49,0c-1,0-2,0-2.9,0.4c-2.2,0.8-3.2,2.9-2.6,5.8c0.5,2.4,2.1,3.5,4.6,3.5h41.1c3.2,0,4.3,1.1,4.2,4
	c-0.1,2.4-1.3,3.5-4.2,3.5c-11,0-22,0-33.1,0.1c-1.2,0-2.6,0.4-3.5,1.2c-1.5,1.3-2.3,3.2-1.3,5.3c1,2.2,2.6,3.2,5.2,3.2
	c22-0.1,43.9-0.2,66,0c7,0.1,13.8-0.6,20.5-2.4c15.4-4,29.2-11.3,40.5-22.6c5.5-5.5,10.6-11.7,14.9-18.2
	c7.6-11.3,12.2-24.4,13.2-37.9C194.5,94.6,193.4,80.3,187.8,66.4z M102.6,35.1h37.9c3.2,0,4.8,1.5,4.7,4.2c0,2.5-1.7,4-4.7,4h-37.9
	c-3.1,0-5-1.6-5-4C97.6,36.8,99.5,35.2,102.6,35.1z M92.3,60.2c-2.6,0-4.6-1.7-4.7-3.8c-0.1-2.2,1.9-4,4.7-4.1h23.3
	c12.1,0,24.2,0.1,36.2,0c2,0,3.8,0.6,4.1,2.6c0.2,1.3-0.2,3.1-1,4.1c-0.7,0.8-2.4,1-3.6,1c-9.8,0.1-19.5,0-29.3,0v0.1
	C112.1,60.2,102.2,60.2,92.3,60.2z M98.4,73.7c0.3-2.2,1.8-3.4,3.8-4c0.4-0.1,0.9,0,1.3,0c19.5,0,39,0,58.6-0.1
	c1.9,0,3.8,0.3,4.4,2.3c0.4,1.3,0.4,3.3-0.4,4.2c-0.8,1-2.7,1.7-4.1,1.7c-9.8,0.2-19.5,0.1-29.3,0.1v-0.1h-30.4
	C100.4,77.5,98.2,75.3,98.4,73.7z M90.3,142.7c-0.1-2.6,1.5-4.2,4.3-4.2h38.9c3,0,4.4,1.3,4.4,4.1c0,2.8-1.3,4.1-4.4,4.1H94.6
	C91.8,146.7,90.3,145.2,90.3,142.7L90.3,142.7z M140.2,163.6H102c-2.5-0.3-4.6-2.1-4.6-4.1c0-2.2,2.1-4,4.8-4h37.9
	c3,0,4.8,1.5,4.9,3.9C145.3,161.7,143.2,163.6,140.2,163.6L140.2,163.6z M160,129.4h-58.3c-3.2,0-5.2-1.7-5.1-4.2
	c0.1-2.4,2.1-3.9,5.1-3.9h58.4c3.3,0,5.2,1.6,5.1,4.2C165,127.9,163.1,129.4,160,129.4L160,129.4z M161.9,112.3
	c-6.4,0.1-12.7,0-19.1,0v0.1h-18.3c-3.6,0-5.4-1.5-5.4-4.1s2-4.2,5.5-4.2c8.8,0,17.7,0.2,26.5,0.3h10.7c3,0,4.8,1.6,4.8,4
	C166.7,110.7,164.9,112.3,161.9,112.3L161.9,112.3z M168.9,94.9c-0.5,0.1-1.1,0.1-1.6,0.1c-19.4,0-38.7-0.1-58.1,0.1
	c-3,0-5.4-2.4-5.4-4.1c-0.1-2.1,2.5-4.1,5.4-4.1h58.7c2.6,0,4.7,1.7,4.6,3.9C172.3,92.9,171.1,94.4,168.9,94.9z"/>
</svg>
