<?xml version="1.0" encoding="utf-8"?>
<!-- Generator: Adobe Illustrator 23.1.0, SVG Export Plug-In . SVG Version: 6.00 Build 0)  -->
<svg version="1.0" id="Livello_1" xmlns="http://www.w3.org/2000/svg" xmlns:xlink="http://www.w3.org/1999/xlink" x="0px" y="0px"
	 viewBox="0 0 200 200" style="enable-background:new 0 0 200 200;" xml:space="preserve">
<style type="text/css">
	.st0{fill:#569AEF;}
</style>
<g>
	<path class="st0" d="M163.4,133.8c0,1.7-0.9,3.3-2.4,4.2l-52.3,30.2v-39.5C120.5,125,129,114,129,101c0-16-13-29-29-29
		s-29,13-29,29c0,12.6,8,23.3,19.3,27.3v39.3L39,138c-1.5-0.9-2.4-2.5-2.4-4.2V111H17.7v26.5c0,6.2,3.3,11.9,8.7,15L91.3,190
		c2.7,1.5,5.7,2.3,8.7,2.3s6-0.8,8.7-2.3l64.9-37.5c5.4-3.1,8.7-8.8,8.7-15V111h-18.8V133.8z M100,88.5c6.9,0,12.5,5.6,12.5,12.5
		s-5.6,12.5-12.5,12.5s-12.5-5.6-12.5-12.5S93.1,88.5,100,88.5z"/>
	<path class="st0" d="M173.6,47.5L108.7,10C106,8.5,103,7.7,100,7.7s-6,0.8-8.7,2.3L26.4,47.5c-5.4,3.1-8.7,8.8-8.7,15V82h18.8V66.2
		c0-1.7,0.9-3.3,2.4-4.2l58.6-33.8c0.7-0.4,1.6-0.6,2.4-0.6s1.7,0.2,2.4,0.6L161,62c1.5,0.9,2.4,2.5,2.4,4.2V82h18.8V62.5
		C182.3,56.3,179,50.6,173.6,47.5z"/>
</g>
</svg>
