<svg xmlns="http://www.w3.org/2000/svg" viewBox="0 0 200 200"><path fill="#4075ba" d="M176.3 50l-28.7 28.5c2.1 6.8 3.1 14 3.1 21.5 0 17.4-5.8 33.6-16.3 45.6-9.5 10.8-21.7 16.7-34.5 16.7-9.5 0-18.8-3.3-26.8-9.5-1.6-1.2-3.1-2.5-4.6-4l76.9-76.5 27.9-27.7c-4.7-7.9-10.3-15.1-16.7-21.2-1.5-1.4-3-2.7-4.5-4C137.5 7.2 119.5 0 100 0 51.3 0 11.9 44.8 11.9 100c0 17.4 3.9 33.8 10.9 48.1l29-28.8c-1.6-6.1-2.5-12.6-2.5-19.3 0-17.4 5.8-33.6 16.3-45.6C75 43.7 87.2 37.8 100 37.8c8.9 0 17.6 2.9 25.2 8.3 1.6 1.1 3.2 2.4 4.7 3.8l-76.2 75.9-28.1 28c4.5 8.1 10 15.3 16.3 21.6 1.4 1.4 2.9 2.8 4.4 4.1 15 12.8 33.5 20.5 53.7 20.5 48.7 0 88.1-44.8 88.1-100 0-18.2-4.2-35.3-11.8-50z"/></svg>