<?xml version="1.0" encoding="utf-8"?>
<!-- Generator: Adobe Illustrator 22.1.0, SVG Export Plug-In . SVG Version: 6.00 Build 0)  -->
<svg version="1.0" id="svg" xmlns="http://www.w3.org/2000/svg" xmlns:xlink="http://www.w3.org/1999/xlink" x="0px" y="0px"
	 viewBox="0 0 400 400" enable-background="new 0 0 400 400" xml:space="preserve">
<path id="path2" fill="#01FFFF" d="M188.6,23.2c-4.7,0.4-10.3,1.1-13.6,1.6c-7.1,1.2-10.4,1.8-12.4,2.4c-0.7,0.2-2.8,0.7-4.8,1.2
	c-2,0.5-3.9,1-4.3,1.2c-0.4,0.2-1,0.4-1.5,0.4c-0.4,0-0.9,0.2-1,0.4c-0.1,0.2-0.6,0.4-1.1,0.4s-2.1,0.5-3.7,1
	c-1.5,0.6-3.6,1.3-4.6,1.6c-1,0.3-2.3,0.8-3,1.1c-0.7,0.3-3.3,1.4-5.8,2.5c-2.5,1.1-4.7,2.1-4.7,2.2c-0.1,0.2-0.4,0.3-0.7,0.3
	c-0.3,0-1.6,0.5-2.8,1.2c-1.2,0.7-2.4,1.2-2.6,1.2c-0.2,0-1.2,0.5-2.1,1.2s-1.9,1.2-2.1,1.2c-0.2,0-1.8,0.9-3.7,2
	c-1.8,1.1-3.5,2-3.7,2s-0.4,0.1-0.4,0.3c0,0.2-0.5,0.6-1.1,0.9c-1.2,0.6-8.2,5.2-8.5,5.5c-0.1,0.1-1.3,1-2.6,1.8
	c-1.3,0.9-2.4,1.8-2.5,2.1c-0.1,0.3-0.4,0.5-0.5,0.5c-0.4,0-0.3-0.1-5.6,4.3C85,67.3,72.8,79.3,70.1,82.5c-0.9,1.1-2.2,2.6-2.7,3.3
	c-1.8,2-8,10.3-9.9,13.1c-0.3,0.4-0.8,1.1-1.2,1.6c-0.9,1.1-4.7,7.4-4.7,7.7c0,0.1-0.3,0.7-0.8,1.3c-1.9,2.6-8.3,15.4-10,19.9
	c-0.7,1.8-2.1,5.2-2.5,5.9c-0.2,0.4-0.4,1-0.4,1.4c0,0.4-0.1,0.9-0.3,1c-0.4,0.4-2.3,5.7-3.3,9.5c-0.3,1-0.7,2.3-0.9,2.8
	c-0.5,1.3-2.3,8.9-2.7,11.2c-0.2,1-0.6,3.2-1,4.8c-2.2,10.4-3.3,27.4-2.7,39.6c0.7,13.7,2,22.3,5.3,36.2c0.2,0.9,0.5,2.1,0.6,2.7
	c0.1,0.6,0.4,1.2,0.6,1.3c0.2,0.1,0.4,0.5,0.4,0.9c0,0.7,2.8,9.8,3.6,11.4c0.2,0.4,0.6,1.4,0.8,2.2c0.5,1.6,1.4,3.6,2.2,5.4
	c0.3,0.6,0.6,1.3,0.6,1.5s0.9,2.2,2,4.4c1.1,2.2,2.4,5.1,3.1,6.4c0.6,1.3,1.2,2.4,1.4,2.5c0.2,0.1,0.8,1.2,1.4,2.4
	c6.3,12.9,21.8,32.5,35.2,44.6c2.4,2.1,9.4,8,11,9.2c0.7,0.6,1.8,1.4,2.4,1.8c1.3,1.1,13.8,9.4,15.8,10.6c0.9,0.5,3,1.6,4.8,2.5
	c1.8,0.9,3.3,1.7,3.4,1.8c0.1,0.1,0.7,0.4,1.2,0.7c7.6,3.6,9.7,4.5,10.2,4.5c0.3,0,0.6,0.2,0.6,0.4s0.3,0.4,0.6,0.4
	c0.3,0,0.9,0.2,1.3,0.4c1.3,0.7,3.7,1.6,6.1,2.4c0.8,0.3,1.8,0.6,2.2,0.8c1.6,0.7,8.3,2.8,9,2.8c0.4,0,0.8,0.1,1,0.3
	c0.3,0.3,4.6,1.5,7.6,2.1c0.9,0.2,3.4,0.7,5.6,1.2c2.2,0.5,4.1,0.8,4.2,0.7c0.1-0.1,0.4,0,0.6,0.1c0.4,0.3,2,0.6,10,1.6
	c10.5,1.4,31.2,1.4,40.4,0.1c1.3-0.2,4-0.6,6-0.8c3.9-0.5,7.3-1.1,12.8-2.4c3.4-0.7,4.5-1,8-2c0.8-0.2,2-0.6,2.7-0.8
	c2-0.6,5.6-1.7,6.5-2.1c0.4-0.2,2-0.7,3.4-1.2s3.4-1.2,4.3-1.6c0.9-0.4,1.9-0.8,2.1-0.8c0.2,0,1.1-0.4,2.1-0.9c1-0.5,2.1-1,2.5-1.2
	c0.4-0.2,2.4-1.1,4.3-1.9c1.9-0.9,3.7-1.6,3.9-1.6c0.2,0,0.4-0.1,0.5-0.3c0.1-0.2,1.1-0.8,2.3-1.4c4-2,9.2-5,11.8-6.7
	c0.9-0.6,2.3-1.5,3.2-2c8.2-4.6,34-27.2,35.4-30.9c0.1-0.2,0.8-1,1.5-1.8c0.8-0.8,1.9-2.1,2.5-2.9c0.6-0.8,1.2-1.5,1.3-1.6
	c0.7-0.7,3.7-4.5,4.8-6.2c0.7-1.1,1.5-2.1,1.6-2.2c0.3-0.2,4.6-6.7,5.4-8.2c0.2-0.4,1.4-2.3,2.5-4.2c2.1-3.5,9.2-17.6,9.2-18.3
	c0-0.2,0.3-0.9,0.6-1.5c0.3-0.6,0.8-1.8,1.2-2.6c0.3-0.8,1-2.3,1.4-3.3c0.5-1,0.8-2.2,0.8-2.6c0-0.4,0.1-0.9,0.3-1.1
	c0.2-0.2,0.6-1.2,0.8-2.2c0.3-1,0.7-2.1,0.9-2.5c0.2-0.4,0.4-1,0.4-1.4s0.2-0.9,0.3-1.1c0.2-0.2,0.7-2,1.2-4c0.5-2,1-4,1.2-4.4
	c0.8-2.1,3.3-15.2,4-21.2c0.2-2.2,0.6-5.5,0.9-7.3c0.5-4.4,0.5-24.8,0-29.9c-1.4-13.4-2.5-19.9-5.5-31.4c-0.7-2.8-4.1-13.3-4.8-15
	c-0.2-0.4-1-2.5-1.8-4.6c-5-12.6-14.7-29.6-23-40.3c-1.1-1.4-2.5-3.2-3.1-4c-5.4-6.9-18.2-19.8-25.6-25.7c-2.9-2.3-7.5-5.6-7.8-5.6
	c-0.2,0-0.4-0.2-0.4-0.4c0-0.6-13.5-9.3-18-11.6c-1-0.5-2.1-1.1-2.4-1.3c-4.2-2.4-15.5-7.4-20.4-9.2c-1.4-0.5-2.8-1.1-3-1.3
	c-0.2-0.2-0.7-0.3-1.1-0.3c-0.4,0-1-0.2-1.4-0.4c-0.7-0.3-3.1-1.1-9.1-2.9c-1.5-0.4-3.4-1-4-1.2c-0.7-0.2-1.6-0.4-2.1-0.4
	c-0.5,0-1.2-0.2-1.6-0.4c-0.4-0.2-1.4-0.4-2.3-0.5c-0.9-0.1-1.8-0.2-2.2-0.4c-0.7-0.4-6.7-1.4-11.2-2c-1.6-0.2-4.4-0.6-6.2-0.8
	C215.5,23,193.6,22.8,188.6,23.2 M221.8,38.6c6.4,0.9,9.9,1.5,15,2.6c3.4,0.7,7.4,1.7,8.2,2c0.4,0.2,1.5,0.5,2.4,0.8
	c3.7,1,9.6,3,10,3.3c0.2,0.2,0.8,0.4,1.3,0.4c0.5,0,1,0.2,1.1,0.4c0.1,0.2,0.5,0.4,0.8,0.4c0.3,0,2,0.6,3.7,1.4
	c1.7,0.8,4.1,1.9,5.3,2.4c1.2,0.5,2.5,1.2,2.9,1.4s2.5,1.3,4.6,2.4c2.1,1.1,4.4,2.3,4.9,2.7c0.5,0.4,1.9,1.1,2.9,1.7
	c1,0.5,1.9,1.1,1.9,1.3c0,0.2,0.2,0.3,0.4,0.3c0.7,0,15.3,10.3,16.4,11.6c0.1,0.1,2.1,1.9,4.4,3.9c5.6,4.8,13.2,12.8,18.3,18.9
	c4.3,5.2,4.8,5.9,5.5,6.9c0.2,0.3,1.7,2.5,3.2,4.8c2.6,3.7,6.2,9.5,6.2,9.8c0,0.1,0.7,1.3,1.5,2.7c1.4,2.3,4.7,8.9,6.2,12.3
	c0.3,0.8,0.9,2.1,1.3,3c0.4,0.9,0.9,2,1,2.5c0.2,0.5,0.6,1.4,0.8,2c0.2,0.6,0.6,1.5,0.8,2c0.2,0.5,0.5,1.3,0.7,1.8
	c0.2,0.5,0.8,2.3,1.2,3.9c0.5,1.6,1,3.3,1.1,3.6c0.4,0.9,1.7,5.7,2.1,7.2c5,20.9,6,40.2,3.3,61.2c-0.7,5.4-3,17-3.7,18.1
	c-0.2,0.4-0.4,1-0.4,1.5c0,0.4-0.2,1.2-0.4,1.7c-0.2,0.5-0.6,1.7-0.9,2.7c-0.6,2.3-1.3,4.2-2.6,8c-1.1,3-1.3,3.6-2.1,5.7
	c-0.3,0.6-0.6,1.5-0.8,2c-1.5,3.6-6.4,13.7-8.4,16.9c-0.4,0.7-1.3,2.2-2,3.5c-0.7,1.3-2.4,3.9-3.8,6c-1.4,2-2.8,4.1-3.1,4.6
	c-0.8,1.2-6.2,8.2-7.1,9.2c-0.4,0.4-1.2,1.4-1.9,2.2c-5.4,6.5-13.3,14.3-20.4,20c-1.5,1.2-3.2,2.6-3.7,3.1c-0.5,0.5-1.1,0.9-1.3,1
	c-0.2,0.1-1.1,0.7-2.1,1.5c-5.5,4-6.7,4.9-7,4.9c-0.1,0-1.5,0.8-2.9,1.7c-5.7,3.7-10.9,6.5-19.3,10.4c-1,0.5-2.1,1-2.4,1.1
	c-0.3,0.2-2.6,1-5,2c-2.4,0.9-4.7,1.8-5.1,2c-0.4,0.2-1,0.4-1.5,0.4c-0.4,0-0.9,0.2-1,0.4c-0.1,0.2-0.7,0.4-1.4,0.4
	s-1.2,0.1-1.4,0.3c-0.4,0.4-3.2,1.3-4.1,1.3c-0.5,0-1,0.2-1.1,0.4c-0.1,0.2-0.8,0.4-1.5,0.6c-0.7,0.1-3,0.6-5.1,1.1
	c-14.1,3.2-25.1,4.3-40,3.9c-12.8-0.3-21.8-1.5-33.8-4.3c-0.9-0.2-2.3-0.5-3.1-0.6c-0.8-0.1-1.5-0.4-1.5-0.6s-0.3-0.4-0.7-0.4
	c-0.6,0-7.7-2.1-9.5-2.8c-0.4-0.2-2.8-1.1-5.2-2c-4.3-1.7-8.1-3.3-11.1-4.8c-0.8-0.4-1.8-0.8-2.1-0.8c-0.3,0-0.6-0.1-0.6-0.3
	c0-0.2-0.6-0.6-1.4-0.9s-1.4-0.7-1.4-0.8s-0.6-0.5-1.3-0.8c-1.7-0.7-11.9-6.7-12.6-7.4c-0.3-0.3-0.9-0.7-1.3-0.8
	c-0.4-0.1-0.8-0.4-0.8-0.6c0-0.2-0.2-0.4-0.4-0.4c-0.2,0-1.6-0.9-3-2s-2.7-2-3-2s-0.4-0.1-0.5-0.3c-0.1-0.2-2.3-2.1-4.9-4.3
	c-4.4-3.7-17.3-16.3-19.2-18.7c-0.4-0.6-1.9-2.4-3.2-4c-4.4-5.4-7.4-9.4-7.4-9.9c0-0.2-0.1-0.4-0.3-0.5c-0.2-0.1-1.1-1.3-2-2.7
	c-0.9-1.4-1.8-2.8-2-3c-0.2-0.2-0.7-1.1-1.2-2c-1.3-2.4-2.3-4.2-3.6-6.4c-1.5-2.5-6.1-12-6.1-12.6c0-0.2-0.2-0.7-0.4-1.1
	c-0.9-1.7-2-4.3-2-4.9c0-0.4-0.2-0.8-0.4-1c-0.3-0.3-1.6-4.2-4-11.6c-1.5-4.8-3.1-12.1-4.6-21c-2.3-13.9-2.2-34.6,0.1-48.2
	c0.3-2,0.8-4.6,0.9-5.8c0.7-4.7,4.2-17.9,6-22.6c0.2-0.4,0.7-1.9,1.2-3.2c0.9-2.5,4.9-12.1,5.8-13.8c1.3-2.7,4.9-9.3,6.3-11.6
	c0.9-1.4,1.8-3,2-3.4c0.2-0.4,1.3-2.1,2.4-3.8c1.1-1.6,2.2-3.3,2.4-3.7c2.7-4.5,16.6-20.4,22.4-25.5c6.5-5.8,8.2-7.3,11.5-9.7
	c2-1.5,3.9-3,4.3-3.3c1.1-0.9,7.9-5.4,8.1-5.4c0.1,0,1.5-0.9,3.1-1.9c2.6-1.8,18.8-10.1,19.6-10.1c0.3,0,3.5-1.3,4.8-2
	c0.4-0.2,1-0.4,1.3-0.4s1-0.2,1.4-0.4c0.4-0.2,1.2-0.6,1.6-0.8c0.4-0.2,1.1-0.4,1.4-0.4s0.9-0.2,1.3-0.4c0.4-0.2,1.5-0.6,2.5-0.9
	c1-0.3,2-0.7,2.3-0.9c0.3-0.2,0.5-0.3,0.5-0.2c0,0.1,0.6,0,1.3-0.2c3-0.9,11.3-2.8,15.5-3.5c1.4-0.2,3.5-0.6,4.6-0.8
	c2.3-0.4,8.6-1.1,11.8-1.4C195.7,37.5,217.6,38,221.8,38.6 M188.4,73c-5.1,0.6-13.9,2.1-17.4,3.1c-8.5,2.4-11.2,3.3-14.4,4.6
	c-0.7,0.3-1.6,0.6-2,0.8c-4.2,1.6-11.8,5.4-16.2,8c-6.2,3.7-10.8,6.8-10.8,7.3c0,0.2-0.2,0.3-0.4,0.3c-0.3,0-6.3,4.7-8.7,6.9
	c-1.5,1.3-9.6,9.5-10.8,10.9c-2.5,2.8-4.8,5.7-4.8,6c0,0.1-0.9,1.4-1.9,2.7c-5.2,6.7-14.9,23.9-14.9,26.4c0,0.3-0.2,0.7-0.4,0.9
	s-0.4,0.5-0.4,0.8s-0.4,1.3-0.8,2.3c-0.4,0.9-0.8,1.9-0.8,2.2c0,0.3-0.2,0.8-0.4,1.2c-1.3,2.5-3.8,12.7-5.2,20.9
	c-1.7,10.3-2,21.6-0.8,32.5c0.7,6.4,3,19.1,3.7,19.7c0.2,0.2,0.3,0.7,0.3,1.1c0,0.5,0.4,1.8,0.8,3c0.4,1.2,0.8,2.4,0.8,2.7
	c0,0.3,0.3,1.3,0.8,2.2c0.4,0.9,1.2,2.8,1.6,4.1c1.3,3.5,4.3,10.3,5.3,12c0.3,0.4,1.1,2,1.9,3.4c0.8,1.4,1.9,3.3,2.4,4.2
	c1.4,2.4,4.1,6.4,4.5,6.6c0.2,0.1,0.3,0.3,0.3,0.5c0,0.6,6.6,9,9.3,11.9c8.2,8.7,15.1,14.5,24.3,20.7c3.2,2.1,10.2,6.1,10.8,6.1
	c0.2,0,0.3,0.2,0.3,0.4s0.3,0.4,0.7,0.4c0.4,0,1.1,0.4,1.7,0.8c0.6,0.4,1.2,0.8,1.4,0.8c0.2,0,1,0.3,1.6,0.6c3.3,1.6,6,2.7,11.8,4.7
	c0.8,0.3,1.7,0.6,2,0.8c0.3,0.2,1.7,0.5,2.9,0.8c1.3,0.3,2.4,0.7,2.5,0.8c0.1,0.2,0.7,0.3,1.4,0.3c0.6,0,1.6,0.2,2.1,0.4
	c0.8,0.3,1.8,0.5,7.5,1.7c4.5,0.9,15.8,1.9,21,2c10.4,0,22.6-1.4,31.2-3.6c0.9-0.2,2.3-0.6,3.2-0.8c0.9-0.2,2-0.6,2.4-0.7
	c0.4-0.2,1.3-0.4,1.8-0.5c2.7-0.5,11.6-4.1,18.6-7.5c8-3.9,9.1-4.6,19-11.5c8.5-5.9,20.7-18.4,27.1-27.7c1-1.4,1.9-2.6,2.1-2.7
	c0.2-0.1,0.3-0.4,0.3-0.7c0-0.3,0.2-0.6,0.4-0.6s0.4-0.2,0.4-0.4c0-0.2,0.5-1.2,1.2-2.2c0.7-1,1.2-1.9,1.2-2.2
	c0-0.2,0.2-0.4,0.4-0.4c0.2,0,0.5-0.3,0.6-0.7c0.1-0.4,0.9-1.8,1.6-3.2c0.8-1.4,1.4-2.8,1.4-3.1c0-0.3,0.1-0.6,0.3-0.7
	c0.4-0.2,2.8-5.4,5-10.7c0.2-0.6,0.6-1.3,0.8-1.7c0.2-0.4,0.4-1,0.4-1.4s0.1-0.9,0.3-1c0.4-0.4,2.1-5.6,2.1-6.5c0-0.5,0.2-1,0.4-1.1
	c0.2-0.1,0.5-0.8,0.6-1.5c0.1-0.7,0.4-2,0.6-2.9c3-11.6,4.3-31.7,2.9-42.4c-1.7-12.1-4.2-23.7-6.4-28.8c-0.2-0.4-0.9-2.3-1.6-4.2
	c-2-5.3-7.9-17.1-10-20c-0.4-0.6-0.8-1.2-0.8-1.4s-0.7-1.2-1.5-2.3c-0.8-1.2-2.1-3-2.9-4.1c-0.8-1.1-2.1-2.9-3-4
	c-0.9-1.1-2-2.4-2.4-3c-8.8-10.9-24.7-23.8-36.4-29.7c-0.7-0.3-2.3-1.2-3.6-1.8c-1.3-0.7-3.2-1.6-4.2-2c-1-0.4-2.6-1.2-3.6-1.6
	c-3.1-1.4-8.2-3.3-8.7-3.3c-0.3,0-0.8-0.2-1.2-0.4c-3.1-1.6-16.6-4.4-27-5.6C208.7,72.3,194.6,72.4,188.4,73 M179.1,125
	c0.9,0.2,1.8,0.4,1.9,0.6c0.1,0.2,0.6,0.4,1,0.4c0.7,0,1.6,0.3,5.6,2.1c1.1,0.5,4.3,2.6,5,3.3c0.2,0.2,1.2,1.1,2.1,1.9
	c5.9,5.3,9.1,11.9,10.3,21.2c0.3,2.1-0.9,6.6-2.3,8.7c-0.4,0.6-1,1.6-1.3,2.4c-0.8,1.7-2.2,3.9-3.5,5.6c-1.4,1.8-0.4,1.1,4.4-3.2
	c9.3-8.5,11.1-10.1,18.5-16.1c9-7.4,12.9-10.1,19.3-13.4c3.1-1.6,5.3-1.6,9,0c4.1,1.8,8.8,8.3,8.8,12.1c0,1.7-0.1,1.8-2.9,4.1
	c-3.9,3.2-7.3,6.9-11,11.9c-0.5,0.6-1.7,2.3-2.7,3.6c-2.4,3.1-10.2,14.1-11.2,15.7c-0.2,0.4-1.1,1.7-1.9,2.9
	c-0.8,1.3-1.5,2.5-1.5,2.7c0,0.2-0.2,0.4-0.4,0.4s-0.4,0.2-0.4,0.4c0,0.2-0.7,1.5-1.6,2.7c-0.9,1.3-1.9,3-2.4,3.8
	c-0.5,0.8-1.2,2.1-1.7,3c-0.5,0.8-1.2,2-1.5,2.5c-0.4,0.6-1.2,1.9-1.8,3l-1.1,2l1.1-1.2c0.6-0.7,1.5-1.7,1.9-2.2
	c1.5-1.9,8-9.4,8.6-10c0.4-0.3,2-2.1,3.6-4c6.8-7.7,25.8-26.9,33-33.4c6.3-5.7,6.5-5.8,11-9.4c6.3-5,6.5-5.2,7.7-5.9
	c0.6-0.4,1.1-0.8,1.1-1c0-0.2,0.2-0.3,0.4-0.3s0.9-0.3,1.5-0.8c5.8-4.1,9.7-5,13.2-3c4.9,2.8,9.2,8.9,9.2,12.9c0,2.1,0,2.1-4.2,5.8
	c-2.1,1.8-5.7,5.5-9.2,9.5c-4.4,5-17,21.3-17,22c0,0.2-0.1,0.4-0.3,0.5c-0.5,0.2-2.9,3.4-2.9,3.9c0,0.2-0.1,0.4-0.3,0.5
	c-0.4,0.2-4.7,6.6-6.1,9c-0.5,0.9-1.1,1.7-1.3,1.7c-0.2,0-0.3,0.2-0.3,0.4s-0.5,1.2-1.2,2.2s-1.2,1.9-1.2,2c0,0.1-0.4,0.8-0.8,1.4
	c-2.6,3.7-11.2,19.5-13.8,25.4c-0.4,0.9-1,2.3-1.5,3.1c-0.4,0.8-0.8,1.8-0.8,2.1s-0.2,0.6-0.4,0.6s-0.4,0.4-0.4,1s-0.2,1-0.4,1
	s-0.4,0.3-0.4,0.7c0,0.4-0.1,0.9-0.3,1c-0.4,0.4-1.3,3.1-1.3,4c0,0.4-0.2,0.7-0.4,0.7s-0.5,0.6-0.6,1.3c-0.1,0.7-0.4,2.2-0.7,3.3
	c-2.8,12.1,2.4,18.8,12.6,16.2c0.9-0.2,2.4-0.6,3.2-0.8s1.9-0.6,2.3-0.8c0.4-0.2,1-0.4,1.4-0.4c0.4,0,0.9-0.2,1.1-0.3
	c0.2-0.2,1.5-0.8,2.8-1.3c3.9-1.6,12.9-6.3,16.1-8.4c0.9-0.6,1.8-1.2,2-1.2c0.2,0,1-0.5,1.7-1.2c0.8-0.7,1.5-1.2,1.7-1.2
	c0.5,0,4-2.5,4.2-2.9c0.1-0.2,0.4-0.3,0.7-0.3s0.6-0.1,0.7-0.3c0.3-0.6,5.7-4.6,6.3-4.7c1.2-0.1,0.9,1.4-0.8,3.7
	c-3.2,4.2-8.2,9.7-11.3,12.5c-1.1,1-2.1,1.9-2.2,2c-3.5,3.6-14.1,9.8-19.2,11.2c-1,0.3-2.4,0.7-3,0.9c-1.6,0.5-8,0.5-9.6,0
	c-0.7-0.2-2-0.6-2.8-0.8c-4.7-1.3-9.7-4.5-13.6-8.5c-2.3-2.4-5.3-7-5.3-8.1c0-0.3-0.2-0.7-0.4-0.8c-0.2-0.1-0.4-0.7-0.4-1.1
	c0-0.5-0.2-1.1-0.4-1.3c-0.5-0.5-0.2-8.6,0.4-11.5c0.3-1.1,0.6-2.7,0.7-3.5c0.1-0.8,0.4-1.5,0.6-1.5c0.2,0,0.4-0.3,0.4-0.7
	c0-0.7,1-3.4,2.5-6.7c0.4-0.9,0.8-1.9,0.8-2.1c0-0.2,0.4-1,0.8-1.8c0.4-0.8,0.8-1.7,0.8-2s0.2-0.6,0.4-0.6s0.4-0.2,0.4-0.5
	c0-0.7,5.7-11.6,6.7-12.8c0.3-0.3,0.5-0.8,0.5-1c0-0.2,0.6-1.2,1.3-2.4c0.7-1.1,1.6-2.6,2-3.3c1.5-2.7,1.8-3.1,2.4-3.8
	c0.3-0.4,1-1.6,1.6-2.6c0.5-1.1,1.3-2.3,1.7-2.7c0.4-0.4,0.7-1,0.7-1.3s0.1-0.6,0.3-0.6c0.4-0.2,3.7-5,3.7-5.5
	c0-0.2,0.1-0.4,0.3-0.5c0.2-0.1,2.5-3.3,5.3-7.1c2.7-3.9,5.7-7.9,6.6-9c0.9-1.1,2.1-2.6,2.6-3.4c1.4-1.9,4.3-5.5,5.8-7.2
	c0.7-0.8,1.6-1.9,2-2.5c3.1-4,8-9.4,12.2-13.4c1.8-1.7,2.4-2.5,1.9-2.5c-0.8,0-3.9,1.6-4.2,2.1c-0.1,0.2-0.3,0.3-0.6,0.3
	c-0.3,0-1.4,0.7-2.6,1.6c-1.2,0.9-2.2,1.6-2.3,1.6c-0.2,0,0-0.2-6.8,5.4c-2.9,2.4-6.5,5.5-8.1,6.9c-1.6,1.5-3.4,3.1-4,3.6
	c-7.9,7-23.1,21.8-31.1,30.1c-9.2,9.6-12.1,12.8-19.3,21.5c-2.6,3.1-11.3,15.6-11.3,16.3c0,0.1-0.3,0.7-0.8,1.3
	c-1.2,1.8-2.4,4.1-2.4,4.7c0,0.3-0.1,0.6-0.3,0.6c-0.3,0-0.5,0.3-2.1,3.8c-0.5,1.1-1.1,2.3-1.3,2.7s-0.4,1-0.4,1.5
	c0,0.4-0.2,0.9-0.4,1c-0.7,0.4-0.4,3.3,0.4,4.8c1.1,2-0.4,3-2.7,1.8c-0.4-0.2-1.2-0.6-1.9-0.9c-2.4-1.1-4.2-3.2-6.7-7.5
	c-2.7-4.8,0.7-14.7,12.6-36.7c2.6-4.8,3.5-6.4,3.8-6.8c0.2-0.2,0.7-1.1,1.2-1.9c0.5-0.8,1.2-2.2,1.7-3c0.5-0.8,1-1.7,1.2-1.9
	s0.7-1.1,1.1-1.8c1.5-2.7,1.9-3.3,3.4-5.3c0.8-1.1,1.5-2.2,1.5-2.3c0-0.5,14.6-22,16.3-24.1c0.2-0.2,1.7-2.2,3.3-4.4
	c3.5-4.6,3-4,7.5-9.6c1.9-2.4,3.7-4.5,3.9-4.7c0.2-0.2,0.3-0.4,0.1-0.6c-0.2-0.2-0.5-0.1-0.8,0.1c-0.5,0.4-3,1.8-4.8,2.8
	c-0.6,0.3-1.3,0.8-1.5,1.1c-0.3,0.3-0.7,0.6-1,0.6c-0.3,0-0.8,0.3-1.3,0.7c-0.4,0.4-2.1,1.6-3.8,2.8c-1.7,1.1-3.4,2.4-3.9,2.9
	c-0.5,0.4-1,0.8-1.1,0.8c-0.1,0-0.5,0.3-0.9,0.6c-0.4,0.3-2.1,1.7-3.7,3c-1.7,1.4-3.2,2.7-3.4,2.9c-0.2,0.3-1.7,1.6-3.4,3.1
	c-7.8,6.8-25.6,24.5-34.3,34.2c-3,3.3-6.1,6.8-7,7.8c-6.3,6.9-16.6,19.4-21.9,26.8c-1.4,1.9-2.6,3.5-2.7,3.6
	c-0.6,0.5-5.9,8.9-7.2,11.4c-0.8,1.5-1.5,2.9-1.7,2.9c-0.2,0.1-0.3,0.4-0.3,0.8c0,0.4-0.1,0.9-0.3,1.1c-0.2,0.2-0.6,1.2-0.8,2.2
	c-0.3,1-0.7,2.4-0.9,3c-0.6,1.9-0.5,2.9,0.5,4.2c1.8,2.5-1.1,3.9-3.8,1.8c-0.7-0.6-1.4-0.9-1.6-0.8c-0.1,0.1-0.2,0-0.2-0.3
	c0-0.4-2.1-3.8-2.8-4.4c-0.4-0.4-1.9-3.8-2.4-5.3c-0.5-1.5,0-4.7,0.9-5.6c0.2-0.2,0.3-0.6,0.3-0.9c0-0.9,4.1-8.6,7.9-14.9
	c0.9-1.4,1.8-3.1,2.1-3.7c0.3-0.6,0.7-1.1,0.9-1.1c0.2,0,0.3-0.2,0.3-0.4c0-0.5,6.5-10.1,8.9-13.2c0.3-0.3,1.6-2.2,3.1-4.2
	c1.4-2,3.3-4.5,4.2-5.6c0.9-1.1,2-2.6,2.5-3.2c0.5-0.6,2.1-2.7,3.5-4.6c1.4-1.9,3.9-5.1,5.5-7.2c1.6-2.1,3-3.9,3.1-4
	c0.1-0.1,1-1.3,2-2.6c1-1.3,2-2.6,2.2-2.8c0.8-0.9,9-12.5,9.5-13.5c0.2-0.5,0.8-1.3,1.2-1.9c3.2-4.4,8.7-14.7,8.7-16.3
	c0-0.4,0.2-0.9,0.4-1.1c0.2-0.1,0.4-1.7,0.4-3.4s-0.2-3.3-0.4-3.4c-0.2-0.1-0.4-0.6-0.4-1c0-1.1-3.5-4.2-5.6-4.9
	c-6.1-2.1-16.4-2.2-25.2-0.1c-1.4,0.3-3.3,0.7-4.1,0.8c-0.8,0.1-1.6,0.4-1.7,0.6c-0.1,0.2-0.6,0.4-1.2,0.4s-1.1,0.2-1.2,0.4
	s-0.6,0.4-1,0.4c-0.4,0-1.1,0.2-1.5,0.4c-0.4,0.2-2,0.8-3.5,1.4c-1.5,0.6-3.4,1.3-4.2,1.7c-3,1.3-8.7,4.1-9.8,4.8
	c-4.1,2.4-6.3,3.7-6.5,3.7c-0.8,0-11.2,7.5-16.7,12c-14.9,12.2-25,28.3-20.9,33.4c1.1,1.3,6,1.6,9.6,0.6c0.8-0.2,2.3-0.6,3.2-0.9
	c0.9-0.2,2-0.6,2.4-0.8c0.4-0.2,1-0.4,1.3-0.4s0.9-0.2,1.3-0.4c0.4-0.2,1.1-0.5,1.7-0.7c0.5-0.2,1.5-0.6,2.1-0.8
	c0.6-0.3,1.5-0.6,2-0.8c1.6-0.6,5.1-2.2,6.9-3.1c0.4-0.2,1.6-0.8,2.6-1.3c2.7-1.4,9.3-4.9,9.8-5.2c0.2-0.2,1-0.7,1.8-1.1
	c3.3-1.9,8.2-5,8.3-5.3c0.1-0.2,0.3-0.4,0.5-0.4c0.4,0,5-3.1,5.5-3.6c0.1-0.1,1.1-0.8,2.2-1.6c1.1-0.7,2.3-1.6,2.6-1.9
	c7.5-6.1,8.8-6.8,8.2-4.3c-0.7,2.9-14,16.4-24.4,24.8c-2.7,2.2-7.8,5.7-8.1,5.7c-0.2,0-0.4,0.2-0.4,0.3c0,0.2-0.5,0.6-1.1,0.9
	c-0.6,0.3-1.8,1-2.7,1.6c-1.4,0.9-4.7,2.6-10.2,5.2c-1,0.5-2.1,0.8-2.5,0.8c-0.4,0-0.8,0.2-0.9,0.4c-0.1,0.2-0.8,0.5-1.5,0.6
	c-0.7,0.1-2.3,0.5-3.5,0.7c-5.6,1.1-14.3-0.4-16.4-2.9c-0.1-0.1-0.5-0.4-0.9-0.6c-1.4-0.7-5.2-4.8-6.7-6.9
	c-2.8-4.2-3.4-6.1-3.3-10.6c0-3.4,0.3-4.7,1.3-7.6c0.6-1.6,3.7-7.6,4.4-8.4c0.4-0.4,1.2-1.6,1.9-2.6c1.8-2.6,8.7-9.8,12.4-12.7
	c1.8-1.4,3.5-2.8,3.9-3.1c1-0.8,10.3-7,10.5-7c0.1,0,1.3-0.7,2.7-1.5c1.4-0.8,4.5-2.5,6.9-3.6c2.4-1.2,4.7-2.3,5.1-2.5
	c0.4-0.2,1-0.4,1.3-0.4c0.3,0,0.6-0.2,0.6-0.4c0-0.2,0.4-0.4,0.9-0.6c0.5-0.1,2.4-0.8,4.3-1.5c3.6-1.4,7.6-2.6,10.1-3.2
	c4.1-1,5.1-1.2,7.1-1.6c1.2-0.2,3.5-0.6,5.2-0.8c1.6-0.2,3.2-0.5,3.4-0.6C162.8,124.4,177.2,124.7,179.1,125"/>
</svg>
