<svg xmlns="http://www.w3.org/2000/svg" id="Livello_1" viewBox="0 0 200 200"><style>.st2{fill:#fff}.st3{fill:#0084ce}</style><path fill="#90bae1" d="M64.3 18h74.8v7.4H64.3V18zm0 15.8h74.8v7.4H64.3v-7.4zm3.2 23.3h67c1.1-2.5 2.1-5 3-7.4H64.3l3.2 7.4zm63.2 8.5c-1.2 2.5-2.4 5-3.7 7.4H73c-1.3-2.5-2.6-5-3.7-7.4h61.4zm-8 53.8H77.3c4-6.8 8.6-13.4 13.9-19.4-5-5.7-9.4-12-13.4-18.6h44.4c-3.9 6.5-8.4 12.8-13.4 18.6 5.3 6 9.9 12.6 13.9 19.4zm8.4 15.9H68.9c1.1-2.5 2.4-4.9 3.7-7.4h54.8c1.3 2.4 2.6 4.9 3.7 7.4zm-66.8 15.8h73.6c-.9-2.4-1.9-4.9-3-7.4H67.1l-2.8 7.4zm0 8.5h74.8v7.4H64.3v-7.4zm0 15.8h74.8v8.4H64.3v-8.4z"/><path fill="#6c3" d="M132.4 181.8c-4.1-16.5-10.3-32.7-18.2-47.8-10.1-19.4-26.6-33.3-37.7-51.9C66.2 65 58.6 46.2 53.3 27c-.4-1.4 9.8-9.4 14-10.4 2.6 14 8.3 28.1 14.3 41 4.6 10 10.1 19.7 16.9 28.4 6.7 8.6 14.6 16 20.8 25.1 12.2 18 20.7 38.8 26.7 59.6.5 1.9-13.6 11.5-13.6 11.1z"/><path d="M66.1 18.5c.1.3 5.6 23.7 17.7 47 1.3 2.5 2.7 5 4.1 7.4 1.7 2.9 3.4 5.7 5.3 8.4 2.1 3.1 4.4 6.1 6.8 8.9 1.5 1.8 3 3.5 4.6 5.1 1.5 1.5 2.9 3 4.2 4.6 5.2 6 9.8 12.6 13.9 19.4 1.7 2.8 3.2 5.6 4.7 8.4 1.3 2.5 2.5 5 3.7 7.4 1.4 2.9 2.6 5.7 3.8 8.4 1.1 2.5 2.1 5 3 7.4 5.7 14.9 8.4 26.4 8.7 27.4l-12.7 3c0-.3-3.3-13.7-10-30.3-1-2.4-2-4.9-3.2-7.4-1.3-2.8-2.6-5.6-4.1-8.4-1.3-2.5-2.6-5-4-7.4-1.6-2.9-3.4-5.7-5.2-8.4-2.3-3.4-4.7-6.7-7.3-9.8-1.5-1.8-3-3.5-4.6-5.1-1.5-1.5-2.9-3-4.2-4.6-5-5.7-9.4-12-13.4-18.6-1.7-2.8-3.3-5.6-4.8-8.4-1.3-2.5-2.6-5-3.7-7.4-10.8-22.3-15.6-42.7-15.9-44l12.6-3m-15.6 3.7c.2.9 5 21.6 16 44.7 1.2 2.4 2.4 5 3.8 7.6 1.6 2.9 3.2 5.8 4.8 8.6 4.3 7.1 8.9 13.5 13.7 19 1.5 1.7 2.9 3.3 4.4 4.7 1.5 1.5 3 3.2 4.5 4.9 2.4 2.9 4.8 6.1 7.1 9.5 1.8 2.6 3.5 5.4 5.1 8.3 1.3 2.3 2.7 4.8 4 7.3 1.3 2.6 2.7 5.4 4 8.3 1.1 2.4 2.1 4.9 3.1 7.3 6.6 16.2 9.7 29.2 9.9 29.8l18.5-4.3c-.1-.5-2.8-12.3-8.8-27.8-1-2.5-2-5.1-3-7.5-1.3-3-2.5-5.8-3.8-8.6-1.1-2.4-2.4-5-3.7-7.5-1.5-2.9-3.1-5.8-4.8-8.6-4.4-7.5-9.2-14.2-14.2-19.8-1.5-1.7-2.9-3.3-4.4-4.7-1.5-1.5-3-3.2-4.5-4.9-2.2-2.6-4.4-5.5-6.6-8.7-1.7-2.5-3.5-5.3-5.2-8.3-1.3-2.3-2.7-4.7-4-7.3-11.8-22.9-17.3-46.1-17.3-46.3l-18.6 4.3z" class="st2"/><path d="M65.7 183.4c-4.9-1.1-9.7-2.3-14.6-3.4 8.1-29.7 19.2-59.7 40.2-82.9 20-22.2 35.9-51.1 41.1-81 4.5.9 15.1 10 14.7 11.7-5.9 21.3-14.7 42.3-27 60.7-6.3 9.4-14.5 16.9-21.4 25.9-7.4 9.5-13.2 20.3-18.1 31.3-4.2 9.6-7.9 19.5-10.8 29.6-.6 2.1-1.2 9.4-4.1 8.1z" class="st3"/><path d="M133.9 18.5l12.7 3c-.2 1-3.1 12.9-9 28.2-.9 2.4-1.9 4.9-3 7.4-1.2 2.8-2.4 5.6-3.8 8.4-1.2 2.5-2.4 5-3.7 7.4-1.5 2.8-3.1 5.7-4.8 8.4-3.9 6.5-8.4 12.8-13.4 18.6-1.4 1.6-2.8 3.1-4.2 4.6-1.6 1.6-3.1 3.3-4.6 5.1-2.6 3.1-5 6.3-7.3 9.8-1.8 2.8-3.6 5.6-5.2 8.4-1.4 2.5-2.8 4.9-4 7.4-11.8 23-17.2 45.9-17.3 46.2l-12.7-3c.3-1.3 5.1-21.3 15.4-43.3 1.1-2.5 2.4-4.9 3.7-7.4 1.5-2.8 3-5.6 4.7-8.4 4-6.8 8.6-13.4 13.9-19.4 1.4-1.6 2.8-3.1 4.2-4.6 1.6-1.6 3.1-3.3 4.6-5.1 2.4-2.8 4.7-5.8 6.8-8.9 1.9-2.7 3.6-5.6 5.3-8.4 1.4-2.5 2.8-5 4.1-7.4 1.5-2.8 2.8-5.7 4.1-8.4 1.1-2.5 2.2-5 3.2-7.4 6.9-17 10.2-30.9 10.3-31.2m-4-.8c-.2.7-3.4 14-10.2 30.5-1 2.5-2.1 4.9-3.2 7.3-1.4 3-2.7 5.7-4 8.2-1.3 2.6-2.7 5-4 7.3-1.7 2.9-3.4 5.7-5.2 8.2-2.1 3.1-4.3 6-6.5 8.6-1.4 1.7-2.9 3.3-4.4 4.8s-2.9 3-4.4 4.8c-5 5.7-9.8 12.4-14.3 20-1.7 2.8-3.3 5.7-4.8 8.6-1.3 2.6-2.6 5.1-3.8 7.6-10.4 22.1-15.2 41.9-15.7 44.1l20.5 4.7c.2-.7 5.6-23.1 16.9-45.3 1.2-2.5 2.6-4.9 3.9-7.2 1.6-2.9 3.3-5.6 5.1-8.2 2.3-3.4 4.6-6.5 7.1-9.4 1.4-1.7 2.9-3.3 4.4-4.8s2.9-3 4.4-4.8c4.8-5.5 9.4-11.9 13.8-19.1 1.7-2.8 3.3-5.7 4.9-8.6 1.4-2.6 2.7-5.1 3.8-7.6 1.4-2.9 2.7-5.8 3.9-8.6 1-2.2 1.9-4.6 3.1-7.5 6.3-16.4 9.1-28.7 9.2-28.8l-20.5-4.8z" class="st2"/><path d="M100 18c45.2 0 82 36.8 82 82s-36.8 82-82 82-82-36.8-82-82 36.8-82 82-82m0-13C47.5 5 5 47.5 5 100s42.5 95 95 95 95-42.5 95-95-42.5-95-95-95z" class="st3"/></svg>