<svg xmlns="http://www.w3.org/2000/svg" version="1" viewBox="0 0 400 400">
  <path fill="#01FFFF" d="M188.6 23.2a236.5 236.5 0 0 0-26 4l-4.8 1.2A43.6 43.6 0 0 0 152 30c-.4 0-.9.2-1 .4-.1.2-.6.4-1.1.4s-2.1.5-3.7 1a65.9 65.9 0 0 1-7.6 2.7l-5.8 2.5a49.5 49.5 0 0 0-5.4 2.5c-.3 0-1.6.5-2.8 1.2-1.2.7-2.4 1.2-2.6 1.2-.2 0-1.2.5-2.1 1.2s-1.9 1.2-2.1 1.2l-3.7 2a25.2 25.2 0 0 1-4.1 2.3 143.5 143.5 0 0 0-14.7 10.3c-.1.3-.4.5-.5.5-.4 0-.3-.1-5.6 4.3a311.8 311.8 0 0 0-19.1 18.8l-2.7 3.3c-1.8 2-8 10.3-9.9 13.1l-1.2 1.6a76.6 76.6 0 0 0-5.5 9 160 160 0 0 0-13.2 28.2c-.4.4-2.3 5.7-3.3 9.5a133 133 0 0 0-3.6 14l-1 4.8a180.5 180.5 0 0 0 2.6 75.8l.6 2.7c.1.6.4 1.2.6 1.3a96.5 96.5 0 0 0 4.8 14.5c.5 1.6 1.4 3.6 2.2 5.4l.6 1.5 2 4.4 3.1 6.4c.6 1.3 1.2 2.4 1.4 2.5a178 178 0 0 0 50 58 393 393 0 0 0 15.8 10.6 157.2 157.2 0 0 0 8.2 4.3l1.2.7a69.3 69.3 0 0 0 10.8 4.9c0 .2.3.4.6.4l1.3.4c1.3.7 3.7 1.6 6.1 2.4l2.2.8a73.4 73.4 0 0 0 10 3.1c.3.3 4.6 1.5 7.6 2.1l5.6 1.2a21 21 0 0 0 4.8.8c.4.3 2 .6 10 1.6a202.1 202.1 0 0 0 46.4-.7 114 114 0 0 0 12.8-2.4 85 85 0 0 0 8-2l2.7-.8c2-.6 5.6-1.7 6.5-2.1l3.4-1.2 4.3-1.6 2.1-.8 2.1-.9 2.5-1.2a119.8 119.8 0 0 1 8.7-3.8 141.9 141.9 0 0 0 17.3-10.1c8.2-4.6 34-27.2 35.4-30.9l1.5-1.8a32.3 32.3 0 0 0 3.8-4.5 68.6 68.6 0 0 0 6.4-8.4c.3-.2 4.6-6.7 5.4-8.2l2.5-4.2a222.6 222.6 0 0 0 9.8-19.8l1.2-2.6 1.4-3.3a8 8 0 0 0 .8-2.6c0-.4.1-.9.3-1.1.2-.2.6-1.2.8-2.2l.9-2.5c.2-.4.4-1 .4-1.4s.2-.9.3-1.1c.2-.2.7-2 1.2-4l1.2-4.4a185.7 185.7 0 0 0 4.9-58.4 178 178 0 0 0-10.3-46.4l-1.8-4.6a189.2 189.2 0 0 0-26.1-44.3A207 207 0 0 0 313 61.8a81 81 0 0 0-8.2-6 147.6 147.6 0 0 0-20.4-12.9 200.1 200.1 0 0 0-41.1-15.7c-.5 0-1.2-.2-1.6-.4-.4-.2-1.4-.4-2.3-.5-.9-.1-1.8-.2-2.2-.4a86 86 0 0 0-11.2-2l-6.2-.8c-4.3-.1-26.2-.3-31.2.1m33.2 15.4a183.7 183.7 0 0 1 23.2 4.6l2.4.8a94.4 94.4 0 0 1 11.3 3.7c.5 0 1 .2 1.1.4.1.2.5.4.8.4.3 0 2 .6 3.7 1.4l5.3 2.4 2.9 1.4 4.6 2.4c2.1 1.1 4.4 2.3 4.9 2.7l2.9 1.7c1 .5 1.9 1.1 1.9 1.3A161.9 161.9 0 0 1 308 77.6a182.8 182.8 0 0 1 23.8 25.8l3.2 4.8c2.6 3.7 6.2 9.5 6.2 9.8l1.5 2.7c1.4 2.3 4.7 8.9 6.2 12.3l1.3 3 1 2.5.8 2 .8 2 .7 1.8 1.2 3.9 1.1 3.6a164.2 164.2 0 0 1 1.7 86.5c-.2.4-.4 1-.4 1.5a6 6 0 0 1-.4 1.7 42 42 0 0 0-.9 2.7c-.6 2.3-1.3 4.2-2.6 8l-2.1 5.7-.8 2c-1.5 3.6-6.4 13.7-8.4 16.9l-2 3.5a101.7 101.7 0 0 1-6.9 10.6c-.8 1.2-6.2 8.2-7.1 9.2l-1.9 2.2a154.7 154.7 0 0 1-27.5 25.6c-5.5 4-6.7 4.9-7 4.9l-2.9 1.7a144.2 144.2 0 0 1-21.7 11.5l-5 2a116.7 116.7 0 0 0-6.6 2.4c-.4 0-.9.2-1 .4-.1.2-.7.4-1.4.4s-1.2.1-1.4.3c-.4.4-3.2 1.3-4.1 1.3-.5 0-1 .2-1.1.4-.1.2-.8.4-1.5.6l-5.1 1.1a147.8 147.8 0 0 1-40 3.9 150.4 150.4 0 0 1-64.9-15.5c-.8-.4-1.8-.8-2.1-.8-.3 0-.6-.1-.6-.3 0-.2-.6-.6-1.4-.9s-1.4-.7-1.4-.8-.6-.5-1.3-.8a140.4 140.4 0 0 1-21.1-13.2 84 84 0 0 0-5.4-4.6 293 293 0 0 1-19.2-18.7l-3.2-4a72.7 72.7 0 0 1-7.7-10.4 16 16 0 0 1-2-2.7l-2-3-1.2-2-3.6-6.4a123.2 123.2 0 0 1-8.9-19.6 172.3 172.3 0 0 1-8.6-32.6c-2.3-13.9-2.2-34.6.1-48.2l.9-5.8c.7-4.7 4.2-17.9 6-22.6l1.2-3.2c.9-2.5 4.9-12.1 5.8-13.8a208.3 208.3 0 0 1 8.3-15l2.4-3.8 2.4-3.7c2.7-4.5 16.6-20.4 22.4-25.5 6.5-5.8 8.2-7.3 11.5-9.7l4.3-3.3c1.1-.9 7.9-5.4 8.1-5.4l3.1-1.9a207.7 207.7 0 0 1 25.7-12.5l1.4-.4 1.6-.8 1.4-.4 1.3-.4a21 21 0 0 1 2.5-.9l2.3-.9.5-.2 1.3-.2c3-.9 11.3-2.8 15.5-3.5l4.6-.8c2.3-.4 8.6-1.1 11.8-1.4 6.2-.7 28.1-.2 32.3.4M188.4 73a125.3 125.3 0 0 0-31.8 7.7l-2 .8c-4.2 1.6-11.8 5.4-16.2 8a58.3 58.3 0 0 0-11.2 7.6c-.3 0-6.3 4.7-8.7 6.9-1.5 1.3-9.6 9.5-10.8 10.9a44.6 44.6 0 0 0-6.7 8.7 121.9 121.9 0 0 0-22.9 54.7 121.4 121.4 0 0 0 3.2 53.3c0 .5.4 1.8.8 3l.8 2.7c0 .3.3 1.3.8 2.2l1.6 4.1c1.3 3.5 4.3 10.3 5.3 12l1.9 3.4 2.4 4.2a49 49 0 0 0 4.8 7.1c0 .6 6.6 9 9.3 11.9 8.2 8.7 15.1 14.5 24.3 20.7a89.7 89.7 0 0 0 11.1 6.5c0 .2.3.4.7.4.4 0 1.1.4 1.7.8l1.4.8 1.6.6c3.3 1.6 6 2.7 11.8 4.7l2 .8c.3.2 1.7.5 2.9.8 1.3.3 2.4.7 2.5.8.1.2.7.3 1.4.3.6 0 1.6.2 2.1.4.8.3 1.8.5 7.5 1.7a172 172 0 0 0 21 2c10.4 0 22.6-1.4 31.2-3.6l3.2-.8 2.4-.7 1.8-.5c2.7-.5 11.6-4.1 18.6-7.5 8-3.9 9.1-4.6 19-11.5a129.7 129.7 0 0 0 33.7-37.6l1.6-3.2c.8-1.4 1.4-2.8 1.4-3.1a77.8 77.8 0 0 0 5.3-11.4l.8-1.7c.2-.4.4-1 .4-1.4s.1-.9.3-1c.4-.4 2.1-5.6 2.1-6.5 0-.5.2-1 .4-1.1.2-.1.5-.8.6-1.5l.6-2.9c3-11.6 4.3-31.7 2.9-42.4a140.8 140.8 0 0 0-8-33c-2-5.3-7.9-17.1-10-20l-.8-1.4a145.6 145.6 0 0 0-4.4-6.4l-3-4-2.4-3a130 130 0 0 0-36.4-29.7l-3.6-1.8-4.2-2-3.6-1.6a70.5 70.5 0 0 0-9.9-3.7 130.6 130.6 0 0 0-52.6-5.5m-9.3 52c.9.2 1.8.4 1.9.6.1.2.6.4 1 .4.7 0 1.6.3 5.6 2.1a31 31 0 0 1 7.1 5.2 32 32 0 0 1 10.3 21.2c.3 2.1-.9 6.6-2.3 8.7-.4.6-1 1.6-1.3 2.4-.8 1.7-2.2 3.9-3.5 5.6-1.4 1.8-.4 1.1 4.4-3.2 9.3-8.5 11.1-10.1 18.5-16.1a96 96 0 0 1 19.3-13.4c3.1-1.6 5.3-1.6 9 0 4.1 1.8 8.8 8.3 8.8 12.1 0 1.7-.1 1.8-2.9 4.1a64 64 0 0 0-11 11.9l-2.7 3.6a458.7 458.7 0 0 0-11.2 15.7l-1.9 2.9-1.5 2.7c0 .2-.2.4-.4.4s-.4.2-.4.4-.7 1.5-1.6 2.7l-2.4 3.8-1.7 3-1.5 2.5a47 47 0 0 0-1.8 3l-1.1 2 1.1-1.2 1.9-2.2a348 348 0 0 1 12.2-14c6.8-7.7 25.8-26.9 33-33.4 6.3-5.7 6.5-5.8 11-9.4 6.3-5 6.5-5.2 7.7-5.9.6-.4 1.1-.8 1.1-1 0-.2.2-.3.4-.3s.9-.3 1.5-.8c5.8-4.1 9.7-5 13.2-3 4.9 2.8 9.2 8.9 9.2 12.9 0 2.1 0 2.1-4.2 5.8-2.1 1.8-5.7 5.5-9.2 9.5a294.3 294.3 0 0 0-17.3 22.5 13.7 13.7 0 0 0-3.2 4.4c-.4.2-4.7 6.6-6.1 9-.5.9-1.1 1.7-1.3 1.7-.2 0-.3.2-.3.4s-.5 1.2-1.2 2.2l-1.2 2-.8 1.4a264.7 264.7 0 0 0-13.8 25.4c-.4.9-1 2.3-1.5 3.1-.4.8-.8 1.8-.8 2.1s-.2.6-.4.6-.4.4-.4 1-.2 1-.4 1-.4.3-.4.7c0 .4-.1.9-.3 1a11 11 0 0 0-1.3 4c0 .4-.2.7-.4.7s-.5.6-.6 1.3l-.7 3.3c-2.8 12.1 2.4 18.8 12.6 16.2l3.2-.8 2.3-.8c.4-.2 1-.4 1.4-.4.4 0 .9-.2 1.1-.3l2.8-1.3c3.9-1.6 12.9-6.3 16.1-8.4.9-.6 1.8-1.2 2-1.2.2 0 1-.5 1.7-1.2.8-.7 1.5-1.2 1.7-1.2.5 0 4-2.5 4.2-2.9.1-.2.4-.3.7-.3s.6-.1.7-.3c.3-.6 5.7-4.6 6.3-4.7 1.2-.1.9 1.4-.8 3.7-3.2 4.2-8.2 9.7-11.3 12.5l-2.2 2a61.4 61.4 0 0 1-19.2 11.2l-3 .9c-1.6.5-8 .5-9.6 0l-2.8-.8a32 32 0 0 1-13.6-8.5 25.1 25.1 0 0 1-5.7-8.9c-.2-.1-.4-.7-.4-1.1 0-.5-.2-1.1-.4-1.3a42.5 42.5 0 0 1 1.7-16.5c.2 0 .4-.3.4-.7 0-.7 1-3.4 2.5-6.7l.8-2.1.8-1.8c.4-.8.8-1.7.8-2s.2-.6.4-.6.4-.2.4-.5a106.3 106.3 0 0 1 7.2-13.8l1.3-2.4 2-3.3c1.5-2.7 1.8-3.1 2.4-3.8l1.6-2.6c.5-1.1 1.3-2.3 1.7-2.7.4-.4.7-1 .7-1.3s.1-.6.3-.6a29.4 29.4 0 0 0 4-6c.2-.1 2.5-3.3 5.3-7.1a193.2 193.2 0 0 1 9.2-12.4 140.2 140.2 0 0 1 7.8-9.7c3.1-4 8-9.4 12.2-13.4 1.8-1.7 2.4-2.5 1.9-2.5a11 11 0 0 0-4.2 2.1c-.1.2-.3.3-.6.3s-1.4.7-2.6 1.6l-2.3 1.6c-.2 0 0-.2-6.8 5.4a455.4 455.4 0 0 0-12.1 10.5c-7.9 7-23.1 21.8-31.1 30.1a313 313 0 0 0-19.3 21.5 167.7 167.7 0 0 0-14.5 22.3c0 .3-.1.6-.3.6-.3 0-.5.3-2.1 3.8l-1.3 2.7c-.2.4-.4 1-.4 1.5 0 .4-.2.9-.4 1-.7.4-.4 3.3.4 4.8 1.1 2-.4 3-2.7 1.8l-1.9-.9c-2.4-1.1-4.2-3.2-6.7-7.5-2.7-4.8.7-14.7 12.6-36.7l3.8-6.8 1.2-1.9 1.7-3 1.2-1.9 1.1-1.8c1.5-2.7 1.9-3.3 3.4-5.3l1.5-2.3a549.5 549.5 0 0 1 19.6-28.5l7.5-9.6 3.9-4.7c.2-.2.3-.4.1-.6-.2-.2-.5-.1-.8.1l-4.8 2.8c-.6.3-1.3.8-1.5 1.1-.3.3-.7.6-1 .6-.3 0-.8.3-1.3.7a55 55 0 0 1-3.8 2.8 32.2 32.2 0 0 0-3.9 2.9l-1.1.8-.9.6-3.7 3a98.7 98.7 0 0 0-3.4 2.9l-3.4 3.1a550.8 550.8 0 0 0-34.3 34.2l-7 7.8a366.3 366.3 0 0 0-24.6 30.4c-.6.5-5.9 8.9-7.2 11.4-.8 1.5-1.5 2.9-1.7 2.9-.2.1-.3.4-.3.8s-.1.9-.3 1.1c-.2.2-.6 1.2-.8 2.2l-.9 3c-.6 1.9-.5 2.9.5 4.2 1.8 2.5-1.1 3.9-3.8 1.8-.7-.6-1.4-.9-1.6-.8a18.7 18.7 0 0 0-3-4.7c-.4-.4-1.9-3.8-2.4-5.3s0-4.7.9-5.6a105 105 0 0 1 8.2-15.8l2.1-3.7c.3-.6.7-1.1.9-1.1a153.3 153.3 0 0 1 9.2-13.6l3.1-4.2 4.2-5.6 2.5-3.2 3.5-4.6 5.5-7.2 3.1-4 2-2.6 2.2-2.8c.8-.9 9-12.5 9.5-13.5l1.2-1.9a74 74 0 0 0 9.1-17.4c.2-.1.4-1.7.4-3.4s-.2-3.3-.4-3.4c-.2-.1-.4-.6-.4-1 0-1.1-3.5-4.2-5.6-4.9a50.8 50.8 0 0 0-25.2-.1l-4.1.8c-.8.1-1.6.4-1.7.6-.1.2-.6.4-1.2.4s-1.1.2-1.2.4-.6.4-1 .4-1.1.2-1.5.4L149 139l-4.2 1.7c-3 1.3-8.7 4.1-9.8 4.8l-6.5 3.7c-.8 0-11.2 7.5-16.7 12-14.9 12.2-25 28.3-20.9 33.4 1.1 1.3 6 1.6 9.6.6a53.2 53.2 0 0 0 8.2-2.5l1.7-.7 2.1-.8 2-.8c1.6-.6 5.1-2.2 6.9-3.1l2.6-1.3a670.6 670.6 0 0 0 11.6-6.3 80.2 80.2 0 0 0 8.8-5.7c.4 0 5-3.1 5.5-3.6l2.2-1.6 2.6-1.9c7.5-6.1 8.8-6.8 8.2-4.3-.7 2.9-14 16.4-24.4 24.8a73.6 73.6 0 0 1-8.5 6c0 .2-.5.6-1.1.9l-2.7 1.6c-1.4.9-4.7 2.6-10.2 5.2-1 .5-2.1.8-2.5.8-.4 0-.8.2-.9.4-.1.2-.8.5-1.5.6l-3.5.7c-5.6 1.1-14.3-.4-16.4-2.9l-.9-.6a34 34 0 0 1-6.7-6.9c-2.8-4.2-3.4-6.1-3.3-10.6 0-3.4.3-4.7 1.3-7.6.6-1.6 3.7-7.6 4.4-8.4l1.9-2.6c1.8-2.6 8.7-9.8 12.4-12.7l3.9-3.1c1-.8 10.3-7 10.5-7l2.7-1.5c1.4-.8 4.5-2.5 6.9-3.6l5.1-2.5 1.3-.4c.3 0 .6-.2.6-.4s.4-.4.9-.6l4.3-1.5c3.6-1.4 7.6-2.6 10.1-3.2l7.1-1.6 5.2-.8a25 25 0 0 0 3.4-.6c.5-.1 14.9.2 16.8.5"/>
</svg>
