<svg xmlns="http://www.w3.org/2000/svg" version="1" viewBox="0 0 200 200"><path fill="#533a75" fill-rule="evenodd" d="M170.1 139.2l-8.8-20.8-21.3 9-11.2-26.5c11.2-10.3 17.7-24.8 17.7-40.6C146.5 29.8 121.7 5 91.2 5S35.8 29.8 35.8 60.3c0 15.8 6.5 30.3 17.9 40.8l-23.8 55.1 20.8 8.8 8.6-20.6 21.5 9 8.8-20.8-21.3-9L81.9 93l-8.2-5.3c-9.5-6.1-15.1-16.4-15.1-27.6 0-17.9 14.5-32.6 32.6-32.6s32.6 14.5 32.6 32.6c0 11.2-5.7 21.5-14.9 27.4l-8 5.3 32.6 76.2 20.8-8.8-5.3-12 21.1-9z" clip-rule="evenodd"/><path fill="#657cbd" fill-rule="evenodd" d="M63.6 195l-21.5-9 8.9-21.1 21.4 9.1z" clip-rule="evenodd"/></svg>