<?xml version="1.0" encoding="utf-8"?>
<!-- Generator: Adobe Illustrator 21.1.0, SVG Export Plug-In . SVG Version: 6.00 Build 0)  -->
<svg version="1.1" xmlns="http://www.w3.org/2000/svg" xmlns:xlink="http://www.w3.org/1999/xlink" x="0px" y="0px"
	 viewBox="0 0 250 250" style="enable-background:new 0 0 250 250;" xml:space="preserve">
<style type="text/css">
	.st0{fill:url(#SVGID_1_);}
	.st1{fill:url(#SVGID_2_);}
	.st2{fill:#F0492E;}
	.st3{fill:#F26736;}
	.st4{fill:#8052A1;}
</style>
<g id="background">
</g>
<g id="Layer_2">
	<linearGradient id="SVGID_1_" gradientUnits="userSpaceOnUse" x1="160.5997" y1="11.5336" x2="57.2008" y2="114.9325">
		<stop  offset="0" style="stop-color:#EE1C50"/>
		<stop  offset="0.9984" style="stop-color:#F68C1F"/>
	</linearGradient>
	<path class="st0" d="M71.4,124.2c4,7.1,6.5,11.2,13,11.7c7,0.5,10.7-5.6,20.3-15.9c3.4-3.7,7-7.5,9.8-10.3c7-6.8,0.8-8.1-1.9-3.4
		c-5.4,9.5-11.7,12.9-13.7,12.7c-2-0.2-0.7-1.8-2.7-1.8s-4.4,5.7-8.8,5.9c-3.5,0.1-5-3-7.4-7.1c-2.9-5.1-14-24.2-16.8-29
		c5.4,0,41.3,0,49,0c14.3,0,14.8-5.7,18.1-5.3c1.7,0.2,1.9,1.8,3.6,1.8c3.8,0,8.4-5.5,13.5-10.6c5-5.1,19-20.5,22.7-24
		c4.2-4,14-12.4,11.7-16c-2.4-3.7-9.1,8-15.8,15.9c-3.1,3.6-14.2,17.6-23.8,23.4c-2.9,1.7-4.5-0.4-2-2.2c3.4-2.4-0.1-5.3-3.9-2
		c-6.8,5.8-14.8,7.7-24.9,7.5c-6.9-0.2-45.9,0-68,0C49.5,86,67.1,116.6,71.4,124.2z"/>
	<linearGradient id="SVGID_2_" gradientUnits="userSpaceOnUse" x1="205.9683" y1="66.9709" x2="91.7026" y2="181.2366">
		<stop  offset="0" style="stop-color:#ED1968"/>
		<stop  offset="0.9984" style="stop-color:#6252A3"/>
	</linearGradient>
	<path class="st1" d="M190.4,75.4c-9.9-0.1-19.7,0.7-21.1-3.6c-1.5-4.4,8.4-10.1,13.1-15.4c2.8-3.2-0.1-6.3-2.7-2.4
		c-4.2,6.5-8.5,11-11.8,13.6c-4.5,3.6-6.3,0.4-4.6-1.7c2-2.5,6.7-5.1,6-6.7c-1.3-2.9-5.8,4.2-8.5,7c-3,3.1-5.3,7.2-3.3,9.5
		c4.8,5.8-8.8,11,12.9,11c-5.3,9.8-47.1,81.6-53.6,92.8c-1.7-2.9-8.9-15.3-12.8-22.2c-2.6-4.6-4.1-7.3,0-12c2.9-3.3,1.9-7.5-2.2-3.2
		c-3.6,3.8-5.4,1-4.1-2c1.5-3.2,4.8-6.2,7.6-8.8c3.2-3.1,9.4-6.8,7.7-8.9c-1.5-1.9-4.4,1.4-8,5.6c-3,3.6-5,6.4-10.8,12.2
		c-5.8,5.8-6.5,12.2,0.2,23.9c5.1,8.9,19.6,33.8,22.3,38.6C124.9,188.8,186.7,81.9,190.4,75.4z"/>
	<ellipse transform="matrix(0.7071 -0.7071 0.7071 0.7071 3.4167 122.6225)" class="st2" cx="149.7" cy="57.2" rx="2.2" ry="1.5"/>
	<ellipse transform="matrix(0.7071 -0.7071 0.7071 0.7071 -29.3548 116.4492)" class="st3" cx="125.9" cy="93.7" rx="3" ry="2.1"/>
	<ellipse transform="matrix(0.676 -0.7369 0.7369 0.676 -63.09 125.1204)" class="st4" cx="110.7" cy="134.3" rx="2" ry="1.4"/>
</g>
</svg>
