<svg xmlns="http://www.w3.org/2000/svg" viewBox="0 0 200 200"><path fill="#ec2809" fill-rule="evenodd" d="M108.6 95.5c-1.8 0-3.4-1.3-3.9-3.1l-4.6-19.9-4.6 19.9c-.4 1.8-2 3.1-3.9 3.1H9c-2.2 0-4-1.8-4-4s1.8-4 4-4h79.5l7.8-33.4c.4-1.8 2-3.1 3.9-3.1s3.4 1.3 3.9 3.1l7.8 33.4H191c2.2 0 4 1.8 4 4s-1.8 4-4 4h-82.4z" clip-rule="evenodd"/><path fill-rule="evenodd" d="M75.3 145.8l-7.8-33.4H9c-2.2 0-4-1.8-4-4s1.8-4 4-4h61.7c1.8 0 3.4 1.3 3.9 3.1l4.7 19.9 5.7-24.2c.5-2.1 2.6-3.5 4.8-3 2.1.5 3.5 2.6 3 4.8L83 145.8c-.4 1.8-2 3.1-3.9 3.1s-3.4-1.3-3.8-3.1zM61.8 78.6c-1.8 0-3.4-1.2-3.9-3.1L53.4 56c-.5-2.1.8-4.3 3-4.8 2.1-.5 4.3.8 4.8 3l4.6 19.5c.5 2.1-.8 4.3-3 4.8-.4.1-.7.1-1 .1zm53.5 67.2l-9.5-40.8c-.5-2.1.8-4.3 3-4.8 2.1-.5 4.3.8 4.8 3l5.7 21.3 4.7-17c.4-1.8 2-3.1 3.9-3.1H191c2.2 0 4 1.8 4 4s-1.8 4-4 4h-60.2l-7.8 33.4c-.4 1.8-2 3.1-3.9 3.1-1.7 0-3.3-1.3-3.8-3.1zm21.3-67.2c-.3 0-.6 0-.9-.1-2.1-.5-3.5-2.6-3-4.8l4.6-19.5c.5-2.1 2.6-3.5 4.8-3 2.1.5 3.5 2.6 3 4.8l-4.6 19.5c-.5 1.9-2.1 3.1-3.9 3.1z" clip-rule="evenodd"/></svg>