<svg xmlns="http://www.w3.org/2000/svg" id="Layer_1" viewBox="0 0 200 200">
  <style>
    .st0{fill:#416eb6}.st1{fill:#114572}
  </style>
  <path d="M61.2 23.9h39c10.4 16.8 20.5 33.9 30.8 50.8 8.2.8 16.2 4.1 22.3 9.7 3.1 2.6 5.3 6 7.6 9.2 4-2 8.1-4 12.2-5.9-5.7-10.3-14.8-18.6-25.5-23-4.4-1.9-9.1-2.8-13.7-4 6.7-11.2 13.5-22.4 20.2-33.6.7-1.1 1.2-2.2 2.1-3.2 13 .1 25.9 0 38.9 0-8.4 14.4-17.1 28.6-25.7 42.8 7.6 7 13.2 16 16.9 25.7-10.1 5-20.3 9.9-30.4 14.9-1.5-3.4-2.5-7.2-4.8-10.2-1.9-3-4.5-5.5-7.4-7.5-5.4-3.7-12.1-5-18.5-4.8-10.1-16.9-20.3-34-30.7-50.8-5.2.1-10.4 0-15.6.1l49.2 81.6c3.5-5.7 6.9-11.5 10.4-17.2 2.9 2.2 5.2 5.3 6.4 8.7l-16.8 27.9c-7.7-12.7-15.3-25.3-22.8-38.1-2-3.3-4-6.7-6-10-2.2-3.6-4.4-7.3-6.6-11-1.9-3.2-3.9-6.4-5.8-9.6C78.3 53 70.3 39.2 62 25.6c-.4-.5-.6-1.1-.8-1.7zm100.3 10.3c-4 6.8-8.1 13.5-12.2 20.3 4.2 1.7 8.3 3.7 12.1 6.2 5.3-8.9 10.6-17.6 15.9-26.5-5.3-.1-10.6-.2-15.8 0z" class="st0"/>
  <path d="M67.4 103.5c1.5-10.3 5.8-20.2 12-28.4.2.1.6.2.8.3 1.7 3 3.8 5.7 5.1 8.9-6.8 10.2-9.8 23.1-8.3 35.4 1.1 9.6 4.9 18.8 10.8 26.3 7.8 10.1 19.4 17.1 31.8 19.3 11.7 2.1 24.1-.3 34.3-6.4 8-4.7 14.6-11.6 19.1-19.8-4.1-1.9-8.2-4-12.3-5.9-4.7 7.9-12.1 14.1-20.7 17-11.1 3.8-23.9 2-33.5-4.9-8.6-6-14.4-15.8-15.9-26.3-.9-7.2 0-14.6 2.9-21.3 2.4 3.6 4.4 7.5 6.8 11.1-.4 5.7-.1 11.8 2.6 17 3.9 8.4 12.1 14.6 21.2 15.9 8.6 1.3 17.8-1.8 23.8-8.3 3.9-3.8 5.9-8.9 7.8-13.9 10.1 4.9 20.3 9.9 30.4 14.8-4.6 12.4-12.6 23.5-23.4 31-16.7 11.9-39.4 14.3-58.2 6.2-13.8-5.8-25.3-16.9-31.8-30.5-5.4-11.7-7.3-24.9-5.3-37.5z" class="st0"/>
  <path d="M86.8 66.5c1.9 3.2 3.9 6.4 5.8 9.6-.2-.1-.6-.2-.8-.2-2.4 2.6-4.7 5.3-6.6 8.3-1.3-3.2-3.4-5.9-5.1-8.9-.2-.1-.6-.2-.8-.3h-.2c2.6-2.8 5.3-5.5 7.7-8.5zM99.2 87.2c2.1 3.3 4 6.7 6 10-2.5 3.4-3.8 7.5-4.9 11.5-2.5-3.6-4.5-7.4-6.8-11.1 1.5-3.6 3.7-6.7 6-9.8l-.3-.6zM143.7 89.7c2.9 2 5.4 4.5 7.4 7.5-2.1 3.3-4.1 6.8-6.2 10.1-1.3-3.5-3.5-6.6-6.4-8.7 1.7-3 3.6-5.9 5.2-8.9z" class="st1"/>
  <path d="M61.2 118.1s-6.2-9.9-12.7-21c-2-3.3-4-6.7-6-10-2.2-3.6-4.4-7.3-6.6-11-1.9-3.2-3.9-6.4-5.8-9.6C21.5 53 13.5 39.2 5.2 25.6A1 1 0 0 1 6 24h36.7c.4 0 .7.2.9.5 10.3 16.7 20.3 32.2 30.5 48.9l-6.2 9.8c-10-16.9-19.6-32-29.9-48.7-.2-.3-.5-.5-.9-.5-4.4.1-8.8 0-13.2 0-.8 0-1.3.9-.9 1.6C38.4 61.1 61.6 99 61.6 99c-1.6 11.3-.4 19.1-.4 19.1z" class="st0"/>
</svg>
