<?xml version="1.0" encoding="utf-8"?>
<!-- Generator: Adobe Illustrator 22.1.0, SVG Export Plug-In . SVG Version: 6.00 Build 0)  -->
<svg version="1.0" id="Livello_1" xmlns="http://www.w3.org/2000/svg" xmlns:xlink="http://www.w3.org/1999/xlink" x="0px" y="0px"
	 viewBox="0 0 200 200" enable-background="new 0 0 200 200" xml:space="preserve">
<path fill="#15C8FF" d="M182.6,56.2l-55.5-45.6c-6.6-5.5-15.7-7-23.8-4L36.1,31.7c-8,3-13.9,10.1-15.3,18.6L8.9,121.3
	c-1.4,8.5,1.8,17.1,8.5,22.6l55.5,45.7c6.7,5.5,15.7,7,23.8,4l67.3-25.2c8.1-3,13.9-10.1,15.3-18.6l11.8-70.9
	C192.5,70.2,189.3,61.7,182.6,56.2z M125.4,87.3c-0.7,1.7-3.1,3.6-4.9,3.8c-5.5,0.5-11.1,0.1-16.5,0.6c-1.8,0.2-4.6,1.8-5,3.3
	c-2,8.2-3.4,16.5-4.8,24.8c-1,5.3,1.4,8,6.9,7.9c4.9,0,9.8,0,14.4,0h1.6c0,0-0.1,1.5-0.1,1.5c-1.5,13.9-1.5,13.9-15.4,13.8
	c-1.8,0-3.5,0-5.3,0c-12.6-0.3-20-7.2-19.7-19.9c0.2-7.4,2.2-14.8,3.5-22.2c0.5-2.8,1-5.8,1.7-9.3c-3.5-0.3-6.5-0.4-9.9-0.8
	c-0.3-6.3,0.4-11.1,7-14.7c6.1-3.2,10.7-9,16.3-13.4c2.5-2,9.8-3.8,10.3-3.2c-1,5.5-2,11.1-3.1,17.9h24.9
	C126.6,81.4,126.6,84.6,125.4,87.3z"/>
</svg>
