<?xml version="1.0" encoding="utf-8"?>
<!-- Generator: Adobe Illustrator 16.0.0, SVG Export Plug-In . SVG Version: 6.00 Build 0)  -->
<!DOCTYPE svg PUBLIC "-//W3C//DTD SVG 1.0//EN" "http://www.w3.org/TR/2001/REC-SVG-20010904/DTD/svg10.dtd">
<svg version="1.0" id="Layer_1" xmlns="http://www.w3.org/2000/svg" xmlns:xlink="http://www.w3.org/1999/xlink" x="0px" y="0px"
	 width="374.982px" height="382.48px" viewBox="0 0 374.982 382.48" enable-background="new 0 0 374.982 382.48"
	 xml:space="preserve">
<polygon fill="#FFFFFF" points="196.15,27.898 122.65,131.648 83.15,298.148 196.15,367.148 308.65,298.148 270.15,131.648 "/>
<g>
	<polygon points="193.901,36.07 193.901,105.403 143.233,190.736 126.566,133.403 	"/>
	<polygon points="124.233,140.4 140.233,196.066 90.566,284.066 	"/>
	<polygon points="142.9,202.397 171.234,294.731 89.233,294.731 	"/>
	<polygon points="172.9,299.729 191.901,359.396 93.566,299.729 	"/>
</g>
<polygon points="178.567,299.729 213.9,299.729 196.15,357.396 "/>
<g>
	<polygon points="249.568,202.397 221.234,294.731 303.234,294.731 	"/>
	<g>
		<polygon points="198.566,36.07 198.566,105.403 249.232,190.736 265.9,133.403 		"/>
		<polygon points="268.232,140.4 252.232,196.066 301.9,284.066 		"/>
		<polygon points="219.566,299.729 200.566,359.396 298.9,299.729 		"/>
	</g>
</g>
<polygon points="216.232,294.731 176.567,294.731 145.9,196.066 196.15,109.734 246.9,196.066 "/>
</svg>
