<?xml version="1.0" encoding="utf-8"?>
<!-- Generator: Adobe Illustrator 22.1.0, SVG Export Plug-In . SVG Version: 6.00 Build 0)  -->
<svg version="1.0" id="Livello_1" xmlns="http://www.w3.org/2000/svg" xmlns:xlink="http://www.w3.org/1999/xlink" x="0px" y="0px"
	 viewBox="0 0 400 400" enable-background="new 0 0 400 400" xml:space="preserve">
<path fill="#04A9AB" d="M180.5,25.1c-13,1.4-24.2,3.9-38.3,8.5C74.2,56.1,26.3,116.1,19,187.9c-7.5,74.7,32.7,146.9,100.3,180.2
	c42.4,20.9,92.2,24.5,136.8,9.8c13.2-4.3,37.7-16.6,48.9-24.6c10.5-7.6,30-26.3,37.7-36.3c16.5-21.4,29.2-48.7,34.2-73.8
	c8.3-40.9,3.2-81.3-14.8-117.9C328.6,57.3,255.9,17.2,180.5,25.1z M218,40.1c20.9,2.5,37,7.3,55.5,16.5c17,8.4,29.4,17.3,43.5,31.4
	c24.1,24.1,39.5,52.8,46.2,86.3c3,14.9,3.2,46.2,0.5,60.2c-6.7,33.5-21,61.9-43.2,85.3c-33.4,35.4-79,53.9-127.9,51.9
	c-24.8-1.1-44.5-6.1-67.1-17.3c-17-8.4-29.4-17.3-43.5-31.4c-14-14-22.9-26.4-31.4-43.5c-17.1-34.6-21.7-70.3-14-108.5
	c4-19.8,14.9-44.6,27.2-62c8.6-12.2,27-30.6,39.2-39.2C135.9,46.5,179.4,35.3,218,40.1z"/>
<linearGradient id="SVGID_1_" gradientUnits="userSpaceOnUse" x1="47" y1="205.6665" x2="352.333" y2="205.6665">
	<stop  offset="0" style="stop-color:#815812"/>
	<stop  offset="0.5" style="stop-color:#FDF2B2"/>
	<stop  offset="1" style="stop-color:#815812"/>
</linearGradient>
<path fill="url(#SVGID_1_)" d="M199.7,358.3C115.5,358.3,47,289.8,47,205.7S115.5,53,199.7,53c84.2,0,152.7,68.5,152.7,152.7
	S283.8,358.3,199.7,358.3z M199.7,57C117.7,57,51,123.7,51,205.7c0,82,66.7,148.7,148.7,148.7s148.7-66.7,148.7-148.7
	C348.3,123.7,281.6,57,199.7,57z"/>
<path fill="#04A9AB" d="M226,121.1c-9.2,2.4-19.8,8.6-27.1,15.8c-8.7,8.7-8.7,7.3,0.5,26.1c4.3,8.8,7.1,16.2,7.7,13.5
	c0.4-1.7,6.8-18,14.6-24.4c6.4-5.3,20.5-6.7,28-2.8c3.3,1.7,8,6,10.3,9.4l1.5,2.2l10.8-4.9c5.9-2.7,11.8-5.7,13.1-6.7
	c2.4-1.8,2.4-1.8,0.5-5.4c-2.7-5.5-11-14-17.1-17.6C257.4,119.4,240.3,117.3,226,121.1z"/>
<path fill="#04A9AB" d="M158.8,120c-0.3,0.4-0.6,1-0.9,1.6c-0.6,1-63.8,132.7-63.8,133c0,0.2,19.1,0.4,42.5,0.4c27.7,0,43.2,0,44,0
	s1.9-0.1,1.5-1.5c-0.1-0.3-8.9-20.5-8.9-20.5H150c-19.3,0-23.1-0.2-22.7-1.4c2.2-5.6,31.2-64.6,31.8-64.6c0.4,0,0.9,0.6,1.1,1.4
	c0.2,0.7,9.5,20.5,20.8,44l20.5,42.6h10.8c7,0,10.3,0,11.2,0c0.9,0,1.9-0.1,1.3-3.4c-0.7-3-63.6-130.9-64-131.6
	C160.5,119.4,159.1,119.5,158.8,120z"/>
<path fill="#04A9AB" d="M257.5,220.8c-5.8,5.2-17.9,7.5-24.3,7.7c-1.4,0-2.2-0.4-2.2-0.2c0,0.3,2.9,6.4,6.4,13.5l6.5,13l4.8-0.9
	c10.7-1.9,20.9-7.6,29-16.1c4.8-5,9.3-11.5,9.3-13.4c0-1.2-19.3-13.4-21.2-13.4C265.4,211,262.9,215.8,257.5,220.8z"/>
<path fill="#119AA0" d="M196.6,303.6c-0.9,6.1-1.4,11.8-1,12.9c0.5,1.2,0.4,1.6-0.4,1.1c-1.5-0.9-4.2-10.1-4.2-14.4
	c0-5.3-1-3.2-2.5,5l-1.2,7.3l-2.2-4.5c-1.1-2.5-2.1-5.3-2.1-6.3s-0.4-1.6-0.8-1.3c-0.9,0.5,0,11.6,1.2,15.3c1.2,3.8-0.9,2.6-6.4-3.5
	l-5.1-5.7l2,5.2c2.7,7,6.3,12.6,9.8,15.2c1.5,1.1,3.4,2.6,4.1,3.2c1,0.8,2.8,0.8,6.2,0.2c2.7-0.6,7-0.7,9.6-0.3
	c2.6,0.4,5.2,0.4,5.8-0.1c6.8-5.3,9.1-8,12.2-14.6c2-4.1,3.4-7.6,3.2-7.9c-0.2-0.2-1.7,1.3-3.3,3.4c-1.5,2-4.2,4.8-5.9,6.2
	c-2.6,2.2-2.9,2.3-2.2,0.5c1.1-2.7,2.8-16.6,2.2-17.3c-0.3-0.3-0.8,0.4-1.1,1.4c-0.4,1-1.6,3.9-2.8,6.4l-2.1,4.5l-0.8-6.4
	c-1.1-7.7-2.7-11.4-2.8-6.1c0,3.2-1.3,9.4-2.7,13c-0.3,0.8-1.2-3-1.9-8.6C199.3,291.4,198.6,290.8,196.6,303.6z"/>
<linearGradient id="SVGID_2_" gradientUnits="userSpaceOnUse" x1="166.04" y1="338.125" x2="230.46" y2="338.125">
	<stop  offset="0" style="stop-color:#815812"/>
	<stop  offset="0.5" style="stop-color:#FDF2B2"/>
	<stop  offset="1" style="stop-color:#815812"/>
</linearGradient>
<path fill="url(#SVGID_2_)" d="M166,345c8.9-8.9,16.5-13.8,32.2-13.8s23.5,5.1,32.2,13.8c-6.8-6.8-16.6-10.3-32.2-10.3
	S172.8,338.2,166,345z"/>
</svg>
