<svg xmlns="http://www.w3.org/2000/svg" viewBox="0 0 200 200"><linearGradient id="a" x1=".6319" x2="1.0396" y1="200.5844" y2="199.7572" gradientTransform="matrix(291 0 0 -291 -145 58346)" gradientUnits="userSpaceOnUse"><stop offset="0" stop-color="#fade2f"/><stop offset="1" stop-color="#f2ba15"/></linearGradient><path fill="url(#a)" d="M11.1 133.6C7.2 123.2 5 111.8 5 100 5 47.5 47.5 5 100 5c37.2 0 69.5 21.4 85 52.6h-36c-11.9-13.7-29.4-22.4-49-22.4-35.8 0-64.8 29-64.8 64.8 0 12.3 3.4 23.8 9.4 33.6H11.1zm5.4 11.7h37.2c11.8 12 28.2 19.5 46.3 19.5 35.8 0 64.8-29 64.8-64.8 0-11.1-2.8-21.6-7.7-30.7H190c3.3 9.6 5.1 20 5.1 30.7 0 52.5-42.5 95-95 95-36.2 0-67.5-20.1-83.6-49.7z"/></svg>