<svg xmlns="http://www.w3.org/2000/svg" version="1" viewBox="0 0 200 200"><path d="M155.35 34.28c1.46.79 4.47 1.85 5.92 2.05l.98.14-.39-1.08c-.2-.61-.67-1.69-1.04-2.42-2.52-5-6.73-8.52-12.45-10.39-2.11-.69-2.4-.71-2.4-.24 0 .2.3 1.1.67 2.01 1.73 4.24 4.86 7.82 8.71 9.93zM40.52 35.93c3.93-1.12 7.49-3.44 9.87-6.41 1.22-1.51 3.21-5.27 3.62-6.77.22-.89.18-.91-1.91-.33-4.72 1.34-8.93 4.43-11.68 8.52-1.02 1.53-2.46 4.62-2.46 5.29 0 .33.61.25 2.56-.3zm126.89 5.27c.81 1.38 3.91 4.8 4.35 4.8.35 0 .53-3.76.28-6.14-.57-5.45-2.38-9.52-5.88-13.16l-1.85-1.95-.16.59c-.26 1.04.06 6.41.53 8.67.49 2.45 1.53 5.14 2.73 7.19zm-17.09 65.42c4.01-8.05 5.8-15.87 5.82-25.18 0-11.53-3.19-22.34-9.34-31.49-7.12-10.62-16.48-17.8-28.5-21.87-3.48-1.18-7.38-2.08-10.98-2.52-2.52-.31-8.73-.53-10.68-.39-8.54.67-15.66 2.62-22.86 6.28-8.08 4.11-15.56 10.86-20.83 18.82-1.63 2.44-4.64 8.48-5.76 11.49-1.1 3.03-2.38 8.42-2.95 12.51-.37 2.58-.37 10.9-.02 13.32 1.24 8.2 2.99 14.18 5.86 19.77 7.38 14.46 21.4 25.3 37.31 28.82 4.86 1.06 6.61 1.24 12.71 1.24 6.08 0 7.91-.18 12.59-1.24 16.36-3.65 30.13-14.49 37.63-29.56zM92.19 34.37c1.87.1 2.32-.06 2.32-.92 0-.61.85-1.48 1.47-1.48.26-.02.98-.43 1.59-.91 1.87-1.53 1.85-1.59 1.79 3.29l-.06 4.23-5.53.06c-4.15.04-5.55-.02-5.55-.18 0-.14.51-1.14 1.14-2.22l1.14-1.99 1.69.12zm-11.31-.66c.55-.08.91-.3 1.3-.81.55-.73 2.73-1.95 3.46-1.95.26 0 .65.33 1 .82.33.45.71.81.9.81.45 0 1.95-.45 2.2-.65.65-.57.69.43.06 1.32-.26.37-1.08 1.71-1.81 2.99l-1.34 2.34-3.74-.08c-3.42-.06-3.78-.1-4.13-.47-.22-.22-.79-.59-1.28-.81-.47-.2-.88-.47-.88-.59-.01-.39 3.49-2.79 4.26-2.92zm-9.24 4.28c.18-.45 4.35-3.17 4.86-3.15.12 0-.61.77-1.63 1.71-1.61 1.51-1.93 1.71-2.58 1.73-.57-.01-.73-.09-.65-.29zm-.81 1.5c.59 0 .71.06.61.33-.06.18-.12.41-.12.51s-.14.18-.31.18c-.18 0-.37.14-.43.31-.22.57-.49.3-.49-.51.01-.8.03-.82.74-.82zm-6.26 19.55c.55-.85 1.26-2.03 1.57-2.62.67-1.22 1.53-1.91 3.56-2.77 2.05-.88 2.6-1.63 1.53-2.12-.28-.14-.51-.41-.51-.63 0-.3.22-.45 1.02-.61.57-.12 1.06-.22 1.1-.22.04 0 .16.37.3.81l.24.81h1.38c1.36 0 1.4-.02 2.34-.88 1.26-1.18 1.24-1.57-.06-1.57-.63 0-1.08.1-1.24.3-.26.33-1.12.43-1.3.14-.04-.08-.2-.71-.35-1.42-.26-1.26-.26-1.26.3-1.85.33-.33.81-.69 1.12-.79 1.02-.37 3.26-.85 3.86-.85 2.05 0 3.7-2.03 3.4-4.19l-.12-.89h1.75c.96 0 1.71.06 1.67.14-2.24 5.04-4.35 12.47-5.37 18.82l-.35 2.2h-8.42c-4.62 0-8.4-.06-8.4-.14 0-.06.45-.81.98-1.67zm-5.01 6.78c.1-.06.47.12.79.45.33.3.63.51.69.47.04-.06 0-.88-.1-1.83-.1-.94-.2-1.95-.2-2.28v-.55h19.57l-.12.55c-.43 2.14-1.12 11.45-1.2 16.44l-.04 2.44-10.64.04c-9.72.04-10.66 0-10.76-.31-.2-.53.3-7.53.75-10.15.51-3.06 1-5.11 1.26-5.27zm39.83 26.56v9.76l-3.5-.04c-3.36-.06-3.52-.08-3.56-.47-.26-2.75-.24-2.66-1.04-3.03-1.14-.49-5.37-1.67-7.77-2.16-2.95-.59-2.77-.49-2.93-1.55-.18-1.42-.57-11.66-.45-12 .1-.24 1.53-.29 9.68-.29h9.56l.01 9.78zm-15.64 26.18c.06.1.39.85.69 1.69.33.83.88 2.2 1.24 2.99l.67 1.48H83.4c-1.61 0-2.93-.06-2.93-.12s.22-.41.49-.75c.77-1.04 1.3-2.22 1.44-3.29.15-1.01 1.04-2.33 1.35-2zm-8.59-28.83c-1.83 0-2.97-.67-4.23-2.5l-1.06-1.53-1.63-.24c-.9-.12-2.03-.16-2.54-.08-1.3.18-2.58-.35-3.36-1.4-.33-.45-.59-.94-.59-1.1 0-.39 17.07-.41 17.19-.02.16.57.24 10.11.08 10.01-.1-.06-.18-.3-.18-.53.01-1.35-1.76-2.61-3.68-2.61zm.63 34.83c0 .1-.45.16-1 .16h-1l-1.77-1.99c-2.2-2.44-3.76-4.52-5.31-6.98-1.65-2.67-4.15-7.67-4.15-8.3.02-.49.04-.51.29-.16.18.22.83.49 1.67.67 2.46.51 3.78 1.83 4.43 4.47.43 1.73.96 2.73 2.2 4.25.55.67 1.4 2.03 1.89 3.01.61 1.24.91 1.69.98 1.42.06-.22.1-.14.12.24.02.35.39 1.16.83 1.83.46.69.82 1.3.82 1.38zM59.54 88.58c-.35 1.48-.63 3.01-.65 3.4 0 .39-.08.9-.18 1.12-.16.37-.18.37-.18-.12-.02-.28-.1-.59-.2-.71-.37-.39-1.04-8.4-.77-9.11.12-.3.18-.3.59.02.24.2.75.65 1.1 1 .98.92 1.02 1.39.29 4.4zM50.77 71.9c.24-.3.43-.37.55-.24.26.26.45-.9.57-3.29.12-2.32.9-3.44 2.93-4.19.73-.27 3.13-.27 3.4 0 .08.08-.14 1.61-.51 3.42-.35 1.79-.77 4.52-.96 6.04-.18 1.53-.37 3.11-.43 3.5l-.1.69-.39-.49c-.83-1.08-1.4-2.52-1.4-3.52v-1l-.85.14c-.49.08-1.18.28-1.57.43-.39.16-.71.26-.71.24-.02-.04-.22-.35-.45-.67-.42-.62-.42-.66-.08-1.06zm-5.04 8.37c-.12-2.11.51-7.28 1.32-11.09.3-1.42 1.14-4.15 1.69-5.59l.24-.61.31.71c.24.57.29 1.26.18 3.66-.26 6.31.55 8.81 4.01 12.53.75.81 1.36 1.51 1.36 1.55 0 .06-2.03.08-4.52.08l-4.54-.02-.05-1.22zm4.07 21.87l-.85-2.4c-1.06-2.97-2.1-7-2.54-9.8-.35-2.26-.71-6.92-.57-7.18.04-.08 2.36-.14 5.15-.14h5.05l.12 1.26c.06.71.16 2.38.22 3.72.06 1.34.3 3.72.57 5.29.24 1.63.43 3.52.39 4.43-.04 1.59.1 2.14 1 3.4.18.28.41.71.49.96l.12.47H49.8zm17.47 22.58l-1.89-1.57c-3.95-3.28-7.77-7.57-10.7-12-1.47-2.26-4.11-7.2-4.11-7.73 0-.43 8.54-.28 8.77.14.1.16.51 1.22.91 2.34.92 2.52 3.07 6.9 4.66 9.46 1.24 1.99 4.01 5.72 5.8 7.79.57.65 1.02 1.26 1.02 1.36 0 .12-.96.2-2.24.2h-2.22zm7.63 4.72c-2.66-1.36-5-2.91-5-3.29 0-.12.71-.2 1.75-.2h1.73l1.77 1.59c.98.85 2.3 1.97 2.95 2.48.63.51 1.16.98 1.16 1.04-.01.33-1.98-.38-4.36-1.62zm.92-2.97l-.49-.53h.9c.89 0 .89.02 1.89 1.55.55.83 1.32 1.79 1.73 2.14.41.32.65.59.59.59-.21-.01-4.04-3.1-4.62-3.75zm18.95 9.24c-.83 0-4.43-.77-6.06-1.32-.89-.28-2.36-.91-3.25-1.36-.9-.47-2.05-1.06-2.58-1.32-1.02-.51-1.28-.79-.57-.59.22.06.59.18.81.24.35.1.41.02.41-.61 0-.61-.16-.85-1.24-1.79-2.11-1.83-2.42-2.16-2.42-2.58 0-.41.1-.43 3.54-.43h3.56l.94 1.57c1.83 3.01 4.6 6.2 6.71 7.75.56.39.56.41.15.44zm4.62.04l-1.08-.08c-1.22-.1-2.68-.98-4.7-2.83-1.53-1.38-4.01-4.6-4.98-6.45l-.24-.45h11v9.81zm-11.74-11.03l-.26-.57c-1-2.14-1.89-4.35-2.24-5.61-.22-.79-.53-1.87-.69-2.42l-.3-.96.61-.71c.35-.39.77-.71.94-.71.16 0 .49-.22.71-.51.29-.37.59-.51 1.1-.51 1 0 1.1-.43 1.1-4.56v-3.5l1.49-.63c.79-.35 1.61-.69 1.77-.73.16-.06 1.91-.1 3.86-.08l3.56.04.06 10.72.04 10.74H87.65zm11.7-52.95l-.06 9.72H80.17l.06-3.26c.1-5.04.81-14.87 1.16-15.93.06-.18 2.05-.24 9.05-.24h8.95l-.04 9.71zm.04-21.5v10.58h-8.85c-8.6 0-8.85-.02-8.85-.39 0-.65 1-5.84 1.63-8.48.94-3.93 3.4-11.11 4.13-12.04.14-.18 1.61-.24 6.06-.24h5.88v10.57zm48.39 5.5c.08 0 .57.89 1.08 1.97.53 1.1 1 2.24 1.06 2.54.12.57.12.57-.98.57-1.06 0-1.12-.04-1.57-.73-.26-.43-.47-1.1-.47-1.59-.01-.83.6-2.76.88-2.76zm-2.44 7.13c1.22.57 2.26.73 2.95.47.22-.08.26-.28.18-.71l-.1-.59h2.4l.53 1.38c.73 1.87 1.69 5.51 2.2 8.38.45 2.52.96 8.91.75 9.44-.12.29-.49.35-2.58.31-1.34 0-2.48-.1-2.54-.18-.06-.1.26-.88.71-1.73 1.12-2.14 1.36-3.84.81-5.63-.47-1.49-.79-1.91-2.79-3.6-1.99-1.69-4.27-5.15-4.72-7.16-.32-1.43-.16-1.45 2.2-.38zm-2.46 37.53c.55-.67 1.53-1.99 2.16-2.91 1.44-2.08 1.59-2.85 1.51-8.1l-.06-3.66.75-1.59.75-1.57h3.07c2.46 0 3.09.06 3.17.28.16.41-.26 5.29-.65 7.55-.41 2.46-1.51 6.63-2.46 9.36l-.77 2.24-4.21.06c-3.05.04-4.23-.02-4.23-.18-.01-.11.44-.78.97-1.48zm-19.63-53.41c1.2 0 1.2 0 1.08-.53-.08-.3-.2-.79-.26-1.12l-.1-.59h2.64l.2.96c.12.55.28 1.32.35 1.75.12.63.3.85 1.04 1.28.49.28.9.65.9.81 0 .53.3.29.65-.53.3-.75.39-.81 1.14-.81.73 0 .91.14 2.71 1.97 1.42 1.48 1.99 2.24 2.24 2.95.18.53.29 1.02.22 1.08-.06.06-.41.1-.77.1-.47 0-.96-.24-1.69-.81-.57-.45-1.14-.81-1.3-.81-.65 0-1.95 1.91-1.97 2.91 0 .71-.57.57-2.22-.55-1.08-.75-2.16-1.28-3.11-1.57-1.77-.51-2.2-.94-2.2-2.14 0-.77-.06-.89-.53-1.02-.53-.14-.98.02-3.19 1.02-.85.39-1.2.47-1.26.29-.33-.96-1.32-4.82-1.32-5.15 0-.47 1.47-1.53 2.08-1.53.63 0 1.77.57 2.64 1.32.73.64.95.72 2.03.72zm-18.61 19.81c.61.67.69 1.55.18 2.24-.3.43-.43.94-.45 1.63v1.02l1.26.73c1.71.98 2.2 1.48 3.05 3.09.41.79 1.18 1.81 1.83 2.42 1.06 1 1.14 1.04 1.95.91.47-.08 1.22-.35 1.67-.57.67-.37 1.24-.47 3.21-.53l2.38-.08v3.91h-9.56l-9.56-.02V62.07h2.05c1.89 0 2.04.02 1.89.34-.1.2-.2 1.18-.24 2.18-.05 1.55-.01 1.85.34 2.24zm15.09 15.79v3.42c0 4.8-.75 15.32-1.14 15.95-.06.08-4.13.16-9.05.16h-8.93V82.62h19.12zm-.3 22.06c.08-.57.16-1.14.2-1.28.06-.18 1.32-.24 5.37-.24 4.86 0 5.29.02 5.39.35.16.57.49 2.85.63 4.64.14 1.71.41 2.4 1.1 3.03.35.3.65.37 1.85.29.77-.04 1.42-.06 1.42-.04s-.26.61-.59 1.32c-1.26 2.75-3.86 6.45-7.02 9.99l-1.79 1.99h-6.18c-3.4 0-6.18-.04-6.18-.1s.18-.49.43-.94c.77-1.55 2.2-5.37 3.03-8.22.77-2.69 2.07-8.61 2.34-10.79zm1.58-22.07l3.34.04 3.34.06.47 1.12c.24.61.98 2.03 1.63 3.15.88 1.48 1.24 2.36 1.38 3.29l.22 1.26-1.16 2.4c-1.3 2.75-1.34 3.11-.75 6.1.2 1.04.3 1.93.26 1.99-.06.06-2.3.1-4.98.1h-4.88l.14-1.48c.57-5.84.73-8.4.85-12.92l.14-5.11zm.04-3.15c.16-1.77.1-1.73 2.54-1.22.79.16 1.99.32 2.68.32 1.18.04 1.24.06 1.51.71.41.96.37 2.03-.06 2.2-.18.08-1.75.12-3.46.1-2.52-.02-3.15-.08-3.26-.31-.05-.15-.03-.96.05-1.8zm-8.99-45.16c.91.1 1.4.26 1.79.63.85.81 1.61.57 1.61-.51 0-.2-.41-.73-.91-1.2-.63-.57-.91-1-.91-1.34 0-.55.28-.69.53-.3.22.37 2.16 1.51 3.4 1.99l1.16.47v4.33l-2.79-.02-2.81-.04-1.16-2.08-1.16-2.08 1.25.15zm-4.21-5.18c.61 0 1.1.12 1.34.35.37.33.45 1.14.18 2.05-.1.43-.22.35-1.3-.96l-1.18-1.44h.96zm-7.24 2.89l.59-.1c.33-.06.85-.35 1.16-.63.57-.51.65-.53 2.52-.41 1.91.12 1.93.12 2.6.86.88 1 2.67 3.66 3.6 5.37l.75 1.38h-1.61c-.9 0-3.42.06-5.61.14l-4.01.12v-6.73zm0 7.66l3.52.08c1.91.06 4.33.22 5.33.41 1.91.3 2.14.3 2.14-.16 0-.24.26-.45.63-.49.06-.02.23.2.35.49.39.81.3 1.81-.16 2.24-.3.29-.69.37-1.49.33-.59-.02-1.32.04-1.63.16-.47.18-.55.33-.55 1.02s.06.81.55.94c.91.22 1.69.89 1.69 1.46 0 .29-.26.85-.61 1.28-.77.98-.83 2.16-.16 3.05.43.57.53.61 1.89.61h1.44l.24-1.26c.16-.88.41-1.42.79-1.83.3-.3.61-.57.69-.57.3 0 1.22 3.91 1 4.25-.06.12-1.12.43-2.36.67-1.65.35-2.4.61-2.95 1.02-.41.32-.94.57-1.16.57-.43 0-.45.1-.45 1.71v1.71l-.89.12c-1.02.16-1.22.37-2.18 2.09l-.69 1.28h-4.98V39.67zm0 63.49h8.83c4.86 0 8.89.06 8.95.16.12.2-.75 5.15-1.4 7.89-1.1 4.66-2.68 9.36-4.15 12.24l-.63 1.26h-11.59v-21.55zm.94 32.55h-.94v-9.76h11.02l-.47.75c-1.93 3.23-4.8 6.43-7.22 8.05-1.21.79-1.6.96-2.39.96zm5.47-.47l-1.63.1 1.57-1.47c1.73-1.59 4.21-4.76 5.29-6.71l.67-1.22h5.78c5.72 0 5.78 0 5.41.41-.67.73-4.47 3.62-6.2 4.7-3.77 2.34-8.11 4-10.89 4.19zm22.74-8.87c-.16.59-2.01 1.75-5.96 3.7-1.85.91-3.42 1.69-3.5 1.73-.1.04-.16-.1-.16-.33 0-.24.65-.89 1.89-1.83 1.02-.79 2.42-1.95 3.09-2.56l1.22-1.12 1.77-.02c1.69 0 1.75.02 1.65.43zm3.72-2.3c-1 .63-1.04.65-3.42.65h-2.42l1.53-1.71c2.99-3.36 5.41-6.98 7.42-11.09.65-1.3 1.59-2.95 2.1-3.68.75-1.1 1.65-2.93 2.26-4.74.12-.3.51-.35 4.31-.35 3.84 0 4.17.02 4.17.35-.02.98-3.54 7.12-5.96 10.39-1.83 2.45-8.38 9.14-9.99 10.18zM30.82 43.68c2.26-2.6 3.58-5.37 4.54-9.48.39-1.67.75-8.05.53-9.05-.08-.35-.35-.14-1.71 1.22-3.66 3.66-5.7 8.14-6.16 13.61-.18 2.18-.06 5.76.18 5.92.22.14 1.62-1.06 2.62-2.22zm-8.85 18.06l-.37.59 1.71-.14c7.2-.61 12.47-2.6 16.29-6.18 1.47-1.36 3.64-4.19 3.4-4.41-.14-.14-2.38-.26-3.32-.18-5.7.55-10.29 2.5-14.03 6.02-1.28 1.17-2.87 3.04-3.68 4.3zm28.64-19.09l-.69-.26c-1.89-.79-6.43-1.22-8.79-.85-2.05.33-4.21 1-6.16 1.93-1.85.88-4.58 2.6-5.23 3.34-.33.35-.31.39.53.59 3.99 1 9.01.77 13-.59 1.81-.61 4.52-2.03 6.04-3.17l1.3-.99zM32.16 76.04c.32-1.75.41-3.19.14-3.19-.08 0-.96.41-1.93.9-6.12 3.07-10.17 8.81-11.45 16.23-.16 1-.28 1.95-.24 2.11.04.22.41.12 1.59-.49 6.36-3.21 10.59-8.74 11.89-15.56zm-3.62 50.72c.06.06.51-.37 1.02-.92 3.19-3.56 5.45-8.2 6.27-12.86.57-3.28.29-7.99-.65-11.13l-.37-1.2-1.1 1.2c-2.85 3.09-4.86 7.47-5.64 12.25-.43 2.6-.41 7.42.02 10.31.19 1.23.39 2.28.45 2.35zm-7.16-67.54c1.89-2.91 3.28-6.43 3.76-9.56.51-3.36.2-7.97-.77-11.39l-.39-1.3-.93 1.2c-1.81 2.3-3.32 5.92-3.93 9.48-.47 2.73-.33 8.01.33 11.13.53 2.62.53 2.62 1.93.44zm5.31 47.3c4.54-4.52 6.79-9.76 7.14-16.64.1-1.97.08-2.38-.16-2.38-.16 0-1.02.53-1.91 1.16-5.35 3.78-9.05 9.74-10.15 16.33-.3 1.85-.51 5.39-.3 5.57.21.25 3.71-2.4 5.38-4.04zm11.88 35.59c.28.16 2.14-2.85 3.05-4.9.47-1.06 1.08-2.81 1.38-3.91.49-1.83.53-2.28.53-6.04 0-3.74-.04-4.23-.53-6-.57-2.08-1.77-5.29-1.97-5.29-.08 0-.55.61-1.04 1.36-2.01 3.09-3.46 7.3-3.91 11.43-.26 2.56.02 5.8.75 8.64.54 2.03 1.45 4.55 1.74 4.71zm118.91-90.66l-.57.14 1.04 1.55c3.44 5.15 10.01 8.34 18.59 9.03.98.08 1.77.08 1.77 0 0-.33-1.59-2.32-3.05-3.82-4.15-4.33-9.17-6.57-15.46-6.94-.95-.04-1.99-.04-2.32.04zm22.58 9.56c.2-.22.91-4.19 1.12-6.39.55-5.96-1.1-12.49-4.15-16.41l-.94-1.2-.41 1.4c-2.16 7.16-.9 15.32 3.23 21.17.58.84 1.11 1.47 1.15 1.43zm3.87 31.17c.39 0 3.44-2.12 4.49-3.09 3.11-2.97 5.27-7.32 6.16-12.53.41-2.3.55-5.74.26-5.74-.1 0-.75.36-1.48.79-5.51 3.34-8.83 9.87-9.46 18.67-.07 1.04-.05 1.9.03 1.9zm.06-15.87c.06 0 .51-.53 1-1.18 1.14-1.51 2.56-4.43 3.07-6.29 1.2-4.37 1.04-10.05-.41-14.97-.22-.75-.45-1.36-.49-1.36-.04 0-.49.49-1 1.06-1.28 1.47-2.68 4.25-3.34 6.63-.47 1.81-.53 2.3-.53 5.84 0 3.99.14 5.04 1.12 8.65.23.89.5 1.62.58 1.62zm-22.54 65.9c.2 0 1.36-3.17 1.79-4.9 1.14-4.49 1.08-8.83-.18-13.4-.45-1.65-2.75-6.45-3.54-7.4l-.49-.59-.3.59c-1.26 2.48-2.18 6.22-2.32 9.66-.18 4.31.49 7.73 2.28 11.51.87 1.87 2.5 4.53 2.76 4.53zm7.67-96.37c-4.35-3.23-10.19-4.96-14.91-4.37-1.22.14-4.37.91-4.47 1.08-.2.33 2.18 2.01 4.27 3.05 3.66 1.81 7.4 2.58 11.39 2.38 1.87-.1 5.11-.61 5.33-.83.04-.03-.7-.62-1.61-1.31zm12.79 31.22c.18-.2-.57-2.24-1.59-4.21-2.83-5.55-7.91-9.46-14.3-10.98-2.24-.55-2.18-.57-1.75.55 1.32 3.48 3.03 6.18 5.37 8.52 1.93 1.91 3.5 3.01 6.08 4.27 1.74.83 5.95 2.1 6.19 1.85zm-.55 15.32v-.63c0-1.02-.77-4.52-1.34-6.12-1.91-5.31-5.57-9.52-10.35-11.9-1.87-.95-2.14-.99-2.14-.41 0 1.08.69 4.41 1.26 6.04 1.85 5.29 5.61 9.52 10.8 12.12l1.77.9zm-11.06 33.14l1.2 1.3.24-1.08c.43-1.99.73-6.14.59-8.44-.26-4.03-1.1-7.34-2.66-10.5-1.08-2.2-1.85-3.34-3.36-4.92l-1.16-1.24-.45 1.87c-.88 3.74-1.04 6.69-.55 10.01.74 4.82 3 9.6 6.15 13zm7.63-15.34l1.06.57-.14-2.32c-.16-2.7-.73-5.67-1.47-7.75-1.24-3.5-3.7-7.26-6.37-9.78-1.42-1.34-4.17-3.4-4.56-3.4-.12 0-.16 1.1-.08 2.99.2 5.55 1.77 9.76 5.35 14.26 1.47 1.85 4.5 4.49 6.21 5.43zm5.49 19.04c-3.8.37-7.81 1.83-11.11 4.05-3.01 2.03-6.43 5.78-8.05 8.81l-.63 1.2 1.69-.12c9.32-.75 16.31-5.13 20.02-12.51.39-.77.71-1.46.71-1.53-.01-.15-.27-.13-2.63.1zm-110.15 9.35c-1.16 3.36-1.57 9.91-.85 13.71.73 3.86 1.97 7 3.95 9.91 1.04 1.55 2.81 3.62 3.09 3.62.08 0 .35-.94.59-2.1 1.49-7.12.83-13.53-1.93-19.08-1.37-2.74-4.6-6.79-4.85-6.06zm90.5 8.95c-5.43.83-10.15 3.07-14.14 6.67-1.1 1-1.04 1.06 1.3 1.53 8.32 1.61 15.52.47 21.32-3.4 1.63-1.08 4.23-3.42 4.23-3.78 0-.1-1.04-.39-2.28-.63-2.58-.51-8.29-.73-10.43-.39zm30.15-37.42c-.24.02-.81.1-1.26.2-3.17.73-7.06 2.48-9.42 4.25-3.97 2.95-6.47 6.37-8.1 11.07-.65 1.91-.65 1.97.29 1.73 6.59-1.73 11.8-5.07 15.34-9.83 1.28-1.73 2.79-4.64 3.29-6.39.3-1.05.3-1.05-.14-1.03zm-90.89 52.5c-.08-.08-2.91-7.3-2.95-7.34-.04-.04-.16.14-.27.41-.1.26-2.68 7-2.73 7.02-.02.02-7.59.46-7.75.81s6.13 5.49 6.08 5.64c-.08.2-1.61 5.02-2.22 7.02-.12.35 6.75-4.03 6.84-4.03s6.88 4.37 6.88 4.29c0-.06-2.4-7.57-2.4-7.57s6.59-5.39 6.43-5.49c-.14-.07-7.85-.68-7.91-.76zm90.34-74.57c-2.58 1.44-5.39 4.03-7.06 6.49-2.52 3.74-4.29 9.01-4.66 13.81l-.14 1.83 1.2-.67c1.91-1.08 3.72-2.5 5.49-4.33 4.09-4.21 6.24-9.28 6.53-15.28.06-1.42.08-2.58.04-2.58-.04-.01-.67.32-1.4.73zm-32.14 75.44c-4.74-2.4-10.36-3.48-15.26-2.93-3.19.35-7.42 1.65-9.74 2.99l-.88.51.77.49c2.81 1.75 6.24 3.07 9.34 3.62 2.38.43 6.63.43 9.09 0 2.22-.39 6.08-1.63 7.91-2.54 1.51-.78 1.56-.73-1.23-2.14zm-10.01-37.59c-1.67 1.79-3.7 5.31-4.72 8.16-1.89 5.33-1.93 12.18-.08 17.94l.43 1.3.81-.9c1.89-2.11 3.74-5.45 4.68-8.44 1.51-4.82 1.55-11.04.12-16.48-.61-2.23-.61-2.23-1.24-1.58zm-12.33 8.16c-3.84 4.48-5.8 9.24-6.35 15.36-.22 2.6-.02 5.98.53 8.63.53 2.58.43 2.52 1.95.91 4.64-4.92 7-12.41 6.31-19.99-.22-2.5-.75-5.51-1.06-6.06-.1-.19-.48.13-1.38 1.15zm-11.45 7.34c-.59-2.91-.61-3.03-.79-3.03-.1 0-.73.67-1.44 1.46-2.6 3.03-4.23 6.14-5.23 10.11-.51 2.03-.55 2.42-.55 6.73.02 3.99.08 4.86.49 6.71.24 1.18.53 2.22.61 2.3.24.24 2.16-1.95 3.46-3.93 3.63-5.56 4.92-13.13 3.45-20.35zm6.27 27.2c-2.34-.35-7.02-.39-9.5-.08-.83.1-1.61.26-1.69.35-.26.26 3.15 3.72 4.78 4.84 2.77 1.91 5.78 3.17 9.15 3.82 3.44.67 8.56.61 11.96-.16l1.12-.26-1.75-1.75c-3.68-3.71-8.28-5.91-14.07-6.76zm-66.26-.19c-4.54.49-9.38 2.28-12.59 4.64-1.34 1-4.09 3.64-4.09 3.97 0 .51 5.49 1.1 8.85.96 7.02-.35 12.82-2.99 17.01-7.77.57-.65.96-1.24.85-1.32-.47-.46-7.28-.78-10.03-.48zm-31.2-25.22c.08-.06-.16-.63-.53-1.26-2.22-3.87-6.04-7.67-9.97-9.91-2.56-1.47-6.65-2.62-10.21-2.89l-1.57-.12.18.51c.35.91 1.06 2.22 1.89 3.46 3.19 4.78 8.05 8.1 13.83 9.46 1.8.43 6.2.93 6.38.75zm-10.9-16.01c0-1.14-1.73-4.96-3.26-7.22-1.85-2.71-4.37-5.07-7.24-6.73-1.59-.94-4.47-2.1-6.53-2.62-2.26-.59-2.5-.61-2.5-.2 0 .51 1 2.99 1.85 4.58 3.15 5.84 8.87 10.15 16.21 12.18 1.43.38 1.47.38 1.47.01zm-7.94-17.63l1.02.57v-1.08c0-1.48-.53-4.6-1.12-6.69-1.83-6.43-5.39-11.25-10.45-14.22-.77-.45-1.47-.81-1.53-.81-.06 0-.12.57-.12 1.28 0 6.04 2.38 12.1 6.43 16.41 1.46 1.55 4.05 3.58 5.77 4.54zM15.44 75.6l.71.81.41-1.42c.98-3.32 1.16-4.7 1.16-8.95-.02-4.66-.3-6.2-1.73-9.15-.73-1.55-2.73-4.37-3.05-4.37-.08 0-.37.73-.59 1.63-1.61 5.92-1.48 12.08.28 16.58.7 1.75 1.88 3.79 2.81 4.87zm3.42 1.42c.49-.08 1.73-.41 2.73-.73 6.55-2.08 11.55-6.92 14.06-13.55.57-1.53.67-1.48-2.12-.77-2.16.55-5.15 1.91-7.14 3.23-2.99 1.99-6.22 6.06-7.53 9.48-1.02 2.65-1.02 2.5 0 2.34zm-3.6 14.69l1 .51-.14-2.18c-.32-5.17-1.77-9.83-4.09-13.32-1.46-2.2-4.82-5.13-6.69-5.82-.37-.14-.39-.06-.26 2.18.3 5.55 2.01 10.5 4.9 14.14 1.35 1.74 3.61 3.63 5.28 4.49zm51.14 68.65l.22-.77c1.06-3.68 1.26-9.74.47-13.45-.59-2.73-1.48-5.27-2.62-7.34-.98-1.83-2.87-4.43-3.99-5.49l-.71-.69-.3 1.41c-.9 3.95-1.06 8.77-.45 12.37.85 5.02 3.4 10.13 6.57 13.2l.81.76zm-2.34 4.07c.69-.47.59-.57-1.53-1.55-4.21-1.91-9.46-2.83-13.79-2.36-3.34.35-6.22 1.18-9.46 2.75-3.42 1.65-3.34 1.53-1.3 2.5 6.43 3.07 14.32 3.58 20.57 1.34 1.54-.55 4.51-2.01 5.51-2.68zM53.11 153.1c.24 0 .85-2.01 1.34-4.43 1.32-6.71.24-13.71-2.93-19.02-.88-1.44-2.99-4.29-3.21-4.31-.06 0-.33.75-.57 1.65-2.05 7.46-1.46 14.99 1.61 20.91.83 1.6 3.44 5.2 3.76 5.2zm-3.7 2.56c.98-.2 1.83-.43 1.89-.47.18-.18-2.38-2.38-4.11-3.54-2.67-1.77-5.86-3.09-9.24-3.84-1.51-.33-7.79-.59-9.36-.37-1.42.18-4.78.9-4.94 1.06-.08.08.51.79 1.32 1.57 5.91 5.59 14.78 7.63 24.44 5.59z"/></svg>