<?xml version="1.0" encoding="utf-8"?>
<!-- Generator: Adobe Illustrator 22.1.0, SVG Export Plug-In . SVG Version: 6.00 Build 0)  -->
<svg version="1.1" id="Livello_1" xmlns="http://www.w3.org/2000/svg" xmlns:xlink="http://www.w3.org/1999/xlink" x="0px" y="0px"
	 viewBox="0 0 200 200" style="enable-background:new 0 0 200 200;" xml:space="preserve">
<style type="text/css">
	.st0{fill:#FFD600;}
</style>
<circle class="st0" cx="100" cy="100" r="93.5"/>
<path d="M100,8c50.7,0,92,41.3,92,92s-41.3,92-92,92S8,150.7,8,100S49.3,8,100,8 M100,5C47.5,5,5,47.5,5,100s42.5,95,95,95
	s95-42.5,95-95S152.5,5,100,5L100,5z"/>
<path d="M75,39.2c-0.1,0.1-0.8,3.9-1.7,8.5L71.7,56l-2.3-0.2c-1.3-0.1-4.2-0.5-6.5-1c-2.3-0.5-5.5-1-7.2-1.2l-3.1-0.4l-1,5.5
	c-0.6,3-1,5.5-0.8,5.6c0.1,0.1,1.9,0.4,4,0.8c4.6,0.8,6.8,2.2,7,4.6c0.1,1-0.9,8.1-2.3,15.7c-1.4,7.7-3.3,18.4-4.2,24
	c-2,11.3-2.6,12.6-6.2,11.9c-1-0.2-2.9-0.5-4.2-0.7l-2.4-0.4l-1.9,5.8c-1.1,3.1-1.7,5.9-1.5,6.2c0.2,0.2,4.3,1.1,8.9,2
	c4.7,0.8,8.7,1.7,9,1.8c0.3,0.1,0,2.7-0.5,5.6c-0.6,2.9-1.2,6.8-1.4,8.6l-0.4,3.3l3.4,0.7c1.9,0.4,3.9,0.8,4.5,1
	c0.5,0.2,1.1,0.1,1.2-0.2c0.2-0.2,0.9-4,1.6-8.2c0.7-4.3,1.5-8,1.8-8.2c0.5-0.5,5.3,0,6.4,0.7c0.7,0.4,0.2,3.8-2,15l-0.4,2.1
	l3.5,0.7c1.9,0.4,4,0.8,4.7,1c1.1,0.2,1.4-0.1,2-3.8c0.4-2.2,1.1-6.2,1.6-8.8L84,141h7.2c13.5,0,19.2-3.4,23.7-14.1
	c1.4-3.3,1.9-5.5,2.1-9.4c0.4-8.1-1.5-12.2-7.5-16.5l-2.6-1.8l2.4-1.4c5-2.8,8.4-9.6,8.4-16.8c0-4.4-0.7-6.9-3-10.3
	c-2-2.9-7.8-6.8-12.8-8.5l-3.4-1.2l0.2-2.3c0.1-1.2,0.7-5,1.4-8.4c0.7-3.4,1-6.4,0.7-6.6c-0.5-0.4-6.8-1.8-8.2-1.8
	c-0.5,0-1.2,2.7-2,7c-0.7,3.9-1.4,7.7-1.6,8.4c-0.3,1.3-0.5,1.4-3.4,1c-1.7-0.2-3.3-0.6-3.6-0.9c-0.3-0.2,0.1-3.9,0.8-8.1
	s1.4-7.9,1.4-8.2c0-0.3-0.9-0.8-2-1C79.1,39.6,75,39,75,39.2z M86.7,71.6c5.6,1.2,10.3,3.9,11.7,6.7c1.4,2.7,1.1,7.7-0.5,10
	c-0.7,0.9-2.4,2.2-3.8,2.9c-3,1.5-8.4,1.8-14.7,0.7l-3.8-0.7l0.4-2.2c0.2-1.2,0.8-4.7,1.4-7.8c0.6-3.1,1.2-6.8,1.5-8.2
	C79.3,70.1,79.7,70,86.7,71.6z M82.7,103.7c11.3,2.3,16.8,7.8,14.8,15c-1.9,7.2-9,9.7-21.6,7.5c-3.3-0.5-6-1.1-6.1-1.2
	c-0.1-0.1,0.2-2.4,0.7-5.2c0.5-2.7,1.3-7.5,1.8-10.6c0.5-3.1,1.1-6,1.2-6.4C73.8,101.9,75,102.1,82.7,103.7z"/>
<path d="M146,57.3c-3,1.6-4.8,3.7-5.9,7c-2.5,7.2,1.5,12.4,9.8,12.5c3.1,0.1,4.3-0.2,6.5-1.5c4.3-2.5,6.6-7.7,5.4-12.2
	c-0.7-2.7-3.1-5.1-5.9-6.1C153,56,148.1,56.2,146,57.3z M154,63.4c1.4,1.4,1.5,2.6,0.2,4.8c-1.8,3-5.3,3.6-7.1,1.2
	c-1.2-1.6-0.9-3.6,1-5.5C150.1,62,152.3,61.7,154,63.4z"/>
<path d="M136.9,95c-3.1,8.2-6.1,17.3-5.8,17.5c0.7,0.7,5.3,1.5,5.8,1c0.2-0.2,1.1-2.3,1.8-4.5c1.5-4.5,2.1-4.3,2.7,0.5
	c0.7,5,1,5.5,4.4,5.9c1.7,0.2,3.1,0.3,3.3,0.2c0.6-0.7,6.8-18.4,6.5-18.7c-0.5-0.5-5.3-1.3-5.8-1c-0.2,0.2-1,2.1-1.7,4.4
	c-0.8,2.3-1.5,4.2-1.7,4.2c-0.2,0-0.8-2.1-1.4-4.8c-0.5-2.7-1-4.9-1.1-5c-0.1-0.1-1.6-0.4-3.3-0.7C137.6,93.6,137.4,93.7,136.9,95z"
	/>
<path d="M127.4,140.9c-1.8,4.9-3.3,9.3-3.4,9.7c-0.2,0.5,13.3,3.1,13.7,2.6c0.5-0.8,1.6-3.7,1.6-4.4c0-0.5-1-1-2.9-1.2
	c-1.5-0.2-3.2-0.6-3.6-0.9c-1.2-0.7-0.1-1.9,1.4-1.6c5,1.2,4.9,1.2,5.6-0.9c1-2.9,0.9-3.1-2.1-3.7c-1.5-0.4-2.7-0.9-2.7-1.2
	c0.2-0.7,2.5-0.8,5.2-0.2c1.7,0.4,1.8,0.2,2.7-2.2c1-2.4,1-2.6,0-2.9c-1.4-0.4-10.8-2.1-11.6-2.1
	C130.9,131.8,129.1,135.9,127.4,140.9z"/>
</svg>
