<svg xmlns="http://www.w3.org/2000/svg" viewBox="0 0 200 200"><circle cx="100" cy="100" r="95"/><path fill="#fff" d="M75.1 101.7s.1 0 0 0c0 3.4 0 6.7.1 10.1 0 1.5-.5 1.9-1.9 1.9-5-.1-9.9 0-14.9 0-1.4 0-1.9.5-1.9 1.8 0 3.8 0 7.6-.1 11.4 0 1.5.6 1.9 1.9 1.9h15c1.4 0 1.8.5 1.8 1.8-.1 6.1 0 12.2-.1 18.3 0 1.3.4 1.9 1.8 1.9 3.9-.1 7.9-.1 11.9 0 1.4 0 1.9-.4 1.8-1.8-.1-6.1-.1-12.1-.2-18.2 0-1.4.4-2.1 2-2.1 5.2.1 10.4.1 15.6 0 1.5 0 1.9.5 1.9 1.9-.1 6.1 0 12.1-.1 18.2 0 1.6.5 2 2 2 3.8-.1 7.6 0 11.4 0 2 0 2.1-.1 2.1-2.2 0-6 0-12-.1-18 0-1.4.5-1.8 1.8-1.8 4.9.1 9.8 0 14.7 0 1.9 0 2-.1 2-2.1v-11.1c0-1.4-.4-2-1.9-1.9-5 .1-9.9 0-14.9.1-1.4 0-2-.4-2-1.9 0-6.6 0-13.3-.1-19.9 0-2 .1-2.1 2-2.1h14.4c2.3 0 2.3 0 2.3-2.3 0-3.6-.1-7.3 0-10.9 0-1.5-.4-1.9-1.9-1.9-4.8.1-9.7 0-14.5.1-1.5 0-2-.5-2-2 0-6.1-.1-12.2-.1-18.3 0-1.3-.4-1.8-1.7-1.8-4 .1-7.9.1-11.9 0-1.4 0-1.8.4-1.8 1.8.1 6.1 0 12.2.1 18.3 0 1.4-.5 2-1.9 1.9-5-.1-10 0-15 0-2.4 0-2.4 0-2.6-2.3 0-.7-.1-1.5-.1-2.2V54.5c0-1.2-.4-1.7-1.6-1.7h-12c-1.3 0-1.6.5-1.6 1.7.1 6.1 0 12.2.1 18.3 0 1.5-.4 2.1-2 2-5-.1-9.9 0-14.9-.1-1.4 0-1.9.5-1.9 1.8.1 3.7 0 7.4 0 11.1 0 2 .1 2.2 2.1 2.2h14.7c1.3 0 1.8.5 1.8 1.8.4 3.4.4 6.7.4 10.1z"/><path d="M90.7 101.7V91.6c0-1.3.4-1.8 1.7-1.8 5.3 0 10.5.1 15.8 0 1.4 0 1.8.5 1.8 1.9 0 6.5.1 13.1.1 19.6 0 2.4 0 2.4-2.5 2.4H92.9c-2 0-2.1-.1-2.1-2.2v-9.8h-.1z"/></svg>