<svg xmlns="http://www.w3.org/2000/svg" id="Livello_1" version="1" viewBox="0 0 200 200"><style>.st7{fill:#e87506}</style><path fill="#f8bb67" d="M99.5 5.5c51.3 0 93 41.7 93 93s-41.7 93-93 93-93-41.7-93-93 41.7-93 93-93m0-2c-52.5 0-95 42.5-95 95s42.5 95 95 95 95-42.5 95-95-42.5-95-95-95z"/><path fill="#ca4206" d="M99.5 7.5c50.2 0 91 40.8 91 91s-40.8 91-91 91-91-40.8-91-91 40.8-91 91-91m0-2c-51.4 0-93 41.6-93 93s41.6 93 93 93 93-41.6 93-93-41.6-93-93-93z"/><path fill="#8a0d00" d="M99.5 9.5c49.1 0 89 39.9 89 89s-39.9 89-89 89-89-39.9-89-89 39.9-89 89-89m0-2c-50.3 0-91 40.7-91 91s40.7 91 91 91 91-40.7 91-91-40.7-91-91-91z"/><linearGradient id="SVGID_1_" x1="21" x2="100" y1="77.5" y2="77.5" gradientUnits="userSpaceOnUse"><stop offset="0" stop-color="#fd681a"/><stop offset=".9984" stop-color="#f9bb64"/><stop offset="1" stop-color="#f8bc68"/></linearGradient><path fill="url(#SVGID_1_)" stroke="#fff" stroke-miterlimit="10" stroke-width=".1" d="M100 5v12L31 144l-10 6z"/><linearGradient id="SVGID_2_" x1="100" x2="179" y1="77.5" y2="77.5" gradientUnits="userSpaceOnUse"><stop offset="0" stop-color="#f8bc68"/><stop offset=".0016" stop-color="#f9bb64"/><stop offset="1" stop-color="#fd681a"/></linearGradient><path fill="url(#SVGID_2_)" d="M100 5v12l69 127 10 6z"/><path fill="none" stroke="#fff" stroke-miterlimit="10" stroke-width=".1" d="M100 5v12l69 127 10 6z"/><radialGradient id="SVGID_3_" cx="100" cy="147" r="65.6852" gradientUnits="userSpaceOnUse"><stop offset="0" stop-color="#8a0d00"/><stop offset=".9145" stop-color="#c63e04"/></radialGradient><path fill="url(#SVGID_3_)" stroke="#fff" stroke-miterlimit="10" stroke-width=".1" d="M21 150h158l-10-6H31z"/><path d="M100 17.4v10.5L39.7 138.8 31 144zM100 17.4v10.5l60.3 110.9 8.7 5.2z" class="st7"/><path fill="#fecb79" d="M31 144h138l-8.7-5.2H39.7z"/></svg>