<?xml version="1.0" encoding="UTF-8" standalone="no"?><!DOCTYPE svg PUBLIC "-//W3C//DTD SVG 1.1//EN" "http://www.w3.org/Graphics/SVG/1.1/DTD/svg11.dtd"><svg width="100%" height="100%" viewBox="0 0 15 15" version="1.1" xmlns="http://www.w3.org/2000/svg" xmlns:xlink="http://www.w3.org/1999/xlink" xml:space="preserve" style="fill-rule:evenodd;clip-rule:evenodd;stroke-linejoin:round;stroke-miterlimit:1.41421;"><g><g><path d="M3.972,12.515c0,-0.286 -0.231,-0.517 -0.516,-0.517l-1.033,0c-0.285,0 -0.517,0.231 -0.517,0.517l0,1.615c0,0.285 0.232,0.516 0.517,0.516l1.033,0c0.285,0 0.516,-0.231 0.516,-0.516l0,-1.615Z" style="fill:#8ebfb2;"/><path d="M6.987,13.397c0,-0.23 -0.187,-0.416 -0.417,-0.416l-1.233,0c-0.23,0 -0.416,0.186 -0.416,0.416l0,0.833c0,0.23 0.186,0.416 0.416,0.416l1.233,0c0.23,0 0.417,-0.186 0.417,-0.416l0,-0.833Z" style="fill:#8ebfb2;"/><path d="M13.094,0.857c0,-0.278 -0.226,-0.503 -0.503,-0.503l-1.061,0c-0.277,0 -0.502,0.225 -0.502,0.503l0,1.006c0,0.277 0.225,0.503 0.502,0.503l1.061,0c0.277,0 0.503,-0.226 0.503,-0.503l0,-1.006Z" style="fill:#8ebfb2;"/><path d="M10.001,10.509c0,-0.285 -0.231,-0.516 -0.516,-0.516l-1.034,0c-0.285,0 -0.516,0.231 -0.516,0.516l0,3.621c0,0.285 0.231,0.516 0.516,0.516l1.034,0c0.285,0 0.516,-0.231 0.516,-0.516l0,-3.621Z" style="fill:#8ebfb2;"/><path d="M13.094,3.962c0,-0.285 -0.232,-0.517 -0.517,-0.517l-1.033,0c-0.285,0 -0.516,0.232 -0.516,0.517l0,10.168c0,0.285 0.231,0.516 0.516,0.516l1.033,0c0.285,0 0.517,-0.231 0.517,-0.516l0,-10.168Z" style="fill:#138c6b;"/></g></g></svg>