<svg xmlns="http://www.w3.org/2000/svg" viewBox="0 0 200 200"><path fill="#244494" d="M41.2 15.2c-2 .4-3.5 1.9-4.9 4.8-1.3 2.7-1.6 4.2-2.2 13.5-.7 10.7.2 31.7 2.3 49.5l.2 2-.7 1.2c-4.9 9.1-7.4 17.8-8 27.9-.1 2.1-.1 6.5.1 7.5l.1.5-.7-.3c-.4-.2-4.7-2.2-9.5-4.4s-8.8-4-8.9-4c-.1 0-3.9 10.6-3.9 10.7 0 0 3.7 1.6 19.3 8.5l6 2.6.7 2.2c1 3 2.3 6.2 3.7 8.8.3.7.6 1.2.6 1.3 0 0-6.5.1-14.6.1H6.2V158h36.2l.6.8c15.1 18.3 40.1 28.3 65.2 25.9 19.8-1.9 38.3-11.5 50.3-26.1l.6-.7h34.8v-10.4h-28l1-2c1.3-2.6 2.3-5.1 3.2-7.9l.7-2.2 12-5.7c6.6-3.1 12-5.7 12.1-5.7.1 0-3.5-10.7-3.6-10.7 0 0-4.1 2-9 4.4-4.9 2.4-9 4.4-9 4.4v-3.4c.2-10.3-1.7-19.2-5.8-28.2l-.7-1.4.5-5.7c1.4-17.1 1.7-21.9 2-29.6.5-12.9.4-18.2-.7-28.5-.5-5.3-3.4-9.6-6.7-10.1-4.4-.7-8.9 1.4-15.3 7.3-2.9 2.6-9 9-12.4 12.8-.4.5-3.6 4.5-7 8.9s-6.3 8.1-6.4 8.2c-.1.1-.4.1-1.6-.2-11.7-2.8-23.7-3-35.4-.4l-1.5.3-.7-.9c-.4-.5-3.2-4.1-6.3-8.1-6-7.8-6.7-8.5-12-14.1-10.9-11.4-16.6-15-22.1-13.8m96.3 82.7c4.9.7 7.5 2.5 10.8 7.3 2.1 3 2.1 3.5-.1 2.5-4.4-2.1-9.9-2.7-13-1.5-4 1.6-7 3.8-10 7.7-2.5 3.1-2.6 3.2-3 1.5-1.1-5.2 1.5-11.5 6.1-15.3 2-1.7 6.1-2.7 9.2-2.2m-69.2.9c4.5.9 7.2 3.2 9.9 8.5 1.3 2.5 1.7 5.1 1.3 8.1-.3 2.6-.5 2.5-2.7-.3-4-5.1-8.5-8.2-12.7-8.5-3.8-.3-7.2.3-10.8 2-2 1-2 .4.1-2.5 2-2.8 3-4 4.8-5.2 2.7-2 6.7-2.8 10.1-2.1m58.6 38.6c.3.6-1.4 3-5.7 8.2-6.6 7.9-13.9 12.2-21.6 12.7-6.1.4-14-3.4-20.4-9.6-2.5-2.4-8.5-9.7-8.5-10.3 0-.3.4-.4.6-.3 1.9 1.5 2.6 2 3.4 2.6 7.4 5.3 17.2 8.8 24.5 8.6 10-.3 18.2-3.7 25.4-10.6 1.6-1.5 2-1.8 2.3-1.3"/></svg>