<?xml version="1.0" encoding="utf-8"?>
<!-- Generator: Adobe Illustrator 22.1.0, SVG Export Plug-In . SVG Version: 6.00 Build 0)  -->
<svg version="1.0" id="Livello_1" xmlns="http://www.w3.org/2000/svg" xmlns:xlink="http://www.w3.org/1999/xlink" x="0px" y="0px"
	 viewBox="0 0 200 200" enable-background="new 0 0 200 200" xml:space="preserve">
<circle fill="#FFFFFF" cx="100" cy="100" r="92.5"/>
<path fill="#FFCE45" d="M100,10c49.6,0,90,40.4,90,90s-40.4,90-90,90s-90-40.4-90-90S50.4,10,100,10 M100,5C47.5,5,5,47.5,5,100
	s42.5,95,95,95s95-42.5,95-95S152.5,5,100,5L100,5z"/>
<path fill="#FFCE45" d="M100,25.6l72.8,72.8L100,171.2L27.2,98.4L100,25.6z"/>
<path fill="#FEBE44" d="M100,122.2L27.2,98.4L100,25.6l72.8,72.8L100,122.2z"/>
<path fill="#FFFFFF" d="M52.5,93.7h33.2L100,77.8l15.8,15.8h33.3l-49.1-53L52.5,93.7z"/>
<path opacity="0.42" fill="#D9A547" enable-background="new    " d="M100,171.2V25.6l72.8,72.8L100,171.2L100,171.2z"/>
</svg>
