<svg xmlns="http://www.w3.org/2000/svg" viewBox="0 0 200 200"><path d="M191.4 85.5c-2.5-4.3-6-7.7-10.4-10.2-4.4-2.4-9.3-3.7-14.8-3.7s-10.4 1.2-14.8 3.7c-4.4 2.4-7.9 5.9-10.4 10.2s-4 9.1-4 14.5c0 1.4.1 2.9.4 4.2h11.5c-.2-1.3-.5-2.8-.5-4.2 0-5.1 1.7-9.5 5-12.7 3.4-3.4 7.5-5 12.7-5 5.1 0 9.3 1.7 12.7 5s5 7.5 5 12.7c0 5.1-1.7 9.5-5 12.7-3.4 3.4-7.5 5.3-12.7 5.3h-33.9l-29.9-44.9H5.1v10.3h29.6c5.3 0 9.6 1.7 12.9 4.9 3.4 3.2 5 7.4 5 12.4s-1.7 9.2-5 12.4c-3.4 3.2-7.7 4.9-12.9 4.9H16.4V97.8H5v30.5h29.6c5.5 0 10.7-1.2 15.1-3.6 4.5-2.4 8-5.7 10.7-9.9 2.5-4.2 3.8-9 3.8-14.1 0-5.3-1.3-9.9-3.8-14.1-.7-1.1-1.4-2.2-2.3-3.1h37.2l-29.9 44.9h12.4l24.4-36.6 17.5 26.3h-17l-6.9 10.3h70.1c5.5 0 10.4-1.2 14.8-3.7s7.9-5.9 10.4-10.2c2.5-4.3 3.8-9.1 3.8-14.5.3-5.3-1-10.1-3.5-14.5z"/></svg>