<?xml version="1.0" encoding="utf-8"?>
<!-- Generator: Adobe Illustrator 25.0.0, SVG Export Plug-In . SVG Version: 6.00 Build 0)  -->
<svg version="1.1" id="Livello_1" xmlns="http://www.w3.org/2000/svg" xmlns:xlink="http://www.w3.org/1999/xlink" x="0px" y="0px"
	 viewBox="0 0 200 200" style="enable-background:new 0 0 200 200;" xml:space="preserve">
<style type="text/css">
	.st0{fill:url(#SVGID_1_);}
	.st1{fill:url(#SVGID_2_);}
	.st2{fill:url(#SVGID_3_);}
</style>
<linearGradient id="SVGID_1_" gradientUnits="userSpaceOnUse" x1="14.9701" y1="100" x2="185.0299" y2="100">
	<stop  offset="0" style="stop-color:#A771AE"/>
	<stop  offset="1" style="stop-color:#544596"/>
</linearGradient>
<path class="st0" d="M100,14.9c1.8,0,3.7,0.5,5.3,1.4l64.4,37.2c3.3,1.9,5.3,5.4,5.3,9.2l0,74.4c0,3.8-2,7.3-5.3,9.2l-64.4,37.2
	c-1.7,1-3.5,1.4-5.3,1.4c-1.8,0-3.7-0.5-5.3-1.4l-64.4-37.2c-3.3-1.9-5.3-5.4-5.3-9.2l0-74.4c0-3.8,2-7.3,5.3-9.2l64.4-37.2
	C96.3,15.4,98.2,14.9,100,14.9 M100,5c-3.6,0-7.2,1-10.3,2.8L25.3,45C18.9,48.6,15,55.5,15,62.8l0,74.4c0,7.3,3.9,14.2,10.3,17.8
	l64.4,37.2c3.1,1.8,6.7,2.8,10.3,2.8c3.6,0,7.2-1,10.3-2.8l64.4-37.2c6.3-3.7,10.3-10.5,10.3-17.8l0-74.4c0-7.3-3.9-14.2-10.3-17.8
	L110.3,7.8C107.2,6,103.6,5,100,5L100,5z"/>
<linearGradient id="SVGID_2_" gradientUnits="userSpaceOnUse" x1="43.8072" y1="100" x2="156.1928" y2="100">
	<stop  offset="0" style="stop-color:#A771AE"/>
	<stop  offset="1" style="stop-color:#544596"/>
</linearGradient>
<path class="st1" d="M100,43.8c1.2,0,2.4,0.3,3.5,0.9l42.6,24.6c2.2,1.3,3.5,3.6,3.5,6.1l0,49.2c0,2.5-1.3,4.8-3.5,6.1l-42.6,24.6
	c-1.1,0.6-2.3,0.9-3.5,0.9c-1.2,0-2.4-0.3-3.5-0.9l-42.6-24.6c-2.2-1.3-3.5-3.6-3.5-6.1l0-49.2c0-2.5,1.3-4.8,3.5-6.1l42.6-24.6
	C97.6,44.1,98.8,43.8,100,43.8 M100,37.2c-2.4,0-4.7,0.6-6.8,1.8L50.6,63.6c-4.2,2.4-6.8,6.9-6.8,11.8l0,49.2
	c0,4.8,2.6,9.4,6.8,11.8L93.2,161c2.1,1.2,4.4,1.8,6.8,1.8c2.4,0,4.7-0.6,6.8-1.8l42.6-24.6c4.2-2.4,6.8-6.9,6.8-11.8l0-49.2
	c0-4.8-2.6-9.4-6.8-11.8L106.8,39C104.7,37.8,102.4,37.2,100,37.2L100,37.2z"/>
<linearGradient id="SVGID_3_" gradientUnits="userSpaceOnUse" x1="71.9036" y1="100" x2="128.0964" y2="100">
	<stop  offset="0" style="stop-color:#A771AE"/>
	<stop  offset="1" style="stop-color:#544596"/>
</linearGradient>
<path class="st2" d="M100,71.9c0.6,0,1.2,0.2,1.8,0.5l21.3,12.3c1.1,0.6,1.8,1.8,1.8,3.1l0,24.6c0,1.3-0.7,2.4-1.8,3.1l-21.3,12.3
	c-0.5,0.3-1.2,0.5-1.8,0.5c-0.6,0-1.2-0.2-1.8-0.5l-21.3-12.3c-1.1-0.6-1.8-1.8-1.8-3.1l0-24.6c0-1.3,0.7-2.4,1.8-3.1l21.3-12.3
	C98.8,72,99.4,71.9,100,71.9 M100,68.6c-1.2,0-2.4,0.3-3.4,0.9L75.3,81.8c-2.1,1.2-3.4,3.5-3.4,5.9l0,24.6c0,2.4,1.3,4.7,3.4,5.9
	l21.3,12.3c1,0.6,2.2,0.9,3.4,0.9c1.2,0,2.4-0.3,3.4-0.9l21.3-12.3c2.1-1.2,3.4-3.5,3.4-5.9l0-24.6c0-2.4-1.3-4.7-3.4-5.9
	l-21.3-12.3C102.4,68.9,101.2,68.6,100,68.6L100,68.6z"/>
</svg>
