<?xml version="1.0" encoding="utf-8"?>
<!-- Generator: Adobe Illustrator 22.1.0, SVG Export Plug-In . SVG Version: 6.00 Build 0)  -->
<svg version="1.1" id="Livello_1" xmlns="http://www.w3.org/2000/svg" xmlns:xlink="http://www.w3.org/1999/xlink" x="0px" y="0px"
	 viewBox="0 0 200 200" style="enable-background:new 0 0 200 200;" xml:space="preserve">
<style type="text/css">
	.st0{fill:url(#SVGID_1_);}
	.st1{fill:url(#SVGID_2_);}
	.st2{fill:url(#SVGID_3_);}
</style>
<linearGradient id="SVGID_1_" gradientUnits="userSpaceOnUse" x1="187.5208" y1="158.4615" x2="6.8541" y2="29.1282">
	<stop  offset="0" style="stop-color:#FFCC4D"/>
	<stop  offset="1" style="stop-color:#FF6E4D"/>
</linearGradient>
<path class="st0" d="M195,99.1c0.5,51.6-40.8,94.5-92.4,95.9c-8.9,0.2-16.2-0.4-24.3-2.4c-0.4-0.1-0.9-0.3-1.2-0.6
	c-0.8-0.6-1-1.4-1.1-1.6c-0.6-1.7-0.4-2.7,0.8-4.1c1.3-1.5,3.1-1.4,4.9-1c7.9,1.8,16,2.3,24,1.8c7.2-0.4,14.3-1.8,21.2-4.1
	c7.1-2.3,13.7-5.5,20-9.5c3.7-2.4,7.3-5,10.7-7.9c3.1-2.7,5.9-5.7,8.7-8.8s5.1-6.5,7.4-9.9c2-2.9,3.5-6,5-9.1
	c1.8-3.7,3.3-7.6,4.5-11.6c1.5-4.9,2.6-9.9,3.3-14.9c0.6-4.4,0.8-8.9,0.7-13.3c-0.2-7.9-1.5-15.7-3.8-23.2
	c-3.3-10.8-8.6-20.6-15.7-29.4c-5.1-6.3-11-11.8-17.7-16.4c-5.9-4.1-12.2-7.5-18.9-10.1c-5.5-2.1-11.2-3.6-17-4.6
	C100.2,12,86.6,13,73.3,17.4c-12.8,4.2-24.6,11.3-34.2,20.8c-8.9,8.7-15.6,18.9-20.2,30.4c-2.6,6.5-4.3,13.3-5.2,20.3
	c-0.6,4.8-0.9,9.5-0.7,14.3c0.3,7,1.3,13.9,3.3,20.7c0.4,1.5,0.6,3-0.3,4.3c-1,1.7-2.6,2.5-4.5,2.3c-1-0.2-1.8-0.9-2.2-1.9
	C6.4,119.3,4.9,109.4,5,99C5.7,47.5,47.5,5.7,98.7,5C151.4,4.3,194.5,46.7,195,99.1z"/>
<linearGradient id="SVGID_2_" gradientUnits="userSpaceOnUse" x1="168.5565" y1="124.8185" x2="32.64" y2="75.3489">
	<stop  offset="0" style="stop-color:#FFCC4D"/>
	<stop  offset="1" style="stop-color:#FF6E4D"/>
</linearGradient>
<path class="st1" d="M101.3,172.2c-10.2,0-19.5-1.8-28.4-5.5c-5.9-2.5-11.4-5.7-16.5-9.6c-8.9-6.9-15.8-15.4-20.8-25.5
	c-3.4-6.9-5.6-14.2-6.6-21.8c-1.8-13.9,0.2-27.3,5.7-40.1c3.9-9.2,9.7-17.1,17.2-23.8c9.1-8.1,19.7-13.3,31.6-16
	c4.5-1,9.1-1.6,13.7-1.9c12.5-0.6,24.3,1.9,35.4,7.5c9.3,4.6,17.2,11,23.8,19.1c1.2,1.5,2.4,3.1,3.6,4.7c2.2,2.9,0.8,6.2-2.8,7.4
	c-1.7,0.5-3.5-0.2-4.6-1.7c-2.4-3.6-5.1-6.8-8.2-9.8c-9.2-8.9-20-14.6-32.6-16.9c-4.2-0.8-8.3-1.2-12.5-1.1
	c-14,0.5-26.9,4.3-38.1,12.8C52.3,56.7,46,65.4,42,75.9c-1.9,5.2-3.4,10.5-4,16c-0.4,3.5-0.6,7.1-0.5,10.7
	c0.2,5.6,1.2,11.1,2.9,16.5c2.3,7.3,5.8,13.9,10.5,19.9c6.2,7.9,13.9,14,23.1,18.3c5.2,2.4,10.7,4.1,16.4,5c4.3,0.7,8.6,1,13,0.8
	c10.8-0.6,20.8-3.7,30.1-9.4c9.7-6,17.2-14.1,22.6-24.2c2.5-4.6,4.4-9.5,5.5-14.6c0.7-3.4,2.1-4.5,5.6-4.4c2.2,0.1,4.4,2.3,3.8,4.9
	c-1.2,5.3-2.9,10.4-5.2,15.3c-3.3,7.1-7.7,13.4-13,19.1c-5.1,5.4-11,9.9-17.5,13.5c-6.8,3.8-14.1,6.4-21.7,7.8
	C109.6,171.8,105.2,172.2,101.3,172.2L101.3,172.2z"/>
<linearGradient id="SVGID_3_" gradientUnits="userSpaceOnUse" x1="135.2873" y1="113.8092" x2="66.2526" y2="88.6826">
	<stop  offset="0" style="stop-color:#FFCC4D"/>
	<stop  offset="1" style="stop-color:#FF6E4D"/>
</linearGradient>
<path class="st2" d="M83.2,83.9h-8.5c-2.2,0-4.5-1.7-4.7-3.8c-0.2-1.7,0.2-3,1.6-4.2c1.1-0.9,2.1-1.2,3.4-1.2h8c0-0.6,0.1-1,0.1-1.4
	v-6.7c0.1-3.3,2.3-5.4,5.4-5.4c2.8,0,5,2.1,5.1,4.9c0.1,2.2,0,4.4,0,6.7v1.8c0.6,0,1.2,0.1,1.8,0.1h29.7c1.6,0,2.9,0.6,3.9,1.9
	c1.1,1.5,1.2,3,0.5,4.7c-0.7,1.6-2.1,2.5-3.8,2.7H93.9c0,0.5-0.1,0.9-0.1,1.3v26.1c0,4.5,1.2,8.6,4.4,11.9c3.1,3.2,6.9,4.9,11.4,5
	c4,0.1,7.4-1.2,10.4-3.7c0.6-0.5,1.1-0.9,1.7-1.4c2.3-1.7,5.4-1.3,7.3,0.9c1.5,1.8,1.6,5.2-0.4,7.1c-6.2,5.8-13.5,8.5-21.9,7.4
	c-12-1.5-21.5-10.7-23.1-22.8c-0.2-1.3-0.3-2.7-0.3-4v-26C83.2,85.2,83.2,84.6,83.2,83.9z"/>
</svg>
