<svg xmlns="http://www.w3.org/2000/svg" viewBox="0 0 200 200"><path fill="#6ea4ca" d="M192.5 46.4l-7.6-.3c-1.3-.1-2.5.9-2.7 2.2-.4 3-1.4 8.6-3.9 14.9l-41.6-41.7c5.9-2.3 11.2-3.3 14.2-3.7 1.5-.2 2.7-1.6 2.6-3.1l-.3-6.8c-.1-1.8-1.6-3.1-3.4-2.9-8.3 1-30.5 5.5-45.2 24.6C92.9 44.8 89 65.4 92.9 90.9c-24.1-3.5-44.2.4-59.6 11.7-21 15.3-26.8 39.2-28.2 47.3-.3 1.5.8 2.8 2.3 3l7.6.8c1.3.1 2.5-.8 2.8-2.1.5-2.7 1.6-7.5 3.9-13.1l40 40c-5.4 2.2-10.2 3.4-13 3.9-1.5.3-2.6 1.7-2.4 3.3l.7 6.7c.2 1.7 1.8 3 3.5 2.6 8.5-1.5 31.8-7.5 46.8-28.2 11.3-15.6 15.2-35.8 11.6-60.1 25.7 4 46.4.1 61.7-11.7 19.4-15 23.7-37.9 24.6-45.7 0-1.5-1.2-2.9-2.7-2.9zm-35.4 42.1c-4.4 2.5-9.2 4.2-14.6 5.4l-36.7-36.8c1.2-5.3 3-10.2 5.5-14.5l45.8 45.9zm-61.7 15.7c1.7 9.5 2.3 18.3 1.6 26.3l-27.7-27.7c7.9-.8 16.6-.3 26.1 1.4zm-51 6.2c4-2.4 8.3-4.2 13-5.6l37.4 37.5c-1.3 4.7-3.1 9.1-5.5 13.1l-44.9-45zm26.5 63.3L26.2 129c2.6-4.3 5.9-8.7 10.2-12.6l47 47c-3.9 4.3-8.2 7.7-12.5 10.3zm35.3-80.4c-1.6-8.6-2.3-16.5-2-23.7L130 95.4c-7.2.3-15.2-.4-23.8-2.1zm59.1-10.7l-48.1-48.1c3.1-3.4 6.6-6.2 10.2-8.4l46.3 46.4c-2.2 3.5-5 7-8.4 10.1z"/></svg>