<svg xmlns="http://www.w3.org/2000/svg" viewBox="0 0 200 200"><path fill="#ff4920" d="M74.7 184.8c17.4 13.5 37.3 13.9 52.6-.4 19.5-18.2 38.4-37.1 56.3-56.7 16.1-17.7 14.9-38.6-1.6-56-8.2-8.7-16.7-17.1-25.2-25.4-9.1-9-19-9.2-28.2-.1-31.4 31.1-95.3 95.3-96.5 97 2.8 2.5 5.4 4.8 7.9 7.2 13.5 13.6 21 13.8 34.8.3 19.7-19.3 62.5-61.2 64.3-62.7 3-2.3 5.3-1.9 7.4 1.5 4.9 7.7 4.1 18.9-2.5 26-4.9 5.3-51.1 51-69.3 69.3zm50.5-169.1c-14.4-13.4-36.4-14.3-50-2.4-11 9.7-50.6 49.5-59.6 59.3C1.5 88.2 2 113.4 13.9 123 51 87.2 88 51.6 125.2 15.7z"/></svg>