<?xml version="1.0" encoding="utf-8"?>
<!-- Generator: Adobe Illustrator 22.1.0, SVG Export Plug-In . SVG Version: 6.00 Build 0)  -->
<svg version="1.0" id="Livello_1" xmlns="http://www.w3.org/2000/svg" xmlns:xlink="http://www.w3.org/1999/xlink" x="0px" y="0px"
	 viewBox="0 0 200 200" style="enable-background:new 0 0 200 200;" xml:space="preserve">
<style type="text/css">
	.st0{fill:#FFFFFF;}
	.st1{fill:#E78200;}
</style>
<g>
	<path class="st0" d="M39.8,82.1c-8.9,0-16.1-7.7-16.1-17.1s7.2-17.1,16.1-17.1s16.1,7.7,16.1,17.1S48.7,82.1,39.8,82.1z"/>
	<path d="M39.8,50.8c7.2,0,13.1,6.3,13.1,14.1c0,7.8-5.9,14.1-13.1,14.1s-13.1-6.3-13.1-14.1C26.7,57.1,32.6,50.8,39.8,50.8
		 M39.8,44.8c-10.5,0-19.1,9-19.1,20.1s8.6,20.1,19.1,20.1c10.5,0,19.1-9,19.1-20.1S50.4,44.8,39.8,44.8L39.8,44.8z"/>
</g>
<g>
	<path class="st0" d="M160.2,82.1c-8.9,0-16.1-7.7-16.1-17.1s7.2-17.1,16.1-17.1c8.9,0,16.1,7.7,16.1,17.1S169.1,82.1,160.2,82.1z"
		/>
	<path d="M160.2,50.8c7.2,0,13.1,6.3,13.1,14.1c0,7.8-5.9,14.1-13.1,14.1s-13.1-6.3-13.1-14.1C147.1,57.1,153,50.8,160.2,50.8
		 M160.2,44.8c-10.5,0-19.1,9-19.1,20.1s8.6,20.1,19.1,20.1c10.5,0,19.1-9,19.1-20.1S170.7,44.8,160.2,44.8L160.2,44.8z"/>
</g>
<g>
	<path class="st0" d="M100,43.8c-8.9,0-16.1-7.7-16.1-17.1S91.2,9.5,100,9.5s16.1,7.7,16.1,17.1S108.9,43.8,100,43.8z"/>
	<path d="M100,12.5c7.2,0,13.1,6.3,13.1,14.1c0,7.8-5.9,14.1-13.1,14.1s-13.1-6.3-13.1-14.1C86.9,18.8,92.8,12.5,100,12.5 M100,6.5
		c-10.5,0-19.1,9-19.1,20.1c0,11.1,8.6,20.1,19.1,20.1c10.5,0,19.1-9,19.1-20.1C119.1,15.5,110.6,6.5,100,6.5L100,6.5z"/>
</g>
<g>
	<path class="st0" d="M39.8,154.1c-8.9,0-16.1-7.7-16.1-17.1s7.2-17.1,16.1-17.1s16.1,7.7,16.1,17.1S48.7,154.1,39.8,154.1z"/>
	<path d="M39.8,122.8c7.2,0,13.1,6.3,13.1,14.1s-5.9,14.1-13.1,14.1s-13.1-6.3-13.1-14.1S32.6,122.8,39.8,122.8 M39.8,116.8
		c-10.5,0-19.1,9-19.1,20.1s8.6,20.1,19.1,20.1c10.5,0,19.1-9,19.1-20.1S50.4,116.8,39.8,116.8L39.8,116.8z"/>
</g>
<g>
	<ellipse class="st0" cx="100" cy="173.4" rx="16.1" ry="17.1"/>
	<path d="M100,159.2c7.2,0,13.1,6.3,13.1,14.1s-5.9,14.1-13.1,14.1s-13.1-6.3-13.1-14.1S92.8,159.2,100,159.2 M100,153.2
		c-10.5,0-19.1,9-19.1,20.1c0,11.1,8.6,20.1,19.1,20.1c10.5,0,19.1-9,19.1-20.1C119.1,162.2,110.6,153.2,100,153.2L100,153.2z"/>
</g>
<g>
	<path class="st0" d="M160.2,154.1c-8.9,0-16.1-7.7-16.1-17.1s7.2-17.1,16.1-17.1c8.9,0,16.1,7.7,16.1,17.1S169.1,154.1,160.2,154.1
		z"/>
	<path d="M160.2,122.8c7.2,0,13.1,6.3,13.1,14.1s-5.9,14.1-13.1,14.1s-13.1-6.3-13.1-14.1S153,122.8,160.2,122.8 M160.2,116.8
		c-10.5,0-19.1,9-19.1,20.1s8.6,20.1,19.1,20.1c10.5,0,19.1-9,19.1-20.1S170.7,116.8,160.2,116.8L160.2,116.8z"/>
</g>
<ellipse class="st1" cx="82.9" cy="71.1" rx="10" ry="10.6"/>
<ellipse class="st1" cx="69" cy="99.8" rx="10" ry="10.6"/>
<ellipse class="st1" cx="82.9" cy="127.4" rx="10" ry="10.6"/>
<ellipse class="st1" cx="117" cy="127.4" rx="10" ry="10.6"/>
<ellipse class="st1" cx="131" cy="97.5" rx="10" ry="10.6"/>
<ellipse class="st1" cx="117" cy="71.1" rx="10" ry="10.6"/>
</svg>
