<svg xmlns="http://www.w3.org/2000/svg" id="Livello_1" enable-background="new 0 0 200 200" viewBox="0 0 200 200"><style>.st1{fill:#fff}</style><defs><filter id="Adobe_OpacityMaskFilter" width="189.1" height="190" x="5.2" y="4.9" filterUnits="userSpaceOnUse"><feColorMatrix values="1 0 0 0 0 0 1 0 0 0 0 0 1 0 0 0 0 0 1 0"/></filter></defs><mask id="mask-2_2_" width="189.1" height="190" x="5.2" y="4.9" maskUnits="userSpaceOnUse"><g filter="url(#Adobe_OpacityMaskFilter)"><path id="path-1_2_" d="M5.2 99.9c0-52.5 42.3-95 94.5-95s94.5 42.5 94.5 95-42.3 95-94.5 95-94.5-42.6-94.5-95z" class="st1"/></g></mask><linearGradient id="Fill-1_1_" x1="-252.1391" x2="-252.1391" y1="-99.5836" y2="-89.4346" gradientTransform="matrix(47.7609 0 0 47.9991 12142.1396 4784.7925)" gradientUnits="userSpaceOnUse"><stop offset="0" stop-color="#ee4037"/><stop offset="1" stop-color="#c1041b"/></linearGradient><path id="Fill-1" fill="url(#Fill-1_1_)" d="M5.2 194.9h189.1V4.9H5.2z" mask="url(#mask-2_2_)"/><defs><filter id="Adobe_OpacityMaskFilter_1_" width="90.6" height="45.9" x="69.3" y="30.1" filterUnits="userSpaceOnUse"><feColorMatrix values="1 0 0 0 0 0 1 0 0 0 0 0 1 0 0 0 0 0 1 0"/></filter></defs><mask id="mask-5_2_" width="90.6" height="45.9" x="69.3" y="30.1" maskUnits="userSpaceOnUse"><g filter="url(#Adobe_OpacityMaskFilter_1_)"><path id="path-4_2_" d="M104.8 32.9L72.4 57.3c-.7.5-.8 1.5-.3 2.2.5.7 1.5.8 2.2.3l31.4-23.7 45.4 34.2h-19.8L98.8 45.9c-.7-.5-1.7-.4-2.2.3-.5.7-.4 1.7.3 2.2l32.9 24.8c.3.2.6.3.9.3h25.1c.7 0 1.3-.4 1.5-1.1.2-.6 0-1.3-.5-1.7l-50.1-37.8c-.3-.2-.6-.3-.9-.3-.4 0-.8.1-1 .3z" class="st1"/></g></mask><path id="Fill-6" fill="#fffffe" d="M69.3 76h90.6V30.1H69.3z" mask="url(#mask-5_2_)"/><defs><filter id="Adobe_OpacityMaskFilter_2_" width="108.4" height="107.8" x="51.5" y="62.6" filterUnits="userSpaceOnUse"><feColorMatrix values="1 0 0 0 0 0 1 0 0 0 0 0 1 0 0 0 0 0 1 0"/></filter></defs><mask id="mask-7_2_" width="108.4" height="107.8" x="51.5" y="62.6" maskUnits="userSpaceOnUse"><g filter="url(#Adobe_OpacityMaskFilter_2_)"><path id="path-6_2_" d="M61.6 65.5l-6.9 5.2c-.4.3-.7.7-.7 1.2s.2 1 .6 1.3l98.6 74.3-22.4 16.9-6.3-4.7c-.7-.5-1.7-.4-2.2.3-.5.7-.4 1.7.3 2.2l7.2 5.5c.3.2.6.3.9.3.3 0 .7-.1.9-.3l25.1-18.9c.4-.3.6-.8.6-1.3s-.2-1-.6-1.3L58.2 71.9l5.2-4c.7-.5.8-1.5.3-2.2-.3-.4-.8-.6-1.3-.6-.2 0-.5.1-.8.4z" class="st1"/></g></mask><path id="Fill-9" fill="#fffffe" d="M51.5 170.4h108.4V62.6H51.5z" mask="url(#mask-7_2_)"/><defs><filter id="Adobe_OpacityMaskFilter_3_" width="90.6" height="45.9" x="47.4" y="124.5" filterUnits="userSpaceOnUse"><feColorMatrix values="1 0 0 0 0 0 1 0 0 0 0 0 1 0 0 0 0 0 1 0"/></filter></defs><mask id="mask-9_2_" width="90.6" height="45.9" x="47.4" y="124.5" maskUnits="userSpaceOnUse"><g filter="url(#Adobe_OpacityMaskFilter_3_)"><path id="path-8_2_" d="M51.4 127c-.7 0-1.3.4-1.5 1.1-.2.6 0 1.4.5 1.8l50.1 37.8c.3.2.6.3.9.3.3 0 .7-.1.9-.3l32.3-24.4c.7-.5.8-1.5.3-2.2-.5-.7-1.5-.8-2.2-.3l-31.4 23.6-45.4-34.2H76l32.1 24.2c.7.5 1.7.4 2.2-.3.5-.7.4-1.7-.3-2.2l-32.5-24.5c-.3-.2-.6-.3-.9-.3l-25.2-.1z" class="st1"/></g></mask><path id="Fill-12" fill="#fffffe" d="M47.4 170.4h90.5v-45.9H47.4z" mask="url(#mask-9_2_)"/><defs><filter id="Adobe_OpacityMaskFilter_4_" width="108.4" height="108" x="47.4" y="30.1" filterUnits="userSpaceOnUse"><feColorMatrix values="1 0 0 0 0 0 1 0 0 0 0 0 1 0 0 0 0 0 1 0"/></filter></defs><mask id="mask-11_2_" width="108.4" height="108" x="47.4" y="30.1" maskUnits="userSpaceOnUse"><g filter="url(#Adobe_OpacityMaskFilter_4_)"><path id="path-10_2_" d="M75.5 32.9l-25 18.9c-.4.3-.6.8-.6 1.2 0 .5.2 1 .6 1.3l98.5 74.3-5.6 4.2c-.7.5-.8 1.5-.3 2.2.3.4.8.6 1.2.6.3 0 .7-.1.9-.3l7.2-5.5c.4-.3.6-.8.6-1.3s-.2-1-.6-1.3L54 53l22.4-16.9 6.9 5.2c.7.5 1.7.4 2.2-.3.5-.7.4-1.7-.3-2.2l-7.8-5.9c-.3-.2-.6-.3-.9-.3-.4 0-.7.1-1 .3z" class="st1"/></g></mask><path id="Fill-15" fill="#fffffe" d="M47.4 138.1h108.3v-108H47.4z" mask="url(#mask-11_2_)"/></svg>