<svg xmlns="http://www.w3.org/2000/svg" viewBox="0 0 200 200"><circle cx="100" cy="100" r="94.4" fill="#ecac2c" fill-rule="evenodd" clip-rule="evenodd"/><path fill="#85460f" fill-rule="evenodd" d="M93.7 24.6c-4 2.3-8 6.4-7.4 11.4.1-2.4 8-12.8 11.9-11.9-.3-.8-4.5.5-4.5.5zm71 16.2c-.1 8.6-7 14.4-14.7 17.4-2.9 1.1-11.1.4-12.8 2.3-.9.9-.9 11.1-.7 11.1 1.6-.3-.1-9.3 1.1-10.8 1.4-1.6 9.6-.7 12.1-1.6 8.6-3.2 17-10.8 14.9-20.6.3.8.1 1.5.1 2.2m-57.2 20c-.1 5.6-2.3 10.8-4.7 15.8-2.2 4.6-5.2 9.1-6.5 14.1-1.1 4.5.4 8.2.6 12.1-.1-9.8 1.1-14.7 5.6-24 3-6.5 6.6-13.2 5-20.6v2.6m-48.8 1.1c-6 3.2-11.8 4.2-17.2-.4 5.9 6.3 11.1 3.6 18.1 1 3.2-1.1 3.2-1.4 5.9-.9.3 0 8.2 4 8.2 4-.1-4.9-12.5-4.9-15-3.7m59.7 2.9c-.4.7 0 4.3.6 4.9-.1 0-.1-5.5-.6-4.9m74.4 32.8c0 10.6-1.6 21-5 30.9-6.8 19.4-20.7 36.6-37.5 48.1-18.7 12.6-41.4 17.8-63.7 15.1-8.5-1-16.8-4.3-24.6-7.6-5.7-2.4-10.3-3.3-4.9-.6 10.3 5.2 22.7 9.5 34.2 10.6 21.8 2 43.8-4 61.8-16.7 17.4-12.2 31.6-31.2 37.5-51.6 3.2-10.8 4.3-22.1 3.3-33.3-.4-5.5-1.3-10.9-2.7-16.4-.7-2.4 1.6 21.5 1.6 21.5zm-53.5-18.7c.4.3 1 .6 1.4.9.9-.9-3.4-2.9-1.4-.9m-13.5 3.2c-.4.9-9.9 10.2-11.1 6.6 1.1 3.4 7.3-1.3 8.3-2.3 1.6-1.5 3.8-6.3 2.8-4.3m24.3 4.1c3 2.4 8.3 5 11.9 6.5-1.9-.7-4.7-3.3-6.8-4.5-.8-.2-6.9-3.4-5.1-2m-76.8 10c-4.2 7.8-.9 23.9 1 31.8-2.7-11.1.6-21.4.1-32.1-.2-.5-.7-.3-1.1.3m95.7 5.7c0 3.2-3 6.5-4 9.5-1 3.2 0 7.6-2.7 10.2-3 2.7-9.3 1.6-13.1 2-1.7.1-12.6.1-13.7 1.1.3-.3 12.4-.3 14.1-.4 3.6-.4 10.1.7 13.1-1.7 3.3-2.6 2.3-8.3 3.6-12.1.9-2.3 2.7-4.3 3.3-6.8.2-.9-.6-5-.6-1.8m-23.4 2.7c-3.9 3.7-5.3 1-9.1 2.2 1.3-.4 4.3 1.7 7.5.3-1.7.9 5.3-4 4.9-3 1-2.6-4.6 1.8-3.3.5m-69 10.5c1.3 3.2 15.8 11.4 19.3 11.9 4.9.7 12.2-7 6.6-11.2 2 1.4-.1 7.9-1.7 9.2-3.3 2.6-6.6.4-9.8-1.3-2-.8-14.1-7.6-14.4-8.6m35.8 14.4c-2.6.1-5 .4-7.5.7 6 .9 12.1-.4 18.1.1 4.2.4 11.8 3 15.7.7-4.2 2.7-20.7-1.8-26.3-1.5m-10.8 4.6c0 7.3-5 13.1-6 20-.4 3 .4 7.3-2.6 9.2-1.3.9-6.2.6-6.9-.3 8.2 8.2 9.5-6 10.3-10.1.9-3.9 2.7-6.6 4.2-10.2 1.4-3.6.6-7.6 1.1-10.3.1.6-.1 1.1-.1 1.7m-19.9 7.2c0 2-.4 8.5-1.6 9.8-2.7 3.2-5.5.1-8.5-1.6-4.7-2.4-6.9-2.9-12.1-2.2-2.6.3-5 1.3-7.6 1-1.4-.1-4.7-2.2-5.7-1.9-1.1.3 6.2 2.9 5.5 2.7 2.3.4 4.6-.3 6.9-.6 5.6-1 7.2-1.4 12.4 1.1 2.9 1.4 6.6 5.3 9.6 2.7 1.6-1.3 2.4-11.1 1.9-12.1-1-.2-1.1.1-.8 1.1m-18.4 20.3c2.6 1.3 5.3 2.4 8 3.6 0-1.3.3-2.7-.3-4.2.1 5.9-7.3-1-10.2-1 .4.8 1.3 1.4 2.5 1.6" clip-rule="evenodd"/><path fill="#f8e080" fill-rule="evenodd" d="M99.9 6.3c-11.4.9-22.3 8-32.6 12.8-7 3.3-14.2 6.6-21.4 10.1-11.6 5.3-18.3 11.2-25.2 22.7-5.3 9.1-8.8 20.7-1.9 17.4 4.9-2.3 9.8-4.5 14.8-6.8 6.8-3 4.2-2.9 2.6-9.6 5.9 7 12.6 12.5 23.6 7.2 3.9-1.9 25.7-13.6 32.3-14.9 3.2-.6 9.6 1.1 8.2 4.7-.6 1.4-22.1 9.9-28 13.5 4.3 1.6 4.5 6.5 1.1 9.2-3.6 2.9-11.9 5.7-15.9 9.6-10.2 9.6-18.8 29.1-16 43.6-2.2-11.4 9.2-14.9 17.4-18.8 2.2-1 4.2-2 6.2-3 1.7-.9 4.3-1.4 5.7-2.7.9-.9 2.3-3.9 2.9-4.3 3-1.9 1.9-1 2.4 1.4.4 1.7.7 10.1.3 11.2 1.4-3.2-1-8.9 1.1-11.6 1.6-2.2 8.9-4.2 11.6-5.5 4.5-2 6.8-2.9 9.5-6.6s3.7-11.1 7-13.9c-9.1 8.3-23.9 12.6-35.2 18-8.3 3.9-27.2 8.9-26.7 21.3-.3-8.9 5.8-17.7 10.9-24.3 4.6-5.9 9.5-9.2 15.6-11.2 1-.3 37-17.7 36.7-18.4.9 2 1.1 6.6.7 8.8 1.9-8.9-3.7-16-9.9-21.4-6.6-5.9-12.8-8.9-4.7-17 .4-.4 4.6-4.6 12.5-4.4 4.6.3 9.1 6.5 12.5 6.5-1 0-3.9-3.7-4.6-4.6 5.3-1.3 10.3-4.6 15.4-6.9 1.7-.9 6.2-4 7.8-4.2 3.6-.3-4.6-2.9-8.3-3.9-9.3-2.8-18.9-4.7-28.4-4m2.9 18.4c-4.9 1.1-13.7 5.6-12.4 11.8-.4-1.9 19.7-9.3 21.8-9.5-2.8.2-5.7-3.2-9.4-2.3m-49.9 8.9c4.5 1 8.6 3.4 10.6 7.6-4.7-.6-11.6 4.6-16 6.6C45.1 48.9 39.2 53 37 52c-3.2-1.3-3.4-8.6-2.7-11.2 2.4-8.1 11.6-9 18.6-7.2m96-.3c-1.6.4-13.7 7.6-12.2 9.5 1 1.3 3 .3 3.6 2.9.1.7-.4 4.7-1.1 4.6-.4-.6-.9-1.1-1-1.9 5.2 3.6.1-2.6 1.3-5.3.6-1.4 16.2-8.3 16.8-7.9-7.2-5.6-13.8 7.5-19.3 7.3 4.7-5 10.2-9.6 17.7-9.2 3.6.1 7.6 1.3 9.3 4.6.7 1.4 2 7.2.7 8.5 2.3-2.3 0-9.1-1.9-10.8-3-3.2-10.3-3.5-13.9-2.3m-17.8 9.2c-4.3 1.9-.1 30.6 4.9 28.6 2.3-.9.1-7.6 1.9-9.5 2.2-2.2 5.2-1.1 8-1.7 5.5-1 17.5-6.3 18.4-13.1-.1 1-34.5 14.8-33.3 16-1.6-1.7-1.1-15.8-.6-17.1 1.7-4 4.5-3.3 7.5 1.4-1.3-2-2.8-6.3-6.8-4.6m-14.2 20.4c-3.2 3.2-8.2 15.2-4 19.3.1.1 10.8-6.8 11.2-4-.6-2.9-4.2-5.7-4.9-9.5-.2-.8.1-8.3-2.3-5.8m1.4 2.4c0 3.4-4.7 7.5-6.5 11.2 0-2.7 3.2-13.1 5.6-13.9 1 .6 1.3 1.6.9 2.7m24.6 30.5c-1 .4-7.3 8.5-6 8.6.7 0 4.9-6.5 6.6-7.2 1.1-.6 7.3-1.9 8.2-.6-1.3-1.9-7.2-1.5-8.8-.8m16.2.2s-3.6 2.7-3.3 3.2c.6.6 8.8-3.7 8.9-2.7-.1-1.3-4.9-1-5.6-.5m-46.7 22.5c-.6.7-.6 1.4-.3 2.3-.1 0 2.6-2 2.6-1.6-.1-1-1.9-1.1-2.3-.7m.9.4c-1 1.8.7-1.1 0 0m-1.9 4.5c-1.1 3.2-3.6 4.5-5.5 7 .1-.1 4.6-2.6 4.6-3.7 0 .7-3 3.9-3.3 3.6 2 2 6.2-8 4.9-8.2-.1.3-.4.7-.7 1.3m10.1.4c0 1.7 9.8 6 11.4 6.6 1.1.3 9.5.7 9.3.6-.4-.7-8.8-1.6-10.3-2.2-1.1-.5-10.4-4.7-10.4-5m-22.8 8.1c-7.9 1.6-6.3 12.9-8.9 18.5-1.3 3-7.2 9.5-8.2 9.5 1.3 0 5.7-5.7 7.6-6.2-.4.1-5.9 7-6.9 5.9 2.9 3.4 9.3-11.1 9.6-11.9 1-3.6.7-8.9 3.2-11.9 1.4-1.9 6-2 6.8-3.2-.3-1.6-1.4-1.7-3.2-.7m1.5.4c0 .1-6.6 2.6-6.2 3.4-.9-1.7 6.2-4.2 6.2-3.4m78.8 13c-1 2.7-9.5 4.6-11.8 5.7-4.5 2-8.9 4.2-13.4 6.3-7.6 3.6-15.1 7.2-22.7 10.8-8.8 4.2-17.7 8.2-26.6 12.4-6.5 3-16.1 10.1-23.4 9.2 20.1 2.2 39 2.2 57.5-6.8 15.9-7.5 34.2-21.8 40.4-37.6M63.2 159.1c-1.3-.3-2.2.1-2.6 1 .4.7 9.3.1 9.3-.1.1-2-6.5-.9-6.7-.9m2.9.5c-1.6.3-3.3.4-4.9.6 2-.7 4.3-1 6.5-.9-.6.2-1 .2-1.6.3" clip-rule="evenodd"/><path fill="#9c6b23" fill-rule="evenodd" d="M89.3 36.1c.9-3 7.5-10.3 7.8-10.5 5.3-3.2 11.6-1.1 16 1.3-17.5-8.9-23.6 8.8-23.8 9.2zm76 4.7c.1 1.9.1 7.6-1.7 8.8 1.7-1 3.4-9.5 1.9-11.1-.8.4-.9 1.1-.2 2.3m-.3 7.9c-4.2 9.1-13.9 10.3-22.1 12.6-2 .6-3-.3-4.2 1.1-1.3 1.9-.7 1.9-1 2.8-1 3.2 3 15.2 3.5 14.9-.3.3-7-8.2-7-8.5.1 1.7 5.6 9.8 7.6 9.3-.3 0-3.2-10.6-3.2-12.5-.1-5.3 0-5.3 3.4-6.9 4.7-2 9.1-.9 13.9-3.9 2-1.3 11.4-7.5 10.2-10.9-.5.7-.9 1.2-1.1 2m-3.3 2.8c-1.7 1.7-8.3 7.8-11.1 7.8 1.9 0 12.9-8.8 12.6-9.1-.5.3-1.1.8-1.5 1.3m-55.6 1.8c0 3.4 3.6 7.9 2.2 11.6 1.9-5.7-2.2-7.5-2.2-11.6m-66.6 4c0 2.2 6.6 7.2 8.5 7.5-1.6-.7-8.5-7.5-8.5-7.5zM141 60.4c-2.4.1-3.6 1-3.2 3.6-.3-4.6 5.7-3.3 8.9-3.7-1.8 0-3.7 0-5.7.1m-80.3 2.8c-2.6 1.3-9 3-8.4 2.9 3.1-1 7.7-3.4 10.8-3.6 4.5-.4 7.6 2.7 12.1 4.7l-7.7-4.3c-2-.9-3-1.7-6.8.3m58.3 2.4c0 .6 2 10.2 3.3 9.3.6-.4-3.6-10.6-3-11.1-.1.7-.3 1.2-.3 1.8m1 2.5c.1.9.1 1.6 0 2.4-1.1-1.1-.1-4.2-.3-4.9.2.9.2 1.7.3 2.5m-11.5-1.3c-.4 7-6.2 14.4-8.9 20.7-2.6 6.2-1.9 9.6-1.7 16.1 0-2.9-1.6-6-1.1-9.5.1-.7 2.7-7.6 2.4-7.9-.1-.1-2.9 8.2-3 8.9-.4 5.7 2 11.1 4.2 16.4 2 4.7 6.2 16.5-3.4 15.7 4.5 1 10.5-7.3 6.5-10.3 5.6 4.2-1.7 11.8-6.6 11.2-2.4-.3-19.1-12.4-19.3-12.2.3-.3 18.5 10.3 19.3 11.1-2.2-2.6-8.6-5.3-11.4-7-2.6-1.6-6.2-4.6-8.9-5.6.7.3 5.6 5.2 7 6 3.4 2.4 6.9 5.7 10.9 7.3 9.5 3.6 12.2-4.6 9.1-12.4-3.6-9.2-7.6-15.2-4.2-25.3 2.4-7.6 8.7-15.9 9.1-23.2m-4.6 9.6c-.4.9-.4 1.1 0 .6.6-1.3.6-1.5 0-.6m-2.7 5.3c-.7 1.1-1.3 2.4-1.7 3.7.6-.6 4.5-7.3 4-7.8-.9 1.5-1.6 2.8-2.3 4.1m25.7-.3c0 2.6-4.3 5.8-6.2 6.7-3.7 1.5-5.2-.3-6.3-.3 0 0 1.3 1.3 3 1.3 2.6 0 5.1-1.2 7-3 1.7-2.2 4.6-3.7 2.1-6l.4 1.3zm20.7 3.1c0 2.3 15.4 10.6 18.1 12.4.7.4-1.1-3.4-1.6-3.9-1-.9-3-1.6-4-2.2-.8-.6-12.5-5.5-12.5-6.3m15.7 9.4c-2-.9-11.5-5.4-12.6-7.2.9.3 9.7 6 12.6 7.2zM74 96.8c-.4.7.6 29.3 1.3 32-.9-3.3-1.6-6.5-1.9-10.1-.3-4.7-.8-1.5-.1 4.4 1.1 8.3 8.8 13.1 9.1 21.3 0-.9-.1-2.3.1-3.2-2.3 7.8 2 16.7-9.8 10.3-4.2-2.3-6-3.3-10.6-2.9-3.4.3-6.2 2-9.9 1.4-.9-.1-5.9-2.6-5.5-2.7 1-.3 4.3 1.7 5.7 1.9 3.6.4 6.8-1.6 10.2-1.7 1.4 0 13.9 4 12.9 5 0 0-5.6-3.7-6.5-4.2-4.5-1.9-7-.4-11.8.1-4.6.6-15.1-1.6-14.8-8.2-.7 14.9 16.4 7.5 23.3 8.5 8.8 1.3 17.8 13.1 17.5-4.5-.1-5.7-4.5-8.3-6.8-13.2-1.6-3.3-1.9-6.8-2.2-10.3-.4-5-.6-10.1-.3-15.1 0-1.3 1.9-8 1.4-8.9 0-.7-.7-.6-1.3.1zm95.8 5.2c0 1.1-.7 5-1.9 5.7.9-.6 2.3-6.3 2.4-6.3-1 0-4.5 20.6-8 22.4-3.4 1.9-10.8 1-14.8 1.6-3.9.4-7.8 1.1-11.4-.3 1.1 0 2.3-.1 3.4-.1-.7-.1-3.6-1-3.6.1 0 2 25 .4 27.6-1.6 3.4-2.6 2.7-7.6 3.9-11.5.7-2.4 2.9-4.7 3.3-7.3 0-.3 0-5.9-.7-4.6-.1.7-.2 1.3-.2 1.9m-23.5 3.3c-.3.1-3.2 2.9-3.9 2.9.1 0 8.3-5.3 7.6-3.3.3-1-6.6 3.9-4.9 3-3 1.4-6.2-.7-7.5-.3l4.2.7c-.4-.4-4.5-1.9-5-1.9-.9 0 2.9 3.4 4.9 3.3 2.9-.1 5.5-3 7.5-4.9.4.6 1.4 1.9 2.2 2-2.2-.2-.2-5.8-5.1-1.5m20.4 4.2c-.3.6-.4 1-.7 1.6 0-.4 1.9-2.4 1.4-2.9-.1.5-.4 1-.7 1.3m-1.3 4.3c-.3 1.7-.3 9.6-4.2 9.5 2.7.1 6.6-9.6 4.7-11.5-.2.5-.3 1.3-.5 2m-14.8 9.9c-2.3.6-6.6 1.7-8.8 1.3 2.2.4 17.4-.3 18.5-1.4-.8.7-8.1-.2-9.7.1m-4.1 6.9c-.2.4.8-1.3 0 0m-40.7.9c2 2.4 16.5.1 20.4.4 4.5.4 16.2 2.7 19.8-.9-2.7 2.7-13.7-1.1-17.2-.1 2.6-.9 8.9 2.2 11.1.9-4.2 2.4-12.8-.6-17.4-.9-2.9 0-15.8 1.6-16.7.6m-9.5 20.8c-.9 3 .9 8-1.7 10.5-3.2 3-5.5-1.1-8.2-.1-1.4.6 3 2.7 3 2.7-.7-.6-1.6-1-2.4-1.4 1.6 1.7 6.5.7 8.2-.9 2.3-2.3 1-10.2 1.1-10.8m-14.2 7.6c-3.4 1 4.2 2.2 4.2 1.3-.9-1.7-2.2-2.1-4.2-1.3m3.1.4c.6.4-3.2 1.1-3.4.3-.3-.8 3.2-.5 3.4-.3m-24.4.5c1.4-.9 9.2 7 11.6 5.5.9-.6 0-5.5-.9-5-1.6.7 1.1 3.2-1.4 2.7-.7-.1-4.2-2.2-4.6-1.7 1.1-1.1 7 6 6.5-.3.6 1.3.3 2.7.3 4.2-2.9-1.3-8.9-5-9.2-5.2-.9-.2-1.6-.2-2.3-.2" clip-rule="evenodd"/></svg>