<?xml version="1.0" encoding="utf-8"?>
<!-- Generator: Adobe Illustrator 22.1.0, SVG Export Plug-In . SVG Version: 6.00 Build 0)  -->
<svg version="1.0" id="Livello_1" xmlns="http://www.w3.org/2000/svg" xmlns:xlink="http://www.w3.org/1999/xlink" x="0px" y="0px"
	 viewBox="0 0 200 200" enable-background="new 0 0 200 200" xml:space="preserve">
<path fill="#606161" d="M184.4,53.9c0,0-25-50.1-87.6-48.9C54.2,5.8,26.9,30.7,15.5,57.6c-5.3,12.7-6.3,26.7-5.2,37.3
	c1.5,14.4,8.2,28.7,16.5,38.9C37.5,146.9,50.1,154,50.1,154s-30.5-34.3-21-72.7c3-12.1,8.9-24.5,22.2-36.5
	c17-15.3,34.3-21.3,50.6-23.2C138.9,17.4,171,38.9,184.4,53.9z"/>
<path fill="#5DC9BC" d="M15.6,146.1c0,0,25,50.1,87.6,48.9c42.5-0.8,69.9-25.7,81.3-52.6c5.3-12.7,6.3-26.7,5.2-37.3
	c-1.5-14.4-8.2-28.7-16.5-38.9c-10.7-13.1-23.3-20.3-23.3-20.3s30.5,34.3,21,72.7c-3,12.1-8.9,24.5-22.2,36.5
	c-17,15.3-34.3,21.3-50.6,23.2C61.1,182.6,29,161.1,15.6,146.1z"/>
<path fill="#606161" d="M141.7,61.3H86c0,0-21.6,0-27.3,17.1h30.7v67.1c0,0,20.5-2.3,20.5-25s0-42.1,0-42.1h6.8
	C116.7,78.4,136,78.4,141.7,61.3z"/>
</svg>
