<svg xmlns="http://www.w3.org/2000/svg" version="1" viewBox="0 0 200 200"><linearGradient id="a" x1="55.0991" x2="133.0469" y1="161.3741" y2="83.4263" gradientTransform="matrix(1 0 0 -1 0 200)" gradientUnits="userSpaceOnUse"><stop offset="0" stop-color="#e4d8bd"/><stop offset=".5033" stop-color="#e0c566"/><stop offset="1" stop-color="#b8804a"/></linearGradient><path fill="url(#a)" d="M68.3 42.1c12.3.2 24.5 2.1 36.3 5.6 19.7 6.5 35.9 20.5 45.3 38.9.7 1.4 1.5 2.8 2.2 4.2.4.9.4 2-.2 2.9-2.1 4.1-4.7 8-7.7 11.5-6.4 7.4-14.5 13.1-23.7 16.5l-.7.3c-2.2.8-2.2.7-2.8-1.4-7.4-23.2-23-37.3-46.9-41.8-8.1-1.4-16.3-1-24.2 1.1-1.8.4-1.9.4-2.2-1.5-1.5-8.1-1.4-16.5.5-24.5.4-2.1 1.1-4.1 2-6 .5-1 1.2-1.7 2.2-2.2 3.4-1.5 7-2.5 10.7-2.9 3-.4 6.1-.7 9.2-.7z"/><linearGradient id="b" x1="34.3801" x2="153.0062" y1="144.7803" y2="26.1542" gradientTransform="matrix(1 0 0 -1 0 200)" gradientUnits="userSpaceOnUse"><stop offset="0" stop-color="#e4d8bd"/><stop offset=".5033" stop-color="#e0c566"/><stop offset="1" stop-color="#b8804a"/></linearGradient><path fill="url(#b)" d="M180.8 95.7c.4 7-.2 13.9-1.8 20.7-2.5 11-6.1 21.7-10.6 32.1-3.4 8.3-8 16-13.6 23-9.7 11.8-21.6 20-37 22.6-6.9 1.1-14 .9-20.9-.5-.6-.2-1.3-.2-1.9 0-8.3 2.4-17.1 1.7-24.8-2.1-7.9-3.7-15-8.9-20.7-15.4-16-17.4-24.6-38.3-29.2-61.2-1.3-6.6-1.8-13.3-1.5-20C19.4 82 22.7 70 30.7 59.5c3.5-4.6 7.8-8.5 12.7-11.4.7-.5 1.5-.9 2.3-1.1.2.2.1.4 0 .6-2.4 5.6-3.6 11.6-3.6 17.7-.3 7.2.7 14.5 2.9 21.3.6 1.7 1.3 3.4 2.2 5 .5.9.6 2 .2 3-2.9 7.5-4.6 15.3-5.2 23.3-.8 10.1.6 20.2 4 29.8 3.3 9.3 8.1 17.9 14.2 25.7 3.9 5.4 8.6 10.1 14 13.9 4.5 2.9 9.6 4.6 15 5.2l-5.1-1.2c-.4 0-.9-.2-.9-.6-.1-.4.5-.6.8-.7 6.4-2.6 12.3-6.4 17.3-11.2 2.2-2 4.2-4.3 6-6.8.7-1.1 1.8-1.8 3.1-1.8 10-1.2 19.6-4.3 28.4-9.2 8.3-4.6 15.9-10.6 22.3-17.6 5.1-5.7 9.3-12.1 12.4-19.1 3.7-8.2 6.2-17 7.3-26-.3-1-.3-1.8-.2-2.6z"/><linearGradient id="c" x1="107.0213" x2="154.0764" y1="98.0687" y2="51.0136" gradientTransform="matrix(1 0 0 -1 0 200)" gradientUnits="userSpaceOnUse"><stop offset="0" stop-color="#e4d8bd"/><stop offset=".5033" stop-color="#e0c566"/><stop offset="1" stop-color="#b8804a"/></linearGradient><path fill="url(#c)" d="M100.8 169.9h-5.2c-1.1.1-2.2-.5-2.7-1.5-4.9-7.4-8.1-15.7-9.3-24.5-.9-5.9-.7-12 .5-17.9.4-2.1.5-2.1 2.5-1.6 19.4 4.1 36.9 0 52.1-12.8 8.8-7.5 15.1-17.6 18-28.8.5-1.9.6-1.9 2.4-1.3 6.4 2.1 12.4 5.4 17.6 9.6 2.8 2.2 2.8 2.2 2.4 6.6-.8 8.6-3 17-6.4 25-7.7 17.5-21.4 31.6-38.6 39.8-8.3 3.9-17.3 6.4-26.4 7.3-2.2.1-4.5.1-6.9.1z"/><linearGradient id="d" x1="40.8935" x2="112.4585" y1="105.6235" y2="34.0585" gradientTransform="matrix(1 0 0 -1 0 200)" gradientUnits="userSpaceOnUse"><stop offset="0" stop-color="#e4d8bd"/><stop offset=".5033" stop-color="#e0c566"/><stop offset="1" stop-color="#b8804a"/></linearGradient><path fill="url(#d)" d="M42.9 122.8c-.1-14.9 4.1-29.6 12-42.2.7-1.3 2.1-2.1 3.5-2 10.1-.3 20.2 1.9 29.2 6.6 4 2.1 7.8 4.7 11.2 7.7 1.6 1.3 1.5 1.4.1 2.8-8 8-13.3 18.1-15.4 29.2-3.2 15.9.4 32.3 9.8 45.4 1.7 2.5 3.6 4.9 5.8 7 .9.8.7 1.3 0 2-4.9 4.4-10.6 8-16.7 10.5-1 .4-2 .2-2.9-.4-5.9-3.4-11.2-7.7-15.7-12.8-12-12.7-19.3-29.2-20.8-46.6-.1-2.3-.1-4.7-.1-7.2z"/><linearGradient id="e" x1="117.0275" x2="179.4882" y1="166.9672" y2="104.5065" gradientTransform="matrix(1 0 0 -1 0 200)" gradientUnits="userSpaceOnUse"><stop offset="0" stop-color="#e4d8bd"/><stop offset=".5033" stop-color="#e0c566"/><stop offset="1" stop-color="#b8804a"/></linearGradient><path fill="url(#e)" d="M103.8 46.3c.3-.5.9-.5 1.4-.6 7.1-1.9 14.4-2.8 21.8-2.9 5.7-.3 11.4.1 17.1 1 8.7 1.7 16.6 6 22.7 12.4 5.7 6.3 9.9 13.9 12.1 22.2 1.3 4.7 2.2 9.5 2.6 14.4 0 .3.2.7-.2.8-.3.2-.6-.2-.8-.3-1.3-1.1-2.7-2.2-4-3.5-4.1-3.5-8.7-6.1-13.8-7.9-4.7-1.9-9.7-3-14.7-3.5-1-.1-1.9-.6-2.4-1.4-5.5-7.9-12.4-14.7-20.4-20.1-6.3-4.3-13.1-7.6-20.3-10l-1-.4c0 .1-.1-.2-.1-.2z"/><linearGradient id="f" x1="101.6266" x2="122.3963" y1="183.0641" y2="162.2945" gradientTransform="matrix(1 0 0 -1 0 200)" gradientUnits="userSpaceOnUse"><stop offset="0" stop-color="#e4d8bd"/><stop offset=".5033" stop-color="#e0c566"/><stop offset="1" stop-color="#b8804a"/></linearGradient><path fill="url(#f)" d="M113.8 32.7c-.9 2.2-1.9 4.3-2.7 6.4-2 4.6-7 7.1-11.9 5.8-1.1-.3-1.4-.8-.9-1.9 3.3-8.8 6.3-17.7 9.2-26.7.5-1.7.8-3.4 1-5.2.1-1.1.8-2.1 1.8-2.6 2.9-1.3 5.9-2.5 9-3.5 1-.3 1.5-.2 1.5.9.2 3.6.2 7.1 0 10.7 0 3.3-.3 6.6-.5 9.9-.2 4.4-.5 8.7-1 13 0 .7 0 1.6-.9 1.7-.9.1-1.5-.6-1.8-1.5l-2.6-7h-.2z"/></svg>