<svg xmlns="http://www.w3.org/2000/svg" viewBox="0 0 200 200"><circle cx="100" cy="100" r="95" fill="#f4f7e2"/><path fill="#f66" d="M49.7 134.9l14-68L100 17l34.9 48.1 32.3-32.3C130.1-4.3 70-4.3 32.9 32.8s-37.1 97.2 0 134.3l26.4-26.4-9.6-5.8z"/><path fill="#d95e59" d="M59.3 140.7l-26.4 26.4c9.6-9.6 21.2-17.1 34-21.9l-7.6-4.5zM167.2 32.8l-32.3 32.3 1.1 1.5 14.3 68.3-17.1 10.4c12.8 4.8 24.4 12.2 34 21.9 37.1-37.1 37.1-97.3 0-134.4z"/><path d="M100 26.8L69.1 69.3l-12.9 62.8 43.8 26.7 43.8-26.7L130.6 69 100 26.8zM63.3 129.2l9.8-47.8 22.2 67.3-32-19.5zm12.9-58.6L100 37.9l23.8 32.7-23.8 71.8-23.8-71.8zm28.3 78.1l22.2-67.3 9.8 47.8-32 19.5z"/></svg>