<svg xmlns="http://www.w3.org/2000/svg" id="Livello_1" enable-background="new 0 0 200 200" viewBox="0 0 200 200"><style>.st2{fill-rule:evenodd;clip-rule:evenodd;fill:#fff}</style><path fill="#0098d4" fill-rule="evenodd" d="M100 .5c55 0 99.5 44.5 99.5 99.5L100 199.5C45 199.5.5 155 .5 100S45 .5 100 .5z" clip-rule="evenodd"/><defs><filter id="Adobe_OpacityMaskFilter" width="92.7" height="81.4" x="16.3" y="118.1" filterUnits="userSpaceOnUse"><feColorMatrix values="1 0 0 0 0 0 1 0 0 0 0 0 1 0 0 0 0 0 1 0"/></filter></defs><mask id="moneyfold_eur-f_1_" width="92.7" height="81.4" x="16.3" y="118.1" maskUnits="userSpaceOnUse"><g filter="url(#Adobe_OpacityMaskFilter)"><path id="moneyfold_eur-e_1_" d="M100 .5c55 0 99.5 44.5 99.5 99.5L100 199.5C45 199.5.5 155 .5 100S45 .5 100 .5z" class="st2"/></g></mask><path fill="#0064ac" fill-rule="evenodd" d="M109 118.1l-6.7 81.4h-86l82.9-80.9z" clip-rule="evenodd" enable-background="new" mask="url(#moneyfold_eur-f_1_)" opacity=".272"/><path d="M109 140.5c-16.1 0-30-9.1-36.9-22.4H109v-12.8H67.9c-.3-2.1-.5-4.2-.5-6.4s.2-4.3.5-6.4H109V79.6H72.1c7-13.3 20.9-22.4 36.9-22.4 10.3 0 19.8 3.8 27.1 10.1L147.4 56c-10.2-9.2-23.7-14.7-38.4-14.7-25.1 0-46.4 16.1-54.3 38.4H32.2v12.8h19.6c-.3 2.1-.4 4.2-.4 6.4s.1 4.3.4 6.4H32.2v12.8h22.6c7.9 22.4 29.2 38.4 54.3 38.4 14.8 0 28.3-5.6 38.4-14.7l-11.4-11.3c-7.3 6.2-16.7 10-27.1 10z" class="st2"/><defs><filter id="Adobe_OpacityMaskFilter_1_" width="90.5" height="81.4" x="16.3" y="118.1" filterUnits="userSpaceOnUse"><feColorMatrix values="1 0 0 0 0 0 1 0 0 0 0 0 1 0 0 0 0 0 1 0"/></filter></defs><mask id="moneyfold_eur-h_1_" width="90.5" height="81.4" x="16.3" y="118.1" maskUnits="userSpaceOnUse"><g filter="url(#Adobe_OpacityMaskFilter_1_)"><path id="moneyfold_eur-g_1_" d="M109 140.5c-16.1 0-30-9.1-36.9-22.4H109v-12.8H67.9c-.3-2.1-.5-4.2-.5-6.4s.2-4.3.5-6.4H109V79.6H72.1c7-13.3 20.9-22.4 36.9-22.4 10.3 0 19.8 3.8 27.1 10.1L147.4 56c-10.2-9.2-23.7-14.7-38.4-14.7-25.1 0-46.4 16.1-54.3 38.4H32.2v12.8h19.6c-.3 2.1-.4 4.2-.4 6.4s.1 4.3.4 6.4H32.2v12.8h22.6c7.9 22.4 29.2 38.4 54.3 38.4 14.8 0 28.3-5.6 38.4-14.7l-11.4-11.3c-7.3 6.2-16.7 10-27.1 10z" class="st2"/></g></mask><path fill="#d3e5ec" fill-rule="evenodd" d="M106.8 118.1l-4.5 81.4h-86l83.3-81.2z" clip-rule="evenodd" mask="url(#moneyfold_eur-h_1_)"/><linearGradient id="SVGID_1_" x1="1.5469" x2="2.3242" y1="200.4531" y2="199.6758" gradientTransform="matrix(64 0 0 -64 1 12929)" gradientUnits="userSpaceOnUse"><stop offset="0" stop-color="#fff"/><stop offset=".5563" stop-color="#f3f8fa"/><stop offset="1" stop-color="#d2e4ec"/></linearGradient><path fill="url(#SVGID_1_)" fill-rule="evenodd" d="M129.4 100h70.1L100 199.5v-70.1c0-16.2 13.2-29.4 29.4-29.4z" clip-rule="evenodd"/></svg>