<?xml version="1.0" encoding="utf-8"?>
<!-- Generator: Adobe Illustrator 16.0.0, SVG Export Plug-In . SVG Version: 6.00 Build 0)  -->
<!DOCTYPE svg PUBLIC "-//W3C//DTD SVG 1.0//EN" "http://www.w3.org/TR/2001/REC-SVG-20010904/DTD/svg10.dtd">
<svg version="1.0" id="Layer_1" xmlns="http://www.w3.org/2000/svg" xmlns:xlink="http://www.w3.org/1999/xlink" x="0px" y="0px"
	 width="200px" height="200px" viewBox="0 0 200 200" enable-background="new 0 0 200 200" xml:space="preserve">
<rect x="0.146" y="0.483" fill="#1C174B" width="200" height="200.001"/>
<g>
	<path fill="#FFFFFF" d="M89.511,22.066c0,0-24.734,10.157-24.906,39.906c0,26.778,27.917,40.5,27.917,40.5s33.083,14.667,33.083,38
		c0,23.75-17.041,33.625-17.041,33.625s-1.834,1.417-0.625,2.959c1.041,1.328,7.666-3,7.666-3s20.083-12.251,20.083-37.251
		c0-28.333-23.999-39-41.166-50.166s-18.167-22-18.167-30s1.833-18.667,15.833-31.833c0,0,1.5-1.667,0.333-2.75
		C91.729,21.316,90.011,21.785,89.511,22.066z"/>
	<path fill="#FFFFFF" d="M110.438,21.975c0,0,25.148,13.901,25.25,37.167c0.03,6.924-1.592,14.625-7.322,23.088
		c-1.108,1.637-4.761,6.62-9.104,4.521c-1.873-0.905-3.172-2.96-1.574-7.525c1.999-5.712,6.239-12.565,6.1-22.751
		c-0.105-7.646-1.807-17.171-13.6-29.499c0,0-1.504-1.166-2.166-2.584C107.26,22.759,107.494,20.905,110.438,21.975z"/>
	<path fill="#FFFFFF" d="M89.855,176.992c0,0-25.148-13.901-25.25-37.167c-0.03-6.924,1.592-14.625,7.322-23.088
		c1.108-1.637,4.714-6.555,9.104-4.521c1.887,0.875,3.172,2.96,1.574,7.525c-1.999,5.712-6.239,12.565-6.1,22.75
		c0.105,7.646,1.807,17.172,13.6,29.5c0,0,1.504,1.166,2.167,2.584C93.033,176.208,92.798,178.063,89.855,176.992z"/>
</g>
</svg>
