<svg xmlns="http://www.w3.org/2000/svg" viewBox="0 0 200 200"><path fill="#b3d234" fill-rule="evenodd" d="M57.8 33.2c3.6-4.1 6.9-7.7 10.1-10.6C14.4 20.8 30 59.8 12.6 99.4c-20.1 45.6 2.4 63 35.8 68.4-4.6-5.5-8.4-11.8-11.3-18.6-21.7-27.5-13-77.6 20.7-116" clip-rule="evenodd"/><path fill="#0095d9" fill-rule="evenodd" d="M186.5 81.8c-5 14.1-14.1 30-27 45.6-10.1 12.2-21.2 21.7-32.8 28.7-13.3 8.7-29.9 13.9-48.4 13.9-10.4 0-20.6-.6-29.9-2.1 5.5 6.6 12.2 12 20 15.8 48.3 23.6 51.4-20.2 102.5-42.4 28.7-12.6 28.8-37 15.6-59.5" clip-rule="evenodd"/><path fill="#eee809" fill-rule="evenodd" d="M126.6 36.2c7.1 1.3 13.9 3.7 20 7.1 16.2 9.3 31 23.4 39.9 38.4 8.7-24.7 4.7-44.2-14.4-47.7-20.9-3.9-37.3-5.1-53-16.2C99.7 4.2 82.7 8.7 68 22.4c1 0 2.1.1 3.2.1 20.4 1.4 39.9 5.5 55.4 13.7" clip-rule="evenodd"/><path fill="#51b849" fill-rule="evenodd" d="M57.8 33.2c-33.7 38.4-42.4 88.4-20.7 115.9-9.7-23-9.1-51.7 4.7-74.6C60 44 96.6 30.7 126.6 36.2c-15.5-8.2-35-12.3-55.5-13.5-1.1-.1-2.2-.1-3.2-.1-3.1 2.9-6.5 6.5-10.1 10.6" clip-rule="evenodd"/><path fill="#00845d" fill-rule="evenodd" d="M146.6 43.4c-6.1-3.5-12.8-5.8-20-7.1 20.5 10.9 34.1 29.2 34 58.4-.1 25.3-13.1 47.7-34 61.3 11.5-6.9 22.7-16.5 32.8-28.7 12.9-15.6 22-31.4 27-45.6-8.8-14.9-23.6-29.1-39.8-38.3" clip-rule="evenodd"/><path fill="#005121" fill-rule="evenodd" d="M123.3 142.1c-23.1 15-54 8.3-68.9-14.9S46.8 74 69.2 58c25.1-18 57.2-10.9 68.9 14.9 11.5 25.2 8.3 54.2-14.8 69.2m3.3-105.9C96.6 30.7 60 44 41.7 74.5 28 97.4 27.3 126.1 37 149.1c2.9 6.8 6.7 13.1 11.3 18.6 9.3 1.5 19.5 2.1 29.9 2.1 18.5 0 35.1-5.1 48.4-13.9 20.9-13.6 33.8-36 34-61.3.2-29.1-13.5-47.5-34-58.4" clip-rule="evenodd"/></svg>