<?xml version="1.0" encoding="utf-8"?>
<!-- Generator: Adobe Illustrator 22.1.0, SVG Export Plug-In . SVG Version: 6.00 Build 0)  -->
<svg version="1.0" id="Livello_1" xmlns="http://www.w3.org/2000/svg" xmlns:xlink="http://www.w3.org/1999/xlink" x="0px" y="0px"
	 viewBox="0 0 200 200" enable-background="new 0 0 200 200" xml:space="preserve">
<path d="M100.5,11.4c-49,0-88.6,39.7-88.6,88.6s39.7,88.6,88.6,88.6s88.6-39.7,88.6-88.6S149.5,11.4,100.5,11.4z M61,163.8l0.8-14.8
	c2-37.2-7.8-77.9-23.1-95.8c-5.1-6.1-5.6-7.4-2.1-6.6c1.2,0.4,5.6,1.5,9.7,2.3c17.6,3.9,36.4,15.9,44.9,28.5l4.7,6.8l-5.5,6.2
	c-9.5,10.9-18.3,30.8-25.3,57.9L61,163.8z M110.8,115.6c-4.3,7-9.4,21.4-9.4,27c0,4.8-2.3,2.6-3.1-3.2c-0.9-7-5.8-19.4-9.8-25.3
	c-3-4.3-3.1-5.5-1.9-9.4c1.9-5.6,10.3-15.5,13.4-15.5c1.3,0,4.4,2.3,7.1,5.2c2.5,2.8,5.4,7.2,6.2,9.9
	C114.8,108.7,114.5,109.7,110.8,115.6z M161.6,52.8c-5.9,6.7-15.1,26.9-18.4,40.5c-3.9,15.9-5.9,39.6-5,56.4l0.8,14.1l-4.6-17.5
	c-7.1-27-15.6-46.1-25.1-56.4l-5.2-5.6l5.8-8.1c9.8-13.2,25.1-22.6,44.6-27.4c11-2.7,11.4-2.8,11.4-1.8
	C165.9,47.6,164,50.1,161.6,52.8z"/>
<path d="M100,195c-52.4,0-95-42.6-95-95S47.6,5,100,5s95,42.6,95,95S152.4,195,100,195z M100,7.1C48.8,7.1,7.1,48.8,7.1,100
	c0,51.2,41.7,92.9,92.9,92.9c51.2,0,92.9-41.7,92.9-92.9C192.9,48.8,151.2,7.1,100,7.1z"/>
</svg>
