<?xml version="1.0" encoding="utf-8"?>
<!-- Generator: Adobe Illustrator 22.1.0, SVG Export Plug-In . SVG Version: 6.00 Build 0)  -->
<svg version="1.0" id="Layer_1" xmlns="http://www.w3.org/2000/svg" xmlns:xlink="http://www.w3.org/1999/xlink" x="0px" y="0px"
	 viewBox="0 0 200 200" enable-background="new 0 0 200 200" xml:space="preserve">
<path id="path0_fill" fill="#FF9933" d="M5,10.9c10.5,0,21,0,31.5,0C43.1,45.3,49.7,79.7,56.3,114c0.3,1.5,0.7,3,1.1,4.5
	c1.6-6,2.5-12.1,3.8-18.2c6-29.8,12.1-59.6,18.1-89.5h30.4c-11.2,48.3-22.3,96.5-33.5,144.8H38.5C27.3,107.5,16.2,59.3,5,10.9
	L5,10.9z M122,56.4c6.6-8.1,17.2-11.7,27.4-12.4c10.1-0.7,20.9,0.2,29.5,6c7.5,5.1,11.7,13.8,13.7,22.4c2.4,10.8,2.5,21.9,2.5,32.9
	h-55.8c0,8.1-0.5,16.5,2.3,24.3c1.4,3.8,3.9,7.6,7.9,9.1c4.3,1.4,9.5,0.5,12.6-2.9c4.2-4.6,5.1-11,6-16.9h25.3
	c-0.6,9.8-2.4,20.1-9,27.8c-6.6,8-17.3,11.3-27.4,11.7c-11,0.4-22.9-1-31.6-8.2c-8.1-6.6-11.7-17-13.1-27
	c-1.4-11.5-1.5-23.1-0.8-34.7C112.3,77.3,114.5,65.3,122,56.4L122,56.4z M143.6,67.9c-4.3,6-4.4,13.8-4.4,20.9H168
	c-0.4-6.8-0.4-13.9-3.5-20.1C160.6,61.1,148.3,61.1,143.6,67.9L143.6,67.9z"/>
<path id="path1_fill" fill="#FF9933" d="M21.7,168.3c-3.3,0-6,2.6-6,5.9v9.1c0,3.2,2.7,5.9,6,5.9h9.4c1.1,0,2-0.9,2-2s-0.9-2-2-2
	h-9.4c-1.1,0-2-0.9-2-2v-9.1c0-1.1,0.9-2,2-2h22.1c1.1,0,2,0.9,2,2v5.9c0,1.1,0.9,2,2,2s2-0.9,2-2v-5.9c0-3.2-2.7-5.9-6-5.9H21.7z"
	/>
<path id="path1_fill_1_" fill="#FF9933" d="M181,189.1c3.3,0,6-2.6,6-5.9v-9.1c0-3.2-2.7-5.9-6-5.9h-9.4c-1.1,0-2,0.9-2,2s0.9,2,2,2
	h9.4c1.1,0,2,0.9,2,2v9.1c0,1.1-0.9,2-2,2h-22.1c-1.1,0-2-0.9-2-2v-5.9c0-1.1-0.9-2-2-2c-1.1,0-2,0.9-2,2v5.9c0,3.2,2.7,5.9,6,5.9
	H181L181,189.1z"/>
<path id="path2_fill" fill="#FF9933" d="M61.2,168.3c-3.3,0-6,2.6-6,5.9v5.9c0,1.1,0.9,2,2,2s2-0.9,2-2v-5.9c0-1.1,0.9-2,2-2h22
	c1.1,0,2,0.9,2,2v5.9c0,1.1,0.9,2,2,2s2-0.9,2-2v-5.9c0-3.2-2.7-5.9-6-5.9H61.2z"/>
<path id="path2_fill_1_" fill="#FF9933" d="M63.2,189.1c3.3,0,6-2.6,6-5.9v-5.9c0-1.1-0.9-2-2-2s-2,0.9-2,2v5.9c0,1.1-0.9,2-2,2h-22
	c-1.1,0-2-0.9-2-2v-5.9c0-1.1-0.9-2-2-2s-2,0.9-2,2v5.9c0,3.2,2.7,5.9,6,5.9H63.2L63.2,189.1z"/>
<path id="path2_fill_2_" fill="#FF9933" d="M102.7,189.1c3.3,0,6-2.6,6-5.9v-5.9c0-1.1-0.9-2-2-2s-2,0.9-2,2v5.9c0,1.1-0.9,2-2,2
	h-22c-1.1,0-2-0.9-2-2v-5.9c0-1.1-0.9-2-2-2s-2,0.9-2,2v5.9c0,3.2,2.7,5.9,6,5.9H102.7z"/>
<path id="path2_fill_3_" fill="#FF9933" d="M141.5,189.1c3.3,0,6-2.6,6-5.9v-5.9c0-1.1-0.9-2-2-2c-1.1,0-2,0.9-2,2v5.9
	c0,1.1-0.9,2-2,2h-22.1c-1.1,0-2-0.9-2-2v-5.9c0-1.1-0.9-2-2-2c-1.1,0-2,0.9-2,2v5.9c0,3.2,2.7,5.9,6,5.9H141.5L141.5,189.1z"/>
<path id="path2_fill_4_" fill="#FF9933" d="M100,168.3c-3.3,0-6,2.6-6,5.9v5.9c0,1.1,0.9,2,2,2s2-0.9,2-2v-5.9c0-1.1,0.9-2,2-2h22.1
	c1.1,0,2,0.9,2,2v5.9c0,1.1,0.9,2,2,2s2-0.9,2-2v-5.9c0-3.2-2.7-5.9-6-5.9H100z"/>
<path id="path2_fill_5_" fill="#FF9933" d="M139.5,168.3c-3.3,0-6,2.6-6,5.9v5.9c0,1.1,0.9,2,2,2c1.1,0,2-0.9,2-2v-5.9
	c0-1.1,0.9-2,2-2h22c1.1,0,2,0.9,2,2v5.9c0,1.1,0.9,2,2,2s2-0.9,2-2v-5.9c0-3.2-2.7-5.9-6-5.9H139.5z"/>
</svg>
