<?xml version="1.0" encoding="utf-8"?>
<!-- Generator: Adobe Illustrator 22.1.0, SVG Export Plug-In . SVG Version: 6.00 Build 0)  -->
<svg version="1.0" id="Livello_1" xmlns="http://www.w3.org/2000/svg" xmlns:xlink="http://www.w3.org/1999/xlink" x="0px" y="0px"
	 viewBox="0 0 200 200" style="enable-background:new 0 0 200 200;" xml:space="preserve">
<style type="text/css">
	.st0{fill:url(#SVGID_1_);}
</style>
<linearGradient id="SVGID_1_" gradientUnits="userSpaceOnUse" x1="462.5" y1="1773.4904" x2="462.5" y2="1578.4904" gradientTransform="matrix(1 0 0 -1 -362.5 1776.7404)">
	<stop  offset="0" style="stop-color:#6CFDCC"/>
	<stop  offset="1" style="stop-color:#5A89F9"/>
</linearGradient>
<path class="st0" d="M37.8,3.2H101c6.4,1,12.9,0.1,19.3,1.5c14.1,2.6,26.9,11.5,34.3,23.7c8.8,14.2,9.9,32.7,3.2,48
	c-6,14.1-18.7,25.1-33.5,29.1c-9.4,2.7-19.2,1.7-28.9,1.9c16.5,27.3,33,54.7,49.4,82.1c-4.3,3-9.6,4.8-13.1,8.8h-0.6
	c-21.4-35.7-43-71.4-64.4-107.1c15.2-0.1,30.5,0.1,45.7-0.1c17.6-0.5,32.9-16,33.3-33.6c1.1-15.2-8.7-30.3-23.1-35.3
	c-6-2.3-12.5-2.2-18.8-2.2c-22,0-44.1,0-66.1,0"/>
</svg>
