<svg xmlns="http://www.w3.org/2000/svg" viewBox="0 0 200 200"><linearGradient id="a" x1="82.7551" x2="195" y1="105.0288" y2="105.0288" gradientUnits="userSpaceOnUse"><stop offset="0" stop-color="#5eb98d"/><stop offset="1" stop-color="#98cda6"/></linearGradient><path fill="url(#a)" d="M100 195c-3.9 0-7.8-.2-11.6-.7-3.5-.4-6-3.6-5.6-7.1.4-3.5 3.6-6 7.1-5.6 3.3.4 6.7.6 10.1.6 45.3 0 82.2-36.9 82.2-82.2 0-30.7-16.9-58.6-44.1-72.9-3.1-1.6-4.3-5.5-2.7-8.6 1.6-3.1 5.5-4.3 8.6-2.7 31.5 16.5 51 48.7 51 84.2 0 52.4-42.6 95-95 95z"/><linearGradient id="b" x1="5" x2="128.7237" y1="97.3919" y2="97.3919" gradientUnits="userSpaceOnUse"><stop offset="0" stop-color="#2ca659"/><stop offset="1" stop-color="#47b48a"/></linearGradient><path fill="url(#b)" d="M70 189.8c-.7 0-1.5-.1-2.2-.4C30.2 175.9 5 139.9 5 100 5 47.6 47.6 5 100 5c8.1 0 16.2 1 23.9 3 3.4.9 5.5 4.4 4.6 7.8-.9 3.4-4.4 5.5-7.8 4.6-6.7-1.7-13.7-2.6-20.7-2.6-45.3 0-82.2 36.9-82.2 82.2 0 34.6 21.8 65.6 54.3 77.4 3.3 1.2 5.1 4.9 3.9 8.2-.9 2.6-3.4 4.2-6 4.2z"/><linearGradient id="c" x1="32.9416" x2="133.6709" y1="137.1935" y2="137.1935" gradientUnits="userSpaceOnUse"><stop offset="0" stop-color="#2ca659"/><stop offset="1" stop-color="#47b48a"/></linearGradient><path fill="url(#c)" d="M100 168.3c-32.3 0-60.5-22.9-66.9-54.6-.7-3.5 1.5-6.8 5-7.6 3.5-.7 6.8 1.5 7.6 5 5.3 25.7 28.1 44.3 54.4 44.3 8.6 0 16.8-1.9 24.4-5.7 3.2-1.6 7-.3 8.6 2.9 1.6 3.2.3 7-2.9 8.6-9.5 4.8-19.6 7.1-30.2 7.1z"/><linearGradient id="d" x1="32.1305" x2="168.3146" y1="90.0722" y2="90.0722" gradientUnits="userSpaceOnUse"><stop offset="0" stop-color="#2ca659"/><stop offset="1" stop-color="#47b48a"/></linearGradient><path fill="url(#d)" d="M145.4 148.5c-1.6 0-3.1-.6-4.3-1.7-2.6-2.4-2.8-6.5-.3-9.1 9.5-10.3 14.8-23.7 14.8-37.7 0-30.6-24.9-55.5-55.5-55.5-28.1 0-51.8 21-55.1 48.8-.4 3.5-3.6 6-7.1 5.6-3.5-.4-6-3.6-5.6-7.1 4.1-34.3 33.3-60.1 67.8-60.1 37.7 0 68.3 30.6 68.3 68.3 0 17.3-6.5 33.7-18.2 46.4-1.3 1.4-3 2.1-4.8 2.1z"/><linearGradient id="e" x1="59.4382" x2="140.5618" y1="100" y2="100" gradientUnits="userSpaceOnUse"><stop offset="0" stop-color="#2ca659"/><stop offset="1" stop-color="#47b48a"/></linearGradient><path fill="url(#e)" d="M100 140.6c-22.4 0-40.6-18.2-40.6-40.6S77.6 59.4 100 59.4c4.8 0 9.5.8 14 2.5 3.3 1.2 5 4.9 3.8 8.2-1.2 3.3-4.9 5-8.2 3.8-3.1-1.1-6.3-1.7-9.6-1.7-15.3 0-27.8 12.4-27.8 27.8 0 15.3 12.4 27.8 27.8 27.8 15.3 0 27.8-12.4 27.8-27.8 0-5.3-1.5-10.4-4.3-14.9-1.9-3-1-6.9 2-8.8 3-1.9 6.9-1 8.8 2 4.1 6.5 6.3 14 6.3 21.7 0 22.4-18.2 40.6-40.6 40.6z"/><linearGradient id="f" x1="86.6573" x2="113.3427" y1="99.4663" y2="99.4663" gradientUnits="userSpaceOnUse"><stop offset="0" stop-color="#2ca659"/><stop offset="1" stop-color="#47b48a"/></linearGradient><circle cx="100" cy="99.5" r="13.3" fill="url(#f)"/></svg>