<?xml version="1.0" encoding="utf-8"?>
<!-- Generator: Adobe Illustrator 22.1.0, SVG Export Plug-In . SVG Version: 6.00 Build 0)  -->
<svg version="1.0" id="Livello_1" xmlns="http://www.w3.org/2000/svg" xmlns:xlink="http://www.w3.org/1999/xlink" x="0px" y="0px"
	 viewBox="0 0 200 200" enable-background="new 0 0 200 200" xml:space="preserve">
<g>
	<path fill="#034F84" d="M100,11c49.1,0,89,39.9,89,89s-39.9,89-89,89s-89-39.9-89-89S50.9,11,100,11 M100,5C47.5,5,5,47.5,5,100
		s42.5,95,95,95s95-42.5,95-95S152.5,5,100,5L100,5z"/>
</g>
<g>
	<g>
		<path fill="#034F84" d="M58.5,127.8c-1.2,0-2.1,0-2.5-0.1H32.3v-20.9h9v12h15.3c0.1,0,15.2,1.1,24.2-7.2
			c4.6-4.2,6.9-10.4,6.9-18.2c0-7.9-2.4-14.2-7-18.7c-9.1-8.7-24.1-8.3-24.3-8.3h-0.2h-15v10.5h-9V57.4h23.9
			c1.7,0,19.2-0.3,30.7,10.7c6.5,6.2,9.8,14.7,9.8,25.2s-3.3,18.9-9.8,24.9C77.4,126.8,64.2,127.8,58.5,127.8z"/>
	</g>
	<g>
		<path fill="#034F84" d="M110.5,142.7c-2.4,0-6.8-0.5-10.4-3.7c-3.3-2.9-5-7.3-5-12.8c0-5.6,1.7-9.9,5-12.8
			c4.5-3.9,10.1-3.8,11.7-3.6h21.5c-0.1-4.7-1.3-8-3.6-10c-3.3-2.8-8.3-2.1-8.3-2.1l-0.8,0.1H92.1v-9h28.1c1.9-0.2,9.4-0.8,15.2,4.1
			c4.4,3.7,6.7,9.4,6.8,16.8h8.2v9h-8.2v23.9h-30.4C111.5,142.7,111.1,142.7,110.5,142.7z M110.5,118.6c-0.9,0-3,0.2-4.5,1.5
			c-1.3,1.2-2,3.2-2,6.1c0,2.9,0.7,4.9,2,6.1c1.9,1.7,5,1.4,5,1.4h0.5h21.7v-15H111l0,0C111,118.7,110.8,118.6,110.5,118.6z"/>
	</g>
	<g>
		<path fill="#034F84" d="M158.7,109.2c2.9,0,5.2,2.3,5.2,5.2s-2.3,5.2-5.2,5.2s-5.2-2.3-5.2-5.2S155.8,109.2,158.7,109.2
			 M158.7,103.2c-6.2,0-11.2,5-11.2,11.2s5,11.2,11.2,11.2s11.2-5,11.2-11.2S164.9,103.2,158.7,103.2L158.7,103.2z"/>
	</g>
	<circle fill="#034F84" cx="36.8" cy="107.5" r="6.7"/>
	<circle fill="#034F84" cx="36.8" cy="77.6" r="6.7"/>
</g>
</svg>
