<svg xmlns="http://www.w3.org/2000/svg" id="Livello_1" viewBox="0 0 200 200">
  <style>
    .st1{fill:#5ab0e3}
  </style>
  <radialGradient id="SVGID_1_" cx="100" cy="100" r="95.1" gradientUnits="userSpaceOnUse">
    <stop offset="0" stop-color="#fff"/>
    <stop offset=".28" stop-color="#e1e2e2"/>
    <stop offset=".29" stop-color="#e0e1e1"/>
    <stop offset=".82" stop-color="#9e9fa1"/>
  </radialGradient>
  <circle cx="100" cy="100" r="95.1" fill="url(#SVGID_1_)"/>
  <path d="M100.6 8c-50.8 0-92 41.2-92 92s41.2 92 92 92 92-41.2 92-92-41.2-92-92-92z" class="st1"/>
  <path d="M80.4 65.2v11.5c0 .3.2.5.5.5h37.7c.3 0 .6-.3.6-.6V64.7L99.8 50.4 80.4 65.2zm19.1 11.2h-19V65.6l9.8-7.2 9.2 6.7v11.3zm19.7-10.8v10.7h-19V65.2l9.2-6.7 9.8 7.1zm-19.4-.7l-9.2-6.7 9.2-6.7 9.2 6.7-9.2 6.7z"/>
  <path d="M108.4 47.6c.3 0 .5.2.5.5v6.3l13.2 9.6c.2.2.3.5.1.7l-.5.5c-.1.1-.2.1-.3.1-.1 0-.2 0-.3-.1l-21-15.1c-.1-.1-.2-.1-.3-.1s-.2 0-.3.1L78.4 65.5c-.1.1-.2.1-.3.1H78c-.5-.2-.7-.6-.8-.9-.1-.2 0-.4.2-.5L99.5 48c.1-.1.2-.1.3-.1.1 0 .2 0 .3.1l5.4 3.9v-3.8c0-.3.2-.5.5-.5h2.4m14.3 16.7L109.6 54l-.1-.2-.1-5.5c0-.8 0-1-.7-1h-.1v.1h-2c-1 0-1.5.5-1.5 1.5v1.9c0 .4-1.3-.7-1.6-.9l-2.9-2c-.2-.2-.5-.3-.8-.3s-.4.2-.6.3L76.9 64.6v.8c0 .3.1.7.3.9.3.3 1.1.5 1.2.5.5 0 1.2-.4 1.4-.6L99 51.7c.5-.3 1.1-.4 1.6 0l19 14.3c.2.2 1 .6 1 .6 1 .3 2.1-1 2.1-2v-.3"/>
  <linearGradient id="SVGID_2_" x1="26.1" x2="173.9" y1="133.3" y2="133.3" gradientUnits="userSpaceOnUse">
    <stop offset="0" stop-color="#fff"/>
    <stop offset="1" stop-color="#6e6e6e"/>
  </linearGradient>
  <path fill="url(#SVGID_2_)" d="M160.9 91.2l-4.7 31.5-56.1 17.2-57.3-17.2-4.4-30.8L26.1 138l73.4 37.4 74.4-38.5z"/>
  <linearGradient id="SVGID_3_" x1="32.4" x2="166.6" y1="82.05" y2="82.05" gradientUnits="userSpaceOnUse">
    <stop offset="0" stop-color="#fff"/>
    <stop offset="1" stop-color="#6e6e6e"/>
  </linearGradient>
  <path fill="url(#SVGID_3_)" d="M100.1 141.4l-58.6-17.6-9.1-62.7 67.1-38.4 67.1 39.5-9.1 61.6-57.4 17.6zm-55.9-19.9l55.9 16.8 54.8-16.8 8.5-57.7-63.9-37.6-63.8 36.5 8.5 58.8z"/>
  <linearGradient id="SVGID_4_" x1="100.12" x2="119.27" y1="67.4" y2="67.4" gradientUnits="userSpaceOnUse">
    <stop offset="0" stop-color="#fff"/>
    <stop offset="1" stop-color="#6e6e6e"/>
  </linearGradient>
  <path fill="url(#SVGID_4_)" d="M100.1 76.4l19.1-.1V65.7l-9.9-7.3-9.2 6.7v11.3zm7.6-8.3c0-.5.4-.9.9-.9h4.8c.5 0 .9.4.9.9v8.2h-6.6v-8.2z"/>
  <linearGradient id="SVGID_5_" x1="80.4" x2="99.55" y1="67.4" y2="67.4" gradientUnits="userSpaceOnUse">
    <stop offset="0" stop-color="#fff"/>
    <stop offset="1" stop-color="#6e6e6e"/>
  </linearGradient>
  <path fill="url(#SVGID_5_)" d="M80.4 65.8v10.6h19.1V65.1l-9.2-6.7-9.9 7.4zm13 2.4v8.2h-6.6v-8.2c0-.5.4-.9.9-.9h4.8c.4 0 .9.4.9.9z"/>
  <linearGradient id="SVGID_6_" x1="90.63" x2="108.96" y1="58.2" y2="58.2" gradientUnits="userSpaceOnUse">
    <stop offset="0" stop-color="#fff"/>
    <stop offset="1" stop-color="#6e6e6e"/>
  </linearGradient>
  <path fill="url(#SVGID_6_)" d="M90.6 58.2l9.2 6.7 9.2-6.7-9.2-6.7z"/>
  <linearGradient id="SVGID_7_" x1="86.19" x2="93.69" y1="72.2" y2="72.2" gradientUnits="userSpaceOnUse">
    <stop offset="0" stop-color="#fff"/>
    <stop offset="1" stop-color="#6e6e6e"/>
  </linearGradient>
  <path fill="url(#SVGID_7_)" d="M86.2 76.8V69c0-.7.6-1.4 1.4-1.4h4.8c.7 0 1.4.6 1.4 1.4v7.8h-7.6z"/>
  <linearGradient id="SVGID_8_" x1="52" x2="146.8" y1="94.1" y2="94.1" gradientUnits="userSpaceOnUse">
    <stop offset="0" stop-color="#fff"/>
    <stop offset=".24" stop-color="#e0e0e0"/>
    <stop offset=".76" stop-color="#939393"/>
    <stop offset="1" stop-color="#6e6e6e"/>
  </linearGradient>
  <path fill="url(#SVGID_8_)" d="M146.8 111H52l3.2-9.3L59 89.5l.2-.1c.1-.1 10.9-5.3 14.4-11.9l.1-.2 6.9-.1h44.3l.1.2c0 .1 2.8 5.2 13.8 11.4l.1.1.1.2 5 14.3 2.8 7.6zM52 111l94.4-.8-3.3-6.3-4.9-14.2c-10-5.7-13.2-10.4-13.9-11.5H74.1c-3.6 6.3-13 11.2-14.5 11.9l-3.7 12L52 111zm0 0l94.4-.8-3.3-6.3-4.9-14.2c-10-5.7-13.2-10.4-13.9-11.5H74.1c-3.6 6.3-13 11.2-14.5 11.9l-3.7 12L52 111z"/>
  <linearGradient id="SVGID_9_" x1="107.29" x2="114.8" y1="72.2" y2="72.2" gradientUnits="userSpaceOnUse">
    <stop offset="0" stop-color="#fff"/>
    <stop offset="1" stop-color="#6e6e6e"/>
  </linearGradient>
  <path fill="url(#SVGID_9_)" d="M107.3 76.8V69c0-.7.6-1.4 1.4-1.4h4.8c.7 0 1.4.6 1.4 1.4v7.8h-7.6z"/>
  <radialGradient id="SVGID_10_" cx="99.79" cy="56.2" r="17.6" gradientUnits="userSpaceOnUse">
    <stop offset="0" stop-color="#fff"/>
    <stop offset="1" stop-color="#6e6e6e"/>
  </radialGradient>
  <path fill="url(#SVGID_10_)" d="M78.1 65.6h-.2c-.5-.2-.9-.6-1.1-1.2-.1-.4 0-.8.3-1l22.1-16.2c.2-.1.4-.2.5-.2.2 0 .4.1.5.2l4.3 3v-2.4c0-.5.8-1 1.3-1h2.5c.5 0 1.3.5 1.3 1V54l12.6 9.3c.2.2.4.4.4.7 0 .3-.1.5-.3.7l-.5.5c-.2.2-.4.3-.7.3-.2 0-.4-.1-.5-.2l-21-15.1-20.9 15.3c-.2.1-.4.1-.6.1z"/>
  <path d="M111.1 111.5c-8.6-7.2-21.8-12-26.8-13.2-1.9-.5-3.7-1.2-5.2-2.2-1.4-.9-2.9-2.2-2.6-3.4.4-1.5 3.6-3.3 16.7-3.9 9.1-.4 13.7-1.6 13.9-3.5.3-2.6-7.7-5.6-11.2-6.8h.7l.6.2c10.2 3.5 12.2 5.7 12 7-.4 2.6-9.8 3.6-13.4 3.8-2.8.1-16.8.6-17.1 3.2-.1 1 1.3 2.6 14.5 5.4 28.6 6 34.9 11.9 36.1 13.4h-18.2zM92.3 68.1c.5 0 .9.4.9.9v7.4h-6.6V69c0-.5.4-.9.9-.9h4.8m1.8 9.1V69c0-1-.8-1.8-1.8-1.8h-4.8c-1 0-1.8.8-1.8 1.8V77.2M113.4 68.1c.5 0 .9.4.9.9v7.4h-6.6V69c0-.5.4-.9.9-.9h4.8m1.8 9.1V69c0-1-.8-1.8-1.8-1.8h-4.8c-1 0-1.8.8-1.8 1.8V77.2"/>
  <path d="M111.1 111.5c-8.6-7.2-21.8-12-26.8-13.2-1.9-.5-3.7-1.2-5.2-2.2-1.4-.9-2.9-2.2-2.6-3.4.4-1.5 3.6-3.3 16.7-3.9 9.1-.4 13.7-1.6 13.9-3.5.3-2.6-7.7-5.6-11.2-6.8h.7l.6.2c10.2 3.5 12.2 5.7 12 7-.4 2.6-9.8 3.6-13.4 3.8-2.8.1-16.8.6-17.1 3.2-.1 1 1.3 2.6 14.5 5.4 28.6 6 34.9 11.9 36.1 13.4h-18.2z" class="st1"/>
  <path d="M52 111h58.5v1.9H52zM128.8 111h17.9v1.9h-17.9zM97.2 78.2l-3.5-1h-1.5c3.9 1.5 8.9 3 11.4 4.5.1 0 .6.4 1.2.6.7.4 1.4.9 2.1 1.4 1.2 1 1.5 1.4 2 2.7 1.4-1.7-.2-4.3-11.7-8.2z"/>
  <path d="M93 97.8c-10.7-2.2-14.3-3.9-14.3-5.1v2.1c1.2 1.1 4.7 2.5 14.1 4.5 24.6 5.1 33.4 11.3 36 13.6 0 0 .2-1.1.4-1.2l.1-.1c-.5-1-5.3-7.3-36.3-13.8zM99.5 26.2L35.7 62.7l.3 2.2 63.4-36.5z"/>
  <path d="M99.5 26.2l63.9 37.6-.3 2.1-63.7-37.5zM99.5 178l-73.4-37.4V138l73.4 37.4zM99.5 178l74.4-38.3v-2.8l-74.4 38.5z"/>
  <path d="M126.4 111.1l-15.9-.3v2.1h18.3l-1.2-1z" class="st1"/>
  <path d="M37.4 95.6l-5-34.5-.2 2.2 4.8 34zM161.8 94.3l4.6-32 .2 2.2-4.4 31.4z"/>
  <path fill="#000102" d="M76.5 92.7s2.5-1.9 7.4-2.5c3.4-.5 4.7-.6 9.4-.9 3.9-.3 6.5-.6 8.7-.9 2.6-.5 4.7-1.5 5-2.9 0 0-.2 2.5-13.1 3.1-12.7.7-16.7 2.2-17.4 4.1z"/>
</svg>
