<?xml version="1.0" encoding="utf-8"?>
<!-- Generator: Adobe Illustrator 22.1.0, SVG Export Plug-In . SVG Version: 6.00 Build 0)  -->
<svg version="1.1" id="Livello_1" xmlns="http://www.w3.org/2000/svg" xmlns:xlink="http://www.w3.org/1999/xlink" x="0px" y="0px"
	 viewBox="0 0 200 200" style="enable-background:new 0 0 200 200;" xml:space="preserve">
<style type="text/css">
	.st0{fill:#03773D;}
</style>
<path class="st0" d="M5.6,97.8c0.2-2.2,0.4-4.3,0.6-6.4c2.5-24.1,12.7-44.4,30.4-60.8c15-13.8,32.7-21.7,52.9-24.2
	c2.8-0.4,5.7-0.5,8.5-0.8c1.7,0,3.4,0,5.1,0c2.2,0.2,4.5,0.4,6.7,0.6c19.8,2,37.3,9.4,52.4,22.3c18,15.5,28.7,35.2,32.2,58.7
	c0.4,2.9,0.5,6,0.8,9c0,0.7,0.2,1.5,0.3,2.2c0,1.3,0,2.6,0,3.8c-0.2,2.5-0.4,5-0.6,7.5c-2.5,24.5-12.9,45.1-31.2,61.6
	c-14.2,12.8-31,20.5-50,23.2c-2.8,0.4-5.7,0.5-8.5,0.8c-0.8,0.1-1.7,0.2-2.5,0.3c-1.5,0-2.9,0-4.4,0c-2.3-0.2-4.6-0.4-6.9-0.6
	c-24.1-2.4-44.3-12.5-60.7-30.2c-13.3-14.4-21.2-31.4-24.1-50.8c-0.4-2.7-0.5-5.5-0.8-8.2c-0.1-0.8-0.2-1.5-0.3-2.3
	C5.6,101.6,5.6,99.7,5.6,97.8z M100.6,192.5c50.4,0,91.8-41.2,91.9-91.5c0-50.9-41.1-92.3-91.8-92.3C50,8.8,8.8,50,8.8,100.6
	C8.8,151.2,50,192.5,100.6,192.5z"/>
<path class="st0" d="M102.1,104.4c-0.4,0.4-0.7,0.7-1,1.1c-1,1.1-1.8,1.1-2.9,0c-0.8-0.8-1.6-1.6-2.5-2.4c-1.3-1.1-1.5-2.6-0.2-3.8
	c0.8-0.8,1.8-1.5,2.8-2.4c-1.9-3.8-3.8-7.6-5.8-11.3c-0.3-0.5-1.1-0.8-1.6-0.9c-4-0.7-8-1.5-11.6-3.5c-1.7-0.9-3.2-2-4.7-3
	c0,0-0.1,0-0.1,0.1c-4.7,8.5-10.2,16.7-13.2,26c-0.4,1.1-0.7,2.2-0.8,3.4c-0.6,5.1-2.1,6.4-7.3,6.9c-2.2,0.2-4.1-0.3-6.2-0.7
	c-1.5-0.4-2.3-1.6-2.3-3.2c0.1-3.9,3.5-6.7,7.3-5.9c1.3,0.3,1.7,0,1.9-1.2c1.6-8.4,3.3-16.8,5-25.3c1.9-9.5,4.3-18.8,7.4-27.9
	c1.8-5.2,5.1-9,9.5-12.1c0.5-0.3,1-0.7,1.5-1c-0.8-1.2-1.8-2.4-2.5-3.6c-1.7-3.2-1.7-4.7,3-5.3c0.9-0.1,1.8,0,2.7,0
	c1.5,0.2,5.4-0.1,6.9-0.4c1.5-0.4,3-0.6,4.5-0.7c0.9-0.1,1.6-0.3,1.9-1.2c0.1-0.3,0.3-0.6,0.5-0.8c0.7-0.5,1.7-1.6,2-1.4
	c0.8,0.6,1.8,1.5,1.9,2.4c0.2,1.3,0.8,1.5,1.8,1.9c1.6,0.7,3.2,1.5,4.7,2.5c0.5,0.3,1.1,1,1.2,1.6c0.1,1.5,1.1,2,2.1,2.6
	c1.7,1,3.6,1.7,4.6,3.7c0.6,1.1,0.8,2.2,0.2,3.3c-0.8,1.6-1.6,3.1-3.6,4.2c0.1-1.5,0.3-2.6,0.4-3.7c-0.1-0.1-0.3-0.1-0.4-0.2
	c-1.2,1.7-2.4,3.4-3.6,5.2c-1.1-1.2,0.7-3.3-1.7-3.7c-0.9,2.8,1.1,4.7,1.6,6.9c0.2,0,0.3,0,0.5,0c0.6-0.8,1.2-1.6,2.1-2.8
	c0.1,2.3,1.2,4.3-0.7,6.6c1,0,1.5,0,2.2,0c6-0.1,11.9,0.8,17.7,2c3.7,0.7,6.9,2.6,10,4.5c1.5,1,3.2,1.9,4.9,2.6
	c3.1,1.1,6.1,0,7.9-2.6c1.8-2.6,1.7-6.2-0.6-8.5c-1.6-1.5-3.6-2.7-5.5-3.8c-1.7-1-3.6-1.7-5.4-2.6c-1.8-1-3.2-2.6-4-4.6
	c-0.8-2.2-0.5-4.3,1.1-6c2.5-2.7,5.8-3.8,9.3-4.2c1.1-0.1,2.2,0.3,2.6,1.5c0.4,1.2-0.1,2.2-1.2,2.9c-0.8,0.5-1.7,0.8-2.6,1.3
	c-2.7,1.5-3,4.2-0.6,6.1c1.1,0.9,2.6,1.5,3.9,2.2c2.2,1.2,4.5,2.1,6.5,3.6c5.4,4,6.1,10.8,1.8,16c-3,3.7-7.1,5.2-11.6,5.9
	c-0.4,0.1-0.8,0.1-1.4,0.3c0.3,0.4,0.4,0.8,0.6,1.1c2.5,3.8,4,7.9,3.9,12.5c-0.1,2.8,0.8,4.9,3.2,6.5c1.8,1.1,2.5,2.8,2.6,4.9
	c0.2,3.5,0.6,7,0.8,10.6c0,0.7,0.1,1.4,0,2.1c-0.3,4.1-2.3,5.7-6.4,5c-0.7-0.1-1.5-0.3-2.2-0.2c-2.4,0.2-4-1.4-3.5-3.8
	c0.2-1,0.7-2,1.3-2.8c1.6-2.2,2.2-4.6,1.6-7.2c-0.2-1.2-0.8-2.5-1.7-3.3c-2.6-2.4-5.4-4.4-8.8-5.5c-1.8-0.6-3.7-1.3-5.5-2.1
	c-1.3-0.6-2.2,0-2,1.2c0.3,3.4-1.8,4-4.5,4.8c-3.9,1.2-7.6,2.9-11.3,4.4c-1,0.4-1.4,1.1-1.1,2.1c0.1,0.3,0.2,0.5,0.2,0.8
	c0,2.3,0.9,3.9,3.3,4.7c1.8,0.6,2.9,2.2,3.6,4c0.7,1.9-0.1,3.6-2.1,4c-1.1,0.2-2.3,0.2-3.4,0.2c-0.5,0-1-0.1-1.4,0
	c-1.7,0.8-3.2,0.3-4.7-0.3c-2.2-0.9-3-2.2-2.9-4.5c0-0.9,0.2-1.8,0.3-2.7c0.1-0.8,0.1-1.6,0.2-2.4
	C102.3,104.4,102.2,104.4,102.1,104.4z M136.2,66.4c0.1-0.2,0.3-0.4,0.4-0.6c1.3,1,2.6,2,3.9,2.9c0.4,0.3,0.9,0.7,1.3,0.7
	c5.5-0.4,10.2-2.3,13.3-7.1c2.6-4.1,2.2-9.1-1.5-12.2c-2.2-1.9-4.9-3.1-7.5-4.6c-1.3-0.7-2.8-1.2-4-2.2c-2.8-2.1-2.6-5.3,0.3-7.2
	c1-0.6,2.2-1,3-1.7c0.5-0.4,1.1-1.4,0.9-1.9c-0.2-0.5-1.3-1.1-1.9-0.9c-2.7,0.4-5.3,1.3-7.3,3.3c-2.3,2.3-2.5,5-0.4,7.5
	c0.9,1,2,1.9,3.1,2.6c1.5,0.9,3.1,1.5,4.7,2.3c1.3,0.7,2.7,1.3,3.9,2.1c3.7,2.6,5,7,3,10.7c-1.9,3.6-6.6,5.3-10.7,3.7
	c-1.8-0.7-3.6-1.8-5.2-2.9c-2.9-2-6.1-3.3-9.5-4.1c-7.1-1.6-14.3-2.1-21.5-1.8c-3,0.1-5.7-1-8-2.8c-1.2-0.9-1.9-2.6-3.2-3.1
	c-1.3-0.5-3,0.3-4.5,0.2c-2.6-0.2-4.5-1.4-5.6-3.8c-0.5-1.2-0.8-2.6,0.2-3.8c-0.4,2.9,0.6,5.2,3.2,6.6c2.5,1.3,5.1,0.8,7.7,0.2
	c1.7,3.6,6.5,6.4,10.3,6.2c2.2-0.1,3.6-1.6,3.2-3.4c-1.2,0.4-2.5,0.9-3.7,1c-2.9,0.3-7.9-2.6-9.1-5.3c-0.2-0.4-0.4-0.9-0.3-1.4
	c0.4-2.5,2-4.1,4-5.2c1.8-0.9,3,0.3,4.1,1.5c1.1,1.1,2.3,1.6,3.9,1.4c2.4-0.4,3-1.8,1.8-3.7c-0.1-0.2-0.3-0.4-0.4-0.5
	c-0.3-0.7-0.7-1.4-0.6-2c0.1-0.4,1-0.7,1.7-1.1c-1.3-0.7-2.6-1.4-3.7-2.1c-0.5-0.3-1.3-1-1.2-1.2c0.4-1.4-0.6-1.8-1.4-2.1
	c-1.8-0.8-3.7-1.7-5.6-2c-4.1-0.7-8.2-0.7-12,1.5c-0.8,0.5-1.5,0.6-2.3,0.1c-1.8-0.9-3.8-1.2-5.8-0.7c-1.8,0.4-2.2,0.9-1.4,2.5
	c0.8,1.6,1.8,3.1,2.9,4.4c0.8,1,0.7,1.5-0.3,2c-0.8,0.4-1.6,1-2.4,1.5c-3.8,2.7-6.8,5.9-8.1,10.6c-1.6,5.6-3.6,11.1-4.9,16.8
	c-2.8,12.5-5.3,25.1-7.9,37.6c-0.1,0.4,0.3,1,0.6,1.4c0.2,0.3,0.6,0.5,0.8,0.7c-0.1,0.2-0.2,0.4-0.3,0.5c-0.9-0.4-1.8-0.9-2.8-1.3
	c-2.9-1.3-6.7,0.7-7.2,3.7c-0.2,1.1,0,2.2,1.4,2.6c0.4-3.8,0.4-4,2.1-4.6c-0.2,1.3-0.6,2.5-0.5,3.7c0.1,1.8,1,2.2,2.6,1.6
	c-0.7-4.1-0.4-4.9,2.3-5.5c-0.3,0.5-0.7,1-0.9,1.5c-0.8,1.5-0.5,3.3,0.6,4c0.9,0.6,3,0.2,3.9-0.9c0.4-0.5,0.7-1.1,1-1.8
	c0.3-0.9,0.5-1.8,0.7-2.8c1.3-6.3,4.2-11.9,7-17.6c2-4,4.4-7.7,6.6-11.5c0.7-1.1,0.7-1.9-0.2-2.9c-0.6-0.7-1.1-1.6-1.5-2.4
	c-0.2-0.4,0-0.9,0-1.3c0.3,0.3,0.8,0.5,1,0.8c1.9,4,5,6.7,9,8.3c3.2,1.2,6.6,2.1,10,2.7c1.7,0.3,2.4,1.1,3.1,2.4
	c2,3.9,4.1,7.7,6.2,11.5c0.8,1.5,1.7,2.8,2.4,4.3c1.1,2.2,0.5,4.4,0.4,6.7c-0.2,2.9,1.9,5,4.8,4.9c1.7,0,2.3-1,1.7-2.6
	c-0.3-0.8-0.7-1.6-1-2.4c0.1-0.1,0.3-0.2,0.4-0.3c0.3,0.3,0.7,0.5,0.9,0.9c0.4,0.8,0.8,1.7,1,2.6c0.2,0.9,0.7,1.4,1.5,1
	c0.3-0.2,0.6-1,0.5-1.5c-0.2-1.1-0.7-2.1-1.1-3.3c2.3,0.7,2.4,2.7,2.9,4.5c1.1-1.3,1-2.7-0.5-3.9c-1.6-1.2-3.6-1.9-5.4-2.9
	c-0.4-0.2-0.9-0.4-1.6-0.7c0.8-0.4,1.3-0.6,1.9-0.8c-0.6-2.9-1.1-5.9-1.9-8.7c-1.8-5.8-3.8-11.5-5.6-17.3c-0.3-1-0.3-2.2-0.3-3.3
	c0-0.3,0.4-0.6,0.7-1.1c0.2,0.7,0.3,1,0.4,1.3c0.6,2.6,1.2,5.1,1.8,7.7c0.2,0.9,0.7,1.3,1.7,1.1c3.3-0.7,6.6-1.5,9.8-2.2
	c0.7-0.2,1.3-0.5,2-0.8c0-0.2,0.1-0.4,0.1-0.6c-1.5-0.8-3-1.7-4.6-2.6c0.6-0.4,1.2-0.7,1.6-0.4c1.2,0.7,2.6,1.4,3.5,2.5
	c2,2.4,4.2,4.4,7,5.9c1.7,0.8,3.5,1.5,5.2,2.2c4.5,1.8,9.1,3.5,12.7,6.9c1.5,1.5,2.3,3.3,2.3,5.4c0,1.2-0.1,2.5-0.2,3.9
	c0.9-0.1,1.8-0.3,2.7-0.3c0.8,0,1.6,0.2,2.4,0.4c0,0.2,0,0.4,0,0.7c-1.3,0.1-2.6,0.3-3.8,0.4c-2,0.2-3.7,1.9-3.9,4
	c-0.1,1.1,0.1,2.1,1.4,2.7c0.2-1,0.4-1.9,0.7-2.9c0.5-1.8,0.5-1.8,1.6-1.7c-0.3,0.9-0.6,1.8-0.9,2.7c-0.4,1.1,0.3,1.6,1.3,1.8
	c1.1,0.2,1.4-0.3,1.5-1.2c0.1-0.9,0.3-1.9,0.6-2.8c0.1-0.3,0.5-0.5,0.8-0.7c0,1.3-0.4,2.3-0.5,3.3c0,0.5,0.3,1,0.5,1.5
	c0.5-0.2,1.3-0.3,1.5-0.6c0.5-1.4,1.2-2.9,1.2-4.3c0-3.7-0.5-7.5-0.7-11.2c-0.1-1.9-0.8-3.4-2.7-4.3c-2.2-1.1-3.4-2.9-3.3-5.5
	c0-0.7,0-1.5,0-2.2c0-6.1-2.3-11.2-7-15.1C137.8,67.8,137,67.1,136.2,66.4z M125.7,87.7c-2.4-2-4.6-3.9-6.8-5.7
	c-0.3-0.2-0.7-0.4-0.9-0.4c-1.5,0.4-2.9,1-4.4,1.5c0.4,0.9,0.7,1.6,1,2.3c0.8,1.9,0.7,2.2-1.1,3.3c-1.6,1-3.2,2-4.8,3
	c-0.4,0.3-0.9,0.8-0.9,1.1c0.3,1.6,0.7,3.2,1.1,5.2c4.4-3.4,9.4-4.5,14.2-5.8c0.7-0.2,1.4-1.1,1.7-1.8
	C125.4,89.7,125.5,88.5,125.7,87.7z M104.9,84.8c0.8,2.3,1.5,4.4,2.2,6.4c0.3,0,0.4,0,0.5,0c1.2-0.8,2.5-1.6,3.7-2.4
	c2.6-1.7,2.7-2.1,1.1-4.7c-0.2-0.3-0.6-0.5-0.8-0.5C109.5,83.9,107.3,84.3,104.9,84.8z M101.4,45.7c0,0-0.1,0.1-0.2,0.2
	c-0.7-0.7-1.5-1.5-2.3-2.2c-1.8-1.6-3-1.1-3.6,1.4c1.7-0.9,3-0.4,3.9,1.1c0.6,1,1.1,2,1.6,3.1c0.3,0.5,0.5,1,0.9,1.8
	c0.7-1.1,1.8-1.9,1.7-2.5c-0.5-2.3-1.3-4.5-2.2-6.7c-0.5-1.2-1.5-1.2-2.7-0.1C99.5,43.1,100.4,44.4,101.4,45.7z M111.5,37.8
	c-0.4,0.9-0.9,1.6-1.1,2.3c-0.1,0.4,0.3,1.1,0.4,1.6c0.5-0.2,1.3-0.2,1.6-0.6C113.1,40,112.5,38.9,111.5,37.8z M99.6,105.1
	c3-2.5,2.7-3,1.3-3.9C99.3,102.4,98.9,103.5,99.6,105.1z M96.4,24.4c-0.2,0-0.4,0-0.5,0c-0.5,0.7-1,1.5-1.7,2.6
	c1.3,0.1,2.1,0.1,3.4,0.2C97.1,26.1,96.8,25.2,96.4,24.4z M97.9,102.9c2.3-3,2.3-3,1.5-3.7C97.7,100.4,97.2,101.5,97.9,102.9z"/>
<path class="st0" d="M159.7,147.7c-2.6,0.4-2.6,0.4-3.6-1.8c-2.3-5.2-10-6.5-14.3-2.4c-3.2,3-3.7,8.4-1.4,12.3
	c2.2,3.5,6.7,5,10.9,3.5c2.8-1,4.9-3.4,5.1-6.1c-3.4,0-6.8,0-10.3,0c0-1.1,0-2,0-3c4.6,0,9.2,0,13.7,0c1.3,5.1-3.2,11.3-9,12.4
	c-7.1,1.5-13.5-2.7-14.7-9.5c-1.3-7.6,3.1-14.1,10.2-15C153,137.2,159.1,141.6,159.7,147.7z"/>
<path class="st0" d="M100,126.5c-19,0-38.1,0-57.1,0c-0.5,0-1,0.1-1.4,0c-0.3-0.1-0.6-0.4-0.8-0.7c0.3-0.3,0.5-0.7,0.9-0.8
	c0.3-0.1,0.7,0,1.1,0c38.3,0,76.6,0,114.9,0c0.4,0,0.8-0.1,1.1,0c0.4,0.2,0.6,0.6,0.8,0.8c-0.3,0.2-0.5,0.6-0.9,0.6
	c-0.4,0.1-0.9,0-1.4,0C138,126.5,119,126.5,100,126.5z"/>
<path class="st0" d="M68.3,162.5c0.1-0.4,0.2-0.8,0.4-1.2c3.1-7.2,6.2-14.4,9.2-21.7c0.4-0.8,0.7-1.4,1.8-1.4c1,0,1.3,0.6,1.7,1.3
	c3.1,7.2,6.2,14.3,9.3,21.4c0.2,0.4,0.4,0.9,0.5,1.3c-2.8,0.7-3.3,0.6-4.1-1.9c-1-3.5-2.9-4.9-6.6-4.3c-1.6,0.3-3.4,0-5.1,0.1
	c-0.6,0-1.3,0.6-1.6,1.1c-0.6,0.9-0.9,1.9-1.3,2.9C71.4,162.9,71.4,162.9,68.3,162.5z M75.6,153c2.8,0,5.4,0,8.2,0
	c-1.4-3.2-2.6-6.1-4.1-9.5C78.2,146.9,77,149.8,75.6,153z"/>
<path class="st0" d="M101.7,162.5c0.8-1.9,1.6-3.8,2.4-5.7c2.5-5.8,4.9-11.5,7.3-17.3c0.3-0.7,0.7-1.2,1.6-1.2
	c0.8,0,1.3,0.2,1.7,1.1c3.3,7.6,6.6,15.1,9.8,22.6c0,0.1,0,0.3,0.1,0.4c-2.8,0.7-3.3,0.6-4-2c-1-3.5-3-5-6.6-4.3
	c-0.9,0.2-1.8,0-2.7,0c-3.5,0-3.5,0-4.9,3.3c-0.1,0.3-0.2,0.6-0.4,0.9C104.8,162.9,104.8,162.9,101.7,162.5z M117.2,153.1
	c-1.4-3.2-2.7-6.2-4.1-9.6c-1.5,3.4-2.7,6.4-4,9.6C111.9,153.1,114.4,153.1,117.2,153.1z"/>
<path class="st0" d="M55.5,138.5c0,2.9,0,5.6,0,8.4c0,2.4,0,4.8,0,7.3c0,5.3-3.8,9-8.7,8.8c-4.8-0.2-8.2-4.3-7.8-9.6
	c0.9,0,1.8,0,2.9,0c0,0.4,0.1,0.7,0.1,1.1c0.2,3.2,2.4,5.4,5.3,5.4c2.9,0,5.1-2.3,5.1-5.5c0.1-3.7,0-7.5,0-11.2c0-0.7,0-1.5,0-2.2
	C52.5,138.1,52.5,138.1,55.5,138.5z"/>
<path class="st0" d="M81,35.9c-0.6-1.9-1.2-3.7-1.8-5.6c1,0.3,2.2,0.4,3.3,0.9c1.1,0.4,1.2,1.5,0.7,2.3C82.6,34.5,81.7,35.2,81,35.9
	z"/>
<path class="st0" d="M94.4,32.5c-1.2,0-2.3,0-3.4,0c0,0,0-0.1,0-0.1c1.6,0,3.3-0.1,4.9,0c0.6,0,1.3,0.4,1.7,0.8
	c1,1.4,1.8,2.9,3.7,3.4c-0.1,0.1-0.2,0.3-0.3,0.4c-0.3-0.2-0.6-0.4-1-0.5c-0.7-0.2-1.4-0.6-2.1-0.5C94.5,36.4,93.9,35.9,94.4,32.5z
	 M98.1,34.7c-2,0.4-2.6-0.6-2.5-2.4c-1.2,1.5-1.2,2.5-0.1,3.3C96.4,36.3,97.2,36.1,98.1,34.7z"/>
<path class="st0" d="M138,76.9c2,1.5,3.3,5.2,2.4,7.6C139.5,81.8,138.8,79.3,138,76.9z"/>
<path class="st0" d="M102,31.9c-1.8-0.7-3.5-1.5-5.2-2.2c0-0.1,0.1-0.2,0.2-0.3c1.8,0.7,3.5,1.5,5.3,2.2
	C102.1,31.6,102,31.7,102,31.9z"/>
</svg>
