<svg xmlns="http://www.w3.org/2000/svg" id="Livello_1" x="0" y="0" version="1.1" viewBox="0 0 200 200" xml:space="preserve"><style>.st1{fill:#010202}</style><circle cx="100" cy="100" r="95" fill="#fff"/><path d="M100 7.9c-3.2 0-6.3.2-9.4.5v17.4c3.1-.4 6.2-.6 9.4-.6 33.6 0 62.1 22.3 71.6 52.9H10.5c-1.7 7-2.6 14.4-2.6 22 0 50.9 41.3 92.1 92.1 92.1 50.9 0 92.1-41.3 92.1-92.1 0-51-41.2-92.2-92.1-92.2zm0 166.9c-41.3 0-74.8-33.6-74.8-74.8 0-1.6.1-3.1.2-4.7h16.3c0 35 28.4 63.3 63.3 63.3v-11.9c-28.4 0-51.5-23.1-51.5-51.5h121.2c.1 1.6.2 3.1.2 4.7-.1 41.4-33.6 74.9-74.9 74.9z" class="st1"/><circle cx="100.7" cy="119.8" r="8.6" class="st1"/></svg>