<?xml version="1.0" encoding="utf-8"?>
<!-- Generator: Adobe Illustrator 22.1.0, SVG Export Plug-In . SVG Version: 6.00 Build 0)  -->
<svg version="1.1" id="Layer_1" xmlns="http://www.w3.org/2000/svg" xmlns:xlink="http://www.w3.org/1999/xlink" x="0px" y="0px"
	 viewBox="0 0 280.5 284" style="enable-background:new 0 0 280.5 284;" xml:space="preserve">
<style type="text/css">
	.st0{fill:#5F1C5A;}
	.st1{fill:#FFFFFF;stroke:#FFFFFF;stroke-miterlimit:10;}
	.st2{fill:#FFFFFF;stroke:#FFFFFF;stroke-width:5;stroke-miterlimit:10;}
	.st3{fill:#FFFFFF;stroke:#FFFFFF;stroke-width:2;stroke-miterlimit:10;}
</style>
<g>
	<circle class="st0" cx="138.5" cy="144.1" r="128.9"/>
	<g>
		<g>
			<path class="st1" d="M159.8,68.6v105.9c0,15.3-3.3,26.6-9.9,34c-6.6,7.4-16.2,11.1-28.8,11.1H92c-14.1,0-25.2-4.3-33.4-13
				c-8.2-8.6-12.3-21.9-12.3-39.7c0-17.8,4.1-31,12.3-39.7c8.2-8.6,19.3-13,33.4-13h46.5V68.6H159.8z M114.9,199
				c8.5,0,14.6-2,18.1-6c3.6-4,5.4-10.5,5.4-19.5v-38.9H94c-9.2,0-15.9,2.5-20,7.6c-4.2,5.1-6.3,13.3-6.3,24.7
				c0,11.4,2.1,19.6,6.3,24.6c4.2,5,10.9,7.5,20,7.5L114.9,199L114.9,199z"/>
		</g>
		<rect x="150.9" y="151" class="st2" width="24.5" height="24.5"/>
		<rect x="155.2" y="114.7" class="st2" width="20" height="20"/>
		<rect x="179.1" y="132.3" class="st2" width="15.3" height="15.3"/>
		<rect x="207.1" y="140" class="st2" width="15.3" height="15.3"/>
		<rect x="219" y="175.5" class="st2" width="11.7" height="11.7"/>
		<rect x="217" y="199.4" class="st3" width="5.9" height="5.9"/>
		<rect x="194.1" y="155.6" class="st2" width="15.3" height="15.3"/>
		<rect x="188.1" y="187.6" class="st2" width="11.9" height="11.9"/>
		<rect x="154.1" y="193.3" class="st2" width="9" height="9"/>
	</g>
</g>
</svg>
