<?xml version="1.0" encoding="utf-8"?>
<!-- Generator: Adobe Illustrator 21.1.0, SVG Export Plug-In . SVG Version: 6.00 Build 0)  -->
<svg version="1.1" id="Layer_1" xmlns="http://www.w3.org/2000/svg" xmlns:xlink="http://www.w3.org/1999/xlink" x="0px" y="0px"
	 viewBox="0 0 540 540" style="enable-background:new 0 0 540 540;" xml:space="preserve">
<style type="text/css">
	.st0{fill:#991414;}
	.st1{fill:#C52D1F;}
	.st2{fill:url(#SVGID_7_);}
	.st3{fill:url(#SVGID_8_);}
	.st4{fill:url(#SVGID_11_);}
	.st5{fill:url(#SVGID_12_);}
	.st6{fill:url(#SVGID_13_);}
	.st7{fill:url(#SVGID_14_);}
	.st8{fill:url(#SVGID_15_);}
	.st9{fill:url(#SVGID_16_);}
	.st10{opacity:0.37;clip-path:url(#SVGID_18_);}
	.st11{fill:url(#XMLID_2_);}
</style>
<g>
</g>
<g>
</g>
<g>
</g>
<g>
</g>
<g>
</g>
<g>
</g>
<g>
</g>
<g>
</g>
<g>
	<g>
		<polygon class="st0" points="198.2,135.5 139.8,135.5 160.3,167.9 218.7,167.9 		"/>
	</g>
	<g>
		<polygon class="st0" points="201.7,137.7 141.3,137.7 161.6,169.9 222.2,170.1 		"/>
	</g>
	<path class="st1" d="M353.7,402.9"/>
	<polygon class="st1" points="228.7,403.9 170,403.9 33,186.7 91.3,186.7 	"/>
	
		<linearGradient id="SVGID_7_" gradientUnits="userSpaceOnUse" x1="234.3103" y1="117.258" x2="327.4246" y2="373.0873" gradientTransform="matrix(1 0 0 -1 0 542)">
		<stop  offset="0" style="stop-color:#F7931E"/>
		<stop  offset="0.2363" style="stop-color:#F2811C"/>
		<stop  offset="0.6233" style="stop-color:#D94D19"/>
		<stop  offset="0.899" style="stop-color:#C52D1F"/>
		<stop  offset="1" style="stop-color:#8C0F26"/>
	</linearGradient>
	<path class="st2" d="M174.3,402.9c18.3,0,36.6,0,54.9-0.1c1.4,0,2.8,0,4.1-0.5c2.2-0.9,3.6-3,4.8-5c29.8-47.6,59.6-95.2,89.3-142.8
		c7.7-12.4,15.6-24.8,25.2-35.9c4.7-5.4,9.7-10.6,15.3-15.1c5.8-4.6,12.8-8.7,19.3-12.1c-8.3-5.9-24.7-5.6-34.5-4.9
		c-11.6,0.8-23,4.1-33,9.9c-20.6,12-34.2,32.8-47.1,52.9C239.9,300.6,207.1,351.8,174.3,402.9z"/>
	
		<linearGradient id="SVGID_8_" gradientUnits="userSpaceOnUse" x1="40.1357" y1="358.6864" x2="227.023" y2="135.9629" gradientTransform="matrix(1 0 0 -1 0 542)">
		<stop  offset="0" style="stop-color:#F7931E"/>
		<stop  offset="5.045055e-04" style="stop-color:#F7931E"/>
		<stop  offset="1.516661e-02" style="stop-color:#F7931E"/>
		<stop  offset="3.937623e-02" style="stop-color:#F38A1D"/>
		<stop  offset="0.1202" style="stop-color:#E86F1B"/>
		<stop  offset="0.2028" style="stop-color:#DF5C1A"/>
		<stop  offset="0.2876" style="stop-color:#DB5119"/>
		<stop  offset="0.378" style="stop-color:#D94D19"/>
		<stop  offset="0.6201" style="stop-color:#C52D1F"/>
		<stop  offset="0.8193" style="stop-color:#BB2C20"/>
		<stop  offset="1" style="stop-color:#8C0F26"/>
	</linearGradient>
	<polygon class="st3" points="231,402.7 172.7,402.7 36.1,186.7 94.5,186.7 	"/>
	<g>
		
			<linearGradient id="SVGID_11_" gradientUnits="userSpaceOnUse" x1="171.6286" y1="417.284" x2="191.2714" y2="363.316" gradientTransform="matrix(1 0 0 -1 0 542)">
			<stop  offset="0" style="stop-color:#F7931E"/>
			<stop  offset="5.045055e-04" style="stop-color:#F7931E"/>
			<stop  offset="1.516661e-02" style="stop-color:#F7931E"/>
			<stop  offset="3.937623e-02" style="stop-color:#F38A1D"/>
			<stop  offset="0.1202" style="stop-color:#E86F1B"/>
			<stop  offset="0.2028" style="stop-color:#DF5C1A"/>
			<stop  offset="0.2876" style="stop-color:#DB5119"/>
			<stop  offset="0.378" style="stop-color:#D94D19"/>
			<stop  offset="0.6201" style="stop-color:#C52D1F"/>
			<stop  offset="0.8193" style="stop-color:#BB2C20"/>
			<stop  offset="1" style="stop-color:#8C0F26"/>
		</linearGradient>
		<polygon class="st4" points="200.4,135.5 142,135.5 162.5,167.9 220.9,167.9 		"/>
	</g>
	
		<linearGradient id="SVGID_12_" gradientUnits="userSpaceOnUse" x1="186.1349" y1="363.9789" x2="268.1225" y2="266.2699" gradientTransform="matrix(1 0 0 -1 0 542)">
		<stop  offset="0" style="stop-color:#F7931E"/>
		<stop  offset="5.045055e-04" style="stop-color:#F7931E"/>
		<stop  offset="1.516661e-02" style="stop-color:#F7931E"/>
		<stop  offset="3.937623e-02" style="stop-color:#F38A1D"/>
		<stop  offset="0.1202" style="stop-color:#E86F1B"/>
		<stop  offset="0.2028" style="stop-color:#DF5C1A"/>
		<stop  offset="0.2876" style="stop-color:#DB5119"/>
		<stop  offset="0.378" style="stop-color:#D94D19"/>
		<stop  offset="0.6201" style="stop-color:#C52D1F"/>
		<stop  offset="0.8193" style="stop-color:#BB2C20"/>
		<stop  offset="1" style="stop-color:#8C0F26"/>
	</linearGradient>
	<polygon class="st5" points="244.8,295.3 174.6,187.7 234,187.7 273.4,250.1 	"/>
	<path class="st1" d="M381.1,396.3c0,0-21.6-0.4-52.8-51.3l-32.2-49.3L264.3,334c0,0,23,45.5,50.5,60
		C314.8,394,344,412.6,381.1,396.3z"/>
	<polygon class="st1" points="241.7,296 171.5,187.7 233.3,187.7 270.3,250.8 	"/>
	
		<linearGradient id="SVGID_13_" gradientUnits="userSpaceOnUse" x1="279.7225" y1="228.8656" x2="364.3782" y2="127.9768" gradientTransform="matrix(1 0 0 -1 0 542)">
		<stop  offset="0" style="stop-color:#C52D1F"/>
		<stop  offset="0.1331" style="stop-color:#C52D1F"/>
		<stop  offset="0.2518" style="stop-color:#D94D19"/>
		<stop  offset="0.2949" style="stop-color:#E25F1A"/>
		<stop  offset="0.3565" style="stop-color:#EB721B"/>
		<stop  offset="0.42" style="stop-color:#F07D1C"/>
		<stop  offset="0.4876" style="stop-color:#F2811C"/>
		<stop  offset="0.6723" style="stop-color:#D94D19"/>
		<stop  offset="0.8375" style="stop-color:#C52D1F"/>
		<stop  offset="1" style="stop-color:#8C0F26"/>
	</linearGradient>
	<path class="st6" d="M385.5,396.3c0,0-21.6-0.4-52.8-51.3l-32.2-49.3L272,340.8c0,0,19.6,38.7,47.1,53.2
		C319.2,394,348.3,412.6,385.5,396.3z"/>
	
		<linearGradient id="SVGID_14_" gradientUnits="userSpaceOnUse" x1="186.1349" y1="363.9789" x2="268.1225" y2="266.2699" gradientTransform="matrix(1 0 0 -1 0 542)">
		<stop  offset="0" style="stop-color:#F7931E"/>
		<stop  offset="5.045055e-04" style="stop-color:#F7931E"/>
		<stop  offset="1.516661e-02" style="stop-color:#F7931E"/>
		<stop  offset="3.937623e-02" style="stop-color:#F38A1D"/>
		<stop  offset="0.1202" style="stop-color:#E86F1B"/>
		<stop  offset="0.2028" style="stop-color:#DF5C1A"/>
		<stop  offset="0.2876" style="stop-color:#DB5119"/>
		<stop  offset="0.378" style="stop-color:#D94D19"/>
		<stop  offset="0.6201" style="stop-color:#C52D1F"/>
		<stop  offset="0.8193" style="stop-color:#BB2C20"/>
		<stop  offset="1" style="stop-color:#8C0F26"/>
	</linearGradient>
	<polygon class="st7" points="244.8,295.3 174.6,187.7 234,187.7 273.4,250.1 	"/>
	
		<linearGradient id="SVGID_15_" gradientUnits="userSpaceOnUse" x1="280.4225" y1="229.8655" x2="365.0783" y2="128.9767" gradientTransform="matrix(1 0 0 -1 0 542)">
		<stop  offset="0" style="stop-color:#C52D1F"/>
		<stop  offset="0.1331" style="stop-color:#C52D1F"/>
		<stop  offset="0.2518" style="stop-color:#D94D19"/>
		<stop  offset="0.2949" style="stop-color:#E25F1A"/>
		<stop  offset="0.3565" style="stop-color:#EB721B"/>
		<stop  offset="0.42" style="stop-color:#F07D1C"/>
		<stop  offset="0.4876" style="stop-color:#F2811C"/>
		<stop  offset="0.6723" style="stop-color:#D94D19"/>
		<stop  offset="0.8375" style="stop-color:#C52D1F"/>
		<stop  offset="1" style="stop-color:#8C0F26"/>
	</linearGradient>
	<path class="st8" d="M386.2,395.3c0,0-21.6-0.4-52.8-51.3l-32.2-49.3l-28.5,45.1c0,0,19.6,38.7,47.1,53.2
		C319.9,393,349.1,411.6,386.2,395.3z"/>
	<path class="st1" d="M170,403.9c18.3,0,36.6,0,54.9-0.1c1.4,0,2.8,0,4.1-0.5c2.2-0.9,3.6-3,4.8-5c29.8-47.6,59.6-95.2,89.3-142.8
		c7.7-12.4,15.6-24.8,25.2-35.9c4.7-5.4,9.7-10.6,15.3-15.1c5.8-4.6,12.8-8.7,19.3-12.1c-8.3-5.9-24.7-5.6-34.5-4.9
		c-11.6,0.8-23,4.1-33,9.9c-20.6,12-34.2,32.8-47.1,52.9C235.5,301.6,202.8,352.8,170,403.9z"/>
	
		<linearGradient id="SVGID_16_" gradientUnits="userSpaceOnUse" x1="233.6103" y1="116.258" x2="326.7628" y2="372.1925" gradientTransform="matrix(1 0 0 -1 0 542)">
		<stop  offset="0" style="stop-color:#F7931E"/>
		<stop  offset="0.2363" style="stop-color:#F2811C"/>
		<stop  offset="0.6233" style="stop-color:#D94D19"/>
		<stop  offset="0.899" style="stop-color:#C52D1F"/>
		<stop  offset="1" style="stop-color:#8C0F26"/>
	</linearGradient>
	<path class="st9" d="M173.6,403.9c18.3,0,36.6,0,54.9-0.1c1.4,0,2.8,0,4.1-0.5c2.2-0.9,3.6-3,4.8-5c29.8-47.6,59.6-95.2,89.3-142.8
		c7.7-12.4,15.6-24.8,25.2-35.9c4.7-5.4,9.7-10.6,15.3-15.1c5.8-4.6,12.8-8.7,19.3-12.1c-8.3-5.9-24-6.6-33.8-5.9
		c-11.6,0.8-23.7,5.1-33.7,10.9c-20.6,12-34.2,32.8-47.1,52.9C239.2,301.6,206.4,352.8,173.6,403.9z"/>
	<g>
		<g>
			<path id="XMLID_4_" class="st1" d="M360.5,186.5c24.8,0.3,57.5-3.7,83,5.9c59.7,22.7,74,105,48.7,157.1
				c-10.7,21.9-28.6,41.1-51.7,49.1c-28.7,9.9-71.9,4.3-88,4.3c33.1-0.6,62.2-20.1,79-48.6s19.4-64.4,9.7-96
				c-5.5-18-15-35-28.6-48.1c-13.5-13.1-30.2-21.7-49-23.5C363.6,186.7,360.5,186.5,360.5,186.5z"/>
		</g>
		<g>
			<defs>
				<path id="SVGID_17_" d="M360.5,186.5c24.8,0.3,57.5-3.7,83,5.9c59.7,22.7,74,105,48.7,157.1c-10.7,21.9-28.6,41.1-51.7,49.1
					c-28.7,9.9-71.9,4.3-88,4.3c33.1-0.6,62.2-20.1,79-48.6s19.4-64.4,9.7-96c-5.5-18-15-35-28.6-48.1c-13.5-13.1-30.2-21.7-49-23.5
					C363.6,186.7,360.5,186.5,360.5,186.5z"/>
			</defs>
			<clipPath id="SVGID_18_">
				<use xlink:href="#SVGID_17_"  style="overflow:visible;"/>
			</clipPath>
			<g class="st10">
				<g>
					<g>
						<g>
							<g>
								<polygon class="st1" points="480.7,420.7 291.8,406.9 438.6,320.8 538.4,257.6 								"/>
							</g>
						</g>
					</g>
				</g>
			</g>
		</g>
	</g>
	<g>
		<g>
			
				<linearGradient id="XMLID_2_" gradientUnits="userSpaceOnUse" x1="334.7557" y1="331.4646" x2="475.5113" y2="163.7185" gradientTransform="matrix(1 0 0 -1 0 542)">
				<stop  offset="0" style="stop-color:#D94D19"/>
				<stop  offset="5.342343e-02" style="stop-color:#E2521D"/>
				<stop  offset="0.1577" style="stop-color:#ED5822"/>
				<stop  offset="0.2689" style="stop-color:#F15A24"/>
				<stop  offset="0.2886" style="stop-color:#F4732B"/>
				<stop  offset="0.3145" style="stop-color:#F78E32"/>
				<stop  offset="0.341" style="stop-color:#F9A137"/>
				<stop  offset="0.3682" style="stop-color:#FBAC3A"/>
				<stop  offset="0.3971" style="stop-color:#FBB03B"/>
				<stop  offset="0.4896" style="stop-color:#F2811C"/>
				<stop  offset="0.7215" style="stop-color:#D94D19"/>
				<stop  offset="0.8809" style="stop-color:#C52D1F"/>
				<stop  offset="1" style="stop-color:#8C0F26"/>
			</linearGradient>
			<path id="XMLID_3_" class="st11" d="M363.4,186.5c24.8,0.3,57.5-3.7,83,5.9c59.7,22.7,74,105,48.7,157.1
				c-10.7,21.9-28.6,41.1-51.7,49.1c-28.7,9.9-71.9,4.3-88,4.3c33.1-0.6,62.2-20.1,79-48.6s19.4-64.4,9.7-96
				c-5.5-18-15-35-28.6-48.1c-13.5-13.1-30.2-21.7-49-23.5C366.5,186.7,363.4,186.5,363.4,186.5z"/>
		</g>
		<g>
			<defs>
				<path id="SVGID_19_" d="M363.4,186.5c24.8,0.3,57.5-3.7,83,5.9c59.7,22.7,74,105,48.7,157.1c-10.7,21.9-28.6,41.1-51.7,49.1
					c-28.7,9.9-71.9,4.3-88,4.3c33.1-0.6,62.2-20.1,79-48.6s19.4-64.4,9.7-96c-5.5-18-15-35-28.6-48.1c-13.5-13.1-30.2-21.7-49-23.5
					C366.5,186.7,363.4,186.5,363.4,186.5z"/>
			</defs>
			<clipPath id="SVGID_20_">
				<use xlink:href="#SVGID_19_"  style="overflow:visible;"/>
			</clipPath>
		</g>
	</g>
</g>
</svg>
