<svg xmlns="http://www.w3.org/2000/svg" viewBox="0 0 200 200"><path fill="#3b218c" d="M161.3 114.4H138c1.4-9.5 1.4-19.2 0-28.7h23.3c2.5 0 4.5-2 4.5-4.5s-2-4.5-4.5-4.5h-25.1c-4.2-16.6-12.8-31.8-24.9-43.9-20.1-20.2-48-30.1-76.5-27.3-.4 0-.7.4-.6.8 0 .3.3.6.6.6 21.5 2.1 41.7 11.7 57 27 12.1 12.1 20.4 26.8 24.5 42.9H49.7c-2.5 0-4.5 2-4.5 4.5s2 4.5 4.5 4.5h68.5c.7 4.7 1.1 9.6 1.1 14.4 0 4.8-.4 9.6-1.1 14.4H49.7c-2.5 0-4.5 2-4.5 4.5s2 4.5 4.5 4.5h66.7c-4.1 16.1-12.5 30.8-24.5 42.9-15.3 15.3-35.4 24.8-57 27-.4 0-.7.4-.6.7 0 .3.3.6.6.6 28.5 2.8 56.3-7.2 76.5-27.4 12.1-12.1 20.7-27.3 24.9-43.9h25.1c2.5 0 4.5-2 4.5-4.5-.1-2.6-2.1-4.6-4.6-4.6z"/></svg>