<svg xmlns="http://www.w3.org/2000/svg" version="1" viewBox="0 0 200 200"><path fill="#D6DE21" d="M159.8 5v59.8H40.2V5H12v190h176V5h-28.2zm-129 59.8s-9.4.3-9.4 0V14.4h9.4v50.4zm147.8 0s-9.4.3-9.4 0V14.4h9.4v50.4z"/><path fill="#185222" d="M54.8 145.4h16.4c1.1 0 1.8.1 2.3.4.9.5 1.4 1.3 1.4 2.4s-.5 2-1.4 2.4c-.5.3-1.3.4-2.3.4H47.1v-3.6l20.2-34.7H50.8c-2.5 0-3.7-.9-3.7-2.8 0-1.2.5-2 1.4-2.4.5-.2 1.3-.4 2.3-.4H75v3.6l-20.2 34.7zM93.3 134.4v12.9c0 1.1-.1 1.8-.4 2.3-.5.9-1.3 1.4-2.4 1.4-.8 0-1.5-.3-2.1-.9-.5-.6-.8-1.2-.7-1.9v-41.1h19.5c2.3-.1 4.4.8 6.2 2.6 1.6 1.8 2.4 4 2.3 6.4v9.1c.1 2.7-.8 5-2.6 6.8-1.2 1.2-2.6 2-4.2 2.2-.8.1-1.5.2-2.4.2H93.3zm0-5.6h13.5c1.1 0 1.9-.3 2.4-.9.5-.6.8-1.5.8-2.7v-9.1c0-1.1-.3-1.9-.9-2.5s-1.4-.9-2.5-.9H93.3v16.1zM152.4 151h-9.8c-3.4-.1-5.9-1.7-7.4-4.8l-5.8-11.7c-.8-1.7-1.2-3.5-1.2-5.5 0-1.9.4-3.7 1.3-5.5l5.8-11.7c1.7-3.2 4.2-4.8 7.7-4.8h9.5c1 0 1.8.1 2.3.4.4.2.7.5 1 1 .3.5.4.9.4 1.4 0 1.9-1.2 2.8-3.7 2.8h-9.3c-1.4-.1-2.4.5-2.9 1.7l-5.6 11.1c-.6 1.2-.9 2.4-.9 3.7 0 1 .3 2.1.9 3.3l5.4 11c.6 1.3 1.6 1.9 3.2 1.9h9.1c2.5 0 3.7.9 3.7 2.8 0 2-1.2 2.9-3.7 2.9z"/></svg>