<?xml version="1.0" encoding="utf-8"?>
<!-- Generator: Adobe Illustrator 22.1.0, SVG Export Plug-In . SVG Version: 6.00 Build 0)  -->
<svg version="1.1" id="Layer_1" xmlns="http://www.w3.org/2000/svg" xmlns:xlink="http://www.w3.org/1999/xlink" x="0px" y="0px"
	 viewBox="0 0 200 200" style="enable-background:new 0 0 200 200;" xml:space="preserve">
<style type="text/css">
	.st0{fill:#991414;}
	.st1{fill:#C52D1F;}
	.st2{fill:url(#SVGID_1_);}
	.st3{fill:url(#SVGID_2_);}
	.st4{fill:url(#SVGID_3_);}
	.st5{fill:url(#SVGID_4_);}
	.st6{fill:url(#SVGID_5_);}
	.st7{fill:url(#SVGID_6_);}
	.st8{fill:url(#SVGID_7_);}
	.st9{fill:url(#SVGID_8_);}
	.st10{fill:url(#XMLID_2_);}
</style>
<path class="st0" d="M71.2,46.1H47.8l8.2,13h23.4L71.2,46.1z"/>
<path class="st0" d="M72.6,47H48.4l8.1,12.9L80.8,60L72.6,47z"/>
<path class="st1" d="M83.4,153.7H59.9L5,66.6h23.4L83.4,153.7z"/>
<linearGradient id="SVGID_1_" gradientUnits="userSpaceOnUse" x1="85.6057" y1="379.9626" x2="122.8926" y2="482.4075" gradientTransform="matrix(1 0 0 -1 0 542)">
	<stop  offset="0" style="stop-color:#F7931E"/>
	<stop  offset="0.2363" style="stop-color:#F2811C"/>
	<stop  offset="0.6233" style="stop-color:#D94D19"/>
	<stop  offset="0.899" style="stop-color:#C52D1F"/>
	<stop  offset="1" style="stop-color:#8C0F26"/>
</linearGradient>
<path class="st2" d="M61.6,153.3c7.3,0,14.7,0,22,0c0.6,0,1.1,0,1.6-0.2c0.9-0.4,1.4-1.2,1.9-2C99,132,111,112.9,122.9,93.9
	c3.1-5,6.3-9.9,10.1-14.4c1.9-2.2,3.9-4.2,6.1-6.1c2.3-1.8,5.1-3.5,7.7-4.8c-3.3-2.4-9.9-2.2-13.8-2c-4.6,0.3-9.2,1.6-13.2,4
	c-8.3,4.8-13.7,13.1-18.9,21.2C87.9,112.3,74.8,132.8,61.6,153.3L61.6,153.3z"/>
<linearGradient id="SVGID_2_" gradientUnits="userSpaceOnUse" x1="7.8237" y1="476.7625" x2="82.7763" y2="387.4375" gradientTransform="matrix(1 0 0 -1 0 542)">
	<stop  offset="0" style="stop-color:#F7931E"/>
	<stop  offset="5.000000e-04" style="stop-color:#F7931E"/>
	<stop  offset="1.520000e-02" style="stop-color:#F7931E"/>
	<stop  offset="3.940000e-02" style="stop-color:#F38A1D"/>
	<stop  offset="0.1202" style="stop-color:#E86F1B"/>
	<stop  offset="0.2028" style="stop-color:#DF5C1A"/>
	<stop  offset="0.2876" style="stop-color:#DB5119"/>
	<stop  offset="0.378" style="stop-color:#D94D19"/>
	<stop  offset="0.6201" style="stop-color:#C52D1F"/>
	<stop  offset="0.8193" style="stop-color:#BB2C20"/>
	<stop  offset="1" style="stop-color:#8C0F26"/>
</linearGradient>
<path class="st3" d="M84.4,153.2H61L6.2,66.6h23.4L84.4,153.2z"/>
<linearGradient id="SVGID_3_" gradientUnits="userSpaceOnUse" x1="60.5627" y1="500.2177" x2="68.4373" y2="478.5823" gradientTransform="matrix(1 0 0 -1 0 542)">
	<stop  offset="0" style="stop-color:#F7931E"/>
	<stop  offset="5.000000e-04" style="stop-color:#F7931E"/>
	<stop  offset="1.520000e-02" style="stop-color:#F7931E"/>
	<stop  offset="3.940000e-02" style="stop-color:#F38A1D"/>
	<stop  offset="0.1202" style="stop-color:#E86F1B"/>
	<stop  offset="0.2028" style="stop-color:#DF5C1A"/>
	<stop  offset="0.2876" style="stop-color:#DB5119"/>
	<stop  offset="0.378" style="stop-color:#D94D19"/>
	<stop  offset="0.6201" style="stop-color:#C52D1F"/>
	<stop  offset="0.8193" style="stop-color:#BB2C20"/>
	<stop  offset="1" style="stop-color:#8C0F26"/>
</linearGradient>
<path class="st4" d="M72.1,46.1H48.7l8.2,13h23.4L72.1,46.1z"/>
<linearGradient id="SVGID_4_" gradientUnits="userSpaceOnUse" x1="66.4168" y1="478.8739" x2="99.2496" y2="439.7453" gradientTransform="matrix(1 0 0 -1 0 542)">
	<stop  offset="0" style="stop-color:#F7931E"/>
	<stop  offset="5.000000e-04" style="stop-color:#F7931E"/>
	<stop  offset="1.520000e-02" style="stop-color:#F7931E"/>
	<stop  offset="3.940000e-02" style="stop-color:#F38A1D"/>
	<stop  offset="0.1202" style="stop-color:#E86F1B"/>
	<stop  offset="0.2028" style="stop-color:#DF5C1A"/>
	<stop  offset="0.2876" style="stop-color:#DB5119"/>
	<stop  offset="0.378" style="stop-color:#D94D19"/>
	<stop  offset="0.6201" style="stop-color:#C52D1F"/>
	<stop  offset="0.8193" style="stop-color:#BB2C20"/>
	<stop  offset="1" style="stop-color:#8C0F26"/>
</linearGradient>
<path class="st5" d="M89.9,110.1L61.8,67h23.8l15.8,25L89.9,110.1z"/>
<path class="st1" d="M144.5,150.6c0,0-8.7-0.2-21.2-20.6l-12.9-19.8l-12.7,15.4c0,0,9.2,18.2,20.2,24
	C117.9,149.7,129.7,157.2,144.5,150.6L144.5,150.6z M88.6,110.4L60.5,67h24.8l14.8,25.3L88.6,110.4z"/>
<linearGradient id="SVGID_5_" gradientUnits="userSpaceOnUse" x1="103.9315" y1="424.7427" x2="137.8624" y2="384.3055" gradientTransform="matrix(1 0 0 -1 0 542)">
	<stop  offset="0" style="stop-color:#C52D1F"/>
	<stop  offset="0.1331" style="stop-color:#C52D1F"/>
	<stop  offset="0.2518" style="stop-color:#D94D19"/>
	<stop  offset="0.2949" style="stop-color:#E25F1A"/>
	<stop  offset="0.3565" style="stop-color:#EB721B"/>
	<stop  offset="0.42" style="stop-color:#F07D1C"/>
	<stop  offset="0.4876" style="stop-color:#F2811C"/>
	<stop  offset="0.6723" style="stop-color:#D94D19"/>
	<stop  offset="0.8375" style="stop-color:#C52D1F"/>
	<stop  offset="1" style="stop-color:#8C0F26"/>
</linearGradient>
<path class="st6" d="M146.3,150.6c0,0-8.7-0.2-21.2-20.6l-12.9-19.8l-11.4,18.1c0,0,7.9,15.5,18.9,21.3
	C119.7,149.7,131.4,157.2,146.3,150.6L146.3,150.6z"/>
<linearGradient id="SVGID_6_" gradientUnits="userSpaceOnUse" x1="66.4168" y1="478.8739" x2="99.2496" y2="439.7453" gradientTransform="matrix(1 0 0 -1 0 542)">
	<stop  offset="0" style="stop-color:#F7931E"/>
	<stop  offset="5.000000e-04" style="stop-color:#F7931E"/>
	<stop  offset="1.520000e-02" style="stop-color:#F7931E"/>
	<stop  offset="3.940000e-02" style="stop-color:#F38A1D"/>
	<stop  offset="0.1202" style="stop-color:#E86F1B"/>
	<stop  offset="0.2028" style="stop-color:#DF5C1A"/>
	<stop  offset="0.2876" style="stop-color:#DB5119"/>
	<stop  offset="0.378" style="stop-color:#D94D19"/>
	<stop  offset="0.6201" style="stop-color:#C52D1F"/>
	<stop  offset="0.8193" style="stop-color:#BB2C20"/>
	<stop  offset="1" style="stop-color:#8C0F26"/>
</linearGradient>
<path class="st7" d="M89.9,110.1L61.8,67h23.8l15.8,25L89.9,110.1z"/>
<linearGradient id="SVGID_7_" gradientUnits="userSpaceOnUse" x1="104.1985" y1="425.1321" x2="138.1294" y2="384.6948" gradientTransform="matrix(1 0 0 -1 0 542)">
	<stop  offset="0" style="stop-color:#C52D1F"/>
	<stop  offset="0.1331" style="stop-color:#C52D1F"/>
	<stop  offset="0.2518" style="stop-color:#D94D19"/>
	<stop  offset="0.2949" style="stop-color:#E25F1A"/>
	<stop  offset="0.3565" style="stop-color:#EB721B"/>
	<stop  offset="0.42" style="stop-color:#F07D1C"/>
	<stop  offset="0.4876" style="stop-color:#F2811C"/>
	<stop  offset="0.6723" style="stop-color:#D94D19"/>
	<stop  offset="0.8375" style="stop-color:#C52D1F"/>
	<stop  offset="1" style="stop-color:#8C0F26"/>
</linearGradient>
<path class="st8" d="M146.6,150.2c0,0-8.7-0.2-21.2-20.6l-12.9-19.8L101.1,128c0,0,7.9,15.5,18.9,21.3
	C120,149.3,131.7,156.8,146.6,150.2L146.6,150.2z"/>
<path class="st1" d="M59.9,153.7c7.3,0,14.7,0,22,0c0.6,0,1.1,0,1.6-0.2c0.9-0.4,1.4-1.2,1.9-2c11.9-19.1,23.9-38.2,35.8-57.2
	c3.1-5,6.3-9.9,10.1-14.4c1.9-2.2,3.9-4.2,6.1-6.1c2.3-1.8,5.1-3.5,7.7-4.8c-3.3-2.4-9.9-2.2-13.8-2c-4.6,0.3-9.2,1.6-13.2,4
	c-8.3,4.8-13.7,13.1-18.9,21.2C86.2,112.7,73.1,133.2,59.9,153.7L59.9,153.7z"/>
<linearGradient id="SVGID_8_" gradientUnits="userSpaceOnUse" x1="85.4058" y1="379.5627" x2="122.7083" y2="482.0506" gradientTransform="matrix(1 0 0 -1 0 542)">
	<stop  offset="0" style="stop-color:#F7931E"/>
	<stop  offset="0.2363" style="stop-color:#F2811C"/>
	<stop  offset="0.6233" style="stop-color:#D94D19"/>
	<stop  offset="0.899" style="stop-color:#C52D1F"/>
	<stop  offset="1" style="stop-color:#8C0F26"/>
</linearGradient>
<path class="st9" d="M61.4,153.7c7.3,0,14.7,0,22,0c0.6,0,1.1,0,1.6-0.2c0.9-0.4,1.4-1.2,1.9-2c11.9-19.1,23.9-38.2,35.8-57.2
	c3.1-5,6.3-9.9,10.1-14.4c1.9-2.2,3.9-4.2,6.1-6.1c2.3-1.8,5.1-3.5,7.7-4.8c-3.3-2.4-9.6-2.6-13.5-2.4c-4.6,0.3-9.5,2-13.5,4.4
	c-8.3,4.8-13.7,13.1-18.9,21.2C87.6,112.7,74.5,133.2,61.4,153.7L61.4,153.7z"/>
<path id="XMLID_4_" class="st1" d="M136.3,66.5c9.9,0.1,23-1.5,33.3,2.4c23.9,9.1,29.7,42.1,19.5,63c-4.3,8.8-11.5,16.5-20.7,19.7
	c-11.5,4-28.8,1.7-35.3,1.7c13.3-0.2,24.9-8.1,31.7-19.5c6.7-11.4,7.8-25.8,3.9-38.5c-2.2-7.2-6-14-11.5-19.3
	c-5.4-5.3-12.1-8.7-19.6-9.4L136.3,66.5L136.3,66.5z"/>
<linearGradient id="XMLID_2_" gradientUnits="userSpaceOnUse" x1="125.9033" y1="465.8531" x2="182.3634" y2="398.5663" gradientTransform="matrix(1 0 0 -1 0 542)">
	<stop  offset="0" style="stop-color:#D94D19"/>
	<stop  offset="5.339999e-02" style="stop-color:#E2521D"/>
	<stop  offset="0.1577" style="stop-color:#ED5822"/>
	<stop  offset="0.2689" style="stop-color:#F15A24"/>
	<stop  offset="0.2886" style="stop-color:#F4732B"/>
	<stop  offset="0.3145" style="stop-color:#F78E32"/>
	<stop  offset="0.341" style="stop-color:#F9A137"/>
	<stop  offset="0.3682" style="stop-color:#FBAC3A"/>
	<stop  offset="0.3971" style="stop-color:#FBB03B"/>
	<stop  offset="0.4896" style="stop-color:#F2811C"/>
	<stop  offset="0.7215" style="stop-color:#D94D19"/>
	<stop  offset="0.8809" style="stop-color:#C52D1F"/>
	<stop  offset="1" style="stop-color:#8C0F26"/>
</linearGradient>
<path id="XMLID_3_" class="st10" d="M137.4,66.5c9.9,0.1,23-1.5,33.3,2.4c23.9,9.1,29.7,42.1,19.5,63c-4.3,8.8-11.5,16.5-20.7,19.7
	c-11.5,4-28.8,1.7-35.3,1.7c13.3-0.2,24.9-8.1,31.7-19.5s7.8-25.8,3.9-38.5c-2.2-7.2-6-14-11.5-19.3c-5.4-5.3-12.1-8.7-19.6-9.4
	L137.4,66.5L137.4,66.5z"/>
</svg>
