<?xml version="1.0" encoding="utf-8"?>
<!-- Generator: Adobe Illustrator 22.1.0, SVG Export Plug-In . SVG Version: 6.00 Build 0)  -->
<svg version="1.1" id="Livello_1" xmlns="http://www.w3.org/2000/svg" xmlns:xlink="http://www.w3.org/1999/xlink" x="0px" y="0px"
	 viewBox="0 0 200 200" style="enable-background:new 0 0 200 200;" xml:space="preserve">
<style type="text/css">
	.st0{fill:#545454;}
	.st1{fill:url(#SVGID_1_);}
	.st2{fill:#555454;}
	.st3{fill:url(#SVGID_2_);}
	.st4{fill:url(#SVGID_3_);}
	.st5{fill:url(#SVGID_4_);}
</style>
<g>
	<g>
		<path class="st0" d="M95.6,66.5c-0.2-3.9,0-7.1-0.6-10.8C72.3,58,54.5,77.3,54.5,100.6h-35c0.3-40.7,31.3-74,70.9-78.2
			c0.7-2.1,0-8.4-0.6-10.9c5.2,2.2,29.3,10.4,40.4,34.3C105.6,49.8,95.6,66.5,95.6,66.5z"/>
	</g>
</g>
<g>
	<g>
		
			<linearGradient id="SVGID_1_" gradientUnits="userSpaceOnUse" x1="20.5" y1="144.95" x2="131.2" y2="144.95" gradientTransform="matrix(1 0 0 -1 0 200)">
			<stop  offset="0" style="stop-color:#2D3464"/>
			<stop  offset="1" style="stop-color:#1797CD"/>
		</linearGradient>
		<path class="st1" d="M96.6,65.5c-0.2-3.9,0-7.1-0.6-10.8C73.3,57,55.5,76.3,55.5,99.6h-35c0.3-40.7,31.3-74,70.9-78.2
			c0.7-2.1,0-8.4-0.6-10.9c5.2,2.2,29.3,10.4,40.4,34.3C106.6,48.8,96.6,65.5,96.6,65.5z"/>
	</g>
</g>
<g>
	<g>
		<path class="st2" d="M67.5,103.4c-3.9,0.2-7.1,0-10.8,0.6c2.3,22.8,21.5,40.5,44.9,40.5v35c-40.7-0.3-74-31.3-78.2-70.9
			c-2.1-0.7-8.4,0-10.9,0.6C14.7,104,23,79.9,46.8,68.8C50.8,93.4,67.5,103.4,67.5,103.4z"/>
	</g>
</g>
<g>
	<g>
		
			<linearGradient id="SVGID_2_" gradientUnits="userSpaceOnUse" x1="26.4636" y1="145.7298" x2="137.1636" y2="145.7298" gradientTransform="matrix(4.489659e-11 -1 -1 -4.489659e-11 201.7798 205.9636)">
			<stop  offset="0" style="stop-color:#2D3464"/>
			<stop  offset="1" style="stop-color:#1797CD"/>
		</linearGradient>
		<path class="st3" d="M66.5,103.4c-3.9,0.2-7.1,0-10.8,0.6c2.3,22.8,21.5,40.5,44.9,40.5v35c-40.7-0.3-74-31.3-78.2-70.9
			c-2.1-0.7-8.4,0-10.9,0.6C13.7,104,22,79.9,45.8,68.8C49.8,93.4,66.5,103.4,66.5,103.4z"/>
	</g>
</g>
<g>
	<g>
		<path class="st2" d="M102.9,132.7c0.2,3.9,0,7.1,0.6,10.8c22.8-2.3,40.5-21.5,40.5-44.9h35c-0.3,40.7-31.3,74-70.9,78.2
			c-0.7,2.1,0,8.4,0.6,10.9c-5.2-2.2-29.3-10.4-40.4-34.3C92.9,149.4,102.9,132.7,102.9,132.7z"/>
	</g>
</g>
<g>
	<g>
		
			<linearGradient id="SVGID_3_" gradientUnits="userSpaceOnUse" x1="34.9172" y1="89.6997" x2="145.6172" y2="89.6997" gradientTransform="matrix(-1 0 0 1 213.9172 54.4503)">
			<stop  offset="0" style="stop-color:#2D3464"/>
			<stop  offset="1" style="stop-color:#1797CD"/>
		</linearGradient>
		<path class="st4" d="M102.9,133.7c0.2,3.9,0,7.1,0.6,10.8c22.8-2.3,40.5-21.5,40.5-44.9h35c-0.3,40.7-31.3,74-70.9,78.2
			c-0.7,2.1,0,8.4,0.6,10.9c-5.2-2.2-29.3-10.4-40.4-34.3C92.9,150.4,102.9,133.7,102.9,133.7z"/>
	</g>
</g>
<g>
	<g>
		<path class="st2" d="M188.7,90.8c-2.2,5.2-10.5,29.3-34.3,40.4c-4-24.6-20.7-34.6-20.7-34.6c3.9-0.2,7.1,0,10.8-0.6
			c-2.1-21-17.7-37.8-38.7-40.2c5.6-4.4,12.9-9,24.4-10.9c-5-10.7-11.7-18.3-19-23.6c35.8,5,62.8,34,66.6,70.1
			C179.9,92,186.2,91.4,188.7,90.8z"/>
	</g>
</g>
<g>
	<g>
		
			<linearGradient id="SVGID_4_" gradientUnits="userSpaceOnUse" x1="105.8" y1="123.75" x2="189.7" y2="123.75" gradientTransform="matrix(1 0 0 -1 0 200)">
			<stop  offset="0" style="stop-color:#2D3464"/>
			<stop  offset="1" style="stop-color:#1797CD"/>
		</linearGradient>
		<path class="st5" d="M189.7,90.8c-2.2,5.2-10.5,29.3-34.3,40.4c-4-24.6-20.7-34.6-20.7-34.6c3.9-0.2,7.1,0,10.8-0.6
			c-2.1-21-18.7-37.8-39.7-40.2c5.6-4.4,13.9-9,25.4-10.9c-5-10.7-12.7-18.3-20-23.6c35.8,5,63.8,34,67.6,70.1
			C180.9,92,187.2,91.4,189.7,90.8z"/>
	</g>
</g>
</svg>
