<svg xmlns="http://www.w3.org/2000/svg" id="Layer_1" version="1" viewBox="0 0 200 200"><style>.st2{fill:#2b7272}</style><linearGradient id="SVGID_1_" x1="20.3326" x2="187.3107" y1="110.8992" y2="110.8992" gradientTransform="matrix(1 0 0 -1 -4.46 199.4)" gradientUnits="userSpaceOnUse"><stop offset="0" stop-color="#fff33b"/><stop offset=".04" stop-color="#fee72e"/><stop offset=".12" stop-color="#fed51b"/><stop offset=".2" stop-color="#fdca10"/><stop offset=".28" stop-color="#fdc70c"/><stop offset=".46" stop-color="#f3903f"/><stop offset=".65" stop-color="#ed683c"/><stop offset="1" stop-color="#bf312d"/></linearGradient><path fill="url(#SVGID_1_)" d="M99.4 5c-46.1.5-83.1 38.4-82.6 84.5.5 45.4 37.2 82 82.5 82.5 3.2 0 6.4-.2 9.6-.6h.2c2-.2 4-.6 6-.9h.2c45.3-8.7 74.9-52.5 66.2-97.8-7.4-39.4-42-67.8-82.1-67.7zm16 145.7c-2.1.6-4.2 1-6.4 1.3-3.2.5-6.4.7-9.6.7-35.5 0-64.2-28.8-64.2-64.2C35.2 53 64 24.3 99.4 24.3c35.5 0 64.2 28.8 64.2 64.2 0 29.3-19.8 54.9-48.2 62.2z"/><linearGradient id="SVGID_2_" x1="66.8843" x2="140.7474" y1="110.8932" y2="110.8932" gradientTransform="matrix(1 0 0 -1 -4.46 199.4)" gradientUnits="userSpaceOnUse"><stop offset="0" stop-color="#fff33b"/><stop offset=".04" stop-color="#fee72e"/><stop offset=".12" stop-color="#fed51b"/><stop offset=".2" stop-color="#fdca10"/><stop offset=".28" stop-color="#fdc70c"/><stop offset=".73" stop-color="#f3903f"/><stop offset=".89" stop-color="#ed683c"/><stop offset="1" stop-color="#e93e3a"/></linearGradient><path fill="url(#SVGID_2_)" d="M136.3 88.5c0 20.4-16.5 36.9-36.9 36.9s-36.9-16.5-36.9-36.9S79 51.6 99.4 51.6s36.9 16.5 36.9 36.9z"/><path d="M99.4 135.1c-25.7 0-46.6-20.8-46.6-46.6C52.8 62.8 73.7 42 99.4 42S146 62.8 146 88.6c-.1 25.6-20.9 46.4-46.6 46.5zm0-73.9c-15.1 0-27.3 12.2-27.3 27.3s12.2 27.3 27.3 27.3c15.1 0 27.3-12.2 27.3-27.3 0-15.1-12.3-27.3-27.3-27.3z" class="st2"/><path fill="#17393f" d="M94 113.6c-14.6-14.2-15-37.5-.8-52.2 4.8-5 10.9-8.5 17.7-10.1-19.9-4.4-39.6 8.2-44 28.1s8.2 39.6 28.1 44c5.6 1.2 11.3 1.1 16.8-.2-6.7-1.5-12.9-4.8-17.8-9.6z" opacity=".1"/><path fill="#fff" d="M116.7 90.5c-1.1 0-2-.9-2-2 0-8.5-6.9-15.3-15.3-15.3-1.1 0-2-.9-2-2s.9-2 2-2c10.7 0 19.4 8.7 19.4 19.4-.1 1-1 1.9-2.1 1.9z" opacity=".8"/><path d="M99.4 195l-9.7-69H109z" class="st2"/><path fill="#0e282b" d="M108.2 152.1l-2.8 19.7h-.1l-2.7.1 2.7-19.4z"/></svg>