<svg xmlns="http://www.w3.org/2000/svg" id="Layer_1" viewBox="0 0 200 200"><style>.st1{fill:#fff}</style><ellipse cx="100" cy="100" fill="#243976" rx="95" ry="95"/><path d="M146.7 104.8c-3.1-4.9-8-8.9-14.8-12.1-3.5-1.7-7.6-3.1-12.3-4.5-3.3-.9-6.8.5-8.5 3.4L96.8 116c5.8 1.1 10.1 2.3 12.9 3.4 3.1 1.3 4.7 3 4.7 5.2 0 5.1-5.3 7.6-16 7.6-7.9 0-14.7-1.2-20.5-3.6-3.7-1.5-7.1-3.6-10.3-6.3l-14.9 8.5v16.1c2.9 2 5.9 3.7 8.9 5.1l-4.2 7.3 3.5 6.1H68l5.3-9.1c7.4 1.8 16.6 2.8 27.4 2.8 9.6 0 18.3-1.4 25.9-4.2 7.6-2.8 13.7-6.9 18.1-12.3 4.5-5.4 6.7-12 6.7-19.6-.1-7.3-1.6-13.3-4.7-18.2z" class="st1"/><path d="M136.4 48.3l4.4-7.5-3.5-6.1h-7.1l-5.3 9.1.2.1c-7-1.9-15-2.9-24.1-2.9-10.9 0-20.3 1.6-28.2 4.9-7.9 3.2-13.9 7.8-18 13.6s-6.2 12.4-6.2 20c0 8 2.1 14.4 6.3 19.2 4.2 4.8 9.5 8.4 15.9 10.9 2.3.9 4.8 1.7 7.5 2.5 3.3 1 6.8-.5 8.5-3.4l14.1-24.2c-4.9-1-8.6-2-10.9-2.9-2.9-1.2-4.4-2.8-4.4-4.9 0-2.7 1.4-4.8 4.2-6.4 2.8-1.6 6.7-2.4 11.8-2.4 6.9 0 13.1 1.2 18.4 3.6 3.7 1.6 7.2 4 10.5 7l14.6-8.3V54c-2.7-2.2-5.7-4.1-8.7-5.7z" class="st1"/></svg>