<svg xmlns="http://www.w3.org/2000/svg" id="Livello_1" viewBox="0 0 215 215"><style>.st3{fill:#f8f4bf}</style><linearGradient id="SVGID_1_" x1="240.9794" x2="-16.0206" y1="240.9406" y2="-14.0594" gradientTransform="matrix(1 0 0 -1 0 216)" gradientUnits="userSpaceOnUse"><stop offset="0" stop-color="#c18a4f"/><stop offset=".37" stop-color="#f4dca5"/><stop offset=".99" stop-color="#c18a4f"/></linearGradient><path fill="url(#SVGID_1_)" d="M152 0H63L0 63v89l63 63h89l63-63V63z"/><linearGradient id="SVGID_2_" x1="229.4102" x2="-5.3198" y1="229.4598" y2="-3.4402" gradientTransform="matrix(1 0 0 -1 0 216)" gradientUnits="userSpaceOnUse"><stop offset="0" stop-color="#d2a56b"/><stop offset=".37" stop-color="#f4dca5"/><stop offset=".99" stop-color="#c18a4f"/></linearGradient><path fill="url(#SVGID_2_)" d="M148.2 9.3H66.8L9.3 66.8v81.4l57.5 57.5h81.4l57.5-57.5V66.8z"/><path fill="#a0774b" d="M148.2 9.3H66.8L9.3 66.8v81.4l57.5 57.5h81.4l57.5-57.5V66.8z" opacity=".75"/><path d="M162.5 78.5c-.2-.3-.5-.5-.8-.8l-22.6-22.6c-1-1.2-2.4-2-4-2.1H99c0 .2-.2.2-.3.3-1.1.4-2.1 1-2.9 1.9l-60.9 61c-.2.2-.4.4-.6.7-.5.6-.3 1.5.3 2 .2.2.5.3.7.3h32.4c1.9-.1 3.7.7 5 2 7.7 7.8 15.5 15.5 23.3 23.3 1.3 1.3 2.1 3.1 2 5v32.4c0 .6.3 1.1.9 1.3.5.2 1.2.1 1.6-.3l.5-.5c19.9-20 39.9-39.9 59.8-59.9 1.4-1.3 2.7-2.7 3.2-4.6v-36c-.1-1.3-.6-2.5-1.5-3.4zm-45.2 51.4c-16.7 0-30.2-13.5-30.2-30.2s13.5-30.2 30.2-30.2 30.2 13.5 30.2 30.2-13.6 30.2-30.2 30.2z" class="st3"/><path d="M117.3 118c-10.1 0-18.3-8.2-18.3-18.3s8.2-18.3 18.3-18.3 18.3 8.2 18.3 18.3c0 10.1-8.1 18.3-18.3 18.3z" class="st3"/></svg>