<?xml version="1.0" encoding="UTF-8" standalone="no"?><!DOCTYPE svg PUBLIC "-//W3C//DTD SVG 1.1//EN" "http://www.w3.org/Graphics/SVG/1.1/DTD/svg11.dtd"><svg width="100%" height="100%" viewBox="0 0 512 512" version="1.1" xmlns="http://www.w3.org/2000/svg" xmlns:xlink="http://www.w3.org/1999/xlink" xml:space="preserve" style="fill-rule:evenodd;clip-rule:evenodd;stroke-linecap:round;stroke-linejoin:round;stroke-miterlimit:1.41421;"><circle cx="255.774" cy="254.125" r="202.792" style="fill:#797979;fill-opacity:0.772549;"/><g><g><g><path d="M-37.009,249.463l299.546,299.546" style="fill:none;stroke-width:0.3px;stroke:#fff;"/><path d="M-30.914,243.368l299.546,299.546" style="fill:none;stroke-width:0.3px;stroke:#fff;"/><path d="M-24.819,237.273l299.546,299.546" style="fill:none;stroke-width:0.3px;stroke:#fff;"/><path d="M-18.724,231.177l299.547,299.547" style="fill:none;stroke-width:0.3px;stroke:#fff;"/><path d="M-12.629,225.082l299.547,299.547" style="fill:none;stroke-width:0.3px;stroke:#fff;"/><path d="M-6.534,218.987l299.547,299.547" style="fill:none;stroke-width:0.3px;stroke:#fff;"/><path d="M-0.438,212.892l299.546,299.546" style="fill:none;stroke-width:0.3px;stroke:#fff;"/><path d="M5.657,206.797l299.546,299.546" style="fill:none;stroke-width:0.3px;stroke:#fff;"/><path d="M11.752,200.702l299.546,299.546" style="fill:none;stroke-width:0.3px;stroke:#fff;"/><path d="M17.847,194.606l299.547,299.547" style="fill:none;stroke-width:0.3px;stroke:#fff;"/><path d="M23.942,188.511l299.547,299.547" style="fill:none;stroke-width:0.3px;stroke:#fff;"/><path d="M30.037,182.416l299.547,299.547" style="fill:none;stroke-width:0.3px;stroke:#fff;"/><path d="M36.132,176.321l299.547,299.547" style="fill:none;stroke-width:0.3px;stroke:#fff;"/><path d="M42.228,170.226l299.546,299.546" style="fill:none;stroke-width:0.3px;stroke:#fff;"/><path d="M48.323,164.131l299.546,299.546" style="fill:none;stroke-width:0.3px;stroke:#fff;"/><path d="M54.418,158.036l299.546,299.546" style="fill:none;stroke-width:0.3px;stroke:#fff;"/><path d="M60.513,151.94l299.547,299.547" style="fill:none;stroke-width:0.3px;stroke:#fff;"/><path d="M66.608,145.845l299.547,299.547" style="fill:none;stroke-width:0.3px;stroke:#fff;"/><path d="M72.703,139.75l299.547,299.547" style="fill:none;stroke-width:0.3px;stroke:#fff;"/><path d="M78.799,133.655l299.546,299.546" style="fill:none;stroke-width:0.3px;stroke:#fff;"/><path d="M84.894,127.56l299.546,299.546" style="fill:none;stroke-width:0.3px;stroke:#fff;"/><path d="M90.989,121.465l299.546,299.546" style="fill:none;stroke-width:0.3px;stroke:#fff;"/><path d="M97.084,115.369l299.547,299.547" style="fill:none;stroke-width:0.3px;stroke:#fff;"/><path d="M103.179,109.274l299.547,299.547" style="fill:none;stroke-width:0.3px;stroke:#fff;"/><path d="M109.274,103.179l299.547,299.547" style="fill:none;stroke-width:0.3px;stroke:#fff;"/><path d="M115.369,97.084l299.547,299.547" style="fill:none;stroke-width:0.3px;stroke:#fff;"/><path d="M121.465,90.989l299.546,299.546" style="fill:none;stroke-width:0.3px;stroke:#fff;"/><path d="M127.56,84.894l299.546,299.546" style="fill:none;stroke-width:0.3px;stroke:#fff;"/><path d="M133.655,78.799l299.546,299.546" style="fill:none;stroke-width:0.3px;stroke:#fff;"/><path d="M139.75,72.703l299.547,299.547" style="fill:none;stroke-width:0.3px;stroke:#fff;"/><path d="M145.845,66.608l299.547,299.547" style="fill:none;stroke-width:0.3px;stroke:#fff;"/><path d="M151.94,60.513l299.547,299.547" style="fill:none;stroke-width:0.3px;stroke:#fff;"/><path d="M158.036,54.418l299.546,299.546" style="fill:none;stroke-width:0.3px;stroke:#fff;"/><path d="M164.131,48.323l299.546,299.546" style="fill:none;stroke-width:0.3px;stroke:#fff;"/><path d="M170.226,42.228l299.546,299.546" style="fill:none;stroke-width:0.3px;stroke:#fff;"/><path d="M176.321,36.132l299.547,299.547" style="fill:none;stroke-width:0.3px;stroke:#fff;"/><path d="M182.416,30.037l299.547,299.547" style="fill:none;stroke-width:0.3px;stroke:#fff;"/><path d="M188.511,23.942l299.547,299.547" style="fill:none;stroke-width:0.3px;stroke:#fff;"/><path d="M194.606,17.847l299.547,299.547" style="fill:none;stroke-width:0.3px;stroke:#fff;"/><path d="M200.702,11.752l299.546,299.546" style="fill:none;stroke-width:0.3px;stroke:#fff;"/><path d="M206.797,5.657l299.546,299.546" style="fill:none;stroke-width:0.3px;stroke:#fff;"/><path d="M212.892,-0.438l299.546,299.546" style="fill:none;stroke-width:0.3px;stroke:#fff;"/><path d="M218.987,-6.534l299.547,299.547" style="fill:none;stroke-width:0.3px;stroke:#fff;"/><path d="M225.082,-12.629l299.547,299.547" style="fill:none;stroke-width:0.3px;stroke:#fff;"/><path d="M231.177,-18.724l299.547,299.547" style="fill:none;stroke-width:0.3px;stroke:#fff;"/><path d="M237.273,-24.819l299.546,299.546" style="fill:none;stroke-width:0.3px;stroke:#fff;"/><path d="M243.368,-30.914l299.546,299.546" style="fill:none;stroke-width:0.3px;stroke:#fff;"/><path d="M249.463,-37.009l299.546,299.546" style="fill:none;stroke-width:0.3px;stroke:#fff;"/></g></g></g><path d="M255.774,26.481c125.64,0 227.643,102.004 227.643,227.644c0,125.64 -102.003,227.644 -227.643,227.644c-125.64,0 -227.644,-102.004 -227.644,-227.644c0,-125.64 102.004,-227.644 227.644,-227.644ZM255.774,49.523c112.923,0 204.602,91.679 204.602,204.602c0,112.923 -91.679,204.602 -204.602,204.602c-112.923,0 -204.603,-91.679 -204.603,-204.602c0,-112.923 91.68,-204.602 204.603,-204.602Z" style="fill:#737373;stroke-width:7.5px;stroke:#fff;"/><path d="M73.711,314.382c0.583,1.096 0.943,1.714 0.984,1.672c0.113,-0.078 0,-1.014 -0.188,-2.068c-1.546,-7.176 -1.999,-11.662 -2.225,-21.373c-0.339,-16.421 1.244,-31.437 4.713,-44.269c0.226,-0.741 0.641,-2.379 0.98,-3.628c3.281,-12.403 8.446,-24.377 16.515,-38.223c4.638,-7.996 6.033,-10.024 11.764,-17.473c3.092,-4.018 17.91,-19.229 21.341,-21.92c1.546,-1.209 3.809,-3.003 5.015,-3.979c2.376,-1.95 9.879,-6.903 13.386,-8.853c1.168,-0.663 2.413,-1.404 2.714,-1.677c0.943,-0.781 9.012,-5.11 12.443,-6.67c4.864,-2.184 11.236,-4.524 17.344,-6.358c1.546,-0.468 3.356,-1.014 3.959,-1.209c1.584,-0.468 7.881,-1.794 13.197,-2.691c6.222,-1.092 11.877,-1.599 17.609,-1.599c2.639,0 4.826,-0.117 4.826,-0.273c0,-0.195 -3.733,-4.251 -8.295,-9.088c-5.92,-6.24 -8.258,-9.01 -8.22,-9.556c0.075,-0.585 0.528,-0.858 1.998,-1.131c3.092,-0.546 29.071,-0.507 35.632,0.078c5.882,0.546 20.247,2.496 23.377,3.198c2.677,0.625 7.164,1.561 9.426,1.951c5.204,0.936 19.645,5.109 30.353,8.775c8.823,3.043 24.207,9.01 28.957,11.272c1.056,0.507 2.828,1.326 3.846,1.795c5.091,2.418 7.918,3.783 11.878,5.85c4.637,2.379 9.388,4.953 9.991,5.461c0.415,0.312 2.527,1.56 7.391,4.29c1.772,1.014 3.921,2.301 4.788,2.886c0.867,0.546 1.735,1.014 1.923,1.014c0.189,0 0.867,0.507 1.546,1.17l1.207,1.17l-0.114,5.5l-0.15,5.46l0.942,0.546c0.528,0.312 2.376,1.366 4.148,2.38c1.772,0.975 4.147,2.457 5.279,3.237c1.131,0.78 2.375,1.599 2.714,1.794c3.771,2.34 12.179,9.049 16.251,13.066c9.879,9.595 17.156,22.895 19.343,35.298c0.943,5.383 1.131,16.616 0.377,21.842c-0.829,5.773 -1.772,10.453 -2.149,10.882c-0.189,0.234 -0.339,0.663 -0.339,1.014c0,1.716 -3.922,10.336 -6.523,14.392c-2.074,3.199 -5.996,8.074 -8.145,10.141c-4.524,4.33 -11.123,8.308 -17.231,10.375c-4.6,1.56 -5.543,1.287 -4.487,-1.248c1.621,-3.822 2.074,-5.694 2.074,-8.776c0,-5.772 -2.715,-10.258 -8.031,-13.339c-3.054,-1.794 -4.11,-2.145 -8.258,-2.769c-3.846,-0.585 -9.011,-0.078 -13.31,1.365c-2.375,0.78 -3.28,1.209 -6.636,3.159c-3.959,2.34 -7.88,6.865 -10.746,12.442c-3.092,6.046 -4.788,11.662 -5.656,18.917c-0.678,5.655 -0.414,9.751 1.018,15.094c0.868,3.238 3.545,9.244 5.279,11.896c4.902,7.489 10.331,12.013 20.7,17.396c2.187,1.131 4.638,2.262 5.468,2.535c0.829,0.273 1.847,0.663 2.262,0.858c1.961,0.897 8.823,2.769 15.082,4.095c3.808,0.78 7.692,1.327 16.779,2.263c0.716,0.078 3.469,0.195 6.108,0.195l4.346,0.071c-36.338,46.487 -91.913,76.233 -154.151,76.233c-81.887,0 -152.239,-51.493 -182.419,-124.858ZM338.216,179.035c1.433,-0.975 3.582,-2.769 4.789,-3.94c2.149,-2.067 2.187,-2.106 3.959,-1.872c4.638,0.624 10.331,1.95 12.292,2.77c0.528,0.234 0.641,0.195 0.452,-0.156c-0.188,-0.273 -2.262,-1.444 -4.675,-2.614c-2.451,-1.209 -4.713,-2.34 -5.052,-2.535c-0.378,-0.195 -0.943,-0.351 -1.245,-0.351c-0.301,0 -0.867,-0.156 -1.244,-0.39c-0.566,-0.312 -4.675,-1.716 -10.821,-3.627c-2.263,-0.702 -10.294,-2.379 -13.951,-2.965c-7.013,-1.053 -8.748,-1.209 -15.045,-1.443c-6.598,-0.273 -6.711,-0.273 -6.334,0.507c0.867,1.639 7.051,6.787 11.198,9.283c3.62,2.184 9.087,4.759 13.009,6.163c3.808,1.365 8.785,2.886 9.652,2.964c0.264,0.039 1.621,-0.78 3.016,-1.794Z" style="fill:#797979;"/></svg>