<svg xmlns="http://www.w3.org/2000/svg" id="katman_1" x="0" y="0" version="1.1" viewBox="0 0 200 200" xml:space="preserve"><style>.st0{fill:#e30613}.st1{fill:#fff}</style><circle cx="103.6" cy="89.2" r="84.2" class="st0"/><path d="M56.2 146.8c-24.3 0-44-19.7-44-44s19.7-44 44-44c1 0 1.9 0 2.7.1 2.1.1 3.7 1.8 3.7 3.9v11.6c0 1.1-.5 2.2-1.3 2.9-.8.7-1.9 1.1-3 1-.6-.1-1.3-.1-2.1-.1-13.6 0-24.6 11-24.6 24.6 0 13.6 11 24.6 24.6 24.6 3 0 5.8-.5 8.5-1.5 1.7-.6 3.6 0 4.6 1.5 2.1 3.1 4.6 5.8 7.5 8.2 1 .8 1.5 2.1 1.4 3.4-.1 1.3-.9 2.5-2.1 3.1-6.1 3-13 4.7-19.9 4.7zm-1.5-80.2C35.4 67.4 20 83.3 20 102.8c0 19.9 16.2 36.2 36.2 36.2 3.8 0 7.5-.6 11.1-1.7-.9-1-1.8-2.1-2.7-3.1-2.7.7-5.5 1.1-8.4 1.1-17.9 0-32.4-14.5-32.4-32.4 0-17.4 13.8-31.6 31-32.4v-3.9zm33.4 64.3c-.7 0-1.4-.2-2.1-.6-3.8-2.4-7.1-5.8-9.5-9.7-.8-1.3-.8-3 .1-4.2 2.7-4 4.1-8.7 4.1-13.6v-.1c0-6.6-2.6-12.8-7.3-17.5-.7-.7-1.2-1.7-1.2-2.8V68c0-1.4.7-2.7 2-3.4 1.2-.7 2.7-.7 3.9 0 3.4 2 6.6 4.4 9.3 7.2 8.2 8.3 12.7 19.3 12.7 30.9v.1c0 9.7-3.1 18.8-8.9 26.5-.8 1.1-1.9 1.6-3.1 1.6zm-3.6-12.4c.8 1 1.7 2 2.7 2.9 3.4-5.6 5.1-11.9 5.1-18.5v-.1c0-9.6-3.7-18.6-10.4-25.4-.6-.6-1.2-1.1-1.8-1.7V81c5.5 6 8.5 13.7 8.5 21.9v.1c-.1 5.4-1.5 10.7-4.1 15.5z" class="st0"/><path d="M96.2 106.8H84.6c-2.2 0-3.9-1.8-3.9-3.9v-61c0-2.2 1.8-3.9 3.9-3.9h11.6c2.2 0 3.9 1.8 3.9 3.9v61c0 2.1-1.7 3.9-3.9 3.9zm-7.6-7.9h3.8V45.8h-3.8v53.1z" class="st0"/><path d="M144.8 102.7c-1 0-2-.4-2.7-1.1-.8-.7-1.2-1.7-1.2-2.8V87.2c0-2.1 1.7-3.8 3.8-3.9 13.3-.4 23.7-11.2 23.7-24.6 0-13.6-11-24.6-24.6-24.6-13.6 0-24.6 11-24.6 24.6 0 7.9 3.9 15.4 10.3 20 1 .7 1.6 1.9 1.6 3.2v13.3c0 1.3-.7 2.6-1.8 3.3-1.1.7-2.5.8-3.7.3-4.9-2.2-9.3-5.3-13.1-9.1-8.2-8.3-12.7-19.3-12.7-31 0-24.3 19.7-44 44-44 24.2 0 44 19.7 44 44 0 11.6-4.4 22.5-12.5 30.8-8.1 8.2-18.9 12.9-30.5 13.2zm3.9-12v3.8c17.8-2.4 31.3-17.4 31.3-35.9 0-19.9-16.3-36.2-36.2-36.2-19.9 0-36.2 16.2-36.2 36.2 0 9.6 3.7 18.6 10.5 25.4 1.6 1.6 3.4 3.1 5.3 4.4v-4.7c-7.5-6.1-12-15.4-12-25.2 0-17.9 14.5-32.4 32.4-32.4s32.4 14.5 32.4 32.4c0 16.5-11.8 29.9-27.5 32.2z" class="st0"/><path d="M115.2 123.6h-11.6c-2.2 0-3.9-1.8-3.9-3.9v-61c0-2.2 1.8-3.9 3.9-3.9h11.6c2.2 0 3.9 1.8 3.9 3.9v61c.1 2.2-1.7 3.9-3.9 3.9zm-7.6-7.8h3.8V62.7h-3.8v53.1z" class="st0"/><path d="M101.7 195c-12.3 0-24.1-5.2-32.4-14.2-3-3.2-5.4-6.8-7.3-10.7-.7-1.5-.4-3.3.8-4.5l8.9-8.9c1-1 2.4-1.4 3.7-1 1.3.3 2.4 1.3 2.8 2.6 1 3.3 2.8 6.5 5.1 9 4.7 5.3 11.4 8.3 18.4 8.3 13.6 0 24.6-11 24.6-24.6v-9.1c-7.2 4.9-15.7 7.5-24.6 7.5-22.5 0-41.5-17.3-43.8-39.5-.2-.4-.2-.9-.2-1.4V63v-1-11.1c0-2.2 1.8-3.9 3.9-3.9h11.6c2.2 0 3.9 1.8 3.9 3.9v54.5c0 13.6 11 24.6 24.6 24.6 13.6 0 24.6-11 24.6-24.6v-39c0-2.2 1.8-3.9 3.9-3.9h11.6c2.2 0 3.9 1.8 3.9 3.9V151c0 5.9-1.1 11.5-3.4 16.9-6.8 16.5-22.8 27.1-40.6 27.1zm-31.4-25.9c1.3 2.3 2.9 4.4 4.7 6.4 6.8 7.4 16.5 11.7 26.6 11.7 14.7 0 27.8-8.8 33.4-22.3 1.8-4.4 2.8-9.1 2.8-13.9V70.3H134v35.1c0 17.9-14.5 32.4-32.4 32.4-17.7 0-32.2-14.3-32.4-32v-51h-3.7v52.7c.1.2.1.5.1.7 1.5 18.7 17.3 33.3 36 33.3 9.7 0 18.9-3.8 25.7-10.7 1.1-1.1 2.8-1.5 4.3-.9s2.4 2 2.4 3.6V151c0 17.9-14.5 32.4-32.4 32.4-9.3 0-18.1-4-24.3-10.9-1.7-1.9-3.1-4-4.3-6.2l-2.7 2.8z" class="st0"/><path d="M66.1 129.5c-3.1 1.2-6.4 1.8-9.9 1.8-15.7 0-28.5-12.8-28.5-28.5s12.8-28.5 28.5-28.5c.8 0 1.7 0 2.5.1V62.7c-.8-.1-1.6-.1-2.5-.1-22.1 0-40.1 17.9-40.1 40.1 0 22.1 17.9 40.1 40.1 40.1 6.5 0 12.7-1.6 18.1-4.3-3.1-2.6-5.9-5.6-8.2-9zM84.6 41.9v32.7c-2.5-2.6-5.4-4.8-8.5-6.6v14.5c5.2 5.2 8.5 12.3 8.5 20.3v.1c0 5.8-1.8 11.2-4.8 15.7 2.1 3.4 4.9 6.3 8.2 8.4 5.1-6.7 8.1-15.1 8.1-24.1v-61H84.6zM143.7 18.6c-22.1 0-40.1 17.9-40.1 40.1v61h11.6V86.9c3.4 3.5 7.5 6.3 12 8.3V81.9c-7.3-5.2-12-13.6-12-23.2 0-15.7 12.8-28.5 28.5-28.5s28.5 12.8 28.5 28.5c0 15.4-12.2 28-27.5 28.5v11.6c21.7-.5 39.1-18.3 39.1-40.1 0-22.1-17.9-40.1-40.1-40.1z" class="st1"/><path d="M73.2 50.9v54.5c0 15.7 12.8 28.5 28.5 28.5s28.5-12.8 28.5-28.5v-39h11.6V151c0 5.4-1.1 10.6-3.1 15.4-6 14.5-20.3 24.7-37 24.7-11.7 0-22.2-5-29.5-13-2.7-2.9-4.9-6.2-6.6-9.8l8.9-8.9c1.2 3.9 3.2 7.5 5.9 10.5 5.2 5.9 12.8 9.6 21.3 9.6 15.7 0 28.5-12.8 28.5-28.5v-17.4c-7.3 7.3-17.4 11.9-28.5 11.9-21.1 0-38.3-16.3-40-36.9h-.1V63 50.9h11.6z" class="st1"/></svg>