<svg xmlns="http://www.w3.org/2000/svg" viewBox="0 0 200 200"><linearGradient id="a" x1="3.7617" x2="2.7084" y1="-1.7655" y2="1.6285" gradientTransform="matrix(30.09 0 0 31.072 14.197 66.9222)" gradientUnits="userSpaceOnUse"><stop offset=".039" stop-color="#2cf4e1"/><stop offset="1" stop-color="#2cb2e1"/></linearGradient><ellipse cx="106.4" cy="81.9" fill="url(#a)" rx="53.4" ry="55.2"/><linearGradient id="b" x1="12.4241" x2="18.5408" y1="1.3737" y2="5.7876" gradientTransform="matrix(7.68 0 0 15.023 39.028 45.3922)" gradientUnits="userSpaceOnUse"><stop offset=".039" stop-color="#2cf4e1"/><stop offset="1" stop-color="#2cb2e1"/></linearGradient><path fill="url(#b)" d="M143.9 65.3c3.8 5.3 5.9 11.7 5.8 18.3 0 8-3.2 15.3-8.6 21.3l3.3 12.7h10l10.5-12.4 2.8-18.1.6-10.8L158 64.2l-14.1 1.1z"/><linearGradient id="c" x1="64.8778" x2="121.2683" y1="82.7526" y2="162.2587" gradientUnits="userSpaceOnUse"><stop offset="0" stop-color="#2ce5e1"/><stop offset="1" stop-color="#2cb2e1"/></linearGradient><path fill="url(#c)" d="M159 131.9c-.4.5-.7 1.1-1.1 1.6-.4.6-.8 1.2-1.2 1.7-1 1.4-1.9 2.7-2.9 4-3.4 4.5-7 8.8-10.7 12.7-12.5 13.1-27.1 22.8-43.4 29-31.1-11.3-54.1-36.4-69.1-66-.1-1.1-.1-2.3-.1-3.5 0-31.6 23.7-57.3 53.3-58.4h.5l1.6.4s-27.1 9-27.1 33.4 26.1 36.3 45.4 36.3c10.4 0 19-3.2 24.7-6 4.8-2.4 7.5-4.6 7.5-4.6l22.6 19.4z"/><path fill="#282828" d="M129.4 69.7c.5-.2 2-1 3.8-2.9 3.5.5 7 1.6 7 1.6-6.4-4-15.2-6.4-24.9-6.3 0 0 3.7 5.5 14 7.7l.1-.1z"/><linearGradient id="d" x1="99.8" x2="99.8" y1="139.22" y2="19.19" gradientUnits="userSpaceOnUse"><stop offset="0"/><stop offset="1" stop-color="#3b3b3b"/></linearGradient><path fill="url(#d)" d="M185.8 66.9c-5.3 25.2-16.3 51.5-31.9 72.3-26.9-2-25.3-18.8-25.3-18.8 0-.7 0-1.3.1-2 0 0 1.3-13.3 12.6-13.3 1.5-.1 2.9.3 4.2 1 5.9 3.3 2.1 9.4 2.1 9.4 7.3-1.2 16.5-9.7 15-24.6-1.5-14.9-18.7-22.6-18.7-22.6.5-3.4 0-4.6 0-4.6-36.5-22.8-65-17.9-65-17.9l7.1 7.3c-.7-.1-1.5-.1-2.2-.1-29.6 1.1-53.3 26.8-53.3 58.4 0 1.2 0 2.4.1 3.5-7.8-15.3-13.4-31.7-16.8-48 23.8-20.4 55.8-37.2 86-47.7 30.7 10.8 61.9 27.1 86 47.7z"/><linearGradient id="e" x1=".0303" x2="3.6774" y1="-.0248" y2="-.0248" gradientTransform="matrix(53.513 0 0 50.557 .689 101.2515)" gradientUnits="userSpaceOnUse"><stop offset=".039" stop-color="#2cf4e1"/><stop offset="1" stop-color="#2cb2e1"/></linearGradient><path fill="url(#e)" d="M195 63.3c-8.9 52.6-42.5 109.2-95 126.5-52.8-18-85.5-72.8-95-126.4 24.6-22.5 64-43.3 94.9-53.2 31 9.7 70 30.9 95.1 53.1zM10 64.9zm133.1 87c21.3-22 36.2-54.4 42.7-85.1-24.1-20.5-55.3-36.9-86-47.7-30.2 10.6-62.2 27.4-86 47.8 10.1 47.8 38.8 96.9 86 114 16.2-6.2 30.8-15.9 43.3-29z"/></svg>