<?xml version="1.0" encoding="utf-8"?>
<!-- Generator: Adobe Illustrator 22.1.0, SVG Export Plug-In . SVG Version: 6.00 Build 0)  -->
<svg version="1.1" id="Livello_1" xmlns="http://www.w3.org/2000/svg" xmlns:xlink="http://www.w3.org/1999/xlink" x="0px" y="0px"
	 viewBox="0 0 200 200" style="enable-background:new 0 0 200 200;" xml:space="preserve">
<style type="text/css">
	.st0{fill:url(#SVGID_1_);}
	.st1{fill:url(#SVGID_2_);}
	.st2{fill:url(#SVGID_3_);}
	.st3{fill:url(#SVGID_4_);}
	.st4{fill:#282828;}
	.st5{fill:url(#SVGID_5_);}
</style>
<g>
	<g transform="translate(0 -2)">
		
			<linearGradient id="SVGID_1_" gradientUnits="userSpaceOnUse" x1="3.7609" y1="201.7657" x2="2.7077" y2="198.3719" gradientTransform="matrix(30.09 0 0 -31.072 14.197 6283.3223)">
			<stop  offset="3.900000e-02" style="stop-color:#2CF4E1"/>
			<stop  offset="1" style="stop-color:#2CB2E1"/>
		</linearGradient>
		<ellipse class="st0" cx="106.4" cy="83.9" rx="53.4" ry="55.2"/>
		
			<linearGradient id="SVGID_2_" gradientUnits="userSpaceOnUse" x1="12.4267" y1="198.6299" x2="18.5446" y2="194.2151" gradientTransform="matrix(7.68 0 0 -15.023 39.028 3051.9922)">
			<stop  offset="3.900000e-02" style="stop-color:#2CF4E1"/>
			<stop  offset="1" style="stop-color:#2CB2E1"/>
		</linearGradient>
		<path class="st1" d="M143.9,67.3c3.8,5.3,5.9,11.7,5.8,18.3c0,8-3.2,15.3-8.6,21.3l3.3,12.7h10l10.5-12.4l2.8-18.1l0.6-10.8
			L158,66.2C158,66.2,143.9,67.3,143.9,67.3z"/>
		
			<linearGradient id="SVGID_3_" gradientUnits="userSpaceOnUse" x1="1.2624" y1="200.3906" x2="2.962" y2="197.9943" gradientTransform="matrix(39.063 0 0 -39.106 6.65 7912.8359)">
			<stop  offset="0" style="stop-color:#2CE5E1"/>
			<stop  offset="1" style="stop-color:#2CB2E1"/>
		</linearGradient>
		<path class="st2" d="M27.8,121.1l1.8,7.5c0,0,21.6,45.7,70.1,62.7c0,0,45.5-19.5,65.1-52.5l-28.4-24.4c0,0-13,10.7-32.2,10.7
			c-19.3,0-45.4-11.9-45.4-36.3s27.1-33.4,27.1-33.4l-11.5-2.9H44.9L26.1,98.9L27.8,121.1z"/>
		
			<linearGradient id="SVGID_4_" gradientUnits="userSpaceOnUse" x1="1.922" y1="198.069" x2="1.922" y2="201.6215" gradientTransform="matrix(51.122 0 0 -35.1304 1.939 7099.7534)">
			<stop  offset="0" style="stop-color:#000000"/>
			<stop  offset="1" style="stop-color:#3B3B3B"/>
		</linearGradient>
		<path class="st3" d="M191,71.9c-0.8-0.9-24.8-31.9-90.3-55.2C36.7,39,9.4,71.9,9.4,71.9c2.5,14.9,8.7,31.5,14.4,44.4
			c0.5,1.1,8,14.8,13.6,22.3c-3.3-7.5-6.9-14-6.9-25.2c0-31.6,23.7-57.3,53.3-58.4c0.7,0,1.5,0,2.2,0.1l-7.1-7.3
			c0,0,28.5-4.9,65,17.9c0,0,0.5,1.2,0,4.6c0,0,17.2,7.7,18.7,22.6c1.5,14.9-7.7,23.4-15,24.6c0,0,3.8-6.1-2.1-9.4
			c-1.3-0.7-2.7-1.1-4.2-1c-11.3,0-12.6,13.3-12.6,13.3c-0.1,0.7-0.1,1.3-0.1,2c0,0-1.9,19.4,31.6,19c0,0,17-19.8,21.5-37.7
			c1.7-6.6,2.8-11.5,3.6-15.2c1.9-5.2,3.7-10.5,5.5-16.1C190.8,72.6,191,71.9,191,71.9z"/>
		<path class="st4" d="M129.4,71.7c0.5-0.2,2-1,3.8-2.9c3.5,0.5,7,1.6,7,1.6c-6.4-4-15.2-6.4-24.9-6.3c0,0,3.7,5.5,14,7.7
			L129.4,71.7L129.4,71.7z"/>
		
			<linearGradient id="SVGID_5_" gradientUnits="userSpaceOnUse" x1="3.022561e-02" y1="200.0248" x2="3.6793" y2="200.0248" gradientTransform="matrix(53.513 0 0 -50.557 0.689 10214.6514)">
			<stop  offset="3.900000e-02" style="stop-color:#2CF4E1"/>
			<stop  offset="1" style="stop-color:#2CB2E1"/>
		</linearGradient>
		<path class="st5" d="M195.1,65.2l-0.4,2.5c-0.2,2-1.8,8.9-3.6,15.6c-3.4,12.2-8,24.1-13.6,35.5c-7.8,15.9-17.3,29.7-28.2,41.1
			c-13.5,14-29,24.4-46.4,30.8l-1,0.4l-1.8,0.7l-1.8-0.7l-1-0.4c-17.4-6.5-33-16.8-46.4-30.8c-11-11.5-20.4-25.3-28.2-41.1
			C15.3,104,9.8,88.3,6.2,72.1c-0.3-1.4-0.6-2.8-0.8-4.2l-0.4-2.6l1-0.9l0.8-0.7c15.9-13.9,34.8-25.9,55.1-35.9
			c13.6-6.7,25.9-11.7,35.3-14.8l2.7-0.9l1.9,0.6l0.9,0.3c9.3,3.1,21.7,8.1,35.3,14.8c20.3,10,39.1,22,55.1,35.9L195.1,65.2
			L195.1,65.2z M10,66.8C10,66.8,10,66.8,10,66.8L10,66.8z M10.8,71.1c0.7,3.3,1.6,6.9,2.7,10.9c3.3,11.9,7.8,23.5,13.2,34.6
			c7.6,15.3,16.8,28.7,27.4,39.9C67,170,82,180,98.7,186.2l1.2,0.4l1.3-0.5c16.7-6.2,31.6-16.2,44.6-29.7
			c10.6-11,19.8-24.4,27.4-39.9c5.5-11.1,9.9-22.7,13.2-34.6c1.1-4,2-7.7,2.7-10.9c0.3-1.2,0.5-2.5,0.7-3.7
			c-15.5-13.6-34-25.2-53.9-35.1c-13.4-6.6-25.6-11.5-34.7-14.5l-0.9-0.3l0.7-2.3l-0.7,2.3l-1.2-0.4l0.7-2.3l0.7,2.3l-2,0.7
			c-9.2,3.1-21.4,7.9-34.7,14.5c-19.9,9.8-38.3,21.5-53.9,35l-1,0.9l-1.5-1.9l2.3-0.4l0.2,1l-2.3,0.4l2.3-0.6
			C10.2,68.1,10.5,69.8,10.8,71.1L10.8,71.1z M143.2,153.9c10.3-10.7,19.3-23.9,26.7-38.9c4.8-9.9,8.9-20.1,12-30.6
			c1.6-5.1,2.9-10.3,4-15.6c-15.7-13.4-34.1-24.8-54-34.4c-7-3.4-14.2-6.5-21.5-9.4c-3.5-1.4-7-2.7-10.5-3.9
			c-2.8,0.9-6.3,2.2-10.6,3.9c-7.3,2.9-14.4,6-21.5,9.4c-19.9,9.6-38.3,21-54,34.4c1.1,5.3,2.4,10.5,4,15.7
			c3.2,10.5,7.2,20.8,12,30.7c7.4,15,16.4,28.1,26.7,38.9c12.5,13.1,27.1,22.7,43.3,28.8C116.1,176.7,130.7,167,143.2,153.9z
			 M174.2,117.2c-7.7,15.5-16.9,29-27.6,40.2c-13.3,13.8-28.7,24-45.8,30.3l-0.8,0.3l-0.8-0.3c-17.2-6.3-32.6-16.4-45.9-30.2
			c-10.7-11.1-20-24.6-27.6-40.1c-5-10.1-9.1-20.6-12.3-31.4c-2.1-7-3.5-13-4.4-17.6l-0.3-1.4l1.1-0.9c16.2-14.1,35.4-26,56.1-36
			c7.1-3.5,14.4-6.6,21.8-9.5c3.8-1.5,7.6-2.9,11.5-4.2L100,16l0.7,0.2c3.1,1,6.8,2.4,11.5,4.2c7.4,2.9,14.7,6.1,21.8,9.5
			c20.7,10,39.9,21.9,56.1,36l1.1,0.9l-0.3,1.4c-0.9,4.6-2.3,10.5-4.4,17.5C183.3,96.6,179.1,107.1,174.2,117.2z"/>
	</g>
</g>
</svg>
