<svg xmlns="http://www.w3.org/2000/svg" viewBox="0 0 200 200"><path fill="#141414" fill-rule="evenodd" d="M30.1 96.5c0 5.6-4.6 10.1-10.1 10.1-5.6 0-10.1-4.6-10.1-10.1 0-5.6 4.6-10.1 10.1-10.1 5.6-.1 10.1 4.5 10.1 10.1m160.5 0c0 5.6-4.6 10.1-10.1 10.1-5.6 0-10.1-4.6-10.1-10.1 0-5.6 4.6-10.1 10.1-10.1 5.7-.1 10.1 4.5 10.1 10.1m-80.2 39.8c0 5.6-4.6 10.1-10.1 10.1-5.6 0-10.1-4.6-10.1-10.1s4.6-10.1 10.1-10.1 10.1 4.5 10.1 10.1M70 116.7c0 5.6-4.6 10.1-10.1 10.1-5.6 0-10.1-4.6-10.1-10.1 0-5.6 4.6-10.1 10.1-10.1S70 111.1 70 116.7m80.3 0c0 5.6-4.6 10.1-10.1 10.1-5.6 0-10.1-4.6-10.1-10.1 0-5.6 4.6-10.1 10.1-10.1s10.1 4.5 10.1 10.1M26.8 127c0 3.8-3.1 6.9-6.9 6.9S13 130.8 13 127s3.1-6.9 6.9-6.9 6.9 3.1 6.9 6.9m160.6 0c0 3.8-3.1 6.9-6.9 6.9-3.8 0-6.9-3.1-6.9-6.9s3.1-6.9 6.9-6.9c3.9.1 6.9 3.1 6.9 6.9m-80.3 40.5c0 3.8-3.1 6.9-6.9 6.9-3.8 0-6.9-3.1-6.9-6.9 0-3.8 3.1-6.9 6.9-6.9 3.9 0 6.9 3.1 6.9 6.9m-40.4-20.2c0 3.8-3.1 6.9-6.9 6.9s-6.9-3.1-6.9-6.9c0-3.8 3.1-6.9 6.9-6.9s6.9 3.1 6.9 6.9m80.3 0c0 3.8-3.1 6.9-6.9 6.9-3.8 0-6.9-3.1-6.9-6.9 0-3.8 3.1-6.9 6.9-6.9 3.8 0 6.9 3.1 6.9 6.9m-123.5 3.8c0 1.9-1.5 3.6-3.6 3.6-1.9 0-3.6-1.5-3.6-3.6 0-1.9 1.5-3.6 3.6-3.6s3.6 1.6 3.6 3.6m160.6 0c0 1.9-1.7 3.6-3.6 3.6-1.9 0-3.6-1.5-3.6-3.6 0-1.9 1.5-3.6 3.6-3.6 2 0 3.6 1.6 3.6 3.6m-80.3 40.3c0 1.9-1.7 3.6-3.6 3.6-1.9 0-3.6-1.7-3.6-3.6 0-1.9 1.5-3.6 3.6-3.6 2.1.2 3.6 1.7 3.6 3.6m-40.5-20.1c0 1.9-1.5 3.6-3.6 3.6-1.9 0-3.6-1.7-3.6-3.6s1.5-3.6 3.6-3.6c2.1.1 3.6 1.6 3.6 3.6m80.4 0c0 1.9-1.7 3.6-3.6 3.6-1.9 0-3.6-1.7-3.6-3.6s1.5-3.6 3.6-3.6 3.6 1.6 3.6 3.6M113.6 18.6c0 7.5-6.1 13.6-13.6 13.6s-13.6-6.1-13.6-13.6S92.5 5 100 5s13.6 6.1 13.6 13.6m0 40.5c0 7.5-6.1 13.6-13.6 13.6s-13.6-6.1-13.6-13.6 6.1-13.6 13.6-13.6 13.6 6.1 13.6 13.6m0 39.8c0 7.5-6.1 13.6-13.6 13.6s-13.6-6.1-13.6-13.6 6.1-13.6 13.6-13.6 13.6 6.1 13.6 13.6m80.3-39.8c0 7.5-6.1 13.6-13.6 13.6s-13.6-6.1-13.6-13.6 6.1-13.6 13.6-13.6 13.6 6.1 13.6 13.6m-160.6 0c0 7.5-6.1 13.6-13.6 13.6S6.1 66.6 6.1 59.1s6.1-13.6 13.6-13.6 13.6 6.1 13.6 13.6m40.5-20.2c0 7.5-6.1 13.6-13.6 13.6s-13.6-6.1-13.6-13.6 6.1-13.6 13.6-13.6c7.5-.1 13.6 6 13.6 13.6m0 39.8c0 7.5-6.1 13.6-13.6 13.6s-13.6-6.1-13.6-13.6 6.1-13.6 13.6-13.6 13.6 6.1 13.6 13.6m80.3-39.8c0 7.5-6.1 13.6-13.6 13.6s-13.6-6.1-13.6-13.6 6.1-13.6 13.6-13.6 13.6 6 13.6 13.6m0 39.8c0 7.5-6.1 13.6-13.6 13.6s-13.6-6.1-13.6-13.6 6.1-13.6 13.6-13.6 13.6 6.1 13.6 13.6" clip-rule="evenodd"/></svg>