<?xml version="1.0" encoding="utf-8"?>
<!-- Generator: Adobe Illustrator 22.1.0, SVG Export Plug-In . SVG Version: 6.00 Build 0)  -->
<svg version="1.1" id="Livello_1" xmlns="http://www.w3.org/2000/svg" xmlns:xlink="http://www.w3.org/1999/xlink" x="0px" y="0px"
	 viewBox="0 0 200 200" style="enable-background:new 0 0 200 200;" xml:space="preserve">
<style type="text/css">
	.st0{clip-path:url(#SVGID_2_);}
	.st1{fill:#10A6A1;}
	.st2{fill:#1F8E8B;}
	.st3{fill:#08ABA6;}
	.st4{fill:#20928F;}
	.st5{fill:#39BCB8;}
	.st6{fill:#156A68;}
	.st7{fill:#60D9D5;}
</style>
<g id="组_1">
	<g>
		<defs>
			<path id="SVGID_1_" d="M19.9,80.5l104.6,0.9c15.8,2.7,30.6,9.7,42.8,20.2c1.1,1,5.5,0,5.5,0L172.3,5L19.9,5.2L19.9,80.5z"/>
		</defs>
		<clipPath id="SVGID_2_">
			<use xlink:href="#SVGID_1_"  style="overflow:visible;"/>
		</clipPath>
		<g id="C" class="st0">
			<path class="st1" d="M150.6,21.2C138.2,10.9,121.1,5.8,99.3,5.8H45v7.6h53.3c18.5,0,35.3,3.8,45.5,12.7
				c11.3,9.5,17.9,23.5,18,38.3c0.2,14.1-6.3,27.4-17.4,36c-10.6,8.8-29.7,12.7-48.7,12.7H34.5v7.6h61.6c22.9,0,40.8-5,53.7-14.9
				c12.9-10,19.4-24,19.4-42C169.3,45.5,163,31.4,150.6,21.2z"/>
		</g>
		<g id="C_copy" class="st0">
			<path class="st2" d="M146,32.1c-7.7-5.9-16.6-10.6-41.8-10.6h-42v7.4c0,0,18.7-0.2,40.9,0c21.5,0.2,29.3,2.8,36.6,8
				c9.3,6.8,15,15.3,15,27c0,11.4-5.8,19.4-15.1,26.3c-9.3,6.9-24,7.1-29.9,7.2c-2.2,0-31.1,0-31.1,0v7.4c0,0,14.4,0.2,23.2,0
				c20.4-0.5,32.5-1.7,43.7-10c10.3-7.1,16.3-18.8,16.1-31.3C162.1,51.1,156.2,39.3,146,32.1z"/>
		</g>
		<g id="C_copy_2" class="st0">
			<path class="st3" d="M142.3,41.9c-5.8-3.6-10.9-6.1-34.9-6.1H77.2v4.9h29.3c21.3,0,29.4,3.8,31.8,5.3c4.8,2.9,11.1,7.7,11.1,17.4
				c-0.1,6.8-3.5,13.2-9.1,17.1c-5,2.8-14,5.3-30,5.3H12v4.9h98.7c19.2,0,25.8-2.1,32.6-5.9c7.4-4.5,11.8-12.7,11.3-21.3
				C154.7,54.6,150,46.3,142.3,41.9z"/>
		</g>
	</g>
	<path class="st1" d="M161.4,95.6C149,85.3,131.8,80.2,110,80.2H73.7v7.6H109c18.5,0,35.3,3.8,45.5,12.7c11.3,9.5,17.9,23.5,18,38.3
		c0.2,14.1-6.3,27.4-17.4,36c-10.6,8.8-29.7,12.7-48.7,12.7H45.3v7.6H107c22.9,0,40.8-5,53.7-14.9c12.9-10,19.4-24,19.4-42
		C180.1,120,173.8,105.8,161.4,95.6z"/>
	<path class="st2" d="M156.8,106.5c-7.7-5.9-16.6-10.6-41.8-10.6H58.1v7.4c0,0,33.8-0.2,56,0c21.5,0.2,29.3,2.8,36.6,8
		c9.3,6.8,15,15.3,15,27c0,11.4-5.8,19.4-15.1,26.3c-9.3,6.9-24,7.1-29.9,7.2c-2.2,0-31.1,0-31.1,0v7.4c0,0,14.4,0.2,23.2,0
		c20.4-0.5,32.5-1.7,43.7-10c10.3-7.1,16.4-18.9,16.2-31.4C172.9,125.4,167,113.6,156.8,106.5z"/>
	<rect x="70.2" y="127.5" class="st4" width="53.3" height="4.1"/>
	<rect x="92.2" y="142.5" class="st5" width="31" height="3.5"/>
	<rect x="45.3" y="127.5" class="st5" width="15.8" height="4.1"/>
	<rect x="35.5" y="142.3" class="st4" width="48" height="4.1"/>
	<rect x="47.3" y="36.9" class="st6" width="18.7" height="3.4"/>
	<rect x="34.3" y="64" class="st7" width="42.8" height="4"/>
	<rect x="35.5" y="173.8" class="st3" width="45.2" height="5"/>
	<rect x="24.2" y="187.6" class="st2" width="11.3" height="7.2"/>
	<rect x="52.5" y="51.9" class="st5" width="70.9" height="4"/>
	<rect x="87.9" y="64" class="st2" width="34.1" height="4"/>
	<path class="st3" d="M153,117c-5.8-3.5-10.9-5.9-34.9-5.9H79.7v4.7h37.5c21.3,0,29.4,3.7,31.8,5.1c4.8,2.8,11.1,7.4,11.1,16.8
		c-0.1,6.7-3.5,12.9-9.1,16.6c-5,2.8-14,5.1-30,5.1H22.8v4.7h98.7c19.2,0,25.8-2.1,32.6-5.5c7.3-4.2,11.7-12.1,11.3-20.6
		C165.5,129.3,160.8,121.2,153,117z"/>
</g>
</svg>
