<?xml version="1.0" encoding="utf-8"?>
<!-- Generator: Adobe Illustrator 22.1.0, SVG Export Plug-In . SVG Version: 6.00 Build 0)  -->
<svg version="1.0" id="Livello_1" xmlns="http://www.w3.org/2000/svg" xmlns:xlink="http://www.w3.org/1999/xlink" x="0px" y="0px"
	 viewBox="0 0 200 200" enable-background="new 0 0 200 200" xml:space="preserve">
<path d="M100,14c47.4,0,86,38.6,86,86s-38.6,86-86,86s-86-38.6-86-86S52.6,14,100,14 M100,5C47.5,5,5,47.5,5,100s42.5,95,95,95
	s95-42.5,95-95S152.5,5,100,5L100,5z"/>
<path d="M60.3,43.8c18.5,0,33.5,15,33.5,33.5s-15,33.5-33.5,33.5s-33.5-15-33.5-33.5S41.8,43.8,60.3,43.8 M60.3,37.8
	c-21.8,0-39.5,17.7-39.5,39.5s17.7,39.5,39.5,39.5s39.5-17.7,39.5-39.5S82.1,37.8,60.3,37.8L60.3,37.8z"/>
<path d="M139.3,43.8c18.5,0,33.5,15,33.5,33.5s-15,33.5-33.5,33.5s-33.5-15-33.5-33.5S120.8,43.8,139.3,43.8 M139.3,37.8
	c-21.8,0-39.5,17.7-39.5,39.5s17.7,39.5,39.5,39.5s39.5-17.7,39.5-39.5S161.1,37.8,139.3,37.8L139.3,37.8z"/>
<path d="M100,112.8c18.5,0,33.5,15,33.5,33.5s-15,33.5-33.5,33.5s-33.5-15-33.5-33.5S81.5,112.8,100,112.8 M100,106.8
	c-21.8,0-39.5,17.7-39.5,39.5s17.7,39.5,39.5,39.5s39.5-17.7,39.5-39.5S121.8,106.8,100,106.8L100,106.8z"/>
<path d="M100,20c7.4,0,13.5,6.1,13.5,13.5S107.4,47,100,47s-13.5-6.1-13.5-13.5S92.6,20,100,20 M100,14c-10.8,0-19.5,8.7-19.5,19.5
	S89.2,53,100,53s19.5-8.7,19.5-19.5S110.8,14,100,14L100,14z"/>
<path d="M42.5,120c7.4,0,13.5,6.1,13.5,13.5c0,7.4-6.1,13.5-13.5,13.5S29,140.9,29,133.5C29,126.1,35.1,120,42.5,120 M42.5,114
	c-10.8,0-19.5,8.7-19.5,19.5c0,10.8,8.7,19.5,19.5,19.5S62,144.3,62,133.5C62,122.7,53.3,114,42.5,114L42.5,114z"/>
<path d="M157.5,120c7.4,0,13.5,6.1,13.5,13.5c0,7.4-6.1,13.5-13.5,13.5s-13.5-6.1-13.5-13.5C144,126.1,150.1,120,157.5,120
	 M157.5,114c-10.8,0-19.5,8.7-19.5,19.5c0,10.8,8.7,19.5,19.5,19.5s19.5-8.7,19.5-19.5C177,122.7,168.3,114,157.5,114L157.5,114z"/>
<path d="M71.5,24c3,0,5.5,2.5,5.5,5.5S74.5,35,71.5,35S66,32.5,66,29.5S68.5,24,71.5,24 M71.5,20c-5.2,0-9.5,4.3-9.5,9.5
	s4.3,9.5,9.5,9.5s9.5-4.3,9.5-9.5S76.7,20,71.5,20L71.5,20z"/>
<path d="M128.5,24c3,0,5.5,2.5,5.5,5.5s-2.5,5.5-5.5,5.5s-5.5-2.5-5.5-5.5S125.5,24,128.5,24 M128.5,20c-5.2,0-9.5,4.3-9.5,9.5
	s4.3,9.5,9.5,9.5c5.2,0,9.5-4.3,9.5-9.5S133.7,20,128.5,20L128.5,20z"/>
<path d="M175.5,105c3,0,5.5,2.5,5.5,5.5s-2.5,5.5-5.5,5.5s-5.5-2.5-5.5-5.5S172.5,105,175.5,105 M175.5,101c-5.2,0-9.5,4.3-9.5,9.5
	s4.3,9.5,9.5,9.5s9.5-4.3,9.5-9.5S180.7,101,175.5,101L175.5,101z"/>
<path d="M147,155c3,0,5.5,2.5,5.5,5.5S150,166,147,166s-5.5-2.5-5.5-5.5S144,155,147,155 M147,151c-5.2,0-9.5,4.3-9.5,9.5
	s4.3,9.5,9.5,9.5s9.5-4.3,9.5-9.5S152.2,151,147,151L147,151z"/>
<path d="M24.5,105c3,0,5.5,2.5,5.5,5.5s-2.5,5.5-5.5,5.5s-5.5-2.5-5.5-5.5S21.5,105,24.5,105 M24.5,101c-5.2,0-9.5,4.3-9.5,9.5
	s4.3,9.5,9.5,9.5s9.5-4.3,9.5-9.5S29.7,101,24.5,101L24.5,101z"/>
<path d="M53,155c3,0,5.5,2.5,5.5,5.5S56,166,53,166s-5.5-2.5-5.5-5.5S50,155,53,155 M53,151c-5.2,0-9.5,4.3-9.5,9.5s4.3,9.5,9.5,9.5
	s9.5-4.3,9.5-9.5S58.2,151,53,151L53,151z"/>
</svg>
