<svg xmlns="http://www.w3.org/2000/svg" viewBox="0 0 200 200"><path fill="#141414" fill-rule="evenodd" d="M50.9 181.2v-.2c0-6.4-4.8-11.5-11-11.5-6.3 0-10.9 5.2-10.9 11.4v.1c0 6.4 4.8 11.5 11 11.5 6.3.1 10.9-5.1 10.9-11.3m-24.7 0v-.2c0-7.5 5.8-13.9 13.8-13.9 7.9 0 13.7 6.4 13.7 13.8v.1c0 7.5-5.8 14-13.8 14-7.9 0-13.7-6.4-13.7-13.8m33.5 0v-.2c0-7.5 6-13.9 13.6-13.9 5 0 8.2 2.3 10.7 4.9l-1.8 1.9c-2.3-2.3-4.9-4.4-8.9-4.4-6.1 0-10.8 5.1-10.8 11.4v.1c0 6.4 4.9 11.5 11 11.5 3.8 0 6.7-1.9 8.9-4.4l1.8 1.6c-2.7 3.1-6 5.3-10.9 5.3-7.7 0-13.6-6.4-13.6-13.8m51.3-1.4c-.4-5.4-3.4-10.3-9.6-10.3-5.3 0-9.4 4.4-9.8 10.3H111zm-22.2 1.3v-.1c0-7.7 5.4-13.9 12.7-13.9 7.5 0 12.2 6.1 12.2 13.9 0 .5 0 .6-.1 1h-22c.5 6.6 5.2 10.5 10.5 10.5 4.1 0 7-1.8 9.1-4.2l1.8 1.6c-2.7 2.9-5.9 5-11 5-7.1.1-13.2-5.5-13.2-13.8zm50.8 3.2v-3.1c-2.3-.6-5.3-1.2-9.1-1.2-5.7 0-8.8 2.5-8.8 6.3v.1c0 3.9 3.7 6.2 7.8 6.2 5.4 0 10.1-3.4 10.1-8.3m-20.7 2.3v-.1c0-5.6 4.8-8.7 11.7-8.7 3.7 0 6.3.5 8.9 1.2v-1.2c0-5.4-3.3-8.2-8.8-8.2-3.3 0-6 .9-8.4 2.2l-.9-2.3c3-1.4 5.8-2.3 9.5-2.3 3.6 0 6.5 1 8.5 2.9 1.8 1.8 2.7 4.3 2.7 7.6v16.7h-2.5v-4.5c-1.8 2.6-5.2 5.1-10.3 5.1-5 0-10.4-2.8-10.4-8.4m32.2-18.9h2.6v5c1.8-3.2 4.7-5.6 9.6-5.6 6.7 0 10.6 4.6 10.6 11v16.4h-2.5v-15.9c0-5.5-3.1-9.2-8.4-9.2-5.2 0-9.2 4-9.2 9.6v15.5h-2.6v-26.8zm-106-90.8c0 4.4-3.6 7.9-7.9 7.9-4.4 0-7.9-3.6-7.9-7.9 0-4.4 3.6-7.9 7.9-7.9 4.3-.1 7.9 3.5 7.9 7.9m126.1 0c0 4.4-3.6 7.9-7.9 7.9-4.4 0-7.9-3.6-7.9-7.9 0-4.4 3.6-7.9 7.9-7.9 4.4-.1 7.9 3.5 7.9 7.9m-63 31.3c0 4.4-3.6 7.9-7.9 7.9-4.4 0-7.9-3.6-7.9-7.9s3.6-7.9 7.9-7.9c4.3 0 7.9 3.5 7.9 7.9M76.4 92.8c0 4.4-3.6 7.9-7.9 7.9-4.4 0-7.9-3.6-7.9-7.9 0-4.4 3.6-7.9 7.9-7.9 4.3-.1 7.9 3.5 7.9 7.9m63.1 0c0 4.4-3.6 7.9-7.9 7.9-4.4 0-7.9-3.6-7.9-7.9 0-4.4 3.6-7.9 7.9-7.9 4.3-.1 7.9 3.5 7.9 7.9m-97 8.1c0 3-2.4 5.4-5.4 5.4-3 0-5.4-2.4-5.4-5.4 0-3 2.4-5.4 5.4-5.4 3 0 5.4 2.4 5.4 5.4m126.2 0c0 3-2.4 5.4-5.4 5.4-3 0-5.4-2.4-5.4-5.4 0-3 2.4-5.4 5.4-5.4 3 0 5.4 2.4 5.4 5.4m-63.1 31.8c0 3-2.4 5.4-5.4 5.4-3 0-5.4-2.4-5.4-5.4 0-3 2.4-5.4 5.4-5.4 3 0 5.4 2.4 5.4 5.4m-31.8-15.9c0 3-2.4 5.4-5.4 5.4-3 0-5.4-2.4-5.4-5.4 0-3 2.4-5.4 5.4-5.4 3 0 5.4 2.4 5.4 5.4m63.1 0c0 3-2.4 5.4-5.4 5.4-3 0-5.4-2.4-5.4-5.4 0-3 2.4-5.4 5.4-5.4 3 0 5.4 2.4 5.4 5.4m-97 3c0 1.5-1.2 2.8-2.8 2.8-1.5 0-2.8-1.2-2.8-2.8 0-1.5 1.2-2.8 2.8-2.8 1.6 0 2.8 1.2 2.8 2.8m126.2 0c0 1.5-1.3 2.8-2.8 2.8-1.5 0-2.8-1.2-2.8-2.8 0-1.5 1.2-2.8 2.8-2.8 1.5 0 2.8 1.2 2.8 2.8M103 151.5c0 1.5-1.3 2.8-2.8 2.8-1.5 0-2.8-1.3-2.8-2.8 0-1.5 1.2-2.8 2.8-2.8 1.6.1 2.8 1.3 2.8 2.8m-31.8-15.8c0 1.5-1.2 2.8-2.8 2.8-1.5 0-2.8-1.3-2.8-2.8 0-1.5 1.2-2.8 2.8-2.8 1.6 0 2.8 1.2 2.8 2.8m63.1 0c0 1.5-1.3 2.8-2.8 2.8-1.5 0-2.8-1.3-2.8-2.8 0-1.5 1.2-2.8 2.8-2.8 1.6 0 2.8 1.2 2.8 2.8m-23.6-120c0 5.9-4.8 10.7-10.7 10.7-5.9 0-10.7-4.8-10.7-10.7C89.3 9.8 94.1 5 100 5c5.9 0 10.7 4.8 10.7 10.7m0 31.8c0 5.9-4.8 10.7-10.7 10.7-5.9 0-10.7-4.8-10.7-10.7 0-5.9 4.8-10.7 10.7-10.7 5.9 0 10.7 4.8 10.7 10.7m0 31.3c0 5.9-4.8 10.7-10.7 10.7-5.9 0-10.7-4.8-10.7-10.7 0-5.9 4.8-10.7 10.7-10.7 5.9 0 10.7 4.8 10.7 10.7m63.1-31.3c0 5.9-4.8 10.7-10.7 10.7-5.9 0-10.7-4.8-10.7-10.7 0-5.9 4.8-10.7 10.7-10.7 5.9 0 10.7 4.8 10.7 10.7m-126.2 0c0 5.9-4.8 10.7-10.7 10.7s-10.7-4.8-10.7-10.7c0-5.9 4.8-10.7 10.7-10.7s10.7 4.8 10.7 10.7m31.8-15.9c0 5.9-4.8 10.7-10.7 10.7S58 37.5 58 31.6c0-5.9 4.8-10.7 10.7-10.7s10.7 4.8 10.7 10.7m0 31.3c0 5.9-4.8 10.7-10.7 10.7S58 68.8 58 62.9c0-5.9 4.8-10.7 10.7-10.7S79.4 57 79.4 62.9m63.1-31.3c0 5.9-4.8 10.7-10.7 10.7-5.9 0-10.7-4.8-10.7-10.7 0-5.9 4.8-10.7 10.7-10.7 5.9 0 10.7 4.8 10.7 10.7m0 31.3c0 5.9-4.8 10.7-10.7 10.7-5.9 0-10.7-4.8-10.7-10.7 0-5.9 4.8-10.7 10.7-10.7 5.9 0 10.7 4.8 10.7 10.7" clip-rule="evenodd"/></svg>