<?xml version="1.0" encoding="UTF-8"?>
<svg width="231px" height="260px" viewBox="0 0 231 260" version="1.1" xmlns="http://www.w3.org/2000/svg" xmlns:xlink="http://www.w3.org/1999/xlink">
    <!-- Generator: Sketch 48.2 (47327) - http://www.bohemiancoding.com/sketch -->
    <title>token_logo</title>
    <desc>Created with Sketch.</desc>
    <defs>
        <path d="M129.179894,3.70067701 L217.454763,55.0031378 C225.840285,59.876528 231,68.8429828 231,78.541792 L231,181.458208 C231,191.157017 225.840285,200.123472 217.454763,204.996862 L129.179894,256.299323 C120.722256,261.214625 110.277744,261.214625 101.820106,256.299323 L13.5452365,204.996862 C5.15971512,200.123472 7.07331894e-14,191.157017 7.81597009e-14,181.458208 L-3.55271368e-15,78.541792 C-9.0476118e-15,68.8429828 5.15971512,59.876528 13.5452365,55.0031378 L101.820106,3.70067701 C110.277744,-1.21462523 120.722256,-1.21462523 129.179894,3.70067701 Z" id="path-1"></path>
        <linearGradient x1="100%" y1="0%" x2="0%" y2="100%" id="linearGradient-2">
            <stop stop-color="#4265AB" offset="0%"></stop>
            <stop stop-color="#1F3572" offset="100%"></stop>
        </linearGradient>
        <path d="M148.613295,128.234534 C153.410433,135.125141 156.264706,143.542503 156.264706,152.667938 C156.264706,175.857994 138.014484,194.659686 115.503376,194.659686 C105.388296,194.659686 96.1581414,190.837247 89.0332725,184.549434 L89.0425411,184.598298 L83.7144473,193.62112 L74.9362452,193.62112 L74.9362452,156.826201 L83.7144473,156.826201 L83.8517102,156.826201 C83.8936393,157.428551 83.9845594,158.023795 84.0582665,158.622147 L84.866396,162.826608 C86.3114075,168.299293 89.1934861,173.541432 93.5422027,177.918691 C105.976628,190.431238 125.43441,191.134868 137.011274,179.483648 C147.693943,168.734176 147.894761,151.234468 138.091722,138.749906 C137.271235,137.71134 136.414555,136.69454 135.455481,135.735043 C132.702279,132.967162 129.594666,130.806074 126.316688,129.199361 C118.972022,125.603025 110.741106,124.936708 103.388054,127.266153 C100.108752,125.662994 96.9998143,123.503682 94.2479368,120.738466 C93.4773229,119.956654 92.753493,119.15352 92.0742405,118.329064 C98.7039039,113.517366 106.771958,110.667305 115.503376,110.667305 C124.812976,110.667305 133.36785,113.921598 140.234965,119.338312 C143.435263,121.867208 146.260848,124.852752 148.613295,128.234534 Z M89.9273348,141.373507 C87.0615865,138.99209 84.5370093,136.206885 82.3875878,133.12539 C77.589567,126.231229 74.7352941,117.81209 74.7352941,108.691098 C74.7352941,85.4965993 92.9841917,66.7015707 115.503244,66.7015707 C125.64922,66.7015707 134.903208,70.5462204 142.037786,76.8620181 L147.286877,67.4211932 L156.063755,67.4211932 L156.063755,104.224552 L156.019619,104.224552 C156.031094,104.330274 156.051838,104.420449 156.063755,104.526616 L145.847162,104.526616 C145.315323,96.9741336 142.085012,89.3989965 136.159317,83.4359026 C123.724892,70.9251327 104.264903,70.2223903 92.6906876,81.8709459 C81.8394191,92.7941043 81.7793942,110.708262 92.0741081,123.21992 C92.7533606,124.043044 93.4771905,124.847511 94.2478044,125.621327 C96.9996819,128.389208 100.108619,130.550297 103.388363,132.151679 C110.727733,135.75068 118.958649,136.416997 126.316556,134.087552 C129.594534,135.698707 132.702588,137.851799 135.45579,140.621458 C136.414864,141.584508 137.271543,142.598643 138.09159,143.642095 C131.623905,148.083321 123.859506,150.684623 115.503244,150.684623 C105.810545,150.684623 96.9215612,147.1909 89.9273348,141.373507 Z" id="path-3"></path>
        <filter x="-6.1%" y="-3.1%" width="112.3%" height="107.8%" filterUnits="objectBoundingBox" id="filter-4">
            <feOffset dx="0" dy="1" in="SourceAlpha" result="shadowOffsetOuter1"></feOffset>
            <feGaussianBlur stdDeviation="1.5" in="shadowOffsetOuter1" result="shadowBlurOuter1"></feGaussianBlur>
            <feColorMatrix values="0 0 0 0 0.121568627   0 0 0 0 0.207843137   0 0 0 0 0.447058824  0 0 0 0.4 0" type="matrix" in="shadowBlurOuter1"></feColorMatrix>
        </filter>
    </defs>
    <g id="favicon" stroke="none" stroke-width="1" fill="none" fill-rule="evenodd" transform="translate(-15.000000, 0.000000)">
        <g id="token_logo" transform="translate(15.000000, 0.000000)">
            <g id="Polygon-Copy-6">
                <use fill="#FFFFFF" fill-rule="evenodd" xlink:href="#path-1"></use>
                <path stroke="#E4E6EE" stroke-width="10" d="M126.667529,8.02364139 C119.763169,4.01105331 111.236831,4.01105331 104.332471,8.02364139 L16.0576017,59.3261022 C9.21211359,63.3044756 5,70.6242064 5,78.541792 L5,181.458208 C5,189.375794 9.21211359,196.695524 16.0576017,200.673898 L104.332471,251.976359 C111.236831,255.988947 119.763169,255.988947 126.667529,251.976359 L214.942398,200.673898 C221.787886,196.695524 226,189.375794 226,181.458208 L226,78.541792 C226,70.6242064 221.787886,63.3044756 214.942398,59.3261022 L126.667529,8.02364139 Z"></path>
            </g>
            <g id="Combined-Shape" fill-rule="nonzero">
                <use fill="black" fill-opacity="1" filter="url(#filter-4)" xlink:href="#path-3"></use>
                <use fill="url(#linearGradient-2)" fill-rule="evenodd" xlink:href="#path-3"></use>
            </g>
        </g>
    </g>
</svg>