<?xml version="1.0" encoding="utf-8"?>
<!-- Generator: Adobe Illustrator 22.1.0, SVG Export Plug-In . SVG Version: 6.00 Build 0)  -->
<svg version="1.0" id="Layer_1" xmlns="http://www.w3.org/2000/svg" xmlns:xlink="http://www.w3.org/1999/xlink" x="0px" y="0px"
	 viewBox="0 0 200 200" style="enable-background:new 0 0 200 200;" xml:space="preserve">
<style type="text/css">
	.st0{fill:#052892;}
</style>
<path id="path0_fill" class="st0" d="M54.8,100c0-24.9,20.3-45.2,45.2-45.2s45.2,20.3,45.2,45.2c0,6.6-1.4,12.8-4,18.4l-29.8-29.8
	l-22.8,22.8l29.8,29.8c-5.8,2.6-12.1,4-18.4,4C75.1,145.2,54.8,124.9,54.8,100z M177.2,100c0-15.5-4.6-29.9-12.5-42L195,27.8
	L172.2,5L142,35.3c-12.1-7.8-26.5-12.5-42-12.5s-29.9,4.6-42,12.5L27.8,5L5,27.8L35.3,58c-7.8,12.1-12.5,26.5-12.5,42
	s4.6,29.9,12.5,42L5,172.2L27.8,195L58,164.7c12.1,7.9,26.5,12.5,42,12.5s29.9-4.6,42-12.5l30.3,30.3l22.8-22.8L164.7,142
	C172.6,129.9,177.2,115.5,177.2,100z"/>
</svg>
