<?xml version="1.0" encoding="utf-8"?>
<!-- Generator: Adobe Illustrator 26.0.1, SVG Export Plug-In . SVG Version: 6.00 Build 0)  -->
<svg version="1.1" id="Livello_1" xmlns="http://www.w3.org/2000/svg" xmlns:xlink="http://www.w3.org/1999/xlink" x="0px" y="0px"
	 viewBox="0 0 200 200" style="enable-background:new 0 0 200 200;" xml:space="preserve">
<style type="text/css">
	.st0{fill:#9695F8;}
	.st1{fill:#5552FD;}
	.st2{fill:#FED955;}
</style>
<path class="st0" d="M131.7,36.7h15.8v15.8h-15.8V36.7z M52.5,36.7h15.8v15.8H52.5V36.7z M147.5,131.7h15.8v15.8h-15.8V131.7z
	 M36.7,131.7h15.8v15.8H36.7V131.7z M68.3,20.8h63.3v15.8H68.3V20.8z"/>
<path class="st0" d="M68.3,163.3h63.3v15.8H68.3V163.3z"/>
<path class="st0" d="M147.5,52.5h15.8v15.8h-15.8V52.5z M36.7,52.5h15.8v15.8H36.7V52.5z M131.7,147.5h15.8v15.8h-15.8V147.5z
	 M52.5,147.5h15.8v15.8H52.5V147.5z M163.3,68.3h15.8v63.4h-15.8V68.3z M20.8,68.3h15.8v63.4H20.8V68.3z"/>
<rect x="52.5" y="163.3" class="st1" width="15.8" height="15.8"/>
<rect x="20.8" y="52.5" class="st1" width="15.8" height="15.8"/>
<rect x="36.7" y="147.5" class="st1" width="15.8" height="15.8"/>
<rect x="131.7" y="20.8" class="st1" width="15.8" height="15.8"/>
<rect x="20.8" y="131.7" class="st1" width="15.8" height="15.8"/>
<rect x="36.7" y="36.7" class="st1" width="15.8" height="15.8"/>
<rect x="52.5" y="20.8" class="st1" width="15.8" height="15.8"/>
<rect x="147.5" y="36.7" class="st1" width="15.8" height="15.8"/>
<rect x="131.7" y="163.3" class="st1" width="15.8" height="15.8"/>
<rect x="163.3" y="52.5" class="st1" width="15.8" height="15.8"/>
<rect x="163.3" y="131.7" class="st1" width="15.8" height="15.8"/>
<rect x="147.5" y="147.5" class="st1" width="15.8" height="15.8"/>
<rect x="179.2" y="68.3" class="st1" width="15.8" height="63.3"/>
<rect x="5" y="68.3" class="st1" width="15.8" height="63.3"/>
<path class="st1" d="M68.3,179.2h63.3V195H68.3V179.2z"/>
<path class="st1" d="M68.3,5h63.3v15.8H68.3V5z"/>
<polygon class="st2" points="68.3,36.7 68.3,68.3 84.2,68.3 84.2,84.1 115.8,84.1 115.8,68.3 131.6,68.3 131.6,36.7 "/>
<rect x="147.5" y="68.3" class="st2" width="15.8" height="63.3"/>
<rect x="36.7" y="68.3" class="st2" width="15.8" height="63.3"/>
<polygon class="st2" points="68.3,163.3 131.6,163.3 131.6,84.2 115.8,84.2 115.8,100 84.2,100 84.2,84.2 68.3,84.2 "/>
<rect x="84.2" y="84.2" class="st1" width="31.6" height="15.8"/>
<polygon class="st1" points="131.7,52.5 131.7,68.3 115.8,68.3 115.8,84.1 131.7,84.1 131.7,147.5 147.5,147.5 147.5,52.5 "/>
<polygon class="st1" points="84.2,68.3 68.3,68.3 68.3,52.5 52.5,52.5 52.5,147.5 68.3,147.5 68.3,84.1 84.2,84.1 "/>
</svg>
