<svg xmlns="http://www.w3.org/2000/svg" id="Livello_1" x="0" y="0" version="1.1" viewBox="0 0 200 200" xml:space="preserve"><style>.st2{fill:#a5322d}</style><path fill="#cc4641" d="M188.5 65.8C171.7 22.3 125.8-2.6 80.2 7.1c-3.9 4.4-7.5 8.9-10.9 13.7 51.8 11.2 95 46.6 116 95.2.8 2 1.7 4.1 2.5 6.2.9 2.3 1.7 4.6 2.5 6.9 2.6-8 4.1-16.2 4.5-24.6.7-13.2-1.5-26.4-6.3-38.7z"/><path fill="#be4137" d="M185.4 116c-34.9 38.6-86 58.4-137.8 53.4-17.1-50.1-9-105.4 21.8-148.5 51.7 11.1 94.9 46.5 116 95.1z"/><path d="M80.2 7.1c-3.9 4.4-7.5 8.9-10.9 13.7-5.7-1.2-11.5-2.2-17.3-2.8 4.4-2.6 8.9-4.7 13.7-6.6 4.7-1.8 9.6-3.2 14.5-4.3z" class="st2"/><path fill="#b13932" d="M32.8 167.2c4.9.9 9.8 1.7 14.7 2.1 51.8 5 102.9-14.8 137.8-53.3.9 2 1.7 4.1 2.5 6.2.9 2.3 1.7 4.6 2.5 6.9-8.8 27.3-29.4 49.2-56.2 59.6-26.8 10.3-56.8 8-81.6-6.3.1-.1-13.8-9.3-19.7-15.2z"/><path d="M52.1 18c5.8.6 11.6 1.6 17.3 2.8-30.8 43.1-38.9 98.4-21.8 148.6-4.9-.5-9.9-1.2-14.7-2.1C12 146.4 2 117.1 5.8 87.9s20.8-55 46.3-69.9z" class="st2"/><path fill="#fff" d="M36.3 46h31.8c4.3 0 8.6.4 12.8 1.2 3.9.7 7.6 2.1 10.9 4.2 3.2 2 5.8 4.7 7.6 8 1.9 3.4 2.9 7.6 2.8 12.8 0 6.7-1.8 12.2-5.5 16.7s-8.9 7.2-15.7 8.2l24.3 40.5H85.7L64.5 98.8H52.6v38.9H36.3V46zm29 38.9c2.3 0 4.7-.1 7-.3 2.2-.2 4.4-.7 6.4-1.6 1.9-.8 3.5-2.1 4.7-3.8 1.2-1.7 1.8-4 1.8-7.1.1-2.3-.5-4.5-1.7-6.5-1.1-1.6-2.6-2.9-4.4-3.7-1.9-.8-3.9-1.4-6-1.6-2.1-.2-4.2-.3-6.4-.3H52.6v24.8h12.7v.1zm41.1-13.4h14.8v9.3h.3c2.1-3.6 5.3-6.5 9.1-8.3 3.9-1.7 8.1-2.6 12.3-2.6 4.4-.1 8.8.8 12.8 2.5 3.7 1.6 7 4 9.7 6.9 2.7 3 4.8 6.5 6.1 10.3 1.4 4.1 2.1 8.5 2.1 12.8 0 4.4-.7 8.7-2.2 12.8-1.4 3.8-3.5 7.4-6.2 10.4-2.7 2.9-5.9 5.3-9.5 6.9-3.8 1.7-8 2.6-12.2 2.5-2.6 0-5.2-.3-7.8-.9-2.1-.5-4.1-1.3-6-2.3-1.6-.8-3.1-1.9-4.4-3-1.1-1-2.1-2-3-3.2h-.4V163h-15.5V71.5zm51.5 31.1c0-2.4-.4-4.8-1.2-7-.8-2.2-2-4.2-3.6-5.9-5.5-5.6-13.8-7.3-21-4.2-2.2 1-4.1 2.4-5.8 4.2-1.6 1.7-2.8 3.7-3.6 5.9-1.6 4.5-1.6 9.5 0 14 .8 2.2 2 4.2 3.6 6 5.5 5.6 13.8 7.3 21 4.1 2.2-1 4.1-2.4 5.8-4.1 1.6-1.7 2.8-3.7 3.6-6 .8-2.3 1.2-4.6 1.2-7z"/></svg>