<?xml version="1.0" encoding="utf-8"?>
<!-- Generator: Adobe Illustrator 16.0.0, SVG Export Plug-In . SVG Version: 6.00 Build 0)  -->
<!DOCTYPE svg PUBLIC "-//W3C//DTD SVG 1.1//EN" "http://www.w3.org/Graphics/SVG/1.1/DTD/svg11.dtd">
<svg version="1.1" id="Layer_1" xmlns="http://www.w3.org/2000/svg" xmlns:xlink="http://www.w3.org/1999/xlink" x="0px" y="0px"
	 width="566.929px" height="566.93px" viewBox="70.866 212.6 566.929 566.93" enable-background="new 70.866 212.6 566.929 566.93"
	 xml:space="preserve">
<polygon fill="#313A62" points="632.506,362.856 631.388,344.219 625.92,359.75 595.108,386.711 559.822,392.178 549.262,381.99 
	580.075,339.25 611.881,329.807 577.589,330.552 527.768,366.708 481.052,363.353 527.891,395.409 551.001,411.684 480.679,362.235 
	415.327,329.807 415.327,329.807 376.562,337.51 255.671,438.148 197.525,456.909 173.546,481.385 130.558,481.882 109.436,521.392 
	79.617,529.965 107.821,533.941 134.036,498.531 174.416,506.98 173.794,544.75 153.542,599.293 141.988,649.737 129.563,669.865 
	161.122,662.906 157.519,642.281 184.231,586.869 236.041,566.12 256.044,532.947 289.838,508.222 356.808,518.161 424.521,488.468 
	412.965,535.307 382.898,538.04 374.325,576.681 400.168,559.411 442.66,540.899 476.082,488.716 478.069,463.866 496.085,482.503 
	548.144,515.056 577.589,501.14 575.851,431.936 567.4,405.223 606.041,395.532 "/>
<g>
	<g>
		<polygon fill="#3F4B80" points="549.634,382.611 526.898,366.086 580.075,339.25 		"/>
		<polygon fill="#313A62" points="414.456,328.192 480.679,362.235 488.63,417.151 		"/>
		<polygon fill="#3F4B80" points="488.63,417.151 478.069,463.866 414.456,328.192 		"/>
		<polygon fill="#4B5897" points="478.069,463.866 376.687,335.895 414.58,328.44 		"/>
		<polygon fill="#5161A4" points="478.069,463.866 368.113,420.878 376.687,335.895 		"/>
		<polygon fill="#4B5897" points="376.687,335.895 368.113,420.878 254.802,436.781 		"/>
		<polygon fill="#4B5897" points="478.069,463.866 356.808,496.792 368.113,420.878 		"/>
		<polygon fill="#3F4B80" points="356.808,496.792 478.069,463.866 423.402,489.337 		"/>
		<polygon fill="#3F4B80" points="289.838,508.222 356.808,496.792 357.926,519.653 		"/>
		<polygon fill="#313A62" points="357.926,519.653 356.808,496.792 423.402,489.337 		"/>
		<polygon fill="#3F4B80" points="254.802,436.781 368.113,420.878 356.808,496.792 		"/>
		<polygon fill="#4B5897" points="254.802,436.781 356.808,496.792 289.838,508.222 		"/>
		<polygon fill="#313A62" points="254.802,436.781 289.838,508.222 256.044,532.947 		"/>
		<polygon fill="#5161A4" points="197.277,456.039 210.82,537.42 173.546,481.385 		"/>
		<polygon fill="#313A62" points="130.558,481.882 173.546,481.385 173.794,507.601 		"/>
		<polygon fill="#3F4B80" points="134.036,499.649 130.558,481.882 173.794,507.601 		"/>
		<polygon fill="#4B5897" points="134.036,499.649 109.436,521.392 130.558,481.882 		"/>
		<polygon fill="#313A62" points="109.436,521.392 107.696,534.562 79.617,529.965 		"/>
		<polygon fill="#5161A4" points="109.436,521.392 134.036,499.649 107.696,534.562 		"/>
		<polygon fill="#3F4B80" points="173.546,481.385 210.82,537.42 173.794,544.75 		"/>
		<polygon fill="#3F4B80" points="184.48,586.496 157.519,642.281 153.542,599.293 		"/>
		<polygon fill="#1F243E" points="153.542,599.293 157.519,642.281 141.988,649.737 		"/>
		<polygon fill="#3F4B80" points="157.519,642.281 161.618,663.279 129.563,669.865 		"/>
		<polygon fill="#313A62" points="141.988,649.737 157.519,642.281 129.563,669.865 		"/>
		<polygon fill="#313A62" points="173.794,544.75 210.82,537.42 153.542,599.293 		"/>
		<polygon fill="#4B5897" points="210.82,537.42 236.041,566.12 153.542,599.293 		"/>
		<polygon fill="#4B5897" points="197.277,456.039 254.802,436.781 210.82,537.42 		"/>
		<polygon fill="#3F4B80" points="210.82,537.42 254.802,436.781 256.044,532.947 		"/>
		<polygon fill="#313A62" points="236.041,566.12 210.82,537.42 256.044,532.947 		"/>
		<polygon fill="#4B5897" points="423.402,489.337 476.703,488.964 442.66,540.899 		"/>
		<polygon fill="#5161A4" points="423.402,489.337 478.069,463.866 476.703,488.964 		"/>
		<polygon fill="#3F4B80" points="412.965,535.307 423.402,489.337 442.66,540.899 		"/>
		<polygon fill="#4B5897" points="400.168,559.411 412.965,535.307 442.66,540.899 		"/>
		<polygon fill="#3F4B80" points="374.325,576.681 382.401,537.171 412.965,535.307 		"/>
		<polygon fill="#313A62" points="374.325,576.681 412.965,535.307 400.168,559.411 		"/>
		<polygon fill="#495692" points="526.898,366.086 577.589,330.552 580.075,339.25 		"/>
		<polygon fill="#5D6CAC" points="577.589,330.552 619.088,328.44 580.075,339.25 		"/>
		<polygon fill="#4F60A3" points="551.001,411.684 527.891,395.409 606.041,395.532 		"/>
		<polygon fill="#495692" points="527.891,395.409 595.108,386.711 606.041,395.532 		"/>
		<polygon fill="#3F4B80" points="595.108,386.711 625.92,359.75 606.041,395.532 		"/>
		<polygon fill="#4F60A3" points="606.041,395.532 625.92,359.75 632.506,362.856 		"/>
		<polygon fill="#313A62" points="625.92,359.75 631.388,344.219 632.506,362.856 		"/>
	</g>
	<polygon fill="#313A62" points="488.63,417.151 496.085,482.503 478.069,463.866 	"/>
	<polygon fill="#3F4B80" points="496.085,482.503 488.63,417.151 551.001,411.684 	"/>
	<polygon fill="#4B5897" points="551.001,411.684 488.63,417.151 480.679,362.235 	"/>
	<polygon fill="#313A62" points="549.634,382.611 559.698,391.681 527.891,395.409 	"/>
	<polygon fill="#3F4B80" points="480.679,362.235 549.634,382.611 527.891,395.409 	"/>
	<polygon fill="#313A62" points="480.679,362.235 526.898,366.086 549.634,382.611 	"/>
	<polygon fill="#3F4B80" points="548.144,515.056 551.001,411.684 575.851,431.936 	"/>
	<polygon fill="#495692" points="548.144,515.056 551.001,411.684 496.085,482.503 	"/>
	<polygon fill="#313A62" points="575.851,431.936 567.898,406.093 551.001,411.684 	"/>
	<polygon fill="#313A62" points="579.204,500.767 548.144,515.056 575.851,431.936 	"/>
</g>
</svg>
