<svg xmlns="http://www.w3.org/2000/svg" id="Livello_1" viewBox="0 0 200 200"><style>.st0{fill:#22bae7}</style><g id="XMLID_718_"><path id="XMLID_719_" d="M76.5 45.8s9.3-1.4 14.3-1.4c4.5 0 13.4 1.4 13.4 1.4 4.7-14.2 11.5-26 15.6-32.4 2-3.1.9-4.7-2.7-3.8l-10.2 2.6c-1.8.5-4.4-.1-5.8-1.1l-5.7-4.3c-2.9-2.2-6.3-2.9-10 .7L77 15.8c-1.3 1.3-3.6 1.5-5.1.6L64 11.5c-3.1-1.9-4.2-.9-2.5 2.3 4 7.4 10.6 20.6 15 32z" class="st0"/></g><g id="XMLID_713_"><path id="XMLID_717_" d="M116.7 60.3c-2.9 0-5.5-1.1-7.1-3-.8-.9-1.6-2.4-1.3-4.4.5-2 1.9-3 2.9-3.6 2.2-1.1 5.1-1.1 7.7.1 2.7 1.2 5 2.6 6.5 4 1 .9 2.1 2.2 1.9 3.4-.1.4-.3.7-.6 1 .2.3.5.4.8.5h.6c.3-.4.4-.8.5-1.2.6-3.1-3.7-6.6-9.2-9-5.4-2.4-11.5-.4-12.7 4.6-.9 5 4 9.2 9.9 9.1 1.6 0 1.9 0 3.3-.2l-.8-1.3c-1.1.1-1 0-2.4 0z" class="st0"/><path id="XMLID_714_" d="M116.6 62.3c-3.4 0-6.6-1.4-8.5-3.7-1.5-1.8-2.1-3.9-1.7-6.1.5-2.2 1.9-3.9 4-5 2.7-1.4 6.2-1.4 9.4 0 6.6 2.9 10.1 6.5 9.5 9.6-.1.5-.3 1-.6 1.4l-.1.2h-.2c-.3.1-.6.1-.9 0-.4-.1-.8-.3-1.1-.7l-.3-.4.3-.3c.3-.3.4-.5.5-.8.1-.7-.5-1.8-1.7-2.9-1.5-1.3-3.7-2.7-6.4-3.9-2.5-1.1-5.2-1.1-7.3-.1-1 .5-2.2 1.5-2.7 3.2-.3 1.8.5 3.2 1.2 4 1.5 1.7 3.9 2.8 6.6 2.8h1c.5 0 .7 0 1.6-.1h.3l1.4 2.3-.8.1c-1.3.2-1.7.2-2.9.2h-.5c0 .2-.1.2-.1.2zm-1.8-14.7c-1.4 0-2.8.3-4 .9-1.8.9-3 2.4-3.4 4.2-.3 1.8.2 3.7 1.5 5.2 1.7 2.1 4.6 3.3 7.7 3.3h.6c.9 0 1.3 0 1.9-.1l-.2-.4c-.6.1-.9.1-1.4.1h-.9-.1c-3 0-5.7-1.2-7.4-3.1-.9-1-1.8-2.7-1.4-4.9.5-2.2 2-3.4 3.2-4 2.4-1.2 5.4-1.2 8.2.1 2.8 1.2 5.1 2.7 6.7 4.1 1.6 1.5 2.3 2.8 2 3.9-.1.3-.2.6-.4.8.1 0 .1 0 .2.1h.2c.2-.3.3-.6.3-.9.5-2.5-2.9-5.8-8.9-8.4-1.4-.6-2.9-.9-4.4-.9z" class="st0"/></g><g id="XMLID_705_"><path id="XMLID_712_" d="M142.3 57.9c.3.2.6.3.9.3.3.1.7.1 1 0 .3-.1.6-.2.9-.4.3-.2.5-.5.7-.9.2-.4.4-.9.5-1.5.1-.6.1-1.1.1-1.6 0-.4-.2-.8-.3-1.1-.2-.3-.4-.5-.7-.7-.3-.2-.6-.3-.9-.4-.3-.1-.7-.1-1 0-.3.1-.6.2-.9.4-.3.2-.5.5-.7.9-.2.4-.4.9-.5 1.5-.1.6-.1 1.1-.1 1.5 0 .4.2.8.3 1.1.2.5.4.8.7.9z" class="st0"/><path id="XMLID_711_" d="M154.2 64.3c-.3-.2-.6-.3-.9-.4-.3-.1-.7-.1-1 0-.3.1-.6.2-.9.4-.3.2-.5.5-.7.9-.2.4-.4.9-.5 1.5-.1.6-.1 1.1-.1 1.5 0 .4.2.8.3 1.1.2.3.4.5.7.7.3.2.6.3.9.3.3.1.7.1 1 0 .3-.1.6-.2.9-.4.3-.2.5-.5.7-.9.2-.4.4-.9.5-1.5.1-.6.1-1.1.1-1.6 0-.4-.2-.8-.3-1.1-.2-.1-.5-.3-.7-.5z" class="st0"/><path id="XMLID_706_" d="M171 50.7l-37-7.6c-.6-.1-1.2.1-1.6.4l-7.5 6c5.4 2.8 8 10.2 2.6 10.2-1.5 0-2.7-2-2.4-3.4.1-.4.1-.6.4-.9-.3-.4-.7-.9-1.8-1.7-1.1-.9-1.4-.9-2.4-1.3l-2.1 1.6c-.7.5-.8 1.4-.4 2.1l7.9 14.7c.3.5.8.8 1.4.9l37 7.6c1 .2 2.1-.3 2.3-1.3l5.2-25.3c.2-.7-.5-1.8-1.6-2zm-31.5 3.6c.1-.8.4-1.4.7-2 .3-.6.7-1 1.2-1.4.5-.3 1-.6 1.5-.7.6-.1 1.1-.1 1.8 0 .6.1 1.2.3 1.6.6.5.3.9.7 1.2 1.2.3.5.5 1.1.6 1.7.1.6.1 1.4-.1 2.1-.1.8-.4 1.4-.7 2-.3.6-.8 1-1.2 1.3-.5.3-1 .6-1.6.7-.6.1-1.1.1-1.7 0-.6-.1-1.2-.3-1.6-.6-.5-.3-.9-.7-1.2-1.2-.3-.5-.5-1-.6-1.7-.1-.6 0-1.3.1-2zM156.9 68c-.1.8-.4 1.4-.7 2-.3.6-.8 1-1.2 1.3s-1 .6-1.5.7c-.6.1-1.1.1-1.7 0-.6-.1-1.2-.3-1.6-.6-.5-.3-.9-.7-1.2-1.2-.3-.5-.5-1-.6-1.7-.1-.6-.1-1.3.1-2.1.1-.8.4-1.4.7-2 .3-.6.7-1 1.2-1.4.5-.3 1-.6 1.5-.7.6-.1 1.1-.1 1.8 0 .6.1 1.1.3 1.6.6s.9.7 1.2 1.2c.3.5.5 1.1.6 1.7 0 .8 0 1.5-.2 2.2zm-16.3 1.3c-.1.1-.2.2-.4.2-.1 0-.3.1-.5 0l-1.8-.3L155.7 53c.1-.1.3-.2.4-.3.1-.1.3-.1.5 0l1.7.3-17.7 16.3z" class="st0"/></g><path id="XMLID_702_" d="M110.8 57.3c.3-.8.4-1.6.4-2.5 0-3-1.9-5-5.3-5.5 0 0-8.1-1.9-15.2-1.9-7.8 0-14.9 1.9-14.9 1.9-3 .8-5.3 2.5-5.3 5.5 0 .9.2 1.7.4 2.5-13.9 15.4-43.5 44.8-43.5 85.8 0 40 28.7 51.9 64 51.9 35.4 0 64-12.2 64-51.9.1-41.2-28.4-68.9-44.6-85.8zm-13.9 61.8v8.9h-34c-.2 1.4-.3 2.8-.3 4.2 0 1 .1 2 .1 3h34.2v8.9H64.7c1.6 4.1 4 7.8 7.4 11.2 6.4 6.4 13.9 9.5 23 9.5 7.3 0 13.8-2.2 19.5-6.4v-24.7h9.1V162l-.7.7c-7.7 7.4-17.1 11.1-27.8 11.1-11.5 0-21.4-4.1-29.5-12.2-5.2-5.2-8.7-11.1-10.6-17.7h-7.6V135h6.1c-.1-1-.1-2-.1-3 0-1.4.1-2.8.2-4.2h-6.2v-8.9h8c2-6.1 5.4-11.6 10.2-16.4 8.1-8.1 18-12.2 29.5-12.2 10.7 0 20.2 3.7 28.1 10.9l1.9 1.8-6.8 6.2-1.6-1.4c-6.2-5.5-13.3-8.2-21.6-8.2-9.1 0-16.6 3.1-23 9.5-3 3-5.3 6.3-6.9 9.9h31.6z" class="st0"/></svg>