<?xml version="1.0" encoding="utf-8"?>
<!-- Generator: Adobe Illustrator 23.0.3, SVG Export Plug-In . SVG Version: 6.00 Build 0)  -->
<svg version="1.1" id="Livello_1" xmlns="http://www.w3.org/2000/svg" xmlns:xlink="http://www.w3.org/1999/xlink" x="0px" y="0px"
	 viewBox="0 0 200 200" style="enable-background:new 0 0 200 200;" xml:space="preserve">
<style type="text/css">
	.st0{fill:url(#SVGID_1_);}
	.st1{fill:url(#SVGID_2_);}
	.st2{fill:url(#SVGID_3_);}
	.st3{fill:url(#SVGID_4_);}
	.st4{fill:url(#SVGID_5_);}
	.st5{fill:url(#SVGID_6_);}
</style>
<g>
	<circle cx="100" cy="100" r="100"/>
	
		<linearGradient id="SVGID_1_" gradientUnits="userSpaceOnUse" x1="1.014" y1="200.4492" x2="2.0667" y2="200.4492" gradientTransform="matrix(61.1 0 0 -42.2 -24.8 8521.8008)">
		<stop  offset="0" style="stop-color:#F9FAFD"/>
		<stop  offset="1" style="stop-color:#B5B6BB"/>
	</linearGradient>
	<polygon class="st0" points="44.5,85.1 37.2,85.1 37.2,64.2 75.6,40.6 101.5,55.1 97.9,61.5 75.7,49.2 44.5,68.3 	"/>
	
		<linearGradient id="SVGID_2_" gradientUnits="userSpaceOnUse" x1="1.0481" y1="200.3703" x2="2.1008" y2="200.3703" gradientTransform="matrix(45.7 0 0 -49.6 16.1 10087)">
		<stop  offset="0" style="stop-color:#F9FAFD"/>
		<stop  offset="1" style="stop-color:#B5B6BB"/>
	</linearGradient>
	<polygon class="st1" points="99.7,174.7 64,156.8 64,122.5 71.3,122.5 71.3,152.3 99.7,166.5 108.7,162 112.1,168.5 	"/>
	<linearGradient id="SVGID_3_" gradientUnits="userSpaceOnUse" x1="78.3158" y1="136.1579" x2="159.579" y2="136.1579">
		<stop  offset="0" style="stop-color:#F9FAFD"/>
		<stop  offset="1" style="stop-color:#B5B6BB"/>
	</linearGradient>
	<polygon class="st2" points="152.2,119.8 152.2,133.9 121.2,155.5 103.4,142.1 103.4,125.7 121.2,107.9 78.3,107.9 96.1,125.7 
		96.1,145.7 121.1,164.4 159.6,137.8 159.6,119.8 	"/>
	
		<linearGradient id="SVGID_4_" gradientUnits="userSpaceOnUse" x1="1.1819" y1="200.4457" x2="2.2345" y2="200.4457" gradientTransform="matrix(30.9 0 0 -63.8 95.9 12877.6992)">
		<stop  offset="0" style="stop-color:#F9FAFD"/>
		<stop  offset="1" style="stop-color:#B5B6BB"/>
	</linearGradient>
	<polygon class="st3" points="136.6,122.8 132.4,116.8 157.6,99.2 157.6,73.2 145.3,60.8 150.4,55.7 164.9,70.1 164.9,102.9 	"/>
	
		<linearGradient id="SVGID_5_" gradientUnits="userSpaceOnUse" x1="1.0174" y1="200.4235" x2="2.07" y2="200.4235" gradientTransform="matrix(49.3 0 0 -61.7 -13 12480.499)">
		<stop  offset="0" style="stop-color:#F9FAFD"/>
		<stop  offset="1" style="stop-color:#B5B6BB"/>
	</linearGradient>
	<polygon class="st4" points="65.7,81.9 37.2,99.1 37.2,137.7 49.4,146.8 53.8,140.9 44.5,134 44.5,103.2 69.5,88.2 89.1,98.4 
		89.1,81.9 	"/>
	
		<linearGradient id="SVGID_6_" gradientUnits="userSpaceOnUse" x1="1.0737" y1="200.4682" x2="2.1263" y2="200.4682" gradientTransform="matrix(45.7 0 0 -67.5 38.3 13594.5)">
		<stop  offset="0" style="stop-color:#F9FAFD"/>
		<stop  offset="1" style="stop-color:#B5B6BB"/>
	</linearGradient>
	<polygon class="st5" points="99.9,27.4 87.4,33.6 90.6,40.1 99.6,35.7 128.2,52.3 128.2,81.9 111.6,81.9 111.6,98.4 135.5,85.1 
		135.5,48.1 	"/>
</g>
</svg>
