<?xml version="1.0" encoding="utf-8"?>
<!-- Generator: Adobe Illustrator 22.1.0, SVG Export Plug-In . SVG Version: 6.00 Build 0)  -->
<svg version="1.0" id="Livello_1" xmlns="http://www.w3.org/2000/svg" xmlns:xlink="http://www.w3.org/1999/xlink" x="0px" y="0px"
	 viewBox="0 0 200 200" enable-background="new 0 0 200 200" xml:space="preserve">
<g>
	<path fill="#B414AD" d="M103.7,144.6C103.7,144.6,103.7,144.6,103.7,144.6c0,14.9,0,29.8,0,44.7c0,3.9,2.4,6.2,6.1,5.7
		c1.2-0.2,2.3-0.9,3.4-1.5c11.2-6.6,22.5-13.1,33.7-19.7c6.7-3.9,13.8-7.4,20-12c15.9-11.9,24.4-27.8,24-47.9
		c-0.1-4.9-1.7-9.4-5.6-12.9c-0.4-0.4-0.5-1.4-0.2-2c1.1-2.8,2.5-5.6,3.4-8.5c2.4-7.2,3.4-14.7,1.7-22.2
		c-1.8-7.8-7.6-12.3-15.4-11.3c-3.1,0.4-6.4,1.5-9.1,3.1c-19.6,11.3-39,22.8-58.5,34.2c-2.5,1.4-3.5,3.3-3.5,6.2
		C103.8,115.2,103.7,129.9,103.7,144.6z M96.3,144.6C96.3,144.6,96.3,144.6,96.3,144.6c0-14.6-0.1-29.2,0-43.7c0-3.3-1.2-5.3-4-6.9
		C75.9,84.4,59.5,74.6,43,65c-4.5-2.6-8.9-5.4-13.7-7.2c-8.4-3.2-15.6,0.1-18.7,7.8c-1.9,5-2,10.1-1.4,15.3
		c0.8,6.2,2.8,12.1,5.5,17.8c0.3,0.6,0.3,1.7,0,2c-4.4,4.2-5.7,9.5-5.8,15.2c-0.2,9.8,2.9,18.6,7.6,27c4.4,7.9,10,14.8,17.8,19.5
		c8.4,5.1,17,10,25.6,15.1c9.2,5.4,18.5,10.8,27.7,16.3c4.6,2.8,8.9-0.4,8.8-5.1C96.1,174.1,96.3,159.3,96.3,144.6z M100.1,89.1
		c1.1-0.4,2.3-0.7,3.3-1.3c7.2-4.2,14.4-8.4,21.6-12.6c13.3-7.7,26.5-15.6,39.9-23.2c4.7-2.7,4-7.8,0.1-10.1
		C144.5,30.1,124,18,103.6,6c-2.3-1.4-4.4-1.3-6.6,0c-6.9,4.2-13.9,8.3-20.8,12.5c-13.7,8.2-27.3,16.4-40.9,24.6
		c-1,0.6-1.9,1.5-2.4,2.5c-1.4,2.7-0.4,5.2,2.5,6.9c20.6,11.8,41.2,23.5,61.8,35.3C98,88.4,99,88.6,100.1,89.1z"/>
	<path fill="#B414AD" d="M103.7,144.6c0-14.7,0-29.4,0-44.1c0-2.9,1.1-4.8,3.5-6.2c19.5-11.4,38.9-22.9,58.5-34.2
		c2.7-1.6,6-2.7,9.1-3.1c7.8-1,13.5,3.5,15.4,11.3c1.8,7.6,0.8,15-1.7,22.2c-1,2.9-2.4,5.6-3.4,8.5c-0.2,0.6-0.1,1.7,0.2,2
		c3.8,3.5,5.5,8,5.6,12.9c0.4,20.1-8.2,36-24,47.9c-6.2,4.6-13.3,8.1-20,12c-11.2,6.6-22.4,13.2-33.7,19.7c-1.1,0.6-2.2,1.3-3.4,1.5
		c-3.7,0.6-6.1-1.7-6.1-5.7C103.7,174.3,103.7,159.5,103.7,144.6C103.7,144.6,103.7,144.6,103.7,144.6z M121,127.2
		c0.9-0.4,1.3-0.6,1.7-0.9c14.1-8.3,28.3-16.4,42.3-24.9c5.7-3.4,8.6-8.9,8.8-15.6c0.2-5.5-3.9-7.9-8.7-5.3
		c-2.5,1.3-4.8,2.8-7.2,4.2c-11.7,6.9-23.5,13.8-35.3,20.7c-1.3,0.7-1.7,1.6-1.6,3c0.1,3.4,0,6.7,0,10.1
		C121,121.3,121,124,121,127.2z M121.1,168.3c0.8-0.4,1.4-0.7,2-1c2.3-1.3,4.5-2.6,6.8-4c11.7-6.9,23.5-13.6,35-20.7
		c5.9-3.6,9-9.3,8.9-16.3c0-4.8-3.9-7-8.1-4.9c-0.3,0.2-0.7,0.4-1,0.5c-14.1,8.3-28.1,16.5-42.2,24.8c-1.1,0.6-1.6,1.3-1.6,2.6
		c0.1,5.7,0,11.3,0,17C121,166.9,121.1,167.5,121.1,168.3z"/>
	<path fill="#B414AD" d="M96.3,144.6c0,14.8-0.2,29.5,0.1,44.3c0.1,4.7-4.2,7.8-8.8,5.1c-9.2-5.6-18.4-10.9-27.7-16.3
		c-8.5-5-17.1-9.9-25.6-15.1c-7.8-4.8-13.4-11.7-17.8-19.5c-4.7-8.4-7.8-17.2-7.6-27c0.1-5.8,1.4-11.1,5.8-15.2c0.4-0.3,0.3-1.5,0-2
		c-2.7-5.6-4.7-11.5-5.5-17.8c-0.7-5.2-0.6-10.3,1.4-15.3c3-7.8,10.3-11.1,18.7-7.8c4.8,1.8,9.2,4.6,13.7,7.2
		C59.5,74.6,75.9,84.4,92.3,94c2.8,1.6,4,3.6,4,6.9C96.2,115.4,96.3,130,96.3,144.6C96.3,144.6,96.3,144.6,96.3,144.6z M79,127.3
		c0-1.3,0-2.1,0-2.9c0-5.2-0.1-10.3,0.1-15.5c0.1-1.9-0.6-2.9-2.2-3.8c-11.5-6.7-23-13.4-34.4-20.2C40,83.5,37.5,82,35,80.6
		c-4.8-2.7-9.2-0.3-8.9,5.3c0.3,6.7,3.3,12.2,9.1,15.7c10.7,6.5,21.6,12.8,32.5,19.1C71.3,122.8,75,124.9,79,127.3z M78.7,168.3
		c0.1-0.5,0.3-0.8,0.3-1.1c0-6.2,0-12.3-0.1-18.5c0-0.6-0.7-1.4-1.2-1.8c-11.8-7-23.6-13.9-35.4-20.8c-2.8-1.7-5.6-3.4-8.6-4.9
		c-2.6-1.3-5.2-0.7-6.3,1.3c-0.8,1.4-1.4,3.2-1.3,4.7c0.5,6.5,3.2,11.9,8.9,15.4c13.9,8.4,28,16.5,41.9,24.7
		C77.6,167.7,78.1,168,78.7,168.3z"/>
	<path fill="#B414AD" d="M100.1,89.1c-1.1-0.4-2.2-0.7-3-1.2C76.5,76.1,55.9,64.3,35.3,52.6c-2.9-1.7-3.9-4.2-2.5-6.9
		c0.5-1,1.4-1.9,2.4-2.5c13.6-8.3,27.3-16.4,40.9-24.6C83.1,14.4,90.1,10.2,97,6c2.3-1.4,4.3-1.4,6.6,0C124,18,144.5,30.1,165,41.9
		c3.9,2.3,4.6,7.4-0.1,10.1c-13.4,7.6-26.6,15.4-39.9,23.2c-7.2,4.2-14.4,8.4-21.6,12.6C102.4,88.3,101.2,88.6,100.1,89.1z"/>
	<path fill="#FFFFFF" d="M121,127.2c0-3.2,0-5.9,0-8.6c0-3.4,0.1-6.7,0-10.1c0-1.4,0.4-2.3,1.6-3c11.8-6.9,23.5-13.8,35.3-20.7
		c2.4-1.4,4.8-2.9,7.2-4.2c4.9-2.6,8.9-0.3,8.7,5.3c-0.2,6.7-3.1,12.1-8.8,15.6c-14,8.5-28.2,16.6-42.3,24.9
		C122.3,126.6,121.8,126.8,121,127.2z"/>
	<path fill="#FFFFFF" d="M121.1,168.3c-0.1-0.8-0.2-1.4-0.2-1.9c0-5.7,0-11.3,0-17c0-1.3,0.4-2,1.6-2.6
		c14.1-8.2,28.1-16.5,42.2-24.8c0.3-0.2,0.6-0.4,1-0.5c4.2-2.1,8.1,0.1,8.1,4.9c0.1,7-3,12.7-8.9,16.3c-11.6,7.1-23.4,13.8-35,20.7
		c-2.3,1.3-4.5,2.7-6.8,4C122.5,167.6,121.9,167.9,121.1,168.3z"/>
	<path fill="#FFFFFF" d="M79,127.3c-4.1-2.4-7.7-4.5-11.3-6.6c-10.8-6.4-21.7-12.6-32.5-19.1c-5.8-3.5-8.7-9-9.1-15.7
		c-0.3-5.5,4.1-8,8.9-5.3c2.5,1.4,4.9,2.9,7.4,4.4c11.5,6.7,22.9,13.5,34.4,20.2c1.6,0.9,2.3,1.9,2.2,3.8
		c-0.2,5.2-0.1,10.3-0.1,15.5C79,125.2,79,126,79,127.3z"/>
	<path fill="#FFFFFF" d="M78.7,168.3c-0.7-0.4-1.2-0.6-1.7-0.9c-14-8.2-28-16.4-41.9-24.7c-5.7-3.4-8.4-8.9-8.9-15.4
		c-0.1-1.6,0.5-3.3,1.3-4.7c1.1-2.1,3.7-2.6,6.3-1.3c2.9,1.5,5.7,3.2,8.6,4.9C54.2,133.1,66,140,77.7,147c0.6,0.3,1.2,1.2,1.2,1.8
		c0.1,6.2,0.1,12.3,0.1,18.5C79,167.5,78.9,167.8,78.7,168.3z"/>
</g>
</svg>
