<svg xmlns="http://www.w3.org/2000/svg" id="Livello_1" x="0" y="0" version="1.1" viewBox="0 0 200 200" xml:space="preserve"><style>.st2{fill:#fff}</style><linearGradient id="SVGID_1_" x1=".2525" x2=".0363" y1="199.9875" y2="199.7326" gradientTransform="matrix(560.0001 0 0 -560.001 20.0009 112020.1953)" gradientUnits="userSpaceOnUse"><stop offset="0" stop-color="#b6509e"/><stop offset="1" stop-color="#2ebac6"/></linearGradient><path fill="url(#SVGID_1_)" d="M100 195c-66.5 1.3-114.3-71.3-87.3-132.2 32.1-77 142.6-77 174.7 0 26.9 60.9-20.9 133.5-87.4 132.2zm0-180.2c-59-1.4-102.2 64-78 118.1 28.2 68.6 127.7 68.6 156 0 24.2-54-19-119.5-78-118.1z"/><path fill="#2775ca" d="M100 172.9c95.9-1.6 95.9-144.3 0-145.9-95.4.5-95.5 145.7 0 145.9z"/><path d="M120.1 111.6c0-10.6-6.4-14.3-19.1-15.8-15-.6-14.3-14.7-1.8-14.9 10.4-.2 7.4 5.9 12.2 7.9 1.8-.3 7 1.1 7-2-.8-6.9-6.8-12.3-13.7-12.9-.5-2.3 1.7-9.4-2.4-9.7-9.1-.9-6.7 2.6-7 9.4-9.1 1.2-14.9 7.3-14.9 14.9-1 21.3 29.4 9.6 30.1 23.7.1 11.5-21.6 10.1-21.6.3-.5-3-5.4-1.5-7.3-1.8-1.3 0-2.3 1.2-2.1 2.4 1.2 7.6 6.1 13.1 16.1 14.6.5 2.3-1.7 9.4 2.4 9.7 9.3.9 6.6-2.9 7-9.7 9-1.6 15.1-7.9 15.1-16.1z" class="st2"/><path d="M84.5 143.5c-39.5-12.9-38.9-72.6 0-85.4 1.2-.6 1.8-1.5 1.8-3-.3-1.8 1-6.3-1.8-6.7-51 12.8-51.6 90.3-1.2 104.6 1.1.6 2.5 0 2.7-1.2.3-.3.3-.6.3-1.2-.1-2.3.7-5.9-1.8-7.1zm32.2-94.9c-1.1-.6-2.5 0-2.7 1.2-.3.3-.3.6-.3 1.2.1 2.3-.6 6 1.8 7.3 39.5 12.9 38.9 72.6 0 85.4-1.2.6-1.8 1.5-1.8 3 .3 1.7-1 6.3 1.8 6.7 51.2-12.8 51.5-90.2 1.2-104.8z" class="st2"/></svg>