<?xml version="1.0" encoding="utf-8"?>
<!-- Generator: Adobe Illustrator 22.1.0, SVG Export Plug-In . SVG Version: 6.00 Build 0)  -->
<svg version="1.0" id="Livello_1" xmlns="http://www.w3.org/2000/svg" xmlns:xlink="http://www.w3.org/1999/xlink" x="0px" y="0px"
	 viewBox="0 0 200 200" style="enable-background:new 0 0 200 200;" xml:space="preserve">
<style type="text/css">
	.st0{fill:#010100;}
	.st1{fill:url(#SVGID_1_);}
	.st2{fill:#FFFFFF;}
	.st3{fill:#E7B86A;}
	.st4{font-family:'Arial-BoldMT';}
	.st5{font-size:24.6432px;}
	.st6{letter-spacing:4;}
</style>
<circle class="st0" cx="100" cy="100" r="95"/>
<linearGradient id="SVGID_1_" gradientUnits="userSpaceOnUse" x1="-151.9464" y1="427.3842" x2="-141.8437" y2="411.5177" gradientTransform="matrix(5.2632 0 0 -5.2632 878.2105 2314.5264)">
	<stop  offset="0" style="stop-color:#464645"/>
	<stop  offset="1" style="stop-color:#000000"/>
</linearGradient>
<circle class="st1" cx="100.7" cy="100" r="54.9"/>
<path class="st2" d="M76.2,85.1h14.5v-5.5h13.8c2.7,0,7.6,0.7,11.1,4.8h17.3c-3.5-9.7-16.9-18.7-26.7-18.7H76.2L76.2,85.1z
	 M76.2,112.1h14.5v5.5h13.8c2.7,0,7.6-0.7,11.1-4.8h17.3c-3.5,9.7-16.9,18.7-26.7,18.7H76.2L76.2,112.1z"/>
<path class="st3" d="M65,21.5l10.4,22.1c0,0,7.6-4.2,13.1-4.2l-4.8-24.2C83.6,15.3,73.3,15.9,65,21.5L65,21.5z M112.9,14.9
	l-3.6,24.2c0,0,8.6,0.8,13.2,3.8l9.4-22.8C131.8,20.1,122.8,14.9,112.9,14.9L112.9,14.9z M156.5,34.8l-15.8,18.6
	c0,0,6.9,5.2,9.2,10.2l20-14.5C170,49.2,165,40.1,156.5,34.8L156.5,34.8z M182.5,75.7l-23.4,7c0,0,3,8.1,2.2,13.6l24.7-1.3
	C185.9,95.1,186.7,84.7,182.5,75.7z M182.5,123.5l-23.4-7c0,0-2,8.4-5.7,12.6l21.3,12.6C174.7,141.6,181.1,133.4,182.5,123.5
	L182.5,123.5z M157.4,164.4L141,146.2c0,0-6.1,6.2-11.4,7.8l11.7,21.7C141.4,175.8,151.1,172.1,157.4,164.4z M113.4,185l-3.6-24.2
	c0,0-8.5,1.8-13.8,0.2l-2.3,24.6C93.7,185.6,103.8,187.9,113.4,185L113.4,185z M65.1,178.4l10.1-22.2c0,0-8.1-3.1-11.7-7.3
	l-15.3,19.4C48.3,168.3,55.5,175.7,65.1,178.4L65.1,178.4z M29,146.7l20.5-13.4c0,0-5.2-7-6-12.4L20.2,129
	C20.2,129,22.3,139.2,29,146.7z M15.8,99.9l24.4-0.6c0,0-0.7-8.6,1.5-13.7l-24.1-5.3C17.6,80.4,14.1,90.1,15.8,99.9L15.8,99.9z
	 M28.8,53.4l20.7,13c0,0,4.2-7.6,8.8-10.6L41.2,38.1C41.2,38.1,32.8,44.2,28.8,53.4L28.8,53.4z"/>
<text transform="matrix(0.99 0 0 1 74.2842 107.6523)" class="st3 st4 st5 st6">BET</text>
</svg>
