<?xml version="1.0" encoding="utf-8"?>
<!-- Generator: Adobe Illustrator 22.1.0, SVG Export Plug-In . SVG Version: 6.00 Build 0)  -->
<svg version="1.0" id="Livello_1" xmlns="http://www.w3.org/2000/svg" xmlns:xlink="http://www.w3.org/1999/xlink" x="0px" y="0px"
	 viewBox="0 0 200 200" enable-background="new 0 0 200 200" xml:space="preserve">
<g>
	<path fill="#FE0000" d="M76.1,137.7c-3.7,0-7.3,0-10.9,0c-0.2-1-0.5-1.9-0.7-2.9c-1.6-7.3-3.2-14.7-4.8-22
		c-0.1-0.5-0.3-0.8-0.9-0.8c-1.5,0.1-3.1,0-4.6,0c-0.2,0-0.4,0-0.8,0c1.2,8.6,2.3,17.1,3.5,25.6c-3.6,0-7.2,0-11,0
		c-0.2-1.1-0.3-2.3-0.5-3.5c-0.4-3-0.8-6.1-1.1-9.1c-0.5-4.1-1-8.3-1.5-12.4c-0.5-3.7-0.9-7.4-1.3-11c-0.5-4.3-1-8.6-1.5-12.9
		c-0.4-3.8-0.9-7.7-1.4-11.5c-0.5-4.2-1-8.3-1.5-12.5c0-0.4-0.1-0.8,0-1.2c0.1-0.8,0.9-1.3,1.8-1.3c3.3,0,6.6,0,9.9,0
		c2.5,0,5,0,7.5,0c1.4,0,2.4,0.8,2.7,2.1c1.3,5.6,2.6,11.2,3.9,16.8c1.1,4.5,2.1,9.1,3.2,13.7c1.4,6.1,2.8,12.2,4.2,18.3
		c1.3,5.6,2.6,11.2,3.9,16.8C74.9,132.5,75.5,135.1,76.1,137.7z M57.5,102.6c0-0.2,0-0.4-0.1-0.5c-0.7-3-1.3-6-2-9
		c-1-4.4-2-8.7-3-13.1c-0.6-2.5-1.1-5.1-1.7-7.6c-0.1-0.2-0.2-0.6-0.4-0.6c-0.6-0.1-1.3,0-2,0c0.1,0.8,0.2,1.5,0.3,2.1
		c0.6,4.7,1.2,9.4,1.8,14.2c0.6,4.7,1.2,9.4,1.7,14c0.1,0.4,0.2,0.6,0.6,0.5c0.8,0,1.6,0,2.4,0C55.9,102.6,56.7,102.6,57.5,102.6z"
		/>
	<path fill="#FE0000" d="M128.9,137.7c-3.6,0-7.2,0-10.9,0c0-0.3-0.1-0.7-0.1-1c-0.4-8-0.7-16-1.1-24.1c0-0.5-0.2-0.6-0.6-0.6
		c-1.6,0-3.3,0-4.9,0c-0.5,0-0.6,0.1-0.6,0.6c-0.3,7.9-0.6,15.8-1,23.7c0,0.5,0,0.9-0.1,1.4c-3.7,0-7.3,0-10.9,0c0-0.5,0-1,0-1.5
		c0.3-5.7,0.6-11.4,0.9-17c0.3-5.5,0.6-10.9,0.9-16.4c0.2-4.4,0.5-8.9,0.8-13.3c0.2-3.6,0.4-7.1,0.6-10.7c0.3-4.8,0.6-9.7,0.8-14.5
		c0.1-1.1,1-2,2.2-2c2.2,0,4.4,0,6.7,0c3.6,0,7.2,0,10.8,0c1.5,0,2.3,0.8,2.4,2.3c0.3,5.7,0.7,11.3,1,17c0.3,4.7,0.5,9.3,0.8,14
		c0.3,5.3,0.6,10.7,0.9,16c0.3,4.8,0.5,9.7,0.8,14.5c0.2,3.7,0.4,7.3,0.6,11C128.9,137.2,128.9,137.5,128.9,137.7z M116.5,102.5
		c0-0.5,0-0.8,0-1.2c-0.2-4.3-0.4-8.6-0.7-12.8c-0.3-5.4-0.6-10.9-0.8-16.3c0-0.3-0.1-0.5-0.5-0.5c-0.4,0-0.7,0-1.1,0
		c-0.5-0.1-0.7,0.1-0.7,0.7c0,1.4-0.1,2.9-0.2,4.3c-0.2,3.8-0.4,7.6-0.6,11.5c-0.2,4.3-0.5,8.7-0.7,13c0,0.5,0,0.9,0,1.4
		C112.9,102.5,114.7,102.5,116.5,102.5z"/>
	<path fill="#FE0000" d="M167.9,62.2c3.6,0,7.1,0,10.8,0c-0.2,1.1-0.4,2.1-0.5,3.2c-1,5.4-1.9,10.8-2.9,16.2
		c-1.3,7.4-2.6,14.7-3.9,22.1c-1.4,7.7-2.7,15.3-4,23c0,0.2-0.1,0.5-0.1,0.7c0,0.5,0.2,0.8,0.7,0.8c1.2,0,2.4,0,3.6,0
		c0.7,0,1-0.4,1.2-1.3c0.6-3.3,1.2-6.6,1.8-9.9c1.3-7.4,2.6-14.8,3.9-22.2c1-5.9,2.1-11.7,3.1-17.6c0.8-4.8,1.7-9.6,2.5-14.3
		c0-0.2,0.1-0.5,0.1-0.7c3.6,0,7.2,0,10.8,0c-0.3,1.8-0.6,3.6-0.9,5.3c-0.9,4.9-1.7,9.8-2.6,14.7c-1.4,7.9-2.8,15.8-4.2,23.6
		c-1,5.8-2.1,11.7-3.1,17.5c-0.3,1.8-0.6,3.6-1,5.4c-1,4.4-5.7,8.5-10.2,8.8c-3.3,0.2-6.5,0.2-9.8,0c-4.4-0.3-7.6-4.4-7-8.8
		c0.3-2.5,0.8-4.9,1.2-7.3c0.9-5,1.7-9.9,2.6-14.9c1.4-7.8,2.8-15.6,4.1-23.5c1.2-6.9,2.4-13.7,3.6-20.6
		C167.8,62.5,167.9,62.3,167.9,62.2z"/>
	<path fill="#FE0000" d="M79.3,71.7c-2.8,0-5.5,0-8.2,0c0-3.2,0-6.3,0-9.5c9.2,0,18.3,0,27.5,0c0,3.1,0,6.3,0,9.5
		c-2.7,0-5.4,0-8.2,0c0,22,0,44,0,66c-3.7,0-7.4,0-11.1,0C79.3,115.8,79.3,93.8,79.3,71.7z"/>
	<path fill="#FE0000" d="M37.7,137.7c-3.7,0-7.4,0-11.2,0c-0.3-1.5-0.5-2.9-0.8-4.4c-0.6-3.6-1.3-7.1-1.9-10.7
		c-1.1-6.5-2.3-13-3.4-19.4c-0.9-5.2-1.9-10.5-2.8-15.7c-0.9-5.1-1.8-10.2-2.7-15.3c-0.1-0.4-0.2-0.5-0.7-0.5c-2.3,0-4.6,0-7,0
		c-0.2,0-0.4,0-0.7,0c-0.6-3.2-1.1-6.3-1.7-9.5c9.2,0,18.3,0,27.6,0c0.6,3.1,1.1,6.3,1.7,9.5c-2.7,0-5.4,0-8.2,0
		C29.9,93.8,33.8,115.7,37.7,137.7z"/>
	<path fill="#FE0000" d="M143.7,71.7c-2.8,0-5.5,0-8.2,0c0.2-1.1,0.3-2.1,0.5-3c0.4-2,0.7-4,1.1-6c0.1-0.4,0.2-0.5,0.6-0.5
		c8.9,0,17.8,0,26.7,0c0.1,0,0.2,0,0.4,0c-0.1,0.6-0.2,1.3-0.3,1.9c-0.4,2.4-0.8,4.7-1.2,7.1c-0.1,0.4-0.2,0.6-0.7,0.6
		c-2.3,0-4.6,0-6.9,0c-0.6,0-0.8,0.2-0.9,0.8c-0.6,3.4-1.2,6.9-1.8,10.3c-1.3,7.4-2.6,14.7-3.9,22.1c-1.4,7.7-2.7,15.3-4,23
		c-0.6,3.2-1.1,6.4-1.7,9.6c0,0.1,0,0.1-0.1,0.2c-3.7,0-7.4,0-11.1,0C135.9,115.7,139.8,93.8,143.7,71.7z"/>
	<path fill="#FFFFFF" d="M57.5,102.6c-0.8,0-1.6,0-2.4,0c-0.8,0-1.6,0-2.4,0c-0.4,0-0.6-0.1-0.6-0.5c-0.6-4.7-1.2-9.4-1.7-14
		c-0.6-4.7-1.2-9.4-1.8-14.2c-0.1-0.7-0.2-1.4-0.3-2.1c0.7,0,1.3,0,2,0c0.1,0,0.3,0.4,0.4,0.6c0.6,2.5,1.1,5.1,1.7,7.6
		c1,4.4,2,8.7,3,13.1c0.7,3,1.4,6,2,9C57.4,102.2,57.4,102.3,57.5,102.6z"/>
	<path fill="#FFFFFF" d="M116.5,102.5c-1.8,0-3.5,0-5.3,0c0-0.5,0-1,0-1.4c0.2-4.3,0.4-8.7,0.7-13c0.2-3.8,0.4-7.6,0.6-11.5
		c0.1-1.4,0.2-2.9,0.2-4.3c0-0.6,0.2-0.7,0.7-0.7c0.4,0,0.7,0,1.1,0c0.4,0,0.5,0.1,0.5,0.5c0.3,5.4,0.6,10.9,0.8,16.3
		c0.2,4.3,0.4,8.6,0.7,12.8C116.5,101.7,116.5,102.1,116.5,102.5z"/>
</g>
</svg>
