<svg xmlns="http://www.w3.org/2000/svg" id="Livello_1" x="0" y="0" version="1.1" viewBox="0 0 200 200" xml:space="preserve"><style>.st1{fill:#31cb9e}</style><linearGradient id="SVGID_1_" x1=".2526" x2=".0364" y1="199.987" y2="199.7321" gradientTransform="matrix(560.0001 0 0 -560.001 20.0009 112020.1953)" gradientUnits="userSpaceOnUse"><stop offset="0" stop-color="#b6509e"/><stop offset="1" stop-color="#2ebac6"/></linearGradient><path fill="url(#SVGID_1_)" d="M100 195c-67.4.4-114-70.1-87.4-132.1 33-77.2 141.8-77.2 174.9 0 26.5 62-20.1 132.5-87.5 132.1zm0-180C39.8 14.6-1.8 77.5 21.9 133c29.5 68.9 126.6 68.9 156.1 0 23.7-55.5-17.8-118.4-78-118z"/><path d="M92.3 99.9l54.3 31.1c1.4.8 3.1.4 3.9-1 .3-.5.4-1 .4-1.5V71.2c0-1.6-1.2-2.9-2.8-2.9-.5 0-1.1.1-1.5.4L92.3 99.9zM145.5 55l-37.1-27.3c-1.3-1-3.2-.8-4.1.5-.2.3-.4.7-.5 1L90.1 90.1l55-30.4c1.3-.7 1.9-2.3 1.2-3.7-.2-.4-.4-.8-.8-1M108.3 172.1l37.2-27.3c1.3-.9 1.6-2.6.7-3.9-.3-.4-.6-.7-1-.9l-55.1-30.4 13.6 60.9c.4 1.6 2 2.6 3.5 2.2.4-.1.8-.3 1.1-.6" class="st1"/><path d="M78.2 98.8l14.1-66.1c.3-1.5-.7-3-2.2-3.3-.7-.1-1.5 0-2.1.4L51.8 57.6c-1.9 1.4-2.9 3.6-2.9 6V134c0 2.4 1.1 4.6 2.9 6.1l36 27.7c1.3.9 3 .6 3.9-.7.4-.6.6-1.4.4-2.1L78.2 98.8z" class="st1"/></svg>