<svg xmlns="http://www.w3.org/2000/svg" version="1" viewBox="0 0 200 200"><path fill="#c8dd4f" d="M-254.5 7.3c-2.1-1.2-4.1-2.4-6.2-3.7-10.1 14.4-16.7 31.3-18.7 49.7 10.7 8.1 22.3 15 34.6 20.8.5-.6 1-1.1 1.5-1.6-7-20.5-11-42.4-11.2-65.2zm.2-11.9c-1.2 1.4-2.3 2.8-3.4 4.2 1.1.7 2.1 1.3 3.2 2 .1-2.1.2-4.2.2-6.2zm7.3 85.1c0-.6 0-1.1.1-1.7-11.7-5.4-22.7-12-33-19.5-.1 1.9-.2 3.7-.2 5.6 0 3.1.1 6.1.4 9.1 7.9 9.6 16.7 18.5 26.3 26.4 1.8-1.5 4.2-2.5 6.8-2.5.7 0 1.3.1 1.9.2 1-2.8 2.1-5.6 3.3-8.4-3.3-1.6-5.6-5.2-5.6-9.2zm104.1-102c-3.9-6.7-8.2-13-12.9-19.1-5.6-.9-11.3-1.4-17.2-1.4-18.3 0-35.6 4.6-50.7 12.8 5.5 16.7 13.3 32.4 23 46.7 1-.3 2.1-.5 3.3-.5 2.5 0 4.8.9 6.6 2.3 13-11.5 27.6-21.3 43.3-29-.3-.9-.4-1.9-.4-2.9-.1-3.7 1.9-7.1 5-8.9zm-65.1 49v-.9c-14.5-3.8-28.3-9.3-41.2-16.3.5 20.9 4.2 41 10.7 59.9.6-.1 1.3-.2 1.9-.2 1.5 0 3 .3 4.3.9 7.3-13.4 16.3-25.8 26.5-37-1.4-1.7-2.2-4-2.2-6.4zm-20.2-54.2c-7.4 4.5-14.3 9.8-20.4 15.9-.4 5.1-.6 10.2-.7 15.4 13.4 7.4 27.8 13.3 42.9 17.2.4-.6.8-1.2 1.3-1.7-9.6-14.3-17.5-30-23.1-46.8zm79.3-12.6c3.8 5.2 7.3 10.7 10.6 16.3h.8c3.9 0 7.3 2.1 9.1 5.3 5.4-1.9 10.9-3.6 16.5-5.1-11-7.7-23.5-13.4-37-16.5zM-216.7 124c-7.3-10.3-13.8-21.4-19.1-33h-.6c-1.3 3-2.5 6.1-3.6 9.3 2.4 1.9 4 4.9 4 8.3 0 1.4-.3 2.8-.8 4 6.4 4.2 13.1 8 20.1 11.4zm89.9-29.7c-11.6 2.1-23.5 3.2-35.7 3.2-22.9 0-44.9-3.9-65.4-11-.8 1.1-1.7 2-2.8 2.8 5.2 11.2 11.4 21.9 18.5 31.8 1.4-.7 3-1.1 4.7-1.1 5.8 0 10.5 4.7 10.5 10.5 0 .6 0 1.2-.1 1.7 16.2 5.8 33.4 9.4 51.3 10.4.9-4.9 5.2-8.7 10.3-8.7.9 0 1.8.1 2.7.3 4.8-11.3 8.3-23.1 10.7-35.5-2.1-.8-3.7-2.4-4.7-4.4zm-65.7-57.6c-1.5.8-3.2 1.3-5 1.3-1.5 0-3-.3-4.3-.9-10.2 11.2-19.1 23.6-26.4 37 1.4 1.8 2.2 4 2.2 6.5 0 .4 0 .8-.1 1.2 19.9 6.9 41.3 10.7 63.6 10.7 11.8 0 23.3-1 34.5-3.1 0-.9.2-1.8.4-2.6-25-12-47.1-29.2-64.9-50.1zm59-39.5c-1.2.5-2.6.8-4 .8-3 0-5.7-1.3-7.6-3.3-15.6 7.6-30 17.2-42.8 28.6.4.8.6 1.6.7 2.5 9.3 1.4 18.9 2.2 28.6 2.2 9 0 17.9-.6 26.5-1.9.1-3.9 2.4-7.3 5.7-9-1.9-6.8-4.3-13.4-7.1-19.9zm11.8 39.8c-4.1-.1-7.6-2.5-9.3-6-9 1.3-18.2 2-27.5 2-9.9 0-19.6-.8-29-2.2-.3.9-.7 1.7-1.2 2.5 17.4 20.5 39.1 37.3 63.7 48.9 1.5-1.5 3.3-2.6 5.5-3 .3-4.2.5-8.4.5-12.7-.2-10-1-19.9-2.7-29.5zm14.7 52.7c11.4 4 23.4 6.9 35.7 8.6 2.6-8.1 4.4-16.6 5-25.5-12.8 7-26.4 12.7-40.7 16.9zm-1.3 4.8c-1.8 3.3-5.3 5.5-9.2 5.5h-.1c-2.4 12.7-6.1 24.9-11 36.5 1.8 1.6 3.1 3.8 3.5 6.3 10.1-.5 19.9-1.8 29.5-3.8 9.8-10.2 17.6-22.4 22.7-35.9-12.2-1.8-24-4.7-35.4-8.6zm30.1-79.1c-10.5 4.8-21.5 8.8-32.9 11.7-.2 4-2.6 7.4-6.1 8.9 1.7 9.9 2.6 20.1 2.6 30.5 0 4.3-.1 8.6-.5 12.8 2.9.7 5.4 2.7 6.7 5.3 14.9-4.3 29-10.4 42.2-17.9V65c.2-17.9-4.2-34.8-12-49.6zM-106.7-19c-6.9 1.6-13.7 3.7-20.3 6v.4c0 2.6-1 5-2.6 6.9 3.1 7 5.7 14.2 7.9 21.6h.2c4.3 0 7.9 2.5 9.5 6.2 10.9-2.8 21.3-6.5 31.4-11.1-6.7-11.5-15.6-21.7-26.1-30zm-97.1 159.3c-1.2.4-2.4.7-3.7.7-5.8 0-10.5-4.7-10.5-10.5 0-.5 0-1 .1-1.5-7.6-3.7-14.9-7.8-21.9-12.4-1.6 1.3-3.6 2.2-5.8 2.4-1.7 6.8-3 13.8-3.9 20.8C-230.1 159.7-203 172-173 172c1.3 0 2.6 0 3.9-.1-12.7-9.2-24.4-19.8-34.7-31.6zm58.3 7.4c-18.7-1.1-36.7-4.8-53.6-10.8-.1.1-.2.3-.3.4 11.4 13 24.4 24.4 38.8 34.1 2.5-.3 5-.7 7.5-1.1 4.1-5.5 7.8-11.3 11.3-17.4-1.8-1.4-3.1-3.2-3.7-5.2zm20 .1c-1.4 4.2-5.3 7.2-10 7.2-.7 0-1.5-.1-2.2-.2-2.7 4.8-5.6 9.4-8.7 13.9 16.6-4.2 31.6-12.4 44.1-23.3-7.6 1.2-15.3 2-23.2 2.4zM-257 108.5c0-1.4.3-2.8.8-4-8-6.5-15.4-13.7-22.2-21.4 3.4 19.6 12.1 37.4 24.6 51.9.8-5.7 1.9-11.3 3.3-16.9-3.9-1.5-6.5-5.3-6.5-9.6z"/></svg>