<?xml version="1.0" encoding="utf-8"?>
<!-- Generator: Adobe Illustrator 22.1.0, SVG Export Plug-In . SVG Version: 6.00 Build 0)  -->
<svg version="1.1" id="Livello_1" xmlns="http://www.w3.org/2000/svg" xmlns:xlink="http://www.w3.org/1999/xlink" x="0px" y="0px"
	 viewBox="0 0 200 200" style="enable-background:new 0 0 200 200;" xml:space="preserve">
<style type="text/css">
	.st0{fill:none;stroke:#000000;stroke-width:3;stroke-miterlimit:10;}
	.st1{fill:#EA5255;}
</style>
<g>
	<polygon class="st0" points="17.7,52.5 17.7,147.5 100,195 182.3,147.5 182.3,52.5 100,5 	"/>
	<polygon class="st1" points="72.7,116.7 72.7,84.8 46.3,69.4 46.3,131.6 	"/>
	<polygon class="st1" points="153.7,69.5 127.1,85.7 127.1,116.3 100,132 72.7,116.2 46,132 99.9,163.2 153.9,132.1 	"/>
	<g id="Livello_2_1_">
		<line class="st0" x1="127.1" y1="115.8" x2="100" y2="100.1"/>
		<line class="st0" x1="18" y1="147.6" x2="100" y2="100.1"/>
		<line class="st0" x1="100" y1="100.5" x2="100" y2="5.7"/>
		<line class="st0" x1="182" y1="147.6" x2="154.1" y2="131.5"/>
	</g>
	<polyline class="st0" points="182.3,52.5 127,85.3 127,116.4 100,132 73,116.4 73,85.2 17.7,52.5 	"/>
	<polyline class="st0" points="154,69.5 153.9,132.1 99.9,163.2 46,132 46.1,69.6 	"/>
</g>
</svg>
