<?xml version="1.0" encoding="utf-8"?>
<!-- Generator: Adobe Illustrator 23.0.1, SVG Export Plug-In . SVG Version: 6.00 Build 0)  -->
<svg version="1.1" id="Layer_1" xmlns="http://www.w3.org/2000/svg" xmlns:xlink="http://www.w3.org/1999/xlink" x="0px" y="0px"
	 viewBox="0 0 200 200" style="enable-background:new 0 0 200 200;" xml:space="preserve">
<style type="text/css">
	.st0{fill:url(#SVGID_1_);}
	.st1{fill:url(#SVGID_2_);}
	.st2{fill:url(#SVGID_3_);}
	.st3{fill:url(#SVGID_4_);}
	.st4{fill:url(#SVGID_5_);}
	.st5{fill:#D4B10A;}
</style>
<linearGradient id="SVGID_1_" gradientUnits="userSpaceOnUse" x1="4.7907" y1="174.1383" x2="99.775" y2="79.154" gradientTransform="matrix(1 0 0 -1 0 200.079)">
	<stop  offset="0" style="stop-color:#F5DD68"/>
	<stop  offset="1" style="stop-color:#CEAA01"/>
</linearGradient>
<path class="st0" d="M79.3,5.5v135.9h-54V5.5C24.1,4.4,79.3,5.5,79.3,5.5z"/>
<linearGradient id="SVGID_2_" gradientUnits="userSpaceOnUse" x1="25.425" y1="58.804" x2="79.275" y2="4.954" gradientTransform="matrix(1 0 0 -1 0 200.079)">
	<stop  offset="0" style="stop-color:#F5DD68"/>
	<stop  offset="1" style="stop-color:#CEAA01"/>
</linearGradient>
<rect x="25.3" y="141.4" class="st1" width="54.1" height="53.6"/>
<linearGradient id="SVGID_3_" gradientUnits="userSpaceOnUse" x1="25.2" y1="31.879" x2="25.2" y2="31.879" gradientTransform="matrix(1 0 0 -1 0 200.079)">
	<stop  offset="0" style="stop-color:#E3C537"/>
	<stop  offset="1" style="stop-color:#A88B01"/>
</linearGradient>
<rect x="25.2" y="141.4" class="st2" width="0" height="53.6"/>
<linearGradient id="SVGID_4_" gradientUnits="userSpaceOnUse" x1="79.3" y1="31.879" x2="174.5" y2="31.879" gradientTransform="matrix(1 0 0 -1 0 200.079)">
	<stop  offset="0" style="stop-color:#E3C537"/>
	<stop  offset="1" style="stop-color:#A88B01"/>
</linearGradient>
<path class="st3" d="M174.3,195h-95v-53.6h27.3C106.8,160,122,175,140.7,175c17.3,0,31.7-13,33.8-29.7
	C174.1,157.6,174.3,195,174.3,195z"/>
<linearGradient id="SVGID_5_" gradientUnits="userSpaceOnUse" x1="120.2185" y1="72.2975" x2="161.099" y2="31.417" gradientTransform="matrix(1 0 0 -1 0 200.079)">
	<stop  offset="0" style="stop-color:#F5DD68"/>
	<stop  offset="1" style="stop-color:#CEAA01"/>
</linearGradient>
<path class="st4" d="M174.7,141.4c-0.1,0.1-0.2,1.5-0.2,3.9C172.3,162,158,175,140.7,175c-18.7,0-33.8-15-34.1-33.6H174.7z"/>
<path class="st5" d="M174.5,145.3c0.1-2.4,0.1-3.8,0.2-3.9h-68.1c0-0.2,0-0.3,0-0.5c0-18.8,15.3-34.1,34.1-34.1s34.1,15.3,34.1,34.1
	C174.8,142.4,174.7,143.9,174.5,145.3z"/>
</svg>
