<?xml version="1.0" encoding="utf-8"?>
<!-- Generator: Adobe Illustrator 16.0.0, SVG Export Plug-In . SVG Version: 6.00 Build 0)  -->
<!DOCTYPE svg PUBLIC "-//W3C//DTD SVG 1.1//EN" "http://www.w3.org/Graphics/SVG/1.1/DTD/svg11.dtd">
<svg version="1.1" id="Livello_1" xmlns="http://www.w3.org/2000/svg" xmlns:xlink="http://www.w3.org/1999/xlink" x="0px" y="0px"
	 width="293px" height="293px" viewBox="0 0 293 293" enable-background="new 0 0 293 293" xml:space="preserve">
<g>
	<polygon fill="#EA5255" points="115.499,160.751 115.499,126.251 86.999,109.584 86.999,176.917 	"/>
	<polygon fill="#EA5255" points="203.166,109.751 174.437,127.219 174.417,160.334 145.034,177.326 115.499,160.251 86.673,177.281 
		144.994,211.044 203.396,177.417 	"/>
	<polygon fill="none" stroke="#000000" stroke-width="1.5" stroke-miterlimit="10" points="145.025,245.462 56.071,194.05 
		56.124,91.305 145.126,39.978 234.078,91.395 234.027,194.139 	"/>
	<polyline fill="none" stroke="#000000" stroke-miterlimit="10" points="174.292,126.788 174.251,160.503 145.034,177.326 
		115.856,160.434 115.897,126.719 	"/>
	<polyline fill="none" stroke="#000000" stroke-miterlimit="10" points="203.477,109.75 203.396,177.417 144.994,211.044 
		86.673,177.281 86.754,109.889 	"/>
	<line fill="none" stroke="#000000" stroke-miterlimit="10" x1="174.093" y1="127.219" x2="233.972" y2="91.267"/>
	<line fill="none" stroke="#000000" stroke-miterlimit="10" x1="116.156" y1="127.125" x2="56.433" y2="91.308"/>
</g>
<g id="Livello_2">
	
		<line fill="none" stroke="#000000" stroke-width="1.5" stroke-miterlimit="10" x1="174.338" y1="159.824" x2="145.075" y2="142.864"/>
	
		<line fill="none" stroke="#000000" stroke-width="1.5" stroke-miterlimit="10" x1="56.408" y1="194.251" x2="145.075" y2="142.864"/>
	
		<line fill="none" stroke="#000000" stroke-width="1.5" stroke-miterlimit="10" x1="145.075" y1="143.251" x2="145.075" y2="40.751"/>
	
		<line fill="none" stroke="#000000" stroke-width="1.5" stroke-miterlimit="10" x1="233.742" y1="194.251" x2="203.574" y2="176.765"/>
</g>
</svg>
