<?xml version="1.0" encoding="utf-8"?>
<!-- Generator: Adobe Illustrator 25.0.0, SVG Export Plug-In . SVG Version: 6.00 Build 0)  -->
<svg version="1.1" id="Livello_1" xmlns="http://www.w3.org/2000/svg" xmlns:xlink="http://www.w3.org/1999/xlink" x="0px" y="0px"
	 viewBox="0 0 200 200" style="enable-background:new 0 0 200 200;" xml:space="preserve">
<style type="text/css">
	.st0{fill:url(#SVGID_1_);}
</style>
<linearGradient id="SVGID_1_" gradientUnits="userSpaceOnUse" x1="5" y1="100" x2="195" y2="100">
	<stop  offset="0" style="stop-color:#E83F77"/>
	<stop  offset="0.71" style="stop-color:#5D4696"/>
	<stop  offset="1" style="stop-color:#3B4999"/>
</linearGradient>
<path class="st0" d="M191.9,62.9H144l-0.2,0c-1.5,0.1-32.5,2.8-46.5,25.5c-0.4,0-0.8-0.1-1.2-0.1c-6.4,0-11.6,5.2-11.6,11.6
	c0,3.6,1.7,6.8,4.2,9c-3.7,6.7-8.9,11.2-14.3,14.2V85.6c3.6-1.3,6.2-4.7,6.2-8.7c0-5.1-4.1-9.3-9.3-9.3c-5.1,0-9.3,4.1-9.3,9.3
	c0,4,2.6,7.5,6.2,8.7v40.5c-8.7,3.3-16.4,3.3-17,3.3h-3.1V76.3c3.6-1.3,6.2-4.7,6.2-8.7c0-5.1-4.1-9.3-9.3-9.3s-9.3,4.1-9.3,9.3
	c0,4,2.6,7.5,6.2,8.7v53.1H22V76.3c3.6-1.3,6.2-4.7,6.2-8.7c0-5.1-4.1-9.3-9.3-9.3s-9.3,4.1-9.3,9.3c0,4,2.6,7.5,6.2,8.7v53.1H8.1
	c-1.7,0-3.1,1.4-3.1,3.1s1.4,3.1,3.1,3.1h43.2c0.2,0,30.3-0.1,43.1-24.1c0.5,0.1,1.1,0.1,1.7,0.1c6.4,0,11.6-5.2,11.6-11.6
	c0-3.7-1.8-7-4.5-9.1c5.3-8,13.2-13.1,20.7-16.3v39.9c-3.6,1.3-6.2,4.7-6.2,8.7c0,5.1,4.1,9.3,9.3,9.3c5.1,0,9.3-4.1,9.3-9.3
	c0-4-2.6-7.5-6.2-8.7V72.2c7.3-2.4,13.2-3,14-3.1h6v54.6c-3.6,1.3-6.2,4.7-6.2,8.7c0,5.1,4.1,9.3,9.3,9.3c5.1,0,9.3-4.1,9.3-9.3
	c0-4-2.6-7.5-6.2-8.7V69.1h20.1v54.6c-3.6,1.3-6.2,4.7-6.2,8.7c0,5.1,4.1,9.3,9.3,9.3c5.1,0,9.3-4.1,9.3-9.3c0-4-2.6-7.5-6.2-8.7
	V69.1h9.3c1.7,0,3.1-1.4,3.1-3.1C195,64.3,193.6,62.9,191.9,62.9z"/>
</svg>
