<?xml version="1.0" encoding="utf-8"?>
<!-- Generator: Adobe Illustrator 22.1.0, SVG Export Plug-In . SVG Version: 6.00 Build 0)  -->
<svg version="1.0" id="Livello_1" xmlns="http://www.w3.org/2000/svg" xmlns:xlink="http://www.w3.org/1999/xlink" x="0px" y="0px"
	 viewBox="0 0 200 200" enable-background="new 0 0 200 200" xml:space="preserve">
<path fill="#ADD45E" d="M103,48c0,0,8-7,28-7s53,20,52,54c-0.8,27.3-19,43-26.2,48.1c-1.5,1.1-3.1,2-4.8,2.7c-7.3,3-33,14.2-41,24.2
	c-8,10-11,0-11,0s-9.5-28.5,16.5-57.5s45-26,45-26s3,0,3-3s-7-3-7-3s-16,0-45,18s-42,40-42,40s-3,4-7,2s2-15,2-15l12-23c0,0,4-5,0-8
	s-13,2-13,2l-24,14c0,0-5,2-7-2s4-9,4-9l24-23l27,11c0,0,7,2,11-1s4-8,4-8L103,48z"/>
<path fill="#ADD45E" d="M93,25c-3-6-8-17-11-17s-10,6-10,24c0,0-1.5,4.5-4.5,6.5s-8,3-8,3s-13.8-7.4-24.7-1.8
	c-0.9,0.5-1.5,1.5-1.4,2.6c0.2,2.5,1.9,7.7,10.1,15.2c12,11,46,22,46,22s6,2,6.5-3.5l1-35C97,41,96,31,93,25z M49.5,55.5l-9-10
	c0,0-2-3,6-2s9,4,9,4L49.5,55.5z M78.7,31.5c0,0-2.3-2.2,0.2-9.8c2.5-7.7,4.4-4.6,4.4-4.6l5.2,12.4L78.7,31.5z"/>
</svg>
