<?xml version="1.0" encoding="utf-8"?>
<!-- Generator: Adobe Illustrator 22.1.0, SVG Export Plug-In . SVG Version: 6.00 Build 0)  -->
<svg version="1.1" id="Livello_1" xmlns:serif="http://www.serif.com/"
	 xmlns="http://www.w3.org/2000/svg" xmlns:xlink="http://www.w3.org/1999/xlink" x="0px" y="0px" viewBox="0 0 200 200"
	 style="enable-background:new 0 0 200 200;" xml:space="preserve">
<style type="text/css">
	.st0{fill:#877364;}
	.st1{fill:#CFBAA4;}
	.st2{fill:#FFEBD2;}
	.st3{fill:#464655;}
	.st4{fill:#9F8976;}
</style>
<path class="st0" d="M60.1,29.4c-3,0-5.9,0.4-8.7,1.3l-1.8,0.5l1.7,0.6c1.7,0.6,3.4,1.7,4.9,3c0.4,0.3,0.6,0.8,0.6,1.3
	s-0.1,1-0.5,1.4s-0.9,0.6-1.4,0.6s-0.9-0.2-1.3-0.5c-1.3-1.2-3.5-2.8-6.5-2.8c-2.6,0-5.5,1.3-8.5,3.9l0,0l0,0
	c-2.8,3-5.3,6.6-7.2,10.8c-3.7,7.8-6,16.6-6.8,26.1l1.2,0.4c0.7-1.2,1.4-2.3,2.2-3.4c0.4-0.5,0.9-0.7,1.5-0.7c0.4,0,0.8,0.1,1.1,0.4
	c0.8,0.6,1,1.8,0.4,2.6c-5.1,6.8-6.8,16.2-4.9,27.3v0.1l0,0c3.1,16.1,8.9,25.7,12,27.4c1.2,0.6,2.3,1,3.3,1c1.9,0,3.5-1.4,4.7-4.2
	l0.5-1.1l-1.2,0.3c-0.3,0.1-0.6,0.1-0.9,0.1c-4.5,0-6-6.7-6.5-8.9c-1.9-8.3-2-18.2-0.3-28c1.6-9.3,4.7-17.4,8.4-22.1
	c0.1-0.1,0.1-0.2,0.2-0.3l1.2-1.4l-1.8,0.4c-2.6,0.6-5,1.6-7.4,3c-0.3,0.2-0.6,0.3-1,0.3c-0.7,0-1.3-0.3-1.6-0.9
	c-0.3-0.4-0.3-0.9-0.2-1.4s0.4-0.9,0.8-1.2C40.8,62.6,46,61,50.7,61c2.9,0,5.5,0.6,7.3,1.7l0,0c2.1,1.1,4.2,3.2,6.1,6.1l1.1-0.4
	c-0.6-8.2-3.2-17.5-6.5-23.9c-0.2-0.4-0.3-1-0.1-1.4c0.1-0.5,0.5-0.9,0.9-1.1c0.3-0.1,0.6-0.2,0.9-0.2c0.7,0,1.3,0.4,1.7,1
	c4.9,9.3,7.1,21.6,7.1,29.1v0.6h0.6c0.7,0,1.4,0.1,2.1,0.1c3.3,0,8-0.5,11.9-3c8.5-5.2,9.1-12.6,9.1-13.4l0,0
	C93,42.7,76.7,29.4,60.1,29.4z"/>
<g transform="matrix(1,0,0,1,64,64)">
	<path class="st1" d="M-4.2,5.2c-1.1-1.4-2.2-2.4-3.3-3c0,0-0.1,0-0.1-0.1l0,0c-0.7-0.3-1.3-0.5-2-0.5c-1.6,0-3.2,1-4.9,2.8l-0.9,1
		h1.4c3.5,0,6.6,0.2,9.3,0.7l1.6,0.3L-4.2,5.2z"/>
	<path class="st1" d="M-2.8,10.4c-3.8-1-8.9-1.2-11.7-1.2c-0.6,0-1.1,0-1.6,0h-0.7l0.1,0.7c1.3,9.2,6.8,13.1,9.9,14.5l0.8,0.4
		l0.1-0.9c0.4-4.4,1.6-8.7,3.5-12.7l0.3-0.7L-2.8,10.4z"/>
</g>
<path class="st0" d="M99.9,123.3c-11.6,0-20.7,9.6-20.7,17.9c0,6.8,6.1,10.4,18.1,10.9h0.6v-6.5l-0.4-0.1c-4-1.3-7.1-5.8-7.1-9
	c0-1.9,1-3.3,2.9-3.9c1.3-0.4,3-0.5,4.6-0.5c0.3,0,0.6,0,0.9,0s0.7,0,1,0s0.7,0,1,0s0.6,0,0.9,0c1.6,0,3.3,0,4.6,0.5
	c1.8,0.6,2.9,2,2.9,3.9c0,3.2-3,7.7-7.1,9l-0.4,0.1v6.5h0.6c12-0.4,18.1-4.1,18.1-10.9C120.5,132.9,111.5,123.3,99.9,123.3z"/>
<path class="st2" d="M99.9,155c-7,0-12.8-0.9-17.4-2.7l-1-0.4l0.1,1.2c0.2,4.1,1,7.5,2.3,10.3v0.1v0.1c0.2,0.2,0.3,0.5,0.4,0.7v0.1
	v0.1c2.9,5.2,8.1,7.8,15.5,7.8s12.6-2.6,15.5-7.8v-0.1v-0.1c0.1-0.3,0.2-0.5,0.4-0.7v-0.1v-0.1c1.3-2.8,2.1-6.2,2.3-10.3l0.1-1.2
	l-1,0.4C112.7,154.1,106.9,155,99.9,155z"/>
<path class="st3" d="M105.1,136c-0.6-0.2-1.6-0.2-3.3-0.2c-0.3,0-1.6,0-1.9,0s-0.7,0-1,0s-0.6,0-0.9,0c-1.6,0-2.7,0.1-3.3,0.2
	l-0.5,0.1l0.1,0.5c0.2,1.8,2.7,5.4,5.6,5.4s5.4-3.5,5.6-5.4l0.1-0.5L105.1,136z"/>
<path class="st4" d="M134.5,77.3l-0.2-0.4l-0.4,0.1c-1.3,0.2-3.4,0.4-5.8,0.4c-5.4,0-10.1-1.2-13.9-3.5
	c-10.5-6.5-10.9-16.2-10.9-16.6v-0.7h-5.9h-0.6v0.7c0,0.4-0.4,10.1-10.9,16.6c-3.8,2.3-8.5,3.5-13.9,3.5c-2.5,0-4.6-0.3-6-0.5
	l-0.5-0.1l-0.2,0.4c-2.4,4.6-3.6,9.8-3.6,15.1c0,12.6,4.8,45.9,5,47.3c1.3,8,3.2,13.3,5.9,16.9c2.1,2.7,4.7,4.6,8.1,5.6l1.1,0.3
	l-0.3-1.1c-0.6-2.4-1-5-1-8c0-0.2,0-0.4,0.1-0.6l0.1-0.4l-0.4-0.3c-3.2-2.5-4.9-5.8-4.9-10c0-5.3,2.6-10.7,7.2-14.9
	c4.8-4.4,10.9-6.8,17.2-6.8c6.3,0,12.4,2.4,17.2,6.8c4.6,4.2,7.2,9.6,7.2,14.9c0,4.2-1.6,7.5-4.9,10l-0.4,0.3l0.1,0.4
	c0.1,0.2,0.1,0.4,0.1,0.6c0,2.9-0.3,5.6-1,8l-0.3,1.1l1.1-0.3c3.4-1,6.1-2.8,8.1-5.6c2.7-3.6,4.6-9,5.9-16.9c0.2-1.4,5-34.7,5-47.3
	C138.1,87.1,136.8,81.9,134.5,77.3z"/>
<g transform="matrix(1,0,0,1,64,64)">
	<path class="st1" d="M86.1,5.5h1.4l-0.9-1c-1.7-1.9-3.3-2.8-4.9-2.8c-0.6,0-1.3,0.2-2,0.5l0,0c0,0-0.1,0-0.1,0.1
		c-1.1,0.6-2.2,1.6-3.3,3l-1,1.3l1.6-0.3C79.5,5.7,82.6,5.5,86.1,5.5z"/>
	<path class="st1" d="M88.1,9.3c-0.5,0-1.1,0-1.6,0c-2.8,0-8,0.2-11.9,1.3l-0.7,0.2l0.3,0.7c1.9,4,3.1,8.3,3.5,12.7l0.1,0.9l0.8-0.4
		c3.2-1.4,8.8-5.2,10.1-14.7l0.1-0.7L88.1,9.3z"/>
</g>
<path class="st0" d="M169.3,72.3c0.3-0.2,0.7-0.4,1.1-0.4c0.6,0,1.1,0.3,1.5,0.7c0.8,1.1,1.5,2.2,2.2,3.4l1.2-0.4
	c-0.8-9.5-3.1-18.3-6.8-26.1c-2-4.2-4.4-7.9-7.2-10.8l0,0l0,0c-3-2.6-5.9-3.9-8.5-3.9c-3,0-5.1,1.6-6.5,2.8
	c-0.3,0.3-0.8,0.5-1.3,0.5s-1-0.2-1.4-0.6c-0.3-0.4-0.5-0.9-0.5-1.4s0.2-1,0.6-1.3c1.5-1.4,3.2-2.4,4.9-3l1.7-0.6l-1.8-0.5
	c-2.8-0.9-5.7-1.3-8.7-1.3c-16.6,0-32.9,13.3-32.9,26.9c0,0.8,0.6,8.2,9.1,13.4c4,2.4,8.7,3,11.9,3c0.7,0,1.4,0,2.1-0.1h0.6V72
	c0-7.5,2.2-19.8,7.1-29.1c0.3-0.6,1-1,1.7-1c0.3,0,0.6,0.1,0.9,0.2c0.4,0.2,0.8,0.6,0.9,1.1c0.1,0.5,0.1,1-0.1,1.4
	c-3.3,6.3-5.9,15.7-6.5,23.9l1.1,0.4c1.9-3,4-5,6.1-6.1l0,0c1.9-1.1,4.4-1.7,7.3-1.7c4.7,0,10,1.5,14.4,4.2c0.4,0.3,0.7,0.7,0.8,1.2
	s0,1-0.2,1.4c-0.3,0.6-0.9,0.9-1.6,0.9c-0.3,0-0.7-0.1-1-0.3c-2.3-1.4-4.8-2.4-7.4-3l-1.8-0.4l1.2,1.5c0.1,0.1,0.1,0.1,0.2,0.2
	c3.8,4.7,6.8,12.8,8.4,22.1c1.7,9.8,1.5,19.7-0.3,28c-0.5,2.2-2,8.9-6.5,8.9c-0.3,0-0.6,0-0.9-0.1l-1.2-0.3l0.5,1.1
	c1.2,2.8,2.8,4.2,4.7,4.2c1,0,2-0.3,3.3-1c3.1-1.7,9-11.2,12-27.4l0,0v-0.1c1.9-11.1,0.2-20.5-4.9-27.3
	C168.3,74.1,168.5,72.9,169.3,72.3z"/>
<path d="M127.4,91.9c-2.8,0-5,2.2-5,5s2.2,5,5,5c2.8,0,5-2.2,5-5S130.2,91.9,127.4,91.9z"/>
<path d="M72.3,91.9c-2.8,0-5,2.2-5,5s2.2,5,5,5s5-2.2,5-5S75.1,91.9,72.3,91.9z"/>
<path d="M95.1,159.3c-1.4-0.1-2.6,0.9-2.7,2.3c-0.1,1.4,0.9,2.6,2.3,2.7c1.6,0.1,3.4,0.2,5.2,0.2c1.8,0,3.6-0.1,5.2-0.2
	c1.4-0.1,2.4-1.3,2.3-2.7s-1.3-2.4-2.7-2.3c-1.5,0.1-3.1,0.2-4.8,0.2S96.6,159.4,95.1,159.3z"/>
<path d="M172.5,48.2c-6.9-14.7-18.5-22.7-32.6-22.7c-17.2,0-33.5,12.2-36.7,26.3h-6.4c-3.2-14.1-19.5-26.3-36.7-26.3
	c-14.1,0-25.7,8.1-32.6,22.7c-9.7,20.6-7.9,42.6-6,53.8c2.7,15.8,8.7,29,14.6,32.1c1.8,1,3.6,1.5,5.3,1.5c7.7,0,10.5-10.1,10.9-16
	c0.1-1.2-0.7-2.3-1.8-2.6c-1.1-0.3-2.3,0.2-2.9,1.3c-0.9,1.8-2.4,3.5-3.1,3.6c-0.2-0.2-1.3-1.1-2.3-5.5c-2.6-11.6-1.3-25.6,2-35.8
	c1.7,4.9,4.6,8,7,10c2.3,1.8,4.5,2.8,6.1,3.3c0.4,14.1,4.8,44.7,5,46l0,0c2.1,12.7,6.1,24.7,20.9,26.8c3.3,5.1,8.9,7.8,16.6,7.8
	s13.3-2.7,16.6-7.8c14.9-2.1,18.9-14.1,20.9-26.8l0,0c0.2-1.4,4.6-31.8,5-45.9c1.6-0.5,3.9-1.5,6.3-3.4c2.5-1.9,5.3-5.1,7-10
	c3.3,10.2,4.7,24.2,2,35.8c-1,4.4-2.1,5.4-2.3,5.5c-0.6-0.2-2.1-1.8-3.1-3.6c-0.5-1.1-1.8-1.6-2.9-1.3c-1.1,0.3-1.9,1.4-1.8,2.6
	c0.4,6,3.1,16,10.9,16c1.7,0,3.5-0.5,5.3-1.5c5.8-3.1,11.8-16.3,14.6-32.1C180.4,90.8,182.2,68.9,172.5,48.2z M57.5,88.5
	c-3.2-1.5-8.3-5.2-9.6-14.1c3.6-0.1,9.2,0.1,13.1,1.2C59.1,79.6,57.9,84,57.5,88.5z M49.9,69.4c1.1-1.3,2.7-2.6,4.4-2.6
	c0.6,0,1.1,0.1,1.7,0.4c0.1,0,0.1,0.1,0.2,0.1c1,0.5,2.1,1.5,3.1,2.8C56.1,69.5,52.6,69.4,49.9,69.4z M58.4,62.8
	c-5.2-3.2-14.8-2.1-22.4,2.5c-1.2,0.7-1.6,2.3-0.8,3.4c0.5,0.8,1.3,1.2,2.1,1.2c0.4,0,0.9-0.1,1.3-0.4c2.4-1.5,4.9-2.4,7.2-3
	c-0.1,0.1-0.1,0.2-0.2,0.3c-3.8,4.8-6.9,13-8.6,22.4c-1.7,9.9-1.6,19.9,0.4,28.2c0.5,2.3,2.2,9.4,7.1,9.4l0,0c0.4,0,0.7,0,1.1-0.1
	c-0.9,2.1-2.3,3.8-4.1,3.8c-0.8,0-1.8-0.3-3-0.9c-3-1.6-8.7-11.2-11.7-26.9v-0.1c-1.9-10.9-0.2-20.2,4.8-26.8
	c0.8-1.1,0.6-2.7-0.5-3.5c-1.1-0.8-2.7-0.6-3.5,0.5c-0.8,1-1.5,2.2-2.2,3.5c0.7-8.2,2.6-17.2,6.7-25.9c2-4.2,4.4-7.8,7.1-10.7
	c7.1-6,11.5-3.5,14.2-1.1c1,0.9,2.6,0.9,3.5-0.2c0.9-1,0.9-2.6-0.2-3.5c-1.2-1.1-3-2.4-5.1-3.2c2.7-0.8,5.5-1.3,8.5-1.3
	c16.3,0,32.2,13,32.3,26.3c0,0.4-0.5,7.8-8.8,12.9c-3.8,2.4-8.4,2.9-11.6,2.9l0,0c-0.7,0-1.4,0-2.1-0.1c0-8-2.3-20.2-7.1-29.4
	c-0.6-1.2-2.2-1.7-3.4-1c-1.2,0.6-1.7,2.2-1,3.4c3.7,7,5.9,16.4,6.4,23.6C62.8,66,60.6,63.9,58.4,62.8z M113,162.8
	c-0.2,0.2-0.3,0.5-0.4,0.8c-2.4,4-6.6,5.9-12.7,5.9s-10.3-2-12.7-5.9c-0.1-0.3-0.2-0.5-0.4-0.8c-1.1-2.1-1.7-4.8-1.9-8
	c3.9,1.4,8.9,2.2,15,2.2s11.1-0.7,15-2.2C114.7,158,114.1,160.6,113,162.8z M94.9,137.1c0.5-0.1,1.5-0.2,3.1-0.2c0.3,0,0.6,0,0.9,0
	c0.7,0,1.4,0,2,0c0.3,0,0.6,0,0.9,0c0.6,0,2.3,0,3.1,0.2c-0.2,1.6-2.5,4.8-5,4.8C97.4,141.9,95.1,138.8,94.9,137.1z M102.4,151.9
	v-5.4c4.4-1.4,7.5-6.3,7.5-9.6c0-2.2-1.2-3.8-3.3-4.5c-1.4-0.5-3.1-0.5-4.8-0.5c-0.3,0-0.6,0-0.9,0c-0.6,0-1.3,0-2,0
	c-0.3,0-0.6,0-0.9,0c-1.7,0-3.4,0-4.8,0.5c-2.1,0.7-3.3,2.3-3.3,4.5c0,3.3,3.1,8.2,7.5,9.6v5.4c-11.6-0.4-17.5-3.9-17.5-10.2
	c0-8,8.8-17.3,20-17.3c11.3,0,20,9.3,20,17.3C119.9,148.1,114,151.5,102.4,151.9z M132.5,139.1c-1.3,7.9-3.1,13.1-5.7,16.7
	c-2,2.6-4.5,4.4-7.8,5.3c0.7-2.4,1-5.1,1-8.1c0-0.3,0-0.5-0.1-0.8c3.4-2.6,5.1-6.1,5.1-10.5c0-5.4-2.7-11-7.4-15.3
	c-4.9-4.5-11.1-6.9-17.6-6.9s-12.7,2.5-17.6,6.9c-4.7,4.3-7.4,9.9-7.4,15.3c0,4.3,1.8,7.9,5.1,10.5c-0.1,0.2-0.1,0.5-0.1,0.8
	c0,3,0.3,5.7,1,8.1c-3.3-1-5.8-2.7-7.8-5.3c-2.6-3.5-4.5-8.8-5.7-16.7c-0.1-1-5-34.7-5-47.2c0-5.2,1.2-10.2,3.5-14.8
	c1.4,0.2,3.5,0.5,6.1,0.5l0,0c5.6,0,10.4-1.2,14.2-3.6C97,67.3,97.4,57.3,97.4,56.9c0,0,0,0,0-0.1l0,0h5.2l0,0c0,0,0,0,0,0.1
	c0,0.4,0.4,10.4,11.2,17.1c3.9,2.4,8.7,3.6,14.2,3.6c2.4,0,4.5-0.2,5.9-0.5c2.3,4.5,3.5,9.6,3.5,14.7
	C137.4,104.4,132.6,138,132.5,139.1z M142.3,88.6c-0.4-4.5-1.6-8.9-3.5-13c4-1.1,9.6-1.3,13.3-1.2C150.8,83.5,145.5,87.1,142.3,88.6
	z M140.7,70.1c1.1-1.3,2.1-2.3,3.1-2.8c0.1,0,0.1-0.1,0.2-0.1c0.6-0.3,1.2-0.4,1.7-0.4c1.7,0,3.3,1.3,4.4,2.6
	C147.4,69.4,143.9,69.5,140.7,70.1z M168.4,75.8c5,6.7,6.7,15.9,4.8,26.8v0.1c-3,15.7-8.7,25.3-11.7,26.9c-1.1,0.6-2.1,0.9-3,0.9
	c-1.9,0-3.2-1.7-4.1-3.8c0.3,0.1,0.7,0.1,1.1,0.1c5,0,6.6-7.1,7.1-9.4c1.9-8.3,2-18.4,0.4-28.2c-1.6-9.4-4.7-17.6-8.6-22.4
	c-0.1-0.1-0.1-0.2-0.2-0.3c2.3,0.6,4.8,1.5,7.2,3c0.4,0.2,0.9,0.4,1.3,0.4c0.8,0,1.7-0.4,2.1-1.2c0.7-1.2,0.3-2.7-0.8-3.4
	c-7.6-4.6-17.2-5.7-22.4-2.5c-2.2,1.1-4.4,3.3-6.4,6.3c0.5-7.2,2.8-16.6,6.4-23.6c0.6-1.2,0.2-2.7-1-3.4c-1.2-0.6-2.7-0.2-3.4,1
	c-4.8,9.2-7.2,21.4-7.1,29.4c-0.6,0-1.3,0.1-2.1,0.1c-3.2,0-7.8-0.5-11.6-2.9c-8.3-5.1-8.8-12.4-8.8-12.9c0-13.3,16-26.3,32.3-26.3
	c3,0,5.8,0.4,8.5,1.3c-2.1,0.8-3.8,2-5.1,3.2c-1,0.9-1.1,2.5-0.2,3.5c0.9,1,2.5,1.1,3.5,0.2c2.7-2.5,7.1-5,14.2,1.1
	c2.8,2.9,5.2,6.5,7.1,10.7c4.1,8.7,6,17.7,6.7,25.9c-0.7-1.3-1.5-2.5-2.2-3.5c-0.8-1.1-2.4-1.3-3.5-0.5
	C167.8,73.2,167.6,74.7,168.4,75.8z"/>
</svg>
