<svg xmlns="http://www.w3.org/2000/svg" id="Livello_1" viewBox="0 0 200 200"><style>.st0{fill:#877364}.st1{fill:#cfbaa4}</style><path d="M60.1 29.4c-3 0-5.9.4-8.7 1.3l-1.8.5 1.7.6c1.7.6 3.4 1.7 4.9 3 .4.3.6.8.6 1.3s-.1 1-.5 1.4-.9.6-1.4.6-.9-.2-1.3-.5c-1.3-1.2-3.5-2.8-6.5-2.8-2.6 0-5.5 1.3-8.5 3.9-2.8 3-5.3 6.6-7.2 10.8-3.7 7.8-6 16.6-6.8 26.1l1.2.4c.7-1.2 1.4-2.3 2.2-3.4.4-.5.9-.7 1.5-.7.4 0 .8.1 1.1.4.8.6 1 1.8.4 2.6-5.1 6.8-6.8 16.2-4.9 27.3v.1c3.1 16.1 8.9 25.7 12 27.4 1.2.6 2.3 1 3.3 1 1.9 0 3.5-1.4 4.7-4.2l.5-1.1-1.2.3c-.3.1-.6.1-.9.1-4.5 0-6-6.7-6.5-8.9-1.9-8.3-2-18.2-.3-28 1.6-9.3 4.7-17.4 8.4-22.1.1-.1.1-.2.2-.3l1.2-1.4-1.8.4c-2.6.6-5 1.6-7.4 3-.3.2-.6.3-1 .3-.7 0-1.3-.3-1.6-.9-.3-.4-.3-.9-.2-1.4s.4-.9.8-1.2C40.8 62.6 46 61 50.7 61c2.9 0 5.5.6 7.3 1.7 2.1 1.1 4.2 3.2 6.1 6.1l1.1-.4c-.6-8.2-3.2-17.5-6.5-23.9-.2-.4-.3-1-.1-1.4.1-.5.5-.9.9-1.1.3-.1.6-.2.9-.2.7 0 1.3.4 1.7 1 4.9 9.3 7.1 21.6 7.1 29.1v.6h.6c.7 0 1.4.1 2.1.1 3.3 0 8-.5 11.9-3 8.5-5.2 9.1-12.6 9.1-13.4.1-13.5-16.2-26.8-32.8-26.8z" class="st0"/><path d="M-4.2 5.2c-1.1-1.4-2.2-2.4-3.3-3 0 0-.1 0-.1-.1-.7-.3-1.3-.5-2-.5-1.6 0-3.2 1-4.9 2.8l-.9 1h1.4c3.5 0 6.6.2 9.3.7l1.6.3-1.1-1.2zM-2.8 10.4c-3.8-1-8.9-1.2-11.7-1.2h-2.3l.1.7c1.3 9.2 6.8 13.1 9.9 14.5l.8.4.1-.9c.4-4.4 1.6-8.7 3.5-12.7l.3-.7-.7-.1z" class="st1" transform="translate(64 64)"/><path d="M99.9 123.3c-11.6 0-20.7 9.6-20.7 17.9 0 6.8 6.1 10.4 18.1 10.9h.6v-6.5l-.4-.1c-4-1.3-7.1-5.8-7.1-9 0-1.9 1-3.3 2.9-3.9 1.3-.4 3-.5 4.6-.5h3.8c1.6 0 3.3 0 4.6.5 1.8.6 2.9 2 2.9 3.9 0 3.2-3 7.7-7.1 9l-.4.1v6.5h.6c12-.4 18.1-4.1 18.1-10.9.1-8.3-8.9-17.9-20.5-17.9z" class="st0"/><path fill="#ffebd2" d="M99.9 155c-7 0-12.8-.9-17.4-2.7l-1-.4.1 1.2c.2 4.1 1 7.5 2.3 10.3v.2c.2.2.3.5.4.7v.2c2.9 5.2 8.1 7.8 15.5 7.8s12.6-2.6 15.5-7.8v-.2c.1-.3.2-.5.4-.7v-.2c1.3-2.8 2.1-6.2 2.3-10.3l.1-1.2-1 .4c-4.4 1.8-10.2 2.7-17.2 2.7z"/><path fill="#464655" d="M105.1 136c-.6-.2-1.6-.2-3.3-.2H98c-1.6 0-2.7.1-3.3.2l-.5.1.1.5c.2 1.8 2.7 5.4 5.6 5.4s5.4-3.5 5.6-5.4l.1-.5-.5-.1z"/><path fill="#9f8976" d="M134.5 77.3l-.2-.4-.4.1c-1.3.2-3.4.4-5.8.4-5.4 0-10.1-1.2-13.9-3.5-10.5-6.5-10.9-16.2-10.9-16.6v-.7h-6.5v.7c0 .4-.4 10.1-10.9 16.6-3.8 2.3-8.5 3.5-13.9 3.5-2.5 0-4.6-.3-6-.5l-.5-.1-.2.4c-2.4 4.6-3.6 9.8-3.6 15.1 0 12.6 4.8 45.9 5 47.3 1.3 8 3.2 13.3 5.9 16.9 2.1 2.7 4.7 4.6 8.1 5.6l1.1.3-.3-1.1c-.6-2.4-1-5-1-8 0-.2 0-.4.1-.6l.1-.4-.4-.3c-3.2-2.5-4.9-5.8-4.9-10 0-5.3 2.6-10.7 7.2-14.9 4.8-4.4 10.9-6.8 17.2-6.8 6.3 0 12.4 2.4 17.2 6.8 4.6 4.2 7.2 9.6 7.2 14.9 0 4.2-1.6 7.5-4.9 10l-.4.3.1.4c.1.2.1.4.1.6 0 2.9-.3 5.6-1 8l-.3 1.1 1.1-.3c3.4-1 6.1-2.8 8.1-5.6 2.7-3.6 4.6-9 5.9-16.9.2-1.4 5-34.7 5-47.3.2-5.2-1.1-10.4-3.4-15z"/><path d="M86.1 5.5h1.4l-.9-1c-1.7-1.9-3.3-2.8-4.9-2.8-.6 0-1.3.2-2 .5 0 0-.1 0-.1.1-1.1.6-2.2 1.6-3.3 3l-1 1.3 1.6-.3c2.6-.6 5.7-.8 9.2-.8zM88.1 9.3h-1.6c-2.8 0-8 .2-11.9 1.3l-.7.2.3.7c1.9 4 3.1 8.3 3.5 12.7l.1.9.8-.4c3.2-1.4 8.8-5.2 10.1-14.7l.1-.7h-.7z" class="st1" transform="translate(64 64)"/><path d="M169.3 72.3c.3-.2.7-.4 1.1-.4.6 0 1.1.3 1.5.7.8 1.1 1.5 2.2 2.2 3.4l1.2-.4c-.8-9.5-3.1-18.3-6.8-26.1-2-4.2-4.4-7.9-7.2-10.8-3-2.6-5.9-3.9-8.5-3.9-3 0-5.1 1.6-6.5 2.8-.3.3-.8.5-1.3.5s-1-.2-1.4-.6c-.3-.4-.5-.9-.5-1.4s.2-1 .6-1.3c1.5-1.4 3.2-2.4 4.9-3l1.7-.6-1.8-.5c-2.8-.9-5.7-1.3-8.7-1.3-16.6 0-32.9 13.3-32.9 26.9 0 .8.6 8.2 9.1 13.4 4 2.4 8.7 3 11.9 3 .7 0 1.4 0 2.1-.1h.6V72c0-7.5 2.2-19.8 7.1-29.1.3-.6 1-1 1.7-1 .3 0 .6.1.9.2.4.2.8.6.9 1.1.1.5.1 1-.1 1.4-3.3 6.3-5.9 15.7-6.5 23.9l1.1.4c1.9-3 4-5 6.1-6.1 1.9-1.1 4.4-1.7 7.3-1.7 4.7 0 10 1.5 14.4 4.2.4.3.7.7.8 1.2s0 1-.2 1.4c-.3.6-.9.9-1.6.9-.3 0-.7-.1-1-.3-2.3-1.4-4.8-2.4-7.4-3l-1.8-.4 1.2 1.5.2.2c3.8 4.7 6.8 12.8 8.4 22.1 1.7 9.8 1.5 19.7-.3 28-.5 2.2-2 8.9-6.5 8.9-.3 0-.6 0-.9-.1l-1.2-.3.5 1.1c1.2 2.8 2.8 4.2 4.7 4.2 1 0 2-.3 3.3-1 3.1-1.7 9-11.2 12-27.4v-.1c1.9-11.1.2-20.5-4.9-27.3-.5-.8-.3-2 .5-2.6z" class="st0"/><path d="M127.4 91.9c-2.8 0-5 2.2-5 5s2.2 5 5 5 5-2.2 5-5-2.2-5-5-5zM72.3 91.9c-2.8 0-5 2.2-5 5s2.2 5 5 5 5-2.2 5-5-2.2-5-5-5zM95.1 159.3c-1.4-.1-2.6.9-2.7 2.3-.1 1.4.9 2.6 2.3 2.7 1.6.1 3.4.2 5.2.2 1.8 0 3.6-.1 5.2-.2 1.4-.1 2.4-1.3 2.3-2.7s-1.3-2.4-2.7-2.3c-1.5.1-3.1.2-4.8.2s-3.3-.1-4.8-.2z"/><path d="M172.5 48.2c-6.9-14.7-18.5-22.7-32.6-22.7-17.2 0-33.5 12.2-36.7 26.3h-6.4c-3.2-14.1-19.5-26.3-36.7-26.3-14.1 0-25.7 8.1-32.6 22.7-9.7 20.6-7.9 42.6-6 53.8 2.7 15.8 8.7 29 14.6 32.1 1.8 1 3.6 1.5 5.3 1.5 7.7 0 10.5-10.1 10.9-16 .1-1.2-.7-2.3-1.8-2.6-1.1-.3-2.3.2-2.9 1.3-.9 1.8-2.4 3.5-3.1 3.6-.2-.2-1.3-1.1-2.3-5.5-2.6-11.6-1.3-25.6 2-35.8 1.7 4.9 4.6 8 7 10 2.3 1.8 4.5 2.8 6.1 3.3.4 14.1 4.8 44.7 5 46 2.1 12.7 6.1 24.7 20.9 26.8 3.3 5.1 8.9 7.8 16.6 7.8s13.3-2.7 16.6-7.8c14.9-2.1 18.9-14.1 20.9-26.8.2-1.4 4.6-31.8 5-45.9 1.6-.5 3.9-1.5 6.3-3.4 2.5-1.9 5.3-5.1 7-10 3.3 10.2 4.7 24.2 2 35.8-1 4.4-2.1 5.4-2.3 5.5-.6-.2-2.1-1.8-3.1-3.6-.5-1.1-1.8-1.6-2.9-1.3-1.1.3-1.9 1.4-1.8 2.6.4 6 3.1 16 10.9 16 1.7 0 3.5-.5 5.3-1.5 5.8-3.1 11.8-16.3 14.6-32.1 2.1-11.2 3.9-33.1-5.8-53.8zm-115 40.3c-3.2-1.5-8.3-5.2-9.6-14.1 3.6-.1 9.2.1 13.1 1.2-1.9 4-3.1 8.4-3.5 12.9zm-7.6-19.1c1.1-1.3 2.7-2.6 4.4-2.6.6 0 1.1.1 1.7.4.1 0 .1.1.2.1 1 .5 2.1 1.5 3.1 2.8-3.2-.6-6.7-.7-9.4-.7zm8.5-6.6c-5.2-3.2-14.8-2.1-22.4 2.5-1.2.7-1.6 2.3-.8 3.4.5.8 1.3 1.2 2.1 1.2.4 0 .9-.1 1.3-.4 2.4-1.5 4.9-2.4 7.2-3-.1.1-.1.2-.2.3-3.8 4.8-6.9 13-8.6 22.4-1.7 9.9-1.6 19.9.4 28.2.5 2.3 2.2 9.4 7.1 9.4.4 0 .7 0 1.1-.1-.9 2.1-2.3 3.8-4.1 3.8-.8 0-1.8-.3-3-.9-3-1.6-8.7-11.2-11.7-26.9v-.1c-1.9-10.9-.2-20.2 4.8-26.8.8-1.1.6-2.7-.5-3.5-1.1-.8-2.7-.6-3.5.5-.8 1-1.5 2.2-2.2 3.5.7-8.2 2.6-17.2 6.7-25.9 2-4.2 4.4-7.8 7.1-10.7 7.1-6 11.5-3.5 14.2-1.1 1 .9 2.6.9 3.5-.2.9-1 .9-2.6-.2-3.5-1.2-1.1-3-2.4-5.1-3.2 2.7-.8 5.5-1.3 8.5-1.3 16.3 0 32.2 13 32.3 26.3 0 .4-.5 7.8-8.8 12.9-3.8 2.4-8.4 2.9-11.6 2.9-.7 0-1.4 0-2.1-.1 0-8-2.3-20.2-7.1-29.4-.6-1.2-2.2-1.7-3.4-1-1.2.6-1.7 2.2-1 3.4 3.7 7 5.9 16.4 6.4 23.6-2-3-4.2-5.1-6.4-6.2zm54.6 100c-.2.2-.3.5-.4.8-2.4 4-6.6 5.9-12.7 5.9s-10.3-2-12.7-5.9c-.1-.3-.2-.5-.4-.8-1.1-2.1-1.7-4.8-1.9-8 3.9 1.4 8.9 2.2 15 2.2s11.1-.7 15-2.2c-.2 3.2-.8 5.8-1.9 8zm-18.1-25.7c.5-.1 1.5-.2 3.1-.2h3.8c.6 0 2.3 0 3.1.2-.2 1.6-2.5 4.8-5 4.8s-4.8-3.1-5-4.8zm7.5 14.8v-5.4c4.4-1.4 7.5-6.3 7.5-9.6 0-2.2-1.2-3.8-3.3-4.5-1.4-.5-3.1-.5-4.8-.5H98c-1.7 0-3.4 0-4.8.5-2.1.7-3.3 2.3-3.3 4.5 0 3.3 3.1 8.2 7.5 9.6v5.4c-11.6-.4-17.5-3.9-17.5-10.2 0-8 8.8-17.3 20-17.3 11.3 0 20 9.3 20 17.3 0 6.4-5.9 9.8-17.5 10.2zm30.1-12.8c-1.3 7.9-3.1 13.1-5.7 16.7-2 2.6-4.5 4.4-7.8 5.3.7-2.4 1-5.1 1-8.1 0-.3 0-.5-.1-.8 3.4-2.6 5.1-6.1 5.1-10.5 0-5.4-2.7-11-7.4-15.3-4.9-4.5-11.1-6.9-17.6-6.9s-12.7 2.5-17.6 6.9c-4.7 4.3-7.4 9.9-7.4 15.3 0 4.3 1.8 7.9 5.1 10.5-.1.2-.1.5-.1.8 0 3 .3 5.7 1 8.1-3.3-1-5.8-2.7-7.8-5.3-2.6-3.5-4.5-8.8-5.7-16.7-.1-1-5-34.7-5-47.2 0-5.2 1.2-10.2 3.5-14.8 1.4.2 3.5.5 6.1.5 5.6 0 10.4-1.2 14.2-3.6C97 67.3 97.4 57.3 97.4 56.9v-.1h5.2v.1c0 .4.4 10.4 11.2 17.1 3.9 2.4 8.7 3.6 14.2 3.6 2.4 0 4.5-.2 5.9-.5 2.3 4.5 3.5 9.6 3.5 14.7 0 12.6-4.8 46.2-4.9 47.3zm9.8-50.5c-.4-4.5-1.6-8.9-3.5-13 4-1.1 9.6-1.3 13.3-1.2-1.3 9.1-6.6 12.7-9.8 14.2zm-1.6-18.5c1.1-1.3 2.1-2.3 3.1-2.8.1 0 .1-.1.2-.1.6-.3 1.2-.4 1.7-.4 1.7 0 3.3 1.3 4.4 2.6-2.7 0-6.2.1-9.4.7zm27.7 5.7c5 6.7 6.7 15.9 4.8 26.8v.1c-3 15.7-8.7 25.3-11.7 26.9-1.1.6-2.1.9-3 .9-1.9 0-3.2-1.7-4.1-3.8.3.1.7.1 1.1.1 5 0 6.6-7.1 7.1-9.4 1.9-8.3 2-18.4.4-28.2-1.6-9.4-4.7-17.6-8.6-22.4-.1-.1-.1-.2-.2-.3 2.3.6 4.8 1.5 7.2 3 .4.2.9.4 1.3.4.8 0 1.7-.4 2.1-1.2.7-1.2.3-2.7-.8-3.4-7.6-4.6-17.2-5.7-22.4-2.5-2.2 1.1-4.4 3.3-6.4 6.3.5-7.2 2.8-16.6 6.4-23.6.6-1.2.2-2.7-1-3.4-1.2-.6-2.7-.2-3.4 1-4.8 9.2-7.2 21.4-7.1 29.4-.6 0-1.3.1-2.1.1-3.2 0-7.8-.5-11.6-2.9-8.3-5.1-8.8-12.4-8.8-12.9 0-13.3 16-26.3 32.3-26.3 3 0 5.8.4 8.5 1.3-2.1.8-3.8 2-5.1 3.2-1 .9-1.1 2.5-.2 3.5.9 1 2.5 1.1 3.5.2 2.7-2.5 7.1-5 14.2 1.1 2.8 2.9 5.2 6.5 7.1 10.7 4.1 8.7 6 17.7 6.7 25.9-.7-1.3-1.5-2.5-2.2-3.5-.8-1.1-2.4-1.3-3.5-.5s-1.3 2.3-.5 3.4z"/></svg>