<svg xmlns="http://www.w3.org/2000/svg" viewBox="0 0 200 200"><path fill="#1aab9b" d="M100 5C47.5 5 5 47.5 5 100s42.5 95 95 95 95-42.5 95-95-42.5-95-95-95zm-4.6 126.8c0 2.1-1.9 3.9-4.2 3.9-2.3 0-4.2-1.8-4.2-4V99.8L52.6 76.1v55.6c0 2.2-1.8 4-4.2 4-2.3 0-4.2-1.8-4.2-4V68.3c0-2.2 1.8-4 4.2-4 .9 0 1.7.3 2.4.8l42.8 29.6c1.1.7 1.8 1.9 1.8 3.2v33.9zm60.3-.1c0 2.2-1.8 4-4.2 4-2.3 0-4.2-1.8-4.2-4V76.1L113 99.8v31.9c0 2.2-1.9 4-4.2 4-2.3 0-4.2-1.8-4.2-4V97.8c0-1.3.7-2.5 1.8-3.2l42.7-29.5c.7-.5 1.5-.8 2.4-.8 2 0 4.2 1.5 4.2 4v63.4z"/></svg>