<svg xmlns="http://www.w3.org/2000/svg" version="1" viewBox="0 0 200 200"><path fill="#2775CA" d="M100 195c52.46 0 95-42.54 95-95S152.46 5 100 5 5 47.54 5 100s42.54 95 95 95z"/><g fill="#FFF"><path d="M126.04 115.11c0-13.87-8.44-18.55-24.76-20.78-12.03-1.75-14.37-4.57-14.37-10.19 0-5.34 4.07-9.12 11.94-9.12 7.12 0 11.2 2.49 12.89 8.2.38 1.28 1.52 2.19 2.85 2.19h6.24c1.73 0 3.09-1.6 2.73-3.3-1.98-9.05-8.07-14.48-17.63-16.18v-9.45c0-1.64-1.33-2.97-2.97-2.97h-5.94c-1.64 0-2.97 1.33-2.97 2.97v9.2c-11.78 1.67-19.38 9.5-19.38 19.56 0 13.01 7.86 18.05 24.46 20.28 11.26 1.84 14.46 4.27 14.46 10.68s-5.44 10.68-13.1 10.68c-10.36 0-13.78-4.54-15.03-10.4-.3-1.39-1.49-2.41-2.91-2.41h-6.77c-1.7 0-3.05 1.54-2.74 3.21 1.72 9.88 8.07 17.13 21.02 18.89v9.38c0 1.64 1.33 2.97 2.97 2.97h5.94c1.64 0 2.97-1.33 2.97-2.97v-9.38c12.26-1.97 20.1-10.5 20.1-21.06z"/><path d="M79.64 156.76c-22.74-8.32-39.01-30.19-39.01-55.78S56.9 53.54 79.64 45.2c1.42-.51 2.55-2.23 2.55-3.74v-5.53c0-2.25-1.75-3.51-3.89-2.83-28.74 9.2-49.55 36.12-49.55 67.9s20.81 58.7 49.55 67.89c2.14.68 3.89-.59 3.89-2.83v-5.53c0-1.54-1.13-3.24-2.55-3.77zM121.71 33.11c-2.14-.68-3.89.59-3.89 2.83v5.53c0 1.51 1.13 3.23 2.55 3.74 22.74 8.32 39.01 30.19 39.01 55.78s-16.27 47.44-39.01 55.78c-1.55.57-2.55 2.1-2.55 3.74v5.53c0 2.25 1.75 3.51 3.89 2.83 28.74-9.18 49.55-36.1 49.55-67.89s-20.82-58.69-49.55-67.87z"/></g></svg>