<?xml version="1.0" encoding="utf-8"?>
<!-- Generator: Adobe Illustrator 22.1.0, SVG Export Plug-In . SVG Version: 6.00 Build 0)  -->
<svg version="1.0" id="Livello_1" xmlns="http://www.w3.org/2000/svg" xmlns:xlink="http://www.w3.org/1999/xlink" x="0px" y="0px"
	 viewBox="0 0 200 200" style="enable-background:new 0 0 200 200;" xml:space="preserve">
<style type="text/css">
	.st0{fill:#F7D509;}
</style>
<g>
	<path d="M100,198c-26.2,0-50.8-10.2-69.3-28.7S2,126.2,2,100s10.2-50.8,28.7-69.3S73.8,2,100,2s50.8,10.2,69.3,28.7
		c38.2,38.2,38.2,100.4,0,138.6C150.8,187.8,126.2,198,100,198z"/>
	<path d="M100,2.5c25,0,49.9,9.5,68.9,28.6c38.1,38.1,38.1,99.8,0,137.9c-19,19-44,28.6-68.9,28.6s-49.9-9.5-68.9-28.6
		C-7,130.9-7,69.1,31.1,31.1C50.1,12,75,2.5,100,2.5 M100,1.5c-26.3,0-51,10.2-69.7,28.8c-38.4,38.4-38.4,100.9,0,139.3
		c18.6,18.6,43.3,28.8,69.7,28.8s51-10.2,69.7-28.8c38.4-38.4,38.4-100.9,0-139.3C151,11.7,126.3,1.5,100,1.5L100,1.5z"/>
</g>
<rect x="93.4" y="93.5" transform="matrix(0.7071 -0.7071 0.7071 0.7071 -41.4431 100.0127)" class="st0" width="13.1" height="13.1"/>
<g>
	<polygon class="st0" points="103.6,87.8 149.2,42.3 157.7,50.8 112.2,96.3 	"/>
	<polygon class="st0" points="42.3,149 87.9,103.4 96.4,112 50.9,157.4 	"/>
	<polygon class="st0" points="111.9,103.6 157.5,149.2 148.9,157.7 103.5,112.3 	"/>
	<polygon class="st0" points="50.8,42.3 96.3,87.9 87.8,96.4 42.3,51 	"/>
</g>
<path d="M100,88.8l11.2,11.2L100,111.2L88.8,100L100,88.8 M100,79.5l-2.4,2.4L81.9,97.6l-2.4,2.4l2.4,2.4l15.6,15.6l2.4,2.4l2.4-2.4
	l15.6-15.6l2.4-2.4l-2.4-2.4l-15.6-15.6L100,79.5L100,79.5z"/>
</svg>
