<?xml version="1.0" encoding="utf-8"?>
<!-- Generator: Adobe Illustrator 22.1.0, SVG Export Plug-In . SVG Version: 6.00 Build 0)  -->
<svg version="1.1" id="Livello_1" xmlns="http://www.w3.org/2000/svg" xmlns:xlink="http://www.w3.org/1999/xlink" x="0px" y="0px"
	 viewBox="0 0 200 200" style="enable-background:new 0 0 200 200;" xml:space="preserve">
<style type="text/css">
	.st0{fill:#F7D509;}
</style>
<path d="M100,195c-25.4,0-49.3-9.9-67.2-27.8S5,125.4,5,100s9.9-49.2,27.8-67.2S74.6,5,100,5s49.3,9.9,67.2,27.8
	c37,37,37,97.3,0,134.4C149.3,185.1,125.4,195,100,195z"/>
<rect x="87.7" y="23.2" transform="matrix(0.707 -0.7072 0.7072 0.707 -41.3726 99.9979)" class="st0" width="24.5" height="153.5"/>
<rect x="23.3" y="87.7" transform="matrix(0.7072 -0.707 0.707 0.7072 -41.4004 100.0291)" class="st0" width="153.5" height="24.5"/>
<g>
	<rect x="85.8" y="85.9" transform="matrix(0.7072 -0.707 0.707 0.7072 -41.4806 99.977)" class="st0" width="28.4" height="28.4"/>
	<path d="M100,82.6l17.4,17.4L100,117.4L82.6,100L100,82.6 M100,77.2l-2.7,2.7L79.9,97.3l-2.7,2.7l2.7,2.7l17.4,17.4l2.7,2.7
		l2.7-2.7l17.4-17.4l2.7-2.7l-2.7-2.7l-17.4-17.4L100,77.2L100,77.2z"/>
</g>
</svg>
