<?xml version="1.0" encoding="utf-8"?>
<!-- Generator: Adobe Illustrator 22.1.0, SVG Export Plug-In . SVG Version: 6.00 Build 0)  -->
<svg version="1.0" id="Livello_1" xmlns="http://www.w3.org/2000/svg" xmlns:xlink="http://www.w3.org/1999/xlink" x="0px" y="0px"
	 viewBox="0 0 200 200" enable-background="new 0 0 200 200" xml:space="preserve">
<circle cx="49.1" cy="24.1" r="5.3"/>
<circle cx="100" cy="48.5" r="5.3"/>
<circle cx="100" cy="175.9" r="5.3"/>
<circle cx="189.7" cy="85.7" r="5.3"/>
<circle cx="10.3" cy="85.7" r="5.3"/>
<circle cx="150.9" cy="24.1" r="5.3"/>
<circle cx="154.1" cy="77.2" r="5.3"/>
<circle cx="44.8" cy="77.2" r="5.3"/>
<path d="M100,180.7c-0.6,0-1.1-0.2-1.5-0.6L7.2,87.7c-0.7-0.7-0.8-1.8-0.3-2.6l39.3-63.7c0.6-0.9,1.8-1.3,2.8-0.8l52,26.5
	c0.7,0.4,1.2,1.1,1.2,1.9v129.5c0,0.9-0.5,1.6-1.3,2C100.5,180.6,100.3,180.7,100,180.7z M11.4,85.9l86.5,87.5v-123L48.8,25.3
	L11.4,85.9z"/>
<path d="M100,180.7c0.6,0,1.1-0.2,1.5-0.6l91.3-92.3c0.7-0.7,0.8-1.8,0.3-2.6l-39.3-63.7c-0.6-0.9-1.8-1.3-2.8-0.8L99,47.2
	c-0.7,0.4-1.2,1.1-1.2,1.9v129.5c0,0.9,0.5,1.6,1.3,2C99.5,180.6,99.7,180.7,100,180.7z M188.6,85.9l-86.5,87.5v-123l49.1-25.1
	L188.6,85.9z"/>
<path d="M100,180c-0.7,0-1.4-0.4-1.8-1L43.1,78.1c-0.2-0.3-0.3-0.7-0.2-1.1l4.2-53.1c0.1-0.8,0.6-1.5,1.3-1.7
	c0.7-0.3,1.6-0.1,2.1,0.5L100,74.3l50.6-51.6c0.6-0.6,1.4-0.8,2.1-0.5c0.7,0.3,1.2,1,1.3,1.8l2.1,53.1c0,0.4-0.1,0.7-0.2,1
	L101.8,179C101.4,179.6,100.7,180,100,180C100,180,100,180,100,180z M46.8,76.7l53.1,97.1l52.1-97.1l-1.9-47.9l-48.8,49.8
	c-0.4,0.4-0.9,0.6-1.4,0.6c-0.5,0-1.1-0.2-1.4-0.6L50.7,28.7L46.8,76.7z"/>
<polygon points="190.8,88.7 156,79.2 44,79.2 11.4,88.7 10.3,84.8 43.5,75.2 156.5,75.2 191.8,84.8 "/>
</svg>
