<svg xmlns="http://www.w3.org/2000/svg" id="Layer_1" x="0" y="0" version="1.1" viewBox="0 0 200 200" xml:space="preserve"><style>.st2{fill:#2844ad}.st3{fill:#5493f7}.st5{fill:#b12234}.st6{fill:#fefefe}.st7{fill:#fdfdfd}</style><path fill="#112451" d="M100 195c-52.5 0-95-42.5-95-95S47.5 5 100 5s95 42.5 95 95-42.5 95-95 95z" opacity=".98"/><path d="M103.9 113.4s-12.5 6.5-11.9 16.8c.6 10.3 14.4 25.9 22.7 22.8 8.3-3.1 31.5-16.5 33.8-29.7s-20.7-19.7-20.7-19.7l-23.9 9.8zM136 57.4C120.5 44.7 99.1 42 80.9 50.5L67.5 69.7c1.3 4.4 4.7 7.8 9.1 9.1 7.7 2.6 41.1-10.3 41.1-10.3L136 57.4z" class="st2"/><path d="M48.2 76.2s11.3-20.7 26.4-25.5 12.9 10.3 0 16.4-21.1 9.6-26.4 9.1zM46.1 82.7s-17.3 48.6 30.2 70.8c0 0 3.7-19.4-3-31.7-5-9.8-11-19.1-17.9-27.7-3.4-3.6-6.5-7.4-9.3-11.4zM136.5 57.7c6.9 5.3 12.4 12.3 15.7 20.4 5.5 13.2 6.3 27.9 2.3 41.6-3 8-7.7 5.9-17.8 3.8-10.1-2.1-48.5-12.9-58.4-26.1S76 73.6 88.8 66.8s39.2-14.3 47.7-9.1z" class="st3"/><path fill="#3c3b6e" d="M83 118.5l28.4-2v21.4L83 139.6v-21.1z"/><path d="M154 150.7v2.9l-71 4.3V155c0 .1 70.8-4.3 71-4.3z" class="st5"/><path d="M154 150.7l-71 4.4V152s70.9-4.4 71-4.3v3zM154 141.6v3.1s-70.9 4.4-71 4.3v-3l71-4.4s-.1 0 0 0z" class="st6"/><path d="M154 141.6l-71 4.3v-3.1l71-4.3s-.2 0 0 0v3.1z" class="st5"/><path d="M154 138.5l-71 4.3v-3.2l71-4.2s-.2 0 0 0v3.1z" class="st6"/><path d="M83 148.9l71-4.3v3L83 152v-3.1zM111.4 119.6v-3.1l42.6-2.6v3l-42.6 2.7s.1.1 0 0z" class="st5"/><path d="M111.4 119.6l5.2-.4 37.4-2.3v3.1l-42.6 2.7c-.1.1.1.1 0 0v-3.1zM111.4 134.9v-3.1l42.6-2.6s-.1 0 0 0v3.1l-42.6 2.6s0 .1 0 0z" class="st6"/><path d="M154 129.2l-42.6 2.6v-3.1l42.6-2.6s-.1 0 0 0v3.1z" class="st5"/><path d="M154 126.2l-7.7.5-35 2.1v-3l42.6-2.6v3z" class="st6"/><path d="M111.4 134.9l42.6-2.6v3.1l-42.6 2.5v-3zM154 123.1l-42.6 2.6v-3l13.8-.8L154 120v3.1z" class="st5"/><path d="M84.5 119.1c.1.2.4.6.4.6h.8l-.6.5s.2.5.3.7l-.7-.2-.5.4v-.6l-.6-.4s.4-.1.7-.2c0-.3.1-.5.2-.8zM89 119.2c.1.2.4.6.4.6h.8l-.6.5s.2.5.3.7l-.7-.2-.5.4v-.6l-.6-.4s.4-.1.7-.2c.1-.4.1-.5.2-.8zM94.2 118.9c.1.2.4.6.4.6h.8l-.6.5s.2.5.3.7l-.7-.2-.5.4v-.6l-.6-.4s.4-.1.7-.2c0-.4.1-.5.2-.8zM98.5 118.1c.1.2.4.6.4.6h.8l-.6.5s.2.5.3.7l-.7-.2-.5.4v-.6l-.6-.4s.4-.1.7-.2c0-.4.1-.6.2-.8zM104 118.1c.1.2.4.6.4.6h.8l-.6.5s.2.5.3.7l-.7-.2-.5.4v-.6l-.6-.4s.4-.1.7-.2c.1-.4.1-.5.2-.8zM108.8 118c.1.2.4.6.4.6h.8l-.6.5s.2.5.3.7l-.7-.2-.5.4v-.6l-.6-.4s.4-.1.7-.2c0-.4.1-.6.2-.8zM84.7 123.5c.1.2.4.6.4.6h.8l-.6.5s.2.5.3.7l-.7-.2-.5.4v-.6l-.6-.4s.4-.1.7-.2c.1-.4.2-.5.2-.8zM89.4 123c.1.2.4.6.4.6h.8l-.6.5s.2.5.3.7l-.7-.2-.5.4v-.6l-.6-.4s.4-.1.7-.2c.1-.4.1-.5.2-.8zM93.9 122.9c.1.2.4.6.4.6h.8l-.6.5s.2.5.3.7l-.7-.2-.5.4v-.6l-.6-.4s.4-.1.7-.2c.1-.4.2-.5.2-.8zM98.9 122.4c.1.2.4.6.4.6h.8l-.6.5s.2.5.3.7l-.7-.2-.5.4v-.6l-.6-.4s.4-.1.7-.2c.1-.4.2-.5.2-.8zM104.2 122.5c.1.2.4.6.4.6h.8l-.6.5s.2.5.3.7l-.7-.2-.5.4v-.6l-.6-.4s.4-.1.7-.2c.1-.4.1-.6.2-.8zM109 122.3c.1.2.4.6.4.6h.8l-.6.5s.2.5.3.7l-.7-.2-.5.4v-.6l-.6-.4s.4-.1.7-.2c.1-.4.1-.6.2-.8zM87.1 121.5c.1.2.4.6.4.6h.8l-.6.5s.2.5.3.7l-.7-.2-.5.4v-.6l-.6-.4s.4-.1.7-.2c0-.4.1-.5.2-.8zM92 121c.1.2.4.6.4.6h.8l-.6.5s.2.5.3.7l-.7-.2-.5.4v-.6l-.6-.4s.4-.1.7-.2c.1-.3.1-.5.2-.8zM96 120.9c.1.2.4.6.4.6h.8l-.6.5s.2.5.3.7l-.7-.2-.5.4v-.6l-.6-.4s.4-.1.7-.2c0-.4.1-.5.2-.8zM101.2 120.1c.1.2.4.6.4.6h.8l-.6.5s.2.5.3.7l-.7-.2-.5.4v-.6l-.6-.4s.4-.1.7-.2c.1-.4.2-.5.2-.8zM106.3 120.2c.1.2.4.6.4.6h.8l-.6.5s.2.5.3.7l-.7-.2-.5.4v-.6l-.6-.4s.4-.1.7-.2c0-.4.1-.5.2-.8zM86.4 125.7c.1.2.4.6.4.6h.8l-.6.5s.2.5.3.7l-.7-.2-.5.4v-.7l-.6-.4s.4-.1.7-.2c.1-.3.1-.4.2-.7zM91.7 124.9c.1.2.4.6.4.6h.8l-.6.5s.2.5.3.7l-.7-.2-.5.4v-.6l-.6-.4s.4-.1.7-.2c.1-.4.1-.5.2-.8zM96.9 125.1c.1.2.4.6.4.6h.8l-.6.5s.2.5.3.7l-.7-.2-.5.4v-.6l-.6-.4s.4-.1.7-.2c0-.3.1-.5.2-.8zM101.7 124.5c.1.2.4.6.4.6h.8l-.6.5s.2.5.3.7l-.7-.2-.5.4v-.6l-.6-.4s.4-.1.7-.2c0-.4.1-.5.2-.8zM106.3 124.2c.1.2.4.6.4.6h.8l-.6.5s.2.5.3.7l-.7-.2-.5.4v-.6l-.6-.4s.4-.1.7-.2c0-.4.1-.5.2-.8zM84.9 127.8c.1.2.4.6.4.6h.8l-.6.5s.2.5.3.7l-.7-.2-.5.4v-.6l-.6-.4s.4-.1.7-.2c0-.4.1-.5.2-.8zM89.4 127.6c.1.2.4.6.4.6h.8l-.6.5s.2.5.3.7l-.7-.2-.5.4v-.6l-.6-.4s.4-.1.7-.2c0-.4.1-.5.2-.8zM93.9 127.3c.1.2.4.6.4.6h.8l-.6.5s.2.5.3.7l-.7-.2-.5.4v-.6l-.6-.4s.4-.1.7-.2c.1-.4.2-.6.2-.8zM99.1 127c.1.2.4.6.4.6h.8l-.6.5s.2.5.3.7l-.7-.2-.5.4v-.6l-.6-.4s.4-.1.7-.2c0-.4.1-.6.2-.8zM104.1 126.7c.1.2.4.6.4.6h.8l-.6.5s.2.5.3.7l-.7-.2-.5.4v-.6l-.6-.4s.4-.1.7-.2c.1-.3.2-.5.2-.8zM109.2 126.4c.1.2.4.6.4.6h.8l-.6.5s.2.5.3.7l-.7-.2-.5.4v-.6l-.6-.4s.4-.1.7-.2c0-.4.1-.5.2-.8zM87.6 130c.1.2.4.6.4.6h.8l-.6.5s.2.5.3.7l-.7-.2-.5.4v-.6l-.6-.4s.4-.1.7-.2c.1-.4.1-.5.2-.8zM91.4 129.3c.1.2.4.6.4.6h.8l-.6.5s.2.5.3.7l-.7-.2-.5.4v-.6l-.6-.4s.4-.1.7-.2c.1-.4.2-.5.2-.8zM96.5 129.5c.1.2.4.6.4.6h.8l-.6.5s.2.5.3.7l-.7-.2-.5.4v-.6l-.6-.4s.4-.1.7-.2c.1-.4.2-.6.2-.8zM100.9 128.9c.1.2.4.6.4.6h.8l-.6.5s.2.5.3.7l-.7-.2-.5.4v-.6l-.6-.4s.4-.1.7-.2c.1-.4.2-.6.2-.8zM106.7 128.9c.1.2.4.6.4.6h.8l-.6.5s.2.5.3.7l-.7-.2-.5.4v-.6l-.6-.4s.4-.1.7-.2c0-.4.1-.6.2-.8zM84.9 132c.1.2.4.6.4.6h.8l-.6.5s.2.5.3.7l-.7-.2-.5.4v-.6l-.6-.4s.4-.1.7-.2c0-.4.1-.5.2-.8zM89.5 132.1c.1.2.4.6.4.6h.8l-.6.5s.2.5.3.7l-.7-.2-.5.4v-.6l-.6-.4s.4-.1.7-.2c0-.4.1-.5.2-.8zM94.4 131.8c.1.2.4.6.4.6h.8l-.6.5s.2.5.3.7l-.7-.2-.5.4v-.6l-.6-.4s.4-.1.7-.2c.1-.4.1-.6.2-.8zM98.7 131.6c.1.2.4.6.4.6h.8l-.6.5s.2.5.3.7l-.7-.2-.5.4v-.6l-.6-.4s.4-.1.7-.2c0-.4.1-.6.2-.8zM103.7 130.9c.1.2.4.6.4.6h.8l-.6.5s.2.5.3.7l-.7-.2-.5.4v-.6l-.6-.4s.4-.1.7-.2c.1-.4.1-.5.2-.8zM108.8 130.6c.1.2.4.6.4.6h.8l-.6.5s.2.5.3.7l-.7-.2-.5.4v-.6l-.6-.4s.4-.1.7-.2c0-.4.1-.5.2-.8zM87 134.2c.1.2.4.6.4.6h.8l-.6.5s.2.5.3.7l-.7-.2-.5.4v-.6l-.6-.4s.4-.1.7-.2c.1-.4.1-.5.2-.8zM92.3 133.8c.1.2.4.6.4.6h.8l-.6.5s.2.5.3.7l-.7-.2-.5.4v-.6l-.6-.4s.4-.1.7-.2c0-.4.1-.5.2-.8zM97 133.5c.1.2.4.6.4.6h.8l-.6.5s.2.5.3.7l-.7-.2-.5.4v-.6l-.6-.4s.4-.1.7-.2c.1-.4.1-.6.2-.8zM102 133.2c.1.2.4.6.4.6h.8l-.6.5s.2.5.3.7l-.7-.2-.5.4v-.6l-.6-.4s.4-.1.7-.2c0-.3.1-.5.2-.8zM105.7 133.2c.1.2.4.6.4.6h.8l-.6.5s.2.5.3.7l-.7-.2-.5.4v-.6l-.6-.4s.4-.1.7-.2c.1-.4.1-.6.2-.8zM84.5 136.3c.1.2.4.6.4.6h.8l-.6.5s.2.5.3.7l-.7-.2-.5.4v-.6l-.6-.4s.4-.1.7-.2c0-.4.1-.5.2-.8zM89.5 136c.1.2.4.6.4.6h.8l-.6.5s.2.5.3.7l-.7-.2-.5.4v-.6l-.6-.4s.4-.1.7-.2c0-.4.1-.5.2-.8zM94.5 136c.1.2.4.6.4.6h.8l-.6.5s.2.5.3.7l-.7-.2-.5.4v-.6l-.6-.4s.4-.1.7-.2c.1-.4.1-.5.2-.8zM99.4 135.6c.1.2.4.6.4.6h.8l-.6.5s.2.5.3.7l-.7-.2-.5.4v-.6l-.6-.4s.4-.1.7-.2c.1-.4.1-.5.2-.8zM104.7 135.5c.1.2.4.6.4.6h.8l-.6.5s.2.5.3.7l-.7-.2-.5.4v-.6l-.6-.4s.4-.1.7-.2c0-.4.1-.5.2-.8zM109 135.1c.1.2.4.6.4.6h.8l-.6.5s.2.5.3.7l-.7-.2-.5.4v-.6l-.6-.4s.4-.1.7-.2c.1-.4.1-.6.2-.8z" class="st7"/></svg>