<?xml version="1.0" encoding="utf-8"?>
<!-- Generator: Adobe Illustrator 22.1.0, SVG Export Plug-In . SVG Version: 6.00 Build 0)  -->
<svg version="1.0" id="_ÎÓÈ_1" xmlns="http://www.w3.org/2000/svg" xmlns:xlink="http://www.w3.org/1999/xlink" x="0px" y="0px"
	 viewBox="0 0 200 200" style="enable-background:new 0 0 200 200;" xml:space="preserve">
<style type="text/css">
	.st0{fill:#4BC0C8;}
	.st1{fill:#01819B;}
</style>
<path class="st0" d="M149.2,184.2L19.3,93.1C4.1,82.4,0.4,61.4,11.1,46.2c2.2-3.2,5-6,8.2-8.2l31.5-22.1l129.8,91.1
	c15.2,10.7,18.9,31.7,8.2,46.9c-2.2,3.2-5,6-8.2,8.2L149.2,184.2z M50.8,30.6L26.3,47.8c-9.8,6.8-12.2,20.3-5.3,30.1
	c1.5,2.1,3.3,3.9,5.3,5.3l123,86.2l24.5-17.2c9.8-6.8,12.2-20.3,5.3-30.1c-1.5-2.1-3.3-3.9-5.3-5.3L50.8,30.6z"/>
<path class="st1" d="M50.7,169.4l-24.5-17.2c-9.8-6.8-12.2-20.3-5.3-30.1c1.5-2.1,3.3-3.9,5.3-5.3l63.4-44.2l-10.4-7.3l-59.8,41.7
	c-15.2,10.7-18.9,31.7-8.2,46.9c2.2,3.2,5,6,8.2,8.2l31.4,22l38.8-27.1l-10.4-7.3L50.7,169.4z M180.7,38l-31.4-22l-38.8,27.2
	l10.4,7.3l28.4-19.9l24.5,17.2c9.8,6.8,12.2,20.3,5.3,30.1c-1.5,2.1-3.3,3.9-5.3,5.3l-63.4,44.2l10.4,7.3L180.7,93
	c15.2-10.7,18.9-31.7,8.2-46.9C186.7,42.9,183.9,40.2,180.7,38L180.7,38z"/>
</svg>
