<?xml version="1.0" encoding="utf-8"?>
<!-- Generator: Adobe Illustrator 22.1.0, SVG Export Plug-In . SVG Version: 6.00 Build 0)  -->
<svg version="1.1" id="Layer_1" xmlns="http://www.w3.org/2000/svg" xmlns:xlink="http://www.w3.org/1999/xlink" x="0px" y="0px"
	 viewBox="0 0 200 200" style="enable-background:new 0 0 200 200;" xml:space="preserve">
<style type="text/css">
	.st0{fill:#142D51;}
	.st1{fill:#00B6FA;}
	.st2{clip-path:url(#SVGID_2_);fill:url(#XMLID_2_);}
	.st3{clip-path:url(#SVGID_4_);fill:url(#XMLID_3_);}
	.st4{clip-path:url(#SVGID_6_);fill:url(#XMLID_4_);}
	.st5{clip-path:url(#SVGID_8_);fill:url(#XMLID_5_);}
	.st6{clip-path:url(#SVGID_10_);fill:url(#XMLID_6_);}
</style>
<g id="XMLID_59_">
	<path class="st0" d="M186.5,4.9v72.9c0,15.2,1.4,43.5-11.5,65.3c-16.6,27.8-46.7,49-76.1,51.5C69.4,192,39.3,170.8,22.7,143
		C9.8,121.3,11.2,92.8,11.2,77.6V4.9H186.5z"/>
	<path class="st1" d="M98.9,195.7L98.9,195.7c-29.1-2.7-60-23.7-77-52.2c-12-20.1-11.8-46.2-11.7-61.8c0-1.4,0-2.8,0-4V4h177.3v73.9
		c0,1.3,0,2.6,0,4c0.1,15.5,0.3,41.5-11.7,61.8C158.8,172.3,127.9,193.2,98.9,195.7L98.9,195.7z M12.2,6v71.7c0,1.3,0,2.6,0,4.1
		c-0.1,15.4-0.3,41.2,11.4,60.8c16.6,28,46.9,48.6,75.3,51.3c28.3-2.5,58.6-23,75.3-51c11.7-19.8,11.5-45.4,11.4-60.8
		c0-1.4,0-2.8,0-4V6H12.2z"/>
</g>
<g>
	<defs>
		<path id="SVGID_1_" d="M152.5,111.9c-0.9,5.1-17.7,40.7-50.1,46.5c-13.1,2.3-15,6-11.7,9.4c2.8,0.7,5.5,1.2,8.3,1.4
			c21.2-1.8,43-17.3,55.2-37.7c3-5.3,5.1-11,6.2-16.8c-2.1-2.5-4.4-4.8-6-4.8C153.4,109.8,152.9,110.3,152.5,111.9"/>
	</defs>
	<clipPath id="SVGID_2_">
		<use xlink:href="#SVGID_1_"  style="overflow:visible;"/>
	</clipPath>
	
		<linearGradient id="XMLID_2_" gradientUnits="userSpaceOnUse" x1="86.9849" y1="67.7359" x2="90.2963" y2="67.7359" gradientTransform="matrix(23.1773 0 0 23.1773 -1926.8143 -1430.3066)">
		<stop  offset="0" style="stop-color:#01AAE4"/>
		<stop  offset="1" style="stop-color:#1F96F4"/>
	</linearGradient>
	<rect id="XMLID_55_" x="87.4" y="109.8" class="st2" width="72.7" height="59.6"/>
</g>
<g>
	<defs>
		<rect id="SVGID_3_" x="50.8" y="30" width="101.2" height="10.4"/>
	</defs>
	<clipPath id="SVGID_4_">
		<use xlink:href="#SVGID_3_"  style="overflow:visible;"/>
	</clipPath>
	
		<linearGradient id="XMLID_3_" gradientUnits="userSpaceOnUse" x1="86.6718" y1="64.9348" x2="89.9832" y2="64.9348" gradientTransform="matrix(30.5289 0 0 30.5289 -2595.2014 -1947.1901)">
		<stop  offset="0" style="stop-color:#01AAE4"/>
		<stop  offset="1" style="stop-color:#1F96F4"/>
	</linearGradient>
	<rect id="XMLID_52_" x="50.8" y="30" class="st3" width="101.2" height="10.4"/>
</g>
<g>
	<defs>
		<path id="SVGID_5_" d="M35.2,30v38l106.3,79.6c4.8-4.8,9-10.1,12.4-16.1c4.8-8.1,6.9-17.5,7.8-26.2L60.9,30H35.2z"/>
	</defs>
	<clipPath id="SVGID_6_">
		<use xlink:href="#SVGID_5_"  style="overflow:visible;"/>
	</clipPath>
	
		<linearGradient id="XMLID_4_" gradientUnits="userSpaceOnUse" x1="87.5165" y1="65.9172" x2="90.828" y2="65.9172" gradientTransform="matrix(68.2215 0 0 68.2215 -5981.1396 -4408.1748)">
		<stop  offset="0" style="stop-color:#01AAE4"/>
		<stop  offset="1" style="stop-color:#1F96F4"/>
	</linearGradient>
	<rect id="XMLID_49_" x="35.2" y="30" class="st4" width="126.3" height="117.5"/>
</g>
<g>
	<defs>
		<path id="SVGID_7_" d="M76.8,30L162.1,94c0-3.9,0-7.6,0-10.6V29.8H76.8V30z"/>
	</defs>
	<clipPath id="SVGID_8_">
		<use xlink:href="#SVGID_7_"  style="overflow:visible;"/>
	</clipPath>
	
		<linearGradient id="XMLID_5_" gradientUnits="userSpaceOnUse" x1="88.057" y1="65.8061" x2="91.3684" y2="65.8061" gradientTransform="matrix(78.4981 0 0 78.4981 -6888.9722 -5103.6553)">
		<stop  offset="0" style="stop-color:#01AAE4"/>
		<stop  offset="1" style="stop-color:#1F96F4"/>
	</linearGradient>
	<rect id="XMLID_46_" x="76.8" y="30" class="st5" width="85.6" height="63.9"/>
</g>
<g>
	<defs>
		<path id="SVGID_9_" d="M35.2,83.6c0,11-0.9,32,8.5,47.8c12,20.5,33.8,35.9,55.2,37.7c12.2-1.2,24.6-6.7,35.2-15L35.2,80.4V83.6z"
			/>
	</defs>
	<clipPath id="SVGID_10_">
		<use xlink:href="#SVGID_9_"  style="overflow:visible;"/>
	</clipPath>
	
		<linearGradient id="XMLID_6_" gradientUnits="userSpaceOnUse" x1="87.1423" y1="66.0531" x2="90.4539" y2="66.0531" gradientTransform="matrix(82.1759 0 0 82.1759 -7252.0933 -5303.064)">
		<stop  offset="0" style="stop-color:#01AAE4"/>
		<stop  offset="1" style="stop-color:#1F96F4"/>
	</linearGradient>
	<rect id="XMLID_43_" x="34.2" y="80.4" class="st6" width="99.6" height="89"/>
</g>
</svg>
