<svg xmlns="http://www.w3.org/2000/svg" viewBox="0 0 200 200"><path fill="#0034a8" d="M100 197.5c-5.8 0-11.5-1.5-16.5-4.4l-55.9-32.3a33 33 0 0 1-16.5-28.6V67.7c0-11.8 6.3-22.6 16.5-28.5L83.5 6.9a33 33 0 0 1 33 0l55.9 32.2a33 33 0 0 1 16.5 28.6v64.5c0 11.8-6.3 22.7-16.4 28.6l-55.9 32.3a33.5 33.5 0 0 1-16.6 4.4zm-30.4-70.9l-12.4 8.8a27.3 27.3 0 0 0 31.1 10.3 27.4 27.4 0 0 0 19.3-26.4v-10.8l4.1 1.7a27.4 27.4 0 0 0 31.1-10.3L130.3 91a12.6 12.6 0 0 1-22.8-7.3V52.9H92.4v66.4c0 6.9-5.6 12.5-12.5 12.6a13 13 0 0 1-10.3-5.3z"/></svg>