<svg xmlns="http://www.w3.org/2000/svg" viewBox="0 0 200 200"><path fill="#2a5ada" d="M100.1 26.9L37 63.4v73l63.5 36.5 62.8-36.5v-73l-63.2-36.5zM63.7 121V78.8l36.4-21.1 36.4 21.1V121l-36.4 21.1L63.7 121z"/><linearGradient id="a" x1=".2526" x2=".0364" y1="199.987" y2="199.7321" gradientTransform="matrix(560.0001 0 0 -560.001 20.0009 112020.1953)" gradientUnits="userSpaceOnUse"><stop offset="0" stop-color="#b6509e"/><stop offset="1" stop-color="#2ebac6"/></linearGradient><path fill="url(#a)" d="M100 195c-67.4.4-114-70.1-87.4-132.1 33-77.2 141.8-77.2 174.9 0 26.5 62-20.1 132.5-87.5 132.1zm0-180C39.8 14.6-1.8 77.5 21.9 133c29.5 68.9 126.6 68.9 156.1 0 23.7-55.5-17.8-118.4-78-118z"/></svg>