<?xml version="1.0" encoding="utf-8"?>
<!-- Generator: Adobe Illustrator 22.1.0, SVG Export Plug-In . SVG Version: 6.00 Build 0)  -->
<svg version="1.1" id="Layer_1" xmlns="http://www.w3.org/2000/svg" xmlns:xlink="http://www.w3.org/1999/xlink" x="0px" y="0px"
	 viewBox="0 0 200 200" style="enable-background:new 0 0 200 200;" xml:space="preserve">
<style type="text/css">
	.st0{fill:#E6E6E5;}
	.st1{fill:#818181;}
	.st2{fill:#E78738;}
</style>
<path class="st0" d="M100,5L100,5c52.3,0,95,42.8,95,95l0,0c0,52.3-42.7,95-95,95l0,0c-52.2,0-95-42.7-95-95l0,0
	C5,47.8,47.8,5,100,5z"/>
<path class="st1" d="M133.3,20.4c1.3-2.2,4.5-3,6.7-1.7c5.5,3.1,10.9,6.3,16.4,9.4c2.4,1.2,3.3,4.4,1.9,6.7
	c-1.1,1.8-2.1,3.7-3.3,5.4c-4.6,2.3-9.5,4.2-14.1,6.4c-0.6,0.2-0.8,0.8-1.1,1.3c-14.5,24.4-28.9,48.8-43.3,73.2
	c7.4,4.2,14.7,8.4,22.1,12.6c-5.3,8.9-10.6,17.8-15.8,26.8c-1.8,3-4.5,5.3-7.4,7c-4.9,2.9-10.3,4.7-15.8,6.1l-0.1-0.3
	c-0.8-3.5-1.8-6.9-3.3-10.2c-0.7-1.8-2.7-2.5-4.4-3.2c-5.1-1.6-10.4-0.6-15.6-0.9c-1,2.4-2.2,4.6-3.4,6.8
	c-2.6-7.1-4.8-14.4-5.4-21.9c-0.3-4.7,0-9.7,2.4-13.9c5.3-8.9,10.6-17.8,15.8-26.8c7.4,4.2,14.7,8.4,22,12.7
	c14.6-24.6,29.2-49.2,43.7-73.8c0.5-0.7,0.2-1.5,0.2-2.2c-0.5-4.7-0.9-9.3-1.3-14C131.1,24.1,132.2,22.2,133.3,20.4L133.3,20.4z
	 M137.7,23.7L137.7,23.7c-0.7,1.1-1.3,2.2-2,3.4c0.2,1.9,0.4,3.7,0.7,5.6c3.2,1.8,6.4,3.7,9.6,5.5c1.7-0.7,3.5-1.4,5.2-2.1
	c0.7-1.1,1.3-2.2,2-3.4C148.1,29.6,142.9,26.6,137.7,23.7z"/>
<path class="st2" d="M56.1,159.1c5.2,0.3,10.5-0.7,15.6,0.9c1.7,0.6,3.7,1.4,4.4,3.2c1.5,3.2,2.5,6.7,3.3,10.2
	c0.6,2.8,1,5.6,1.4,8.4c-9.2,1.4-18.5,0.9-27.6-0.2c-2.3-0.3-4.8-1.9-4.8-4.5c0.1-4.1,2.4-7.7,4.3-11.3
	C53.9,163.7,55.1,161.5,56.1,159.1z"/>
</svg>
