<svg xmlns="http://www.w3.org/2000/svg" id="Layer_1" x="0" y="0" version="1.1" viewBox="0 0 200 200" xml:space="preserve"><style>.st0{fill:#7668d9}.st1{fill:#fff}</style><path d="M142.5 148.7c-11.4 11.3-26.8 17.5-42.9 17.3-15.9.3-31.3-5.9-42.5-17.3-11.5-11.1-17.8-26.6-17.4-42.5-.6-32.8 25.4-59.9 58.2-60.5h1.7c16-.3 31.5 6 42.9 17.3 11.8 11.3 18.2 27 17.8 43.3.3 15.9-6.1 31.4-17.8 42.4z" class="st0"/><path d="M77.5 144.9l27-20.2c2.2 2.2 4.5 4.3 6.6 6.5.6.8 1.7 1.1 2.6.5l.1-.1c4-2.2 7.5-5.2 10.1-8.9.2-.3.5-.6.9-1l4.7 6.2c1.5 2 3 4.1 4.5 5.9.6.5.6 1.4.1 1.9l-.1.1c-5.4 6-12.2 10.4-19.9 12.9-5.3 1.8-10.9 2.6-16.4 2.2-6.8-.4-13.5-2.3-19.4-5.6-.3 0-.5-.2-.8-.4zM84.1 130.5c-4.4 3.2-8.5 6.4-12.7 9.4-.6.1-1.2 0-1.6-.4-5.7-5-10.1-11.5-12.6-18.7-2-5.5-2.9-11.4-2.6-17.3.3-6.5 2-12.8 5-18.6.2-.5.5-.9.9-1.7 1.2 1.5 2.3 3 3.3 4.3 5.4 7.1 10.8 14.2 16.3 21.3.6.5.7 1.4.2 2.1l-.3.3c-1.9 1.8-3.6 3.8-5.5 5.6-.8.6-1 1.7-.4 2.5 0 .1.1.1.1.1 2.2 4 5.2 7.4 8.9 10l1 1.1zM75.2 89.9C73 87 71 84.3 69 81.6l-3-4.2c-.5-.4-.5-1.1-.1-1.5l.1-.1c6.3-7.1 14.6-12 23.7-14.2 6.1-1.5 12.5-1.6 18.7-.4 4.7.9 9.1 2.5 13.3 4.8.3.2.5.4.7.6l-5.4 3.9c-6.9 5-13.9 9.9-20.8 14.8-.9.7-1.5.7-2.3-.2-1.7-1.8-3.5-3.4-5.3-5.2-.5-.7-1.5-.8-2.2-.3-3.9 2.1-7.4 5-10 8.6-.2.7-.6 1-1.2 1.7zM115.9 81.1l8.1-6.2c1.4-1.1 3-2 4.3-3.1.4-.5 1.1-.5 1.5-.1l.1.1c6.5 5.7 11.2 13.1 13.6 21.4 1.4 4.7 2.1 9.5 1.8 14.4-.3 6.9-2.2 13.7-5.5 19.7l-.4.4c-1.3-1.6-2.5-3.2-3.7-4.8l-14.9-20c-1.7-2.2-1.4-1.7 0-3.3 1.4-1.6 3.2-3.5 4.9-5.1.7-.6.9-1.6.3-2.3-2.1-4-5.1-7.5-8.7-10.2l-1.4-.9z" class="st1"/><path d="M142.5 148.9c-11.4 11.3-26.8 17.5-42.9 17.3-15.9.3-31.3-5.9-42.5-17.3-11.5-11.1-17.8-26.6-17.4-42.5-.6-32.8 25.4-59.9 58.2-60.5h1.7c16-.3 31.5 6 42.9 17.3 11.8 11.3 18.2 27 17.8 43.3.3 15.9-6.2 31.4-17.8 42.4z" class="st0"/><path d="M77.5 145.2l27-20.2c2.2 2.2 4.5 4.3 6.6 6.5.6.8 1.7 1.1 2.6.5l.1-.1c4-2.2 7.5-5.2 10.1-8.9.2-.3.5-.6.9-1l4.7 6.2c1.5 2 3 4.1 4.5 5.9.6.5.6 1.4.1 1.9l-.1.1c-5.4 6-12.2 10.4-19.9 12.9-5.3 1.8-10.9 2.6-16.4 2.2-6.8-.4-13.5-2.3-19.4-5.6-.3-.1-.5-.3-.8-.4zM84.1 130.8c-4.4 3.2-8.5 6.4-12.7 9.4-.6.1-1.2 0-1.6-.4-5.7-5-10.1-11.5-12.6-18.7-2-5.5-2.9-11.4-2.6-17.3.3-6.5 2-12.8 5-18.6.2-.5.5-.9.9-1.7 1.2 1.5 2.3 3 3.3 4.3 5.4 7.1 10.8 14.2 16.3 21.3.6.5.7 1.4.2 2.1l-.3.3c-1.9 1.8-3.6 3.8-5.5 5.6-.8.6-1 1.7-.4 2.5 0 .1.1.1.1.1 2.2 4 5.2 7.4 8.9 10l1 1.1zM75.2 90.2c-2.2-3-4.2-5.6-6.3-8.3l-3-4.2c-.5-.4-.5-1.1-.1-1.5l.1-.1c6.3-7.1 14.6-12 23.7-14.2 6.1-1.5 12.5-1.6 18.7-.4 4.7.9 9.1 2.5 13.3 4.8.3.2.5.4.7.6l-5.4 3.9c-6.9 5-13.9 9.9-20.8 14.8-.9.7-1.5.7-2.3-.2-1.7-1.8-3.5-3.4-5.3-5.2-.5-.7-1.5-.8-2.2-.3-3.9 2.1-7.4 5-10 8.6-.1.6-.5 1-1.1 1.7zM115.9 81.3l8.1-6.2c1.4-1.1 3-2 4.3-3.1.4-.5 1.1-.5 1.5-.1l.1.1c6.5 5.7 11.2 13.1 13.6 21.4 1.4 4.7 2.1 9.5 1.8 14.4-.3 6.9-2.2 13.7-5.5 19.7l-.4.4c-1.3-1.6-2.5-3.2-3.7-4.8l-14.9-20c-1.7-2.2-1.4-1.7 0-3.3 1.4-1.6 3.2-3.5 4.9-5.1.7-.6.9-1.6.3-2.3-2.1-4-5.1-7.5-8.7-10.2l-1.4-.9z" class="st1"/><linearGradient id="SVGID_1_" x1="-14.297" x2="214.2968" y1="96" y2="96" gradientTransform="translate(0 4)" gradientUnits="userSpaceOnUse"><stop offset="0" stop-color="#0157d0"/><stop offset=".14" stop-color="#015fcd"/><stop offset=".36" stop-color="#0174c6"/><stop offset=".63" stop-color="#0098ba"/><stop offset=".94" stop-color="#00c8aa"/><stop offset="1" stop-color="#00d3a6"/></linearGradient><path fill="url(#SVGID_1_)" d="M100 10.8c-52.5 0-95 42.5-95 95 0 34.8 19 66.7 49.5 83.4h91.2c30.5-16.7 49.4-48.7 49.3-83.4 0-52.5-42.5-95-95-95zm0 170.6c-41.8 0-75.7-33.8-75.7-75.6S58.2 30.3 100 30.3s75.7 33.8 75.7 75.5-33.9 75.6-75.7 75.6z"/></svg>