<svg xmlns="http://www.w3.org/2000/svg" version="1.0" viewBox="0 0 200 200"><linearGradient id="a" x1="182.6478" x2="30.6518" y1="182.6478" y2="30.6518" gradientUnits="userSpaceOnUse"><stop offset=".1594" stop-color="#003cda"/><stop offset="1" stop-color="#33dfcc"/></linearGradient><path fill="url(#a)" d="M167.2 32.8C149.4 15 125.2 5 100 5c-18.8 0-37.2 5.6-52.8 16s-27.8 25.3-35 42.6C5 81 3.2 100.1 6.8 118.5c3.7 18.4 12.7 35.4 26 48.7s30.2 22.3 48.7 26c18.4 3.7 37.5 1.8 54.9-5.4s32.2-19.4 42.6-35c10.4-15.6 16-34 16-52.8 0-25.2-10-49.4-27.8-67.2zM100 174.5c-41.1 0-74.5-33.3-74.5-74.5S58.9 25.5 100 25.5s74.5 33.3 74.5 74.5-33.4 74.5-74.5 74.5z"/><path fill="#7668d9" d="M142.3 142.8c-11.3 11.3-26.7 17.4-42.7 17.2-15.8.3-31.1-5.9-42.3-17.2-11.4-11.1-17.7-26.5-17.3-42.3-.6-32.7 25.3-59.6 57.9-60.2h1.7c15.9-.3 31.3 6 42.7 17.2 11.7 11.3 18.1 26.9 17.7 43.1.3 15.8-6.2 31.2-17.7 42.2z"/><path fill="#fff" d="M77.6 139.1l26.9-20.1c2.2 2.2 4.5 4.3 6.6 6.5.6.8 1.7 1.1 2.6.5l.1-.1c4-2.2 7.5-5.2 10-8.9.2-.3.5-.6.9-1l4.7 6.2c1.5 2 3 4.1 4.5 5.9.6.5.6 1.4.1 1.9l-.1.1c-5.4 6-12.1 10.4-19.8 12.8-5.3 1.8-10.8 2.6-16.3 2.2-6.8-.4-13.4-2.3-19.3-5.6-.4-.1-.6-.3-.9-.4zm6.6-14.4c-4.4 3.2-8.5 6.4-12.6 9.4-.6.1-1.2 0-1.6-.4-5.7-5-10-11.5-12.5-18.6-2-5.5-2.9-11.4-2.6-17.2.3-6.5 2-12.7 5-18.5.2-.5.5-.9.9-1.7 1.2 1.5 2.3 3 3.3 4.3 5.4 7.1 10.7 14.1 16.2 21.2.6.5.7 1.4.2 2.1l-.3.3c-1.9 1.8-3.6 3.8-5.5 5.6-.8.6-1 1.7-.4 2.5 0 .1.1.1.1.1 2.2 4 5.2 7.4 8.9 10l.9.9zm-8.9-40.4c-2.2-3-4.2-5.6-6.3-8.3l-3-4.2c-.5-.4-.5-1.1-.1-1.5l.1-.1c6.3-7.1 14.5-11.9 23.6-14.1 6.1-1.5 12.4-1.6 18.6-.4 4.7.9 9.1 2.5 13.2 4.8.3.2.5.4.7.6l-5.4 3.9c-6.9 5-13.8 9.9-20.7 14.7-.9.7-1.5.7-2.3-.2-1.7-1.8-3.5-3.4-5.3-5.2-.5-.7-1.5-.8-2.2-.3-3.9 2.1-7.4 5-9.9 8.6 0 .6-.4 1-1 1.7zm40.5-8.8l8.1-6.2c1.4-1.1 3-2 4.3-3.1.4-.5 1.1-.5 1.5-.1l.1.1c6.5 5.7 11.1 13 13.5 21.3 1.4 4.7 2.1 9.5 1.8 14.3-.3 6.9-2.2 13.6-5.5 19.6l-.4.4c-1.3-1.6-2.5-3.2-3.7-4.8l-14.8-19.9c-1.7-2.2-1.4-1.7 0-3.3 1.4-1.6 3.2-3.5 4.9-5.1.7-.6.9-1.6.3-2.3-2.1-4-5.1-7.5-8.7-10.2l-1.4-.7z"/></svg>