<?xml version="1.0" encoding="UTF-8" standalone="no"?><!DOCTYPE svg PUBLIC "-//W3C//DTD SVG 1.1//EN" "http://www.w3.org/Graphics/SVG/1.1/DTD/svg11.dtd"><svg width="100%" height="100%" viewBox="0 0 15 15" version="1.1" xmlns="http://www.w3.org/2000/svg" xmlns:xlink="http://www.w3.org/1999/xlink" xml:space="preserve" style="fill-rule:evenodd;clip-rule:evenodd;stroke-linejoin:round;stroke-miterlimit:1.41421;"><g id="Layer1"><path d="M8.503,1.617l1.617,-1.617l0.429,0.428l-1.613,1.612c0.412,0.498 0.66,1.135 0.66,1.831c0,1.496 -1.148,2.727 -2.61,2.86l0,1.937c1.462,0.133 2.61,1.363 2.61,2.86c0,1.585 -1.287,2.872 -2.873,2.872c-1.585,0 -2.872,-1.287 -2.872,-2.872c0,-1.497 1.148,-2.727 2.61,-2.86l0,-1.937c-1.462,-0.133 -2.61,-1.364 -2.61,-2.86c0,-1.585 1.287,-2.872 2.872,-2.872c0.672,0 1.291,0.231 1.78,0.618ZM6.723,9.193c1.289,0 2.336,1.046 2.336,2.335c0,1.289 -1.047,2.335 -2.336,2.335c-1.288,0 -2.335,-1.046 -2.335,-2.335c0,-1.289 1.047,-2.335 2.335,-2.335ZM6.723,1.535c1.289,0 2.336,1.047 2.336,2.336c0,1.289 -1.047,2.335 -2.336,2.335c-1.288,0 -2.335,-1.046 -2.335,-2.335c0,-1.289 1.047,-2.336 2.335,-2.336Z" style="fill:#001d57;"/></g></svg>