<svg xmlns="http://www.w3.org/2000/svg" id="Livello_1" x="0" y="0" version="1.1" viewBox="0 0 200 200" xml:space="preserve"><style>.st0{fill-rule:evenodd;clip-rule:evenodd;fill:#050505}</style><path d="M179.2 72.6c-9.8-5.7-21.9-5.7-31.7 0L100 100l47.5 27.4c9.8 5.7 21.9 5.7 31.7 0S195 111.3 195 100c0-11.3-6-21.8-15.8-27.4zM20.8 72.6C11 78.2 5 88.7 5 100c0 11.3 6 21.8 15.8 27.4 9.8 5.7 21.9 5.7 31.7 0L100 100 52.5 72.6c-9.8-5.7-21.9-5.7-31.7 0zM72.6 179.2C78.2 189 88.7 195 100 195c11.3 0 21.8-6 27.4-15.8 5.7-9.8 5.7-21.9 0-31.7L100 100l-27.4 47.5c-5.7 9.8-5.7 21.9 0 31.7zM127.4 20.8C121.8 11 111.3 5 100 5c-11.3 0-21.8 6-27.4 15.8-5.7 9.8-5.7 21.9 0 31.7L100 100l27.4-47.5c5.7-9.8 5.7-21.9 0-31.7z" class="st0"/></svg>