<svg xmlns="http://www.w3.org/2000/svg" viewBox="0 0 200 200"><path fill="#0a408e" d="M136.6 130.1c7-7 10.9-15.4 11.6-24.9.8-9.5-1.8-18.9-7.2-26.7l-64 64-1.4-.2c-11.9-9.7-18.2-22.2-18.9-37.6-.6-15.3 4.5-28.3 15.3-39.2 9.6-9.6 20.6-14.6 33.2-15.2V26.4c-41.7 1.9-74 37.3-72.1 79 1.8 39.1 33.1 70.4 72.1 72.1v-35.7h6.6c4-.5 7.9-1.5 11.6-3.2 5.6-2.4 10-5.2 13.2-8.5z"/><path fill="#feba14" d="M162.2 48.5c-12.5-12.6-29-20.3-46.7-21.9V62H108c-3.7-.2-8.5 1-14.3 3.6-5.8 2.6-10.2 5.4-13.1 8.4-7 7-10.8 15.4-11.4 25-.6 9.5 2.1 19 7.5 26.8l65.2-64c11.9 9.7 18.1 22.2 18.7 37.6s-4.6 28.4-15.4 39.3c-8.2 7.7-18.6 12.8-29.7 14.6v30.8h-10.3c-45.3-2.1-80.4-40.5-78.4-85.8 1.9-41.3 34.1-74.7 75.3-78.2l.1 4.6L119 14.3 101.6 5l.1 4.2C50.5 13 12 57.7 15.9 109c3.5 47.2 42 84.2 89.3 86h10.3l6.5-1v-17.6c41.1-7.4 68.5-46.7 61.1-87.8-2.7-15.2-10-29.2-20.9-40.1z"/></svg>