<svg xmlns="http://www.w3.org/2000/svg" viewBox="0 0 200 200"><path fill="#2a4a9a" d="M100 5L17.7 52.5v95L100 195l82.3-47.5v-95L100 5zm.3 68.9l20.9 11.8v29.1l-20.5 11.6-23.3-13.6V86.9l22.9-13zm-28.7 35.5L51.8 97.9l19.7-34.3v45.8zm23.3 20.3l-19.7 11.2-20.4-34.6 40.1 23.4zm26.3-8.2V143h-38l38-21.5zm5.8-32.6l19.6 11.1-19.6 36V88.9zm-20.9-18.4l19.3-11 19.2 32.8-38.5-21.8zm-28.7 9.8V57.1H118L77.4 80.3zm1.2-29l22.4-39 67.5 39H78.6zM47.4 93.9L24.6 55.2l67.5-39-44.7 77.7zm22.3 49H23.5V64.8l46.2 78.1zm50.4 5.8l-21.2 38.9-67.5-38.9h88.7zm31.1-45.2l24.2 41.2-68 39.2 43.8-80.4zm-20.5-46.4h45.8v78.1l-45.8-78.1z"/></svg>