<?xml version="1.0" encoding="utf-8"?>
<!-- Generator: Adobe Illustrator 22.1.0, SVG Export Plug-In . SVG Version: 6.00 Build 0)  -->
<svg version="1.0" id="Livello_1" xmlns="http://www.w3.org/2000/svg" xmlns:xlink="http://www.w3.org/1999/xlink" x="0px" y="0px"
	 viewBox="0 0 200 200" style="enable-background:new 0 0 200 200;" xml:space="preserve">
<style type="text/css">
	.st0{fill:url(#SVGID_1_);}
	.st1{fill:url(#SVGID_2_);}
	.st2{fill:url(#SVGID_3_);}
</style>
<linearGradient id="SVGID_1_" gradientUnits="userSpaceOnUse" x1="21.1664" y1="52.5316" x2="23.378" y2="164.1214">
	<stop  offset="0" style="stop-color:#3DDEED"/>
	<stop  offset="7.281077e-02" style="stop-color:#3DCEEC"/>
	<stop  offset="0.2455" style="stop-color:#3DACEA"/>
	<stop  offset="0.4228" style="stop-color:#3D92E9"/>
	<stop  offset="0.6045" style="stop-color:#3D80E8"/>
	<stop  offset="0.7932" style="stop-color:#3D75E7"/>
	<stop  offset="1" style="stop-color:#3D71E7"/>
</linearGradient>
<path class="st0" d="M2.5,174.7V24.4c0,0,1.6-4,4.7-1.5l32.4,14.4c0,0,2.6,1.1,2.5,6.8s0,110.2,0,110.2s-0.1,5.1-4.2,6.5l-30.8,16
	C7.1,176.8,3.7,178.3,2.5,174.7z"/>
<linearGradient id="SVGID_2_" gradientUnits="userSpaceOnUse" x1="176.905" y1="49.4449" x2="179.1167" y2="161.0346">
	<stop  offset="0" style="stop-color:#3DDEED"/>
	<stop  offset="7.281077e-02" style="stop-color:#3DCEEC"/>
	<stop  offset="0.2455" style="stop-color:#3DACEA"/>
	<stop  offset="0.4228" style="stop-color:#3D92E9"/>
	<stop  offset="0.6045" style="stop-color:#3D80E8"/>
	<stop  offset="0.7932" style="stop-color:#3D75E7"/>
	<stop  offset="1" style="stop-color:#3D71E7"/>
</linearGradient>
<path class="st1" d="M197.5,175.5V25.2c0,0-1.6-4-4.7-1.5l-32.4,14.4c0,0-2.6,1.1-2.5,6.8c0.1,5.7,0,110.2,0,110.2s0.1,5.1,4.2,6.5
	l30.8,16C192.9,177.6,196.3,179.1,197.5,175.5z"/>
<linearGradient id="SVGID_3_" gradientUnits="userSpaceOnUse" x1="100.3955" y1="50.9733" x2="102.6088" y2="162.6466">
	<stop  offset="0" style="stop-color:#3DDEED"/>
	<stop  offset="7.281077e-02" style="stop-color:#3DCEEC"/>
	<stop  offset="0.2455" style="stop-color:#3DACEA"/>
	<stop  offset="0.4228" style="stop-color:#3D92E9"/>
	<stop  offset="0.6045" style="stop-color:#3D80E8"/>
	<stop  offset="0.7932" style="stop-color:#3D75E7"/>
	<stop  offset="1" style="stop-color:#3D71E7"/>
</linearGradient>
<path class="st2" d="M62.1,121.7V80.4c0,0,0.2-3.1,3.9-4.4l33-19.4c0,0,2.2-1.5,5,0l34.3,20.2c0,0,2.2,1,2.5,3.8v41.1
	c0,0-0.4,3-2.5,3.9l-34.5,20.1c0,0-2.6,1.3-4.5,0l-34.2-19.8C65.1,125.9,62.1,124.7,62.1,121.7z"/>
</svg>
