<svg xmlns="http://www.w3.org/2000/svg" id="Livello_1" viewBox="0 0 200 200"><style>.st2{fill:#007aff}</style><linearGradient id="Fill-12_1_" x1="-1.1284" x2="-.8373" y1="-1.1146" y2="-.9864" gradientTransform="matrix(213.3606 0 0 87.3269 326.9286 215.3082)" gradientUnits="userSpaceOnUse"><stop offset="0" stop-color="#878a96"/><stop offset="1" stop-color="#dadde6"/></linearGradient><path id="Fill-12" fill="url(#Fill-12_1_)" d="M100.9 142.5h1.5l88.3-.2c4.1 0 7.2-6.8 0-9.7-6.9-2.8-71-29-77.3-31.6-7.2 8.7-13.1 15.9-14.2 17.4-2.8 4.1-12.2 15.5 1.7 24.1z"/><linearGradient id="Fill-15_1_" x1="-.1513" x2="-.3601" y1="-.4729" y2="-.6011" gradientTransform="matrix(212.3446 0 0 86.3114 141 123.9307)" gradientUnits="userSpaceOnUse"><stop offset="0" stop-color="#878a96"/><stop offset="1" stop-color="#dadde6"/></linearGradient><path id="Fill-15" fill="url(#Fill-15_1_)" d="M9.8 57.5c-2.7 0-4.7 2.9-4.8 5.1v-.9c0 1.8 1.4 4.7 4.8 6.1 7.7 3.1 73.5 29.8 73.5 29.8v1c9.3-10.7 17.7-21.4 19.8-23.9v1c10.1-11.7-9.2-18.2-9.2-18.2H9.8z"/><path id="Fill-18" d="M138.4 57.5H93.2s19.3 5.5 9.2 17.5c-2.1 2.5-10.5 12.4-19.8 23.4-12.7 15-27.2 32-29.4 34.6-3.9 4.4-1.9 9.5 4.6 9.5h44c-13.9-8.5-5.5-19.7-2.6-23.8 1-1.5 6.9-8.6 14.2-17.3 12.8-15.4 29.9-35.6 31.4-37.5 2.5-3-1.4-6.4-6.4-6.4z" class="st2"/><linearGradient id="Fill-18_2_" x1="-1.0778" x2="-1.5537" y1="-.1143" y2="-.168" gradientTransform="matrix(139.9436 0 0 178.4548 296.5496 123.9768)" gradientUnits="userSpaceOnUse"><stop offset="0" stop-color="#fff"/><stop offset="1" stop-color="#2b72ff"/></linearGradient><path id="Fill-18_1_" fill="url(#Fill-18_2_)" d="M96.6 57.5h-3.4s19.3 5.5 9.2 17.5c-2.1 2.5-10.5 12.4-19.8 23.4-8.5 10-2.1 24.7 19.3 44-14-8.6-5.5-19.7-2.7-23.8 1-1.5 6.9-8.6 14.2-17.3 12.8-15.4 29.9-35.6 31.4-37.5 2.4-2.9-1.4-6.3-6.5-6.3H96.6z" opacity=".3"/><linearGradient id="path-6_2_" x1="-.7052" x2="-.7052" y1="-.3725" y2=".1033" gradientTransform="matrix(198.2898 0 0 178.4548 238.2034 123.9768)" gradientUnits="userSpaceOnUse"><stop offset="0" stop-color="#fff" stop-opacity=".5"/><stop offset="1" stop-opacity=".5"/></linearGradient><path id="path-6_1_" fill="url(#path-6_2_)" d="M96.6 57.5h-3.4s19.3 5.5 9.2 17.5c-2.1 2.5-10.5 12.4-19.8 23.4-12.7 15-27.2 32-29.4 34.6-3.9 4.4-1.9 9.5 4.6 9.5h44.1c-14-8.6-5.5-19.7-2.7-23.8 1-1.5 6.9-8.6 14.2-17.3 12.8-15.4 29.9-35.6 31.4-37.5 2.4-2.9-1.4-6.3-6.5-6.3l-41.7-.1z"/><path id="path-6" d="M96.6 57.5h-3.4s19.3 5.5 9.2 17.5c-2.1 2.5-10.5 12.4-19.8 23.4-12.7 15-27.2 32-29.4 34.6-3.9 4.4-1.9 9.5 4.6 9.5h44.1c-14-8.6-5.5-19.7-2.7-23.8 1-1.5 6.9-8.6 14.2-17.3 12.8-15.4 29.9-35.6 31.4-37.5 2.4-2.9-1.4-6.3-6.5-6.3l-41.7-.1z" class="st2"/><path id="Fill-18_3_" fill="#b8cfff" fill-opacity=".5" d="M93.3 57.5s19.3 5.5 9.2 17.5c-2.1 2.5-10.5 12.4-19.8 23.4-12.7 15-27.2 32-29.4 34.6-3.9 4.4-1.9 9.5 4.6 9.5H102c-14-8.6-5.5-19.7-2.7-23.8 1-1.5 6.9-8.6 14.2-17.3 5.1-6.1 3-23-2.9-32.2-2.6-4.3-8.4-8.1-17.3-11.7z" opacity=".45"/><linearGradient id="Fill-18_6_" x1="-2.0242" x2="-1.9739" y1=".1006" y2="-.3752" gradientTransform="matrix(95.639 0 0 178.4548 289.7172 123.9768)" gradientUnits="userSpaceOnUse"><stop offset="0" stop-color="#74abe9"/><stop offset="1" stop-color="#2c5c96"/></linearGradient><path id="Fill-18_4_" fill="url(#Fill-18_6_)" d="M93.3 57.5s19.3 5.5 9.2 17.5c-2.1 2.5-10.5 12.4-19.8 23.4-13.5 16-7.1 30.7 19.3 44-14-8.6-5.5-19.7-2.7-23.8 1-1.5 7.1-8.8 14.2-17.3 15-18.2 8.3-32.7-20.2-43.8z"/></svg>