<?xml version="1.0" encoding="UTF-8" standalone="no"?><!DOCTYPE svg PUBLIC "-//W3C//DTD SVG 1.1//EN" "http://www.w3.org/Graphics/SVG/1.1/DTD/svg11.dtd"><svg width="100%" height="100%" viewBox="0 0 15 15" version="1.1" xmlns="http://www.w3.org/2000/svg" xmlns:xlink="http://www.w3.org/1999/xlink" xml:space="preserve" style="fill-rule:evenodd;clip-rule:evenodd;stroke-miterlimit:1.41421;"><g><circle cx="2.995" cy="5.138" r="1.539" style="fill:#6fdb7d;"/><path d="M8.979,0.137l0,3.298l3.964,0l0,2.961l-3.964,0l0,3.759c0,0.452 0.133,0.811 0.243,0.945c0.389,0.474 1.097,0.573 1.451,0.573c0.318,0 0.792,-0.08 1.364,-0.253l0.566,2.454c-1.067,0.219 -2.059,0.389 -2.985,0.389c-1.075,0 -1.866,-0.13 -2.375,-0.389c-0.509,-0.259 -0.886,-0.653 -1.13,-1.182c-0.244,-0.528 -0.366,-1.384 -0.366,-2.567l0,-3.729l0,-2.961l0,-1.944l3.232,-1.354Z" style="fill:#6fdb7d;fill-rule:nonzero;stroke-width:0.24px;stroke:#6fdb7d;"/></g></svg>