<?xml version="1.0" encoding="utf-8"?>
<!-- Generator: Adobe Illustrator 22.1.0, SVG Export Plug-In . SVG Version: 6.00 Build 0)  -->
<svg version="1.0" id="Livello_1" xmlns="http://www.w3.org/2000/svg" xmlns:xlink="http://www.w3.org/1999/xlink" x="0px" y="0px"
	 viewBox="0 0 200 200" style="enable-background:new 0 0 200 200;" xml:space="preserve">
<style type="text/css">
	.st0{fill:#01AEEF;}
</style>
<g>
	<path class="st0" d="M2.5,14.8c10.6,0,19.6-0.4,28.5,0.3c2.8,0.2,5.6,3.3,7.9,5.5c20.8,20.3,41.5,40.7,62.3,61
		c23.1,22.5,46.3,44.9,69.5,67.4c2.3,2.3,4.5,4.7,7.6,8c0-39.7,0-78.1,0-116.8c-6.8,0-13.5,0-20.6,0c0,22,0,43.8,0,66.7
		c-31.5-30.7-62.3-60.7-94-91.5c2.3-0.3,3.5-0.5,4.8-0.5c8.8,0,17.5-0.2,26.3,0.1c2.3,0.1,5,1.2,6.6,2.8
		c8.2,7.7,16.2,15.7,24.3,23.6c0.9,0.9,1.9,1.8,3.4,3.1c0.3-1.7,0.5-2.7,0.5-3.7c0-7.5,0-15.1-0.2-22.6c0-2.2,0.6-3.3,2.9-3.3
		c21.5,0,43,0,65.1,0c0,1.7,0,3.1,0,4.6c0,53.7,0,107.4,0.1,161.2c0,3.7-0.9,5.1-4.7,4.8c-4.3-0.3-8.7,0.3-12.9-0.2
		c-2.8-0.4-6.1-1.4-8.1-3.3c-18.9-18-37.6-36.3-56.3-54.5c-18.3-17.9-36.6-35.8-54.9-53.7C42.2,55.7,23.9,37.9,5.6,20
		C4.4,18.8,3.8,17.1,2.5,14.8z"/>
	<path class="st0" d="M140.6,185.3c-10.3,0-20.7,0-31-0.1c-1,0-2.1-0.9-2.9-1.7c-8.3-8.4-16.5-16.8-24.6-25.4
		c-1.9-2-3.1-1.9-4.8-0.1c-8.2,8.3-16.4,16.6-24.8,24.7c-1.5,1.5-4.1,2.5-6.2,2.6c-8.5,0.3-16.9,0.1-25.4,0.1
		c-1.2,0-2.3-0.1-4.3-0.3c0.9-1.4,1.4-2.3,2-2.9c19.6-19.7,39.3-39.4,58.8-59.2c2.9-3,4.3-0.7,5.8,0.8c5.9,5.9,11.5,11.9,17.3,17.9
		c12.8,13.3,25.7,26.5,38.5,39.8c0.9,0.9,1.6,1.9,2.4,2.9C141,184.6,140.8,184.9,140.6,185.3z"/>
	<path class="st0" d="M3.6,47.8c16.1,15.8,31.9,31.4,47.8,46.9c3.6,3.6,7.3,7,10.7,10.8c0.8,0.9,1,3.5,0.3,4.2
		c-19.2,18.9-38.5,37.7-57.8,56.4c-0.1,0.1-0.2,0-1.1,0.1c0-1.8,0-3.6,0-5.4c0-8.2-0.2-16.4,0.1-24.6c0.1-2,1-4.4,2.4-5.9
		c6.4-6.6,13.1-13,19.9-19.3c2.8-2.6,3-4.4,0.1-7.1c-7-6.6-13.7-13.6-20.5-20.4c-0.8-0.8-1.9-1.9-1.9-2.9
		C3.5,69.8,3.6,58.8,3.6,47.8z"/>
</g>
</svg>
