<svg xmlns="http://www.w3.org/2000/svg" viewBox="0 0 200 200"><path fill="#042364" fill-rule="evenodd" d="M94.6 5C68.3 7 45.7 18.7 29.1 39.1 17.1 53.8 10 71.5 7.9 91.9c-.3 2.6-.3 13.6 0 16.2 1.5 14.6 5.3 27.3 11.7 38.8C35 174.4 61 191.7 92 194.8c2.9.3 13.2.3 16 0 36.5-3.8 65.5-26.6 78.6-61.7 2.8-7.5 5.5-20.5 5.6-26.3 0-.3.1-.6.1-.6.1 0 .1-2.2.1-6.2s0-6.2-.1-6.2-.1-.3-.1-.6c0-5.8-2.8-18.8-5.6-26.3-13-35-42.1-57.9-78.5-61.7-1.7-.1-11.9-.3-13.5-.2" clip-rule="evenodd"/><path fill="#fac31c" fill-rule="evenodd" d="M72.8 31.5c-1.7.5-2.8 1.9-3.2 4-.2 1-.2 2.5-.1 2.6.1 0 .1 0 .1-.2 0-.4.7-1.5 1.2-2 2-2 5.3-1.4 9.4 2 1.1.9 3.3 2.9 3.3 3 0 0-1.2.1-2.6.2-18.2 1-30.2 5.8-32.5 13.1-.6 1.8-.7 3-.3 5.5.8 5.6 2 6.1 2.6 1 .7-5.8 3.2-9.1 8.9-12.1 4.6-2.4 7.9-3.2 15.2-3.8 13.4-1 26.6-1.1 38.6-.1 3 .2 3.6.3 3.6.4 0 0-.6.6-1.4 1.1-.7.6-1.4 1.1-1.4 1.1s.5-.2 1.1-.5c15.4-7.2 20.6-8.5 22.7-5.4 1.3 1.8-1 10.8-4.1 15.8-1.4 2.2-4.7 6.1-5.7 6.7-.2.1-.9-.3-4.8-2.6-5.6-3.4-5-3-4.8-2.7C120 60.4 129.7 72 129.8 72c.1 0 .6-.7 1.3-1.4 5.9-7.1 10.4-15.3 12-21.8.1-.6.3-1.1.3-1.2.2-.2 7 .3 10.2.7 2.4.3 5.4 1.2 5.1 1.4 0 0-1.9.8-4.2 1.7s-4.1 1.7-4.2 1.8c0 0 .2.4.5.8 5.1 6.9 9 17.7 9.8 26.9 1 12-2.3 24.7-9.2 35-.7 1-.5.9 1-.8 7.1-7.6 12.1-16.3 14.2-24.6 2.5-9.9-.2-26.7-5.8-36.1-.3-.5-.5-.9-.4-.9 0 0 2.9-.8 6.4-1.8 6.3-1.7 6.3-1.7 5.9-1.8-5.6-1.6-21.7-4.9-26.4-5.3l-1.9-.2.1-1.5c.3-8-6.5-10.1-16.8-5.2-1.6.8-3 1.6-3.8 2.3-.3.3-.7.6-.9.7l-.4.3-1.7-.1c-11-.8-23.6-1-30.3-.5-.9.1-1.3.1-1.4 0-.1-.1-.8-.6-1.7-1.3-6.8-5.5-12.4-8.3-14.7-7.6m1.3 26.4c0 1.8-1.4 4.6-3.3 6.9l-.9 1 .1.7c0 .4.1 1.1.2 1.7.3 2.7 0 7.2-.9 11.3-.4 2-.2 2.6 1.1 3.5 2.8 2 10.1 11.4 10.6 13.7 1.2 5 .4 8.4-2 9.2-1.9.6-7.3-.6-12.8-2.8-2.7-1.1-2.8-1.1-7.7-1.1-5.6 0-5.1.2-6.1-3-.9-2.9-.9-3 .4-3.3 3.7-1.1 6.5-5.7 4.5-7.3-.9-.7-1.3-.7-8-.8-7.9-.1-8.6 0-9.4 1.4-1.4 2.5 1.2 5.4 6.5 7.1 1.6.5 1.7.6 2.4 3.2.8 2.8.8 3.5 0 4.3-1.1 1-2.6.2-4.7-2.6l-.7-.9.1 1.1c.2 3.3 1.6 6.4 3 6.9.5.2 1.7-.1 3.7-.9 4.3-1.7 11.3-1.3 18.5.9 4.1 1.3 7 2.1 9.3 2.7 6.6 1.7 10.4-.9 11-7.6.6-7.2-3.6-14.9-11.3-20.8-1.6-1.2-1.7-1.4-1.5-5.3.1-1.6.1-3 .1-3.2 0-.6.8-.4 2.3.6 7.7 5.1 13.7 3.8 16.4-3.6.4-1.1 1.7-2.1 4.2-3.2l1.1-.5-3.6-.2c-1.7 0-5.1-.1-7.6-.2-2.4-.1-6.1-.1-8.2-.2-4.9-.1-4.7-.1-4.9-1.7-.2-2-.7-4.2-1.4-6.3-.4-1.1-.5-1.3-.5-.7m-21 1.4c-1.2 1.5-1.2 1.6-1.3 4.2-.1 3.2 0 3.1-3 3.5-2.4.3-4.4.7-5.8 1.1-1 .3-1.1.4-.2.6 2.9.5 6 2.3 6.4 3.7.4 1.6-1.4 4.7-5.1 8.9-.6.7-1.3 1.5-1.5 1.8l-.4.5 1.4-.7C50 79.5 54.8 74 56.3 68.4c.6-2.1.5-2.7-.8-4.1-1.3-1.5-1.4-1.8-1.4-4.2 0-1.1 0-2-.1-2 .1 0-.4.5-.9 1.2m83.7 18.8c2.8 11.6-1.2 22.4-10.6 29.3-.8.6-.7.6.8.1 14.2-4.9 19.1-12.9 14.1-23.2-1.2-2.5-4.6-7.4-4.3-6.2m-87.6 37.6c.3 9.8 5.6 14.3 15 12.5 7.3-1.3 19.3-3.9 24.4-5.2 5.2-1.3 11.4-2 23.9-2.6 1.8-.1 3-.2 2.9-.2-.9-.5-4.9-1.6-7.2-2-6.6-1.1-12.4-.8-20.1.9-15.5 3.4-24.6 4.3-29.4 2.7-3.4-1.1-7.8-4.9-9.2-7.8-.3-.7-.3-.4-.3 1.7m91.7 1.8c-5 4.8-13 7.4-42.1 13.7-31.4 6.8-33.8 7.5-41 11.8-11 6.6-15.6 17.3-12 28.4l.4 1.1.3-1.5c2.2-13 14.3-22.9 37.2-30.4 6.8-2.2 13.7-4.1 25.4-6.8 15.5-3.6 23.6-7.2 29.9-13.4 1.2-1.2 3.5-3.9 3.2-3.9-.3 0-.8.4-1.3 1" clip-rule="evenodd"/></svg>