<?xml version="1.0" encoding="utf-8"?>
<!-- Generator: Adobe Illustrator 21.1.0, SVG Export Plug-In . SVG Version: 6.00 Build 0)  -->
<svg version="1.1" id="Layer_1" xmlns="http://www.w3.org/2000/svg" xmlns:xlink="http://www.w3.org/1999/xlink" x="0px" y="0px"
	 viewBox="0 0 303 301" style="enable-background:new 0 0 303 301;" xml:space="preserve">
<style type="text/css">
	.st0{fill:#223563;}
	.st1{fill:#FFFFFF;}
</style>
<polygon class="st0" points="62.8,197.5 62.8,197.5 62.8,96.9 149.9,46.6 215.3,84.4 215.3,58.1 149.9,20.4 40.1,83.8 40.1,210.6 
	62.8,223.7 "/>
<polygon class="st0" points="215.8,215.4 149.5,254.4 84.8,223.8 84.8,104.8 149.5,66.7 215.8,104.8 "/>
<polygon class="st0" points="215.3,107.2 149,140.8 149,254.4 215.3,215.2 "/>
<path class="st1" d="M138.7,163.4l11.3,19.3l9.2-20.3c0,0-5.3-8.9-2.6-17.6c2.7-8.7,11.8-13.7,11.8-13.7l-19.4,9.7l-18.3-9.3
	c0,0,14.3,8.2,11.1,20L138.7,163.4z"/>
<polygon class="st1" points="149.5,143.6 215.8,109.3 215.8,104.8 214.8,104.2 149.5,138 85.8,104.2 84.8,104.8 84.8,109.4 "/>
<path class="st1" d="M117.7,177.2c-14.4,0-26.1-11.7-26.1-26.1s11.7-26.1,26.1-26.1s26.1,11.7,26.1,26.1S132.1,177.2,117.7,177.2
	 M117.7,130c-11.6,0-21.1,9.5-21.1,21.1c0,11.6,9.5,21.1,21.1,21.1s21.1-9.5,21.1-21.1C138.9,139.4,129.4,130,117.7,130"/>
<path class="st1" d="M129.5,151.1c0,6.5-5.3,11.8-11.8,11.8c-6.5,0-11.8-5.3-11.8-11.8c0-6.5,5.3-11.8,11.8-11.8
	C124.3,139.3,129.5,144.6,129.5,151.1"/>
<path class="st0" d="M123.6,151.1c0,3.3-2.6,5.9-5.9,5.9s-5.9-2.6-5.9-5.9c0-3.3,2.6-5.9,5.9-5.9S123.6,147.8,123.6,151.1"/>
<path class="st0" d="M204.4,151.1c0,13-10.6,23.6-23.6,23.6c-13,0-23.6-10.6-23.6-23.6c0-13,10.6-23.6,23.6-23.6
	C193.8,127.5,204.4,138,204.4,151.1"/>
<polygon class="st0" points="237.2,70.8 237.2,127.8 237,127.8 237,197.5 149.9,247.8 84.7,210.1 84.7,236.3 149.9,274 259.7,210.6 
	259.7,83.8 "/>
<polygon class="st0" points="149.3,172.1 141.9,159.6 149,146.8 156.6,159.4 "/>
<path class="st1" d="M180.7,177.2c-14.4,0-26.1-11.7-26.1-26.1s11.7-26.1,26.1-26.1c14.4,0,26.1,11.7,26.1,26.1
	S195.1,177.2,180.7,177.2 M180.7,130c-11.6,0-21.1,9.5-21.1,21.1c0,11.6,9.5,21.1,21.1,21.1c11.6,0,21.1-9.5,21.1-21.1
	C201.9,139.4,192.4,130,180.7,130"/>
<path class="st1" d="M192.5,151.1c0,6.5-5.3,11.8-11.8,11.8c-6.5,0-11.8-5.3-11.8-11.8c0-6.5,5.3-11.8,11.8-11.8
	C187.3,139.3,192.5,144.6,192.5,151.1"/>
<path class="st0" d="M186.6,151.1c0,3.3-2.6,5.9-5.9,5.9c-3.3,0-5.9-2.6-5.9-5.9c0-3.3,2.6-5.9,5.9-5.9
	C184,145.2,186.6,147.8,186.6,151.1"/>
<g>
	<path class="st1" d="M123.9,197c1.7,0,3.2,0.1,4.3,0.3c1.2,0.2,2.1,0.5,2.9,1c0.8,0.4,1.3,1,1.8,1.6s0.7,1.4,0.9,2.3
		s0.3,1.9,0.3,2.9s0.1,2.3,0.1,3.6s0,2.5-0.1,3.6s-0.1,2.1-0.3,2.9s-0.5,1.6-0.9,2.3s-1,1.2-1.8,1.6c-0.8,0.4-1.7,0.7-2.9,1
		c-1.2,0.2-2.6,0.3-4.3,0.3h-8.5c-1.7,0-3.2-0.1-4.3-0.3c-1.2-0.2-2.1-0.5-2.9-1c-0.8-0.4-1.4-1-1.8-1.6s-0.7-1.4-0.9-2.3
		s-0.3-1.9-0.3-2.9s0-2.3,0-3.6s0-2.5,0-3.6s0.1-2.1,0.3-2.9s0.5-1.6,0.9-2.3s1-1.2,1.8-1.6c0.8-0.4,1.7-0.7,2.9-1
		c1.2-0.2,2.6-0.3,4.3-0.3H123.9z M123.9,218.1c1.2,0,2.3,0,3.1-0.1c0.9-0.1,1.6-0.2,2.1-0.4s1-0.5,1.3-1s0.5-1,0.7-1.7
		s0.2-1.5,0.2-2.6c0-1,0-2.2,0-3.6s0-2.6,0-3.6c0-1-0.1-1.9-0.2-2.6s-0.4-1.3-0.7-1.7s-0.7-0.7-1.3-1s-1.3-0.4-2.1-0.4
		c-0.9-0.1-1.9-0.1-3.2-0.1h-8.5c-1.3,0-2.3,0-3.2,0.1c-0.9,0.1-1.6,0.2-2.1,0.4s-1,0.5-1.3,1s-0.5,1-0.7,1.7s-0.2,1.5-0.2,2.6
		c0,1,0,2.2,0,3.6s0,2.6,0,3.6c0,1,0.1,1.9,0.2,2.6s0.4,1.3,0.7,1.7s0.7,0.7,1.3,1s1.3,0.4,2.1,0.4c0.9,0.1,1.9,0.1,3.2,0.1H123.9z"
		/>
	<path class="st1" d="M164.7,219.9h-2.8v-4.2c0-0.7,0-1.3,0-1.8c0-0.5-0.1-0.9-0.2-1.3s-0.4-0.6-0.7-0.8s-0.7-0.4-1.3-0.5
		s-1.3-0.2-2.1-0.2c-0.9,0-1.9-0.1-3.2-0.1h-12.6v8.9h-2.8v-22.5h15.9c1.7,0,3.2,0.1,4.3,0.2s2.1,0.3,2.9,0.5s1.4,0.5,1.8,0.9
		s0.7,0.8,0.9,1.3s0.3,1,0.3,1.6s0.1,1.3,0.1,2c0,0.9-0.1,1.8-0.2,2.5s-0.4,1.3-0.7,1.8s-0.7,0.9-1.2,1.2c-0.5,0.3-1.2,0.5-1.9,0.6
		c0.8,0.1,1.4,0.3,1.9,0.6s0.8,0.7,1.1,1.1s0.4,1,0.5,1.7s0.1,1.4,0.1,2.2V219.9z M141.7,208.7h13.1c1.3,0,2.3,0,3.2-0.1
		c0.9,0,1.6-0.1,2.1-0.2s1-0.3,1.3-0.5s0.5-0.5,0.7-0.8s0.2-0.8,0.2-1.3s0-1.1,0-1.8c0-0.6,0-1.2,0-1.6s-0.1-0.8-0.2-1.2
		s-0.4-0.6-0.7-0.7s-0.7-0.3-1.3-0.4c-0.6-0.1-1.3-0.2-2.1-0.2s-1.9,0-3.2,0h-13.1V208.7z"/>
	<path class="st1" d="M184.1,207.3c1.5,0,2.9,0.1,4,0.2c1.1,0.1,2,0.3,2.8,0.6s1.4,0.6,1.8,0.9c0.4,0.4,0.8,0.8,1,1.3s0.4,1,0.5,1.6
		c0.1,0.6,0.1,1.2,0.1,1.9c0,0.7-0.1,1.3-0.2,1.9c-0.1,0.6-0.3,1.1-0.7,1.6c-0.3,0.5-0.7,0.9-1.3,1.3s-1.2,0.7-2.1,1s-1.8,0.5-3,0.6
		c-1.2,0.1-2.5,0.2-4.1,0.2h-3.8c-1.4,0-2.6-0.1-3.7-0.2s-2-0.3-2.7-0.5c-0.8-0.2-1.4-0.5-1.9-0.8c-0.5-0.3-0.9-0.7-1.2-1.2
		c-0.3-0.5-0.5-1-0.6-1.6c-0.1-0.6-0.2-1.2-0.2-1.9h2.8c0,0.9,0.1,1.6,0.4,2.1s0.7,0.9,1.3,1.1s1.4,0.4,2.3,0.5s2.1,0.1,3.5,0.1h3.8
		c1.6,0,3-0.1,4.1-0.2c1.1-0.2,1.9-0.4,2.6-0.8c0.6-0.3,1.1-0.8,1.4-1.3s0.4-1.2,0.4-2s-0.1-1.5-0.3-2s-0.5-1-1.1-1.3
		s-1.3-0.5-2.2-0.7s-2.2-0.2-3.8-0.2h-3.9c-1.7,0-3.2-0.1-4.4-0.2s-2.3-0.3-3.1-0.5c-0.8-0.2-1.5-0.5-2-0.9s-0.9-0.8-1.1-1.2
		s-0.4-1-0.5-1.5s-0.1-1.2-0.1-1.8c0-0.7,0.1-1.3,0.2-1.9s0.3-1.1,0.7-1.6c0.3-0.5,0.8-0.9,1.4-1.3s1.3-0.7,2.2-0.9
		c0.9-0.2,2-0.4,3.3-0.6s2.8-0.2,4.5-0.2h2.8c1.4,0,2.6,0.1,3.7,0.2c1.1,0.1,2,0.3,2.7,0.5c0.8,0.2,1.4,0.5,1.9,0.8
		c0.5,0.3,0.9,0.7,1.2,1.2c0.3,0.5,0.5,1,0.6,1.5s0.2,1.2,0.2,1.9h-2.8c0-0.9-0.1-1.6-0.4-2.1s-0.7-0.9-1.3-1.1
		c-0.6-0.3-1.4-0.4-2.3-0.5s-2.1-0.1-3.5-0.1h-2.8c-1.9,0-3.4,0.1-4.6,0.2c-1.2,0.1-2.2,0.4-2.9,0.7s-1.2,0.7-1.5,1.3
		s-0.4,1.2-0.4,2c0,0.5,0,0.9,0.1,1.3s0.2,0.7,0.4,1c0.2,0.3,0.5,0.5,0.9,0.7s0.9,0.4,1.5,0.5s1.4,0.2,2.3,0.3s2,0.1,3.2,0.1H184.1z
		"/>
</g>
</svg>
