<svg xmlns="http://www.w3.org/2000/svg" viewBox="0 0 200 200"><linearGradient id="a" x1="53.5864" x2="185.3602" y1="84.9465" y2="134.2491" gradientUnits="userSpaceOnUse"><stop offset="0" stop-color="#5865ac"/><stop offset="1" stop-color="#544697"/></linearGradient><path fill="url(#a)" d="M185.5 58.6c-7.1 5.9-14.4 14.2-20.9 26.2-22.8 41.8-11.4 62.7-36.1 87.4-9.1 9.1-30 15.4-52.6 19.7-11.3-3-21.8-8-31-14.6 9-9.4 18.8-25.1 24.8-50.7C82.9 69.6 157 25.9 157 25.9l1.2-1c11.5 9 20.9 20.5 27.3 33.7z"/><linearGradient id="b" x1="5" x2="81.741" y1="63.197" y2="63.197" gradientUnits="userSpaceOnUse"><stop offset="0" stop-color="#b4368c"/><stop offset="1" stop-color="#db2686"/></linearGradient><path fill="url(#b)" d="M81.7 6.8c-27.2 36.2-18 38.1-40.6 78-12.8 22.7-25.2 31.6-34 34.8C5.7 113.3 5 106.7 5 100 5 53.8 38 15.3 81.7 6.8z"/><linearGradient id="c" x1="7.052" x2="158.178" y1="91.1555" y2="91.1555" gradientUnits="userSpaceOnUse"><stop offset="0" stop-color="#6b4092"/><stop offset="1" stop-color="#8f3e90"/></linearGradient><path fill="url(#c)" d="M158.2 24.9l-1.2 1S82.9 69.6 69.6 126.6c-6 25.6-15.8 41.3-24.8 50.7-19-13.6-32.8-34-37.8-57.7 8.9-3.2 21.2-12.1 34-34.8C63.7 44.9 54.5 43 81.7 6.8c6-1.2 12-1.8 18.3-1.8 21.9 0 42.1 7.4 58.2 19.9z"/><linearGradient id="d" x1="87.9478" x2="172.6341" y1="98.7228" y2="151.3016" gradientUnits="userSpaceOnUse"><stop offset=".5822" stop-color="#59c4eb"/><stop offset="1" stop-color="#53a5dc"/></linearGradient><path fill="url(#d)" d="M195 100c0 52.5-42.5 95-95 95-8.3 0-16.4-1.1-24.1-3.1 22.6-4.3 43.5-10.6 52.6-19.7 24.7-24.7 13.3-45.6 36.1-87.4 6.5-12 13.8-20.3 20.9-26.2 6.1 12.5 9.5 26.5 9.5 41.4z"/><path fill="#fff" d="M39 106.8c0-1.1.6-1.8 1.7-1.8h17.4c3.4 0 6.6.5 9.7 2 5.2 2.4 8.2 6.4 9.1 12 .5 3.2.4 6.5.3 9.7 0 2.2-.1 4.3-.4 6.5-.7 5-2.9 9-7.5 11.5-2.4 1.4-5.1 2.1-7.8 2.3-3.4.2-17.2.3-20.7.3-1.3 0-1.8-.6-1.8-1.8v-40.7zm11.9 7.8v25.1c2.7 0 5.4.1 8 0 1.6-.1 3.1-.6 4.2-1.8 1.3-1.4 1.8-3.1 1.9-4.9.1-3.3.1-6.7.1-10 0-1.6-.2-3.3-1-4.8-1.3-2.4-3.5-3.4-6-3.5-2.1-.2-6.8-.1-7.2-.1zM161 127.7c-.1 2-.1 4.5-.3 6.9-.7 7.6-5.1 12.7-12.5 14.5-5.4 1.3-10.9 1.3-16.2-.7-5.6-2.1-9-6.2-10-12.1-.4-2.2-.4-4.4-.5-6.6-.1-2.9 0-5.8.1-8.7.3-7.8 4.8-13.5 12.3-15.6 3.2-.9 6.6-1.1 9.9-.8 2.6.2 5.1.7 7.5 1.9 4.9 2.3 8 6.1 9.1 11.5.6 3 .4 6.1.6 9.7zm-12.3-.5c-.1-2.2-.2-4.5-.3-6.7-.1-1.6-.7-3-1.7-4.3-2.3-2.7-6.7-2.8-9.3-1.4-2.4 1.3-3.3 3.5-3.5 6-.2 2.6-.2 5.2-.1 7.8 0 1.9.1 3.8.3 5.7.2 1.8.9 3.4 2.4 4.6 2.2 1.7 4.7 1.8 7.3 1.1 2.7-.7 4.4-3 4.7-6.1.1-2.2.1-4.5.2-6.7zM104 105c1.6 0 2.4.5 2.9 2.1 3.4 9.4 6.8 18.8 10.3 28.2 1.4 3.9 2.9 7.9 4.3 11.8.5 1.4-.4 2.3-1.6 2.2-2.6-.1-5.1 0-7.7 0-1.3 0-2-.5-2.4-1.6-.7-1.8-1.4-3.6-2-5.4-.1-.3-.3-.5-.7-.5H91.5c-.4 0-.6.1-.7.5-.6 1.8-1.3 3.6-2 5.4-.4 1.2-1.1 1.7-2.4 1.7h-7.7c-1.4 0-2-.8-1.5-2.1l3-8.4c3.9-10.6 7.7-21.2 11.6-31.8.5-1.4 1.3-1.9 2.8-2 1.6-.1 7.8-.1 9.4-.1zm-10.3 27.2h11.2c-1.9-5.3-3.7-10.6-5.6-16-1.8 5.4-3.7 10.7-5.6 16zM51.3 81.3v13.3c0 1.4-.5 1.9-1.9 1.9h-8.5c-1.3 0-1.8-.6-1.8-1.9V54.2c0-1.3.8-2 2-2h17.6c3.4 0 6.7.5 9.8 1.9 4.4 2.1 6.9 5.5 7.5 10.3.3 2.7.2 5.4-.7 8.1-1.2 3.4-3.7 5.6-7 7-2.7 1.1-5.6 1.6-8.5 1.7-2.7.1-8.2.1-8.5.1zm-.2-9c.1 0 5.1.1 7.6 0 1.5 0 2.9-.5 3.9-1.7 1.6-2 1.6-5.6-.1-7.5-1.1-1.3-2.6-1.6-4.2-1.6h-7.1c-.1 3.5-.1 7.2-.1 10.8zm56.2 10.9c.1 2.2.4 4.3 2.1 5.8 1.4 1.2 4 1.3 5.5.1.6-.5 1.1-1 1.6-1.5s1.1-.7 1.8-.7h8.3c1.1 0 1.7.7 1.5 1.8-.4 1.8-1.6 3.2-2.9 4.3-2.5 2.2-5.4 3.4-8.6 3.9-3.3.5-6.6.5-9.9-.4-6-1.6-9.5-5.5-10.6-11.6-.7-3.8-.7-7.6.5-11.3 1.8-5.6 5.6-8.9 11.3-10.1 3.6-.8 7.2-.7 10.7.5 5 1.6 8.2 5.1 9.7 10.1.7 2.4.9 4.9.8 7.4 0 1-.7 1.6-1.8 1.6-2.3.1-19.7.1-20 .1zm10.3-6.5c-.3-1.2-.3-2.4-.8-3.4-1.2-3.1-5.1-4.1-7.5-2-1.7 1.4-1.9 3.4-1.9 5.4h10.2zm-26.5 18c0 1.2-.6 1.8-1.8 1.8h-7.2c-1.7 0-2.2-.5-2.2-2.1v-29c0-1.2.6-1.8 1.8-1.8h7.6c1.2 0 1.8.6 1.8 1.8v29.3zm-9.5-35.5c-1 0-1.7-.5-1.7-1.5-.1-2.1-.1-4.1 0-6.2 0-.9.8-1.4 1.7-1.4h7.8c1 0 1.7.7 1.7 1.7v5.7c0 1.1-.7 1.7-1.8 1.7h-7.7z"/></svg>