<svg xmlns="http://www.w3.org/2000/svg" version="1" viewBox="0 0 566.93 566.93"><path fill="#3D96D3" stroke="#3D96D3" stroke-linejoin="round" stroke-miterlimit="10" stroke-width="5" d="M471.76 218.3l72.16-71.75L420.74 23.76 167.99 276.91l58.2 62.58 35.48-35.08-23.52-24.31 182.59-179.8 47.44 47.04-33.49 33.09zM234.98 157.71l33.49-33.49L168.01 23.76 43.63 148.14l70.95 78.14 32.69-31.9-36.67-41.45 58.2-59zM356.75 391.64l-32.16 34.77 104.3 96.47 119.03-128.56-73.55-73.55-31.49 31.69 38.34 39.11-55.86 61.23z"/><path fill="#3D96D3" stroke="#3D96D3" stroke-linejoin="round" stroke-miterlimit="10" stroke-width="5" d="M355.77 204.75l66.57 66.18L170.4 522.88 43.63 396.1l63.78-63.78 31.09 31.09-33.48 33.49 58.2 58.2L347.4 270.93l-28.71-28.7z"/></svg>