<svg xmlns="http://www.w3.org/2000/svg" id="Livello_1" x="0" y="0" version="1.1" viewBox="0 0 200 200" xml:space="preserve"><style>.st4{fill:#29d9ff}.st5{fill:#fff}</style><linearGradient id="SVGID_1_" x1="72.751" x2="72.751" y1="195.0369" y2="66.7" gradientTransform="matrix(1 0 0 -1 0 200)" gradientUnits="userSpaceOnUse"><stop offset="0" stop-color="#ce08a0"/><stop offset="1" stop-color="#e30b96"/></linearGradient><path fill="url(#SVGID_1_)" d="M139.1 13.6C63.6-21.3-18.6 55.8 11.3 133.3l8-6.1C-4.7 57.7 68.8-7.9 134.5 22.1l6-7.8c-.5-.2-1-.4-1.4-.7z"/><linearGradient id="SVGID_2_" x1="61.8" x2="61.8" y1="81.2" y2="5.0406" gradientTransform="matrix(1 0 0 -1 0 200)" gradientUnits="userSpaceOnUse"><stop offset="0" stop-color="#cf0899"/><stop offset="1" stop-color="#b505bf"/></linearGradient><path fill="url(#SVGID_2_)" d="M115.2 183.9c-1 2.2-3.9 8.1-4.9 10.4-5.3.7-10.6.8-15.8.5h-.6c-16.7-1.1-32.8-6.9-46.5-16.2-19-12.8-33.6-32.2-39-55.1 2.8-1.3 5.8-2.9 8.8-4.7 4.9 22 18.4 40.7 36.7 52.6 13.5 8.8 29.5 13.9 46.4 13.8 5 .1 10-.4 14.9-1.3z"/><linearGradient id="SVGID_3_" x1="119.6" x2="119.6" y1="193.6749" y2="163.699" gradientTransform="matrix(1 0 0 -1 0 200)" gradientUnits="userSpaceOnUse"><stop offset="0" stop-color="#cf0899"/><stop offset="1" stop-color="#b505bf"/></linearGradient><path fill="url(#SVGID_3_)" d="M156.6 36.3C134.5 17 102.5 9.4 74.2 19c4.2-6.3 8-10.5 11.3-11.4 5.3-1.5 16.9-1.5 30.6-.9 18.2 3 35.5 11.7 48.9 24.3-3.1 3.1-5 1.8-8.4 5.3z"/><linearGradient id="SVGID_4_" x1="121.2003" x2="121.2003" y1="174.7" y2="5.0622" gradientTransform="matrix(1 0 0 -1 0 200)" gradientUnits="userSpaceOnUse"><stop offset="0" stop-color="#636bf7"/><stop offset="1" stop-color="#6439d2"/></linearGradient><path fill="url(#SVGID_4_)" d="M195 100.1c.1 51.3-39.6 89-84.7 94.2-5.2.6-10.5.8-15.8.5h-.6c-16.7-1.1-32.8-6.9-46.5-16.2 1.8-2.4 3.7-5 5.6-7.6 18.6 12.3 39.4 15.5 55.8 13.6 42.7-3.6 73.9-41.1 75.9-82 1.2-24.8-8-50.9-34.5-71.5 2.7-2 5.5-3.9 8.3-5.8 2.3 1.8 4.5 3.7 6.7 5.7 18.8 17.6 29.9 43.2 29.8 69.1z"/><path d="M195 100.1c1 53.7-48 99.5-102.1 94.5 11.3-3.1 20.9-6.8 30-12.8 47.4-11.7 76.1-68.3 56.1-114.1 2.1-2.8 4.4-5.6 6.8-8.5 6 12.8 9.2 26.8 9.2 40.9z" class="st4"/><circle cx="100" cy="100.4" r="85.1" class="st5"/><path d="M103.2 166.6L86 157.7l19.9 6.9-2.7 2zm9.9-6.9l-3.2 2.4-37.2-12.8c6.9 1.8 13.4 2.9 19.4 3.1l21 7.3z" class="st4"/><linearGradient id="SVGID_5_" x1="69.095" x2="64.9174" y1="139.4204" y2="146.7932" gradientUnits="userSpaceOnUse"><stop offset="0" stop-color="#636bf7"/><stop offset="1" stop-color="#6439d2"/></linearGradient><path fill="url(#SVGID_5_)" d="M92.1 152.5c-6-.2-12.5-1.4-19.4-3.1l-7.4-2.5-13.2-7.2-7.8-10.2c.7-.3 1.3-.6 2-.8l6.5 9.4 16.3 6.6 23 7.8z"/><linearGradient id="SVGID_6_" x1="42.1928" x2="46.3772" y1="126.05" y2="126.05" gradientUnits="userSpaceOnUse"><stop offset="0" stop-color="#cf0899"/><stop offset="1" stop-color="#b505bf"/></linearGradient><path fill="url(#SVGID_6_)" d="M46.4 128.5c-.7.3-1.4.6-2 .8l-2.2-2.8.3-3.7 3.9 5.7z"/><path d="M120.1 155.5l-3.2 1.8-14.8-5.2.3-.2c1.5-.3 3-.6 4.4-1.1l13.3 4.7z" class="st4"/><linearGradient id="SVGID_7_" x1="48.239" x2="106.7098" y1="139.35" y2="139.35" gradientUnits="userSpaceOnUse"><stop offset="0" stop-color="#636bf7"/><stop offset="1" stop-color="#6439d2"/></linearGradient><path fill="url(#SVGID_7_)" d="M106.7 150.7c-1.4.4-2.9.8-4.4 1.1l-.3.2-.3-.1-48.3-17-5.1-7.3 2.1-.9 4.1 5.2 50.4 18.1 1.8.7z"/><linearGradient id="SVGID_8_" x1="42.6721" x2="50.3404" y1="122.45" y2="122.45" gradientUnits="userSpaceOnUse"><stop offset="0" stop-color="#cf0899"/><stop offset="1" stop-color="#b505bf"/></linearGradient><path fill="url(#SVGID_8_)" d="M50.3 126.8l-2.1.9-5.6-7.9.1-2.6c.1 0 7.6 9.6 7.6 9.6z"/><path d="M127.4 151.4l-3.2 1.8-12.6-4.6c1-.6 2.1-1.2 3-1.9l12.8 4.7z" class="st4"/><linearGradient id="SVGID_9_" x1="52.9" x2="114.6" y1="136.55" y2="136.55" gradientUnits="userSpaceOnUse"><stop offset="0" stop-color="#636bf7"/><stop offset="1" stop-color="#6439d2"/></linearGradient><path fill="url(#SVGID_9_)" d="M114.6 146.7c-1 .7-2 1.4-3 1.9l-56.8-20.7-1.9-2.3c.8-.4 1.7-.7 2.5-1.1l.4.5 58.8 21.7z"/><linearGradient id="SVGID_10_" x1="42.6721" x2="55.4649" y1="118.25" y2="118.25" gradientUnits="userSpaceOnUse"><stop offset="0" stop-color="#cf0899"/><stop offset="1" stop-color="#b505bf"/></linearGradient><path fill="url(#SVGID_10_)" d="M55.5 124.5l-2.5 1.1-10.2-12.1.1-2.6 12.6 13.6z"/><path d="M135.9 145.9l-3.6 2.1-13.7-4.9 2.5-2.5 14.8 5.3z" class="st4"/><linearGradient id="SVGID_11_" x1="60.2" x2="121.1777" y1="131.7" y2="131.7" gradientUnits="userSpaceOnUse"><stop offset="0" stop-color="#636bf7"/><stop offset="1" stop-color="#6439d2"/></linearGradient><path fill="url(#SVGID_11_)" d="M121.1 140.6c-.8.9-1.7 1.7-2.5 2.5l-58.4-20.8 4.3-2 56.6 20.3z"/><linearGradient id="SVGID_12_" x1="43.0408" x2="64.4408" y1="113.7" y2="113.7" gradientUnits="userSpaceOnUse"><stop offset="0" stop-color="#cf0899"/><stop offset="1" stop-color="#b505bf"/></linearGradient><path fill="url(#SVGID_12_)" d="M64.5 120.4c-1.4.7-2.9 1.4-4.3 2l-3.1-1.1-14-13.7.1-2.6 14.5 13 6.8 2.4z"/><path d="M142.9 140.4l-3.6 2.1-14.9-5.3c.8-.8 1.6-1.7 2.5-2.5l16 5.7z" class="st4"/><linearGradient id="SVGID_13_" x1="70" x2="126.9593" y1="126.45" y2="126.45" gradientUnits="userSpaceOnUse"><stop offset="0" stop-color="#636bf7"/><stop offset="1" stop-color="#6439d2"/></linearGradient><path fill="url(#SVGID_13_)" d="M126.9 134.7l-2.5 2.5L70 117.7c1.4-.7 2.8-1.4 4.2-2l52.7 19z"/><linearGradient id="SVGID_14_" x1="43.0407" x2="74.1563" y1="108.4" y2="108.4" gradientUnits="userSpaceOnUse"><stop offset="0" stop-color="#cf0899"/><stop offset="1" stop-color="#b505bf"/></linearGradient><path fill="url(#SVGID_14_)" d="M74.2 115.7c-1.4.7-2.8 1.4-4.2 2l-10.7-3.8L43 101.7l.1-2.6 16.7 11.5 14.4 5.1z"/><path d="M149.3 135.2l-2.7 2.7-16.8-6.2 2.8-2.8 16.7 6.3z" class="st4"/><linearGradient id="SVGID_15_" x1="79.4" x2="132.6" y1="121.15" y2="121.15" gradientUnits="userSpaceOnUse"><stop offset="0" stop-color="#636bf7"/><stop offset="1" stop-color="#6439d2"/></linearGradient><path fill="url(#SVGID_15_)" d="M132.6 128.9c-1 .9-1.9 1.9-2.8 2.8L79.4 113c1.5-.8 3-1.6 4.4-2.4l48.8 18.3z"/><linearGradient id="SVGID_16_" x1="43.6306" x2="83.8155" y1="103.5" y2="103.5" gradientUnits="userSpaceOnUse"><stop offset="0" stop-color="#cf0899"/><stop offset="1" stop-color="#b505bf"/></linearGradient><path fill="url(#SVGID_16_)" d="M83.8 110.7c-1.4.8-2.8 1.6-4.4 2.4l-18.2-6.8-17.5-9.8v-2.6l17.4 8.2 22.7 8.6z"/><path d="M155.1 129.3l-2.4 2.7-16.8-6.3c1-.9 1.9-1.8 2.9-2.7l16.3 6.3z" class="st4"/><linearGradient id="SVGID_17_" x1="88.5" x2="138.9" y1="115.4" y2="115.4" gradientUnits="userSpaceOnUse"><stop offset="0" stop-color="#636bf7"/><stop offset="1" stop-color="#6439d2"/></linearGradient><path fill="url(#SVGID_17_)" d="M138.9 123c-1 .9-2 1.8-2.9 2.7l-47.5-17.8c1.6-1 2.9-2 3.9-2.8l46.5 17.9z"/><linearGradient id="SVGID_18_" x1="43.8149" x2="92.4054" y1="98.05" y2="98.05" gradientUnits="userSpaceOnUse"><stop offset="0" stop-color="#cf0899"/><stop offset="1" stop-color="#b505bf"/></linearGradient><path fill="url(#SVGID_18_)" d="M92.4 105.1c-1 .8-2.4 1.8-3.9 2.8l-26.1-9.8-18.5-7.2v-2.7l17.5 5 31 11.9z"/><path d="M158.5 124.6l-1.8 1.9-13.5-7-.3-.1c1-.8 2-1.7 3.1-2.6l12.5 7.8z" class="st4"/><linearGradient id="SVGID_19_" x1="95" x2="146" y1="108.8" y2="108.8" gradientUnits="userSpaceOnUse"><stop offset="0" stop-color="#636bf7"/><stop offset="1" stop-color="#6439d2"/></linearGradient><path fill="url(#SVGID_19_)" d="M146 116.8c-1 .8-2.1 1.7-3.1 2.6L95 101.3c.6-.8 1.5-1.8 2.9-3.1l47.4 18.2.7.4z"/><linearGradient id="SVGID_20_" x1="44.6" x2="97.9" y1="92.15" y2="92.15" gradientUnits="userSpaceOnUse"><stop offset="0" stop-color="#cf0899"/><stop offset="1" stop-color="#b505bf"/></linearGradient><path fill="url(#SVGID_20_)" d="M97.9 98.2c-1.3 1.2-2.3 2.2-2.9 3.1L61.6 88.6l-17-3.1.4-2.5 17.7 1.8 35.2 13.4z"/><path d="M160.1 119.5v2.4l-11.4-7.3 2.3-1.8 9.1 6.7z" class="st4"/><linearGradient id="SVGID_21_" x1="101.9" x2="151.1" y1="103.5" y2="103.5" gradientUnits="userSpaceOnUse"><stop offset="0" stop-color="#636bf7"/><stop offset="1" stop-color="#6439d2"/></linearGradient><path fill="url(#SVGID_21_)" d="M151.1 112.8l-2.3 1.8-6.5-4.2L101.9 95c1.1-.8 2.4-1.7 3.7-2.6l35.9 13.4 9.6 7z"/><linearGradient id="SVGID_22_" x1="46.4" x2="105.6" y1="85.6" y2="85.6" gradientUnits="userSpaceOnUse"><stop offset="0" stop-color="#cf0899"/><stop offset="1" stop-color="#b505bf"/></linearGradient><path fill="url(#SVGID_22_)" d="M105.6 92.4c-1.3.9-2.6 1.8-3.7 2.6L64.1 80.5l-17.7-.1.8-2.9 14.9-1.3 43.5 16.2z"/><path d="M159 113v2.2l-5.4-4.3c.6-.4 1.1-.8 1.7-1.2l3.7 3.3z" class="st4"/><linearGradient id="SVGID_23_" x1="109.8" x2="155.3" y1="99" y2="99" gradientUnits="userSpaceOnUse"><stop offset="0" stop-color="#636bf7"/><stop offset="1" stop-color="#6439d2"/></linearGradient><path fill="url(#SVGID_23_)" d="M155.3 109.8c-.6.4-1.1.8-1.7 1.2l-13.1-10.4-30.7-10.9c1.4-.9 2.9-1.8 4.5-2.7l23.8 8 17.2 14.8z"/><linearGradient id="SVGID_24_" x1="61.7691" x2="114.2691" y1="80.45" y2="80.45" gradientUnits="userSpaceOnUse"><stop offset="0" stop-color="#cf0899"/><stop offset="1" stop-color="#b505bf"/></linearGradient><path fill="url(#SVGID_24_)" d="M114.2 87.1c-1.6.9-3.1 1.8-4.5 2.7l-48-17.1c.9-.2 1.8-.5 2.6-.8.5-.2 1.1-.4 1.8-.8l48.1 16z"/><linearGradient id="SVGID_25_" x1="48.4196" x2="66.2196" y1="71.3" y2="71.3" gradientUnits="userSpaceOnUse"><stop offset="0" stop-color="#ce08a0"/><stop offset="1" stop-color="#e30b96"/></linearGradient><path fill="url(#SVGID_25_)" d="M66.2 71c-.7.3-1.3.6-1.8.8-.8.3-1.7.6-2.6.8l-.3-.1-13.1 1.4.7-2.8 10.5-2.4 6.6 2.3z"/><path d="M158.4 109.1l-.9-.8c.2-.1.4-.3.6-.4l.3 1.2z" class="st4"/><linearGradient id="SVGID_26_" x1="120" x2="158" y1="94.75" y2="94.75" gradientUnits="userSpaceOnUse"><stop offset="0" stop-color="#636bf7"/><stop offset="1" stop-color="#6439d2"/></linearGradient><path fill="url(#SVGID_26_)" d="M158 108c-.2.1-.4.3-.6.4l-20.2-18.9-17.2-5.6 5.6-2.8 9.1 2.6 22.9 22.5.4 1.8z"/><linearGradient id="SVGID_27_" x1="70.7" x2="125.5578" y1="75.25" y2="75.25" gradientUnits="userSpaceOnUse"><stop offset="0" stop-color="#cf0899"/><stop offset="1" stop-color="#b505bf"/></linearGradient><path fill="url(#SVGID_27_)" d="M125.5 81.2c-1.9.9-3.8 1.8-5.6 2.8L70.7 68.4c.9-.6 1.9-1.2 2.9-1.9l51.9 14.7z"/><linearGradient id="SVGID_28_" x1="50.1" x2="73.6" y1="65.25" y2="65.25" gradientUnits="userSpaceOnUse"><stop offset="0" stop-color="#ce08a0"/><stop offset="1" stop-color="#e30b96"/></linearGradient><path fill="url(#SVGID_28_)" d="M73.6 66.5c-1 .7-2 1.3-2.9 1.9l-11.6-3.6-9 3.1 1-3.4 6.6-2.4 15.9 4.4z"/><linearGradient id="SVGID_29_" x1="132.959" x2="157.8809" y1="90.4" y2="90.4" gradientUnits="userSpaceOnUse"><stop offset="0" stop-color="#636bf7"/><stop offset="1" stop-color="#6439d2"/></linearGradient><path fill="url(#SVGID_29_)" d="M157.9 103.9L133.4 78l-.5-.1c.8-.3 1.7-.7 2.5-1l21.9 24.3.6 2.7z"/><linearGradient id="SVGID_30_" x1="77.3" x2="135.4" y1="69.85" y2="69.85" gradientUnits="userSpaceOnUse"><stop offset="0" stop-color="#cf0899"/><stop offset="1" stop-color="#b505bf"/></linearGradient><path fill="url(#SVGID_30_)" d="M135.4 76.8c-.8.3-1.7.7-2.5 1L77.3 64l3-2.1 53.2 12.8 1.9 2.1z"/><linearGradient id="SVGID_31_" x1="52.6" x2="80.3" y1="60.05" y2="60.05" gradientUnits="userSpaceOnUse"><stop offset="0" stop-color="#ce08a0"/><stop offset="1" stop-color="#e30b96"/></linearGradient><path fill="url(#SVGID_31_)" d="M80.3 61.9l-3 2.1-20.8-5.2-3.9 1.6.7-2.9 2.9-1.4 24.1 5.8z"/><linearGradient id="SVGID_32_" x1="138.1" x2="156.6" y1="86.25" y2="86.25" gradientUnits="userSpaceOnUse"><stop offset="0" stop-color="#636bf7"/><stop offset="1" stop-color="#6439d2"/></linearGradient><path fill="url(#SVGID_32_)" d="M156.6 97.4l-18.5-21.7 1.5-.6L156 94.8l.6 2.6z"/><linearGradient id="SVGID_33_" x1="83.3" x2="139.5219" y1="66.85" y2="66.85" gradientUnits="userSpaceOnUse"><stop offset="0" stop-color="#cf0899"/><stop offset="1" stop-color="#b505bf"/></linearGradient><path fill="url(#SVGID_33_)" d="M139.6 75.2l-1.5.6-4-4.7-50.8-11.4c.8-.6 1.7-1.2 2.5-1.8l48.4 10.8 5.4 6.5z"/><linearGradient id="SVGID_34_" x1="56.0547" x2="85.8431" y1="55.85" y2="55.85" gradientUnits="userSpaceOnUse"><stop offset="0" stop-color="#ce08a0"/><stop offset="1" stop-color="#e30b96"/></linearGradient><path fill="url(#SVGID_34_)" d="M85.8 57.9c-.8.6-1.7 1.2-2.5 1.8l-27.2-6 3.5-1.7 26.2 5.9z"/><linearGradient id="SVGID_35_" x1="142.065" x2="155.4477" y1="82.6" y2="82.6" gradientUnits="userSpaceOnUse"><stop offset="0" stop-color="#636bf7"/><stop offset="1" stop-color="#6439d2"/></linearGradient><path fill="url(#SVGID_35_)" d="M155.4 91.6L142 74.2l1.5-.6 11.4 15.3.5 2.7z"/><linearGradient id="SVGID_36_" x1="88.6" x2="143.5684" y1="64.3" y2="64.3" gradientUnits="userSpaceOnUse"><stop offset="0" stop-color="#cf0899"/><stop offset="1" stop-color="#b505bf"/></linearGradient><path fill="url(#SVGID_36_)" d="M143.5 73.7l-1.5.6-6.6-8.6L88.6 56c.8-.6 1.6-1.1 2.4-1.7l44.9 9.4 7.6 10z"/><linearGradient id="SVGID_37_" x1="63.6124" x2="90.9308" y1="52.65" y2="52.65" gradientUnits="userSpaceOnUse"><stop offset="0" stop-color="#ce08a0"/><stop offset="1" stop-color="#e30b96"/></linearGradient><path fill="url(#SVGID_37_)" d="M90.9 54.3c-.8.6-1.6 1.1-2.4 1.7l-25-5.2 3.5-1.5 23.9 5z"/><linearGradient id="SVGID_38_" x1="145.3831" x2="154.6366" y1="79" y2="79" gradientUnits="userSpaceOnUse"><stop offset="0" stop-color="#636bf7"/><stop offset="1" stop-color="#6439d2"/></linearGradient><path fill="url(#SVGID_38_)" d="M154.1 82.9l.6 2.7-9.3-12.6 1.7-.6 7 10.5z"/><linearGradient id="SVGID_39_" x1="93.7" x2="147.1" y1="62" y2="62" gradientUnits="userSpaceOnUse"><stop offset="0" stop-color="#cf0899"/><stop offset="1" stop-color="#b505bf"/></linearGradient><path fill="url(#SVGID_39_)" d="M147.1 72.5l-1.7.6-8.9-12.2-42.8-8.6c.7-.5 1.3-.9 2-1.4l41.2 7.8 10.2 13.8z"/><linearGradient id="SVGID_40_" x1="71.6494" x2="95.6128" y1="49.7" y2="49.7" gradientUnits="userSpaceOnUse"><stop offset="0" stop-color="#ce08a0"/><stop offset="1" stop-color="#e30b96"/></linearGradient><path fill="url(#SVGID_40_)" d="M95.6 50.9c-.7.5-1.3 1-2 1.4l-22-4.4 3.7-.8 20.3 3.8z"/><linearGradient id="SVGID_41_" x1="148.3177" x2="153.7371" y1="75.95" y2="75.95" gradientUnits="userSpaceOnUse"><stop offset="0" stop-color="#636bf7"/><stop offset="1" stop-color="#6439d2"/></linearGradient><path fill="url(#SVGID_41_)" d="M153.8 80.2l-5.4-8.1c.4-.1.7-.3 1.1-.4l3.9 6.7.4 1.8z"/><linearGradient id="SVGID_42_" x1="98.1" x2="149.4555" y1="59.9" y2="59.9" gradientUnits="userSpaceOnUse"><stop offset="0" stop-color="#cf0899"/><stop offset="1" stop-color="#b505bf"/></linearGradient><path fill="url(#SVGID_42_)" d="M149.4 71.7c-.4.1-.7.2-1.1.4l-11.5-16.2-38.7-6.8c.7-.5 1.3-1 2-1.4l37.5 6.8 11.8 17.2z"/><linearGradient id="SVGID_43_" x1="78.8753" x2="100.1475" y1="46.7" y2="46.7" gradientUnits="userSpaceOnUse"><stop offset="0" stop-color="#ce08a0"/><stop offset="1" stop-color="#e30b96"/></linearGradient><path fill="url(#SVGID_43_)" d="M100.1 47.6c-.7.5-1.3 1-2 1.4l-19.2-3.4 3.9-1.2c0 .1 17.3 3.2 17.3 3.2z"/><linearGradient id="SVGID_44_" x1="102.4" x2="147.9" y1="55.55" y2="55.55" gradientUnits="userSpaceOnUse"><stop offset="0" stop-color="#cf0899"/><stop offset="1" stop-color="#b505bf"/></linearGradient><path fill="url(#SVGID_44_)" d="M147.9 66.6l-10.6-14.7-34.9-5.9c.7-.5 1.4-1 2.2-1.5l34.4 5.7 8.9 15.4v1z"/><linearGradient id="SVGID_45_" x1="85.8431" x2="104.6194" y1="43.9" y2="43.9" gradientUnits="userSpaceOnUse"><stop offset="0" stop-color="#ce08a0"/><stop offset="1" stop-color="#e30b96"/></linearGradient><path fill="url(#SVGID_45_)" d="M104.6 44.4c-.7.5-1.4 1-2.2 1.5l-16.6-2.8 3.5-1.2c0 .1 15.3 2.5 15.3 2.5z"/><linearGradient id="SVGID_46_" x1="106.5623" x2="139.1623" y1="45.2" y2="45.2" gradientUnits="userSpaceOnUse"><stop offset="0" stop-color="#cf0899"/><stop offset="1" stop-color="#b505bf"/></linearGradient><path fill="url(#SVGID_46_)" d="M139.2 48.2L106.6 43c.4-.3.8-.6 1.2-.8l31.4 6z"/><linearGradient id="SVGID_47_" x1="92.6524" x2="107.7863" y1="41.5" y2="41.5" gradientUnits="userSpaceOnUse"><stop offset="0" stop-color="#ce08a0"/><stop offset="1" stop-color="#e30b96"/></linearGradient><path fill="url(#SVGID_47_)" d="M107.8 42.2c-.4.3-.8.6-1.2.8l-13.9-2.2 3.5-.8 11.6 2.2z"/><circle cx="100" cy="100.4" r="34.7" class="st5"/><path d="M99.9 117.5c-3.4 0-6.3-.5-8.8-1.4-2.4-1-4.2-2.2-5.3-3.8-1.2-1.6-1.8-3.3-1.9-5.2 0-.3.1-.6.3-.7.2-.2.5-.3.8-.3h9.3c.4 0 .8.1 1.1.2.3.1.6.3 1 .6 1 .7 2.1 1.1 3.6 1.1 1.1 0 2-.1 2.6-.3.7-.3 1-.6 1-1 0-.6-.4-1-1.3-1.3s-2.5-.7-5-1c-8.4-1.1-12.6-4.7-12.6-10.7 0-2.2.6-4.1 1.8-5.8 1.3-1.7 3-3.1 5.3-4 2.2-1 4.8-1.4 7.7-1.4 3.1 0 5.7.5 8 1.5s4.1 2.4 5.3 3.9c1.2 1.5 1.9 3.1 2 4.6 0 .3-.1.6-.3.8-.2.2-.4.3-.7.3h-9.7c-.4 0-.8 0-1.1-.1-.3-.1-.6-.3-.9-.6-.7-.6-1.5-.9-2.6-.9-1.5 0-2.3.4-2.3 1.4 0 .5.4.9 1.1 1.2.8.3 2.2.6 4.3.9 3.2.4 5.8 1.1 7.8 1.9s3.4 2 4.3 3.4 1.4 3.2 1.4 5.3c0 2.3-.7 4.3-2.1 6.1-1.4 1.7-3.3 3.1-5.8 4s-5.2 1.3-8.3 1.3z"/></svg>