<?xml version="1.0" encoding="UTF-8" standalone="no"?><!DOCTYPE svg PUBLIC "-//W3C//DTD SVG 1.1//EN" "http://www.w3.org/Graphics/SVG/1.1/DTD/svg11.dtd"><svg width="100%" height="100%" viewBox="0 0 15 15" version="1.1" xmlns="http://www.w3.org/2000/svg" xmlns:xlink="http://www.w3.org/1999/xlink" xml:space="preserve" style="fill-rule:evenodd;clip-rule:evenodd;stroke-linejoin:round;stroke-miterlimit:1.41421;"><path id="icon_1_" d="M7.811,10.214c3.691,-0.277 6.589,-2.942 6.589,-2.942c0,0 -2.816,-2.595 -6.431,-2.929l-0.278,-0.466l-0.491,-0.794l-0.29,0.467l-0.479,0.793c-3.615,0.34 -6.431,2.923 -6.431,2.929c0,0 2.898,2.665 6.589,2.942l0.611,1.103l0.611,-1.103ZM0.611,7.272c0,0 2.658,-1.757 5.392,-2.204l-0.434,0.724l0.34,0.643l0.919,-1.462c0.126,-0.006 0.252,-0.012 0.372,-0.012c0.12,0 0.246,0.006 0.365,0.012l0.901,1.462l0.347,-0.674l-0.416,-0.7c2.734,0.441 5.392,2.161 5.392,2.205c0,0.051 -2.791,1.852 -5.594,2.236l1.367,-2.482l-0.371,-0.623l-0.712,1.285l-0.977,1.883c-0.107,0.007 -0.208,0.007 -0.315,0.007c-0.107,0 -0.214,0 -0.321,-0.007l-1.329,-2.532l0.006,-0.006l-0.34,-0.618l-0.372,0.624l1.367,2.476c-2.803,-0.391 -5.593,-2.237 -5.587,-2.237Z" style="fill:#b30d23;fill-rule:nonzero;"/></svg>