<svg xmlns="http://www.w3.org/2000/svg" id="Livello_1" x="0" y="0" version="1.1" viewBox="0 0 200 200" xml:space="preserve"><style>.st0{fill:#1b2844}</style><path d="M4.3 4.3h26v26h-26zM60.7 4.3h26v26h-26zM4.3 59.9h26v26h-26zM60.7 59.9h26v26h-26zM4.3 117h26v26h-26zM116.9 4.3h26v26h-26z" class="st0"/><circle cx="186" cy="186" r="9" class="st0"/><circle cx="186" cy="130" r="9" class="st0"/><circle cx="129.9" cy="186" r="9" class="st0"/><circle cx="129.9" cy="130" r="9" class="st0"/><circle cx="73.7" cy="186" r="9" class="st0"/><circle cx="73.7" cy="130" r="9" class="st0"/><circle cx="186" cy="72.9" r="9" class="st0"/><circle cx="186" cy="17.3" r="9" class="st0"/><circle cx="129.9" cy="72.9" r="9" class="st0"/><circle cx="17.3" cy="186" r="9" class="st0"/></svg>