<?xml version="1.0" encoding="utf-8"?>
<!-- Generator: Adobe Illustrator 23.0.1, SVG Export Plug-In . SVG Version: 6.00 Build 0)  -->
<svg version="1.1" id="Livello_1" xmlns="http://www.w3.org/2000/svg" xmlns:xlink="http://www.w3.org/1999/xlink" x="0px" y="0px"
	 viewBox="0 0 200 200" style="enable-background:new 0 0 200 200;" xml:space="preserve">
<style type="text/css">
	.st0{fill-rule:evenodd;clip-rule:evenodd;fill:#0072FF;}
</style>
<path id="Combined-Shape" class="st0" d="M131.7,136.4L106.4,156V96.9c0-10.1,4.8-19.7,12.9-25.8l24.9-18.7v58.5
	C144.2,120.9,139.6,130.3,131.7,136.4z M67.4,136.5c-7.9-6.1-12.5-15.5-12.5-25.5V52.4l24.9,18.8c8.1,6.1,12.9,15.7,12.9,25.8v59.1
	L67.4,136.5z M181,167.2l-24.2,18.5V59.5c0-10.7,5-20.8,13.5-27.2l24.3-18.6V140C194.6,150.6,189.6,160.7,181,167.2z M18.1,167.2
	c-8.5-6.5-13.5-16.6-13.5-27.3V13.6l24.3,18.6c8.5,6.5,13.5,16.6,13.5,27.2v126.2L18.1,167.2z"/>
</svg>
