<?xml version="1.0" encoding="utf-8"?>
<!-- Generator: Adobe Illustrator 22.1.0, SVG Export Plug-In . SVG Version: 6.00 Build 0)  -->
<svg version="1.1" id="Livello_1" xmlns="http://www.w3.org/2000/svg" xmlns:xlink="http://www.w3.org/1999/xlink" x="0px" y="0px"
	 viewBox="0 0 200 200" style="enable-background:new 0 0 200 200;" xml:space="preserve">
<style type="text/css">
	.st0{fill:#C42026;}
</style>
<path class="st0" d="M53.5,91c1.1-2.1,2.6-3.8,4.3-5.6C83.2,59.6,108.7,33.8,134.1,8c2.3-2.3,4.8-3.8,8.1-2.7
	c2.8,0.9,4.6,3.4,4.7,6.4c0,0.3,0,0.6,0,0.8c0,58.3,0,116.7,0,175c0,5.1-3.6,8.2-8.6,7.2c-1.3-0.3-2.5-1-3.4-1.9
	c-12.6-12.6-25-25.3-37.5-37.9c-1.8-1.8-2.3-4-2.3-6.4c0-13.3,0-26.6,0-39.9c0-6-2.6-8.6-8.6-8.6c-7.9,0-15.8-0.2-23.7,0.1
	c-4.8,0.1-8-0.4-9.7-5.4C52.8,93.5,52.9,92.1,53.5,91z"/>
</svg>
