<?xml version="1.0" encoding="UTF-8" standalone="no"?>
<svg width="15px" height="12px" viewBox="0 0 15 12" version="1.1" xmlns="http://www.w3.org/2000/svg" xmlns:xlink="http://www.w3.org/1999/xlink">
    <!-- Generator: Sketch 46.2 (44496) - http://www.bohemiancoding.com/sketch -->
    <title>0xaf4dce16da2877f8c9e00544c93b62ac40631f16</title>
    <desc>Created with Sketch.</desc>
    <defs>
        <linearGradient x1="49.9993494%" y1="100%" x2="49.9993494%" y2="-0.000375165542%" id="linearGradient-1">
            <stop stop-color="#0072FF" offset="0%"></stop>
            <stop stop-color="#00E981" offset="100%"></stop>
        </linearGradient>
        <linearGradient x1="50%" y1="100%" x2="50%" y2="-0.000375165542%" id="linearGradient-2">
            <stop stop-color="#0072FF" offset="0%"></stop>
            <stop stop-color="#00E981" offset="100%"></stop>
        </linearGradient>
        <linearGradient x1="0%" y1="49.9999899%" x2="100.0005%" y2="49.9999899%" id="linearGradient-3">
            <stop stop-color="#094DA0" offset="0%"></stop>
            <stop stop-color="#0072FF" offset="100%"></stop>
        </linearGradient>
        <linearGradient x1="0%" y1="49.9997552%" x2="100%" y2="49.9997552%" id="linearGradient-4">
            <stop stop-color="#094DA0" offset="0%"></stop>
            <stop stop-color="#0072FF" offset="100%"></stop>
        </linearGradient>
    </defs>
    <g id="Page-1" stroke="none" stroke-width="1" fill="none" fill-rule="evenodd">
        <g id="0xaf4dce16da2877f8c9e00544c93b62ac40631f16" fill-rule="nonzero">
            <path d="M10.9766837,3.65461371 L10.9766837,11.404367 C12.7108397,11.404367 14.1166471,9.99855959 14.1166471,8.26440364 L14.1166471,0.514609507 C12.3824911,0.514609507 10.9766837,1.9204169 10.9766837,3.65461371 Z" id="Shape" fill="url(#linearGradient-1)"></path>
            <path d="M0.882161385,8.23678592 C0.882161385,9.97094187 2.28796878,11.3767493 4.02216559,11.3767493 L4.02216559,3.62695513 C4.02216559,1.89279918 2.61631734,0.486991785 0.882161385,0.486991785 L0.882161385,8.23678592 Z" id="Shape" fill="url(#linearGradient-2)"></path>
            <path d="M0.882161385,0.487808878 L4.75705845,7.19932376 C5.62415686,8.70118035 7.54452816,9.21574426 9.0463439,8.34864586 L5.17148769,1.63717184 C4.5898405,0.629737819 3.53448402,0.0665569151 2.44926281,0.0665977697 C1.9166003,0.0666386243 1.37662482,0.202357664 0.882161385,0.487808878 Z" id="Shape" fill="url(#linearGradient-3)"></path>
            <path d="M9.82813787,1.66478956 L5.9532408,8.37626358 C7.45505654,9.24336199 9.3754687,8.72879808 10.2425671,7.22694148 L14.1174642,0.515426599 C13.6230007,0.229975386 13.0830661,0.0942563458 12.5504036,0.0942563458 C11.4651415,0.0941746366 10.4097442,0.657355541 9.82813787,1.66478956 Z" id="Shape" fill="url(#linearGradient-4)"></path>
        </g>
    </g>
</svg>