<?xml version="1.0" encoding="UTF-8" standalone="no"?><!DOCTYPE svg PUBLIC "-//W3C//DTD SVG 1.1//EN" "http://www.w3.org/Graphics/SVG/1.1/DTD/svg11.dtd"><svg width="100%" height="100%" viewBox="0 0 15 15" version="1.1" xmlns="http://www.w3.org/2000/svg" xmlns:xlink="http://www.w3.org/1999/xlink" xml:space="preserve" style="fill-rule:evenodd;clip-rule:evenodd;stroke-linejoin:round;stroke-miterlimit:1.41421;"><g><g id="layer2"><path d="M0.822,10.756c-0.05,-0.057 -0.066,-0.112 -0.067,-0.22c0,-0.242 0.022,-1.252 0.032,-1.469c0.012,-0.252 0.002,-0.876 -0.015,-0.886c-0.006,-0.004 -0.011,-0.043 -0.011,-0.086c0,-0.045 -0.006,-0.112 -0.014,-0.149c-0.007,-0.038 -0.015,-0.082 -0.019,-0.1c-0.024,-0.13 -0.036,-0.17 -0.069,-0.216c-0.057,-0.079 -0.07,-0.063 -0.064,0.085c0.004,0.13 -0.018,0.254 -0.035,0.203c-0.008,-0.021 -0.011,-0.021 -0.033,0.005c-0.018,0.019 -0.021,0.029 -0.011,0.033c0.012,0.004 0.011,0.014 -0.003,0.037c-0.017,0.024 -0.032,0.03 -0.078,0.03c-0.048,0 -0.063,-0.006 -0.095,-0.04c-0.048,-0.052 -0.084,-0.141 -0.048,-0.118c0.007,0.005 0.013,-0.009 0.013,-0.031c0,-0.085 0.029,-0.153 0.091,-0.212c0.051,-0.046 0.068,-0.055 0.112,-0.055c0.045,0 0.05,-0.003 0.05,-0.033c0,-0.018 -0.005,-0.03 -0.012,-0.024c-0.007,0.003 -0.013,-0.004 -0.013,-0.018c0,-0.014 -0.015,-0.059 -0.033,-0.099c-0.018,-0.041 -0.042,-0.094 -0.053,-0.118c-0.012,-0.024 -0.05,-0.078 -0.087,-0.117c-0.057,-0.063 -0.068,-0.085 -0.087,-0.164c-0.024,-0.109 -0.051,-0.176 -0.069,-0.176c-0.007,0 -0.014,-0.019 -0.012,-0.041c0,-0.035 0.002,-0.038 0.011,-0.016c0.008,0.019 0.011,0.009 0.013,-0.038c0.001,-0.088 0.026,-0.151 0.082,-0.208c0.036,-0.036 0.055,-0.047 0.075,-0.042c0.024,0.006 0.024,0.005 0.009,-0.014c-0.03,-0.038 0.005,-0.023 0.057,0.023c0.027,0.024 0.042,0.044 0.032,0.044c-0.014,0 -0.014,0.004 -0.001,0.019c0.02,0.024 0.044,0.024 0.082,-0.001c0.018,-0.012 0.046,-0.018 0.062,-0.015c0.024,0.005 0.042,-0.006 0.074,-0.037c0.04,-0.042 0.092,-0.073 0.143,-0.084c0.022,-0.005 0.022,-0.006 -0.004,-0.008c-0.017,-0.001 -0.028,-0.007 -0.025,-0.016c0.006,-0.019 0.074,-0.031 0.074,-0.013c0,0.027 0.13,0.023 0.199,-0.004c0.061,-0.025 0.063,-0.028 0.039,-0.043c-0.035,-0.023 -0.021,-0.029 0.026,-0.012c0.049,0.016 0.125,0.138 0.139,0.219c0.022,0.124 -0.002,0.357 -0.058,0.579c-0.043,0.167 -0.061,0.216 -0.078,0.216c-0.012,0 -0.072,0.116 -0.115,0.227c-0.015,0.036 -0.033,0.119 -0.039,0.184c-0.007,0.063 -0.014,0.124 -0.018,0.134c-0.003,0.01 -0.009,0.048 -0.013,0.083c-0.004,0.035 -0.011,0.091 -0.016,0.125c-0.014,0.094 0.003,1.886 0.02,2.026c0.03,0.267 0.03,0.417 0,0.398c-0.009,-0.005 -0.01,0.009 -0.005,0.042c0.01,0.058 -0.01,0.16 -0.041,0.202c-0.025,0.035 -0.067,0.039 -0.094,0.009Z" style="fill:#c72728;fill-rule:nonzero;"/><path d="M1.104,8.194c-0.028,-0.026 -0.055,-0.06 -0.058,-0.075c-0.007,-0.027 0.02,-0.156 0.048,-0.226c0.018,-0.046 0.074,-0.085 0.122,-0.085c0.033,0 0.037,-0.004 0.031,-0.028c-0.011,-0.059 0.035,0.018 0.056,0.09c0.04,0.136 -0.002,0.307 -0.085,0.35c-0.05,0.027 -0.057,0.026 -0.114,-0.026Z" style="fill:#c72728;fill-rule:nonzero;"/><path d="M0.212,6.56c-0.009,-0.024 0.062,-0.127 0.082,-0.12c0.028,0.01 0.022,0.029 -0.026,0.083c-0.037,0.042 -0.051,0.051 -0.056,0.037Z" style="fill:#c72728;fill-rule:nonzero;"/><path d="M0.975,6.357c0.007,-0.009 0.029,-0.018 0.049,-0.019l0.036,-0.002l-0.037,0.019c-0.045,0.024 -0.066,0.025 -0.048,0.002Z" style="fill:#c72728;fill-rule:nonzero;"/></g><g id="layer3"><path d="M1.562,13.449c-0.032,-0.077 -0.059,-0.143 -0.063,-0.146c-0.004,-0.004 -0.007,-1.409 -0.004,-3.125l0.002,-3.116l0.068,-0.006l0.066,-0.003l-0.004,2.087c-0.001,1.149 -0.004,2.62 -0.006,3.268l-0.003,1.18l-0.056,-0.139Z" style="fill:#58585a;fill-rule:nonzero;"/><path d="M4.188,12.216l0,-0.743l-0.312,-0.636l-0.313,-0.637l0.072,-0.142l0.071,-0.144l0.152,0l-0.071,0.144l-0.071,0.142l0.312,0.637l0.312,0.636l0,1.487l-0.076,0l-0.076,0l0,-0.744Z" style="fill:#58585a;fill-rule:nonzero;"/><path d="M6.246,12.424c-0.051,-0.295 -0.091,-0.54 -0.091,-0.545c0,-0.007 0.033,-0.01 0.073,-0.01l0.073,0l0.087,0.511c0.05,0.281 0.092,0.525 0.094,0.546c0.005,0.034 0.005,0.034 -0.07,0.034l-0.073,0l-0.093,-0.536Z" style="fill:#58585a;fill-rule:nonzero;"/><path d="M8.871,11.437l0,-1.523l0.152,0l0,3.046l-0.076,0l-0.076,0l0,-1.523Z" style="fill:#58585a;fill-rule:nonzero;"/><path d="M11.459,11.437l0,-1.523l0.153,0l0,3.046l-0.076,0l-0.077,0l0,-1.523Z" style="fill:#58585a;fill-rule:nonzero;"/><path d="M12.64,12.952c0,-0.003 0.305,-0.587 0.679,-1.298l0.678,-1.29l0,-0.225l0,-0.225l0.153,0l0,0.45l-0.682,1.298l-0.682,1.298l-0.073,0c-0.04,0 -0.073,-0.004 -0.073,-0.008Z" style="fill:#58585a;fill-rule:nonzero;"/><path d="M2.843,11.422l0,-0.448l0.152,0.279l0,0.616l-0.076,0l-0.076,0l0,-0.447Z" style="fill:#58585a;fill-rule:nonzero;"/><path d="M5.381,10.891l0,-0.977l0.152,0l0,1.955l-0.076,0l-0.076,0l0,-0.978Z" style="fill:#58585a;fill-rule:nonzero;"/><path d="M7.475,10.891l0,-0.977l0.152,0l0,1.955l-0.076,0l-0.076,0l0,-0.978Z" style="fill:#58585a;fill-rule:nonzero;"/><path d="M10.063,10.891l0,-0.977l0.14,0l0,1.955l-0.07,0l-0.07,0l0,-0.978Z" style="fill:#58585a;fill-rule:nonzero;"/><path d="M12.64,10.469l0,-0.555l0.152,0l0.002,0.41l0.004,0.409l-0.068,0.133c-0.038,0.074 -0.074,0.138 -0.08,0.146c-0.005,0.006 -0.01,-0.239 -0.01,-0.543Z" style="fill:#58585a;fill-rule:nonzero;"/><path d="M3.952,9.404c0.072,-0.148 0.155,-0.317 0.184,-0.374l0.052,-0.106l0,-0.742l0,-0.742l0.152,0l0,1.481l-0.184,0.377l-0.183,0.375l-0.076,0l-0.076,0l0.131,-0.269Z" style="fill:#58585a;fill-rule:nonzero;"/><path d="M8.868,8.556l0.003,-1.116l0.152,0l0,2.233l-0.079,0l-0.08,0l0.004,-1.117Z" style="fill:#58585a;fill-rule:nonzero;"/><path d="M12.637,9.102l0.003,-0.571l0.152,0l0,1.142l-0.079,0l-0.08,0l0.004,-0.571Z" style="fill:#58585a;fill-rule:nonzero;"/><path d="M13.995,8.556l0.002,-1.116l0.153,0l0,2.233l-0.079,0l-0.08,0l0.004,-1.117Z" style="fill:#58585a;fill-rule:nonzero;"/><path d="M5.381,8.55l0,-1.11l0.152,0l0,2.221l-0.076,0l-0.076,0l0,-1.111Z" style="fill:#58585a;fill-rule:nonzero;"/><path d="M7.475,9.096l0,-0.565l0.152,0l0,1.13l-0.076,0l-0.076,0l0,-0.565Z" style="fill:#58585a;fill-rule:nonzero;"/><path d="M10.063,9.096l0,-0.565l0.14,0l0,1.13l-0.07,0l-0.07,0l0,-0.565Z" style="fill:#58585a;fill-rule:nonzero;"/><path d="M11.459,8.55l0,-1.11l0.153,0l0,2.221l-0.076,0l-0.077,0l0,-1.111Z" style="fill:#58585a;fill-rule:nonzero;"/><path d="M2.843,8.992l0,-0.461l0.152,0l0,0.628l-0.076,0.146l-0.075,0.146l-0.001,-0.459Z" style="fill:#58585a;fill-rule:nonzero;"/><path d="M3.462,6.336l0.002,-0.724l0.14,0l0,1.447l-0.072,0l-0.074,0l0.004,-0.723Z" style="fill:#58585a;fill-rule:nonzero;"/><path d="M5.226,6.999c0.023,-0.009 0.023,-5.531 0,-5.54c-0.009,-0.004 0.028,-0.008 0.082,-0.008l0.098,-0.001l0,5.558l-0.098,-0.001c-0.054,0 -0.091,-0.004 -0.082,-0.008Z" style="fill:#58585a;fill-rule:nonzero;"/><path d="M6.723,6.999c0.012,-0.005 0.016,-0.432 0.016,-2.078l0,-2.073l0.082,-0.005l0.083,-0.004l0,1.143l-0.077,0.201l-0.076,0.203l0.153,0.391l0,2.231l-0.098,-0.001c-0.055,0 -0.092,-0.004 -0.083,-0.008Z" style="fill:#58585a;fill-rule:nonzero;"/><path d="M8.864,6.996c0.004,-0.008 -0.212,-0.593 -0.481,-1.3l-0.49,-1.288l0.28,-0.77l0.279,-0.771l0,-0.701c0,-0.549 -0.004,-0.702 -0.015,-0.707c-0.009,-0.004 0.027,-0.008 0.082,-0.008l0.098,-0.001l0,1.411l-0.281,0.773l-0.28,0.774l0.914,2.404l-0.016,0.091c-0.011,0.066 -0.012,0.094 -0.002,0.098c0.007,0.002 -0.01,0.006 -0.041,0.006c-0.034,0.001 -0.052,-0.004 -0.047,-0.011Z" style="fill:#58585a;fill-rule:nonzero;"/><path d="M11.749,6.027l0.002,-0.982l-0.839,-1.096l-0.84,-1.097l0.082,-0.006c0.044,-0.004 0.083,-0.003 0.085,0.004c0.002,0.005 0.38,0.501 0.841,1.102l0.836,1.092l0,1.964l-0.085,0l-0.086,0l0.004,-0.981Z" style="fill:#58585a;fill-rule:nonzero;"/><path d="M13.982,6.999c0.012,-0.005 0.015,-0.432 0.015,-2.078l0,-2.073l0.08,-0.005l0.079,-0.004l-0.004,2.085l-0.002,2.084l-0.093,-0.001c-0.049,0 -0.084,-0.004 -0.075,-0.008Z" style="fill:#58585a;fill-rule:nonzero;"/><path d="M1.497,4.167l0,-1.433l0.068,-0.005l0.066,-0.004l-0.004,1.438l-0.003,1.437l-0.063,0l-0.064,0l0,-1.433Z" style="fill:#58585a;fill-rule:nonzero;"/><path d="M11.745,2.834c0.01,-0.019 -0.223,-1.364 -0.24,-1.374c-0.008,-0.005 0.028,-0.01 0.077,-0.01c0.086,0 0.093,0.002 0.099,0.029c0.004,0.015 0.055,0.314 0.115,0.662c0.059,0.349 0.111,0.65 0.115,0.671l0.008,0.034l-0.092,0c-0.053,0 -0.087,-0.005 -0.082,-0.012Z" style="fill:#58585a;fill-rule:nonzero;"/><path d="M14.83,2.836c0.01,-0.007 -0.018,-0.201 -0.102,-0.682c-0.063,-0.369 -0.12,-0.68 -0.125,-0.688c-0.008,-0.012 0.01,-0.016 0.078,-0.016c0.05,0 0.091,0.004 0.091,0.007c0,0.004 0.052,0.305 0.114,0.671c0.063,0.364 0.114,0.675 0.114,0.69c0,0.027 -0.006,0.028 -0.091,0.028c-0.051,0 -0.087,-0.005 -0.079,-0.01Z" style="fill:#58585a;fill-rule:nonzero;"/><path d="M3.354,2.705c-0.001,-0.011 -0.051,-0.301 -0.11,-0.642c-0.06,-0.342 -0.109,-0.628 -0.109,-0.636c0,-0.01 0.024,-0.015 0.067,-0.015l0.066,0l0.111,0.644c0.061,0.355 0.112,0.648 0.112,0.653c-0.001,0.004 -0.032,0.01 -0.068,0.012c-0.055,0.003 -0.068,0 -0.069,-0.016Z" style="fill:#58585a;fill-rule:nonzero;"/></g><g id="layer4"><path d="M1.954,11.437l0,-1.523l1.752,0l-0.071,0.144l-0.072,0.142l0.313,0.637l0.312,0.636l0,1.487l-1.117,0l-1.117,0l0,-1.523ZM3.296,11.85c0.002,-0.002 -0.065,-0.132 -0.149,-0.291c-0.084,-0.159 -0.152,-0.293 -0.152,-0.297c0,-0.005 -0.034,-0.071 -0.076,-0.148l-0.076,-0.14l0,0.895l0.226,-0.008c0.123,-0.005 0.225,-0.01 0.227,-0.011Z" style="fill:#f8981d;fill-rule:nonzero;"/><path d="M4.505,11.437l0,-1.523l0.876,0l0,1.955l0.769,0l0.091,0.53c0.051,0.291 0.091,0.537 0.091,0.546c0,0.011 -0.191,0.015 -0.913,0.015l-0.914,0l0,-1.523Z" style="fill:#f8981d;fill-rule:nonzero;"/><path d="M6.599,11.437l0,-1.523l0.876,0l0,1.955l0.52,0l0,-0.978l0,-0.977l0.876,0l0,3.046l-1.136,0l-1.136,0l0,-1.523Z" style="fill:#f8981d;fill-rule:nonzero;"/><path d="M9.188,11.437l0,-1.523l0.875,0l0,1.955l0.521,0l0,-0.978l0,-0.977l0.875,0l0,3.046l-1.135,0l-1.136,0l0,-1.523Z" style="fill:#f8981d;fill-rule:nonzero;"/><path d="M11.764,11.437l0,-1.523l0.876,0l0,0.555c0,0.326 0.005,0.549 0.011,0.543c0.006,-0.008 0.072,-0.132 0.147,-0.279c0.075,-0.146 0.179,-0.345 0.23,-0.44l0.094,-0.174l0,-0.102l0,-0.103l0.875,0l0,0.45l-0.681,1.298l-0.683,1.298l-0.434,0l-0.435,0l0,-1.523Z" style="fill:#f8981d;fill-rule:nonzero;"/><path d="M1.954,8.556l0,-1.116l2.234,0l0,1.481l-0.184,0.377l-0.183,0.375l-0.934,0l-0.933,0l0,-1.117ZM3.076,8.992c0.123,-0.246 0.223,-0.451 0.223,-0.455c0,-0.003 -0.102,-0.006 -0.228,-0.006l-0.228,0l0,0.459c0,0.253 0.002,0.456 0.005,0.454c0.002,-0.003 0.105,-0.207 0.228,-0.452Z" style="fill:#f8981d;fill-rule:nonzero;"/><path d="M4.505,8.556l0,-1.116l0.876,0l0,1.109c0,1 -0.003,1.109 -0.021,1.117c-0.011,0.003 -0.208,0.007 -0.437,0.007l-0.418,0l0,-1.117Z" style="fill:#f8981d;fill-rule:nonzero;"/><path d="M6.599,8.556l0,-1.116l2.272,0l-0.003,1.114l-0.004,1.113l-0.434,0.004l-0.435,0.002l0,-0.571l0,-0.571l-0.26,0l-0.26,0l0,0.564c0,0.502 -0.003,0.564 -0.021,0.571c-0.011,0.003 -0.208,0.007 -0.438,0.007l-0.417,0l0,-1.117Z" style="fill:#f8981d;fill-rule:nonzero;"/><path d="M9.188,8.556l0,-1.116l2.271,0l0,1.109c0,1 -0.002,1.109 -0.02,1.117c-0.011,0.003 -0.208,0.007 -0.438,0.007l-0.417,0l0,-0.571l0,-0.571l-0.26,0l-0.261,0l0,0.564c0,0.502 -0.002,0.564 -0.02,0.571c-0.011,0.003 -0.208,0.007 -0.438,0.007l-0.417,0l0,-1.117Z" style="fill:#f8981d;fill-rule:nonzero;"/><path d="M11.764,8.556l0,-1.116l2.233,0l-0.002,1.114l-0.004,1.113l-0.434,0.004l-0.435,0.002l0,-0.571l0,-0.571l-0.241,0l-0.241,0l-0.003,0.569l-0.004,0.567l-0.434,0.004l-0.435,0.002l0,-1.117Z" style="fill:#f8981d;fill-rule:nonzero;"/></g><g id="layer5"><path d="M1.244,13.002c-0.129,-0.32 -0.46,-1.152 -0.738,-1.85l-0.506,-1.269l0,-4.235l0,-4.236l3.129,0l0.115,0.651c0.063,0.356 0.113,0.653 0.11,0.66c-0.004,0.005 -0.392,0.009 -0.864,0.009c-0.472,0 -0.89,0 -0.925,0l-0.068,0l0,2.868l0.467,0c0.257,0.001 0.552,0.002 0.657,0.005c0.105,0.002 0.337,0.005 0.517,0.006l0.326,0.001l-0.002,0.721l-0.004,0.72l-0.976,0.002c-0.537,0.003 -0.978,0.005 -0.979,0.008c-0.003,0.002 -0.006,1.471 -0.006,3.261c0,1.792 -0.005,3.258 -0.01,3.258c-0.006,0 -0.115,-0.262 -0.243,-0.58ZM0.916,10.747c0.031,-0.042 0.051,-0.144 0.041,-0.202c-0.005,-0.033 -0.004,-0.047 0.005,-0.042c0.03,0.019 0.03,-0.131 0,-0.398c-0.017,-0.14 -0.034,-1.932 -0.02,-2.026c0.005,-0.034 0.012,-0.09 0.016,-0.125c0.004,-0.035 0.01,-0.073 0.013,-0.083c0.004,-0.01 0.011,-0.071 0.018,-0.134c0.006,-0.065 0.024,-0.148 0.039,-0.184c0.043,-0.111 0.103,-0.227 0.115,-0.227c0.017,0 0.035,-0.049 0.078,-0.216c0.056,-0.222 0.08,-0.455 0.058,-0.579c-0.014,-0.081 -0.09,-0.203 -0.139,-0.219c-0.047,-0.017 -0.061,-0.011 -0.026,0.012c0.024,0.015 0.022,0.018 -0.039,0.043c-0.069,0.027 -0.199,0.031 -0.199,0.004c0,-0.018 -0.068,-0.006 -0.074,0.013c-0.003,0.009 0.008,0.015 0.025,0.016c0.026,0.002 0.026,0.003 0.004,0.008c-0.051,0.011 -0.103,0.042 -0.143,0.084c-0.032,0.031 -0.05,0.042 -0.074,0.037c-0.016,-0.003 -0.044,0.003 -0.062,0.015c-0.038,0.025 -0.062,0.025 -0.082,0.001c-0.013,-0.015 -0.013,-0.019 0.001,-0.019c0.01,0 -0.005,-0.02 -0.032,-0.044c-0.052,-0.046 -0.087,-0.061 -0.057,-0.023c0.015,0.019 0.015,0.02 -0.009,0.014c-0.02,-0.005 -0.039,0.006 -0.075,0.042c-0.056,0.057 -0.081,0.12 -0.082,0.208c-0.002,0.047 -0.005,0.057 -0.013,0.038c-0.009,-0.022 -0.011,-0.019 -0.011,0.016c-0.002,0.022 0.005,0.041 0.012,0.041c0.018,0 0.045,0.067 0.069,0.176c0.019,0.079 0.03,0.101 0.087,0.164c0.037,0.039 0.075,0.093 0.087,0.117c0.011,0.024 0.035,0.077 0.053,0.118c0.018,0.04 0.033,0.085 0.033,0.099c0,0.014 0.006,0.021 0.013,0.018c0.007,-0.006 0.012,0.006 0.012,0.024c0,0.03 -0.005,0.033 -0.05,0.033c-0.044,0 -0.061,0.009 -0.112,0.055c-0.062,0.059 -0.091,0.127 -0.091,0.212c0,0.022 -0.006,0.036 -0.013,0.031c-0.036,-0.023 0,0.066 0.048,0.118c0.032,0.034 0.047,0.04 0.095,0.04c0.046,0 0.061,-0.006 0.078,-0.03c0.014,-0.023 0.015,-0.033 0.003,-0.037c-0.01,-0.004 -0.007,-0.014 0.011,-0.033c0.022,-0.026 0.025,-0.026 0.033,-0.005c0.017,0.051 0.039,-0.073 0.035,-0.203c-0.006,-0.148 0.007,-0.164 0.064,-0.085c0.033,0.046 0.045,0.086 0.069,0.216c0.004,0.018 0.012,0.062 0.019,0.1c0.008,0.037 0.014,0.104 0.014,0.149c0,0.043 0.005,0.082 0.011,0.086c0.017,0.01 0.027,0.634 0.015,0.886c-0.01,0.217 -0.032,1.227 -0.032,1.469c0.001,0.108 0.017,0.163 0.067,0.22c0.027,0.03 0.069,0.026 0.094,-0.009ZM1.218,8.22c0.083,-0.043 0.125,-0.214 0.085,-0.35c-0.021,-0.072 -0.067,-0.149 -0.056,-0.09c0.006,0.024 0.002,0.028 -0.031,0.028c-0.048,0 -0.104,0.039 -0.122,0.085c-0.028,0.07 -0.055,0.199 -0.048,0.226c0.007,0.03 0.1,0.12 0.123,0.12c0.006,0 0.029,-0.009 0.049,-0.019ZM0.312,6.457c-0.007,-0.029 -0.034,-0.017 -0.07,0.031c-0.055,0.079 -0.036,0.107 0.026,0.035c0.026,-0.029 0.047,-0.059 0.044,-0.066ZM1.023,6.355l0.037,-0.019l-0.036,0.002c-0.02,0.001 -0.042,0.01 -0.049,0.019c-0.018,0.023 0.003,0.022 0.048,-0.002Z" style="fill:#fff;fill-rule:nonzero;"/><path d="M4.137,4.229l0,-2.779l0.532,0c0.293,0 0.54,0.004 0.552,0.007c0.019,0.008 0.02,0.263 0.02,2.772c0,2.509 -0.001,2.764 -0.02,2.772c-0.012,0.003 -0.259,0.007 -0.552,0.007l-0.532,0l0,-2.779Z" style="fill:#fff;fill-rule:nonzero;"/><path d="M5.635,4.229l0,-2.779l1.388,0c0.764,0 1.397,0.004 1.408,0.007c0.018,0.008 0.021,0.082 0.021,0.71l0,0.7l-0.279,0.771l-0.28,0.77l0.49,1.289c0.296,0.778 0.485,1.293 0.479,1.3c-0.007,0.006 -0.239,0.01 -0.556,0.009l-0.545,-0.004l-0.434,-1.123c-0.238,-0.618 -0.465,-1.207 -0.505,-1.309l-0.071,-0.185l0.286,-0.764c0.158,-0.421 0.285,-0.768 0.283,-0.77c-0.004,-0.004 -0.296,-0.008 -0.501,-0.005l-0.08,0l0,2.073c0,1.88 -0.002,2.074 -0.021,2.082c-0.011,0.003 -0.259,0.007 -0.552,0.007l-0.531,0l0,-2.779Z" style="fill:#fff;fill-rule:nonzero;"/><path d="M8.952,7.001c-0.009,-0.004 -0.013,-0.017 -0.01,-0.028c0.002,-0.012 0.053,-0.31 0.113,-0.663c0.06,-0.353 0.111,-0.651 0.115,-0.662c0.006,-0.022 0.056,-0.023 0.737,-0.026l0.73,-0.003l-0.851,-1.111l-0.851,-1.11l-0.001,-0.974l0,-0.974l1.279,0c0.703,0 1.284,0.005 1.292,0.01c0.017,0.01 0.25,1.355 0.24,1.374c-0.005,0.008 -0.324,0.012 -0.834,0.012c-0.454,-0.001 -0.827,0.001 -0.831,0.004c-0.003,0.003 0.372,0.498 0.834,1.1l0.837,1.095l-0.002,0.978l-0.004,0.979l-1.39,0.002c-0.764,0.002 -1.396,-0.001 -1.403,-0.003Z" style="fill:#fff;fill-rule:nonzero;"/><path d="M12.893,4.927l0,-2.081l-0.374,0l-0.374,0l0,-0.698l0,-0.698l1.223,0c0.966,0 1.227,0.004 1.235,0.016c0.005,0.008 0.062,0.319 0.125,0.688c0.084,0.482 0.112,0.675 0.102,0.683c-0.008,0.005 -0.162,0.009 -0.344,0.009c-0.181,0 -0.365,0 -0.409,0l-0.08,0l0,2.073c0,1.88 -0.001,2.074 -0.02,2.082c-0.011,0.003 -0.259,0.007 -0.552,0.007l-0.532,0l0,-2.081Z" style="fill:#fff;fill-rule:nonzero;"/></g></g></svg>