<?xml version="1.0" encoding="utf-8"?>
<!-- Generator: Adobe Illustrator 22.1.0, SVG Export Plug-In . SVG Version: 6.00 Build 0)  -->
<svg version="1.0" id="Livello_1" xmlns="http://www.w3.org/2000/svg" xmlns:xlink="http://www.w3.org/1999/xlink" x="0px" y="0px"
	 viewBox="0 0 200 200" style="enable-background:new 0 0 200 200;" xml:space="preserve">
<path d="M21.2,133.9c1.9-0.1,3.8-0.7,5.4-2.3c1.9-1.9,2.4-4.7,1.8-7.3C24.9,110.8,13,48.2,81.1,26.6c4.8-1.5,8.5-5.4,9.5-10.4
	C91.6,11.8,90,7.1,80,6.6C60.5,5.5-17.5,53,11.3,127.2C12.9,131.2,16.9,134,21.2,133.9z"/>
<path d="M183.1,133.3c-2.9,0.8-6.9,1.2-9.7-1.7c-1.9-1.9-2.4-4.7-1.8-7.3c3.5-13.7,15.6-77.6-55.3-98.5c-1.9-0.6-3.6-1.9-4.6-3.6
	c-2.9-5-6.6-14.8,8.2-15.6c19.6-1.1,98.5,47,68.2,122C187.2,130.9,185.4,132.6,183.1,133.3z"/>
<path d="M29.5,152.2c1.4-3.1,4.5-5.7,11.1-4.6c2,0.4,3.9,1.4,5.4,2.8c9.5,9.6,54.7,49.3,109.1,0.4c1.1-1,2.4-1.7,3.8-2.2
	c3.8-1.2,10.9-2.1,12.4,6.4c0.6,3.4-0.6,6.9-3.2,9.3c-14.5,13.2-73.3,58.7-136.3-0.9C28.9,160.6,27.8,156.1,29.5,152.2z"/>
<circle cx="100.1" cy="99.9" r="19.9"/>
</svg>
