<svg xmlns="http://www.w3.org/2000/svg" id="Livello_1" viewBox="0 0 200 200"><style>.st0{fill:#1c4574}.st2{fill:#a60e0e}</style><path d="M139.9 125.2c-.6 1.1-39.6 69.8-39.9 69.8-.2 0-39.2-68.7-39.8-69.8l6.1 6.8c9.3 8.9 19.6 13.6 31.2 14.1 1.6.1 3.3 0 5 0 12.8-.7 23-5.5 32.2-14.8l5.2-6.1zM139.5 72.4l-6.2-6c-9.3-8.9-19.6-13.6-31.2-14-1.6-.1-3.3 0-5 .1H97c-12.4.7-21.7 4.9-30.8 13.7-3.2 3-5.8 6.3-5.8 6.2 0-.1 38.4-67.3 39.1-67.4.8 0 39.4 66.4 40 67.4z" class="st0"/><ellipse cx="100" cy="99.3" fill="#fff" rx="47.4" ry="47.4" transform="rotate(-22.5 99.9955 99.309)"/><path d="M100 52.4c25.9 0 46.9 21.1 46.9 46.9s-21.1 46.9-46.9 46.9-46.9-21.1-46.9-46.9 21-46.9 46.9-46.9m0-1c-26.5 0-47.9 21.5-47.9 47.9s21.5 47.9 47.9 47.9 47.9-21.5 47.9-47.9-21.4-47.9-47.9-47.9z" class="st0"/><path d="M102.5 52.4v93.7c-1.7.1-3.3.1-5 0V52.4c1.7-.1 3.4-.1 5 0z" class="st2"/><path d="M91.2 65.8c-17 4.6-28.2 21.8-25.3 38.8 3.9 23.2 28.5 36.1 49.4 25.8 5.6-2.7 12-8.8 14.8-14 7.7-14.3 5.5-30.4-5.7-41.5-8.8-8.7-21.6-12.3-33.2-9.1z" class="st2"/><path d="M113.2 117c-1.7.8-3.6 1.2-5.6 1.2-1.3 0-3.2-.4-5.8-1.2-2.6-.8-4.5-1.2-5.8-1.2-2.8 0-5.9.8-9.3 2.4v-4.7c1.8-.9 3.2-2.2 4.1-3.7.9-1.5 1.4-3.6 1.4-6.3 0-1.1-.1-2.2-.4-3.3h-5.1v-3.9h4c-.9-3-1.3-5.3-1.3-6.9 0-3.4 1.1-6.1 3.3-8 2.2-1.9 5.1-2.9 8.6-2.9 3.3 0 6 .9 8.1 2.6 2.1 1.7 3.3 4.2 3.5 7.4h-5.1c-.4-4-2.6-6.1-6.6-6.1-2 0-3.6.7-4.9 2-1.2 1.3-1.8 2.9-1.8 4.7 0 2 .5 4.4 1.4 7.4h8.2v3.9h-7.4c.3.8.4 1.6.4 2.3 0 2.3-.4 4.1-1.1 5.6-.7 1.5-1.9 2.9-3.7 4.2 1.2-.4 2.5-.6 3.8-.6 1.5 0 3.5.3 5.9.9 2.4.6 4.1.9 5.1.9 2 0 3.9-.5 5.8-1.4v4.7z" class="st0"/></svg>