<svg xmlns="http://www.w3.org/2000/svg" id="Livello_1" x="0" y="0" version="1.1" viewBox="0 0 200 200" xml:space="preserve"><style>.st1{fill:#283947}</style><linearGradient id="SVGID_1_" x1="82.7" x2="82.7" y1="195" y2="5" gradientUnits="userSpaceOnUse"><stop offset="0" stop-color="#966fe7"/><stop offset="1" stop-color="#00d18f"/></linearGradient><path fill="url(#SVGID_1_)" d="M140.4 153.4c-11.2 8.5-25.3 13.6-40.4 13.6-36.9 0-67-30.1-67-67s30.1-67 67-67c14.6 0 28.2 4.7 39.2 12.7l19.6-20.4C142.6 12.6 122.2 5 100 5 47.5 5 5 47.5 5 100s42.5 95 95 95c22.9 0 44-8.1 60.4-21.6l-20-20z"/><path d="M77.6 109.8l5.8-6-7.2-9.8-9.1-13C63.9 86.6 62 93 62 99.9c0 11.4 5.1 21.7 13.1 28.6l11.6-8.3c-3.9-2.4-7.1-6.1-9.1-10.4zM90.2 77.6l6 5.8 9.8-7.2 13-9.1c-5.6-3.2-12-5.1-18.9-5.1-11.4 0-21.7 5.1-28.6 13.1l8.3 11.6c2.4-3.9 6.1-7.1 10.4-9.1zM116.6 96.2l7.2 9.8 9.1 13c3.2-5.6 5.1-12 5.1-18.9 0-11.4-5.1-21.7-13.1-28.6l-11.6 8.3c3.9 2.5 7.1 6.1 9.1 10.4l-5.8 6zM128.5 124.9l-8.3-11.6c-2.5 3.9-6.1 7.1-10.4 9.1l-6-5.8-9.8 7.2-13 9.1c5.6 3.2 12 5.1 18.9 5.1 11.5 0 21.7-5.1 28.6-13.1z" class="st1"/></svg>