<svg xmlns="http://www.w3.org/2000/svg" viewBox="0 0 200 200"><path fill-rule="evenodd" d="M5 100c0 1.8 3 1.7 7.8 4.1 12.1 6.1 18.5 10.4 29.3 18.2 18.2 13.1 38.8 36.9 49.7 57.1l5.9 11.7c.7 1.5.7 3.8 2.4 3.8 1.8 0 2-3.5 4.1-7.8 6.5-12.9 14.8-24.4 23.6-35.7 3.6-4.6 7-8.6 11.1-12.7l9.3-8.3c11.8-10.5 25.1-19.1 39.3-26.2 3.9-2 7.6-2.7 7.6-4.3 0-1.5-30.1-17.4-30.1-17.4-5-3.3-15.2-11.1-19.9-15.8l-14.5-15c-7.6-8-17-22.1-22.1-31.6-1.5-2.7-2.7-5-4.1-7.8-.6-1.2-1.4-2.6-1.9-3.8s-1.1-3.1-1.8-3.8h-1c-.5.4-1.1 1.5-1.7 3.5-.6 1.8-1.1 2.6-1.8 4.4-4.9 11.9-28.7 43.7-37.9 50.9-1.2 1-1.9 2-3.1 3s-1.8 1.5-3.1 2.6c-5.5 5.1-17.3 13.6-23.8 18-2.5 1.7-4.6 3.1-7.2 4.6-2.7 1.5-5.2 3-7.8 4.1-1.5.6-2.6 1.1-4.1 1.6-2.1 1.1-4.2.9-4.2 2.6z" clip-rule="evenodd"/><path fill="#0edab0" fill-rule="evenodd" d="M43.3 100c1.1 2.1 13.6 10.7 15.8 12.4 8.3 6.5 21.7 19.7 28.1 27.9 4.6 5.8 8.9 9.3 12.8 16.5 4.5-4.5 7.9-10.3 12-15.4 8.2-10.4 18.7-20.3 28.6-28.8l12.3-9.1c1.9-1.4 5.5-3 3.8-4.2-4.3-2.9-19.7-14.5-23.7-18.5-8.3-8.3-25.8-25.2-31.1-35.8-1.2-2.4-2.2-3.1-3.6-.4C92.1 57.1 69.9 79 59.4 87.5c-2.5 2-15.5 11.2-16.1 12.5z" clip-rule="evenodd"/><path fill="#0098da" fill-rule="evenodd" d="M50.3 100l13.8 10.7c4.7 3.9 8.9 7.5 12.9 11.8 1.2 1.2 1.6 2.2 2.9 3.3 1.4 1.3 2 1.5 3.2 2.9 0 0 16.7 20.2 16.8 20.2 4-4.4 7.4-9.4 11.2-13.5 4.2-4.6 6.6-8.1 11.7-12.9l9.8-8.8c3.3-2.7 5.5-5.2 10.1-8.4 2.2-1.5 5.3-3.5 7-5.3l-13.9-10.7c-7.1-6-13.1-11.4-18.9-18.2-5-5.9-17-20-17-20L86 67.9c-1.1 1.2-1.8 2.1-2.9 3.3C77 78 71.9 81.7 67.5 86.5c-1.1 1.2-2.1 1.8-3.3 2.9-4.8 4.4-10.9 7.9-13.9 10.6z" clip-rule="evenodd"/></svg>