<svg xmlns="http://www.w3.org/2000/svg" viewBox="0 0 200 124.3"><path d="M19.4 110.4C11.5 110.4 5 104 5 96.2S11.5 82 19.4 82s14.4 6.4 14.4 14.2-6.5 14.2-14.4 14.2zm0-26.6c-6.9 0-12.6 5.6-12.6 12.4s5.7 12.4 12.6 12.4S32 103 32 96.2s-5.7-12.4-12.6-12.4zM143.9 36.5h23.3v2.3h-23.3v-2.3z"/><path d="M180.6 50.7c-7.9 0-14.4-6.4-14.4-14.2s6.5-14.2 14.4-14.2S195 28.7 195 36.5s-6.5 14.2-14.4 14.2zm0-26.6c-6.9 0-12.6 5.6-12.6 12.4s5.7 12.4 12.6 12.4 12.6-5.6 12.6-12.4-5.7-12.4-12.6-12.4zM52.7 80.9l-21.1 9.7-1-2.1 21.1-9.7 1 2.1z"/><path fill="#49e1cd" stroke="#000" stroke-miterlimit="10" stroke-width="1.8" d="M49 25.5v53s11.1 27.4 49.1 40.4c0 0 32.6-10.6 45.8-38.2v-56s-30.7-2-46.2-19c0 0-15.9 16.2-48.7 19.8z"/><path fill="#fff" stroke="#000" stroke-miterlimit="10" stroke-width="1.797" d="M118.5 36.5l8.7 8.4-39.6 38.9L70.9 68l8.6-7.8 7.4 7.1 31.6-30.8z"/></svg>