<svg xmlns="http://www.w3.org/2000/svg" version="1" viewBox="0 0 200 200"><path fill="#4F4F4F" d="M5 104.7S19.4 98.6 36.9 87s41.7-28.9 61.2-28.9c39.1 0 46.6 24.2 46.6 24.2s-6.8-13.9-41.9-15.7c-6.4-.3-12.7.4-18.8 2.1-9.6 2.7-23.1 8-44.5 21.9 0 .1-17.7 12.2-34.5 14.1zM195 95.3s-14.4 6.1-31.9 17.7-41.7 28.9-61.2 28.9c-39.1 0-46.6-24.2-46.6-24.2s6.8 13.9 41.9 15.7c6.3.3 12.7-.4 18.8-2.1 9.6-2.7 23.1-8 44.5-21.9 0-.1 17.7-12.2 34.5-14.1z"/><path fill="#4F4F4F" d="M106.7 106H87.1l-7-11.6 7-11.6h19.6l-4-6.4h-19l-10.4 18 10.4 18h18.9l4.1-6.4z"/><path fill="#4F4F4F" d="M90.1 119.1h19.6l7-11.6-7-11.6H90.1l4-6.4H113l10.4 18-10.4 18H94.2l-4.1-6.4z"/></svg>