<svg xmlns="http://www.w3.org/2000/svg" version="1" viewBox="0 0 200 200"><circle cx="100" cy="100" r="95" fill="#2ab89a"/><path fill="#fff" d="M154.5 95.5c5.1-14-4.3-24-18.3-32.3l4.7-9.6-11.4-5.3-4.4 9c-3-1.4-6-2.8-9.1-4.2l4.4-9.1-11.4-5.3-4.6 9.3c-2.5-1.1-4.9-2.2-7.2-3.3v-.1l-15.6-7.5-5.8 12.1s8.4 3.8 8.2 3.9c3.4 1.6 4.4 3.9 4.4 6.1 0 1-.3 2-.7 3l-9.6 20.2c.3.2.7.4 1.2.6l-1.2-.6L64 112.3c-.9 1.3-2.8 3.2-6 1.7.1.2-10.6-5-10.6-5L41 122.5l14.7 7 8.1 3.9-5.3 10.9 11.4 5.3L75 139c3.1 1.5 6.1 3 9 4.4l-5 10.4 11.4 5.3 5.1-10.5c19.5 8 35.2 9.5 45.3-7.5 8.2-13.8 4.5-23.4-5.1-31.1 8.2-.3 15.1-4.2 18.8-14.5zm-35 32.7c-6.7 14.1-30 1-37.7-2.7l11.9-24.9c7.7 3.6 32.8 12.9 25.8 27.6zM131 90.5c-6.1 12.8-25.5 1.7-31.8-1.3L110 66.6c6.3 3 27.4 10.6 21 23.9z"/></svg>