<?xml version="1.0" encoding="utf-8"?>
<!-- Generator: Adobe Illustrator 16.0.0, SVG Export Plug-In . SVG Version: 6.00 Build 0)  -->
<!DOCTYPE svg PUBLIC "-//W3C//DTD SVG 1.1//EN" "http://www.w3.org/Graphics/SVG/1.1/DTD/svg11.dtd">
<svg version="1.1" id="Layer_1" xmlns="http://www.w3.org/2000/svg" xmlns:xlink="http://www.w3.org/1999/xlink" x="0px" y="0px"
	 width="566.93px" height="566.93px" viewBox="0 0 566.93 566.93" enable-background="new 0 0 566.93 566.93" xml:space="preserve">
<g id="Layer_1_1_">
	<path fill="#1AAABA" d="M443.521,161.472l-54.314,54.318c11.697,19.218,18.383,41.362,18.383,65.596
		c0,69.36-55.986,125.347-125.343,125.347c-23.817,0-46.379-6.688-65.599-18.384l-54.316,54.314
		c33.424,24.653,74.791,39.692,119.497,39.692c110.72,0,200.551-89.828,200.551-200.549
		C483.216,236.259,468.59,194.896,443.521,161.472z"/>
	<path fill="#1AAABA" d="M157.32,280.965c0-69.356,55.988-125.343,125.347-125.343c23.813,0,46.374,6.685,65.596,18.383
		l54.314-54.314c-33.424-24.652-74.785-39.692-119.493-39.692c-110.72,0-200.55,89.83-200.55,200.55
		c0,44.706,14.622,86.069,39.692,119.493l54.314-54.313C164.003,327.345,157.32,304.779,157.32,280.965z"/>
	<circle fill="#1AAABA" cx="483.216" cy="80.416" r="50.139"/>
	<circle fill="#1AAABA" cx="82.112" cy="481.515" r="50.138"/>
</g>
<g id="Layer_2">
</g>
</svg>
