<?xml version="1.0" encoding="utf-8"?>
<!-- Generator: Adobe Illustrator 22.1.0, SVG Export Plug-In . SVG Version: 6.00 Build 0)  -->
<svg version="1.0" id="Livello_1" xmlns="http://www.w3.org/2000/svg" xmlns:xlink="http://www.w3.org/1999/xlink" x="0px" y="0px"
	 viewBox="0 0 200 200" enable-background="new 0 0 200 200" xml:space="preserve">
<g id="Page-1">
	<g id="logo-nexo-symbol" transform="translate(0.500000, 0.066388)">
		<path id="Shape" fill="#3CA9E5" d="M53.8,18.7L147,72.5v54.9L4.5,45.1l45.7-26.4C51.3,18.1,52.7,18.1,53.8,18.7"/>
		<polygon id="Shape_1_" fill="#2853C3" points="147,17.7 99.5,45.1 147,72.5 		"/>
		<path id="Shape_2_" fill="#1A4199" d="M147,17.7L192.7,44c1.1,0.7,1.8,1.9,1.8,3.2l0,107.6L147,127.4V17.7z"/>
		<path id="Shape_3_" fill="#2853C3" d="M194.5,154.8l-45.7,26.4c-1.1,0.6-2.5,0.6-3.7,0L52,127.4V72.4L194.5,154.8z"/>
		<path id="Shape_4_" fill="#60BEFF" d="M4.5,45.1l0,107.6c0,1.3,0.7,2.5,1.8,3.2L52,182.2V72.4L4.5,45.1z"/>
		<polygon id="Shape_5_" fill="#3CA9E5" points="52,182.2 99.5,154.8 52,127.4 		"/>
	</g>
</g>
</svg>
