<?xml version="1.0" encoding="UTF-8" standalone="no"?><!DOCTYPE svg PUBLIC "-//W3C//DTD SVG 1.1//EN" "http://www.w3.org/Graphics/SVG/1.1/DTD/svg11.dtd"><svg width="100%" height="100%" viewBox="0 0 15 15" version="1.1" xmlns="http://www.w3.org/2000/svg" xmlns:xlink="http://www.w3.org/1999/xlink" xml:space="preserve" style="fill-rule:evenodd;clip-rule:evenodd;stroke-linejoin:round;stroke-miterlimit:1.41421;"><g id="Group"><path id="Shape" d="M14.158,4.352c-0.012,0.47 -0.216,0.82 -0.61,1.057c-0.072,0.043 -0.098,0.087 -0.097,0.17c0.002,1.282 0.002,2.564 0,3.846c0,0.077 0.019,0.123 0.09,0.164c0.456,0.263 0.686,0.749 0.604,1.259c-0.078,0.489 -0.469,0.891 -0.975,0.987c-0.294,0.056 -0.578,0.011 -0.836,-0.147c-0.078,-0.048 -0.133,-0.039 -0.207,0.003c-1.102,0.639 -2.205,1.275 -3.31,1.91c-0.075,0.043 -0.104,0.091 -0.103,0.179c0.001,0.617 -0.475,1.153 -1.07,1.213c-0.633,0.064 -1.193,-0.334 -1.33,-0.948c-0.021,-0.095 -0.028,-0.194 -0.031,-0.29c-0.001,-0.066 -0.019,-0.106 -0.078,-0.14c-1.119,-0.644 -2.238,-1.29 -3.357,-1.936c-0.06,-0.036 -0.108,-0.036 -0.169,0.001c-0.731,0.44 -1.662,0.018 -1.817,-0.804c-0.098,-0.519 0.113,-1.004 0.578,-1.278c0.073,-0.043 0.107,-0.086 0.107,-0.176c-0.004,-1.282 -0.003,-2.564 -0.001,-3.846c0,-0.077 -0.02,-0.123 -0.091,-0.164c-0.466,-0.271 -0.686,-0.741 -0.596,-1.27c0.089,-0.525 0.495,-0.91 1.023,-0.985c0.284,-0.041 0.557,0.011 0.802,0.167c0.057,0.037 0.099,0.036 0.157,0.002c1.115,-0.645 2.231,-1.288 3.348,-1.93c0.067,-0.039 0.094,-0.084 0.094,-0.163c0.002,-0.707 0.56,-1.247 1.267,-1.233c0.551,0.011 1.066,0.466 1.144,1.01c0.008,0.05 0.019,0.081 0.019,0.149c0,0.151 0.055,0.215 0.173,0.282c1.083,0.62 2.164,1.245 3.244,1.871c0.074,0.043 0.128,0.045 0.205,0.001c0.734,-0.418 1.623,-0.017 1.802,0.811c0.017,0.077 0.015,0.158 0.021,0.228ZM4.595,8.75c-0.011,0.01 -0.019,0.018 -0.028,0.023c-0.608,0.351 -1.216,0.703 -1.826,1.05c-0.033,0.02 -0.099,0.016 -0.133,-0.005c-0.162,-0.097 -0.333,-0.162 -0.521,-0.167c-0.625,-0.016 -1.006,0.495 -1.027,0.938c-0.025,0.52 0.368,1.052 1.004,1.047c0.558,-0.004 0.982,-0.451 0.977,-1.009c-0.001,-0.1 0.028,-0.156 0.116,-0.206c0.648,-0.369 1.293,-0.742 1.938,-1.116c0.062,-0.037 0.112,-0.043 0.18,-0.011c0.402,0.189 0.818,0.221 1.246,0.1c0.043,-0.012 0.1,0 0.142,0.019c0.126,0.053 0.247,0.121 0.373,0.172c0.073,0.03 0.097,0.069 0.097,0.146c-0.002,1.01 -0.002,2.021 0,3.031c0,0.072 -0.023,0.112 -0.088,0.143c-0.34,0.164 -0.597,0.588 -0.527,1.041c0.081,0.526 0.622,0.923 1.144,0.821c0.459,-0.089 0.761,-0.403 0.826,-0.886c0.044,-0.327 -0.114,-0.759 -0.535,-0.976c-0.057,-0.029 -0.089,-0.061 -0.088,-0.131c0.002,-0.982 0.002,-1.963 0,-2.944c0,-0.088 0.04,-0.106 0.116,-0.119c0.202,-0.035 0.404,-0.074 0.601,-0.13c0.089,-0.025 0.16,-0.028 0.246,0.009c0.432,0.186 0.853,0.154 1.255,-0.089c0.058,-0.034 0.099,-0.036 0.157,-0.002c0.531,0.309 1.064,0.618 1.599,0.921c0.086,0.049 0.12,0.103 0.117,0.205c-0.015,0.587 0.497,1.067 1.094,1.003c0.586,-0.062 1.001,-0.626 0.865,-1.197c-0.163,-0.683 -0.903,-0.992 -1.501,-0.622c-0.064,0.038 -0.109,0.049 -0.176,0.01c-0.507,-0.296 -1.014,-0.59 -1.523,-0.88c-0.076,-0.043 -0.086,-0.082 -0.062,-0.163c0.154,-0.518 0.049,-0.978 -0.321,-1.375c-0.073,-0.077 -0.413,-0.62 -0.46,-0.72c-0.038,-0.08 -0.022,-0.122 0.054,-0.165c0.772,-0.443 1.544,-0.887 2.314,-1.334c0.062,-0.036 0.104,-0.036 0.165,0.005c0.217,0.145 0.46,0.191 0.715,0.147c0.497,-0.087 0.857,-0.537 0.813,-1.068c-0.048,-0.576 -0.613,-1.006 -1.177,-0.881c-0.495,0.109 -0.806,0.496 -0.8,1.005c0,0.086 -0.024,0.136 -0.101,0.18c-0.782,0.448 -1.562,0.898 -2.341,1.352c-0.071,0.04 -0.109,0.032 -0.165,-0.023c-0.367,-0.353 -0.809,-0.552 -1.313,-0.615c-0.17,-0.021 -0.17,-0.02 -0.17,-0.196c0,-0.919 0.002,-1.839 -0.003,-2.759c0,-0.128 0.03,-0.203 0.15,-0.272c0.431,-0.248 0.595,-0.781 0.398,-1.236c-0.199,-0.459 -0.708,-0.704 -1.184,-0.559c-0.434,0.132 -0.676,0.439 -0.719,0.885c-0.032,0.344 0.13,0.727 0.523,0.941c0.061,0.033 0.103,0.062 0.102,0.145c-0.003,1.014 -0.003,2.028 0,3.042c0,0.081 -0.037,0.108 -0.102,0.141c-0.196,0.099 -0.407,0.186 -0.573,0.323c-0.192,0.159 -0.372,0.251 -0.64,0.251c-0.026,-0.001 -0.042,0.001 -0.07,0.001c-0.066,-0.002 -0.14,-0.004 -0.195,-0.035c-0.789,-0.45 -1.573,-0.908 -2.363,-1.356c-0.113,-0.064 -0.168,-0.133 -0.149,-0.263c0.008,-0.052 -0.008,-0.107 -0.017,-0.161c-0.077,-0.485 -0.552,-0.892 -1.126,-0.798c-0.562,0.093 -0.92,0.602 -0.827,1.147c0.119,0.696 0.913,1.049 1.512,0.668c0.068,-0.043 0.115,-0.046 0.184,-0.006c0.594,0.346 1.19,0.689 1.786,1.032c0.102,0.059 0.203,0.119 0.305,0.177c-0.684,0.725 -0.761,1.504 -0.263,2.354Z" style="fill:#4c87fe;"/><path id="Shape1" d="M6.24,6.408c0.157,0.013 0.235,-0.039 0.349,-0.145c0.494,-0.459 1.076,-0.602 1.716,-0.389c0.629,0.209 1.019,0.656 1.148,1.311c0.026,0.129 0.076,0.206 0.191,0.271c0.328,0.187 0.517,0.591 0.452,0.928c-0.084,0.436 -0.37,0.738 -0.774,0.802c-0.215,0.034 -0.429,0.01 -0.618,-0.107c-0.085,-0.052 -0.153,-0.047 -0.24,-0.01c-0.563,0.237 -1.108,0.197 -1.625,-0.129c-0.08,-0.05 -0.147,-0.054 -0.233,-0.026c-0.729,0.238 -1.488,-0.176 -1.674,-0.903c-0.212,-0.835 0.454,-1.641 1.308,-1.603Z" style="fill:#4c87fe;"/><path id="Shape2" d="M12.668,10.646c0,-0.163 0.117,-0.282 0.278,-0.282c0.155,0.001 0.287,0.129 0.288,0.28c0.002,0.145 -0.139,0.286 -0.286,0.286c-0.157,0 -0.28,-0.125 -0.28,-0.284Z" style="fill:#4c87fe;"/><path id="Shape3" d="M7.216,1.215c0,-0.158 0.124,-0.28 0.283,-0.28c0.16,-0.001 0.282,0.121 0.282,0.28c0.001,0.152 -0.132,0.287 -0.282,0.285c-0.151,-0.002 -0.284,-0.135 -0.283,-0.285Z" style="fill:#4c87fe;"/><path id="Shape4" d="M2.329,10.647c-0.001,0.159 -0.125,0.284 -0.281,0.283c-0.148,-0.001 -0.284,-0.139 -0.285,-0.287c0,-0.149 0.134,-0.279 0.289,-0.279c0.161,0 0.277,0.12 0.277,0.283Z" style="fill:#4c87fe;"/><path id="Shape5" d="M7.502,13.51c0.159,0.001 0.28,0.122 0.279,0.28c-0.001,0.157 -0.123,0.275 -0.285,0.274c-0.16,-0.001 -0.282,-0.123 -0.28,-0.28c0.002,-0.156 0.126,-0.275 0.286,-0.274Z" style="fill:#4c87fe;"/><path id="Shape6" d="M2.055,4.635c-0.161,0.001 -0.287,-0.117 -0.292,-0.272c-0.004,-0.152 0.123,-0.28 0.282,-0.282c0.166,-0.003 0.281,0.108 0.284,0.272c0.002,0.164 -0.11,0.28 -0.274,0.282Z" style="fill:#4c87fe;"/><path id="Shape7" d="M12.943,4.635c-0.163,-0.001 -0.276,-0.117 -0.275,-0.282c0.002,-0.163 0.117,-0.274 0.283,-0.272c0.16,0.002 0.286,0.129 0.283,0.281c-0.004,0.155 -0.131,0.274 -0.291,0.273Z" style="fill:#4c87fe;"/></g></svg>