<svg xmlns="http://www.w3.org/2000/svg" viewBox="0 0 200 200"><path fill="#654785" d="M99 5.1h.3c52.4 0 94.8 42.5 94.8 95s-42.5 95-94.8 95H99c-52.4 0-94.8-42.5-94.8-95-.1-52.4 42.4-95 94.8-95"/><path fill="none" stroke="#ae7fd9" stroke-width="2" d="M99.1 4.2h.3c52.2 0 94.5 42.4 94.5 94.6s-42.3 94.6-94.5 94.6h-.3c-52.2 0-94.5-42.4-94.5-94.6S46.9 4.2 99.1 4.2z"/><path fill="#ae7fd9" d="M35.3 87.9c-1.2 7.4-1.2 15.1 0 22.5 2.1-3.9 4.5-7.6 6.9-11.3-2.4-3.6-4.7-7.4-6.9-11.2m77.6-28c-4.1 1-11.9 3.8-11.9 3.8-3.5.9-6.8 2.7-10.1 4.1-.3 2.3-1.2 4.6-3.1 6-2.4 2.1-6.1 2.4-8.9.9-3.3 2.2-6.7 4.6-9.7 7.2-3.5 2.7-6.7 5.8-9.7 9-2.5 2.6-4.9 5.4-7.2 8.3 2.5 3.2 5.1 6.2 7.9 9.1 0 0 6.1 6 9.5 8.7 2.7 2.2 5.5 4.2 8.4 6.2 2.5-1.7 6-1.8 8.6-.2 2.7 1.5 4.2 4.5 4.1 7.6 3.2 1.5 6.5 3 9.9 4.2 4 1.5 8.1 2.8 12.2 3.8 3.9 1 7.8 1.7 11.8 2.2 1.6-3.8 2.9-7.7 4-11.7h.1c1.1-4.2 2.1-8.4 2.8-12.7.5-3.3.9-6.5 1.1-9.8-2.1-.9-3.9-2.7-4.6-4.9-1.5-4 .7-8.7 4.6-10.2-.3-3.3-.6-6.7-1.1-10-.6-4.3-1.6-8.5-2.8-12.6-1.1-3.8-2.4-7.5-3.8-11.2-4.1.5-8.1 1.2-12.1 2.2M89.5 34.2c-4 .7-8 1.6-11.8 3.1-6.9 2.4-13.2 6.2-18.9 10.6-3.2 2.7-6.3 5.6-8.9 8.9C45 62.5 41.1 69 38.6 76.1c2.5 5.6 5.5 11.1 8.9 16.2 4.5-5.6 9.7-10.7 15.1-15.5 3.4-2.7 10.5-7.9 10.5-7.9.6-.4 1.1-.8 1.7-1.2 0-1.7.4-3.4 1.4-4.8 2.3-3.6 7.6-4.7 11.1-2.4.6-.3 1.2-.6 1.8-.8 3.7-1.8 7.6-3.2 11.4-4.7 6.9-2.3 13.9-4 21.1-5.2-2.7-5.3-5.8-10.5-9.4-15.4-7.6-1.3-15.2-1.4-22.7-.2m-6.6-7c11.1-2.7 22.8-2.6 33.9-.1.1.1.2.3.3.4 2.6 3.6 5.2 7.3 7.5 11.1 2 3.3 3.8 6.8 5.5 10.3 4.6-.3 9.2-.5 13.8-.2 3.5.1 7 .5 10.5.8h.4c4.3 4.8 7.9 10.1 10.9 15.7-1.2 3.7-2.6 7.3-4.1 10.9-2.6-6.8-6.3-13.2-10.8-18.8-5.7-.6-11.5-.7-17.3-.5 2.6 6.9 4.6 14 5.9 21.2.7 4.2 1.3 8.4 1.5 12.6-.5 2.2 1.7 3.1 2.4 4.9 1.6 3.3.5 7.4-2.2 9.7 0 .4-.1 1.3-.1 1.7-.1 1.9-.3 3.7-.5 5.5-.3 2.5-.7 5-1.1 7.5-1.3 7.3-3.4 14.5-6 21.5 5.7.3 11.3.1 16.9-.4 5-6 9-12.9 11.6-20.3 1.4-3.7 2.3-7.6 3-11.5 1.9 3.7 3.8 7.4 5.4 11.3l.2.4c-3.4 10.6-9.1 20.6-16.9 28.6-7.8 0-15.7.5-23.6-.2-1.9 3.5-3.7 7.1-5.7 10.5-3.6 1.4-7.4 2.5-11.2 3.3l-.9.2c3.4-4.8 6.5-9.8 9.1-15-7.2-1.1-14.2-2.9-21.1-5.3-3.9-1.4-7.8-3-11.6-4.8-.8-.4-1.6-.8-2.4-1.1-2.3 1-5 1.1-7.2-.1-2.5-1.2-4.2-3.8-4.4-6.6-.3-.2-.9-.7-1.2-.9-3.7-2.4-7.1-5.1-10.5-7.9-5.6-4.8-10.7-10.1-15.4-15.7-3.4 5.1-6.2 10.5-8.8 16 2.6 7.2 6.7 13.7 11.6 19.6 6 .5 12.1.7 18.2.2.1.1.2.4.2.5 1 2.5 2.1 5 3.2 7.4-4.1.3-8.1.6-12.2.5-4.2-.1-8.3-.4-12.5-.8-.2 0-.7-.1-.9-.1-9.5-10.2-16.2-23.2-18.7-37-1.8-9.8-1.7-19.9.5-29.6 2.7-12 8.4-23.3 16.6-32.6 9.9-11.2 23.4-19.4 38.2-22.8"/><path fill="#645a78" d="M80.2 49.6c2.5-5.4 5.9-10.4 9.2-15.4-4 .7-8 1.6-11.8 3.1-2.1 3.7-4.1 7.4-6.1 11.2-4.3-.3-8.6-.3-12.8-.5-3.2 2.7-6.3 5.6-8.9 8.9 6.1-.6 12.2-.7 18.3-.4-2.2 6.7-4.6 13.4-5.5 20.3 3.4-2.7 10.1-7.7 10.1-7.7l.2-1c1-3.7 2.3-7.3 3.8-10.8 4.2.5 8.3 1.4 12.3 2.4 3.7-1.8 7.6-3.2 11.4-4.7-.7-.4-14.1-4.4-20.2-5.4zm74.5 0c-.7-.7-1.1-1.2-1.6-1.7-4.8-5-10.2-9.3-16.2-12.8l-.1.1c-5.4-3.4-11.4-5.7-17.5-7.5-.7-.2-1.4-.4-2.5-.7 2.6 3.6 4.9 6.8 7.2 10.7 2.1.5 4.7 1.6 6.5 2.6 3.1 1.7 5.7 3.4 8.5 5.6 1.4 1.1 2.8 2.8 4.8 2.8 3.5.1 7.4.5 10.9.9zm-25.9 19.2c-2-.3-3.4-2.1-5.2-2.9-3.4-2.2-7.1-4.1-10.7-6-4.1 1-11.9 3.8-11.9 3.8 5.4 2.2 10.7 4.6 15.7 7.6 5.2 3 10 6.6 14.8 10.2-.5-4.4-1.5-8.6-2.7-12.7zM69.3 81.9c-3.5 2.7-5.7 4.8-8.7 8v.9c-.3 4.8-.1 16.3-.1 17.7 0 0 6 5.9 9.4 8.6-1.5-10.2-1.7-20.7-.9-30.4 0-1.6.1-2.9.3-4.8zm103.5 5.9c-1.2-7.8-3.5-15.5-7.2-22.5-1.2 3.7-2.5 7.3-4.1 10.9-2.5 5.4-5.1 10.8-8.5 15.6-1.3-1.5-2.5-3.1-3.9-4.5-2.3-2.7-8.9-8.8-9.8-9.2.7 4.2 1.3 8.4 1.5 12.6.8.6 1.6 1.2 2.3 1.9.9.8 3.5 4 5 6.1-2 3-4.3 6-7.2 8.2-.1 1.8-.3 3.7-.5 5.5-.3 2.5-.7 5-1.1 7.5 3.2-2 5.4-5 8.1-7.5 2.1-1.9 3.5-4.6 5.9-6.2 1.4 1.7 2.5 3.7 3.6 5.5 1.7 3 2.9 6.3 4.9 9 1.4-3.7 2.3-7.6 3-11.5 1.9 3.7 3.8 7.4 5.4 11.3 2.1-5.3 2.7-11.2 3.4-16.8.1-2 .2-4 .2-6-.1-3.3-.3-6.7-1-9.9zm-8.1 21.4l-6.2-9.7s4.4-8.6 6-10.7c.6 1.9.7 3.9.9 5.9.2 1.4.3 10-.7 14.5zm-92.9 40.6c-1.1-2.4-3.4-7.8-3.4-7.9-2.2-5.7-4-11.6-5.4-17.6-.1-.8-.1-1.7-.2-2.5 3.4 2.8 6.9 5.5 10.5 7.9-.2.5-.2 1.1-.1 1.6.6 2 1.3 4 2 5.9 0 0 .8 2.6 1.7 3.6 3.9-.5 7.8-1.2 11.5-2.5 3.8 1.8 7.6 3.4 11.6 4.8-.5.3-1 .6-1.5.8-5.8 2-11.8 3.5-17.9 4.6-.1 1.8 7.6 13.1 8.4 15-4.5.1-17.9-.1-20.4-.1-1.9.1-4.6 0-5.6-.7-5.8-3.3-11.2-7.4-15.8-12.2-.2-.2-.9-.8-1.2-1.2 4.1.4 9.2.8 13.4.9 2 2.1 4.6 3.5 7 5.1 2.4 1.5 5 2.8 7.6 4 .9.4 1.9.7 2.9.8.2 0-3.5-7.5-5.1-10.3zm28.9-15.1c4 1.5 8.1 2.8 12.2 3.8 2.4-1.9 5.4-3 8-4.7 2.7-1.4 5-3.6 7.8-4.8h.1c1.1-4.2 2.1-8.4 2.8-12.7-6.8 5.5-14.1 10.6-22 14.3-2.8 1.6-5.9 2.7-8.9 4.1z"/></svg>