<?xml version="1.0" encoding="utf-8"?>
<!-- Generator: Adobe Illustrator 22.1.0, SVG Export Plug-In . SVG Version: 6.00 Build 0)  -->
<svg version="1.0" id="Livello_1" xmlns="http://www.w3.org/2000/svg" xmlns:xlink="http://www.w3.org/1999/xlink" x="0px" y="0px"
	 viewBox="0 0 200 200" enable-background="new 0 0 200 200" xml:space="preserve">
<g>
	<path fill="#8200FF" d="M31.3,128l-21.7,5.3c0,0-6.3,0.9-6.8-5.3c-0.6-6.5,0-76.8,0-76.8S2,46.9,6.1,45L42,36.2c0,0,4.9-0.6,6.9,5
		v25.6c0,0-16.3,1.3-17,11.8C31.2,89,31.3,128,31.3,128z"/>
	<path fill="#8200FF" d="M106.9,127.3l-24.3,5.9c0,0-6.3,0.9-6.8-5.3c-0.6-6.5,0-76.8,0-76.8S75,46.9,79.1,45l35.9-8.9
		c0,0,4.9-0.6,6.9,5v25.6c0,0-14.2,2.2-14.9,12.7C106.3,90,106.9,127.3,106.9,127.3z"/>
	<path fill="#8200FF" d="M151.1,127.6V51.8c0,0-0.5-5.4,4.9-7.5l33.3-8.2c0,0,6.8-0.9,8.2,5.4v78.1c0,0-0.4,3.4-3.7,5l-34.1,8.6
		C159.6,133.3,153.2,135,151.1,127.6z"/>
	<path fill="#01FFDB" d="M38.1,157.7v-77c0,0,0-4.3,5.2-5.9l26-6.3v59.9c0,0,1.7,12.4,15.1,11.5v10.6c0,0-0.3,2.6-3.8,4.9l-34.2,8.4
		C46.2,163.8,39.6,165.3,38.1,157.7z"/>
	<path fill="#01FFDB" d="M113.6,157.7v-77c0,0,0-4.3,5.2-5.9l26-6.3v59.9c0,0,1.7,12.4,15.1,11.5v10.6c0,0-0.3,2.6-3.8,4.9
		l-34.2,8.4C121.7,163.8,115.1,165.3,113.6,157.7z"/>
</g>
</svg>
