<?xml version="1.0" encoding="utf-8"?>
<!-- Generator: Adobe Illustrator 23.0.0, SVG Export Plug-In . SVG Version: 6.00 Build 0)  -->
<svg version="1.0" id="Livello_1" xmlns="http://www.w3.org/2000/svg" xmlns:xlink="http://www.w3.org/1999/xlink" x="0px" y="0px"
	 viewBox="0 0 200 200" enable-background="new 0 0 200 200" xml:space="preserve">
<g>
	<path fill="#1B1464" d="M17.26,62.15c0-3.06-0.06-5.82,0.06-8.58c0-0.52,0.69-1.19,1.22-1.48c18.61-10.78,37.23-21.55,55.86-32.29
		L97.92,6.24c0.68-0.4,1.33-0.83,2-1.24c14.91,8.6,29.85,17.23,44.82,25.88c12.28,7.09,24.56,14.2,36.84,21.33
		c0.64,0.44,1.05,1.15,1.12,1.92c0.06,30.7,0.06,61.41,0,92.11c-0.07,0.78-0.49,1.48-1.13,1.92
		c-26.73,15.49-53.46,30.95-80.21,46.39c-0.95,0.55-1.66,0.63-2.68,0.04c-26.73-15.47-53.46-30.93-80.2-46.38
		c-0.52-0.31-1.15-0.99-1.16-1.52c-0.09-4.28-0.07-8.58-0.07-13.01h17.83c0.08,0.13,0.22,0.25,0.2,0.35
		c-0.53,2.93,1.22,4.19,3.52,5.5c19.81,11.34,39.58,22.75,59.32,34.24c1.37,0.79,2.38,0.79,3.73,0
		c20.38-11.83,40.78-23.62,61.19-35.35c1.21-0.7,1.58-1.47,1.58-2.81c-0.04-23.64-0.04-47.27,0-70.91c0-1.37-0.44-2.11-1.62-2.77
		c-20.48-11.77-40.93-23.59-61.37-35.44c-1.26-0.73-2.16-0.69-3.39,0.03C78.6,37.92,58.9,49.32,39.18,60.71
		c-1.68,1.02-3.63,1.53-5.59,1.48C28.25,62.08,22.9,62.15,17.26,62.15z M50.7,91.36h67.74c2.85,0,4.04,0.67,4.1,2.31
		c0.06,1.64-1.25,2.41-4.19,2.41H48.16c0.04,0.98,0.08,1.66,0.11,2.44h64.57c0.66-0.02,1.32,0,1.98,0.05
		c1.34,0.16,2.25,0.86,2.26,2.28c0,1.52-0.96,2.23-2.38,2.38c-0.59,0.04-1.19,0.05-1.78,0.02h-62.2c-0.82,0-1.64,0.08-2.48,0.11
		v11.7h91.59c0.09-1.09,0.16-1.98,0.24-2.91h9.2c0,2.87,0.02,5.63-0.04,8.37c0,0.31-0.5,0.87-0.79,0.87
		c-2.8,0.07-5.6,0.04-8.42,0.04c-0.09-1.3-0.15-2.25-0.22-3.23H48.16v9.43c0,3.02,0.09,3.12,3.1,3.12h48.69
		c0.11-1.24,0.19-2.2,0.29-3.24h9.25c0.07,1.07,0.14,2.02,0.22,3.24h32.17v2.75h-32.16c-0.09,1.19-0.17,2.15-0.24,3.09
		c-0.21,0.09-0.43,0.15-0.66,0.18c-1.65,0.02-3.3,0.04-4.95,0.04c-3.38,0-3.38,0-4.04-3.17H54.58c0.55,0.37,0.76,0.53,0.98,0.65
		c14.4,8.32,28.79,16.64,43.18,24.96c1.16,0.67,1.91,0.34,2.86-0.21c16.22-9.38,32.45-18.74,48.69-28.09
		c1.12-0.64,1.54-1.35,1.54-2.65c-0.04-18.82-0.04-37.63,0-56.45c0-1.19-0.36-1.91-1.41-2.52c-16.42-9.44-32.83-18.88-49.24-28.33
		c-0.71-0.34-1.53-0.35-2.25-0.04c-16.49,9.45-32.96,18.92-49.41,28.43c-1.08,0.62-1.39,1.34-1.37,2.52
		c0.07,3.89,0.03,7.79,0.03,11.68v7.73H50.7z M83.96,109.41c-0.06,2.61-2.41,4.92-5,4.91c-2.69-0.11-4.85-2.25-4.99-4.94
		c0.01-2.76,2.25-4.99,5.01-4.98S83.97,106.65,83.96,109.41L83.96,109.41z M90.6,114.32c-2.69-0.14-4.81-2.33-4.88-5.02
		c-0.08-2.74,2.08-5.03,4.83-5.11c2.74-0.08,5.03,2.08,5.11,4.83c0,0.09,0,0.19,0,0.28c-0.05,2.76-2.29,4.98-5.06,5V114.32z
		 M67.32,114.32c-2.77-0.02-5.02-2.26-5.03-5.04c-0.06-2.74,2.11-5.02,4.85-5.08s5.02,2.11,5.08,4.85c0,0.09,0,0.18,0,0.28
		c-0.09,2.68-2.22,4.85-4.9,4.98V114.32z M55.62,114.32c-2.64,0.07-5.11-2.38-5.11-5.02c0.08-2.69,2.22-4.87,4.91-5
		c2.77-0.03,5.04,2.2,5.07,4.98c0,0,0,0.01,0,0.01c-0.06,2.69-2.18,4.88-4.87,5.01V114.32z M53.22,88.37
		c-2.17-0.06-3.27-1.08-3.31-3.06c-0.04-2.08,1.09-3.22,3.32-3.26c1.78-0.04,3.57-0.06,5.34,0c1.98,0.08,2.99,1.19,2.99,3.17
		c0,1.98-0.98,3.04-2.99,3.13c-0.99,0.04-1.98,0-2.97,0c-0.79,0.01-1.58,0.02-2.37,0L53.22,88.37z M66.63,88.37
		c-2.12-0.08-3.06-1-3.11-2.99c-0.05-2.16,0.88-3.24,2.99-3.32c1.84-0.07,3.69-0.06,5.55,0c2.06,0.07,3.13,1.27,3.06,3.3
		c-0.06,1.93-1.1,2.94-3.15,3.01c-0.92,0.03-1.84,0-2.77,0c-0.86-0.02-1.72,0.01-2.57-0.02V88.37z M81.01,88.37
		c-2.18-0.08-3.17-1.07-3.17-3.14c0-2.07,1.01-3.11,3.17-3.17c1.84-0.05,3.69-0.07,5.55,0c1.96,0.08,2.92,1.22,2.89,3.24
		c-0.02,1.88-1.01,2.95-2.88,3.05c-0.98,0.05-1.98,0-2.96,0c-0.89,0-1.74,0.02-2.6,0V88.37z"/>
</g>
</svg>
