<svg xmlns="http://www.w3.org/2000/svg" id="Livello_1" x="0" y="0" version="1.1" viewBox="0 0 200 200" xml:space="preserve"><style>.st0{fill:#fff}</style><path d="M139.9 7.3c-2.5-2.6-5.4-2.8-8-1.4-3.1 1.8-6.4 4-8.5 6.9-3.9 5.6-7 11.8-10.5 17.7-.9 1.5-2 3.2-3.5 4-4.7 2.6-9.5 5.3-14.5 7.1C87 44.4 81.3 50 75.3 55.3c-1.3 1.1-2 3-2.6 4.7-1.9 5.5-.3 10.7 1.4 15.9 3.1 9.7 6.7 19.3 15.7 25.2 5.5 3.6 11.3 6.9 17.1 10 5.6 3 6 4 2.5 9.5-6.2 10-15.9 14.6-26.7 17.7-4.8 1.4-5.2 1.1-5.1-3.9v-3.7c-1.6-.2-2.6-.4-3.6-.5.8-6.2.8-6.2-5.2-8.8-1.8-.8-3.5-1.5-3.2-4.1.1-.7-.9-1.6-1.6-2.2-4-2.8-6.7-2-9.6 3-7.5 13.1-5.1 30 6.5 41.9 3 3.1 3.7 5.9 2.1 9.6-.6 1.3-1 2.7-1.2 4.2-.8 4.3-2.2 8.7.6 13 1.2 1.8 2.1 3.7 3 5.7.9 2 2.1 3 4.5 2.6 2-.3 4.1-.1 6.7-.1 1.1-2.9 2.4-6.2 3.5-9.6.9-2.8 1.4-5.7 2.6-8.4 1.7-3.6 3.2-7.2 8.4-7.7 4.9-.5 10.1-2 14.4-4.3 9.1-4.8 17.8-10.5 24.8-18.4.6-.7 1.6-1.4 2.4-1.3 2.9.2 3.2-1 2.6-3.4-.2-.8 0-1.9.4-2.6 3.2-5.7 3.8-11.1 1.5-17.8-5.6-16.2-15.1-28.5-30.7-36-1.3-.6-2.6-1.3-3.8-2-3.2-1.9-3.6-3-.8-5.4 4-3.4 8.3-6.4 12.6-9.5 1.3-.9 2.8-1.7 4.2-2.5-.2-.4-.5-.8-.7-1.2-6.4 4.2-12.7 8.4-19.9 13.1 1-1.5 1.3-2.2 1.9-2.8 5.8-5.8 13-9.5 20.5-12.5 2.2-.9 5.1-.2 7.7 0 .5 0 1.2.6 1.3 1 1.2 4 2.3 7.2 7.5 8.2 2.1.4 3.3.5 4.8-.6 1.2-.9 2.3-2.1 3.5-3.1 4-3 5.4-7.6 3-11.9-3-5.3-6.6-10.3-9.7-15.5-.8-1.4-1.7-3.5-1.2-4.9 1.5-4.1 3.5-8 5.4-11.9 1.4-2.9 3.4-5.2 1.6-9.2-1.7-3.7-1.3-4.2-5.5-3.1-1.4.4-3 .2-4.5.3-.1-.4-.2-.9-.2-1.3 1.9-1.2 3.7-2.2 5.7-3.4zm-24.6 154.5c6.8-2.8 12.7-6.5 17.5-13.6-6.4 5-11.9 9.3-17.5 13.6z"/><path d="M97.9 70.1c6.9-7.3 15.2-12.1 24.8-14.5l.6 1.2c-8.5 4.4-17 8.9-25.4 13.3zM120.9 147.8c-3 6-13.5 12.2-19.9 11.7 6.9-4.1 13-7.6 19.9-11.7zM90 54.5c6.8-4.5 13.7-8.6 21.6-10.9l.6 1.2c-7.2 3.6-14.4 7.1-21.7 10.7-.1-.4-.3-.7-.5-1zM93.2 145.3c5.1-2.9 10.2-5.7 15.3-8.6.2.3.4.6.5 1-4.4 4.2-9.5 7.1-15.5 8.5l-.3-.9zM112.4 48.3c-5.6 2.9-11.3 5.9-16.9 8.8-.2-.4-.4-.7-.6-1.1 5.5-3 11.1-6 16.6-9.1.3.5.6.9.9 1.4zM101.1 145.8c2.6-1.6 5.2-3.2 7.8-4.9.2.4.5.8.7 1.2-2.6 1.6-5.2 3.2-7.8 4.9-.2-.4-.5-.8-.7-1.2z" class="st0"/></svg>