<?xml version="1.0" encoding="UTF-8" standalone="no"?>
<!-- Generator: Adobe Illustrator 16.0.0, SVG Export Plug-In . SVG Version: 6.00 Build 0)  -->

<svg
   xmlns:dc="http://purl.org/dc/elements/1.1/"
   xmlns:cc="http://creativecommons.org/ns#"
   xmlns:rdf="http://www.w3.org/1999/02/22-rdf-syntax-ns#"
   xmlns:svg="http://www.w3.org/2000/svg"
   xmlns="http://www.w3.org/2000/svg"
   xmlns:sodipodi="http://sodipodi.sourceforge.net/DTD/sodipodi-0.dtd"
   xmlns:inkscape="http://www.inkscape.org/namespaces/inkscape"
   version="1.1"
   id="Your_design"
   x="0px"
   y="0px"
   width="15.000002"
   height="15"
   viewBox="-219.711 -220.159 15.000002 15"
   enable-background="new -219.711 -220.159 566.929 566.93"
   xml:space="preserve"
   sodipodi:docname="0xB8c77482e45F1F44dE1745F52C74426C631bDD52.svg"
   inkscape:version="0.92.3 (2405546, 2018-03-11)"><metadata
   id="metadata17"><rdf:RDF><cc:Work
       rdf:about=""><dc:format>image/svg+xml</dc:format><dc:type
         rdf:resource="http://purl.org/dc/dcmitype/StillImage" /><dc:title></dc:title></cc:Work></rdf:RDF></metadata><defs
   id="defs15" /><sodipodi:namedview
   pagecolor="#ffffff"
   bordercolor="#666666"
   borderopacity="1"
   objecttolerance="10"
   gridtolerance="10"
   guidetolerance="10"
   inkscape:pageopacity="0"
   inkscape:pageshadow="2"
   inkscape:window-width="1537"
   inkscape:window-height="794"
   id="namedview13"
   showgrid="false"
   scale-x="1"
   fit-margin-top="0"
   fit-margin-left="0"
   fit-margin-right="0"
   fit-margin-bottom="0"
   inkscape:zoom="9.4192766"
   inkscape:cx="-23.559802"
   inkscape:cy="11.325778"
   inkscape:window-x="374"
   inkscape:window-y="70"
   inkscape:window-maximized="0"
   inkscape:current-layer="Your_design" />




<g
   id="g4532"
   transform="matrix(0.02739175,0,0,0.02739175,-213.97108,-214.43406)"><polygon
     transform="translate(0,-2.6757813e-6)"
     style="fill:#f3ba2f"
     id="polygon2"
     points="-42.091,21.11 64.255,-85.232 170.657,21.165 232.538,-40.714 64.255,-209 -103.97,-40.769 " /><rect
     style="fill:#f3ba2f;stroke-width:0.9999904"
     id="rect4"
     height="87.512161"
     width="87.508163"
     transform="rotate(-135)"
     y="-193.99426"
     x="14.844781" /><polygon
     transform="translate(0,-2.6757813e-6)"
     style="fill:#f3ba2f"
     id="polygon6"
     points="232.538,170.326 64.255,338.608 -103.975,170.382 -104.061,170.297 -42.091,108.499 64.255,214.841 170.653,108.448 232.567,170.293 " /><rect
     style="fill:#f3ba2f;stroke-width:0.9999904"
     id="rect8"
     height="87.508163"
     width="87.510162"
     transform="rotate(-45)"
     y="197.37436"
     x="105.69791" /><polygon
     transform="translate(0,-2.6757813e-6)"
     style="fill:#f3ba2f"
     id="polygon10"
     points="127.08,64.804 127.022,64.77 127.047,64.77 64.255,1.98 17.851,48.382 17.846,48.382 12.519,53.717 1.52,64.716 1.433,64.804 1.52,64.892 64.255,127.629 127.047,64.838 " /></g>
</svg>