<?xml version="1.0" encoding="utf-8"?>
<!-- Generator: Adobe Illustrator 16.0.0, SVG Export Plug-In . SVG Version: 6.00 Build 0)  -->
<!DOCTYPE svg PUBLIC "-//W3C//DTD SVG 1.1//EN" "http://www.w3.org/Graphics/SVG/1.1/DTD/svg11.dtd">
<svg version="1.1" id="Your_design" xmlns="http://www.w3.org/2000/svg" xmlns:xlink="http://www.w3.org/1999/xlink" x="0px"
	 y="0px" width="566.929px" height="566.93px" viewBox="-219.711 -220.159 566.929 566.93"
	 enable-background="new -219.711 -220.159 566.929 566.93" xml:space="preserve">
<polygon fill="#F3BA2F" points="-42.091,21.11 64.255,-85.232 170.657,21.165 232.538,-40.714 64.255,-209 -103.97,-40.769 "/>
<rect x="-191.423" y="21.041" transform="matrix(-0.7071 -0.7071 0.7071 -0.7071 -297.9048 6.2007)" fill="#F3BA2F" width="87.509" height="87.513"/>
<polygon fill="#F3BA2F" points="-42.091,108.499 64.255,214.841 170.653,108.448 232.567,170.293 232.538,170.326 64.255,338.608 
	-103.975,170.382 -104.061,170.297 "/>
<rect x="232.431" y="21.07" transform="matrix(0.7071 -0.7071 0.7071 0.7071 35.0539 214.2784)" fill="#F3BA2F" width="87.511" height="87.509"/>
<polygon fill="#F3BA2F" points="127.022,64.77 127.047,64.77 64.255,1.98 17.851,48.382 17.846,48.382 12.519,53.717 1.52,64.716 
	1.52,64.716 1.433,64.804 1.52,64.892 64.255,127.629 127.047,64.838 127.08,64.804 "/>
</svg>
