<?xml version="1.0" encoding="utf-8"?>
<!-- Generator: Adobe Illustrator 16.0.0, SVG Export Plug-In . SVG Version: 6.00 Build 0)  -->
<!DOCTYPE svg PUBLIC "-//W3C//DTD SVG 1.0//EN" "http://www.w3.org/TR/2001/REC-SVG-20010904/DTD/svg10.dtd">
<svg version="1.0" id="Layer_1" xmlns="http://www.w3.org/2000/svg" xmlns:xlink="http://www.w3.org/1999/xlink" x="0px" y="0px"
	 width="200px" height="200px" viewBox="0 0 200 200" enable-background="new 0 0 200 200" xml:space="preserve">
<path fill="#81BE41" d="M98.065,4.25l55.404,24.127V136.95c0,0,0.445,26.211-21.895,12.511
	c-5.973-3.662-19.658-14.633-37.702-29.469c-14.964-16.055-30.075-40.369-37.359-49.616v90.701l25.914,12.958v-37.979l14.297,15.191
	v44.68l-55.85-25.021V84.674c0,0,0-28,0-32.742c0-10.598,9.754-16.5,18.319-5.236c3.701,4.868,27.091,42.314,46.522,64.14
	c15.358,12.71,24.519,18.631,32.562,24.327V36.867L112.81,25.25v58.53L98.065,67.25V4.25z"/>
</svg>
