<?xml version="1.0" encoding="UTF-8" standalone="no"?><!DOCTYPE svg PUBLIC "-//W3C//DTD SVG 1.1//EN" "http://www.w3.org/Graphics/SVG/1.1/DTD/svg11.dtd"><svg width="100%" height="100%" viewBox="0 0 15 15" version="1.1" xmlns="http://www.w3.org/2000/svg" xmlns:xlink="http://www.w3.org/1999/xlink" xml:space="preserve" style="fill-rule:evenodd;clip-rule:evenodd;stroke-linejoin:round;stroke-miterlimit:1.41421;"><g id="layer1"><g><path d="M9.399,9.668c-1.008,-0.101 -2.37,-0.714 -3.084,-1.387l-0.227,-0.21l-0.68,0.513c-0.857,0.639 -1.336,0.857 -1.992,0.907c-0.848,0.076 -1.437,-0.21 -1.722,-0.848c-0.193,-0.42 -0.202,-0.883 -0.025,-1.294c0.218,-0.53 0.798,-1.034 1.184,-1.025c0.101,0.008 0.068,0.042 -0.1,0.117c-1.076,0.479 -1.202,2.076 -0.211,2.597c0.421,0.218 0.967,0.151 1.706,-0.219c0.328,-0.168 0.807,-0.479 1.051,-0.689l0.436,-0.395l-0.546,-0.588c-0.302,-0.328 -0.529,-0.613 -0.504,-0.639c0.025,-0.025 0.311,0.211 0.622,0.521l0.58,0.58l0.706,-0.63c1.63,-1.454 2.898,-2.017 4.167,-1.874c1.345,0.16 2.286,1.076 2.286,2.219c-0.009,1.571 -1.538,2.554 -3.647,2.344ZM10.869,9.214c0.639,-0.185 0.984,-0.42 1.261,-0.857c0.588,-0.933 0.286,-2.025 -0.714,-2.563c-0.496,-0.269 -1.757,-0.26 -2.353,0.009c-0.555,0.252 -1.294,0.764 -2.134,1.479l-0.698,0.596l0.235,0.193c0.589,0.488 1.782,1.034 2.588,1.194c0.563,0.109 1.337,0.092 1.815,-0.051Z" style="fill:#3b3a35;fill-rule:nonzero;"/><path d="M3.509,6.324c-0.236,-0.261 -0.084,-0.622 0.269,-0.656c0.21,-0.025 0.294,0.017 0.411,0.185c0.126,0.202 0.126,0.235 0,0.429c-0.168,0.26 -0.47,0.277 -0.68,0.042Z" style="fill:#3b3a35;fill-rule:nonzero;"/><path d="M7.5,0c4.139,0 7.5,3.361 7.5,7.5c0,4.139 -3.361,7.5 -7.5,7.5c-4.139,0 -7.5,-3.361 -7.5,-7.5c0,-4.139 3.361,-7.5 7.5,-7.5ZM11.155,9.559c1.504,-0.378 2.302,-1.874 1.672,-3.135c-0.63,-1.268 -2.411,-1.705 -4.025,-0.983c-0.621,0.269 -1.386,0.807 -2.209,1.538l-0.706,0.63l-0.58,-0.58c-0.311,-0.31 -0.597,-0.546 -0.622,-0.521c-0.025,0.026 0.202,0.311 0.504,0.639l0.546,0.588l-0.436,0.395c-0.572,0.496 -1.538,0.983 -2.059,1.025c-0.773,0.068 -1.37,-0.47 -1.37,-1.243c0,-0.219 0.042,-0.504 0.093,-0.639c0.117,-0.311 0.479,-0.689 0.79,-0.832c0.168,-0.075 0.201,-0.109 0.1,-0.117c-0.386,-0.009 -0.966,0.495 -1.184,1.025c-0.177,0.411 -0.168,0.874 0.025,1.294c0.285,0.638 0.874,0.924 1.722,0.848c0.656,-0.05 1.135,-0.268 1.992,-0.907l0.68,-0.513l0.227,0.21c0.395,0.37 1.252,0.874 1.882,1.11c0.933,0.336 2.025,0.395 2.958,0.168ZM4.189,6.282c0.126,-0.194 0.126,-0.227 0,-0.429c-0.201,-0.302 -0.638,-0.26 -0.756,0.067c-0.168,0.479 0.479,0.782 0.756,0.362Z" style="fill:#efd96f;"/><path d="M9.054,9.265c-0.806,-0.16 -1.999,-0.706 -2.588,-1.194l-0.235,-0.193l0.698,-0.596c0.84,-0.715 1.579,-1.227 2.134,-1.479c0.596,-0.269 1.857,-0.278 2.353,-0.009c0.714,0.387 1.109,1.109 1,1.832c-0.068,0.454 -0.446,1.059 -0.807,1.277c-0.639,0.395 -1.664,0.538 -2.555,0.362Z" style="fill:#efd96f;fill-rule:nonzero;"/></g></g></svg>