<svg xmlns="http://www.w3.org/2000/svg" viewBox="0 0 200 200"><linearGradient id="a" x1="1.6863" x2="8.6661" y1="197.3775" y2="197.3775" gradientTransform="matrix(23.6229 0 0 -27.2216 -20.4343 5472.9346)" gradientUnits="userSpaceOnUse"><stop offset="0" stop-color="#0cffaa"/><stop offset=".14" stop-color="#23fcc1"/><stop offset=".31" stop-color="#38f9d8"/><stop offset=".5" stop-color="#48f7e8"/><stop offset=".71" stop-color="#51f5f1"/><stop offset="1" stop-color="#54f5f4"/><stop offset="1" stop-color="#fff"/></linearGradient><path fill="url(#a)" d="M182.3 52.4L99.8 5 17.6 52.6l.2 95 82.5 47.4 82.3-47.6-.3-95zM96.4 94.1L85 87.6l11.4-19.3v25.8zm-4 6.2l-22.5 12.9L81.2 94l11.2 6.3zm4 6.2v32.2l-29-15.5 29-16.7zm7.3.3l27.7 15.7-27.7 16.2v-31.9zm3.5-6.5l10.9-6.3 9.7 18-20.6-11.7zm-3.5-6.5V67.2l10.9 20.3-10.9 6.3zm0-42.1V15.8l67.8 39-50.5 29-17.3-32.1zm-7.4 2.1L78.6 84 27.9 55.2l68.4-39.6v38.2zM74.8 90.3L57 120.7 25.2 139l-.1-77 49.7 28.3zm-15 37.3l36.5 19.5v37.1l-67.5-38.8 31-17.8zm43.9 19.7l35.1-20.6 32.6 18.5-67.7 39.2v-37.1zm36.2-28.5l-15.3-28.5 50.4-29 .1 77.5-35.2-20z"/></svg>