<svg xmlns="http://www.w3.org/2000/svg" viewBox="0 0 200 200"><path fill="#01c38d" d="M171.4 58.9V32.4L122.8 4.5l-16.4 8.9v75.5l9 5.4V36.9l33.9 19.3 5.3-3v-4.1l-39.3-22.7v-7.5l7.2-4.5L163 37.5V59l-19 10.4c-1.3-.7-2.8-1-4.2-1.1-5 0-9 4-9 9s4 9 9 9 9-4 9-9V77l18.7-10.7 18.6 10v46.9l-18.2 10.3-75.3-42.8V13.4L76.9 4.5l-49.3 28v25.8L4.8 71.4v57.3l22.6 12.4V167l49.8 28 15.4-8.9v-75.4l-8.7-5v57.1l-34.8-19.6-4.4 2.7.1 4.8 38.9 22.2-.2 8.7-6.3 3.8-41.4-24V142L56 130.4c1.3.6 2.6 1.1 4.1 1.1 5 0 9-4 9-9s-4-9-9-9-9 4-9 9v.1l-19.5 11.1-18.4-10.2V76.8l18.6-11.2 75.2 43.7v76l15.7 9.9 48.6-28v-25.9l23.4-12.7v-57c.1 0-23.3-12.7-23.3-12.7zM83.9 86.4L40.6 60.9 84 36.1v50.3h-.1zm0-60.1L36 53.6V38l40.8-23.6 7.2 4v7.8l-.1.1zm31.4 87.1l43.9 25.1-43.9 24.5v-49.6zm48.1 48.3l-40.6 23.2-7.4-4.7v-6.7l48.1-27.7v15.8c0 .1-.1.1-.1.1z"/></svg>