<svg xmlns="http://www.w3.org/2000/svg" id="Livello_1" x="0" y="0" version="1.1" viewBox="0 0 200 200" xml:space="preserve"><style>.st0{fill:#010202}.st1{fill:#fff}</style><ellipse cx="100" cy="144.5" class="st0" rx="95" ry="33.2"/><path d="M100 117.1c-43 0-76.7-12.3-76.7-28.1S57 60.9 100 60.9s76.7 12.3 76.7 28.1-33.7 28.1-76.7 28.1z" class="st0"/><path d="M100 62.9c41.3 0 74.7 11.7 74.7 26.1s-33.5 26.1-74.7 26.1S25.3 103.4 25.3 89 58.7 62.9 100 62.9m0-4c-38.2 0-78.7 10.5-78.7 30.1s40.6 30.1 78.7 30.1 78.7-10.5 78.7-30.1-40.5-30.1-78.7-30.1z" class="st1"/><g><path d="M100 63.8c-28.8 0-58.6-8.1-58.6-21.7S71.2 20.3 100 20.3s58.6 8.1 58.6 21.7-29.8 21.8-58.6 21.8z" class="st0"/><path d="M100 22.3c31.2 0 56.6 8.8 56.6 19.7S131.2 61.8 100 61.8 43.4 53 43.4 42.1 68.8 22.3 100 22.3m0-4c-15.5 0-30.2 2.1-41.3 6C42.8 29.9 39.4 37 39.4 42.1s3.3 12.2 19.3 17.7c11.1 3.9 25.8 6 41.3 6s30.2-2.1 41.3-6c15.9-5.6 19.3-12.7 19.3-17.7s-3.3-12.2-19.3-17.7c-11.1-4-25.8-6.1-41.3-6.1z" class="st1"/></g></svg>