<svg xmlns="http://www.w3.org/2000/svg" viewBox="0 0 200 200"><linearGradient id="a" x1="181.7766" x2="31.5141" y1="180.5968" y2="28.6646" gradientTransform="translate(0 2)" gradientUnits="userSpaceOnUse"><stop offset=".1594" stop-color="#003cda"/><stop offset="1" stop-color="#33dfcc"/></linearGradient><path fill="url(#a)" d="M167.2 33.5C149.3 15.9 125.3 6.1 100 6.1c-18.8 0-37.2 5.4-52.8 15.9-15.6 10.2-27.7 25-35 42.1-7.1 17.1-9 36.1-5.4 54.3 3.8 18.2 12.7 34.8 26.1 48 13.3 13.1 30.3 22.1 48.6 25.7 18.4 3.5 37.6 1.7 54.9-5.4 17.3-7.1 32.1-19.2 42.6-34.7 10.4-15.4 16.1-33.6 16.1-52.2C195 75 185 51 167.2 33.5zM100 173.7c-41.1 0-74.5-33-74.5-73.7S58.9 26.3 100 26.3s74.5 33 74.5 73.7-33.4 73.7-74.5 73.7z"/><linearGradient id="b" x1="100.1269" x2="99.9162" y1="27.0408" y2="148.1536" gradientUnits="userSpaceOnUse"><stop offset="0" stop-color="#f8a94b"/><stop offset="1" stop-color="#f6921e"/></linearGradient><circle cx="100" cy="100" r="60" fill="url(#b)"/><path fill="#fff" d="M126.5 91.7c1.3-7.9-4.8-12.1-13.1-15l2.7-10.6-6.7-1.7-2.7 10.4c-1.7-.4-3.5-.8-5.2-1.3l2.7-10.4-6.7-1.7L94.8 72c-1.5-.4-2.9-.6-4.2-1l-9.2-2.3-1.7 6.9s4.8 1 4.8 1.3c.8.2 1.7.6 2.3 1.3.6.6.8 1.7.8 2.5l-7.5 29.4c-.2.6-.6 1-1.3 1.3-.6.2-1.3.4-1.9.2l-4.8-1.3-3.3 7.5 8.6 2.1 4.8 1.3-2.8 10.8 6.7 1.7 2.7-10.6c1.9.4 3.5 1 5.2 1.5l-2.7 10.6 6.7 1.7 2.7-10.9c11.3 2.1 19.8 1.3 23.4-8.8 2.9-8.1-.2-12.7-6.1-15.9 4.4-1.1 7.7-4 8.5-9.6zm-15 20.9c-2.1 8.1-15.9 3.8-20.2 2.5l3.5-14.4c4.4 1.2 18.8 3.3 16.7 11.9zm2.1-21.1c-1.9 7.3-13.4 3.5-17.1 2.7l3.3-12.9c3.8.8 15.7 2.5 13.8 10.2z"/></svg>