<svg xmlns="http://www.w3.org/2000/svg" viewBox="0 0 200 200"><linearGradient id="a" x1="-840.1526" x2="-840.1526" y1="-370.9424" y2="-370.7048" gradientTransform="matrix(511.95 0 0 512.01 430216.1563 189958.9219)" gradientUnits="userSpaceOnUse"><stop offset="0" stop-color="#f9aa4b"/><stop offset="1" stop-color="#f7931a"/></linearGradient><path fill="url(#a)" d="M158.5 120.5c-8 32.3-40.7 52-73 43.9s-52-40.7-43.9-73 40.7-52 73-43.9h.1c32.1 8.1 51.8 40.8 43.8 73z"/><path fill="#fff" d="M126.7 97.4c1.2-8-4.9-12.3-13.3-15.2l2.7-10.9-6.6-1.6-2.6 10.5-5.3-1.2 2.7-10.7-6.6-1.6L95 77.6l-4.2-1-9.1-2.3-1.8 7.1s4.9 1.1 4.8 1.2c1.9.3 3.2 2 3 3.8l-7.4 29.7c-.4 1.3-1.7 2-3 1.6l-4.8-1.2-3.3 7.6 8.6 2.1 4.7 1.2-2.7 11 6.6 1.7 2.7-10.9c1.8.5 3.6 1 5.3 1.4l-2.7 10.8 6.6 1.7 2.7-11c11.3 2.1 19.8 1.2 23.3-8.9 3-8.2 0-12.9-5.9-16 4.6-1.1 8.1-5.1 8.3-9.8zm-15.1 21.1c-2 8.2-15.9 3.8-20.4 2.6l3.7-14.5c4.3 1.1 18.7 3.3 16.6 11.9h.1zm2.1-21.2c-1.9 7.5-13.4 3.7-17.1 2.7l3.3-13.2c3.6.9 15.6 2.7 13.7 10.4h.1z"/><linearGradient id="b" x1="-14.297" x2="214.2968" y1="96" y2="96" gradientTransform="translate(0 4)" gradientUnits="userSpaceOnUse"><stop offset="0" stop-color="#0157d0"/><stop offset=".14" stop-color="#015fcd"/><stop offset=".36" stop-color="#0174c6"/><stop offset=".63" stop-color="#0098ba"/><stop offset=".94" stop-color="#00c8aa"/><stop offset="1" stop-color="#00d3a6"/></linearGradient><path fill="url(#b)" d="M100 10.8c-52.5 0-95 42.5-95 95 0 34.8 19 66.7 49.5 83.4h91.2c30.5-16.7 49.4-48.7 49.3-83.4 0-52.5-42.5-95-95-95zm0 170.6c-41.8 0-75.7-33.8-75.7-75.6S58.2 30.3 100 30.3s75.7 33.8 75.7 75.5-33.9 75.6-75.7 75.6z"/></svg>