<svg xmlns="http://www.w3.org/2000/svg" id="Livello_1" x="0" y="0" version="1.1" viewBox="0 0 200 200" xml:space="preserve"><style>.st4{fill:#7064ac}.st5{fill:#40413f}.st6{fill:#fff}</style><path fill="#d1dadf" d="M193.7 17.5c3-9.5.5-15.2-11.4-11.3L136 24.9c12.3-16.8-10.1-16.2-25.7-11.1-30 9.5-62.4 24.6-79.6 41.5-16.1 15-25.9 36.5-25.6 60.4.7 44.2 37.3 79.8 81.5 79.4 19.1-.1 36.7-7 50.5-18.3 23.1-17 37.6-43.4 47.2-69.3 7-18.8 6.2-40.6-10-28.4l19.4-61.6z"/><path fill="#b1cdea" stroke="#41423f" stroke-linecap="round" stroke-linejoin="round" stroke-miterlimit="10" stroke-width="4" d="M172.4 36.3c2.3-7.4.4-11.8-8.8-8.8l-46.9 18.9c10.1-10.9 3.4-16.9-8.7-13.1-23.2 7.4-48.3 19-61.5 32.1C34.1 77 26.5 93.6 26.7 112c.6 34.1 28.8 61.7 63.1 61.4 14.8-.1 28.4-5.4 39-14.2 17.8-13.1 28.1-34 36.6-53.6 4.5-10.4 1.2-19.8-11.3-10.4l-4.5 2.8c.9-2.3 22.8-61.7 22.8-61.7z"/><path fill="none" stroke="#3f403f" stroke-linecap="round" stroke-miterlimit="10" stroke-width="4" d="M73.2 129.7c3.5 8.2 22.3 11 29 0"/><path fill="#fff" stroke="#40413f" stroke-miterlimit="10" stroke-width="4" d="M50.5 125.6h14.7c7.9-2.9 13.5-10.5 13.5-19.6 0-11.5-9.4-20.9-20.9-20.9S36.9 94.5 36.9 106c.2 9.1 5.8 16.7 13.6 19.6zm62.4 0h14.7c7.9-2.9 13.5-10.5 13.5-19.6 0-11.5-9.4-20.9-20.9-20.9S99.3 94.5 99.3 106c0 9.1 5.6 16.7 13.6 19.6z"/><circle cx="120.2" cy="106" r="15.1" class="st4"/><circle cx="120.2" cy="106" r="12.7" class="st5"/><circle cx="120.2" cy="99.7" r="6.3" class="st6"/><circle cx="57.9" cy="106" r="15.1" class="st4"/><circle cx="57.9" cy="106" r="12.7" class="st5"/><circle cx="57.9" cy="99.7" r="6.3" class="st6"/></svg>