<svg xmlns="http://www.w3.org/2000/svg" id="Livello_1" x="0" y="0" version="1.1" viewBox="0 0 200 200" xml:space="preserve"><style>.st0{fill:#c8c8c8}</style><path d="M167.4 153.2c-.1-.1-.1-.2-.1-.2l-21.2-21.2-.3-.1-.4.1c-.5.5-.9 1-1.4 1.4-8.9 9.5-22.3 14.6-35.3 13.6-17.2-.8-32.7-12.6-39.2-28.4-4.6-11.6-4.2-24.9 1-36.3.3-.6.6-1.3 1-1.9.4-.6 2.8-4.4 3.6-5.6 1.7-2.5 3.9-4.8 6.2-6.8.8-.7 3.4-2.8 3.9-3.1 19.1-13.5 43-11 59.3 5.4.3.3.6 0 .6 0l21.7-21.7c.3-.3.4-.6.1-.8-5.2-5.4-11-10.1-17.3-14.1l6.3-17.6c.2-.4.1-.5-.2-.6-.4-.2-5-2.1-14-6-.2-.1-.2 0-.3.2L135 27l-6.7-1.8 6.3-17.5c.1-.2 0-.3-.3-.4L119.1 5c-.2 0-.4.1-.5.2l-6.5 18.1c-14.8-.3-29.8 3.2-42.3 11.2C55 44 43 58.1 37.1 74.7c-.7 1.7-1.2 3.6-1.7 5.4-.3 1.2-1.2 4.9-1.3 5.5-.2 1.3-.7 5-.8 5.7-.2 1.3-.5 5.2-.6 5.8-1.3 25.6 9.6 49.1 29.5 65.1L56 179.5l.2.4 13.2 7.8.4-.2 6-16.6 6.6 2.9-5.8 16.3.4.6 14.6 4.1.5-.2 6-16.8c26 3.9 51.3-4.5 69.2-23.9.1-.1.1-.2.1-.2v-.5c0 .1 0 0 0 0z" class="st0"/><path d="M98.6 87.4c-7.7 7.3-7.7 20.5 0 27.7 7.3 7.7 20.5 7.7 27.7 0 7.6-7.2 7.7-20.5 0-27.7-7.3-7.7-20.5-7.8-27.7 0z" class="st0"/></svg>