<?xml version="1.0" encoding="utf-8"?>
<!-- Generator: Adobe Illustrator 22.1.0, SVG Export Plug-In . SVG Version: 6.00 Build 0)  -->
<svg version="1.1" id="Capa_1" xmlns="http://www.w3.org/2000/svg" xmlns:xlink="http://www.w3.org/1999/xlink" x="0px" y="0px"
	 viewBox="0 0 200 200" style="enable-background:new 0 0 200 200;" xml:space="preserve">
<style type="text/css">
	.st0{fill:#4EAA68;}
	.st1{fill:#FFFFFF;}
</style>
<title>cst-logo</title>
<path class="st0" d="M195,100c0,52.5-42.6,95-95,95S5,152.4,5,100C5,47.5,47.5,5,100,5c52.4,0,95,42.5,95,94.9
	C195,100,195,100,195,100z"/>
<g>
	<polygon class="st0" points="45.4,158.6 21.9,82.1 76.5,23.4 154.5,41.4 178,117.9 123.4,176.6 	"/>
	<path class="st1" d="M124.1,178.7l-80.2-18.4L19.8,81.6l56.1-60.2L156,39.8l24.1,78.7L124.1,178.7z M46.9,157l75.9,17.5l53.1-57
		L153,43L77.2,25.6l-53.1,57L46.9,157z"/>
</g>
<g>
	
		<rect x="97.3" y="21.8" transform="matrix(0.9561 -0.2932 0.2932 0.9561 -24.9259 33.7089)" class="st1" width="5.4" height="156.4"/>
</g>
<g>
	
		<rect x="97.3" y="21.8" transform="matrix(0.2241 -0.9746 0.9746 0.2241 -19.8685 175.0455)" class="st1" width="5.4" height="156.4"/>
</g>
<g>
	
		<rect x="21.8" y="97.3" transform="matrix(0.6819 -0.7315 0.7315 0.6819 -41.341 104.9455)" class="st1" width="156.4" height="5.4"/>
</g>
<g>
	
		<rect x="123.9" y="3.7" transform="matrix(0.6813 -0.732 0.732 0.6813 -11.8969 115.4552)" class="st1" width="5.4" height="135.4"/>
</g>
<g>
	
		<rect x="43.7" y="134.7" transform="matrix(0.9562 -0.2928 0.2928 0.9562 -35.3366 38.6505)" class="st1" width="135.5" height="5.4"/>
</g>
<g>
	
		<rect x="-5.8" y="88.5" transform="matrix(0.2247 -0.9744 0.9744 0.2247 -40.9303 131.0366)" class="st1" width="135.4" height="5.4"/>
</g>
</svg>
