<svg xmlns="http://www.w3.org/2000/svg" viewBox="0 0 200 200"><path fill="#6dbe9a" d="M8.1 97.8l84.5 84.5c4.1 4.1 10.7 4.1 14.8 0l11.9-11.9-41.5-41.5 53.4-53.4c4.1-4.1 4.1-10.7 0-14.8l-43-43c-4.1-4.1-10.7-4.1-14.8 0L8.1 82.9C4 87 4 93.7 8.1 97.8zM100 68.1l-41.5 41.5-19.3-19.2 41.5-41.5L100 68.1z"/><path fill="#1b5d74" d="M100 29.6l60.8 60.8-19.3 19.3-60.8-60.9-11.8 11.9c-4.1 4.1-4.1 10.7 0 14.8l53.4 53.4L88.1 163c-4.1 4.1-4.1 10.7 0 14.8l4.4 4.4c4.1 4.1 10.7 4.1 14.8 0l84.5-84.5c4.1-4.1 4.1-10.7 0-14.8l-65.2-65.2c-4.1-4.1-10.7-4.1-14.8 0L100 29.6z"/></svg>