<?xml version="1.0" encoding="utf-8"?>
<!-- Generator: Adobe Illustrator 22.1.0, SVG Export Plug-In . SVG Version: 6.00 Build 0)  -->
<svg version="1.0" id="Livello_1" xmlns:serif="http://www.serif.com/"
	 xmlns="http://www.w3.org/2000/svg" xmlns:xlink="http://www.w3.org/1999/xlink" x="0px" y="0px" viewBox="0 0 200 200"
	 enable-background="new 0 0 200 200" xml:space="preserve">
<g>
	<path fill="#0076A3" d="M170.6,172.1c-14.4,13.9-34,22.5-55.6,22.5c-44.2,0-80-35.8-80-80v-13h33.3v13c0,33.8,27.5,61.3,61.3,61.3
		c12.7,0,24.6-3.9,34.4-10.5L170.6,172.1z M57.1,189.6l2.4-4.7c5.7,2.6,11.9,4.4,18.5,5.1l-1,4.2C70,193.5,63.4,191.9,57.1,189.6z
		 M85,190.4L85,190.4L85,190.4L85,190.4z M34,176.2l5.4-6.2c4.3,4.8,9.4,9,15.1,12.3l-3.1,5C45.1,184.3,39.3,180.6,34,176.2z
		 M27.5,170.2C13.6,155.8,5,136.2,5,114.6c0-44.2,35.8-80,80-80h13v33.3H85c-33.8,0-61.3,27.5-61.3,61.3c0,12.7,3.9,24.6,10.5,34.4
		C34.3,163.5,27.5,170.2,27.5,170.2z M176.6,165.6l-6.2-5.4c4.8-4.3,9-9.4,12.3-15.1l5,3.1C184.7,154.5,181,160.3,176.6,165.6z
		 M115,165.4h-13v-33.3h13c33.8,0,61.3-27.5,61.3-61.3c0-12.7-3.9-24.6-10.5-34.4l6.8-6.7c13.9,14.4,22.5,34,22.5,55.6
		C195,129.5,159.2,165.4,115,165.4z M190,142.5l-4.7-2.4c2.6-5.7,4.4-11.9,5.1-18.5l4.2,1C193.9,129.6,192.3,136.2,190,142.5z
		 M190.8,114.6L190.8,114.6L190.8,114.6L190.8,114.6z M165,98.4h-33.3v-13c0-33.8-27.5-61.3-61.3-61.3c-12.7,0-24.6,3.9-34.4,10.5
		l-6.7-6.8C43.8,14,63.4,5.4,85,5.4c44.2,0,80,35.8,80,80V98.4z M9.2,85.4L9.2,85.4L9.2,85.4L9.2,85.4z M10,57.5l4.7,2.4
		c-2.6,5.7-4.4,11.9-5.1,18.5l-4.2-1C6.1,70.4,7.7,63.8,10,57.5z M23.4,34.4l6.2,5.4c-4.8,4.3-9,9.4-12.3,15.1l-5-3.1
		C15.3,45.5,19,39.7,23.4,34.4z M166,23.8l-5.4,6.2c-4.3-4.8-9.4-9-15.1-12.3l3.1-5C154.9,15.7,160.7,19.4,166,23.8z M142.9,10.4
		l-2.4,4.7c-5.7-2.6-11.9-4.4-18.5-5.1l1-4.2C130,6.5,136.6,8.1,142.9,10.4z M115,9.6L115,9.6L115,9.6L115,9.6z"/>
</g>
</svg>
