<svg xmlns="http://www.w3.org/2000/svg" viewBox="0 0 200 200"><path fill="#007975" d="M191 83.1c0-14.8-9-22.1-13.5-24.8-2-6.3-7.9-21-22.6-33.4C135.5 8.4 115.2 5 101.5 5c-2.1 0-4.3.1-6.4.3-13.2 1-45.5 7.3-62.8 42.7-9.4 2.5-20.2 11-22.8 27.7-2.2 14.5 3 24.3 7.7 29.9 4.7 5.7 11.2 9.7 17.3 10.9 3.6 6.4 13 20.5 30.1 30.2 0 .1-.2.6-.2.6v.1c-.6 2.6-.8 5.3-.8 8 0 21.8 18.2 39.6 40.5 39.6s40.5-17.7 40.5-39.6c0-3.1-.4-6.2-1.1-9.3l-.1-.5c22.8-13.1 31.4-33.8 33.1-38.1 3.4-1.9 14.5-9.4 14.5-24.4zM68.9 156.2c0-2.4.3-4.7.7-7 9.9 5.1 22.4 8.5 37.7 7.6 12.7-.8 23.2-4 31.8-8.6.6 2.6 1 5.2 1 8 0 19.1-15.9 34.5-35.6 34.5-19.7 0-35.6-15.5-35.6-34.5zm118-73.1c0 14-11.8 20.1-13.7 20.8-2.6 9.4-20.2 44.8-65.8 47.6-50 3-69.8-39.7-69.8-39.7-8.7.1-27-11.9-23.4-35.3 3.4-22 21.4-24 21.4-24C49.8 20.9 77.3 11.3 95.8 9.9c18.5-1.5 39.1 3.7 56.6 18.6s21.8 33.3 21.8 33.3 12.7 5.3 12.7 21.3zM160.1 112c3-3.1 10.9-15 10.8-32.5-.1-17.5-7.4-29.3-10.5-33.6l-.2-.3c-1.9-2.6-6.4-8.7-14.2-14.4-9.8-7.2-21.3-11.5-33.9-12-1.1-.1-2.2-.1-3.3-.1-13.3 0-32.8 3.8-48.3 21.8-5.4 6.3-14.4 19.9-14 39.4.4 18.7 8.7 29.1 11.4 32.4.1.2.3.4.4.5 2.1 2.7 5.7 5.1 10.4 8.1s15.6 6.6 21.9 7.7l.8.1c3.5.6 8.4 1.2 16 1.2 6 0 12.6-.6 19.7-1.8 20.2-3.3 29.6-13 32.6-16.2l.4-.3zm6.4-32.5c.1 15.9-6.9 26.6-9.5 29.3-2.6 2.7-10.9 12-30.5 15.2-7.7 1.3-13.9 1.7-19 1.7-7.8 0-12.8-1-16.3-1.7-5.8-1-15.7-4.8-19.9-7.4-4.2-2.7-7-4.5-8.7-6.6-1.7-2.2-10.4-11.4-10.8-29.8s8.2-30.7 12.8-36C69 39.1 82.8 24 109.1 24c1 0 2.1 0 3.2.1 28.3 1.3 41.7 20.4 44.8 24.6 2.9 4.1 9.3 14.9 9.4 30.8zm-17.3 24.6c4.6 0 9.4-3 12.2-7.7 6.1-10.3 4.2-22.6-1.2-28.4-2.3-2.6-5.1-4-8.3-4-4.6 0-9.4 3-12.2 7.7-6.1 10.3-4.2 22.6 1.2 28.4 2.2 2.6 5.1 4 8.3 4zm-6.5-5.7c-6-6.5-5.2-18.2-.9-25.4 3.5-5.8 11.3-9.3 16.5-3.3 6 6.5 5.2 18.2.9 25.4-3.5 5.9-11.2 9.3-16.5 3.3zm2.3-2.6c4.2 4.8 10.4 2.1 13.3-2.7 3.5-5.8 4.1-15.3-.7-20.5-2.8-3.2-6.4-3.1-9.4-1.3.9-.4 1.8-.4 2.6.5 1.5 1.6 1.3 4.4.2 6.2-.9 1.4-2.7 2.2-4 .8-1.5-1.6-1.3-4.4-.2-6.2.2-.3.5-.6.8-.9-1.3.9-2.4 2.1-3.3 3.5-3.5 5.9-4.2 15.4.7 20.6zm7.4-8.7c.7-1.1 2.2-1.8 3.2-.6 1.2 1.3 1 3.5.2 4.9-.7 1.1-2.2 1.8-3.2.6-1.2-1.2-1-3.5-.2-4.9zm-52 9.9c5.1-9.9 3.2-22.9-4.5-30.2-3-2.8-6.7-4.3-10.6-4.3-6.2 0-11.9 3.7-15 9.6-5.3 9.7-3.3 23 4.4 30.3 3.1 2.8 6.8 4.3 10.7 4.3 6.1-.1 11.9-3.8 15-9.7zm-2.3-1.2c-4.4 8.3-14.6 11.2-21.8 4.7-7-6.6-8.4-18.8-3.9-27.1C76.8 65 87 62 94.2 68.7c7 6.6 8.3 18.6 3.9 27.1zm-1.3-.8c3.6-6.9 2.5-16.6-3.2-21.9-4.6-4.3-10.9-3.6-15 .3 1.2-1 2.9-1.1 4.2.1 1.7 1.6 2 4.5 1 6.6-1.1 2-3.5 2.7-5.3 1.1-1.7-1.6-2-4.6-.9-6.6.1-.2.2-.4.4-.6-.7.8-1.4 1.7-1.9 2.8-3.7 6.8-2.5 16.6 3.1 22 5.8 5.3 14.1 2.9 17.6-3.8zm-4.9-1.6c-.8 1.6-2.8 2.2-4.2.9-1.4-1.3-1.6-3.6-.7-5.3.8-1.6 2.8-2.2 4.2-.9 1.3 1.3 1.6 3.6.7 5.3z"/></svg>