<svg xmlns="http://www.w3.org/2000/svg" version="1.0" viewBox="0 0 200 200"><path fill="#5f2652" d="M142.5 142.8c-11.4 11.3-26.8 17.5-42.9 17.3-15.9.3-31.3-5.9-42.5-17.3-11.5-11.1-17.8-26.6-17.4-42.5-.6-32.8 25.4-59.9 58.2-60.5h1.7c16-.3 31.5 6 42.9 17.3 11.8 11.3 18.2 27 17.8 43.3.3 15.9-6.2 31.4-17.8 42.4z"/><path fill="#fff" d="M131.6 115.7l-29.1-52.1c-.9-1.4-2.7-1.8-4.1-1-.4.2-.8.6-1 1l-29.1 52.1c-.7 1.4-.3 3.1 1 3.9L98.4 137c.9.5 2.1.5 3 0l29.1-17.4c1.4-.9 1.8-2.6 1.1-3.9m-22.2-20.4l-1.4-1.1s-1.3-.7-1.5-.9l-1.5-.6c-.6-.2-1.3-.4-2-.6-.5 1-1 1.2-1.9 1.9 1.2.1 2.4.4 3.5.8.6.3 1.2.6 1.8 1 .2.1 1 .8 1 .8l.6.5.8.8.5.6.7 1c.1.1.4.7.4.7.1.1 1 2.8 1.1 3.7l.4 1.4c.7 3 2.5 5.6 4.9 7.4 3.8 2 8.9 4.5 10.8 5.4l-26.2 15.6v-10.8c0-1.7 3.1-4 4.7-4.7l1-.5s1.3-.9 1.9-1.4c0 0 1.6-1.7 1.8-1.9.2-.2 1.1-1.7 1.1-1.7-.7-.9-1.1-1.6-1.6-2.6-.1.3-.5 1.1-.9 1.8-.4.8-1 1.4-1.7 2l-1.9 1.4c-.3.3-.7.5-1.1.7-1.6.8-6 3.3-6 6.7v10.7l-26.2-15.6c3.4-2.1 7-3.9 10.7-5.2 1.6-.5 5 1.6 6.9 3.2l.8.7c.6.5 1.2.9 1.9 1.3l.5.2c.4.2 3.1 1.1 3.7 1.2.5-1 1.2-1.9 2-2.6-1.1-.1-2.2-.3-3.2-.7 0 0-1.4-.6-2.4-1.1-.4-.2-.8-.5-1.1-.8l-.7-.6c-.9-.8-1.9-1.6-3-2.2-1.9-1.3-4.3-1.7-6.5-1.2-3.4 1.2-6.7 2.8-9.8 4.6l26.2-46.9v20.6c0 .7-1.2 3-4.8 4.7 0 0-2.1 1-2.4 1.3 0 0-1.4.9-1.7 1.3-.4.3-.7.7-.9 1.1l-.8 1.2s-.5 1.1-.6 1.3c-.1.2-.5 1.4-.5 1.4s-.3 2-.3 2.1v3.1c0 .7.1 1.4.1 2.1 1.1.3 2.2.7 3.3 1.2-.7-1-.9-4.5-.9-4.5v-1.4s.1-.9.1-1.2c0-.7.2-1.4.3-1.8.1-.2.2-.4.3-.7.2-.4.5-.9.5-.9.5-.5 1-1 1.5-1.4s1.1-.7 1.7-.9l.6-.2c.7-.3 6.5-3 6.5-7V68.4l26.4 47.3c-2.3-1.1-6.5-3.2-9.7-4.9-1.9-.9-2.3-3.2-2.8-4.4l-.7-2.7c0-.8-.7-3.3-.9-4.1-.9-2.3-3.4-4.3-3.4-4.3z"/><linearGradient id="a" x1="182.6174" x2="30.6569" y1="17.4048" y2="169.3654" gradientTransform="matrix(1 0 0 -1 0 200)" gradientUnits="userSpaceOnUse"><stop offset=".1594" stop-color="#003cda"/><stop offset="1" stop-color="#33dfcc"/></linearGradient><path fill="url(#a)" d="M167.2 32.8C149.4 15 125.2 5 100 5c-18.8 0-37.2 5.6-52.8 16s-27.8 25.3-35 42.6C5 81 3.2 100.1 6.8 118.5c3.7 18.4 12.7 35.4 26 48.7s30.2 22.3 48.7 26c18.4 3.7 37.5 1.8 54.9-5.4s32.2-19.4 42.6-35c10.4-15.6 16-34 16-52.8 0-25.2-10-49.4-27.8-67.2zM100 174.5c-41.1 0-74.5-33.3-74.5-74.5S58.9 25.5 100 25.5s74.5 33.3 74.5 74.5-33.4 74.5-74.5 74.5z"/></svg>