<?xml version="1.0" encoding="utf-8"?>
<!-- Generator: Adobe Illustrator 22.1.0, SVG Export Plug-In . SVG Version: 6.00 Build 0)  -->
<svg version="1.0" id="Livello_1" xmlns="http://www.w3.org/2000/svg" xmlns:xlink="http://www.w3.org/1999/xlink" x="0px" y="0px"
	 viewBox="0 0 200 200" style="enable-background:new 0 0 200 200;" xml:space="preserve">
<g>
	<path d="M98.7,193.9C47.4,194,4,151.9,5,99.1C6,46.8,50.7,3.9,104.8,6.2c49.4,2.1,93.5,44.9,90,100.7
		C191.7,157.6,147.9,194.4,98.7,193.9z M179.9,100.8c-0.1-1.5-0.2-3-0.3-4.5C177,43.9,122.3,7.4,73.1,25.9
		C42,37.5,24.2,60.5,20.7,93.6c-2.8,26.7,6.9,49.1,27.3,66.3c18,15.3,39.3,20.9,62.7,18.2C149.9,173.7,179.9,140.2,179.9,100.8z"/>
	<path d="M46.7,150.9c20.3,16.5,50,14.6,68.7,0.4c19-14.4,26.1-39.8,17.6-62.1C124.7,66.9,103,52,77.9,53c-22,0.9-44.9,16.3-51,42.5
		c0.1-5.1,0.1-10.1,1.8-15C36,59.1,49.5,43.2,70.3,34.3c23-9.9,45.7-8.5,67.3,4.6c17,10.3,28.1,25.1,33.4,44.4
		c9.3,33.7-7.3,68.5-38.6,83.4c-25.6,12.1-50.6,10.2-74.7-4.6c-2-1.2-3.8-2.8-5.5-4.4"/>
	<path d="M92.7,78.1c-2.5-1.4-5.8-3-8-1.7c-1.4,0.8-1.7,2.1-1.9,3.6c-0.3,3.6-0.8,7.2-1.2,10.8c-0.2,1.6-0.2,3-0.6,4.9
		c-0.5,2.7-1.3,4.4,0.8,6.2c-4.8,5.3-6.9,5.8-13.1,3.7c-1.2-0.4-2.4-1-3.6-1.1c-1.8-0.1-3.7-0.3-5.3,0.2c-1.9,0.7-3.9,1.8-5.2,3.3
		c-4.3,4.9-8.3,10.1-12.2,15.3c-0.7,1-1.1,2.8-0.7,3.9c0.3,0.7,2.2,1.1,3.4,1.1c2.2,0,4.4-0.2,6.5-0.5c2.1-0.3,3.3,0.4,4.2,2.2
		c1.7,3.4,3.3,6.7,5.1,10.1c1,1.8,0.8,3.2-0.4,4.8c-1.8,2.2-3.4,4.5-4.9,7c-1.5,2.6-0.4,4.6,2.5,4.2c6.9-1,13.7-2.1,20.5-3.6
		c1.9-0.4,3.5-2.3,5-3.8c2.9-3.1,3.3-7.2,4.2-11.1c0.3-1.1,1.1-2.6,2.1-3c8.7-3.7,16.5-8.8,23.7-14.9c7.1-6,12.4-13.3,14.6-22.6
		c0.6-2.7-0.1-4.2-2.6-5.1c-2.2-0.8-4.5-1.5-6.8-1.5c-4.1-0.1-8.1,0.2-12,0.4c1.4-2.2,0.7-4.9-1.5-5.8 M105.6,114
		c-3.9,0-7.1-3.2-7.1-7.1c0-3.9,3.2-7.1,7.1-7.1c3.9,0,7.1,3.2,7.1,7.1C112.7,110.9,109.5,114,105.6,114z"/>
</g>
</svg>
