<?xml version="1.0" encoding="utf-8"?>
<!-- Generator: Adobe Illustrator 22.1.0, SVG Export Plug-In . SVG Version: 6.00 Build 0)  -->
<svg version="1.1" id="Livello_1" xmlns="http://www.w3.org/2000/svg" xmlns:xlink="http://www.w3.org/1999/xlink" x="0px" y="0px"
	 viewBox="0 0 980 1023" style="enable-background:new 0 0 980 1023;" xml:space="preserve">
<style type="text/css">
	.st0{fill:#007975;}
	.st1{fill:none;stroke:#007975;}
</style>
<g id="Artboard-1">
	<path id="Fill-1" class="st0" d="M978.1,420.9c0-79.4-48.3-118.6-72.2-133.1c-10.6-33.8-42.1-112.4-121.2-179.2
		C680.6,20.7,571.6,2.3,498.4,2.3c-11.5,0-23.1,0.5-34.5,1.4c-70.6,5.7-244,39.5-336.7,229.3C76.6,246.5,19.1,292.1,5.1,381.5
		C-6.9,459,21,511.5,46.6,541.9c25.4,30.3,59.9,51.8,92.8,58.2c19.2,34.1,69.5,109.7,161.4,161.6c-0.2,0.7-0.9,3.3-0.9,3.3l-0.1,0.6
		c-3,14.1-4.5,28.6-4.5,43c0,116.9,97.5,212,217.3,212c119.8,0,217.3-95.1,217.3-212c0-16.6-2-33.2-6-49.6l-0.8-2.9
		c122.1-70.4,168.5-181,177.2-204.2C918.5,541.6,978.1,501.3,978.1,420.9z M323.5,812.5c0-12.8,1.4-25.3,3.9-37.3
		c53.3,27.4,120.2,45.5,202.3,40.5c67.8-4.1,124.1-21.7,170.3-46c3.4,13.7,5.2,28,5.2,42.8c0,102.2-85.4,185-190.8,185
		C408.9,997.5,323.5,914.7,323.5,812.5z M955.9,420.8c0,74.9-63.5,107.8-73.4,111.5c-13.8,50.3-108.1,240.2-352.8,255
		c-267.8,16.2-374.1-212.7-374.1-212.7c-46.5,0.3-144.9-63.9-125.5-189.1c18.3-117.8,114.7-128.8,114.7-128.8
		C221.1,87.3,368.5,36.3,467.5,28.3c98.9-8,209.3,20,303.4,99.5c94.1,79.5,116.6,178.6,116.6,178.6S955.9,334.9,955.9,420.8z
		 M812.3,576c16.3-16.7,58.4-80.4,57.9-174.1c-0.5-93.9-39.6-157.1-56.4-180l-1.2-1.6c-10.2-14-34.1-46.6-76-77.4
		c-52.4-38.6-114-61.5-181.6-64.5c-6-0.3-12-0.4-17.9-0.4c-71.3,0-175.8,20.2-258.6,116.6c-28.8,33.5-77.2,106.5-74.8,211
		c2.3,100.3,46.4,156.1,60.9,173.7c0.8,1,1.5,1.9,2.1,2.6c11.5,14.7,30.6,27.3,55.9,43.2C348,641,406,660.5,439.8,666.5l4.4,0.8
		c18.6,3.4,45,6.6,85.8,6.6c32,0,67.6-3.2,105.7-9.5c108.4-17.9,158.4-69.6,174.8-86.6L812.3,576z M846.8,401.4
		c0.5,85-36.9,142.5-51,156.8c-14,14.4-58.5,64.2-163.5,81.6c-41.3,6.8-74.7,9.2-101.8,9.2c-41.8,0-68.8-5.6-87.5-9
		c-30.9-5.6-84.2-25.5-106.9-39.8c-22.7-14.3-37.5-23.9-46.7-35.6c-9.1-11.6-55.6-61.1-57.8-159.8c-2.2-98.7,43.8-164.5,68.4-193.1
		c23.6-27.5,97.5-108.2,238.3-108.2c5.5,0,11.2,0.1,16.9,0.4c151.7,6.8,223.4,109.5,239.9,131.9
		C811.6,258.3,846.3,316.4,846.8,401.4z M753.8,533.5c24.6,0,50.2-16.1,65.2-41c32.9-55.2,22.6-120.9-6.2-152.2
		c-12.1-14.1-27.5-21.5-44.5-21.5c-24.5,0-50.2,16.1-65.5,41.1c-32.7,55.3-22.3,120.9,6.4,152.2
		C721.3,526.1,736.8,533.5,753.8,533.5z M719.2,503.1c-32-34.8-27.7-97.6-4.9-136c19-31.1,60.4-50,88.3-17.6
		c32,34.9,27.8,97.6,4.8,136C788.5,516.8,747.2,535,719.2,503.1z M731.2,489.1c22.6,25.8,56,11.1,71.3-14.3
		c18.6-31.1,22-81.8-3.9-110c-14.9-17.3-34.5-16.4-50.6-6.7c4.6-2.3,9.9-2.1,14,2.6c7.8,8.5,6.7,23.7,1.2,33
		c-4.6,7.6-14.6,12-21.4,4.3c-7.8-8.4-6.7-23.7-1.2-33c1.1-1.8,2.5-3.4,4.1-4.7c-6.9,4.9-13,11.3-17.5,18.7
		C708.8,410.2,705.3,461,731.2,489.1z M771.1,442.5c3.7-6,11.7-9.7,17.1-3.4c6.2,6.8,5.4,18.9,0.9,26.4c-3.7,6.1-11.7,9.6-17.1,3.4
		C765.8,462.2,766.7,450,771.1,442.5z M492.2,495.3c27.6-53.3,17.2-122.9-24.2-162c-16.3-15-35.9-23-56.8-23
		c-33.1,0-63.9,19.8-80.5,51.5c-28.2,52.1-17.9,123.3,23.7,162.4c16.4,14.9,36.2,22.8,57.2,22.8
		C444.6,546.9,475.5,527.1,492.2,495.3z M480.2,488.9c-23.4,44.7-78.2,60-116.9,25c-37.5-35.3-45-100.7-20.8-145.5
		c23.2-44.4,78-60.5,116.4-24.9C496.8,379.2,503.8,443.2,480.2,488.9z M473.2,484.6c19.1-36.9,13.4-88.7-17.2-117.6
		c-24.9-23-58.3-19.2-80.3,1.8c6.5-5.2,15.8-5.8,22.7,0.7c9.2,8.7,10.9,24.2,5.2,35.3c-5.7,10.8-19,14.6-28.4,6.1
		c-9.1-8.6-10.9-24.4-5-35.3c0.6-1.1,1.3-2.2,2.1-3.1c-4,4.4-7.5,9.3-10.4,14.8c-19.6,36.2-13.5,89.1,16.8,117.7
		C410,533.2,454.3,520.7,473.2,484.6z M446.9,475.9c-4.5,8.7-15.2,11.7-22.7,4.8c-7.3-6.8-8.7-19.5-4-28.2
		c4.5-8.6,15.1-11.7,22.6-4.8C450.1,454.6,451.5,467.1,446.9,475.9z"/>
	<path id="Stroke-3" class="st1" d="M978.1,420.9c0-79.4-48.3-118.6-72.2-133.1c-10.6-33.8-42.1-112.4-121.2-179.2
		C680.6,20.7,571.6,2.3,498.4,2.3c-11.5,0-23.1,0.5-34.5,1.4c-70.6,5.7-244,39.5-336.7,229.3C76.6,246.5,19.1,292.1,5.1,381.5
		C-6.9,459,21,511.5,46.6,541.9c25.4,30.3,59.9,51.8,92.8,58.2c19.2,34.1,69.5,109.7,161.4,161.6c-0.2,0.7-0.9,3.3-0.9,3.3l-0.1,0.6
		c-3,14.1-4.5,28.6-4.5,43c0,116.9,97.5,212,217.3,212c119.8,0,217.3-95.1,217.3-212c0-16.6-2-33.2-6-49.6l-0.8-2.9
		c122.1-70.4,168.5-181,177.2-204.2C918.5,541.6,978.1,501.3,978.1,420.9z M323.5,812.5c0-12.8,1.4-25.3,3.9-37.3
		c53.3,27.4,120.2,45.5,202.3,40.5c67.8-4.1,124.1-21.7,170.3-46c3.4,13.7,5.2,28,5.2,42.8c0,102.2-85.4,185-190.8,185
		C408.9,997.5,323.5,914.7,323.5,812.5z M955.9,420.8c0,74.9-63.5,107.8-73.4,111.5c-13.8,50.3-108.1,240.2-352.8,255
		c-267.8,16.2-374.1-212.7-374.1-212.7c-46.5,0.3-144.9-63.9-125.5-189.1c18.3-117.8,114.7-128.8,114.7-128.8
		C221.1,87.3,368.5,36.3,467.5,28.3c98.9-8,209.3,20,303.4,99.5c94.1,79.5,116.6,178.6,116.6,178.6S955.9,334.9,955.9,420.8z
		 M812.3,576c16.3-16.7,58.4-80.4,57.9-174.1c-0.5-93.9-39.6-157.1-56.4-180l-1.2-1.6c-10.2-14-34.1-46.6-76-77.4
		c-52.4-38.6-114-61.5-181.6-64.5c-6-0.3-12-0.4-17.9-0.4c-71.3,0-175.8,20.2-258.6,116.6c-28.8,33.5-77.2,106.5-74.8,211
		c2.3,100.3,46.4,156.1,60.9,173.7c0.8,1,1.5,1.9,2.1,2.6c11.5,14.7,30.6,27.3,55.9,43.2C348,641,406,660.5,439.8,666.5l4.4,0.8
		c18.6,3.4,45,6.6,85.8,6.6c32,0,67.6-3.2,105.7-9.5c108.4-17.9,158.4-69.6,174.8-86.6L812.3,576z M846.8,401.4
		c0.5,85-36.9,142.5-51,156.8c-14,14.4-58.5,64.2-163.5,81.6c-41.3,6.8-74.7,9.2-101.8,9.2c-41.8,0-68.8-5.6-87.5-9
		c-30.9-5.6-84.2-25.5-106.9-39.8c-22.7-14.3-37.5-23.9-46.7-35.6c-9.1-11.6-55.6-61.1-57.8-159.8c-2.2-98.7,43.8-164.5,68.4-193.1
		c23.6-27.5,97.5-108.2,238.3-108.2c5.5,0,11.2,0.1,16.9,0.4c151.7,6.8,223.4,109.5,239.9,131.9
		C811.6,258.3,846.3,316.4,846.8,401.4z M753.8,533.5c24.6,0,50.2-16.1,65.2-41c32.9-55.2,22.6-120.9-6.2-152.2
		c-12.1-14.1-27.5-21.5-44.5-21.5c-24.5,0-50.2,16.1-65.5,41.1c-32.7,55.3-22.3,120.9,6.4,152.2
		C721.3,526.1,736.8,533.5,753.8,533.5z M719.2,503.1c-32-34.8-27.7-97.6-4.9-136c19-31.1,60.4-50,88.3-17.6
		c32,34.9,27.8,97.6,4.8,136C788.5,516.8,747.2,535,719.2,503.1z M731.2,489.1c22.6,25.8,56,11.1,71.3-14.3
		c18.6-31.1,22-81.8-3.9-110c-14.9-17.3-34.5-16.4-50.6-6.7c4.6-2.3,9.9-2.1,14,2.6c7.8,8.5,6.7,23.7,1.2,33
		c-4.6,7.6-14.6,12-21.4,4.3c-7.8-8.4-6.7-23.7-1.2-33c1.1-1.8,2.5-3.4,4.1-4.7c-6.9,4.9-13,11.3-17.5,18.7
		C708.8,410.2,705.3,461,731.2,489.1z M771.1,442.5c3.7-6,11.7-9.7,17.1-3.4c6.2,6.8,5.4,18.9,0.9,26.4c-3.7,6.1-11.7,9.6-17.1,3.4
		C765.8,462.2,766.7,450,771.1,442.5z M492.2,495.3c27.6-53.3,17.2-122.9-24.2-162c-16.3-15-35.9-23-56.8-23
		c-33.1,0-63.9,19.8-80.5,51.5c-28.2,52.1-17.9,123.3,23.7,162.4c16.4,14.9,36.2,22.8,57.2,22.8
		C444.6,546.9,475.5,527.1,492.2,495.3z M480.2,488.9c-23.4,44.7-78.2,60-116.9,25c-37.5-35.3-45-100.7-20.8-145.5
		c23.2-44.4,78-60.5,116.4-24.9C496.8,379.2,503.8,443.2,480.2,488.9z M473.2,484.6c19.1-36.9,13.4-88.7-17.2-117.6
		c-24.9-23-58.3-19.2-80.3,1.8c6.5-5.2,15.8-5.8,22.7,0.7c9.2,8.7,10.9,24.2,5.2,35.3c-5.7,10.8-19,14.6-28.4,6.1
		c-9.1-8.6-10.9-24.4-5-35.3c0.6-1.1,1.3-2.2,2.1-3.1c-4,4.4-7.5,9.3-10.4,14.8c-19.6,36.2-13.5,89.1,16.8,117.7
		C410,533.2,454.3,520.7,473.2,484.6z M446.9,475.9c-4.5,8.7-15.2,11.7-22.7,4.8c-7.3-6.8-8.7-19.5-4-28.2
		c4.5-8.6,15.1-11.7,22.6-4.8C450.1,454.6,451.5,467.1,446.9,475.9z"/>
</g>
</svg>
