<svg xmlns="http://www.w3.org/2000/svg" id="Livello_1" x="0" y="0" version="1.1" viewBox="0 0 200 200" xml:space="preserve"><style>.st0{fill:#552a86}</style><circle cx="100" cy="54.2" r="15.8" class="st0"/><path d="M173.7 43.9l-62-35.8c-3.6-2-7.6-3.1-11.7-3.1s-8.1 1.1-11.7 3.1l-62 35.8c-7.2 4.2-11.7 11.9-11.7 20.3v71.6c0 8.3 4.5 16.1 11.7 20.3l62 35.8c3.6 2 7.6 3.1 11.7 3.1s8.1-1.1 11.7-3.1l62-35.8c7.2-4.2 11.7-11.9 11.7-20.3V64.2c0-8.3-4.5-16.1-11.7-20.3zM29.8 50l62-35.8c2.5-1.5 5.4-2.2 8.2-2.2 2.8 0 5.6.7 8.2 2.2l62 35.8c2.8 1.6 5 4.1 6.4 6.9L58.2 118.7 22 61.1c.8-4.6 3.6-8.7 7.8-11.1zm69 133.1L62 124.6l109.7-57.2-72.9 115.7zm-69-33.1c-5.1-2.9-8.2-8.3-8.2-14.2v-62L92.3 186c-.2-.1-.3-.2-.5-.3l-62-35.7zm140.4 0l-62 35.8c-1.2.7-2.4 1.2-3.7 1.6L178.4 70v65.8c0 5.8-3.2 11.2-8.2 14.2z" class="st0"/></svg>