<svg xmlns="http://www.w3.org/2000/svg" id="Livello_1" x="0" y="0" version="1.1" viewBox="0 0 200 200" xml:space="preserve"><style>.st3{fill:indigo}.st4{fill:#1e90ff}.st5{fill:#8b008b}</style><linearGradient id="SVGID_1_" x1="37.9724" x2="54.0605" y1="115.2917" y2="142.8315" gradientTransform="translate(0 2.26)" gradientUnits="userSpaceOnUse"><stop offset="0" stop-color="#1e90ff"/><stop offset="1" stop-color="indigo"/></linearGradient><path fill="url(#SVGID_1_)" d="M41.1 133.7c-6.4-10.8-16.6-17.3-25.6-17.2 0 0-7.7-29.9 1.2-35.2s31.3 16 31.3 16c-4.5 7.8-3.8 19.9 2.6 30.8s15.4 17.2 24.3 17.1c0 0 8.9 30 0 35.3s-31.3-16-31.3-16c4.6-7.8 3.9-19.9-2.5-30.8z"/><linearGradient id="SVGID_2_" x1="2312.449" x2="2312.4751" y1="-393.6316" y2="-366.6841" gradientTransform="matrix(-.8 .47 .56 .96 2180.7207 -592.4439)" gradientUnits="userSpaceOnUse"><stop offset="0" stop-color="#8b008b"/><stop offset="1" stop-color="indigo"/></linearGradient><path fill="url(#SVGID_2_)" d="M113.9 133.7c-6.4-10.9-16.6-17.3-25.6-17.2 0 0-7.7-29.9 1.3-35.2s31.3 16 31.3 16c-4.5 7.8-3.8 19.9 2.6 30.8 6.4 10.9 16.6 17.3 25.6 17.2 0 0 7.7 29.9-1.2 35.2-9 5.3-31.4-16-31.4-16 4.6-7.8 3.9-19.9-2.6-30.8z"/><linearGradient id="SVGID_3_" x1="-93.1961" x2="-95.773" y1="787.8032" y2="814.4337" gradientTransform="matrix(.8 .47 -.56 .96 678.7592 -592.4439)" gradientUnits="userSpaceOnUse"><stop offset="0" stop-color="#8b008b"/><stop offset="1" stop-color="indigo"/></linearGradient><path fill="url(#SVGID_3_)" d="M159.5 134.8c6.4-10.9 16.6-17.3 25.6-17.2 0 0 7.7-29.9-1.2-35.2-8.9-5.3-31.3 16-31.3 16 4.5 7.8 3.8 19.9-2.6 30.8-6.4 10.9-16.6 17.3-25.6 17.2 0 0-7.8 29.8 1.1 35.1s31.3-15.9 31.3-15.9c-4.4-7.8-3.7-19.9 2.7-30.8z"/><path d="M64.3 141.9c-12 0-21.7 9.7-21.7 21.6 0 12 9.7 21.7 21.6 21.7 12 0 21.7-9.7 21.7-21.6 0-12-9.7-21.7-21.6-21.7z" class="st3"/><path d="M136.8 14.8c-12 0-21.7 9.7-21.7 21.6 0 12 9.7 21.7 21.6 21.7s21.7-9.7 21.7-21.6c0-12-9.7-21.6-21.6-21.7z" class="st4"/><path d="M136.8 141.9c-12 0-21.7 9.7-21.7 21.6 0 12 9.7 21.7 21.6 21.7 12 0 21.7-9.7 21.7-21.6 0-12-9.7-21.7-21.6-21.7z" class="st3"/><path d="M100 78.3c-12 0-21.6 9.7-21.6 21.6s9.7 21.6 21.6 21.6c12 0 21.6-9.7 21.6-21.6 0-11.9-9.6-21.5-21.6-21.6zM173.4 78.3c-12 0-21.6 9.7-21.6 21.6s9.7 21.6 21.6 21.6c12 0 21.6-9.7 21.6-21.6 0-11.9-9.7-21.5-21.6-21.6z" class="st5"/><path d="M64.3 14.8c-12 0-21.7 9.7-21.7 21.6 0 4.6 1.4 8.8 3.8 12.3-.3 5.5-2.1 11.5-5.4 17.1-3.2 5.4-7.3 9.7-11.8 12.7-.8-.1-1.7-.2-2.5-.2C14.7 78.3 5 88 5 100s9.7 21.7 21.6 21.7c12 0 21.7-9.7 21.7-21.6 0-4.2-1.2-8.1-3.2-11.5.3-5.6 2.1-11.7 5.4-17.3 3.4-5.8 7.9-10.3 12.7-13.2h1c12 0 21.7-9.7 21.7-21.6 0-12-9.7-21.6-21.6-21.7z" class="st4"/></svg>