<?xml version="1.0" encoding="utf-8"?>
<!-- Generator: Adobe Illustrator 22.1.0, SVG Export Plug-In . SVG Version: 6.00 Build 0)  -->
<svg version="1.0" id="Livello_1" xmlns="http://www.w3.org/2000/svg" xmlns:xlink="http://www.w3.org/1999/xlink" x="0px" y="0px"
	 viewBox="0 0 200 200" style="enable-background:new 0 0 200 200;" xml:space="preserve">
<style type="text/css">
	.st0{fill:#1E90FF;}
	.st1{fill:url(#SVGID_1_);}
	.st2{fill:url(#SVGID_2_);}
	.st3{fill:url(#SVGID_3_);}
	.st4{fill:#4B0082;}
	.st5{fill:#8B008B;}
</style>
<path class="st0" d="M50.5,71.3c6.4-10.9,16.6-17.3,25.6-17.2l3.6-6.2c6.3-10.7,4.1-23.7-4.8-29s-21.4-0.8-27.7,9.8l-3.6,6.2
	c4.5,7.8,3.8,19.8-2.6,30.8S24.4,83,15.4,82.9L11.8,89c-6.3,10.7-4.1,23.7,4.8,29c8.9,5.3,21.4,0.8,27.7-9.8l3.6-6.2
	C43.4,94.2,44.1,82.1,50.5,71.3z"/>
<linearGradient id="SVGID_1_" gradientUnits="userSpaceOnUse" x1="37.9894" y1="82.6888" x2="54.0853" y2="55.1462" gradientTransform="matrix(1 0 0 -1 0 200.23)">
	<stop  offset="0.21" style="stop-color:#1E90FF"/>
	<stop  offset="1" style="stop-color:#4B0082"/>
</linearGradient>
<path class="st1" d="M41.1,133.7c-6.4-10.9-16.6-17.3-25.6-17.2l-3.6-6.2c-6.3-10.7-4.1-23.7,4.8-29c8.9-5.3,21.4-0.9,27.7,9.8
	l3.6,6.2c-4.5,7.8-3.8,19.8,2.6,30.8s16.6,17.3,25.6,17.2l3.6,6.2c6.3,10.7,4.1,23.7-4.8,29s-21.4,0.9-27.7-9.8l-3.6-6.2
	C48.2,156.7,47.5,144.6,41.1,133.7z"/>
<linearGradient id="SVGID_2_" gradientUnits="userSpaceOnUse" x1="1027.444" y1="336.6862" x2="1027.4661" y2="309.7385" gradientTransform="matrix(-0.8 0.47 -0.56 -0.96 1121.3663 -42.1659)">
	<stop  offset="0" style="stop-color:#8B008B"/>
	<stop  offset="1" style="stop-color:#4B0082"/>
</linearGradient>
<path class="st2" d="M114,133.7c-6.4-10.9-16.6-17.3-25.6-17.2l-3.6-6.2c-6.3-10.7-4.1-23.7,4.8-29c8.9-5.3,21.4-0.9,27.7,9.8
	l3.6,6.2c-4.5,7.8-3.8,19.8,2.6,30.8s16.6,17.3,25.6,17.2l3.6,6.2c6.3,10.7,4.1,23.7-4.8,29s-21.4,0.9-27.7-9.8l-3.6-6.2
	C121.1,156.7,120.4,144.6,114,133.7z"/>
<linearGradient id="SVGID_3_" gradientUnits="userSpaceOnUse" x1="125.929" y1="-107.2025" x2="123.351" y2="-133.8748" gradientTransform="matrix(0.8 0.47 0.56 -0.96 122.4836 -42.1659)">
	<stop  offset="0" style="stop-color:#8B008B"/>
	<stop  offset="1" style="stop-color:#4B0082"/>
</linearGradient>
<path class="st3" d="M159.5,134.8c6.4-10.9,16.6-17.3,25.6-17.2l3.6-6.2c6.3-10.7,4.1-23.7-4.8-29c-8.9-5.3-21.4-0.8-27.7,9.8
	l-3.6,6.2c4.5,7.8,3.8,19.8-2.6,30.8s-16.6,17.3-25.6,17.2l-3.6,6.2c-6.3,10.7-4.1,23.7,4.8,29s21.4,0.8,27.7-9.8l3.6-6.2
	C152.4,157.8,153.1,145.7,159.5,134.8z"/>
<path class="st0" d="M64.2,14.8c-12,0-21.6,9.7-21.6,21.6c0,12,9.7,21.6,21.6,21.6c12,0,21.6-9.7,21.6-21.6c0,0,0,0,0,0
	C85.9,24.5,76.2,14.8,64.2,14.8z"/>
<path class="st4" d="M64.2,141.9c-12,0-21.6,9.7-21.6,21.7c0,12,9.7,21.6,21.7,21.6c11.9,0,21.6-9.7,21.6-21.6
	C85.9,151.6,76.2,141.9,64.2,141.9z"/>
<path class="st0" d="M136.8,14.8c-12,0-21.6,9.7-21.6,21.6s9.7,21.6,21.6,21.6c12,0,21.6-9.7,21.6-21.6c0,0,0,0,0,0
	C158.4,24.5,148.7,14.8,136.8,14.8z"/>
<path class="st4" d="M136.8,141.9c-12,0-21.6,9.7-21.6,21.6c0,12,9.7,21.6,21.6,21.6c11.9,0,21.6-9.7,21.6-21.6
	C158.4,151.6,148.7,141.9,136.8,141.9z"/>
<path class="st5" d="M100,78.4c-12,0-21.6,9.7-21.6,21.6s9.7,21.6,21.6,21.6c12,0,21.6-9.7,21.6-21.6v0C121.6,88,112,78.4,100,78.4z
	"/>
<path class="st5" d="M173.4,78.4c-12,0-21.7,9.7-21.7,21.6s9.7,21.7,21.6,21.7S195,112,195,100c0,0,0,0,0,0
	C195,88.1,185.3,78.4,173.4,78.4z"/>
<path class="st0" d="M26.6,78.4C14.7,78.4,5,88,5,100s9.7,21.6,21.6,21.6S48.3,112,48.3,100l0,0C48.3,88,38.6,78.4,26.6,78.4z"/>
</svg>
