<?xml version="1.0" encoding="utf-8"?>
<!-- Generator: Adobe Illustrator 22.1.0, SVG Export Plug-In . SVG Version: 6.00 Build 0)  -->
<svg version="1.0" id="Layer_1" xmlns="http://www.w3.org/2000/svg" xmlns:xlink="http://www.w3.org/1999/xlink" x="0px" y="0px"
	 viewBox="0 0 200 200" style="enable-background:new 0 0 200 200;" xml:space="preserve">
<style type="text/css">
	.st0{fill:#18B5E0;}
	.st1{fill:none;stroke:#18B5E0;stroke-width:3;stroke-miterlimit:10;}
	.st2{fill:none;stroke:#00004A;stroke-width:3;stroke-miterlimit:10;}
</style>
<path class="st0" d="M138.7,91.8c-0.8-0.9-1.8-1.8-2.7-2.7c-9-9-18.2-18.2-27.2-27.2c-5.1-5.1-12.3-5.1-17.4,0.1
	c-9.8,9.8-19.6,19.6-29.4,29.4c-5.1,5.1-5.1,12.3-0.1,17.3c9.9,9.9,19.8,19.8,29.7,29.7c4.8,4.8,12,4.9,16.9,0.2
	c2.6-2.5,5.1-5.1,7.7-7.6c0.4-0.3,0.5-0.7,0.5-1.2c0-1.6,0.1-3.1,0.1-4.6c0-0.5,0.1-0.9-0.5-1.1c-0.5-0.2-0.7,0.3-0.9,0.5
	c-3.3,3.3-6.6,6.6-9.8,9.8c-3.6,3.6-7.5,3.6-11.1,0.1c-9.6-9.6-19.3-19.3-29-29c-3.4-3.4-3.4-7.5,0-10.9c4.4-4.4,8.8-8.8,13.3-13.3
	C84,76,89.3,70.7,94.6,65.4c1.6-1.6,3.3-2.5,5.6-2.5c2.3,0.1,4,1.2,5.5,2.7c4.6,4.7,9.3,9.4,13.9,14.1c4.8,4.8,9.6,9.6,14.4,14.3
	l0,0c0.1,0.2,0.3,0.3,0.4,0.5c3.4,3.4,3.4,7.4,0.1,10.9c-3.8,3.8-7.5,7.5-11.3,11.3c-0.3,0.3-0.8,0.8-1,0.8
	c-0.3,0.1-0.4,0.2-0.5,0.3c-0.1,0-0.3-0.1-0.4-0.1l-0.1-0.1c-1.8-1.4-3.1-3.2-4.8-4.8l-5.3-4.8l0,0l-2.3-2.3
	c-0.8-0.8-1.6-1.6-2.4-2.3c-0.7-0.6-0.8-1.2-0.6-2.1c0.8-2.6-0.5-5.4-2.8-6.8c-2.3-1.4-5.3-1-7.3,0.8c-2,1.9-2.5,4.8-1.2,7.2
	c1.2,2.3,3.9,3.8,6.4,3.2c1-0.2,1.5,0.1,2.1,0.7c5.1,5.1,10.3,10.1,15.7,14.9c0.7,0.6,0.8,1.2,0.8,2c-0.1,4.8-0.1,9.6-0.1,14.4
	c0,1.4,0.8,2.4,1.9,2.5c1,0.1,2-0.6,2.3-1.9c0.3-0.5,0.2-1,0.2-1.5c0-4.8,0.1-9.6,0.1-14.4l0,0c4.6-4.4,9-8.8,13.5-13.4
	c0.1-0.1,0.3-0.3,0.5-0.5l0,0C143,104.3,143.2,96.7,138.7,91.8z"/>
<circle class="st1" cx="100" cy="100" r="95"/>
<circle class="st2" cx="100" cy="100" r="76.6"/>
</svg>
