<svg xmlns="http://www.w3.org/2000/svg" id="Layer_1" viewBox="0 0 200 200"><style>.st1,.st2{fill:none;stroke:#c4c4c4;stroke-width:2;stroke-linecap:round;stroke-linejoin:round;stroke-miterlimit:10}.st2{stroke:#dadada;stroke-width:1.5}</style><linearGradient id="SVGID_1_" x1="99.9998" x2="99.9998" y1="8.4007" y2="191.5992" gradientUnits="userSpaceOnUse"><stop offset="0" stop-color="#1dc7a2"/><stop offset="1" stop-color="#0e5f99"/></linearGradient><path fill="url(#SVGID_1_)" d="M157.8 107.4c0-.9-.4-1.8-1-2.5l-53.5-94.6c-.7-1.2-1.9-1.9-3.3-1.9s-2.6.7-3.3 1.9l-54 95.4c-.1.1-.2.3-.2.5v.1c0 .1-.1.3-.1.4v.2c0 .1 0 .2-.1.3v1.2c0 .1 0 .2.1.3 0 .1 0 .1.1.2 0 .1.1.2.1.3 0 .1.1.1.1.2s.1.2.2.3c0 0 0 .1.1.1L97 190c.7 1.1 1.9 1.7 3.2 1.7 1.3 0 2.5-.6 3.2-1.7l54-80.2s0-.1.1-.1c.1-.1.1-.2.2-.3 0-.1.1-.1.1-.2s.1-.2.1-.3c0-.1 0-.1.1-.2 0-.1.1-.2.1-.3v-.2-.3-.2V107.4zM100 19.9l42.7 75.5-39.8-26.2c-1.3-.8-2.9-.8-4.2 0L56.9 96.1 100 19.9zm47.1 87.6l-48 30.7L53 107.7 100.8 77l46.3 30.5zM100 181l-40.2-59.7 37.3 24.6c.6.4 1.4.6 2.1.6.7 0 1.4-.2 2.1-.6l39.4-25.2L100 181z"/><path d="M80.7 195l-58.4-86.7L80.7 5" class="st1"/><path d="M54.7 180.4L6 107l48.7-87.4" class="st2"/><path d="M119.3 5l58.4 103.3-58.4 86.7" class="st1"/><path d="M145.3 19.6L194 107l-48.7 73.4" class="st2"/></svg>