<svg xmlns="http://www.w3.org/2000/svg" id="Livello_1" viewBox="0 0 200 200"><style>.st0{fill:#fcee21}</style><path d="M145.4 93.5c-4 0-8 .5-11.7 1.5 9-8.7 14.7-21 14.7-34.7 0-26.6-21.6-48.2-48.2-48.2S52.1 33.6 52.1 60.2c0 12 4.4 23 11.7 31.5-2.4-.3-4.8-.5-7.3-.5-26.6 0-48.2 21.6-48.2 48.2s21.6 48.2 48.2 48.2c19.6 0 36.4-11.7 44-28.5 6.9 18 24.4 30.8 44.9 30.8 26.6 0 48.2-21.6 48.2-48.2s-21.5-48.2-48.2-48.2zM101.5 122c-2-5.2-4.9-10-8.5-14.1 2.4.3 15.3 0 18.9-.9-4.3 4.3-7.9 9.3-10.4 15z"/><path d="M153.3 60.9c0-29.2-23.8-53.1-53.1-53.1S47.4 31.5 47.4 60.9c0 10.4 3.1 20.2 8.2 28.4C27.7 89.4 5 112.2 5 140.2c0 28.1 22.8 51 51 51 15.9 0 36.2-9.4 43.6-24.7 6.6 11.6 22.2 25.8 44.4 25.8 10.8 0 20.9-3.4 29.1-9.2 0 0 11-7.9 16.3-18.8l2.6 1.6c-2.4 4.8-5.7 9.2-9.4 12.9-.2-.1-.4-.1-.6-.1-.9 0-1.7.8-1.7 1.7s.8 1.7 1.7 1.7 1.7-.8 1.7-1.7c0-.2 0-.4-.1-.7 5.7-5.7 10.3-14.4 10.3-14.4l-3.8-2.2c3.2-6.5 4.8-13.9 4.8-21.7 0-2-.6-7.5-.6-7.5-3.4-24.4-24.3-43.4-49.8-43.8 1.3-1.8 8.8-12.7 8.8-29.2zm-49.2-44.6c6.2.5 12.1 2.3 17.3 5l-2.1 3.7c-4.6-2.4-9.7-4-15.1-4.4v-4.3zm-4.4-.1v4.2c-17.7.3-32.6 12-37.8 28l-3.7-2.1c6-17.4 22.2-29.8 41.5-30.1zM57 50.6l3.8 2.2c-.5 2.6-.8 5.3-.8 8.1 0 13.5 6.6 25.6 16.8 32.8-3.2-1.4-6.4-2.5-9.9-3.3-6.9-7.9-11.2-18.3-11.2-29.5 0-3.6.4-7.1 1.3-10.3zm-1 126.6c-12.5 0-23.7-6.3-30.4-15.9l-1.9 1.2c6.7 9.8 19.4 18.5 36.5 16.5 1.1-.1 2.1.6 2.3 1.7.3 1.1-.5 2.2-1.7 2.2-6.2.6-12.1.1-17.7-1.5-10.1-3.1-18.7-9.7-24.4-19.3-9.2-15.4-8-33.7 2.6-47 .6-.8 2-.9 2.9-.2.8.7.9 2 .3 2.8-9.6 12.1-10.5 28.6-2.3 42.5.1.2.3.5.5.8l1.9-1.1c-3.7-5.8-5.8-12.5-5.8-19.9 0-20.4 16.6-37 37-37s37 16.6 37 37-16.5 37.2-36.8 37.2zm38.2-49.8c-1.1.3-2.3-.3-2.7-1.5-3.9-11.6-16.6-23.1-34.1-24.1-1.3 0-2.2-1.1-2.2-2.3 0-1.4 1.2-2.4 2.4-2.3 19.6 1.1 33.7 14.1 38.2 27.2.4 1.3-.3 2.6-1.6 3zm4.1-21.9c-1.9-.1-3.8-.3-5.7-.6-2.3-2.5-4.9-4.7-7.9-6.7 4.2 1.8 8.7 2.8 13.6 3.2v4.1zM62.8 60.9c0-20.7 16.9-37.7 37.7-37.7s37.8 16.8 37.8 37.7-16.9 37.7-37.7 37.7-37.8-17-37.8-37.7zm37.5 54c-.2-.4-.4-.7-.6-1.1h1.3c-.3.4-.5.8-.7 1.1zm2.4-13.6c5.3-.3 10.3-1.6 14.9-3.7-3.4 2-6.5 4.5-9.4 7.3-1.9.3-3.8.5-5.6.6.1 0 .1-4.2.1-4.2zm78.3 39.8c0 20.4-16.6 37-37 37s-37-16.6-37-37 16.6-37 37-37 37 16.6 37 37zm-48-49.8c-4 .8-7.8 2.2-11.4 3.9 11.5-7.2 19.3-19.9 19.3-34.5 0-14-7.2-26.3-17.9-33.7l2.1-3.5c12.1 8 20 21.7 20 37.2 0 11.8-4.6 22.6-12.1 30.6z" class="st0"/><path d="M90.4 140.3c-.1-.8-.5-1.6-1.3-2-.2-3.7-1.1-7.2-2.4-10.4.1-.1.2-.2.2-.4.4-.8.4-1.7.1-2.5-1.6-3.9-4.5-7.8-7.7-10.1-.7-.5-1.7-.7-2.5-.4h-.1c-2.8-2.3-6.1-4.2-9.6-5.5-.3-.8-.9-1.5-1.7-1.8-3.9-1.6-8.7-2-12.6-1.4-.8.2-1.6.7-2 1.5-16.2 2.3-28.7 16.3-28.7 33.1 0 .8 0 1.6.1 2.4 0 .8.8 1.4 1.6 1.3h.1c.6-.1 1.2-.7 1.1-1.4 0-.8-.1-1.6-.1-2.4 0-3.3.5-6.5 1.5-9.5l3.7 3.4c0 .2-.1.4-.1.5 0 1.3 1.1 2.3 2.3 2.3 1.3 0 2.3-1.1 2.3-2.3s-1.1-2.3-2.3-2.3h-.4l-4.5-4.2c1.5-3.5 3.6-6.5 6.1-9.2l3.2 3.2.6-.6c3.4-3.3 7.7-5.7 12.4-6.7.2 0 .3-.1.3-.3 0-.3-.2-.5-.5-.5-4.9 1.1-9.4 3.6-12.8 6.9l-2.5-2.5c4.4-4.3 10.1-7.4 16.5-8.4.5 1.3 1.9 1.9 3.3 1.7 3.1-.6 6.8.1 9.3.9.4.1.8.2 1.2.2.9 0 1.8-.4 2.4-1.3 2.9 1.2 5.7 2.7 8.1 4.6-.4 1.3 0 2.7 1.2 3.4 2.5 1.9 4.6 5.2 5.6 7.5.4 1.2 1.6 1.9 2.7 1.9 1.1 2.7 1.8 5.7 2 8.8-1.3.5-2.1 1.9-1.9 3.4.4 3.1-.4 6.8-1.4 9.2-.4 1.1-.2 2.2.4 3.2-4.1 8.5-11.9 14.8-21.3 16.8-.7.1-1.2.7-1.2 1.5s.7 1.5 1.6 1.3c10.4-2.1 19-9.2 23.5-18.5.2 0 .3 0 .5-.1.8-.2 1.6-.8 2-1.7 1.5-3.8 2.3-8.7 1.7-12.6z" class="st0"/><path d="M69.7 117.5c-2.3-1.5-4.8-2.5-7.6-3.2-.3-.1-.6.1-.6.4 0 .2.1.4.3.4 2.6.6 5 1.7 7.4 3.2.2.1.5.1.7-.2.1-.2 0-.5-.2-.6zm4.5 3.3c-.2-.2-.5-.2-.7 0-.1.2-.1.5 0 .7 1.8 1.7 3.4 3.7 4.6 5.9.1.2.4.3.6.2 0 0 .6-.2.3-.7-1.3-2.2-2.9-4.2-4.8-6.1zm7.8 19.1c.3 0 .5-.2.5-.4v-.5c-.1-2.3-.5-4.6-1.3-6.7-.1-.2-.2-.3-.5-.3-.2 0-.4.3-.3.5.7 2.2 1.2 4.4 1.3 6.8-.1.4.1.6.3.6zm-11.2 22.8c1.5-.9 2.7-2.1 4-3.3.2-.2.2-.4 0-.6-.1-.2-.4-.2-.6 0-1.2 1.3-2.4 2.3-3.9 3.3-.1.1-.3.3-.2.5-.1 0 0 .4.7.1zm6.9-7.9c.2.1.5 0 .7-.2 1.8-2.9 3.2-6.2 3.7-9.7 0-.3-.2-.5-.4-.5s-.4.1-.4.4c-.6 3.4-1.8 6.5-3.6 9.4-.1.1-.2.5 0 .6zm90.9 3.7c-.9 0-1.7.8-1.7 1.7 0 .4.1.7.4 1.1-1.7 2-3.7 3.7-5.8 5.2-.3-.3-.7-.4-1.2-.4-.9 0-1.7.8-1.7 1.7 0 .8.8 1.7 1.7 1.7s1.7-.8 1.7-1.7c0-.2 0-.4-.1-.5 2.2-1.6 4.2-3.4 6.1-5.4.2.1.4.1.7.1.9 0 1.7-.8 1.7-1.7s-.9-1.8-1.8-1.8zm6.8-28.6c0-.9-.8-1.7-1.7-1.7h-.4c-4.8-11.4-16.2-19.5-29.4-19.5-4.2 0-8.1.8-11.8 2.3-.3-.3-.7-.5-1.3-.5-.9 0-1.7.8-1.7 1.7 0 .8.8 1.7 1.7 1.7.8 0 1.7-.8 1.7-1.7v-.4c3.6-1.4 7.4-2.2 11.4-2.2 12.8 0 23.9 7.9 28.6 19-.4.3-.6.8-.6 1.3 0 .9.8 1.7 1.7 1.7 1.1.1 1.8-.8 1.8-1.7zm-8.6 23.9c-.9 0-1.7.8-1.7 1.7 0 .4.2.8.4 1.3-4.8 6.4-12.5 10.5-21 10.5h-.1c0-.9-.8-1.7-1.7-1.7s-1.7.8-1.7 1.7.8 1.7 1.7 1.7c.7 0 1.3-.4 1.6-.9h.3c8.8 0 16.6-4.2 21.7-10.8.2.1.4.1.6.1.9 0 1.7-.8 1.7-1.7s-1-1.9-1.8-1.9zM99.4 75.1L86.2 46.5v22.7c0 2.1.2 3.4.7 3.9.6.7 1.6 1.1 2.9 1.1h1.3v.9H79.3v-.9h1.3c1.5 0 2.4-.4 3.1-1.3.4-.5.5-1.8.5-3.7V47c0-1.5-.2-2.6-.5-3.3-.2-.4-.6-.8-1.3-1.3-.6-.3-1.6-.4-3.1-.4v-.9H89l12.3 26.6 12.1-26.6h9.6v.9h-1.2c-1.5 0-2.4.4-3.1 1.3-.4.5-.5 1.8-.5 3.7v22.2c0 2.1.2 3.4.7 3.9.6.7 1.6 1.1 2.9 1.1h1.2v.9h-14.4v-.9h1.3c1.5 0 2.4-.4 3.1-1.3.4-.5.5-1.8.5-3.7V46.5l-13.3 28.6h-.8zm-38.1 84v.9H46.8v-.9H48c1.4 0 2.4-.4 3.1-1.3.4-.5.6-1.8.6-3.9v-22c0-1.7-.1-2.8-.3-3.4-.2-.4-.5-.8-1.1-1.1-.7-.4-1.5-.6-2.3-.6h-1.3v-.8h14.6v.9H60c-1.4 0-2.4.4-3.1 1.3-.4.5-.6 1.8-.6 3.9v22c0 1.7.1 2.8.3 3.4.2.4.5.8 1.1 1.1.7.4 1.5.6 2.3.6h1.2v-.1z" class="st0"/><path d="M157.9 124.8l.4 8h-.9c-.2-1.4-.4-2.4-.7-3.1-.5-.9-1.3-1.7-2-2.1-.8-.4-2-.7-3.4-.7h-4.8v26c0 2.1.2 3.4.7 3.9.6.7 1.6 1.1 2.9 1.1h1.2v.9h-14.4v-.9h1.3c1.5 0 2.4-.4 3.1-1.3.4-.5.5-1.8.5-3.7v-26h-4.1c-1.6 0-2.7.1-3.4.4-.8.3-1.6.9-2.2 1.8-.6.8-.9 2.1-1.2 3.7h-.9l.4-8h27.5z" class="st0"/></svg>