<svg xmlns="http://www.w3.org/2000/svg" id="Livello_1" viewBox="0 0 200 200"><style>.st0{fill:#2d5680}.st1{fill:#00bcd4}</style><path d="M99.1 195l-61.7-62.7c-1.4-1.4-1.4-3.7 0-5.1l.1-.1c1.4-1.4 3.7-1.4 5.1 0l56.5 57.4 57.6-57.5c1.4-1.4 3.7-1.4 5.1 0 1.4 1.4 1.4 3.7 0 5.1L99.1 195z" class="st0"/><path d="M99.4 165.7l-27.5-28c-1-1-1-2.7 0-3.7s2.6-1 3.6 0l23.8 24.2 24.2-24.2c1-1 2.7-1 3.7 0s1 2.7 0 3.7l-27.8 28z" class="st1"/><path d="M156.7 72.9L99.1 15.4 42.6 72.8c-1.4 1.4-3.7 1.4-5.1 0l-.1-.1c-1.4-1.4-1.4-3.7 0-5.1L99.1 5l62.7 62.8c1.4 1.4 1.4 3.7 0 5.1-1.5 1.4-3.7 1.4-5.1 0z" class="st0"/><path d="M123.6 65.9L99.4 41.7 75.6 65.9c-1 1-2.6 1-3.6 0s-1-2.6 0-3.7l27.5-28 27.9 28c1 1 1 2.7 0 3.7-1.2 1.1-2.8 1.1-3.8 0z" class="st1"/><path fill="#13ea79" d="M47.4 91.6v-3.1H32.3v23h15.1v-3.1h-12V101h9.9v-3.1h-9.9v-6.3h12zM68 88.5H50.3v3.1h7.3v19.9h3.1V91.6H68v-3.1zm19.6 0v9.4H75.1v-9.4h-3.2v23h3.2V101h12.5v10.5h3.1v-23h-3.1zm32.4 23h-3.2V97.8l-8.8 11.6-7.9-11.2v13.3H97V88.2l11 15.9 12-15.5v22.9zm9.4 0h-3.2v-23l16.7 15.9V88.5h3.2v23l-16.7-15.9v15.9zm38.3-21.6l-2.6-1.7-7 10.5-7.1-10.5-2.6 1.7 8.1 12.1v9h3.2v-9l8-12.1z"/></svg>