<?xml version="1.0" encoding="utf-8"?>
<!-- Generator: Adobe Illustrator 22.1.0, SVG Export Plug-In . SVG Version: 6.00 Build 0)  -->
<svg version="1.0" id="Layer_1" xmlns="http://www.w3.org/2000/svg" xmlns:xlink="http://www.w3.org/1999/xlink" x="0px" y="0px"
	 viewBox="0 0 200 200" style="enable-background:new 0 0 200 200;" xml:space="preserve">
<style type="text/css">
	.st0{fill:#2B5EBA;}
</style>
<circle class="st0" cx="155.4" cy="100" r="39.8"/>
<circle class="st0" cx="105.1" cy="26" r="19.2"/>
<circle class="st0" cx="105.1" cy="174" r="19.2"/>
<path class="st0" d="M96.3,128.7c1.1,0.4,2.4,0.6,3.6,0.6c6.6,0,12-5.4,12-12s-5.4-12-12-12c-4.3,0-7.9,2.2-10.1,5.5v0.1
	c-0.4,0.5-0.7,1-0.9,1.6c-13.2,23.4-39.8,7.8-39.8,7.8c-4.3-2.6-9.4-4.1-14.8-4.1c-16,0-28.9,13-28.9,28.9s13,28.9,28.9,28.9
	c11.2,0,20.9-6.3,25.6-15.6v-0.1c0.9-1.6,1.5-3.3,2.1-5.1C75.8,121.5,96.3,128.7,96.3,128.7L96.3,128.7z M89.5,86.2
	c0.6,1,1.3,2.1,2.2,2.9c4.7,4.7,12.3,4.7,16.9,0c4.7-4.7,4.7-12.3,0-16.9c-3-3-7.2-4.1-11-3.2h-0.1c-0.6,0.1-1.2,0.3-1.8,0.6
	c-25.9,7.2-33.7-22.7-33.7-22.7c-1.2-4.9-3.8-9.5-7.6-13.3C43.2,22.2,25,22.2,13.7,33.5s-11.3,29.6,0,40.8
	c7.9,7.9,19.2,10.3,29.2,7.1H43c1.7-0.6,3.4-1.3,5.1-2.2C80.2,66.6,89.5,86.2,89.5,86.2z"/>
</svg>
