<svg xmlns="http://www.w3.org/2000/svg" viewBox="0 0 200 200"><path fill="#18b5e0" d="M145.4 170.7c.1-6.3.2-21.3.2-27.9 8.8-8.4 17.2-16.8 25.8-25.6l1-1c9.7-8.1 10.1-22.6 1.5-31.9-1.5-1.7-3.4-3.4-5.2-5.2l-52-52c-9.7-9.7-23.5-9.7-33.2.2-18.7 18.8-37.4 37.5-56.1 56.2-9.7 9.7-9.7 23.5-.2 33.1l56.7 56.7c9.2 9.2 22.9 9.4 32.3.4 5-4.8 9.7-9.7 14.7-14.5.8-.6 1-1.3 1-2.3 0-3.1.2-5.9.2-8.8 0-1 .1-1.8-1-2.1-.7-.1-1.3.6-1.7 1l-18.7 18.7c-6.9 6.9-14.3 6.9-21.2.2l-55.4-55.4c-5.7-5.7-5.7-15.1 0-20.8l25.4-25.4c9.9-10.2 20-20.3 30.2-30.5 3.1-3.1 6.3-4.8 10.7-4.8 4.4.2 7.6 2.3 10.5 5.2 8.8 9 17.8 18 26.6 26.9 9.2 9.2 18.3 18.3 27.5 27.3.2.4.6.6.8 1 6.5 6.5 6.5 14.1.2 20.8l-21.6 21.6c-2.3 2.3-2.5 2.1-2.9 2.1-.5 0-1-.4-1-.4-3.4-2.7-5.9-6.1-9.2-9.2l-10.1-9.2-4.4-4.4c-1.5-1.5-3.1-3.1-4.6-4.4-1.3-1.1-1.5-2.3-1.1-4 1.5-5-1-10.3-5.3-13s-10.2-1.8-14 1.7c-3.8 3.6-4.8 9.2-2.3 13.8 2.3 4.4 7.5 7.3 12.2 6.1 1.9-.4 2.9.2 4 1.3 9.7 9.7 19.7 19.3 30 28.5 1.3 1.1 1.5 2.3 1.5 3.8-.2 7.8-.2 18.4-.2 26.2 0 2.3 1.9 4.2 4.2 4.2 2.3 0 4.2-1.8 4.2-4.2z"/><circle cx="100" cy="100" r="95" fill="none" stroke="#18b5e0" stroke-miterlimit="10" stroke-width="3"/></svg>