<?xml version="1.0" encoding="utf-8"?>
<!-- Generator: Adobe Illustrator 26.0.2, SVG Export Plug-In . SVG Version: 6.00 Build 0)  -->
<svg version="1.1" id="Livello_1" xmlns="http://www.w3.org/2000/svg" xmlns:xlink="http://www.w3.org/1999/xlink" x="0px" y="0px"
	 viewBox="0 0 200 200" style="enable-background:new 0 0 200 200;" xml:space="preserve">
<style type="text/css">
	.st0{fill:#EC1C79;}
	.st1{fill:#FFFFFF;}
	.st2{fill-rule:evenodd;clip-rule:evenodd;}
</style>
<path id="Path" class="st0" d="M130.4,22.5c-11.6-6.5-24.7-9.9-38.4-9.9c-43.6,0-79,35.4-79,79c0,6.9,0.9,13.8,2.6,20.3
	c0.2,0.7,0.3,1,0.4,2c0,0.1,0,0.1,0,0.2c0.2,1.2,0.5,1.9,1.3,3.5c0.8,1.6,2.3,4.6,4.1,7.8c2.8,4.9,5.8,9.9,9,14.6
	c8.6,12.6,17.2,21.2,24.5,23.7c9.8,3.3,46.8-36.9,105.3-115.7C149.7,36.9,139.7,29,130.4,22.5z"/>
<path id="Oval" d="M57.2,195.4c49,0,49-0.7,57.3-3.2c10.8-3.2-30.6-31.9-57.3-31.9S9,168.1,9,177.8C9,187.5,30.6,195.4,57.2,195.4z"
	/>
<path d="M55,165.8c-7.4-2.5-15.9-13.1-24.5-25.7c-3.2-4.7-6.2-9.6-9-14.6c-1.8-3.3-3.4-6.2-4.1-7.8c-0.8-1.6-1-2.4-1.3-3.5
	c0-0.1,0-0.1,0-0.2c-0.2-0.9-0.3-1.3-0.4-2c-0.5-1.7-0.9-3.5-1.2-5.3l7.1,3.3c2.2,1,4.9,0.1,5.9-2.2c1-2.2,0.1-4.9-2.2-5.9
	l-12.1-5.6C13,94.7,13,93.2,13,91.6c0-2.4,0.1-4.8,0.3-7.2l9.6,4.8c2.2,1.1,4.9,0.2,6-2s0.2-4.9-2-6l-12.2-6.1
	C22.3,39.4,54,12.6,92,12.6c13.6,0,26.7,3.4,38.4,9.9c9.3,6.5,18.3,13.4,28.9,24.6l8.1-3c-11.9-12.8-21.4-20.9-32.6-28.2l-0.3-0.2
	c-12.9-7.2-27.4-11-42.4-11c-48.1,0-87,39-87,87c0,7.6,1,15.1,2.9,22.4c0.1,0.4,0.2,0.7,0.3,1.4c0,0.1,0,0.1,0,0.2
	c0.4,1.8,0.8,3.2,1.9,5.4c0.8,1.8,2.5,4.9,4.4,8.3c2.9,5.1,6,10.3,9.4,15.2c9.5,13.9,19.1,25.5,28.6,28.7L55,165.8z"/>
<path id="Oval_00000145779531059796347700000005638136306606580656_" d="M108,194.6c-48.1,0-87-39-87-87s39-87,87-87s87,39,87,87
	S156,194.6,108,194.6z M108,186.6c43.6,0,79-35.4,79-79s-35.4-79-79-79s-79,35.4-79,79S64.3,186.6,108,186.6z"/>
<path id="Path_00000069388407529386420650000015365804768505295744_" class="st1" d="M108,186.6c43.6,0,79-35.4,79-79
	s-35.4-79-79-79s-79,35.4-79,79S64.3,186.6,108,186.6z"/>
<path id="WETH" class="st2" d="M48.9,123.8L38.4,92.3h9.2l5.5,18.1l6-18.2h7.5l6,18.2L78,92.3h9l-10.5,31.5H69l-6.3-18l-6.3,18H48.9
	z M90.4,123.6V92.3h25.2v7.4H99v4.7h15v6.8H99v5h16.8v7.4H90.4z M127.9,123.6V99.9h-9.4v-7.6H146v7.6h-9.4v23.7H127.9z M149.8,123.6
	V92.3h8.7V104h11.1V92.3h8.7v31.3h-8.7v-11.9h-11.1v11.9H149.8z"/>
</svg>
