<svg xmlns="http://www.w3.org/2000/svg" id="Livello_1" viewBox="0 0 200 200"><style>.st1{fill:#dac78f}</style><radialGradient id="SVGID_1_" cx="100" cy="100" r="92.5" gradientUnits="userSpaceOnUse"><stop offset="0" stop-color="#df9533"/><stop offset="1" stop-color="#dc7314"/></radialGradient><circle cx="100" cy="100" r="92.5" fill="url(#SVGID_1_)"/><path d="M100 10c49.6 0 90 40.4 90 90s-40.4 90-90 90-90-40.4-90-90 40.4-90 90-90m0-5C47.5 5 5 47.5 5 100s42.5 95 95 95 95-42.5 95-95-42.5-95-95-95z" class="st1"/><path d="M20.7 105.4l8.1-.8c.5 2.7 1.5 4.7 3 6s3.5 1.9 6.1 1.9c2.7 0 4.7-.6 6.1-1.7s2-2.5 2-4c0-1-.3-1.8-.9-2.5s-1.6-1.3-3-1.8c-1-.3-3.2-.9-6.7-1.8-4.5-1.1-7.6-2.5-9.4-4.1-2.5-2.3-3.8-5.1-3.8-8.3 0-2.1.6-4.1 1.8-5.9 1.2-1.8 2.9-3.2 5.2-4.2s5-1.4 8.1-1.4c5.2 0 9.1 1.1 11.7 3.4 2.6 2.3 4 5.3 4.1 9.1l-8.4.4c-.4-2.1-1.1-3.7-2.3-4.6-1.2-.9-2.9-1.4-5.3-1.4s-4.3.5-5.7 1.5c-.9.6-1.3 1.5-1.3 2.6 0 1 .4 1.8 1.2 2.5 1 .9 3.6 1.8 7.7 2.8s7.1 1.9 9 3c2 1 3.5 2.4 4.6 4.2s1.7 4 1.7 6.6c0 2.4-.7 4.6-2 6.7-1.3 2.1-3.2 3.6-5.6 4.6s-5.4 1.5-9 1.5c-5.2 0-9.3-1.2-12.1-3.6-2.7-2.5-4.3-6-4.9-10.7zm46.6 13.5l-9.9-41.4H66l6.2 28.4 7.6-28.4h9.9l7.3 28.9 6.3-28.9h8.4l-10.1 41.4h-8.9L84.6 88l-8.2 30.9h-9.1zm82.8 0H141l-3.6-9.4h-16.6l-3.4 9.4h-8.9l16.1-41.4h8.8l16.7 41.4zm-15.4-16.4L129 87.2l-5.6 15.4h11.3zm24.9 16.4V84.5h-12.3v-7h32.9v7h-12.3v34.4h-8.3z" class="st1"/></svg>