<svg xmlns="http://www.w3.org/2000/svg" viewBox="0 0 200 200"><g transform="translate(104 90)"><circle cx="-4" cy="10" r="95" fill="#1e1a31"/><path fill="#fff" fill-rule="evenodd" d="M7 2.8h-23.1c-10.4 0-18.8-8.2-18.8-18.6 0-10.4 8.4-18.8 18.8-18.8h49.3c4.1 0 7.4-3.3 7.4-7.4s-3.3-7.4-7.4-7.4h-49.3c-18.5 0-33.5 15-33.5 33.5s15 33.5 33.5 33.5H7c10.4 0 18.8 8.3 18.8 18.7 0 10.4-8.4 18.8-18.8 18.8h-49.3c-4.1 0-7.4 3.3-7.4 7.4s3.3 7.4 7.4 7.4H7c18.5 0 33.5-15.1 33.5-33.6S25.5 2.8 7 2.8z" clip-rule="evenodd"/><path fill="#fff" fill-opacity=".5" fill-rule="evenodd" d="M-36.5 67l-12-8.6L26.8-46.8l12 8.6L-36.5 67z" clip-rule="evenodd"/></g></svg>