<svg xmlns="http://www.w3.org/2000/svg" viewBox="0 0 200 200"><path fill="#00d395" fill-rule="evenodd" d="M33.2 153.1c-4.7-2.9-7.6-8-7.6-13.6v-30.9c0-1.2.3-2.3.9-3.3 1.8-3.2 5.9-4.2 9.1-2.4l69.8 40.7c4.1 2.4 6.6 6.7 6.6 11.5v32c0 1.5-.4 2.9-1.2 4.2-2.3 3.8-7.2 4.9-11 2.6l-66.6-40.8zm104.1-58.7c4.1 2.4 6.6 6.7 6.6 11.5v65c0 1.9-1 3.7-2.7 4.6l-15.3 8.6-.6.3v-36.1c0-4.7-2.5-9-6.5-11.4l-61.3-36.6V59.5c0-1.2.3-2.3.9-3.3 1.8-3.2 5.9-4.2 9.1-2.4l69.8 40.6zm30.5-48c4.1 2.4 6.6 6.8 6.6 11.5v94.9c0 1.9-1.1 3.7-2.8 4.7l-14.5 7.8V99.2c0-4.7-2.5-9-6.5-11.4L88 50.3V11.6c0-1.2.3-2.3.9-3.3 1.8-3.2 5.9-4.2 9.1-2.4l69.8 40.5z" clip-rule="evenodd"/></svg>