<svg xmlns="http://www.w3.org/2000/svg" viewBox="0 0 200 200"><path fill="#e47d32" fill-rule="evenodd" d="M187.5 63c-56-115.2-216.4-42.4-176.1 71.3 54.3 120.5 221 43.9 176.1-71.3zm-29.6 94.9c-13.9 13.9-31.9 22.2-51.3 23.7l-.2-55.9 21.4 13.7c1.1.7 2.3 1 3.5 1 2.2 0 4.3-1.1 5.5-3 1.9-3 1.1-7.1-2-9l-31.5-20.1c-1.9-1.2-4.6-1.5-6.8-.1l-32.7 19c-3.1 1.8-4.2 5.8-2.4 8.9 1.2 2.1 3.4 3.3 5.7 3.3 1.1 0 2.2-.3 3.3-.9l22.9-13.3.2 56.5C32.9 176.6 2.3 112.8 26.4 64l46.9 26.8-22.4 12.1c-3.2 1.7-4.4 5.7-2.6 8.9 1.2 2.2 3.4 3.4 5.8 3.4 1.1 0 2.1-.3 3.1-.8L90 96.7c2-1.1 3.5-3.3 3.4-5.8L93.3 53c0-3.6-2.9-6.5-6.5-6.5s-6.5 2.9-6.5 6.6l.1 26.6-47.3-26.9C67 5 135.9 8.3 167 52.9c-.1 0-46.9 26.8-46.9 26.8l.1-26.6c0-3.6-2.9-6.6-6.5-6.6s-6.5 2.9-6.5 6.5l-.2 37.9c0 2.3 1.2 4.6 3.4 5.8l32.8 17.7c1 .5 2.1.8 3.1.8 2.3 0 4.6-1.2 5.8-3.4 1.7-3.2.5-7.2-2.6-8.9L127 90.8s46.5-26.6 46.7-26.7c14.9 29.5 9 70.1-15.8 93.8z" clip-rule="evenodd"/></svg>