<svg xmlns="http://www.w3.org/2000/svg" id="Livello_1" x="0" y="0" version="1.1" viewBox="0 0 200 200" xml:space="preserve"><style>.st1{fill:#657786}</style><linearGradient id="SVGID_1_" x1="82.7" x2="82.7" y1="5" y2="195" gradientTransform="matrix(1 0 0 -1 0 200)" gradientUnits="userSpaceOnUse"><stop offset="0" stop-color="#966fe7"/><stop offset="1" stop-color="#00d18f"/></linearGradient><path fill="url(#SVGID_1_)" d="M140.4 153.4c-11.2 8.5-25.3 13.6-40.4 13.6-36.9 0-67-30.1-67-67s30.1-67 67-67c14.6 0 28.2 4.7 39.2 12.7l19.6-20.4C142.6 12.6 122.2 5 100 5 47.5 5 5 47.5 5 100s42.5 95 95 95c22.9 0 44-8.1 60.4-21.6l-20-20z"/><path d="M108.2 98.6c1.9-1 3.1-2.8 2.9-5.9-.4-4.1-3.8-5.5-8.1-5.9v-5.7h-3.3v5.6H97v-5.6h-3.3v5.7H87v3.7h2.4c1.3 0 1.8.8 1.9 1.5v15.7c-.1.4-.3 1.2-1.3 1.2h-2.4l-.7 4.2H93.6v5.8h3.3v-5.7h2.7v5.7h3.3v-5.8c5.6-.3 9.5-1.8 10-7.3.5-4.4-1.5-6.4-4.7-7.2zm-11.1-7.8c1.9 0 7.8-.6 7.8 3.5 0 3.9-5.9 3.5-7.8 3.5v-7zm0 18.2v-7.7c2.3 0 9.3-.7 9.3 3.8 0 4.3-7.1 3.8-9.3 3.9zM118.3 123.6c-5.1 3.9-11.4 6.3-18.3 6.3s-13.2-2.3-18.2-6.2l-3.8 3.8c6 4.9 13.7 7.8 22.1 7.8 8.4 0 16.1-2.9 22.1-7.8l-3.9-3.9zM70.1 100c0-6.7 2.2-12.9 6-17.9l-3.8-3.8c-4.7 6-7.5 13.5-7.5 21.7 0 9.6 3.9 18.4 10.2 24.8l3.8-3.7c-5.4-5.5-8.7-12.9-8.7-21.1zm57.7-21.7l-3.8 3.8c3.7 5 6 11.2 6 17.9 0 8.2-3.3 15.6-8.6 21l3.8 3.7c6.3-6.4 10.1-15.1 10.1-24.7-.1-8.2-2.9-15.7-7.5-21.7zM100 64.8c-9.8 0-18.7 4-25.1 10.5l3.8 3.7c5.4-5.5 13-8.9 21.3-8.9s15.9 3.4 21.3 9l3.8-3.7c-6.4-6.6-15.3-10.6-25.1-10.6z" class="st1"/><circle cx="100" cy="100" r="43" fill="none" stroke="#283947" stroke-width="6.2105"/></svg>