<svg xmlns="http://www.w3.org/2000/svg" id="Layer_1" viewBox="0 0 200 200"><style>.st5{fill:#611ec1}</style><path fill="#b55990" d="M25 77.9l-20 20h40z"/><path fill="#b47eae" d="M44.9 102.1H5l20 20z"/><path fill="#c84b8a" d="M72 75L52.1 55v40z"/><path fill="#a02873" d="M47.9 95V55l-20 20z"/><path fill="#bd367d" d="M75 72l20-19.9H55z"/><path d="M52.9 50z" class="st5"/><path fill="#dd0e68" d="M75 27.9l-20 20h40z"/><path fill="#3da067" d="M122.1 25l-20-20v39.9z"/><path fill="#ff85c2" d="M97.9 44.9V5l-20 20z"/><path fill="#6f4077" d="M72 125l-19.9-20v40z"/><path fill="#762063" d="M27.9 125l20 20v-40z"/><path fill="#247d5a" d="M125 72l20-19.9h-40z"/><path fill="#006d15" d="M105 47.9h40l-20-20z"/><path fill="#1a0047" d="M95 152.1H55l20 20z"/><path fill="#844d88" d="M75 128l-20 19.9h40z"/><path d="M150 97v.1-.1z" class="st5"/><path fill="#195b55" d="M172.1 75l-20-20v40z"/><path fill="#006d38" d="M128 75l19.9 20V55z"/><path fill="#0e003a" d="M77.9 175l20 20v-39.9z"/><path fill="#000029" d="M102.1 155.1V195l20-20z"/><path fill="#020036" d="M125 172.1l20-20h-40z"/><path fill="#0f3251" d="M125 128l-20 19.9h40z"/><path fill="#003844" d="M152.1 105v40l20-20z"/><path fill="#03274d" d="M128 125l19.9 20v-40z"/><path fill="#000d1e" d="M175 122.1l20-20h-39.9z"/><path fill="#002c1c" d="M175 77.9l-20 20h40z"/></svg>