<svg xmlns="http://www.w3.org/2000/svg" viewBox="0 0 200 200"><linearGradient id="a" x1="52.4915" x2="147.5085" y1="182.2872" y2="17.7128" gradientUnits="userSpaceOnUse"><stop offset="0" stop-color="#861619"/><stop offset=".5" stop-color="#d54935"/><stop offset="1" stop-color="#861619"/></linearGradient><path fill="url(#a)" d="M100 5C47.5 5 5 47.5 5 100s42.5 95 95 95 95-42.5 95-95-42.5-95-95-95zm59.8 124.9l-.1 11.4h-43.1l-.1-11.6-.1-11.6h9.4v-11.5c0-6.3-.1-11.5-.2-11.5-.2 0-1.5 1.7-3.1 3.8-3.5 4.7-7.1 9.7-10.8 14.8-1.5 2.1-4 5.5-5.5 7.5s-3 4.1-3.5 4.7l-.8 1-2.6-3.6c-1.4-2-3.8-5.2-5.2-7.1-1.4-2-3.8-5.1-5.2-7-5-6.9-10.2-13.8-10.4-13.9-.1 0-.2 5.1-.2 11.4V118l2.8.2c1.5.1 3.6.2 4.6.2h1.8v23l-21.6-.1-21.7-.1.1-11.3c.1-6.2.1-11.3.2-11.4 0 0 1.9-.1 4.2-.2l4.2-.1V82.1l-4.5-.1-4.4-.1V70.5c0-6.3.1-11.5.3-11.6.1-.1 7.8-.2 17.1-.2h16.9l2.4 3.4c1.3 1.8 4.9 6.8 8 11 3.1 4.2 7.2 9.9 9.2 12.8 2 2.8 3.8 5.1 4 5.1.2 0 5.6-7.2 12-16.1l11.7-16.1h34.1l.1 11.6.1 11.5-4.4.1-4.5.1.1 17.9c.1 9.8.2 18 .3 18.1.1.1 1.4.1 3 .1s3.5 0 4.2.1l1.3.2-.1 11.4z"/><path fill="none" stroke="#000" stroke-miterlimit="10" d="M159.9 118.5l-.1 11.3-.1 11.4h-43.1l-.1-11.6-.1-11.6h9.4v-11.5c0-6.3-.1-11.5-.2-11.5-.2 0-1.5 1.7-3.1 3.8-3.5 4.7-7.1 9.7-10.8 14.8-1.5 2.1-4 5.5-5.5 7.5s-3 4.1-3.5 4.7l-.8 1-2.6-3.6c-1.4-2-3.8-5.2-5.2-7.1-1.4-2-3.8-5.1-5.2-7-5-6.9-10.2-13.8-10.4-13.9-.1 0-.2 5.1-.2 11.4V118l2.8.2c1.5.1 3.6.2 4.6.2h1.8v23l-21.6-.1-21.7-.1.1-11.3c.1-6.2.1-11.3.2-11.4 0 0 1.9-.1 4.2-.2l4.2-.1V82.1l-4.5-.1-4.4-.1V70.5c0-6.3.1-11.5.3-11.6.1-.1 7.8-.2 17.1-.2h16.9l2.4 3.4c1.3 1.8 4.9 6.8 8 11 3.1 4.2 7.2 9.9 9.2 12.8 2 2.8 3.8 5.1 4 5.1.2 0 5.6-7.2 12-16.1l11.7-16.1h34.1l.1 11.6.1 11.5-4.4.1-4.5.1.1 17.9c.1 9.8.2 18 .3 18.1.1.1 1.4.1 3 .1s3.5 0 4.2.1l1.3.2z"/></svg>