<svg xmlns="http://www.w3.org/2000/svg" viewBox="0 0 200 200"><path fill="#348f8d" d="M171.2 15c-4.8-4.8-12.7-4.8-17.5 0L131 37.7 102 8.6c-.5-.5-1.2-1.1-2-1.6-4.5-3-10.5-2.7-14.4 1.2l-.2.4L11.1 83l-.1.2-.2.2c-4.3 4.3-4.3 11.2 0 15.5L33.3 121c4.3 4.3 11.2 4.3 15.5 0 4.3-4.3 4.3-11.2 0-15.5L34.7 91.4 93 32.9l30.3 30.3c3.7 3.7 9.5 4.5 14.1 2 1.2-.5 2.3-1.4 3.4-2.3l30.5-30.5c4.7-4.7 4.7-12.5-.1-17.4z"/><path fill="#7abdc1" d="M189.2 101.4l-.4-.4-22.1-22.1c-4.3-4.3-11.2-4.3-15.5 0s-4.3 11.2 0 15.5l14.1 14.1-58.3 58.3-30.3-30.3c-3-3-7.1-4.1-10.9-3.2-2.3.5-4.6 1.6-6.4 3.4L29 167.2c-4.8 4.8-4.8 12.7 0 17.5 4.8 4.8 12.7 4.8 17.5 0L68.9 162l28.5 28.5 1.1 1.1c4.5 4.5 11.6 4.5 16.1 0L189 117l.2-.2.2-.2c4.1-4 4.1-10.9-.2-15.2z"/></svg>