<?xml version="1.0" encoding="utf-8"?>
<!-- Generator: Adobe Illustrator 23.0.1, SVG Export Plug-In . SVG Version: 6.00 Build 0)  -->
<svg version="1.0" id="Livello_1" xmlns="http://www.w3.org/2000/svg" xmlns:xlink="http://www.w3.org/1999/xlink" x="0px" y="0px"
	 viewBox="0 0 200 200" enable-background="new 0 0 200 200" xml:space="preserve">
<path fill="#292929" d="M195,100c0,7.37-0.84,14.54-2.42,21.43l-55.99-56.25l-0.01-0.01l-0.65-0.66l-10.18,27.34l-2.2-2.21
	L64.07,29.89l-0.14,0.58l-0.01,0.01L51.05,82.55l-33.12,49.83l-4.51,6.78c-0.91-2.02-1.76-4.08-2.52-6.17C7.08,122.72,5,111.6,5,100
	C5,47.53,47.53,5,100,5S195,47.53,195,100z"/>
<path fill="#00ADEF" d="M192.58,121.43c-1.85,8-4.7,15.61-8.43,22.7c-0.99,1.9-2.05,3.76-3.17,5.58
	C164.26,176.89,134.24,195,100,195c-38.46,0-71.57-22.84-86.52-55.7c-0.02-0.05-0.04-0.09-0.06-0.14l4.51-6.78l33.12-49.83
	l12.88-52.08l0.14-0.58l59.48,59.75l2.2,2.21l10.18-27.34l0.65,0.66l0.01,0.01L192.58,121.43z"/>
<path fill="#FFFFFF" d="M149.32,109.74l5.37-10.07l-18.1-34.49l-0.01-0.01l-0.51-0.99l-12.52,25.46l-4.93,10.03l5.1,10.2
	l-12.53,12.51l-11.12-21.2l-6.9,14.03l-18.02-35.4l7.54-14.14L64.07,30.18l-0.14,0.29l-0.01,0.01l-17.3,35.19l5.54,11.08
	L10.9,132.99c0.76,2.09,1.61,4.15,2.52,6.17c0.02,0.05,0.04,0.09,0.06,0.14l4.45-5.92l37.25-50.59l8.89,17.79l7.87-14.76
	l17.88,36.22l-7.2,14.63l17.45,34.91l18.62-34.91l-4.67-8.91l12.75-11.79l9.3,18.61l10.36-19.42l34.55,34.55
	c1.12-1.82,2.18-3.68,3.17-5.58L149.32,109.74z M64.37,82.88l-8.68-17.35l8.68-17.65l9.25,17.65L64.37,82.88z M100.37,153.88
	l-8.68-17.35l8.68-17.65l9.25,17.65L100.37,153.88z M136.37,116.88l-8.68-17.35l8.68-17.65l9.25,17.65L136.37,116.88z"/>
</svg>
