<svg xmlns="http://www.w3.org/2000/svg" id="Layer_1" viewBox="0 0 200 200"><style>.st0{fill:#f54e05;stroke:#000;stroke-miterlimit:10}</style><path d="M100 5C47.5 5 5 47.5 5 100s42.5 95 95 95 95-42.5 95-95-42.5-95-95-95zm0 180c-46.9 0-85-38.1-85-85s38.1-85 85-85 85 38.1 85 85-38.1 85-85 85z" class="st0"/><path d="M57.8 93.5L41 48.1h118l-9.7 54.5s-8.7-1.6-10.6 5.8c-2.3 8.7-16.8 62.5-16.8 62.5l-42.6-1 35.1-9 13.5-60s1.6-10 13.2-10.3l5.2-31H51.6l6.2 33.9z" class="st0"/><path d="M27.1 110.7c.2 0 .4.1.6.4.9 1.1 1.8 1.5 3.2 1.5 1.7 0 2.8-.5 2.8-1.2 0-.4-.3-.7-1.4-1.2-.2-.1-.6-.3-1.3-.6-1.7-.8-2.3-1.1-2.9-1.6-1.1-.9-1.6-1.9-1.6-3.2s.7-2.4 2.3-3.7c.9-.8 2.2-1.6 3.3-2.3 1.2-.7 2.2-1 3-1 1.5 0 2.2 1.2 2.2 3.4 0 1-.2 2.1-.4 2.7-.3.6-.8 1-1.5 1-.6 0-1.1-.4-1.1-.9 0-.1 0-.1.2-.4.2-.3.4-.9.4-1.5 0-.8-.2-1.2-.6-1.2-.6 0-1.6.5-2.7 1.3-1.5 1.1-2.3 2.1-2.3 2.8 0 .8.6 1.2 3.5 2.6 1.3.6 1.7.8 2.1 1.1 1.3.9 1.9 1.8 1.9 2.8 0 .8-.4 1.5-1 2.1-1 .9-2.9 1.5-4.6 1.5h-.7c-2.8-.1-4.6-1.1-4.6-2.6 0-1 .5-1.8 1.2-1.8zM44.4 102.4c1.8 0 3 1.9 3 4.8 0 4.5-2 7.9-4.6 7.9-.6 0-1.3-.2-1.7-.5v1.3c0 1.7.1 2.5.3 3.1l.1.2c.1.1.1.2.1.3 0 .5-.5.8-1.1.8-1 0-1.6-.6-1.7-1.7-.1-.7-.2-2.3-.2-3.9 0-3.1.1-5.5.5-8l.2-1.9c.1-.4.1-.7.1-.8v-.4c-.1-.2-.1-.4-.1-.4 0-.5.8-1 1.5-1 .6 0 1 .3 1.3 1.2.6-.6 1.5-1 2.3-1zm-2.5 4.4c-.4 1-.7 3-.7 4.2 0 1.2.3 1.8.9 1.8.7 0 1.3-.7 1.8-1.8s.8-2.7.8-3.8c0-1.4-.4-2.3-1-2.4-.7-.1-1.3.7-1.8 2zM55.5 103.1c.9 0 1.6.5 1.6 1.2 0 .8-.8 1.7-1.5 1.7h-.2l-.3-.1h-.3c-.8 0-1.7.7-2.3 1.7-.6 1-.9 2.1-.9 4 0 1 .1 1.5.3 2.1.1.2.1.4.1.4 0 .5-.7 1-1.5 1-1.2 0-1.5-.9-1.5-4 0-.5 0-1.1.1-1.8l.1-1.9c.1-1.6.1-2.2.1-2.8 0-.4 0-.7-.1-1 0-.2-.1-.3-.1-.4 0-.5.7-1 1.5-1s1.2.3 1.2 1v.3l-.1.7v.7c1.2-1.2 2.5-1.8 3.8-1.8zM59.5 115c-1 0-1.6-.9-1.6-2.4 0-.6.1-2.5.2-3.9l.1-1.9c0-.4.1-1.1.1-1.8v-.4c0-.2 0-.4-.1-.6l-.1-.3v-.1c0-.5.8-.9 1.6-.9s1.3.4 1.3 1.1c0 .2-.1.5-.1.9-.3 1.8-.5 4.9-.5 7.1 0 1.2 0 1.4.2 2.1 0 .1.1.2.1.3.1.3-.5.8-1.2.8zm.3-16.5c1 0 1.9.6 1.9 1.4 0 .7-.6 1.2-1.5 1.2-1 0-2-.7-1.9-1.5 0-.6.6-1.1 1.5-1.1zM62.7 105.4c-.4-.2-.6-.7-.6-1.2 0-.6.3-1.1.5-1.1h.1c.2.1.9.1 1.4.1h.5v-.9c0-.9-.1-1.4-.1-1.7 0-.2-.1-.3-.1-.4 0-.4.6-.8 1.3-.8.9 0 1.5.5 1.5 1.2 0 .2 0 .5-.1 1.4-.1.5-.1.7-.1 1 .8-.1 1.4-.2 1.7-.2.5 0 .8.3.8.8 0 .2-.1.8-.2 1.3-.1.4-.2.5-.4.5-.1 0-.2 0-.4-.1h-.4c-.2 0-.5 0-1 .1h-.2c-.1.6-.1 1-.1 2.1 0 .4 0 .9-.1 1.3v1.6c0 1.7.1 2.8.3 3.4.1.2.1.3.1.3 0 .4-.6.9-1.2.9-1.3 0-1.8-1.2-1.8-4.2 0-1 0-1.8.1-3.6.1-.8.1-1 .1-1.6-1 0-1.2 0-1.6-.2zM74.7 112.1c.8 0 1.7.1 2.4.1.9.1 1.4.5 1.4 1.3 0 .7-.3 1.2-.8 1.2 0 0-.1 0-.3-.1-.4-.1-1.5-.2-2.7-.2-1 0-1.8.1-2.7.2l-1.1.2c-.2.1-.4.1-.5.1-.5 0-1-.5-1-1.1 0-.4.3-1.1 1-2.2.9-1.3 2.1-2.8 3.7-4.7l1-1.2.4-.4h-.4c-.9 0-2 .1-2.7.2-.2.1-.4.1-.5.1-.5 0-.9-.5-.9-1.2 0-.8.3-1 1.4-1.2 1.3-.2 2.9-.3 4.4-.3 1.2 0 1.6.1 1.9.3.3.3.5.8.5 1.2 0 .5-.2.8-.9 1.4-1 .8-2.5 2.4-3.5 3.7-.7.9-1.2 1.6-1.6 2.3.8.3 1.1.3 1.5.3zM90.2 109.4c0 1.3-.6 2.9-1.4 3.9-1 1.2-2.3 1.8-3.7 1.8-2.9 0-4.8-2.3-4.8-5.8 0-2.3.8-5.4 2.1-8 1.4-2.8 2.4-3.8 3.7-3.8.6 0 .9.1 1.4.5.1.1.2.2.3.2l.3.2c.8.5 1.4 2.2 1.4 3.5 0 1.2-.6 1.9-1.4 1.9-.5 0-1.1-.4-1.1-.9 0-.1 0-.2.1-.3.1-.2.1-.3.1-.5 0-.8-.4-1.6-.8-1.6-.3 0-.6.2-1 .9-1.2 2-2.2 5.3-2.2 7.7 0 2.2.7 3.5 2 3.5.8 0 1.5-.5 2.1-1.6.4-.6.6-1.4.6-1.9v-.4c0-.2.2-.5.3-.5l.3-.1.3-.1h.2c.8 0 1.2.6 1.2 1.4zM97.4 102.5c2 0 3.2 1.9 3.2 4.7 0 2.2-.6 4.3-1.6 5.8-.8 1.2-2.1 2-3.4 2-2.4 0-3.8-1.7-3.8-4.6 0-1.8.5-3.9 1.2-5.6.7-1.5 1.4-2.2 2.1-2.2.4 0 .6.1.9.4.6-.4.9-.5 1.4-.5zm-3.1 8.2c0 1.3.4 2 1.2 2 1.4 0 2.7-2.8 2.7-5.8 0-1.4-.4-2.1-1.1-2.1-.4 0-1 .3-1.2.8l-.2.4c-.1.2-.2.3-.4.3h-.2c-.5 1.6-.8 3.1-.8 4.4zM103.9 115c-1 0-1.6-.9-1.6-2.4 0-.6.1-2.5.2-3.9l.1-1.9c0-.4.1-1.1.1-1.8v-.4c0-.2 0-.4-.1-.6l-.1-.3v-.1c0-.5.8-.9 1.6-.9s1.3.4 1.3 1.1c0 .2-.1.5-.1.9-.3 1.8-.5 4.9-.5 7.1 0 1.2 0 1.4.2 2.1 0 .1.1.2.1.3.1.3-.5.8-1.2.8zm.3-16.5c1 0 1.9.6 1.9 1.4 0 .7-.6 1.2-1.5 1.2-1 0-2-.7-1.9-1.5 0-.6.7-1.1 1.5-1.1zM110.2 106.6c1.3-2.8 2.4-4 3.4-4 1.3 0 2 1.9 2 5.6 0 2.4-.2 4.6-.4 5.6-.2.7-.6 1.1-1.2 1.1-.7 0-1.4-.6-1.4-1.1 0-.1 0-.3.1-.5.2-.8.4-2.4.4-3.7 0-1.8-.1-2.8-.4-2.8-.2 0-.5.3-.9.9-1.2 1.9-2.1 4.2-2.2 5.6v.7c0 .5-.6 1-1.3 1-.8 0-1.2-.6-1.2-1.9 0-.4 0-1 .1-1.8l.2-1.7c.1-.7.1-1.4.1-1.8.2-1.8.2-2.3.2-2.8 0-.6 0-.8-.2-1.4 0-.1-.1-.3-.1-.3 0-.5.7-1 1.6-1 .9 0 1.3.5 1.3 1.8v1l-.1 1v.9c-.1-.2 0-.3 0-.4zM151.1 158.5c0-.8.5-1.5 1.2-1.5.8 0 1.5.9 1.5 2 0 .9-.4 1.5-1.2 1.5-.8 0-1.5-.9-1.5-2zM150.3 148.4c.5 0 1.3.4 2 1 .9.8 1.5 1.9 1.5 3 0 1.8-1.3 3.1-3.2 3.1-1.7 0-3.7-.6-5.4-1.6-1.1-.7-1.6-1.3-1.6-1.9 0-1.2 1.3-2.6 2.5-2.6.6 0 1 .5 1 1.1 0 .4-.2.7-.6.8l-.4.1c-.2 0-.2.1-.2.2 0 .2.3.4.9.7 1.2.6 2.6 1 3.6 1s1.6-.4 1.6-1c0-.8-1.1-1.8-2.3-2.2-.4-.1-.5-.3-.5-.7 0-.5.5-1 1.1-1zM143.3 142.6c0-1.7 1.6-2.7 4-2.7 1.8 0 3.7.5 4.9 1.3 1.1.7 1.7 1.7 1.7 2.9 0 2-1.5 3.2-3.9 3.2-1.5 0-3.3-.4-4.8-1.1-1.3-.6-1.9-1.2-1.9-1.8 0-.3.1-.5.3-.7-.3-.4-.3-.7-.3-1.1zm6.9 2.6c1.1 0 1.7-.4 1.7-1 0-1.2-2.4-2.2-4.9-2.2-1.2 0-1.8.3-1.8 1 0 .4.3.8.7 1l.3.1c.2.1.2.2.2.3v.2c1.4.4 2.7.6 3.8.6zM146.7 136l-.6-.4c-1-.7-1.3-.9-1.6-1.3-.3-.3-.4-.5-.4-.8 0-.7 1-1.2 3-1.6-.1-.1-.2-.1-.3-.2l-.8-.4c-1.7-.9-2.6-1.8-2.6-2.6 0-1.1 1.7-1.7 5-1.7 1.8 0 3.5.2 4.4.4.7.2 1.1.6 1.1 1.2s-.4 1.2-.8 1.2c-.1 0-.2 0-.6-.2-.7-.2-2-.4-3.1-.4-.6 0-1.1 0-1.5.1-.4 0-.4.1-.4.2 0 .2.7.8 1.5 1.2.8.4 1.6.7 2.4.9.5.1.6.1 1.6.2.7.1 1 .3 1 .8 0 .6-.3 1.1-.7 1.1-.1 0-.2 0-.4-.1-.4-.1-.9-.1-1.5-.1-1.2 0-2.1.1-2.9.4-.5.2-.6.2-.6.4 0 .1.2.3.6.6.9.6 2.1 1.1 2.9 1.3l.7.1h.2l1-.1s.1 0 .2.1c.4.2.5.5.5.9 0 .9-.5 1.3-2 1.3-.6 0-1.5-.1-3.1-.2l-1.5-.2c-.3 0-.7-.1-1.3-.1h-1c-.1 0-.3 0-.5.1h-.2c-.4 0-.7-.5-.7-1.1 0-.7.3-1.2.9-1.2.2 0 .5 0 .8.1l.8.1c.4.1.7.1 1.2.1-.6 0-.7 0-.7-.1z"/></svg>