<svg xmlns="http://www.w3.org/2000/svg" version="1" viewBox="0 0 200 200"><path fill="#292929" d="M195 100c0 7.37-.84 14.54-2.42 21.43l-55.99-56.25-.01-.01-.65-.66-10.18 27.34-2.2-2.21-59.48-59.75-.14.58-.01.01-12.87 52.07-33.12 49.83-4.51 6.78c-.91-2.02-1.76-4.08-2.52-6.17C7.08 122.72 5 111.6 5 100 5 47.53 47.53 5 100 5s95 42.53 95 95z"/><path fill="#00ADEF" d="M192.58 121.43c-1.85 8-4.7 15.61-8.43 22.7-.99 1.9-2.05 3.76-3.17 5.58C164.26 176.89 134.24 195 100 195c-38.46 0-71.57-22.84-86.52-55.7-.02-.05-.04-.09-.06-.14l4.51-6.78 33.12-49.83 12.88-52.08.14-.58 59.48 59.75 2.2 2.21 10.18-27.34.65.66.01.01 55.99 56.25z"/><path fill="#FFF" d="M149.32 109.74l5.37-10.07-18.1-34.49-.01-.01-.51-.99-12.52 25.46-4.93 10.03 5.1 10.2-12.53 12.51-11.12-21.2-6.9 14.03-18.02-35.4 7.54-14.14-18.62-35.49-.14.29-.01.01-17.3 35.19 5.54 11.08-41.26 56.24c.76 2.09 1.61 4.15 2.52 6.17.02.05.04.09.06.14l4.45-5.92 37.25-50.59 8.89 17.79 7.87-14.76 17.88 36.22-7.2 14.63 17.45 34.91 18.62-34.91-4.67-8.91 12.75-11.79 9.3 18.61 10.36-19.42 34.55 34.55c1.12-1.82 2.18-3.68 3.17-5.58l-34.83-34.39zM64.37 82.88l-8.68-17.35 8.68-17.65 9.25 17.65-9.25 17.35zm36 71l-8.68-17.35 8.68-17.65 9.25 17.65-9.25 17.35zm36-37l-8.68-17.35 8.68-17.65 9.25 17.65-9.25 17.35z"/></svg>