<?xml version="1.0" encoding="utf-8"?>
<!-- Generator: Adobe Illustrator 16.0.0, SVG Export Plug-In . SVG Version: 6.00 Build 0)  -->
<!DOCTYPE svg PUBLIC "-//W3C//DTD SVG 1.0//EN" "http://www.w3.org/TR/2001/REC-SVG-20010904/DTD/svg10.dtd">
<svg version="1.0" id="Layer_1" xmlns="http://www.w3.org/2000/svg" xmlns:xlink="http://www.w3.org/1999/xlink" x="0px" y="0px"
	 width="200px" height="200px" viewBox="0 0 200 200" enable-background="new 0 0 200 200" xml:space="preserve">
<title>Group 2</title>
<desc>Created with Sketch.</desc>
<g id="Page-1">
	<g id="Group-2">
		<circle id="Oval" fill="#7F27FF" cx="100.75" cy="99.25" r="93.75"/>
		<g id="Group" transform="translate(7.000000, 7.000000)">
			<path id="Combined-Shape" fill="#FFFFFF" d="M90.625,79.75H50v40.625C50,129.125,56.875,136,65.625,136h25V79.75z M96.875,79.75
				H137.5v40.625c0,8.75-6.875,15.625-15.625,15.625h-25V79.75z"/>
			<path id="Combined-Shape_1_" fill="#FFFFFF" d="M96.875,73.5h39.375c4.375,0,7.5-3.75,7.5-7.5l0,0c0-4.375-3.75-7.5-7.5-7.5
				H51.875l0,0c-4.375,0-7.5,3.75-7.5,7.5l0,0l0,0c0,4.375,3.75,7.5,7.5,7.5h38.75v-10h6.25V73.5z"/>
			<path id="Path-2" fill="none" stroke="#FFFFFF" d="M98.125,61c8.75-15.625,15.625-20.625,20.625-15.625s1.875,10-8.75,15.625
				H98.125z"/>
			<path id="Path-2_1_" fill="none" stroke="#FFFFFF" d="M89.375,61C80.625,45.375,73.75,40.375,68.75,45.375s-1.875,10,8.75,15.625
				H89.375z"/>
		</g>
	</g>
</g>
</svg>
