<svg xmlns="http://www.w3.org/2000/svg" version="1" viewBox="0 0 200 200"><linearGradient id="a" x1="32.8238" x2="167.1762" y1="167.1762" y2="32.8238" gradientUnits="userSpaceOnUse"><stop offset="0" stop-color="#176fad"/><stop offset="1" stop-color="#083b5e"/></linearGradient><path fill="url(#a)" d="M100 5C47.5 5 5 47.5 5 100s42.5 95 95 95 95-42.5 95-95-42.5-95-95-95zm-1.1 152.6L92.8 174l-10.5-3.9 4.8-12.8-4.2-.6-4.4 12.1-10.8-3.6 3.9-11s-9-3.6-10.5-4.5l5.7-16.6s6.7 4.2 10.8 5.2l6.3-15.7 9.9 3.9-5.1 14.4 4.1.7 5.7-14.3 9.9 3.9-2.9 9.3s13.2-2.5 13.4-17.2c.2-14.7-16.4-19.6-16.4-19.6s-38.3-9.3-38-35.8c.3-26.5 24.1-36.2 41.5-35.8 17.3.4 29.7 7.4 29.7 7.4l-5.4 15.7s-8.9-7-24.7-7c-15.8 0-20.1 10.5-20.1 16.3 0 5.8 2 12.2 13.7 16.9 11.6 4.6 41.5 13.7 40.6 40.6-1 27-25.2 35-40.9 35.6z"/></svg>