<svg xmlns="http://www.w3.org/2000/svg" viewBox="0 0 200 200"><linearGradient id="a" x1="52.9967" x2="145.9306" y1="183.3173" y2="22.3408" gradientTransform="matrix(1 0 0 -1 0 201.9)" gradientUnits="userSpaceOnUse"><stop offset="0" stop-color="#f16659"/><stop offset="1" stop-color="#ed204f"/></linearGradient><circle cx="100" cy="100" r="95" fill="url(#a)"/><linearGradient id="b" x1="61.3691" x2="137.746" y1="34.9897" y2="167.2777" gradientTransform="matrix(1 0 0 -1 0 201.9)" gradientUnits="userSpaceOnUse"><stop offset="0" stop-color="#f16659"/><stop offset="1" stop-color="#ed204f"/></linearGradient><circle cx="100" cy="100" r="78.1" fill="url(#b)"/><path fill="#fff" d="M85.5 131.7L50.4 70.9s-2.6-7 5.6-7h22.6c2.8-.2 5.4 1.1 6.9 3.4 2.5 4.1 37.5 64.8 37.5 64.8L92.9 136c-3.1.1-5.9-1.6-7.4-4.3z" opacity=".7"/><path fill="#fff" d="M92.7 122.7L113.9 86c1.5-2.4 4.2-3.7 7-3.4h22.5s9.3.2 5.8 6.4c-3.5 6.2-24.8 43.2-24.8 43.2s-1.4 3.8-7.1 3.8H89.8s-5.2-.2-1.3-6.5c3.9-6.2 4.2-6.8 4.2-6.8z"/></svg>