<svg xmlns="http://www.w3.org/2000/svg" version="1" viewBox="0 0 200 200">
  <path fill="#afb1b4" d="M119 142.5l-4 1c-2.2.5-5.3 1.1-9.1 1.6V63.8c4.9-2.2 9.3-4.8 12.5-7.8l.4 60.8v1.2l.2 24.5zM82.9 71.3v74.5l-13.1-1.3V73.9c3-.5 7.7-1.3 13.1-2.6zm18.1-5.4v79.7c-3.7.3-8 .5-12.6.4V69.9c4.1-1.1 8.4-2.4 12.6-4z"/>
  <path fill="#114e80" d="M119.5 75.2c9.1-8.8 18.1-17.6 27.3-26.4A2861 2861 0 0 1 135.2 36c20.2-4.2 40.1-8.3 60.5-12.5-6 25.7-14.3 50.5-24.2 74.9-1.7-5.2-3.3-10.4-5.1-16.1-7.7 6.1-15 12.1-22.5 17.8-6.2 4.7-17.2 13.3-20.6 15.9-.7.5-1.4 1.1-2.2 1.5l-2.4 1.9-3.1 2.3-1.6 1.2c-.6.5-1.3 1-2 1.4l-5.9 3.8-2.1 1.2-2.6 1.5-.6.3-12.4 5.9-9.2 4.3-.9.4c-1.9.8-3.8 1.5-5.8 2.1l-2.7.8c-11.8 3.9-23.7 6.6-36.1 4-13.6-2.9-20.7-12.4-25-25 .6-.1 1-.2 1.2-.1 8.7 6.6 18.4 6.2 27.7 2.9 10.4-3.9 35.7-12.6 81.9-51.2"/>
  <path fill="#e34623" d="M89.9 29V13.4h7.3v15.7h10.4V14.3c11.6 1.8 21.9 5.5 32.4 11.9-6.2 1-11.4 1.9-17.3 2.9 4.4 6.6 8.6 12.8 13.1 19.4l-7.5 6.6c-21.6-14.5-44.4-16.5-66.5-1.6s-29 36.7-23.7 62.7c-9 2.4-17.8 3.3-26.9.5-3.2-1-4.7-2.6-5-6.2-2.7-27.6 5.7-51.5 25-71.4 12.6-13 28.2-20.8 45.9-24.5.6-.1 1.2 0 2.3 0V29h10.5z"/>
  <path fill="#83b236" d="M172 114.8c3-7.5 5.6-14.3 8.4-21.3 4.1 7.8-1.9 36.2-8.9 49-16.5 30.2-45.5 43.3-63.7 45v-15.2H97.5v16.5h-7.6v-16.7H79.7V188c-24.2-4.5-43.1-16.4-57.5-35.4 5.2 1.7 10.2 3.9 15.5 5 8.4 1.9 17 1.1 25.1-1.5 6-1.9 11.3-1 17 .6 31.3 8.9 66.4-14.6 70.6-47.1.3-1.9 1.7-4 3.1-5.4 2.8-2.7 6-5 9.5-7.7 3.1 6.2 5.9 11.9 9 18.3z"/>
</svg>
