<?xml version="1.0" encoding="utf-8"?>
<!-- Generator: Adobe Illustrator 22.1.0, SVG Export Plug-In . SVG Version: 6.00 Build 0)  -->
<svg version="1.0" id="Livello_1" xmlns="http://www.w3.org/2000/svg" xmlns:xlink="http://www.w3.org/1999/xlink" x="0px" y="0px"
	 viewBox="0 0 200 200" enable-background="new 0 0 200 200" xml:space="preserve">
<path fill="#1D3448" d="M167.2,127.8L195,100l-27.8-27.8V32.8h-39.4L100,5L72.2,32.8H32.8v39.4L5,100l27.8,27.8v39.4h39.4L100,195
	l27.8-27.8h39.4V127.8z M152.3,152.3h-9.5h-21.1l-14.9,14.9l-6.7,6.7l-6.7-6.7l-14.9-14.9H57.3h-9.5v-9.5v-21.1l-14.9-14.9l-6.7-6.7
	l6.7-6.7l14.9-14.9V57.3v-9.5h9.5h21.1l14.9-14.9l6.7-6.7l6.7,6.7l14.9,14.9h21.1h9.5v9.5v21.1l14.9,14.9l6.7,6.7l-6.7,6.7
	l-14.9,14.9v21.1V152.3z"/>
<polygon fill="#69B493" points="152.3,152.3 142.7,152.3 121.6,152.3 106.7,167.2 100,173.9 93.3,167.2 78.4,152.3 57.3,152.3 
	47.7,152.3 47.7,142.7 47.7,121.6 32.8,106.7 26.1,100 32.8,93.3 47.7,78.4 47.7,57.3 47.7,47.7 57.3,47.7 78.4,47.7 93.3,32.8 
	100,26.1 106.7,32.8 121.6,47.7 142.7,47.7 152.3,47.7 152.3,57.3 152.3,78.4 167.2,93.3 173.9,100 167.2,106.7 152.3,121.6 
	152.3,142.7 "/>
<polygon opacity="0.3" fill="#FFFFFF" points="152.3,121.6 145.5,124.4 130.6,130.6 124.5,145.5 121.7,152.2 115,149.4 100,143.3 
	85.1,149.5 78.4,152.3 75.6,145.5 69.4,130.6 54.5,124.5 47.8,121.7 50.6,115 56.7,100 50.5,85.1 47.7,78.4 54.5,75.6 69.4,69.4 
	75.5,54.5 78.3,47.8 85,50.6 100,56.7 114.9,50.5 121.6,47.7 124.4,54.5 130.6,69.4 145.5,75.5 152.2,78.3 149.4,85 143.3,100 
	149.5,114.9 "/>
<polygon opacity="0.3" fill="#FFFFFF" points="156.5,99.9 151.4,105.1 140,116.5 140,132.7 140,139.9 132.8,139.9 116.6,140 
	105.2,151.4 100.1,156.5 94.9,151.4 83.5,140 67.3,140 60.1,140 60.1,132.8 60,116.6 48.6,105.2 43.5,100.1 48.6,94.9 60,83.5 
	60,67.3 60,60.1 67.2,60.1 83.4,60 94.8,48.6 99.9,43.5 105.1,48.6 116.5,60 132.7,60 139.9,60 139.9,67.2 140,83.4 151.4,94.8 "/>
<polygon opacity="0.4" fill="#FFFFFF" points="101.2,69.5 108.7,63.9 113.4,71.9 122.4,69.6 123.7,78.8 132.9,80.1 130.5,89.1 
	138.6,93.8 133,101.2 138.6,108.7 130.5,113.4 132.9,122.4 123.7,123.7 122.4,132.9 113.4,130.5 108.7,138.6 101.2,133 93.8,138.6 
	89.1,130.5 80.1,132.9 78.8,123.7 69.6,122.4 71.9,113.4 63.9,108.7 69.5,101.2 63.9,93.8 71.9,89.1 69.6,80.1 78.8,78.8 80.1,69.6 
	89.1,71.9 93.8,63.9 "/>
</svg>
