<svg xmlns="http://www.w3.org/2000/svg" viewBox="0 0 200 200"><path d="M95.9 97.1c-3.3.8-5.5 1.6-6.7 3-1.2 1.2-1.7 2.7-1.7 4.6 0 2 .7 3.5 2.2 4.7 1.4 1.2 3.8 1.8 6.8 1.8 2.4 0 4.6-.4 6.7-1.3 2.1-.9 3.8-2.2 5.1-3.8.9-1.2 1.4-2.7 1.8-4.7.3-1.2.3-3.9.3-8.1-1.2.5-2.6 1-4.4 1.6-1.7.5-5.1 1.3-10.1 2.2z"/><path d="M100 5.8C47.5 5.8 5 48.1 5 100c0 52.1 42.5 94.2 95 94.2s95-42.3 95-94.2c0-52.1-42.5-94.2-95-94.2zM139.6 150h-77v-7.9h77.1v7.9zm3.2-24.4h-30.2l-1.4-7.9c-3.7 3.4-7.7 5.9-12 7.6-4.3 1.6-9.3 2.5-14.8 2.5-9.3 0-16-2.2-20.4-6.5s-6.7-9.6-6.7-15.6c0-3.4.8-6.7 2.4-9.9 1.6-3.3 3.7-5.8 6.4-7.6 2.7-2 6.7-3.4 11.5-4.4 4.8-1.2 11.9-2.2 21.3-3.3 4.8-.5 7.9-1.2 9.2-1.8 2-1.2 2.9-2.7 2.9-4.8 0-1.7-.8-3.3-2.4-4.4-1.4-1.2-4.1-1.7-8-1.7-3.7 0-6.4.7-7.9 1.8-1.6 1.3-2.5 3.1-2.6 5.4H61.8c.4-4.6 1.3-8.4 2.7-11 1.6-2.7 3.8-5.1 6.8-7.1 3.9-2.5 8.6-4.2 14-5.2s10.9-1.6 16.6-1.6c5.5 0 10.5.4 14.8 1 4.3.8 8.1 2 11 3.5 3 1.7 5.5 3.4 7.1 5.4 1.6 2 2.9 4.6 3.5 7.7.5 1.8.8 5.6.8 11.3v37.6c0 3.3 1.3 6 3.9 7.9v1.3h-.2z"/></svg>