<svg xmlns="http://www.w3.org/2000/svg" version="1" viewBox="0 0 200 200"><circle cx="100" cy="99.8" r="94.8" fill="#FFF"/><path fill="#4C4C4C" d="M100 5.3c52.1 0 94.5 42.4 94.5 94.5s-42.4 94.5-94.5 94.5S5.5 151.9 5.5 99.8 47.9 5.3 100 5.3m0-.5c-52.5 0-95 42.5-95 95s42.5 95 95 95 95-42.5 95-95-42.5-95-95-95z"/><path fill="#4C4C4C" d="M25.9 150.8l148.2.1c-16.2 23.5-43.4 38.9-74.1 38.9-30.7 0-57.9-15.5-74.1-39z"/><path fill="#F60" d="M190 99.8v2.9c0 .6 0 1.2-.1 1.8 0 .7-.1 1.4-.1 2.1-.1 1.3-.2 2.6-.4 3.9 0 .5-.1.9-.2 1.4l-.6 3.9c-.1.7-.2 1.3-.4 2-.1.5-.2.9-.3 1.4-.1.5-.2.9-.3 1.4-.1.6-.3 1.1-.4 1.7-.1.6-.3 1.1-.4 1.6-.1.5-.3.9-.4 1.3-.8 2.7-1.7 5.3-2.7 7.9-.2.5-.4.9-.6 1.4-.2.5-.5 1.1-.7 1.6H17.6c-.4-.9-.8-1.7-1.1-2.6 0-.1 0-.1-.1-.2-.2-.4-.3-.8-.5-1.2-.1-.2-.2-.4-.2-.6-.2-.4-.3-.8-.4-1.2-.5-1.3-.9-2.5-1.3-3.8-.2-.5-.3-.9-.4-1.4-.1-.4-.2-.8-.4-1.2-.3-1.1-.6-2.2-.8-3.3-.1-.4-.2-.7-.3-1.1-.1-.4-.2-.8-.3-1.1 0-.2-.1-.4-.1-.6-.1-.5-.2-.9-.3-1.4-.3-1.4-.5-2.8-.7-4.3-.1-.5-.1-1-.2-1.5-.2-1.3-.3-2.6-.4-3.9 0-.7-.1-1.4-.1-2.1 0-.6-.1-1.2-.1-1.8v-.9-2c0-49.7 40.3-90 90-90S190 50 190 99.8z"/><g><path fill="#E9E9E9" d="M49.3 96.8l37.2 41-11 37z"/><path fill="#FFF" d="M139.5 124.5l-64 50.3 11-37z"/><path fill="#F6F6F6" d="M89.3 128.5l14.5-47.2-51.8 7z"/><path fill="#E9E9E9" d="M120 26.5l-16.2 54.8-51.8 7z"/><path fill="#FFF" d="M142.5 116l-53.2 12.5 14.5-47.2z"/><path fill="#F6F6F6" d="M103.8 81.3L120 26.5l22.5 89.5z"/></g></svg>