<svg xmlns="http://www.w3.org/2000/svg" viewBox="0 0 200 200"><linearGradient id="a" x1="42.2093" x2="173.2487" y1="141.5819" y2="10.5425" gradientUnits="userSpaceOnUse"><stop offset="0" stop-color="#4985d3"/><stop offset="1" stop-color="#391687"/></linearGradient><path fill="url(#a)" fill-rule="evenodd" d="M89.4 110.6c-23.3 0-42.2-18.9-42.2-42.2 0-23.3 18.9-42.2 42.2-42.2 23.3 0 42.2 18.9 42.2 42.2.1 23.3-18.8 42.2-42.2 42.2M89.4 5c35 0 63.3 28.4 63.3 63.3s-28.4 63.3-63.3 63.3c-35 0-63.3-28.4-63.3-63.3S54.5 5 89.4 5zm60.3 129.8c4.1 4.1 4.1 10.8 0 14.9l-42.2 42.2c-4.1 4.1-10.8 4.1-14.9 0s-4.1-10.8 0-14.9l42.2-42.2c4.1-4.2 10.8-4.2 14.9 0zm24.2-119.2c0 5.8-4.7 10.6-10.6 10.6-5.8 0-10.6-4.7-10.6-10.6S157.5 5 163.3 5c5.9 0 10.6 4.7 10.6 10.6z" clip-rule="evenodd"/></svg>