<svg xmlns="http://www.w3.org/2000/svg" viewBox="0 0 200 200"><g fill-rule="evenodd" clip-rule="evenodd"><circle cx="100" cy="100" r="95" fill="#24fbd3"/><path fill="#f60c56" d="M99.9 17.9l-4.1 7.9-19.4 12.3-4.2.1s-12.9 7.4-12.8 7.5l4.9.1S38.6 62 38.5 62.1c-.1.1.2 76.5.2 76.5s-12.5 7.9-12.5 8l14.2.1s5.2 3.1 6.7 4c3.6 2.1 3.5 1.9 1 1.9-1.1 0-2 0-2 .1s12.8 8.4 12.8 8.4h5.7l35.5 21.1 9.7-5.8h5.7s12.8-7.8 12.8-7.9l-5-.1 36.2-21.7s14.4 0 14.4-.1c0 0-11.4-7.2-11.5-7.3-.1-.1-.6-76.4-.6-76.4s-12.2-7.7-12.2-7.8l7.8-.1-11.1-6.5h-7.4l-34.4-21.8-4.6-8.8zM87.5 42.1l-40.9 80.8-.1-55c-.1 0 41-25.8 41-25.8m65.4 26.1s.2 54.4.1 54.3c-.1-.1-40.3-79.6-40.2-79.6l40.1 25.3zm-6.9 60.9l-42.2-26.3V82.5c0-21.3.1-36.3.2-36.2l42 82.8zm-92-.3c0-.1 40.6-80.1 40.6-80.1v54.5c0 .1-40.7 25.8-40.6 25.6zm46.8-17c.4.3 41.2 25.6 41.2 25.6-.1.1-84 .1-84 0 0 0 41.1-25.6 41.4-25.8.7-.3.5-.3 1.4.2m40.7 34.9L100 171.5l-41.5-24.8c-.1-.1 83-.1 83 0"/></g></svg>