<?xml version="1.0" encoding="utf-8"?>
<!-- Generator: Adobe Illustrator 22.1.0, SVG Export Plug-In . SVG Version: 6.00 Build 0)  -->
<svg version="1.0" id="Livello_1" xmlns="http://www.w3.org/2000/svg" xmlns:xlink="http://www.w3.org/1999/xlink" x="0px" y="0px"
	 viewBox="0 0 200 200" style="enable-background:new 0 0 200 200;" xml:space="preserve">
<g>
	<polygon points="114.2,123.2 133.2,142.3 197.5,78.2 181.3,18.7 121.8,2.8 114.3,10.5 139.3,35.4 159.3,40.5 167.5,69.7 	"/>
	<polygon points="123.1,86 142.3,67.1 78.5,2.5 18.9,18.4 2.7,77.8 10.4,85.4 35.4,60.4 40.7,40.4 69.9,32.4 	"/>
	<polygon points="85.7,77.1 66.6,58.1 2.5,122.4 18.9,181.9 78.4,197.5 86,189.7 60.8,165 40.8,159.9 32.6,130.7 	"/>
	<polygon points="77,114.1 58,133.1 122.1,197.4 181.6,181.2 197.5,121.8 189.7,114.2 164.9,139.3 159.7,159.3 130.6,167.4 	"/>
</g>
</svg>
