<?xml version="1.0" encoding="UTF-8" standalone="no"?><!DOCTYPE svg PUBLIC "-//W3C//DTD SVG 1.1//EN" "http://www.w3.org/Graphics/SVG/1.1/DTD/svg11.dtd"><svg width="100%" height="100%" viewBox="0 0 60 60" version="1.1" xmlns="http://www.w3.org/2000/svg" xmlns:xlink="http://www.w3.org/1999/xlink" xml:space="preserve" style="fill-rule:evenodd;clip-rule:evenodd;stroke-linecap:round;stroke-linejoin:round;stroke-miterlimit:1.41421;"><path d="M30,0c16.557,0 30,13.443 30,30c0,16.557 -13.443,30 -30,30c-16.557,0 -30,-13.443 -30,-30c0,-16.557 13.443,-30 30,-30ZM30,7.656c12.332,0 22.344,10.012 22.344,22.344c0,12.332 -10.012,22.344 -22.344,22.344c-12.332,0 -22.344,-10.012 -22.344,-22.344c0,-12.332 10.012,-22.344 22.344,-22.344Z" style="fill:#67c5ba;"/><path d="M43.678,28.045c0,0 -7.865,0 -9.275,0c-0.119,0 -0.216,0.096 -0.216,0.215c0,2.083 0,18.567 0,18.567l-8.77,0c0,0 0,-16.303 0,-18.531c0,-0.067 -0.026,-0.13 -0.074,-0.178c-0.047,-0.047 -0.111,-0.073 -0.177,-0.073c-1.503,0 -9.24,0 -9.24,0l0,-8.281l27.752,0l0,8.281Z" style="fill:#67c5ba;stroke-width:0.09px;stroke:#67c5ba;"/></svg>