<?xml version="1.0" encoding="utf-8"?>
<!-- Generator: Adobe Illustrator 22.1.0, SVG Export Plug-In . SVG Version: 6.00 Build 0)  -->
<svg version="1.1" id="Livello_1" xmlns="http://www.w3.org/2000/svg" xmlns:xlink="http://www.w3.org/1999/xlink" x="0px" y="0px"
	 viewBox="0 0 200 200" style="enable-background:new 0 0 200 200;" xml:space="preserve">
<style type="text/css">
	.st0{fill:#7E829C;}
	.st1{fill:#5F6377;}
	.st2{fill:#FFFFFF;}
</style>
<g>
	<path class="st0" d="M97.7,47.7c-1.3,2-2.6,3.7-3.7,5.5C87.2,63,80.3,72.7,73.4,82.3c-4.7,6.8-9.6,13.5-14.3,20.3
		c-0.5,0.8-0.7,1.4-0.1,2.3c1,1.5,1.7,3.2,2.6,4.7c5.2,9.9,10.5,19.7,15.8,29.7c2.7,5,5.3,10.1,7.9,15.1c0.6,1.2,1.3,1.7,2.7,1.7
		c7.7-0.1,15.4-0.1,23.1,0c1.5,0,2.2-0.6,2.8-1.8c2.9-5.6,5.9-11.2,8.9-16.8c5.2-9.8,10.3-19.6,15.7-29.3c1.8-3.3,1.8-5.5-0.6-8.5
		c-7.2-9.1-13.9-18.6-20.9-27.8c-3.7-4.7-7.3-9.5-11-14.2C103.1,54.5,100.5,51.2,97.7,47.7z"/>
	<path class="st1" d="M11.9,102.4c2.9,2.6,5.4,5,8.1,7.4c4.2,3.9,8.5,8,12.7,11.9s8.5,8,12.7,11.9c4.2,3.9,8.5,8,12.7,12
		c3.5,3.3,6.8,6.6,10.3,9.9c0.4,0.4,1,0.8,1.5,0.8c3,0.1,5.9,0,9.2,0c-0.7-1.2-1.3-2.2-1.8-3.3c-3-5.6-6-11.2-9-16.9
		c-5.6-10.6-11.2-21.1-16.8-31.7c-0.5-1-0.7-1.8,0.2-2.8c1.1-1.3,2-2.9,3-4.3C59.8,90,65.1,82.5,70.4,75c-3.7-3.2-7.5-6.3-11.2-9.5
		c-4.5-3.7-9.2-7.5-13.7-11.3c-1-0.8-1.6-1.2-2.5,0.2C35.1,66.7,27.2,79,19.2,91.2C16.7,95,14.2,98.6,11.9,102.4z"/>
	<path class="st1" d="M122.4,156.1c2.3,0,4.2,0.1,6.2,0c0.7,0,1.6-0.4,2.2-0.9c2.9-2.6,5.7-5.1,8.5-7.7c4.3-4.1,8.8-8.3,13.1-12.4
		c3.6-3.5,7.1-6.9,10.8-10.4c2.2-2.2,4.4-4.2,6.7-6.3c5.3-5,10.9-10.1,16.2-15.1c0.8-0.7,0.9-1.2,0.2-2.2c-2.4-3.5-4.5-7.1-6.8-10.6
		c-6.8-10.5-13.7-20.8-20.5-31.3c-1.3-1.9-2.5-3.8-3.7-5.7c-8.9,7.3-17.7,14.5-26.5,21.8c6.4,8.5,12.9,17,19.3,25.6
		c0.3,0.4,0.5,1.3,0.3,1.8c-0.9,2.1-1.9,4.1-2.9,6.1c-4.7,9.9-9.5,19.7-14.2,29.5C128.2,144.2,125.3,150,122.4,156.1z"/>
	<path class="st2" d="M108.7,50.6c3.6,4.5,7.1,9.2,10.8,13.7c1.7,2.1,3.4,4.2,5,6.4c10.9-9,21.6-17.9,32.5-26.7
		c0.3,0.4,0.6,0.7,0.8,1c2.4,3.7,4.8,7.5,7.2,11.2c5.9,9.1,11.8,18.2,17.8,27.1c4.4,6.7,8.9,13.4,13.3,20.2c0,0.2,0,0.5,0,0.7
		c-1.6,1.4-3.2,2.8-4.6,4.1c-3.5,3.3-6.8,6.6-10.2,9.9c-4.3,4.1-8.6,8.2-12.9,12.2c-3.7,3.5-7.3,6.8-11,10.3
		c-4.6,4.4-9.3,8.9-13.9,13.2c-3,2.8-5.9,5.5-9,8.3c-0.4,0.4-1.1,0.7-1.7,0.7c-8,0.2-16,0.4-24,0.4c-14,0-28-0.2-42-0.4
		c-0.7,0-1.5-0.4-2-0.9c-3.4-3.2-6.7-6.5-10.1-9.7c-4.1-3.9-8.4-7.9-12.5-11.8c-4.1-3.9-8.3-7.8-12.4-11.7
		c-4.1-3.9-8.3-7.8-12.4-11.7c-4.3-4.1-8.8-8.2-13-12.3c-0.3-0.3-0.4-1.3-0.1-1.6C7,98.5,10,94,13,89.4
		c8.2-12.5,16.4-25.2,24.7-37.7c1.6-2.5,3.2-5,4.9-7.7c10.6,8.7,21.1,17.4,31.8,26.1c1.1-1.4,2.1-2.8,3-4c6.5-9.3,13-18.6,19.5-27.9
		c0.3-0.4,0.7-1.1,1-1.6L108.7,50.6z M97.8,48.2c-1.3,1.9-2.5,3.7-3.7,5.4c-6.8,9.6-13.5,19.1-20.3,28.8
		c-4.7,6.7-9.4,13.4-14.1,20.1c-0.5,0.8-0.7,1.4-0.1,2.3c1,1.5,1.7,3.2,2.6,4.7c5.2,9.8,10.4,19.5,15.6,29.3
		c2.7,4.9,5.2,10,7.8,14.9c0.6,1.1,1.3,1.7,2.7,1.7c7.6-0.1,15.2-0.1,22.8,0c1.5,0,2.2-0.6,2.8-1.8c2.9-5.5,5.8-11.1,8.8-16.6
		c5.1-9.7,10.2-19.4,15.5-29c1.8-3.3,1.8-5.4-0.6-8.4c-7.1-9-13.8-18.4-20.7-27.5c-3.6-4.7-7.2-9.4-10.9-14
		C103,54.8,100.5,51.6,97.8,48.2z M12.4,102.4c2.8,2.6,5.3,4.9,7.9,7.3c4.1,3.9,8.3,7.8,12.4,11.7c4.1,3.9,8.3,7.8,12.4,11.7
		c4.1,3.9,8.3,7.8,12.4,11.7c3.4,3.3,6.7,6.5,10.1,9.7c0.4,0.4,1,0.8,1.5,0.8c2.9,0.1,5.8,0,9,0c-0.7-1.2-1.2-2.2-1.8-3.2
		c-3-5.5-5.8-11.1-8.8-16.6c-5.5-10.4-11-20.7-16.5-31c-0.5-1-0.7-1.8,0.2-2.8c1.1-1.3,2-2.9,3-4.2c5.1-7.4,10.4-14.7,15.5-22.1
		c-3.7-3.2-7.4-6.2-11.1-9.3c-4.4-3.7-9-7.4-13.5-11.1c-1-0.8-1.5-1.1-2.3,0.3c-7.8,12-15.6,24-23.4,36
		C17.1,95.2,14.7,98.8,12.4,102.4z M122.9,155.5c2.3,0,4.1,0.1,6.1,0c0.7,0,1.6-0.4,2.1-0.9c2.9-2.5,5.6-5,8.4-7.6
		c4.3-4,8.7-8.1,12.9-12.2c3.6-3.4,7-6.8,10.6-10.2c2.2-2.1,4.3-4.1,6.6-6.2c5.3-4.9,10.6-10,15.9-14.9c0.8-0.7,0.9-1.2,0.2-2.2
		c-2.4-3.4-4.4-6.9-6.7-10.4c-6.7-10.4-13.4-20.6-20.1-31c-1.3-1.9-2.5-3.7-3.7-5.6c-8.8,7.2-17.4,14.3-26.1,21.5
		c6.3,8.4,12.7,16.8,19,25.2c0.3,0.4,0.5,1.3,0.3,1.8c-0.9,2.1-1.9,4-2.8,6c-4.6,9.7-9.4,19.4-14,29.1
		C128.7,143.6,125.8,149.3,122.9,155.5z"/>
</g>
</svg>
