<?xml version="1.0" standalone="no"?>
<!DOCTYPE svg PUBLIC "-//W3C//DTD SVG 20010904//EN"
 "http://www.w3.org/TR/2001/REC-SVG-20010904/DTD/svg10.dtd">
<svg version="1.0" xmlns="http://www.w3.org/2000/svg"
 width="2102.000000pt" height="2102.000000pt" viewBox="0 0 2102.000000 2102.000000"
 preserveAspectRatio="xMidYMid meet">

<g transform="translate(0.000000,2102.000000) scale(0.100000,-0.100000)"
fill="#000000" stroke="none">
<path d="M9950 19673 c-1685 -73 -3225 -556 -4634 -1455 -1546 -987 -2810
-2482 -3522 -4170 -43 -103 -80 -185 -82 -184 -1 2 31 94 73 204 215 574 494
1136 823 1660 88 138 49 91 -66 -80 -383 -573 -675 -1129 -927 -1763 -824
-2075 -871 -4421 -129 -6534 566 -1609 1560 -3030 2889 -4126 344 -284 809
-612 1148 -809 69 -41 57 -25 -15 19 -127 78 -423 278 -571 386 -800 586
-1527 1329 -2087 2129 -40 58 -77 111 -83 118 -5 6 -7 12 -4 12 3 0 47 -57 98
-127 308 -421 728 -895 1110 -1252 1463 -1371 3269 -2214 5249 -2450 612 -73
1308 -82 1935 -25 3064 277 5792 2073 7274 4787 371 680 654 1404 850 2177 54
214 65 237 25 53 -228 -1056 -640 -2052 -1235 -2985 -48 -76 -86 -138 -83
-138 2 0 48 66 102 148 860 1287 1386 2775 1526 4317 50 543 50 1171 0 1720
-140 1557 -675 3059 -1552 4360 -63 94 -119 175 -125 180 -12 11 -8 4 96 -159
234 -370 489 -865 674 -1306 73 -173 196 -500 191 -506 -2 -1 -30 61 -62 139
-351 849 -890 1720 -1514 2444 -1568 1824 -3774 2964 -6157 3182 -383 35 -875
49 -1215 34z m50 -3733 l0 -1180 -25 0 c-59 0 -313 -43 -443 -75 -171 -42
-344 -106 -512 -190 -361 -181 -550 -435 -606 -817 -57 -392 53 -665 371 -913
264 -206 541 -337 978 -462 l237 -68 0 -1321 0 -1322 -57 14 c-839 201 -1148
286 -1593 433 -347 116 -461 161 -725 291 -665 327 -1136 701 -1418 1123 -221
331 -395 753 -472 1145 -53 272 -60 352 -60 732 0 397 9 503 70 805 104 514
301 946 618 1355 108 138 391 422 542 541 718 571 1576 926 2520 1044 221 28
380 41 498 44 l77 1 0 -1180z m921 1155 c1266 -119 2457 -552 3579 -1301 196
-131 383 -265 384 -275 1 -7 -1292 -2019 -1308 -2036 -8 -9 -45 14 -151 93
-347 261 -705 483 -1075 668 -543 271 -1046 431 -1559 495 l-136 17 -3 1177
-2 1177 53 0 c29 0 127 -7 218 -15z m-77 -5056 c60 -11 283 -64 495 -119 996
-255 1251 -335 1701 -535 1014 -450 1506 -862 1879 -1576 221 -424 341 -814
397 -1294 25 -209 25 -699 0 -910 -84 -725 -306 -1281 -709 -1783 -315 -392
-780 -754 -1332 -1038 -724 -373 -1498 -562 -2416 -591 l-209 -6 0 1170 0
1170 213 11 c1060 59 1615 437 1723 1174 24 168 16 418 -20 552 -47 182 -145
340 -278 454 -86 74 -249 185 -397 272 -143 85 -312 160 -502 224 -111 38
-535 163 -696 205 l-43 12 0 1323 0 1324 43 -10 c23 -5 91 -18 151 -29z m8503
-3591 c-3 -7 -5 -2 -5 12 0 14 2 19 5 13 2 -7 2 -19 0 -25z m-10 -50 c-3 -7
-5 -2 -5 12 0 14 2 19 5 13 2 -7 2 -19 0 -25z m-12172 -594 c602 -480 1212
-815 1875 -1028 255 -82 620 -165 868 -197 l92 -12 0 -1173 0 -1174 -32 0
c-64 0 -476 50 -658 80 -1144 188 -2223 594 -3126 1177 -272 175 -575 403
-821 616 l-93 80 28 36 c15 21 353 463 750 983 l724 947 122 -108 c67 -59 189
-161 271 -227z"/>
<path d="M17919 5033 c-13 -16 -12 -17 4 -4 16 13 21 21 13 21 -2 0 -10 -8
-17 -17z"/>
<path d="M5580 2386 c0 -3 9 -10 20 -16 11 -6 20 -8 20 -6 0 3 -9 10 -20 16
-11 6 -20 8 -20 6z"/>
<path d="M5630 2356 c0 -3 9 -10 20 -16 11 -6 20 -8 20 -6 0 3 -9 10 -20 16
-11 6 -20 8 -20 6z"/>
</g>
</svg>
