<?xml version="1.0" encoding="utf-8"?>
<!-- Generator: Adobe Illustrator 22.1.0, SVG Export Plug-In . SVG Version: 6.00 Build 0)  -->
<svg version="1.0" id="Livello_1" xmlns="http://www.w3.org/2000/svg" xmlns:xlink="http://www.w3.org/1999/xlink" x="0px" y="0px"
	 viewBox="0 0 200 200" enable-background="new 0 0 200 200" xml:space="preserve">
<linearGradient id="SVGID_1_" gradientUnits="userSpaceOnUse" x1="7.2421" y1="115.1666" x2="14.7802" y2="108.8414">
	<stop  offset="0" style="stop-color:#FF67CB"/>
	<stop  offset="1" style="stop-color:#FFCC67"/>
</linearGradient>
<path fill="url(#SVGID_1_)" d="M5,111.1c2-1.9,4-3.8,5.9-5.5c2.2,2.2,4.4,4.4,6.4,6.3c-1.9,2-3.9,4.2-6,6.5c-2.1-2-4.2-3.9-6.3-5.8
	C5,112,5,111.5,5,111.1z"/>
<linearGradient id="SVGID_2_" gradientUnits="userSpaceOnUse" x1="54.3558" y1="144.0102" x2="162.4243" y2="35.9417">
	<stop  offset="0" style="stop-color:#FF67CB"/>
	<stop  offset="0.9867" style="stop-color:#FFCC67"/>
</linearGradient>
<path fill="url(#SVGID_2_)" d="M121,148.7c-8.1,2.8-14.8,0.8-20.6-4.8c-16.1,9.1-31.8,8.9-47.1-1.7c-9.5-6.6-17.7-20.6-17.3-25.3
	c1,1.4,1.8,2.5,2.8,3.9c2.2-2.4,3.9-4.2,5.8-6.2c2.4,2.6,4.8,5.2,7.3,7.9c1.7-1.8,3.4-3.6,5.2-5.6c4.6,6.1,10.1,10.5,17.7,11.8
	c3.5,0.6,6.9,0.3,10.5-1.1c-4.3-4.5-8.4-8.7-12.5-13.1c-1.1-1.3-2.2-2.8-2.7-4.4c-1.3-3.6-0.1-6.3,3.4-8.1c4.3-2.2,8.9-2.1,13.1-0.2
	c2.6,1.1,5.2,2.8,7.2,4.9c8.4,8.5,16.5,17.2,24.7,25.8c0.4,0.4,0.9,0.8,1.6,1.6c0-5.5,0-10.6,0-15.9c-0.7,0.1-1.3,0.2-1.9,0.4
	c-3.7,1.5-6.8,0.3-9.2-2.5c-3.5-4-5.1-8.2-3.9-13.9c2.4-11.8-0.3-22.6-8.4-31.7C86,58.5,68,60,58.2,73.5c-1.1,1.5-2.1,3.2-2.9,4.3
	c-4.9-4.6-9.7-9.1-14.7-13.8C48.3,52.6,58,44.4,71.6,42c18-3.1,31.9,4.1,42.5,18.4c5.6,7.5,8.6,16.1,10,25.2c0.2,1.5,0.6,1.9,2.2,2
	c7.2,0.5,12.9,3.5,16.4,10.1c0.3,0.5,0.7,1.1,1.2,1.3c9.6,4.4,23.2,1.5,28.3-9.1c3.6-7.5,0.1-16.7-8-21c-2.8-1.5-5.8-2.4-9.1-2.3
	c-7.2,0.2-14.3,0.1-21.5,0c-7.5,0-16-6.6-18.3-13.8c-1.1-3.6,0.6-8.1,5.8-7.9c11.8,0.3,23.6-0.2,35.3,0.2
	c16.1,0.5,33.2,11.9,37.6,30.7c4.2,18.1-7.2,37.3-25.4,43.6c-8.3,2.9-16.7,3.5-25.6,1.5c-0.1,1-0.1,1.8-0.1,2.6c0,7.1,0,14.2,0,21.2
	c0,5.2-3.1,8.5-8.3,8.8c-1.1,0.1-2.2,0-3.3,0.1C126.8,154.3,123.1,153.2,121,148.7z"/>
<linearGradient id="SVGID_3_" gradientUnits="userSpaceOnUse" x1="68.8895" y1="192.7098" x2="131.6667" y2="129.9326">
	<stop  offset="0" style="stop-color:#FF67CB"/>
	<stop  offset="0.9867" style="stop-color:#FFCC67"/>
</linearGradient>
<path fill="url(#SVGID_3_)" d="M163.1,161.4c-32.2,34-89.7,36.7-125.7-0.2c2.6,0.2,4.8-0.7,6.9,1.3c11.6,10.6,25.1,17.4,40.5,20.2
	c26.1,4.7,49.5-1.6,70.2-18.3C159.2,161,159.2,161,163.1,161.4z"/>
<linearGradient id="SVGID_4_" gradientUnits="userSpaceOnUse" x1="69.788" y1="67.995" x2="131.4218" y2="6.3612">
	<stop  offset="0" style="stop-color:#FF67CB"/>
	<stop  offset="0.9867" style="stop-color:#FFCC67"/>
</linearGradient>
<path fill="url(#SVGID_4_)" d="M162.1,37c-3.5,1-5.8,0-8-1.8c-11.3-9.5-24.2-15.5-38.8-18c-26.2-4.4-49.5,2.2-70,19
	c-1.3,1-3.4,1-5.7,1.6C45.3,27.5,74.3,14,90.1,12.6C117.7,10,141.4,18.1,162.1,37z"/>
<linearGradient id="SVGID_5_" gradientUnits="userSpaceOnUse" x1="32.0125" y1="84.0699" x2="44.8781" y2="73.2744">
	<stop  offset="0" style="stop-color:#FF67CB"/>
	<stop  offset="1" style="stop-color:#FFCC67"/>
</linearGradient>
<path fill="url(#SVGID_5_)" d="M38.1,67.3c4.1,4.2,7.8,8,11.5,11.7c-3.5,3.6-7.1,7.3-10.7,11c-3.9-3.8-7.7-7.6-11.5-11.3
	C31,74.9,34.5,71.1,38.1,67.3z"/>
<linearGradient id="SVGID_6_" gradientUnits="userSpaceOnUse" x1="18.0206" y1="108.2984" x2="28.4708" y2="99.5297">
	<stop  offset="0" style="stop-color:#FF67CB"/>
	<stop  offset="1" style="stop-color:#FFCC67"/>
</linearGradient>
<path fill="url(#SVGID_6_)" d="M14.1,103.6c3-3,6-6,9.1-9c3,3.1,6.1,6.3,8.9,9.2c-2.8,3-5.7,6.1-8.4,9.1
	C20.4,109.7,17.2,106.7,14.1,103.6z"/>
<linearGradient id="SVGID_7_" gradientUnits="userSpaceOnUse" x1="14.4006" y1="89.1884" x2="24.8836" y2="80.3922">
	<stop  offset="0" style="stop-color:#FF67CB"/>
	<stop  offset="1" style="stop-color:#FFCC67"/>
</linearGradient>
<path fill="url(#SVGID_7_)" d="M10.7,84.8c3.1-3.3,5.9-6.4,8.7-9.4c3.3,3.4,6.3,6.5,9.1,9.4c-2.6,2.9-5.5,6.1-8.3,9.2
	C16.8,90.6,13.7,87.6,10.7,84.8z"/>
<linearGradient id="SVGID_8_" gradientUnits="userSpaceOnUse" x1="37.0561" y1="110.4518" x2="46.0936" y2="102.8684">
	<stop  offset="0" style="stop-color:#FF67CB"/>
	<stop  offset="1" style="stop-color:#FFCC67"/>
</linearGradient>
<path fill="url(#SVGID_8_)" d="M49.1,106.5c-2.4,2.7-4.8,5.5-7.2,8.1c-3-2.9-5.7-5.7-8.4-8.3c2.5-2.5,5.2-5.1,7.9-7.8
	C44,101.2,46.8,104,49.1,106.5z"/>
<linearGradient id="SVGID_9_" gradientUnits="userSpaceOnUse" x1="44.5682" y1="97.506" x2="52.6369" y2="90.7355">
	<stop  offset="0" style="stop-color:#FF67CB"/>
	<stop  offset="1" style="stop-color:#FFCC67"/>
</linearGradient>
<path fill="url(#SVGID_9_)" d="M48.6,87.3c2.2,2.2,4.5,4.5,6.9,6.8c-2.3,2.3-4.6,4.7-6.9,6.9c-2.3-2.3-4.7-4.7-6.9-7
	C43.8,92,46.1,89.7,48.6,87.3z"/>
<linearGradient id="SVGID_10_" gradientUnits="userSpaceOnUse" x1="49.0222" y1="116.1149" x2="55.3228" y2="110.8281">
	<stop  offset="0" style="stop-color:#FF67CB"/>
	<stop  offset="1" style="stop-color:#FFCC67"/>
</linearGradient>
<path fill="url(#SVGID_10_)" d="M46.7,113.3c1.8-1.9,3.5-3.8,5.3-5.7c2,2.2,3.9,4.2,5.9,6.4c-1.6,1.6-3.6,3.4-5.5,5.2
	C50.5,117.2,48.6,115.3,46.7,113.3z"/>
<linearGradient id="SVGID_11_" gradientUnits="userSpaceOnUse" x1="28.7194" y1="96.3471" x2="35.2444" y2="90.8721">
	<stop  offset="0" style="stop-color:#FF67CB"/>
	<stop  offset="1" style="stop-color:#FFCC67"/>
</linearGradient>
<path fill="url(#SVGID_11_)" d="M37.4,93.5c-1.6,1.8-3.4,3.8-5,5.6c-2.2-2-4.2-3.9-6.3-5.9c2-1.9,3.9-3.7,5.9-5.5
	C33.9,89.8,35.8,91.8,37.4,93.5z"/>
<linearGradient id="SVGID_12_" gradientUnits="userSpaceOnUse" x1="30.0704" y1="115.1801" x2="34.634" y2="111.3508">
	<stop  offset="0" style="stop-color:#FF67CB"/>
	<stop  offset="1" style="stop-color:#FFCC67"/>
</linearGradient>
<path fill="url(#SVGID_12_)" d="M32.3,117.3c-1.4-1.5-2.6-2.8-3.9-4.1c1.4-1.3,2.6-2.6,3.7-3.7c1.3,1.2,2.7,2.5,4.1,3.8
	C35,114.5,33.7,115.8,32.3,117.3z"/>
<linearGradient id="SVGID_13_" gradientUnits="userSpaceOnUse" x1="23.6523" y1="71.8633" x2="27.9619" y2="68.2471">
	<stop  offset="0" style="stop-color:#FF67CB"/>
	<stop  offset="1" style="stop-color:#FFCC67"/>
</linearGradient>
<path fill="url(#SVGID_13_)" d="M22,69.9c1.4-1.4,2.6-2.6,4-4c1.2,1.4,2.4,2.8,3.6,4.3c-1,1-2.2,2.3-3.6,3.7
	C24.7,72.6,23.4,71.3,22,69.9z"/>
<linearGradient id="SVGID_14_" gradientUnits="userSpaceOnUse" x1="51.7375" y1="85.995" x2="55.7288" y2="82.6459">
	<stop  offset="0" style="stop-color:#FF67CB"/>
	<stop  offset="1" style="stop-color:#FFCC67"/>
</linearGradient>
<path fill="url(#SVGID_14_)" d="M57.1,84.3c-1,1.1-2,2.2-3.1,3.4c-1.4-1.3-2.6-2.5-3.9-3.7c1.3-1.2,2.5-2.3,3.6-3.3
	C54.8,81.9,55.9,83.1,57.1,84.3z"/>
<linearGradient id="SVGID_15_" gradientUnits="userSpaceOnUse" x1="10.3419" y1="99.1378" x2="14.302" y2="95.8149">
	<stop  offset="0" style="stop-color:#FF67CB"/>
	<stop  offset="1" style="stop-color:#FFCC67"/>
</linearGradient>
<path fill="url(#SVGID_15_)" d="M12.6,94.2c0.8,0.8,1.9,1.9,3.1,3.2c-1.1,1.1-2.2,2.3-3.4,3.4c-1.2-1.3-2.3-2.4-3.6-3.7
	C9.8,96.3,11.1,95.3,12.6,94.2z"/>
</svg>
