<svg xmlns="http://www.w3.org/2000/svg" id="Livello_1" viewBox="0 0 32 32"><style>.st0{fill:#234858}.st1{fill:#12b29f}</style><g id="combined-horizontal-color-onBright"><g id="mark" transform="rotate(45 5.947 587.6098)"><path id="Rectangle-3_1_" d="M-401.8 173.1h5.4c.3 0 .6.3.6.6V187c0 .3-.3.6-.6.6h-4.9c-.6 0-1.1-.5-1.1-1.1v-12.9c0-.3.3-.5.6-.5z" class="st0"/><path id="Rectangle-3_2_" d="M-385.9 165h4.9c.6 0 1.1.5 1.1 1.1V179c0 .3-.3.6-.6.6h-5.4c-.3 0-.6-.3-.6-.6v-13.4c0-.4.4-.6.6-.6z" class="st0"/><path id="Rectangle-3_4_" d="M-393.9 165h5.4c.3 0 .6.3.6.6v5.4c0 .3-.3.6-.6.6h-5.4c-.3 0-.6-.3-.6-.6v-5.4c0-.3.3-.6.6-.6z" class="st0"/><path id="Rectangle-3_5_" d="M-393.9 173.1h5.4c.3 0 .6.3.6.6v5.4c0 .3-.3.6-.6.6h-5.4c-.3 0-.6-.3-.6-.6v-5.4c0-.4.4-.6.6-.6z" class="st1"/><path id="Rectangle-3_6_" d="M-393.9 181.1h5.4c.3 0 .6.3.6.6v5.4c0 .3-.3.6-.6.6h-5.4c-.3 0-.6-.3-.6-.6v-5.4c0-.3.3-.6.6-.6z" class="st0"/></g></g><path id="Rectangle-3_7_" d="M16.3 22.9l3.8 3.8c.2.2.2.6 0 .8l-3.8 3.8c-.2.2-.6.2-.8 0l-3.8-3.8c-.2-.2-.2-.6 0-.8l3.8-3.8c.3-.3.6-.2.8 0z" class="st1"/><path id="Rectangle-3_3_" d="M16.3.7l3.8 3.8c.2.2.2.6 0 .8l-3.8 3.8c-.2.2-.6.2-.8 0l-3.8-3.8c-.2-.2-.2-.6 0-.8L15.5.7c.3-.3.6-.2.8 0z" class="st1"/></svg>