<svg xmlns="http://www.w3.org/2000/svg" id="Livello_1" x="0" y="0" version="1.1" viewBox="0 0 200 200" xml:space="preserve"><style>.st0,.st1{fill:#c4c4c4;fill-opacity:.5}.st1{fill:#606060}</style><path d="M104.5 6.9L126 28.4c1.3 1.3 1.3 3.5 0 4.9l-23.5 23.5c-1.3 1.3-3.5 1.3-4.8 0L74.1 33.3c-1.3-1.3-1.3-3.5 0-4.9L95.5 6.9c2.7-2.7 6.6-2.4 9 0z" class="st0"/><path d="M67.7 39.5L91 62.8c1.3 1.3 1.3 3.5 0 4.9l-57.8 58.1c-1.3 1.3-3.5 1.3-4.8 0L6.9 104.4c-2.4-2.4-2.7-6.5 0-9.2l56-56.1c1.4-.8 3.5-.8 4.8.4zM171.6 74.2L193 95.6c2.4 2.4 2.7 6.5 0 9.2l-56.1 56.3c-1.3 1.3-3.5 1.3-4.8 0l-23.3-23.3c-1.3-1.3-1.3-3.5 0-4.9l58.3-58.4c1.1-1.7 3.2-1.7 4.5-.3z" class="st1"/><path d="M102.4 143.5l23.3 23.3c1.3 1.3 1.3 3.5 0 4.9l-21.4 21.4c-2.4 2.4-6.5 2.7-9.1 0l-21.4-21.4c-1.3-1.3-1.3-3.5 0-4.9l23.5-23.5c1.7-1.2 3.8-1.1 5.1.2z" class="st0"/><path d="M137.1 39.7L160.4 63c1.3 1.3 1.3 3.5 0 4.9l-23.5 23.5c-1.3 1.3-3.5 1.3-4.8 0l-23.3-23.3c-1.3-1.3-1.3-3.5 0-4.9l23.5-23.5c1.4-1.5 3.5-1.4 4.8 0z" class="st1"/><path d="M102.5 74.5l23.3 23.3c1.3 1.3 1.3 3.5 0 4.9l-23.5 23.5c-1.3 1.3-3.5 1.3-4.8 0L74.1 103c-1.3-1.3-1.3-3.5 0-4.9l23.5-23.5c1.4-1.6 3.5-1.5 4.9-.1z" class="st0"/><path d="M68 109l23.3 23.3c1.3 1.3 1.3 3.5 0 4.9l-23.5 23.5c-1.3 1.3-3.5 1.3-4.8 0l-23.3-23.3c-1.3-1.3-1.3-3.5 0-4.9L63.2 109c1.3-1.4 3.4-1.4 4.8 0z" class="st1"/></svg>