<?xml version="1.0" encoding="utf-8"?>
<!-- Generator: Adobe Illustrator 22.1.0, SVG Export Plug-In . SVG Version: 6.00 Build 0)  -->
<svg version="1.1" id="Livello_1" xmlns="http://www.w3.org/2000/svg" xmlns:xlink="http://www.w3.org/1999/xlink" x="0px" y="0px"
	 viewBox="0 0 200 200" style="enable-background:new 0 0 200 200;" xml:space="preserve">
<style type="text/css">
	.st0{fill:url(#SVGID_1_);}
	.st1{fill:url(#SVGID_2_);}
	.st2{fill:url(#SVGID_3_);}
	.st3{fill:url(#SVGID_4_);}
	.st4{fill:url(#SVGID_5_);}
	.st5{fill:url(#SVGID_6_);}
	.st6{fill:url(#SVGID_7_);}
	.st7{fill:url(#SVGID_8_);}
	.st8{fill:url(#SVGID_9_);}
	.st9{fill:url(#SVGID_10_);}
	.st10{fill:url(#SVGID_11_);}
	.st11{fill:url(#SVGID_12_);}
	.st12{fill:url(#SVGID_13_);}
	.st13{fill:url(#SVGID_14_);}
	.st14{fill:url(#SVGID_15_);}
	.st15{fill:url(#SVGID_16_);}
	.st16{fill:url(#SVGID_17_);}
	.st17{fill:url(#SVGID_18_);}
</style>
<linearGradient id="SVGID_1_" gradientUnits="userSpaceOnUse" x1="59.819" y1="-543.2822" x2="136.8622" y2="692.3729">
	<stop  offset="0" style="stop-color:#6CCA05"/>
	<stop  offset="0.9946" style="stop-color:#00B329"/>
</linearGradient>
<path class="st0" d="M197,99.1h-3.6c-0.3,0-0.5,0.1-0.6,0.4c-1,4.1-0.6,10.7-3.2,11.5c-3.2,1.1-7.9,0.1-12.4,0.1
	c-1.4,0-2.8,0.1-4.2-0.1c-0.7-0.1-1.4-0.6-2-1c-0.2-0.1-0.3-0.3-0.3-0.5v-0.2c0-1.1,1.8-0.9,2.7-0.9c1.9,0,3.3-0.1,5.5,0
	c8.7,0.3,8.7,0.3,8.7-8.6c0-10.9,0-10.9-10.5-10.9c-8.5,0-8.4,0-8.9,8.3c0,0.3-0.3,0.5-0.8,1.3c-0.1,0.2-0.3,0.3-0.5,0.3h-28
	c-0.3,0-0.5,0.2-0.6,0.5c-4.6,22.9-15.8,35.7-33.2,37.5c-8,0.9-15.8-0.1-23.1-4.1c-10.1-5.5-15.8-14.4-19.2-24.9
	c0-0.2-0.3-0.4-0.5-0.4c-9,0-2.1,0-9.4,0c-1.1,0-0.9-0.6-0.9-1.7c0-0.4,0.3-0.6,0.7-0.6h3.4c0.3,0,0.6-0.2,0.8-0.4
	c0.1-0.1,0.1-0.1,0.1-0.2c0.1-0.2,0.1-0.3,0.1-0.5v-9.3c0-0.6-0.5-1.1-1.1-1.1h-9.4c-0.6,0-1.1,0.5-1.1,1.1v3.7
	c-0.2,0.1-0.4,0.2-0.6,0.2l-4.4,0.2c-0.4,0-0.7,0.3-0.7,0.7c0,4.3,0.2,8.4-0.1,12.4c-0.1,1.7-1.3,4.7-2.1,4.8
	c-5.4,0.3-10.7,0.1-16.1-0.2c-0.5-0.1-1-1.2-1.7-2.5c-0.2-0.4,0.1-0.9,0.5-0.9c4.1-0.1,7.5-0.1,10.9,0c2.8,0.2,4.3-1.1,4.4-3.9
	c0.1-3.3,0.2-6.7-0.1-10.1L2.2,99.3c1.9,36.6,17.1,66,49.1,84.2c34.3,19.7,69.6,18.7,102.8-3.1c28.4-18.7,42.5-46.2,43.5-80.7
	C197.6,99.4,197.3,99.1,197,99.1z"/>
<linearGradient id="SVGID_2_" gradientUnits="userSpaceOnUse" x1="63.7847" y1="-235.8183" x2="93.1806" y2="235.6471">
	<stop  offset="0" style="stop-color:#6CCA05"/>
	<stop  offset="0.9946" style="stop-color:#00B329"/>
</linearGradient>
<path class="st1" d="M68.4,46c3.8,0,7.7,0,11.6,0c4.4,0,8.8-0.1,13.3,0c3.6,0.1,5.8-1.7,6-5.2c0.4-9.2,1.1-18.4,0.6-27.5
	c-0.2-4.2-3.5-6.7-9.3-6.7c-7.6,0-14.1,0-21.9,0c-5.9,0-8.2,2.7-8.3,8.6c-0.1,7.7-0.2,15.3-0.1,22.9C60.4,43.8,62.7,46,68.4,46z"/>
<linearGradient id="SVGID_3_" gradientUnits="userSpaceOnUse" x1="19.2616" y1="-193.1263" x2="48.1934" y2="270.8957">
	<stop  offset="0" style="stop-color:#6CCA05"/>
	<stop  offset="0.9946" style="stop-color:#00B329"/>
</linearGradient>
<path class="st2" d="M23.1,84.4c8.3,0.2,16.6,0.2,24.9-0.1c4.2-0.2,6.7-2.6,6.7-7.2c0-4.1,0-8.2,0-12.3c0-4.2,0.1-8.5,0-12.8
	c-0.3-5.2-2.9-6.7-10.4-6.7c-6.3,0-10.9,0.1-17.3,0.1c-7.3,0-11,0.5-11.1,6c-0.2,8.7,0,17.4,0.1,26.1C16,82.1,19,84.3,23.1,84.4z"/>
<linearGradient id="SVGID_4_" gradientUnits="userSpaceOnUse" x1="155.494" y1="-144.8916" x2="178.5599" y2="225.0505">
	<stop  offset="0" style="stop-color:#6CCA05"/>
	<stop  offset="0.9946" style="stop-color:#00B329"/>
</linearGradient>
<path class="st3" d="M158,76.1c3.7,0,7.4,0.3,11.1,0.3c15,0,15,1.2,15-15.5c0-17-0.1-16-15.9-15.7c-2.8,0-5.5-0.1-8.4,0.1
	c-4.7,0-6.9,2-7,6.4c-0.2,6.3-0.1,12.7,0,19.1C152.9,74.2,154.4,76.1,158,76.1z"/>
<linearGradient id="SVGID_5_" gradientUnits="userSpaceOnUse" x1="120.4066" y1="-154.9757" x2="140.4927" y2="167.1748">
	<stop  offset="0" style="stop-color:#6CCA05"/>
	<stop  offset="0.9946" style="stop-color:#00B329"/>
</linearGradient>
<path class="st4" d="M123.3,37.7c4.2,0,8,0,12.2,0c9.5,0,9.5,0.2,9.5-9.5c0-1.2,0-2.5,0-3.7c0-2.5,0-5,0-7.5c0-5-1.2-6.3-6.3-6.3
	c-5.2,0-10.2,0-15.5,0c-3.5,0-4.9,1.6-4.9,4.8c-0.1,5.7,0,11.5-0.1,17.2C118.2,35.6,120.5,37.7,123.3,37.7z"/>
<linearGradient id="SVGID_6_" gradientUnits="userSpaceOnUse" x1="64.0003" y1="13.3894" x2="71.7303" y2="137.3669">
	<stop  offset="0" style="stop-color:#6CCA05"/>
	<stop  offset="0.9946" style="stop-color:#00B329"/>
</linearGradient>
<path class="st5" d="M65.8,87.6c8.3,0.1,7.6,0.5,7.4-8.1c0-1.3-1.1-2.4-2.4-2.4h-5c-1.3,0-2.4,1.1-2.4,2.5c0,1.7,0,3.9,0,5.6
	C63.4,86.5,64.5,87.6,65.8,87.6z"/>
<linearGradient id="SVGID_7_" gradientUnits="userSpaceOnUse" x1="133.7329" y1="6.4144" x2="141.3164" y2="128.0421">
	<stop  offset="0" style="stop-color:#6CCA05"/>
	<stop  offset="0.9946" style="stop-color:#00B329"/>
</linearGradient>
<path class="st6" d="M140.1,68.9h-4.3c-1.6,0-3,1.3-3,3v4.3c0,1.6,1.3,3,3,3h4.3c1.6,0,3-1.4,3-3v-4.3
	C143.1,70.3,141.8,68.9,140.1,68.9z"/>
<linearGradient id="SVGID_8_" gradientUnits="userSpaceOnUse" x1="119.491" y1="-43.5335" x2="130.6566" y2="135.546">
	<stop  offset="0" style="stop-color:#6CCA05"/>
	<stop  offset="0.9946" style="stop-color:#00B329"/>
</linearGradient>
<path class="st7" d="M122,63.6h7.4c2.1,0,3.8-1.7,3.8-3.8v-7.5c0-2.1-1.7-3.8-3.8-3.8H122c-2.1,0-3.8,1.7-3.8,3.8v7.5
	C118.2,61.9,119.9,63.6,122,63.6z"/>
<linearGradient id="SVGID_9_" gradientUnits="userSpaceOnUse" x1="141.4871" y1="-8.1972" x2="148.074" y2="97.447">
	<stop  offset="0" style="stop-color:#6CCA05"/>
	<stop  offset="0.9946" style="stop-color:#00B329"/>
</linearGradient>
<path class="st8" d="M140.7,48.3v4.5c0,1.2,1,2.2,2.2,2.2h4.5c1.2,0,2.2-1,2.2-2.2v-4.5c0-1.2-1-2.2-2.2-2.2h-4.5
	C141.7,46.1,140.7,47.1,140.7,48.3z"/>
<linearGradient id="SVGID_10_" gradientUnits="userSpaceOnUse" x1="154.9783" y1="-28.8829" x2="161.3113" y2="72.6894">
	<stop  offset="0" style="stop-color:#6CCA05"/>
	<stop  offset="0.9946" style="stop-color:#00B329"/>
</linearGradient>
<path class="st9" d="M156.7,31.9h3.6c1.4,0,2.5-1.1,2.5-2.5v-3.6c0-1.4-1.1-2.5-2.5-2.5h-3.6c-1.4,0-2.5,1.1-2.5,2.5v3.6
	C154.2,30.8,155.3,31.9,156.7,31.9z"/>
<linearGradient id="SVGID_11_" gradientUnits="userSpaceOnUse" x1="107.7279" y1="0.4487" x2="112.2634" y2="73.1921">
	<stop  offset="0" style="stop-color:#6CCA05"/>
	<stop  offset="0.9946" style="stop-color:#00B329"/>
</linearGradient>
<path class="st10" d="M109.3,37.8c-1.2,0-2.1,1-2.1,2.1v2c0,1.2,0.9,2.1,2.1,2.1h1.9c1.2,0,2.1-0.9,2.1-2.1v-2
	c0-1.2-0.9-2.1-2.1-2.1H109.3z"/>
<linearGradient id="SVGID_12_" gradientUnits="userSpaceOnUse" x1="105.5556" y1="-70.1543" x2="114.3578" y2="71.0188">
	<stop  offset="0" style="stop-color:#6CCA05"/>
	<stop  offset="0.9946" style="stop-color:#00B329"/>
</linearGradient>
<path class="st11" d="M107.5,14.3h5.9c1.6,0,3-1.3,3-3V5.4c0-1.7-1.3-3-3-3h-5.9c-1.6,0-3,1.3-3,3v5.9
	C104.5,12.9,105.8,14.3,107.5,14.3z"/>
<linearGradient id="SVGID_13_" gradientUnits="userSpaceOnUse" x1="39.1696" y1="-61.6521" x2="49.2946" y2="100.7368">
	<stop  offset="0" style="stop-color:#6CCA05"/>
	<stop  offset="0.9946" style="stop-color:#00B329"/>
</linearGradient>
<path class="st12" d="M41.5,35.5h6.6c1.9,0,3.5-1.6,3.5-3.5v-6.7c0-1.9-1.6-3.5-3.5-3.5h-6.6c-1.9,0-3.5,1.6-3.5,3.5V32
	C38,33.9,39.6,35.5,41.5,35.5z"/>
<linearGradient id="SVGID_14_" gradientUnits="userSpaceOnUse" x1="63.8073" y1="12.3458" x2="69.2738" y2="100.0201">
	<stop  offset="0" style="stop-color:#6CCA05"/>
	<stop  offset="0.9946" style="stop-color:#00B329"/>
</linearGradient>
<path class="st13" d="M65.1,64.8h3.5c1.1,0,1.9-0.9,1.9-1.9v-3.5c0-1.1-0.8-2-1.9-2h-3.5c-1.1,0-1.9,0.9-1.9,1.9v3.6
	C63.2,64,64.1,64.8,65.1,64.8z"/>
<linearGradient id="SVGID_15_" gradientUnits="userSpaceOnUse" x1="3.6095" y1="8.7065" x2="12.7636" y2="155.5248">
	<stop  offset="0" style="stop-color:#6CCA05"/>
	<stop  offset="0.9946" style="stop-color:#00B329"/>
</linearGradient>
<path class="st14" d="M5,96.5h7.4c1.3,0,2.4-1.1,2.4-2.4v-7.5c0-1.3-1.1-2.4-2.4-2.4H5c-1.3,0-2.4,1.1-2.4,2.4v7.5
	C2.6,95.4,3.7,96.5,5,96.5z"/>
<linearGradient id="SVGID_16_" gradientUnits="userSpaceOnUse" x1="80.1855" y1="-35.9641" x2="91.2704" y2="141.8217">
	<stop  offset="0" style="stop-color:#6CCA05"/>
	<stop  offset="0.9946" style="stop-color:#00B329"/>
</linearGradient>
<path class="st15" d="M91.6,55.5H81.1c-1.2,0-2.1,0.9-2.1,2.1v10.6c0,1.2,0.9,2.1,2.1,2.1h10.5c1.2,0,2.1-0.9,2.1-2.1V57.6
	C93.7,56.5,92.8,55.5,91.6,55.5z"/>
<linearGradient id="SVGID_17_" gradientUnits="userSpaceOnUse" x1="154.2481" y1="0.7612" x2="163.9623" y2="156.5625">
	<stop  offset="0" style="stop-color:#6CCA05"/>
	<stop  offset="0.9946" style="stop-color:#00B329"/>
</linearGradient>
<path class="st16" d="M155.3,80.9c-1.2,0-2.1,0.9-2.1,2.1v8.8c0,1.2,0.9,2.1,2.1,2.1h8.7c1.2,0,2.1-0.9,2.1-2.1V83
	c0-1.2-0.9-2.1-2.1-2.1H155.3z"/>
<linearGradient id="SVGID_18_" gradientUnits="userSpaceOnUse" x1="187.4399" y1="24.3958" x2="194.112" y2="131.4063">
	<stop  offset="0" style="stop-color:#6CCA05"/>
	<stop  offset="0.9946" style="stop-color:#00B329"/>
</linearGradient>
<path class="st17" d="M188.8,88.4h4.8c1.1,0,2.1-0.9,2-2.1v-4.8c0-1.2-0.9-2.1-2.1-2.1h-4.7c-1.2,0-2.1,0.9-2.1,2.1v4.8
	C186.7,87.5,187.6,88.4,188.8,88.4z"/>
</svg>
