<?xml version="1.0" encoding="utf-8"?>
<!-- Generator: Adobe Illustrator 22.1.0, SVG Export Plug-In . SVG Version: 6.00 Build 0)  -->
<svg version="1.1" id="Livello_1" xmlns="http://www.w3.org/2000/svg" xmlns:xlink="http://www.w3.org/1999/xlink" x="0px" y="0px"
	 viewBox="0 0 200 200" style="enable-background:new 0 0 200 200;" xml:space="preserve">
<style type="text/css">
	.st0{fill:url(#SVGID_1_);}
	.st1{fill:url(#SVGID_2_);}
	.st2{fill:url(#SVGID_3_);}
	.st3{fill:url(#SVGID_4_);}
	.st4{fill:url(#SVGID_5_);}
	.st5{fill:url(#SVGID_6_);}
	.st6{fill:url(#SVGID_7_);}
	.st7{fill:url(#SVGID_8_);}
	.st8{fill:url(#SVGID_9_);}
	.st9{fill:url(#SVGID_10_);}
	.st10{fill:url(#SVGID_11_);}
	.st11{fill:url(#SVGID_12_);}
	.st12{fill:url(#SVGID_13_);}
	.st13{fill:url(#SVGID_14_);}
	.st14{fill:url(#SVGID_15_);}
	.st15{fill:url(#SVGID_16_);}
	.st16{fill:url(#SVGID_17_);}
	.st17{fill:url(#SVGID_18_);}
</style>
<linearGradient id="SVGID_1_" gradientUnits="userSpaceOnUse" x1="61.0266" y1="-525.4807" x2="135.9407" y2="676.0263">
	<stop  offset="0" style="stop-color:#6CCA05"/>
	<stop  offset="0.9946" style="stop-color:#00B329"/>
</linearGradient>
<path class="st0" d="M194.4,99.1h-3.5c-0.3,0-0.5,0.1-0.6,0.4c-1,4-0.6,10.4-3.1,11.2c-2.9,0.8-7.6,0.3-12,0.3c-1.4,0-2.7,0-4.1-0.1
	c-0.7,0-1.4-0.1-1.9-0.5c-0.5-0.3-0.4-0.7-0.4-0.9v-0.4c0-1.1,1.8-0.9,2.6-0.9c1.8,0,3.4,0,5.3,0c8.5,0,8.5,0,8.5-8.4
	c0-10.6,0-10.6-10.2-10.6c-8.3,0-8.2,0-8.7,8.1c0,0.3-0.3,0.5-0.8,1.3c-0.1,0.2-0.3,0.3-0.5,0.3h-27.2c-0.3,0-0.5,0.2-0.6,0.5
	c-4.5,22.3-15.4,34.7-32.3,36.5c-7.8,0.9-15.4-0.1-22.5-4c-9.8-5.3-15.4-14-18.7-24.2c0-0.2-0.3-0.4-0.5-0.4c-8.8,0-2,0-9.1,0
	c-1.1,0-0.9-0.6-0.9-1.7c0-0.4,0.3-0.6,0.7-0.6h3.3c0.3,0,0.6-0.2,0.8-0.4c0.1-0.1,0.1-0.1,0.1-0.2c0.1-0.2,0.1-0.3,0.1-0.5v-9
	c0-0.6-0.5-1.1-1.1-1.1h-9.1c-0.6,0-1.1,0.5-1.1,1.1v3.6c-0.2,0.1-0.4,0.2-0.6,0.2L42.2,99c-0.4,0-0.7,0.3-0.7,0.7
	c0,4.2,0.2,8.2-0.1,12.1c-0.1,1.7-1.3,4.6-2,4.7c-5.3,0.3-10.4,0.1-15.7-0.2c-0.5-0.1-1-1.2-1.7-2.4c-0.2-0.4,0.1-0.9,0.5-0.9
	c4-0.1,7.3-0.1,10.6,0c2.7,0.2,4.2-1.1,4.3-3.8c0.1-3.2,0.2-6.5-0.1-9.8L5,99.3c1.8,35.6,16.6,64.2,47.7,81.9
	c33.4,19.2,67.7,18.2,100-3C180.3,160,194,133.3,195,99.7C195,99.4,194.7,99.1,194.4,99.1z"/>
<linearGradient id="SVGID_2_" gradientUnits="userSpaceOnUse" x1="64.8828" y1="-226.5137" x2="93.4663" y2="231.9225">
	<stop  offset="0" style="stop-color:#6CCA05"/>
	<stop  offset="0.9946" style="stop-color:#00B329"/>
</linearGradient>
<path class="st1" d="M69.4,47.5c3.7,0,7.5,0,11.3,0c4.3,0,8.6-0.1,12.9,0c3.5,0.1,5.6-1.7,5.8-5.1c0.4-8.9,1.1-17.9,0.6-26.7
	c-0.2-4.1-3.4-6.5-9-6.5c-7.4,0-13.7,0-21.3,0c-5.7,0-8,2.6-8.1,8.4c-0.1,7.5-0.2,14.9-0.1,22.3C61.6,45.4,63.8,47.5,69.4,47.5z"/>
<linearGradient id="SVGID_3_" gradientUnits="userSpaceOnUse" x1="21.5901" y1="-185.0015" x2="49.7224" y2="266.1969">
	<stop  offset="0" style="stop-color:#6CCA05"/>
	<stop  offset="0.9946" style="stop-color:#00B329"/>
</linearGradient>
<path class="st2" d="M25.3,84.9c8.1,0.2,16.1,0.2,24.2-0.1c4.1-0.2,6.5-2.5,6.5-7c0-4,0-8,0-12c0-4.1,0.1-8.3,0-12.4
	c-0.3-5.1-2.8-6.5-10.1-6.5c-6.1,0-10.6,0.1-16.8,0.1c-7.1,0-10.7,0.5-10.8,5.8c-0.2,8.5,0,16.9,0.1,25.4
	C18.4,82.6,21.3,84.8,25.3,84.9z"/>
<linearGradient id="SVGID_4_" gradientUnits="userSpaceOnUse" x1="154.0577" y1="-138.0998" x2="176.4861" y2="221.6187">
	<stop  offset="0" style="stop-color:#6CCA05"/>
	<stop  offset="0.9946" style="stop-color:#00B329"/>
</linearGradient>
<path class="st3" d="M156.5,76.8c3.6,0,7.2,0.3,10.8,0.3c14.6,0,14.6,1.2,14.6-15.1c0-16.5-0.1-15.6-15.5-15.3
	c-2.7,0-5.3-0.1-8.2,0.1c-4.6,0-6.7,1.9-6.8,6.2c-0.2,6.1-0.1,12.3,0,18.6C151.5,74.9,153,76.8,156.5,76.8z"/>
<linearGradient id="SVGID_5_" gradientUnits="userSpaceOnUse" x1="119.9399" y1="-147.9052" x2="139.4709" y2="165.3425">
	<stop  offset="0" style="stop-color:#6CCA05"/>
	<stop  offset="0.9946" style="stop-color:#00B329"/>
</linearGradient>
<path class="st4" d="M122.8,39.4c4.1,0,7.8,0,11.9,0c9.2,0,9.2,0.2,9.2-9.2c0-1.2,0-2.4,0-3.6c0-2.4,0-4.9,0-7.3
	c0-4.9-1.2-6.1-6.1-6.1c-5.1,0-9.9,0-15.1,0c-3.4,0-4.8,1.6-4.8,4.7c-0.1,5.5,0,11.2-0.1,16.7C117.8,37.4,120,39.4,122.8,39.4z"/>
<linearGradient id="SVGID_6_" gradientUnits="userSpaceOnUse" x1="65.0924" y1="15.807" x2="72.6088" y2="136.3583">
	<stop  offset="0" style="stop-color:#6CCA05"/>
	<stop  offset="0.9946" style="stop-color:#00B329"/>
</linearGradient>
<path class="st5" d="M66.8,88c8.1,0.1,7.4,0.5,7.2-7.9c0-1.3-1.1-2.3-2.3-2.3h-4.9c-1.3,0-2.3,1.1-2.3,2.4c0,1.7,0,3.8,0,5.4
	C64.5,86.9,65.6,88,66.8,88z"/>
<linearGradient id="SVGID_7_" gradientUnits="userSpaceOnUse" x1="132.8979" y1="9.0248" x2="140.2719" y2="127.2912">
	<stop  offset="0" style="stop-color:#6CCA05"/>
	<stop  offset="0.9946" style="stop-color:#00B329"/>
</linearGradient>
<path class="st6" d="M139.1,69.8h-4.2c-1.6,0-2.9,1.3-2.9,2.9v4.2c0,1.6,1.3,2.9,2.9,2.9h4.2c1.6,0,2.9-1.4,2.9-2.9v-4.2
	C142,71.1,140.7,69.8,139.1,69.8z"/>
<linearGradient id="SVGID_8_" gradientUnits="userSpaceOnUse" x1="119.0496" y1="-39.5428" x2="129.9066" y2="134.5878">
	<stop  offset="0" style="stop-color:#6CCA05"/>
	<stop  offset="0.9946" style="stop-color:#00B329"/>
</linearGradient>
<path class="st7" d="M121.5,64.6h7.2c2,0,3.7-1.7,3.7-3.7v-7.3c0-2-1.7-3.7-3.7-3.7h-7.2c-2,0-3.7,1.7-3.7,3.7v7.3
	C117.8,63,119.4,64.6,121.5,64.6z"/>
<linearGradient id="SVGID_9_" gradientUnits="userSpaceOnUse" x1="140.4378" y1="-5.183" x2="146.8427" y2="97.5416">
	<stop  offset="0" style="stop-color:#6CCA05"/>
	<stop  offset="0.9946" style="stop-color:#00B329"/>
</linearGradient>
<path class="st8" d="M139.7,49.8v4.4c0,1.2,1,2.1,2.1,2.1h4.4c1.2,0,2.1-1,2.1-2.1v-4.4c0-1.2-1-2.1-2.1-2.1h-4.4
	C140.6,47.6,139.7,48.6,139.7,49.8z"/>
<linearGradient id="SVGID_10_" gradientUnits="userSpaceOnUse" x1="153.5562" y1="-25.2971" x2="159.7142" y2="73.4682">
	<stop  offset="0" style="stop-color:#6CCA05"/>
	<stop  offset="0.9946" style="stop-color:#00B329"/>
</linearGradient>
<path class="st9" d="M155.2,33.8h3.5c1.4,0,2.4-1.1,2.4-2.4v-3.5c0-1.4-1.1-2.4-2.4-2.4h-3.5c-1.4,0-2.4,1.1-2.4,2.4v3.5
	C152.8,32.7,153.9,33.8,155.2,33.8z"/>
<linearGradient id="SVGID_11_" gradientUnits="userSpaceOnUse" x1="107.6116" y1="3.2239" x2="112.0217" y2="73.957">
	<stop  offset="0" style="stop-color:#6CCA05"/>
	<stop  offset="0.9946" style="stop-color:#00B329"/>
</linearGradient>
<path class="st10" d="M109.1,39.5c-1.2,0-2,1-2,2v1.9c0,1.2,0.9,2,2,2h1.8c1.2,0,2-0.9,2-2v-1.9c0-1.2-0.9-2-2-2H109.1z"/>
<linearGradient id="SVGID_12_" gradientUnits="userSpaceOnUse" x1="105.4993" y1="-65.4279" x2="114.0582" y2="71.8438">
	<stop  offset="0" style="stop-color:#6CCA05"/>
	<stop  offset="0.9946" style="stop-color:#00B329"/>
</linearGradient>
<path class="st11" d="M107.4,16.7h5.7c1.6,0,2.9-1.3,2.9-2.9V8c0-1.7-1.3-2.9-2.9-2.9h-5.7c-1.6,0-2.9,1.3-2.9,2.9v5.7
	C104.5,15.3,105.7,16.7,107.4,16.7z"/>
<linearGradient id="SVGID_13_" gradientUnits="userSpaceOnUse" x1="40.9479" y1="-57.1607" x2="50.7931" y2="100.7405">
	<stop  offset="0" style="stop-color:#6CCA05"/>
	<stop  offset="0.9946" style="stop-color:#00B329"/>
</linearGradient>
<path class="st12" d="M43.2,37.3h6.4c1.8,0,3.4-1.6,3.4-3.4v-6.5c0-1.8-1.6-3.4-3.4-3.4h-6.4c-1.8,0-3.4,1.6-3.4,3.4v6.5
	C39.8,35.8,41.4,37.3,43.2,37.3z"/>
<linearGradient id="SVGID_14_" gradientUnits="userSpaceOnUse" x1="64.9047" y1="14.7923" x2="70.2202" y2="100.0436">
	<stop  offset="0" style="stop-color:#6CCA05"/>
	<stop  offset="0.9946" style="stop-color:#00B329"/>
</linearGradient>
<path class="st13" d="M66.2,65.8h3.4c1.1,0,1.8-0.9,1.8-1.8v-3.4c0-1.1-0.8-1.9-1.8-1.9h-3.4c-1.1,0-1.8,0.9-1.8,1.8v3.5
	C64.3,65,65.2,65.8,66.2,65.8z"/>
<linearGradient id="SVGID_15_" gradientUnits="userSpaceOnUse" x1="6.3706" y1="11.2535" x2="15.2717" y2="154.0144">
	<stop  offset="0" style="stop-color:#6CCA05"/>
	<stop  offset="0.9946" style="stop-color:#00B329"/>
</linearGradient>
<path class="st14" d="M7.7,96.6h7.2c1.3,0,2.3-1.1,2.3-2.3V87c0-1.3-1.1-2.3-2.3-2.3H7.7c-1.3,0-2.3,1.1-2.3,2.3v7.3
	C5.4,95.6,6.5,96.6,7.7,96.6z"/>
<linearGradient id="SVGID_16_" gradientUnits="userSpaceOnUse" x1="80.8303" y1="-32.1826" x2="91.6089" y2="140.69">
	<stop  offset="0" style="stop-color:#6CCA05"/>
	<stop  offset="0.9946" style="stop-color:#00B329"/>
</linearGradient>
<path class="st15" d="M91.9,56.8H81.7c-1.2,0-2,0.9-2,2v10.3c0,1.2,0.9,2,2,2h10.2c1.2,0,2-0.9,2-2V58.8
	C94,57.7,93.1,56.8,91.9,56.8z"/>
<linearGradient id="SVGID_17_" gradientUnits="userSpaceOnUse" x1="152.8461" y1="3.5278" x2="162.2919" y2="155.0234">
	<stop  offset="0" style="stop-color:#6CCA05"/>
	<stop  offset="0.9946" style="stop-color:#00B329"/>
</linearGradient>
<path class="st16" d="M153.9,81.5c-1.2,0-2,0.9-2,2v8.6c0,1.2,0.9,2,2,2h8.5c1.2,0,2-0.9,2-2v-8.6c0-1.2-0.9-2-2-2H153.9z"/>
<linearGradient id="SVGID_18_" gradientUnits="userSpaceOnUse" x1="185.1207" y1="26.5092" x2="191.6084" y2="130.5625">
	<stop  offset="0" style="stop-color:#6CCA05"/>
	<stop  offset="0.9946" style="stop-color:#00B329"/>
</linearGradient>
<path class="st17" d="M186.4,88.7h4.7c1.1,0,2-0.9,1.9-2V82c0-1.2-0.9-2-2-2h-4.6c-1.2,0-2,0.9-2,2v4.7
	C184.4,87.9,185.3,88.7,186.4,88.7z"/>
</svg>
