<?xml version="1.0" encoding="utf-8"?>
<!-- Generator: Adobe Illustrator 22.1.0, SVG Export Plug-In . SVG Version: 6.00 Build 0)  -->
<svg version="1.0" id="Layer_1" xmlns="http://www.w3.org/2000/svg" xmlns:xlink="http://www.w3.org/1999/xlink" x="0px" y="0px"
	 viewBox="0 0 200 200" style="enable-background:new 0 0 200 200;" xml:space="preserve">
<style type="text/css">
	.st0{fill:url(#SVGID_1_);}
</style>
<linearGradient id="SVGID_1_" gradientUnits="userSpaceOnUse" x1="429.2395" y1="-446.0228" x2="453.5523" y2="-396.3407" gradientTransform="matrix(3.6525 0 0 3.6525 -1503.9456 1646.0549)">
	<stop  offset="0" style="stop-color:#5600DB"/>
	<stop  offset="1" style="stop-color:#21A9D5"/>
</linearGradient>
<path class="st0" d="M96.2,66.7C66.9,111.5,48.9,173.8,42,195C38,155.1,58.9,100.7,74.1,68.6C67,68.9,29.7,71.6,9,92.9
	c0,0,11.2-34.2,75.8-44.7l0.2-0.4C135.5-26,173.4,18,173.4,18c-23-3.8-43.1,7.7-60.2,26.4c8.3-0.4,62.2-0.9,77.8,41.7
	C191,86.1,159.7,63.7,96.2,66.7L96.2,66.7z M132.7,118c-12.9,0-23.4,10.5-23.4,23.4c0,12.9,10.5,23.4,23.4,23.4s23.4-10.5,23.4-23.4
	l0,0C156.1,128.6,145.6,118.1,132.7,118z"/>
</svg>
