<svg xmlns="http://www.w3.org/2000/svg" id="Livello_1" x="0" y="0" version="1.1" viewBox="0 0 200 200" xml:space="preserve"><style>.st25,.st6,.st8{fill-rule:evenodd;clip-rule:evenodd;fill:#cfb66c}.st25,.st8{fill:#f1d789}.st25{fill:#caa13e}.st32,.st53,.st65,.st66,.st90,.st92{fill-rule:evenodd;clip-rule:evenodd;fill:#a88f33}.st53,.st65,.st66,.st90,.st92{fill:#8c6228}.st65,.st66,.st90,.st92{fill:#585136}.st66,.st90,.st92{fill:#252211}.st90,.st92{fill:#82764f}.st92{fill:#574f35}</style><path id="Path" fill="#f5f7e2" d="M32.8 32.8c-37.1 37.1-37.1 97.3 0 134.4s97.3 37.1 134.4 0 37.1-97.3 0-134.4-97.3-37.1-134.4 0z"/><path fill="#f66" d="M32.8 100c0-37.1 30.1-67.3 67.2-67.3 17.8 0 35 7.1 47.6 19.7l19.6-19.6C130.1-4.3 70-4.3 32.9 32.8s-37.1 97.2 0 134.3l19.6-19.6C39.8 135 32.7 117.9 32.8 100z"/><path fill="#d95e59" d="M167.2 32.8l-19.6 19.6c26.3 26.3 26.3 68.8 0 95.1-1 1-2 1.9-3 2.9 8.3 4.4 16 10.1 22.7 16.8 37-37.1 37-97.3-.1-134.4zM52.5 147.6l-19.6 19.6c6.7-6.7 14.3-12.3 22.7-16.8-1.2-.9-2.2-1.9-3.1-2.8z"/><g id="Layer_1-3"><circle cx="100" cy="100" r="55.8" fill="#988430"/><circle cx="100" cy="100" r="54" fill="#7a6a2a"/><circle cx="100" cy="100" r="52.8" fill="#ba9f33"/><path d="M68.6 94c-2.5-2.3-5.1-4.7-7.5-7 2.5 2.3 5.1 4.7 7.5 7zm-16.5-.1c5 .4 10.2 1.2 15.2 2.1-5-.7-10.2-1.5-15.2-2.1zm14.7 3.2c-1.6.3-11.4 3.1-12.9 3.6l12.9-3.6zM54.6 103.7c1.6-.7 8.7-4.2 10.9-4.8l-10.9 4.8zM55.2 106.2c1-.6 9.7-5.6 11.7-6.5l-11.7 6.5z" class="st6"/><path fill="#e2cc85" fill-rule="evenodd" d="M86.7 121.8c-4.6-6 1.4-9 6.6-10.4-4.6-5.6-2.1-13.2 1.3-18.7l8.9-1.4c4.9-7.7 13.2-6.1 20.8-5.2 5.3 13.3-1.6 31.5-5.6 44.2-11.6 3.1-21.3-6-32-8.5z" clip-rule="evenodd"/><path d="M108.4 121.7c-4.2 1.5-12.5-2.5-17.2 0-7.2-2.5-16-6.3-20.8-13-6.4 6.6.5 14.3 6.1 18.4 9.9 4.5 24.3 2.5 31.9-5.4z" class="st8"/><path fill="#f4ecb4" fill-rule="evenodd" d="M63.5 93.7c1-5.3 3.8-9.5 9.7-8.5-2 7.3-9.6 15-4.9 22.7-7.9 5.8-6.1-9.8-4.8-14.2z" clip-rule="evenodd"/><path fill="#f3e19d" fill-rule="evenodd" d="M70.4 121.4c-2.3-2.2-2.5-11 .1-8.6-.2-3.1.6-4.9 2-.8.4-6.5-6.2-11.1-5.4-17.3 0 0-1.4 2.1-1.7 3.7-1.1 2 3.3 11.1-.1 9.5-1 2.7-1.7-2.8-2.2-4.2-.3 5 1.8 17.3 7.3 17.7z" clip-rule="evenodd"/><path fill="#f5eec0" fill-rule="evenodd" d="M71.5 88.7c-4.1.5-6.5 15.9-3.1 11.3.7-8.3 8.6-8.8 3.1-11.3z" clip-rule="evenodd"/><path fill="#e6db9d" fill-rule="evenodd" d="M72.9 91.6c-5.2-.8-7.5 13.6-2.2 10.8.5-3.1 1.8-8.3 5.4-9.2-.8-.7-2-3.3-3.2-1.6z" clip-rule="evenodd"/><path fill="#e5cb7a" fill-rule="evenodd" d="M63.2 137.9c1.9-8.9.2-29.8 6.8-14 18.5 10.3 11.1 34-6.8 14z" clip-rule="evenodd"/><path fill="#d8c173" fill-rule="evenodd" d="M74.6 145.8c-.2-2.5 7.2-3.5 7.8-5.8 5.1-4.8 15.2-14.8 21.5-12.7 6-2.6 9.5 4.8 15.3-1.2 17-7.3 19.2-6.3 17.4 11.9-17.9 10.5-41.7 20.1-62 7.8z" clip-rule="evenodd"/><path d="M64.8 139.4c.4-.8.7-1.4.8-1.7-.3.6 1.1 3.8-.8 1.7z" class="st8"/><path fill="#e0cd81" fill-rule="evenodd" d="M83.9 150.3c4.9-2.4 5.3 2.7 9.7-1.7 2 2.7 7-7.8 11.3-6.1 2.1-1.5 5.4-3.9 8.2-3.2 8.1-10.2 26.2-17.4 13.5 2.7-2 8.9-26.6 14.3-42.7 8.3z" clip-rule="evenodd"/><path fill="#dfc57c" fill-rule="evenodd" d="M73.2 91.4c-2.6 0 6.1 4 6.8 4.1 3.8.3 7.3-1.3 2.7-4.3 5.2-10.9-5.5-1.2-9.5.2z" clip-rule="evenodd"/><path fill="#e5cc7c" fill-rule="evenodd" d="M81.7 93.1c3.4.7 4.2 4.6 7.7 4.8 1.5-5.2-3.9-7.9-7.7-4.8z" clip-rule="evenodd"/><path fill="#d2c281" fill-rule="evenodd" d="M81 94.6c3.2-.3 3.8-2.6 5.5 1.4 5.3 1.9 6.6 4.5 2.3 8.8-.4 3.3-.8 5.2-4.7 4.4-7.3-1.1-4.4-9.7-3.1-14.6z" clip-rule="evenodd"/><path fill="#e2c270" fill-rule="evenodd" d="M88.3 94.8c-.5 2 3.3 8.4 4.3 4.1 4-6.1-4.1-13.6-4.3-4.1z" clip-rule="evenodd"/><path fill="#ccb360" fill-rule="evenodd" d="M92.2 92.2c.2.5.3 1 .4 1.5 0-.1.1-.3.1-.4 0 .8.7 2.4.6 3.5 3.2-2.9 12.5-1.9 15.5-8.3 8-3.4 24.8 6 3.9-13.6-3.2 1.7-9.5 7.9-12 10.6-2.7 1.1-9.9 2.2-8.5 6.7z" clip-rule="evenodd"/><path fill="#d5b457" fill-rule="evenodd" d="M108 88.5c4-2.3 10.3 0 14.9-.3-1.2-5.1-5.8-10.1-10.9-11.5-4.6.2-10.6 17.5-3.2 11.7-.4.1-.8 0-.8.1z" clip-rule="evenodd"/><path fill="#d2b257" fill-rule="evenodd" d="M107.9 89.1c-3.9-3.8-5.7 4.5-10.8 3.6-6.1 4.6 10.1 1.5 10.8-3.6z" clip-rule="evenodd"/><path fill="#d2b159" fill-rule="evenodd" d="M79.2 133.7c-2.5-5.1-9.9-5.8-11.4-12.4-2.4-5.7.5-2.4 1.6 0-1.2-4.1 6.3 3.8 6.7 5.5 4.9 2.5 9.1 1.9 11 7.8-1.2 3.8-6.4 1.7-7.9-.9z" clip-rule="evenodd"/><path fill="#c2a44d" fill-rule="evenodd" d="M71.3 122.8c8.4 12.9 37-2.4 37.9-.6 2.6.9-12.1 9.7-16.2 9.4-.7.5-1.3.2-.5 1.5-.9.7-2.9 1.7-1.6 2.9-2.7 0-2.6 2.2-4.1 3.9-1.4-1.4-1.4.6-1.9 1.8-2.5-3.6-4.5 7.7-5 2.7 0 .3-3.3 1.5-2.8 2.1.2-3.2 3.9-4.2 1.7-7.2.4-1.3-1.5-5.7.2-5.1-1.2-3.9 4.3 4 6.7 1.6-.4-1.8 0-3.3-3-4.3 4.2-1.1-11.1-3.6-11.4-8.7z" clip-rule="evenodd"/><path d="M104.5 68.6c3.4 2.9-4.2 9.1 2.9 5.5 2.8-2.2 5.6 3.5 6.8 6.2 7.4-1.7 8.7 10.1 10.7 17.5 7-13.7-8.7-32.5-20.4-29.2z" class="st25"/><path fill="#b59544" fill-rule="evenodd" d="M122.4 82.3c-15.4-9.7-13.9-11.1-2-24.2 5.9 6 8.1 17.7 2 24.2z" clip-rule="evenodd"/><path fill="#c89d3a" fill-rule="evenodd" d="M125.1 91.9c-.2-6.1-6-12.6 1.3-16.3 1.7-6.5 3.1 13.1 4 16.5-2.9 2.4-3.7 4.8-5.3-.2z" clip-rule="evenodd"/><path fill="#ceb052" fill-rule="evenodd" d="M74.2 146.1c3.2-2.5 7 1.4 9.9 1.9 2.9-.6 5.5 0 2.5 2.9-2.2.3-9.1-3-12.4-4.8z" clip-rule="evenodd"/><path fill="#cca847" fill-rule="evenodd" d="M122.2 128.1c3.7-2 .5-13.8.4-15.9 2.7-6.8 4.2-16 4.6-23.5 3.5 4.9 3.1 1.2 3.4-3.7 1.5 13.7 11 27.4 6.4 40.9-2.5-6.9-9.7.6-14.8 2.2z" clip-rule="evenodd"/><path fill="#c39d3c" fill-rule="evenodd" d="M122.2 147.8c15.5-1.3 21.1-28.9 14.6-23.7-.3 1.2-.4.1-.3-.5-2 5-.3 9.6-3.7 13.9-1.7-.1-3.1 4.8-5.7 5.2-.6 1.1-3.4 4.2-4.9 5.1z" clip-rule="evenodd"/><path fill="#c0993a" fill-rule="evenodd" d="M135.6 114.9c-.1 1.3-1.6 4.2-1.9 4.9.4-2-3.2 1.3-3.9 2.1 2.5-6.9-9.1 7.9-13.6 7.5 1.1-1.4 6-7.6 1.1-5.2 1.3-3.5-1.2-3.7 2.7-6.2-1.7.3-3.5 1.5-5 2.1 4.6-5.9 11.6-19.5 10.1-28.3 4.7 3.4 2.1 16.2-1.5 20.5 2 1.5 5.1-5.4 5.3-6.3 4-6.1 5.2-3.8 1.1 2.9 1.7-1.4 1.9 2.2 3-.3-.1.8-.6 8.5 2.1 4.1-.4.8-.7 4 .5 2.2z" clip-rule="evenodd"/><path d="M112.2 65.2c-4-.1-12.5-.3-16 .2 2-.1 17.9 4.4 16-.2z" class="st32"/><path fill="#e3c571" fill-rule="evenodd" d="M83.6 86.7c-1.3 1-3.6 3.5-3.2 4.1.5.4-.2 2.2 1.7 2.4 4-.6 3.8-1.1 6.3 1.6 1.5-3.6-.2-13.6-4.8-8.1z" clip-rule="evenodd"/><path fill="#d8b65b" fill-rule="evenodd" d="M86.2 86.2c1.3.6 1.2 2.4 2.2 3.2 1.3 10.5 4.7-14.9 14.1-9.4l3.1-4.2c-9.3-8.9-14.9 3.3-19.4 10.4z" clip-rule="evenodd"/><path fill="#d3ae4d" fill-rule="evenodd" d="M112.8 76.9c-2.8 1.1-4.9 2.5-1.9 3.1 1.9.2-3.5 9.3-3.9 5-1.9 2.5-3.5-7.7-3.1-8.3-4.8-5.3-9.6-3.3-12.2 3.5-1.2-6.2 7.2-13.5 14.3-12 0 5.9 4.8 3.5 6.8 8.7z" clip-rule="evenodd"/><path d="M114 77.8c-1.9-2.2-7.3-11.4-9.5-9.2 3.4 2.8-4.2 9.2 2.9 5.5 3-3.7 8.7 10.6 6.6 3.7z" class="st25"/><path fill="#f4efc8" fill-rule="evenodd" d="M66.3 90.8c-1.2-5 5.5-15 7.4-6.5-2.8 1.8-6.4 3.9-7.4 6.5z" clip-rule="evenodd"/><path fill="#ebcc73" fill-rule="evenodd" d="M72.1 90.1c-2.2 0-.7-6.1.8-7.5-3.2-3.7-7.2 6.1-8.6 8.8.8-9.8 9.6-29.2 11.2-7.9 4.6 3.4.6 6-3.4 6.6z" clip-rule="evenodd"/><path fill="#e5c66b" fill-rule="evenodd" d="M73.3 91.4c-1.3.2-.8-1-.8-1-2-.9 1.2.7 0-3 6.2-3.4 8.8 1.2.8 4z" clip-rule="evenodd"/><path fill="#e6bd62" fill-rule="evenodd" d="M78 86.8c-1.2.5-2.4 3.7-4.5 4.5 7.5-.1 6.4-3.6 12.2-5.5 7.3-9.2-5.2-4.3-7.7 1z" clip-rule="evenodd"/><path fill="#b6933f" fill-rule="evenodd" d="M93.4 75.1c1.5 2.3-4.1 7.9-7.2 11.1 1-3.3 3.5-17.6 7.2-11.1z" clip-rule="evenodd"/><path fill="#c49937" fill-rule="evenodd" d="M91.4 73.5c-4.6 7.2 3.7 2.4 2.3.5 1.4-1 2.9-2.3 4.9-3.4-3.1.2 2.1-1.2-.2-2.7-1.9 1-5.9 3.6-7 5.6z" clip-rule="evenodd"/><path fill="#dfc068" fill-rule="evenodd" d="M78.5 71.3c2.5-4.4 2.7-10 2.8-15.2.1-10.2 7.5 11.4-2.8 15.2z" clip-rule="evenodd"/><path d="M82.1 53.1c-.3 29.1-12 6.7-17.8 37.2 4-22.2 20.1-13.1 17.8-37.2z" class="st32"/><path fill="#c99e3d" fill-rule="evenodd" d="M82.1 67.2c1.9-4.7 3.4-10.2-.2-14 4.1-1.6 5.4 5.4 6 7.6 2.6 5.1-1.5 5.3-5.8 6.4z" clip-rule="evenodd"/><path fill="#b58634" fill-rule="evenodd" d="M93 65.1c-4.5 2.9-9.2-1.2-7.8-6.9-2.9-12.2 4.7 4.7 7.8 6.9z" clip-rule="evenodd"/><path fill="#e6c367" fill-rule="evenodd" d="M80.1 70.2c-7.8 1.9-9.9 8.7-6.9 8.9 0 .2-.3 2.7 1.2 4.3.5-4.4 6.7-9 5.7-13.2z" clip-rule="evenodd"/><path fill="#dcba5a" fill-rule="evenodd" d="M76.5 78.3c-.7-3.5 8.9-16.8 15.3-11.2-1.1 11.1-5 12.8-15.3 11.2z" clip-rule="evenodd"/><path fill="#e9ce77" fill-rule="evenodd" d="M79 76c1.6-2 7.5-10 7.6-2.5C87.7 81.4 80.8 85 79 76z" clip-rule="evenodd"/><path fill="#cdae50" fill-rule="evenodd" d="M81.6 84.6c5-13 11.6-6.7 0 0z" clip-rule="evenodd"/><path fill="#d2a83e" fill-rule="evenodd" d="M111.6 67.1c-10 .4-16.3-4.2-26.9-.4 10.3-1.9 2.4 9.9 2.6 14.5 8.9-19.9 13.3-7.3 24.3-14.1z" clip-rule="evenodd"/><path fill="#c29637" fill-rule="evenodd" d="M87.4 65.8c-3.5-3.5-6.4 3.6-8.1 4.8.3 1.6 6.7-5.5 8.1-4.8z" clip-rule="evenodd"/><path fill="#ac8132" fill-rule="evenodd" d="M118.2 59c-2.8 2.9-7.9 8.1-9.8 10.6 1.9 4.8 3.9-.4 5.2-1.9.8-1.1 4.8-7.9 4.6-8.7z" clip-rule="evenodd"/><path d="M120 57.2c-4.3 3.4-1.6 4.3 0 0z" class="st32"/><path fill="#a67a2e" fill-rule="evenodd" d="M119.7 128.9c.7-1.5 4.4-6.6 4.1-7.7-8.6 4.6 3.7-6.2 6.2-8.9.9.4-2.6 3.7-2.3 4.7 3.9-2.5-1.6 3.7 1.4 2.5-3.3 3-5 7.3-9.4 9.4z" clip-rule="evenodd"/><path d="M114.8 68c-1.1 1.8-.8 4.7-1.1 6.4-.3-1.3-.5 1.2-.8 1.5-.3-1-.3-3.5-.2-4.1-4.3 3 2.9-7.7 3.7-10.1 2.2.6-2.7 6.3-3.4 8.5.6-.7 1.3-1.4 1.8-2.2z" class="st53"/><path fill="#cba94c" fill-rule="evenodd" d="M120.1 57.1c-7.9 8-2 9.4 0 0z" clip-rule="evenodd"/><path d="M138.3 116.9c-3.7-14-7.1-27.6-10.9-42.7 4.8 13.7 8.6 28.5 10.9 42.7z" class="st32"/><path fill="#be9c44" fill-rule="evenodd" d="M120.1 57c.1 1.7-.3 3.8-1.5 5.6 1.5-.8 2.4-1.2.6.5 7 .8 5.4-4.3.9-6.1z" clip-rule="evenodd"/><path fill="#a17c34" fill-rule="evenodd" d="M126.2 77.4c-3.4-4.9.7-16.3-6.1-20.4 9.6-7.8 9.9 16.2 6.1 20.4z" clip-rule="evenodd"/><path d="M122.9 80.5c1.6.3 4.6-2.4 3.3.4 1.1-1 .9.8-.4 3.5.3-.3.7-.4 1.2-.4.4 7.3-5.4-.9-4.1-3.5z" class="st53"/><path fill="#92723a" fill-rule="evenodd" d="M116 69.1c-.5.4-.2-.9.3-1.3-.1.3-.2.5-.2.5 6.7-9 13.4-5.3 8.7 5-1.2 1.5-6.1 3.7-3.4 5.6 2-.1 1.4.6-1.1 1.2 1.3-.6-.2-.5-.6-.6 1.2-1.5-.7.1-1.2.6-.4-.7.9-1.9-.2-1.3 1.4-5.6 9.7-13.4-2.3-9.7z" clip-rule="evenodd"/><path fill="#b18e3e" fill-rule="evenodd" d="M115.8 69.3c-.2 1.8-2 4.1-2.2 6.3l.3-.3c-.1.2-.2.5-.4.6 1.2-.9 2.9-2.5 4.3-3.3-2.9.9 1.7-2.2 2.3-2.9-4.5.9-1.8-1.9-4.3-.4z" clip-rule="evenodd"/><path fill="#543e26" fill-rule="evenodd" d="M118.8 77.5c-1 2-.9-1.6-3-.6-.3-2 7.4-6.6 3.1-5.7 2.6-2.1-1.9-.7-3.4.3 6.8-10.5 12.4 0 3.3 6z" clip-rule="evenodd"/><path fill="#806031" fill-rule="evenodd" d="M125.1 69.9c-4.1 4.8.8-1.7.7-4.6-1.1 3.1-7.7.2-10 4 10.5-5.9 8.9 2.2 3 8.2 3-1.4 5.3-4.6 6.3-7.6z" clip-rule="evenodd"/><path fill="#b6903c" fill-rule="evenodd" d="M92.4 83.9c-2.2 2.4-1.3 3.7-1.8 6.6 1.3 5.3 6.8-8.9 1.8-6.6z" clip-rule="evenodd"/><path fill="#685026" fill-rule="evenodd" d="M94.4 85.4c-.4 1.2-3.4 1.9-1.6 3 .3 3 4.2-4.3 1.6-3z" clip-rule="evenodd"/><path fill="#d4b968" fill-rule="evenodd" d="M100.6 78.6c-2-4.9-9.4 1-8.2 4.8.4 4.5 11.2 0 8.2-4.8z" clip-rule="evenodd"/><path fill="#cca849" fill-rule="evenodd" d="M98.4 84.1c-.6-2.2 4.5-3.4 0-3.3.5.2 3.5-4.4 3.7-1.8 5.4-6.1 3.9 5.6 4.4 8.1-1.8 2.6-4.9-3.5-8.1-3z" clip-rule="evenodd"/><path d="M94.1 89.8c1.6 2.1 10.4 1.4 10.7-3.4-2.7-.7-8.2 2.6-10.7 3.4z" class="st65"/><path d="M96.6 90c-9.6.5 6.5-12.8 3.9-1.6L96.6 90z" class="st66"/><path fill="#c3b378" fill-rule="evenodd" d="M99.3 84.6c-4.8-.6-6.3 7.5.6 5.5-.9-.2-.5-4.8-.6-5.5z" clip-rule="evenodd"/><path fill="#e6d89c" fill-rule="evenodd" d="M98.8 84.9c-2.9.7-5.3 5.8.4 4.6l-.4-4.6z" clip-rule="evenodd"/><path d="M98 86c-1.4 6.8 4.6 2.5 6.8.3-.6-3.7-15-2.2-5.3-1.8 0 0-1.5 1.6-1.5 1.5z" class="st66"/><path fill="#6f674d" fill-rule="evenodd" d="M100.9 87.2c-.2-.8 1.1-.2.7.3-.3.1-.6-.1-.7-.3zm-.5-1.2c-.2 0 .1-.5.4-.4.7.2-.4 1-.4.4z" clip-rule="evenodd"/><path fill="#ac924c" fill-rule="evenodd" d="M75.5 86.1c2.8 2.2 4.9-.9 6.1-2.5-1.5 1.2-4.5 1.9-6.1 2.5z" clip-rule="evenodd"/><path fill="#9f8e57" fill-rule="evenodd" d="M77.1 79.9c8.2-4 4.9 9.9 0 0z" clip-rule="evenodd"/><path fill="#eac970" fill-rule="evenodd" d="M75.5 81.5c-1.6.8 2.1-4.8 1.3-4.1 7.2-4.5 3.4 2.7-1.3 4.1z" clip-rule="evenodd"/><path fill="#d7bc6b" fill-rule="evenodd" d="M77.5 79.6c.2.3 3.6-.5 3.1.2.1 2.1 2 1.3-.5 4.8 5.1-3.7 4.6-12.9-2.6-5z" clip-rule="evenodd"/><path d="M75.1 82.1c-2.9 7.4 8.8 3.9 0 0z" class="st65"/><path fill="#453a25" fill-rule="evenodd" d="M77.6 85.7c2.2.1-.8-2.2-1-2.6.2.7-.2 2.7 1 2.6z" clip-rule="evenodd"/><path fill="#84754b" fill-rule="evenodd" d="M75.3 81.9c-.9 1.6.2 5.3 2.5 3.7-3.1-.8 2.6-8-2.5-3.7z" clip-rule="evenodd"/><path d="M75 82.4c-.1-.3 2.3-2.1 2.9-1.6-4.1 5.4 5 6.3 2.4.1-1.7-1.7-3.8-2.2-5.3 1.5z" class="st66"/><path fill="#f7f7e7" fill-rule="evenodd" d="M97.9 86.4c-.8-.9 1.7-2.9 2.3-1.7-.2.6-1.7 2-2.3 1.7z" clip-rule="evenodd"/><path fill="#f8f6de" fill-rule="evenodd" d="M79.8 81.3c.8 0 .8 1.2 0 1.3-.8-.1-.6-1.2 0-1.3z" clip-rule="evenodd"/><path fill="#d4c38b" fill-rule="evenodd" d="M76.3 81.5c-1.4.6-1.6 3.1-.1 3.6.6-.6 1.2-3.2.1-3.6z" clip-rule="evenodd"/><path fill="#e2d59d" fill-rule="evenodd" d="M76.4 81.5c-.2.7.7 1.7 1.4.6 2 .2-.6-2.3-1.4-.6z" clip-rule="evenodd"/><path fill="#cbac5a" fill-rule="evenodd" d="M90.7 101.1c4.7-.9-.4 2.2 3.3 5.6-2.6.9-.6.5.2 1.9-3.6-.6-7 2.4-9.4-1.9 1.8 0 2.3-2.8 4.1-3.5 1 .1 1.9-1.2 1.8-2.1z" clip-rule="evenodd"/><path fill="#d6bc6f" fill-rule="evenodd" d="M86.8 100.6c4.2-.6 10.9-.7 14.8 1.1-4.2-1.3-10.4-1.3-14.8-1.1z" clip-rule="evenodd"/><path fill="#dfc677" fill-rule="evenodd" d="M94.1 107.7c8.6 6.9-3.4 4.9-4 7.8 2.9.5-3 .6-2.8.9 5 .6.4.8-1.3 1.6-1.5 6.7-8.9.4-11.3-1.9-8.9-12.7 4.3-2.2 15.2-4.3.6-.6 2.7-5.3 4.2-4.1z" clip-rule="evenodd"/><path fill="#c4a859" fill-rule="evenodd" d="M76.8 114.3c3.1 2.4 10.1-.3 13.8-1.1-2-4.1-11.9-2.3-13.8 1.1z" clip-rule="evenodd"/><path fill="#927d49" fill-rule="evenodd" d="M75 112.5c1.1 2.8 2.9.3 4.7.9 1 .1.5-2.1 2.5-1.4 1.1 1.3 2.7.9 3.5-.8.5-.1 1.5.2.9.7.5 1.1 3.9 1.4 4.4 1.1.5.3 2.7-1 1.2-1.2.8-.6 2.9-3 .8-3.5-7 3-11.5-.5-18 4.2z" clip-rule="evenodd"/><path fill="#6e6342" fill-rule="evenodd" d="M70.1 96.5c-5.5 18.3 11.8 17.2 24.1 11.9-32.7 3.5 5.2-19.6-24.1-11.9z" clip-rule="evenodd"/><path fill="#39331f" fill-rule="evenodd" d="M71.6 100.6c-.7.9 1.4 1.8 1.2 3.1-.1.3 1.8-.9 2-.1 1.1-1.2 4.9 3.3 3.9-.1-.9-.6-.2-2-.2-2.4-.8.1-6.4-.1-6.9-.5z" clip-rule="evenodd"/><path fill="#292311" fill-rule="evenodd" d="M74 104.6c.2.7-1.3-2.8.3-2.8 0 0 .3 1.8-.3 2.8z" clip-rule="evenodd"/><path d="M70.3 94.7l.2-.2c-4.8 14.3 20.2 2.7 7.3-1.7-3.4-.8-6.4-.9-7.5 1.9z" class="st66"/><path fill="#3f3824" fill-rule="evenodd" d="M78 105.3l.2-.1c.3-2 1.5.9-.2.1z" clip-rule="evenodd"/><path fill="#2d2815" fill-rule="evenodd" d="M77.2 102.3c.4.2 1.6-.1 1.9.5-.5.2-1.9.1-1.9-.5z" clip-rule="evenodd"/><path d="M81.2 102.4c-.3-.4-1.1-.3-1.2-.6-.8.4.9 1.5 1.2.6z" class="st90"/><path fill="#2d2816" fill-rule="evenodd" d="M76.7 104.2c.1-1.1 2.2-.5 1.1.3-.1 0-.3-.4-1.1-.3z" clip-rule="evenodd"/><path d="M80.6 101.6c-.3.3-.7.4-1.1.5-.4-.8.9-1.3 1.1-.5z" class="st92"/><path d="M82 102c-.1-.3.5-.4.3-.1.1.5-.8.4-.3.1zm1.5-1c.3-.5.9.5.3.5-.1-.1-.2-.3-.3-.5z" class="st90"/><path d="M79.9 100.2c.4-.2.9-.1 1.3-.3.1 1-.3 1.2-1.3.3zm1.2-1.5c-1.1-.4 1.6 4.6.8-1.2-.5 0-.6.9-.8 1.2z" class="st65"/><path d="M80.3 103.3c-.5-.4-1 .3-.9.6.4.2.8-.2.9-.6z" class="st92"/><path d="M80.9 104.1c-.5-.7.5-.3.6.1-.1.6-.6.6-.6-.1zm1.8-.3c-.7.2 0-.4.3-.2 1-.2 0 1.2-.3.2zm2.1-.4c.1.4-2 .5-.8 0 .1-.3 1.6-.2.8 0zm.6-2.8c-.4.8-.7-.4-.2-.4.7-.5.9.5.2.4zm-2.1 5.4c-.6.5 1.7-.2.2-.3 0-.1-.3 0-.2.3zm-1 .9c1-.5.1 1.3 0 0zm-.7-1.3c2.1-.8-1.1 1.6 0 0z" class="st90"/><path d="M80.6 105.2c.6-.1.6.5 0 .5-.6.1-.6-.7 0-.5z" class="st65"/><path d="M80.4 105.3c-.4.2-.9.9-.9.9-1.1.3 1.7 3 .9-.9z" class="st92"/><path d="M70.2 106c9.4-1.9 12.9 5.7 24 2.4-9.3 4-18.5-1.2-24-2.4z" class="st66"/><path fill="none" d="M68.6 94.6l-7.5-7"/><path d="M62.9 106.8c1.7-1.5 3.3-3.3 5.1-4.5-1.6 1.5-3.4 3-5.1 4.5zm5.4-3.7s-2.9 2.9-3.5 3.3l3.5-3.3z" class="st6"/><path d="M68.3 103.1c-1.1 1.1-2.3 2.4-3.5 3.3 1.1-1 2.3-2.2 3.5-3.3zM95.1 104.3c-2.5-.1-4.8-1.4-7.1-2.1 2.3.7 4.8 1.4 7.1 2.1z" class="st6"/><path fill="#ecd592" fill-rule="evenodd" d="M104.4 122.4c3.4-3.5 10.1-6.4 6-11.9 4.6 1.1 14.5-11.3 3.9-6.8.8 0-4.3 3-5.1 4.1-1.7.8-5.7.7-5.6 2.7-2.3 2-1.8 4.3 2.6 6.4-.9.6-7.9-.8-6.2.4-3.4-.9-5.5 5.8-1.3 6 3.4-1.9 3.5.9 5.7-.9z" clip-rule="evenodd"/><path d="M66.8 100.4c-2.9 2.3-5.9 4.7-9 6.8 2.9-2.3 6.1-4.6 9-6.8z" class="st6"/></g></svg>