<?xml version="1.0" encoding="utf-8"?>
<!-- Generator: Adobe Illustrator 22.1.0, SVG Export Plug-In . SVG Version: 6.00 Build 0)  -->
<svg version="1.0" id="Livello_1" xmlns="http://www.w3.org/2000/svg" xmlns:xlink="http://www.w3.org/1999/xlink" x="0px" y="0px"
	 viewBox="0 0 200 200" style="enable-background:new 0 0 200 200;" xml:space="preserve">
<style type="text/css">
	.st0{fill:#6B38DF;}
	.st1{fill:none;}
</style>
<path class="st0" d="M90.5,115.6l-14.1,75.2C35.3,180.3,5,143.1,5,98.8c0-52.5,42.5-95,95-95c6.1,0,12,0.6,17.7,1.7L38.2,115.6H90.5
	z"/>
<path class="st0" d="M195,98.8c0,52.5-42.5,95-95,95c-6.2,0-12.3-0.6-18.1-1.7l79.4-110.4h-51.1l13.2-75
	C164.6,17.1,195,54.4,195,98.8z"/>
<path class="st1" d="M158.3,82.5L82.8,187.3l-5.2-1.2L91,114.8H41.3l75.6-104.7l0.1,0l5.1,1.1c0.1,0,0.2,0,0.3,0.1l-12.5,71.2H158.3
	z"/>
</svg>
