<svg xmlns="http://www.w3.org/2000/svg" viewBox="0 0 200 200"><linearGradient id="a" x1="66.223" x2="136.2208" y1="-270.8454" y2="-270.8454" gradientTransform="matrix(1 0 0 -1 -.05 -182)" gradientUnits="userSpaceOnUse"><stop offset="0" stop-color="#eee77b"/><stop offset=".1" stop-color="#ebe379"/><stop offset=".22" stop-color="#e1d673"/><stop offset=".33" stop-color="#d1c069"/><stop offset=".37" stop-color="#ccb965"/><stop offset=".61" stop-color="#eee77b"/><stop offset=".66" stop-color="#e6dd75"/><stop offset=".75" stop-color="#d2c164"/><stop offset=".77" stop-color="#cdba60"/><stop offset=".78" stop-color="#d3c265"/><stop offset=".81" stop-color="#dfd36f"/><stop offset=".84" stop-color="#e8de76"/><stop offset=".88" stop-color="#ede57a"/><stop offset="1" stop-color="#eee77b"/></linearGradient><path fill="url(#a)" d="M136.2 90.8c0 7.8-1 15.6-3 23.1-.1.3-2 6.4-2.1 6.7-5.1 14.2-13.7 26.9-25 36.9-1.4-1-2.9-2.1-4.2-3.3 10.9-9.4 19.2-21.5 24.1-35 .1-.3 2-6.4 2.1-6.7 8.3-31-1.9-64.1-26.2-85l-.7-.6-.7.6C76.3 48.3 66.1 81 74.1 111.9c-1.7.4-3.4.8-5.1 1.3-8.4-32.4 2.1-66.8 27.3-89 .2-.2 3.4-2.9 4.9-4 1.4 1.1 4.6 3.8 4.9 4 19.1 16.8 30.1 41.1 30.1 66.6z"/><linearGradient id="b" x1="71.082" x2="195.05" y1="-329.4406" y2="-329.4406" gradientTransform="matrix(1 0 0 -1 -.05 -182)" gradientUnits="userSpaceOnUse"><stop offset="0" stop-color="#eee77b"/><stop offset=".1" stop-color="#ebe379"/><stop offset=".22" stop-color="#e1d673"/><stop offset=".33" stop-color="#d1c069"/><stop offset=".37" stop-color="#ccb965"/><stop offset=".61" stop-color="#eee77b"/><stop offset=".66" stop-color="#e6dd75"/><stop offset=".75" stop-color="#d2c164"/><stop offset=".77" stop-color="#cdba60"/><stop offset=".78" stop-color="#d3c265"/><stop offset=".81" stop-color="#dfd36f"/><stop offset=".84" stop-color="#e8de76"/><stop offset=".88" stop-color="#ede57a"/><stop offset="1" stop-color="#eee77b"/></linearGradient><path fill="url(#b)" d="M195 170.4c-1.6.8-5.3 2.5-5.6 2.6-29 12.2-62.4 8-87.6-10.9 0 0-5.3-4.4-5.6-4.6-11.5-10.2-20.2-23.2-25.3-37.7 1.7-.5 3.4-1 5.1-1.3 4.9 13.8 13.3 26.1 24.3 35.7l5.6 4.4c23.6 17.1 54.4 20.7 81.3 9.5.3-.1.5-.2.8-.3-.1-.3-.2-.5-.4-.8-10.2-21.7-30.4-38.9-55.7-46.9.6-1.6 1.1-3.3 1.6-5 26.6 8.5 48 26.7 58.8 49.7.4.2 2 3.9 2.7 5.6z"/><linearGradient id="c" x1="5.05" x2="127.051" y1="-326.8097" y2="-326.8097" gradientTransform="matrix(1 0 0 -1 -.05 -182)" gradientUnits="userSpaceOnUse"><stop offset="0" stop-color="#eee77b"/><stop offset=".1" stop-color="#ebe379"/><stop offset=".22" stop-color="#e1d673"/><stop offset=".33" stop-color="#d1c069"/><stop offset=".37" stop-color="#ccb965"/><stop offset=".61" stop-color="#eee77b"/><stop offset=".66" stop-color="#e6dd75"/><stop offset=".75" stop-color="#d2c164"/><stop offset=".77" stop-color="#cdba60"/><stop offset=".78" stop-color="#d3c265"/><stop offset=".81" stop-color="#dfd36f"/><stop offset=".84" stop-color="#e8de76"/><stop offset=".88" stop-color="#ede57a"/><stop offset="1" stop-color="#eee77b"/></linearGradient><path fill="url(#c)" d="M12.2 165.9c-.1.3-.3.5-.4.8l.8.4c27.4 12.4 59.3 9.2 83.7-8.4 1.3 1.2 2.7 2.3 4.2 3.4-26 19.4-60.4 23.2-90 9.8 0 0-4-1.9-5.5-2.7.6-1.6 2.4-5.3 2.5-5.6 11.3-23.2 33.6-41.3 60.9-49.3.3-.1 6.5-1.7 6.8-1.7 17.1-3.8 34.8-3.6 51.8.6-.5 1.7-1 3.4-1.6 5-16-3.9-32.6-4.1-48.7-.6-.3.1-6.5 1.6-6.8 1.7-26 7.5-47.1 24.6-57.7 46.6z"/></svg>