<?xml version="1.0" encoding="utf-8"?>
<!-- Generator: Adobe Illustrator 23.0.3, SVG Export Plug-In . SVG Version: 6.00 Build 0)  -->
<svg version="1.1" id="Livello_1" xmlns="http://www.w3.org/2000/svg" xmlns:xlink="http://www.w3.org/1999/xlink" x="0px" y="0px"
	 viewBox="0 0 200 200" style="enable-background:new 0 0 200 200;" xml:space="preserve">
<style type="text/css">
	.st0{fill:#7A52D1;}
</style>
<title>Icon</title>
<path class="st0" d="M100,5C16.4,5,5,16.4,5,100s11.4,95,95,95s95-11.4,95-95S183.6,5,100,5z M90.5,62h19v38c0,3.8-1,6.2-2.4,7.6
	c-1.4,1.9-3.8,2.9-7.1,2.9s-5.2-1-7.1-2.9c-1.4-1.4-2.4-3.8-2.4-7.6V62z M147.5,101c0,13.8-4.3,26.1-13.3,35.2
	c-9,8.5-20.4,12.8-34.2,12.8s-25.2-3.8-34.2-12.8c-9-9.5-13.3-21.9-13.3-35.2V62h19v39c0,10,2.8,16.6,7.6,20.9
	c4.8,4.8,11.4,7.1,20.9,7.1c10,0,16.2-2.9,20.9-7.1c4.8-4.8,7.6-11.4,7.6-21.4V62h19V101z"/>
</svg>
