<?xml version="1.0" encoding="utf-8"?>
<!-- Generator: Adobe Illustrator 22.1.0, SVG Export Plug-In . SVG Version: 6.00 Build 0)  -->
<svg version="1.0" id="Livello_1" xmlns="http://www.w3.org/2000/svg" xmlns:xlink="http://www.w3.org/1999/xlink" x="0px" y="0px"
	 viewBox="0 0 200 200" style="enable-background:new 0 0 200 200;" xml:space="preserve">
<style type="text/css">
	.st0{fill:#51DED2;}
</style>
<g>
	<circle cx="100" cy="100" r="97.5"/>
	<g>
		<path class="st0" d="M87.5,99.8c0-13.8,0.1-27.6,0-41.3c0-6.1,4.6-11.6,10.9-12.4c7-0.8,12.7,3.8,13.9,10c0.2,0.8,0.2,1.5,0.2,2.4
			c0,27.6,0,55.3,0,82.9c0,6.5-5.2,11.9-11.6,12.4c-6.3,0.4-11.6-3.9-12.9-9.5c-0.2-0.9-0.3-1.8-0.3-2.8
			C87.5,127.5,87.5,113.7,87.5,99.8z"/>
		<path class="st0" d="M154.4,92.7c0,5.3,0,10.6,0,15.9c0,6.9-6,12.9-13.4,12.3c-6.5-0.5-11.4-5.7-11.5-12.2
			c-0.1-10.7-0.1-21.4,0-32.1c0.1-5.7,4.2-10.5,9.9-11.8c7.7-1.6,14.9,4.3,14.9,12.2C154.4,82.1,154.4,87.4,154.4,92.7z"/>
		<path class="st0" d="M45.6,132c0-3.4-0.1-6.8,0-10.2c0.2-7.2,7-12.8,14.1-11.6c6.5,1,10.8,6.1,10.8,12.6c0,6.2,0.1,12.4,0,18.5
			c-0.1,5.4-2.6,9.3-7.5,11.5c-7.4,3.4-16.2-1.6-17.2-9.6c-0.3-2.6-0.2-5.3-0.2-7.9C45.6,134.2,45.6,133.1,45.6,132L45.6,132z"/>
	</g>
</g>
</svg>
