<?xml version="1.0" encoding="utf-8"?>
<!-- Generator: Adobe Illustrator 16.0.0, SVG Export Plug-In . SVG Version: 6.00 Build 0)  -->
<!DOCTYPE svg PUBLIC "-//W3C//DTD SVG 1.0//EN" "http://www.w3.org/TR/2001/REC-SVG-20010904/DTD/svg10.dtd">
<svg version="1.0" id="Livello_1" xmlns="http://www.w3.org/2000/svg" xmlns:xlink="http://www.w3.org/1999/xlink" x="0px" y="0px"
	 width="566.93px" height="566.93px" viewBox="0 0 566.93 566.93" enable-background="new 0 0 566.93 566.93" xml:space="preserve">
<rect x="0" fill="#3A56A2" width="566.929" height="566.93"/>
<g>
	<path fill="#FFFFFF" d="M155.68,291.996c-67.035,0-121.376,54.495-121.376,121.728c0,67.23,54.345,121.727,121.381,121.727
		c67.041,0,121.385-54.496,121.385-121.727c0-67.232-54.344-121.728-121.385-121.728H155.68z M155.68,498.618
		c-46.733,0-84.619-37.987-84.619-84.845c0-46.88,37.886-84.875,84.619-84.875c46.738,0,84.624,37.995,84.624,84.875
		C240.224,460.602,202.377,498.548,155.68,498.618z M414.896,32.333c-67.031,0-121.378,54.501-121.378,121.728
		c0,67.222,54.347,121.728,121.378,121.728c67.041,0,121.385-54.506,121.385-121.728C536.281,86.833,481.938,32.333,414.896,32.333z
		 M414.896,238.965c-46.729,0-84.614-37.997-84.614-84.865c0-46.869,37.885-84.86,84.614-84.86c46.748,0,84.623,37.991,84.623,84.86
		C499.449,200.929,461.604,238.884,414.896,238.965z M155.68,32.333C97.891,32.298,48.083,73.109,36.592,129.908
		c-11.486,56.789,18.532,113.844,71.764,136.395c53.229,22.551,114.942,4.355,147.529-43.506
		c32.587-47.862,27.047-112.119-13.272-153.642h34.419V32.333H155.68z M240.303,154.06c0,46.869-37.886,84.865-84.624,84.865
		c-46.733,0-84.619-37.997-84.619-84.865c0-46.868,37.886-84.865,84.619-84.865c46.717,0.06,84.583,38.011,84.665,84.865H240.303z"
		/>
</g>
<g>
</g>
<g>
</g>
<g>
</g>
<g>
</g>
<g>
</g>
<g>
</g>
</svg>
