<?xml version="1.0" encoding="utf-8"?>
<!-- Generator: Adobe Illustrator 23.0.1, SVG Export Plug-In . SVG Version: 6.00 Build 0)  -->
<svg version="1.1" id="Livello_1" xmlns="http://www.w3.org/2000/svg" xmlns:xlink="http://www.w3.org/1999/xlink" x="0px" y="0px"
	 viewBox="0 0 200 200" style="enable-background:new 0 0 200 200;" xml:space="preserve">
<style type="text/css">
	.st0{fill:#1761A0;}
</style>
<path class="st0" d="M100,5C47.5,5,5,47.5,5,100s42.5,95,95,95s95-42.5,95-95S152.5,5,100,5z M80.9,150.1l0.4-11.1h-4.4
	c-2.4,0-7.7-0.3-11.6-0.7c-6.7-0.8-7.1-0.9-7.1-3.9c0-1.7,0.3-4.9,0.7-6.9c0.7-3.6,0.9-3.7,5.1-3c5.3,0.9,8.1-1.4,8.2-6.7
	c0-2.1,0.7-12.7,1.5-23.5c0.9-11.6,1-20.6,0.5-21.8c-0.7-1.4-2.4-2-5.7-2c-5.5,0-6.3-1.4-5.1-8.8l0.7-5.3l11.1,0.8
	c12.3,0.9,13.1,0.6,13.1-6.2c0-3.8,0-3.8,5-3.5l4.9,0.3v5.6c0,4.8,0.3,5.5,2.4,5.5s2.7-0.9,3.4-5.3l0.7-5.2l4.9,0.3l4.9,0.3v5.7
	c0,5.6,0,5.7,4.9,7.1c10.8,3.3,16,9.9,15.2,19.4c-0.7,6.6-4.3,11-11.8,14.9c-2.7,1.3-3.9,2.3-3,2.3c1,0,4.1,1.4,6.7,3.1
	c9.3,6,11.6,15.9,6.4,26.8c-2.4,5.1-10.3,10.2-18.5,11.8l-6.3,1.3v10.3H97.5V146c0-5.5-0.2-5.8-2.9-5.8c-2.7,0-2.9,0.5-2.9,5.3v5.2
	l-4.9-0.3L80.9,150.1L80.9,150.1z M156.3,154.7c-8.6,8.6-12.4,11.5-20.4,15.3c-5.5,2.7-13.5,5.7-18,6.7c-7.5,1.9-27.6,3-28.7,1.7
	c-0.3-0.3-0.3-2.8,0-5.6l0.5-4.9h7.8c39.4-0.1,71.1-30.5,70.9-68.3c-0.1-32.9-25-61.3-58.6-67.1c-5.8-1-10.6-2-10.8-2.2
	c-0.1-0.1,0-2.4,0.5-5.1c0.7-4.6,0.8-4.8,5.6-4.8c2.7,0,8.7,1,13.5,2.4c18.3,5,34.4,15.4,44.7,29.1c18.9,25,21.9,54.9,8.6,82.2
	C167.8,142.4,164.8,146.2,156.3,154.7L156.3,154.7z"/>
<path class="st0" d="M115.9,83.1c-0.5-4.9-4.5-7.5-12.8-8.6l-6.7-0.7l-1.5,18.8h7.8c6.7,0,8.1-0.3,10.7-2.9
	C115.4,87.5,116.1,85.8,115.9,83.1z"/>
<path class="st0" d="M114.9,117.2c-0.5-5.4-4.9-8.2-14-9.4l-7.3-0.8L92,127.6h8.5c7.3,0,8.9-0.3,11.7-3.2
	C114.3,122,115.1,120.2,114.9,117.2z"/>
</svg>
