<svg xmlns="http://www.w3.org/2000/svg" id="Layer_1" x="0" y="0" version="1.1" viewBox="0 0 200 200" xml:space="preserve"><style>.st0{fill:#2844ad}.st1{fill:#5493f7}</style><path d="M106.5 122.6s-20.8 10.8-19.8 28 24 43.2 37.8 38c13.8-5.2 52.5-27.5 56.3-49.5 3.8-22-34.5-32.8-34.5-32.8l-39.8 16.3zM160 29.3C134.2 8.1 98.5 3.6 68.1 17.8l-22.3 32C48 57.1 53.6 62.8 61 65c12.8 4.3 68.5-17.2 68.5-17.2L160 29.3z" class="st0"/><path d="M13.6 60.6s18.8-34.5 44-42.5 21.5 17.2 0 27.3-35.1 16.1-44 15.2zM10.1 71.5s-28.8 81 50.3 118c0 0 6.2-32.3-5-52.8-8.3-16.3-18.3-31.8-29.8-46.2-5.6-6-10.8-12.4-15.5-19zM183.5 149.8s-20.7 39.7-50.5 39.7c-3-1-4.7-4.2-3.8-7.2 0-.2.2-.3.2-.5 1.9-5.8 20.6-26.3 54.1-32zM160.8 29.8c11.5 8.8 20.7 20.5 26.2 34 9.2 22 10.5 46.5 3.8 69.3-5 13.3-12.8 9.8-29.7 6.3C144.3 136 80.3 118 63.8 96S60 56.3 81.3 45s65.4-23.9 79.5-15.2z" class="st1"/></svg>