<svg xmlns="http://www.w3.org/2000/svg" viewBox="0 0 200 200"><linearGradient id="a" x1="69.9322" x2="130.0678" y1="69.9322" y2="130.0678" gradientUnits="userSpaceOnUse"><stop offset="0" stop-color="#f0223c"/><stop offset="1" stop-color="#a5272a"/></linearGradient><path fill="url(#a)" d="M106.8 102.4c22.1 22.1 26.1 26.4 24.3 26.4-1.1 0-4.2-1-6.8-2.4-3.8-1.9-9.4-7.1-31.1-28.8-22.1-22.1-26.1-26.4-24.3-26.4 1.1 0 4.2 1 6.8 2.4 3.8 1.9 9.4 7.1 31.1 28.8z"/><linearGradient id="b" x1="32.8238" x2="167.1762" y1="32.8238" y2="167.1762" gradientUnits="userSpaceOnUse"><stop offset="0" stop-color="#f0223c"/><stop offset="1" stop-color="#a5272a"/></linearGradient><path fill="url(#b)" d="M100 5C47.5 5 5 47.5 5 100s42.5 95 95 95 95-42.5 95-95-42.5-95-95-95zm40.6 135.5c-7.4.6-13.9-.6-21.4-4.2-6.5-3-4.2-1-49.1-46.5L52.6 72.1l-3.9 2.1c-4.8 2.6-9.4 7.5-12.4 13.2-2.1 3.8-3.3 6.8-3.3 12.6 0 10.1 2.4 13.8 8.6 20.3 7.4 7.9 19 11.1 29.2 8.2 2.6-.8 5.5-2 6.6-2.6l1.9-1.3-10.8-10.9c-9.5-9.5-10.9-11.2-10.9-13.5 0-3.1 2.4-5.8 5.4-5.8 1.8-.1 4.6 2.5 16 14.2 16 16.5 16.3 17.1 10.4 22.2-4.8 4.2-13.6 8.2-20.4 9.4-19.4 3.3-39.2-9.1-45-28-2.2-7-2.2-17.4 0-24.3 6.2-20 27.4-32.2 47.8-27.4 11.4 2.7 12.4 3.5 45.4 36.9l30.4 30.7 3.7-2c5.2-2.7 11.4-9.8 13.5-15.4 2.3-6.2 2.3-14.9 0-21.1-2.4-6.4-8.4-12.5-15-16-3.4-1.8-8.1-2.9-12.8-2.9-6.2 0-8.5.8-11.7 2.5l-4.4 2.6 10.6 10.6c10.1 10.2 11 11.2 11 13.9 0 2.2-.5 3.3-1.8 4.2-4 2.8-5 2.1-19.6-12.7-16-16.3-16.2-16.8-10.5-22.2 8.2-7.6 22-11.5 33.3-9.5 15.2 2.7 27.8 13.6 32.2 27.9 2.2 7 2.2 17.4 0 24.3-4.9 15.5-19.1 26.8-35.5 28.2z"/></svg>