<?xml version="1.0" encoding="utf-8"?>
<!-- Generator: Adobe Illustrator 22.1.0, SVG Export Plug-In . SVG Version: 6.00 Build 0)  -->
<svg version="1.0" id="Livello_1" xmlns="http://www.w3.org/2000/svg" xmlns:xlink="http://www.w3.org/1999/xlink" x="0px" y="0px"
	 viewBox="0 0 200 200" enable-background="new 0 0 200 200" xml:space="preserve">
<polyline fill="none" stroke="#E4D0E4" stroke-miterlimit="10" points="105.7,41.3 143,68.9 173.3,93.7 125,88.2 78.9,65 76.7,92.3 
	42.2,102 36.7,139.2 79.5,162.7 118.1,153 111.2,128.2 165,151.6 145.7,115.8 194,137.8 173.3,93.7 145.7,114.4 122.3,114.4 
	111.2,128.2 80.9,117.1 101.6,103.4 125,88.2 141.6,68.9 78.9,65 71.2,62 50.5,73 76.7,92.3 75.4,115.8 36.7,139.2 5,143.4 "/>
<polygon fill="none" stroke="#E4D0E4" stroke-miterlimit="10" points="36.7,157.2 79.5,162.7 118.1,153 165,151.6 194,137.8 
	194,106.1 173.3,93.7 160.9,73 143,68.9 130.5,46.8 105.7,41.3 78.9,64.7 49.8,73.7 42.2,102 7.8,111.6 5,143.4 "/>
<polyline fill="none" stroke="#E4D0E4" stroke-miterlimit="10" points="80.9,117.1 75.4,115.8 42.2,102 7.8,111.6 36.7,139.2 
	36.7,157.2 "/>
<polyline fill="none" stroke="#E4D0E4" stroke-miterlimit="10" points="36.7,139.2 118.1,153 111.2,128.2 80.5,66.5 145.7,114.4 "/>
<polyline fill="#CA7029" points="151.9,93 73.3,175.8 98.1,111.8 151.9,93 "/>
<polygon fill="#F2EC22" points="99.5,93 151.9,93 101.6,117.8 "/>
<polygon fill="#F8BD13" points="125,30.9 54.7,117.8 101.6,117.8 "/>
</svg>
