<?xml version="1.0" encoding="utf-8"?>
<!-- Generator: Adobe Illustrator 16.0.0, SVG Export Plug-In . SVG Version: 6.00 Build 0)  -->
<!DOCTYPE svg PUBLIC "-//W3C//DTD SVG 1.1//EN" "http://www.w3.org/Graphics/SVG/1.1/DTD/svg11.dtd">
<svg version="1.1" id="Layer_1" xmlns="http://www.w3.org/2000/svg" xmlns:xlink="http://www.w3.org/1999/xlink" x="0px" y="0px"
	 width="376px" height="372px" viewBox="119.141 1.492 376 372" enable-background="new 119.141 1.492 376 372"
	 xml:space="preserve">
<circle stroke="#FFFFFF" stroke-miterlimit="10" cx="307.141" cy="186.492" r="159"/>
<g>
	<g>
		<path fill="none" stroke="#FFFFFF" stroke-width="0.3" d="M304.125,298.359l21.809,11.142l-18.353,2.032L304.125,298.359z
			 M314.27,268.135l-31.482-25.681l41.146,6.446L314.27,268.135z M233.286,174.516l-24.358,1.68l14.761-26.929L233.286,174.516z"/>
		<path fill="none" stroke="#FFFFFF" stroke-width="0.3" d="M198.958,144.612l24.746,4.66l-4.903-12.839L198.958,144.612z
			 M224.091,119.581l-1.655-20.472l-3.63,37.324L224.091,119.581z"/>
		<path fill="none" stroke="#FFFFFF" stroke-width="0.3" d="M224.091,119.581l16.697-7.124l-12.965,20.178l-9.021,3.8
			L224.091,119.581z M198.958,144.612l9.96,31.627l9.272-22.301L198.958,144.612z"/>
		<path fill="none" stroke="#FFFFFF" stroke-width="0.3" d="M198.958,144.612l24.746,4.66l-5.518,4.666L198.958,144.612z"/>
		<path fill="none" stroke="#FFFFFF" stroke-width="0.3" d="M208.923,176.206l14.78-26.934l-5.518,4.666L208.923,176.206z
			 M218.418,224.633l21.349-23.376l15.801-0.848v21.57L218.418,224.633z M218.418,224.633l35.03,9.839l2.12-12.491L218.418,224.633z
			 M258.341,276.319l26.904,10.178l28.894-18.457l-39.517-13.73L258.341,276.319z"/>
		<path fill="none" stroke="#FFFFFF" stroke-width="0.3" d="M248.062,283.676l10.357-7.453l20.017,16.765l-8.102,12.98
			L248.062,283.676z M258.109,275.956l20.327,17.031l6.824-6.484L258.109,275.956z"/>
		<path fill="none" stroke="#FFFFFF" stroke-width="0.3" d="M304.125,298.359l-18.846-11.892l-6.843,6.52l29.145,18.546
			L304.125,298.359z M290.888,304.104l5.067,10.768l-25.621-8.903L290.888,304.104z"/>
		<path fill="none" stroke="#FFFFFF" stroke-width="0.3" d="M290.888,304.104l-12.452-11.117l-8.102,12.98L290.888,304.104z"/>
		<path fill="none" stroke="#FFFFFF" stroke-width="0.3" d="M290.888,304.104l-12.452-11.117l29.145,18.546L290.888,304.104z"/>
		<path fill="none" stroke="#FFFFFF" stroke-width="0.3" d="M290.888,304.104l5.067,10.768l11.63-3.357L290.888,304.104z
			 M218.418,224.633l-17.147,4.364l2.081,4.08L218.418,224.633z"/>
		<path fill="none" stroke="#FFFFFF" stroke-width="0.3" d="M218.418,224.633l-15.09,8.431l38.935,19.538l11.122-18.169
			L218.418,224.633z"/>
		<path fill="none" stroke="#FFFFFF" stroke-width="0.3" d="M217.998,273.175l17.791-15.777l-32.459-24.344L217.998,273.175z"/>
		<path fill="none" stroke="#FFFFFF" stroke-width="0.3" d="M242.283,252.605l-6.495,4.791l-32.459-24.344L242.283,252.605z"/>
		<path fill="none" stroke="#FFFFFF" stroke-width="0.3" d="M242.283,252.605l-6.495,4.791l12.269,26.337L242.283,252.605z"/>
		<path fill="none" stroke="#FFFFFF" stroke-width="0.3" d="M217.998,273.175l17.791-15.777l12.288,26.271L217.998,273.175z
			 M355.793,281.005l-51.779,17.533l10.1-30.532L355.793,281.005z"/>
		<path fill="none" stroke="#FFFFFF" stroke-width="0.3" d="M355.793,281.005l-9.477-16.459l-32.203,3.46L355.793,281.005z
			 M355.793,281.005l-2.88,20.83l40.185-22.346L355.793,281.005z"/>
		<path fill="none" stroke="#FFFFFF" stroke-width="0.3" d="M355.793,281.005l-9.477-16.459l46.781,14.943L355.793,281.005z
			 M314.123,268.034l-10.109,30.504l-18.784-12.073L314.123,268.034z M325.889,309.501l27.029-7.677l-13.464-3.291L325.889,309.501z
			"/>
		<path fill="none" stroke="#FFFFFF" stroke-width="0.3" d="M355.793,281.005l-2.875,20.819l-13.464-3.291L355.793,281.005z"/>
		<path fill="none" stroke="#FFFFFF" stroke-width="0.3" d="M355.793,281.005l-51.779,17.533h35.44L355.793,281.005z
			 M325.889,309.501l-22.082-10.963h35.648L325.889,309.501z M314.27,268.135l-31.482-25.681l-8.145,11.823L314.27,268.135z"/>
		<path fill="none" stroke="#FFFFFF" stroke-width="0.3" d="M253.375,234.431l29.411,8.023l-8.145,11.823L253.375,234.431z"/>
		<path fill="none" stroke="#FFFFFF" stroke-width="0.3" d="M258.355,276.291l-4.985-41.911l21.271,19.899L258.355,276.291z"/>
		<path fill="none" stroke="#FFFFFF" stroke-width="0.3" d="M258.355,276.291l-4.985-41.911l-11.107,18.217L258.355,276.291z"/>
		<path fill="none" stroke="#FFFFFF" stroke-width="0.3" d="M258.355,276.291l-10.309,7.42l-5.783-31.114L258.355,276.291z
			 M258.355,276.291l-10.309,7.42l-5.783-31.114L258.355,276.291z M201.271,179.168l-13.841,10.87l13.841,38.959l20.685-30.771
			L201.271,179.168z M218.418,224.633l-17.147,4.364l20.685-30.771L218.418,224.633z"/>
		<path fill="none" stroke="#FFFFFF" stroke-width="0.3" d="M218.418,224.633l21.349-23.376l-17.81-3.029L218.418,224.633z"/>
		<path fill="none" stroke="#FFFFFF" stroke-width="0.3" d="M201.271,179.168l38.543,22.117l-17.858-3.059L201.271,179.168z"/>
		<path fill="none" stroke="#FFFFFF" stroke-width="0.3" d="M208.894,176.186l-7.623,2.98l38.543,22.117l14.732-19.262
			l-21.295-7.502L208.894,176.186z"/>
		<path fill="none" stroke="#FFFFFF" stroke-width="0.3" d="M201.271,179.168l7.632-2.98l-9.936-31.55L201.271,179.168z
			 M314.27,268.135l9.664-19.233l28.371-6.867L314.27,268.135z"/>
		<path fill="none" stroke="#FFFFFF" stroke-width="0.3" d="M352.26,242.059l-6.039,22.582l-32.088,3.388L352.26,242.059z
			 M274.012,212.512l-4.617,14.775l-13.842-26.869L274.012,212.512z"/>
		<path fill="none" stroke="#FFFFFF" stroke-width="0.3" d="M274.012,212.512l-19.484-30.467l1.021,18.373L274.012,212.512z"/>
		<path fill="none" stroke="#FFFFFF" stroke-width="0.3" d="M239.786,201.291l14.751-19.287l1.016,18.416L239.786,201.291z"/>
		<path fill="none" stroke="#FFFFFF" stroke-width="0.3" d="M258.385,163.186l-2.526,12.419l-1.316,6.456l-21.363-7.535
			l25.205-11.344V163.186z"/>
		<path fill="none" stroke="#FFFFFF" stroke-width="0.3" d="M258.385,163.201l-2.526,12.424c-0.658,3.229-1.341,6.48-1.341,6.48
			l16.465-19.775L258.385,163.201z"/>
		<path fill="none" stroke="#FFFFFF" stroke-width="0.3" d="M258.385,163.201l3.426-13.173l9.171,12.302L258.385,163.201z"/>
		<path fill="none" stroke="#FFFFFF" stroke-width="0.3" d="M258.385,163.201l3.426-13.173l-28.53,24.498L258.385,163.201z"/>
		<path fill="none" stroke="#FFFFFF" stroke-width="0.3" d="M232.357,169.401l34.763-45.711l-5.309,26.338l-28.53,24.498
			L232.357,169.401z"/>
		<path fill="none" stroke="#FFFFFF" stroke-width="0.3" d="M272.671,128.801l-5.663-4.681l-5.198,25.907l9.118,12.477
			L272.671,128.801z M272.671,128.801l23.506-13.305l-29.164,8.624L272.671,128.801z M255.548,221.969l13.847,5.318l-13.842-26.869
			L255.548,221.969z"/>
		<path fill="none" stroke="#FFFFFF" stroke-width="0.3" d="M255.548,221.969l13.847,5.318l-15.961,7.173L255.548,221.969z"/>
		<path fill="none" stroke="#FFFFFF" stroke-width="0.3" d="M282.743,242.495l-13.348-15.205l-15.961,7.172L282.743,242.495z
			 M241.446,132.581l25.602-8.383l-34.672,45.203L241.446,132.581z"/>
		<path fill="none" stroke="#FFFFFF" stroke-width="0.3" d="M241.446,132.581h-13.58l4.51,36.825L241.446,132.581z"/>
		<path fill="none" stroke="#FFFFFF" stroke-width="0.3" d="M218.772,136.448l9.094-3.867l5.391,41.911L218.772,136.448z
			 M224.062,119.61l36.414-15.569l-3.756-8.865L224.062,119.61z M241.446,132.581h-13.58l12.917-20.119L241.446,132.581z"/>
		<path fill="none" stroke="#FFFFFF" stroke-width="0.3" d="M241.446,132.581l25.587-8.318l-26.275-11.81L241.446,132.581z"/>
		<path fill="none" stroke="#FFFFFF" stroke-width="0.3" d="M260.364,103.973l6.669,20.288l-26.299-11.81L260.364,103.973z
			 M260.364,103.973l-3.63-8.766l12.448-28.007L260.364,103.973z"/>
		<path fill="none" stroke="#FFFFFF" stroke-width="0.3" d="M222.426,99.158l34.289-3.925l12.458-27.988L222.426,99.158z"/>
		<path fill="none" stroke="#FFFFFF" stroke-width="0.3" d="M224.062,119.61l9.249-11.818l23.41-12.616L224.062,119.61z"/>
		<path fill="none" stroke="#FFFFFF" stroke-width="0.3" d="M256.729,95.219L233.3,107.796l-10.89-8.647L256.729,95.219z"/>
		<path fill="none" stroke="#FFFFFF" stroke-width="0.3" d="M224.086,119.726l9.21-11.931l-10.87-8.652L224.086,119.726z
			 M357.521,82.205l-42.305,3.175l30.264,20.118L357.521,82.205z"/>
		<path fill="none" stroke="#FFFFFF" stroke-width="0.3" d="M358.986,68.851l-1.465,13.354l-42.305,3.175l-11.988-12.177
			L358.986,68.851z"/>
		<path fill="none" stroke="#FFFFFF" stroke-width="0.3" d="M358.992,68.847l-34.487-7.463L303.23,73.202L358.992,68.847z
			 M375.626,123.066l-8.073-19.485l-26.216,27.269L375.626,123.066z M345.46,105.449l-30.198-20.084l-3.012,23.864l21.827,3.862
			L345.46,105.449z"/>
		<g>
			<path fill="none" stroke="#FFFFFF" stroke-width="0.3" d="M341.313,130.877l26.246-27.218l-0.981-26.096L341.313,130.877z"/>
			<path fill="none" stroke="#FFFFFF" stroke-width="0.3" d="M341.313,130.877l4.144-25.423l12.062-23.288l9.06-4.603
				L341.313,130.877z"/>
			<path fill="none" stroke="#FFFFFF" stroke-width="0.3" d="M345.46,105.449l-11.383,7.644l7.26,17.795L345.46,105.449z"/>
		</g>
		<path fill="none" stroke="#FFFFFF" stroke-width="0.3" d="M296.216,115.54l-17.156-10.027l33.2,3.701L296.216,115.54z"/>
		<path fill="none" stroke="#FFFFFF" stroke-width="0.3" d="M296.216,115.54l-17.156-10.027l-12.007,18.633L296.216,115.54z
			 M267.009,124.203l12.051-18.689l-4.965-13.328l-13.803,11.696L267.009,124.203z"/>
		<g>
			<path fill="none" stroke="#FFFFFF" stroke-width="0.3" d="M375.626,123.066l-8.092-19.538l13.565,11.373L375.626,123.066z"/>
			<path fill="none" stroke="#FFFFFF" stroke-width="0.3" d="M381.08,114.916l-13.521-11.339l21.342-2.004L381.08,114.916z"/>
		</g>
		<g>
			<path fill="none" stroke="#FFFFFF" stroke-width="0.3" d="M375.818,80.288l-8.26,23.298l-0.982-26.021L375.818,80.288z"/>
			<path fill="none" stroke="#FFFFFF" stroke-width="0.3" d="M375.811,80.302l-8.271,23.293l21.361-2.022L375.811,80.302z
				 M375.818,80.288l-16.855-11.455l7.613,8.73L375.818,80.288z"/>
		</g>
		<path fill="none" stroke="#FFFFFF" stroke-width="0.3" d="M357.521,82.205l1.461-13.356l7.594,8.711L357.521,82.205z"/>
		<g>
			<path fill="none" stroke="#FFFFFF" stroke-width="0.3" d="M298.878,87.929l13.396,21.313l-33.209-3.722l-4.97-13.324
				L298.878,87.929z"/>
			<path fill="none" stroke="#FFFFFF" stroke-width="0.3" d="M298.878,87.929l13.392,21.313l3.004-23.889l-12.03-12.157
				L298.878,87.929z"/>
			<path fill="none" stroke="#FFFFFF" stroke-width="0.3" d="M298.878,87.929l-24.804,4.282l4.037-11.833l25.132-7.182
				L298.878,87.929z"/>
		</g>
		<path fill="none" stroke="#FFFFFF" stroke-width="0.3" d="M269.172,67.235l8.939,13.145l25.132-7.182L269.172,67.235z"/>
		<path fill="none" stroke="#FFFFFF" stroke-width="0.3" d="M269.167,67.235l8.949,13.145l-4.104,12.188L269.167,67.235z"/>
		<path fill="none" stroke="#FFFFFF" stroke-width="0.3" d="M269.167,67.23l-8.828,36.661l13.667-11.325L269.167,67.23z"/>
		<g>
			<path fill="none" stroke="#FFFFFF" stroke-width="0.3" d="M382.59,238.521l10.512,40.982l-31.061-24.493l-0.986-19.466
				L382.59,238.521z"/>
			<path fill="none" stroke="#FFFFFF" stroke-width="0.3" d="M352.26,242.059l-6.039,22.582l15.82-9.631l-0.986-19.466
				L352.26,242.059z"/>
			<path fill="none" stroke="#FFFFFF" stroke-width="0.3" d="M346.27,264.573l46.832,14.932l-31.061-24.493L346.27,264.573z
				 M382.59,238.521l-20.254-7.889l-1.281,4.912L382.59,238.521z"/>
			<path fill="none" stroke="#FFFFFF" stroke-width="0.3" d="M352.26,242.059l10.076-11.441l-1.281,4.928L352.26,242.059z"/>
		</g>
		<path fill="none" stroke="#FFFFFF" stroke-width="0.3" d="M341.346,130.819l34.275-7.743l13.279-21.557l-13.114-21.212
			l-16.784-11.433l-34.492-7.496l-21.266,11.818l-34.042-5.978l-46.737,31.928l-3.644,37.28l-19.828,8.153l2.284,34.59
			l-13.841,10.871l13.832,38.935l2.081,4.085l14.635,40.072l30.064,10.502l22.287,22.345l25.631,8.853l11.591-3.301l18.405-2.081
			l26.957-7.623l40.188-22.358l-10.517-40.963l-20.229-7.859l-10.082,11.373l-28.336,6.863l-41.233-6.438l-13.304-15.167
			l4.636-14.839l-19.494-30.403l16.396-19.717l1.743-33.521l23.467-13.279l16.102-6.34l21.848,3.896L341.346,130.819z"/>
	</g>
</g>
</svg>
