<?xml version="1.0" encoding="utf-8"?>
<!-- Generator: Adobe Illustrator 22.1.0, SVG Export Plug-In . SVG Version: 6.00 Build 0)  -->
<svg version="1.0" id="Livello_1" xmlns="http://www.w3.org/2000/svg" xmlns:xlink="http://www.w3.org/1999/xlink" x="0px" y="0px"
	 viewBox="0 0 200 200" enable-background="new 0 0 200 200" xml:space="preserve">
<circle fill="#4077BE" cx="100" cy="100" r="95"/>
<g>
	<path fill="#5CA0F6" d="M110.8,38c0,8.1-6.6,14.8-14.8,14.8S81.3,46.1,81.3,38s6.6-14.8,14.8-14.8S110.8,29.8,110.8,38 M60.5,143
		h19.1V62.3h-1.7c-9.6,0-17.4,7.8-17.4,17.4V143z"/>
	<path fill="#FFFFFF" d="M105.6,123.9h10.4c2.4,0,4.3-1.9,4.3-4.3V84.8c0-2.4-1.9-4.3-4.3-4.3h-10.4V123.9z M105.6,176.8H86.6V61.4
		h29.5c12.9,0,23.4,10.5,23.4,23.4v34.7c0,12.9-10.5,23.4-23.4,23.4h-10.4V176.8z"/>
</g>
</svg>
