<?xml version="1.0" encoding="utf-8"?>
<!-- Generator: Adobe Illustrator 22.1.0, SVG Export Plug-In . SVG Version: 6.00 Build 0)  -->
<svg version="1.1" id="Layer_1" xmlns="http://www.w3.org/2000/svg" xmlns:xlink="http://www.w3.org/1999/xlink" x="0px" y="0px"
	 viewBox="0 0 200 200" style="enable-background:new 0 0 200 200;" xml:space="preserve">
<style type="text/css">
	.st0{fill:none;stroke:#000000;stroke-linejoin:bevel;}
</style>
<g>
	<path class="st0" d="M110.4,182.6l16.3,8.4l-13.8,1.5L110.4,182.6z M118,160l-23.6-19.2l30.8,4.8L118,160z M57.3,89.8L39,91.1
		l11.1-20.2L57.3,89.8z"/>
	<path class="st0" d="M31.6,67.4l18.5,3.5l-3.7-9.6L31.6,67.4z M50.4,48.6l-1.2-15.3l-2.7,28L50.4,48.6z"/>
	<path class="st0" d="M50.4,48.6l12.5-5.3l-9.7,15.1l-6.8,2.8L50.4,48.6z M31.6,67.4L39,91.1L46,74.4L31.6,67.4z"/>
	<path class="st0" d="M31.6,67.4l18.5,3.5L46,74.4L31.6,67.4z"/>
	<path class="st0" d="M39,91.1l11.1-20.2L46,74.4L39,91.1z M46.1,127.4l16-17.5l11.8-0.6v16.2L46.1,127.4z M46.1,127.4l26.3,7.4
		l1.6-9.4L46.1,127.4z M76.1,166.1l20.2,7.6l21.7-13.8l-29.6-10.3L76.1,166.1z"/>
	<path class="st0" d="M68.4,171.6l7.8-5.6l15,12.6l-6.1,9.7L68.4,171.6z M75.9,165.8l15.2,12.8l5.1-4.9L75.9,165.8z"/>
	<path class="st0" d="M110.4,182.6l-14.1-8.9l-5.1,4.9l21.8,13.9L110.4,182.6z M100.5,186.9l3.8,8.1l-19.2-6.7L100.5,186.9z"/>
	<path class="st0" d="M100.5,186.9l-9.3-8.3l-6.1,9.7L100.5,186.9z"/>
	<path class="st0" d="M100.5,186.9l-9.3-8.3l21.8,13.9L100.5,186.9z"/>
	<path class="st0" d="M100.5,186.9l3.8,8.1l8.7-2.5L100.5,186.9z M46.1,127.4l-12.9,3.3l1.6,3.1L46.1,127.4z"/>
	<path class="st0" d="M46.1,127.4l-11.3,6.3L64,148.3l8.3-13.6L46.1,127.4z"/>
	<path class="st0" d="M45.8,163.7l13.3-11.8l-24.3-18.2L45.8,163.7z"/>
	<path class="st0" d="M64,148.3l-4.9,3.6l-24.3-18.2L64,148.3z"/>
	<path class="st0" d="M64,148.3l-4.9,3.6l9.2,19.7L64,148.3z"/>
	<path class="st0" d="M45.8,163.7l13.3-11.8l9.2,19.7L45.8,163.7z M149.1,169.6l-38.8,13.1l7.6-22.9L149.1,169.6z"/>
	<path class="st0" d="M149.1,169.6l-7.1-12.3l-24.1,2.6L149.1,169.6z M149.1,169.6l-2.2,15.6l30.1-16.7L149.1,169.6z"/>
	<path class="st0" d="M149.1,169.6l-7.1-12.3l35.1,11.2L149.1,169.6z M117.9,159.9l-7.6,22.9l-14.1-9L117.9,159.9z M126.7,191
		l20.3-5.8l-10.1-2.5L126.7,191z"/>
	<path class="st0" d="M149.1,169.6l-2.2,15.6l-10.1-2.5L149.1,169.6z"/>
	<path class="st0" d="M149.1,169.6l-38.8,13.1h26.6L149.1,169.6z M126.7,191l-16.6-8.2h26.7L126.7,191z M118,160l-23.6-19.2
		l-6.1,8.9L118,160z"/>
	<path class="st0" d="M72.3,134.7l22,6l-6.1,8.9L72.3,134.7z"/>
	<path class="st0" d="M76.1,166.1l-3.7-31.4l15.9,14.9L76.1,166.1z"/>
	<path class="st0" d="M76.1,166.1l-3.7-31.4L64,148.3L76.1,166.1z"/>
	<path class="st0" d="M76.1,166.1l-7.7,5.6L64,148.3L76.1,166.1z M76.1,166.1l-7.7,5.6L64,148.3L76.1,166.1z M33.3,93.3l-10.4,8.1
		l10.4,29.2l15.5-23.1L33.3,93.3z M46.1,127.4l-12.9,3.3l15.5-23.1L46.1,127.4z"/>
	<path class="st0" d="M46.1,127.4l16-17.5l-13.3-2.3L46.1,127.4z"/>
	<path class="st0" d="M33.3,93.3l28.9,16.6l-13.4-2.3L33.3,93.3z"/>
	<path class="st0" d="M39,91.1l-5.7,2.2l28.9,16.6l11-14.4l-16-5.6L39,91.1z"/>
	<path class="st0" d="M33.3,93.3l5.7-2.2l-7.4-23.6L33.3,93.3z M118,160l7.2-14.4l21.3-5.1L118,160z"/>
	<path class="st0" d="M146.5,140.4l-4.5,16.9l-24.1,2.5L146.5,140.4z M87.8,118.3l-3.5,11.1L74,109.2L87.8,118.3z"/>
	<path class="st0" d="M87.8,118.3L73.2,95.4l0.8,13.8L87.8,118.3z"/>
	<path class="st0" d="M62.2,109.9l11.1-14.5l0.8,13.8L62.2,109.9z"/>
	<path class="st0" d="M76.1,81.3l-1.9,9.3l-1,4.8l-16-5.6L76.1,81.3L76.1,81.3z"/>
	<path class="st0" d="M76.1,81.3l-1.9,9.3c-0.5,2.4-1,4.9-1,4.9l12.3-14.8L76.1,81.3z"/>
	<path class="st0" d="M76.1,81.3l2.6-9.9l6.9,9.2L76.1,81.3z"/>
	<path class="st0" d="M76.1,81.3l2.6-9.9L57.3,89.8L76.1,81.3z"/>
	<path class="st0" d="M56.6,86l26.1-34.3l-4,19.7L57.3,89.8L56.6,86z"/>
	<path class="st0" d="M86.8,55.5L82.6,52l-3.9,19.4l6.8,9.4L86.8,55.5z M86.8,55.5l17.6-10L82.6,52L86.8,55.5z M74,125.4l10.4,4
		L74,109.2L74,125.4z"/>
	<path class="st0" d="M74,125.4l10.4,4l-12,5.4L74,125.4z"/>
	<path class="st0" d="M94.4,140.8l-10-11.4l-12,5.4L94.4,140.8z M63.4,58.4l19.2-6.3L56.6,86L63.4,58.4z"/>
	<path class="st0" d="M63.4,58.4H53.2L56.6,86L63.4,58.4z"/>
	<path class="st0" d="M46.4,61.3l6.8-2.9l4,31.4L46.4,61.3z M50.4,48.6L77.7,37l-2.8-6.6L50.4,48.6z M63.4,58.4H53.2l9.7-15.1
		L63.4,58.4z"/>
	<path class="st0" d="M63.4,58.4l19.2-6.2l-19.7-8.9L63.4,58.4z"/>
	<path class="st0" d="M77.6,36.9l5,15.2l-19.7-8.9L77.6,36.9z M77.6,36.9l-2.7-6.6l9.3-21L77.6,36.9z"/>
	<path class="st0" d="M49.2,33.3l25.7-2.9l9.3-21L49.2,33.3z"/>
	<path class="st0" d="M50.4,48.6l6.9-8.9l17.5-9.5L50.4,48.6z"/>
	<path class="st0" d="M74.9,30.4l-17.6,9.4l-8.2-6.5L74.9,30.4z"/>
	<path class="st0" d="M50.4,48.7l6.9-8.9l-8.1-6.5L50.4,48.7z M150.4,20.6L118.7,23l22.7,15.1L150.4,20.6z"/>
	<path class="st0" d="M151.5,10.6l-1.1,10L118.7,23l-9-9.1L151.5,10.6z"/>
	<path class="st0" d="M151.5,10.6L125.7,5l-15.9,8.9L151.5,10.6z M164,51.2l-6.1-14.6l-19.6,20.4L164,51.2z M141.4,38L118.7,23
		l-2.3,17.9l16.4,2.9L141.4,38z"/>
	<path class="st0" d="M138.3,57.1l19.7-20.4l-0.7-19.6L138.3,57.1z"/>
	<path class="st0" d="M138.3,57.1l3.1-19.1l9-17.5l6.8-3.5L138.3,57.1z"/>
	<path class="st0" d="M141.4,38l-8.5,5.7l5.4,13.3L141.4,38z"/>
	<path class="st0" d="M104.5,45.6l-12.9-7.5l24.9,2.8L104.5,45.6z"/>
	<path class="st0" d="M104.5,45.6l-12.9-7.5l-9,14L104.5,45.6z M82.6,52.1l9-14l-3.7-10l-10.3,8.8L82.6,52.1z"/>
	<path class="st0" d="M164,51.2l-6.1-14.6l10.2,8.5L164,51.2z"/>
	<path class="st0" d="M168.1,45.1l-10.1-8.5l16-1.5L168.1,45.1z"/>
	<path class="st0" d="M164.1,19.2l-6.2,17.5l-0.7-19.5L164.1,19.2z"/>
	<path class="st0" d="M164.1,19.2l-6.2,17.5l16-1.5L164.1,19.2z M164.1,19.2l-12.6-8.6l5.7,6.5L164.1,19.2z"/>
	<path class="st0" d="M150.4,20.6l1.1-10l5.7,6.5L150.4,20.6z"/>
	<path class="st0" d="M106.5,24.9l10,16l-24.9-2.8l-3.7-10L106.5,24.9z"/>
	<path class="st0" d="M106.5,24.9l10,16l2.3-17.9l-9-9.1L106.5,24.9z"/>
	<path class="st0" d="M106.5,24.9l-18.6,3.2l3-8.9l18.8-5.4L106.5,24.9z"/>
	<path class="st0" d="M84.2,9.4l6.7,9.9l18.8-5.4L84.2,9.4z"/>
	<path class="st0" d="M84.2,9.4l6.7,9.9l-3.1,9.1L84.2,9.4z"/>
	<path class="st0" d="M84.2,9.4l-6.6,27.5l10.2-8.5L84.2,9.4z"/>
	<path class="st0" d="M169.2,137.8l7.9,30.7l-23.3-18.4l-0.7-14.6L169.2,137.8z"/>
	<path class="st0" d="M146.5,140.4l-4.5,16.9l11.9-7.2l-0.7-14.6L146.5,140.4z"/>
	<path class="st0" d="M142,157.3l35.1,11.2l-23.3-18.4L142,157.3z M169.2,137.8l-15.2-5.9l-1,3.7L169.2,137.8z"/>
	<polygon class="st0" points="169.2,137.8 154,131.9 154,131.9 154,131.8 148.2,138.4 146.5,140.4 125.2,145.5 94.3,140.7 
		84.4,129.3 87.8,118.2 73.2,95.4 85.5,80.7 86.8,55.5 104.4,45.6 116.5,40.8 132.9,43.7 138.3,57 164,51.2 173.9,35.1 164.1,19.2 
		151.5,10.6 125.7,5 109.7,13.9 84.2,9.4 49.2,33.3 46.4,61.3 31.6,67.4 33.3,93.3 22.9,101.4 33.3,130.6 34.9,133.7 45.8,163.7 
		68.4,171.6 85.1,188.3 104.3,195 113,192.5 126.8,190.9 147,185.2 177.1,168.5 	"/>
</g>
</svg>
