<?xml version="1.0" encoding="utf-8"?>
<!-- Generator: Adobe Illustrator 25.0.1, SVG Export Plug-In . SVG Version: 6.00 Build 0)  -->
<svg version="1.1" id="Livello_1" xmlns="http://www.w3.org/2000/svg" xmlns:xlink="http://www.w3.org/1999/xlink" x="0px" y="0px"
	 viewBox="0 0 200 200" style="enable-background:new 0 0 200 200;" xml:space="preserve">
<style type="text/css">
	.st0{fill:#80FF77;}
	.st1{fill:#43FFB4;}
	.st2{fill:#B4FF43;}
	.st3{fill:#13FCE4;}
	.st4{fill:#ADFF49;}
	.st5{fill:#B7FF40;}
	.st6{fill:#AAFF4D;}
	.st7{fill:#BAFF3C;}
	.st8{fill:#E4FF13;}
	.st9{fill:#FF2500;}
	.st10{fill:#DBFF1C;}
	.st11{fill:#EBFF0C;}
	.st12{fill:#A7FF50;}
	.st13{fill:#D4FF23;}
	.st14{fill:#BEFF39;}
	.st15{fill:#FFD700;}
	.st16{fill:#F1FC06;}
	.st17{fill:#ED0400;}
	.st18{fill:#FF1E00;}
	.st19{fill:#FFE200;}
	.st20{fill:#FFCC00;}
	.st21{fill:#CEFF29;}
	.st22{fill:#FBF100;}
	.st23{fill:#D10000;}
	.st24{fill:#FFA700;}
	.st25{fill:#A4FF53;}
	.st26{fill:#FFB600;}
	.st27{fill:#FFC100;}
	.st28{fill:#FF9800;}
	.st29{fill:#F8F500;}
	.st30{fill:#FF3800;}
	.st31{fill:#FF7E00;}
	.st32{fill:#FFC400;}
	.st33{fill:#40FFB7;}
	.st34{fill:#FF9100;}
	.st35{fill:#FF1300;}
	.st36{fill:#FF5900;}
	.st37{fill:#FF4300;}
	.st38{fill:#FF6C00;}
	.st39{fill:#FF6F00;}
	.st40{fill:#C7FF30;}
	.st41{fill:#FF5500;}
	.st42{fill:#FF2900;}
	.st43{fill:#FF4700;}
	.st44{fill:#FFA300;}
	.st45{fill:#FF8900;}
	.st46{fill:#B20000;}
	.st47{fill:#A0FF56;}
	.st48{fill:#FFB900;}
	.st49{fill:#FF5D00;}
	.st50{fill:#E7FF0F;}
	.st51{fill:#FF3400;}
	.st52{fill:#C1FF36;}
	.st53{fill:#FFE600;}
	.st54{fill:#FF4E00;}
	.st55{fill:#E80000;}
	.st56{fill:#FFAE00;}
	.st57{fill:#FF8600;}
	.st58{fill:#DEFF19;}
	.st59{fill:#FF2200;}
	.st60{fill:#9F0000;}
	.st61{fill:#FFAB00;}
	.st62{fill:#FF8D00;}
	.st63{fill:#A80000;}
	.st64{fill:#FF7300;}
	.st65{fill:#87FF70;}
	.st66{fill:#B60000;}
	.st67{fill:#FF3F00;}
	.st68{fill:#D60000;}
	.st69{fill:#FF9C00;}
	.st70{fill:#EEFF09;}
	.st71{fill:#FFDE00;}
	.st72{fill:#960000;}
	.st73{fill:#FFD000;}
	.st74{fill:#C80000;}
	.st75{fill:#F10800;}
	.st76{fill:#FEED00;}
	.st77{fill:#FFDB00;}
	.st78{fill:#56FFA0;}
	.st79{fill:#FF2D00;}
	.st80{fill:#02E8F4;}
	.st81{fill:#BB0000;}
	.st82{fill:#F4F802;}
	.st83{fill:#94FF63;}
	.st84{fill:#FFD300;}
	.st85{fill:#6DFF8A;}
	.st86{fill:#0CF4EB;}
	.st87{fill:#000CFF;}
	.st88{fill:#0028FF;}
	.st89{fill:#0000FF;}
	.st90{fill:#83FF73;}
	.st91{fill:#1FFFD7;}
	.st92{fill:#9AFF5D;}
	.st93{fill:#0074FF;}
	.st94{fill:#00C4FF;}
	.st95{fill:#00D0FF;}
	.st96{fill:#D1FF26;}
	.st97{fill:#DF0000;}
	.st98{fill:#09F0EE;}
	.st99{fill:#00E0FB;}
	.st100{fill:#FF5200;}
	.st101{fill:#0040FF;}
	.st102{fill:#0FF8E7;}
	.st103{fill:#0018FF;}
	.st104{fill:#B1FF46;}
	.st105{fill:#00B4FF;}
	.st106{fill:#00C0FF;}
	.st107{fill:#00A8FF;}
	.st108{fill:#23FFD4;}
	.st109{fill:#0010FF;}
	.st110{fill:#00D4FF;}
	.st111{fill:#0008FF;}
	.st112{fill:#C4FF33;}
	.st113{fill:#0088FF;}
	.st114{fill:#5AFF9D;}
	.st115{fill:#FF9400;}
	.st116{fill:#06ECF1;}
	.st117{fill:#00A0FF;}
	.st118{fill:#00B0FF;}
	.st119{fill:#39FFBE;}
	.st120{fill:#0094FF;}
	.st121{fill:#D7FF1F;}
	.st122{fill:#26FFD1;}
	.st123{fill:#0014FF;}
	.st124{fill:#008CFF;}
	.st125{fill:#1CFFDB;}
	.st126{fill:#009CFF;}
	.st127{fill:#0080FF;}
	.st128{fill:#0084FF;}
	.st129{fill:#53FFA4;}
	.st130{fill:#007CFF;}
	.st131{fill:#0044FF;}
	.st132{fill:#36FFC1;}
	.st133{fill:#002CFF;}
	.st134{fill:#0020FF;}
	.st135{fill:#30FFC7;}
	.st136{fill:#2CFFCA;}
	.st137{fill:#00E4F8;}
	.st138{fill:#00ACFF;}
	.st139{fill:#0038FF;}
	.st140{fill:#6AFF8D;}
	.st141{fill:#49FFAD;}
	.st142{fill:#0054FF;}
	.st143{fill:#0098FF;}
	.st144{fill:#0050FF;}
	.st145{fill:#46FFB1;}
	.st146{fill:#0068FF;}
	.st147{fill:#5DFF9A;}
	.st148{fill:#90FF66;}
	.st149{fill:#CAFF2C;}
	.st150{fill:#3CFFBA;}
	.st151{fill:#16FFE1;}
	.st152{fill:#66FF90;}
	.st153{fill:#60FF97;}
	.st154{fill:#AD0000;}
	.st155{fill:#63FF94;}
	.st156{fill:#FF6000;}
	.st157{fill:#8AFF6D;}
	.st158{fill:#FFEA00;}
	.st159{fill:#8DFF6A;}
	.st160{fill:#920000;}
	.st161{fill:#FF3000;}
	.st162{fill:#00C8FF;}
	.st163{fill:#840000;}
	.st164{fill:#7DFF7A;}
	.st165{fill:#890000;}
	.st166{fill:#9B0000;}
	.st167{fill:#E1FF16;}
	.st168{fill:#FF3B00;}
	.st169{fill:#FF7A00;}
	.st170{fill:#FFC800;}
	.st171{fill:#FF4A00;}
	.st172{fill:#A40000;}
	.st173{fill:#DA0000;}
	.st174{fill:#FF9F00;}
	.st175{fill:#FF8200;}
	.st176{fill:#C40000;}
	.st177{fill:#FF7700;}
	.st178{fill:#FF1A00;}
	.st179{fill:#CD0000;}
	.st180{fill:#FF6400;}
	.st181{fill:#FFB200;}
	.st182{fill:#FA0F00;}
	.st183{fill:#FF6800;}
	.st184{fill:#FFBD00;}
	.st185{fill:#50FFA7;}
	.st186{fill:#800000;}
	.st187{fill:#8D0000;}
	.st188{fill:#19FFDE;}
	.st189{fill:#29FFCE;}
	.st190{fill:#97FF60;}
	.st191{fill:#33FFC4;}
	.st192{fill:#4DFFAA;}
	.st193{fill:#9DFF5A;}
	.st194{fill:#E40000;}
	.st195{fill:#BF0000;}
	.st196{fill:#FF1600;}
	.st197{fill:#0060FF;}
	.st198{fill:#0058FF;}
	.st199{fill:#005CFF;}
	.st200{fill:#0070FF;}
	.st201{fill:#0034FF;}
	.st202{fill:#004CFF;}
	.st203{fill:#0048FF;}
	.st204{fill:#0064FF;}
	.st205{fill:#0030FF;}
	.st206{fill:#003CFF;}
	.st207{fill:#006CFF;}
	.st208{fill:#0090FF;}
	.st209{fill:#00B8FF;}
	.st210{fill:#00BCFF;}
	.st211{fill:#00CCFF;}
	.st212{fill:#00D8FF;}
	.st213{fill:#00DCFE;}
</style>
<polygon class="st0" points="111.9,78.4 102.8,78 102.8,87.3 111.8,87.1 "/>
<polygon class="st0" points="102.8,78 95.4,78.5 95.4,88.4 102.8,87.3 "/>
<polygon class="st0" points="121.9,79.6 111.9,78.4 111.8,87.1 121.8,87.7 "/>
<polygon class="st0" points="95.4,78.4 88,80.5 89.4,90.8 95.4,88.4 "/>
<path class="st0" d="M132,81.7l-10.2-2l-0.1,8l10.1,1.4L132,81.7L132,81.7z"/>
<path class="st1" d="M86.7,93c-1.3,2.3-1.6,11.6-1.8,14.2C86.5,104.7,86.6,95.9,86.7,93z"/>
<path class="st2" d="M112.1,69.6l-9.3-1.1V78l9.1,0.4C111.9,78.4,112.1,69.6,112.1,69.6z"/>
<path class="st3" d="M6.6,101"/>
<path class="st4" d="M122.2,71.5l-10.1-1.9l-0.2,8.8l10,1.3C121.9,79.7,122.2,71.5,122.2,71.5z"/>
<path class="st5" d="M102.8,68.5l-7.5-0.1l0.1,10.1l7.4-0.5V68.5z"/>
<path class="st0" d="M141.5,84.4l-9.5-2.7l-0.1,7.4l9.5,2.1L141.5,84.4z"/>
<path class="st6" d="M132.5,74.2l-10.3-2.7l-0.3,8.2l10.2,2L132.5,74.2L132.5,74.2z"/>
<path class="st7" d="M95.3,68.4l-5.7,0.8L90,79.9l5.4-1.4L95.3,68.4z"/>
<path class="st8" d="M112.4,60.8l-9.5-1.7l-0.1,9.4l9.3,1.1C112.1,69.6,112.4,60.8,112.4,60.8z"/>
<path class="st9" d="M118.4,18.9l-16.1-5.6l0.1-0.3l15.2,5.5L118.4,18.9z"/>
<path class="st10" d="M122.8,63.4l-10.4-2.6l-0.3,8.8l10.1,1.9C122.2,71.5,122.8,63.4,122.8,63.4z"/>
<path class="st11" d="M102.9,59.1l-8-0.8l0.4,10.1l7.5,0.1L102.9,59.1z"/>
<path class="st12" d="M142.1,77.5l-9.6-3.3l-0.4,7.5l9.5,2.7C141.6,84.4,142.1,77.5,142.1,77.5z"/>
<path class="st13" d="M133.3,66.8l-10.6-3.4l-0.6,8.1l10.4,2.7L133.3,66.8z"/>
<path class="st14" d="M89.6,69.2l-3.7,2l1,9.8l3.1-1.1L89.6,69.2z"/>
<path class="st0" d="M150.2,87.8l-8.6-3.5l-0.1,6.7l8,2.6C149.4,93.7,150.2,87.8,150.2,87.8z"/>
<path class="st15" d="M112.8,52.3l-9.9-2.4v9.2l9.5,1.7L112.8,52.3z"/>
<path class="st16" d="M94.9,58.3l-6,0.3l0.7,10.6l5.7-0.8C95.3,68.4,94.9,58.3,94.9,58.3z"/>
<path class="st17" d="M102.4,13L88,8.8l1.1,1.4l13.4,4L102.4,13z"/>
<path class="st18" d="M117.7,18.5L102.4,13l0.1,1.2l14.4,5.3L117.7,18.5z"/>
<path class="st19" d="M123.6,55.7l-10.8-3.4l-0.4,8.5l10.4,2.6C122.8,63.4,123.6,55.7,123.6,55.7z"/>
<path class="st20" d="M102.9,49.9l-8.4-1.3l0.4,9.7l8,0.8V49.9z"/>
<path class="st21" d="M143,70.8l-9.7-4l-0.8,7.4l9.6,3.3C142.1,77.5,143,70.8,143,70.8z"/>
<path class="st22" d="M134.4,59.7l-10.8-4l-0.9,7.7l10.6,3.4C133.3,66.8,134.4,59.7,134.4,59.7z"/>
<path class="st23" d="M88,8.8L75,6.1c0.2,0.5,0.9,1.1,2.1,1.5c3.7,1.3,10.6,2.2,12,2.6L88,8.8z"/>
<path class="st24" d="M113.3,44.4l-10.5-3V50l9.9,2.4L113.3,44.4z"/>
<path class="st25" d="M150.1,81.3l-8-3.8l-0.5,6.9l8,3.2L150.1,81.3z"/>
<path class="st26" d="M124.6,48.4l-11.3-4.1l-0.5,7.9l10.8,3.5C123.6,55.7,124.6,48.4,124.6,48.4z"/>
<path class="st27" d="M94.5,48.6L88,48.3l1,10.3l5.9-0.3L94.5,48.6z"/>
<path class="st28" d="M102.9,41.3l-9.1-2l0.7,9.3l8.3,1.3C102.8,49.9,102.9,41.3,102.9,41.3z"/>
<path class="st29" d="M89,58.6l-3.8,1.3l1,11.1l3.4-1.8L89,58.6z"/>
<path class="st30" d="M131.4,25.9l-14.5-6.4l-0.8,2.5l13.8,6.1L131.4,25.9z"/>
<path class="st31" d="M113.9,37.2l-11.1-3.6v7.8l10.5,3L113.9,37.2z"/>
<path class="st32" d="M135.7,53.1l-11.1-4.7l-1,7.3l10.8,4L135.7,53.1z"/>
<path class="st33" d="M86.3,100.6l2.1,4.5l-1,11.3l-1.9-4.8L86.3,100.6z"/>
<path class="st34" d="M125.7,41.8l-11.8-4.6l-0.6,7.2l11.3,4L125.7,41.8z"/>
<path class="st16" d="M144.3,64.4l-9.9-4.7l-1.1,7.1l9.7,4L144.3,64.4z"/>
<path class="st35" d="M102.6,17l-12.5-3.8l1,4.6l11.5,3.4V17z"/>
<path class="st36" d="M114.6,31l-11.9-4.2l0.1,6.8l11.1,3.6C113.9,37.2,114.6,31,114.6,31z"/>
<path class="st37" d="M129.9,28.1L116.1,22l-0.7,3.8l12.9,5.7L129.9,28.1z"/>
<path class="st38" d="M102.8,33.6L93,31.1l0.8,8.3l9.1,2L102.8,33.6z"/>
<path class="st39" d="M127,36.1L114.6,31l-0.7,6.2l11.8,4.6C125.7,41.8,127,36.1,127,36.1z"/>
<path class="st40" d="M151.1,75.2l-8.1-4.4l-0.9,6.7l8,3.8L151.1,75.2z"/>
<path class="st41" d="M128.4,31.5l-13-5.7l-0.8,5.2l12.4,5.1L128.4,31.5z"/>
<path class="st42" d="M102.6,21.2l-11.4-3.4l1,6l10.5,3L102.6,21.2z"/>
<path class="st43" d="M102.7,26.8l-10.5-3l0.8,7.3l9.9,2.5L102.7,26.8z"/>
<path class="st44" d="M137.3,47.2l-11.6-5.4l-1.1,6.6l11.1,4.7L137.3,47.2L137.3,47.2z"/>
<path class="st45" d="M93.8,39.4l-7.1-0.8l1.3,9.7l6.5,0.3C94.5,48.6,93.8,39.4,93.8,39.4z"/>
<path class="st46" d="M64,5"/>
<path class="st46" d="M51.1,5.9"/>
<path class="st15" d="M145.9,58.4l-10.2-5.3l-1.3,6.6l9.9,4.7L145.9,58.4z"/>
<path class="st47" d="M155.8,85.4l-5.7-4.1l-0.6,6.3L155,91L155.8,85.4z"/>
<path class="st48" d="M88,48.3l-4.3,0.8l1.5,10.8l3.8-1.3L88,48.3z"/>
<path class="st49" d="M93,31.1l-7.9-1.3l1.6,8.8l7.2,0.8C93.9,39.4,93,31.1,93,31.1z"/>
<path class="st50" d="M152.5,69.4l-8.2-5.1l-1.3,6.5l8.1,4.4C151.1,75.2,152.5,69.4,152.5,69.4z"/>
<path class="st35" d="M91.2,17.8l-9.9-2.1l2,6.3l8.9,1.8L91.2,17.8z"/>
<path class="st51" d="M92.2,23.8L83.3,22l1.8,7.8l7.9,1.3L92.2,23.8z"/>
<path class="st22" d="M85.2,59.9l-2.6,2.3L85,73.7l1.3-2.7L85.2,59.9z"/>
<path class="st26" d="M147.9,53.1l-10.6-5.9l-1.6,5.9l10.2,5.3L147.9,53.1L147.9,53.1z"/>
<path class="st52" d="M156.8,79.9l-5.7-4.7l-1,6.1l5.7,4.1L156.8,79.9z"/>
<path class="st31" d="M86.7,38.6l-5,0.4l2,10.1l4.3-0.8L86.7,38.6z"/>
<path class="st53" d="M154.3,64.1l-8.4-5.7l-1.6,5.9l8.2,5.1C152.5,69.4,154.3,64.1,154.3,64.1z"/>
<path class="st33" d="M88.4,105.1l2.8,4.7l-1.1,11.4l-2.7-4.9C87.4,116.3,88.4,105.1,88.4,105.1z"/>
<path class="st54" d="M85.1,29.8l-5.8-0.1l2.4,9.3l5-0.4L85.1,29.8z"/>
<path class="st55" d="M81.3,15.7L73.6,15l3,6.7l6.7,0.3L81.3,15.7z"/>
<path class="st32" d="M156.4,59.4l-8.5-6.3l-2,5.3l8.4,5.7C154.3,64.1,156.4,59.4,156.4,59.4z"/>
<path class="st56" d="M83.7,49.1L81.5,51l1.8,11l1.9-2.1L83.7,49.1z"/>
<path class="st57" d="M172.3,49.4c-1.5-1.1-10.3-7.6-12.6-9c1.3,1,6.4,6.1,9.9,8.2C170.6,49.3,171.8,49.5,172.3,49.4z"/>
<path class="st58" d="M158.3,74.7l-5.8-5.3l-1.4,5.8l5.7,4.8L158.3,74.7z"/>
<path class="st59" d="M83.3,22l-6.7-0.3l2.7,8l5.8,0.1L83.3,22z"/>
<path class="st60" d="M51.1,5.9l-7.3,2.3L49,7.7l6.3-2.2L51.1,5.9z"/>
<path class="st61" d="M158.8,55.4l-8.8-6.8l-2.1,4.5l8.5,6.3L158.8,55.4L158.8,55.4z"/>
<path class="st62" d="M9.8,55.7c0.9-2.2,2.5-6,3.5-9.5c0.8-2.6,1.2-4.9,1.4-6.7C14.7,39.6,9.8,55.7,9.8,55.7z"/>
<path class="st63" d="M67.2,6.6l-7.6,0.5l4.3,3.4l6.6-0.6L67.2,6.6z"/>
<path class="st7" d="M159.5,84.6l-2.7-4.7l-1.1,5.5l2.7,4.2L159.5,84.6z"/>
<path class="st22" d="M160.2,69.9l-5.9-5.8l-1.8,5.3l5.8,5.3L160.2,69.9z"/>
<path class="st64" d="M81.7,39l-2.8,1.5L81.5,51l2.2-1.9L81.7,39z"/>
<path class="st65" d="M193.7,101.7c0.1-2.9,0.7-7.8,0.5-10.5c-0.4,1.4-0.9,3.7-1.1,5.9C192.9,98.9,193.5,100.5,193.7,101.7z"/>
<path class="st66" d="M70.5,9.9l-6.6,0.6l4.2,5.2l5.5-0.7L70.5,9.9z"/>
<path class="st15" d="M162.4,65.7l-6-6.3l-2.1,4.7l5.9,5.8L162.4,65.7L162.4,65.7z"/>
<path class="st24" d="M181.8,59.4c-1.6-1.8-7.3-9.2-9.5-10c1.1,1.3,4.3,5.6,6.9,8.2C180.2,58.6,181.2,59.2,181.8,59.4z"/>
<path class="st13" d="M161,79.9l-2.7-5.2l-1.5,5.2l2.7,4.7L161,79.9z"/>
<path class="st67" d="M79.3,29.7L75.7,31l3.2,9.5l2.8-1.5L79.3,29.7z"/>
<path class="st68" d="M73.6,15l-5.5,0.7l4,6.9l4.5-0.9L73.6,15z"/>
<path class="st35" d="M76.6,21.7l-4.5,0.9l3.6,8.4l3.6-1.3C79.3,29.7,76.6,21.7,76.6,21.7z"/>
<path class="st27" d="M164.9,62.2l-6.1-6.8l-2.4,4l6,6.3C162.4,65.7,164.9,62.2,164.9,62.2z"/>
<path class="st69" d="M179.2,57.6l-6.9-8.2l-2.7-0.8l6.7,8.1L179.2,57.6z"/>
<path class="st47" d="M193.1,97.1l1.1-5.9l-0.6-5l-1,6.3L193.1,97.1z"/>
<path class="st61" d="M81.5,51c-2.1,2.9,0.6,11,1.8,11C83.3,59.9,81.9,53.2,81.5,51z"/>
<path class="st70" d="M162.9,75.6l-2.7-5.7l-1.9,4.8l2.7,5.2L162.9,75.6z"/>
<path class="st71" d="M189.4,73.1c-1-2.5-3.5-8.9-5.2-11c0.6,1.6,1.8,5.1,3.1,7.7C188,71.3,188.8,72.4,189.4,73.1z"/>
<path class="st72" d="M59.6,7.1l-5.3,2.1l5.3,3.4l4.3-2.1L59.6,7.1z"/>
<path class="st53" d="M165.1,72l-2.7-6.3l-2.2,4.2l2.7,5.7C162.9,75.6,165.1,72,165.1,72z"/>
<path class="st38" d="M78.9,40.5l-1.1,2.7l3.1,10c0.1-0.3,0.3-1.3,0.6-2.2C80.8,48.1,79.3,42.3,78.9,40.5z"/>
<path class="st23" d="M28.1,19.2L24,24.7l5.9-4.4l3.4-5.6C33.3,14.7,28.1,19.2,28.1,19.2z"/>
<path class="st20" d="M187.3,69.8l-3.1-7.7l-2.4-2.7l3,7.8L187.3,69.8z"/>
<path class="st21" d="M160.2,84.9l0.8-5c-0.9,2.3-2,6.9-2.2,9.3L160.2,84.9z"/>
<path class="st73" d="M167.7,68.8l-2.8-6.6l-2.6,3.6l2.8,6.2L167.7,68.8z"/>
<path class="st63" d="M63.9,10.5l-4.3,2.1l5.2,5.3l3.3-2.2C68.1,15.7,63.9,10.5,63.9,10.5z"/>
<path class="st51" d="M75.7,31l-1.6,2.3l3.7,9.9l1.1-2.7C78.9,40.5,75.7,31,75.7,31z"/>
<path class="st27" d="M170.4,66.5l-2.8-6.9l-2.7,2.6l2.8,6.6C167.7,68.8,170.4,66.5,170.4,66.5z"/>
<path class="st8" d="M162.1,81.1l0.8-5.5l-1.9,4.2l-0.8,5L162.1,81.1z"/>
<path class="st74" d="M68.1,15.7l-3.3,2.2l4.9,7l2.4-2.3L68.1,15.7z"/>
<path class="st75" d="M72.1,22.6l-2.4,2.3l4.4,8.4l1.6-2.3L72.1,22.6z"/>
<path class="st29" d="M164.3,77.8l0.8-5.8l-2.2,3.6l-0.8,5.5L164.3,77.8z"/>
<path class="st76" d="M188.3,80.2l1.1-7.1l-2.1-3.3l-1.2,7.3L188.3,80.2z"/>
<path class="st71" d="M166.8,75.1l0.9-6.3l-2.6,3.2l-0.8,5.8L166.8,75.1L166.8,75.1z"/>
<path class="st77" d="M186.1,77l1.2-7.2l-2.5-2.6l-1.1,7.3L186.1,77L186.1,77z"/>
<path class="st78" d="M10.8,120l1.7,5.4c-0.1-2.5-0.2-7.2-0.8-11.1c-0.4-2.4-1-4.4-1.7-5.8L10.8,120z"/>
<path class="st73" d="M169.4,73.1l1-6.6l-2.7,2.3l-0.9,6.3L169.4,73.1L169.4,73.1z"/>
<path class="st16" d="M159.8,83.1l4.5-5.3c-1.2,2.1-5,6.5-6.7,8.3L159.8,83.1z"/>
<path class="st79" d="M74.1,33.2L74,37.1l4,6.5C77.2,40.7,75.1,35.6,74.1,33.2z"/>
<path class="st80" d="M92.4,133.6l0.7,6.2l-2.2,10.5l-0.7-6.1L92.4,133.6L92.4,133.6z"/>
<path class="st55" d="M69.7,24.9L69,28.3l5.1,8.7v-3.7L69.7,24.9z"/>
<path class="st81" d="M64.8,17.9l-1.4,3.4l5.6,7l0.7-3.4L64.8,17.9z"/>
<path class="st76" d="M162.2,80.7l5.1-6c-0.8,0.4-5.9,6.5-7.4,8.3L162.2,80.7L162.2,80.7z"/>
<path class="st82" d="M183.1,86.5l5.2-6.4l-2.2-3.1l-5.1,6.5L183.1,86.5z"/>
<path class="st71" d="M164.9,79.2l4.5-6.1c-2.1,1-5.8,5.8-7.2,7.6L164.9,79.2L164.9,79.2z"/>
<path class="st83" d="M10,108.6l1.7,5.8l0.2-11l-1.7-6.1L10,108.6z"/>
<path class="st53" d="M181,83.5l5.1-6.5l-2.4-2.5l-5.2,6.5L181,83.5L181,83.5z"/>
<path class="st84" d="M167.6,78l4.7-6.2l-2.9,1.3l-4.5,6.1C164.9,79.2,167.6,78,167.6,78z"/>
<path class="st73" d="M170.4,77.6l4.8-6.3l-2.9,0.5l-4.7,6.2L170.4,77.6L170.4,77.6z M176,79.2l5-6.5l-2.8-1.1l-4.9,6.5L176,79.2z"
	/>
<path class="st20" d="M173.3,78.1l4.9-6.5l-3-0.3l-4.8,6.3L173.3,78.1L173.3,78.1z"/>
<path class="st85" d="M166.7,120.2l11.9-4.2l0.3-4.2l-11.9,4.4C167,116.2,166.7,120.2,166.7,120.2z"/>
<path class="st86" d="M132.4,141.7l14.6-3.6l-2.1,1.9l-14.4,3.6L132.4,141.7z"/>
<path class="st78" d="M12.5,125.4l1.4,4.6c-0.1-2.2-0.3-7-0.8-10.7c-0.3-2.2-0.9-3.8-1.4-5L12.5,125.4z"/>
<path class="st87" d="M41.4,188.9l-0.6-1.8l-5-4.3l0.4,1.5L41.4,188.9z"/>
<path class="st88" d="M36.2,184.3c-0.2-0.6-0.2-0.8-0.4-1.5c-1.2-1.9-4.1-4.8-4.6-5.5v1.1L36.2,184.3z"/>
<path class="st15" d="M9.7,79.4l1.9,7.1L14,76.4l-1.8-7L9.7,79.4z"/>
<path class="st89" d="M46.9,192.1l-0.9-2l-5.2-3l0.6,1.8C41.4,188.9,46.9,192.1,46.9,192.1z"/>
<path class="st90" d="M167,116.2l11.9-4.4l-0.1-4.2l-12,4.5L167,116.2L167,116.2z"/>
<path class="st33" d="M93.5,122.2l0.7,6.4L93,139.8l-0.7-6.2L93.5,122.2z"/>
<path class="st42" d="M74.1,37c0.5,2.9,5,11.3,6.4,14C78.5,42.7,75.5,39.9,74.1,37z"/>
<path class="st91" d="M16.4,143.7l0.3,0.3c-0.3-1.8-1.1-6.9-1.8-10.4c-0.3-1.5-0.7-2.9-1-3.6l1.7,10.6L16.4,143.7z"/>
<path class="st89" d="M52.5,193.9l-1.3-2.1l-5.2-1.7l0.9,2L52.5,193.9z"/>
<path class="st70" d="M174.3,92.1l8.8-5.6l-2.1-3l-8.7,5.7L174.3,92.1z"/>
<path class="st71" d="M153.6,86.8l14-8.8c-2.1,0.2-14.9,8.6-16.7,9.7L153.6,86.8z"/>
<path class="st92" d="M166.9,112.1l12-4.5l-0.6-4.2l-11.9,4.6L166.9,112.1z"/>
<path class="st93" d="M26.7,171.5l0.3-0.8l-3.4-7.3l-0.7,0.1C22.9,163.5,26.7,171.5,26.7,171.5z"/>
<path class="st94" d="M75.9,155.8l10.7-6.8l-13.4,4.4L75.9,155.8L75.9,155.8z"/>
<path class="st95" d="M73.2,153.4l13.4-4.4l-2.3-2.8l-13.6,4.2L73.2,153.4z"/>
<path class="st96" d="M10.2,97.3l1.7,6.1l1.3-10.5l-1.6-6.4L10.2,97.3z"/>
<path class="st97" d="M69,28.3l0.7,4.5l5.8,8.2C75.2,38,70.6,30.8,69,28.3z"/>
<path class="st98" d="M118.1,145.6l14.3-3.9l-1.9,1.9l-14.5,3.9L118.1,145.6z"/>
<path class="st46" d="M63.4,21.3v4.6l6.3,6.9L69,28.3L63.4,21.3z"/>
<path class="st99" d="M70.7,150.4l13.6-4.2l-2.1-3.3l-13.7,4L70.7,150.4z"/>
<path class="st22" d="M172.3,89.2l8.7-5.7l-2.4-2.5l-8.6,5.7L172.3,89.2z"/>
<path class="st100" d="M14.2,53l1.4,7.1l4.4-8l-1.4-7.2C18.6,44.9,14.2,53,14.2,53z"/>
<path class="st77" d="M156.9,86.2l13.5-8.6l-2.8,0.3l-13.4,8.5C154.2,86.4,156.9,86.2,156.9,86.2z"/>
<path class="st80" d="M93,139.8l0.2,5.6L91,155.7l-0.2-5.4L93,139.8L93,139.8z"/>
<path class="st101" d="M35.8,182.8l0.3-2.6l-4.3-5.1l-0.6,2.2"/>
<path class="st53" d="M170,86.7l8.6-5.7l-2.6-1.8l-8.5,5.7L170,86.7z"/>
<path class="st15" d="M164.8,83.7l8.5-5.6l-2.9-0.5l-8.6,5.5L164.8,83.7L164.8,83.7z"/>
<path class="st89" d="M58,194.2l-1.6-2.1l-5.2-0.3l1.3,2.1L58,194.2z"/>
<path class="st77" d="M167.5,84.9l8.5-5.7l-2.7-1.1l-8.5,5.6L167.5,84.9z"/>
<path class="st102" d="M68.5,146.9l13.8-4l-1.8-3.8l-13.9,3.7L68.5,146.9z"/>
<path class="st103" d="M46,190.1l-0.5-3.1l-4.7-2.8v2.9L46,190.1L46,190.1z M77.1,185.6c-1.4,0.4-5.2,4.3-6.4,5.3
	C72.2,190.1,76.1,186.5,77.1,185.6z"/>
<path class="st104" d="M166.4,108l11.9-4.6l-0.9-4l-11.9,4.7L166.4,108z"/>
<path class="st83" d="M11.7,114.3l1.4,5l0.3-10.5l-1.5-5.4L11.7,114.3z"/>
<path class="st105" d="M64.6,160.7l11.4-4.9l-2.8-2.4l-11.6,4.7L64.6,160.7L64.6,160.7z"/>
<path class="st106" d="M61.6,158.1l11.6-4.7l-2.5-3l-11.8,4.5C58.9,154.9,61.6,158.1,61.6,158.1z"/>
<path class="st107" d="M22.9,163.5l0.7-0.1l-3.1-8.1l-0.8-0.4C19.7,154.9,22.9,163.5,22.9,163.5z M78.7,157.2l-2.8-1.4l-11.4,4.9
	l3.2,1.8L78.7,157.2z"/>
<path class="st108" d="M66.6,142.8l13.9-3.7l-1.4-4.1L65,138.4L66.6,142.8L66.6,142.8z"/>
<path class="st109" d="M51.2,191.8l-0.9-3.1l-4.8-1.7l0.5,3.1L51.2,191.8z"/>
<path class="st110" d="M58.9,154.9l11.8-4.5l-2.2-3.5L56.4,151L58.9,154.9z"/>
<path class="st111" d="M70.7,190.9l-2.2-0.5l-5.1,2.6L70.7,190.9L70.7,190.9z"/>
<path class="st112" d="M165.5,104.1l11.9-4.7l-1.3-3.8l-12,4.8L165.5,104.1L165.5,104.1z"/>
<path class="st107" d="M70.8,163.5l10.9-5.2l-3-1.1l-11,5.3L70.8,163.5L70.8,163.5z"/>
<path class="st113" d="M27,170.7l0.9-1.7l-3.2-6.8l-1.1,1.2"/>
<path class="st114" d="M13.9,130l1,3.6c-0.1-2-0.2-6.6-0.7-10.2c-0.2-1.8-0.7-3.2-1.1-4.1L13.9,130z"/>
<path class="st115" d="M12.2,69.4l1.8,7l3.3-9.1l-1.7-7.2C15.6,60.1,12.2,69.4,12.2,69.4z"/>
<path class="st116" d="M56.4,151l12.1-4.1l-1.9-4.1l-12.3,3.7L56.4,151L56.4,151z"/>
<path class="st117" d="M55.4,165.8l9.2-5.1l-3-2.6l-9.4,4.9L55.4,165.8L55.4,165.8z"/>
<path class="st118" d="M52.2,163l9.4-4.9l-2.7-3.2l-9.7,4.5L52.2,163L52.2,163z"/>
<path class="st111" d="M61.5,191l-5.1,1.1l1.6,2.1l5.4-1.2L61.5,191L61.5,191z"/>
<path class="st119" d="M65,138.4l14.1-3.3l-1.1-4.4l-14.2,3L65,138.4z"/>
<path class="st120" d="M58.8,167.8l8.9-5.3l-3.1-1.8l-9.2,5.1L58.8,167.8z"/>
<path class="st107" d="M73.9,163.6l7.7-5.3l-10.9,5.2L73.9,163.6z"/>
<path class="st121" d="M164.1,100.4l12-4.8l-1.8-3.5l-11.8,4.8L164.1,100.4z"/>
<path class="st94" d="M49.2,159.4l9.7-4.5l-2.5-3.9l-9.9,4.1L49.2,159.4L49.2,159.4z"/>
<path class="st122" d="M16.6,143.7l0.8,2c-0.3-1.4-0.9-6.3-1.6-9.5c-0.3-1.2-0.7-2.1-0.9-2.6L16.6,143.7z"/>
<path class="st123" d="M56.4,192.1l-1.2-3.2l-4.9-0.2l0.9,3.1L56.4,192.1L56.4,192.1z"/>
<path class="st124" d="M48.6,170.9l6.8-5.1l-3.2-2.8l-7.3,5.1L48.6,170.9z"/>
<path class="st125" d="M54.3,146.5l12.3-3.7l-1.6-4.4l-12.4,3.4L54.3,146.5z"/>
<path class="st126" d="M44.9,168.1l7.3-5.1l-3-3.6l-7.4,4.5L44.9,168.1L44.9,168.1z"/>
<path class="st120" d="M62.2,168.9l8.6-5.4l-3.1-1l-8.9,5.3L62.2,168.9L62.2,168.9z"/>
<path class="st93" d="M44.1,175.9l4.5-5l-3.7-2.8l-4.6,4.4L44.1,175.9L44.1,175.9z"/>
<path class="st127" d="M52.3,173.1l6.5-5.3l-3.4-2l-6.8,5.1L52.3,173.1z"/>
<path class="st99" d="M19.7,154.9l0.8,0.4c-0.2-0.7-1.2-6.1-2.2-8.6c-0.3-0.8-0.6-1-0.9-1L19.7,154.9L19.7,154.9z"/>
<path class="st50" d="M162.5,96.9l11.8-4.8l-2-2.9L160.6,94L162.5,96.9z"/>
<path class="st128" d="M40.3,172.5l4.6-4.4l-3.1-4.2l-5.2,4.3L40.3,172.5L40.3,172.5z"/>
<path class="st99" d="M46.5,155.1l9.9-4.1l-2.1-4.5l-10.2,3.8L46.5,155.1z"/>
<path class="st105" d="M41.8,163.9l7.4-4.5l-2.7-4.3l-7.7,4.1L41.8,163.9z"/>
<path class="st77" d="M11.6,86.5l1.6,6.4l2.4-9.8L14,76.4L11.6,86.5z"/>
<path class="st129" d="M63.8,133.7l14.2-3l-0.7-4.5l-14.2,2.6C63.1,128.8,63.8,133.7,63.8,133.7z"/>
<path class="st82" d="M160.6,94l11.7-4.8l-2.3-2.5l-11.6,4.8L160.6,94L160.6,94z"/>
<path class="st117" d="M36.6,168.2l5.2-4.3l-3-4.7l-5.4,3.8L36.6,168.2z"/>
<path class="st19" d="M153.5,88.3l11.4-4.7l-3.1-0.5L151,87.7L153.5,88.3L153.5,88.3z"/>
<path class="st130" d="M56.1,174.3l6.1-5.4l-3.4-1.1l-6.5,5.3C52.3,173.1,56.1,174.3,56.1,174.3z"/>
<path class="st120" d="M65.6,169l8.3-5.4l-3.1-0.1l-8.6,5.4C62.2,168.9,65.6,169,65.6,169z"/>
<path class="st131" d="M82.1,179.5c-0.6,0.2-1.3,0.5-2.1,1.3c-1.7,1.8-3.6,4.8-4.4,5.8C77.5,186.1,81,180.8,82.1,179.5z"/>
<path class="st18" d="M18.6,44.9l1.4,7.2l5.3-6.5l-1.5-7.3C23.8,38.3,18.6,44.9,18.6,44.9z"/>
<path class="st76" d="M158.4,91.5l11.6-4.8l-2.5-1.8L156,89.6L158.4,91.5z"/>
<path class="st19" d="M156,89.6l11.5-4.7l-2.6-1.3l-11.4,4.7L156,89.6z"/>
<path class="st132" d="M52.6,141.8l12.4-3.4l-1.2-4.7l-12.5,2.9L52.6,141.8z"/>
<path class="st95" d="M38.8,159.2l7.7-4.1l-2.4-4.8l-7.9,3.6L38.8,159.2z"/>
<path class="st42" d="M75.5,41l1,5.9l5.2,9.7L80.5,51L75.5,41z"/>
<path class="st3" d="M44.1,150.3l10.2-3.8l-1.7-4.7L42.2,145L44.1,150.3z"/>
<path class="st1" d="M94.2,128.5c0.4,3.7-0.6,13.1-1,16.9C92.7,141.8,93.8,132.2,94.2,128.5z"/>
<path class="st133" d="M75.6,186.6l-2.5-0.3l-4.6,4.1l2.2,0.5L75.6,186.6L75.6,186.6z"/>
<path class="st134" d="M61.5,191l-1.6-3.2l-4.7,1.1l1.2,3.2L61.5,191z"/>
<path class="st106" d="M33.4,163l5.4-3.8l-2.6-5.3l-5.7,3.3C30.5,157.2,33.4,163,33.4,163z"/>
<path class="st134" d="M68.5,190.4l-2.3-1.9l-4.7,2.5l1.9,2L68.5,190.4z"/>
<path class="st21" d="M11.9,103.4l1.5,5.4l1.2-10l-1.4-5.9L11.9,103.4z"/>
<path class="st130" d="M59.8,174.5l5.8-5.5l-3.4-0.1l-6.1,5.4L59.8,174.5z"/>
<path class="st126" d="M68.9,168.3l6.2-4.2c0.3-2.6-7.5,3.7-9.5,4.9L68.9,168.3z"/>
<path class="st85" d="M63.1,128.8l14.2-2.6l-0.2-4.5L62.8,124L63.1,128.8z"/>
<path class="st98" d="M36.2,153.9l7.9-3.6l-1.9-5.3l-8.1,3.1C34.1,148.1,36.2,153.9,36.2,153.9z"/>
<path class="st97" d="M69.7,32.8l0.8,5.8l6,8.3l-1-5.9C75.5,41,69.7,32.8,69.7,32.8z"/>
<path class="st83" d="M13.1,119.3l1.1,4.1l0.3-10l-1.1-4.6L13.1,119.3z"/>
<path class="st135" d="M42.2,145l10.4-3.2l-1.3-5.2L41,139.4L42.2,145L42.2,145z"/>
<path class="st136" d="M17.4,145.7l0.9,1c-0.2-1.1-0.7-6.2-1.5-8.9c-0.3-0.9-0.7-1.4-1-1.6L17.4,145.7z"/>
<path class="st114" d="M14.9,133.6l0.9,2.6c-0.1-1.7-0.2-6.2-0.7-9.5c-0.2-1.5-0.6-2.6-0.9-3.3C14.2,123.4,14.9,133.6,14.9,133.6z"
	/>
<path class="st46" d="M63.4,25.9l0.5,5.8l6.6,6.8l-0.8-5.7L63.4,25.9z"/>
<path class="st137" d="M30.5,157.2l5.7-3.3l-2.1-5.8l-5.9,2.8C28.2,150.9,30.5,157.2,30.5,157.2z"/>
<path class="st113" d="M63.4,173.7l5.5-5.4l-3.3,0.7l-5.8,5.5L63.4,173.7z"/>
<path class="st36" d="M15.6,60.1l1.7,7.2l4.3-7.8L20,52.1L15.6,60.1z"/>
<path class="st138" d="M72,166.6l4.2-3.1c-2,0.8-5.4,3.5-7.3,4.8C68.9,168.3,72,166.6,72,166.6z"/>
<path class="st65" d="M62.8,124l14.4-2.3l0.1-4.5l-14.2,2C63.1,119.2,62.8,124,62.8,124z"/>
<path class="st122" d="M34.1,148.1l8.1-3.1l-1.2-5.6l-8.5,2.5L34.1,148.1L34.1,148.1z"/>
<path class="st139" d="M66.2,188.5l-1.9-3l-4.4,2.3l1.6,3.2C61.5,191,66.2,188.5,66.2,188.5z"/>
<path class="st118" d="M89.7,161.9c-1.3,1.6-3,7.8-3.8,10.2C87,170.2,88.9,164.1,89.7,161.9z"/>
<path class="st140" d="M50.5,131.3l12.6-2.5l-0.3-4.8l-12.7,1.9L50.5,131.3z"/>
<path class="st53" d="M139.8,92.3l13.7-4l-2.6-0.6l-13.4,3.7C137.5,91.4,139.8,92.3,139.8,92.3z"/>
<path class="st141" d="M41,139.4l10.3-2.8l-0.8-5.3l-10.6,2.3L41,139.4z"/>
<path class="st101" d="M73.1,186.3l-2.6-1.7l-4.3,3.9l2.3,1.9L73.1,186.3L73.1,186.3z"/>
<path class="st91" d="M28.2,150.9l5.9-2.8l-1.6-6.2l-6,2.2C26.5,144.1,28.2,150.9,28.2,150.9z"/>
<path class="st142" d="M80,180.8h-2.8l-4.1,5.5l2.5,0.3L80,180.8z"/>
<path class="st68" d="M23.8,38.3l1.5,7.3l5.9-4.8l-1.4-7.3L23.8,38.3z"/>
<path class="st143" d="M66.9,171.9l4.7-5.1c-0.8,0.4-1.4,0.8-2.7,1.5c-2.1,1.7-4.4,4.3-5.5,5.4L66.9,171.9z"/>
<path class="st69" d="M14,76.4l1.6,6.7l3.2-8.8l-1.5-7C17.3,67.3,14,76.4,14,76.4z"/>
<path class="st135" d="M18.3,146.7l1.5-0.1l-1.3-8.2l-1.7-0.6L18.3,146.7L18.3,146.7z"/>
<path class="st144" d="M64.3,185.5l-0.9-4l-4.1,2.3l0.6,4L64.3,185.5z"/>
<path class="st137" d="M84.6,156l9.8-4.5l-2.1,2.8l-10,4.7L84.6,156z"/>
<path class="st47" d="M63.1,119.2l14.2-2l0.6-4.2l-14.3,1.6C63.6,114.8,63.1,119.2,63.1,119.2z"/>
<path class="st127" d="M64.1,176.9l2.8-5l-3.5,1.8l-3.1,5.2L64.1,176.9z"/>
<path class="st145" d="M32.6,141.9l8.4-2.5l-1.1-5.8l-8.3,1.9L32.6,141.9z"/>
<path class="st90" d="M94.2,116.7c0.1,3.8,0.1,13.7,0.1,17.6C94.2,130.6,94.2,120.6,94.2,116.7z"/>
<path class="st146" d="M63.4,181.5l0.7-4.6l-3.8,2l-1,4.9L63.4,181.5L63.4,181.5z"/>
<path class="st147" d="M15.8,136.2l1,1.6c-0.1-1.4,0-6.1-0.6-9c-0.2-1-0.7-1.7-1.1-2.1L15.8,136.2L15.8,136.2z"/>
<path class="st19" d="M13.2,92.9l1.4,5.9l2.2-9.4l-1.2-6.3C15.6,83.1,13.2,92.9,13.2,92.9z"/>
<path class="st65" d="M50.1,125.9l12.7-1.9l0.3-4.8l-12.8,1.6C50.3,120.8,50.1,125.9,50.1,125.9z"/>
<path class="st140" d="M39.9,133.6l10.6-2.3l-0.4-5.4l-10.6,1.8L39.9,133.6z"/>
<path class="st132" d="M19.8,146.6l2.6-0.9l-1.3-7.6l-2.6,0.3L19.8,146.6z"/>
<path class="st148" d="M14.2,123.4l0.9,3.3c0.1-1.8,0.4-6.2,0.2-9.5c-0.1-1.7-0.4-2.9-0.8-3.8C14.5,113.4,14.2,123.4,14.2,123.4z"/>
<path class="st149" d="M13.4,108.8l1.1,4.6l1.1-9.5l-1-5.1L13.4,108.8z"/>
<path class="st33" d="M26.5,144.1l6.1-2.2l-1-6.4l-6.2,1.6L26.5,144.1L26.5,144.1z"/>
<path class="st150" d="M22.4,145.7l4.1-1.6l-1.1-7l-4.3,1C21.1,138.1,22.4,145.7,22.4,145.7z"/>
<path class="st151" d="M86.5,152.3l9.6-4.2l-1.7,3.4l-9.8,4.5L86.5,152.3z"/>
<path class="st5" d="M63.6,114.6L78,113l0.9-4.1l-14.1,1.4L63.6,114.6z"/>
<path class="st1" d="M94.3,134.4c-0.5,3.3-1.5,12.4-1.8,15.8C93.1,147.1,94,137.7,94.3,134.4z"/>
<path class="st9" d="M20,52.1l1.6,7.4l5.2-6.3l-1.5-7.6C25.3,45.6,20,52.1,20,52.1z"/>
<path class="st152" d="M31.6,135.5l8.3-1.9l-0.4-5.9l-8.4,1.5L31.6,135.5z"/>
<path class="st143" d="M64.1,176.9l3.3-3.1l4.1-6.9l-4.6,5"/>
<path class="st146" d="M77.2,180.8l-2.9-1.3l-3.8,5.1l2.6,1.7L77.2,180.8L77.2,180.8z"/>
<path class="st153" d="M16.8,137.8l1.7,0.6l-0.6-8.4l-1.7-1.2L16.8,137.8L16.8,137.8z"/>
<path class="st25" d="M50.3,120.8l12.8-1.6l0.5-4.6L51,115.8L50.3,120.8z"/>
<path class="st65" d="M39.5,127.7l10.6-1.8l0.2-5.1L39.7,122L39.5,127.7z"/>
<path class="st154" d="M29.8,33.5l1.4,7.3l6.6-2.8l-1.4-7.4C36.4,30.6,29.8,33.5,29.8,33.5z"/>
<path class="st86" d="M92.5,150.2c-0.5,0.8-1.1,2.1-1.6,3.8c-0.9,3.3-1.6,7.7-2,9.5C90.4,161.4,92,152.7,92.5,150.2z"/>
<path class="st152" d="M25.4,137.1l6.2-1.6l-0.5-6.3l-6.2,0.9L25.4,137.1L25.4,137.1z"/>
<path class="st153" d="M18.5,138.4l2.6-0.3l-0.5-7.7l-2.7-0.4L18.5,138.4z"/>
<path class="st155" d="M21.1,138.1l4.3-1l-0.5-7l-4.3,0.3C20.6,130.4,21.1,138.1,21.1,138.1z"/>
<path class="st148" d="M15.1,126.7l1.1,2.1l0.2-8.8l-1.1-2.8C15.3,117.2,15.1,126.7,15.1,126.7z"/>
<path class="st136" d="M88,148l9.6-3.9l-1.5,4l-9.7,4.3L88,148z"/>
<path class="st96" d="M64.8,110.4L79,109l1.4-3.5l-14.1,1L64.8,110.4z"/>
<path class="st156" d="M17.3,67.3l1.5,7l4.2-7.5l-1.4-7.3L17.3,67.3z"/>
<path class="st157" d="M31.1,129.2l8.4-1.5l0.2-5.7l-8.4,0.8L31.1,129.2z"/>
<path class="st14" d="M51,115.8l12.6-1.2l1.2-4.2l-12.6,0.7C52.1,111.2,51,115.8,51,115.8z"/>
<path class="st105" d="M70.4,169.8l2.6-4.9c-1.6,1.9-4.6,6.6-5.6,8.9L70.4,169.8z"/>
<path class="st40" d="M14.5,113.4l0.8,3.8l1.2-9l-0.9-4.3L14.5,113.4z"/>
<path class="st12" d="M39.7,122l10.6-1.2l0.7-5l-10.5,0.7C40.5,116.5,39.7,122,39.7,122z"/>
<path class="st44" d="M15.6,83.1l1.2,6.3L20,81l-1.2-6.7L15.6,83.1z"/>
<path class="st158" d="M14.6,98.8l1,5.1l2.2-8.9l-1-5.6C16.8,89.4,14.6,98.8,14.6,98.8z"/>
<path class="st159" d="M16.2,128.8l1.7,1.2l0.2-8.2l-1.7-1.8L16.2,128.8z"/>
<path class="st157" d="M24.9,130.1l6.2-0.9l0.2-6.3l-6.2,0.3C25.1,123.2,24.9,130.1,24.9,130.1z"/>
<path class="st145" d="M89,143.2l9.5-3.5l-0.9,4.4L88,148L89,143.2z"/>
<path class="st160" d="M36.4,30.6l1.3,7.4l6.9-0.9l-1.2-7.6C43.4,29.4,36.4,30.6,36.4,30.6z"/>
<path class="st97" d="M25.3,45.6l1.5,7.6l5.8-4.6l-1.4-7.8C31.2,40.8,25.3,45.6,25.3,45.6z"/>
<path class="st90" d="M94.4,122.9c-0.8,3.5-0.8,13-0.7,16.7C94.6,136.3,94.4,126.4,94.4,122.9z"/>
<path class="st159" d="M17.9,130l2.7,0.4l0.2-7.5l-2.7-1.1L17.9,130z M20.6,130.4l4.3-0.3l0.2-6.9l-4.3-0.3
	C20.8,122.9,20.6,130.4,20.6,130.4z"/>
<path class="st121" d="M52.2,111.1l12.6-0.7l1.5-3.9L53.9,107C53.9,107,52.2,111,52.2,111.1z"/>
<path class="st6" d="M31.3,122.8l8.4-0.8l0.8-5.5l-8.4,0.4L31.3,122.8z"/>
<path class="st112" d="M40.5,116.5l10.5-0.7l1.2-4.7l-10.4,0.3C41.8,111.4,40.5,116.5,40.5,116.5z"/>
<path class="st52" d="M15.3,117.2l1.1,2.8l1.1-8.5l-1-3.3L15.3,117.2z"/>
<path class="st155" d="M89.6,138.1L99,135l-0.5,4.7l-9.5,3.5L89.6,138.1L89.6,138.1z"/>
<path class="st161" d="M21.6,59.5l1.4,7.3l5.1-6.1l-1.3-7.5C26.8,53.2,21.6,59.5,21.6,59.5z"/>
<path class="st162" d="M73.1,168.5l-0.1-3.6l-2.6,4.9l-0.1,4L73.1,168.5L73.1,168.5z"/>
<path class="st4" d="M25.1,123.2l6.2-0.3l0.8-6l-6.2-0.3C25.9,116.6,25.1,123.2,25.1,123.2z"/>
<path class="st163" d="M43.4,29.5l1.2,7.6l7.1,1l-1.1-7.6C50.6,30.6,43.4,29.5,43.4,29.5z"/>
<path class="st22" d="M15.6,103.9l0.9,4.3l2-8.3L17.8,95L15.6,103.9z"/>
<path class="st70" d="M53.9,107l13.4-0.5l1.9-3.2L56,103.5L53.9,107z"/>
<path class="st14" d="M16.4,120l1.7,1.8L19,114l-1.5-2.5L16.4,120z"/>
<path class="st38" d="M18.8,74.3L20,81l4.1-7.3L23,66.8L18.8,74.3z"/>
<path class="st149" d="M32.1,116.9l8.4-0.4l1.3-5.1l-8.3-0.1L32.1,116.9z"/>
<path class="st2" d="M20.8,122.9l4.3,0.3l0.8-6.6l-4.2-0.9C21.7,115.7,20.8,122.9,20.8,122.9z"/>
<path class="st56" d="M16.8,89.4l1,5.6l3-8L20,81L16.8,89.4z"/>
<path class="st58" d="M41.8,111.4l10.4-0.3l1.7-4.1l-10.4-0.1L41.8,111.4z"/>
<path class="st81" d="M31.2,40.8l1.4,7.8l6.4-2.8L37.7,38L31.2,40.8z"/>
<path class="st5" d="M18.1,121.8l2.7,1.1l0.9-7.2L19,114L18.1,121.8z"/>
<path class="st164" d="M89.6,132.8l9.5-2.6L99,135l-9.4,3.2V132.8z"/>
<path class="st165" d="M50.6,30.6l1.1,7.5l7.1,3l-1.1-7.5C57.7,33.6,50.6,30.6,50.6,30.6z"/>
<path class="st158" d="M56,103.5l12.2-0.2l2.2-2.6l-12.1-0.1C58.3,100.6,56,103.5,56,103.5z"/>
<path class="st86" d="M75.2,162.3l-0.3-3l-1.9,5.6l0.1,3.7L75.2,162.3z"/>
<path class="st96" d="M25.9,116.6l6.2,0.3l1.4-5.6l-6.1-0.8L25.9,116.6z"/>
<path class="st166" d="M57.7,33.7l1.1,7.4l6.9,5l-1-7.4L57.7,33.7z"/>
<path class="st82" d="M16.5,108.2l1,3.3l1.9-7.8l-0.9-3.8L16.5,108.2z"/>
<path class="st29" d="M43.5,107h10.4l2.1-3.5L45.8,103L43.5,107z"/>
<path class="st92" d="M89,127.4l9.5-2.2l0.6,5l-9.6,2.5C89.5,132.7,89,127.4,89,127.4z"/>
<path class="st50" d="M33.5,111.3l8.3,0.1l1.7-4.4l-8.1-0.7L33.5,111.3z"/>
<path class="st75" d="M26.8,53.2l1.3,7.5l5.6-4.5l-1.1-7.6C32.6,48.6,26.8,53.2,26.8,53.2z"/>
<path class="st10" d="M21.7,115.7l4.2,0.9l1.5-6.1l-4.1-1.5L21.7,115.7z"/>
<path class="st58" d="M94.6,111.2l12-1.4l1.7,4.1l-12,1.8L94.6,111.2z"/>
<path class="st15" d="M58.4,100.6l8.1,0.1l-5.4-2.1L58.4,100.6z"/>
<path class="st11" d="M17.5,111.5L19,114l1.8-7.2l-1.4-3.2C19.4,103.6,17.5,111.5,17.5,111.5z"/>
<path class="st60" d="M37.7,38l1.3,7.8l6.8-0.9l-1.2-7.8L37.7,38z"/>
<path class="st48" d="M17.8,95l0.7,4.9l2.9-7.6L20.8,87L17.8,95z"/>
<path class="st167" d="M19,114l2.7,1.7l1.6-6.7l-2.5-2.2L19,114z"/>
<path class="st16" d="M92.4,107.2l12.3-1l2,3.6l-12.1,1.4C94.6,111.2,92.4,107.2,92.4,107.2z"/>
<path class="st168" d="M23,66.8l1.1,6.9l4.8-5.8l-0.8-7.2C28.1,60.7,23,66.8,23,66.8z"/>
<path class="st5" d="M88,122l9.6-1.8l0.9,5l-9.5,2.2C89,127.4,88,122,88,122z"/>
<path class="st20" d="M81.6,97.9l13.1-0.5l2.6,1.3l-12.8,0.5C84.5,99.2,81.6,97.9,81.6,97.9z"/>
<path class="st169" d="M20,81l0.8,6l3.9-6.9l-0.6-6.4L20,81z"/>
<path class="st158" d="M87.2,104.1l15.3-1l2.2,3.1l-15.1,1.3C89.6,107.5,87.2,104.1,87.2,104.1z"/>
<path class="st77" d="M45.8,103l10.2,0.5l2.4-2.9l-9.9-0.7L45.8,103z"/>
<path class="st73" d="M84.5,99.1l12.8-0.4l2.8,1.9l-12.8,0.5L84.5,99.1z"/>
<path class="st82" d="M27.4,110.5l6.1,0.8l1.9-5l-5.9-1.3C29.5,105,27.4,110.5,27.4,110.5z"/>
<path class="st77" d="M87.4,101.1l12.7-0.5l2.4,2.5L90,103.9L87.4,101.1z"/>
<path class="st135" d="M76.6,155.4l-0.4-2.5c-0.3,1.3-0.8,4.1-1.3,6.4c0.1,1.4,0.2,2.1,0.3,3L76.6,155.4z"/>
<path class="st53" d="M35.4,106.3l8.1,0.7l2.3-4l-7.9-1C37.9,102,35.4,106.3,35.4,106.3z"/>
<path class="st96" d="M86.5,116.9l9.8-1.2l1.3,4.5L88,122L86.5,116.9z"/>
<path class="st32" d="M18.5,99.9l0.9,3.8l2.7-7l-0.7-4.4L18.5,99.9z"/>
<path class="st160" d="M44.6,37.1l1.1,7.8l7,1l-1-7.8L44.6,37.1z"/>
<path class="st76" d="M23.3,109l4.1,1.5l2.1-5.5l-3.9-2L23.3,109z"/>
<path class="st74" d="M32.6,48.6l1.1,7.6l6.2-2.6L39,45.8L32.6,48.6z"/>
<path class="st170" d="M48.5,99.9l9.9,0.7l2.7-2l-9.7-0.9L48.5,99.9z"/>
<path class="st84" d="M19.4,103.7l1.4,3.1l2.5-6.5L22,96.6L19.4,103.7z"/>
<path class="st71" d="M20.8,106.8l2.5,2.2l2.3-6l-2.3-2.9L20.8,106.8z"/>
<path class="st15" d="M29.5,105l5.9,1.3l2.5-4.3l-5.7-1.7L29.5,105z"/>
<path class="st20" d="M37.9,102l7.9,1l2.7-3.1l-7.7-1.3L37.9,102z"/>
<path class="st57" d="M20.8,87l0.6,5.3l3.6-6.5l-0.3-5.7C24.7,80.1,20.8,87,20.8,87z"/>
<path class="st72" d="M51.7,38.1l1,7.8l7,3l-0.9-7.8L51.7,38.1z"/>
<path class="st22" d="M84.3,107.9l8.1-0.7l2.2,4l-8,1L84.3,107.9z"/>
<path class="st78" d="M77.3,148l-0.5-1.7c-0.1,1.1-0.6,4.3-0.6,6.6c0.2,1.3,0.3,1.9,0.4,2.6L77.3,148z"/>
<path class="st35" d="M28.1,60.7l0.8,7.2l5.4-4.3l-0.6-7.4L28.1,60.7z"/>
<path class="st48" d="M51.4,97.7l9.7,0.9l3-1.2l-9.5-1.1C54.6,96.3,51.4,97.7,51.4,97.7z"/>
<path class="st171" d="M24.1,73.7l0.6,6.4l4.4-5.5l-0.2-6.7L24.1,73.7z"/>
<path class="st172" d="M58.8,41.1l0.9,7.8l6.7,4.8l-0.7-7.6C65.7,46.1,58.8,41.1,58.8,41.1z"/>
<path class="st170" d="M25.6,103l3.9,2l2.7-4.7l-3.7-2.4L25.6,103z"/>
<path class="st154" d="M39,45.8l0.9,7.8l6.6-0.9l-0.7-7.8L39,45.8z"/>
<path class="st28" d="M21.4,92.2l0.7,4.4l3.4-6L25,85.8L21.4,92.2z"/>
<path class="st26" d="M40.8,98.6l7.7,1.3l2.9-2.2l-7.3-1.6C44.1,96.1,40.8,98.6,40.8,98.6z"/>
<path class="st56" d="M54.6,96.3c2.2,0.2,10.6,1.6,12.6,0.6C64.6,96.6,57,95.5,54.6,96.3z"/>
<path class="st48" d="M32.2,100.3l5.7,1.7l2.9-3.4l-5.4-2.1L32.2,100.3z"/>
<path class="st29" d="M90.5,105.7l-1.6,5.5l2,10.8l1.7-5L90.5,105.7z"/>
<path class="st26" d="M23.3,100.2l2.3,2.8l2.9-5.1l-2-3.3C26.5,94.6,23.3,100.2,23.3,100.2z"/>
<path class="st24" d="M22,96.6l1.3,3.6l3.2-5.6l-1-4L22,96.6z"/>
<path class="st0" d="M77.3,140.3l-0.5-1.1c0,1-0.2,4.8,0,7.1c0.2,0.9,0.3,1.2,0.5,1.7V140.3z"/>
<path class="st49" d="M24.7,80.1l0.3,5.7l4.2-5.2l-0.1-6L24.7,80.1z"/>
<path class="st173" d="M33.7,56.2l0.6,7.4l6-2.6l-0.4-7.4C39.9,53.6,33.7,56.2,33.7,56.2z"/>
<path class="st44" d="M44.1,96.1l7.3,1.6l3.2-1.4l-7-1.7L44.1,96.1z"/>
<path class="st172" d="M45.8,44.9l0.7,7.8l6.7,1l-0.5-7.8L45.8,44.9z"/>
<path class="st24" d="M28.5,97.9l3.7,2.4l3.2-3.8L32,93.4L28.5,97.9z"/>
<path class="st9" d="M28.9,67.9l0.2,6.7l5.3-4.1l-0.1-6.9C34.3,63.6,28.9,67.9,28.9,67.9z"/>
<path class="st174" d="M35.4,96.5l5.4,2.1l3.3-2.5L39,93.8L35.4,96.5z"/>
<path class="st39" d="M25,85.8l0.4,4.9l4.1-5l-0.3-5.1L25,85.8z"/>
<path class="st26" d="M87.3,94.8l-1.5,5.9l3.1,10.4l1.6-5.4L87.3,94.8z"/>
<path class="st28" d="M47.6,94.6l7,1.7l3.5-0.3l-6.7-1.8C51.4,94.2,47.6,94.6,47.6,94.6z"/>
<path class="st115" d="M26.5,94.6l2,3.3l3.5-4.5l-1.8-3.2C30.2,90.2,26.5,94.6,26.5,94.6z"/>
<path class="st172" d="M52.7,45.9l0.5,7.8l6.8,2.9l-0.3-7.7L52.7,45.9z"/>
<path class="st12" d="M76.5,132.5l-0.4-0.5c0.1,0.7,0.3,5,0.7,7.2c0.3,0.6,0.4,0.8,0.5,1.1C77.3,140.3,76.5,132.5,76.5,132.5z"/>
<path class="st40" d="M74.7,124.9l1.9-0.5l1.2,6.4l-1.7,1.1C76.1,131.9,74.7,124.9,74.7,124.9z"/>
<path class="st175" d="M25.4,90.6l1.1,4l3.7-4.4l-0.7-4.5L25.4,90.6z"/>
<path class="st176" d="M39.9,53.6l0.4,7.4l6.3-0.8l-0.1-7.5C46.5,52.7,39.9,53.6,39.9,53.6z"/>
<path class="st66" d="M59.7,48.9l0.3,7.7l6.5,4.7v-7.6C66.4,53.7,59.7,48.9,59.7,48.9z"/>
<path class="st115" d="M51.4,94.2c2.3,0.6,4.4,1.6,6.7,1.8c-0.5-0.3-0.5-0.7-2.8-1.2C53.8,94.4,52.4,94.4,51.4,94.2z"/>
<path class="st62" d="M39,93.8l5.1,2.3l3.5-1.5L43,92.1L39,93.8z M32,93.4l3.4,3.1l3.6-2.7l-3.1-3.1C35.9,90.7,32,93.5,32,93.4z"/>
<path class="st30" d="M29.1,74.6l0.1,6l5-3.8l0.2-6.3C34.4,70.5,29.1,74.6,29.1,74.6z"/>
<path class="st75" d="M34.3,63.6l0.1,6.9l5.7-2.5l0.2-7L34.3,63.6z"/>
<path class="st31" d="M83.3,84.7L81.9,91l4,9.7l1.4-5.9L83.3,84.7z"/>
<path class="st21" d="M75,124.7l-0.4,0.2l1.5,7.1l0.4,0.5L75,124.7z"/>
<path class="st177" d="M30.2,90.2l1.8,3.2l3.9-2.7l-1.4-3.8L30.2,90.2z"/>
<path class="st175" d="M43,92.1l4.6,2.5l3.8-0.4L47,91.7L43,92.1z"/>
<path class="st171" d="M29.2,80.6l0.3,5.1l4.6-3.5l0.2-5.5L29.2,80.6z"/>
<path class="st66" d="M46.5,52.7l0.1,7.5l6.5,1.1l0.1-7.6C53.2,53.7,46.5,52.7,46.5,52.7z"/>
<path class="st156" d="M29.5,85.7l0.7,4.5l4.3-3.3l-0.4-4.7L29.5,85.7z"/>
<path class="st177" d="M35.9,90.7l3.1,3.1l4-1.7l-2.8-3.2L35.9,90.7z"/>
<path class="st27" d="M85.9,100.7l-2.4,5.1l2.9,9.9l2.5-4.6L85.9,100.7z"/>
<path class="st171" d="M78.3,75.6l-1.1,6.7l4.7,8.8l1.4-6.4L78.3,75.6z"/>
<path class="st169" d="M47,91.7l4.4,2.5l3.9,0.6l-4-2.5C51.3,92.3,47,91.7,47,91.7z"/>
<path class="st178" d="M34.4,70.5l-0.2,6.2l5.4-2.2l0.5-6.5L34.4,70.5z"/>
<path class="st173" d="M40.3,61l-0.2,7l6-0.8l0.5-7C46.6,60.2,40.3,61,40.3,61z"/>
<path class="st81" d="M53.2,53.7l-0.1,7.6l6.5,2.7l0.4-7.4C60,56.6,53.2,53.7,53.2,53.7z"/>
<path class="st156" d="M34.5,86.9l1.4,3.8l4.3-1.8l-1.1-4C39.1,84.9,34.5,86.9,34.5,86.9z"/>
<path class="st31" d="M51.7,92.6c1.2,0.9,2.4,1.7,3.6,2.2c0.6,0.3,1.5,0.5,2.1,0.7c-0.5-0.4-1.3-1.1-1.8-1.4
	C54.4,93.4,53.2,93.1,51.7,92.6z"/>
<path class="st38" d="M40.2,88.9l2.8,3.2l4-0.4l-2.3-3.3C44.7,88.4,40.2,88.9,40.2,88.9z"/>
<path class="st74" d="M60,56.6L59.6,64l6.2,4.6l0.7-7.3C66.5,61.3,60,56.6,60,56.6z"/>
<path class="st161" d="M34.2,76.7l-0.1,5.5l5-2.1l0.5-5.6L34.2,76.7z"/>
<path class="st171" d="M34.1,82.2l0.4,4.7l4.6-2v-4.8C39.1,80.1,34.1,82.2,34.1,82.2z"/>
<path class="st84" d="M70,110.4c0,0.4,0,0.6,0.1,1.4c0.7,2.1,2.5,5.8,2.7,6.5c0-0.3,0-0.4,0-1C72.3,115.3,70.2,110.8,70,110.4z"/>
<path class="st179" d="M46.6,60.2l-0.5,7l6.1,1l0.9-6.9C53.1,61.3,46.6,60.2,46.6,60.2z"/>
<path class="st180" d="M44.7,88.4l2.3,3.3l4.2,0.6l-1.9-3.2C49.3,89.1,44.7,88.4,44.7,88.4z"/>
<path class="st75" d="M40.1,68l-0.5,6.5l5.6-0.7l0.9-6.6C46.1,67.2,40.1,68,40.1,68z"/>
<path class="st100" d="M39.1,84.9l1.1,4l4.5-0.5L44,84.3L39.1,84.9z"/>
<path class="st181" d="M66.6,104.2c0.1,0.6,0.2,1.1,0.4,1.9c0.9,2,2.6,4.8,3.1,5.7c0-0.4-0.1-0.6-0.1-1.4
	C69,108.5,67,104.9,66.6,104.2z"/>
<path class="st36" d="M77.2,82.3l-2,6l4.5,8.3l2.2-5.6C81.9,91,77.2,82.3,77.2,82.3z"/>
<path class="st59" d="M39.6,74.5l-0.5,5.6l5.3-0.6l0.8-5.7L39.6,74.5z"/>
<path class="st32" d="M71.5,108.3l-1.5,2.1l2.8,6.9l1.8-1.5C74.6,115.8,71.5,108.3,71.5,108.3z"/>
<path class="st30" d="M39.1,80.1v4.8l4.9-0.6l0.4-4.8L39.1,80.1z"/>
<path class="st23" d="M53.1,61.3l-0.9,6.9l6.3,2.8l1.1-7C59.6,64,53.1,61.3,53.1,61.3z"/>
<path class="st161" d="M71.8,74.7l-1.7,6.4l5.2,7.2l2-6L71.8,74.7z"/>
<path class="st171" d="M44,84.3l0.7,4.1l4.6,0.8L49,85.1L44,84.3z"/>
<path class="st55" d="M46.1,67.2l-0.9,6.6l5.9,0.9l1.1-6.5L46.1,67.2z"/>
<path class="st97" d="M59.6,64l-1.1,7l6,4.3l1.3-6.8C65.8,68.6,59.6,64,59.6,64z"/>
<path class="st182" d="M65.8,68.6l-1.3,6.7l5.6,5.8l1.7-6.4C71.8,74.7,65.8,68.6,65.8,68.6z"/>
<path class="st161" d="M44.4,79.5L44,84.3l5,0.8l0.8-4.8L44.4,79.5z"/>
<path class="st178" d="M45.2,73.8l-0.8,5.7l5.4,0.8l1.3-5.6L45.2,73.8z"/>
<path class="st17" d="M52.2,68.2l-1.1,6.5l5.8,2.5l1.6-6.2L52.2,68.2z"/>
<path class="st100" d="M145.1,33.1l-13.7-7.2l-1.5,2.2L143,35L145.1,33.1z"/>
<path class="st175" d="M139.1,42.1l-12.1-6l-1.3,5.7l11.6,5.4L139.1,42.1z"/>
<path class="st36" d="M143,35l-13.1-6.9l-1.6,3.4L141,38L143,35z"/>
<path class="st38" d="M141,38l-12.6-6.5l-1.4,4.6l12.1,6L141,38L141,38z"/>
<path class="st183" d="M159.7,40.4l-12.5-7.9l-2.1,0.6l12.1,7.7L159.7,40.4z"/>
<path class="st28" d="M150,48.6l-10.9-6.5l-1.8,5.1l10.6,5.9L150,48.6z"/>
<path class="st38" d="M157.2,40.8l-12.1-7.7L143,35l11.7,7.4L157.2,40.8z"/>
<path class="st175" d="M152.3,45L141,38l-1.9,4.1l10.9,6.5L152.3,45z"/>
<path class="st64" d="M154.7,42.4L143,35l-2,3l11.3,7L154.7,42.4z"/>
<path class="st175" d="M169.6,48.6l-9.9-8.2l-2.5,0.4l9.7,8L169.6,48.6z"/>
<path class="st28" d="M161.4,52.2l-9.1-7.3l-2.3,3.7l8.8,6.8L161.4,52.2z"/>
<path class="st175" d="M166.9,48.8l-9.7-8l-2.4,1.6l9.3,7.6C164.1,50,166.9,48.8,166.9,48.8z"/>
<path class="st45" d="M164.1,50l-9.4-7.7l-2.5,2.6l9.1,7.3L164.1,50L164.1,50z"/>
<path class="st56" d="M167.6,59.6l-6.2-7.4l-2.6,3.2l6.1,6.8L167.6,59.6z"/>
<path class="st28" d="M176.3,56.7l-6.7-8.1l-2.7,0.2l6.4,7.9H176.3z"/>
<path class="st174" d="M170.5,57.7l-6.4-7.7l-2.8,2.2l6.3,7.4L170.5,57.7z"/>
<path class="st28" d="M173.3,56.7l-6.4-7.9l-2.8,1.2l6.4,7.7L173.3,56.7z"/>
<path class="st48" d="M184.8,67.2l-3-7.8l-2.6-1.8l2.9,7.8L184.8,67.2L184.8,67.2z"/>
<path class="st181" d="M182.1,65.4l-2.9-7.8l-2.9-0.9l2.9,7.7L182.1,65.4z M173.3,65l-2.8-7.3l-2.9,1.9l2.8,7.1
	C170.4,66.6,173.3,65,173.3,65z"/>
<path class="st61" d="M179.2,64.4l-2.9-7.7h-3l2.9,7.6L179.2,64.4z"/>
<path class="st56" d="M176.2,64.3l-2.9-7.6l-2.8,1l2.7,7.4L176.2,64.3z"/>
<path class="st20" d="M183.7,74.5l1.1-7.3l-2.7-1.8l-1.1,7.3L183.7,74.5z"/>
<path class="st32" d="M172.3,71.8l1-6.8l-2.9,1.5l-1,6.6C169.4,73.1,172.3,71.8,172.3,71.8z M181,72.7l1.1-7.3l-2.9-1l-1,7.2
	L181,72.7L181,72.7z"/>
<path class="st27" d="M175.2,71.3l1-7l-3,0.7l-0.9,6.8L175.2,71.3z"/>
<path class="st184" d="M178.2,71.6l1-7.2l-3-0.1l-1,7L178.2,71.6z"/>
<path class="st3" d="M106.4,147.1l13.6-4l-1.9,2.5l-13.7,4.2L106.4,147.1z"/>
<path class="st108" d="M108,144l13.5-3.9l-1.5,3l-13.7,4L108,144z"/>
<path class="st119" d="M109.3,140.3l13.5-3.7l-1.3,3.6L108,144L109.3,140.3z"/>
<path class="st185" d="M110.2,136.2l13.4-3.4l-0.8,3.8l-13.5,3.7L110.2,136.2z"/>
<path class="st121" d="M106.6,109.9l13.7-1.9l1.5,3.8l-13.5,2.1L106.6,109.9z"/>
<path class="st13" d="M134.9,105.6l1.4,3.7l-14.5,2.5l-1.5-3.8C120.3,108,134.9,105.6,134.9,105.6z"/>
<path class="st165" d="M49,7.7l-4.1,3.7l6.2,1.4l3.2-3.6L49,7.7z"/>
<path class="st165" d="M54.3,9.2l-3.2,3.6l6.2,3.3l2.3-3.5C59.6,12.6,54.3,9.2,54.3,9.2z"/>
<path class="st166" d="M59.6,12.6l-2.3,3.5l6.1,5.2l1.4-3.4C64.8,17.9,59.6,12.6,59.6,12.6z"/>
<path class="st23" d="M24,24.7l-1,6.7l6-4.8l0.9-6.4C29.9,20.2,24,24.7,24,24.7z"/>
<path class="st186" d="M44.9,11.4l-2,5.1l6.9,1.2l1.3-4.9C51.1,12.8,44.9,11.4,44.9,11.4z"/>
<path class="st163" d="M51.1,12.8l-1.3,4.9l6.9,3.2l0.6-4.8C57.3,16.1,51.1,12.8,51.1,12.8z"/>
<path class="st160" d="M57.3,16.1l-0.6,4.7l6.7,5.1v-4.6L57.3,16.1z"/>
<path class="st23" d="M23,31.4l0.8,6.9l6-4.8L29,26.6L23,31.4z"/>
<path class="st186" d="M42.9,16.5l-0.3,6.1l7.2,1.1v-6L42.9,16.5z"/>
<path class="st63" d="M29,26.6l0.8,6.9l6.6-2.9l-0.8-7L29,26.6z"/>
<path class="st186" d="M49.8,17.7v6l7.2,3l-0.3-5.8L49.8,17.7z"/>
<path class="st160" d="M56.7,20.8l0.3,5.9l6.9,5l-0.5-5.8C63.4,25.9,56.7,20.8,56.7,20.8z"/>
<path class="st187" d="M35.6,23.6l0.8,7l7-1.1l-0.8-6.9L35.6,23.6z"/>
<path class="st186" d="M42.6,22.6l0.8,6.9l7.2,1.1l-0.8-6.9L42.6,22.6z"/>
<path class="st186" d="M49.8,23.7l0.8,6.9l7.2,3.1l-0.8-7L49.8,23.7z"/>
<path class="st160" d="M57,26.7l0.7,7l7,5l-0.8-7C63.9,31.7,57,26.7,57,26.7z"/>
<path class="st91" d="M147.7,137.1l13.9-3.8l1.8-2.5l-13.9,3.7L147.7,137.1z"/>
<path class="st135" d="M149.5,134.5l13.9-3.7l1.4-3.3l-14,3.9L149.5,134.5L149.5,134.5z"/>
<path class="st1" d="M150.8,131.4l14-3.9l1.1-3.4l-14.1,3.9L150.8,131.4z"/>
<polygon class="st188" points="120,143.1 118.1,145.6 146.8,138.2 148.6,135.9 "/>
<path class="st114" d="M165.9,124.1l0.8-3.9l-14.2,4l-0.8,3.8C151.8,128,165.9,124.1,165.9,124.1z"/>
<g>
	<polygon class="st189" points="120,143.1 134.4,139.5 135.9,136.5 121.5,140.1 	"/>
	<polygon class="st189" points="135.9,136.5 134.4,139.5 148.7,135.9 150.2,133.1 	"/>
</g>
<path class="st85" d="M152.5,124.2l14.2-4l0.3-4l-14.2,4.1L152.5,124.2L152.5,124.2z"/>
<polygon class="st150" points="122.8,136.6 121.5,140.1 150.2,133.1 151.4,129.8 "/>
<path class="st90" d="M152.8,120.3l14.2-4.1l-0.1-4.1l-14.3,4.1L152.8,120.3L152.8,120.3z"/>
<g>
	<polygon class="st129" points="50.5,131.3 51.3,136.6 63.8,133.7 63.1,128.8 	"/>
	<polygon class="st129" points="123.6,132.8 122.8,136.6 151.4,129.8 152.3,126.2 	"/>
</g>
<path class="st92" d="M152.6,116.2l14.3-4.1l-0.5-4.1l-14.2,4.1L152.6,116.2z"/>
<path class="st104" d="M152.2,112.1l14.2-4.1l-0.9-3.9l-14.2,4.1L152.2,112.1z"/>
<path class="st53" d="M142.4,93.6l13.6-4l-2.5-1.3l-13.7,4L142.4,93.6z"/>
<path class="st112" d="M151.3,108.2l14.2-4.1l-1.4-3.7l-14,4L151.3,108.2z"/>
<path class="st121" d="M150.1,104.4l14-4l-1.6-3.5l-14,4.1L150.1,104.4z"/>
<path class="st8" d="M148.5,101.1l14-4.2l-1.9-2.9l-13.9,3.9L148.5,101.1z"/>
<path class="st16" d="M146.7,98l13.9-4l-2.2-2.5l-13.9,3.9L146.7,98z"/>
<path class="st76" d="M144.5,95.4l13.9-3.9l-2.4-1.9l-13.6,4L144.5,95.4z"/>
<path class="st96" d="M134.9,105.6l14.5-3l1.4,3.6l-14.5,3.1L134.9,105.6z"/>
<g>
	<polygon class="st155" points="138.3,125.5 124.1,128.7 123.6,132.8 137.9,129.5 152.3,126.2 152.8,122.2 	"/>
	<polygon class="st155" points="99,135 98.5,139.7 110.2,136.2 123.6,132.8 124.1,128.7 110.7,132 	"/>
</g>
<polygon class="st164" points="138.4,121.5 124.1,124.5 110.7,127.4 110.7,127.3 99.1,130.2 99,135 110.7,132 124,128.8 
	138.3,125.5 152.8,122.2 152.9,118.2 "/>
<g>
	<polygon class="st190" points="138.1,117.3 123.7,120.2 110.3,122.8 110.3,122.8 98.5,125.2 99.1,130.2 110.8,127.4 110.8,127.4 
		124.1,124.5 124.1,124.5 138.4,121.5 	"/>
	<polygon class="st190" points="152.5,114.2 138.1,117.3 138.4,121.5 152.8,118.3 	"/>
</g>
<g>
	<polygon class="st104" points="109.6,118.3 97.6,120.2 98.5,125.2 110.4,122.8 123.7,120.2 138.1,117.3 137.4,113 	"/>
	<polygon class="st104" points="152.5,114.2 151.9,110.2 137.4,113 138.1,117.3 	"/>
</g>
<polygon class="st40" points="151.9,110.2 150.8,106.2 136.3,109.3 121.8,111.8 108.3,113.9 108.3,113.9 96.3,115.7 97.6,120.2 
	109.6,118.3 "/>
<path class="st98" d="M94.4,151.5l12-4.3l-2,2.6l-12.1,4.5L94.4,151.5z"/>
<path class="st125" d="M96.1,148.1L108,144l-1.7,3.2l-11.9,4.3L96.1,148.1z"/>
<path class="st191" d="M97.6,144.1l11.7-3.8L108,144l-11.9,4.1L97.6,144.1z"/>
<path class="st192" d="M98.5,139.7l11.7-3.5l-0.9,4.1l-11.7,3.8L98.5,139.7L98.5,139.7z"/>
<path class="st137" d="M179.9,128.7l6.9-5.6C184.9,124.3,181,126.7,179.9,128.7z"/>
<path class="st116" d="M171.1,132.3l8.8-3.6l2-2.1l-8.7,3.4L171.1,132.3L171.1,132.3z"/>
<path class="st188" d="M173.2,130l8.7-3.4l1.8-3.2l-8.6,3.7L173.2,130z"/>
<path class="st86" d="M159.6,135.7l11.5-3.4l2.1-2.3l-11.6,3.3L159.6,135.7z"/>
<path class="st125" d="M161.6,133.3l11.6-3.3l1.9-2.9l-11.7,3.7L161.6,133.3z"/>
<path class="st136" d="M163.4,130.8l11.7-3.7l1.5-3.3l-11.8,3.7L163.4,130.8z"/>
<path class="st1" d="M164.8,127.5l11.8-3.7l1.2-3.8l-11.9,4.1L164.8,127.5z"/>
<path class="st78" d="M165.9,124.1l11.9-4.1l0.8-4l-11.9,4.2L165.9,124.1z"/>
<path class="st102" d="M144.9,140l14.7-4.3l2-2.4l-13.9,3.8L144.9,140z"/>
<path class="st129" d="M186.6,115.7l5.3-4.4l0.9-4.6l-5.3,4.8L186.6,115.7z"/>
<path class="st85" d="M187.5,111.5l5.3-4.8l0.9-5l-5.9,5.3C187.8,107,187.5,111.5,187.5,111.5z"/>
<path class="st78" d="M177.8,120l8.8-4.3l0.9-4.2l-8.9,4.5L177.8,120z"/>
<path class="st85" d="M178.6,116l8.9-4.5l0.3-4.5l-8.9,4.8L178.6,116z"/>
<path class="st122" d="M183.7,123.4l5.2-3.9l1.6-3.9l-5.1,4.1L183.7,123.4z"/>
<path class="st189" d="M175.1,127.1l8.6-3.7l1.7-3.7l-8.8,4.1L175.1,127.1z"/>
<path class="st33" d="M176.6,123.8l8.8-4.1l1.2-4l-8.9,4.2L176.6,123.8z"/>
<path class="st65" d="M187.8,107l5.9-5.3l-0.6-4.6l-5.2,5.5L187.8,107z"/>
<path class="st47" d="M187.9,102.6l5.2-5.5l-0.5-4.6l-5.3,5.7L187.9,102.6z"/>
<path class="st5" d="M187.3,98.2l5.3-5.7l-1-4.5l-5.4,6L187.3,98.2L187.3,98.2z"/>
<path class="st21" d="M186.2,94l5.4-6l-1.5-4.2l-5.2,6.2L186.2,94z"/>
<path class="st65" d="M178.9,111.8l8.9-4.8l0.1-4.4l-9.2,4.9L178.9,111.8z"/>
<path class="st8" d="M184.9,90l5.2-6.2l-1.8-3.7l-5.2,6.4C183.1,86.5,184.9,90,184.9,90z"/>
<path class="st193" d="M178.9,107.6l9-5l-0.6-4.4l-9,5.2C178.3,103.4,178.9,107.6,178.9,107.6z"/>
<path class="st2" d="M178.3,103.4l9-5.2l-1.1-4.2l-8.8,5.4L178.3,103.4L178.3,103.4z"/>
<path class="st149" d="M177.4,99.4l8.8-5.4l-1.3-4l-8.8,5.6L177.4,99.4z"/>
<path class="st58" d="M176.1,95.6l8.8-5.6l-1.8-3.5l-8.8,5.6L176.1,95.6z"/>
<path class="st77" d="M178.6,81l5.1-6.5l-2.7-1.8l-5,6.5L178.6,81L178.6,81z"/>
<path class="st14" d="M192.6,92.5l1-6.3l-1.3-4.7l-0.7,6.5C191.6,88,192.6,92.5,192.6,92.5z"/>
<path class="st13" d="M191.6,88l0.7-6.5l-1.4-4.4l-0.8,6.7L191.6,88L191.6,88z"/>
<path class="st11" d="M190.1,83.8l0.8-6.7l-1.5-4l-1.1,7L190.1,83.8z"/>
<path class="st18" d="M116.9,19.5l-14.4-5.3l0.1,2.9l13.5,4.9L116.9,19.5z"/>
<path class="st42" d="M116.1,22l-13.5-5v4.2l12.8,4.6C115.4,25.8,116.1,22,116.1,22z"/>
<path class="st168" d="M115.4,25.8l-12.8-4.6l0.1,5.6l11.9,4.2C114.6,31,115.4,25.8,115.4,25.8z"/>
<path class="st30" d="M132.9,25.1l-15.2-6.6l-0.8,1l14.5,6.4L132.9,25.1z"/>
<path class="st54" d="M147.2,32.5l-14.3-7.4l-1.5,0.8l13.7,7.2L147.2,32.5z"/>
<path class="st75" d="M102.5,14.2l-13.4-4l1,3l12.5,3.8L102.5,14.2z"/>
<path class="st68" d="M89.1,10.2l-12-2.6l2.1,3.2l10.9,2.4C90.1,13.2,89.1,10.2,89.1,10.2z"/>
<path class="st194" d="M90.1,13.2l-10.9-2.4l2.1,4.9l9.8,2.1L90.1,13.2z"/>
<path class="st195" d="M77.1,7.6l-9.9-1l3.3,3.3l8.7,0.9C79.2,10.8,77.1,7.6,77.1,7.6z"/>
<path class="st179" d="M79.2,10.8l-8.7-0.9l3.1,5.1l7.7,0.7C81.3,15.7,79.2,10.8,79.2,10.8z"/>
<path class="st63" d="M33.3,14.7l-3.4,5.5l6.3-2.8l2.7-5.3C38.9,12.1,33.3,14.7,33.3,14.7z"/>
<path class="st187" d="M38.9,12.1l-2.7,5.3l6.7-0.9l2-5.1C44.9,11.4,38.9,12.1,38.9,12.1z"/>
<path class="st172" d="M29.9,20.2L29,26.6l6.6-3l0.6-6.2C36.2,17.4,29.9,20.2,29.9,20.2z"/>
<path class="st165" d="M36.2,17.4l-0.6,6.2l7-1l0.3-6.1L36.2,17.4z"/>
<path class="st54" d="M14.7,39.5l-1.4,6.7l4.4-8l1.3-6.7C19,31.4,14.7,39.4,14.7,39.5z"/>
<path class="st196" d="M19,31.5l-1.3,6.6c2.6-3.4,4.2-5,5.3-6.7c0.3-1.8,0.6-3.3,1-6.7L19,31.5z"/>
<path class="st54" d="M13.3,46.2l0.9,6.8l4.4-8.1l-0.9-6.8C17.7,38.1,13.3,46.2,13.3,46.2z"/>
<path class="st178" d="M17.7,38.1l0.9,6.8l5.2-6.6L23,31.4L17.7,38.1z"/>
<path class="st62" d="M9.8,55.7l0.9,6.7l3.5-9.4l-0.9-6.8L9.8,55.7z"/>
<path class="st84" d="M8.1,72.7l1.6,6.7l2.5-10l-1.5-7C10.7,62.5,8.1,72.7,8.1,72.7z"/>
<path class="st34" d="M10.7,62.4l1.5,7l3.4-9.3L14.2,53L10.7,62.4z"/>
<path class="st190" d="M8.4,90.7L6.8,84c-0.1-2.7-0.4-5-0.8-6.6L5.8,89.1l0.8,6.6l1.6,6.6l1.8,6.3l0.2-11.3L8.4,90.7z"/>
<path class="st94" d="M24.7,162.2l2.1-2.1l-2.5-7.1l-2.4,1.7C21.9,154.7,24.7,162.2,24.7,162.2z"/>
<path class="st110" d="M26.8,160.1l3.7-2.9l-2.3-6.3l-3.9,2.1L26.8,160.1L26.8,160.1z"/>
<path class="st86" d="M21.9,154.7l2.4-1.7l-1.9-7.3l-2.6,0.9L21.9,154.7z"/>
<path class="st151" d="M24.3,153l3.9-2.1l-1.7-6.8l-4.1,1.6C22.4,145.7,24.3,153,24.3,153z"/>
<path class="st80" d="M20.5,155.3l1.4-0.6l-2.1-8.1l-1.5,0.1C18.3,146.7,20.5,155.3,20.5,155.3z"/>
<path class="st197" d="M31.2,177.3l0.6-2.2l-3.9-6.1l-0.9,1.7L31.2,177.3z"/>
<path class="st93" d="M31.8,175.1l1.6-3.1l-3.5-5.6l-2,2.6C27.9,169,31.8,175.1,31.8,175.1z"/>
<path class="st124" d="M33.4,172l3.2-3.8l-3.2-5.2l-3.5,3.4L33.4,172z"/>
<path class="st126" d="M27.9,169l2-2.6l-3.1-6.3l-2.1,2.1L27.9,169z"/>
<path class="st138" d="M29.9,166.4l3.5-3.4l-2.9-5.8l-3.7,2.9C26.8,160.1,29.9,166.4,29.9,166.4z"/>
<path class="st88" d="M40.8,187.1v-2.9l-4.7-4l-0.3,2.6L40.8,187.1L40.8,187.1z"/>
<path class="st101" d="M31.2,177.3l4.6,5.5 M40.8,184.2l0.7-3.8l-4.1-3.7l-1.3,3.5C36.1,180.2,40.8,184.2,40.8,184.2z"/>
<path class="st198" d="M36.1,180.2l1.3-3.5l-4-4.7l-1.6,3.1L36.1,180.2L36.1,180.2z"/>
<path class="st199" d="M41.5,180.4l2.6-4.5l-3.8-3.4l-3,4.2L41.5,180.4z"/>
<path class="st200" d="M37.4,176.7l2.9-4.2l-3.7-4.3l-3.2,3.8L37.4,176.7z"/>
<path class="st201" d="M45.5,187l0.6-4l-4.6-2.6l-0.7,3.8L45.5,187z"/>
<path class="st133" d="M50.3,188.7l0.2-4.3L46,183l-0.5,4L50.3,188.7z"/>
<path class="st202" d="M46,183l2.2-4.8l-4.1-2.3l-2.6,4.5L46,183z"/>
<path class="st146" d="M48.2,178.2l4.1-5.1l-3.7-2.2l-4.5,5L48.2,178.2z"/>
<path class="st203" d="M50.5,184.4l1.8-4.8l-4.1-1.4L46,183L50.5,184.4z"/>
<path class="st204" d="M52.3,179.6l3.8-5.3l-3.8-1.2l-4.1,5.1L52.3,179.6z"/>
<path class="st205" d="M55.2,188.9l-0.2-4.2l-4.5-0.3l-0.2,4.3L55.2,188.9z"/>
<path class="st202" d="M55,184.7l1.4-4.9l-4.1-0.2l-1.8,4.8L55,184.7L55,184.7z"/>
<path class="st204" d="M56.4,179.8l3.4-5.3l-3.7-0.2l-3.8,5.3L56.4,179.8z"/>
<path class="st206" d="M59.9,187.8l-0.6-4l-4.3,0.9l0.2,4.2L59.9,187.8L59.9,187.8z"/>
<path class="st200" d="M60.3,178.9l3.1-5.2l-3.6,0.8l-3.4,5.3L60.3,178.9L60.3,178.9z"/>
<polygon class="st142" points="59.3,183.8 60.3,178.9 56.4,179.8 55,184.7 "/>
<polygon class="st142" points="70.5,184.6 68.3,181.8 64.3,185.5 66.2,188.5 "/>
<path class="st143" d="M66.9,171.9l-2.8,5"/>
<path class="st207" d="M68.3,181.8l-1.3-3.6l-3.6,3.3l0.9,4L68.3,181.8z"/>
<path class="st127" d="M67.4,173.8l-3.3,3.1l-0.7,4.6l3.6-3.3L67.4,173.8z"/>
<path class="st130" d="M74.3,179.5l-2.5-2.4l-3.5,4.7l2.2,2.8L74.3,179.5z"/>
<path class="st208" d="M71.8,177.1l-1.5-3.3l-3.3,4.4l1.3,3.6L71.8,177.1z"/>
<path class="st117" d="M70.3,173.8l0.1-4l-3,4l-0.4,4.4L70.3,173.8z"/>
<path class="st84" d="M80.5,110.1l-3.2,3.3l2.6,8.8l3.4-2.8C83.2,119.1,80.5,110.1,80.5,110.1z"/>
<path class="st170" d="M83.5,105.8l-3,4.3l2.8,9.3l3.1-3.7C86.3,115.5,83.5,105.8,83.5,105.8z"/>
<path class="st16" d="M88.9,111.2l-2.5,4.5l2,10.4L91,122L88.9,111.2z"/>
<path class="st130" d="M85.9,172.1l-2.3,1.7l-3.6,7l2.1-1.3L85.9,172.1z"/>
<path class="st113" d="M83.6,173.8l-2.9,0.3l-3.5,6.7H80L83.6,173.8z"/>
<path class="st143" d="M80.7,174.1l-3.2-0.9l-3.2,6.3l2.9,1.3L80.7,174.1L80.7,174.1z"/>
<path class="st107" d="M77.5,173.2l-2.7-1.9l-3,5.8l2.5,2.4L77.5,173.2z"/>
<path class="st209" d="M74.8,171.4l-1.7-2.9l-2.8,5.3l1.5,3.3L74.8,171.4L74.8,171.4z"/>
<path class="st156" d="M81.7,56.6l0.7,7l4.5,10.8L81.7,56.6z"/>
<path class="st42" d="M76.5,46.9l0.7,6.9l5.2,9.8l-0.7-7L76.5,46.9z"/>
<path class="st44" d="M86.8,74.4c0,4.4,1.7,14.2,3.1,18.4C90,88.4,88.2,78.6,86.8,74.4z"/>
<path class="st180" d="M82.4,63.6l0.9,7.1l3.9,8.8l-0.3-5.1C86.9,74.4,82.4,63.6,82.4,63.6z"/>
<path class="st79" d="M77.2,53.8l0.8,7.3l5.3,9.6l-0.9-7.1L77.2,53.8z"/>
<path class="st24" d="M87.2,79.5l0.7,8.8l2.2,11.2l-0.2-6.7L87.2,79.5z"/>
<path class="st38" d="M83.3,70.7l0.4,7.1l4.2,10.5l-0.7-8.8C87.2,79.5,83.3,70.7,83.3,70.7z"/>
<path class="st51" d="M78.1,61.1l0.4,7.4l5.2,9.3l-0.4-7.1C83.3,70.7,78.1,61.1,78.1,61.1z"/>
<path class="st56" d="M87.9,88.3l-0.6,6.5l3.2,10.9l-0.4-6.2C90.1,99.5,87.9,88.3,87.9,88.3z"/>
<path class="st64" d="M83.7,77.8l-0.4,6.9l4,10.1l0.6-6.5C87.9,88.3,83.7,77.8,83.7,77.8z"/>
<path class="st67" d="M78.5,68.5l-0.2,7.1l5,9.1l0.4-6.9C83.7,77.8,78.5,68.5,78.5,68.5z"/>
<path class="st97" d="M70.5,38.5l0.8,6.9l6,8.5l-0.8-7L70.5,38.5z"/>
<path class="st46" d="M63.9,31.7l0.8,7l6.6,6.7l-0.8-6.9L63.9,31.7z"/>
<path class="st194" d="M71.3,45.4l0.9,7.5l5.9,8.3l-0.8-7.3L71.3,45.4z"/>
<path class="st81" d="M64.7,38.7l1,7.4l6.5,6.7l-0.9-7.4L64.7,38.7z"/>
<path class="st75" d="M72.2,52.8l0.6,7.6l5.7,8.1l-0.4-7.4C78.1,61.1,72.2,52.8,72.2,52.8z"/>
<path class="st176" d="M65.7,46.1l0.7,7.6l6.4,6.7l-0.6-7.6L65.7,46.1z"/>
<path class="st35" d="M72.8,60.4l-0.2,7.2l5.7,8l0.2-7.1L72.8,60.4z"/>
<path class="st23" d="M66.4,53.7l0.1,7.7l6.1,6.2l0.2-7.2C72.8,60.4,66.4,53.7,66.4,53.7z"/>
<path class="st18" d="M72.6,67.6l-0.8,7.1l5.4,7.6l1.1-6.7L72.6,67.6z"/>
<path class="st194" d="M66.5,61.3l-0.7,7.3l6,6.1l0.8-7.1C72.6,67.6,66.5,61.3,66.5,61.3z"/>
<path class="st53" d="M124.1,94.4l13.4-3l3.6,1.3l-14.6,2.8C126.5,95.5,124.1,94.4,124.1,94.4z"/>
<path class="st71" d="M109.1,96.3l15-1.9l2.4,1.1l-14.9,2L109.1,96.3z"/>
<path class="st15" d="M94.7,97.4l14.4-1.1l2.5,1.2l-14.3,1.2C97.3,98.7,94.7,97.4,94.7,97.4z"/>
<path class="st11" d="M104.7,106.2l13.8-1.6l1.8,3.4l-13.7,1.9C106.6,109.9,104.7,106.2,104.7,106.2z"/>
<path class="st29" d="M102.5,103.1l13.9-1.5l2.1,3l-13.8,1.6L102.5,103.1z"/>
<path class="st77" d="M97.3,98.7l14.3-1.2l2.5,1.7l-14,1.4L97.3,98.7z"/>
<path class="st53" d="M100.1,100.6l14-1.4l2.3,2.4l-13.9,1.5L100.1,100.6z"/>
<path class="st8" d="M118.5,104.6l14.6-2.5l1.8,3.5l-14.6,2.4C120.3,108,118.5,104.6,118.5,104.6z"/>
<path class="st16" d="M116.4,101.6l14.7-2.1l2,2.6l-14.6,2.5C118.5,104.6,116.4,101.6,116.4,101.6z"/>
<path class="st53" d="M111.6,97.5l14.9-2l2.4,1.7l-14.8,2C114.1,99.2,111.6,97.5,111.6,97.5z"/>
<path class="st76" d="M114.1,99.2l14.8-2l2.2,2.3l-14.7,2.1C116.4,101.6,114.1,99.2,114.1,99.2z"/>
<path class="st167" d="M133.1,102.1l14.5-2.7l1.7,3.2l-14.4,3L133.1,102.1z"/>
<path class="st70" d="M131.1,99.5l14.6-2.9l2,2.8l-14.6,2.7L131.1,99.5z"/>
<path class="st158" d="M126.5,95.5l14.6-2.8l2.3,1.7l-14.6,2.8L126.5,95.5z"/>
<path class="st22" d="M128.9,97.2l14.6-2.8l2.2,2.3l-14.6,2.9L128.9,97.2z"/>
<path class="st210" d="M17.1,147c-0.9-3.5-3.1-12.5-4.5-15.9L17.1,147z"/>
<path class="st94" d="M17.1,147l2,6.4c-0.8-3-3.8-14.2-4.8-17L17.1,147L17.1,147z"/>
<path class="st4" d="M78.6,132.3l-2.1,0.2l0.8,7.8l2.1,0.5L78.6,132.3z"/>
<path class="st2" d="M85.2,129.2l-3.4,2.1l0.7,9.1l3.6-1.4L85.2,129.2L85.2,129.2z"/>
<path class="st104" d="M81.8,131.3l-3.2,1l0.8,8.5l3.1-0.4L81.8,131.3L81.8,131.3z"/>
<path class="st11" d="M86.4,115.7l-3.1,3.7l1.9,9.8l3.2-3.1L86.4,115.7z"/>
<path class="st121" d="M76.9,123.8l-1.9,0.9l1.5,7.8l2.2-0.2L76.9,123.8z"/>
<path class="st8" d="M83.3,119.4l-3.4,2.8l1.9,9.1l3.4-2.1C85.2,129,83.3,119.6,83.3,119.4z"/>
<path class="st58" d="M79.9,122.2l-3,1.6l1.8,8.5l3.1-1C81.8,131.3,79.9,122.2,79.9,122.2z"/>
<path class="st209" d="M88.9,163.5l-2.5,2.1l-2.8,8.2l2.3-1.7L88.9,163.5z"/>
<path class="st94" d="M86.4,165.6l-3.1,0.8l-2.6,7.7l2.9-0.3C83.7,173.8,86.4,165.6,86.4,165.6z"/>
<path class="st189" d="M78.7,157.2l-2.1-1.8l-1.4,6.9l1.9,2.3L78.7,157.2z"/>
<path class="st211" d="M83.3,166.4L80,166l-2.5,7.2l3.2,0.9C80.7,174.1,83.3,166.4,83.3,166.4z"/>
<path class="st212" d="M80,166l-2.9-1.4l-2.3,6.8l2.7,1.8C77.5,173.2,80,166,80,166z"/>
<path class="st80" d="M77.1,164.6l-1.9-2.3l-2.1,6.2l1.7,2.9L77.1,164.6L77.1,164.6z"/>
<path class="st102" d="M90.9,154l-2.6,2.4l-1.9,9.2l2.5-2.1L90.9,154L90.9,154z"/>
<path class="st151" d="M88.3,156.4l-3.2,1.4l-1.8,8.6l3.1-0.8L88.3,156.4z"/>
<path class="st125" d="M85.1,157.8l-3.4,0.2l-1.7,8l3.3,0.4L85.1,157.8L85.1,157.8z"/>
<path class="st213" d="M91.6,154.5l12.8-4.7c-1,2.1-11.1,5.3-13.1,6.2L91.6,154.5z"/>
<path class="st102" d="M181.9,126.6l4.9-3.5l2.1-3.6l-5.2,3.9L181.9,126.6L181.9,126.6z"/>
<path class="st0" d="M93.7,128.3l-1.7,4.6v10.7l1.7-4.1V128.3z"/>
<path class="st14" d="M92.6,117l-1.7,5l1,10.9l1.7-4.6L92.6,117L92.6,117z"/>
<path class="st7" d="M91,122l-2.6,4.1l1,10.4l2.6-3.6L91,122z"/>
<path class="st5" d="M88.4,126.1l-3.2,3.1l0.9,9.8l3.3-2.5C89.4,136.5,88.4,126.1,88.4,126.1z"/>
<path class="st82" d="M72.8,117.3c0,0.5,0,0.7,0,1c0.5,2.1,1.8,6.3,1.8,6.6l0.4-0.2C75,124.7,72.8,117.3,72.8,117.3z"/>
<path class="st76" d="M74.6,115.8l-1.8,1.5l2.2,7.4l1.9-0.9C76.9,123.8,74.6,115.8,74.6,115.8z"/>
<path class="st19" d="M77.4,113.4l-2.8,2.4l2.3,8l3-1.6L77.4,113.4z"/>
<path class="st145" d="M93.6,139.5l-1.7,4.1l-1,10.4l1.6-3.7L93.6,139.5z"/>
<path class="st0" d="M86.1,139l-3.6,1.4l0.1,9l3.5-0.8V139z M79.4,140.8l-2.1-0.5v7.7l2.1,1.1V140.8z"/>
<path class="st0" d="M82.5,140.4l-3.1,0.4v8.3l3.2,0.3L82.5,140.4z"/>
<path class="st129" d="M77.3,148l-0.7,7.5l2.1,1.7l0.7-8.1L77.3,148z"/>
<path class="st141" d="M92,143.7l-2.6,3l-1.1,9.7l2.6-2.4L92,143.7z"/>
<path class="st192" d="M89.4,146.7l-3.3,1.9l-1,9.2l3.2-1.4C88.3,156.4,89.4,146.7,89.4,146.7z M86.1,148.6l-3.5,0.8l-0.9,8.6
	l3.4-0.2L86.1,148.6L86.1,148.6z"/>
<path class="st185" d="M82.6,149.4l-3.2-0.3l-0.7,8.1l3,0.8C81.7,158,82.6,149.4,82.6,149.4z"/>
<path class="st0" d="M92,132.9l-2.6,3.6v10.2l2.6-3.1V132.9z M89.4,136.5l-3.3,2.5v9.6l3.3-1.9V136.5L89.4,136.5z"/>
<path class="st45" d="M81.9,91l-2.2,5.6l3.8,9.2l2.4-5.1C85.9,100.7,81.9,91,81.9,91z"/>
<path class="st115" d="M79.7,96.6l-2.7,4.8l3.5,8.7l3-4.3L79.7,96.6z"/>
<path class="st181" d="M74,105.3l-2.5,3l3.1,7.5l2.8-2.4L74,105.3z"/>
<path class="st44" d="M77,101.4l-3,3.9l3.4,8.1l3.2-3.3L77,101.4z"/>
<path class="st174" d="M67.8,101.5l-1.2,2.7l3.4,6.2l1.5-2.1C71.5,108.3,67.8,101.5,67.8,101.5z"/>
<path class="st183" d="M75.3,88.3l-2.5,5.3l4.2,7.8l2.7-4.8C79.7,96.6,75.3,88.3,75.3,88.3z"/>
<path class="st62" d="M70.1,98l-2.3,3.5l3.7,6.8l2.5-3C74,105.3,70.1,98,70.1,98z"/>
<path class="st169" d="M72.8,93.6L70.1,98l3.9,7.3l3-3.9L72.8,93.6z"/>
<path class="st115" d="M62.7,98.8c0.3,0.8,0.5,1.4,0.8,2.4c1.1,1.8,2.9,4,3.5,4.9c-0.1-0.7-0.2-0.9-0.4-1.9
	C65.5,102.2,63.3,99.7,62.7,98.8z"/>
<path class="st31" d="M63.6,95.6l-0.9,3.2l3.9,5.4l1.2-2.7C67.8,101.5,63.6,95.6,63.6,95.6z"/>
<path class="st37" d="M70.1,81.1l-2.2,5.7l4.9,6.8l2.5-5.3C75.3,88.3,70.1,81.1,70.1,81.1z"/>
<path class="st183" d="M65.5,91.7l-1.9,3.9l4.2,5.9l2.3-3.5L65.5,91.7z"/>
<path class="st41" d="M67.9,86.8l-2.4,4.9l4.6,6.3l2.7-4.4C72.8,93.6,67.9,86.8,67.9,86.8z"/>
<path class="st31" d="M58.5,94.4l1.1,2.8l3.9,4l-0.8-2.4L58.5,94.4z"/>
<path class="st183" d="M59,90.9l-0.5,3.5l4.2,4.4l0.9-3.2C63.6,95.6,59,90.9,59,90.9z"/>
<path class="st59" d="M64.5,75.3l-1.9,6l5.3,5.5l2.2-5.7L64.5,75.3z"/>
<path class="st54" d="M60.5,86.5L59,90.9l4.6,4.8l1.9-4C65.5,91.7,60.5,86.5,60.5,86.5z"/>
<path class="st30" d="M62.6,81.2l-2.1,5.3l5,5.2l2.4-4.9C67.9,86.8,62.6,81.2,62.6,81.2z"/>
<path class="st38" d="M54,91.2l1.6,2.9l4,3.1l-1.1-2.8L54,91.2z"/>
<path class="st41" d="M54.2,87.4L54,91.2l4.5,3.2l0.5-3.5L54.2,87.4z"/>
<path class="st182" d="M58.5,71l-1.6,6.2l5.7,4.1l1.9-6C64.5,75.3,58.5,71,58.5,71z"/>
<path class="st168" d="M55.3,82.7l-1.1,4.7l4.9,3.6l1.6-4.4C60.6,86.5,55.3,82.7,55.3,82.7z"/>
<path class="st9" d="M56.9,77.2l-1.6,5.5l5.2,3.8l2.1-5.3C62.7,81.2,56.9,77.2,56.9,77.2z"/>
<path class="st180" d="M49.3,89.2l1.9,3.2l4.4,1.7L54,91.2L49.3,89.2z"/>
<path class="st171" d="M49,85.1l0.3,4.1l4.7,2l0.2-3.8L49,85.1z"/>
<path class="st51" d="M49.8,80.3L49,85.1l5.2,2.3l1.1-4.7C55.3,82.7,49.8,80.3,49.8,80.3z"/>
<path class="st178" d="M51.1,74.7l-1.3,5.6l5.5,2.4l1.7-5.5L51.1,74.7z"/>
<path class="st150" d="M185.4,119.7l5.1-4.1l1.4-4.3l-5.3,4.4L185.4,119.7L185.4,119.7z"/>
<path class="st80" d="M104.4,149.8l13.7-4.2l-2.1,1.9l-15.9,5L104.4,149.8z"/>
<path class="st81" d="M75,6.1L64,5l3.2,1.6l9.9,1L75,6.1z"/>
<path class="st172" d="M64,5l-8.7,0.5l4.3,1.6l7.6-0.5L64,5z"/>
<path class="st72" d="M55.3,5.5L49,7.7l5.3,1.5l5.3-2.1L55.3,5.5z M43.8,8.2l-4.9,3.9l6-0.7L49,7.7L43.8,8.2z"/>
<path class="st46" d="M39,10.6l-5.7,4.1l5.6-2.6l4.9-3.9L39,10.6z"/>
<path class="st129" d="M10,108.5l-1.8-6.3l0,0.2c0,0,0-0.1,0-0.1c-0.4-2.7-1-5-1.6-6.6c-0.3-3-0.5-4.8-0.8-6.6L6.6,101l0.9,6.4
	l0,0.2L9,114l1.8,6L10,108.5z"/>
<path class="st3" d="M15.6,140.6c-0.3-2.2-0.9-6.8-1.7-10.6c-0.4-1.9-1-3.6-1.4-4.6l0,0c0,0,0,0,0,0c-0.5-2.3-1.1-4.1-1.7-5.4
	c-0.6-2.7-1.2-4.5-1.8-6c0,0-1-4.7-1.5-6.4l5.2,23.7l1.6,5.1c0,0,0,0,0,0l0,0L15.6,140.6z"/>
<path class="st73" d="M7.3,66.2l0.8,6.5l2.6-10.3l-0.9-6.7L7.3,66.2z"/>
<polygon class="st121" points="9.7,79.4 8.1,72.7 7.3,66.2 6,77.4 6.8,84 8.4,90.7 10.2,97.3 11.6,86.5 "/>
<path class="st110" d="M19,153.1l0.7,1.8c-0.4-1.6-1.6-9.3-3.4-11.5L19,153.1z"/>
<path class="st105" d="M23.6,163.4l1.1-1.2l-2.8-7.5l-1.4,0.6L23.6,163.4z"/>
<path class="st202" d="M31.2,178.4v-1.1l-4.2-6.6l-0.3,0.8L31.2,178.4L31.2,178.4z"/>
<path class="st108" d="M81.7,158l-3-0.8l-1.6,7.4L80,166L81.7,158z"/>
<path class="st50" d="M91.6,111.5l3-0.3l1.7,4.5l-3.8,0.6C92.5,116.3,91.6,111.5,91.6,111.5z"/>
</svg>
