<?xml version="1.0" encoding="utf-8"?>
<!-- Generator: Adobe Illustrator 16.0.0, SVG Export Plug-In . SVG Version: 6.00 Build 0)  -->
<!DOCTYPE svg PUBLIC "-//W3C//DTD SVG 1.0//EN" "http://www.w3.org/TR/2001/REC-SVG-20010904/DTD/svg10.dtd">
<svg version="1.0" id="Livello_1" xmlns="http://www.w3.org/2000/svg" xmlns:xlink="http://www.w3.org/1999/xlink" x="0px" y="0px"
	 width="566.93px" height="566.93px" viewBox="0 0 566.93 566.93" enable-background="new 0 0 566.93 566.93" xml:space="preserve">
<path fill="#D41F26" stroke="#D41F26" stroke-width="2" stroke-linejoin="bevel" stroke-miterlimit="10" d="M146.275,433.585
	c8.77,8.31,18.29,15.85,28.42,22.52l-83.38,71.511l-23.17-27.021L146.275,433.585z"/>
<path fill="#D41F26" stroke="#D41F26" stroke-width="2" stroke-linejoin="bevel" stroke-miterlimit="10" d="M562.705,123.365
	l-88.931,76.26c-5.06-11.07-11.069-21.61-17.93-31.52l83.68-71.76L562.705,123.365z"/>
<path fill="#FEE900" stroke="#FEE900" stroke-miterlimit="10" d="M94.125,353.725c4.18,11.71,9.4,22.931,15.55,33.55l-79.69,68.341
	l-23.17-27.021L94.125,353.725z"/>
<path fill="#FEE900" stroke="#FEE900" stroke-miterlimit="10" d="M501.365,51.365l-85.75,73.54c-9.58-7.72-19.881-14.59-30.771-20.5
	l93.351-80.06L501.365,51.365z"/>
<path fill="#3BC44E" stroke="#3BC44E" stroke-miterlimit="10" d="M116.465,398.195c6.6,9.92,14.05,19.229,22.23,27.829
	l-78.04,66.931l-23.17-27.021L116.465,398.195z"/>
<path fill="#3BC44E" stroke="#3BC44E" stroke-miterlimit="10" d="M532.035,88.695l-82.521,70.77c-7.28-9.42-15.35-18.18-24.13-26.2
	l83.48-71.59L532.035,88.695z"/>
<path fill="#FEBB0B" enable-background="new    " d="M374.185,413.415c-29.739,15.729-63.649,24.63-99.64,24.63
	c-81.52,0-152.36-45.68-188.33-112.84c18.79,93.83,101.64,164.51,201,164.51c43.89,0,84.56-13.8,117.91-37.29L374.185,413.415z"/>
<path fill="#37AC48" enable-background="new    " d="M492.215,284.715c0-51.36-18.89-98.32-50.11-134.29l-39.859,35.77
	c35.26,42.96,56.42,97.94,56.42,157.85c0,22.57-3,44.439-8.63,65.229C476.495,374.755,492.215,331.575,492.215,284.715z"/>
<path fill="#27E246" enable-background="new    " d="M458.665,344.045c0,22.57-3,44.439-8.63,65.229
	c-10.891,14.23-23.62,26.99-37.82,37.94l-33.89-42.71c36.09-27.48,59.39-70.92,59.39-119.79c0-37.37-13.63-71.57-36.18-97.88
	l0.71-0.64C437.505,229.155,458.665,284.135,458.665,344.045z"/>
<path fill="#FF333F" enable-background="new    " d="M287.215,79.715c-69.84,0-131.52,34.92-168.54,88.25l41.39,27.97
	c44.29-51.95,110.22-84.89,183.84-84.89c22.659,0,44.579,3.12,65.369,8.95C375.175,94.685,332.946,79.715,287.215,79.715z"/>
<path fill="#D31C22" enable-background="new    " d="M436.205,143.905l-40.57,36.43c-27.37-28.43-65.83-46.12-108.42-46.12
	c-51.05,0-96.16,25.41-123.36,64.28l-3.79-2.56c44.29-51.95,110.22-84.89,183.84-84.89c22.659,0,44.579,3.12,65.369,8.95
	C418.946,127.175,427.955,135.175,436.205,143.905z"/>
<path fill="#FFE70C" enable-background="new    " d="M374.185,413.415c-29.739,15.729-63.649,24.63-99.64,24.63
	c-81.52,0-152.36-45.68-188.33-112.84c-2.62-13.09-4-26.63-4-40.49c0-40.23,11.59-77.76,31.62-109.42l45.19,30.54
	c-14.15,22.93-22.31,49.96-22.31,78.88c0,83.12,67.38,150.5,150.5,150.5c31.09,0,59.99-9.43,83.97-25.58L374.185,413.415z"/>
</svg>
