<?xml version="1.0" encoding="utf-8"?>
<!-- Generator: Adobe Illustrator 16.0.0, SVG Export Plug-In . SVG Version: 6.00 Build 0)  -->
<!DOCTYPE svg PUBLIC "-//W3C//DTD SVG 1.0//EN" "http://www.w3.org/TR/2001/REC-SVG-20010904/DTD/svg10.dtd">
<svg version="1.0" id="Layer_1" xmlns="http://www.w3.org/2000/svg" xmlns:xlink="http://www.w3.org/1999/xlink" x="0px" y="0px"
	 width="250px" height="250px" viewBox="0 0 250 250" enable-background="new 0 0 250 250" xml:space="preserve">
<circle fill="#3982C3" cx="130.833" cy="117.833" r="27.833"/>
<circle fill="#6EC9F1" cx="52.833" cy="117.833" r="27.833"/>
<g id="Layer_2">
	<circle fill="#6EC9F1" cx="90.833" cy="59.167" r="27.833"/>
	<circle fill="#6EC9F1" cx="170.5" cy="59.167" r="27.833"/>
	<path fill="#6FC9F0" d="M112.333,76.834c0,0,5.417-8.771,18.354-8.771S149,76.833,149,76.833l0.063-35.25
		c0,0-7.75,8.354-18.25,8.354s-18.563-8.5-18.563-8.5L112.333,76.834z"/>
</g>
<g id="Layer_2_copy">
	<circle fill="#6EC9F1" cx="90.833" cy="177.167" r="27.833"/>
	<circle fill="#6EC9F1" cx="170.5" cy="177.167" r="27.833"/>
	<path fill="#6FC9F0" d="M112.333,194.834c0,0,5.417-8.771,18.354-8.771S149,194.833,149,194.833l0.063-35.249
		c0,0-7.75,8.354-18.25,8.354s-18.563-8.5-18.563-8.5L112.333,194.834z"/>
</g>
</svg>
