<svg xmlns="http://www.w3.org/2000/svg" id="Livello_1" x="0" y="0" version="1.1" viewBox="0 0 200 200" xml:space="preserve"><style>.st0{fill:#fff}</style><path d="M35.9 70.5c-19.5-.2-34.6 17.9-30.1 36.2 2.9 12 10.2 20 22.1 23.1 12.1 3.1 22.5-.5 30.8-9.9 7-7.9 19.1-7 24.9 1.8 4.3 6.5 3.3 14-2.7 20-9.4 9.4-13 20.4-8.5 33.2 5.2 14.8 20.6 22.9 35.8 19.2 14.6-3.5 24.2-17.8 22.5-33-.9-8.1-5.3-14-10.4-19.9-2.5-2.9-4.6-6.8-5.2-10.5-1.1-6.4 3.2-12.8 9-15.4 6.2-2.7 13.1-1.3 17.8 3.8 6.6 7.3 14.8 11 24.6 10.5 17.1-1 30.1-15.4 28.4-34.1-1.4-15.5-18.7-29-34-26.2-8 1.5-14.4 5.4-19.9 11.3-5 5.4-12.2 6.2-18.6 2.8-6.1-3.3-9.6-10.5-7.3-17.3 1.3-3.9 4.2-7.4 7-10.6 8.8-9.9 10.3-25 3.2-36.2-7.5-11.7-21.5-17-34.4-13-11.4 3.5-18.6 11.2-21 22.6-2.3 11.1.7 21.2 9.6 29 5.3 4.7 7.2 10.5 5.1 17.2C81 86.5 67 89.5 58.4 80.8 52.2 74.5 45 70.5 35.9 70.5z"/><path d="M182.6 99.3c0 10.1-7.6 17.8-17.7 17.8s-17.9-7.7-17.8-17.7c0-9.8 8.1-18 17.8-18 9.5-.2 17.6 8 17.7 17.9zm-17.5-12.1c-7.1-.1-12.4 5-12.5 12-.1 6.9 5.3 12.5 12.1 12.5 6.7 0 12.5-5.8 12.5-12.4 0-6.5-5.5-12-12.1-12.1zM118.5 165c-.1 9.7-8 17.7-17.6 17.7-9.7.1-18.3-8.6-18.1-18.3.2-9.7 8.5-17.8 18.2-17.7 9.9.3 17.6 8.3 17.5 18.3zm-29.8-.5c-.1 7.2 5 12.3 12.1 12.4 6.7 0 12.2-5.3 12.3-11.9.1-6.7-5.5-12.5-12.3-12.5-6.7-.1-12.1 5.3-12.1 12zM53.1 100.6c0 10.1-7.7 18-17.6 18-9.8 0-17.9-8-17.9-17.8 0-10 7.8-17.8 17.8-17.8 10.1-.1 17.7 7.4 17.7 17.6zm-17.6 12.3c6.5-.1 12.2-5.8 12.3-12.2 0-6.5-6.1-12.6-12.5-12.5-6.7.1-12.4 6.1-12.1 12.8.2 6.7 5.7 12 12.3 11.9zM100 17.5c10 .3 17.6 8.3 17.4 18.2-.3 9.7-9 17.9-18.4 17.5-10.3-.5-17.5-8.6-17.2-19.4.3-9.2 8.5-16.6 18.2-16.3zm-.6 29.9c7.1 0 12.1-5.1 12.1-12.2 0-6.8-5.2-12.1-11.9-12.2-6.7-.1-12.5 5.5-12.6 12.2 0 6.5 5.7 12.2 12.4 12.2z" class="st0"/><path d="M165.1 87.2c6.6.1 12.1 5.6 12.2 12.1 0 6.6-5.8 12.4-12.5 12.4-6.8 0-12.2-5.5-12.1-12.5 0-7 5.3-12.1 12.4-12zM88.7 164.5c.1-6.7 5.5-12.1 12.1-12.1 6.7 0 12.4 5.8 12.3 12.5-.1 6.6-5.6 11.9-12.3 11.9-7.2 0-12.2-5.1-12.1-12.3zM35.5 112.9c-6.6.1-12.2-5.2-12.4-11.9-.2-6.7 5.5-12.6 12.1-12.8 6.4-.1 12.6 6 12.5 12.5.1 6.4-5.7 12.1-12.2 12.2zM99.4 47.4c-6.8 0-12.5-5.6-12.4-12.3.1-6.7 5.9-12.3 12.6-12.2 6.7.1 11.9 5.4 11.9 12.2.1 7.2-4.9 12.3-12.1 12.3z"/></svg>