<?xml version="1.0" encoding="utf-8"?>
<!-- Generator: Adobe Illustrator 22.1.0, SVG Export Plug-In . SVG Version: 6.00 Build 0)  -->
<svg version="1.1" id="Livello_1" xmlns="http://www.w3.org/2000/svg" xmlns:xlink="http://www.w3.org/1999/xlink" x="0px" y="0px"
	 viewBox="0 0 200 200" style="enable-background:new 0 0 200 200;" xml:space="preserve">
<style type="text/css">
	.st0{fill:#D1AE52;}
</style>
<g>
	<path id="XMLID_3_" class="st0" d="M105.4,195c-24.3-18.7-38.3-45.7-38.3-74.2c0-7.5,1-15,2.9-22.2l5.5,1.4
		c-1.8,6.8-2.7,13.8-2.7,20.8c0,26.7,13.1,52.1,36,69.7L105.4,195z M128.1,191.9c-1.7-13.1,3.5-16.8,8.2-20c1.9-1.3,3.6-2.5,5.1-4.4
		c3.1-3.9,1.2-6.8-4.9-14.3c-1.2-1.4-2.4-2.9-3.6-4.5c-2.2-2.8-2.9-6-2.3-9c1.5-6.7,9.2-11,10-11.4l2.7,5c-1.7,0.9-6.4,4.1-7.2,7.7
		c-0.3,1.5,0.1,2.9,1.2,4.4c1.2,1.5,2.3,3,3.5,4.4c5.5,6.7,11.2,13.6,4.9,21.4c-2,2.5-4.3,4.1-6.3,5.5c-4.3,3-7.1,4.9-5.8,14.7
		L128.1,191.9L128.1,191.9z M108.5,174.4c-1.7-13.1,3.5-16.8,8.2-20c1.9-1.3,3.6-2.5,5.1-4.4c3.1-3.9,1.2-6.8-4.9-14.3
		c-1.2-1.4-2.4-2.9-3.6-4.5c-2.2-2.8-2.9-6-2.3-9c0.7-3.1,2.7-5.7,4.8-7.6c-9.6-6.4-9.8-16.9-9.8-17.1h5.6h-2.8l2.8,0
		c0,0.5,0.2,8.9,9.1,13.5c0.1-0.1,0.5,0.2,0.5,0.2c3.1,1.5,7.1,2.5,12.5,2.6c21.8-0.4,22.1-15.6,22.1-16.3h5.6c0,0.1,0,1.4-0.5,3.4
		c2.5-0.1,6.7-0.9,8.5-1.8c-1.2-3.5-7.6-14-13.4-22.7l0.8-3.9l2-1.3c-0.9-3.9-2.8-12.5-3.7-18.2c-20.1-3-34.5-0.7-42.9,7
		c-8.2,7.4-7.7,17.2-7.7,17.6L99,78c-0.1-1.3-1-2.7-2.1-3.2c-1-0.4-2.1-0.2-3.4,0.7c-2,1.4-2.7,3.2-2.3,5.6c0.8,4.3,5.1,9,8.5,11.1
		c0.5-0.3,0.8-0.5,1-0.6l0.7,1.4c0.2,0.1,0.4,0.6,0.4,0.6l1.5,2.9c-0.6,0.3-1.6,1-2.7,1.8c0,0-0.2,0.2-0.3,0.2
		c-1.8,1.5-3.8,3.5-4.2,5.7c-0.3,1.5,0.1,2.9,1.2,4.4c1.2,1.5,2.4,3,3.5,4.4c5.5,6.7,11.2,13.6,4.9,21.4c-2,2.5-4.3,4.1-6.3,5.5
		c-4.3,3-7.1,4.9-5.8,14.7l-5.6,0.7c-1.7-13.1,3.5-16.8,8.2-20c1.9-1.3,3.6-2.5,5.1-4.4c3.1-3.9,1.2-6.8-4.9-14.3
		c-1.2-1.4-2.4-2.9-3.6-4.5c-2.1-2.8-2.9-6-2.3-9c0.6-2.9,2.5-5.4,4.4-7.3c-4.2-3.2-8.3-8.5-9.3-13.7c-0.9-4.6,0.7-8.6,4.5-11.3
		c3-2.1,6.2-2.5,9-1.2c0.2,0.1,0.5,0.2,0.7,0.3c1.1-4.3,3.5-9.6,8.5-14.1c9.7-8.9,25.7-11.7,47.5-8.5c9-11.5,1.2-20.3-1.5-22.8
		c-7.6-7.1-20.9-9.2-30.1-0.4l-4.7-1.5c-1.5-7.3-10.1-10.9-17.6-11.8c-11.4-1.4-26.3,2.2-32,13.8c-7.7,15.4,2.4,23.2,2.5,23.3
		L70.7,53c-11.3-0.6-18.9,1.2-22.5,5.5C43.5,64,45.4,73.4,46.9,81c1.3,6.4,2.3,11.5-0.3,14.6c-4,4.8-10.2,6-15.6,3.3
		c-4.6-2.3-7.1-6.8-6.2-10.9l5.5,1.3c-0.3,1.5,1,3.5,3.2,4.6c1.2,0.6,5.2,2.2,8.8-1.9c0.8-1-0.3-6.5-1-9.8c-1.8-8.8-4-19.8,2.5-27.3
		c4.1-4.8,11-7.3,20.8-7.5c-3.1-5-5.6-13.5,0.2-25.1c7-14,24.5-18.5,37.8-16.8c10,1.3,17.6,5.8,20.9,12.2c11.3-7.9,25.9-5.1,34.6,3
		c6.9,6.4,11.5,18.1,2.3,30.1c1,6.7,4.3,21.2,4.3,21.4l-1.2,3l-1.2,0.8c14.5,22,13.2,24.5,12.5,25.9c-1.3,2.5-5.7,3.9-9.8,4.6
		c4.8,3.4,9.4,9.1,9.1,17.6c-0.3,6.9-5.4,12.4-10.5,17.7c-6.6,7.1-10.5,11.7-6.9,17.1l-4.7,3.1c-6.2-9.5,1.1-17.2,7.5-24.1
		c4.3-4.6,8.8-9.3,8.9-14.1c0.4-9.5-7.5-13.6-10.8-14.9c-3.5,5.2-10.2,10.3-23,10.8v0c-0.3,0-0.6,0-1,0c-0.3,0-0.6,0-1,0v0
		c-4.6-0.2-8.4-0.9-11.5-2.1c-2,1.5-4.3,3.7-4.8,6.1c-0.3,1.5,0.1,2.9,1.2,4.4c1.2,1.5,2.4,3,3.5,4.4c5.5,6.7,11.2,13.6,4.9,21.4
		c-2,2.5-4.3,4.1-6.3,5.5c-4.3,3-7.1,4.9-5.8,14.7L108.5,174.4L108.5,174.4z M43.4,115.2c-1,0-2.1,0-3.2-0.1l0.4-5.6
		c6.3,0.5,10.8-0.6,13.3-3.1c4.1-4.1,3.5-12.4,3-20.3c-0.3-3.8-0.5-7.3-0.3-10.6c0.5-7.4,6.1-16,29.9-15.1L86.2,66
		c-10.6-0.4-23.4,1-24,9.8c-0.2,2.9,0.1,6.2,0.3,9.8c0.6,8.8,1.4,18.7-4.6,24.7C54.6,113.6,49.8,115.2,43.4,115.2z M127,79.1
		l-2.1-5.2l17.7-7.2h2.1l10.6,4.2l-2.1,5.2l-9.5-3.8C143.6,72.4,127,79.1,127,79.1z M90.8,57c-3.1,0-6.2-1.6-8.4-4.4
		c-3-4.1-2.8-9.3,0.5-13.3l4.3,3.6c-2.4,2.9-1,5.4-0.3,6.3c1.1,1.5,3.3,2.7,5.2,1.9c3.3-1.4,3.8-2.2,6.6-6.2c1.5-2.2,3.6-5.3,7-9.6
		c3.5-4.5,7.5-6.8,11.9-7c7-0.3,12.2,5.3,12.5,5.6l-4.2,3.8l2.1-1.9l-2.1,1.9c0,0-3.7-3.9-8.1-3.8c-2.7,0.1-5.2,1.8-7.6,4.9
		c-3.3,4.2-5.3,7.2-6.8,9.4c-3,4.4-4.2,6.2-9,8.2C93.3,56.7,92.1,57,90.8,57z"/>
	<path id="XMLID_12_" class="st0" d="M141.8,79.5c0-1.7,1.6-3.1,3.5-3.1c2,0,3.5,1.4,3.5,3.1c0,1.7-1.6,3.1-3.5,3.1
		C143.4,82.7,141.8,81.3,141.8,79.5"/>
</g>
</svg>
