<?xml version="1.0" encoding="UTF-8" standalone="no"?><!DOCTYPE svg PUBLIC "-//W3C//DTD SVG 1.1//EN" "http://www.w3.org/Graphics/SVG/1.1/DTD/svg11.dtd"><svg width="100%" height="100%" viewBox="0 0 15 15" version="1.1" xmlns="http://www.w3.org/2000/svg" xmlns:xlink="http://www.w3.org/1999/xlink" xml:space="preserve" style="fill-rule:evenodd;clip-rule:evenodd;stroke-linejoin:round;stroke-miterlimit:1.41421;"><g><path id="XMLID_3_" d="M8.034,14.065c-0.597,0 -1.186,-0.08 -1.751,-0.238l0.079,-0.285c0.539,0.151 1.102,0.227 1.672,0.227c0.391,0 0.88,-0.06 1.312,-0.141c-0.346,-0.21 -0.628,-0.606 -0.772,-1.129c-0.121,-0.441 -0.106,-0.867 0.037,-1.196c-0.495,0.163 -1.028,0.247 -1.573,0.247l-0.094,-0.001l0.005,-0.295l0.089,0.001c0.709,0 1.397,-0.152 1.992,-0.438c0.093,-0.054 0.195,-0.093 0.306,-0.117c0.082,-0.018 0.169,-0.025 0.247,-0.026l-0.003,0.296c-0.06,0.001 -0.121,0.005 -0.183,0.018c-0.08,0.018 -0.154,0.046 -0.219,0.084l0,0.001c-0.003,0.002 -0.007,0.004 -0.01,0.005c-0.094,0.057 -0.172,0.137 -0.233,0.238c-0.166,0.273 -0.194,0.676 -0.076,1.105c0.179,0.653 0.599,1.07 1.059,1.078c0.015,-0.004 0.03,-0.008 0.045,-0.012l0.003,0.012c0.044,-0.002 0.088,-0.008 0.132,-0.017c0.218,-0.046 0.378,-0.179 0.477,-0.394l0.268,0.124c-0.138,0.3 -0.375,0.493 -0.683,0.558c-0.069,0.015 -0.138,0.023 -0.205,0.025c-0.528,0.137 -1.329,0.27 -1.921,0.27ZM4.226,12.807c-1.274,-0.979 -2.005,-2.395 -2.005,-3.888c0,-0.393 0.051,-0.785 0.15,-1.165l0.286,0.074c-0.093,0.356 -0.14,0.723 -0.14,1.091c0,1.4 0.688,2.731 1.889,3.653l-0.18,0.235ZM5.416,12.642c-0.089,-0.687 0.186,-0.879 0.429,-1.048c0.097,-0.068 0.189,-0.132 0.266,-0.229c0.163,-0.204 0.065,-0.358 -0.256,-0.748c-0.061,-0.075 -0.125,-0.153 -0.189,-0.236c-0.113,-0.148 -0.154,-0.312 -0.118,-0.474c0.077,-0.351 0.481,-0.574 0.526,-0.598l0.139,0.26c-0.091,0.049 -0.337,0.216 -0.377,0.402c-0.017,0.076 0.005,0.152 0.065,0.23c0.061,0.08 0.123,0.156 0.182,0.228c0.288,0.35 0.585,0.711 0.259,1.12c-0.104,0.131 -0.223,0.213 -0.328,0.287c-0.224,0.156 -0.371,0.259 -0.305,0.768l-0.293,0.038ZM4.391,11.726c-0.089,-0.686 0.186,-0.878 0.429,-1.048c0.098,-0.068 0.189,-0.131 0.267,-0.229c0.162,-0.203 0.065,-0.358 -0.256,-0.748c-0.061,-0.074 -0.125,-0.153 -0.189,-0.235c-0.113,-0.148 -0.154,-0.312 -0.119,-0.474c0.036,-0.163 0.142,-0.299 0.25,-0.399c-0.504,-0.336 -0.512,-0.888 -0.512,-0.896l0.295,0l-0.147,0l0.147,-0.001c0.001,0.026 0.013,0.468 0.479,0.706c0.007,-0.004 0.027,0.013 0.027,0.013c0.161,0.077 0.373,0.13 0.653,0.135c1.144,-0.023 1.158,-0.818 1.158,-0.853l0.295,0c0,0.003 -0.001,0.074 -0.025,0.18c0.129,-0.006 0.351,-0.047 0.443,-0.093c-0.065,-0.185 -0.398,-0.736 -0.701,-1.189l0.044,-0.207l0.104,-0.066c-0.045,-0.202 -0.145,-0.657 -0.194,-0.956c-1.051,-0.158 -1.808,-0.036 -2.251,0.365c-0.428,0.387 -0.402,0.9 -0.401,0.921l-0.295,0.022c-0.005,-0.068 -0.053,-0.14 -0.11,-0.167c-0.051,-0.023 -0.111,-0.012 -0.178,0.035c-0.105,0.074 -0.142,0.168 -0.118,0.296c0.044,0.226 0.268,0.474 0.444,0.583c0.024,-0.015 0.042,-0.025 0.05,-0.029l0.038,0.073c0.009,0.003 0.019,0.034 0.019,0.034l0.081,0.154c-0.033,0.017 -0.085,0.05 -0.14,0.093c0,0 -0.011,0.012 -0.014,0.011c-0.096,0.077 -0.198,0.183 -0.222,0.297c-0.017,0.077 0.004,0.152 0.064,0.231c0.062,0.08 0.124,0.155 0.183,0.228c0.288,0.349 0.585,0.711 0.258,1.119c-0.104,0.131 -0.223,0.214 -0.328,0.287c-0.223,0.156 -0.371,0.259 -0.305,0.768l-0.293,0.038c-0.089,-0.686 0.186,-0.878 0.429,-1.048c0.097,-0.068 0.189,-0.132 0.267,-0.229c0.162,-0.203 0.064,-0.358 -0.256,-0.748c-0.062,-0.074 -0.126,-0.153 -0.19,-0.236c-0.112,-0.148 -0.153,-0.312 -0.118,-0.474c0.034,-0.153 0.13,-0.282 0.231,-0.38c-0.222,-0.168 -0.435,-0.444 -0.488,-0.717c-0.046,-0.241 0.038,-0.451 0.238,-0.592c0.155,-0.109 0.323,-0.131 0.472,-0.061c0.012,0.005 0.024,0.011 0.035,0.017c0.057,-0.223 0.182,-0.502 0.444,-0.741c0.51,-0.465 1.347,-0.614 2.488,-0.444c0.473,-0.602 0.062,-1.066 -0.077,-1.195c-0.399,-0.37 -1.097,-0.48 -1.576,-0.021l-0.246,-0.076c-0.081,-0.381 -0.531,-0.57 -0.925,-0.62c-0.597,-0.075 -1.377,0.117 -1.677,0.721c-0.402,0.808 0.128,1.215 0.133,1.219l-0.096,0.266c-0.59,-0.032 -0.988,0.064 -1.18,0.287c-0.247,0.287 -0.146,0.782 -0.064,1.18c0.069,0.338 0.123,0.604 -0.014,0.765c-0.212,0.249 -0.532,0.317 -0.817,0.174c-0.24,-0.121 -0.373,-0.356 -0.324,-0.572l0.288,0.067c-0.018,0.08 0.054,0.183 0.169,0.241c0.061,0.031 0.275,0.115 0.46,-0.102c0.043,-0.051 -0.016,-0.34 -0.052,-0.513c-0.094,-0.462 -0.212,-1.036 0.131,-1.433c0.215,-0.25 0.574,-0.38 1.091,-0.394c-0.16,-0.26 -0.294,-0.705 0.01,-1.317c0.365,-0.732 1.282,-0.972 1.98,-0.882c0.524,0.067 0.924,0.303 1.098,0.637c0.59,-0.413 1.358,-0.265 1.813,0.157c0.362,0.337 0.603,0.947 0.12,1.577c0.05,0.351 0.224,1.112 0.226,1.12l-0.065,0.158l-0.065,0.041c0.761,1.152 0.694,1.283 0.657,1.355c-0.067,0.131 -0.3,0.207 -0.516,0.239c0.254,0.177 0.495,0.475 0.477,0.92c-0.014,0.36 -0.285,0.649 -0.548,0.928c-0.348,0.37 -0.551,0.611 -0.362,0.898l-0.247,0.163c-0.327,-0.497 0.056,-0.904 0.393,-1.263c0.226,-0.24 0.459,-0.488 0.469,-0.737c0.019,-0.497 -0.394,-0.712 -0.567,-0.78c-0.182,0.271 -0.532,0.54 -1.205,0.565l0,0.002c-0.017,0 -0.034,-0.001 -0.051,-0.001c-0.016,0 -0.033,0.001 -0.05,0.001l0,-0.002c-0.239,-0.009 -0.438,-0.049 -0.602,-0.108c-0.103,0.078 -0.223,0.194 -0.25,0.319c-0.017,0.076 0.004,0.152 0.064,0.23c0.062,0.081 0.124,0.156 0.183,0.228c0.288,0.35 0.585,0.711 0.258,1.12c-0.104,0.131 -0.223,0.213 -0.328,0.287c-0.223,0.156 -0.371,0.259 -0.305,0.768l-0.293,0.037ZM0.979,8.625c-0.054,0 -0.111,-0.002 -0.17,-0.007l0.021,-0.294c0.332,0.024 0.566,-0.031 0.699,-0.163c0.217,-0.217 0.186,-0.648 0.156,-1.065c-0.014,-0.198 -0.028,-0.385 -0.016,-0.556c0.026,-0.386 0.32,-0.837 1.565,-0.789l-0.012,0.295c-0.556,-0.02 -1.227,0.051 -1.259,0.514c-0.01,0.15 0.003,0.327 0.016,0.515c0.034,0.46 0.071,0.982 -0.242,1.295c-0.171,0.171 -0.42,0.255 -0.758,0.255ZM5.358,6.735l-0.111,-0.273l0.927,-0.379l0.11,0l0.554,0.219l-0.109,0.275l-0.498,-0.198l-0.873,0.356ZM3.465,5.573c-0.163,0 -0.327,-0.082 -0.438,-0.23c-0.159,-0.213 -0.148,-0.487 0.027,-0.698l0.227,0.189c-0.126,0.152 -0.054,0.283 -0.017,0.332c0.06,0.081 0.173,0.14 0.271,0.098c0.172,-0.075 0.199,-0.113 0.344,-0.327c0.08,-0.116 0.189,-0.276 0.366,-0.505c0.182,-0.235 0.392,-0.359 0.623,-0.368c0.369,-0.017 0.641,0.279 0.653,0.292l-0.219,0.199l0.109,-0.1l-0.109,0.1c-0.002,-0.002 -0.195,-0.202 -0.424,-0.197c-0.139,0.007 -0.274,0.092 -0.4,0.255c-0.171,0.221 -0.277,0.377 -0.355,0.491c-0.156,0.228 -0.22,0.323 -0.471,0.431c-0.06,0.026 -0.123,0.038 -0.187,0.038Z" style="fill:#050000;fill-rule:nonzero;"/><path id="XMLID_12_" d="M6.135,6.755c0,-0.09 0.083,-0.163 0.185,-0.163c0.103,0 0.186,0.073 0.186,0.163c0,0.091 -0.083,0.164 -0.186,0.164c-0.102,0 -0.185,-0.073 -0.185,-0.164" style="fill:#050000;fill-rule:nonzero;"/><path id="XMLID_14_" d="M12.534,10.002c-0.009,0 -0.017,0 -0.026,-0.001l-0.254,-0.004l-4.254,0l0,-0.256l4.514,0.005c0.139,-0.002 0.192,-0.031 0.201,-0.051c0.013,-0.03 -0.01,-0.101 -0.071,-0.164l-0.785,-0.743c-0.187,-0.183 -0.492,-0.187 -0.682,-0.009l-0.577,0.54c-0.288,0.27 -0.753,0.267 -1.038,-0.007l-0.551,-0.529c-0.185,-0.178 -0.484,-0.194 -0.653,-0.036l-0.175,-0.186c0.27,-0.253 0.721,-0.236 1.005,0.037l0.551,0.53c0.188,0.181 0.496,0.183 0.686,0.004l0.577,-0.54c0.127,-0.119 0.288,-0.185 0.454,-0.197l-1.276,-1.273l-0.542,0.49c-0.11,0.096 -0.172,0.23 -0.172,0.372c0,0.27 0.222,0.489 0.495,0.489c0.251,0 0.426,-0.145 0.426,-0.353c0.001,-0.018 0.009,-0.108 -0.056,-0.18c-0.064,-0.071 -0.185,-0.108 -0.35,-0.108l0,-0.256c0.246,0 0.429,0.066 0.544,0.197c0.138,0.157 0.119,0.342 0.117,0.363c0.001,0.331 -0.292,0.593 -0.681,0.593c-0.414,0 -0.751,-0.334 -0.751,-0.745c0,-0.216 0.094,-0.421 0.259,-0.563l0.629,-0.57l0.176,0.004l1.668,1.663l-0.004,0.005c0.034,0.023 0.067,0.051 0.098,0.081l0.788,0.745c0.136,0.14 0.183,0.315 0.125,0.448c-0.041,0.095 -0.147,0.205 -0.415,0.205Z" style="fill:#050000;fill-rule:nonzero;"/><path id="XMLID_16_" d="M10.535,11.813c-0.142,-0.366 -0.306,-0.544 -0.308,-0.546c-0.013,-0.014 -0.26,-0.286 -0.67,-0.267l-0.014,-0.296c0.55,-0.027 0.888,0.348 0.902,0.364c0.004,0.004 0.2,0.212 0.365,0.638l-0.275,0.107Z" style="fill:#050000;fill-rule:nonzero;"/><path id="XMLID_18_" d="M7.802,4.766c-0.125,0 -0.227,-0.105 -0.227,-0.234c0,-0.129 0.102,-0.234 0.227,-0.234c0.124,0 0.226,0.105 0.226,0.234c0,0.129 -0.101,0.234 -0.226,0.234Z" style="fill:#050000;fill-rule:nonzero;"/><path id="XMLID_21_" d="M11.083,3.988c-0.059,0 -0.107,-0.051 -0.107,-0.114c0,-0.064 0.048,-0.115 0.107,-0.115c0.059,0 0.107,0.051 0.107,0.115c-0.001,0.063 -0.048,0.114 -0.107,0.114" style="fill:#050000;fill-rule:nonzero;"/><path id="XMLID_23_" d="M12.584,5.546c-0.135,0 -0.244,-0.112 -0.244,-0.251c0,-0.138 0.109,-0.251 0.244,-0.251c0.135,0 0.244,0.113 0.244,0.251c0,0.139 -0.109,0.251 -0.244,0.251ZM12.584,5.267c-0.019,0 -0.035,0.013 -0.035,0.028c0,0.03 0.07,0.031 0.07,0c0,-0.015 -0.016,-0.028 -0.035,-0.028ZM11.1,4.141c-0.134,0 -0.244,-0.112 -0.244,-0.25c0,-0.139 0.11,-0.252 0.244,-0.252c0.135,0 0.244,0.113 0.244,0.252c0,0.138 -0.109,0.25 -0.244,0.25ZM11.1,3.862c-0.019,0 -0.035,0.013 -0.035,0.028c0,0.03 0.07,0.03 0.07,0c0,-0.015 -0.016,-0.028 -0.035,-0.028Z" style="fill:#050000;fill-rule:nonzero;"/><path id="XMLID_29_" d="M11.482,6.508c-0.059,0 -0.107,-0.051 -0.107,-0.114c0,-0.063 0.048,-0.114 0.107,-0.114c0.059,0 0.106,0.051 0.106,0.114c0,0.063 -0.047,0.114 -0.106,0.114" style="fill:#050000;fill-rule:nonzero;"/><path id="XMLID_31_" d="M11.482,6.628c-0.125,0 -0.227,-0.105 -0.227,-0.234c0,-0.129 0.102,-0.234 0.227,-0.234c0.125,0 0.226,0.105 0.226,0.234c0,0.129 -0.101,0.234 -0.226,0.234ZM11.482,6.349c-0.029,0 -0.053,0.021 -0.053,0.045c0,0.049 0.105,0.049 0.105,0c0,-0.024 -0.024,-0.045 -0.052,-0.045Z" style="fill:#050000;fill-rule:nonzero;"/><path id="XMLID_35_" d="M10.736,4.965c-0.059,0 -0.107,-0.051 -0.107,-0.114c0,-0.063 0.048,-0.114 0.107,-0.114c0.059,0 0.107,0.051 0.107,0.114c0,0.063 -0.048,0.114 -0.107,0.114" style="fill:#050000;fill-rule:nonzero;"/><path id="XMLID_37_" d="M10.736,5.085c-0.125,0 -0.226,-0.105 -0.226,-0.234c0,-0.129 0.101,-0.234 0.226,-0.234c0.125,0 0.227,0.105 0.227,0.234c0,0.129 -0.102,0.234 -0.227,0.234ZM10.736,4.806c-0.028,0 -0.052,0.021 -0.052,0.045c0,0.049 0.105,0.049 0.105,0c0,-0.024 -0.025,-0.045 -0.053,-0.045Z" style="fill:#050000;fill-rule:nonzero;"/><path id="XMLID_41_" d="M8.829,6.717c-0.059,0 -0.107,-0.052 -0.107,-0.115c0,-0.063 0.048,-0.114 0.107,-0.114c0.058,0 0.106,0.051 0.106,0.114c0,0.063 -0.048,0.115 -0.106,0.115" style="fill:#050000;fill-rule:nonzero;"/><path id="XMLID_43_" d="M8.829,6.836c-0.125,0 -0.227,-0.105 -0.227,-0.234c0,-0.129 0.101,-0.234 0.227,-0.234c0.125,0 0.226,0.105 0.226,0.234c0,0.129 -0.102,0.234 -0.226,0.234ZM8.829,6.557c-0.029,0 -0.053,0.021 -0.053,0.045c0,0.049 0.105,0.049 0.105,0c0,-0.024 -0.024,-0.045 -0.052,-0.045Z" style="fill:#050000;fill-rule:nonzero;"/><path id="XMLID_47_" d="M9.652,5.832c-0.059,0 -0.107,-0.051 -0.107,-0.114c0,-0.063 0.048,-0.114 0.107,-0.114c0.059,0 0.107,0.051 0.107,0.114c0,0.063 -0.048,0.114 -0.107,0.114" style="fill:#050000;fill-rule:nonzero;"/><path id="XMLID_49_" d="M9.652,5.952c-0.125,0 -0.226,-0.105 -0.226,-0.234c0,-0.129 0.101,-0.234 0.226,-0.234c0.125,0 0.227,0.105 0.227,0.234c0,0.129 -0.102,0.234 -0.227,0.234ZM9.652,5.673c-0.028,0 -0.052,0.021 -0.052,0.045c0,0.049 0.105,0.049 0.105,0c0,-0.024 -0.024,-0.045 -0.053,-0.045Z" style="fill:#050000;fill-rule:nonzero;"/><path id="XMLID_53_" d="M7.767,4.409l1.819,-0.797l0.069,-0.01l1.432,0.201l-0.017,0.121l0.104,-0.111l1.502,1.407l-0.117,0.217l-1.558,-0.383l0.591,1.276l-0.158,0.174l-1.753,-0.614l-0.75,0.788l-0.207,-0.032l-1.011,-2.043l0.088,-0.044l0.019,-0.028M8.14,4.89l0.732,1.479l0.576,-0.605l-1.308,-0.874ZM9.904,5.697l1.329,0.466l-0.52,-1.124l-0.809,0.658ZM8.088,4.548l1.55,1.035l1.016,-0.825l0.111,-0.025l0.088,0.021l0.008,-0.004l0.003,0.007l1.281,0.315l-1.093,-1.023l-0.001,0.007l-1.395,-0.195l-1.568,0.687Z" style="fill:#050000;fill-rule:nonzero;"/><path id="XMLID_59_" d="M11.696,12.976l-0.144,-0.258c0.692,-0.385 1.294,-0.891 1.79,-1.503c0.878,-1.086 1.363,-2.455 1.363,-3.855c0,-3.38 -2.749,-6.129 -6.129,-6.129c-0.928,0 -1.819,0.201 -2.648,0.6l-0.128,-0.266c0.869,-0.418 1.803,-0.63 2.776,-0.63c3.542,0 6.424,2.883 6.424,6.426c0,1.467 -0.508,2.902 -1.429,4.04c-0.519,0.641 -1.15,1.171 -1.875,1.575ZM9.771,12.84l-0.065,-0.288c2.397,-0.54 4.136,-2.718 4.136,-5.179c0,-2.928 -2.381,-5.31 -5.308,-5.31c-1.064,0 -2.09,0.313 -2.968,0.907l-0.166,-0.245c0.927,-0.626 2.011,-0.957 3.134,-0.957c3.09,0 5.604,2.514 5.604,5.605c0,2.598 -1.837,4.897 -4.367,5.467Z" style="fill:#050000;fill-rule:nonzero;"/><path id="XMLID_63_" d="M10.699,4.898l-1.175,-1.063l-1.429,-0.789l0.124,-0.224l1.465,0.813l1.186,1.073l-0.171,0.19Z" style="fill:#050000;fill-rule:nonzero;"/><path id="XMLID_65_" d="M9.615,3.95c-0.125,0 -0.227,-0.104 -0.227,-0.233c0,-0.13 0.102,-0.235 0.227,-0.235c0.124,0 0.226,0.105 0.226,0.235c0,0.129 -0.102,0.233 -0.226,0.233ZM9.615,3.671c-0.029,0 -0.053,0.021 -0.053,0.046c0,0.048 0.105,0.048 0.105,0c0,-0.025 -0.024,-0.046 -0.052,-0.046Z" style="fill:#050000;fill-rule:nonzero;"/><path id="XMLID_69_" d="M8.173,3.168c-0.125,0 -0.226,-0.105 -0.226,-0.234c0,-0.129 0.101,-0.234 0.226,-0.234c0.125,0 0.226,0.105 0.226,0.234c0,0.129 -0.101,0.234 -0.226,0.234Z" style="fill:#050000;fill-rule:nonzero;"/></g></svg>