<svg xmlns="http://www.w3.org/2000/svg" version="1" viewBox="0 0 200 200"><path d="M146.55 181.05c.18-2.11-.94-4.05-1.79-5.9-.85-1.87-1.77-3.7-2.75-5.5-1.92-3.49-4.08-6.84-6.46-10.04-3.89-5.22-8.13-10.14-12.92-14.56-2.7-2.49-5.41-4.95-8.14-7.41-2.4-2.16-4.88-4.26-7.17-6.54-2.74-2.73-5.55-5.47-7.8-8.64-.51-.72-1.29-1.55-1.34-2.46-.05-.84.51-1.76.86-2.47.88-1.77 1.94-3.39 3.05-5.02 3.84-5.68 9.08-10.55 14.29-14.94 5.62-4.74 11.5-9.39 17.64-13.45 3.36-2.22 6.66-4.56 10-6.82 1.57-1.06 3.77-2.24 3.76-4.42 0-.96-.38-1.74-1.26-2.15-.57-.27-1.75-.33-1.9.44-.02.08.12.45.13.56.02.35-.08.73-.21 1.05-.47 1.2-1.6 1.86-2.62 2.55-1.76 1.19-3.47 2.46-5.24 3.65-3.35 2.25-6.64 4.59-9.89 6.98-6.38 4.7-12.71 9.6-18.36 15.18-2.43 2.4-4.78 4.87-6.89 7.56-2.34 2.99-4.94 6.48-5.99 10.18-.55 1.93 1.02 3.13 2.13 4.53.99 1.24 1.97 2.47 3.02 3.65 2.17 2.44 4.67 4.66 7.06 6.87 5.9 5.46 12.04 10.59 17.58 16.45 5.25 5.56 9.83 11.71 13.59 18.36 1.88 3.34 3.44 6.8 5 10.29.32.72 1.1 1.71 1.22 2.47.13.77-1.01 2.1-1.58 1.18-.5-.8-.65-1.91-1-2.79-.34-.86-.7-1.7-1.06-2.55-5.57-12.99-14.14-24.29-24.52-33.8-5.25-4.81-10.85-9.4-15.8-14.52-2.06-2.13-4.12-4.13-5.88-6.51-.54-.74-1.84-1.7-1.96-2.62-.11-.84.56-1.91.87-2.65.76-1.77 1.69-3.42 2.68-5.07 3.94-6.6 9.79-12.11 15.53-17.13 6-5.25 12.44-10.04 18.99-14.58 1.59-1.1 3.14-2.25 4.75-3.32.97-.65 1.93-1.32 2.91-1.95.36-.23.75-.4 1.1-.62.51-.33.58-.52-.05-.68-2.22-.54-4.17-.19-6.38.26-2.06.42-4.12.86-6.15 1.38-7.78 1.99-15.64 3.91-23.14 6.83-7.07 2.75-14.3 5.7-19.88 11.04-.4.38-.76.8-1.23 1.1-.34.21-.8.29-1.09.57-.49.47-.98 2.36-1.82 1.39-.56-.65-.8-1.71-1.13-2.49-.4-.95-.74-1.93-1.11-2.89-1.62-4.18-2.58-9.01-2.39-13.49.33-7.99 4.12-14.98 9.03-21.09 4.71-5.86 10.32-10.9 16.1-15.68 5.89-4.87 12.05-9.46 18.35-13.78 1.76-1.21 3.49-2.44 5.27-3.62.4-.26 4.48-2.74 4.41-2.95-.05-.17-2.05-.5-2.32-.55-.87-.14-1.87.1-2.73.22-1.79.27-3.6.74-5.35 1.17-14.94 3.67-29.76 8.18-43.49 15.2C62.25 43.03 49.19 53.32 46 68.1c-3.31 15.32 2.93 30.46 9.83 43.83 3.43 6.65 7.3 13.11 11.18 19.5 2.01 3.32 4.09 6.59 6.08 9.92 1.97 3.28 4.08 6.5 5.86 9.88 3.69 7.01 7.6 13.94 9.9 21.58 1.18 3.93 2.08 7.97 2.16 12.1.04 2.24-.33 4.53-.73 6.73-.19 1.06-1.29 3.12.4 3.4 2.52.41 5.25.29 7.79.29 2.99 0 6.03.12 9.01-.24 1.92-.23 3.84-.41 5.76-.66 1.85-.24 3.68-.6 5.51-.95 3.83-.73 7.53-1.86 11.23-3.04 3.37-1.07 6.64-2.44 9.86-3.89 1.56-.71 3.1-1.51 4.63-2.29 1.23-.65 1.9-1.85 2.08-3.21zm-5.84 4.21l.1.1c0 .05-1.63.85-1.73.69-.1-.17 1.37-.84 1.63-.79z"/><path d="M133.98 16.89c-.22.22-.7.04-.93.38-.2.3.05.64-.08.97-.26.65-1.4 1.19-1.96 1.55-.44.29-1.15.5-1.52.86-.4.4-.47 1.2-.85 1.69-.93 1.22-2.41 2.09-3.67 2.93-1.24.82-2.45 1.67-3.67 2.52-6.05 4.18-11.87 8.62-17.68 13.13-5.2 4.04-10.14 8.57-14.6 13.41-3.99 4.34-7.48 9.24-9.65 14.75-2.83 7.18-1.98 15.08.67 22.17.28.74.5 1.53.97 2.18.55.75.71.63.9-.15.39-1.6.22-2.98-.26-4.53-1.13-3.62-1.74-7.49-1.46-11.27.51-6.95 3.99-13.15 8.35-18.43 4.09-4.95 8.77-9.55 13.79-13.57 5.43-4.34 10.85-8.64 16.54-12.64 3.12-2.19 6.24-4.38 9.4-6.51 1.46-.99 2.92-1.97 4.39-2.95 1.27-.84 2.97-1.84 3.3-3.48.25-1.2-.43-3.19-1.98-3.01zM48.51 99.33c-.25.6.32.97.51 1.45.26.65.37 1.36.6 2.02.19.54.56 1.06.79 1.59.32.75.58 1.52.89 2.27 1.01 2.45 2.14 4.85 3.38 7.19 1.29 2.43 2.57 4.85 3.87 7.28 1.36 2.55 2.92 4.98 4.35 7.49 1.4 2.46 3.09 4.8 4.42 7.28.64 1.19 1.36 2.44 2.14 3.54.71 1.01 1.26 2.13 1.93 3.18 2.94 4.56 5.56 9.32 8.23 14.04 1.21 2.14 2.37 4.28 3.49 6.47.47.91.99 1.77 1.4 2.71.19.42.35.85.57 1.24.11.19.86 1.59.9 1.52.16-.27-.27-1.16-.35-1.42-.17-.5-.4-.93-.61-1.39-.5-1.09-.83-2.26-1.4-3.34-1.2-2.28-2.24-4.66-3.49-6.95-2.64-4.82-5.33-9.65-8.22-14.34-5.53-8.99-11.21-17.97-16.2-27.27-.64-1.2-1.17-2.47-1.82-3.66-.72-1.31-1.47-2.57-2.08-3.9-.54-1.18-1.11-2.39-1.69-3.6-.31-.65-.43-1.42-.73-2.05-.16-.32-.35-.57-.49-.91-.1-.24-.18-.45-.39-.62.01.06.01.12 0 .18z"/><circle cx="100" cy="99.65" r="95" fill="none" stroke="#000" stroke-miterlimit="10" stroke-width="2"/></svg>