<svg xmlns="http://www.w3.org/2000/svg" version="1" viewBox="0 0 200 200"><path fill="#50AF95" d="M163.37 87.84c-.06 5.86-21.04 10.76-49.13 12.04-.8.04-4.9.29-14.06.29-7.34 0-12.46-.19-14.29-.29v.04c-28.15-1.25-49.2-6.15-49.2-12.01 0-5.87 21.02-10.77 49.2-12.02v19.09c1.86.13 7.11.45 14.41.45 8.75 0 13.14-.35 13.97-.45V75.83c28.12 1.25 49.1 6.15 49.1 12.01z"/><path fill="#50AF95" d="M163.33 12.92H36.67L5 92.08l95 95 95-95-31.67-79.16zm-49.09 91.61v54.93H85.86v-54.93C53.99 103.06 30 96.75 30 89.19s23.99-13.87 55.86-15.35V56.68H46.62V30.54h106.82v26.14H114.2v17.16c31.84 1.48 55.77 7.79 55.8 15.35 0 7.56-23.93 13.87-55.76 15.34z"/></svg>