<?xml version="1.0" encoding="utf-8"?>
<!-- Generator: Adobe Illustrator 23.0.2, SVG Export Plug-In . SVG Version: 6.00 Build 0)  -->
<svg version="1.1" id="Livello_1" xmlns="http://www.w3.org/2000/svg" xmlns:xlink="http://www.w3.org/1999/xlink" x="0px" y="0px"
	 viewBox="0 0 200 200" style="enable-background:new 0 0 200 200;" xml:space="preserve">
<style type="text/css">
	.st0{fill-rule:evenodd;clip-rule:evenodd;fill:url(#SVGID_1_);}
</style>
<linearGradient id="SVGID_1_" gradientUnits="userSpaceOnUse" x1="73.1853" y1="76.8416" x2="165.4741" y2="160.0888" gradientTransform="matrix(1 0 0 -1 0 201)">
	<stop  offset="0" style="stop-color:#15BCFF"/>
	<stop  offset="0.4854" style="stop-color:#3073EC"/>
	<stop  offset="1" style="stop-color:#B030EC"/>
</linearGradient>
<path class="st0" d="M5.1,100c0,52.5,42.5,95,94.9,95c13.4,0,26.1-2.8,37.7-7.8c-4.9-0.5-9.5-1.2-13.6-2.1
	c-10.1-2.2-19.3-5.5-27.7-9.9c-17.5-9.3-29.7-22.8-36.8-40.7H27.9l9.6-22.8h16.4c-0.6-4.7-0.9-9.2-0.9-13.5c0-4.3,0.1-8.2,0.4-11.7
	H27.9L37.5,64h20.6c6.5-19.1,18.6-33.9,36.2-44.2c9.1-5.4,19-9.3,29.7-11.7c-7.7-2-15.7-3.1-24-3.1C47.6,5,5.1,47.5,5.1,100z
	 M156,23.3C126.8,27,97.8,39.1,87,64h87.9l-9.8,22.6H81.4c-0.4,3.4-0.6,7.4-0.6,12.3c0,4.8,0.4,9.1,1.2,12.9h71.6l-9.8,22.8H91
	c12,19.8,42.6,32.6,74.5,34.1c18.1-17.3,29.3-41.7,29.3-68.6C194.9,68.5,179.6,40.6,156,23.3z"/>
</svg>
