<?xml version="1.0" encoding="utf-8"?>
<!-- Generator: Adobe Illustrator 16.0.0, SVG Export Plug-In . SVG Version: 6.00 Build 0)  -->
<!DOCTYPE svg PUBLIC "-//W3C//DTD SVG 1.0//EN" "http://www.w3.org/TR/2001/REC-SVG-20010904/DTD/svg10.dtd">
<svg version="1.0" id="Livello_1" xmlns="http://www.w3.org/2000/svg" xmlns:xlink="http://www.w3.org/1999/xlink" x="0px" y="0px"
	 width="566.93px" height="566.93px" viewBox="0 0 566.93 566.93" enable-background="new 0 0 566.93 566.93" xml:space="preserve">
<linearGradient id="SVGID_1_" gradientUnits="userSpaceOnUse" x1="388.3105" y1="530.2295" x2="388.3105" y2="558.2764" gradientTransform="matrix(19.7944 1.9928 1.9928 -19.7944 -8486.9658 10281.8193)">
	<stop  offset="0" style="stop-color:#FF9300"/>
	<stop  offset="1" style="stop-color:#FFD702"/>
</linearGradient>
<path fill="url(#SVGID_1_)" d="M311.948,4.924L311.948,4.924C465.25,20.358,577.016,157.146,561.581,310.447l0,0
	C546.147,463.75,409.359,575.515,256.057,560.08l0,0C102.755,544.646-9.01,407.859,6.425,254.557l0,0
	C21.858,101.254,158.646-10.51,311.948,4.924z"/>
<path fill="#322714" d="M273.853,116.961l-2.463,24.466l-2.461,24.446l1.35,0.496c0.754,0.256,5.695,0.833,10.97,1.265l9.618,0.788
	l2.636-24.588l2.636-24.588l14.528,1.463l14.529,1.462l-2.495,24.783c-1.94,19.279-2.321,24.84-1.745,25.078
	c0.424,0.162,4.129,1.095,8.25,2.07c18.418,4.334,34.365,11.778,44.633,20.81c8.324,7.296,14.53,18.139,15.93,27.877
	c0.875,6.007-0.352,18.38-2.367,24.116c-4.008,11.394-13.53,22.372-24.676,28.408c-1.731,0.925-3.153,1.941-3.185,2.238
	c-0.031,0.297,1.363,1.157,3.085,1.931c4.92,2.175,12.136,6.959,16.549,10.983c8.497,7.754,14.123,17.817,15.945,28.52
	c0.879,5.168-0.117,20.022-1.822,27.229c-4.58,19.474-13.135,32.147-27.469,40.863c-14.203,8.606-30.677,11.567-55.203,9.897
	l-12.728-0.881l-2.668,24.904l-2.666,24.905l-14.529-1.463l-14.529-1.464l2.351-24.937l2.351-24.938l-10.828-1.09l-10.827-1.09
	l-2.667,24.905l-2.667,24.905l-14.529-1.464l-14.529-1.463l2.525-25.079l2.525-25.08l-29.415-2.961l-29.414-2.961l0.582-5.779
	c0.321-3.188,1.185-9.979,1.922-15.123l1.341-9.344l12.055,1.215c13.401,1.35,15.96,1.146,19.383-1.469
	c4.553-3.521,4.066-0.271,12.067-79.745c7.009-69.617,7.17-71.62,6.263-74.33c-0.786-2.319-1.506-3.111-4.355-4.798
	c-3.322-1.954-3.772-2.059-17.782-3.709l-14.364-1.706l1.489-14.787l1.488-14.786l30.519,2.912l30.519,2.913l2.779-24.434
	l2.778-24.415l14.406,1.291L273.853,116.961z M265.621,198.732l-2.985,29.652c-1.642,16.311-2.853,30.125-2.708,30.68
	c0.249,0.905,2.751,1.277,21.853,3.2c21.041,2.119,21.677,2.163,25.699,1.128c11.593-2.932,18.504-9.015,22.426-19.777
	c4.168-11.397,2.455-22.787-4.392-29.275c-8.651-8.189-18.961-11.466-44.02-13.989L265.621,198.732z M256.682,290.689l-3.43,32.485
	c-1.898,17.863-3.33,32.876-3.198,33.351c0.35,1.295,45.147,5.185,51.458,4.461c13.008-1.49,22.817-5.981,28.408-13.057
	c3.391-4.277,6.331-11.439,7.354-17.836c2.438-15.271-4.9-25.207-23.771-32.205c-5.264-1.949-6.146-2.099-31.108-4.611
	L256.682,290.689z"/>
</svg>
