<?xml version="1.0" encoding="utf-8"?>
<!-- Generator: Adobe Illustrator 22.1.0, SVG Export Plug-In . SVG Version: 6.00 Build 0)  -->
<svg version="1.0" id="Livello_1" xmlns="http://www.w3.org/2000/svg" xmlns:xlink="http://www.w3.org/1999/xlink" x="0px" y="0px"
	 viewBox="0 0 200 200" style="enable-background:new 0 0 200 200;" xml:space="preserve">
<style type="text/css">
	.st0{fill:#31CB9E;}
</style>
<path id="Shape_14_" class="st0" d="M90.1,100l71,40.6c2.5,1.4,5.6-0.4,5.6-3.2V62.6c0-2.9-3.1-4.6-5.6-3.2L90.1,100z"/>
<path id="Shape_15_" class="st0" d="M159.5,41.4L111,5.8c-2.3-1.7-5.5-0.5-6,2.2L87.2,87.2L159,47.5C161.4,46.2,161.6,43,159.5,41.4
	"/>
<path id="Shape_16_" class="st0" d="M110.9,194.3l48.5-35.6c2.2-1.6,1.9-4.8-0.4-6.1l-71.8-39.7l17.7,79.3
	C105.5,194.7,108.7,195.9,110.9,194.3"/>
<path id="Shape_17_" class="st0" d="M71.6,98.6L90,12.4c0.7-3.4-3.1-5.8-5.8-3.7l-47,36.2c-2.4,1.8-3.8,4.8-3.8,7.8v91.9
	c0,3,1.4,6,3.8,7.8l47,36.2c2.7,2.1,6.5-0.3,5.8-3.7L71.6,98.6z"/>
</svg>
