<?xml version="1.0" encoding="utf-8"?>
<!-- Generator: Adobe Illustrator 22.1.0, SVG Export Plug-In . SVG Version: 6.00 Build 0)  -->
<svg version="1.0" id="Livello_1" xmlns="http://www.w3.org/2000/svg" xmlns:xlink="http://www.w3.org/1999/xlink" x="0px" y="0px"
	 viewBox="0 0 200 200" enable-background="new 0 0 200 200" xml:space="preserve">
<path fill="#1A99CE" d="M100.3,5.3c-14.6,0-28.5,3.3-40.9,9.2c0.2,0.3,0.3,0.7,0.4,1h80.6c0.1-0.4,0.3-0.8,0.5-1.2
	C128.5,8.5,114.7,5.3,100.3,5.3z M140.6,20.5H60.2l52.1,45.3c1-0.5,2.1-0.8,3.3-0.8c0.6,0,1.2,0.1,1.7,0.2l24.7-42.8
	C141.4,21.9,140.9,21.2,140.6,20.5z M188.3,102.8h-33.8c-0.7,2.1-2.4,3.8-4.6,4.6v66.4l39.6-68.6C189,104.4,188.6,103.6,188.3,102.8
	z M93.2,102.8H59.6l21.1,18.3c1.1-0.7,2.4-1.1,3.8-1.1c0.3,0,0.7,0,1,0.1l8.8-15.3C93.8,104.2,93.5,103.5,93.2,102.8z M93.2,102.8
	H59.6l21.1,18.3c1.1-0.7,2.4-1.1,3.8-1.1c0.3,0,0.7,0,1,0.1l8.8-15.3C93.8,104.2,93.5,103.5,93.2,102.8z M93.2,102.8H59.6l21.1,18.3
	c1.1-0.7,2.4-1.1,3.8-1.1c0.3,0,0.7,0,1,0.1l8.8-15.3C93.8,104.2,93.5,103.5,93.2,102.8z M93.2,102.8H59.6l21.1,18.3
	c1.1-0.7,2.4-1.1,3.8-1.1c0.3,0,0.7,0,1,0.1l8.8-15.3C93.8,104.2,93.5,103.5,93.2,102.8z M119.6,78.8c-1.2,0.8-2.6,1.2-4.1,1.2
	c-0.3,0-0.7,0-1-0.1l-8.8,15.2c0.7,0.8,1.3,1.6,1.6,2.6h33.1c0.1-0.2,0.2-0.4,0.3-0.6L119.6,78.8z M121.4,67.9
	c1,1.3,1.6,2.9,1.6,4.6c0,0.8-0.1,1.6-0.4,2.3l21.5,18.7c0.3-0.1,0.5-0.3,0.8-0.3V27L121.4,67.9z M10.4,95.9
	c0.5,0.6,0.8,1.2,1.1,1.9h34c0.7-2.1,2.4-3.8,4.6-4.6V27.3L10.4,95.9z M108,72.5c0-1.1,0.3-2.2,0.7-3.2L61.5,28.3l0,0l-5-4.4
	c-0.4,0.3-0.9,0.5-1.4,0.7v68.6c2.1,0.7,3.8,2.4,4.6,4.6h33.6c0.3-0.9,0.7-1.6,1.3-2.3c1.1-1.3,2.6-2.2,4.3-2.6
	c0.5-0.1,1-0.1,1.5-0.1c0.3,0,0.7,0,1,0.1h0l8.8-15.2C108.8,76.3,108,74.5,108,72.5z M93.2,102.8H59.6l21.1,18.3
	c1.1-0.7,2.4-1.1,3.8-1.1c0.3,0,0.7,0,1,0.1l8.8-15.3C93.8,104.2,93.5,103.5,93.2,102.8z M93.2,102.8H59.6l21.1,18.3
	c1.1-0.7,2.4-1.1,3.8-1.1c0.3,0,0.7,0,1,0.1l8.8-15.3C93.8,104.2,93.5,103.5,93.2,102.8z M93.2,102.8H59.6l21.1,18.3
	c1.1-0.7,2.4-1.1,3.8-1.1c0.3,0,0.7,0,1,0.1l8.8-15.3C93.8,104.2,93.5,103.5,93.2,102.8z M93.2,102.8H59.6l21.1,18.3
	c1.1-0.7,2.4-1.1,3.8-1.1c0.3,0,0.7,0,1,0.1l8.8-15.3C93.8,104.2,93.5,103.5,93.2,102.8z M93.2,102.8H59.6l21.1,18.3
	c1.1-0.7,2.4-1.1,3.8-1.1c0.3,0,0.7,0,1,0.1l8.8-15.3C93.8,104.2,93.5,103.5,93.2,102.8z M46.5,21.9C23.4,37.8,7.7,63.5,5.5,93.1
	c0.2,0,0.4,0.1,0.6,0.1L47,22.5C46.8,22.3,46.6,22.1,46.5,21.9z M6.7,107.7c-0.4,0.1-0.7,0.2-1.1,0.3c2.3,29.2,17.9,54.7,40.7,70.5
	c0.2-0.3,0.5-0.6,0.7-0.9L6.7,107.7z M138.1,170.9l-36.5-63.3c-0.4,0.1-0.8,0.1-1.3,0.1c-0.6,0-1.2-0.1-1.7-0.2L90,122.4
	c1.3,1.3,2,3.1,2,5.1c0,1-0.2,2-0.6,2.9L138.1,170.9z M77,127.5c0-0.9,0.2-1.8,0.5-2.6l-21-18.3c-0.5,0.3-0.9,0.5-1.4,0.7V173
	l23.6-40.9C77.6,130.8,77,129.2,77,127.5z M93.2,102.8H59.6l21.1,18.3c1.1-0.7,2.4-1.1,3.8-1.1c0.3,0,0.7,0,1,0.1l8.8-15.3
	C93.8,104.2,93.5,103.5,93.2,102.8z M140.4,102.8h-33.1c-0.3,0.9-0.8,1.7-1.4,2.4L145,173v-65.6
	C142.9,106.6,141.2,104.9,140.4,102.8z M140.3,179.5l0.3,0.2c0-0.1,0.1-0.1,0.1-0.2H140.3z M140.3,184.5H59.7
	c-0.1,0.5-0.3,1-0.6,1.4c12.4,6,26.4,9.3,41.1,9.3c14.6,0,28.4-3.3,40.7-9.1C140.7,185.6,140.4,185.1,140.3,184.5z M88,134.1
	c-1.1,0.6-2.3,0.9-3.5,0.9c-0.6,0-1.2-0.1-1.7-0.2l-24.7,42.8c0.5,0.6,0.9,1.2,1.3,2h80.9L88,134.1z M45.4,102.8H11.7
	c-0.2,0.7-0.5,1.3-0.9,1.9l39.3,68v-65.4C47.9,106.6,46.2,104.9,45.4,102.8z M193.8,107.8l-40.5,70.1c0.2,0.2,0.4,0.5,0.5,0.8
	c23-15.8,38.7-41.3,41-70.7C194.6,107.9,194.2,107.9,193.8,107.8z M150,27.3v65.9c2.1,0.7,3.8,2.4,4.6,4.6h34
	c0.3-0.7,0.6-1.3,1.1-1.9L150,27.3z M153.7,21.7c-0.2,0.3-0.4,0.6-0.7,0.8l40.8,70.7c0.4-0.1,0.7-0.1,1.1-0.2
	C192.8,63.4,176.9,37.5,153.7,21.7z M59.6,20c0,0.2-0.1,0.4-0.2,0.5h0.8L59.6,20z"/>
</svg>
