<svg xmlns="http://www.w3.org/2000/svg" viewBox="0 0 200 200"><path fill="#eb5a5c" d="M161.3 165.7c-36.3 35.6-94.5 35.1-130-1.3-35.5-36.3-35-94.6 1.3-130.3C48.9 18.1 70.8 8.7 93.7 8l72.5-.1c16.6.7 29.5 14.7 28.8 31.4l-6.3 65.7c-1.2 23-11 44.6-27.4 60.7zm-37.8-100c3.1 0 5.4-.5 6.7-1.4 1.3-.9 2-2.7 2-5.3v-2.6c0-2.5-.6-4.3-1.9-5.3-1.3-1-3.5-1.5-6.6-1.5-3 0-5.1.5-6.5 1.5-1.3 1-2 2.7-2 5.3V59c0 2.5.6 4.3 1.9 5.3 1.2.9 3.3 1.4 6.4 1.4zm-28.6-4.6c1.4 0 3.2.3 5.4.8.5.1 1.1.2 1.6.3.5.1 1 .1 1.4.1 1.8 0 3.3-.7 4.6-2 1.3-1.3 1.9-3.1 1.9-5.3 0-2.8-1.2-4.8-3.7-6.2s-5.4-2-8.7-2c-8.7 0-15.4 2.1-20 6.3-4.6 4.2-6.9 9.7-6.9 16.4v6.2h-7.3c-2.2 0-4 .7-5.4 2.1-1.4 1.4-2.2 3.2-2.2 5.3 0 2.2.7 3.9 2.2 5.3 1.4 1.4 3.2 2.1 5.4 2.1h7.3v47.7c0 2.3.8 4.3 2.3 5.9 1.5 1.6 3.5 2.4 5.8 2.4s4.3-.8 5.8-2.4c1.5-1.6 2.3-3.5 2.3-5.9V90.6H99c2.2 0 4-.7 5.4-2.1 1.4-1.4 2.2-3.2 2.2-5.3s-.7-3.9-2.2-5.3c-1.4-1.4-3.2-2.1-5.4-2.1H86.6v-6.3c0-2.1.6-4 1.9-5.7 1.2-1.8 3.4-2.7 6.4-2.7zm36.8 77.2V82.7c0-2.3-.8-4.3-2.3-5.9-1.5-1.6-3.5-2.4-5.8-2.4s-4.3.8-5.8 2.4c-1.5 1.6-2.3 3.5-2.3 5.9v55.6c0 2.3.8 4.3 2.3 5.9 1.5 1.6 3.5 2.4 5.8 2.4s4.3-.8 5.8-2.4c1.5-1.6 2.3-3.6 2.3-5.9z"/></svg>