<?xml version="1.0" encoding="utf-8"?>
<!-- Generator: Adobe Illustrator 22.1.0, SVG Export Plug-In . SVG Version: 6.00 Build 0)  -->
<svg version="1.1" id="Livello_1" xmlns="http://www.w3.org/2000/svg" xmlns:xlink="http://www.w3.org/1999/xlink" x="0px" y="0px"
	 viewBox="0 0 200 200" style="enable-background:new 0 0 200 200;" xml:space="preserve">
<style type="text/css">
	.st0{filter:url(#Adobe_OpacityMaskFilter);}
	.st1{fill:#FFFFFF;}
	.st2{mask:url(#mask-2_3_);fill:#00A8E7;}
	.st3{filter:url(#Adobe_OpacityMaskFilter_1_);}
	.st4{mask:url(#mask-2_2_);fill:#DA1157;}
	.st5{filter:url(#Adobe_OpacityMaskFilter_2_);}
	.st6{mask:url(#mask-2_1_);fill:#1F3464;}
</style>
<desc>Created with Sketch.</desc>
<g id="Page-1_1_">
	<g id="Group">
		<g id="Page-1">
			<g id="Clip-8">
			</g>
			<defs>
				<filter id="Adobe_OpacityMaskFilter" filterUnits="userSpaceOnUse" x="100" y="43" width="97.5" height="114">
					<feColorMatrix  type="matrix" values="1 0 0 0 0  0 1 0 0 0  0 0 1 0 0  0 0 0 1 0"/>
				</filter>
			</defs>
			<mask maskUnits="userSpaceOnUse" x="100" y="43" width="97.5" height="114" id="mask-2_3_">
				<g class="st0">
					<polygon id="path-1_3_" class="st1" points="2.5,157 1273,157 1273,-4.1 2.5,-4.1 					"/>
				</g>
			</mask>
			<path id="Fill-14" class="st2" d="M140.7,124.7c-13.6,0-24.6-11.1-24.6-24.7c0-13.7,11-24.7,24.6-24.7s24.6,11.1,24.6,24.7
				C165.3,113.7,154.3,124.7,140.7,124.7 M140.7,43c-16,0-30.4,6.6-40.7,17.3c9.9,10.3,16.1,24.3,16.1,39.7s-6.1,29.5-16.1,39.7
				c10.3,10.7,24.7,17.3,40.7,17.3c31.4,0,56.8-25.5,56.8-57S172.1,43,140.7,43"/>
			<defs>
				<filter id="Adobe_OpacityMaskFilter_1_" filterUnits="userSpaceOnUse" x="2.5" y="43" width="97.5" height="114">
					<feColorMatrix  type="matrix" values="1 0 0 0 0  0 1 0 0 0  0 0 1 0 0  0 0 0 1 0"/>
				</filter>
			</defs>
			<mask maskUnits="userSpaceOnUse" x="2.5" y="43" width="97.5" height="114" id="mask-2_2_">
				<g class="st3">
					<polygon id="path-1_2_" class="st1" points="2.5,157 1273,157 1273,-4.1 2.5,-4.1 					"/>
				</g>
			</mask>
			<path id="Fill-15" class="st4" d="M59.3,124.7c-13.6,0-24.6-11.1-24.6-24.7c0-13.7,11-24.7,24.6-24.7S83.9,86.3,83.9,100
				C83.9,113.7,72.9,124.7,59.3,124.7 M100,60.3C89.7,49.6,75.3,43,59.3,43C27.9,43,2.5,68.5,2.5,100s25.4,57,56.8,57
				c16,0,30.4-6.6,40.7-17.3c-9.9-10.3-16.1-24.3-16.1-39.7S90.1,70.5,100,60.3"/>
			<defs>
				<filter id="Adobe_OpacityMaskFilter_2_" filterUnits="userSpaceOnUse" x="83.9" y="60.3" width="32.2" height="79.5">
					<feColorMatrix  type="matrix" values="1 0 0 0 0  0 1 0 0 0  0 0 1 0 0  0 0 0 1 0"/>
				</filter>
			</defs>
			<mask maskUnits="userSpaceOnUse" x="83.9" y="60.3" width="32.2" height="79.5" id="mask-2_1_">
				<g class="st5">
					<polygon id="path-1_1_" class="st1" points="2.5,157 1273,157 1273,-4.1 2.5,-4.1 					"/>
				</g>
			</mask>
			<path id="Fill-16" class="st6" d="M83.9,100c0,15.5,6.1,29.5,16.1,39.7c9.9-10.3,16.1-24.3,16.1-39.7c0-15.5-6.1-29.5-16.1-39.7
				C90,70.5,83.9,84.5,83.9,100"/>
		</g>
	</g>
</g>
</svg>
