<?xml version="1.0" encoding="utf-8"?>
<!-- Generator: Adobe Illustrator 23.0.1, SVG Export Plug-In . SVG Version: 6.00 Build 0)  -->
<svg version="1.0" id="Livello_1" xmlns="http://www.w3.org/2000/svg" xmlns:xlink="http://www.w3.org/1999/xlink" x="0px" y="0px"
	 viewBox="0 0 200 200" style="enable-background:new 0 0 200 200;" xml:space="preserve">
<style type="text/css">
	.st0{fill:#1D3D75;}
</style>
<path class="st0" d="M77.9,177.1c-8.1,3.3-17.7,7.6-26.6,8.2c-8.3,0.6-17.8-2.2-24.8-6.5c-13.3-8.3-16.7-33.1,0.8-39.2
	c7.4-2.6,17.3,0,20.9,7.3c1.6,3.3,2.2,7.1,1.4,10.6c-1,4.3-4.5,7.6-4.3,12.2c16.7-3,23.2-23.2,27.6-37.3c6-18.9,8.8-39,17.7-56.8
	c6-12,14.9-21.2,26-28.5c4.8-3.2,23.2-10.7,25.5-2.3c1.8,6.6-5.2,6.8-9.7,9.2c-4.6,2.5-7.7,6.7-10.2,11.1
	c-6.2,11.3-9.9,23.4-14.2,35.5c30.1,8.2,53.1-28.8,45.5-55.2c-3.5-11.9-14.1-20.1-25.8-23c-7.2-1.8-14.7-1.6-21.9,0.4
	C98.4,24.9,92,29.1,84.9,32c5.4,6.7,12.1,13.5,7,22.5c-3.2,5.6-8.8,8.9-15.2,8.6c-8.3-0.4-15.2-7-16.9-14.9c-1.8-8,3.4-15,8.4-20.8
	c22.8-25.9,67.1-30,94.6-9c16,12.2,24.9,32.3,20.7,52c-1.7,8.2-5.7,15.3-10.8,22c-5.9,7.8-13.5,14.8-20.8,21.1
	c15,8.9,16.9,21.7,16.8,36.9c-0.2,25.4-27.5,46.1-51.8,44.6c-7.6-0.5-15-2.4-22-5.3C87.7,186.4,83.5,182.3,77.9,177.1z M104.8,112.6
	c-3.1,11-6.7,21.8-10.4,32.6c-1.9,5.4-4.8,10.8-4.3,16.6c0.6,7.7,4.6,13.9,12.4,15.5c17.9,3.7,31.6-16.1,34.8-31.5
	c1.8-8.6,1.1-17.1-5.6-23.4C125.1,116.2,113.3,114.6,104.8,112.6z"/>
</svg>
