<svg xmlns="http://www.w3.org/2000/svg" viewBox="0 0 200 200"><path fill="#427cb8" d="M91.7 5.1L167.8 84s18.1 16.6-6.3 41l-76-76.3s-18.4-19 6.2-43.6z"/><path fill="#4079b6" d="M38.6 75.1l76.1 78.9s17.6 17.1-6.3 41l-76.1-76.4c0 .1-18.5-18.7 6.3-43.5z"/><path fill="#3f78b5" d="M44.7 69.2l28.6 27.6 25-25.9s-25.8-29.5-53.6-1.7z"/><path fill="#3c74b1" d="M101.2 129.7l27-26.1 27.3 28.3s-27.1 31.6-54.3-2.2z"/><path fill="#326aaa" d="M98.3 77.8l3.3-4v10.6s7 .3 7 8.4h-5.1s.1-2.8-3.8-2.8c-1.5 0-3.5 1.3-3.5 3.4 0 2.9 3 4.7 6.1 5.6 4.3 1.3 7.4 5.3 7 9.8-.1 1.7-1.2 4.5-2.7 5.7-2.4 1.9-3.8 2.3-5.1 2.3v7l-3.3 3.3V117s-8.6-2.3-8.2-10h6s0 4 4 4c2.3 0 3.3-1.3 3.7-2.5.4-1.2.1-2.5-.8-3.4-.6-.6-1.6-1.1-3.1-1.5-2.2-.5-5-1.9-7-4-2.9-3-3.5-7.7-1.2-11.3 1.2-1.8 3.3-3.4 6.7-3.9 0 0-.1-6.6 0-6.6z"/></svg>