<?xml version="1.0" encoding="UTF-8" standalone="no"?><!DOCTYPE svg PUBLIC "-//W3C//DTD SVG 1.1//EN" "http://www.w3.org/Graphics/SVG/1.1/DTD/svg11.dtd"><svg width="100%" height="100%" viewBox="0 0 15 15" version="1.1" xmlns="http://www.w3.org/2000/svg" xmlns:xlink="http://www.w3.org/1999/xlink" xml:space="preserve" style="fill-rule:evenodd;clip-rule:evenodd;stroke-linejoin:round;stroke-miterlimit:1.41421;"><g><path d="M7.241,14.372c-0.034,-0.034 -0.231,-0.068 -0.443,-0.075c-0.524,-0.027 -0.647,-0.047 -0.742,-0.109c-0.048,-0.034 -0.116,-0.041 -0.15,-0.013c-0.034,0.02 -0.088,0 -0.109,-0.041c-0.027,-0.034 -0.088,-0.055 -0.136,-0.041c-0.048,0.02 -0.272,-0.055 -0.497,-0.164c-0.232,-0.109 -0.463,-0.197 -0.511,-0.197c-0.048,0 -0.327,-0.15 -0.613,-0.341c-0.286,-0.183 -0.545,-0.34 -0.579,-0.34c-0.027,0 -0.088,-0.061 -0.136,-0.136c-0.048,-0.075 -0.109,-0.137 -0.143,-0.137c-0.082,0 -0.96,-0.878 -0.96,-0.96c0,-0.034 -0.062,-0.095 -0.137,-0.143c-0.075,-0.048 -0.136,-0.109 -0.136,-0.136c0,-0.034 -0.15,-0.293 -0.34,-0.579c-0.184,-0.286 -0.341,-0.565 -0.341,-0.613c0,-0.048 -0.088,-0.279 -0.197,-0.511c-0.109,-0.225 -0.184,-0.449 -0.164,-0.497c0.014,-0.048 -0.007,-0.109 -0.041,-0.136c-0.041,-0.021 -0.061,-0.075 -0.041,-0.109c0.028,-0.034 0.021,-0.102 -0.013,-0.143c-0.062,-0.096 -0.068,-0.157 -0.123,-0.77c-0.054,-0.518 -0.054,-0.844 0,-1.362c0.055,-0.613 0.061,-0.674 0.123,-0.763c0.034,-0.048 0.041,-0.116 0.013,-0.15c-0.02,-0.034 0,-0.088 0.041,-0.109c0.034,-0.027 0.055,-0.088 0.041,-0.136c-0.02,-0.048 0.055,-0.272 0.164,-0.497c0.109,-0.232 0.197,-0.463 0.197,-0.511c0,-0.048 0.15,-0.327 0.341,-0.613c0.183,-0.286 0.34,-0.545 0.34,-0.579c0,-0.027 0.061,-0.088 0.136,-0.136c0.075,-0.048 0.137,-0.109 0.137,-0.143c0,-0.082 0.878,-0.96 0.96,-0.96c0.034,0 0.095,-0.062 0.143,-0.137c0.048,-0.075 0.109,-0.136 0.136,-0.136c0.034,0 0.293,-0.157 0.586,-0.347c0.286,-0.184 0.606,-0.361 0.715,-0.382c0.102,-0.02 0.204,-0.068 0.225,-0.095c0.02,-0.034 0.088,-0.061 0.15,-0.061c0.061,0 0.204,-0.048 0.313,-0.102c0.109,-0.062 0.279,-0.109 0.375,-0.116c0.095,-0.007 0.211,-0.041 0.258,-0.075c0.048,-0.034 0.116,-0.041 0.157,-0.014c0.041,0.027 0.109,0.014 0.157,-0.02c0.17,-0.136 1.675,-0.123 2.397,0.02c0.116,0.027 0.252,0.048 0.307,0.062c0.061,0.006 0.136,0.034 0.17,0.054c0.041,0.02 0.238,0.089 0.443,0.157c0.483,0.15 1.457,0.613 1.566,0.749c0.048,0.054 0.129,0.102 0.177,0.102c0.055,0 0.095,0.034 0.095,0.068c0,0.041 0.055,0.095 0.123,0.116c0.15,0.054 1.206,1.11 1.26,1.26c0.021,0.068 0.075,0.123 0.116,0.123c0.034,0 0.068,0.034 0.068,0.074c0,0.041 0.068,0.171 0.15,0.28c0.204,0.293 0.586,1.062 0.633,1.294c0.027,0.102 0.075,0.204 0.109,0.225c0.034,0.027 0.061,0.108 0.061,0.197c0,0.082 0.021,0.177 0.048,0.204c0.027,0.021 0.055,0.096 0.061,0.164c0.014,0.061 0.035,0.211 0.062,0.32c0.15,0.742 0.156,2.173 0.013,2.404c-0.034,0.041 -0.04,0.109 -0.013,0.15c0.02,0.034 0.013,0.116 -0.027,0.184c-0.035,0.068 -0.109,0.306 -0.171,0.531c-0.068,0.225 -0.143,0.47 -0.177,0.545c-0.027,0.075 -0.095,0.238 -0.143,0.368c-0.048,0.129 -0.218,0.422 -0.381,0.66c-0.164,0.239 -0.293,0.464 -0.293,0.504c0,0.035 -0.034,0.069 -0.068,0.069c-0.041,0 -0.089,0.047 -0.116,0.115c-0.055,0.13 -0.967,1.042 -1.049,1.042c-0.034,0 -0.095,0.062 -0.143,0.137c-0.048,0.075 -0.109,0.136 -0.136,0.136c-0.034,0 -0.293,0.157 -0.579,0.34c-0.286,0.191 -0.565,0.341 -0.613,0.341c-0.048,0 -0.279,0.088 -0.511,0.197c-0.225,0.109 -0.449,0.184 -0.497,0.164c-0.048,-0.014 -0.109,0.007 -0.136,0.041c-0.021,0.041 -0.075,0.061 -0.109,0.041c-0.034,-0.028 -0.102,-0.021 -0.143,0.013c-0.089,0.055 -0.177,0.068 -0.736,0.116c-0.17,0.014 -0.443,0.048 -0.613,0.075c-0.17,0.027 -0.334,0.02 -0.361,-0.007ZM8.331,14.113c1.362,-0.129 2.806,-0.837 3.875,-1.907c1.417,-1.416 2.091,-3.269 1.928,-5.285c-0.259,-3.208 -2.84,-5.796 -6.055,-6.055c-2.016,-0.163 -3.869,0.511 -5.285,1.928c-1.417,1.416 -2.091,3.269 -1.928,5.285c0.259,3.194 2.834,5.782 6.021,6.062c0.531,0.04 0.702,0.04 1.444,-0.028Z" style="fill:#e0e1e2;fill-rule:nonzero;"/><path d="M6.724,13.385c-1.744,-0.232 -3.46,-1.369 -4.319,-2.861c-0.17,-0.286 -0.177,-0.402 -0.04,-0.402c0.027,0 0.197,0.218 0.374,0.491c0.947,1.464 2.52,2.397 4.311,2.56c0.396,0.035 0.518,0.075 0.518,0.15c0,0.123 -0.245,0.143 -0.844,0.062Z" style="fill:#e0e1e2;fill-rule:nonzero;"/><path d="M6.717,12.431c-0.961,-0.157 -1.866,-0.599 -2.568,-1.233c-0.409,-0.374 -0.851,-0.933 -0.797,-1.015c0.021,-0.034 0.477,-0.061 1.015,-0.061l0.974,0l0.354,0.239c0.368,0.252 1.103,0.51 1.437,0.51l0.198,0l0,0.818c0,0.919 0.061,0.851 -0.613,0.742Z" style="fill:#e0e1e2;fill-rule:nonzero;"/><path d="M7.67,11.695l0,-0.824l0.239,-0.006c0.129,-0.007 0.272,-0.014 0.32,-0.021c0.081,-0.007 0.511,1.151 0.524,1.396c0.007,0.082 -0.075,0.123 -0.313,0.157c-0.184,0.027 -0.429,0.068 -0.545,0.089l-0.225,0.034l0,-0.825Z" style="fill:#e0e1e2;fill-rule:nonzero;"/><path d="M9.067,12.152c-0.014,-0.048 -0.137,-0.388 -0.266,-0.749l-0.239,-0.668l0.314,-0.136c0.177,-0.075 0.334,-0.116 0.361,-0.089c0.027,0.034 0.163,0.225 0.306,0.429c0.15,0.205 0.341,0.47 0.429,0.593l0.157,0.218l-0.17,0.109c-0.314,0.211 -0.858,0.381 -0.892,0.293Z" style="fill:#e0e1e2;fill-rule:nonzero;"/><path d="M9.945,11.028c-0.211,-0.293 -0.415,-0.572 -0.456,-0.613c-0.041,-0.061 -0.034,-0.123 0.02,-0.191c0.068,-0.081 0.279,-0.102 1.097,-0.102c0.551,0 1.021,0.027 1.042,0.061c0.082,0.123 -1.063,1.369 -1.26,1.369c-0.027,0 -0.232,-0.238 -0.443,-0.524Z" style="fill:#e0e1e2;fill-rule:nonzero;"/><path d="M7.357,9.686c-0.02,-0.061 -0.02,-0.163 0.007,-0.224c0.041,-0.116 0.047,-0.116 0.143,0.013c0.054,0.068 0.088,0.164 0.075,0.198c-0.041,0.115 -0.184,0.122 -0.225,0.013Z" style="fill:#e0e1e2;fill-rule:nonzero;"/><path d="M1.724,8.842c-0.224,-1.117 -0.197,-2.132 0.089,-2.983l0.129,-0.402l-0.027,0.545c-0.02,0.299 -0.054,0.878 -0.075,1.28c-0.034,0.511 -0.02,0.763 0.034,0.817c0.089,0.089 0.102,1.179 0.014,1.233c-0.027,0.021 -0.102,-0.197 -0.164,-0.49Z" style="fill:#e0e1e2;fill-rule:nonzero;"/><path d="M7.357,9.08c-0.075,-0.197 0,-0.626 0.109,-0.626c0.075,0 0.102,0.081 0.102,0.333c0,0.334 -0.129,0.504 -0.211,0.293Z" style="fill:#e0e1e2;fill-rule:nonzero;"/><path d="M3.052,8.576l0.021,-0.531l0.531,-0.021c0.388,-0.013 0.531,0.007 0.552,0.069c0.007,0.047 0.082,0.279 0.157,0.51c0.074,0.239 0.122,0.443 0.102,0.464c-0.021,0.02 -0.341,0.034 -0.709,0.034l-0.674,0l0.02,-0.525Z" style="fill:#e0e1e2;fill-rule:nonzero;"/><path d="M5.647,8.814c-0.381,-0.565 -0.422,-0.803 -0.156,-0.803c0.088,0 0.19,0.109 0.299,0.327c0.089,0.177 0.225,0.381 0.307,0.449c0.204,0.184 0.184,0.314 -0.061,0.314c-0.157,0 -0.239,-0.062 -0.389,-0.287Z" style="fill:#e0e1e2;fill-rule:nonzero;"/><path d="M8.692,9.046c0,-0.034 0.088,-0.143 0.197,-0.245c0.675,-0.64 0.668,-1.914 -0.006,-2.609l-0.218,-0.224l0.279,0c0.245,0 0.293,0.027 0.449,0.258c0.532,0.811 0.518,1.764 -0.034,2.588c-0.17,0.246 -0.231,0.287 -0.429,0.287c-0.129,0 -0.238,-0.028 -0.238,-0.055Z" style="fill:#e0e1e2;fill-rule:nonzero;"/><path d="M10.585,9.067c-0.02,-0.021 0.028,-0.225 0.102,-0.464c0.075,-0.231 0.15,-0.463 0.157,-0.504c0.014,-0.061 0.184,-0.088 0.538,-0.088l0.511,0l0,1.09l-0.633,0c-0.355,0 -0.654,-0.014 -0.675,-0.034Z" style="fill:#e0e1e2;fill-rule:nonzero;"/><path d="M6.083,8.351c-0.129,-0.218 -0.109,-0.34 0.062,-0.34c0.068,0 0.095,0.082 0.095,0.272c0,0.15 -0.007,0.273 -0.02,0.273c-0.007,0 -0.075,-0.096 -0.137,-0.205Z" style="fill:#e0e1e2;fill-rule:nonzero;"/><path d="M8.753,8.488c-0.041,-0.15 -0.041,-2.044 0.007,-2.044c0.082,0 0.327,0.538 0.375,0.831c0.061,0.314 -0.062,0.845 -0.239,1.076c-0.075,0.096 -0.136,0.157 -0.143,0.137Z" style="fill:#e0e1e2;fill-rule:nonzero;"/><path d="M7.364,8.058c-0.021,-0.047 -0.034,-0.333 -0.021,-0.633c0.014,-0.422 0.041,-0.538 0.123,-0.538c0.082,0 0.102,0.116 0.102,0.606c0,0.429 -0.027,0.62 -0.082,0.634c-0.047,0.02 -0.102,-0.014 -0.122,-0.069Z" style="fill:#e0e1e2;fill-rule:nonzero;"/><path d="M13.235,7.561c-0.027,-0.027 -0.048,-0.19 -0.048,-0.361c-0.007,-0.17 -0.034,-0.449 -0.068,-0.619c-0.109,-0.518 -0.15,-1.07 -0.082,-1.117c0.034,-0.021 0.123,0.231 0.205,0.558c0.224,0.94 0.218,1.764 -0.007,1.539Z" style="fill:#e0e1e2;fill-rule:nonzero;"/><path d="M2.542,6.846c0.034,-0.116 0.081,-0.136 0.313,-0.116c0.197,0.014 0.279,0.055 0.293,0.143c0.013,0.096 -0.041,0.116 -0.313,0.116c-0.3,0 -0.327,-0.013 -0.293,-0.143Z" style="fill:#e0e1e2;fill-rule:nonzero;"/><path d="M3.563,6.853c0.028,-0.109 0.096,-0.136 0.334,-0.136c0.252,0 0.293,0.02 0.279,0.136c-0.007,0.116 -0.054,0.136 -0.327,0.136c-0.286,0 -0.32,-0.013 -0.286,-0.136Z" style="fill:#e0e1e2;fill-rule:nonzero;"/><path d="M5.286,6.853c0.041,-0.082 0.143,-0.136 0.239,-0.136c0.122,0 0.17,0.034 0.17,0.136c0,0.109 -0.048,0.136 -0.238,0.136c-0.225,0 -0.239,-0.013 -0.171,-0.136Z" style="fill:#e0e1e2;fill-rule:nonzero;"/><path d="M5.961,6.873c0.034,-0.068 0.109,-0.183 0.17,-0.258c0.102,-0.13 0.102,-0.123 0.109,0.122c0,0.225 -0.02,0.252 -0.17,0.252c-0.143,0 -0.164,-0.02 -0.109,-0.116Z" style="fill:#e0e1e2;fill-rule:nonzero;"/><path d="M10.817,6.826c-0.007,-0.096 -0.068,-0.327 -0.143,-0.511l-0.13,-0.347l0.327,0c0.361,0 0.382,0.02 0.538,0.735l0.062,0.286l-0.32,0c-0.286,0 -0.32,-0.013 -0.334,-0.163Z" style="fill:#e0e1e2;fill-rule:nonzero;"/><path d="M11.845,6.764c-0.013,-0.129 -0.061,-0.354 -0.115,-0.51l-0.103,-0.286l0.654,0l0.205,1.021l-0.314,0c-0.306,0 -0.313,-0.007 -0.327,-0.225Z" style="fill:#e0e1e2;fill-rule:nonzero;"/><path d="M7.466,6.458c0,-0.082 -0.034,-0.211 -0.082,-0.279c-0.088,-0.15 -0.027,-0.375 0.102,-0.334c0.103,0.041 0.15,0.593 0.055,0.688c-0.055,0.054 -0.075,0.034 -0.075,-0.075Z" style="fill:#e0e1e2;fill-rule:nonzero;"/><path d="M6.104,5.906c0,-0.15 0.034,-0.293 0.068,-0.313c0.041,-0.027 0.068,0.068 0.068,0.232c0,0.149 -0.027,0.292 -0.068,0.313c-0.041,0.027 -0.068,-0.068 -0.068,-0.232Z" style="fill:#e0e1e2;fill-rule:nonzero;"/><path d="M7.364,5.545c-0.062,-0.156 0.013,-0.347 0.116,-0.313c0.122,0.041 0.136,0.15 0.027,0.293c-0.096,0.129 -0.102,0.129 -0.143,0.02Z" style="fill:#e0e1e2;fill-rule:nonzero;"/><path d="M2.371,4.524c0.825,-1.369 2.18,-2.384 3.699,-2.786c0.769,-0.204 2.097,-0.204 2.86,0c1.54,0.409 2.765,1.321 3.651,2.718l0.266,0.422l-2.636,-0.014c-1.689,-0.007 -2.289,-0.027 -1.655,-0.054l0.987,-0.034l-0.238,-0.157c-0.559,-0.361 -0.933,-0.456 -1.805,-0.456c-0.899,0 -1.287,0.109 -1.887,0.51c-0.245,0.171 -0.361,0.205 -0.701,0.198l-0.409,0l0.388,-0.368c1.383,-1.294 3.794,-1.307 5.197,-0.02c0.293,0.265 0.409,0.327 0.606,0.327c0.137,0 0.245,-0.028 0.245,-0.062c0,-0.156 -0.953,-0.919 -1.457,-1.164c-0.811,-0.402 -1.287,-0.497 -2.186,-0.463c-1.179,0.054 -2.05,0.442 -2.922,1.3c-0.45,0.443 -0.477,0.457 -0.804,0.457l-0.334,0l0.225,-0.313c0.954,-1.335 2.779,-2.187 4.393,-2.044c0.715,0.068 1.206,0.205 1.914,0.559c0.504,0.245 0.749,0.422 1.165,0.831c0.293,0.286 0.592,0.613 0.66,0.715c0.123,0.177 0.164,0.191 0.525,0.17l0.395,-0.02l-0.273,-0.423c-1.219,-1.879 -3.637,-2.887 -5.85,-2.431c-1.519,0.306 -3.011,1.335 -3.692,2.534c-0.177,0.313 -0.279,0.415 -0.388,0.422c-0.15,0 -0.15,-0.007 0.061,-0.354Z" style="fill:#e0e1e2;fill-rule:nonzero;"/><path d="M6.567,4.83c0.157,-0.013 0.402,-0.013 0.545,0c0.136,0.014 0.007,0.027 -0.293,0.027c-0.3,0 -0.416,-0.013 -0.252,-0.027Z" style="fill:#e0e1e2;fill-rule:nonzero;"/><path d="M1.949,8.576l0,-1.587l4.291,0l0,-1.056l0,-1.055l1.158,0l-0.014,2.642l-0.02,2.636l-2.704,0l-2.711,0l0,-1.58ZM6.24,8.59l0,-0.511l-1.601,0l-1.6,0l0,1.022l3.201,0l0,-0.511Z" style="fill:#091a3c;fill-rule:nonzero;"/><path d="M7.602,7.527l0,-2.649l2.711,0.013l2.704,0.021l0,1.021l-2.159,0.021l-2.166,0.014l0,3.133l3.201,0l0,-0.511l0,-0.504l-1.069,-0.021l-1.076,-0.02l-0.021,-0.525l-0.02,-0.531l3.344,0l-0.014,1.58l-0.02,1.58l-2.704,0.014l-2.711,0.014l0,-2.65Z" style="fill:#091a3c;fill-rule:nonzero;"/><path d="M7.5,0c4.139,0 7.5,3.361 7.5,7.5c0,4.139 -3.361,7.5 -7.5,7.5c-4.139,0 -7.5,-3.361 -7.5,-7.5c0,-4.139 3.361,-7.5 7.5,-7.5ZM7.5,0.698c3.754,0 6.802,3.048 6.802,6.802c0,3.754 -3.048,6.802 -6.802,6.802c-3.754,0 -6.802,-3.048 -6.802,-6.802c0,-3.754 3.048,-6.802 6.802,-6.802Z" style="fill:#091a3c;"/><path d="M1.949,5.831l0,-0.885l4.087,0l0,1.771l-2.044,0l-2.043,0l0,-0.886Z" style="fill:#d8a24a;fill-rule:nonzero;"/></g></svg>