<svg xmlns="http://www.w3.org/2000/svg" id="Livello_1" version="1" viewBox="0 0 200 200"><style>.st1{fill:#fff}.st2{fill:#c1ccf7}.st3{fill:#8198ee}</style><circle cx="100" cy="100" r="95" fill="#5379f2"/><path d="M100 141.5v47l-55-79z" class="st1"/><path d="M101 141.5v47l54-79zM100 11.5l-55 92 55-24v-68zM155 103.5l-33.2-14.8c.1-.8 1.2-2.3 2.2-15.3s-11-14-11-14c8 8 0 9 0 9s-5 .5-8-8c-3.6-10.2 2-24 2-24-2.3.8-4.2 2-5.8 3.4 0-14.7-.2-28.4-.2-28.4l54 92.1zM100 80.5v21c-1.6-1.3-2.9-1.9-3-2 .1.3 2.7 7.9-4 14-7 6.4-7.9 11.6-7.7 14.5l-20.6-12L45 104.5l17.7-7.7L100 80.5z" class="st2"/><path d="M155 104.5l-25 14.8c.3-.6.7-1.2 1-1.8 6-12.1 5.8-17.9 4-21.9l20 8.9zM100 101.5c-1.6-1.3-2.9-1.9-3-2 .1.3 2.7 7.9-4 14-7 6.4-7.9 11.6-7.7 14.5l-20.6-12c-1.1-2-4.6-9.8-2.1-19.2.9-3.3 2.5-6.8 5.3-10.3 0 0-1 4 2 4s5-16 8-17c0 0 1 4 4 4 1.2 0 2.1-.6 2.7-1.4.9-1.1 1.3-2.5 1.3-3.9-.2-4.7-.5-20.3 2-23.7 0 0 0 4 3 4 2.4 0 3-7.5 9-12.6v40.6c.1 7.1.1 14.2.1 21zM121.7 89.7l7.4 3.3c0 2.3-.4 6.5-4.1 6-4-.5-4-6-3.3-9.3z" class="st3"/><path d="M136.1 101c0 5.7-2.5 12.7-5.6 17.4-1.2 1.9-3.8 2.9-5.8 4-5.7 3.4-11.5 6.8-17.2 10.2 3.3-8.2 3.3-17.3-1.7-24.8-.9-1.3-1.9-2.5-3-3.6-.5-.5-1.6-1.2-1.9-1.9 0-1.8.2-59.8.2-61.9 0-1.9 4.1-3.2 5.8-3.9-3.5 9.5-4.2 22.2 3 30.3 1.1 1.2 2.1 1.9 3.7 1.6 5.2-1.3 1.6-6.5-.7-8.8 2.4.2 4.9 1.1 6.9 2.5 5.1 3.4 5.5 9 4.7 14.6-.5 4-1.5 7.9-2.3 11.8-.5 2.5-1.6 6.6.2 8.8 2 2.4 5.3 1.6 6.2-1.2.6-1.9.1-3.7.4-5.5.4-3.4 2.2-1 3.4.7 2 3 3.7 5.9 3.7 9.7z" class="st1"/><path d="M108 131.5c-.1.4-.3.8-.4 1.1l-6.6 3.9v-34.2c5.1 4.4 12.6 13.9 7 29.2z" class="st3"/><path d="M100 101.5v35L85.3 128c-.3-2.9.6-8.1 7.7-14.5 6.8-6.2 4-14 4-14s1.3.7 3 2z" class="st2"/></svg>