<?xml version="1.0" encoding="utf-8"?>
<!-- Generator: Adobe Illustrator 22.1.0, SVG Export Plug-In . SVG Version: 6.00 Build 0)  -->
<svg version="1.1" id="Livello_1" xmlns="http://www.w3.org/2000/svg" xmlns:xlink="http://www.w3.org/1999/xlink" x="0px" y="0px"
	 viewBox="0 0 200 200" style="enable-background:new 0 0 200 200;" xml:space="preserve">
<style type="text/css">
	.st0{fill:#091A3C;}
	.st1{fill:#E0E1E2;}
	.st2{fill:#D8A24A;}
</style>
<path class="st0" d="M100,9.3c50.1,0,90.7,40.6,90.7,90.7s-40.6,90.7-90.7,90.7S9.3,150.1,9.3,100S49.9,9.3,100,9.3z"/>
<path class="st1" d="M111.1,188.2c18.2-1.7,37.4-11.2,51.7-25.4c18.9-18.9,27.9-43.6,25.7-70.5C185,49.5,150.6,15,107.7,11.5
	c-26.9-2.2-51.6,6.8-70.5,25.7C18.4,56.1,9.4,80.8,11.5,107.7c3.5,42.6,37.8,77.1,80.3,80.8C98.9,189.1,101.2,189.1,111.1,188.2
	L111.1,188.2z"/>
<path class="st0" d="M26,114.3V93.2h57.2V79.1V65h15.4l-0.2,35.2l-0.3,35.1h-36H26C26,135.4,26,114.3,26,114.3z M83.2,114.5v-6.8
	H61.9H40.5v13.6h42.7V114.5L83.2,114.5z"/>
<path class="st0" d="M101.4,100.4V65l36.1,0.2l36.5,0.3v13.6l-29.2,0.3l-28.9,0.2v41.8h42.7v-6.8v-6.7l-14.3-0.3l-14.3-0.3l-0.3-7
	l-0.3-7.1H174l-0.2,21.1l-0.3,21.1l-36.1,0.2l-36.1,0.2L101.4,100.4L101.4,100.4z"/>
<path class="st2" d="M26,76.7V65h54.5v23.5H53.2H26C26,88.6,26,76.7,26,76.7z"/>
</svg>
