<svg xmlns="http://www.w3.org/2000/svg" viewBox="0 0 200 200"><path fill="#662d91" d="M161.2 140.5l-60.9-34.9-61.5 35.1 122.4-.2z"/><path fill="#9e1f63" d="M100.3 35.2v70.3l60.9 34.9-60.9-105.2z"/><path fill="#ff5000" d="M38.8 140.6l61.5-35.1V35.2L38.8 140.6z"/><path fill="#fff" stroke="#ff5000" stroke-miterlimit="10" stroke-width="6" d="M100.1 77.9L75 120h50.4l-25.3-42.1z"/><linearGradient id="a" x1=".2526" x2=".0364" y1=".013" y2=".2679" gradientTransform="matrix(560.0001 0 0 560.001 20.0009 20)" gradientUnits="userSpaceOnUse"><stop offset="0" stop-color="#b6509e"/><stop offset="1" stop-color="#2ebac6"/></linearGradient><path fill="url(#a)" d="M100 195c-67.4.4-114-70.1-87.4-132.1 33-77.2 141.8-77.2 174.9 0 26.4 62-20.1 132.5-87.5 132.1zm0-180C39.8 14.6-1.8 77.5 21.9 133c29.5 68.9 126.6 68.9 156.1 0 23.6-55.5-17.8-118.4-78-118z"/></svg>