<svg xmlns="http://www.w3.org/2000/svg" id="Livello_1" viewBox="0 0 200 200"><style>.st0{fill:#006}.st4{fill:#fff}</style><path d="M167.7 32.3C150 14.7 126 5 100 5s-50 9.7-67.7 27.3C14.7 50 5 74 5 100s9.7 50.1 27.3 67.7C50 185.3 74 195 100 195s50-9.7 67.7-27.3C185.3 150 195 126 195 100s-9.7-50-27.3-67.7zM162 162c-16.1 16.1-38.1 25-62 25s-45.8-8.9-62-25c-16.1-16.1-25-38.2-25-62s8.9-45.8 25-62c16.1-16.1 38.1-25 62-25s45.8 8.9 62 25c16.1 16.1 25 38.2 25 62s-8.9 45.8-25 62z" class="st0"/><path fill="#ff9" d="M187 100c0 23.8-8.9 45.8-25 62-16.1 16.1-38.1 25-62 25s-45.8-8.9-62-25c-16.1-16.1-25-38.2-25-62s8.9-45.8 25-62c16.1-16.1 38.1-25 62-25s45.8 8.9 62 25c16.1 16.2 25 38.2 25 62z"/><path d="M92.9 173c-1.2 0-2.5-.3-3.7-.9L46 147.6c-2.4-1.3-3.8-3.8-3.8-6.5V91.8c0-2.6 1.4-5.2 3.8-6.5l43.2-24.6c2.3-1.3 5.1-1.3 7.3 0l43.3 24.6c2.4 1.3 3.8 3.8 3.8 6.5V141c0 2.6-1.4 5.2-3.8 6.5L96.6 172c-1.1.6-2.4 1-3.7 1z" class="st0"/><path fill="#030" d="M87.7 132.7c-1.3 0-2.6-.4-3.8-1l-38-22.8c-2.3-1.3-3.6-3.8-3.6-6.4V57.2c0-2.6 1.4-5 3.6-6.4l38-22.8c2.4-1.4 5.3-1.4 7.6 0l38 22.8c2.3 1.3 3.6 3.8 3.6 6.4v45.4c0 2.6-1.4 5-3.6 6.4l-38 22.8c-1.2.6-2.5.9-3.8.9z"/><path fill="#06f" d="M124.9 155.1c-1.3 0-2.6-.4-3.8-1l-38-22.8c-2.3-1.3-3.6-3.8-3.6-6.4V79.5c0-2.6 1.4-5 3.6-6.4l38-22.8c2.4-1.4 5.3-1.4 7.6 0l38 22.8c2.3 1.3 3.6 3.8 3.6 6.4v45.4c0 2.6-1.4 5-3.6 6.4l-38 22.8c-1.1.6-2.5 1-3.8 1z"/><path d="M46.4 77.9c1.9-.3 4.4-.5 6.9-.5 4.3 0 7 .7 9.2 2.3 2.2 1.6 3.7 4 3.7 7.4 0 3.8-1.5 6.4-3.5 8.1-2.4 1.9-6.1 2.8-10.4 2.8-2.8 0-4.6-.1-5.8-.3V77.9h-.1zm4.8 16.4c.5.1 1.2.1 1.9.1 4.9 0 8-2.4 8-7 0-4.2-2.9-6.3-7.4-6.3-1.2 0-2 .1-2.5.2v13zm31.3-4.9h-8.4V94h9.4v3.9H69.3V77.6H83v3.9h-8.9v4.1h8.4v3.8zm4.2-11.8h13.5v3.9h-8.8v4.4h8.2v3.9h-8.2v8.1h-4.8V77.6h.1zm17.2 0h4.8v16.2h9v4h-13.8V77.6zm22 14.8l-1.6 5.4h-5l6.8-20.2h6.4l7.1 20.2h-5.3l-1.8-5.4h-6.6zm5.7-3.5l-1.5-4.3c-.4-1.2-.8-2.5-1.1-3.7-.3 1.1-.6 2.5-1 3.7l-1.4 4.3h5zm12.4-7.4h-6.1v-3.9h17v3.9h-6.2v16.3H144V81.5zM101.1 126.3c-.9.5-3.1 1-5.9 1-7.6 0-11.6-4.4-11.6-10.2 0-6.7 5.2-10.7 12-10.7 2.7 0 4.8.5 5.7 1l-1 3.7c-1.1-.5-2.6-.9-4.5-.9-4.1 0-7.2 2.3-7.2 6.6 0 3.8 2.6 6.6 7.2 6.6 1.6 0 3.4-.3 4.5-.8l.8 3.7zm22.9-9.6c0 6.3-4.4 10.6-11 10.6-6.5 0-10.6-4.4-10.6-10.3 0-6.2 4.5-10.7 10.9-10.7 6.6.1 10.7 4.5 10.7 10.4zm-16.6.3c0 3.8 2.2 6.7 5.7 6.7 3.6 0 5.7-2.9 5.7-6.8 0-3.7-2.1-6.8-5.7-6.8-3.5 0-5.7 3.1-5.7 6.9zm24.6-10.2V127h-4.8v-20.2h4.8zm4.1 20.2v-20.2h5.9l4.6 7.2c1.4 2.3 2.7 4.8 3.7 7.3h.1c-.3-2.9-.4-5.3-.4-8.1v-6.4h4.4V127h-5.2l-4.8-7.8c-1.4-2.3-2.8-4.9-4-7.5h-.1c.1 2.9.2 5.7.2 8.7v6.6h-4.4z" class="st4"/></svg>