<svg xmlns="http://www.w3.org/2000/svg" viewBox="0 0 200 200"><path fill="#d80027" d="M100 5C47.5 5 5 47.5 5 100s42.5 95 95 95 95-42.5 95-95c-.1-52.4-42.6-94.9-95-95zm-23.5 9.6C67.1 23.5 60 34.5 55.7 46.7c-7.1-1.7-14-4-20.7-6.8C46.2 27.8 60.6 19 76.5 14.6zM30.7 44.9c7.4 3.4 15.1 6.1 23 8.1-4.5 14.2-6.8 28.9-7 43.8v-.1h-35c.5-18.9 7.2-37 19-51.8zm0 109.8C18.9 140 12.2 121.8 11.6 103l35 .1c.2 14.9 2.6 29.7 7 43.9-7.8 1.9-15.5 4.5-22.9 7.7zM35 160v-.3c6.7-2.8 13.6-5.1 20.7-6.8 4.2 12.3 11.3 23.4 20.8 32.4C60.6 181 46.2 172.2 35 160zm61.8 28.3c-14.3-1.8-26.9-15.8-34.9-36.4 11.5-2.3 23.2-3.6 34.9-3.7v40.1zm0-46.8c-12.4.2-24.8 1.5-37 4-4.3-13.7-6.5-28-6.7-42.3v-.1h43.8v38.4zm0-44.8H53c.2-14.5 2.4-28.9 6.7-42.7 12.2 2.6 24.6 4 37 4.3v38.4zm0-44.9c-11.7-.1-23.4-1.4-34.9-3.7 8-20.8 20.5-34.6 34.9-36.5v40.2zm72.5-6.6C181 60 187.7 78.1 188.4 96.9h-35c-.2-14.9-2.6-29.7-7-44 7.8-1.9 15.5-4.5 22.9-7.7zm-4.4-5.2c-6.7 2.8-13.6 5.1-20.7 6.8-4.2-12.2-11.3-23.3-20.8-32.2 16 4.4 30.4 13.2 41.5 25.4zm-61.7-28.3c14.3 1.8 26.9 15.8 34.9 36.4-11.5 2.3-23.2 3.6-34.9 3.7V11.7zm0 46.5c12.4-.2 24.8-1.5 37-4 4.3 13.8 6.6 28.2 6.7 42.7h-43.8V58.2zm0 45.1H147c-.2 14.5-2.4 28.9-6.7 42.7-12.2-2.6-24.6-4-37-4.3v-38.4zm0 85v-40.1c11.7.1 23.4 1.4 34.9 3.7-8 20.7-20.6 34.6-34.9 36.4zm20.3-2.9c9.4-8.9 16.5-19.9 20.8-32.1 7.1 1.7 14 4 20.7 6.8-11.2 12.1-25.6 20.9-41.5 25.3zm45.8-30.3c-7.4-3.4-15.1-6.1-23-8.1 4.5-14.2 6.8-28.9 7-43.8v.1h35c-.5 18.9-7.2 37-19 51.8z"/></svg>