<?xml version="1.0" encoding="utf-8"?>
<!-- Generator: Adobe Illustrator 22.1.0, SVG Export Plug-In . SVG Version: 6.00 Build 0)  -->
<svg version="1.0" id="svg" xmlns="http://www.w3.org/2000/svg" xmlns:xlink="http://www.w3.org/1999/xlink" x="0px" y="0px"
	 viewBox="0 0 200 200" enable-background="new 0 0 200 200" xml:space="preserve">
<path fill="#EB6733" d="M150.6,17.3c1.5,0,2.7-1.2,2.7-2.7v-7c0-1.5-1.2-2.7-2.7-2.7H49.4c-1.5,0-2.7,1.2-2.7,2.7v7
	c0,1.5,1.2,2.7,2.7,2.7h44.5V77H49.4c-1.5,0-2.7,1.2-2.7,2.7v7c0,1.5,1.2,2.7,2.7,2.7h44.5v35.4c-6.7,2.5-11.4,8.9-11.4,16.5
	c0,9.7,7.9,17.6,17.6,17.6c9.7,0,17.6-7.9,17.6-17.6c0-7.5-4.8-14-11.4-16.5V89.3h44.5c1.5,0,2.7-1.2,2.7-2.7v-7
	c0-1.5-1.2-2.7-2.7-2.7h-44.5V17.3H150.6z M100,148.7c-4.2,0-7.5-3.4-7.5-7.5s3.4-7.5,7.5-7.5c4.2,0,7.5,3.4,7.5,7.5
	S104.2,148.7,100,148.7z"/>
<path fill="#EB6733" d="M138.3,100.6l-9,8.8c8.1,7.7,13.1,18.6,13.1,30.6c0,23.4-19,42.4-42.4,42.4c-23.4,0-42.4-19-42.4-42.4
	c0-11.9,5-22.7,12.9-30.4l-9.2-8.6c-10,10-16.3,23.8-16.3,39c0,30.4,24.6,55,55,55c30.4,0,55-24.6,55-55
	C155,124.6,148.6,110.6,138.3,100.6z"/>
</svg>
