<?xml version="1.0" encoding="utf-8"?>
<!-- Generator: Adobe Illustrator 22.1.0, SVG Export Plug-In . SVG Version: 6.00 Build 0)  -->
<svg version="1.0" id="Livello_1" xmlns="http://www.w3.org/2000/svg" xmlns:xlink="http://www.w3.org/1999/xlink" x="0px" y="0px"
	 viewBox="0 0 200 200" enable-background="new 0 0 200 200" xml:space="preserve">
<linearGradient id="SVGID_1_" gradientUnits="userSpaceOnUse" x1="5" y1="100" x2="195" y2="100">
	<stop  offset="0" style="stop-color:#2C4F76"/>
	<stop  offset="1" style="stop-color:#5F84AE"/>
</linearGradient>
<circle fill="url(#SVGID_1_)" cx="100" cy="100" r="95"/>
<path fill="#FFFFFF" d="M57.3,130c2.2,0,4,1.8,4,4s-1.8,4-4,4s-4-1.8-4-4S55,130,57.3,130 M57.3,121c-7.2,0-13,5.8-13,13
	s5.8,13,13,13s13-5.8,13-13S64.4,121,57.3,121L57.3,121z"/>
<path fill="#FFFFFF" d="M143,62c2.2,0,4,1.8,4,4s-1.8,4-4,4s-4-1.8-4-4S140.8,62,143,62 M143,53c-7.2,0-13,5.8-13,13s5.8,13,13,13
	s13-5.8,13-13S150.2,53,143,53L143,53z"/>
<path fill="#FFFFFF" d="M100,103c-12.2,0-22,9.8-22,22c0,12.1,9.8,22,22,22s22-9.9,22-22C122,112.8,112.2,103,100,103z M100,138
	c-7.2,0-13-5.8-13-13c0-4,1.8-7.6,4.7-10l8.3-9l8.3,9l0,0c2.9,2.4,4.7,6,4.7,10C113,132.2,107.2,138,100,138z"/>
<path fill="#FFFFFF" d="M57.3,129c-2.5,0-4.5-2-4.5-4.5v-67c0-2.5,2-4.5,4.5-4.5s4.5,2,4.5,4.5v67C61.8,127,59.7,129,57.3,129z"/>
<path fill="#FFFFFF" d="M142.5,147c-2.5,0-4.5-2-4.5-4.5v-67c0-2.5,2-4.5,4.5-4.5s4.5,2,4.5,4.5v67C147,145,145,147,142.5,147z"/>
<path fill="#FFFFFF" d="M111.4,116.1c-1.2,0-2.3-0.4-3.2-1.3L54.1,60.7c-1.8-1.8-1.8-4.6,0-6.4c1.8-1.8,4.6-1.8,6.4,0l54.1,54.1
	c1.8,1.8,1.8,4.6,0,6.4C113.7,115.7,112.5,116.1,111.4,116.1z"/>
<path fill="#FFFFFF" d="M87.3,117.4c-1.2,0-2.3-0.4-3.2-1.3c-1.8-1.8-1.8-4.6,0-6.4l28.4-28.4c1.8-1.8,4.6-1.8,6.4,0
	c1.8,1.8,1.8,4.6,0,6.4l-28.4,28.4C89.6,117,88.4,117.4,87.3,117.4z"/>
</svg>
