<?xml version="1.0" encoding="utf-8"?>
<!-- Generator: Adobe Illustrator 22.1.0, SVG Export Plug-In . SVG Version: 6.00 Build 0)  -->
<svg version="1.1" id="Livello_1" xmlns="http://www.w3.org/2000/svg" xmlns:xlink="http://www.w3.org/1999/xlink" x="0px" y="0px"
	 viewBox="0 0 200 200" style="enable-background:new 0 0 200 200;" xml:space="preserve">
<style type="text/css">
	.st0{fill:#1276C0;}
</style>
<title>cov</title>
<path class="st0" d="M178.8,90.6c-1.5-9.8-5.2-19.1-10.9-27.2c-1.2-1.7-2.4-3.3-3.7-4.8c-2.2-2.6-4.6-4.9-7.1-7.1
	c-1.5-1.3-3.1-2.5-4.8-3.7c-8.1-5.7-17.4-9.4-27.2-10.9c-2-0.3-4-0.5-6.1-0.6c-1.2-0.1-2.3-0.1-3.4-0.1c-2.2,0-4.5,0.1-6.7,0.3
	c-2,0.2-4,0.5-6,0.9c-9.4,1.9-18.2,5.9-25.8,11.7c-1.6,1.2-3.2,2.5-4.6,3.9c-2.5,2.3-4.8,4.8-6.9,7.4c-1.2,1.6-2.4,3.2-3.6,5
	c-5,7.6-8.2,16.2-9.5,25.2c-0.3,2-0.5,4-0.6,6c-0.1,1.1-0.1,2.3-0.1,3.4c0,2.2,0.1,4.5,0.4,6.7c0.2,2,0.5,4,0.9,6
	c1.7,8.6,5.2,16.7,10.3,23.8c1.2,1.7,2.4,3.3,3.7,4.8c2.2,2.6,4.6,4.9,7.1,7.1c1.5,1.3,3.1,2.6,4.8,3.7c7.1,5,15.3,8.5,23.8,10.3
	c4.2,0.8,8.5,1.2,12.8,1.3c1.1,0,2.2,0,3.4-0.1c2-0.1,4.1-0.3,6.1-0.6c9-1.3,17.6-4.6,25.2-9.5c1.7-1.1,3.4-2.3,5-3.6
	c2.6-2.1,5.1-4.4,7.4-6.9c1.4-1.5,2.7-3,3.9-4.6c5.8-7.6,9.8-16.5,11.7-25.8c0.4-2,0.7-4,0.9-6.1c0.2-2.2,0.4-4.5,0.4-6.7
	c0-1.1,0-2.2-0.1-3.4C179.3,94.6,179.1,92.6,178.8,90.6L178.8,90.6z M169.8,105.7c-0.2,1.7-0.5,3.5-0.8,5.2c-1.6,8-5,15.5-9.9,22
	c-1,1.4-2.2,2.7-3.3,4c-1.9,2.1-4.1,4.1-6.3,5.8c-1.4,1.1-2.8,2.1-4.3,3c-6.5,4.2-13.9,7-21.5,8.1c-1.7,0.2-3.4,0.4-5.1,0.5h-2.8
	c-1.9,0-3.8-0.1-5.7-0.3c-1.7-0.2-3.5-0.5-5.2-0.8c-7.3-1.5-14.3-4.5-20.4-8.8c-1.4-1-2.8-2.1-4.1-3.2c-2.2-1.9-4.2-3.9-6.1-6.1
	c-1.1-1.3-2.2-2.7-3.2-4.1c-4.3-6.1-7.3-13-8.8-20.4c-0.3-1.7-0.6-3.4-0.8-5.1c-0.2-1.9-0.3-3.8-0.3-5.7c0-1,0-1.9,0.1-2.9
	c0.1-1.7,0.3-3.5,0.5-5.1c1.1-7.7,3.9-15,8.1-21.5c0.9-1.5,2-2.9,3-4.2c1.8-2.3,3.8-4.4,5.9-6.3c1.3-1.2,2.6-2.3,4-3.3
	c6.5-4.9,14-8.3,22-9.9c1.7-0.3,3.4-0.6,5.1-0.8c1.9-0.2,3.8-0.3,5.7-0.3c1,0,1.9,0,2.9,0.1c1.7,0.1,3.5,0.3,5.1,0.5
	c8.4,1.3,16.3,4.4,23.2,9.3c1.4,1,2.8,2.1,4.1,3.2c2.2,1.9,4.2,3.9,6,6.1c1.1,1.3,2.2,2.7,3.2,4.1c4.8,6.9,8,14.9,9.3,23.2
	c0.2,1.7,0.4,3.4,0.5,5.1c0,1,0.1,1.9,0.1,2.9C170.1,101.9,170,103.8,169.8,105.7L169.8,105.7z"/>
<path class="st0" d="M40.8,95.9c2.6,0.3,4.9-1.5,5.2-4.1c1.4-11.7,5.7-22.8,12.5-32.4c1-1.4,2.1-2.9,3.2-4.2c1.9-2.3,3.9-4.4,6-6.4
	c1.3-1.2,2.6-2.4,4-3.5c9.5-7.6,20.8-12.7,32.8-14.6c2.6-0.4,4.3-2.8,3.9-5.4c-0.4-2.6-2.8-4.3-5.4-3.9
	c-13.6,2.2-26.5,7.9-37.2,16.5c-1.6,1.3-3.1,2.6-4.5,4c-2.4,2.3-4.7,4.7-6.8,7.2c-1.3,1.5-2.5,3.1-3.6,4.7
	c-7.7,10.9-12.6,23.5-14.1,36.8C36.4,93.3,38.3,95.6,40.8,95.9L40.8,95.9z"/>
<path class="st0" d="M168.1,40.4c-1.5-1.3-3-2.6-4.6-3.8c-11.3-8.5-24.6-13.9-38.6-15.5h-0.5c-2.4,0-4.4,1.8-4.6,4.1
	c-0.3,2.6,1.5,4.9,4.1,5.2c12.4,1.4,24.2,6.2,34.1,13.7c1.4,1.1,2.8,2.2,4.1,3.3c2.2,1.9,4.3,4,6.2,6.2c1.5,2.1,4.5,2.5,6.5,0.9
	c2.1-1.5,2.5-4.5,0.9-6.5c-0.1-0.2-0.3-0.4-0.5-0.5C173,45,170.6,42.6,168.1,40.4L168.1,40.4z"/>
<path class="st0" d="M63,159.5c1.5,1.3,3,2.6,4.6,3.8c10.4,7.8,22.5,13,35.4,15.1c2.6,0.3,4.9-1.5,5.3-4c0.3-2.5-1.3-4.8-3.8-5.2
	c-11.3-1.8-22.1-6.4-31.2-13.3c-1.4-1-2.8-2.2-4.1-3.3c-2.2-1.9-4.3-4-6.2-6.2c-1.2-1.3-2.3-2.7-3.3-4.1
	c-6.9-9.2-11.4-19.9-13.2-31.2c-0.5-2.5-3-4.2-5.5-3.7c-2.4,0.5-4,2.7-3.7,5.2c2.1,12.8,7.2,25,15.1,35.4c1.2,1.6,2.5,3.1,3.8,4.6
	C58.2,155,60.5,157.3,63,159.5L63,159.5z"/>
<path class="st0" d="M170.2,146.4c-1.3,0-2.5,0.5-3.4,1.5c-2,2.1-4.1,4.1-6.4,6c-1.4,1.1-2.8,2.2-4.2,3.2
	c-9.6,6.8-20.7,11.1-32.4,12.5c-2.6,0.1-4.6,2.2-4.6,4.8s2.2,4.6,4.8,4.6c0.3,0,0.6,0,0.9-0.1c13.2-1.5,25.9-6.4,36.8-14.1
	c1.6-1.2,3.2-2.4,4.8-3.7c2.6-2.1,5-4.4,7.2-6.8c1.8-1.9,1.7-4.8-0.2-6.6C172.5,146.8,171.4,146.4,170.2,146.4L170.2,146.4z"/>
<path class="st0" d="M167.2,168.3c-12.6,9.5-27.6,15.4-43.4,16.9c-1.8,0.2-3.6,0.3-5.3,0.3c-3,0.1-6,0-8.9-0.1
	c-1.8-0.1-3.6-0.3-5.3-0.5c-15.4-2-29.9-8.2-42.1-17.9c-0.8-0.7-1.8-1-2.9-1c-1.4,0-2.8,0.6-3.7,1.7c-1.6,2-1.3,5,0.7,6.6
	c13.5,10.7,29.6,17.6,46.7,19.8c2,0.2,3.9,0.5,5.9,0.6c3.3,0.2,6.5,0.3,9.8,0.2c2-0.1,4-0.2,5.9-0.4c17.5-1.7,34.1-8.1,48.1-18.7
	c2-1.6,2.3-4.6,0.7-6.6C172,167.3,169.2,167,167.2,168.3L167.2,168.3z"/>
<path class="st0" d="M30.7,111.1c-0.2-1.7-0.4-3.5-0.5-5.3c-0.1-1.9-0.2-4-0.2-6v-3c0.1-1.7,0.2-3.5,0.4-5.3
	c1.5-15.7,7.3-30.8,16.9-43.4c1.5-2,1.1-4.9-0.9-6.4c-0.8-0.5-1.8-0.8-2.8-0.8c-1.5,0-2.8,0.7-3.7,1.8C29.2,56.7,22.7,73.4,21,90.8
	c-0.2,2-0.3,4-0.4,5.9c-0.1,1.1-0.1,2.2-0.1,3.3c0,2.2,0.1,4.4,0.2,6.5c0.1,2,0.3,3.9,0.6,5.9c2.2,17.1,9.1,33.2,19.8,46.7
	c1.7,2,4.6,2.2,6.6,0.5c1.9-1.6,2.2-4.4,0.7-6.4C38.9,141.1,32.7,126.5,30.7,111.1L30.7,111.1z"/>
<path class="st0" d="M60.7,34.3c12.4-10.4,27.6-17.1,43.7-19.2c1.7-0.2,3.5-0.4,5.3-0.5c3-0.2,6-0.3,8.9-0.1
	c1.7,0.1,3.5,0.2,5.3,0.3c16.5,1.6,32.1,7.9,45,18.2c2,1.6,5,1.3,6.6-0.7c1.6-2,1.3-5-0.7-6.6l0,0c-14.4-11.4-31.7-18.5-50-20.2
	c-2-0.2-4-0.3-5.9-0.4C117.8,5,116.7,5,115.6,5c-2.2,0-4.4,0.1-6.6,0.2c-2,0.1-3.9,0.3-5.9,0.6c-17.9,2.3-34.7,9.7-48.5,21.3
	c-1.9,1.8-1.9,4.8-0.1,6.6C56.1,35.4,58.7,35.6,60.7,34.3L60.7,34.3z"/>
<path class="st0" d="M94.6,99.9c-2.5,0-4.5,2-4.5,4.5v11.2c0,2.5,2,4.5,4.5,4.5s4.5-2,4.5-4.5v-11.2C99.2,101.9,97.2,99.9,94.6,99.9
	C94.6,99.9,94.6,99.9,94.6,99.9z"/>
<path class="st0" d="M112,85.9c-2.5,0-4.5,2.1-4.5,4.5c0,0,0,0,0,0v25.2c0.1,2.5,2.2,4.4,4.7,4.3c2.3-0.1,4.2-2,4.3-4.3V90.4
	C116.6,87.9,114.5,85.9,112,85.9C112,85.9,112,85.9,112,85.9z"/>
<path class="st0" d="M129.4,68.6c-2.5,0-4.5,2-4.5,4.5c0,0,0,0,0,0v42.4c0.1,2.5,2.2,4.4,4.7,4.3c2.3-0.1,4.2-2,4.3-4.3V73.1
	C134,70.6,132,68.6,129.4,68.6C129.4,68.6,129.4,68.6,129.4,68.6z"/>
</svg>
