<?xml version="1.0" encoding="utf-8"?>
<!-- Generator: Adobe Illustrator 22.1.0, SVG Export Plug-In . SVG Version: 6.00 Build 0)  -->
<svg version="1.0" id="Layer_1" xmlns="http://www.w3.org/2000/svg" xmlns:xlink="http://www.w3.org/1999/xlink" x="0px" y="0px"
	 viewBox="0 0 200 200" style="enable-background:new 0 0 200 200;" xml:space="preserve">
<style type="text/css">
	.st0{fill:#FF0005;}
	.st1{fill:#00BFFF;}
</style>
<path id="path0_fill" d="M36,152.3h-0.9V195H10.8V50.6h23.8v6.7h0.9c8.2-7.9,18.9-8.1,24.8-8.1c24.8,0,41.2,23.4,41.2,54.7v4.2
	c0,32.7-18.9,51.9-41.4,51.9C49.1,160,41.4,157.7,36,152.3L36,152.3z M78.8,109.9v-7.2c0-20.4-7.7-34.1-21.8-34.1
	c-15.2,0-23.2,15.8-23.2,34.1v7c0,17.4,7.9,30.6,23.6,30.6C69.7,140.5,78.8,131,78.8,109.9L78.8,109.9z"/>
<path id="path1_fill" d="M143.7,49.9h-24.3v108.8h24.3V49.9z"/>
<path id="path2_fill" class="st0" d="M143.7,5h-24.3v26h24.3V5z"/>
<path id="path3_fill" class="st1" d="M189.2,137.5h-24.3v26h24.3L189.2,137.5L189.2,137.5z"/>
</svg>
