<svg xmlns="http://www.w3.org/2000/svg" viewBox="0 0 200 200"><path fill-rule="evenodd" d="M5 100c0 2.3 21.7 11.7 26.3 14.7 9.7 6.4 18.9 13.4 27.2 21.5 14.6 14.3 27.1 30.7 36.3 49 1 1.9 2 3.9 3 5.8 2.3 5 3.2 3.8 5.2-1 4.9-11.8 12.6-22.5 20.2-32.7 11.5-15.3 24.9-28.4 40.7-39.3 5.1-3.6 10.4-6.8 15.9-9.8 2.6-1.4 14.4-5.3 15.1-7.9.4-1.6-12-7.4-14.5-8.9-12.5-7.3-24.8-14.5-35.3-24.8-9.3-9.1-18.4-18.6-25.9-29.3-6.4-9.1-15-27.2-16.7-31-.8-1.9-2.3-1.4-2.9.1-1.4 4-3.8 7.3-5.5 10.5-8.6 16-20.5 32.2-33.6 44.7-7.7 7.4-16.2 13.8-24.9 20C31.1 84.8 5 98 5 100z" clip-rule="evenodd"/><path fill="#0edab0" fill-rule="evenodd" d="M43.3 100c4.2 3.3 8.3 7 11.7 9.5 4.8 3.5 9.3 7.2 13.6 11.2 11.6 10.9 21.8 23 31.1 36 13.2-16.5 26.5-33.1 43.5-46 2.3-1.7 11.1-8.4 13.1-10.1-4.2-3.4-12.1-10.6-15-12.8-12.6-10-24.6-22.2-34.3-34.9-1.2-1.6-4.3-8.5-6-9.3-2.6-1.2-4.5 4.3-6 6.5-5 7.4-11.1 14-17.3 20.4-6 6.1-12.1 12.2-18.9 17.5-4 3.1-10.9 8.9-15.5 12z" clip-rule="evenodd"/><path fill="#0098da" fill-rule="evenodd" d="M50.3 100c17.1 13.3 31.7 27.4 45.5 44.1 3.9 4.7 3.3 5.9 7.4.9 6.3-7.6 12.4-15.7 19.6-22.5 3-2.9 6.2-5.6 9.3-8.4 5.5-4.9 12.6-8.8 17.6-14.1-6.9-5.3-13.9-10.5-20.4-16.3-6.1-5.5-11.3-11.5-16.8-17.5-4.4-4.8-8.9-9.9-12.5-15.1-4.7 5.6-9.2 11.2-14 16.8-5.3 6.2-11.4 11.5-17.2 17.2-5.7 5.6-12.6 9.6-18.5 14.9z" clip-rule="evenodd"/></svg>