<?xml version="1.0" encoding="UTF-8"?>
<!DOCTYPE svg PUBLIC "-//W3C//DTD SVG 1.1//EN" "http://www.w3.org/Graphics/SVG/1.1/DTD/svg11.dtd">
<!-- Creator: CorelDRAW 2018 (64-Bit Evaluation Version) -->
<svg xmlns="http://www.w3.org/2000/svg" xml:space="preserve" width="400px" height="400px" version="1.1" style="shape-rendering:geometricPrecision; text-rendering:geometricPrecision; image-rendering:optimizeQuality; fill-rule:evenodd; clip-rule:evenodd"
viewBox="0 0 108.02 108.02"
 xmlns:xlink="http://www.w3.org/1999/xlink">
 <defs>
  <style type="text/css">
   <![CDATA[
    .fil0 {fill:black}
    .fil2 {fill:#0098DA}
    .fil1 {fill:#0EDAB0}
   ]]>
  </style>
 </defs>
 <g id="Layer_x0020_1">
  <metadata id="CorelCorpID_0Corel-Layer"/>
  <g id="_705713984">
   <path class="fil0" d="M0 54.01c0,1 1.7,0.98 4.41,2.34 6.88,3.46 10.49,5.93 16.65,10.35 10.35,7.42 22.06,20.96 28.27,32.49l3.33 6.67c0.37,0.86 0.38,2.16 1.35,2.16 1.02,0 1.12,-2 2.34,-4.42 3.7,-7.34 8.39,-13.89 13.44,-20.31 2.05,-2.62 3.97,-4.88 6.29,-7.21l5.27 -4.73c6.73,-5.99 14.27,-10.86 22.35,-14.91 2.24,-1.12 4.32,-1.51 4.32,-2.43 0,-0.85 -2.01,-1.28 -4.32,-2.43l-12.8 -7.45c-2.84,-1.88 -8.64,-6.31 -11.3,-8.96l-8.24 -8.5c-4.31,-4.53 -9.65,-12.56 -12.58,-17.94 -0.85,-1.55 -1.56,-2.85 -2.34,-4.41 -0.35,-0.69 -0.78,-1.46 -1.08,-2.16 -0.29,-0.68 -0.61,-1.78 -1.02,-2.16l-0.59 0c-0.29,0.24 -0.61,0.84 -0.99,1.99 -0.34,1.04 -0.6,1.46 -1.03,2.49 -2.78,6.76 -16.33,24.82 -21.53,28.96 -0.7,0.57 -1.1,1.13 -1.78,1.73 -0.68,0.6 -1.05,0.83 -1.75,1.49 -3.13,2.91 -9.84,7.75 -13.55,10.22 -1.43,0.96 -2.6,1.78 -4.12,2.62 -1.51,0.84 -2.94,1.7 -4.44,2.31 -0.84,0.34 -1.45,0.6 -2.32,0.93 -1.02,0.39 -2.24,0.29 -2.24,1.27z"/>
   <path class="fil1" d="M21.78 54.01c0.61,1.18 7.75,6.08 8.98,7.04 4.72,3.68 12.31,11.22 15.99,15.89 2.61,3.31 4.54,5.3 6.74,9.39 2.57,-2.53 4.99,-5.83 7.33,-8.77 4.69,-5.91 10.64,-11.55 16.28,-16.38l6.99 -5.17c1.06,-0.79 1.77,-0.9 2.15,-2.4 -2.46,-1.66 -11.21,-8.24 -13.49,-10.53 -4.71,-4.72 -14.68,-14.35 -17.68,-20.37 -0.67,-1.34 -1.27,-1.76 -2.04,-0.21 -3.51,7.12 -16.15,19.57 -22.09,24.38 -1.46,1.17 -8.8,6.41 -9.16,7.13z"/>
   <path class="fil2" d="M25.78 54.01l7.83 6.08c2.68,2.19 5.05,4.28 7.36,6.69 0.67,0.68 0.93,1.24 1.64,1.87 0.82,0.72 1.14,0.87 1.84,1.66l8.66 10.53c0.23,0.32 0.04,0.12 0.35,0.46l0.26 0.27c0.03,0.03 0.12,0.1 0.14,0.12 0.03,0.03 0.1,0.08 0.15,0.12 2.3,-2.5 4.19,-5.32 6.36,-7.67 2.4,-2.62 3.74,-4.58 6.68,-7.35l5.56 -4.99c1.86,-1.52 3.15,-2.93 5.76,-4.77 1.24,-0.88 3.01,-2.01 3.98,-3.02l-7.92 -6.11c-4.01,-3.41 -7.45,-6.46 -10.73,-10.34 -2.87,-3.38 -4.71,-4.91 -8.09,-9.47 -0.27,-0.37 -0.5,-0.65 -0.7,-0.91 -0.14,-0.17 -0.21,-0.27 -0.36,-0.45l-0.54 -0.53 -7.96 9.58c-0.61,0.71 -1.01,1.2 -1.63,1.89 -3.48,3.84 -6.36,5.96 -8.9,8.65 -0.63,0.67 -1.21,1 -1.89,1.63 -2.71,2.55 -6.19,4.54 -7.85,6.06z"/>
  </g>
 </g>
</svg>
