<?xml version="1.0" encoding="utf-8"?>
<!-- Generator: Adobe Illustrator 23.0.1, SVG Export Plug-In . SVG Version: 6.00 Build 0)  -->
<svg version="1.0" id="Livello_1" xmlns="http://www.w3.org/2000/svg" xmlns:xlink="http://www.w3.org/1999/xlink" x="0px" y="0px"
	 viewBox="0 0 200 200" enable-background="new 0 0 200 200" xml:space="preserve">
<g transform="matrix(1.4972,0,0,1.4972,403.0737,156.7613)">
	<g>
		
			<linearGradient id="SVGID_1_" gradientUnits="userSpaceOnUse" x1="-269.1768" y1="30.0904" x2="-268.8275" y2="30.0904" gradientTransform="matrix(296.3311 0 0 -296.3311 79554.6797 8894.0479)">
			<stop  offset="0" style="stop-color:#083B66"/>
			<stop  offset="1" style="stop-color:#083B66"/>
		</linearGradient>
		<circle fill="url(#SVGID_1_)" cx="-176.21" cy="-22.68" r="34.57"/>
	</g>
</g>
<g transform="matrix(5.4417,0,0,5.4417,232.7389,74.5398)">
	<g>
		
			<linearGradient id="SVGID_2_" gradientUnits="userSpaceOnUse" x1="-42.7128" y1="23.3305" x2="-42.3634" y2="23.3305" gradientTransform="matrix(243.1429 0 0 -366.9132 10347.7754 8566.9971)">
			<stop  offset="0" style="stop-color:#74D14C"/>
			<stop  offset="1" style="stop-color:#74D14C"/>
		</linearGradient>
		<path fill="url(#SVGID_2_)" d="M-37.53,4.67v11.78c0,0,0.73,2.03,3.16,1.97h5.92c0.17-0.01,0.05-6.4,0.05-6.86
			c0.02-3.18-0.26-6.15,1.25-9.11c0.56-1.11,1.34-2.08,2.29-2.88c0.26-0.22,2.75-2.13,2.94-1.95c-0.88-0.81-1.51-1.85-2.49-2.48
			c0,0-0.9-0.56-2.24,0.75L-37.53,4.67z"/>
	</g>
</g>
<g transform="matrix(5.4417,0,0,5.4417,170.9965,0.8404)">
	<g>
		
			<linearGradient id="SVGID_3_" gradientUnits="userSpaceOnUse" x1="-31.2956" y1="36.9112" x2="-30.9481" y2="36.9112" gradientTransform="matrix(401.5966 0 0 -221.5281 12537.709 8187.0122)">
			<stop  offset="0" style="stop-color:#7E7E7E"/>
			<stop  offset="1" style="stop-color:#7E7E7E"/>
		</linearGradient>
		<path fill="url(#SVGID_3_)" d="M-30.48,15.37l15.21-11.61c0,0,1.63-1.46,3.32,0l7.1,5.8c0,0-1.69,1.49-3.13,0.45l-5.07-4.03
			c0,0-0.71-0.68-1.58,0.2l-13.95,10.99L-30.48,15.37z"/>
	</g>
</g>
<g transform="matrix(5.4417,0,0,5.4417,238.0395,30.1411)">
	<g>
		
			<linearGradient id="SVGID_4_" gradientUnits="userSpaceOnUse" x1="-43.8983" y1="31.8625" x2="-43.5489" y2="31.8625" gradientTransform="matrix(93.3535 0 0 -79.1284 4059.9326 2523.7676)">
			<stop  offset="0" style="stop-color:#74D14C"/>
			<stop  offset="1" style="stop-color:#74D14C"/>
		</linearGradient>
		<path fill="url(#SVGID_4_)" d="M-38.12,4.91V1.34c0,0-0.18-1.1,1.34-1.14l4.65-0.03L-38.12,4.91z"/>
	</g>
</g>
<g transform="matrix(5.4417,0,0,5.4417,376.0885,131.0275)">
	<g>
		
			<linearGradient id="SVGID_5_" gradientUnits="userSpaceOnUse" x1="-69.0879" y1="12.995" x2="-68.7386" y2="12.995" gradientTransform="matrix(314.192 0 0 -314.1982 21653.3066 4081.6482)">
			<stop  offset="0" style="stop-color:#B1B1B1"/>
			<stop  offset="1" style="stop-color:#B1B1B1"/>
		</linearGradient>
		<path fill="url(#SVGID_5_)" d="M-43.48-11.45c-5.57,0-10.09,4.52-10.09,10.09c0,5.57,4.52,10.09,10.09,10.09S-33.4,4.2-33.4-1.37
			C-33.4-6.94-37.91-11.45-43.48-11.45z M-43.48,6.8c-4.51,0-8.17-3.67-8.17-8.17c0-4.5,3.67-8.17,8.17-8.17s8.17,3.67,8.17,8.17
			C-35.31,3.14-38.98,6.8-43.48,6.8z"/>
	</g>
</g>
<g transform="matrix(1.7983,0,0,1.7983,476.4142,258.1684)">
	<g>
		
			<linearGradient id="SVGID_6_" gradientUnits="userSpaceOnUse" x1="-266.0958" y1="-30.4665" x2="-265.7464" y2="-30.4665" gradientTransform="matrix(106.9953 0 0 -143.8505 28270.9609 -4450.3218)">
			<stop  offset="0" style="stop-color:#FFFFFF"/>
			<stop  offset="1" style="stop-color:#FFFFFF"/>
		</linearGradient>
		<path fill="url(#SVGID_6_)" d="M-184.31-68.63l-0.51-0.41l-1.75-1.4c-0.88,0.26-1.78,0.39-2.7,0.39c-2.14,0-4.24-0.74-5.92-2.08
			c-1.98-1.58-3.22-3.84-3.49-6.36c-0.12-1.08-0.05-2.15,0.18-3.18c-1.62,2.22-2.04,5.22-0.84,7.9c1.22,2.72,3.77,4.41,6.54,4.65
			l1.27,2.84l3.28,1.23l-0.98,2.51l2.52,0.95l-0.98,2.51l2.57,0.96l-1.02,2.62l0.03,0.04l4.42,1.65c0.5,0.19,0.84,0.06,1.06-0.49
			l1.38-3.54l-4.84-10.82L-184.31-68.63z"/>
	</g>
</g>
<g transform="matrix(1.7983,0,0,1.7983,450.0024,208.8406)">
	<g>
		
			<linearGradient id="SVGID_7_" gradientUnits="userSpaceOnUse" x1="-251.8795" y1="-2.0692" x2="-251.5301" y2="-2.0692" gradientTransform="matrix(79.2089 0 0 -77.2256 19760.0137 -217.2649)">
			<stop  offset="0" style="stop-color:#7E7E7E"/>
			<stop  offset="1" style="stop-color:#7E7E7E"/>
		</linearGradient>
		<path fill="url(#SVGID_7_)" d="M-183.4-64.97c-2.39,0-4.53,1.14-5.95,2.91c-1.09,1.37-1.75,3.13-1.75,5.04
			c0,3.06,1.69,5.73,4.16,7.05c0.02-0.72,0.13-1.45,0.32-2.16c-1.49-1.07-2.47-2.87-2.47-4.9c0-1.39,0.48-2.65,1.24-3.66
			c1.04-1.38,2.64-2.28,4.44-2.28c3.14,0,5.69,2.67,5.69,5.94c0,0.79-0.23,1.53-0.44,2.21c-0.15,0.48,0,0,0,0
			c-0.16,0.41-0.05,0.89,0.3,1.17c0.23,0.18,0.47,0.22,0.63,0.22c0.31,0,0.6-0.14,0.8-0.38c0.1-0.12,0.16-0.27,0.2-0.41
			c0.33-0.88,0.51-1.82,0.51-2.82C-175.7-61.4-179.16-64.97-183.4-64.97z"/>
	</g>
</g>
<g transform="matrix(1.7983,0,0,1.7983,490.3303,231.2608)">
	<g>
		
			<linearGradient id="SVGID_8_" gradientUnits="userSpaceOnUse" x1="-273.4042" y1="-15.3789" x2="-273.0548" y2="-15.3789" gradientTransform="matrix(146.8168 0 0 -125.1836 39935.5742 -1985.5898)">
			<stop  offset="0" style="stop-color:#74D14C"/>
			<stop  offset="1" style="stop-color:#74D14C"/>
		</linearGradient>
		<path fill="url(#SVGID_8_)" d="M-176.23-49.71l-0.39-3.78l-12.39-9.93c0.42-2.71-0.57-5.57-2.86-7.41
			c-1.47-1.18-3.24-1.75-4.99-1.74c0.32,0.97,0.5,2,0.5,3.08c0,1.11-0.2,2.22-0.58,3.28c-0.09,0.34-0.25,0.65-0.47,0.93
			c-0.49,0.61-1.23,0.97-2.02,0.97c-0.59,0-1.15-0.2-1.61-0.57c-0.7-0.56-1.05-1.44-0.94-2.32c0.01-0.09,0.03-0.19,0.05-0.3l0-0.02
			l0-0.01c0.02-0.08,0.04-0.16,0.07-0.23c0.19-0.61,0.36-1.19,0.36-1.73c0-0.49-0.08-0.95-0.22-1.39c-0.47,0.37-0.9,0.79-1.29,1.27
			c-2.74,3.41-2.19,8.39,1.23,11.13c2.32,1.86,5.37,2.2,7.95,1.15l2.42,1.94l3.48-0.41l0.28,2.68l2.68-0.31l0.28,2.68l2.72-0.32
			l0.29,2.8l0.05,0.02l4.69-0.55C-176.41-48.85-176.17-49.11-176.23-49.71z"/>
	</g>
</g>
</svg>
