<?xml version="1.0" encoding="utf-8"?>
<!-- Generator: Adobe Illustrator 22.1.0, SVG Export Plug-In . SVG Version: 6.00 Build 0)  -->
<svg version="1.0" id="Livello_1" xmlns="http://www.w3.org/2000/svg" xmlns:xlink="http://www.w3.org/1999/xlink" x="0px" y="0px"
	 viewBox="0 0 200 200" enable-background="new 0 0 200 200" xml:space="preserve">
<g>
	<path d="M69.3,147.3L40.4,172c-19.9-17.2-32.6-43.1-32.6-72c0-17.4,4.6-33.8,12.7-47.8l44,57.3l-14.2,14.2
		C50.4,123.6,55.1,137.8,69.3,147.3z"/>
	<path d="M144.9,17.5l-52,40L78.7,43.3C64.6,48,50.4,66.9,50.4,66.9L30.1,38.5C47,18.3,72,5.5,100,5.5
		C116.3,5.5,131.6,9.8,144.9,17.5z"/>
	<path d="M171.6,159.4c-16.9,21.4-42.7,35.1-71.6,35.1c-16.6,0-32.2-4.5-45.7-12.5l57.5-44.2L126,152c0,0,14.2-4.7,23.6-18.9
		L171.6,159.4z"/>
	<path d="M192.1,100c0,15.2-3.5,29.5-9.7,42.2l-23.4-28.1l-16.5-21.3l14.2-14.2c0,0-4.7-18.9-23.6-28.4l26.3-22.6
		C179.4,45.1,192.1,71,192.1,100z"/>
</g>
</svg>
