<?xml version="1.0" encoding="utf-8"?>
<!-- Generator: Adobe Illustrator 22.1.0, SVG Export Plug-In . SVG Version: 6.00 Build 0)  -->
<svg version="1.0" id="Livello_1" xmlns="http://www.w3.org/2000/svg" xmlns:xlink="http://www.w3.org/1999/xlink" x="0px" y="0px"
	 viewBox="0 0 200 200" style="enable-background:new 0 0 200 200;" xml:space="preserve">
<path d="M161.1,45.5l-60.8-27c-0.6-0.4-1.1,0-1.1,0l-61,27.6l-19.9,54.5L38.5,154l60.9,27.7l62-27.8l20.3-53.6L161.1,45.5z
	 M142.7,137.4l-43.1,19.4l-42.3-19.2l-14.1-37.2L57,62.5l42.5-19.2c0,0,0.3-0.3,0.7,0l42.2,18.8l14.4,38.1L142.7,137.4z"/>
<path d="M87,90.5c-1.2-0.6-1.9-0.9-3.1-1.5c-0.5-0.2-1-0.4-1.5-0.5c-0.7-0.3-1.4-0.5-2.2-0.8c-0.7-0.2-1.3-0.4-2-0.6
	C77.8,87,77.4,87,77,86.9c-0.7-0.2-1.4-0.3-2-0.5c-1.4-0.4-2.8-0.4-4.1-0.2c-0.9,0.1-2,0.5-2.6,1.4c-0.5,0.8-0.8,1.7-0.8,2.6
	c0,1-0.1,2,0.1,2.9c0.2,1.1,0.7,2.1,1.1,3.1c0.4,0.8,0.8,1.7,1.3,2.5c0.7,1,1.4,2,2.2,2.8c1.2,1.2,2.4,2.4,3.7,3.5
	c0.8,0.7,1.7,1.2,2.6,1.6c0.5,0.3,1.2,0.3,1.8,0.4c0.4,0.1,0.8,0.2,1.2,0.2c0.9,0.1,1.8-0.3,2.6-0.6c1.5-0.4,2.5-1.4,3.5-2.5
	c0.6-0.7,1.2-1.5,1.7-2.3c0.5-0.9,1-1.8,1.5-2.7c0.6-1,1.2-2,1.8-3.1c0.5-0.9,0.9-1.8,1.4-2.6c0.6-1.1,1.1-2.2,1.8-3.3
	c0.4-0.8,1.1-1.4,1.5-2.2c0.5-1.1,1.3-2.1,2.1-3c1.4-1.7,2.9-3.2,4.9-4c1.1-0.4,2.2-0.9,3.3-1.3c0.4-0.1,0.3,0,0.5,0
	c0.9,0,1.8,0,2.7,0c1.3-0.1,2.5,0.4,3.7,0.9c0.9,0.4,1.8,0.7,2.6,1.1c0.2,0.1,0.5,0.5,0.4,0.8c-0.1,0.2-0.5,0.3-0.7,0.3
	c-2.1-0.6-3.9,0.4-5.6,1.4c-1.3,0.7-2.5,1.7-3.5,2.8c-0.8,0.9-1.9,1.7-2.5,2.8c-0.4,0.8-1.2,1.4-1.7,2.1c-1,1.4-1.9,2.9-2.8,4.4
	c-0.5,0.8-1,1.6-1.4,2.4c-0.4,0.8-0.8,1.6-1.3,2.3c-0.6,1-1.3,2-1.9,2.9c-0.7,1-1.3,2.1-2,3c-1.5,2-3,4-4.8,5.7
	c-1.1,1.1-2.5,1.9-4,2.5c-0.6,0.2-1.3,0.3-1.9,0.3c-0.9,0-1.9,0-2.8,0c-1,0-2-0.2-3-0.5c-1.6-0.6-3.2-1.2-4.6-2.1
	c-1.3-0.8-2.6-1.8-3.7-2.8c-1.2-1.1-2.3-2.2-3.4-3.4c-0.9-1-1.8-2.1-2.6-3.1c-0.5-0.7-1-1.5-1.4-2.3c-0.7-1.3-1.3-2.6-1.9-3.9
	c-0.3-0.7-0.5-1.5-0.7-2.2c-0.1-0.5-0.2-1-0.4-1.4c-0.6-1.4-0.5-3-0.3-4.4c0.3-1.9,0.8-3.9,2.3-5.4c0.9-1,2-1.7,3.2-2.2
	c0.8-0.3,1.8-0.4,2.7-0.4c1.3,0,2.6,0,4,0.1c0.6,0,1.2,0.3,1.8,0.5c0.7,0.2,1.5,0.5,2.2,0.7c0.8,0.3,1.5,0.6,2.3,0.9
	c0.9,0.4,1.7,0.7,2.6,1.1c1.2,0.7,2.4,1.4,3.6,2.1c1.2,0.8,2.5,1.6,3.7,2.5c0.3,0.2,0.6,0.3,1.1,1C88.4,91,87.2,90.6,87,90.5z"/>
<path d="M82.6,117.7c0.6,0.1,1.2,0.2,1.8,0.2c1.1,0.1,2.1-0.4,3-0.8c1.9-0.9,3.5-2.2,5-3.7c0.8-0.8,1.6-1.7,2.3-2.6
	c0.5-0.5,1-1.1,1.4-1.7c0.4-0.6,0.8-1.2,1.2-1.8c0.6-0.9,1.1-1.8,1.7-2.8c0.7-1.2,1.5-2.4,2.2-3.6c0.4-0.7,0.7-1.6,1.2-2.3
	c0.8-1.2,1.6-2.3,2.4-3.5c0.2-0.3,0.3-0.6,0.5-0.8c1-1.3,2-2.6,3-4c1.1-1.6,2.4-2.9,3.9-4c0.7-0.5,1.6-0.8,2.4-1.2
	c1.3-0.6,2.7-0.7,4.1-0.6c0.9,0,1.7,0,2.5,0.3c1.1,0.3,2.2,0.8,3.3,1.3c1.1,0.5,2.2,1.1,3.3,1.7c0.6,0.4,1.2,0.9,1.8,1.3
	c0.7,0.5,1.4,1.1,2,1.6c0.6,0.5,1.1,1.1,1.7,1.7c1.1,1.2,2.1,2.4,3.1,3.7c0.6,0.8,1.1,1.7,1.6,2.6c0.5,0.8,1,1.6,1.4,2.5
	c0.4,0.9,0.7,1.9,1,2.9c0.3,0.8,0.6,1.6,0.9,2.5c0.1,0.2,0.1,0.4,0.1,0.6c0,1.1,0,2.2,0,3.3c0,1-0.2,1.9-0.6,2.8
	c-0.3,0.7-0.4,1.5-0.9,2c-0.8,0.9-1.5,1.9-2.6,2.4c-0.8,0.3-1.5,0.9-2.3,1c-1.6,0.2-3.3,0.8-5,0.1c-0.2-0.1-0.4,0-0.7-0.1
	c-0.7-0.2-1.5-0.3-2.2-0.5c-0.8-0.2-1.6-0.4-2.4-0.7c-0.9-0.3-1.8-0.7-2.6-1.1c-0.6-0.3-1.2-0.5-1.7-0.8c-0.8-0.4-1.6-0.8-2.3-1.2
	c-1.4-0.9-2.8-1.8-4.2-2.8c-0.3-0.2-0.6-0.5-1-0.7c-0.4-0.2-1.3-1.2-0.4-1.1c0.6,0.3,1.2,0.6,1.7,0.8c0.7,0.3,1.3,0.6,2,0.9
	c0.8,0.3,1.5,0.7,2.3,0.9c0.7,0.3,1.4,0.5,2.2,0.7c0.8,0.2,1.7,0.5,2.5,0.7c0.5,0.1,1.1,0.3,1.7,0.3c1.5,0,2.9,0.1,4.4,0
	c1.2-0.1,2.2-0.7,2.7-2c0.5-1.3,0.7-2.5,0.4-3.8c-0.2-0.7-0.2-1.5-0.4-2.2c-0.1-0.4-0.4-0.8-0.5-1.2c-0.1-0.3-0.3-0.6-0.4-1
	c-0.5-1.6-1.6-3-2.7-4.2c-1-1.2-2.2-2.3-3.3-3.3c-0.7-0.6-1.4-1.1-2.1-1.6c-0.9-0.7-2-1-3.1-1.2c-1.2-0.2-2.4-0.4-3.5,0.2
	c-0.5,0.3-1.1,0.3-1.6,0.6c-0.6,0.3-1.2,0.7-1.6,1.2c-1,1.1-1.9,2.3-2.7,3.6c-1,1.6-1.8,3.3-2.7,4.9c-0.7,1.3-1.5,2.6-2.2,3.9
	c-0.4,0.8-0.8,1.7-1.2,2.5c-0.7,1.3-1.5,2.5-2.4,3.7c-0.4,0.6-1,1.2-1.6,1.8c-0.4,0.4-0.6,1-1,1.3c-1.3,1.1-2.6,2-4.1,2.7
	c-1.4,0.6-2.7,1-4.3,0.9c-0.8,0-1.7,0-2.5,0c-1.1,0-2.1-0.4-3.1-0.8c-0.6-0.3-1.3-0.4-1.9-0.8C83,118.7,82.3,118.5,82.6,117.7z"/>
<path d="M52.9,103c0-1.9,0-3.7,0-5.6c0.4,0,0.9,0,1.3,0c1.4,0,2.7,0,4.1,0c1.2,0,1.6,0.3,2,1.6c0.2,0.6,0.5,1.1,0.9,1.7
	c0.3,0.5,0.7,0.9,1,1.4c0.1,0.2,0.1,0.5,0.2,0.9C59.2,103,56.1,103,52.9,103z"/>
<path d="M146.9,103.1c-2.1,0-4,0-6,0c-0.2,0-0.4-0.1-0.5-0.3c-0.3-0.5-0.6-0.9-0.7-1.5c-0.2-0.9-0.8-1.6-1.3-2.5
	c-0.2-0.3-0.4-0.5-0.5-0.8c-0.2-0.5,0-0.7,0.5-0.7c2.5,0,4.9,0.1,7.4,0.1c0.4,0,0.7,0,1.1,0C146.9,99.4,146.9,101.2,146.9,103.1z"/>
</svg>
