<svg xmlns="http://www.w3.org/2000/svg" id="Livello_1" viewBox="0 0 200 200"><style>.st1{fill:#06c}</style><g id="Layer_2"><g id="Layer_1-2"><path fill="#06c" fill-rule="evenodd" d="M39.7 5h120.5C179.4 5 195 20.6 195 39.7v120.5c0 19.2-15.6 34.7-34.7 34.7H39.7C20.6 195 5 179.4 5 160.3V39.7C5.1 20.6 20.6 5.1 39.7 5zm120.6 12.5H39.7c-12.3 0-22.2 10-22.2 22.2v120.5c0 12.3 10 22.2 22.2 22.2h120.5c12.3 0 22.2-10 22.2-22.2V39.7c.1-12.2-9.9-22.2-22.1-22.2z" clip-rule="evenodd"/><path d="M68.6 135.9h43.6c3.1 0 5.9-1.9 7-4.9.3-.7.4-1.5.4-2.3v-3.5-.3H98.1c-18.1.1-33.7-12.5-37.6-30.2-.8-3.5-1.1-7.1-.8-10.8 1.2-16 12.2-29.7 27.7-34.1 2.5-.7 5.2-1.2 7.8-1.4l3.2-.1h13v15h-6.2c-9.8.1-18.5 6.6-21.2 16.1-.8 2.8-1.1 5.7-.8 8.6.7 7.4 5 13.9 11.6 17.5 2.6 1.5 5.5 2.3 8.5 2.6H120V71.2h20.3v58.1c.2 10.4-6.9 19.5-17 21.9-1.8.4-3.6.6-5.4.6H68.5l.1-15.9z" class="st1"/><path d="M120 63.4v-15h20.3v15H120z" class="st1"/></g></g></svg>