<svg xmlns="http://www.w3.org/2000/svg" version="1" viewBox="0 0 200 200"><linearGradient id="a" x1="100" x2="100" y1="4.1338" y2="195.8662" gradientUnits="userSpaceOnUse"><stop offset="0" stop-color="#cff3f4"/><stop offset="1" stop-color="#d6e0fc"/></linearGradient><path fill="url(#a)" d="M182.8 74.5V52.3l-19.2-11.1-15.8 9.1-29.3-16.9V15.2L99.2 4.1 80 15.2v18.7L52 50.1l-15.5-9-19.3 11.2v22.2l15.7 9.1v32.1l-15.7 9.1V147l19.2 11 15.3-8.8L80 165.5v19.3l19.2 11.1 19.2-11.1v-18.7L148 149l15.6 9 19.2-11.1v-22.2l-16.3-9.4V83.9l16.3-9.4zM55.6 55.4l27.8-16 15.8 9.1 16.3-9.4 28.9 16.7v13.8l-16.5 9.5-28.7-16.5L71 78.8l-15.4-8.9V55.4zm0 88.6v-19.3l-16.3-9.4V83.9l13.8-8 13.7 7.9v34.9l29 16.8v18l-11.9 6.9L55.6 144zm104.5-28.3l-15.7 9.1v18.9l-29.4 17-12.8-7.4v-17.6l29.3-16.9V84.4l15-8.7 13.5 7.8v32.2z"/><path fill="#FFF" d="M99.2 152.3l18.5 10.7v21.3L99.2 195l-18.5-10.7V163l18.5-10.7m0-1.7l-.8.4L80 161.7l-.8.4V185.2l.8.4 18.5 10.7.8.4.8-.4 18.5-10.7.8-.4V162.1l-.8-.4L99.9 151l-.7-.4zM99.2 62.9l32.2 18.6v37.1l-32.2 18.6L67 118.6V81.4l32.2-18.5m0-2.4l-1 .6L66 79.7l-1 .6V119.8l1 .6L98.2 139l1 .6 1-.6 32.2-18.6 1-.6V80.2l-1-.6L100.2 61l-1-.5zM163.6 42l18.5 10.7V74l-18.5 10.7L145.1 74V52.7L163.6 42m0-1.7l-.8.4-18.5 10.7-.8.4V74.9l.8.4L162.9 86l.8.4.8-.4L183 75.3l.8-.4V51.8l-.8-.4-18.5-10.7-.9-.4zM99.2 5l18.5 10.7V37L99.2 47.7 80.7 37V15.7L99.2 5m0-1.7l-.8.4L80 14.4l-.8.4V37.9l.8.4L98.4 49l.8.4.8-.4 18.5-10.7.8-.4V14.8l-.8-.4L99.9 3.7l-.7-.4zM36.4 42l18.5 10.7V74L36.4 84.7 17.9 74V52.7L36.4 42m0-1.7l-.8.4-18.4 10.7-.8.4V74.9l.8.4L35.6 86l.8.4.8-.4 18.5-10.7.8-.4V51.8l-.8-.4-18.6-10.7-.7-.4zM36.4 114.5l18.5 10.7v21.3l-18.5 10.7-18.5-10.7v-21.3l18.5-10.7m0-1.7l-.8.4-18.5 10.7-.8.4V147.4l.8.4 18.5 10.7.8.4.8-.4 18.5-10.7.8-.4V124.3l-.8-.4-18.5-10.7-.8-.4zM163.6 114.5l18.5 10.7v21.3l-18.5 10.7-18.5-10.7v-21.3l18.5-10.7m0-1.7l-.8.4-18.5 10.7-.8.4V147.4l.8.4 18.5 10.7.8.4.8-.4 18.5-10.7.8-.4V124.3l-.8-.4-18.5-10.7-.8-.4z"/></svg>