<?xml version="1.0" encoding="utf-8"?>
<!-- Generator: Adobe Illustrator 22.1.0, SVG Export Plug-In . SVG Version: 6.00 Build 0)  -->
<svg version="1.0" id="Livello_1" xmlns="http://www.w3.org/2000/svg" xmlns:xlink="http://www.w3.org/1999/xlink" x="0px" y="0px"
	 viewBox="0 0 200 200" enable-background="new 0 0 200 200" xml:space="preserve">
<circle fill="#3591F4" cx="100" cy="100" r="95"/>
<path fill="#1C5C8C" d="M129.9,92.7c-7.5,0-14.7,0.9-21.6,2.7c-1.7,0.4-3.3-0.9-3.2-2.6c0.1-1.9,0.2-3.8,0.2-5.7
	c0-26.3-11.8-49.8-30.3-65.6c-1.5-1.3-3.8-0.4-4.2,1.5c-0.8,4.8-1.3,9.8-1.3,14.9c0,23,9,43.8,23.6,59.3c1.2,1.3,0.8,3.3-0.7,4.1
	c-24.9,12.1-43.1,35.8-47.6,64.1c-0.3,1.9,1.6,3.5,3.4,2.8c26.2-9.4,46.6-31.2,54-58.3c0.5-1.7,2.5-2.4,3.9-1.4
	c14,9.8,31,15.6,49.4,15.6c10.7,0,20.9-1.9,30.4-5.5c1.8-0.7,2.2-3,0.8-4.3C171.6,100.8,151.7,92.7,129.9,92.7z"/>
<g>
	<path fill="#FFFFFF" d="M128.8,91.6c-7.5,0-14.7,0.9-21.6,2.7c-1.7,0.4-3.3-0.9-3.2-2.6c0.1-1.9,0.2-3.8,0.2-5.7
		c0-26.3-11.8-49.8-30.3-65.6C72.4,19.2,70,20,69.7,22c-0.8,4.8-1.3,9.8-1.3,14.9c0,23,9,43.8,23.6,59.3c1.2,1.3,0.8,3.3-0.7,4.1
		c-24.9,12.1-43.1,35.8-47.6,64.1c-0.3,1.9,1.6,3.5,3.4,2.8c26.2-9.4,46.6-31.2,54-58.3c0.5-1.7,2.5-2.4,3.9-1.4
		c14,9.8,31,15.6,49.4,15.6c10.7,0,20.9-1.9,30.4-5.5c1.8-0.7,2.2-3,0.8-4.3C170.5,99.7,150.6,91.6,128.8,91.6z"/>
</g>
</svg>
