<svg xmlns="http://www.w3.org/2000/svg" viewBox="0 0 200 200"><linearGradient id="a" x1="51.3" x2="171" y1="141.8" y2="67.2" gradientUnits="userSpaceOnUse"><stop offset="0" stop-color="#afd4eb"/><stop offset="1" stop-color="#7667b9"/></linearGradient><path fill="url(#a)" d="M158.9 5c-3.8 0-6.9 1.3-9.5 3.6a12.7 12.7 0 0 0-3.8 9.7v91.9h-.3c0 .3 0 .5.3.8v6.9c0 17.4-.5 28.7-15.6 43a43.8 43.8 0 0 1-29.5 10.5c-8.7 0-16.6-2-23.5-6.4a45.6 45.6 0 0 1-16.6-17.7 51.2 51.2 0 0 1-6.1-25.1c0-9.2 2.1-17.7 6.1-25.1a46 46 0 0 1 37.3-23.7l-9.2 9.2a13.1 13.1 0 0 0 0 18.2 13.1 13.1 0 0 0 18.2 0l30.2-30.2a13.1 13.1 0 0 0 0-18.2l-30.5-30.2a13.1 13.1 0 0 0-18.2 0 13.1 13.1 0 0 0 0 18.2l9.7 9.7h-2.8A65.2 65.2 0 0 0 37 85.7a73 73 0 0 0-9 36.6c0 13.6 3.1 25.9 9.5 37.1a71.6 71.6 0 0 0 62.7 35.6 70.4 70.4 0 0 0 62.3-35.6c6.4-11 9.5-23.3 9.5-37.1v-104c0-4.1-1.3-7.2-3.6-9.7a13.3 13.3 0 0 0-9.5-3.6z"/></svg>