<svg xmlns="http://www.w3.org/2000/svg" id="Layer_1" viewBox="0 0 200 200"><style>.st2{fill:#fff}</style><path fill="#f99b21" d="M100 5C47.5 5 5 47.5 5 100s42.5 95 95 95 95-42.5 95-95-42.5-95-95-95zm79.8 101.2c-2.9 41.3-37.3 73.8-79.3 73.8h-.5c-44.2 0-80-35.8-80-80s35.8-80 80-80 80 35.8 80 80c0 1.5 0 3.1-.1 4.6-.1.5-.1 1-.1 1.6z"/><path fill="#333e48" d="M100 20c-44.2 0-80 35.8-80 80s35.8 80 80 80h.3c42-.1 76.4-32.6 79.5-73.8 0-.5.1-1 .1-1.6.1-1.5.1-3 .1-4.6 0-44.2-35.8-80-80-80z"/><path d="M95.4 167.3h-8.8v-14.5H69.3V46h17.2V32.8h8.8V46h4.3V31h8.4v15h15v9.5h9.1v8.2h7.7v27h-7.7v18h7.7v27h-7.7v8.5H123v8.6h-15v11.8h-8.4v-11.8h-4.3v14.5zm-6.4-2.5h3.8v-14.5h9.3V162h3.4v-11.8h15v-8.6h9.1v-8.5h7.7v-22h-7.7v-23h7.7v-22h-7.7V58h-9.1v-9.5h-15v-15h-3.4v15h-9.3V35.3H89v13.1H71.8v101.8H89v14.6z" class="st2"/><path d="M123.9 90.6H86.5v-27h37.4v27zM89 88.1h32.4v-22H89v22zM123.9 135.6H86.5v-27h37.4v27zM89 133.1h32.4v-22H89v22z" class="st2"/></svg>