<?xml version="1.0" encoding="utf-8"?>
<!-- Generator: Adobe Illustrator 23.0.0, SVG Export Plug-In . SVG Version: 6.00 Build 0)  -->
<svg version="1.0" id="Livello_1" xmlns="http://www.w3.org/2000/svg" xmlns:xlink="http://www.w3.org/1999/xlink" x="0px" y="0px"
	 viewBox="0 0 200 200" enable-background="new 0 0 200 200" xml:space="preserve">
<path fill="#682A62" d="M177.15,175.24c0,0-18.59,19.76-59.27,19.76S62.1,175.24,62.1,175.24s19.76,9.3,55.78,9.3
	S177.15,175.24,177.15,175.24z"/>
<path fill="#0088E0" d="M28.98,130.5c0,0,0.79,16.92,22.17,27.22c17.36,8.37,58.01,13.45,101.01,1.83c0,0-0.58,8.72-8.72,12.2
	c0,0,4.65,4.65,11.62,4.65c0,0,0-6.97,4.65-12.78c4.65-5.81,8.13-2.32,9.3-11.62c0.73-5.88-1.16-10.46,1.16-12.78s6.97-1.16,0-3.49
	s-9.3,6.97-9.3,6.97s-3.46,4.73-5.81-2.32c-1.16-3.49-18.59,0-18.59,0s4.65,9.3,12.78,12.78C149.26,153.17,56.87,154.91,28.98,130.5
	z"/>
<path fill="#2EA6B8" d="M24.33,93.32c0,0-4,10.64,1.16,16.27c25.57,27.89,85.29,19.55,84.83,20.92c-0.68,2.03-1.97,2.75-5.44,4.24
	c0,0,3.32,3.32,8.3,3.32c0,0,0-4.98,3.32-9.13c3.32-4.15,5.81-1.66,6.64-8.3c0.52-4.2-0.83-7.47,0.83-9.13
	c1.66-1.66,4.98-0.83,0-2.49c-4.98-1.66-6.64,4.98-6.64,4.98s-2.47,3.38-4.15-1.66c-0.83-2.49-13.27,0-13.27,0s1.71,2.6,4.61,5.38
	C105.81,118.96,50.46,115.3,24.33,93.32z"/>
<path fill="#73B718" d="M70.94,95.29c1.82-0.31-1.92,4.18-4.91,5.46c0,0,2.86,2.86,7.16,2.86c0,0,0-4.29,2.86-7.87
	c2.86-3.58,5.01-1.43,5.73-7.16c0.45-3.62-0.72-6.44,0.72-7.87s4.29-0.72,0-2.15s-5.73,4.29-5.73,4.29s-2.13,2.92-3.58-1.43
	c-0.72-2.15-11.45,0-11.45,0s0.57,1.13,1.64,2.58c0.59,0.8-27.42-4.63-32.06-23.22c0,0-5.81,13.94-1.16,19.76
	C34.79,86.35,48.74,99.13,70.94,95.29z"/>
<path fill="#FFFF00" d="M116.14,68.91c-0.5,1.35-3.35,3.63-4.58,4.16c0,0,2.65,2.65,6.63,2.65c0,0,0-3.98,2.65-7.3
	s4.64-1.33,5.31-6.63c0.42-3.36-0.66-5.97,0.66-7.3c1.33-1.33,3.98-0.66,0-1.99s-5.31,3.98-5.31,3.98s-1.97,2.7-3.32-1.33
	c-0.66-1.99-10.62,0-10.62,0s0.53,1.05,1.52,2.39c0,0-49.9,2.07-59.2-22.33c0,0-6.97,5.81-10.46,12.78c0,0,9.66,11.65,29.66,17.38
	C87.13,70.54,112.65,68.91,116.14,68.91z"/>
<path fill="#E47427" d="M116.72,39.28c-0.87,0.91-4.03,4.77-5.1,5.23c0,0,2.33,2.33,5.81,2.33c0,0,0-3.49,2.33-6.39
	c2.33-2.91,4.07-1.16,4.65-5.81c0.37-2.94-0.58-5.23,0.58-6.39c1.16-1.16,3.49-0.58,0-1.74c-3.49-1.16-4.65,3.49-4.65,3.49
	s-1.73,2.37-2.91-1.16c-0.58-1.74-9.3,0-9.3,0s0.46,0.92,1.33,2.1c0,0-31.67-0.34-30.51-16.61c0,0-12.78,4.65-16.27,9.53
	c0,0,5.07,9.88,19.17,13.13C97.87,40.65,117.24,38.74,116.72,39.28z"/>
<path fill="#E43E8B" d="M119.62,5c-24.4,0-29.05,6.97-29.05,6.97s8.13,5.81,29.05,5.81s29.05-5.59,29.05-5.81
	C148.67,11.97,144.03,5,119.62,5z M119.62,12.58c-9.59,0-12.78-2.66-12.78-2.66s1.6-2.03,12.78-2.03s12.78,2.03,12.78,2.03
	C132.41,10.02,129.21,12.58,119.62,12.58z"/>
</svg>
