<svg xmlns="http://www.w3.org/2000/svg" viewBox="0 0 200 200"><linearGradient id="a" x1="100" x2="100" y1="195" y2="5" gradientUnits="userSpaceOnUse"><stop offset="0" stop-color="#304783"/><stop offset="1" stop-color="#6890cb"/></linearGradient><path fill="url(#a)" d="M180 195H20c-8.3 0-15-6.8-15-15V20c0-8.3 6.8-15 15-15h160c8.3 0 15 6.8 15 15v160c0 8.3-6.7 15-15 15z"/><path d="M149.6 103.8c0 4.1-.9 7.5-.9 7.5H68.2c1.6 22.3 13.2 32 36.1 32 16.4 0 28.9-2.5 37.7-8.2v16.6c-10.7 5-23.9 7.5-39.5 7.5-23 0-50.9-9.8-50.9-55.9 0-11.6-1.6-59.1 48.4-59.1s49.6 54.7 49.6 59.6zm-16.4-6.5c0-5-1.6-37.7-32-37.7-21.4 0-31.1 9.8-32 37.7h64z"/><path fill="#fff" d="M147.1 98.9c0 4.1-.9 7.5-.9 7.5H65.7c1.6 22.3 13.2 32 36.1 32 16.4 0 28.9-2.5 37.7-8.2v16.4c-10.7 5-23.9 7.5-39.5 7.5-23 0-50.9-9.8-50.9-55.9 0-11.6-1.6-59.1 48.4-59.1s49.6 55.7 49.6 59.8zm-16.4-6.6c0-5-1.6-37.7-32-37.7-21.4 0-31.1 9.8-32 37.7h64z"/></svg>