<svg xmlns="http://www.w3.org/2000/svg" viewBox="0 0 200 200"><linearGradient id="a" x1="5.3625" x2="194.6248" y1="93.8454" y2="110.3019" gradientTransform="matrix(1 0 0 -1 0 202)" gradientUnits="userSpaceOnUse"><stop offset="0" stop-color="#038da6"/><stop offset="1" stop-color="#016273"/></linearGradient><path fill="url(#a)" d="M100 195c-12.2 0-24.1-2.3-35.4-6.8l3.7-9.1c10.1 4.1 20.8 6.1 31.7 6.1 10.9 0 21.6-2.1 31.7-6.1l3.7 9.1c-11.3 4.5-23.2 6.8-35.4 6.8zm46.9-12.3l-4.8-8.6c19.2-10.9 33.2-28.5 39.6-49.6l9.4 2.8c-7.2 23.6-22.8 43.2-44.2 55.4zm-93.7 0c-5.5-3.1-10.7-6.8-15.5-10.9-13.5-11.9-23.5-27.3-28.7-44.5l9.4-2.8c4.7 15.5 13.6 29.2 25.7 39.8 4.3 3.7 8.9 7 13.9 9.8l-4.8 8.6zm-47-67.8c-.8-5-1.2-10-1.2-15 0-10.3 1.7-20.4 4.9-30.2 2.9-8.5 6.9-16.5 12-23.9l8.1 5.6c-4.6 6.6-8.2 13.8-10.7 21.4-2.9 8.7-4.4 17.8-4.4 27 0 4.5.4 9 1.1 13.5l-9.8 1.6zm187.6 0l-9.7-1.5c.7-4.3 1-8.8 1-13.2 0-2-.1-4.1-.2-6.1-1-15.3-6.2-30-15-42.6l8.1-5.6c9.8 14.1 15.5 30.5 16.7 47.6.2 2.2.2 4.5.2 6.8.1 4.8-.3 9.7-1.1 14.6zm-30.9-72.4c-2.2-2.4-4.6-4.7-7-6.9-14-12.2-31.8-19.6-50-20.8l.6-9.8c20.4 1.3 40.2 9.6 55.9 23.2 2.7 2.4 5.4 5 7.8 7.7l-7.3 6.6zm-125.8 0l-7.3-6.6C46.4 17.7 69 6.7 93.5 5.1l.9 9.8h-.3c-21.9 1.5-42.1 11.3-57 27.6z"/><path fill="#fff" d="M85 45.5c-6.1 6.1-7.9 15.2-4.6 23.3 3.3 8 11.2 13.1 19.7 13.1s16.4-5.2 19.7-13.1c3.3-8 1.5-17-4.6-23.3-3.9-3.9-9.4-6.2-15.1-6.2-5.7 0-11.2 2.3-15.1 6.2z"/><path fill="#f66" d="M47.9 47.7c-28.7 28.9-28.7 75.4 0 104.3L152.3 47.7c-28.9-28.9-75.7-28.9-104.4 0zm39.1 26c-7.2-7.2-7.2-18.9 0-26.1 7.2-7.2 18.9-7.2 26.1 0 7.2 7.2 7.2 18.9 0 26.1-7.3 7.1-18.9 7.1-26.1 0z"/><path fill="#d95e59" d="M152.3 151.9C123.4 123 76.8 123 48 151.9L152.3 47.7c28.7 28.7 28.7 75.4 0 104.2z"/><path fill="#fff4c7" d="M152.3 151.9c-28.9 28.9-75.5 28.9-104.3 0 28.6-28.8 75.4-28.8 104.3 0z"/><path fill="#016273" d="M93.5 54.1c-2.6 2.6-3.4 6.6-2 10 1.5 3.4 4.8 5.7 8.5 5.7s7.1-2.3 8.5-5.7c1.5-3.4.7-7.4-2-10-1.8-1.8-4.1-2.8-6.6-2.8-2.3.1-4.7 1.1-6.4 2.8z"/></svg>