<svg xmlns="http://www.w3.org/2000/svg" id="Livello_1" x="0" y="0" version="1.1" viewBox="0 0 200 200" xml:space="preserve"><style>.st0{fill:#c69c6a}.st1{fill:#fff}</style><path d="M97.3 191.7l60-91.7-60-91.7L40.9 100l56.4 91.7zm-44-91.7l44.3-72 50.6 72-50.6 72-44.3-72z" class="st0"/><path d="M97.3 5c-17.5 28.5-41 66.6-58.5 95 18.1 29.4 40.3 65.5 58.5 95 19.4-29.6 42.8-65.5 62.1-95L97.3 5zm0 186.7c-17.7-28.7-38.8-63-56.4-91.7C57.8 72.5 80.4 35.8 97.3 8.3c18 27.5 42 64.3 60 91.7 0 0-47.2 72.2-60 91.7z" class="st1"/><path d="M97.6 28l-44.3 72 29.3 47.6 1.1 1.8L97.6 172l50.6-72-50.6-72zm.1 140.8L55.4 100l42.3-68.8L146 100l-48.3 68.8z" class="st1"/><path d="M58.2 54.1h82.9l-19.7 27.6c-5.5-6.1-13.5-10-22.3-10s-16.7 3.8-22.2 9.9L58.2 54.1zm60.3 47.7c0 3.2-.8 6.2-2.2 8.8-3.2 6.3-9.7 10.6-17.3 10.6s-14-4.3-17.3-10.6c-1.4-2.6-2.2-5.6-2.2-8.8 0-3.2.8-6.2 2.2-8.8 3.2-6.3 9.7-10.6 17.3-10.6s14 4.3 17.3 10.6c1.4 2.6 2.2 5.6 2.2 8.8zm20.4 26.3l-5.3-7.4-1.1-1.6-5.2-7.3c1.2-3.1 1.8-6.5 1.8-10.1s-.6-6.9-1.8-10.1l6.5-9.1 1.1-1.6 5.3-7.3 1.1-1.6 20.5-28.6H38.2l18.5 27.3 1.1 1.6 6.5 9.6 1.1 1.6 5.4 8c-1.1 3.2-1.8 6.6-1.8 10.1 0 3.6.6 6.9 1.8 10.1l-4.3 6.3-1.1 1.6-6.5 9.6-1.1 1.6-19.6 29h123.5L140 129.6l-1.1-1.5zm2.2 21.3H58.2l5.8-8.5 1.1-1.6 6.5-9.6 1.1-1.6 4.2-6.2c5.5 6.1 13.4 9.9 22.2 9.9 8.9 0 16.8-3.8 22.3-10l4.7 6.6 1.1 1.6 5.5 7.7 1.1 1.5 7.3 10.2z" class="st0"/><path d="M99.1 71.8c8.9 0 16.8 3.8 22.3 10l19.7-27.6H58.2l18.7 27.5c5.4-6.1 13.3-9.9 22.2-9.9zm38.6-15.9L121.2 79c-5.9-5.8-13.8-9-22.1-9-8.2 0-16.1 3.2-22 8.9l-15.6-23h76.2zM99.1 82.4c-7.5 0-14 4.3-17.3 10.6-1.4 2.6-2.2 5.6-2.2 8.8 0 3.2.8 6.2 2.2 8.8 3.2 6.3 9.7 10.6 17.3 10.6s14-4.3 17.3-10.6c1.4-2.6 2.2-5.6 2.2-8.8 0-3.2-.8-6.2-2.2-8.8-3.3-6.3-9.8-10.6-17.3-10.6zm17.6 19.4c0 2.8-.7 5.5-1.9 8-3.1 5.9-9.1 9.6-15.7 9.6s-12.6-3.7-15.7-9.6c-1.3-2.5-2-5.2-2-8s.7-5.5 1.9-8c3.1-5.9 9.1-9.6 15.7-9.6s12.6 3.7 15.7 9.6c1.3 2.5 2 5.1 2 8z" class="st1"/><path d="M129.3 111.5c1-3.1 1.6-6.4 1.6-9.8 0-3.4-.5-6.7-1.6-9.8l35.8-50.2H34.9l34 50.1c-1.1 3.2-1.6 6.6-1.6 9.9s.5 6.6 1.6 9.9L36.8 159l-1.9 2.8h44l-1.1-1.8H38.2l32.6-48.1c-1.1-3.2-1.8-6.6-1.8-10.1 0-3.6.6-6.9 1.8-10.1L38.2 43.6h123.5l-34.4 48.2c1.2 3.1 1.8 6.5 1.8 10.1s-.6 6.9-1.8 10.1l34.4 48.2H90.2l1.1 1.8h73.8l-2-2.8-33.8-47.7z" class="st1"/><path d="M133.8 139.1l-1.1-1.5-5.5-7.7-1.1-1.6-4.7-6.6c-5.5 6.1-13.5 10-22.3 10s-16.7-3.8-22.2-9.9l-4.2 6.2-1.1 1.6-6.5 9.6-1.1 1.6-5.8 8.5h82.9l-7.3-10.2zm-72.3 8.5l3.5-5.1 1.1-1.6 6.5-9.6 1.1-1.6 3.5-5.1c5.9 5.6 13.8 8.9 22 8.9 8.3 0 16.2-3.2 22.1-9l3.8 5.3 1.1 1.6 5.6 7.8 1.1 1.5 4.9 6.9H61.5z" class="st1"/></svg>