<svg xmlns="http://www.w3.org/2000/svg" version="1" viewBox="0 0 200 200"><circle cx="100" cy="100" r="92.5" fill="#DC8A1C"/><path fill="#DAC78F" d="M100 10c49.63 0 90 40.37 90 90s-40.37 90-90 90-90-40.37-90-90 40.37-90 90-90m0-5C47.53 5 5 47.53 5 100s42.53 95 95 95 95-42.53 95-95-42.53-95-95-95z"/><g fill="#DAC78F"><path d="M20.72 105.45l8.13-.79c.49 2.73 1.48 4.73 2.98 6.01s3.52 1.92 6.06 1.92c2.69 0 4.72-.57 6.08-1.71 1.36-1.14 2.05-2.47 2.05-4 0-.98-.29-1.81-.86-2.5-.57-.69-1.58-1.29-3.01-1.79-.98-.34-3.21-.94-6.69-1.81-4.48-1.11-7.62-2.47-9.43-4.09-2.54-2.28-3.81-5.05-3.81-8.33 0-2.11.6-4.08 1.79-5.92 1.19-1.83 2.92-3.23 5.17-4.19 2.25-.96 4.96-1.44 8.15-1.44 5.2 0 9.11 1.14 11.73 3.42 2.63 2.28 4 5.32 4.14 9.12l-8.36.37c-.36-2.13-1.13-3.66-2.3-4.59-1.18-.93-2.94-1.4-5.29-1.4-2.43 0-4.33.5-5.7 1.5-.88.64-1.33 1.5-1.33 2.57 0 .98.41 1.82 1.24 2.51 1.05.89 3.61 1.81 7.68 2.77s7.07 1.95 9.02 2.98c1.95 1.03 3.47 2.43 4.57 4.21 1.1 1.78 1.65 3.98 1.65 6.59 0 2.37-.66 4.59-1.98 6.66-1.32 2.07-3.18 3.61-5.59 4.62-2.41 1.01-5.41 1.51-9.01 1.51-5.23 0-9.25-1.21-12.06-3.63-2.8-2.41-4.48-5.94-5.02-10.57zM67.28 118.92L57.4 77.53h8.56l6.24 28.43 7.57-28.43h9.94l7.26 28.91 6.35-28.91h8.41l-10.05 41.39H92.8l-8.24-30.95-8.22 30.95h-9.06zM150.12 118.92h-9.09l-3.61-9.4h-16.55l-3.42 9.4h-8.87l16.12-41.39h8.84l16.58 41.39zm-15.39-16.38l-5.7-15.36-5.59 15.36h11.29zM159.58 118.92V84.53H147.3v-7h32.89v7h-12.25v34.39h-8.36z"/></g></svg>