<svg xmlns="http://www.w3.org/2000/svg" viewBox="0 0 200 200"><linearGradient id="a" x1="51.2062" x2="44.7754" y1="1.6597" y2="8.9038" gradientTransform="matrix(11.8905 0 0 20 -467.597 20.9995)" gradientUnits="userSpaceOnUse"><stop offset="0" stop-color="#f37e5f"/><stop offset=".5" stop-color="#ec1c24"/><stop offset="1" stop-color="#cf232a"/></linearGradient><path fill="url(#a)" fill-rule="evenodd" d="M122.5 99.7c-5.7.5-14.3 4.1-16.9 7.7 11.7 3.3 19.9 10.6 24.4 21.9 4.6 11.6 4 23.3.1 35-4 12-19.9 22.5-30.9 20.4-19.3-3.7-33.1-26.7-27.8-45.8 6.3-22.8 23.5-37.8 37.4-56.3 7.3-9.7 12.9-20.2 12.3-32.9-.4-7-2.4-13.9-6-20-5.3-9.1-11.8-17.4-19.4-24.7 1.6 8.1 2.7 14.8 1.6 22-1.6 10-5.1 19.6-10.3 28.3-8.5 14.2-19.4 26.8-27.9 41-4.5 7.6-9.1 15.3-10.1 24.4-3.5 9.3-3.5 18.8-2.1 28.6 1.7 11.8 6.6 21.8 15.1 29.8 14.5 13.5 32.4 17.1 51.5 15.5 7-.6 13.8-2.7 19.9-6.2 22.2-13 29.5-39.4 23.5-61.4-4.8-18.1-16.6-28.8-34.4-27.3z" clip-rule="evenodd"/><linearGradient id="b" x1="78.3151" x2="53.1376" y1="8.707" y2="33.2994" gradientTransform="matrix(3.0348 0 0 5.9057 -77.796 12.5647)" gradientUnits="userSpaceOnUse"><stop offset="0" stop-color="#f37e5f"/><stop offset=".5" stop-color="#ec1c24"/><stop offset="1" stop-color="#cf232a"/></linearGradient><path fill="url(#b)" fill-rule="evenodd" d="M160.5 112.6c-1.3-12.3-7-22.5-14.6-32-5.1-6.3-10.9-12.5-10.4-21.9-7 10.1-3.2 20.1 2.9 27.8 7.5 9.3 18.5 15.8 22.1 28.3v-2.2z" clip-rule="evenodd"/><linearGradient id="c" x1="70.9335" x2="23.0315" y1="1.7184" y2="24.0163" gradientTransform="matrix(1.592 0 0 6.5012 -25.4577 14.6558)" gradientUnits="userSpaceOnUse"><stop offset="0" stop-color="#f37e5f"/><stop offset=".5" stop-color="#ec1c24"/><stop offset="1" stop-color="#cf232a"/></linearGradient><path fill="url(#c)" fill-rule="evenodd" d="M52.8 72.9c.2 7.5-2.5 14.2-5.6 20.7-6.3 13.1-8.9 26.7-7.1 41.1 1-11.6 4.7-22.3 9.4-32.7 4.2-9.3 7.2-18.8 3.3-29.1z" clip-rule="evenodd"/><linearGradient id="d" x1="79.0977" x2="54.9301" y1="16.3483" y2="67.6431" gradientTransform="matrix(3.1841 0 0 2.8288 -88.2437 19.1603)" gradientUnits="userSpaceOnUse"><stop offset="0" stop-color="#f37e5f"/><stop offset=".5" stop-color="#ec1c24"/><stop offset="1" stop-color="#cf232a"/></linearGradient><path fill="url(#d)" fill-rule="evenodd" d="M103.1 172.7c-3.2.8-6.8.1-9.7 2.4 10.2 6.1 22.9-.2 27.6-6.9 4-5.6 3.4-13.9-1.6-17.5 1 10.1-4.3 19.1-16.3 22z" clip-rule="evenodd"/><linearGradient id="e" x1="74.2952" x2="15.2753" y1="5.7665" y2="55.033" gradientTransform="matrix(1.2935 0 0 2.928 -9.9353 8.3528)" gradientUnits="userSpaceOnUse"><stop offset="0" stop-color="#f37e5f"/><stop offset=".5" stop-color="#ec1c24"/><stop offset="1" stop-color="#cf232a"/></linearGradient><path fill="url(#e)" fill-rule="evenodd" d="M65.6 74.8c4.8-2.9 7.4-6.7 9.9-11.2 4.4-7.7.6-13.7-10.5-16.6 6.5 9 4 18.2.6 27.8z" clip-rule="evenodd"/><linearGradient id="f" x1="105.2254" x2="50.9343" y1="24.9946" y2="109.7753" gradientTransform="matrix(1.393 0 0 1.6873 -9.388 10.339)" gradientUnits="userSpaceOnUse"><stop offset="0" stop-color="#f37e5f"/><stop offset=".5" stop-color="#ec1c24"/><stop offset="1" stop-color="#cf232a"/></linearGradient><path fill="url(#f)" fill-rule="evenodd" d="M121.6 77.6c-.6 7.2-6.5 10.8-10.8 16 13.8-4.3 15.8-6.3 10.8-16z" clip-rule="evenodd"/></svg>