<?xml version="1.0" encoding="utf-8"?>
<!-- Generator: Adobe Illustrator 22.1.0, SVG Export Plug-In . SVG Version: 6.00 Build 0)  -->
<svg version="1.1" id="Livello_1" xmlns="http://www.w3.org/2000/svg" xmlns:xlink="http://www.w3.org/1999/xlink" x="0px" y="0px"
	 viewBox="0 0 200 200" style="enable-background:new 0 0 200 200;" xml:space="preserve">
<style type="text/css">
	.st0{fill:url(#SVGID_1_);}
	.st1{fill:url(#SVGID_2_);}
	.st2{fill:url(#SVGID_3_);}
</style>
<linearGradient id="SVGID_1_" gradientUnits="userSpaceOnUse" x1="54.2215" y1="167.8176" x2="81.9581" y2="91.6727">
	<stop  offset="0" style="stop-color:#58C1DC"/>
	<stop  offset="1" style="stop-color:#378BC7"/>
</linearGradient>
<path class="st0" d="M5.1,176.3L94.7,21.4l28.7,81.5c0,0,0.7,3.7-3.2,2.9l-23.9-26c0,0-1.1-1.8-3.4,0L8.6,179.4
	C8.6,179.4,4.3,181.1,5.1,176.3z"/>
<linearGradient id="SVGID_2_" gradientUnits="userSpaceOnUse" x1="99.0798" y1="95.6749" x2="193.2" y2="95.6749">
	<stop  offset="0" style="stop-color:#58C1DC"/>
	<stop  offset="1" style="stop-color:#378BC7"/>
</linearGradient>
<path class="st1" d="M103.5,19.1l89.7,154.3l-86-17.4c0,0-3.6-1.3-1-4.3l34.1-9c0,0,1.2-0.3,0.8-3.1L99.2,21.5
	C98.8,21.5,99.2,15.5,103.5,19.1z"/>
<linearGradient id="SVGID_3_" gradientUnits="userSpaceOnUse" x1="29.5219" y1="150.5043" x2="173.1766" y2="146.5793">
	<stop  offset="0" style="stop-color:#ACADAD"/>
	<stop  offset="0.5" style="stop-color:#EFEEEE"/>
	<stop  offset="1" style="stop-color:#ACADAD"/>
</linearGradient>
<path class="st2" d="M192.5,182H12.8l56.7-68.5c0.2,0.3,2.1-1.1,2.8,2L62.9,148c0,0-1.6,2.4,1.1,3.5L193.8,178
	C193.8,178,197.2,180.4,192.5,182z"/>
</svg>
