<?xml version="1.0" encoding="utf-8"?>
<!-- Generator: Adobe Illustrator 22.1.0, SVG Export Plug-In . SVG Version: 6.00 Build 0)  -->
<svg version="1.0" id="Livello_1" xmlns="http://www.w3.org/2000/svg" xmlns:xlink="http://www.w3.org/1999/xlink" x="0px" y="0px"
	 viewBox="0 0 200 200" enable-background="new 0 0 200 200" xml:space="preserve">
<title>Hydro-Blu-100</title>
<desc>Created with Sketch.</desc>
<g id="Page-1">
	<g id="Hydro-Blu-100">
		<path id="Shape_4_" fill="#0971F5" d="M191.5,97.1C189.9,47.3,148.9,7.9,99,8.5S9,49.2,8.5,99c-0.5,49.8,38.9,90.9,88.7,92.5
			c25.3,0.8,49.7-8.9,67.6-26.8C182.6,146.9,192.3,122.4,191.5,97.1z M100,159.7c-25.3,0-45.8-21.5-45.8-48
			c0-14.6,10.5-34.4,31.5-59.4c2.4-3,6.2-7.4,11.7-13.2C98.1,38.4,99,38,100,38c1,0,1.9,0.4,2.6,1.1c5,5.4,8.6,9.6,11,12.4
			c21.5,25.3,32.2,45.4,32.2,60.1C145.7,138.2,125.3,159.7,100,159.7z"/>
	</g>
</g>
</svg>
