<svg xmlns="http://www.w3.org/2000/svg" viewBox="0 0 200 200"><path fill="#87888c" d="M192.1063 122.897c-12.5 51.1-64.2 82-115 69.2-51.1-12.5-82-64.2-69.2-115 12.5-51.1 64.2-82 115-69.2 51.1 12.5 82 64.2 69.2 115z"/><path fill="#fff" d="M141.9063 86.297c1.8-12.8-7.7-19.3-20.8-24.1l4.2-17.2-10.4-2.4-4.2 16.6c-2.7-.6-5.6-1.2-8.3-2.1l4.2-16.9-10.4-2.7-4.2 17.3c-2.4-.6-4.5-.9-6.5-1.5l-14.3-3.6-2.7 11.3s7.7 1.8 7.4 1.8c4.2 1.2 5.1 3.9 4.8 5.9l-4.8 19.6c.3 0 .6.3 1.2.3-.3 0-.6-.3-1.2-.3l-6.8 27.3c-.6 1.2-1.8 3.3-4.8 2.4 0 .3-7.7-1.8-7.7-1.8l-5.1 11.9 13.7 3.3c2.7.6 5.1 1.2 7.4 1.8l-4.5 17.2 10.4 2.7 4.2-17.2c3 .9 5.6 1.5 8.3 2.1l-4.1 17 10.4 2.7 4.5-17.2c17.8 3.3 31.2 2.1 36.8-14 4.5-13.1-.3-20.5-9.5-25.3 6.3-.9 11.3-5.4 12.8-14.9zm-23.8 33.6c-3.3 13.1-25 5.9-32.1 4.2l5.6-22.9c7.2 1.8 29.8 5 26.5 18.7zm3.3-33.6c-3 11.9-21.1 5.9-27 4.5l5-20.8c5.9 1.2 25 3.9 22 16.3z"/></svg>