<svg xmlns="http://www.w3.org/2000/svg" viewBox="0 0 200 200"><path fill="#b4e1ff" fill-rule="evenodd" d="M145 68.5c-.6 14.5-7.3 28.1-18.5 37.3-9.9-14.6-29.9-18.5-44.6-8.5-7.9 5.3-13 13.9-13.9 23.4h-1.4c-17.8 0-32.3 14.5-32.3 32.3 0 .8 0 1.5.2 2.3-8.9-10.3-15.1-22.6-18.2-35.7-.1-.5-.2-1-.4-1.5-.1-.6-.3-1.2-.4-1.9-.2-.9-.3-1.7-.5-2.6-.1-.4-.1-.7-.2-1.1-.2-1.2-.3-2.4-.5-3.7v-.2c-.3-2.9-.4-5.8-.4-8.7 0-45.7 36-83.3 81.7-85.1 28.6 1.3 50.6 25.3 49.4 53.7z" clip-rule="evenodd"/><path fill="#90d595" fill-rule="evenodd" d="M160.9 158.8c-16.1 16.9-38.3 26.4-61.6 26.4 0 0-11.3.2-18.9-2.2-7-2.7-10.5-10.5-7.9-17.4 1.7-4.6 5.8-7.9 10.7-8.6 10.7-1.2 21.3-3 31.7-5.5 26.7-7 55.1-33.1 55.1-67.5.4-16-3.8-31.8-12-45.5 34 32.4 35.3 86.2 2.9 120.3z" clip-rule="evenodd"/><path fill="#fff" fill-rule="evenodd" d="M147 38.4C159 54 161 73.1 161 84c0 29.9-24.9 52.6-48.4 58.7-10 2.4-20.3 4.2-30.5 5.3-11.1 1.6-19.4 11.1-19.4 22.3 0 2.4.5 4.8 1.2 7.1l.1.2c-4.7-2.1-9.2-4.7-13.4-7.6-9.2-9-9.4-23.7-.5-32.9 4.4-4.5 10.5-7.1 16.8-7.1 1.8 0 3.9 0 5.6-.2 2.4-.1 4.3-2.1 4.3-4.5v-1.2c0-12.8 10.3-23.1 23.1-23.1 9.1 0 17.4 5.3 21.1 13.7 1 2.2 3.6 3.3 5.9 2.3.2-.1.4-.3.6-.4 25.4-17.4 33.8-51 19.5-78.2z" clip-rule="evenodd"/><path fill="#41474e" d="M100 5C47.5 5 5 47.5 5 100s42.5 95 95 95 95-42.5 95-95-42.5-95-95-95zM15.9 118.2c-.1-.6-.3-1.2-.4-1.9-.2-.9-.3-1.7-.5-2.6-.1-.4-.1-.7-.2-1.1-.2-1.2-.3-2.4-.5-3.7v-.2c-.3-2.9-.4-5.8-.4-8.7 0-45.7 36-83.3 81.7-85.1 28.4 1.2 50.4 25.2 49.2 53.6-.6 14.5-7.3 28.1-18.5 37.4-9.9-14.7-29.9-18.5-44.6-8.5-7.9 5.3-13 13.9-13.9 23.4h-1.4c-17.8 0-32.3 14.5-32.3 32.3 0 .8 0 1.6.2 2.3-8.9-10.3-15.1-22.6-18.2-35.7.1-.5 0-1-.2-1.5zm47.9 59.1l.1.2c-4.7-2.1-9.2-4.7-13.4-7.6-9.2-9-9.4-23.7-.5-32.9 4.4-4.5 10.5-7.1 16.8-7.1 1.8 0 3.9 0 5.6-.2 2.4-.1 4.3-2.1 4.3-4.5V124c0-12.8 10.3-23.1 23.1-23.1 9.1 0 17.4 5.3 21.1 13.7 1 2.2 3.6 3.2 5.9 2.3.2-.1.4-.3.6-.4 25.4-17.3 33.8-50.8 19.5-78C159 54 161 73.1 161 84c0 29.9-24.9 52.6-48.4 58.7-10.1 2.4-20.2 4.2-30.5 5.3-11.1 1.6-19.4 11.1-19.4 22.3 0 2.3.4 4.7 1.1 7zm8.8-11.8c1.7-4.6 5.8-7.9 10.6-8.6 10.7-1.2 21.3-3 31.7-5.5 26.7-7 55.1-33.1 55.1-67.5.4-16-3.8-31.8-12-45.5 34 32.4 35.4 86.3 2.9 120.3-16.1 16.9-38.3 26.4-61.6 26.4 0 0-11.3.2-18.9-2.2-7-2.6-10.5-10.4-7.8-17.4z"/></svg>