<?xml version="1.0" encoding="utf-8"?>
<!-- Generator: Adobe Illustrator 22.1.0, SVG Export Plug-In . SVG Version: 6.00 Build 0)  -->
<svg version="1.1" id="Livello_1" xmlns="http://www.w3.org/2000/svg" xmlns:xlink="http://www.w3.org/1999/xlink" x="0px" y="0px"
	 viewBox="0 0 200 200" style="enable-background:new 0 0 200 200;" xml:space="preserve">
<style type="text/css">
	.st0{fill:#09547B;}
	.st1{fill:#7DACC4;}
</style>
<g>
	<path class="st0" d="M71.1,63.1l8.3-4.9V9.9L71.1,5l-8.3,4.9v48.3L71.1,63.1z M62.8,97.9l8.3,4.8l8.3-4.8v48.5l35.4,20.9l14.1,8.3
		l49.6-29.2V87.7l-24.7-14.6l-6.7-3.9V49.8L195,78.1V156l-66.1,39l-66.1-39L62.8,97.9z"/>
	<path class="st1" d="M137.2,44v78l-39.7,23.4l-8.2-4.8v-9.8l31.4-18.5V63.4L71.1,92.6L21.5,63.4v48.9l24.7,14.6h0l6.6,3.9v19.5
		L5,121.9V44l47.9-28.2v19.5l-6.6,3.9h0l-16.6,9.7l16.6,9.8h0l24.8,14.6l24.8-14.6l16.5-9.8l-16.5-9.7l-6.7-3.9V15.7L137.2,44z"/>
</g>
</svg>
