<?xml version="1.0" encoding="utf-8"?>
<!-- Generator: Adobe Illustrator 22.1.0, SVG Export Plug-In . SVG Version: 6.00 Build 0)  -->
<svg version="1.1" id="Livello_1" xmlns="http://www.w3.org/2000/svg" xmlns:xlink="http://www.w3.org/1999/xlink" x="0px" y="0px"
	 viewBox="0 0 200 200" style="enable-background:new 0 0 200 200;" xml:space="preserve">
<style type="text/css">
	.st0{fill:#39C919;}
	.st1{fill:#77F95B;}
	.st2{fill:#2BA711;}
	.st3{fill:#3ACE1B;}
	.st4{fill:#C7FCB5;}
	.st5{fill:#5EF23D;}
	.st6{fill:#64F745;}
	.st7{fill:#3ED61E;}
	.st8{fill:#29A30F;}
	.st9{fill:#31D210;}
	.st10{fill:#3DD51B;}
	.st11{fill:#7CFE61;}
	.st12{fill:#35C614;}
	.st13{fill:#41EF1D;}
	.st14{fill:#47F224;}
	.st15{fill:#B6FFA2;}
	.st16{fill:#2CB011;}
	.st17{fill:#3EDB1E;}
	.st18{fill:#40EC1D;}
	.st19{fill:#8EFC75;}
	.st20{fill:#5FF23F;}
	.st21{fill:#C9FDB7;}
	.st22{fill:#3BD91D;}
	.st23{fill:#5DF33B;}
</style>
<path class="st0" d="M87.2,143.6l12.8,12.9V195L87.2,143.6z"/>
<path class="st1" d="M112.8,143.6L100,156.5V195L112.8,143.6z"/>
<path class="st2" d="M100,120.5v38.6l-12.8-15.5L100,120.5z"/>
<path class="st3" d="M100,120.5v38.6l12.8-15.5L100,120.5z"/>
<path class="st4" d="M83.2,72.3L100,55.5V5L83.2,72.3z"/>
<path class="st5" d="M116.8,72.3L100,55.5V5L116.8,72.3z"/>
<path class="st6" d="M100,102.6V52.9L83.2,72.3L100,102.6z"/>
<path class="st7" d="M100,102.6V52.9l16.8,19.4L100,102.6z"/>
<path class="st8" d="M105.1,115.4h23.1l2.6,12.8L105.1,115.4z"/>
<path class="st9" d="M156.5,143.6l-28.3-28.2l2.6,12.8L156.5,143.6z"/>
<path class="st10" d="M118,133.4l-12.9-18l25.7,12.8L118,133.4z"/>
<path class="st11" d="M156.5,143.6L118,133.4l12.8-5.2L156.5,143.6z"/>
<path class="st12" d="M94.9,115.4H71.8l-2.6,12.8L94.9,115.4z"/>
<path class="st13" d="M43.5,143.6l28.3-28.2l-2.6,12.8L43.5,143.6z"/>
<path class="st14" d="M82,133.4l12.9-18l-25.7,12.8L82,133.4z"/>
<path class="st15" d="M43.5,143.6L82,133.4l-12.8-5.2L43.5,143.6z"/>
<path class="st16" d="M104,107.7h29.4l3.2-16.3L104,107.7z"/>
<path class="st17" d="M169.3,71.8l-35.9,35.9l3.2-16.3L169.3,71.8z"/>
<path class="st18" d="M120.3,84.8L104,107.7l32.6-16.3L120.3,84.8z"/>
<path class="st19" d="M169.3,71.8l-49,13l16.3,6.6L169.3,71.8z"/>
<path class="st20" d="M96,107.7H66.6l-3.2-16.3L96,107.7z"/>
<path class="st21" d="M30.7,71.8l35.9,35.9l-3.2-16.3L30.7,71.8z"/>
<path class="st22" d="M79.7,84.8L96,107.7L63.4,91.4L79.7,84.8z"/>
<path class="st23" d="M30.7,71.8l49,13l-16.3,6.6L30.7,71.8z"/>
</svg>
