<svg xmlns="http://www.w3.org/2000/svg" id="Livello_1" x="0" y="0" version="1.1" viewBox="0 0 200 200" xml:space="preserve"><style>.st0{fill:#e75a2b}</style><path id="Path-Copy-16" d="M5 100c0 76 19 95 95 95s95-19 95-95-19-95-95-95S5 24 5 100z" class="st0"/><path id="Rectangle-Copy-34" fill="#ffc55a" d="M151.1 96.4c.1.6 0 1.2-.2 1.7l-4.3 10.4c-.4 1.1-1.4 1.9-2.6 2.2l-12.3 2.2c-1.9.3-3.6-.9-4-2.8-.1-.4-.1-.8 0-1.2l2-10.4c.3-1.4 1.4-2.5 2.9-2.7l14.7-2.2c1.8-.4 3.5.9 3.8 2.8zm-8.9 3.6l-6.3.9c-.5.1-.9.4-1 .9l-.6 3.2c-.1.6.3 1.2.9 1.3h.4l5.6-1c.4-.1.7-.3.9-.7l1.3-3.1c.2-.6 0-1.2-.6-1.5h-.6zm17.7-25.4c.1.6 0 1.1-.2 1.6l-4.2 10.5c-.4 1.2-1.5 2-2.7 2.2l-17 2.4c-1.9.3-3.6-1-3.9-2.9-.1-.4 0-.7 0-1.1l2-10.5c.3-1.5 1.5-2.6 2.9-2.8l19.2-2.4c2-.2 3.7 1.2 3.9 3zM149.2 78l-11 1.4c-.5.1-.9.4-1 .9l-.6 3.4c-.1.6.3 1.2.9 1.3h.4l10.3-1.5c.4-.1.7-.3.9-.7l1.4-3.3c.2-.6 0-1.2-.6-1.5h-.7zM171 47.6c.1.7 0 1.3-.3 2l-5.9 14.7c-.6 1.6-2 2.7-3.7 2.9l-30.8 3.9c-2.5.3-4.8-1.4-5.1-3.9-.1-.5 0-.9 0-1.4l3.4-16.1c.4-2.1 2.1-3.6 4.1-3.8l33.3-2.6c2.7-.1 4.9 1.8 5 4.3zM157.9 52l-23.5 2-1.8 9 23.2-3.2c.8-.1 1.5-.6 1.8-1.4l1.8-4.3c.3-.8 0-1.7-.8-2-.2-.1-.5-.1-.7-.1z"/><path id="H-Copy-17" d="M88.2 54H68.9c-4.9 0-9 3.5-9.9 8.3l-13 73.4c-1 5.5 2.7 10.7 8.1 11.6.6.1 1.2.2 1.7.2H75.2c4.8-.1 8.9-3.5 9.7-8.3l3.5-19.7h6.5L92 135.7c-1 5.5 2.7 10.7 8.1 11.6.6.1 1.2.2 1.8.2h19.3c4.9 0 9-3.5 9.9-8.3l13-73.4c1-5.5-2.7-10.7-8.1-11.6-.6-.1-1.2-.2-1.7-.2H114.9c-4.8.1-8.9 3.5-9.7 8.3l-3.4 19h-6.5l2.8-15.5c1-5.5-2.7-10.7-8.1-11.6-.6-.1-1.2-.2-1.8-.2zm0 5c.3 0 .6 0 .9.1 2.7.5 4.6 3.1 4.1 5.8v.1l-3.4 18.9v.4c0 1.1.9 2 2 2h12.5c1 0 1.8-.7 2-1.6v-.1l3.8-21.4c.4-2.4 2.5-4.2 4.9-4.2H134.4c.3 0 .6 0 .9.1 2.7.5 4.6 3.1 4.1 5.8v.1l-13 73.4c-.4 2.4-2.5 4.2-4.9 4.2H102.1c-.3 0-.6 0-.9-.1-2.7-.5-4.6-3.1-4.1-5.8v-.1l3.5-19.6v-.4c0-1.1-.9-2-2-2H86.1c-1 0-1.8.7-2 1.6v.1l-3.9 22.1c-.4 2.4-2.5 4.2-4.9 4.2H55.9c-.3 0-.6 0-.9-.1-2.7-.5-4.6-3.1-4.1-5.8v-.1l13-73.4c.4-2.4 2.5-4.2 4.9-4.2H88.2z" class="st0"/><path id="H-Copy-18" fill="#fff" d="M88.2 59H68.9c-2.5 0-4.6 1.8-5 4.2l-13 73.4c-.5 2.8 1.4 5.4 4.1 5.9.3.1.6.1.9.1h19.3c2.5 0 4.6-1.8 5-4.2l3.9-22.1c.2-1 1-1.7 2-1.7h12.4c1.1 0 2 .9 2 2v.4L97 136.6c-.5 2.8 1.4 5.4 4.1 5.9.3.1.6.1.9.1h19.3c2.5 0 4.6-1.8 5-4.2l13-73.4c.5-2.8-1.4-5.4-4.1-5.9-.3-.1-.6-.1-.9-.1H115c-2.5 0-4.6 1.8-5 4.2l-3.8 21.4c-.2 1-1 1.7-2 1.7H91.9c-1.1 0-2-.9-2-2v-.4L93.3 65c.5-2.8-1.3-5.4-4.1-5.9-.4-.1-.7-.1-1-.1z"/></svg>