<?xml version="1.0" encoding="utf-8"?>
<!-- Generator: Adobe Illustrator 22.1.0, SVG Export Plug-In . SVG Version: 6.00 Build 0)  -->
<svg version="1.1" id="Livello_1" xmlns="http://www.w3.org/2000/svg" xmlns:xlink="http://www.w3.org/1999/xlink" x="0px" y="0px"
	 viewBox="0 0 200 200" style="enable-background:new 0 0 200 200;" xml:space="preserve">
<style type="text/css">
	.st0{fill:#BFBFBF;}
	.st1{fill:#E20226;}
</style>
<image style="display:none;overflow:visible;enable-background:new    ;" width="119" height="130" xlink:href="ECC45C01.png"  transform="matrix(1.4615 0 0 1.4615 13.5385 5)">
</image>
<g>
	<path class="st0" d="M99.7,194.8l-84.8-47.5v-95L99.7,4.8l84.8,47.5v95L99.7,194.8z M18.5,145.2l81.2,45.5l81.2-45.5V54.4L99.7,8.9
		L18.5,54.4V145.2z"/>
</g>
<g>
	<polygon points="66,100.8 62.2,96.2 77.6,83.5 62.3,71.2 66,66.5 87,83.4 	"/>
</g>
<g>
	<polygon points="130.5,100.8 109.6,83.4 130.6,66.5 134.3,71.2 119,83.5 134.3,96.2 	"/>
</g>
<path d="M93.3,145.1H104c0.9,0,3.9-2,4.7-2.6c4.2-2.8,13.4-10.8,14.6-17.9c1.3-7.5-5-11.4-6.5-12.2c-0.2-0.1-0.5-0.2-0.7-0.4
	c-1.8-0.6-9.2-3-15.3,1.2c-0.8,0.6-1.8,0.8-2.7,0.8h-0.1c-0.9,0-2-0.4-2.8-0.9c-2.3-1.5-7.5-4.2-14.5-0.9
	c-9.2,4.4-7.5,12.5-7.5,12.5s-0.1,4.7,14.9,17.8C89,143.2,92.2,145.1,93.3,145.1z"/>
<ellipse class="st1" cx="99" cy="133.7" rx="14.1" ry="7.7"/>
</svg>
