<?xml version="1.0" encoding="utf-8"?>
<!-- Generator: Adobe Illustrator 22.1.0, SVG Export Plug-In . SVG Version: 6.00 Build 0)  -->
<svg version="1.0" id="Livello_1" xmlns="http://www.w3.org/2000/svg" xmlns:xlink="http://www.w3.org/1999/xlink" x="0px" y="0px"
	 viewBox="0 0 200 200" enable-background="new 0 0 200 200" xml:space="preserve">
<linearGradient id="SVGID_1_" gradientUnits="userSpaceOnUse" x1="5.1047" y1="129.1686" x2="169.6977" y2="129.1686">
	<stop  offset="0" style="stop-color:#9F9EA3"/>
	<stop  offset="1" style="stop-color:#B9B8BC"/>
</linearGradient>
<path fill="url(#SVGID_1_)" d="M32.2,122.5V87.2l44.2,44.2v8.3H94V62.3H76.4V106L32.7,62.3H13.9c0,0-8.8,16.6-8.8,40.9
	c0,33.1,23.2,59.7,23.2,59.7S55.9,196,99,196s70.7-32,70.7-32s-17.1,18.2-70.1,16s-64.1-34.2-64.1-34.2
	c13.3,14.4,33.1,27.6,58.5,27.6s40.9-13.3,40.9-13.3s-13.3,9.9-42,9.9S32.2,141.3,32.2,122.5z"/>
<path opacity="0.25" fill="#FFFFFF" d="M32.2,122.5V87.2l44.2,44.2v8.3H94V62.3H76.4V106L32.7,62.3H18.4c0,0-8.8,12.2-8.8,36.5
	c0,37.6,22.1,60.8,22.1,60.8s26.5,33.1,71.8,33.1c43.1,0,66.3-28.7,66.3-28.7s-17.1,18.2-70.1,16s-64.1-34.2-64.1-34.2
	c13.3,14.4,33.1,27.6,58.5,27.6s40.9-13.3,40.9-13.3s-13.3,9.9-42,9.9S32.2,141.3,32.2,122.5z"/>
<linearGradient id="SVGID_2_" gradientUnits="userSpaceOnUse" x1="28.3023" y1="72.8314" x2="192.8954" y2="72.8314">
	<stop  offset="0" style="stop-color:#08EED9"/>
	<stop  offset="1" style="stop-color:#22B2B8"/>
</linearGradient>
<path fill="url(#SVGID_2_)" d="M165.8,79.5v35.3l-44.2-44.2v-8.3H104v77.3h17.7V96l43.6,43.6h18.8c0,0,8.8-16.6,8.8-40.9
	c0-33.1-23.2-59.7-23.2-59.7S142.1,6,99,6S28.3,38,28.3,38s17.1-18.2,70.1-16s64.1,34.2,64.1,34.2c-13.3-14.4-33.1-27.6-58.5-27.6
	S63.1,41.9,63.1,41.9s13.3-9.9,42-9.9S165.8,60.7,165.8,79.5z"/>
<path opacity="0.25" fill="#FFFFFF" d="M165.8,79.5v35.3l-44.2-44.2v-8.3H104v77.3h17.7V96l43.6,43.6h14.4c0,0,8.8-12.2,8.8-36.5
	c0-35.3-22.1-60.8-22.1-60.8S141,9.3,94.6,9.3C51.5,9.3,28.3,38,28.3,38s17.1-18.2,70.1-16s64.1,34.2,64.1,34.2
	c-13.3-14.4-33.1-27.6-58.5-27.6S63.1,41.9,63.1,41.9s13.3-9.9,42-9.9S165.8,60.7,165.8,79.5z"/>
</svg>
