<svg xmlns="http://www.w3.org/2000/svg" id="Livello_1" x="0" y="0" version="1.1" viewBox="0 0 200 200" xml:space="preserve"><style>.st2{fill:#fff}</style><linearGradient id="SVGID_1_" x1="181.7357" x2="31.4165" y1="19.3563" y2="171.3456" gradientTransform="matrix(1 0 0 -1 0 202)" gradientUnits="userSpaceOnUse"><stop offset=".1594" stop-color="#003cda"/><stop offset="1" stop-color="#33dfcc"/></linearGradient><path fill="url(#SVGID_1_)" d="M167.2 33.6C149.4 15.9 125.2 6 100 6c-18.8 0-37.2 5.5-52.8 15.8-15.6 10.3-27.8 25-35 42.2-7.2 17.2-9 36.1-5.4 54.3 3.7 18.2 12.7 35 26 48.1 13.3 13.1 30.2 22.1 48.6 25.7 18.4 3.6 37.5 1.8 54.9-5.3s32.2-19.2 42.6-34.6c10.4-15.5 16-33.6 16-52.2.1-24.9-9.9-48.8-27.7-66.4zm-67.2 140c-41.1 0-74.5-33-74.5-73.6S58.9 26.3 100 26.3s74.5 33 74.5 73.7-33.4 73.6-74.5 73.6z"/><path fill="#3574b9" d="M160.3 100.1c.1-32.9-26.9-59.6-60.2-59.6-33.3-.1-60.3 26.5-60.4 59.4-.1 32.9 26.9 59.6 60.2 59.6 33.3.1 60.3-26.5 60.4-59.4z"/><path d="M88.9 141.1c0 1.5-1 2-2.5 2-9.2-2.9-17.2-8.6-22.8-16.2-5.7-7.7-8.7-17-8.7-26.5S58 81.6 63.7 74s13.7-13.3 22.9-16.2c1.5-.5 2.5.5 2.5 2v3.5c0 .5-.1 1-.4 1.5-.3.4-.6.8-1.1 1-7.2 2.6-13.5 7.3-17.9 13.5-4.4 6.2-6.8 13.6-6.8 21.2s2.3 15 6.7 21.2 10.6 11 17.8 13.6c.5.2.8.6 1.1 1 .3.4.4.9.4 1.5v3.3z" class="st2"/><path d="M104 128.8c0 .5-.2 1-.6 1.4-.4.4-.9.6-1.4.6h-4c-.5 0-1-.3-1.4-.6-.4-.4-.6-.9-.6-1.4V123c-8-1-12.1-5.5-13.6-11.9 0-1 .5-2 1.5-2h4.5c1 0 1.5.5 2 1.5 1 3.5 3 6.5 9.5 6.5 5 0 8.5-2.5 8.5-6.4 0-4-2-5.5-9-6.5-10.6-1.5-15.6-4.5-15.6-12.9 0-6.4 5-11.4 12.1-12.4v-6.1c0-.5.3-1 .6-1.4.4-.4.9-.6 1.4-.6h4c.5 0 1 .3 1.4.6.4.4.6.9.6 1.4v6c6 1 10 4.5 11 9.9 0 1-.5 2-1.5 2h-4c-1 0-1.5-.5-2-1.5-1-3.5-3.5-5-8-5-5 0-7.5 2.5-7.5 5.9 0 3.4 1.5 5.5 9 6.5 10.5 1.5 15.6 4.5 15.5 12.9 0 6.4-5 11.9-12.6 13.4l.2 5.9z" class="st2"/><path d="M113.5 143.2c-1.5.5-2.5-.5-2.5-2v-3.5c0-.5.1-1 .4-1.4.3-.4.6-.8 1.1-1 7.2-2.6 13.5-7.3 17.9-13.5 4.4-6.2 6.8-13.6 6.8-21.2s-2.3-15-6.7-21.2c-4.4-6.2-10.6-11-17.8-13.6-.5-.2-.8-.6-1.1-1-.3-.4-.4-.9-.4-1.5v-3.5c0-1.5 1-2 2.5-2 18.1 6 31.6 22.9 31.6 42.7 0 9.5-3.1 18.8-8.8 26.4-5.8 7.8-13.8 13.4-23 16.3z" class="st2"/></svg>