<svg xmlns="http://www.w3.org/2000/svg" id="Layer_1" viewBox="0 0 200 200"><style>.st0{fill:#db212c}</style><path d="M98.9 155.8c22.6-2.6 40.5-13.3 54.5-31.4-.4.9-.6 1.8-1.1 2.6-7.1 11.6-16.7 20.3-29.1 26.2-14.8 7-30.3 10-46.4 7.5-16.8-2.6-30.9-10.4-39.2-26.2-10.4-19.6-7.4-38.8 6.3-55C54.4 67 67.7 59.1 83.4 55.4c17.9-4.2 35.6-3.1 52 6 10.1 5.6 17.2 14.1 20.6 25.4 3 10 2.1 19.7-2 29.1-6.9 15.9-19.2 26.4-34.9 32.9-5.9 2.4-12.3 3.9-18.4 5.8-.7.3-1.2.9-1.8 1.2H92c0 .4.1.7.1 1.1 2.3-.3 4.5-.7 6.8-1.1zm11.7-77.3c.1-.3.2-.6.3-.8-3.8-1.4-7.5-3.2-11.4-4.2-4.1-1.1-8.3-1.8-12.5-1.9-4-.1-7.9 1-11.9 1.5-.1-.3-.1-.7-.2-1 4.6-.9 9.3-2.7 13.9-2.6 12.8.1 24.1 4.5 33.4 13.6 9.9 9.7 12.9 21.1 8.9 34.4-.2.7-.2 1.6-.3 2.4.3.1.5.2.8.3 1.4-1.8 3-3.5 4.2-5.5 9.9-16.4 8.3-32.1-7.5-43.2-12.5-8.8-26.7-10.7-41.4-7.5C72 67.3 59.7 74.9 51.3 88c-.4.6-1 1.7-1.3 1.6-2.6-.7-2.3 1.7-3 2.8-.7 1.2-1 2.7-1.4 4.1-3.1 11.7-.7 22 7.7 30.7 8 8.3 18.2 11.7 29.4 12.5 2.9.2 5.8 0 8.7 0 0-.3.1-.6.1-.8-1.1-.4-2.2-1-3.4-1.3C75.4 134 65.4 127 59 115.2c-7.9-14.6-2.3-31.5 12.6-38.6 9.4-4.5 19.2-4.3 29-1.6 3.4 1 6.6 2.3 10 3.5zM86.7 89.2c-.1-.3-.3-.6-.4-.9-1.8.4-3.7.6-5.5 1.2-7.5 2.4-13.5 9.2-11.1 18.2 2.7 10.1 9.5 16.1 19.4 18.6 3 .8 6.2.9 9.3 1.3 1.6.2 3.3 1 4.7.6 10.9-3.1 16.1-12.8 12.3-23-1-2.6-2.1-5.2-5-7 1.7 10.7-1.7 18.3-9.4 21.5-6.7 2.8-15.5.5-19.8-5.2-2.5-3.3-3.7-6.9-3.6-11.1.2-6.4 3.9-10.8 9.1-14.2zm-2.4 23.3c-3.2-10 0-16.5 9.2-20.3-4.3-1.9-8-.2-10.9 4.3-3.3 5.1-2.9 12.1 1.7 16zM178.9 101.5c9.2.3 16.4 7.7 16.1 16.9-.3 9-7.5 16.1-16.1 15.9-9.8-.2-16.9-7.6-16.7-17.4.2-8.6 7.9-15.7 16.7-15.4zm6 5c-4.5-4.6-12.3-2.1-15.9 1.4-4.6 4.3-5.4 12.2-1.9 16.1-1-12 6.8-19.9 17.8-17.5zM25.7 81.9c.1 6-4.4 10.6-10.7 10.5-4.6 0-10-4-10-10.3 0-6 4.6-10.7 10.5-10.7 5.4-.1 10.1 4.9 10.2 10.5zm-7.1-7.7c-3.3-2-7.2-1.2-9.8 1.7C6.4 78.6 6 82 8 84.7c-.3-7.3 4.3-9.6 10.6-10.5zM144.6 41.5c.1 2.1-2.1 4.4-4.2 4.5-2 .1-4.1-1.6-3.5-3.5.6-1.7 2.4-3.5 4.1-4.1 1.4-.4 3.6.7 3.6 3.1z" class="st0"/></svg>