<?xml version="1.0" encoding="utf-8"?>
<!-- Generator: Adobe Illustrator 22.1.0, SVG Export Plug-In . SVG Version: 6.00 Build 0)  -->
<svg version="1.1" id="Layer_1" xmlns="http://www.w3.org/2000/svg" xmlns:xlink="http://www.w3.org/1999/xlink" x="0px" y="0px"
	 viewBox="0 0 200 200" style="enable-background:new 0 0 200 200;" xml:space="preserve">
<style type="text/css">
	.st0{fill:url(#SVGID_1_);}
</style>
<image style="display:none;overflow:visible;enable-background:new    ;" width="251" height="251" id="image0" xlink:href="1755D1AE.jpeg"  transform="matrix(0.996 0 0 0.996 -24.5 -25.25)">
</image>
<linearGradient id="SVGID_1_" gradientUnits="userSpaceOnUse" x1="30.9919" y1="138.5612" x2="174.0373" y2="71.8579">
	<stop  offset="0" style="stop-color:#1F8FD6"/>
	<stop  offset="0.1547" style="stop-color:#46E1F1"/>
	<stop  offset="0.4035" style="stop-color:#084FCB"/>
	<stop  offset="0.743" style="stop-color:#54DBF2"/>
	<stop  offset="1" style="stop-color:#CEE6E2"/>
</linearGradient>
<path class="st0" d="M173.6,162.2c-0.3,0.5-0.6,1.1-1,1.6c-6.7,11-17.3,19.7-30.5,24c-15.8,5.1-32.3,2.9-45.6-4.9
	c-0.5-0.3-1-0.6-1.5-0.9c-0.1,0-0.2-0.1-0.2-0.1c-0.3-0.2-0.5-0.3-0.8-0.5c-0.2-0.1-0.4-0.3-0.7-0.4c-0.5-0.4-1-0.7-1.5-1.1
	c-9.3-6.7-16.6-16.4-20.5-28.1c-7.9-24.4,1.8-50.4,22.1-64c-2.8,6.8-4.3,14.3-4.3,22.1c0,0,0,0,0,0c0,0,0,0,0,0.1
	c0,32.7,26.5,59.1,59.1,59.1c8.7,0,16.9-1.9,24.3-5.2c0.3-0.5,0.6-1.1,1-1.6c0,0-0.1,0-0.1,0c0,0,0.1-0.1,0.1-0.1
	c-7.2,3.4-15.4,5.3-24.1,5.3c-32,0-57.9-25.9-57.9-57.9c0-8.2,1-16.1,4-23.1c0.3-0.2,0.7-0.4,1-0.6c3.4-2,7-3.6,10.8-4.8
	c4.8-1.6,9.7-2.5,14.6-2.7c2.2,1.3,4.4,2.9,6.4,4.6c5,4.1,9,8.9,12.1,14.1c0.1-0.3,0.1-0.7,0.1-1c-3.3-6-7.8-11.5-13.6-16.3
	c-0.6-0.6-1.2-1.1-1.9-1.6c-0.3-0.2-0.5-0.4-0.8-0.6C99.5,59.2,64.4,63.1,44.3,87c-6.5,7.8-10.6,16.6-12.5,25.9
	c-2.3-6.1-3.5-12.7-3.5-19.6c0-17.4,7.9-32.9,20.3-43.3c0.4-0.4,0.8-0.8,1.3-1.1C59.5,41.4,71.5,37,84.5,37
	c31.1,0,56.2,25.2,56.2,56.2c0,1,0,1.9-0.1,2.9c-0.1,0.3-0.1,0.7-0.1,1c-0.4,5.3-1.4,10.3-3.1,15c0,0,0,0,0,0
	c-2.5,1.8-5.1,3.5-7.9,4.9c2.6-1.2,5.2-2.6,7.6-4.1c0.2-0.1,0.5-0.3,0.7-0.4c15.9-10.5,26.3-28.5,26.3-48.9
	c0-32.4-26.2-58.6-58.6-58.6c-24.3,0-45.2,14.9-54,36.1c-16,10.4-26.6,28.5-26.6,49.1c0,9.5,2.3,18.6,6.3,26.5c0,0,0,0.1,0,0.1
	c0,0.3-0.1,0.6-0.1,0.9c-2.3,19,4.7,38.8,20.5,52c10.4,8.7,22.9,13.2,35.5,13.7c-0.6-0.4-1.2-0.9-1.8-1.4c-0.1,0-0.2-0.1-0.3-0.2
	c-10.2-1.4-20.3-5.5-28.8-12.7c-13.3-11.2-20.2-27.2-20.1-43.3c0-0.3,0-0.6,0-0.9c0-0.3,0-0.5,0-0.8c0-0.6,0.1-1.3,0.1-1.9
	c0.8-11.5,5.1-22.8,13-32.3c17.9-21.3,48.4-26,71.6-12.2c-5.6,0.1-11.2,1.1-16.8,2.9c-2.1,0.7-4,1.4-6,2.3c-1,0.5-2.1,1-3.1,1.5
	c-25,13-37.6,42.5-28.6,70.1c3.1,9.6,8.5,17.9,15.4,24.4c0.4,0.4,0.9,0.8,1.3,1.2c0.5,0.5,1,0.9,1.6,1.3c0.1,0.1,0.2,0.2,0.4,0.3
	c0.1,0.1,0.2,0.2,0.3,0.2c0.6,0.5,1.2,1,1.8,1.4c14.7,10.9,34.3,14.8,53.1,8.7c15.4-5,27.3-15.7,34.1-29.1c0.3-0.5,0.5-1,0.8-1.5
	C174.7,161.8,174.1,162,173.6,162.2z M103.7,10c31.3,0,56.6,25.3,56.6,56.6c0,18.3-8.7,34.5-22.1,44.9c1.5-4,2.7-8.2,3.3-12.6
	c0-0.3,0.1-0.5,0.1-0.8c0.3-2.6,0.5-5.2,0.5-7.9c0-32.4-26.2-58.7-58.6-58.7c-10.7,0-20.8,2.9-29.5,8C63.6,21.9,82.2,10,103.7,10z"
	/>
</svg>
