<?xml version="1.0" encoding="utf-8"?>
<!-- Generator: Adobe Illustrator 16.0.0, SVG Export Plug-In . SVG Version: 6.00 Build 0)  -->
<!DOCTYPE svg PUBLIC "-//W3C//DTD SVG 1.0//EN" "http://www.w3.org/TR/2001/REC-SVG-20010904/DTD/svg10.dtd">
<svg version="1.0" id="Layer_1" xmlns="http://www.w3.org/2000/svg" xmlns:xlink="http://www.w3.org/1999/xlink" x="0px" y="0px"
	 width="200px" height="200px" viewBox="0 0 200 200" enable-background="new 0 0 200 200" xml:space="preserve">
<polygon fill="none" stroke="#524B48" stroke-width="2" stroke-miterlimit="10" points="100.351,194.271 19.196,147.416 
	19.196,53.708 100.351,6.853 181.508,53.708 181.508,147.416 "/>
<g id="Layer_2">
	
		<line fill="none" stroke="#524B48" stroke-width="2" stroke-miterlimit="10" x1="100.352" y1="194.411" x2="100.352" y2="100.704"/>
	<polyline fill="none" stroke="#524B48" stroke-width="2" stroke-miterlimit="10" points="181.508,53.957 100.352,100.813 
		19.197,53.957 	"/>
	<g>
		<g>
			<line fill="none" stroke="#524B48" stroke-width="2" stroke-miterlimit="10" x1="100.352" y1="6.75" x2="100.352" y2="7.75"/>
			
				<line fill="none" stroke="#524B48" stroke-width="2" stroke-miterlimit="10" stroke-dasharray="2.0797,9.3586" x1="100.352" y1="17.108" x2="100.352" y2="46.744"/>
			
				<line fill="none" stroke="#524B48" stroke-width="2" stroke-miterlimit="10" x1="100.352" y1="51.423" x2="100.352" y2="52.423"/>
		</g>
	</g>
	<g>
		<g>
			
				<line fill="none" stroke="#524B48" stroke-width="2" stroke-miterlimit="10" x1="58.402" y1="124.814" x2="57.537" y2="125.316"/>
			
				<line fill="none" stroke="#524B48" stroke-width="2" stroke-miterlimit="10" stroke-dasharray="2.058,9.261" x1="49.525" y1="129.96" x2="24.153" y2="144.668"/>
			
				<line fill="none" stroke="#524B48" stroke-width="2" stroke-miterlimit="10" x1="20.147" y1="146.989" x2="19.282" y2="147.491"/>
		</g>
	</g>
	<g>
		<g>
			
				<line fill="none" stroke="#524B48" stroke-width="2" stroke-miterlimit="10" x1="142.25" y1="124.625" x2="143.116" y2="125.125"/>
			
				<line fill="none" stroke="#524B48" stroke-width="2" stroke-miterlimit="10" stroke-dasharray="2.0752,9.3385" x1="151.201" y1="129.799" x2="176.804" y2="144.598"/>
			
				<line fill="none" stroke="#524B48" stroke-width="2" stroke-miterlimit="10" x1="180.846" y1="146.935" x2="181.712" y2="147.435"/>
		</g>
	</g>
</g>
<polygon fill="none" stroke="#524B48" stroke-width="2" stroke-miterlimit="10" points="100.354,149.505 57.965,125.034 
	57.965,76.091 100.354,51.619 142.738,76.091 142.738,125.034 "/>
</svg>
