<?xml version="1.0" encoding="utf-8"?>
<!-- Generator: Adobe Illustrator 22.1.0, SVG Export Plug-In . SVG Version: 6.00 Build 0)  -->
<svg version="1.1" id="Livello_1" xmlns="http://www.w3.org/2000/svg" xmlns:xlink="http://www.w3.org/1999/xlink" x="0px" y="0px"
	 viewBox="0 0 200 200" style="enable-background:new 0 0 200 200;" xml:space="preserve">
<style type="text/css">
	.st0{fill:#075198;stroke:#000000;stroke-width:2;stroke-miterlimit:10;}
	.st1{fill:#21B1F8;stroke:#000000;stroke-width:2;stroke-miterlimit:10;}
	.st2{fill:#E82E9D;stroke:#000000;stroke-width:2;stroke-miterlimit:10;}
	.st3{fill:none;stroke:#000000;stroke-width:3;stroke-linejoin:round;stroke-miterlimit:10;}
	.st4{stroke:#000000;stroke-miterlimit:10;}
</style>
<polygon class="st0" points="58.3,124 58.3,76.5 100,100 100,147.8 "/>
<polygon class="st1" points="141.5,124 100,147.8 100,100 141.5,76.5 "/>
<polygon class="st2" points="100,51.3 58.3,76.5 100,100 141.5,76.5 "/>
<polygon class="st3" points="16.7,53 16.7,149 100,195 100,100 "/>
<polygon class="st3" points="100,5 16.7,53 100,100 183,53 "/>
<polygon class="st3" points="183,148 183,53 100,100 100,195 "/>
<circle class="st4" cx="33.8" cy="137.8" r="3.5"/>
<circle class="st4" cx="46.8" cy="130.8" r="3.5"/>
<circle class="st4" cx="100" cy="23" r="3.5"/>
<circle class="st4" cx="100" cy="38.9" r="3.5"/>
<circle class="st4" cx="153" cy="130.8" r="3.5"/>
<circle class="st4" cx="166.8" cy="137.8" r="3.5"/>
</svg>
