<svg xmlns="http://www.w3.org/2000/svg" viewBox="0 0 200 200"><linearGradient id="a" x1="-14.297" x2="214.2968" y1="98" y2="98" gradientTransform="translate(0 2)" gradientUnits="userSpaceOnUse"><stop offset="0" stop-color="#0157d0"/><stop offset=".14" stop-color="#015fcd"/><stop offset=".36" stop-color="#0174c6"/><stop offset=".63" stop-color="#0098ba"/><stop offset=".94" stop-color="#00c8aa"/><stop offset="1" stop-color="#00d3a6"/></linearGradient><path fill="url(#a)" d="M100 10.8c-52.5 0-95 42.5-95 95 0 34.8 19 66.7 49.5 83.4h91.2c30.5-16.7 49.4-48.7 49.3-83.4 0-52.5-42.5-95-95-95zm0 170.6c-41.8 0-75.7-33.8-75.7-75.6S58.2 30.3 100 30.3s75.7 33.8 75.7 75.5-33.9 75.6-75.7 75.6z"/><path fill="#2775ca" d="M100 51c-30.4 0-55 24.6-55 55s24.6 55 55 55 55-24.6 55-55-24.6-55-55-55zm-10.1 92.9c0 1.4-.9 1.9-2.3 1.9-21.7-6.8-33.8-30-27-51.8 4.1-12.9 14.1-23 27-27.1 1.4-.4 2.3.4 2.3 1.9v3.3c0 1-.6 1.9-1.4 2.3-17.7 6.5-26.8 26.1-20.3 43.8 3.4 9.5 10.9 16.9 20.3 20.4.9.4 1.4 1.3 1.4 2.3v3zm13.7-11.3c0 1-.9 1.8-1.9 1.9h-3.6c-1 0-1.8-.9-1.9-1.9v-5.4c-6.2-.3-11.3-4.8-12.4-11 0-.9.4-1.9 1.4-1.9h4.1c.9 0 1.4.4 1.9 1.4.9 3.2 2.8 5.9 8.7 5.9 4.6 0 7.8-2.3 7.8-5.9s-1.9-5.1-8.3-5.9c-9.6-1.4-14.2-4.1-14.2-11.9.2-6 5-11 11-11.4v-5.4c0-1 .9-1.8 1.9-1.9h3.6c1 0 1.8.9 1.9 1.9v5.4c5.1.4 9.1 4.2 10.1 9.1 0 .9-.4 1.9-1.4 1.9h-3.6c-.9 0-1.3-.4-1.9-1.4-.9-3.2-3.2-4.6-7.4-4.6-4.6 0-6.9 2.3-6.9 5.4s1.4 5.1 8.3 5.9c9.6 1.3 14.2 4.1 14.2 11.9 0 5.9-4.6 10.9-11.4 12.3v5.6zm8.8 13.3c-1.4.4-2.3-.4-2.3-1.9v-3.2c0-1 .6-1.9 1.4-2.3 17.7-6.5 26.8-26.1 20.3-43.8-3.4-9.5-10.9-16.9-20.3-20.4-.9-.4-1.4-1.3-1.4-2.3v-3.2c0-1.4.9-1.9 2.3-1.9 17.1 5.6 28.7 21.5 28.9 39.4-.1 18.2-11.7 34.1-28.9 39.6z"/></svg>