<svg xmlns="http://www.w3.org/2000/svg" id="Livello_1" x="0" y="0" version="1.1" viewBox="0 0 200 200" xml:space="preserve"><style>.st3{fill:#fff}.st4{fill:#831812}</style><linearGradient id="SVGID_1_" x1="15.9869" x2="63.3744" y1="139.1489" y2="139.1489" gradientTransform="rotate(-16.504 56.9912 114.483)" gradientUnits="userSpaceOnUse"><stop offset="0" stop-color="#f6b5b7"/><stop offset=".6197" stop-color="#ed6e71"/><stop offset="1" stop-color="#ed6e71"/></linearGradient><path fill="url(#SVGID_1_)" d="M69.7 134.9c6.3 21.3 7.5 42.8-4.9 46.5-12.5 3.7-33.9-10.6-40.2-31.9s-1.3-42.8 11.1-46.5 27.7 10.6 34 31.9z"/><linearGradient id="SVGID_2_" x1="27.7477" x2="176.2819" y1="120.114" y2="120.114" gradientUnits="userSpaceOnUse"><stop offset="0" stop-color="#f6b5b7"/><stop offset=".5618" stop-color="#ed6e71"/><stop offset="1" stop-color="#ed6e71"/></linearGradient><path fill="url(#SVGID_2_)" d="M176.3 115.8c0 40.3-40.8 79.2-77.4 79.2s-71.2-38.9-71.2-79.2 37.1-70.6 73.6-70.6 75 30.2 75 70.6z"/><path fill="#581412" d="M136.1 91.6c0 13.7-21.1 29.7-47 29.7s-47-16-47-29.7 19.8-29.7 45.8-29.7 48.2 16.1 48.2 29.7z"/><ellipse cx="66.1" cy="87.9" class="st3" rx="14.2" ry="12.4"/><path d="M115 90.4c0 5.9-8 13-16.5 13s-14.1-7.1-14.1-13 6.9-11.8 15.3-11.8 15.3 6 15.3 11.8z" class="st3"/><circle cx="65.5" cy="87.9" r="2.5" class="st4"/><circle cx="98.9" cy="91.6" r="2.5" class="st4"/><linearGradient id="SVGID_3_" x1="62.2588" x2="76.9153" y1="32.2313" y2="32.2313" gradientUnits="userSpaceOnUse"><stop offset="0" stop-color="#f6b5b7"/><stop offset=".6197" stop-color="#ed6e71"/><stop offset="1" stop-color="#ed6e71"/></linearGradient><path fill="url(#SVGID_3_)" d="M76.6 7.5s2.5 26-7.4 49.5c0 0-19.8-22.3 7.4-49.5z"/><linearGradient id="SVGID_4_" x1="114.2458" x2="128.9023" y1="29.1368" y2="29.1368" gradientUnits="userSpaceOnUse"><stop offset="0" stop-color="#f6b5b7"/><stop offset=".6197" stop-color="#ed6e71"/><stop offset="1" stop-color="#ed6e71"/></linearGradient><path fill="url(#SVGID_4_)" d="M128.6 5s2.5 24.8-7.4 48.3c0 0-19.8-21.1 7.4-48.3z"/><linearGradient id="SVGID_5_" x1="137.7169" x2="175.4729" y1="166.9762" y2="166.9762" gradientTransform="translate(2.6657 -20.3305)" gradientUnits="userSpaceOnUse"><stop offset="0" stop-color="#f6b5b7"/><stop offset=".6197" stop-color="#ed6e71"/><stop offset="1" stop-color="#ed6e71"/></linearGradient><path fill="url(#SVGID_5_)" d="M178.1 137.4c0 6.2-2.7 13.7-5 20.4-3.2 9.4-3.7 17.2-11.9 17.2-8.6 0-20.8-14.4-20.8-29.2s7.2-27.6 15.9-27.6c10.7.1 21.8 4.5 21.8 19.2z"/></svg>