<?xml version="1.0" encoding="utf-8"?>
<!-- Generator: Adobe Illustrator 22.1.0, SVG Export Plug-In . SVG Version: 6.00 Build 0)  -->
<svg version="1.1" id="Livello_1" xmlns="http://www.w3.org/2000/svg" xmlns:xlink="http://www.w3.org/1999/xlink" x="0px" y="0px"
	 viewBox="0 0 200 200" style="enable-background:new 0 0 200 200;" xml:space="preserve">
<style type="text/css">
	.st0{fill:#00C8CA;}
</style>
<path class="st0" d="M40.7,49.9C55.9,41.2,71,32.4,86.2,23.6c4.1-2.3,5.9-5.8,5.9-10.4c0-3.6,0.1-7.1,0.2-10.7c-0.3,0-0.7,0-1,0
	c-1.3,1-2.4,2.1-3.8,2.9C74,13.3,60.4,21.1,46.8,29c-8.8,5-17.6,10.2-27,15.6c3.5,2,6.4,3.7,9.4,5.4C33,52.1,36.9,52.1,40.7,49.9z"
	/>
<path class="st0" d="M154.6,152.8c-10.4,6.3-21,12.2-31.6,18.3c-16.5,9.5-15.1,6.8-15,26c0,0.2,0,0.3-0.1,0.5c0.3,0,0.6,0,1,0
	c1-0.9,2-2,3.1-2.7c8.4-5,16.8-9.8,25.2-14.7c14.1-8.2,28.2-16.5,42.5-24.8C166.8,146.1,164.6,146.8,154.6,152.8z"/>
<path class="st0" d="M110,146.3c-5.5-5.6-6.2-12.2-6.8-19.1c-0.3-3.1-0.4-6.1-0.6-9.2c4.8-0.7,9-3.2,11.8-6.8l0,0
	c1.6,1,3.2,2.1,4.8,3.3c6.9,4.8,13.9,9,16.5,18.1c1.8,6.2,8.6,8.5,14.4,6.6c6.4-2,9.6-6.9,8.8-13.8c-0.9-7.7-8.4-12.2-16.8-10.4
	c-2.6,0.5-5.7,1.3-8,0.4c-6.1-2.3-12.1-5.1-17.6-7.6c1.1-2.4,1.8-5,1.8-7.8c0-2.4-0.5-4.8-1.4-6.9l0,0h0.1
	c8.6-3.1,15.8-10.4,26.4-7.2c7.1,2.2,14-2.7,15.3-9.2c1.6-8-2.6-14.8-10-16.3c-6.3-1.2-12.2,2.9-14.7,9.9c-0.8,2.4-1.8,5.1-3.5,6.7
	c-5.1,4.3-10.8,8.1-15.9,11.9c-0.1-0.1-0.2-0.2-0.3-0.2c-2.6-3.2-6.2-5.5-10.4-6.4c-3-0.3-2-4.3-1.4-7.4c0-0.1,0-0.1,0-0.2
	c0.1-0.8,0.1-0.8,0.4-2.8c0.8-6.5,1.3-12.3,6.4-17.3c4.5-4.4,4.2-11.3,0.7-15.6c-4.8-6-12.3-6.9-18.1-2.1
	c-5.5,4.5-5.8,12.4-1.1,18.3c2.1,2.6,4.2,5.5,5,8.6c1.2,4.8,1.3,9.9,1.6,14.9c0.1,1.2,0.3,3.4-1.6,3.5c-0.1,0.1-0.2,0.2-0.4,0.2
	c-3.6,0.9-6.8,3-9.2,5.7l0,0c-0.3,0.2-0.6,0.4-0.9,0.5c-2.4-1.6-5.2-3.6-8-5.5C72,79.5,66.9,76,65.2,68.8c-1.5-6.1-8.2-9.3-13.8-8.1
	c-7.7,1.6-12.2,8.5-10.4,16c1.6,6.9,8.8,11.2,16.4,9.1c4.4-1.3,8.2-0.8,12.2,1.1c3.9,1.9,8,3.6,11.9,5.6c0.5,0.3,1.1,0.7,1.5,1.3
	c-0.7,1.9-1.1,4-1.1,6.2c0,2.5,0.5,5,1.5,7.2c-2.6,1.3-5.4,2.6-8.1,3.9c-6.3,3-12.4,5.7-20,3.5c-4.7-1.4-9.3,1-12.3,5.2
	c-2.9,4.2-3.5,8.8-0.9,13.3c2.6,4.6,6.9,7,12.2,6.7c5.7-0.4,9.3-4,11.6-9.1c1.2-2.8,2.1-6.2,4.2-7.9c5-4.3,10.5-7.9,15.6-11.6
	c2.8,3.7,7.1,6.3,11.9,6.9c-0.9,9.5,1,19.5-7,27.5c-5,5-3.8,12.6,1.1,17c4.8,4.3,12,4.4,16.9,0.2C113.5,158.5,114.8,151.2,110,146.3
	z"/>
<path class="st0" d="M178.9,63.1c-3.8,2-5.6,5.1-5.6,9.5c0.1,18-0.2,36.1,0.2,54.1c0.1,3,2.5,6.6,4.8,8.9c2.4,2.4,6.1,3.6,9.7,5.6
	c0-27.9,0-54.9,0-82.7C184.6,60.3,181.7,61.6,178.9,63.1z"/>
<path class="st0" d="M26.7,126.4c0.5-17.9,0.5-35.7,0-53.6c-0.1-3.1-2.4-6.7-4.7-8.9c-2.5-2.5-6.3-3.8-10.1-5.9
	c0,28.1,0,55.4,0,83.3c3.6-2,7.2-3.2,9.6-5.6C24,133.1,26.6,129.5,26.7,126.4z"/>
<path class="st0" d="M113.8,23.6c15.2,8.8,30.2,17.7,45.6,26.1c2.6,1.5,6.7,1.7,9.7,0.9c3.8-1.1,7.2-3.7,11.4-6
	C156.1,30.6,132.6,17,108,2.9c0,4.2,0.2,7.3,0,10.3C107.7,18,109.8,21.3,113.8,23.6z"/>
<path class="st0" d="M85.7,176c-14.9-8.5-29.7-17.3-44.8-25.6c-2.7-1.5-6.7-2-9.7-1.2c-3.9,1-7.4,3.7-11.8,6.1
	c24.3,14,47.8,27.6,72.2,41.7c0-4.4-0.1-7.6,0-10.7C91.9,181.5,89.7,178.4,85.7,176z"/>
</svg>
