<?xml version="1.0" encoding="utf-8"?>
<!-- Generator: Adobe Illustrator 22.1.0, SVG Export Plug-In . SVG Version: 6.00 Build 0)  -->
<svg version="1.1" id="Livello_1" xmlns="http://www.w3.org/2000/svg" xmlns:xlink="http://www.w3.org/1999/xlink" x="0px" y="0px"
	 viewBox="0 0 200 200" style="enable-background:new 0 0 200 200;" xml:space="preserve">
<style type="text/css">
	.st0{fill:#A3E1FF;}
	.st1{fill:#4AAEE2;}
</style>
<path class="st0" d="M130.1,30.7c-10.8,0-21,2.5-30,7c0.8,0.4,1.6,0.8,2.3,1.3C91,44.4,79.5,53.4,73,68.2c-0.9-0.1-2-0.1-2.9-0.1
	c-0.1,0-0.3,0-0.4,0C65.5,76.6,62.9,86,62.5,96h37.4c1.2-15.6,14.3-27.9,30.2-27.9c16.7,0,30.3,13.5,30.3,30.3
	c0,16.6-13.3,30-29.9,30.3c-0.1,0-0.3,0-0.4,0c-1.4,0-2.7-0.1-4.1-0.3c-6.7,14.6-17.8,23.5-28.9,29c0.9,0.5,2,1,2.9,1.6
	c9,4.5,19.2,7,30,7c37.4,0,67.6-30.2,67.6-67.6C197.7,60.9,167.5,30.7,130.1,30.7z"/>
<path class="st1" d="M137.7,96.6h-37.4c0,0.5,0.1,1,0.1,1.7c0,16.7-13.5,30.3-30.3,30.3c-16.7,0-30.3-13.5-30.3-30.3
	c0-16.6,13.3-30.1,29.9-30.3c6.6-13.1,17.3-23.8,30.4-30.3c-9-4.5-19.2-7-30-7C32.7,30.7,2.5,60.9,2.5,98.3
	c0,37.3,30.2,67.6,67.6,67.6c10.8,0,21-2.5,30-7c13.1-6.5,23.8-17.2,30.4-30.2c4.6-9.1,7.1-19.4,7.1-30.3
	C137.7,97.7,137.7,97.1,137.7,96.6z"/>
<path class="st0" d="M102.4,38.9C91,44.3,79.5,53.3,73,68.1C72.1,68,71,68,70.1,68c-0.1,0-0.3,0-0.4,0c6.6-13.1,17.3-23.8,30.4-30.3
	C101,38,101.7,38.5,102.4,38.9z"/>
</svg>
