<svg xmlns="http://www.w3.org/2000/svg" id="Livello_1" x="0" y="0" version="1.0" viewBox="0 0 200 200" xml:space="preserve"><style>.st1{fill:#163558}</style><path fill="#a8dae5" d="M19.7 52.5L100 6.2l80.3 46.3L100 98.8z"/><path d="M100 7.3l78.3 45.2L100 97.7 21.7 52.5 100 7.3m0-2.3L17.7 52.5 100 100l82.3-47.5L100 5z" class="st1"/><path fill="#2964ad" d="M18.7 146.9V54.2L99 100.6v92.7z"/><path d="M19.7 56L98 101.2v90.4l-78.3-45.2V56m-2-3.5zm0 0v95L100 195v-95L17.7 52.5z" class="st1"/><g><path fill="#63c7f2" d="M101 100.6l80.3-46.3V147L101 193.3v-92.7zM161.7 87c-.6 0-1 .4-1 1s.4 1 1 1 1-.4 1-1-.4-1-1-1z"/><path fill="#163557" d="M180.3 56v90.4L102 191.5v-90.4L180.3 56m2-3.5L100 100v95l82.3-47.5v-95z"/></g></svg>