<?xml version="1.0" encoding="utf-8"?>
<!-- Generator: Adobe Illustrator 19.0.1, SVG Export Plug-In . SVG Version: 6.00 Build 0)  -->
<svg version="1.0" id="Layer_1" xmlns="http://www.w3.org/2000/svg" xmlns:xlink="http://www.w3.org/1999/xlink" x="0px" y="0px"
	 viewBox="0 0 270 196" enable-background="new 0 0 270 196" xml:space="preserve">
<path d="M262.5,28.4h-2.6c-4.6,0-8.2,1.4-10.8,4.1c-2.6,2.7-5.3,8.3-8,16.7c-2.7,8.4-6.3,22.3-10.9,41.7l6.4-4h29l-5.7,22.5h-34
	c-4.2,18.4-8.2,33.2-11.9,44.6c-3.7,11.3-8.8,21-15.2,29s-14.6,12-24.5,12c-10,0-19.3-4.1-25.9-12.3c-6.6-8.2-10.9-18.2-14.7-29.8
	s-8-27-12.5-45.9l-1.3-5.6c-5.5-23-9.6-39.2-12.1-48.6c-2.5-9.4-4.6-15.6-6.3-18.6s-3.7-4.6-6-4.6c-1.8,0-3.6,1.9-5.4,5.8
	c-1.8,3.8-4,10.7-6.7,20.5s-6.2,24.6-10.8,44.4l-1.6,6.9c-4.4,19-8.5,34.2-12.3,45.8c-3.8,11.6-9,21.4-15.6,29.7
	c-6.6,8.2-15,12.3-25.1,12.3H0.8l6.7-27.1h2.6c4.5-0.1,8.1-1.5,10.7-4.2c2.6-2.7,5.3-8.3,8-16.7c2.5-7.8,5.9-20.3,10-37.5
	c0.3-1.3,0.6-2.6,0.9-4l-6.4,4H4.5l5.5-22.5h34c4.2-18.4,8.2-33.4,11.9-44.7c3.7-11.4,8.8-21.1,15.2-29.1c6.5-8,14.6-12,24.4-12
	c10,0,19.3,4.1,25.9,12.4s11,18.2,14.8,29.9s8,27,12.5,46L150,95c5.4,22.6,9.3,38.6,11.9,48.1c2.6,9.4,4.7,15.7,6.4,18.7
	s3.7,4.6,6,4.6c1.9,0,3.8-1.9,5.6-5.8s4.1-10.7,6.7-20.5c2.6-9.8,6.2-24.6,10.8-44.5c0.7-2.8,1.2-4.9,1.4-6.4
	c4.3-18.9,8.4-34.2,12.1-45.8s9-21.6,15.6-29.8c6.7-8.3,15-12.4,25.2-12.4h17.3L262.5,28.4z"/>
</svg>
