<?xml version="1.0" encoding="utf-8"?>
<!-- Generator: Adobe Illustrator 21.0.0, SVG Export Plug-In . SVG Version: 6.00 Build 0)  -->
<svg version="1.1" id="Layer_1" xmlns="http://www.w3.org/2000/svg" xmlns:xlink="http://www.w3.org/1999/xlink" x="0px" y="0px"
	 viewBox="0 0 80 80" style="enable-background:new 0 0 80 80;" xml:space="preserve">
<style type="text/css">
	.st0{fill:url(#SVGID_1_);}
	.st1{fill:url(#SVGID_2_);}
	.st2{fill:none;stroke:#309478;stroke-width:0.15;stroke-miterlimit:10;}
</style>
<g>
	
		<linearGradient id="SVGID_1_" gradientUnits="userSpaceOnUse" x1="9.3049" y1="40" x2="70.7451" y2="40" gradientTransform="matrix(1 0 0 -1 0 80)">
		<stop  offset="0" style="stop-color:#1BB9EC"/>
		<stop  offset="1" style="stop-color:#2F9276"/>
	</linearGradient>
	<path class="st0" d="M62.9,55.8c11.3-15.9,10.3-35.9-2.4-44.6c-12.6-8.7-32-2.9-43.3,13C5.8,40.1,6.9,60.1,19.5,68.8
		S51.5,71.7,62.9,55.8z M50.5,62.3c-14.6,9.4-31.4,7.2-37.6-4.9C6.7,45.4,13.5,28,28,18.6s31.4-7.2,37.6,4.9
		C71.8,35.5,65,52.9,50.5,62.3z"/>
	
		<linearGradient id="SVGID_2_" gradientUnits="userSpaceOnUse" x1="5.4016" y1="40" x2="74.5375" y2="40" gradientTransform="matrix(1 0 0 -1 0 80)">
		<stop  offset="0" style="stop-color:#91D5F4"/>
		<stop  offset="1" style="stop-color:#1BB9EC"/>
	</linearGradient>
	<path class="st1" d="M48.7,16.9c-18.5-5.1-37.4,1-42.1,13.8c-4.8,12.7,6.3,27.2,24.8,32.4c18.5,5.1,37.4-1,42.1-13.8
		C78.3,36.5,67.2,22.1,48.7,16.9z M59.6,27.5C71.2,38.8,71.4,53.7,60,60.8s-30.1,3.7-41.7-7.6S6.5,27,17.9,19.9S48,16.2,59.6,27.5z"
		/>
</g>
<g>
	<polyline class="st2" points="46.3,26.5 45.9,26.5 45.9,23.2 40.9,23.2 40.9,26.3 38.3,26.3 38.3,23.2 32.9,23.2 32.9,26.3 
		29.1,26.3 29.1,31.9 31.6,31.9 31.6,49.3 29.1,49.3 29.1,54.2 32.9,54.2 32.9,56.8 38.5,56.8 38.5,54.3 40.7,54.3 40.7,56.8 
		46.1,56.8 46.1,54.4 46.2,54.4 46.9,54.4 	"/>
	<polyline class="st2" points="46.3,27 45.1,27 45.1,24 41.4,24 41.4,26.8 37.7,26.8 37.7,23.7 33.4,23.7 33.4,26.8 29.7,26.8 
		29.7,31.2 32.2,31.2 32.2,49.9 29.7,49.9 29.7,53.4 33.4,53.4 33.4,56.1 38,56.1 38,53.7 41.3,53.7 41.3,56.2 45.4,56.2 45.4,53.7 
		45.4,53.7 46,53.7 	"/>
	<path class="st2" d="M46.3,27.6l-1.7,0v-3H42v2.8h-4.8v-3h-3.3v3h-3.5v3.3h2.4v19.9h-2.4v2.2h3.7v2.8h3.3V53h4.5v2.6h2.6v-2.7h0
		h0.6l2.4-0.2c3.8-0.3,4.4-5.4,4.4-5.4c0.4-3.9,0-5-0.7-6.1c-0.3-0.5-0.8-0.9-0.9-1c-0.3-0.2-0.2-0.5-0.1-0.7
		c0.1-0.2,0.2-0.3,0.3-0.4c1.1-1.5,3.3-8.2-1.1-11C49,28,48.6,27.9,48,27.7C47.3,27.5,46.3,27.6,46.3,27.6"/>
	<path class="st2" d="M46,53.7l2.3-0.2c3.8-0.3,4.4-5.6,4.4-5.6c0.4-4.1,0-5.2-0.7-6.4c-0.3-0.5-0.7-1-0.8-1.1
		c-0.3-0.3-0.6-0.4-0.5-0.8c0.1-0.2,0.4-0.5,0.5-0.6c1.5-1.6,3.6-9.5-2.3-11.8c-0.7-0.3-2.7-0.2-2.7-0.2"/>
	<path class="st2" d="M46.7,54.4c0,0,1.3,0.2,2.7-0.4c3.8-1.5,4-6.3,4-6.3c0.6-2.9-0.2-5.5-0.6-6.1c-0.3-0.6-1-1.1-1.1-1.2
		c-0.3-0.3-0.5-0.6-0.4-0.8c0.1-0.2,0.5-0.6,0.5-0.6c1.5-1.2,3.3-9.9-2.1-12.3c-1.2-0.6-3.4-0.3-3.4-0.3"/>
	<polyline class="st2" points="45.5,28 44,28 44,25.2 42.5,25.2 42.5,28.1 36.6,28.1 36.6,25 34.3,25 34.3,28.1 31.1,28.1 
		31.1,30.2 33.3,30.2 33.3,51.1 31.1,51.1 31.1,52.2 34.8,52.2 34.8,55.1 36.7,55.1 36.7,52.3 42.5,52.3 42.5,55.1 43.9,55.1 
		43.9,52.2 44,52.2 46.9,52.2 	"/>
	<polyline class="st2" points="45,28.7 43.5,28.7 43.5,25.9 42.9,25.9 42.9,28.7 36,28.7 36,25.6 34.9,25.6 34.9,28.7 31.7,28.7 
		31.7,29.7 33.8,29.7 33.8,51.4 31.7,51.4 31.7,51.8 35.3,51.8 35.3,54.6 36.2,54.6 36.2,51.8 42.8,51.8 42.8,54.6 43.5,54.6 
		43.5,51.8 43.6,51.8 46.3,51.8 	"/>
	<g>
		<path class="st2" d="M44.9,48.9h-7.1c-0.4,0-0.8-0.4-0.8-0.8v-4.3c0-0.5,0.4-0.9,0.9-0.9h6.9c1.7,0,3,1.4,3,3v0
			C47.9,47.5,46.6,48.9,44.9,48.9z"/>
		<path class="st2" d="M44.9,49.4h-7.3c-0.6,0-1.1-0.5-1.1-1.1v-4.7c0-0.7,0.6-1.3,1.3-1.3h7.1c1.9,0,3.5,1.6,3.5,3.5v0
			C48.4,47.8,46.8,49.4,44.9,49.4z"/>
		<path class="st2" d="M44.6,50H37c-0.7,0-1.2-0.5-1.2-1.2v-5.7c0-0.7,0.6-1.3,1.3-1.3h7.7c2.2,0,4,1.8,4,4v0
			C48.9,48.1,47,50,44.6,50z"/>
		<path class="st2" d="M46.9,50.6l-11.2,0c-0.3,0-0.5-0.2-0.5-0.5v-8.4c0-0.3,0.3-0.6,0.6-0.6h11.6c1.1,0,2,0.9,2,2v5.3
			C49.2,49.9,48.1,50.6,46.9,50.6z"/>
		<path class="st2" d="M45.2,51.3h-9.9c-0.4,0-0.7-0.4-0.7-0.8v-9.1c0-0.5,0.4-0.9,0.9-0.9h9.8c2.6,0,4.9-0.5,4.8,4.2
			C49.9,48.7,50.5,51.3,45.2,51.3z"/>
	</g>
	<g>
		<path class="st2" d="M44.9,37.7h-7.1c-0.4,0-0.8-0.4-0.8-0.8v-4.3c0-0.5,0.4-0.9,0.9-0.9h6.9c1.7,0,3,1.4,3,3v0
			C48,36.3,46.6,37.7,44.9,37.7z"/>
		<path class="st2" d="M44.9,38.2h-7.3c-0.6,0-1.1-0.5-1.1-1.1v-4.7c0-0.7,0.6-1.3,1.3-1.3h7.1c1.9,0,3.5,1.6,3.5,3.5v0
			C48.5,36.6,46.9,38.2,44.9,38.2z"/>
		<path class="st2" d="M44.7,38.8h-7.6c-0.7,0-1.2-0.5-1.2-1.2v-5.7c0-0.7,0.6-1.3,1.3-1.3h7.7c2.2,0,4,1.8,4,4v0
			C48.9,36.9,47,38.8,44.7,38.8z"/>
		<path class="st2" d="M47.3,39.4l-11.5,0c-0.3,0-0.5-0.2-0.5-0.5v-8.4c0-0.3,0.3-0.6,0.6-0.6h11.6c1.1,0,2,0.9,2,2v5.1
			C49.3,38.2,48.4,39.5,47.3,39.4z"/>
		<path class="st2" d="M45.2,40h-9.9c-0.4,0-0.7-0.4-0.7-0.8v-9.1c0-0.5,0.4-0.9,0.9-0.9h9.8c2.6,0,4.9-0.5,4.8,4.2
			C49.9,37.5,50.5,40,45.2,40z"/>
	</g>
	<path class="st2" d="M45,28.7c0,0,1.3,0.1,1.9,0.1c1,0,2.5,0.4,2.9,1.1c1.3,2.4,0.8,8.3-0.5,9.4c-0.1,0.1-0.3,0.5-0.3,0.5
		c0,0.2-0.1,0.4,0.2,0.6c0.1,0.1,0.3,0.4,0.6,0.9c0.7,1,1.3,2.2,0.9,5.9c0,0-0.4,4.7-4.4,4.5"/>
	<path class="st2" d="M45.5,28c0,0,1.4,0,2,0.1c6,1.1,3.6,9.7,2.3,11.2c-0.1,0.1-0.2,0.2-0.3,0.3c-0.1,0.2-0.1,0.5,0.1,0.7
		c0.1,0.1,0.6,0.5,0.9,0.9c0.7,1,1.1,2.1,0.7,5.8c0,0-0.4,5.1-4.4,5.1"/>
</g>
</svg>
