<?xml version="1.0" encoding="utf-8"?>
<!-- Generator: Adobe Illustrator 22.1.0, SVG Export Plug-In . SVG Version: 6.00 Build 0)  -->
<svg version="1.0" id="Livello_1" xmlns="http://www.w3.org/2000/svg" xmlns:xlink="http://www.w3.org/1999/xlink" x="0px" y="0px"
	 viewBox="0 0 200 200" enable-background="new 0 0 200 200" xml:space="preserve">
<g>
	<rect x="5" y="66.3" fill="#80A7D9" width="19" height="19"/>
	<rect x="29.4" y="66.3" fill="#89ACDB" width="19" height="19"/>
	<rect x="53.9" y="66.3" fill="#93B0DC" width="19" height="19"/>
	<rect x="78.3" y="66.3" fill="#9EB4DD" width="19" height="19"/>
	<rect x="102.7" y="66.3" fill="#A4BCE1" width="19" height="19"/>
	<rect x="127.1" y="66.3" fill="#BAC6E5" width="19" height="19"/>
	<rect x="151.6" y="66.3" fill="#D4DFF2" width="19" height="19"/>
	<rect x="176" y="66.3" fill="#E5EBF7" width="19" height="19"/>
</g>
<g>
	<rect x="5" y="90.5" fill="#A5CDED" width="19" height="19"/>
	<rect x="29.4" y="90.5" fill="#ACD2EF" width="19" height="19"/>
	<rect x="53.9" y="90.5" fill="#B2D5F1" width="19" height="19"/>
	<rect x="78.3" y="90.5" fill="#B9DAF3" width="19" height="19"/>
	<rect x="102.7" y="90.5" fill="#CAE1F5" width="19" height="19"/>
	<rect x="127.1" y="90.5" fill="#D5E7F7" width="19" height="19"/>
	<rect x="151.6" y="90.5" fill="#EEF6FC" width="19" height="19"/>
</g>
<g>
	<rect x="5" y="114.7" fill="#CAE1F5" width="19" height="19"/>
	<rect x="29.4" y="114.7" fill="#D1E4F5" width="19" height="19"/>
	<rect x="53.9" y="114.7" fill="#DCEBF9" width="19" height="19"/>
	<rect x="78.3" y="114.7" fill="#E8F2FB" width="19" height="19"/>
</g>
</svg>
