<svg xmlns="http://www.w3.org/2000/svg" version="1" viewBox="0 0 200 200"><path fill="#0B4B89" d="M167.16 32.83C149.97 15.64 126.22 5 100 5S50.03 15.64 32.83 32.83 5 73.78 5 100c0 52.44 42.56 95 95 95 26.22 0 49.97-10.64 67.16-27.84S195 126.22 195 100s-10.64-49.97-27.84-67.17zm-2.09 122.65c0 .47-.47.85-.95.85H79.1c-.47 0-.95-.38-.95-.95v-1.24c0-.47.38-.95.95-.95h6.94c.47 0 .95-.38.95-.95V47.56c0-.47-.38-.95-.95-.95H79.1c-.47 0-.95-.38-.95-.95v-1.24c0-.47.38-.95.95-.95h80.65c.48 0 .95.38.95.86l1.05 29.45c0 .38-.29.76-.76.76h-.57c-.38 0-.67-.28-.76-.57-.95-4.09-7.89-28.69-40.85-27.65-.47 0-.86.38-.86.95V96.2c0 .48.38.86.86.95 3.99.38 21.19.86 24.8-21.47h1.62c.48 0 .95.38.95.95v45.6c0 .47-.38.95-.95.95h-.95c-.47 0-.85-.38-.95-.86-.19-4.08-2.47-21.18-24.32-21.56-.47 0-.95.38-.95.95 0 6.46.19 44.27.19 50.35 0 .48.38.85.86.85 5.41.38 34.86.95 45.12-30.97.1-.38.48-.67.85-.67h.48c.47 0 .95.48.95.95l-1.44 33.26z"/><path fill="#F9BC34" d="M96.39 51.74c1.14 0 2.28.19 3.51.67 1.81.67 3.23 2.09 3.99 3.89 1.04 2.66.95 5.32-.29 7.6-1.24 2.19-3.42 3.71-5.89 4.08l-1.24.19-1.24-.19c-3.99-.66-6.94-3.99-6.94-8.07 0-2.19.86-4.18 2.38-5.79 1.54-1.52 3.53-2.38 5.72-2.38m0 81.61l1.24.19c3.89.57 6.94 4.09 6.94 8.07 0 4.46-3.71 8.17-8.17 8.17-1.14 0-2.28-.19-3.51-.67-1.81-.66-3.23-2.09-3.99-3.9-1.04-2.66-.95-5.32.29-7.6 1.24-2.19 3.42-3.71 5.89-4.09l1.31-.17m-50.45.76l1.23.19c3.99.57 6.94 4.08 6.94 8.07 0 4.46-3.71 8.17-8.17 8.17-1.14 0-2.28-.19-3.52-.66-1.81-.66-3.23-2.09-3.99-3.9-1.05-2.66-.95-5.32.28-7.6 1.24-2.18 3.42-3.7 5.89-4.08l1.34-.19m50.45-86.64c-6.84 0-12.44 5.61-12.44 12.44 0 6.27 4.56 11.4 10.54 12.25V96.2H44.04v33.91c-7.6 1.14-12.92 9.12-9.5 17.48 1.14 2.85 3.51 5.13 6.37 6.27 1.71.67 3.42.95 5.03.95 6.84 0 12.44-5.6 12.44-12.45 0-6.27-4.56-11.4-10.54-12.26V100h46.65v29.35c-7.6 1.14-12.92 9.12-9.5 17.48 1.14 2.85 3.51 5.13 6.36 6.27 1.71.66 3.42.95 5.04.95 6.84 0 12.44-5.6 12.44-12.45 0-6.18-4.56-11.3-10.55-12.25V100h49.69v29.26c-7.98.76-13.78 8.93-10.26 17.48 1.14 2.85 3.51 5.13 6.36 6.27 1.71.66 3.42.95 5.04.95 6.84 0 12.45-5.6 12.45-12.45 0-5.89-4.08-10.83-9.6-12.07V96.11H98.29V72.16c7.6-1.14 12.92-9.12 9.5-17.48-1.14-2.85-3.51-5.13-6.36-6.27-1.72-.66-3.42-.95-5.04-.94zm52.82 102.5c-4.56 0-8.26-3.7-8.26-8.26s3.7-8.26 8.26-8.26 8.26 3.7 8.26 8.26-3.7 8.26-8.26 8.26z"/></svg>