<svg xmlns="http://www.w3.org/2000/svg" viewBox="0 0 200 200"><linearGradient id="a" x1="5" x2="194.4428" y1="99.7214" y2="99.7214" gradientUnits="userSpaceOnUse"><stop offset="0" stop-color="#fab420"/><stop offset=".1755" stop-color="#fab620"/><stop offset=".281" stop-color="#fabc1f"/><stop offset=".3681" stop-color="#fbc51d"/><stop offset=".4445" stop-color="#fbd21a"/><stop offset=".5" stop-color="#fbde14"/><stop offset=".5153" stop-color="#fcdd15"/><stop offset=".6297" stop-color="#fdd517"/><stop offset=".7686" stop-color="#fed018"/><stop offset="1" stop-color="#ffcf18"/></linearGradient><path fill="url(#a)" d="M107 12.2c-39.6 0-73 26.3-83.8 62.4H5v51.3h18.5c11.1 35.5 44.3 61.3 83.5 61.3h.6v-52.4h-.6c-19.4 0-35.1-15.7-35.1-35.1S87.6 64.6 107 64.6s35.1 15.7 35.1 35.1v.6h52.4v-.6c-.1-48.3-39.2-87.5-87.5-87.5z"/><linearGradient id="b" x1="134.8241" x2="195" y1="156.5542" y2="156.5542" gradientUnits="userSpaceOnUse"><stop offset="0" stop-color="#fab420"/><stop offset=".1755" stop-color="#fab620"/><stop offset=".281" stop-color="#fabc1f"/><stop offset=".3681" stop-color="#fbc51d"/><stop offset=".4445" stop-color="#fbd21a"/><stop offset=".5" stop-color="#fbde14"/><stop offset=".5153" stop-color="#fcdd15"/><stop offset=".6297" stop-color="#fdd517"/><stop offset=".7686" stop-color="#fed018"/><stop offset="1" stop-color="#ffcf18"/></linearGradient><path fill="url(#b)" d="M169.4 154.3H195v32.3h-14.5v-3.3s-6.7 4.5-15.6 4.5c-8.9 0-30.1-5.6-30.1-31.2s22.3-31.2 31.2-31.2c8.9 0 18.9 3.3 25.6 13.4l-12.3 8.9s-3.3-7.8-13.4-7.8-13.4 8.9-13.4 17.8 6.7 15.6 12.3 15.6c8.9 0 9.5-.6 15.6-6.7h-11.1v-12.3z"/></svg>