<svg xmlns="http://www.w3.org/2000/svg" version="1" viewBox="0 0 200 200"><linearGradient id="a" x1="82.68" x2="82.68" y1="195" y2="5" gradientUnits="userSpaceOnUse"><stop offset="0" stop-color="#966fe7"/><stop offset="1" stop-color="#00d18f"/></linearGradient><path fill="url(#a)" d="M140.4 153.4c-11.2 8.5-25.3 13.6-40.4 13.6-36.9 0-67-30.1-67-67s30.1-67 67-67c14.6 0 28.2 4.7 39.2 12.7l19.6-20.4C142.6 12.6 122.2 5 100 5 47.5 5 5 47.5 5 100s42.5 95 95 95c22.9 0 44-8.1 60.4-21.6l-20-20z"/><path fill="#283948" d="M99.3 63L62.6 99.8 99.8 113l36.8-12.8L99.3 63zm.2 26.4L89 100l-15.8-.1 26.3-26.3 26.5 26.5-15.9-.1-10.6-10.6z"/><path fill="#738591" d="M99.8 112v25L62.6 99.8z"/><path fill="#657686" d="M136.6 100.2L99.8 137v-25z"/></svg>