<svg xmlns="http://www.w3.org/2000/svg" viewBox="0 0 200 200"><path fill="#1b1464" d="M17.3 62.2c0-3.1-.1-5.8.1-8.6 0-.5.7-1.2 1.2-1.5 18.6-10.8 37.2-21.5 55.9-32.3L97.9 6.2c.7-.4 1.3-.8 2-1.2 14.9 8.6 29.9 17.2 44.8 25.9 12.3 7.1 24.6 14.2 36.8 21.3.6.4 1.1 1.2 1.1 1.9.1 30.7.1 61.4 0 92.1-.1.8-.5 1.5-1.1 1.9-26.7 15.5-53.5 30.9-80.2 46.4-.9.6-1.7.6-2.7 0-26.7-15.5-53.5-30.9-80.2-46.4-.5-.3-1.1-1-1.2-1.5-.1-4.3-.1-8.6-.1-13h17.8c.1.1.2.3.2.4-.5 2.9 1.2 4.2 3.5 5.5 19.8 11.3 39.6 22.8 59.3 34.2 1.4.8 2.4.8 3.7 0l61.2-35.4c1.2-.7 1.6-1.5 1.6-2.8V64.6c0-1.4-.4-2.1-1.6-2.8-20.5-11.8-40.9-23.6-61.4-35.4-1.3-.7-2.2-.7-3.4 0-19.4 11.5-39.1 22.9-58.8 34.3-1.7 1-3.6 1.5-5.6 1.5-5.3-.1-10.7 0-16.3 0zm33.4 29.2h68.6c2.2 0 3.1.7 3.2 2.3s-1.2 2.4-3.2 2.4H48.2v2.4h66.6c1.5 0 2.3.9 2.3 2.3 0 1.5-1 2.3-2.4 2.4-.6 0-65.7.1-66.5.1V115h91.7c.1-1.1-.1-2 0-2.9h9.3c0 2.9.3 9.3 0 9.3-2.8.1-6.5 0-9.3 0-.1-1.3.1-2.3 0-3.2H48.2v9.4c0 3 .1 3.1 3.1 3.1H100v-3.2h9.5v3.2h32.4v2.8h-32.4v3.3h-9.7v-3.2H54.6c.5.4 29.8 17.3 44.2 25.6 1.2.7 1.9.3 2.9-.2 16.2-9.4 32.4-18.7 48.7-28.1 1.1-.6 1.5-1.4 1.5-2.6V71.9c0-1.2-.4-1.9-1.4-2.5-16.5-9.5-32.9-19-49.3-28.4-.7-.3-1.5-.3-2.3 0-16.5 9.5-33 18.9-49.4 28.4-1.1.6-1.4 1.3-1.4 2.5.1 3.9 0 19.4 0 19.4l2.6.1zm33.3 18c-.1 2.6-2.4 4.9-5 4.9-2.7-.1-4.8-2.3-5-4.9 0-2.8 2.3-5 5-5s5 2.3 5 5zm6.6 4.9c-2.7-.1-4.8-2.3-4.9-5-.1-2.7 2.1-5 4.8-5.1 2.7-.1 5 2.1 5.1 4.8v.3c0 2.8-2.2 5-5 5zm-23.3 0c-2.8 0-5-2.3-5-5-.1-2.7 2.1-5 4.8-5.1s5 2.1 5.1 4.8v.3c-.1 2.7-2.2 4.9-4.9 5zm-11.7 0c-2.6.1-5.1-2.4-5.1-5 .1-2.7 2.2-4.9 4.9-5 2.8 0 5 2.2 5.1 5-.1 2.7-2.2 4.9-4.9 5zm-2.4-25.9c-2.2-.1-3.3-1.1-3.3-3.1 0-2.1 1.1-3.2 3.3-3.3 1.8 0 3.6-.1 5.3 0 2 .1 3 1.2 3 3.2s-1 3-3 3.1c-.9.1-5.3.1-5.3.1zm13.4 0c-2.1-.1-3.1-1-3.1-3 0-2.2.9-3.2 3-3.3 1.8-.1 3.7-.1 5.6 0 2.1.1 3.1 1.3 3.1 3.3-.1 1.9-1.1 2.9-3.2 3h-5.4zm14.4 0c-2.2-.1-3.2-1.1-3.2-3.1s1-3.1 3.2-3.2c1.8-.1 3.7-.1 5.6 0 2 .1 2.9 1.2 2.9 3.2 0 1.9-1 2.9-2.9 3.1H81z"/></svg>