<svg xmlns="http://www.w3.org/2000/svg" viewBox="0 0 200 200"><path fill="#ffd42a" d="M88.7 189.3c-19.7-2-35.5-11.7-51.4-26.3-14.8-13.6-24.5-33-26.7-53.1-2.3-21.4 2.7-41.4 15-59.3C37.7 33 50.4 20.3 71.5 14.1c17-5 37.5-5.2 54.7-.5 14.1 3.8 28.6 11.8 37.1 20.2l2.3 2.3-1.7-1.1c-3.8-2.5-4.8-2.7-7.8-1.7-1 .3-2.2.6-2.8.7-1.5.3-1.3 1.2.6 3.6.9 1.1 2.9 3.6 4.4 5.6 5.1 6.4 9.4 12.6 11.4 16.5 1.1 2.1 2.3 4 2.6 4.3.5.4 1.6.4 5 .2 2.4-.1 4.8-.4 5.3-.6 1.5-.6 1-3-1.8-7.9-2.4-4.2-2.8-5.7-.8-3 1.5 2 5.6 9.2 7.6 13.2 5.8 12.1 8.2 28.2 6.5 44.2-1.7 16.2-8 31.2-18.9 44.8-3.1 3.9-10.9 11.4-15 14.6-9.8 7.5-22.7 13.9-33.8 16.9-11.7 3.1-25.1 4.1-37.7 2.9zm-33-34.7c0-.4-1.1-1.7-2.8-3.2-3.4-2.9-8.5-8.4-12.1-13-3.1-3.8-3.7-4.5-4.3-3.9-1 1 5.3 10 10.3 14.5 2.7 2.5 7.9 6.3 8.6 6.3.1 0 .3-.3.3-.7zm-5.5-104c7.5-7 13.7-10.5 25.8-14.8 1.6-.6 1.7-.7 1.2-1.2-.4-.4-.9-.5-1.8-.3-2.5.5-8.8 2.8-11.9 4.3-6.7 3.4-17.3 10.9-18.7 13.5-.4.8-.4 1.1 0 1.5.3.3.7.6 1.1.6.2 0 2.2-1.6 4.3-3.6z"/><path fill="#e9ab1d" d="M81.4 184c-28.7-4.3-53.2-23.1-64.8-49.7C5.9 109.7 8.2 82.1 18.7 58c10.5-23.9 34.7-39.8 59.9-44.7 10.7-2.1 16.7-.1 27.5 1.8 20.9 3.5 38 17.5 40.5 19.7 7 6.3 12.5 13.6 17.7 20.8 1.7 1.8 3.1 2.8 4.6 4.7 2.1 2.7 3 9.3 6.2 11.1 6 3.5 11.8-4.2 15.3 3.6 9.2 20.7 3.5 50-8 68.5-5.6 9-12.5 17.1-20.8 23.7-1.7 1.4-4.3 4.1-6.5 4.7-1.6.5-10.7-.7-10.7-.9 0-2.3 6.7-4.8 5.7-7.1-1.1-2.3-4.6 1.4-5.5 2.1-7.7 5.7-15.7 10.5-24.7 13.7-12.1 4.5-25.7 5.9-38.5 4.3zm10.7-17.7c1.4-1.4-8.5-2.1-9.7-2.3-4.7-.9-9.1-2.4-13.5-4.3-8.1-3.5-15-8.4-21.2-14.8-5.5-5.7-9.9-12.2-13-19.4-.9-2.1-4.4-15.8-6.8-14-3.3 2.4 4.4 17.8 5.5 19.9 3.8 7.8 8.9 14.4 15.3 20.1 6.6 5.8 14.3 10.4 22.8 13 5.7 1.7 15 4.6 20.6 1.8zm12.3-11.8c27.2-9.1 56.7-40.6 45.1-71.5-5.1-13.6-17.6-16.5-30.7-16.9-4.9-.2-12.7-1.6-14.9 3.2-1.2 2.6-.5 7.2-.4 10.1 0 .9 1.1 7.6.8 8-3.9 3.9-6.6-2.1-7.9 4.1-.5 2.3.4 5.9.5 8.3.3 8.2.3 16.4.2 24.6-.1 6.6.2 13.5-.6 20.1-.9 7-1.8 13.4 7.9 10zm1.5-9.4c19.4-7.1 38.4-25.7 39.6-47.3.6-9.6-1.5-19.3-10.9-24.1-2.7-1.3-5.4-1.7-8.3-2-3-.3-12.7-2-15.5-.1-1.5 1-2.1 2.3-1.5 4.4.9 3.3 2.2 1.6 6.1 1 11.1-1.8 22.4 1.2 24.8 13.9 1.8 10.1-3 20.7-9 28.5-3.2 4.1-19.2 21.4-23.1 15.9-2.3-3.2-.3-14.7-.4-18.6 0-2.9-.1-5.8-.1-8.8 0-5 2.8-15.3-4.3-14.2-.2 9.7-.4 19.4-.5 29.1-.1 6-.1 12.1-.1 18.2.1 2.5-1.6 5.6 3.2 4.1zm21.9-16c.6-1.7-.2.6 0 0zm-14.2-11.2c0-6.2-.2-12.5.2-18.8.1-2 .5-4.1.5-6.1 0-4.1.1-2.8-2.1-5.5-.4-.5 9-2.2 9.8-2.2 3.6.2 7 1.3 9.6 3.8 6 6 2.2 16-1.3 22.4-2.1 3.9-9.5 16.5-15 17-3.2.3-1.7-7.4-1.7-10.6zM89.8 154c2.8-2.6 1.1-5.9.7-9.1-.8-6.1-.3-12.7-.4-18.9-.1-9.5-.2-19.1 0-28.6.1-1.8.9-5.9.4-7.5-1.1-3.6-3.7-3.2-8-3.2 1.2 0 1.2-18.2.2-19.5-2.1-2.6-5.8-1.6-9-1.6-15.2 0-30.9.7-36.6 17.7-5.7 17.1 2 37 13.6 49.7 6 6.6 13.1 11.9 21 16 4 2 13.8 8.4 18.1 5zm-5.5-9.2c1.4-3.7 0-10.7 0-14.6 0-5.3-.1-10.6-.1-15.8 0-4.9-.1-9.7-.2-14.6 0-3.4 1.4-6.6-2.3-6.6-7.3-.1 1.7 38.2-3.1 42.7-5.3 4.9-24.5-19.4-26.5-22.9-6.3-11.1-9.8-29.5 4.8-36 6.2-2.8 11.5.5 17.5 0 3.2-.3 3 1.5 3.3-2.5.2-3.2 0-2.5-1.9-3.6-3-1.7-11.6-.1-14.9.2-6.6.5-12.4 3.1-16.2 8.8-9.5 14.2.3 34.2 9.7 45.5 4.3 5.2 8.9 10.1 14.8 13.3 3.4 2 11.2 7.1 15.1 6.1zm-13.4-17.4c-9.3-6.5-19.6-19.9-18.7-31.9.4-5 3-8.4 7.8-10.1 1.7-.6 15.6.1 14.7 1.3-1.6 2-1.8 1.3-2 4.9-.3 5.5.6 11.1.7 16.6 0 1.4.7 20.3-.6 20.3-.5-.1-1.5-.8-1.9-1.1zM46.2 55.6C56.6 45.1 69.6 37 84.5 35.2c6.2-.8 13.1-.7 19.3.2 1.1.2 15.1 3.7 15.1 2.2 0-4.2-23.9-6.2-27.2-6.2-9.9 0-19.6 2.5-28.5 6.9-8 4-15.6 9.2-21.1 16.4-5.4 7.5-.1 5.1 4.1.9z"/><path fill="#a82007" d="M97.4 150.4c-.2-.3-.1-1.6.5-3.9.9-3.4.8-51.8.4-53.8l-.4-3.3s14.2-.1 14.5.3c.1.2-1.7 36-.9 39.8.2 1.1.9 2.2 2.7 1.3 3.6-1.8 11.1-8.6 14.1-13 2.1-3.1 5.6-9.9 6.9-13.6 2.8-8.1 1.5-16.5-3.2-20.9-5.3-4.9-12.6-5.3-22.6-1.1-1.9.8-3.7 1.3-4 1.2-.5-.3.1-14.5.6-15.3.6-1 22.6 0 26.7 1.1 4 1.1 10 5.6 12.4 9.3 5.7 8.7 5.1 24.8-1.4 37.3-7.4 14.4-21.4 26-39.4 32.8-5.2 2-6.5 2.4-6.9 1.8zm10.4-5.8c9.3-3.8 13.8-6.6 18.6-11.3 10.2-10.1 16.8-20.7 18.9-30.5.8-3.7.8-13.5 0-16.4-1.5-5.7-5.8-10.8-11.1-13.3-4-1.8-6.7-2.2-16.9-2.2-9.1 0-8.6-.3-8.6 4.1 0 3.6.3 3.8 4.7 2.6 4.2-1.1 9.3-1.5 12.5-.9 6.4 1.1 11.6 6 13.3 12.6.7 2.7.8 8.6 0 11.8-1.2 5.5-4.3 12.1-8.4 17.6-3.4 4.7-10.1 11-14.8 14-4.1 2.6-7.2 4-7.7 3.5-.2-.1-.7-42.9-.7-42.9s-3.8.2-4.8.2c-.1.5-.5 47-.6 48.6-.4 3.6-.4 4.2 1.4 3.9.7-.1 2.5-.8 4.2-1.4zm-23 4.2c-13-4.6-22.9-10.6-31.3-19.2C46 122 41.3 114 38.8 104.9c-.8-2.9-.9-4-.9-11.3 0-8.8.1-9.7 2.7-14.4 2.9-5.4 8.2-9.5 14.3-11.1 3.1-.8 25.4-1.2 25.9-.5s.7 14.5.3 14.9c-.2.2-1.6-.2-3.8-1.1-6.8-3-13.3-3.6-18.3-1.8-3.6 1.3-7.7 5.8-8.6 9.5-.1.6-.3 3.2-.3 5.8 0 4.3.1 5.2 1 7.9 1.4 4.3 4.3 10 6.8 13.8 4.2 6.2 14.3 14.8 16.4 14 .3-.1.7-.6.8-1 .1-.5-.1-37.1-.6-38.7-.6-1.8-.6-1.9.2-2.3.8-.4 13.7 0 14 .4.1.1-1.7 49.5-1 52.1 1.1 4.2 2.2 8.3 1.3 8.7-.5.2-2.6-.5-4.2-1zm-.4-3.8c.1-.2.2-4.1.2-8.6s-.2-16.3-.3-26.1L84 92.5h-5.3s-.1 42.6-.3 42.8c-.4.4-4.8-1.5-8.2-3.7-7.5-4.7-15.5-13.7-19.5-21.8-2.7-5.6-3.8-9.2-4-13.9-.3-5.1.2-7.7 2-11.2s4.4-6 8-7.7c2.7-1.2 3.1-1.4 7.1-1.6 3.9-.1 4.6-.3 8.7.8 2.1.5 4.6 1.5 5.1.8.4-.5.5-1.2.3-3.2-.4-4 0-3.7-5-4-9-.6-16.8.4-21.5 2.7-4.5 2.2-8.8 7.9-10.1 13.2-.8 3.1-.7 12.2 0 15.8 2 10.1 8.5 20.2 17.8 29.7 0 0 7.7 7.9 23.5 13.7.5 0 1.7.4 1.8.1z"/><path fill="#a80" d="M161.5 148c0-3.7 4.8-9.4 6.3-12.9 2.1-5 3.8-10.1 5.1-15.4 2.5-10.7 2.8-21.6 1.9-32.5-.1-1-1.3-6.4.8-5.6 1.9.8 2.4 9.7 2.6 11 .6 3.8.9 7.5.8 11.3 0 1.1-1.6 8.1-.6 9.2.6.7 8 0 8.7.1 4 .2 3.9-.4 4.7 2.5 1.6 5.7-4.7 20.8-8.3 24.8-2.8 3.2-5.8 2.3-10.1 2.3-2.8 0-3.8-.1-5.8 1.1-2.4 1.3-2.8 4.5-6.1 4.1z"/><path d="M77.7 187.5c-12.5-3.6-20.9-9.5-22.6-10.4 15.5 6.6 16.6 8.3 41.8 12.7 0 0-10.8-.2-19.2-2.3zm27.8 2.1c33.4-4.1 62.8-20.4 77.9-48.3 6.8-12.5 10.2-26.4 10.3-40.6 0-6.1-.1-12-1.3-18-.4-1.8-1.4-10.2-8-22.7 1.8 1.5 6.7 14 7.1 15.3 1.8 6 2.8 11.7 2.9 17.9.2 14.9-.6 27.7-6.6 41.6-13 29.4-45.4 53.5-82.3 54.8zm-31.6-24.4c-11.3-3.1-21.4-9.1-31.6-20.1-7.4-9.1-10.6-13-14.7-27.1 4.4 13.7 9 17.9 10.1 19.6 3.4 5 7.4 9.5 11.9 13.5 6.9 6 18.9 13.1 29.6 15.2-2.3-.2-3.9-.7-5.3-1.1zm-9.4-7.1c-9.5-4.6-17.7-11.7-23.8-20.3-3-4.2-5.3-8.8-7.2-13.6-1-2.6-3-10.8-4.7-12.6 2.4 2.5 5 11.5 6.5 15 2.2 5 5 9.8 8.4 14.2 3.1 3.9 6.7 7.4 10.7 10.5 4.2 3.3 8.2 5.3 14 8.6-.5-.6-4-1.8-3.9-1.8zm68.3-108.8c16.3 13.7 24.3 35.7 22 56.7-1.1 10.8-5 21.1-11.1 30-10.5 13.1-13 13.5-21.3 19.2 17.4-12 30.6-28.8 31.8-50.8 1.2-20.7-6.2-41.1-22.3-54.7-18.3-15.4-44.4-18.6-65.7-7.6-9.1 4.7-17 11.8-22.7 20.2-3 4.3-5.4 9-7.2 13.9-1.1 2.9-3.5 10-4 15.5.6-12.3 7.1-25.5 12.9-32.6 4.5-5.6 9.9-10.8 16-14.8 5.3-3.5 11.1-5.9 17.8-8.1-1.6 1.2-6.1 1.6-8.1 2.4-4.4 1.7-8.5 3.8-12.4 6.4-3.6 2.4-6.9 5.1-10 8.1-2.8 2.7-5.1 7.3-8.3 9.3 1.3-.8 10.4-12.7 13.6-15.2 7.7-6 17-10.4 26.5-12.3 6.3-1.2 13.2-1.1 19.6-.7 6 .4 12 3.4 18 2.8-13.5-5.3-28-7.3-42.2-3.3-7.6 2.2-14.8 5.6-21.3 10.1-4.1 2.9-14.4 10-15.9 15.1 1.9-6.5 11.5-13.3 16.9-16.8 8-5.3 17.3-9.2 26.7-10.6 6.8-1.1 14.1-1.1 20.9.1 1.9.3 17 3.2 17 5.8 0 .6-5.7.4-6.6.4 7 3 13.6 6.7 19.4 11.5zM83 35.6c-2.1-.7-.1 0 0 0zm2.2-.3c-2-.8-.1-.1 0 0zm17.5 0c-1.2-1.2.2.2 0 0zm53.8 118.2c7.7-11.5 13.7-22.9 16.7-36.4 1.3-6.1 1.8-12.3 1.8-18.5 0-4.1-1.4-13-.1-16.7-1 2.9.6 11.9.7 15.6.2 7.4-.4 14.7-2.1 21.9-3 13.1-9.8 23.2-17 34.1zm15.7-86.8c-1.4-3.5-5.2-14.7-8-16.6 3.7 2.5 8.1 14.8 9.8 19.9 2.4 7.2 6.4 18 4.8 25.8-.3-10.4-3.2-20.6-6.6-29.1zm-146 24.6c-.1-2.8.5-7.7 2-10.2-.7 1.4-2 9.6-2 10.2zm141.9-26.6c-5.4-12.1-13.6-23.2-23.8-31.6-4.4-3.6-9.2-6.9-14.2-9.5-3.5-1.9-13-5.6-16.8-6.5 3 .4 14.2 4.2 17.4 5.9 6.1 3.2 11.8 7.3 16.9 11.9 5.2 4.7 9.7 10 13.6 15.8 1.1 1.7 10.3 16 8.7 17.4-.1 0-1.7-3.2-1.8-3.4zm-136-25.1c4.6-5.5 10.7-10 16.7-13.8 1.6-1 13.2-7.1 15.1-7.8-1.9.7-15.9 9-17.5 10.1-4.2 2.8-12.6 9.6-14.3 11.5zm127.6-8.9c-14.4-11.8-33.8-18.4-52.1-20 11.3 1.2 21.5 2.8 32.1 7.5 7.9 3.4 16 8.6 21.6 14-.3-.4-1.2-1.3-1.6-1.5z"/><path d="M96.8 151c-.4-.4-.3-1.2.4-3.9.9-3.4.9-3.6.9-28.5 0-20-.1-25.5-.5-27s-.4-2-.1-2.4c.3-.3 2.9-.5 8.1-.6 6.3-.1 7.7 0 7.9.4.1.3-.1 1.5-.4 2.7-.5 1.7-.7 5.3-1 16.9-.4 14.5-.2 21.6.5 22 1.4.9 12.3-8.7 15.8-13.8 2-3 4.9-8.8 6.3-12.9 1.1-3.3 1.2-3.7 1.2-8.4 0-5.9-.7-8-3.5-11-5-5.3-11.9-5.9-21.6-2.1-1.6.7-3.2 1.3-3.4 1.5-.2.2-.8.3-1.4.3-.8 0-1.1-.2-1.3-1-.3-1.2.1-14.7.4-15.5.2-.6 1-.6 7.5-.6 9.1 0 18.2.6 20.6 1.3 5.5 1.6 11.3 6.5 13.7 11.5 1.9 3.8 2.5 6.2 2.8 10.9.6 9.4-1.8 19.6-6.6 27.8-5.1 8.7-12.6 16.3-22.1 22.4-4.4 2.8-12.5 6.8-18 8.7-4.6 1.8-5.6 1.9-6.2 1.3zm7.1-2.4c17.3-6.5 30.9-17.3 38.7-30.6 4.4-7.6 6.4-15 6.4-24.3 0-6.1-.6-9.1-2.7-13.3-2.4-4.8-8.5-9.8-13.8-11.2-2.4-.7-12.7-1.3-20.6-1.3-4.8 0-5.7.1-5.8.6-.4 1.1-.7 14.6-.3 14.8.2.1 1.5-.3 2.9-.9 9.1-4 16.5-4.3 21.8-.9 2.4 1.5 4.1 3.5 5.4 6.3 1 2 1 2.4 1 7.7 0 5.4 0 5.8-1.2 9-1.8 5.1-5.1 11.2-8.1 15-3 3.9-9.6 9.7-12.5 11.2-2.4 1.2-3.2.9-3.6-1.2-.7-3.4.7-39.8.7-39.8s-13.5 0-13.6.1 0 1.2.2 2.5.5 12 .7 25.8l-.1 23.5-.7 3.9c-1.3 5.1-1.3 5.2.2 4.9.5-.3 2.8-1 5-1.8zm-2.1-3.1c-.1-.3-.1-1.2.1-2.1.2-.9.4-12.6.5-26.1l.2-24.5h5.3l.2 5.3c.1 2.9.3 12.7.3 21.7 0 9.1.1 16.5.2 16.5.5 0 4.4-1.9 6.4-3.1 10.2-6.3 19.1-17.1 23-27.8 4.4-12.1 1.2-22.9-8-27.3-2.5-1.2-2.9-1.2-7.3-1.4-4.2-.1-5.1 0-8.7.9-5.3 1.3-5.4 1.3-5.3-2.8.1-1.7.2-3.3.3-3.5.3-.7 17.5-.6 21 .1 3.9.8 6.5 2.2 9.7 5.3 4 3.8 5.7 7.3 6.3 12.7.5 4.7.2 11.1-.8 14.7-2.4 9.1-8 18.2-17.4 28-4.5 4.7-6.4 6.1-12.3 9.1-8.6 4.2-13.2 5.7-13.7 4.3zm4.3-1.1c3-1.1 9.8-4.4 13.2-6.3 3.8-2.2 11.3-9.7 16.1-16.4 3.1-4.2 3.4-4.8 5.5-8.9 3.4-6.8 4.3-10.6 4.3-18.6 0-6.6-.3-8.1-2.1-11.7-2.5-4.9-6.7-8.5-12-10.1-2.4-.7-3.4-.8-12-.8h-9.4l-.2 2.5c-.3 3.6-.1 3.7 3.9 2.5 2.8-.8 4.2-1 8.4-1 4.4 0 5.4.1 7.2.8 4.5 1.7 8.2 5.3 10.2 9.9 1 2.3 1.2 3.3 1.4 6.8.2 5.1-.3 8.6-2 13.2-4.7 12.5-15 23.8-26.8 29.5-3.3 1.6-3.8 1.4-4.1-1.3-.1-1.2-.3-10.9-.3-21.6V93.5l-2 .1-2 .1-.2 24.9c-.1 13.7-.4 25-.5 25.4-.1.6 0 1.2.6 1.2.1.1 1.4-.3 2.8-.8zm-20.4 5.3c-22-7.5-38.7-21.7-45.6-39-2.1-5.3-2.7-8.5-2.9-15.9-.2-8.4.2-11 2.5-15.5 2.6-5.1 6.9-8.9 12.3-11.1 2.4-1 3.6-1.2 7.6-1.5 7.1-.5 21.7-.4 22 .1.4.6.9 14 .6 15.4-.1.7-.5 1.1-.9 1.2s-2.2-.5-4.1-1.3c-4.9-2.1-7.7-2.7-11.9-2.8-4.9 0-6.9.7-9.8 3.4-1.4 1.3-2.6 2.9-3.4 4.4-1.1 2.3-1.1 2.6-1.1 7.3 0 3.8.2 5.5.8 7.6 1 3.4 4.6 10.8 7 14.3 3.5 5.1 14.5 14.6 15.6 13.5.2-.2.7-34.9-.7-39.1-.4-1.3-.6-2.6-.4-2.7.4-.4 15.7-.1 16.2.3.2.2.1 1.6-.3 3.5-.6 2.8-.6 49.8-.6 49.8l1 4.1c.8 3.3.9 4.2.5 4.6-.7.6-.8.6-4.4-.6zm3.5-.6c0-.4-.4-2.4-.9-4.5l-.9-3.8s.6-47.6.9-49.3c.3-1.3.4-2.5.3-2.6-.1-.2-3.4-.3-7.4-.3H74l.6 1.7c.6 1.9 1.4 24.2 1.2 33.9-.2 7.2-.6 7.7-4.9 5-3.2-2-9.2-7.8-12-11.3-2.5-3.2-6-10-7.7-14.8-1-2.9-1.1-3.5-1.1-8.5 0-5.4 0-5.5 1.2-7.9 1.5-3 4.5-6 7.2-7.2 4.1-1.8 12.1-1.3 17.6 1.1 4.8 2.1 5 2.2 5.2 1.5.3-.8-.1-14.2-.5-14.7-.3-.5-20.7-.2-24.4.4-3.8.6-8.2 3-11.5 6.2-4.8 4.6-6.7 9.1-7 16.8-.4 10.6 1.8 19.1 7.2 27.8 6.3 10.1 17.4 19.8 28.9 25.4 4.9 2.4 13.3 5.6 14.7 5.7.3 0 .6-.3.5-.6zm-8.8-4.7c-4.1-1.6-13.4-6.3-15.9-8.1-2.5-1.9-6.8-6.2-10.9-11.1-6.5-7.8-10.9-16.3-12.4-23.9-.7-3.5-.6-13.1.1-15.8 1.1-4 2.5-6.3 5.7-9.5 5.3-5.2 8.1-6 21.3-6.2 8.3-.2 9.3-.1 9.5.4.1.3.3 2.1.3 3.9l.1 3.4-1 .1c-.6.1-2.5-.3-4.3-.9-2.9-.9-3.9-1-8-1-4.7 0-4.7 0-7.6 1.3-3.5 1.6-6.2 4.2-8 7.4-1.8 3.2-2.1 4.9-2 10.3 0 4.5.1 5.1 1.3 8.7 2.5 7.3 5.5 12.3 11 18.4 5.1 5.7 9.4 9.1 15.3 12.1 3 1.5 3.4 1.6 3.5 1 .1-.4.3-42.9.3-42.9h5.6l.7 53-1.1.2c-.9.1-2.3-.3-3.5-.8zm3.8-.8c-.1-.6-.3-12.2-.5-25.8L83.4 93h-4v21c0 23.1.1 22.6-2.1 22.1-1.4-.3-7.3-3.6-10.1-5.8-3.2-2.4-8.8-8-11.7-11.8-3.1-4-6-9.4-7.8-14.5-1.1-3.3-1.4-4.5-1.5-8.3-.3-5.4.2-7.8 2-11.4 1.7-3.5 4.6-6.2 8.4-8 2.7-1.3 3.1-1.3 7.4-1.5 4.2-.1 4.9 0 8.8 1 2.5.7 4.4 1 4.6.8s.2-1.6.1-3.1l-.3-2.8-2.9-.3c-3.9-.4-13.5.1-16.8.8-4 .8-7.1 2.5-10 5.3s-4.6 5.8-5.5 9.3c-.9 3.7-.6 13.8.5 17.8 1 3.6 3.6 9.2 5.9 13 4 6.5 12.6 16.2 17 19.3 2.1 1.5 12.8 6.8 15.8 7.8 3 1.1 3.3 1.1 3-.1z"/></svg>