<?xml version="1.0" encoding="utf-8"?>
<!-- Generator: Adobe Illustrator 22.1.0, SVG Export Plug-In . SVG Version: 6.00 Build 0)  -->
<svg version="1.0" id="Livello_1" xmlns="http://www.w3.org/2000/svg" xmlns:xlink="http://www.w3.org/1999/xlink" x="0px" y="0px"
	 viewBox="0 0 200 200" enable-background="new 0 0 200 200" xml:space="preserve">
<radialGradient id="SVGID_1_" cx="100.0852" cy="100.1059" r="95.0138" fx="130.3253" fy="140.6384" gradientTransform="matrix(1.0005 0 0 -2 -5.231640e-02 300.1059)" gradientUnits="userSpaceOnUse">
	<stop  offset="0" style="stop-color:#00FFFF"/>
	<stop  offset="0.1696" style="stop-color:#22DCFF"/>
	<stop  offset="0.4426" style="stop-color:#53ABFF"/>
	<stop  offset="0.682" style="stop-color:#7686FF"/>
	<stop  offset="0.8759" style="stop-color:#8C70FF"/>
	<stop  offset="1" style="stop-color:#9468FF"/>
</radialGradient>
<path fill="url(#SVGID_1_)" d="M100.2,194.9c-24.1-0.2-45.3-7.8-63-23.6c-21.8-19.5-32.7-44-32.1-73.4C5.5,73.2,14.6,51.8,31.8,34
	C51,14.2,74.5,4.5,101.8,4.9c23.2,0.2,44,8.4,61.3,24.1c22.2,19.9,33.1,45.2,31.9,75c-1,24.9-10.7,46.3-28.4,63.7
	C148.3,185.6,125.9,194.7,100.2,194.9L100.2,194.9z"/>
<linearGradient id="SVGID_2_" gradientUnits="userSpaceOnUse" x1="56.7192" y1="151.8124" x2="163.1607" y2="45.3708" gradientTransform="matrix(1 0 0 -1 0 200)">
	<stop  offset="0" style="stop-color:#65FFFD"/>
	<stop  offset="7.874703e-02" style="stop-color:#78FFFD"/>
	<stop  offset="0.2985" style="stop-color:#A8FFFE"/>
	<stop  offset="0.5074" style="stop-color:#CEFFFE"/>
	<stop  offset="0.6998" style="stop-color:#E9FFFF"/>
	<stop  offset="0.87" style="stop-color:#F9FFFF"/>
	<stop  offset="1" style="stop-color:#FFFFFF"/>
</linearGradient>
<linearGradient id="SVGID_3_" gradientUnits="userSpaceOnUse" x1="56.1889" y1="152.3427" x2="163.691" y2="44.8405" gradientTransform="matrix(1 0 0 -1 0 200)">
	<stop  offset="0" style="stop-color:#5A2AED"/>
	<stop  offset="0.2185" style="stop-color:#722CEF"/>
	<stop  offset="0.5229" style="stop-color:#8D2FF1"/>
	<stop  offset="0.7933" style="stop-color:#9D30F3"/>
	<stop  offset="1" style="stop-color:#A331F3"/>
</linearGradient>
<path fill="url(#SVGID_2_)" stroke="url(#SVGID_3_)" stroke-width="1.5" stroke-miterlimit="10" d="M65.5,43.4
	c2-1.1,4.1-1.8,6.3-2.3l0,0c0.4,0,1-0.2,1.4-0.2h87c1.2-0.2,2.1,0.4,2.7,1.4c2.5,4.1,4.1,8.4,5.3,13c0.8,2.9,1,6,1.6,8.8
	c0.2,1,0.2,2.1,0.2,2.9c0,0.4-0.2,1-0.6,1.4l-7.4,6.2c-2.3,1.9-4.3,3.7-6.4,5.6c-0.6,0.4-1.2,1-1.9,1.4c0,0,0,0.2,0.2,0.2h16
	c0,1.2,0.2,2.5,0.2,3.5c0,5.8,0.2,11.5,0.2,17.3c0,2.9-0.2,5.6-0.4,8.4c0,0.4-0.2,0.6-0.6,1c-3.1,2.7-6.2,5.1-9.3,7.8
	c-2.1,2.3-4.3,4.3-6.8,6.4h15.2c-0.2,1.9-0.2,3.5-0.4,5.3c-0.2,1.9-0.4,3.7-0.8,5.6c-0.2,1.4-0.4,3.1-0.6,4.5l-1.2,6.8
	c-0.4,1.6-0.8,3.5-1.4,4.9c-0.2,0.6-1,1.2-1.9,1.6c-4.1,2.5-8,4.7-12.1,7.2c-3.9,2.3-7.8,4.3-11.5,6.4c-1,0.6-1.9,1-2.9,1.6
	c-1.2,0.6-2.5,1.2-4.1,1.2H85c-3.3,0-6.6-0.6-9.9-1.2c-3.5-0.8-6.6-2.1-9.7-3.7c-2.5-1.4-4.7-3.3-7.2-4.9c-1.6-1.2-3.1-2.7-4.5-4.1
	c-1.9-1.9-3.5-3.9-4.9-5.8c-2.1-2.7-4.1-5.3-5.8-8.2c-3.1-4.9-6.6-9.7-9.1-15c-1.6-3.9-3.3-7.8-4.7-11.7c-1-3.1-1.4-6.2-1.9-9.5
	c-0.4-2.9-0.6-5.8-0.6-8.4s0.4-5.3,0.8-8C27.6,90.9,35.5,60.5,65.5,43.4z M60.9,112c0.8,1.6,1.6,3.1,2.5,4.3c1.9,2.7,3.7,5.3,5.8,8
	c0.6,0.8,0.8,1.9,2.3,1.9h77.1c0.4,0,0.8,0,1-0.2c2.7-2.3,5.3-4.3,7.8-6.6c2.5-2.1,4.9-4.3,7.6-6.4c0.2-0.2,0.6-0.4,1.2-0.8
	C130.9,112,96.1,112,60.9,112L60.9,112z M165.6,68c-0.6,0-1,0-1.6,0H72.6c-1.6,0-2.9,0.6-4.1,1.6c-2.5,2.3-4.3,5.1-5.8,8
	c-0.8,1.2-1.2,2.7-2.1,4.3h86.8c1,0,2.3,0,2.9-1c0.9-0.7,1.3-1.1,1.6-1.4c3.9-3.3,7.6-6.4,11.5-9.7C164.5,68.9,164.8,68.7,165.6,68z
	 M158.6,154.4c-0.4-0.2-0.8-0.2-1.2-0.2H75.5c-4.1,0-8.2-0.2-12.3-0.4c-3.5-0.2-6.8-1.4-9.9-3.1c-1-0.6-2.1-1.2-3.3-1.9
	c0.4,0.4,0.4,0.8,0.6,1c2.7,2.7,5.3,5.6,8,8c3.1,2.9,6.4,5.1,10.1,7c3.9,2.1,8,3.3,12.3,3.5c2.7,0.2,5.6,0.2,8.2,0.2h42
	c1,0,1.9-0.2,2.9-0.6c1.6-0.8,3.3-1.9,5.1-2.7c5.8-3.1,11.5-6.4,17.3-9.5C157.2,155.2,158,154.8,158.6,154.4L158.6,154.4z"/>
<linearGradient id="SVGID_4_" gradientUnits="userSpaceOnUse" x1="68.7271" y1="130.234" x2="155.9806" y2="42.9806" gradientTransform="matrix(1 0 0 -1 0 200)">
	<stop  offset="0.1641" style="stop-color:#7B55FF"/>
	<stop  offset="0.4154" style="stop-color:#6767FF"/>
	<stop  offset="0.7051" style="stop-color:#5378FF"/>
	<stop  offset="0.7755" style="stop-color:#39A8FF"/>
	<stop  offset="0.8424" style="stop-color:#24CEFF"/>
	<stop  offset="0.9039" style="stop-color:#15E9FF"/>
	<stop  offset="0.9584" style="stop-color:#0CF9FF"/>
	<stop  offset="1" style="stop-color:#09FFFF"/>
</linearGradient>
<linearGradient id="SVGID_5_" gradientUnits="userSpaceOnUse" x1="48.682" y1="81.65" x2="167.6514" y2="81.65" gradientTransform="matrix(1 0 0 -1 0 200)">
	<stop  offset="0" style="stop-color:#5A2AED"/>
	<stop  offset="0.2185" style="stop-color:#722CEF"/>
	<stop  offset="0.5229" style="stop-color:#8D2FF1"/>
	<stop  offset="0.7933" style="stop-color:#9D30F3"/>
	<stop  offset="1" style="stop-color:#A331F3"/>
</linearGradient>
<path fill="url(#SVGID_4_)" stroke="url(#SVGID_5_)" stroke-miterlimit="10" d="M60.9,112H166c-0.6,0.4-0.8,0.6-1.2,0.8
	c-2.5,2.1-4.9,4.3-7.6,6.4c-2.7,2.3-5.3,4.5-7.8,6.6c-0.2,0.4-0.6,0.4-0.8,0.4H71.4c-1.4,0-1.6-1-2.3-1.9c-2.1-2.7-3.9-5.3-5.8-8
	C62.6,115.1,61.7,113.7,60.9,112L60.9,112z M165.6,68.2c-0.6,0.6-1.2,1.2-2.1,1.9c-3.9,3.3-7.6,6.4-11.5,9.7c-0.6,0.4-1,0.8-1.6,1.4
	c-0.8,1-1.9,1-2.9,1H60.7c0.8-1.6,1.2-3.1,2.1-4.3c1.6-2.9,3.5-5.8,5.8-8c1.2-1,2.5-1.6,4.1-1.6h92.8L165.6,68.2z M158.6,154.4
	c-0.8,0.4-1.4,0.8-2.3,1.2c-5.8,3.1-11.5,6.4-17.3,9.5c-1.6,0.8-3.3,1.9-5.1,2.7c-0.8,0.4-1.9,0.6-2.9,0.6H89c-2.7,0-5.6,0-8.2-0.2
	c-4.3-0.4-8.6-1.4-12.3-3.5s-7-4.3-10.1-7c-2.9-2.5-5.3-5.3-8-8c-0.2-0.2-0.4-0.6-0.6-1c1.2,0.6,2.3,1.2,3.3,1.9
	c3.1,1.6,6.4,2.9,9.9,3.1c4.1,0.2,8.2,0.4,12.3,0.4h83.1C158.6,154.2,158.6,154.4,158.6,154.4L158.6,154.4z"/>
<path opacity="0.75" fill="#FFFFFF" enable-background="new    " d="M31.5,82.4c-1,1.5-2,3.3-2.8,5c-0.9,1.7-1.6,3.6-2,5.5
	c-4.1,17.3-0.5,33.4,7.9,49c-1-1-2.1-2.1-2.9-3.3c-1.6-2.3-3.5-4.5-4.9-6.8c-2.1-3.5-3.9-7-5.6-10.7c-1.3-3-2.3-6-3.2-9
	c-0.2-0.6-0.3-1.1-0.5-1.7c-0.5-2.2-0.8-4.3-1-6.3c-0.4-2.9-0.6-5.6-0.6-8.4c0-2.7,0.4-5.3,0.8-8c0.6-3.3,1.2-6.6,2.1-9.9
	c0.4-2.1,1.2-4.1,2.1-6.2c1.2-2.9,2.3-5.8,3.7-8.4c1.6-2.9,3.5-5.8,5.3-8.4c1.4-2.1,3.1-3.9,4.9-5.8c2.3-2.5,4.7-4.9,7.2-7.2
	c2.7-2.5,5.8-4.5,8.6-6.6c4.5-3.3,9.7-6,14.8-8c3.5-1.4,7-2.7,10.5-3.7c3.7-1,7.4-1.6,11.1-2.3c6-1,12.1-1.2,18.3-1
	c3.5,0.2,7.2,0.8,10.7,1.2c1.4,0.2,3.1,0.2,4.5,0.6c3.3,0.9,6.7,1.9,9.9,2.8c0.9,0.3,1.8,0.6,2.7,0.9c0.1,0.1,0.3,0.1,0.4,0.2
	c-23.2-2.2-44.2,3.7-63.8,15.1c-1,0.6-2,1.3-2.9,2c-2.2,1.7-4.8,3.7-6.7,5.1c-2.1,1.5-4.1,3.3-5.9,5.1c-2.2,2.3-6.4,6.7-9.7,10.3
	C39.6,69.2,35.9,75.3,31.5,82.4z"/>
</svg>
