<svg xmlns="http://www.w3.org/2000/svg" viewBox="0 0 200 200"><linearGradient id="a" x1="82.7" x2="82.7" y1="195" y2="5" gradientUnits="userSpaceOnUse"><stop offset="0" stop-color="#966fe7"/><stop offset="1" stop-color="#00d18f"/></linearGradient><path fill="url(#a)" d="M140.4 153.4c-11.2 8.5-25.3 13.6-40.4 13.6-36.9 0-67-30.1-67-67s30.1-67 67-67c14.6 0 28.2 4.7 39.2 12.7l19.6-20.4C142.6 12.6 122.2 5 100 5 47.5 5 5 47.5 5 100s42.5 95 95 95c22.9 0 44-8.1 60.4-21.6l-20-20z"/><path fill="#283948" d="M107.7 88.5v-9.3H129V65H71v14.2h21.3v9.3C75 89.3 62 92.7 62 96.8c0 4.1 13 7.5 30.3 8.3V135h15.4v-29.8c17.3-.8 30.3-4.2 30.3-8.3 0-4.2-13-7.6-30.3-8.4zm0 14.1c-.4 0-2.7.2-7.6.2-4 0-6.8-.1-7.8-.2-15.3-.7-26.7-3.3-26.7-6.5s11.4-5.8 26.7-6.5V100c1 .1 3.9.2 7.8.2 4.8 0 7.1-.2 7.6-.2V89.6c15.3.7 26.7 3.3 26.7 6.5s-11.4 5.9-26.7 6.5z"/></svg>