<svg xmlns="http://www.w3.org/2000/svg" id="Livello_1" viewBox="0 0 200 200"><style>.st0{fill:#46bdf4}</style><path d="M91.6 8.4c-10.3 1.1-20.2 3.9-29.5 8.3-8.8 4.2-16.8 9.9-23.7 16.8-3.3 3.3-6.4 6.9-9.2 10.7-1.4 1.9-2.8 3.9-4.1 6-.4.6-1.6 1.9-1.5 2.6.1.7 1.7.8 2.3 1.1.4.2 1.9.6 2 1.1.1.5-1 1.9-1.2 2.4-1.2 2.2-2.2 4.4-3.2 6.7-1 2.4-1.9 4.8-2.7 7.3-.3 1-.6 2.1-.9 3.1-.2.7-.7 1.6-.6 2.4 0 .7.7 1.1 1.4 1.2 1 0 .9-1.2 1.1-1.9.6-2.3 1.3-4.6 2.1-6.8 1.6-4.6 3.8-9.1 6.2-13.3 2.3-4.1 5-8 8-11.6 1.5-1.8 3.1-3.6 4.8-5.3.8-.8 1.6-1.7 2.5-2.4.7-.6 1.8-1.2 2.2-2.1.4-.8-.3-1.6.4-2.3.7-.9 1.9-1.5 2.8-2.2 2-1.5 4.1-3 6.2-4.3 2.2-1.4 4.5-2.6 6.8-3.8 1.1-.6 2.2-1 3.3-1.6.8-.4 1.6-1 2.5-1.1.9-.2 1.3.6 2.1.8 1 .2 2.3-.7 3.2-1 2.4-.9 4.9-1.5 7.4-2.1 5.1-1.2 10.2-2 15.5-2.2 19.6-.7 39 5.7 54.3 17.9 1.7 1.3 3.2 3.3 5.2 4.1.1-.9.5-1.8-.1-2.5-.9-.9-2-1.8-3-2.6-2.3-1.9-4.8-3.6-7.3-5.3-1.1-.7-2.3-1.5-3.5-2.2-.4-.3-2.4-.9-2.4-1.6 0-.7 1.1-1.5 1.6-1.8.3-.3 1.6-.9 1.6-1.3 0-.6-1.4-1.1-1.9-1.3-1.4-.7-2.9-1.5-4.3-2.2-2.6-1.2-5.3-2.2-8.1-3.2-5.8-2-12-3.5-18.1-4.2-3.3-.4-6.7-.5-10-.5-3.4 0-6.8-.1-10.2.2zm58.2 8.1c-.2.7-.4 1 .3 1.5.6.5 1.3.8 1.9 1.3 1.5 1 3 2.1 4.5 3.2 2.8 2.1 5.5 4.5 8 6.9 5 4.8 9.3 10.2 13.2 16 1 1.5 2 3 2.9 4.5.5.9 1 2.5 2.3 2 1.2-.4.4-1.7-.1-2.4l-2.1-3.3c-3.8-6.1-8.3-11.5-13.3-16.6-2.8-2.8-5.7-5.5-8.9-7.9-1.6-1.2-3.1-2.4-4.8-3.5-.5-.4-3.4-2.9-3.9-1.7z" class="st0"/><path d="M100.3 42.8v8.4c0 1.1-.1 1.1-1.1 1.2-1.3.1-2.6.3-3.9.5-5.2.6-10.3 2-15.1 4.1-9 3.9-16.8 10.2-21.9 18.6-1.3 2.1-2.4 4.4-3.3 6.7-.5 1.2-.9 2.5-1.3 3.7-.2.6-.3 1.2-.5 1.8-.1.5-.1 1.4-.4 1.9-.4.6-1.8.3-2.5.3H33.7c-.9 0-1.9-.4-1.9.8 0 1.1.1 2.2.1 3.3v1.6c0 .3-.2.8-.1 1 .2.5 1.1.2 1.6.2H50c.5 0 1.2-.1 1.6 0 .5.1.4.4.4.9v2.9c0 .2.1.7 0 .8-.2.2-1.4.1-1.7.1-5.5-.1-10.9-.1-16.4-.1-.6 0-1.9-.3-2.1.3-.3.7 0 2.1 0 2.8v3c0 1 .2.9 1.2.9 2.4-.2 4.9 0 7.3 0h8.5c1.1 0 2.1 0 3.2-.1 1 0 .9.4 1.1 1.3.4 2.6 1.3 5.1 2.3 7.6 1.6 3.9 3.8 7.5 6.5 10.7 5.4 6.5 12.5 11.3 20.3 14.4 4 1.6 8.3 2.7 12.6 3.4 1.3.2 2.6.3 3.9.5.3 0 1-.1 1.2.1.4.2.2.3.2.8-.1 2.7 0 5.5 0 8.2v5.8c0 .3-.2 1.2 0 1.5.3.6 2.5.3 3.1.3h1.9c.4 0 1.3.2 1.7 0 .6-.3.3-1.5.3-2v-13.3c0-.7 0-.9.7-.9 1.3 0 2.6-.1 3.9-.2v14.5c0 .4-.2 1.3 0 1.7.3.6 2 .3 2.6.2h2.2c.5 0 1.4.2 1.9.1s.3-.3.3-.8v-2.9c0-3.8.2-7.7 0-11.5 0-.5-.2-1.1 0-1.6.2-.6.7-.5 1.3-.6 1.8-.2 3.6-.7 5.3-1.2 3.6-.9 7.1-2.1 10.5-3.6 1.2-.5 2.8-.8 3.5-2 .7-1.3 1.1-2.9 1.7-4.2.3-.7.6-1 .2-1.7-.5-.7-.7-1.1-1.5-.7-1.6.9-3.1 1.8-4.7 2.7-6.2 3.1-13.4 4.5-20.3 4.7-6.7.2-13.6-.6-19.9-2.8-12-4.2-21.7-13.5-25.5-25.8-2-6.4-2.4-13.3-1.7-20 .7-6.4 2.7-12.7 6.4-18.1 3.7-5.3 8.9-9.3 14.9-11.8 6.5-2.7 13.3-3.6 20.3-3.3 7.2.3 14.5 2.1 20.8 5.8 1.1.6 3 1.4 3 2.8.1 1.6.1 3.2.2 4.9.1 1 .1 2 .2 2.9.1.6 0 1.4.2 2 .4 1.1 2.3 1 3.2.9 1.4-.3 1.2-2.5 1.4-3.6.2-1.9.4-3.8.7-5.7.3-1.9.5-3.8.9-5.7.2-.7.3-1.5.6-2.2.2-.5.5-1.2.2-1.7s-1-.6-1.5-.8c-.9-.3-1.7-.7-2.6-1-1.8-.6-3.5-1.1-5.3-1.6-3.4-.9-6.9-1.7-10.4-2.1-.4 0-1.2.1-1.5-.2-.3-.3-.1-1.1-.1-1.5v-5.8c0-3.7-.1-7.5 0-11.3 0-.7-.1-.7-.8-.7h-5.2c-.7 0-1.1-.2-1 .7.1 3.7 0 7.4 0 11.1 0 1.8-.1 3.7 0 5.5 0 .3.2 1.1-.1 1.3-.3.3-1.8 0-2.2 0-.7 0-2.1.4-2.3-.4-.1-.5.1-1.4.1-2V35c0-.5.3-1.4-.2-1.6-.2-.1-.7 0-.9 0h-4c-.4 0-1.3-.2-1.7-.1-.6.2-.2 2.9-.2 3.5-.4 2-.4 4-.4 6zm68.6 8.1c-.3.4.7 1.4 1 1.8.8 1.2 1.5 2.5 2.2 3.7 1.4 2.4 2.6 4.9 3.7 7.5 2.3 5.2 4 10.6 5.2 16.2 1.2 5.7 1.5 11.3 1.4 17.1 0 5.9-.5 11.6-1.8 17.3-.6 2.7-1.4 5.5-2.3 8.1-.2.7-.5 1.3-.7 2-.2.6-.6 1.2-.7 1.8-.1.7 1 1.7 1.8 1.3.3-.1.3-.6.4-.8.2-.6.5-1.2.7-1.8.5-1.4 1-2.9 1.4-4.3.8-2.6 1.5-5.2 2.1-7.8 1.1-5.5 1.2-11.2 1.2-16.8 0-3 0-6.1-.2-9.1-.2-2.8-.7-5.5-1.3-8.3-.6-3-1.6-5.7-2.4-8.6-.9-3-2.1-5.8-3.4-8.6-1.3-2.8-2.7-5.5-4.3-8.1-.5-.8-.9-2.1-1.8-2.5-.4-.1-1.9-.6-2.2-.1zM10.5 65.2c-.6.4-1 2.4-1.2 3l-1.2 4.2c-.7 2.7-1.4 5.5-1.9 8.3C5.4 86.1 5 91.5 5 97c.1 10.7 1.9 21.4 5.5 31.5.9 2.5 1.9 5 3 7.5.5 1.2 1.1 2.4 1.7 3.6.3.7 1 2.5 1.9 2.3 1-.1 1-1.3.7-1.9-.5-1.1-1.1-2.2-1.6-3.3-1.2-2.5-2.3-5-3.3-7.6C9 119 7.3 108 7.2 97.2c-.1-6.2.6-12.3 1.6-18.4.5-2.8 1.3-5.5 2-8.2.4-1.4.7-2.8 1.3-4.2.2-.5.4-.8-.1-1.2-.3-.2-1.1-.2-1.5 0zm181.9 14.4c-1.3.2-.4 2.7-.3 3.5.5 2.4.6 5 .8 7.5.3 5.3.3 10.7-.3 16-1.2 10.5-3.9 20.6-8.4 30.1-1.1 2.3-2.3 4.6-3.6 6.9-.7 1.1-1.3 2.2-2 3.3-.4.6-1.5 1.7-1.4 2.4.1.5.8 1.4 1.3 1.3.3-.1.4-.6.6-.8.3-.5.7-1 1-1.5 1.4-2.2 2.7-4.4 3.9-6.7 4.9-9.2 8.3-19 10-29.3 1-6 1.1-12 1-18-.1-3 0-6-.4-9-.1-1.3-.3-2.5-.5-3.8-.1-1.2-.4-2.2-1.7-1.9z" class="st0"/><path d="M20.8 125c-.7.3-1.5.6-2.3.7-.5.1-1.1 0-1.3.6-.1.4.3 1 .4 1.4.3.8.6 1.5.9 2.3 1.3 3.1 2.7 6.1 4.3 9 3 5.6 6.7 10.8 10.8 15.6 7.8 9 17.4 16.5 28.2 21.7 11.4 5.6 24.3 8.5 36.9 8.8 3.3.1 6.6.1 9.8-.2.6 0 .9 0 1.2-.6.3-.6.5-1.1.9-1.7.6-1 1.4-2.3 2.5-2.8 1.3-.6 3-.6 4.4-.9 1.6-.3 3.1-.8 4.6-1.2 1.5-.4 3.1-.7 4.6-1.2 1.5-.5 2.9-1.1 4.4-1.7 3.2-1.2 6.3-2.7 9.3-4.3l4.2-2.4c1-.6 2-1.9 3.3-1.4.7.2 1.3.5 1.9.8.6.3 1.4.8 2.1.9 1 .1 2.3-1.4 3-1.9 2.5-1.9 4.9-4 7.2-6.2s4.6-4.6 6.6-7.1c1.1-1.3 2.1-2.6 3.1-3.9.3-.4.8-.9.6-1.3-.2-.5-1.2-1-1.6-1.3-.6-.4-1.1-.9-1.7-1.2-.7-.3-1.2.4-1.6.9-1 1.1-1.8 2.4-2.8 3.5-.3.4-.9 1.5-1.4 1.6-.4.1-.6-.4-1.1-.3-.6.1-1.2.9-1.6 1.3l-1.8 1.8c-8.5 8.5-18.8 15.2-30.1 19.3-5.8 2.1-11.9 3.7-18 4.4-.8.1-1.6.2-2.5.3-.4 0-1 0-1.3.3-.3.3 0 .9-.2 1.1-.3.3-1.4.2-1.7.2-3.4 0-6.7.1-10.1-.2-3.4-.3-6.8-.7-10.1-1.3-1.6-.3-3.1-.7-4.6-1-.3-.1-.9 0-1.1-.3-.2-.4.4-.9.1-1.3-.2-.4-1.2-.5-1.6-.6-.8-.2-1.5-.4-2.3-.7-1.5-.5-3.1-1.1-4.6-1.6-3.1-1.1-6.1-2.6-9-4.1-11.5-6.3-21.4-15.4-28.8-26.1-.7-1-1.3-2.1-1.9-3.2-.6-1.1-1-.8-1.9-.1-1.8-2.7-3.2-5.7-4.5-8.7-.7-1.5-1.3-3.1-1.9-4.7-.4-1.2-.7-1.5-1.9-1z" class="st0"/><path d="M155.5 171.6c-9.5 7.2-20.7 12.5-32.2 15.4-12.3 3.1-25.2 3.7-37.8 1.7-2.7-.4-5.3-1-7.9-1.7-.7-.2-1.7-.5-2.3.2-1 1.2.8 1.5 1.6 1.7 6 1.6 12.2 2.5 18.4 2.8 12.6.6 25.6-1.2 37.3-5.6 3.2-1.2 6.4-2.5 9.4-4.1 3-1.6 6.2-3.1 9-4.9 2.4-1.6 4.7-3.3 7-5 .7-.5 1.5-1.1.2-1.5-1-.5-1.7.3-2.7 1z" class="st0"/></svg>