<?xml version="1.0" encoding="UTF-8" standalone="no"?><!DOCTYPE svg PUBLIC "-//W3C//DTD SVG 1.1//EN" "http://www.w3.org/Graphics/SVG/1.1/DTD/svg11.dtd"><svg width="100%" height="100%" viewBox="0 0 15 15" version="1.1" xmlns="http://www.w3.org/2000/svg" xmlns:xlink="http://www.w3.org/1999/xlink" xml:space="preserve" style="fill-rule:evenodd;clip-rule:evenodd;stroke-linejoin:round;stroke-miterlimit:1.41421;"><path d="M5.262,3.063l4.476,0c1.277,1.981 3.131,5.19 3.131,6.568c0,2.963 -2.406,5.369 -5.369,5.369c-2.963,0 -5.369,-2.406 -5.369,-5.369c0,-1.378 1.854,-4.587 3.131,-6.568ZM9.738,3.063l-2.238,1.86l-2.238,-1.86c-0.209,0.308 -0.391,0.628 -0.602,0.956l2.84,2.386l2.846,-2.386c-0.211,-0.328 -0.399,-0.648 -0.608,-0.956ZM5.262,3.063c1.178,-1.732 2.238,-3.063 2.238,-3.063c0,0 1.06,1.331 2.238,3.063l-2.238,0l-2.238,0Z" style="fill:#37dcd8;"/></svg>