<?xml version="1.0" encoding="utf-8"?>
<!-- Generator: Adobe Illustrator 22.1.0, SVG Export Plug-In . SVG Version: 6.00 Build 0)  -->
<svg version="1.0" id="Livello_1" xmlns="http://www.w3.org/2000/svg" xmlns:xlink="http://www.w3.org/1999/xlink" x="0px" y="0px"
	 viewBox="0 0 200 200" enable-background="new 0 0 200 200" xml:space="preserve">
<g>
	<path fill="#FFC04E" d="M159.9,105c0.1,1,0.1,1.5,0.4,1.5c1.3,0,2.7,0,4,0c0.1,0,0.2,0,0.4,0c0,0.5-1.3,5.4-1.5,6
		c-0.1,0-0.4,0.1-0.7,0.1c-1,0-1.9,0-2.9,0c-0.3,0-0.4,0.1-0.5,0.5c-2.9,12.1-20.4,13.3-20.4,13.3c-3.7,0.1-7.4,0.2-11.2,0.2
		c-5.1,0-10.3,0-15.4,0c-0.4,0-0.8-0.1-1.1-0.2c-0.2-0.1-0.4-0.3-0.5-0.5c-0.1-0.5-0.6-1-0.3-1.6l12.2-52.5c0-0.1,0.2-0.1,0.3-0.2
		c0.1,0,0.3,0,0.4,0c7.3,0,14.6,0,22,0c16.1-0.4,17,12.6,17,12.6c0,0.3,0.1,0.5,0.4,0.3c0.1,0,0.2,0,0.4,0c1,0,2,0,3.1,0
		c0.4,0,0.6,0.1,0.5,0.5c-0.1,0.3-1.2,4.2-1.3,5c-0.1,0.4-0.6,1-1,1c-1.1,0-2.2,0-3.3,0c-0.3,0-0.6,0.2-0.7,0.3
		c-0.4,0.5-0.7,1.1-1.1,1.6c-0.3,0.4-0.8,0.8-1.2,1.1c-0.4,0.3-0.9,0.7-1.4,1c-0.7,0.4-1.4,0.8-2.1,1.2c-0.6,0.3-2.1,0.9-2.4,0.9
		c-0.2,0-0.4,0.1-0.5,0.1c0,0,0,0.1,0,0.1c5.1,0.3,7.1,2.3,7.9,4.6C159.9,103.7,159.9,105,159.9,105z"/>
	<path fill="#FFC04E" d="M99.4,72.6c0.2-0.8,0.2-1-0.5-1c-14.4,0-28.8,0-43.1,0c-0.8,0-1,0.9-1,0.8c-0.1,0.2-12.3,53.7-12.3,54.1
		c0.3,0,0.4,0,0.6,0c4.2,0,8.3,0,12.5,0c0.4,0,1,0,1.3-0.2c0.3-0.2,0.7-0.4,0.7-0.9L67,82.9c5.5,0,10.9,0,16.4,0l-10,43.7
		c4.4,0,8.7,0,13,0c0.2,0,0.4-0.1,0.5-0.3C86.8,126.3,99,74,99.4,72.6z"/>
	<path fill="#FFC04E" d="M45.2,71.6c2.2,0,4.4,0,6.7,0c0.5,0,0.6,0.1,0.6,0.6c-0.1,0.7-2.2,9.4-2.2,9.6c-0.1,0.8-0.4,1.1-1.1,1.1
		c-4.3,0-8.7,0-13,0c-0.5,0-0.7-0.1-0.6-0.6c0-0.4,2.1-8.6,2.2-9.4c0-0.4,0.2-0.7,0.3-1c0.1-0.1,0.4-0.2,0.5-0.2
		C40.7,71.6,42.9,71.6,45.2,71.6z"/>
</g>
<path fill="#FFC04E" d="M100,10c49.6,0,90,40.4,90,90s-40.4,90-90,90s-90-40.4-90-90S50.4,10,100,10 M100,5C47.5,5,5,47.5,5,100
	s42.5,95,95,95s95-42.5,95-95S152.5,5,100,5L100,5z"/>
<polygon fill="#FFC04E" points="102,72 97,94 109,121 114,98 "/>
<path fill="#FFFFFF" d="M126,116l2.8-12.3c0,0,0-0.5,0.6-0.5s9.6,0,9.6,0s6-0.2,6,4.8s-6.3,7.9-11.6,7.9L126,116z"/>
<path fill="#FFFFFF" d="M131,93l2.3-10.3c0,0,0-0.4,0.5-0.4c0.5,0,8.1,0,8.1,0s5.1-0.2,5.1,4.1s-5.3,6.6-9.8,6.7L131,93z"/>
</svg>
