<?xml version="1.0" encoding="utf-8"?>
<!-- Generator: Adobe Illustrator 22.1.0, SVG Export Plug-In . SVG Version: 6.00 Build 0)  -->
<svg version="1.0" id="Livello_1" xmlns="http://www.w3.org/2000/svg" xmlns:xlink="http://www.w3.org/1999/xlink" x="0px" y="0px"
	 viewBox="0 0 200 200" enable-background="new 0 0 200 200" xml:space="preserve">
<linearGradient id="SVGID_1_" gradientUnits="userSpaceOnUse" x1="53.5" y1="97.3594" x2="162.6468" y2="97.3594">
	<stop  offset="0" style="stop-color:#93F6FD"/>
	<stop  offset="1" style="stop-color:#3D1396"/>
</linearGradient>
<path fill="url(#SVGID_1_)" d="M157,64.9c0,0,0.1,3.8-1.7,7.1c-2.3,4.2-8.8,5.2-12.7,2.5c-2-1.4-3.8-3.8-7.1-8c-8-10-22-14-37-14
	c-13,0-45,13-45,46s22.2,43.7,22.2,43.7S64.6,122.4,64.6,104c0,0-3.1-40.5,41.9-40.5c0,0,13,0,23,14c9,12.5,21.7,10.4,26,8
	c0.3-0.2,0.6-0.3,0.9-0.5C159.5,82.5,168.4,76.3,157,64.9z"/>
<linearGradient id="SVGID_2_" gradientUnits="userSpaceOnUse" x1="58.0991" y1="114.8192" x2="176.5" y2="114.8192">
	<stop  offset="0" style="stop-color:#3195EA"/>
	<stop  offset="0.1091" style="stop-color:#3499EB"/>
	<stop  offset="0.2058" style="stop-color:#3DA3EC"/>
	<stop  offset="0.2977" style="stop-color:#4DB5F0"/>
	<stop  offset="0.3488" style="stop-color:#59C3F2"/>
	<stop  offset="0.5241" style="stop-color:#3B99D5"/>
	<stop  offset="0.7195" style="stop-color:#1C6FB8"/>
	<stop  offset="0.7543" style="stop-color:#3066B2"/>
	<stop  offset="0.8267" style="stop-color:#5556A8"/>
	<stop  offset="0.894" style="stop-color:#704AA1"/>
	<stop  offset="0.9538" style="stop-color:#80439D"/>
	<stop  offset="1" style="stop-color:#86409B"/>
</linearGradient>
<path fill="url(#SVGID_2_)" d="M176.5,118.5c0,11-9.6,30.2-37.3,37.6s-60.7-6.6-73.7-22.6s-9-49,13-62c0,0-13,10-13,31s22,44,55,44
	s44-20,44-29s-12.4-7.7-13.2-5.4s2.7-11.1,18.2-8.6C169.5,103.5,176.5,107.5,176.5,118.5z"/>
<linearGradient id="SVGID_3_" gradientUnits="userSpaceOnUse" x1="90.1719" y1="138.1827" x2="169.5" y2="138.1827">
	<stop  offset="0" style="stop-color:#3195EA"/>
	<stop  offset="0.1727" style="stop-color:#3496EB"/>
	<stop  offset="0.2946" style="stop-color:#3D9BED"/>
	<stop  offset="0.4008" style="stop-color:#4DA2F1"/>
	<stop  offset="0.4982" style="stop-color:#63ADF7"/>
	<stop  offset="0.5886" style="stop-color:#7FBAFE"/>
	<stop  offset="0.5976" style="stop-color:#82BCFF"/>
	<stop  offset="0.6655" style="stop-color:#92ACFF"/>
	<stop  offset="0.7893" style="stop-color:#AA94FF"/>
	<stop  offset="0.904" style="stop-color:#B986FF"/>
	<stop  offset="1" style="stop-color:#BE81FF"/>
</linearGradient>
<path fill="url(#SVGID_3_)" d="M169.5,103.5c0,0-5.5-4-13-4c-9,0-16,6-19,16s-1,22-7,33c-2.5,4.7-5.1,10.5-8.7,15.6
	c-4.8,6.9-12.3,12.5-31.6,12.1c0,0,41.3,8.3,55.3-34.7c0,0,1-3,2-11S151.5,100.5,169.5,103.5z"/>
<linearGradient id="SVGID_4_" gradientUnits="userSpaceOnUse" x1="36" y1="159.75" x2="130.4791" y2="159.75">
	<stop  offset="0" style="stop-color:#3296A5"/>
	<stop  offset="0.5" style="stop-color:#6ECFFF"/>
	<stop  offset="1" style="stop-color:#003080"/>
</linearGradient>
<path fill="url(#SVGID_4_)" d="M130.5,148.6C130.5,148.6,130.5,148.6,130.5,148.6c-0.8,1.4-10.1,16.9-35,16.9
	c-26,0-44.6-8.9-59.5-22.5c0,0,25.5,33.5,59.5,33.5C124.4,176.5,130.1,150.5,130.5,148.6z"/>
<linearGradient id="SVGID_5_" gradientUnits="userSpaceOnUse" x1="23.5" y1="94.0422" x2="166.5562" y2="94.0422">
	<stop  offset="0" style="stop-color:#93F6FD"/>
	<stop  offset="0.6366" style="stop-color:#4A8FE5"/>
	<stop  offset="1" style="stop-color:#B77FEE"/>
</linearGradient>
<path fill="url(#SVGID_5_)" d="M155.5,85.5c0,0,5-2,5-11s-21-40-59-40s-66,29-66,69c0,39.2,39.4,61.1,58.9,62c0,0,0.1,0.1,0,0.1
	c-6.3,0.2-38,0.1-56.8-20.7c-8.3-9.2-14.1-22.4-14.1-41.4c0-67,57-81,77-81s66,15,66,46C166.5,68.5,168,80,155.5,85.5z"/>
</svg>
