<?xml version="1.0" encoding="utf-8"?>
<!-- Generator: Adobe Illustrator 22.1.0, SVG Export Plug-In . SVG Version: 6.00 Build 0)  -->
<svg version="1.0" id="Livello_1" xmlns="http://www.w3.org/2000/svg" xmlns:xlink="http://www.w3.org/1999/xlink" x="0px" y="0px"
	 viewBox="0 0 200 200" enable-background="new 0 0 200 200" xml:space="preserve">
<path d="M41.3,74.8c7.2,0,13.7,2.9,18.5,7.5c0.5-0.2,6.3-7.5,6.3-7.5C59.6,68.7,50.9,65,41.3,65l0,0C21.3,65,5,81.2,5,101.3
	s16.3,36.3,36.3,36.3c9.5,0,18.2-3.7,24.7-9.7l-6.8-7c-4.7,4.3-11,7-17.9,7c-14.6,0-26.5-11.9-26.5-26.5S26.7,74.8,41.3,74.8"/>
<polygon fill="#EE7605" points="77.7,150 69.1,150 106.1,62.8 137.3,136.3 129.1,136.3 106.1,82.1 "/>
<polygon fill="#EE7605" points="186.4,50 195,50 158,137.2 126.8,63.7 135,63.7 158,117.9 "/>
</svg>
