<svg xmlns="http://www.w3.org/2000/svg" id="Layer_1" x="0" y="0" version="1.1" viewBox="0 0 200 200" xml:space="preserve"><style>.st0{fill-rule:evenodd;clip-rule:evenodd}</style><path id="Fill-9_1_" d="M66.4 45.5c10.1-6.6 21.3-9.7 33.6-9.9 12.1 0 23.2 3.3 33.6 9.9L155 24.1C138.2 11.4 120.1 5 100 5s-38.4 6.4-54.8 19.1l21.2 21.4z" class="st0"/><path id="Fill-10_1_" d="M45 133.3C38.2 123 34.8 111.9 34.8 100c0-12.1 3.3-23.2 10.1-33.3L23.7 45.5C11.2 61.8 5 79.9 5 100.2c0 19.9 6.2 38.2 18.9 54.7L45 133.3z" class="st0"/><path id="Fill-11_1_" d="M133.5 154.5c-10.1 6.8-21.3 10.3-33.4 10.5-12.3 0-23.6-3.3-33.7-10.3L45 175.9c16.6 12.8 34.9 19.3 55.2 19.1 20.1-.2 38.2-6.6 54.6-19.1l-21.3-21.4z" class="st0"/><path id="Fill-12_1_" d="M154.4 66.5c6.8 10.3 10.3 21.6 10.1 33.9-.2 11.9-3.5 22.8-10.1 32.7l21.5 21.2C188.6 138 195 119.9 195 100c.2-20.2-6.2-38.5-19.1-55.1l-21.5 21.6z" class="st0"/><path id="Fill-15_1_" d="M176.9 161.1c8.2 0 15 6.6 15 15 0 8.2-6.6 15-15 15-8.2 0-15-6.6-15-15-.1-8.4 6.6-15 15-15" class="st0"/><path id="Fill-16_1_" d="M23.5 161.1c8.2 0 14.8 6.6 14.8 15 0 8.2-6.6 15-14.8 15s-14.8-6.6-14.8-15 6.6-15 14.8-15" class="st0"/><path id="Fill-17_1_" d="M177 8.3c8.2 0 14.8 6.6 14.8 15s-6.6 15-14.8 15-14.8-6.6-14.8-15 6.7-15 14.8-15" class="st0"/><path id="Fill-18_1_" d="M23.3 8.3c8.2 0 15 6.6 15 14.8s-6.6 14.8-15 14.8c-8.2 0-15-6.6-15-14.8 0-8.2 6.6-14.8 15-14.8" class="st0"/><circle cx="100" cy="100" r="3.5" class="st0"/><circle cx="110" cy="90" r="3.5" class="st0"/><circle cx="90" cy="90" r="3.5" class="st0"/><circle cx="110" cy="110" r="3.5" class="st0"/><circle cx="90" cy="110" r="3.5" class="st0"/><circle cx="120" cy="80" r="3.5" class="st0"/><circle cx="80" cy="80" r="3.5" class="st0"/><circle cx="120" cy="120" r="3.5" class="st0"/><circle cx="80" cy="120" r="3.5" class="st0"/><circle cx="130" cy="70" r="3.5" class="st0"/><circle cx="70" cy="70" r="3.5" class="st0"/><circle cx="130" cy="130" r="3.5" class="st0"/><circle cx="70" cy="130" r="3.5" class="st0"/><circle cx="140" cy="60" r="3.5" class="st0"/><circle cx="60" cy="60" r="3.5" class="st0"/><circle cx="140" cy="140" r="3.5" class="st0"/><circle cx="60" cy="140" r="3.5" class="st0"/><circle cx="150" cy="50" r="3.5" class="st0"/><circle cx="50" cy="50" r="3.5" class="st0"/><circle cx="150" cy="150" r="3.5" class="st0"/><circle cx="50" cy="150" r="3.5" class="st0"/><circle cx="160" cy="40" r="3.5" class="st0"/><circle cx="40" cy="40" r="3.5" class="st0"/><circle cx="160" cy="160" r="3.5" class="st0"/><circle cx="40" cy="160" r="3.5" class="st0"/></svg>