<?xml version="1.0" encoding="utf-8"?>
<!-- Generator: Adobe Illustrator 16.0.0, SVG Export Plug-In . SVG Version: 6.00 Build 0)  -->
<!DOCTYPE svg PUBLIC "-//W3C//DTD SVG 1.0//EN" "http://www.w3.org/TR/2001/REC-SVG-20010904/DTD/svg10.dtd">
<svg version="1.0" id="Livello_1" xmlns="http://www.w3.org/2000/svg" xmlns:xlink="http://www.w3.org/1999/xlink" x="0px" y="0px"
	 width="566.93px" height="566.93px" viewBox="0 0 566.93 566.93" enable-background="new 0 0 566.93 566.93" xml:space="preserve">
<linearGradient id="SVGID_1_" gradientUnits="userSpaceOnUse" x1="4.9214" y1="285.4834" x2="177.835" y2="285.4834">
	<stop  offset="0" style="stop-color:#009688"/>
	<stop  offset="0.994" style="stop-color:#4153A1"/>
</linearGradient>
<linearGradient id="SVGID_2_" gradientUnits="userSpaceOnUse" x1="3.4214" y1="285.4834" x2="179.335" y2="285.4834">
	<stop  offset="0" style="stop-color:#009688"/>
	<stop  offset="0.994" style="stop-color:#4153A1"/>
</linearGradient>
<polygon fill="url(#SVGID_1_)" stroke="url(#SVGID_2_)" stroke-width="3" stroke-linejoin="round" stroke-miterlimit="10" points="
	48.15,360.357 4.921,285.484 48.15,210.61 134.606,210.61 177.835,285.484 134.606,360.357 "/>
<linearGradient id="SVGID_3_" gradientUnits="userSpaceOnUse" x1="387.291" y1="285.4834" x2="560.2051" y2="285.4834">
	<stop  offset="0" style="stop-color:#009688"/>
	<stop  offset="0.994" style="stop-color:#4153A1"/>
</linearGradient>
<linearGradient id="SVGID_4_" gradientUnits="userSpaceOnUse" x1="385.791" y1="285.4834" x2="561.7051" y2="285.4834">
	<stop  offset="0" style="stop-color:#009688"/>
	<stop  offset="0.994" style="stop-color:#4153A1"/>
</linearGradient>
<polygon fill="url(#SVGID_3_)" stroke="url(#SVGID_4_)" stroke-width="3" stroke-linejoin="round" stroke-miterlimit="10" points="
	430.521,360.357 387.291,285.482 430.521,210.61 516.978,210.61 560.205,285.482 516.978,360.357 "/>
<linearGradient id="SVGID_5_" gradientUnits="userSpaceOnUse" x1="176.1655" y1="128.2871" x2="353.0791" y2="128.2871">
	<stop  offset="0" style="stop-color:#009688"/>
	<stop  offset="0.994" style="stop-color:#4153A1"/>
</linearGradient>
<polygon fill="none" stroke="url(#SVGID_5_)" stroke-width="4" stroke-linejoin="round" stroke-miterlimit="10" points="
	221.395,203.16 178.166,128.287 221.395,53.414 307.852,53.414 351.079,128.287 307.852,203.16 "/>
<linearGradient id="SVGID_6_" gradientUnits="userSpaceOnUse" x1="210.4883" y1="440.1836" x2="387.4023" y2="440.1836">
	<stop  offset="0" style="stop-color:#009688"/>
	<stop  offset="0.994" style="stop-color:#4153A1"/>
</linearGradient>
<polygon fill="none" stroke="url(#SVGID_6_)" stroke-width="4" stroke-linejoin="round" stroke-miterlimit="10" points="
	255.718,515.058 212.488,440.185 255.718,365.311 342.175,365.311 385.402,440.185 342.175,515.058 "/>
<linearGradient id="SVGID_7_" gradientUnits="userSpaceOnUse" x1="175.188" y1="285.4834" x2="392.5312" y2="285.4834">
	<stop  offset="0.006" style="stop-color:#4153A1"/>
	<stop  offset="1" style="stop-color:#009688"/>
</linearGradient>
<line fill="none" stroke="url(#SVGID_7_)" stroke-width="5" stroke-miterlimit="10" x1="174.928" y1="285.483" x2="392.893" y2="285.483"/>
<linearGradient id="SVGID_8_" gradientUnits="userSpaceOnUse" x1="69.0054" y1="440.1836" x2="216.7545" y2="440.1836">
	<stop  offset="0.006" style="stop-color:#4153A1"/>
	<stop  offset="1" style="stop-color:#009688"/>
</linearGradient>
<polyline fill="none" stroke="url(#SVGID_8_)" stroke-width="5" stroke-miterlimit="10" points="217,433.434 82.5,433.434 
	73.5,446.934 217,446.934 "/>
<linearGradient id="SVGID_9_" gradientUnits="userSpaceOnUse" x1="323.0059" y1="128.2866" x2="470.7554" y2="128.2866" gradientTransform="matrix(-1 0 0 1 818.5 0)">
	<stop  offset="0" style="stop-color:#009688"/>
	<stop  offset="0.994" style="stop-color:#4153A1"/>
</linearGradient>
<polyline fill="none" stroke="url(#SVGID_9_)" stroke-width="5" stroke-miterlimit="10" points="347.499,121.537 482,121.537 
	491,135.037 347.499,135.037 "/>
<g>
</g>
<g>
</g>
<g>
</g>
<g>
</g>
<g>
</g>
<g>
</g>
</svg>
