<?xml version="1.0" encoding="utf-8"?>
<!-- Generator: Adobe Illustrator 22.1.0, SVG Export Plug-In . SVG Version: 6.00 Build 0)  -->
<svg version="1.0" id="Livello_1" xmlns="http://www.w3.org/2000/svg" xmlns:xlink="http://www.w3.org/1999/xlink" x="0px" y="0px"
	 viewBox="0 0 200 200" style="enable-background:new 0 0 200 200;" xml:space="preserve">
<title>资源 7xhdpi</title>
<path d="M100,5L17.7,52.5v95L100,195l82.3-47.5v-95L100,5z M101.7,158.9l-63.2-36l0.3-17.5l62.9,36l30.3-17.5l-20.3-11.7l-7.6,4.4
	l-14.3-8.2l7.6-4.4l-10-5.8l-6,3.5l-14.3-8.2l6.1-3.5L40.9,71.3l60.7-35l57.3,32.7l-15.4,8.9l-41.9-24L71.3,71.3l17,9.8l8.7-5
	l14.3,8.2l-8.7,5l10,5.8l7.1-4.1l14.3,8.2l-7.2,4.2l35.5,20.5L101.7,158.9L101.7,158.9z"/>
</svg>
