<?xml version="1.0" encoding="utf-8"?>
<!-- Generator: Adobe Illustrator 22.1.0, SVG Export Plug-In . SVG Version: 6.00 Build 0)  -->
<svg version="1.0" id="_x30_addd434-48bc-4356-a83d-2041d5306e5b"
	 xmlns="http://www.w3.org/2000/svg" xmlns:xlink="http://www.w3.org/1999/xlink" x="0px" y="0px" viewBox="0 0 200 200"
	 style="enable-background:new 0 0 200 200;" xml:space="preserve">
<style type="text/css">
	.st0{fill:#008CCF;}
	.st1{fill:#B5B6B6;}
	.st2{fill:#125083;}
</style>
<path class="st0" d="M112.5,187.3c-48.2,0-87.2-39.1-87.2-87.2c0-48.2,39.1-87.2,87.2-87.2c29.8,0,57.6,15.2,73.6,40.4
	C160.3,7.6,102.3-8.5,56.7,17.3S-5,101.1,20.8,146.8s83.8,61.7,129.4,35.9c15-8.5,27.4-20.9,35.9-35.9
	C170.1,172,142.4,187.3,112.5,187.3z"/>
<polygon class="st1" points="112,26.9 74.2,64.2 105.2,49.8 174.1,99.2 "/>
<polygon class="st1" points="140.1,51.3 148.7,43.4 182.5,82.6 "/>
<path class="st2" d="M95.7,94.5c0,0,4.9,0.6,14.9-5.8c1.3-0.8,8.9-5.3,17.3-5.3c2.7,0,5.5,0.5,11.5,5.5c0.3,0.3-12-2.1-15.4,8
	c-1,2.9-3.4,16.9,11.8,25c0.6,0.3,14,6.7,33.3,0.6c1.5-0.5,10.5-3.9,16.6-9c1.6-1.3-4,17-14.6,19.9s-57.7,3.9-57.7,3.9l-17.5-15
	l-3.1-22.9L95.7,94.5z"/>
<path class="st0" d="M57.8,45.6c0,0-15.2,29.1,2.1,36.8c4.5,2.4,10.8,1.9,19.7-3.4c2.9-1.8,15.5-10.7,22.6-11.2
	c7.1-0.5,11.2-0.6,18.4,5.7c0.2,0.5-13.7-3.6-22.3,12.8c-1.8,3.6-8.6,29.6,15.5,42.5c13.6,6.7,29.3,8,43.8,3.6
	c3.2-1.3,11.9-4,24.9-16c1.9-1.8,8.9-8.2,9-9c0.2-0.8-0.8,23.1-22,46.8c-1.9,1.9-20.6,22.3-48.3,24.1c-4,0.2-23.4,0.5-37.5-5.2
	c-0.8-0.6,39.5,8.8,70.4-14.3c0.1,0.2-22.1,14.5-58.2,9.9c-4.5-0.8-29.9-6.9-33.3-28.6c-0.5-3.5-0.6-17,11.1-24.3
	c6.8-4.3,13.8-2.3,15.9-1.9c2.1,0.5-3.2-7.4-11.6-9.9c-2.9-0.5-10.7-1.6-23.4,3.6c-1.9,0.6-17.3,8.2-19.2-7.4
	c-0.2-3.1,0.3-21.6,8.2-34.7C45.8,62.6,49.5,54.3,57.8,45.6z"/>
</svg>
