<?xml version="1.0" encoding="UTF-8" standalone="no"?><!DOCTYPE svg PUBLIC "-//W3C//DTD SVG 1.1//EN" "http://www.w3.org/Graphics/SVG/1.1/DTD/svg11.dtd"><svg width="100%" height="100%" viewBox="0 0 15 15" version="1.1" xmlns="http://www.w3.org/2000/svg" xmlns:xlink="http://www.w3.org/1999/xlink" xml:space="preserve" style="fill-rule:evenodd;clip-rule:evenodd;stroke-linejoin:round;stroke-miterlimit:1.41421;"><g><g><circle cx="7.5" cy="7.5" r="6.598" style="fill:#3f3f41;"/><g id="Layer2"><circle cx="7.5" cy="7.5" r="6.154" style="fill:#494945;"/></g><ellipse cx="7.5" cy="7.5" rx="5.627" ry="5.592" style="fill:#fff;"/><circle cx="7.851" cy="7.807" r="5.265" style="fill:#3f3f41;"/><g id="Layer1"><path d="M11.232,6.303l0.368,0.547l-0.368,0.851l0.609,1.581l-3.786,3.786c-0.068,0.003 -0.135,0.004 -0.204,0.004c-2.905,0 -5.264,-2.359 -5.264,-5.265c0,-0.092 0.002,-0.184 0.007,-0.275l1.229,-1.229l-0.031,1.398l1.398,-1.398l0,0.967l0.967,-0.967l0,0.799l0.799,-0.799l0.749,1.398l0.832,-1.398l0.88,1.398l0.439,-1.398l1.376,0Z" style="fill:#333332;"/></g><g><path d="M3.738,9.219l0,-2.966l0.642,0l0,2.387l0.661,0l0,0.579l-1.303,0Z" style="fill:#fff;fill-rule:nonzero;"/><path d="M5.133,8.433l0,-2.18l0.624,0l0,2.136c0,0.032 0.001,0.057 0.001,0.076c0.001,0.019 0.004,0.044 0.01,0.076c0.005,0.033 0.013,0.058 0.023,0.077c0.011,0.018 0.026,0.035 0.047,0.049c0.02,0.014 0.046,0.021 0.076,0.021c0.026,0 0.048,-0.004 0.067,-0.013c0.019,-0.008 0.034,-0.022 0.045,-0.04c0.011,-0.018 0.02,-0.035 0.026,-0.052c0.007,-0.016 0.012,-0.039 0.014,-0.067c0.002,-0.028 0.004,-0.049 0.005,-0.064c0,-0.015 0,-0.036 0,-0.063c0,-0.007 0,-0.011 0,-0.013l0,-2.123l0.625,0l0,2.18c0,0.268 -0.063,0.472 -0.189,0.611c-0.126,0.139 -0.322,0.208 -0.589,0.207c-0.271,0.001 -0.47,-0.068 -0.596,-0.207c-0.126,-0.139 -0.189,-0.343 -0.189,-0.611Z" style="fill:#fff;fill-rule:nonzero;"/><path d="M8.437,6.253l0,2.966l-0.628,0l-0.321,-1.484l0,1.484l-0.628,0l0,-2.966l0.661,0l0.296,1.419l0,-1.419l0.62,0Z" style="fill:#fff;fill-rule:nonzero;"/><path d="M9.72,9.219l-0.606,0l0,-0.976l-0.513,-1.99l0.637,0l0.179,1.006l0.179,-1.006l0.635,0l-0.511,1.99l0,0.976Z" style="fill:#fff;fill-rule:nonzero;"/><path d="M10.958,7.869c0,0 0,0.45 0,1.35l-0.649,0l0,-2.966l0.985,0c0.101,0 0.188,0.014 0.26,0.042c0.071,0.028 0.128,0.065 0.169,0.11c0.042,0.045 0.074,0.105 0.098,0.18c0.024,0.076 0.039,0.151 0.047,0.226c0.007,0.075 0.01,0.166 0.01,0.273c0,0.055 0,0.101 -0.002,0.136c-0.002,0.036 -0.009,0.08 -0.02,0.134c-0.012,0.054 -0.028,0.099 -0.049,0.135c-0.02,0.036 -0.052,0.072 -0.094,0.107c-0.042,0.034 -0.093,0.061 -0.152,0.08c0.059,0.011 0.109,0.032 0.148,0.062c0.039,0.03 0.067,0.068 0.084,0.113c0.017,0.044 0.028,0.086 0.034,0.123c0.006,0.038 0.009,0.081 0.009,0.128c0,0.49 -0.002,0.863 -0.007,1.117l-0.628,0l0,-1.156c0,-0.046 -0.004,-0.083 -0.013,-0.11c-0.01,-0.027 -0.027,-0.047 -0.052,-0.059c-0.025,-0.011 -0.049,-0.019 -0.072,-0.021c-0.023,-0.003 -0.058,-0.004 -0.106,-0.004ZM10.962,6.802l0,0.553l0.161,0c0.085,0 0.127,-0.09 0.127,-0.271c0,-0.121 -0.016,-0.198 -0.05,-0.231c-0.033,-0.034 -0.101,-0.051 -0.203,-0.051l-0.035,0Z" style="fill:#fff;fill-rule:nonzero;"/></g></g></g></svg>