<svg xmlns="http://www.w3.org/2000/svg" version="1" viewBox="0 0 200 200"><path fill="#B52833" d="M100 187.32c-42.63 0-77.32-34.69-77.32-77.32 0-42.63 34.69-77.32 77.32-77.32 42.63 0 77.32 34.69 77.32 77.32 0 42.63-34.69 77.32-77.32 77.32zm-30.53-35.81l1.49 1.02c8.58 5.87 18.62 8.97 29.03 8.97 28.4 0 51.5-23.1 51.5-51.5 0-10.42-3.1-20.46-8.97-29.03l-1.02-1.49-72.03 72.03zM100 58.5c-28.4 0-51.5 23.1-51.5 51.5 0 8.33 1.94 16.3 5.77 23.68l.94 1.82 70.28-70.28-1.82-.94c-7.37-3.84-15.34-5.78-23.67-5.78z"/><path d="M100 34.18c41.81 0 75.82 34.01 75.82 75.82s-34.01 75.82-75.82 75.82S24.18 151.81 24.18 110 58.19 34.18 100 34.18M54.82 138.01l2.9-2.9 67.39-67.39 2.9-2.9-3.64-1.89C116.77 59 108.57 57 100 57c-29.22 0-53 23.78-53 53 0 8.57 2 16.77 5.94 24.37l1.88 3.64M100 163c29.22 0 53-23.78 53-53 0-10.72-3.19-21.05-9.23-29.88l-2.04-2.98-2.56 2.56-69.48 69.48-2.56 2.56 2.98 2.04C78.95 159.81 89.28 163 100 163m0-131.82c-43.53 0-78.82 35.29-78.82 78.82 0 43.53 35.29 78.82 78.82 78.82 43.53 0 78.82-35.29 78.82-78.82 0-43.53-35.29-78.82-78.82-78.82zM55.6 132.99C52.03 126.1 50 118.29 50 110c0-27.61 22.39-50 50-50 8.29 0 16.1 2.03 22.99 5.6L55.6 132.99zM100 160c-10.46 0-20.16-3.21-28.19-8.7l69.48-69.48c5.49 8.03 8.7 17.73 8.7 28.19C150 137.62 127.62 160 100 160z"/><path fill="#D0C635" stroke="#000" stroke-miterlimit="10" stroke-width="3" d="M102.2 10.31c7.75 1.47 19.68 5.19 28.28 8.83 6.04 2.56 8.83 3.95 17.82 8.83.85.46 3.41 2.32 5.73 4.18 5.73 4.57 9.45 6.35 13.25 6.35 3.1 0 3.1 0 3.1 2.94 0 1.63.54 3.72 1.24 4.73 1.24 1.7 1.7 1.78 6.2 1.39 5.04-.46 7.28.39 7.28 2.87 0 3.33-10.07 8.6-22.47 11.54-35.79 8.77-80.18 9.46-124.11 2.03-10.3-1.78-12.86-2.79-14.87-6.12-2.32-4.03-.93-16.19 2.71-23.32 2.25-4.49 7.28-9.76 12.55-13.17 8.44-5.5 24.4-11 35.4-12.32 7.13-.77 20.07-.23 27.89 1.24zM171.86 62c3.87 17.43 5.35 23.86 6.28 26.34.62 1.7.85 3.41.62 3.8-1.63 2.63-17.74-14.18-22.47-23.47-1.08-2.17-1.86-3.95-1.7-4.11.31-.23 14.56-4.03 15.88-4.18.54 0 1.16.69 1.39 1.62zM34.73 64.25l6.43 1.01-.46 5.04c-1.55 15.42-6.66 24.09-16.81 28.66-3.64 1.7-8.06 2.09-8.83.85-.23-.39.93-1.7 2.63-2.87 1.7-1.24 3.33-2.79 3.64-3.56.7-2.17-1.01-3.64-3.72-3.1-2.63.54-2.56-.15.23-3.25 2.17-2.4 3.72-3.74 5.42-11.95 2.09-10.3 2.09-13.38 3.64-12.53 1 .5 1.56.75 7.83 1.7z"/><path d="M78.03 17.59c-15.8 2.56-26.73 7.98-36.02 18.13-7.2 7.82-11.85 18.67-8.06 18.67 1.16 0 1.16-.08 4.49-6.97 3.18-6.89 12.86-16.35 20.37-19.99 11.31-5.58 25.1-7.67 39.59-6.04 18.9 2.17 35.79 8.83 50.51 19.91 6.2 4.65 9.06 5.73 9.06 3.41 0-2.17-13.25-11.7-23.24-16.66-16.64-8.37-41.28-12.86-56.7-10.46z"/><path d="M71.91 31.07c-4.42 1.16-9.37 4.03-14.02 8.21-4.42 3.87-12.55 15.8-11.93 17.43.7 1.94 2.79 1.32 4.18-1.24 2.87-5.11 8.91-12.47 12.78-15.34 6.35-4.8 9.06-5.73 19.91-6.35 22-1.32 36.26 2.25 54.93 13.56 6.97 4.26 9.37 4.88 9.37 2.48 0-1.94-14.72-10.61-25.1-14.72-9.76-3.87-17.9-5.11-33-5.04-8.21.01-14.95.39-17.12 1.01z"/><path d="M80.28 43.16c-5.27 1.32-11.31 4.65-15.65 8.68-4.34 3.95-5.19 5.73-3.02 6.58.77.31 2.48-.77 4.8-3.1 7.13-7.05 19.45-10.69 30.21-9.06 12.4 1.86 21.61 4.57 31.07 9.06 6.74 3.25 9.37 3.72 9.37 1.78 0-2.4-13.56-8.52-26.88-12.09-8.36-2.24-24.4-3.25-29.9-1.85z"/><path fill="#B52833" stroke="#000" stroke-linecap="round" stroke-miterlimit="10" stroke-width="3" d="M81.97 178.82c-23.38-6.11-42.07-23.81-49.55-46.6"/></svg>