<svg xmlns="http://www.w3.org/2000/svg" id="Livello_1" x="0" y="0" version="1.1" viewBox="0 0 200 200" xml:space="preserve"><style>.st3{fill:#83808a}</style><linearGradient id="SVGID_1_" x1=".2526" x2=".0364" y1="199.987" y2="199.7321" gradientTransform="matrix(560.0001 0 0 -560.001 20.0009 112020.1953)" gradientUnits="userSpaceOnUse"><stop offset="0" stop-color="#b6509e"/><stop offset="1" stop-color="#2ebac6"/></linearGradient><path fill="url(#SVGID_1_)" d="M100 195c-67.4.4-114-70.1-87.4-132.1 33-77.2 141.8-77.2 174.9 0 26.5 62-20.1 132.5-87.5 132.1zm0-180C39.8 14.6-1.8 77.5 21.9 133c29.5 68.9 126.6 68.9 156.1 0 23.7-55.5-17.8-118.4-78-118z"/><path fill="#282138" d="M100.3 26.9c-40.4-.2-73.3 32.8-73.2 73 .1 40.3 32.8 73 72.9 73 39.7 0 72.6-32.8 72.9-72.1.3-40-31.6-73.8-72.6-73.9zM99.7 167C63 166.9 33 136.8 33 99.8c0-37.2 30.1-67.1 67.5-67.1 36.3 0 67 30.3 66.5 68.1-.5 36.8-30.7 66.4-67.3 66.2z"/><path fill="#82808a" d="M99.8 162.5c-15.3-.2-29-5.3-40.8-15.4-1-.9-1.2-1.4-.1-2.4 2.9-2.8 2.8-2.8 6-.3 21.1 17 51.5 16.3 72.1-1.5 1-.8 1.5-.9 2.4.1 3.1 3.2 3.1 3.1-.4 6-11.5 8.8-24.5 13.4-39.2 13.5z"/><path d="M156.6 97.9c-.1-12.2-4.8-24.4-13.8-35.1-.8-1-.9-1.5.1-2.4 3.1-3.1 3.1-3.1 5.8.3 7.8 9.9 12.4 21.1 13.4 33.7 1.4 17.6-3.7 33-15.1 46.5-.9 1.1-1.4 1.2-2.4.1-2.8-2.9-2.8-2.8-.3-6 8.2-10.3 12.4-22 12.3-37.1zM99.7 37.3c15.7.1 29.3 5.2 41.2 15.3 1.2 1 1.3 1.6.1 2.7-2.8 2.6-2.7 2.7-5.7.3-9.5-7.5-20.2-11.7-32.3-12.3-15.2-.8-28.5 3.9-40 13.7-1 .8-1.5.9-2.4-.1-3.1-3.1-3.1-3.1.3-5.8C72.4 42 85.4 37.4 99.7 37.3zM37.6 99.5c.1-15.2 5.2-28.8 15.2-40.6 1.1-1.3 1.7-1.3 2.8-.1 2.5 2.7 2.6 2.6.3 5.5-8.6 10.8-12.8 23.1-12.5 36.8.3 13.4 4.9 25.3 13.5 35.5 1 1.2 1.2 1.8-.1 3-2.9 2.7-2.9 2.8-5.3-.3-9.2-11.5-13.8-24.7-13.9-39.8z" class="st3"/><path fill="#ef9142" d="M129.2 108.1c-.6-4.6-3.3-7.4-7.6-9-.6-.2-1.4-.2-1.9-.9 5-2.9 6.2-7.5 5.4-12.8-.8-5.1-4.3-7.9-8.9-9.4-2.1-.7-4.3-1.2-6.6-1.4-1-.1-1.5-.4-1.4-1.5.1-1.6 0-3.1 0-4.7 0-5.9 0-5.8-5.9-5.6-1 .1-1.3.4-1.3 1.3.1 2 0 4 0 6 0 4 0 4-4 4-1.2 0-1.6-.4-1.6-1.6.1-2.8 0-5.7 0-8.5 0-1-.3-1.3-1.3-1.3-1.5.1-3 .1-4.5 0-1.1-.1-1.4.3-1.4 1.4.1 2.9 0 5.8 0 8.7 0 1.2-.3 1.6-1.6 1.6-3.3-.1-6.5 0-9.8 0-3.4 0-2.9-.5-2.9 2.8 0 4.7 0 4.7 4.8 4.8 3.2 0 4.5 1.3 4.5 4.4v29c0 2.9-.7 3.6-3.5 3.6h-2.8c-1.1-.1-1.6.3-1.8 1.4-.3 1.9-.5 3.9-.9 5.8-.2 1.1.1 1.4 1.2 1.4 2.8-.1 5.6 0 8.5 0 4.3 0 4.3.1 4.3 4.3v2.1c.1 1.7-.8 4 .4 5.1 1.1 1.1 3.3.2 5.1.3 1.3.1 1.8-.3 1.7-1.7-.1-2.7.1-5.4-.1-8.1-.1-1.4.4-1.8 1.8-1.8 3.8 0 3.8 0 3.8 3.9v2.1c.1 1.8-.8 4.1.4 5.2 1.2 1.1 3.5.2 5.3.3 1.2.1 1.5-.4 1.5-1.5-.1-2.7.1-5.4-.1-8.1-.1-1.6.3-2.2 2-2.3 2.8-.1 5.5-.6 8.1-1.4 9.2-2.3 12.2-9.3 11.1-17.9zM95.7 89.6V84c0-.6 0-1.3.9-1.3 3.7-.1 7.4-.2 10.9 1.1 3 1.1 4.6 3.1 4.6 5.9 0 2.8-1.6 4.8-4.6 5.9-3.5 1.3-7.1 1.2-10.7 1.2-1 0-1.1-.6-1.1-1.4v-5.8zm16.9 27.1c-2.2 1.6-4.8 2.1-7.4 2.3-2.7.3-5.4.2-8.1.4-1.1.1-1.6-.3-1.5-1.5.1-2.1 0-4.3 0-6.4h.1v-6.4c0-.9.2-1.4 1.3-1.4 4.1 0 8.1-.1 12.1 1 1.3.3 2.5.8 3.6 1.6 3.6 2.7 3.6 7.7-.1 10.4z"/></svg>