<svg xmlns="http://www.w3.org/2000/svg" version="1" viewBox="0 0 200 200"><path fill="#273951" d="M191.7 139.32c.02.45-.01 15.59.02 22.84 0 .73-.25 1.08-.88 1.38-10.9 5.18-39.51 18.85-42.94 20.47-5.47 2.59-10.97 5.09-16.79 6.83-6.06 1.81-12.22 3.13-18.53 3.66-3.19.27-6.4.51-9.59.49-14.35-.1-28.05-3.16-40.99-9.43-9.02-4.37-17.15-10.01-24.38-16.94-11.31-10.85-19.47-23.71-24.46-38.57-1.95-5.81-3.28-11.77-4.07-17.85-.73-5.6-.97-11.23-.67-16.86 1.06-19.98 7.65-37.95 19.96-53.74C40.14 26.52 55.17 15.95 73.3 9.83c6.27-2.12 12.72-3.48 19.3-4.23 5.13-.59 10.27-.73 15.42-.48 12.9.63 25.17 3.76 36.79 9.42 8.77 4.27 16.7 9.76 23.77 16.48 10 9.5 17.62 20.65 22.79 33.45.2.49.31 1.06.31 1.59.02 14.38.01 28.76.03 43.14 0 .72-.24 1.07-.89 1.37-22.08 10.07-44.15 20.16-66.21 30.28-3.21 1.47-6.44 2.88-9.87 3.75-5.55 1.4-11.16 1.82-16.85 1.16-10.14-1.18-18.94-5.28-26.42-12.2-2.34-2.16-4.41-4.56-6.24-7.16-.22-.31-.46-.61-.73-.98-8.21 3.92-16.37 7.82-24.62 11.75.19.36.32.64.48.91 7.06 11.53 16.53 20.51 28.44 26.92 7.66 4.12 15.82 6.73 24.43 7.94 4.66.66 9.35.85 14.05.58 10.15-.57 19.76-3.17 28.88-7.66 7.24-3.59 55.08-26.34 55.54-26.54zM78.93 94.3c9.71 6.86 19.24 13.61 28.77 20.34 20.9-9.34 41.72-18.65 62.53-27.95.02-.32.05-.54.05-.77 0-5.25.01-10.49-.01-15.74 0-.46-.14-.96-.34-1.38-3.77-8.03-8.83-15.13-15.16-21.35-5.59-5.49-11.9-9.98-18.91-13.46-8.09-4.01-16.63-6.43-25.62-7.28-6.03-.57-12.03-.41-18.01.5-8.5 1.29-16.54 3.97-24.07 8.12-13.34 7.35-23.54 17.8-30.48 31.35-6.01 11.75-8.6 24.27-7.87 37.46.32 5.85 1.35 11.56 3.03 17.16.1.33.23.65.38 1.07 8.31-3.97 16.53-7.89 24.79-11.83-2.62-11.88-1.23-23.15 4.75-33.69 5.99-10.57 14.85-17.78 26.44-21.44 19.35-6.13 38.37 1.48 48.28 13.2-19.46 8.54-38.89 17.07-58.55 25.69z"/></svg>