<svg xmlns="http://www.w3.org/2000/svg" id="Livello_1" x="0" y="0" version="1.1" viewBox="0 0 200 200" xml:space="preserve"><style>.st1{fill:#1353a0}.st2{fill:#fff}</style><path fill="#2054a1" d="M100 1C45.4 1 1 45.4 1 100s44.4 99 99 99 99-44.4 99-99-44.4-99-99-99zm77.9 119.2H23c-6.9 0-12.8-5.2-13.6-12-.4-3.4-.6-6.8-.6-10.2 0-48.1 40.8-87.1 91.2-87.1s91.2 39 91.2 87.1c0 3.8-.2 7.5-.7 11.1-.8 6.3-6.2 11.1-12.6 11.1z"/><path d="M112.4 84.9l18.8-16.4h-19.8l-15 11.9c-2.2 1.5-3.6 3.3-4 5.6l2.4-17.4H78.5l-5 36.3h16.4l2.5-18.1c-.3 2.1.5 4 2.2 5.7l11.8 12.4h9.7l-7.8-9c-1.7-1.9-3.1-3.4-6.2-2.9-3.3.5-6-2.5-6-5.3s2.3-5.2 5.3-5.4c3-.3 5.8 2.1 5.7 5.6-.1 3.9 2.8 5.8 4.8 8.1 2.6 3 5.2 6 7.7 8.9h6.8L112.1 89c-1.3-1.5-1.2-2.8.3-4.1z" class="st1"/><path d="M99.7 85.7c-1.1 1-1.2 2.6-.2 3.7s2.6 1.2 3.7.2 1.2-2.6.2-3.7-2.6-1.2-3.7-.2zM49 94.8c-2.2 0-4.1.4-5.6 2.8-1.8 2.8-5.8 2.9-8 1-2.1-1.9-2.4-5.1-.6-7.5.8-1.1 1.9-1.8 3.2-2l2.9-20.4H25.7l-3.2 22.8C21.2 100.1 26 104.6 37 105h34.7L73 95s-6.3-.1-22.8-.2H49z" class="st1"/><path d="M37.2 92.5c-.9 1.1-.8 2.7.2 3.7 1.1.9 2.7.8 3.7-.2.9-1.1.8-2.7-.2-3.7-1.1-1-2.8-.9-3.7.2zM150.8 78.1h26.4l1.3-9.4h-29.6c-6.2.2-10.7 1.2-13.5 2.9-2.8 1.7-4.7 4.4-5.7 8.2-.5 3.6.4 6.4 2.9 8.5s6.5 3.1 12.3 3.1H158c2.7 0 4.7.1 5.8.3 1.2.2 1.8.8 2 1.8-.5 1.3-1.4 2-2.7 2.1-1.3.1-3.2.2-5.7.2h-28.8l-1.3 9.3h30.3c6.4-.1 11-1 13.7-2.7 2.8-1.7 4.6-4.5 5.4-8.1.5-3.7-.3-6.5-2.5-8.6-2.2-2.1-6-3.2-11.4-3.4h-11.2c-.7.4-1.3 1-1.9 1.9-1.8 2.8-5.9 2.8-8 .8-2.1-1.9-2.3-5.2-.5-7.5 1.8-2.4 5.4-2.9 8-.4.4.3 1 .7 1.6 1z" class="st1"/><path d="M143.5 78.8c-1 1.1-.9 2.7.2 3.7s2.7.9 3.7-.2.9-2.7-.2-3.7c-1-.9-2.7-.8-3.7.2z" class="st1"/><path d="M151.4 142.7s.1 1 .1 1.4v9c0 2.5-1 3.6-3.3 4.3-2.2.6-4.4.6-6.7.1-1.6-.3-2.9-1.2-4-2.3-2.8-2.6-5.5-5.3-8.2-7.9l-.1-.1c-.6-.6-1.7-.1-1.7.7 0 2.7.1 9.6.1 9.6h-6.4v-10.4c0-2.2 1-3.6 3.2-4.1 4.3-.9 8.2-.5 11.5 2.9 2.5 2.6 5.1 5.1 7.7 7.6.5.5 1.4.1 1.4-.6.3-4.1 0-10 0-10l6.4-.2zM96.7 157.6h-6.9c-2 0-3.8-.6-5.5-1.6-3.8-2.3-4.3-9.4.7-11.9 1.7-.9 3.6-1.3 5.5-1.3 4.1-.1 8.1-.1 12.2 0 1.5 0 3.1.3 4.6.7 3.2.9 5 3.4 5 6.7 0 3.2-1.8 5.8-4.9 6.7-1.3.4-2.8.6-4.2.7-2.2.1-4.3 0-6.5 0zm.3-11.5h-4.4c-.6 0-1.3.1-1.9.3-2 .6-2.9 1.9-2.9 3.9 0 1.8 1.2 3.2 3.1 3.7.7.2 1.4.3 2.1.3 2.6 0 5.3.1 7.9 0 .9 0 1.8-.2 2.7-.5 1.7-.6 2.4-1.9 2.4-3.8 0-1.7-.9-3-2.5-3.5-.6-.2-1.3-.3-2-.4H97zM119.4 142.8v14.7h-6.1v-14.7h6.1z" class="st2"/><path d="M80.6 154.4H64.4c-.9 0-1.9-.1-2.8-.4-1.8-.6-2.5-1.8-2.5-3.8 0-1.9.8-3.1 2.5-3.6 1-.3 2.1-.4 3.2-.4h15.7v-3.4H62c-1.3 0-2.7.2-4 .5-3.3.8-5.2 3.2-5.4 6.5-.2 3.6 1.5 6.2 4.9 7.3 1.2.4 2.5.6 3.8.6 6.4.1 12.7 0 19.1 0v-3.3z" class="st2"/></svg>