<svg xmlns="http://www.w3.org/2000/svg" viewBox="0 0 200 200"><linearGradient id="a" x1=".2524" x2=".0362" y1=".0125" y2=".2675" gradientTransform="matrix(560.0001 0 0 560.001 20.0009 20)" gradientUnits="userSpaceOnUse"><stop offset="0" stop-color="#b6509e"/><stop offset="1" stop-color="#2ebac6"/></linearGradient><path fill="url(#a)" d="M100 195c-66.3 1.4-114.4-71.4-87.3-132.2 32.3-77 142.3-77 174.7 0 26.9 61-21 133.1-87.4 132.2zm0-180.1c-59.5-1.2-102 63.5-78.1 118 28.1 68.7 128 68.7 156.1 0 24.2-54.1-18.8-119.6-78-118z"/><linearGradient id="b" x1=".0349" x2=".0349" y1=".2527" y2="-.1704" gradientTransform="matrix(430 0 0 430 85 85)" gradientUnits="userSpaceOnUse"><stop offset="0" stop-color="#f9a606"/><stop offset="1" stop-color="#fbcc5f"/></linearGradient><circle cx="100" cy="100" r="72.9" fill="url(#b)"/><path fill="#fff" d="M143.3 88h-8.7c-4.8-13.2-17.6-22.3-34.5-22.3H72.3V88h-9.7v8h9.7v8.4h-9.7v8h9.7v22h27.8c16.7 0 29.4-9 34.3-22h8.8v-8h-6.9c.2-1.4.3-2.9.3-4.3v-.2c0-1.3-.1-2.6-.2-3.9h6.8l.1-8zM80.1 72.8h20c12.4 0 21.6 6.1 25.9 15.1H80.1V72.8zm20 54.4h-20v-14.9h45.8c-4.2 8.9-13.4 14.9-25.8 14.9zm28.5-27c0 1.4-.1 2.8-.3 4.1H80.1v-8.4h48.2c.2 1.3.3 2.7.3 4.1v.2z"/></svg>