<?xml version="1.0" encoding="utf-8"?>
<!-- Generator: Adobe Illustrator 22.1.0, SVG Export Plug-In . SVG Version: 6.00 Build 0)  -->
<svg version="1.0" id="Layer_1" xmlns="http://www.w3.org/2000/svg" xmlns:xlink="http://www.w3.org/1999/xlink" x="0px" y="0px"
	 viewBox="0 0 202.7 202.7" enable-background="new 0 0 202.7 202.7" xml:space="preserve">
<g>
	<g>
		<path fill="#ED1C24" d="M112.9,129c1.8-0.7,3.4-1.6,5-2.7v-0.5c-1.5,1-3.2,1.9-4.9,2.7L112.9,129z"/>
	</g>
	<g>
		<path fill="#ED1C24" d="M111.8,133.3c2.2-0.7,4.2-1.6,6.2-2.7v-0.5c-1.9,1.1-3.9,2-6,2.7L111.8,133.3z"/>
	</g>
	<g>
		<path fill="#ED1C24" d="M84.6,130.5c1.9,1.1,4,2,6.2,2.8l-0.1-0.5c-2.1-0.7-4.1-1.6-6-2.8L84.6,130.5L84.6,130.5z"/>
	</g>
	<g>
		<path fill="#ED1C24" d="M84.6,126.2c1.6,1.1,3.2,2,5,2.7l-0.1-0.5c-1.7-0.8-3.3-1.7-4.8-2.7L84.6,126.2L84.6,126.2z"/>
	</g>
	<g>
		<path fill="#ED1C24" d="M117.9,110.5l-0.1,0.2C117.8,110.7,117.8,110.6,117.9,110.5L117.9,110.5z"/>
	</g>
	<g>
		<path fill="#ED1C24" d="M84.6,134.7c5,2.5,10.7,4,16.7,4c6,0,11.6-1.4,16.6-3.9v-0.5c-5,2.5-10.6,4-16.6,4s-11.7-1.4-16.7-4
			C84.6,134.3,84.6,134.7,84.6,134.7z"/>
	</g>
	<g>
		<path fill="#ED1C24" d="M115.7,118.9c0.8-0.7,1.6-1.4,2.3-2.1v-0.6c-0.6,0.7-1.3,1.4-2.1,2L115.7,118.9z"/>
	</g>
	<g>
		<path fill="#ED1C24" d="M114.2,124.3c1.3-0.7,2.6-1.6,3.7-2.5v-0.6c-1.1,0.9-2.3,1.8-3.6,2.5L114.2,124.3z"/>
	</g>
	<g>
		<path fill="#ED1C24" d="M52.3,85.9c1.8-5.7,4.6-11,8.1-15.6v-0.7c-3.8,4.8-6.7,10.4-8.5,16.3C51.9,85.9,52.3,85.9,52.3,85.9z"/>
	</g>
	<g>
		<path fill="#ED1C24" d="M56.8,99c0,0.8-0.1,1.6-0.1,2.4s0,1.6,0.1,2.4h0.4c0-0.8-0.1-1.6-0.1-2.4s0-1.6,0.1-2.4H56.8z"/>
	</g>
	<g>
		<path fill="#ED1C24" d="M60.4,76c-1.9,3.1-3.5,6.4-4.7,9.9h0.4c1.1-3.2,2.5-6.3,4.3-9.1V76z"/>
	</g>
	<g>
		<path fill="#ED1C24" d="M55.7,116.8c1.2,3.5,2.8,6.8,4.7,9.9v-0.8c-1.7-2.9-3.2-5.9-4.3-9.1H55.7z"/>
	</g>
	<g>
		<path fill="#ED1C24" d="M84.6,121.7c1.2,1,2.4,1.8,3.7,2.6l-0.2-0.6c-1.3-0.7-2.4-1.6-3.6-2.5L84.6,121.7L84.6,121.7z"/>
	</g>
	<g>
		<path fill="#ED1C24" d="M74.4,136.8c7.5,5.7,16.8,9.1,26.9,9.1s19.5-3.4,26.9-9.1h-0.7c-7.3,5.4-16.4,8.7-26.2,8.7
			s-18.9-3.2-26.2-8.7H74.4z"/>
	</g>
	<g>
		<path fill="#ED1C24" d="M81,136.8c6,3.5,13,5.4,20.4,5.4s14.4-2,20.4-5.4h-0.9c-5.8,3.2-12.4,5-19.5,5s-13.7-1.8-19.5-5H81z"/>
	</g>
	<g>
		<path fill="#ED1C24" d="M53.2,99c0,0.8-0.1,1.6-0.1,2.4s0,1.6,0.1,2.4h0.4c0-0.8-0.1-1.6-0.1-2.4s0-1.6,0.1-2.4H53.2z"/>
	</g>
	<g>
		<path fill="#ED1C24" d="M63.5,136.8c9.5,10.1,22.9,16.4,37.8,16.4s28.3-6.3,37.8-16.4h-0.6c-9.4,9.8-22.6,16-37.2,16
			s-27.9-6.1-37.2-16H63.5z"/>
	</g>
	<g>
		<path fill="#ED1C24" d="M68.7,136.8c8.6,7.9,20.1,12.7,32.6,12.7s24-4.8,32.6-12.7h-0.6c-8.5,7.7-19.7,12.3-32,12.3
			s-23.5-4.7-32-12.3H68.7z"/>
	</g>
	<g>
		<path fill="#ED1C24" d="M103.9,86.2c-0.8-0.1-1.7-0.2-2.5-0.2c-0.9,0-1.8,0.1-2.6,0.2l0.1,0.4c0.8-0.1,1.7-0.2,2.5-0.2
			s1.6,0.1,2.4,0.2L103.9,86.2z"/>
	</g>
	<g>
		<path fill="#ED1C24" d="M105.6,79.1c-1.4-0.3-2.8-0.4-4.2-0.4c-1.5,0-2.9,0.1-4.3,0.4l0.1,0.4c1.4-0.3,2.8-0.4,4.2-0.4
			c1.4,0,2.8,0.1,4.1,0.4L105.6,79.1z"/>
	</g>
	<g>
		<path fill="#ED1C24" d="M104.7,82.7c-1.1-0.2-2.2-0.3-3.4-0.3c-1.2,0-2.4,0.1-3.5,0.3l0.1,0.4c1.1-0.2,2.2-0.3,3.4-0.3
			c1.1,0,2.2,0.1,3.3,0.3L104.7,82.7z"/>
	</g>
	<g>
		<path fill="#ED1C24" d="M107.3,72c-1.9-0.4-3.9-0.6-6-0.6s-4.1,0.2-6.1,0.6l0.1,0.4c1.9-0.4,3.9-0.6,6-0.6c2,0,4,0.2,5.9,0.6
			L107.3,72z"/>
	</g>
	<g>
		<path fill="#ED1C24" d="M106.5,75.5c-1.6-0.3-3.4-0.5-5.1-0.5c-1.8,0-3.5,0.2-5.2,0.5l0.1,0.4c1.7-0.3,3.4-0.5,5.1-0.5
			s3.4,0.2,5,0.5L106.5,75.5z"/>
	</g>
	<g>
		<path fill="#ED1C24" d="M108.2,68.4c-2.2-0.5-4.5-0.7-6.8-0.7c-2.4,0-4.7,0.3-6.9,0.7l0.1,0.4c2.2-0.5,4.5-0.7,6.8-0.7
			s4.5,0.2,6.7,0.7L108.2,68.4z"/>
	</g>
	<g>
		<path fill="#ED1C24" d="M51.8,116.8c1.9,6,4.8,11.5,8.5,16.3v-0.7c-3.5-4.7-6.3-9.9-8.1-15.6C52.2,116.8,51.8,116.8,51.8,116.8z"
			/>
	</g>
	<g>
		<path fill="#ED1C24" d="M103,89.8c-0.5-0.1-1.1-0.1-1.6-0.1c-0.6,0-1.2,0-1.8,0.1l0.1,0.4c0.5-0.1,1.1-0.1,1.7-0.1
			c0.5,0,1,0,1.5,0.1L103,89.8z"/>
	</g>
	<g>
		<path fill="#ED1C24" d="M102.1,93.4c-0.3,0-0.5,0-0.8,0s-0.6,0-0.9,0.1l0.1,0.4c0.3,0,0.5,0,0.8,0c0.2,0,0.4,0,0.7,0L102.1,93.4z"
			/>
	</g>
	<g>
		<path fill="#ED1C24" d="M149.5,103.7c0-0.8,0.1-1.6,0.1-2.4s0-1.6-0.1-2.4h-0.4c0,0.8,0.1,1.6,0.1,2.4s0,1.6-0.1,2.4H149.5z"/>
	</g>
	<g>
		<path fill="#ED1C24" d="M142.2,133.3c3.8-4.9,6.8-10.4,8.7-16.5h-0.4c-1.8,5.8-4.6,11.1-8.2,15.8v0.7H142.2z"/>
	</g>
	<g>
		<path fill="#ED1C24" d="M142.2,126.9c2-3.2,3.6-6.6,4.8-10.1h-0.4c-1.1,3.3-2.6,6.4-4.4,9.3L142.2,126.9L142.2,126.9z"/>
	</g>
	<g>
		<path fill="#ED1C24" d="M112.7,65.9c-3.6-1.2-7.4-1.8-11.4-1.8s-7.8,0.6-11.4,1.8h1.5c3.2-0.9,6.5-1.4,9.9-1.4s6.8,0.5,9.9,1.4
			H112.7z"/>
	</g>
	<g>
		<path fill="#ED1C24" d="M142.2,118.1v1.1c0.3-0.8,0.7-1.6,0.9-2.3h-0.5C142.6,117.2,142.4,117.6,142.2,118.1z"/>
	</g>
	<g>
		<path fill="#ED1C24" d="M84.6,116.6c0.7,0.8,1.4,1.5,2.2,2.1l-0.2-0.7c-0.7-0.6-1.4-1.3-2-2V116.6z"/>
	</g>
	<g>
		<path fill="#ED1C24" d="M142.3,101.4c0-0.7,0-1.3-0.1-2v4C142.3,102.7,142.3,102,142.3,101.4z"/>
	</g>
	<g>
		<path fill="#ED1C24" d="M145.9,103.7c0-0.8,0.1-1.6,0.1-2.4s0-1.6-0.1-2.4h-0.4c0,0.8,0.1,1.6,0.1,2.4s0,1.6-0.1,2.4H145.9z"/>
	</g>
	<g>
		<path fill="#ED1C24" d="M128.3,65.9c-7.5-5.7-16.8-9.1-26.9-9.1s-19.5,3.4-26.9,9.1h0.7c7.3-5.4,16.4-8.7,26.2-8.7
			s18.9,3.2,26.2,8.7H128.3z"/>
	</g>
	<g>
		<path fill="#ED1C24" d="M121.7,65.9c-6-3.5-13-5.4-20.4-5.4S87,62.4,81,65.9h0.9c5.8-3.2,12.4-5,19.5-5s13.7,1.8,19.5,5H121.7z"/>
	</g>
	<g>
		<polygon fill="#ED1C24" points="62.9,88.5 52.6,88.5 52.6,96.4 62.9,96.4 62.9,106.3 52.6,106.3 52.6,114.3 62.9,114.3 
			62.9,134.3 82.1,134.3 82.1,92 82.3,92 93.7,134.3 108.9,134.3 120.3,92 120.5,92 120.5,134.3 139.7,134.3 139.7,114.3 
			150.2,114.3 150.2,106.3 139.7,106.3 139.7,96.4 150.2,96.4 150.2,88.5 139.7,88.5 139.7,68.4 110.8,68.4 101.4,107.2 
			101.2,107.2 91.8,68.4 62.9,68.4 		"/>
	</g>
	<g>
		<path fill="#ED1C24" d="M134,65.9c-8.6-7.9-20.1-12.7-32.6-12.7c-12.6,0-24,4.8-32.6,12.7h0.6c8.5-7.7,19.7-12.3,32-12.3
			s23.5,4.7,32,12.3H134z"/>
	</g>
	<g>
		<path fill="#ED1C24" d="M139.2,65.9c-9.5-10.1-22.9-16.4-37.8-16.4s-28.3,6.3-37.8,16.4h0.6c9.4-9.8,22.6-16,37.2-16
			s27.9,6.1,37.2,16H139.2z"/>
	</g>
	<g>
		<path fill="#ED1C24" d="M101.4,177.5c42,0,76.2-34.2,76.2-76.2s-34.2-76.2-76.2-76.2s-76.2,34.2-76.2,76.2S59.3,177.5,101.4,177.5
			z M101.4,28.2c40.4,0,73.2,32.8,73.2,73.2s-32.8,73.2-73.2,73.2s-73.2-32.8-73.2-73.2C28.2,61,61,28.2,101.4,28.2z"/>
	</g>
	<g>
		<path fill="#ED1C24" d="M50,93.8c-0.4,2.5-0.5,5-0.5,7.5c0,2.6,0.2,5.1,0.5,7.5v-4c-0.1-1.2-0.1-2.3-0.1-3.5s0-2.4,0.1-3.5V93.8z"
			/>
	</g>
	<g>
		<path fill="#ED1C24" d="M101.4,156.9c30.6,0,55.5-24.9,55.5-55.5S132,45.9,101.4,45.9s-55.5,24.9-55.5,55.5
			C45.8,132,70.7,156.9,101.4,156.9z M101.4,46.2c30.4,0,55.1,24.7,55.1,55.1s-24.7,55.1-55.1,55.1s-55.1-24.7-55.1-55.1
			S71,46.2,101.4,46.2z"/>
	</g>
	<g>
		<path fill="#ED1C24" d="M101.4,171.5c38.7,0,70.2-31.5,70.2-70.2S140,31.2,101.4,31.2s-70.2,31.5-70.2,70.2
			S62.7,171.5,101.4,171.5z M101.4,31.6c38.5,0,69.7,31.3,69.7,69.7S139.8,171,101.4,171c-38.5,0-69.7-31.3-69.7-69.7
			S62.9,31.6,101.4,31.6z"/>
	</g>
	<g>
		<path fill="#ED1C24" d="M101.4,167.9c36.7,0,66.5-29.8,66.5-66.5S138,34.8,101.4,34.8s-66.5,29.8-66.5,66.5
			S64.7,167.9,101.4,167.9z M101.4,35.3c36.4,0,66.1,29.6,66.1,66.1c0,36.4-29.6,66.1-66.1,66.1s-66.1-29.6-66.1-66.1
			C35.3,64.9,64.9,35.3,101.4,35.3z"/>
	</g>
	<g>
		<path fill="#ED1C24" d="M101.4,164.2c34.7,0,62.9-28.2,62.9-62.9s-28.2-62.9-62.9-62.9s-62.9,28.2-62.9,62.9
			S66.7,164.2,101.4,164.2z M101.4,38.9c34.4,0,62.4,28,62.4,62.4s-28,62.4-62.4,62.4S39,135.7,39,101.3S66.9,38.9,101.4,38.9z"/>
	</g>
	<g>
		<path fill="#ED1C24" d="M101.4,160.6c32.6,0,59.2-26.6,59.2-59.2S134,42.2,101.4,42.2s-59.2,26.6-59.2,59.2
			S68.7,160.6,101.4,160.6z M101.4,42.6c32.4,0,58.8,26.4,58.8,58.8s-26.4,58.8-58.8,58.8s-58.8-26.4-58.8-58.8
			C42.6,68.9,68.9,42.6,101.4,42.6z"/>
	</g>
	<g>
		<path fill="#ED1C24" d="M152.7,108.9c0.4-2.5,0.5-5,0.5-7.5s-0.2-5.1-0.5-7.5v4c0.1,1.2,0.1,2.3,0.1,3.5s0,2.4-0.1,3.5V108.9z"/>
	</g>
	<g>
		<path fill="#ED1C24" d="M150.9,85.9c-1.9-6-4.9-11.6-8.7-16.5v0.7c3.6,4.7,6.4,10,8.2,15.8H150.9z"/>
	</g>
	<g>
		<path fill="#ED1C24" d="M143.2,85.9c-0.3-0.8-0.6-1.6-0.9-2.3v1.1c0.2,0.4,0.3,0.8,0.5,1.3L143.2,85.9L143.2,85.9z"/>
	</g>
	<g>
		<path fill="#ED1C24" d="M147.1,85.9c-1.2-3.6-2.8-7-4.8-10.1v0.8c1.8,2.9,3.3,6.1,4.4,9.3C146.7,85.9,147.1,85.9,147.1,85.9z"/>
	</g>
	<g>
		<path fill="#ED1C24" d="M59.5,116.8c0.3,0.7,0.5,1.4,0.8,2.1v-1.1c-0.1-0.3-0.3-0.6-0.4-1H59.5z"/>
	</g>
</g>
</svg>
