<svg xmlns="http://www.w3.org/2000/svg" version="1" viewBox="0 0 202.7 202.7"><path fill="#ED1C24" d="M112.9 129c1.8-.7 3.4-1.6 5-2.7v-.5c-1.5 1-3.2 1.9-4.9 2.7l-.1.5zM111.8 133.3c2.2-.7 4.2-1.6 6.2-2.7v-.5c-1.9 1.1-3.9 2-6 2.7l-.2.5zM84.6 130.5c1.9 1.1 4 2 6.2 2.8l-.1-.5c-2.1-.7-4.1-1.6-6-2.8l-.1.5zM84.6 126.2c1.6 1.1 3.2 2 5 2.7l-.1-.5c-1.7-.8-3.3-1.7-4.8-2.7l-.1.5zM117.9 110.5l-.1.2s0-.1.1-.2zM84.6 134.7c5 2.5 10.7 4 16.7 4s11.6-1.4 16.6-3.9v-.5c-5 2.5-10.6 4-16.6 4s-11.7-1.4-16.7-4v.4zM115.7 118.9c.8-.7 1.6-1.4 2.3-2.1v-.6c-.6.7-1.3 1.4-2.1 2l-.2.7zM114.2 124.3c1.3-.7 2.6-1.6 3.7-2.5v-.6c-1.1.9-2.3 1.8-3.6 2.5l-.1.6zM52.3 85.9c1.8-5.7 4.6-11 8.1-15.6v-.7c-3.8 4.8-6.7 10.4-8.5 16.3h.4zM56.8 99c0 .8-.1 1.6-.1 2.4s0 1.6.1 2.4h.4c0-.8-.1-1.6-.1-2.4s0-1.6.1-2.4h-.4zM60.4 76c-1.9 3.1-3.5 6.4-4.7 9.9h.4c1.1-3.2 2.5-6.3 4.3-9.1V76zM55.7 116.8c1.2 3.5 2.8 6.8 4.7 9.9v-.8c-1.7-2.9-3.2-5.9-4.3-9.1h-.4zM84.6 121.7c1.2 1 2.4 1.8 3.7 2.6l-.2-.6c-1.3-.7-2.4-1.6-3.6-2.5l.1.5z"/><path fill="#ED1C24" d="M74.4 136.8c7.5 5.7 16.8 9.1 26.9 9.1s19.5-3.4 26.9-9.1h-.7c-7.3 5.4-16.4 8.7-26.2 8.7s-18.9-3.2-26.2-8.7h-.7z"/><path fill="#ED1C24" d="M81 136.8c6 3.5 13 5.4 20.4 5.4s14.4-2 20.4-5.4h-.9c-5.8 3.2-12.4 5-19.5 5s-13.7-1.8-19.5-5H81zM53.2 99c0 .8-.1 1.6-.1 2.4s0 1.6.1 2.4h.4c0-.8-.1-1.6-.1-2.4s0-1.6.1-2.4h-.4z"/><path fill="#ED1C24" d="M63.5 136.8c9.5 10.1 22.9 16.4 37.8 16.4s28.3-6.3 37.8-16.4h-.6c-9.4 9.8-22.6 16-37.2 16s-27.9-6.1-37.2-16h-.6z"/><path fill="#ED1C24" d="M68.7 136.8c8.6 7.9 20.1 12.7 32.6 12.7s24-4.8 32.6-12.7h-.6c-8.5 7.7-19.7 12.3-32 12.3s-23.5-4.7-32-12.3h-.6zM103.9 86.2c-.8-.1-1.7-.2-2.5-.2-.9 0-1.8.1-2.6.2l.1.4c.8-.1 1.7-.2 2.5-.2s1.6.1 2.4.2l.1-.4zM105.6 79.1c-1.4-.3-2.8-.4-4.2-.4-1.5 0-2.9.1-4.3.4l.1.4c1.4-.3 2.8-.4 4.2-.4 1.4 0 2.8.1 4.1.4l.1-.4zM104.7 82.7c-1.1-.2-2.2-.3-3.4-.3-1.2 0-2.4.1-3.5.3l.1.4c1.1-.2 2.2-.3 3.4-.3 1.1 0 2.2.1 3.3.3l.1-.4zM107.3 72c-1.9-.4-3.9-.6-6-.6s-4.1.2-6.1.6l.1.4c1.9-.4 3.9-.6 6-.6 2 0 4 .2 5.9.6l.1-.4zM106.5 75.5c-1.6-.3-3.4-.5-5.1-.5-1.8 0-3.5.2-5.2.5l.1.4c1.7-.3 3.4-.5 5.1-.5s3.4.2 5 .5l.1-.4zM108.2 68.4c-2.2-.5-4.5-.7-6.8-.7-2.4 0-4.7.3-6.9.7l.1.4c2.2-.5 4.5-.7 6.8-.7s4.5.2 6.7.7l.1-.4zM51.8 116.8c1.9 6 4.8 11.5 8.5 16.3v-.7c-3.5-4.7-6.3-9.9-8.1-15.6h-.4zM103 89.8c-.5-.1-1.1-.1-1.6-.1-.6 0-1.2 0-1.8.1l.1.4c.5-.1 1.1-.1 1.7-.1.5 0 1 0 1.5.1l.1-.4zM102.1 93.4h-.8c-.3 0-.6 0-.9.1l.1.4h1.5l.1-.5zM149.5 103.7c0-.8.1-1.6.1-2.4s0-1.6-.1-2.4h-.4c0 .8.1 1.6.1 2.4s0 1.6-.1 2.4h.4zM142.2 133.3c3.8-4.9 6.8-10.4 8.7-16.5h-.4c-1.8 5.8-4.6 11.1-8.2 15.8v.7h-.1zM142.2 126.9c2-3.2 3.6-6.6 4.8-10.1h-.4c-1.1 3.3-2.6 6.4-4.4 9.3v.8zM112.7 65.9c-3.6-1.2-7.4-1.8-11.4-1.8s-7.8.6-11.4 1.8h1.5c3.2-.9 6.5-1.4 9.9-1.4s6.8.5 9.9 1.4h1.5zM142.2 118.1v1.1c.3-.8.7-1.6.9-2.3h-.5c0 .3-.2.7-.4 1.2zM84.6 116.6c.7.8 1.4 1.5 2.2 2.1l-.2-.7c-.7-.6-1.4-1.3-2-2v.6zM142.3 101.4c0-.7 0-1.3-.1-2v4c.1-.7.1-1.4.1-2zM145.9 103.7c0-.8.1-1.6.1-2.4s0-1.6-.1-2.4h-.4c0 .8.1 1.6.1 2.4s0 1.6-.1 2.4h.4z"/><path fill="#ED1C24" d="M128.3 65.9c-7.5-5.7-16.8-9.1-26.9-9.1s-19.5 3.4-26.9 9.1h.7c7.3-5.4 16.4-8.7 26.2-8.7s18.9 3.2 26.2 8.7h.7z"/><path fill="#ED1C24" d="M121.7 65.9c-6-3.5-13-5.4-20.4-5.4S87 62.4 81 65.9h.9c5.8-3.2 12.4-5 19.5-5s13.7 1.8 19.5 5h.8zM62.9 88.5H52.6v7.9h10.3v9.9H52.6v8h10.3v20h19.2V92h.2l11.4 42.3h15.2L120.3 92h.2v42.3h19.2v-20h10.5v-8h-10.5v-9.9h10.5v-7.9h-10.5V68.4h-28.9l-9.4 38.8h-.2l-9.4-38.8H62.9z"/><path fill="#ED1C24" d="M134 65.9c-8.6-7.9-20.1-12.7-32.6-12.7-12.6 0-24 4.8-32.6 12.7h.6c8.5-7.7 19.7-12.3 32-12.3s23.5 4.7 32 12.3h.6z"/><path fill="#ED1C24" d="M139.2 65.9c-9.5-10.1-22.9-16.4-37.8-16.4s-28.3 6.3-37.8 16.4h.6c9.4-9.8 22.6-16 37.2-16s27.9 6.1 37.2 16h.6z"/><path fill="#ED1C24" d="M101.4 177.5c42 0 76.2-34.2 76.2-76.2s-34.2-76.2-76.2-76.2-76.2 34.2-76.2 76.2 34.1 76.2 76.2 76.2zm0-149.3c40.4 0 73.2 32.8 73.2 73.2s-32.8 73.2-73.2 73.2-73.2-32.8-73.2-73.2c0-40.4 32.8-73.2 73.2-73.2z"/><path fill="#ED1C24" d="M50 93.8c-.4 2.5-.5 5-.5 7.5 0 2.6.2 5.1.5 7.5v-4c-.1-1.2-.1-2.3-.1-3.5s0-2.4.1-3.5v-4z"/><path fill="#ED1C24" d="M101.4 156.9c30.6 0 55.5-24.9 55.5-55.5S132 45.9 101.4 45.9s-55.5 24.9-55.5 55.5c-.1 30.6 24.8 55.5 55.5 55.5zm0-110.7c30.4 0 55.1 24.7 55.1 55.1s-24.7 55.1-55.1 55.1-55.1-24.7-55.1-55.1S71 46.2 101.4 46.2z"/><path fill="#ED1C24" d="M101.4 171.5c38.7 0 70.2-31.5 70.2-70.2S140 31.2 101.4 31.2s-70.2 31.5-70.2 70.2 31.5 70.1 70.2 70.1zm0-139.9c38.5 0 69.7 31.3 69.7 69.7S139.8 171 101.4 171c-38.5 0-69.7-31.3-69.7-69.7s31.2-69.7 69.7-69.7z"/><path fill="#ED1C24" d="M101.4 167.9c36.7 0 66.5-29.8 66.5-66.5S138 34.8 101.4 34.8s-66.5 29.8-66.5 66.5 29.8 66.6 66.5 66.6zm0-132.6c36.4 0 66.1 29.6 66.1 66.1 0 36.4-29.6 66.1-66.1 66.1s-66.1-29.6-66.1-66.1c0-36.5 29.6-66.1 66.1-66.1z"/><path fill="#ED1C24" d="M101.4 164.2c34.7 0 62.9-28.2 62.9-62.9s-28.2-62.9-62.9-62.9-62.9 28.2-62.9 62.9 28.2 62.9 62.9 62.9zm0-125.3c34.4 0 62.4 28 62.4 62.4s-28 62.4-62.4 62.4-62.4-28-62.4-62.4 27.9-62.4 62.4-62.4z"/><path fill="#ED1C24" d="M101.4 160.6c32.6 0 59.2-26.6 59.2-59.2S134 42.2 101.4 42.2s-59.2 26.6-59.2 59.2 26.5 59.2 59.2 59.2zm0-118c32.4 0 58.8 26.4 58.8 58.8s-26.4 58.8-58.8 58.8-58.8-26.4-58.8-58.8c0-32.5 26.3-58.8 58.8-58.8z"/><path fill="#ED1C24" d="M152.7 108.9c.4-2.5.5-5 .5-7.5s-.2-5.1-.5-7.5v4c.1 1.2.1 2.3.1 3.5s0 2.4-.1 3.5v4zM150.9 85.9c-1.9-6-4.9-11.6-8.7-16.5v.7c3.6 4.7 6.4 10 8.2 15.8h.5zM143.2 85.9c-.3-.8-.6-1.6-.9-2.3v1.1c.2.4.3.8.5 1.3l.4-.1zM147.1 85.9c-1.2-3.6-2.8-7-4.8-10.1v.8c1.8 2.9 3.3 6.1 4.4 9.3h.4zM59.5 116.8c.3.7.5 1.4.8 2.1v-1.1c-.1-.3-.3-.6-.4-1h-.4z"/></svg>