<?xml version="1.0" encoding="utf-8"?>
<!-- Generator: Adobe Illustrator 22.1.0, SVG Export Plug-In . SVG Version: 6.00 Build 0)  -->
<svg version="1.1" id="Layer_1" xmlns="http://www.w3.org/2000/svg" xmlns:xlink="http://www.w3.org/1999/xlink" x="0px" y="0px"
	 viewBox="0 0 200 200" style="enable-background:new 0 0 200 200;" xml:space="preserve">
<style type="text/css">
	.st0{fill:none;}
	.st1{fill:#1FCCBF;}
	.st2{fill:#183E7A;}
	.st3{fill:#036DA1;}
</style>
<g>
	<g>
		<path class="st0" d="M23,56.6L23,56.6L23,56.6z"/>
		<polygon class="st0" points="100.1,133.7 155.8,77.9 138.4,57.1 61.6,57.1 44.2,77.9 41.9,75.7 41.9,75.7 		"/>
		<path class="st1" d="M157.6,79.9L157.6,79.9l-1.7-2.1l-55.8,55.9l0,0l0,0V173l65.4-65.4c0.2-1.7,0.4-3.5,0.4-5.2
			C165.8,93.8,162.7,86,157.6,79.9z"/>
		<path class="st2" d="M152.1,26.9H47.9L23,56.6l0,0l9.7-11.7c-0.4,2.1-0.6,4.2-0.6,6.5c0,9.4,3.7,18,9.9,24.2l2.2,2.2L61.6,57h76.7
			l17.5,20.8l1.7,2l0,0c5.1,6,8.2,13.8,8.2,22.5c0,1.7-0.1,3.6-0.4,5.2l0,0l8.4-8.4l0,0L195,77.9L152.1,26.9z"/>
		<path class="st3" d="M100.1,133.7L100.1,133.7l-58.1-58l0,0c-6-6.2-9.9-14.8-9.9-24.2c0-2.2,0.2-4.4,0.6-6.5L23,56.6l0,0l0,0L5,78
			l95.1,95.1L100.1,133.7L100.1,133.7z"/>
	</g>
</g>
</svg>
