<svg xmlns="http://www.w3.org/2000/svg" viewBox="0 0 200 200"><radialGradient id="a" cx="100" cy="100" r="95" gradientUnits="userSpaceOnUse"><stop offset="0" stop-color="#fafcfe"/><stop offset="1" stop-color="#70b5e4"/></radialGradient><circle cx="100" cy="100" r="95" fill="url(#a)"/><linearGradient id="b" x1="141.7764" x2="141.7764" y1="83.6288" y2="131.5903" gradientUnits="userSpaceOnUse"><stop offset=".0016" stop-color="#b0855c"/><stop offset="1" stop-color="#e5d5c4"/></linearGradient><path fill="url(#b)" d="M100 98.5s2.2-1.7 6.6-1.5 10.3 2.4 22 17.4 21.5 27.4 55 5.1c0 0-6.1-2.4-17.9-19.3-10.9-15.7-19.8-16.4-20.9-16.4h-.3c-1.3-.2-12.1-1.2-26 6.4 0 0 13.9-3.1 19.3-.2 6.4 3.4 11.5 10.8 16.7 16.8 3 3.6 6.6 6.5 9 8.3 0 0-11.5 1-17.4-7.1-6.8-9.4-9.8-13.7-19.6-16.1s-21.4 1.7-26.5 6.6z"/><linearGradient id="c" x1="96.4366" x2="142.8387" y1="54.3143" y2="66.7477" gradientUnits="userSpaceOnUse"><stop offset="0" stop-color="#4c79b8"/><stop offset="1" stop-color="#71bdd8"/></linearGradient><path fill="url(#c)" d="M99.7 98.4s-1.1-2.6.3-6.8c1.4-4.2 5.1-9.3 22.6-16.6 17.5-7.4 32.1-13.5 19.5-51.7 0 0-4 5.2-23.4 12.1-18.1 6.4-21 14.7-21.3 15.8 0 .1-.1.2-.1.2-.5 1.2-4.3 11.3-.8 26.8 0 0 .7-14.3 4.9-18.7 5-5.2 13.5-8.2 20.7-11.6 4.2-2 8-4.6 10.4-6.5 0 0-2.1 11.3-11.4 14.9-10.8 4.1-15.8 5.8-20.8 14.6-4.9 8.8-4 21.3-.6 27.5z"/><linearGradient id="d" x1="84.3886" x2="128.4603" y1="141.671" y2="141.671" gradientUnits="userSpaceOnUse"><stop offset="0" stop-color="#b6c918"/><stop offset="1" stop-color="#598637"/></linearGradient><path fill="url(#d)" d="M99.8 98.7s2.3 1.5 3.5 5.8 1 10.5-9.4 26.4-19.1 29.1 12.7 53.8c0 0 .4-6.6 12.6-23.1 11.4-15.4 9.2-24 8.9-25 0-.1 0-.2-.1-.2-.3-1.3-2.7-11.8-14.3-22.6 0 0 7.4 12.2 6.4 18.2-1.2 7.1-6.6 14.3-10.7 21.2-2.4 4-4.1 8.3-5 11.2 0 0-4.6-10.6 1.2-18.7 6.7-9.4 9.9-13.6 9.1-23.7s-8.6-20-14.9-23.3z"/><linearGradient id="e" x1="59.0555" x2="59.0555" y1="137.7746" y2="97.3034" gradientUnits="userSpaceOnUse"><stop offset=".0016" stop-color="#9a2e50"/><stop offset="1" stop-color="#bd6098"/></linearGradient><path fill="url(#e)" d="M99.7 98.8s-.9 2.6-4.7 4.9c-3.8 2.2-9.9 3.6-27.9-2.3C49 95.5 34 90.5 18.4 127.6c0 0 6.4-1.3 25.6 6.2 17.8 7 25.5 2.7 26.5 2.1.1 0 .1-.1.2-.1 1.2-.6 10.7-5.7 18.2-19.7 0 0-9.9 10.3-16 10.9-7.2.7-15.6-2.6-23.2-4.8-4.5-1.3-9.1-1.8-12.1-2 0 0 9-7.2 18.4-3.7 10.9 4 15.7 6 25.2 2.6s16.9-13.4 18.5-20.3z"/><linearGradient id="f" x1="52.8712" x2="85.2768" y1="84.3978" y2="51.9921" gradientUnits="userSpaceOnUse"><stop offset="0" stop-color="#ef5c24"/><stop offset="1" stop-color="#f4d61d"/></linearGradient><path fill="url(#f)" d="M99.5 98.6s-2.8.2-6.3-2.5-7.1-7.8-8.4-26.7-2.4-34.7-42.6-35.2c0 0 3.7 5.5 3.9 26 .2 19.2 7.1 24.7 8.1 25.3.1 0 .1.1.2.2 1 .9 9.3 7.8 25.1 9.4 0 0-13.3-5.2-16.1-10.7C60 78 59.9 69 59.1 61.1c-.5-4.7-1.8-9.1-2.8-12 0 0 10.1 5.7 10.4 15.6.3 11.6.3 16.9 7.1 24.4 6.7 7.5 18.7 10.7 25.7 9.5z"/></svg>