<svg xmlns="http://www.w3.org/2000/svg" version="1" viewBox="0 0 200 200"><path d="M104.5 5c21 .1 45.1 4.6 67.6 16.4 5.3 2.8 10.1 6.5 15.2 9.7 1.9 1.2 2.7 2.9 2.9 5.2 3 30.4-1.7 59.5-15.1 86.9-12.7 26-30.9 47.3-55.7 62.6-5.7 3.5-12 6.1-18.1 8.8-1.4.6-3.4.5-4.9-.1-12.8-5-23.8-12.9-33.9-22.1-13.3-12.3-24.8-26.2-34.4-41.5-10.6-17-15.6-36-17.9-55.7C8.8 62.4 8.6 49.7 9.5 37c.2-2.2 1-3.7 2.7-5C26.7 20.2 43.5 13.5 61.4 9.3 74.2 6.2 87.2 5 104.5 5zM14.7 63.3c1.2 22.6 5.5 44.3 17.5 63.8 10.5 17.1 23.4 32.2 39 45 7.7 6.3 15.9 11.5 25.2 15 1.2.5 3 .6 4.1 0 6.4-3 13.2-5.5 19-9.4 28.9-19.2 48.4-45.6 58.5-78.8 6-19.6 8.1-39.7 5.6-60.2-.2-1.4-1.2-3.1-2.3-4-6.9-5.7-14.7-10.2-23-13.5C125.5 8.2 92 6.8 57.9 15.6c-14.8 3.8-28.5 10-40.4 19.7-1.5 1.2-2.4 2.5-2.5 4.5-.1 2.3-.4 7.2-.5 11.8-.1 5.3.1 10.1.2 11.7z"/><linearGradient id="a" x1="74.5462" x2="162.534" y1="44.3844" y2="132.3722" gradientUnits="userSpaceOnUse"><stop offset=".2097" stop-color="#7b58ff"/><stop offset=".2547" stop-color="#8969ff"/><stop offset=".4701" stop-color="#c6b6fd"/><stop offset=".6238" stop-color="#ece6fb"/><stop offset=".7" stop-color="#fbf8fb"/><stop offset="1" stop-color="#7a59f6"/></linearGradient><path fill="url(#a)" d="M103.3 181V15.7c11.9 0 37.2 4.3 48.3 9.5 8.8 4.2 17.5 9.4 25.9 14.3.8.4 1.4 1.7 1.5 2.6 1.6 26.3-.6 51.9-12.9 75.7-2 3.9-4.6 7.8-7.4 11.6-.1-.7 0-25 0-36.3 0-1.2.2-2.4.6-3.4 5.4-12.5 4.8-25.6 4.7-38.7 0-.8-.5-1.9-1.1-2.3-4.9-3.1-9.8-6.2-14.8-9.1-.6-.3-1.2-.3-1.2 1 0 33.6-.1 70 0 103.6 0 2.9-.8 5.1-2.8 7-3.7 3.5-11.9 11.4-12.9 12.1V38.9c0-6.1 0-6.1-6-7.3-7.3-1.4-7.3-1.4-7.3 6 0 44.2 0 88.5.1 132.7 0 3.1-.9 4.9-3.6 6.2-3.4 1.7-6.7 3.5-10.1 5.2-.4 0-1-.3-1-.7z"/><path d="M95.5 181V15.7c-11.9 0-37.2 4.3-48.3 9.5-8.8 4.2-17.5 9.4-25.9 14.3-.8.4-1.4 1.7-1.5 2.6-1.6 26.3.6 51.9 12.9 75.7 2 3.9 4.6 7.8 7.4 11.6.1-.7 0-25 0-36.3 0-1.2-.2-2.4-.6-3.4-5.4-12.5-4.8-25.6-4.7-38.7 0-.8.5-1.9 1.1-2.3 4.9-3.1 9.8-6.2 14.8-9.1.6-.3 1.2-.3 1.2 1 0 33.6.1 70 0 103.6 0 2.9.8 5.1 2.8 7 3.7 3.5 11.9 11.4 12.9 12.1V38.9c0-6.1 0-6.1 6-7.3 7.3-1.4 7.3-1.4 7.3 6 0 44.2 0 88.5-.1 132.7 0 3.1.9 4.9 3.6 6.2 3.4 1.7 6.7 3.5 10.1 5.2.4 0 1-.3 1-.7z"/></svg>