<?xml version="1.0" encoding="utf-8"?>
<!-- Generator: Adobe Illustrator 22.1.0, SVG Export Plug-In . SVG Version: 6.00 Build 0)  -->
<svg version="1.0" id="Livello_1" xmlns="http://www.w3.org/2000/svg" xmlns:xlink="http://www.w3.org/1999/xlink" x="0px" y="0px"
	 viewBox="0 0 200 200" style="enable-background:new 0 0 200 200;" xml:space="preserve">
<style type="text/css">
	.st0{fill:#232F3F;}
	.st1{fill:#F8BC21;}
</style>
<polygon class="st0" points="100,5 18.3,52.5 18.3,147.5 100,195 181.7,147.5 181.7,52.5 "/>
<polygon class="st1" points="27.8,58.6 27.8,141.4 38.5,135.3 38.5,64.5 100,28.8 100,17.1 "/>
<polygon class="st1" points="100,182.7 100,171.1 161.6,135.9 161.6,65 171.9,59.1 171.9,141.4 "/>
<path class="st1" d="M54.4,79.9h-6v-9.5h30.5c0,0,17.5-0.3,17.8,16.3c0,0,0.7,8.8-7.3,12.6c0,0,9.5,3.3,8.5,14.2
	s-2.8,14.1-17.2,16.6H48.1v-9.9h6.1L54.4,79.9z"/>
<path class="st0" d="M63.9,104.2v16h16.9c0,0,8.3-1.3,7.5-8c-0.7-6.7-8-8-8-8H63.9z"/>
<path class="st0" d="M63.9,80v14.6h15.3c0,0,7.9-0.5,7.9-7.3S78.9,80,78.9,80H63.9z"/>
<path class="st1" d="M122.5,137.5h10v-7.3c0,0,19.5-2.4,18.8-17.3c0,0,3.9-16.2-25.3-19c0,0-12.8-2.1-11.5-6.7
	c1.4-4.5,7.9-6.1,7.9-6.1s3.5-2,12.4,0.5c0,0,5.7,2,7,7.3l9.7-5c0,0-3.9-11.7-18.9-13.4v-8.1h-10v8.1c0,0-18.5,2.1-18.4,16.8
	s16.8,16.2,16.8,16.2s21.2,2.4,20.1,8.7s-7.7,6.9-7.7,6.9s-17.6,4.1-22.4-8.9l-9.5,5c0,0,4.3,13.2,21.1,14.6V137.5z"/>
</svg>
