<?xml version="1.0" encoding="utf-8"?>
<!-- Generator: Adobe Illustrator 22.1.0, SVG Export Plug-In . SVG Version: 6.00 Build 0)  -->
<svg version="1.1" id="Livello_1" xmlns="http://www.w3.org/2000/svg" xmlns:xlink="http://www.w3.org/1999/xlink" x="0px" y="0px"
	 viewBox="0 0 200 200" style="enable-background:new 0 0 200 200;" xml:space="preserve">
<style type="text/css">
	.st0{fill:#2B2465;}
	.st1{fill:#3EB48A;}
</style>
<g id="组_5269" transform="translate(0 0.006)">
	<path id="路径_1" class="st0" d="M94.3,63.7H70.1c-22,0-42.4,16.3-42.4,41.9v86.8c0,0,0,2.3,2.3,2.3h36.7c0,0,2.3,0,2.3-2.3v-3.9
		c0-2.9-7.9-10.2-7.9-15.2v-62.1c0-9.3,5.2-14.5,14.5-14.5h18.8c9.1,0,16.5-7.3,16.6-16.4c0,0,0-0.1,0-0.1
		C110.9,71.2,103.2,63.7,94.3,63.7z"/>
	<path id="路径_2" class="st1" d="M172.5,175.7c0-3.4-1.8-3.4-3.6-3.4c-5.9,0-11.1-5.7-11.1-5.7l-30.2-25.8
		C148.7,129,163,106.6,163,80.7c0-32.2-22.2-59.2-52.1-66.7c-5.4-1.5-11-2.2-16.6-2.3h-44c-3.6,0-8.6-3.4-10.9-5.7
		c-0.8-0.8-2-1.2-3.2-1.1h-5.9c0,0-2.9,0.2-2.9,2.9v33.3c0,0,0,5.4,6.1,5.4h61.7c5.7,0.2,10.9,1.6,15.4,4.1c2.9,1.6,5.6,3.5,7.9,5.9
		c6.4,6.4,10,15,10,24c0,9.1-3.6,17.5-10,24c-6.4,6.4-15,10-24,10h-0.2c-6.8,0-12.9,4.1-15.6,9.7c0,0.2-0.1,0.3-0.2,0.5l0,0
		c-1,2.2-1.5,4.6-1.6,7c0,5.2,2.3,10.1,6.3,13.4l49.9,45.6c0,0,2.9,3.6,7.9,3.6c5.2,0,28.1,0.5,28.1,0.5s3.2,0,3.2-3.2
		C172.5,186.8,172.5,177.5,172.5,175.7z"/>
</g>
</svg>
