<?xml version="1.0" encoding="UTF-8" standalone="no"?><!DOCTYPE svg PUBLIC "-//W3C//DTD SVG 1.1//EN" "http://www.w3.org/Graphics/SVG/1.1/DTD/svg11.dtd"><svg width="100%" height="100%" viewBox="0 0 15 15" version="1.1" xmlns="http://www.w3.org/2000/svg" xmlns:xlink="http://www.w3.org/1999/xlink" xml:space="preserve" style="fill-rule:evenodd;clip-rule:evenodd;stroke-linejoin:round;stroke-miterlimit:1.41421;"><circle cx="5.795" cy="7.978" r="0.733" style="fill:#376ec2;"/><circle cx="4.168" cy="7.531" r="0.584" style="fill:#376ec2;"/><circle cx="2.694" cy="7.092" r="0.493" style="fill:#376ec2;"/><circle cx="7.088" cy="3.088" r="0.493" style="fill:#376ec2;"/><circle cx="12.227" cy="5.998" r="0.493" style="fill:#376ec2;"/><circle cx="11.02" cy="11.784" r="0.493" style="fill:#376ec2;"/><circle cx="5.197" cy="12.47" r="0.493" style="fill:#376ec2;"/><circle cx="4.207" cy="13.486" r="0.415" style="fill:#376ec2;"/><circle cx="11.729" cy="12.956" r="0.415" style="fill:#376ec2;"/><circle cx="13.601" cy="5.724" r="0.415" style="fill:#376ec2;"/><circle cx="7.199" cy="1.705" r="0.415" style="fill:#376ec2;"/><circle cx="1.463" cy="6.515" r="0.415" style="fill:#376ec2;"/><circle cx="0.317" cy="5.99" r="0.273" style="fill:#376ec2;"/><circle cx="7.468" cy="0.547" r="0.273" style="fill:#376ec2;"/><circle cx="14.727" cy="5.572" r="0.273" style="fill:#376ec2;"/><circle cx="12.244" cy="14.188" r="0.273" style="fill:#376ec2;"/><circle cx="3.259" cy="14.453" r="0.273" style="fill:#376ec2;"/><circle cx="7.06" cy="4.633" r="0.584" style="fill:#376ec2;"/><circle cx="10.795" cy="6.458" r="0.584" style="fill:#376ec2;"/><circle cx="10.127" cy="10.572" r="0.584" style="fill:#376ec2;"/><circle cx="6.039" cy="11.219" r="0.584" style="fill:#376ec2;"/><circle cx="7.211" cy="6.385" r="0.733" style="fill:#376ec2;"/><circle cx="9.263" cy="7.163" r="0.733" style="fill:#376ec2;"/><circle cx="9.034" cy="9.299" r="0.733" style="fill:#376ec2;"/><circle cx="6.936" cy="9.843" r="0.733" style="fill:#376ec2;"/></svg>